<?xml version="1.0" encoding="UTF-8" standalone="no"?>
<!DOCTYPE svg PUBLIC "-//W3C//DTD SVG 1.1//EN"
"http://www.w3.org/Graphics/SVG/1.1/DTD/svg11.dtd">
<svg viewBox="0 0 909 1286" version="1.1" xmlns="http://www.w3.org/2000/svg" xmlns:xlink="http://www.w3.org/1999/xlink">
<defs>
<style type="text/css"><![CDATA[
.g0_124{
fill: #D9D9D9;
}
.g1_124{
fill: none;
stroke: #000000;
stroke-width: 0.7638889;
stroke-linecap: butt;
stroke-linejoin: miter;
}
.g2_124{
}
]]></style>
</defs>
<image preserveAspectRatio="none" x="747" y="1196" width="96" height="59" xlink:href="img/1.png" />
<image preserveAspectRatio="none" x="336" y="41" width="259" height="51" xlink:href="img/2.png" />
<image preserveAspectRatio="none" x="342" y="50" width="247" height="27" xlink:href="img/3.png" />
<image preserveAspectRatio="none" x="341" y="45" width="239" height="42" xlink:href="img/4.png" />
<g fill="#FFFFFF" >
<use xlink:href="#f0_j" transform="matrix(11.5,0,0,11.5,355.1,70.1)" />
<use xlink:href="#f0_i" transform="matrix(11.5,0,0,11.5,364.3,70.1)" />
<use xlink:href="#f0_2n" transform="matrix(11.5,0,0,11.5,374.1,70.1)" />
<use xlink:href="#f0_t" transform="matrix(11.5,0,0,11.5,382.6,70.1)" />
<use xlink:href="#f0_oj" transform="matrix(11.5,0,0,11.5,391,70.1)" />
<use xlink:href="#f0_3e" transform="matrix(11.5,0,0,11.5,396.5,70.1)" />
<use xlink:href="#f0_1c" transform="matrix(11.5,0,0,11.5,406.1,70.1)" />
<use xlink:href="#f0_1c" transform="matrix(11.5,0,0,11.5,410.8,70.1)" />
<use xlink:href="#f0_oj" transform="matrix(11.5,0,0,11.5,415.6,70.1)" />
<use xlink:href="#f0_rz" transform="matrix(11.5,0,0,11.5,421.1,70.1)" />
<use xlink:href="#f0_rx" transform="matrix(11.5,0,0,11.5,429.9,70.1)" />
<use xlink:href="#f0_ry" transform="matrix(11.5,0,0,11.5,438.7,70.1)" />
<use xlink:href="#f0_s0" transform="matrix(11.5,0,0,11.5,447.5,70.1)" />
<use xlink:href="#f0_t" transform="matrix(11.5,0,0,11.5,460.4,70.1)" />
<use xlink:href="#f0_3e" transform="matrix(11.5,0,0,11.5,468.8,70.1)" />
<use xlink:href="#f0_5" transform="matrix(11.5,0,0,11.5,478.3,70.1)" />
<use xlink:href="#f0_1x" transform="matrix(11.5,0,0,11.5,489,70.1)" />
<use xlink:href="#f0_1c" transform="matrix(11.5,0,0,11.5,504.4,70.1)" />
<use xlink:href="#f0_1y" transform="matrix(11.5,0,0,11.5,509.1,70.1)" />
<use xlink:href="#f0_5" transform="matrix(11.5,0,0,11.5,520.8,70.1)" />
<use xlink:href="#f0_2t" transform="matrix(11.5,0,0,11.5,531.5,70.1)" />
<use xlink:href="#f0_1c" transform="matrix(11.5,0,0,11.5,540.2,70.1)" />
<use xlink:href="#f0_24" transform="matrix(11.5,0,0,11.5,545,70.1)" />
<use xlink:href="#f0_1y" transform="matrix(11.5,0,0,11.5,556.7,70.1)" />
</g>
<image preserveAspectRatio="none" x="554" y="45" width="36" height="42" xlink:href="img/5.png" />
<g fill="#FFFFFF" >
<use xlink:href="#f1_t" transform="matrix(11,0,0,11,770.3,1227.6)" />
<use xlink:href="#f1_j" transform="matrix(11,0,0,11,783.5,1227.6)" />
<use xlink:href="#f1_l" transform="matrix(11,0,0,11,794.1,1227.6)" />
<use xlink:href="#f1_l" transform="matrix(11,0,0,11,802.9,1227.6)" />
</g>
<path fill-rule="evenodd" d="M52.8,1193.5H856.9v-.8H52.8v.8Z" class="g0_124" />
<path d="M37.9,99.4L873,98.5" class="g1_124" />
<g fill="#000000" >
<use xlink:href="#f2_c" transform="matrix(12,0,0,12,55,585.7)" />
<use xlink:href="#f2_1y" transform="matrix(12,0,0,12,61.3,585.7)" />
<use xlink:href="#f2_d" transform="matrix(12,0,0,12,70.1,585.7)" />
<use xlink:href="#f2_c" transform="matrix(12,0,0,12,81,585.7)" />
<use xlink:href="#f2_25" transform="matrix(12,0,0,12,87.2,585.7)" />
<use xlink:href="#f2_d" transform="matrix(12,0,0,12,91.6,585.7)" />
<use xlink:href="#f2_1g" transform="matrix(12,0,0,12,102.6,585.7)" />
<use xlink:href="#f2_21" transform="matrix(12,0,0,12,112.8,585.7)" />
<use xlink:href="#f2_2a" transform="matrix(12,0,0,12,120.9,585.7)" />
<use xlink:href="#f2_2g" transform="matrix(12,0,0,12,129.7,585.7)" />
<use xlink:href="#f2_1x" transform="matrix(12,0,0,12,135.2,585.7)" />
<use xlink:href="#f2_2a" transform="matrix(12,0,0,12,143.6,585.7)" />
<use xlink:href="#f2_21" transform="matrix(12,0,0,12,152.4,585.7)" />
<use xlink:href="#f2_m" transform="matrix(12,0,0,12,165.2,585.7)" />
<use xlink:href="#f2_h" transform="matrix(12,0,0,12,174.6,585.7)" />
<use xlink:href="#f2_2b" transform="matrix(12,0,0,12,180.8,585.7)" />
<use xlink:href="#f2_2a" transform="matrix(12,0,0,12,190.4,585.7)" />
<use xlink:href="#f2_21" transform="matrix(12,0,0,12,199.2,585.7)" />
<use xlink:href="#f2_23" transform="matrix(12,0,0,12,212,585.7)" />
<use xlink:href="#f2_25" transform="matrix(12,0,0,12,221.1,585.7)" />
<use xlink:href="#f2_2i" transform="matrix(12,0,0,12,225.9,585.7)" />
<use xlink:href="#f2_21" transform="matrix(12,0,0,12,235.1,585.7)" />
<use xlink:href="#f2_2f" transform="matrix(12,0,0,12,243.1,585.7)" />
<use xlink:href="#f2_f" transform="matrix(12,0,0,12,254.9,585.7)" />
<use xlink:href="#f2_2i" transform="matrix(12,0,0,12,265.5,585.7)" />
<use xlink:href="#f2_21" transform="matrix(12,0,0,12,274.3,585.7)" />
<use xlink:href="#f2_25" transform="matrix(12,0,0,12,287.5,585.7)" />
<use xlink:href="#f2_2b" transform="matrix(12,0,0,12,291.9,585.7)" />
<use xlink:href="#f2_20" transform="matrix(12,0,0,12,301.4,585.7)" />
<use xlink:href="#f2_2b" transform="matrix(12,0,0,12,310.5,585.7)" />
<use xlink:href="#f2_22" transform="matrix(12,0,0,12,320,585.7)" />
<use xlink:href="#f2_2b" transform="matrix(12,0,0,12,325.5,585.7)" />
<use xlink:href="#f2_2e" transform="matrix(12,0,0,12,335.1,585.7)" />
<use xlink:href="#f2_29" transform="matrix(12,0,0,12,341.6,585.7)" />
<use xlink:href="#f2_2g" transform="matrix(12,0,0,12,360,585.7)" />
<use xlink:href="#f2_21" transform="matrix(12,0,0,12,365.4,585.7)" />
<use xlink:href="#f2_2f" transform="matrix(12,0,0,12,373.5,585.7)" />
<use xlink:href="#f2_2g" transform="matrix(12,0,0,12,380.1,585.7)" />
<use xlink:href="#f2_1y" transform="matrix(12,0,0,12,390.3,585.7)" />
<use xlink:href="#f2_2h" transform="matrix(12,0,0,12,399.1,585.7)" />
<use xlink:href="#f2_2g" transform="matrix(12,0,0,12,408.3,585.7)" />
<use xlink:href="#f2_2a" transform="matrix(12,0,0,12,418.2,585.7)" />
<use xlink:href="#f2_2b" transform="matrix(12,0,0,12,427,585.7)" />
<use xlink:href="#f2_2g" transform="matrix(12,0,0,12,436.2,585.7)" />
<use xlink:href="#f2_2c" transform="matrix(12,0,0,12,446,585.7)" />
<use xlink:href="#f2_21" transform="matrix(12,0,0,12,455.2,585.7)" />
<use xlink:href="#f2_2a" transform="matrix(12,0,0,12,463.3,585.7)" />
<use xlink:href="#f2_2g" transform="matrix(12,0,0,12,472.1,585.7)" />
<use xlink:href="#f2_1x" transform="matrix(12,0,0,12,477.5,585.7)" />
<use xlink:href="#f2_2a" transform="matrix(12,0,0,12,485.6,585.7)" />
<use xlink:href="#f2_21" transform="matrix(12,0,0,12,494.4,585.7)" />
<use xlink:href="#f2_n" transform="matrix(12,0,0,12,507.2,585.7)" />
<use xlink:href="#f2_h" transform="matrix(12,0,0,12,516.8,585.7)" />
<use xlink:href="#f2_2b" transform="matrix(12,0,0,12,523.1,585.7)" />
<use xlink:href="#f2_2a" transform="matrix(12,0,0,12,532.6,585.7)" />
<use xlink:href="#f2_21" transform="matrix(12,0,0,12,541.4,585.7)" />
<use xlink:href="#f2_c" transform="matrix(12,0,0,12,55,607)" />
<use xlink:href="#f2_25" transform="matrix(12,0,0,12,61.6,607)" />
<use xlink:href="#f2_25" transform="matrix(12,0,0,12,66.4,607)" />
<use xlink:href="#f2_d" transform="matrix(12,0,0,12,70.8,607)" />
<use xlink:href="#f2_15" transform="matrix(12,0,0,12,81.7,607)" />
<use xlink:href="#f2_2g" transform="matrix(12,0,0,12,93.1,607)" />
<use xlink:href="#f2_24" transform="matrix(12,0,0,12,98.6,607)" />
<use xlink:href="#f2_1x" transform="matrix(12,0,0,12,107.4,607)" />
<use xlink:href="#f2_2a" transform="matrix(12,0,0,12,115.4,607)" />
<use xlink:href="#f2_1x" transform="matrix(12,0,0,12,124.2,607)" />
<use xlink:href="#f2_28" transform="matrix(12,0,0,12,132.7,607)" />
<use xlink:href="#f2_23" transform="matrix(12,0,0,12,142.2,607)" />
<use xlink:href="#f2_25" transform="matrix(12,0,0,12,151.7,607)" />
<use xlink:href="#f2_2i" transform="matrix(12,0,0,12,156.5,607)" />
<use xlink:href="#f2_21" transform="matrix(12,0,0,12,165.6,607)" />
<use xlink:href="#f2_2f" transform="matrix(12,0,0,12,173.7,607)" />
<use xlink:href="#f2_f" transform="matrix(12,0,0,12,185.4,607)" />
<use xlink:href="#f2_2i" transform="matrix(12,0,0,12,196,607)" />
<use xlink:href="#f2_21" transform="matrix(12,0,0,12,204.8,607)" />
<use xlink:href="#f2_25" transform="matrix(12,0,0,12,218,607)" />
<use xlink:href="#f2_2b" transform="matrix(12,0,0,12,222.4,607)" />
<use xlink:href="#f2_20" transform="matrix(12,0,0,12,231.9,607)" />
<use xlink:href="#f2_2b" transform="matrix(12,0,0,12,241.1,607)" />
<use xlink:href="#f2_22" transform="matrix(12,0,0,12,250.6,607)" />
<use xlink:href="#f2_2b" transform="matrix(12,0,0,12,256.1,607)" />
<use xlink:href="#f2_2e" transform="matrix(12,0,0,12,265.6,607)" />
<use xlink:href="#f2_29" transform="matrix(12,0,0,12,272.2,607)" />
<use xlink:href="#f2_2g" transform="matrix(12,0,0,12,290.5,607)" />
<use xlink:href="#f2_21" transform="matrix(12,0,0,12,296,607)" />
<use xlink:href="#f2_2f" transform="matrix(12,0,0,12,304.1,607)" />
<use xlink:href="#f2_2g" transform="matrix(12,0,0,12,311,607)" />
<use xlink:href="#f2_1y" transform="matrix(12,0,0,12,320.9,607)" />
<use xlink:href="#f2_2h" transform="matrix(12,0,0,12,329.7,607)" />
<use xlink:href="#f2_2g" transform="matrix(12,0,0,12,338.9,607)" />
<use xlink:href="#f2_2a" transform="matrix(12,0,0,12,349.1,607)" />
<use xlink:href="#f2_2b" transform="matrix(12,0,0,12,357.9,607)" />
<use xlink:href="#f2_2g" transform="matrix(12,0,0,12,367.1,607)" />
<use xlink:href="#f2_2c" transform="matrix(12,0,0,12,377,607)" />
<use xlink:href="#f2_2e" transform="matrix(12,0,0,12,386.1,607)" />
<use xlink:href="#f2_2b" transform="matrix(12,0,0,12,392,607)" />
<use xlink:href="#f2_2c" transform="matrix(12,0,0,12,401.5,607)" />
<use xlink:href="#f2_1x" transform="matrix(12,0,0,12,410.7,607)" />
<use xlink:href="#f2_2a" transform="matrix(12,0,0,12,418.7,607)" />
<use xlink:href="#f2_1x" transform="matrix(12,0,0,12,427.5,607)" />
<use xlink:href="#f2_28" transform="matrix(12,0,0,12,435.9,607)" />
<use xlink:href="#f3_1f" transform="matrix(12,0,0,12,440.9,627.9)" />
<use xlink:href="#f3_1i" transform="matrix(12,0,0,12,455.2,627.9)" />
<use xlink:href="#f2_c" transform="matrix(12,0,0,12,55,887.6)" />
<use xlink:href="#f2_1y" transform="matrix(12,0,0,12,61.3,887.6)" />
<use xlink:href="#f2_d" transform="matrix(12,0,0,12,70.1,887.6)" />
<use xlink:href="#f2_c" transform="matrix(12,0,0,12,81,887.6)" />
<use xlink:href="#f2_25" transform="matrix(12,0,0,12,87.2,887.6)" />
<use xlink:href="#f2_d" transform="matrix(12,0,0,12,91.6,887.6)" />
<use xlink:href="#f2_16" transform="matrix(12,0,0,12,102.6,887.6)" />
<use xlink:href="#f2_h" transform="matrix(12,0,0,12,112.6,887.6)" />
<use xlink:href="#f2_13" transform="matrix(12,0,0,12,118.8,887.6)" />
<use xlink:href="#f2_18" transform="matrix(12,0,0,12,130.9,887.6)" />
<use xlink:href="#f2_m" transform="matrix(7.9,0,0,7.9,144.1,889.1)" />
<use xlink:href="#f4_4y" transform="matrix(12,0,0,12,150.4,887.6)" />
<use xlink:href="#f2_13" transform="matrix(12,0,0,12,159.6,887.6)" />
<use xlink:href="#f2_1f" transform="matrix(12,0,0,12,171.7,887.6)" />
<use xlink:href="#f2_1f" transform="matrix(12,0,0,12,185.2,887.6)" />
<use xlink:href="#f2_18" transform="matrix(12,0,0,12,198.5,887.6)" />
<use xlink:href="#f2_25" transform="matrix(12,0,0,12,216.7,887.6)" />
<use xlink:href="#f2_2f" transform="matrix(12,0,0,12,221.5,887.6)" />
<use xlink:href="#f2_2f" transform="matrix(12,0,0,12,233.2,887.6)" />
<use xlink:href="#f2_2g" transform="matrix(12,0,0,12,240.2,887.6)" />
<use xlink:href="#f2_2e" transform="matrix(12,0,0,12,245.7,887.6)" />
<use xlink:href="#f2_2b" transform="matrix(12,0,0,12,251.5,887.6)" />
<use xlink:href="#f2_2a" transform="matrix(12,0,0,12,261.1,887.6)" />
<use xlink:href="#f2_23" transform="matrix(12,0,0,12,269.9,887.6)" />
<use xlink:href="#f2_1x" transform="matrix(12,0,0,12,283.8,887.6)" />
<use xlink:href="#f2_1z" transform="matrix(12,0,0,12,291.8,887.6)" />
<use xlink:href="#f2_25" transform="matrix(12,0,0,12,300.2,887.6)" />
<use xlink:href="#f2_20" transform="matrix(12,0,0,12,304.6,887.6)" />
<use xlink:href="#f2_20" transform="matrix(12,0,0,12,318.6,887.6)" />
<use xlink:href="#f2_2h" transform="matrix(12,0,0,12,327.7,887.6)" />
<use xlink:href="#f2_21" transform="matrix(12,0,0,12,336.9,887.6)" />
<use xlink:href="#f2_2g" transform="matrix(12,0,0,12,349.7,887.6)" />
<use xlink:href="#f2_2b" transform="matrix(12,0,0,12,354.8,887.6)" />
<use xlink:href="#f2_24" transform="matrix(12,0,0,12,368.8,887.6)" />
<use xlink:href="#f2_25" transform="matrix(12,0,0,12,377.9,887.6)" />
<use xlink:href="#f2_23" transform="matrix(12,0,0,12,382.3,887.6)" />
<use xlink:href="#f2_24" transform="matrix(12,0,0,12,391.8,887.6)" />
<use xlink:href="#f2_h" transform="matrix(12,0,0,12,405.7,887.6)" />
<use xlink:href="#f2_19" transform="matrix(12,0,0,12,411.9,887.6)" />
<use xlink:href="#f2_2c" transform="matrix(12,0,0,12,422.5,887.6)" />
<use xlink:href="#f2_2b" transform="matrix(12,0,0,12,431.7,887.6)" />
<use xlink:href="#f2_2j" transform="matrix(12,0,0,12,441.2,887.6)" />
<use xlink:href="#f2_21" transform="matrix(12,0,0,12,454.5,887.6)" />
<use xlink:href="#f2_2e" transform="matrix(12,0,0,12,462.5,887.6)" />
<use xlink:href="#f2_2b" transform="matrix(12,0,0,12,472.7,887.6)" />
<use xlink:href="#f2_22" transform="matrix(12,0,0,12,482.3,887.6)" />
<use xlink:href="#f2_16" transform="matrix(12,0,0,12,492.5,887.6)" />
<use xlink:href="#f2_i" transform="matrix(12,0,0,12,502.4,887.6)" />
<use xlink:href="#f2_c" transform="matrix(12,0,0,12,55,908.5)" />
<use xlink:href="#f2_25" transform="matrix(12,0,0,12,61.6,908.5)" />
<use xlink:href="#f2_25" transform="matrix(12,0,0,12,66.4,908.5)" />
<use xlink:href="#f2_d" transform="matrix(12,0,0,12,70.8,908.5)" />
<use xlink:href="#f2_13" transform="matrix(12,0,0,12,81.7,908.5)" />
<use xlink:href="#f2_18" transform="matrix(12,0,0,12,93.8,908.5)" />
<use xlink:href="#f2_n" transform="matrix(7.9,0,0,7.9,107.1,910)" />
<use xlink:href="#f4_4y" transform="matrix(12,0,0,12,113.3,908.5)" />
<use xlink:href="#f2_13" transform="matrix(12,0,0,12,122.5,908.5)" />
<use xlink:href="#f2_1f" transform="matrix(12,0,0,12,134.6,908.5)" />
<use xlink:href="#f2_1f" transform="matrix(12,0,0,12,147.8,908.5)" />
<use xlink:href="#f2_18" transform="matrix(12,0,0,12,161,908.5)" />
<use xlink:href="#f2_g" transform="matrix(12,0,0,12,174.2,908.5)" />
<use xlink:href="#f2_20" transform="matrix(12,0,0,12,183.7,908.5)" />
<use xlink:href="#f2_2h" transform="matrix(12,0,0,12,192.9,908.5)" />
<use xlink:href="#f2_21" transform="matrix(12,0,0,12,202,908.5)" />
<use xlink:href="#f2_2g" transform="matrix(12,0,0,12,214.9,908.5)" />
<use xlink:href="#f2_2b" transform="matrix(12,0,0,12,220,908.5)" />
<use xlink:href="#f2_29" transform="matrix(12,0,0,12,234,908.5)" />
<use xlink:href="#f2_2b" transform="matrix(12,0,0,12,247.6,908.5)" />
<use xlink:href="#f2_2e" transform="matrix(12,0,0,12,257.1,908.5)" />
<use xlink:href="#f2_21" transform="matrix(12,0,0,12,263.3,908.5)" />
<use xlink:href="#f2_2f" transform="matrix(12,0,0,12,276.1,908.5)" />
<use xlink:href="#f2_2g" transform="matrix(12,0,0,12,283.1,908.5)" />
<use xlink:href="#f2_1x" transform="matrix(12,0,0,12,288.6,908.5)" />
<use xlink:href="#f2_1y" transform="matrix(12,0,0,12,296.6,908.5)" />
<use xlink:href="#f2_28" transform="matrix(12,0,0,12,305.8,908.5)" />
<use xlink:href="#f2_21" transform="matrix(12,0,0,12,310.2,908.5)" />
<use xlink:href="#f2_1z" transform="matrix(12,0,0,12,323,908.5)" />
<use xlink:href="#f2_2b" transform="matrix(12,0,0,12,331.1,908.5)" />
<use xlink:href="#f2_2a" transform="matrix(12,0,0,12,340.6,908.5)" />
<use xlink:href="#f2_26" transform="matrix(12,0,0,12,349.7,908.5)" />
<use xlink:href="#f2_2h" transform="matrix(12,0,0,12,354.5,908.5)" />
<use xlink:href="#f2_23" transform="matrix(12,0,0,12,363.7,908.5)" />
<use xlink:href="#f2_1x" transform="matrix(12,0,0,12,372.8,908.5)" />
<use xlink:href="#f2_2g" transform="matrix(12,0,0,12,380.9,908.5)" />
<use xlink:href="#f2_21" transform="matrix(12,0,0,12,386.4,908.5)" />
<use xlink:href="#f2_1y" transform="matrix(12,0,0,12,399.2,908.5)" />
<use xlink:href="#f2_1x" transform="matrix(12,0,0,12,408,908.5)" />
<use xlink:href="#f2_2f" transform="matrix(12,0,0,12,416.1,908.5)" />
<use xlink:href="#f2_21" transform="matrix(12,0,0,12,423.4,908.5)" />
<use xlink:href="#f2_13" transform="matrix(12,0,0,12,436.2,908.5)" />
<use xlink:href="#f2_18" transform="matrix(12,0,0,12,448.3,908.5)" />
<use xlink:href="#f2_n" transform="matrix(7.9,0,0,7.9,461.8,910)" />
<use xlink:href="#f4_4y" transform="matrix(12,0,0,12,468.1,908.5)" />
<use xlink:href="#f2_13" transform="matrix(12,0,0,12,477.2,908.5)" />
<use xlink:href="#f2_1f" transform="matrix(12,0,0,12,489.3,908.5)" />
<use xlink:href="#f2_1f" transform="matrix(12,0,0,12,502.6,908.5)" />
<use xlink:href="#f2_36" transform="matrix(12,0,0,12,515.7,908.5)" />
<use xlink:href="#f3_m" transform="matrix(12,0,0,12,55,950.7)" />
<use xlink:href="#f3_t" transform="matrix(12,0,0,12,64.2,950.7)" />
<use xlink:href="#f3_i" transform="matrix(12,0,0,12,73.4,950.7)" />
<use xlink:href="#f4_c" transform="matrix(12,0,0,12,82.9,950.7)" />
<use xlink:href="#f4_1x" transform="matrix(12,0,0,12,89.1,950.7)" />
<use xlink:href="#f4_d" transform="matrix(12,0,0,12,96.8,950.7)" />
<use xlink:href="#f4_1j" transform="matrix(12,0,0,12,107.8,950.7)" />
<use xlink:href="#f4_2g" transform="matrix(12,0,0,12,117.7,950.7)" />
<use xlink:href="#f4_1x" transform="matrix(12,0,0,12,123.2,950.7)" />
<use xlink:href="#f4_2g" transform="matrix(12,0,0,12,130.9,950.7)" />
<use xlink:href="#f4_21" transform="matrix(12,0,0,12,136.3,950.7)" />
<use xlink:href="#f4_1i" transform="matrix(12,0,0,12,148.8,950.7)" />
<use xlink:href="#f4_1x" transform="matrix(12,0,0,12,160.9,950.7)" />
<use xlink:href="#f4_2b" transform="matrix(12,0,0,12,169,950.7)" />
<use xlink:href="#f4_2h" transform="matrix(12,0,0,12,178.5,950.7)" />
<use xlink:href="#f4_28" transform="matrix(12,0,0,12,187.6,950.7)" />
<use xlink:href="#f4_2g" transform="matrix(12,0,0,12,192,950.7)" />
<use xlink:href="#f4_53" transform="matrix(12,0,0,12,197.5,950.7)" />
<use xlink:href="#f4_2f" transform="matrix(12,0,0,12,203.4,950.7)" />
<use xlink:href="#f4_28" transform="matrix(12,0,0,12,215.5,950.7)" />
<use xlink:href="#f4_1x" transform="matrix(12,0,0,12,219.9,950.7)" />
<use xlink:href="#f4_2j" transform="matrix(12,0,0,12,228.3,950.7)" />
<use xlink:href="#f4_22" transform="matrix(12,0,0,12,246.6,950.7)" />
<use xlink:href="#f4_2b" transform="matrix(12,0,0,12,252.1,950.7)" />
<use xlink:href="#f4_2e" transform="matrix(12,0,0,12,261.6,950.7)" />
<use xlink:href="#f4_1x" transform="matrix(12,0,0,12,272.6,950.7)" />
<use xlink:href="#f4_2f" transform="matrix(12,0,0,12,285,950.7)" />
<use xlink:href="#f4_2b" transform="matrix(12,0,0,12,292,950.7)" />
<use xlink:href="#f4_28" transform="matrix(12,0,0,12,301.5,950.7)" />
<use xlink:href="#f4_2h" transform="matrix(12,0,0,12,305.9,950.7)" />
<use xlink:href="#f4_2g" transform="matrix(12,0,0,12,315.1,950.7)" />
<use xlink:href="#f4_25" transform="matrix(12,0,0,12,320.9,950.7)" />
<use xlink:href="#f4_2b" transform="matrix(12,0,0,12,325.3,950.7)" />
<use xlink:href="#f4_2a" transform="matrix(12,0,0,12,334.8,950.7)" />
<use xlink:href="#f4_1z" transform="matrix(12,0,0,12,348.4,950.7)" />
<use xlink:href="#f4_2b" transform="matrix(12,0,0,12,356.5,950.7)" />
<use xlink:href="#f4_2a" transform="matrix(12,0,0,12,366,950.7)" />
<use xlink:href="#f4_2g" transform="matrix(12,0,0,12,374.8,950.7)" />
<use xlink:href="#f4_1x" transform="matrix(12,0,0,12,380.3,950.7)" />
<use xlink:href="#f4_25" transform="matrix(12,0,0,12,388.3,950.7)" />
<use xlink:href="#f4_2a" transform="matrix(12,0,0,12,393.1,950.7)" />
<use xlink:href="#f4_25" transform="matrix(12,0,0,12,402.3,950.7)" />
<use xlink:href="#f4_2a" transform="matrix(12,0,0,12,407,950.7)" />
<use xlink:href="#f4_23" transform="matrix(12,0,0,12,416.2,950.7)" />
<use xlink:href="#f4_2i" transform="matrix(12,0,0,12,430.4,950.7)" />
<use xlink:href="#f4_2b" transform="matrix(12,0,0,12,439.2,950.7)" />
<use xlink:href="#f4_28" transform="matrix(12,0,0,12,448.8,950.7)" />
<use xlink:href="#f4_1x" transform="matrix(12,0,0,12,453.5,950.7)" />
<use xlink:href="#f4_2g" transform="matrix(12,0,0,12,461.6,950.7)" />
<use xlink:href="#f4_25" transform="matrix(12,0,0,12,467.1,950.7)" />
<use xlink:href="#f4_28" transform="matrix(12,0,0,12,471.8,950.7)" />
<use xlink:href="#f4_21" transform="matrix(12,0,0,12,476.6,950.7)" />
<use xlink:href="#f4_1z" transform="matrix(12,0,0,12,489.4,950.7)" />
<use xlink:href="#f4_2b" transform="matrix(12,0,0,12,497.5,950.7)" />
<use xlink:href="#f4_29" transform="matrix(12,0,0,12,507.4,950.7)" />
<use xlink:href="#f4_2c" transform="matrix(12,0,0,12,520.9,950.7)" />
<use xlink:href="#f4_2b" transform="matrix(12,0,0,12,530.1,950.7)" />
<use xlink:href="#f4_2a" transform="matrix(12,0,0,12,539.6,950.7)" />
<use xlink:href="#f4_21" transform="matrix(12,0,0,12,548.4,950.7)" />
<use xlink:href="#f4_2a" transform="matrix(12,0,0,12,556.8,950.7)" />
<use xlink:href="#f4_2g" transform="matrix(12,0,0,12,565.6,950.7)" />
<use xlink:href="#f4_2f" transform="matrix(12,0,0,12,571.1,950.7)" />
<use xlink:href="#f4_i" transform="matrix(12,0,0,12,578.1,950.7)" />
<use xlink:href="#f4_18" transform="matrix(12,0,0,12,587.6,950.7)" />
<use xlink:href="#f4_2b" transform="matrix(12,0,0,12,600.8,950.7)" />
<use xlink:href="#f4_2j" transform="matrix(12,0,0,12,610.3,950.7)" />
<use xlink:href="#f4_20" transform="matrix(12,0,0,12,627.9,950.7)" />
<use xlink:href="#f4_2b" transform="matrix(12,0,0,12,636.7,950.7)" />
<use xlink:href="#f4_21" transform="matrix(12,0,0,12,646.2,950.7)" />
<use xlink:href="#f4_2f" transform="matrix(12,0,0,12,654.3,950.7)" />
<use xlink:href="#f4_1i" transform="matrix(12,0,0,12,666,950.7)" />
<use xlink:href="#f4_1x" transform="matrix(12,0,0,12,678.1,950.7)" />
<use xlink:href="#f4_2b" transform="matrix(12,0,0,12,686.1,950.7)" />
<use xlink:href="#f4_2h" transform="matrix(12,0,0,12,695.7,950.7)" />
<use xlink:href="#f4_28" transform="matrix(12,0,0,12,704.8,950.7)" />
<use xlink:href="#f4_2g" transform="matrix(12,0,0,12,709.2,950.7)" />
<use xlink:href="#f4_53" transform="matrix(12,0,0,12,714.7,950.7)" />
<use xlink:href="#f4_2f" transform="matrix(12,0,0,12,720.6,950.7)" />
<use xlink:href="#f4_28" transform="matrix(12,0,0,12,732.7,950.7)" />
<use xlink:href="#f4_1x" transform="matrix(12,0,0,12,737.1,950.7)" />
<use xlink:href="#f4_2j" transform="matrix(12,0,0,12,745.1,950.7)" />
<use xlink:href="#f4_1y" transform="matrix(12,0,0,12,763.4,950.7)" />
<use xlink:href="#f4_21" transform="matrix(12,0,0,12,772.2,950.7)" />
<use xlink:href="#f4_1z" transform="matrix(12,0,0,12,780.3,950.7)" />
<use xlink:href="#f4_2b" transform="matrix(12,0,0,12,788.4,950.7)" />
<use xlink:href="#f4_29" transform="matrix(12,0,0,12,797.9,950.7)" />
<use xlink:href="#f4_21" transform="matrix(12,0,0,12,811.8,950.7)" />
<use xlink:href="#f4_1x" transform="matrix(12,0,0,12,824.6,950.7)" />
<use xlink:href="#f4_2f" transform="matrix(12,0,0,12,55,971.9)" />
<use xlink:href="#f4_2c" transform="matrix(12,0,0,12,62,971.9)" />
<use xlink:href="#f4_21" transform="matrix(12,0,0,12,71.2,971.9)" />
<use xlink:href="#f4_1z" transform="matrix(12,0,0,12,79.2,971.9)" />
<use xlink:href="#f4_25" transform="matrix(12,0,0,12,87.7,971.9)" />
<use xlink:href="#f4_1x" transform="matrix(12,0,0,12,92.4,971.9)" />
<use xlink:href="#f4_28" transform="matrix(12,0,0,12,100.8,971.9)" />
<use xlink:href="#f4_1z" transform="matrix(12,0,0,12,110,971.9)" />
<use xlink:href="#f4_1x" transform="matrix(12,0,0,12,118.4,971.9)" />
<use xlink:href="#f4_2f" transform="matrix(12,0,0,12,126.5,971.9)" />
<use xlink:href="#f4_21" transform="matrix(12,0,0,12,133.4,971.9)" />
<use xlink:href="#f4_2b" transform="matrix(12,0,0,12,146.2,971.9)" />
<use xlink:href="#f4_22" transform="matrix(12,0,0,12,155.8,971.9)" />
<use xlink:href="#f4_18" transform="matrix(12,0,0,12,166,971.9)" />
<use xlink:href="#f4_21" transform="matrix(12,0,0,12,179.2,971.9)" />
<use xlink:href="#f4_2a" transform="matrix(12,0,0,12,187.6,971.9)" />
<use xlink:href="#f4_2e" transform="matrix(12,0,0,12,196.4,971.9)" />
<use xlink:href="#f4_2l" transform="matrix(12,0,0,12,203,971.9)" />
<use xlink:href="#f4_53" transform="matrix(12,0,0,12,211.8,971.9)" />
<use xlink:href="#f4_2f" transform="matrix(12,0,0,12,218,971.9)" />
<use xlink:href="#f4_28" transform="matrix(12,0,0,12,230.1,971.9)" />
<use xlink:href="#f4_1x" transform="matrix(12,0,0,12,234.9,971.9)" />
<use xlink:href="#f4_2j" transform="matrix(12,0,0,12,242.9,971.9)" />
<use xlink:href="#f4_z" transform="matrix(12,0,0,12,260.9,971.9)" />
<use xlink:href="#f2_c" transform="matrix(12,0,0,12,55,992.8)" />
<use xlink:href="#f2_1y" transform="matrix(12,0,0,12,61.3,992.8)" />
<use xlink:href="#f2_d" transform="matrix(12,0,0,12,70.1,992.8)" />
<use xlink:href="#f2_l" transform="matrix(12,0,0,12,81,992.8)" />
<use xlink:href="#f2_i" transform="matrix(12,0,0,12,90.2,992.8)" />
<use xlink:href="#f2_k" transform="matrix(12,0,0,12,94.9,992.8)" />
<use xlink:href="#f2_k" transform="matrix(12,0,0,12,104.1,992.8)" />
<use xlink:href="#f2_23" transform="matrix(12,0,0,12,118,992.8)" />
<use xlink:href="#f2_2b" transform="matrix(12,0,0,12,131.2,992.8)" />
<use xlink:href="#f2_22" transform="matrix(12,0,0,12,140.7,992.8)" />
<use xlink:href="#f2_1x" transform="matrix(12,0,0,12,151,992.8)" />
<use xlink:href="#f2_2a" transform="matrix(12,0,0,12,163.8,992.8)" />
<use xlink:href="#f2_2b" transform="matrix(12,0,0,12,172.6,992.8)" />
<use xlink:href="#f2_2a" transform="matrix(12,0,0,12,182.1,992.8)" />
<use xlink:href="#f2_h" transform="matrix(12,0,0,12,191.1,992.8)" />
<use xlink:href="#f2_21" transform="matrix(12,0,0,12,197.3,992.8)" />
<use xlink:href="#f2_28" transform="matrix(12,0,0,12,205.8,992.8)" />
<use xlink:href="#f2_21" transform="matrix(12,0,0,12,210.5,992.8)" />
<use xlink:href="#f2_1z" transform="matrix(12,0,0,12,218.6,992.8)" />
<use xlink:href="#f2_2g" transform="matrix(12,0,0,12,226.7,992.8)" />
<use xlink:href="#f2_2e" transform="matrix(12,0,0,12,232.1,992.8)" />
<use xlink:href="#f2_2b" transform="matrix(12,0,0,12,238.4,992.8)" />
<use xlink:href="#f2_28" transform="matrix(12,0,0,12,247.9,992.8)" />
<use xlink:href="#f2_2l" transform="matrix(12,0,0,12,252.6,992.8)" />
<use xlink:href="#f2_2g" transform="matrix(12,0,0,12,261.1,992.8)" />
<use xlink:href="#f2_21" transform="matrix(12,0,0,12,266.6,992.8)" />
<use xlink:href="#f2_2f" transform="matrix(12,0,0,12,279.4,992.8)" />
<use xlink:href="#f2_2b" transform="matrix(12,0,0,12,286.3,992.8)" />
<use xlink:href="#f2_28" transform="matrix(12,0,0,12,296.2,992.8)" />
<use xlink:href="#f2_2h" transform="matrix(12,0,0,12,300.6,992.8)" />
<use xlink:href="#f2_2g" transform="matrix(12,0,0,12,309.8,992.8)" />
<use xlink:href="#f2_21" transform="matrix(12,0,0,12,315.3,992.8)" />
<use xlink:href="#f2_20" transform="matrix(12,0,0,12,328.1,992.8)" />
<use xlink:href="#f2_25" transform="matrix(12,0,0,12,337.2,992.8)" />
<use xlink:href="#f2_2f" transform="matrix(12,0,0,12,341.6,992.8)" />
<use xlink:href="#f2_2f" transform="matrix(12,0,0,12,349,992.8)" />
<use xlink:href="#f2_2b" transform="matrix(12,0,0,12,355.9,992.8)" />
<use xlink:href="#f2_28" transform="matrix(12,0,0,12,365.8,992.8)" />
<use xlink:href="#f2_2i" transform="matrix(12,0,0,12,370.6,992.8)" />
<use xlink:href="#f2_21" transform="matrix(12,0,0,12,379.4,992.8)" />
<use xlink:href="#f2_20" transform="matrix(12,0,0,12,387.4,992.8)" />
<use xlink:href="#f2_25" transform="matrix(12,0,0,12,401.7,992.8)" />
<use xlink:href="#f2_2a" transform="matrix(12,0,0,12,406.5,992.8)" />
<use xlink:href="#f2_p" transform="matrix(12,0,0,12,420,992.8)" />
<use xlink:href="#f2_k" transform="matrix(12,0,0,12,429.6,992.8)" />
<use xlink:href="#f2_23" transform="matrix(12,0,0,12,443.5,992.8)" />
<use xlink:href="#f2_2b" transform="matrix(12,0,0,12,457,992.8)" />
<use xlink:href="#f2_22" transform="matrix(12,0,0,12,466.5,992.8)" />
<use xlink:href="#f2_1y" transform="matrix(12,0,0,12,476.8,992.8)" />
<use xlink:href="#f2_21" transform="matrix(12,0,0,12,485.6,992.8)" />
<use xlink:href="#f2_2a" transform="matrix(12,0,0,12,494,992.8)" />
<use xlink:href="#f2_2m" transform="matrix(12,0,0,12,503.2,992.8)" />
<use xlink:href="#f2_21" transform="matrix(12,0,0,12,511.2,992.8)" />
<use xlink:href="#f2_2a" transform="matrix(12,0,0,12,519.7,992.8)" />
<use xlink:href="#f2_21" transform="matrix(12,0,0,12,528.5,992.8)" />
<use xlink:href="#f2_28" transform="matrix(12,0,0,12,541.6,992.8)" />
<use xlink:href="#f2_2b" transform="matrix(12,0,0,12,546,992.8)" />
<use xlink:href="#f2_2j" transform="matrix(12,0,0,12,555.6,992.8)" />
<use xlink:href="#f2_21" transform="matrix(12,0,0,12,568.8,992.8)" />
<use xlink:href="#f2_2e" transform="matrix(12,0,0,12,576.8,992.8)" />
<use xlink:href="#f2_21" transform="matrix(12,0,0,12,583,992.8)" />
<use xlink:href="#f2_20" transform="matrix(12,0,0,12,591.1,992.8)" />
<use xlink:href="#f2_2g" transform="matrix(12,0,0,12,605,992.8)" />
<use xlink:href="#f2_24" transform="matrix(12,0,0,12,610.5,992.8)" />
<use xlink:href="#f2_21" transform="matrix(12,0,0,12,619.3,992.8)" />
<use xlink:href="#f2_22" transform="matrix(12,0,0,12,632.1,992.8)" />
<use xlink:href="#f2_2e" transform="matrix(12,0,0,12,638.3,992.8)" />
<use xlink:href="#f2_21" transform="matrix(12,0,0,12,644.5,992.8)" />
<use xlink:href="#f2_21" transform="matrix(12,0,0,12,652.5,992.8)" />
<use xlink:href="#f2_2m" transform="matrix(12,0,0,12,660.6,992.8)" />
<use xlink:href="#f2_25" transform="matrix(12,0,0,12,669,992.8)" />
<use xlink:href="#f2_2a" transform="matrix(12,0,0,12,673.8,992.8)" />
<use xlink:href="#f2_23" transform="matrix(12,0,0,12,683,992.8)" />
<use xlink:href="#f2_2c" transform="matrix(12,0,0,12,696.9,992.8)" />
<use xlink:href="#f2_2b" transform="matrix(12,0,0,12,706,992.8)" />
<use xlink:href="#f2_25" transform="matrix(12,0,0,12,715.9,992.8)" />
<use xlink:href="#f2_2a" transform="matrix(12,0,0,12,720.7,992.8)" />
<use xlink:href="#f2_2g" transform="matrix(12,0,0,12,729.5,992.8)" />
<use xlink:href="#f2_2b" transform="matrix(12,0,0,12,739.4,992.8)" />
<use xlink:href="#f2_22" transform="matrix(12,0,0,12,748.9,992.8)" />
<use xlink:href="#f2_1y" transform="matrix(12,0,0,12,759.1,992.8)" />
<use xlink:href="#f2_21" transform="matrix(12,0,0,12,767.9,992.8)" />
<use xlink:href="#f2_2a" transform="matrix(12,0,0,12,776.3,992.8)" />
<use xlink:href="#f2_2m" transform="matrix(12,0,0,12,785.1,992.8)" />
<use xlink:href="#f2_21" transform="matrix(12,0,0,12,793.6,992.8)" />
<use xlink:href="#f2_2a" transform="matrix(12,0,0,12,802,992.8)" />
<use xlink:href="#f2_21" transform="matrix(12,0,0,12,810.8,992.8)" />
<use xlink:href="#f2_1y" transform="matrix(12,0,0,12,824,992.8)" />
<use xlink:href="#f2_2l" transform="matrix(12,0,0,12,833.1,992.8)" />
<use xlink:href="#f2_k" transform="matrix(12,0,0,12,55,1014.1)" />
<use xlink:href="#f2_i" transform="matrix(12,0,0,12,64.2,1014.1)" />
<use xlink:href="#f2_o" transform="matrix(12,0,0,12,69,1014.1)" />
<use xlink:href="#f2_k" transform="matrix(12,0,0,12,78.1,1014.1)" />
<use xlink:href="#f2_1b" transform="matrix(12,0,0,12,92,1014.1)" />
<use xlink:href="#f2_i" transform="matrix(12,0,0,12,104.9,1014.1)" />
<use xlink:href="#f2_16" transform="matrix(12,0,0,12,114.4,1014.1)" />
<use xlink:href="#f2_25" transform="matrix(12,0,0,12,124.6,1014.1)" />
<use xlink:href="#f2_2a" transform="matrix(12,0,0,12,129.4,1014.1)" />
<use xlink:href="#f2_20" transform="matrix(12,0,0,12,138.2,1014.1)" />
<use xlink:href="#f2_2g" transform="matrix(12,0,0,12,152.1,1014.1)" />
<use xlink:href="#f2_24" transform="matrix(12,0,0,12,157.6,1014.1)" />
<use xlink:href="#f2_21" transform="matrix(12,0,0,12,166.4,1014.1)" />
<use xlink:href="#f2_29" transform="matrix(12,0,0,12,179.6,1014.1)" />
<use xlink:href="#f2_2b" transform="matrix(12,0,0,12,193.1,1014.1)" />
<use xlink:href="#f2_28" transform="matrix(12,0,0,12,203,1014.1)" />
<use xlink:href="#f2_1x" transform="matrix(12,0,0,12,207.4,1014.1)" />
<use xlink:href="#f2_2e" transform="matrix(12,0,0,12,215.5,1014.1)" />
<use xlink:href="#f2_29" transform="matrix(12,0,0,12,226.8,1014.1)" />
<use xlink:href="#f2_1x" transform="matrix(12,0,0,12,240.4,1014.1)" />
<use xlink:href="#f2_2f" transform="matrix(12,0,0,12,248.4,1014.1)" />
<use xlink:href="#f2_2f" transform="matrix(12,0,0,12,255.8,1014.1)" />
<use xlink:href="#f2_2b" transform="matrix(12,0,0,12,267.5,1014.1)" />
<use xlink:href="#f2_22" transform="matrix(12,0,0,12,277,1014.1)" />
<use xlink:href="#f2_2g" transform="matrix(12,0,0,12,287.2,1014.1)" />
<use xlink:href="#f2_24" transform="matrix(12,0,0,12,292.7,1014.1)" />
<use xlink:href="#f2_21" transform="matrix(12,0,0,12,301.5,1014.1)" />
<use xlink:href="#f2_2f" transform="matrix(12,0,0,12,314.3,1014.1)" />
<use xlink:href="#f2_2b" transform="matrix(12,0,0,12,321.3,1014.1)" />
<use xlink:href="#f2_28" transform="matrix(12,0,0,12,330.8,1014.1)" />
<use xlink:href="#f2_2h" transform="matrix(12,0,0,12,335.2,1014.1)" />
<use xlink:href="#f2_2g" transform="matrix(12,0,0,12,344.4,1014.1)" />
<use xlink:href="#f2_21" transform="matrix(12,0,0,12,349.9,1014.1)" />
<use xlink:href="#f2_i" transform="matrix(12,0,0,12,357.9,1014.1)" />
<use xlink:href="#f2_c" transform="matrix(12,0,0,12,367.4,1014.1)" />
<use xlink:href="#f2_1b" transform="matrix(12,0,0,12,373.6,1014.1)" />
<use xlink:href="#f2_22" transform="matrix(7.9,0,0,7.9,387,1015.6)" />
<use xlink:href="#f2_22" transform="matrix(12,0,0,12,394.3,1014.1)" />
<use xlink:href="#f2_2b" transform="matrix(12,0,0,12,399.8,1014.1)" />
<use xlink:href="#f2_2e" transform="matrix(12,0,0,12,409.3,1014.1)" />
<use xlink:href="#f2_1y" transform="matrix(12,0,0,12,420.3,1014.1)" />
<use xlink:href="#f2_21" transform="matrix(12,0,0,12,429.5,1014.1)" />
<use xlink:href="#f2_2a" transform="matrix(12,0,0,12,437.5,1014.1)" />
<use xlink:href="#f2_2m" transform="matrix(12,0,0,12,446.3,1014.1)" />
<use xlink:href="#f2_21" transform="matrix(12,0,0,12,454.7,1014.1)" />
<use xlink:href="#f2_2a" transform="matrix(12,0,0,12,463.2,1014.1)" />
<use xlink:href="#f2_21" transform="matrix(12,0,0,12,472,1014.1)" />
<use xlink:href="#f2_x" transform="matrix(12,0,0,12,484.8,1014.1)" />
<use xlink:href="#f2_p" transform="matrix(12,0,0,12,499.8,1014.1)" />
<use xlink:href="#f2_i" transform="matrix(12,0,0,12,509,1014.1)" />
<use xlink:href="#f2_l" transform="matrix(12,0,0,12,513.7,1014.1)" />
<use xlink:href="#f2_m" transform="matrix(12,0,0,12,522.9,1014.1)" />
<use xlink:href="#f2_1b" transform="matrix(12,0,0,12,536.8,1014.1)" />
<use xlink:href="#f2_27" transform="matrix(12,0,0,12,554.4,1014.1)" />
<use xlink:href="#f2_23" transform="matrix(12,0,0,12,563.5,1014.1)" />
<use xlink:href="#f2_29" transform="matrix(12,0,0,12,577.5,1014.1)" />
<use xlink:href="#f2_2b" transform="matrix(12,0,0,12,591,1014.1)" />
<use xlink:href="#f2_28" transform="matrix(12,0,0,12,600.9,1014.1)" />
<use xlink:href="#f4_4y" transform="matrix(7.9,0,0,7.9,605.6,1007.1)" />
<use xlink:href="#f2_l" transform="matrix(7.9,0,0,7.9,611.8,1007.1)" />
<use xlink:href="#f2_d" transform="matrix(12,0,0,12,618,1014.1)" />
<use xlink:href="#f3_1f" transform="matrix(12,0,0,12,440.9,1035)" />
<use xlink:href="#f3_1i" transform="matrix(12,0,0,12,455.2,1035)" />
<use xlink:href="#f2_c" transform="matrix(12,0,0,12,55,1056.3)" />
<use xlink:href="#f2_1x" transform="matrix(12,0,0,12,61.3,1056.3)" />
<use xlink:href="#f2_d" transform="matrix(12,0,0,12,69.3,1056.3)" />
<use xlink:href="#f2_14" transform="matrix(12,0,0,12,80.3,1056.3)" />
<use xlink:href="#f2_21" transform="matrix(12,0,0,12,93.5,1056.3)" />
<use xlink:href="#f2_22" transform="matrix(12,0,0,12,101.5,1056.3)" />
<use xlink:href="#f2_25" transform="matrix(12,0,0,12,107.4,1056.3)" />
<use xlink:href="#f2_2a" transform="matrix(12,0,0,12,112.2,1056.3)" />
<use xlink:href="#f2_21" transform="matrix(12,0,0,12,121.3,1056.3)" />
<use xlink:href="#f2_2g" transform="matrix(12,0,0,12,134.2,1056.3)" />
<use xlink:href="#f2_24" transform="matrix(12,0,0,12,139.6,1056.3)" />
<use xlink:href="#f2_21" transform="matrix(12,0,0,12,148.4,1056.3)" />
<use xlink:href="#f2_22" transform="matrix(12,0,0,12,161.6,1056.3)" />
<use xlink:href="#f2_2b" transform="matrix(12,0,0,12,167.1,1056.3)" />
<use xlink:href="#f2_28" transform="matrix(12,0,0,12,177,1056.3)" />
<use xlink:href="#f2_28" transform="matrix(12,0,0,12,181.8,1056.3)" />
<use xlink:href="#f2_2b" transform="matrix(12,0,0,12,186.2,1056.3)" />
<use xlink:href="#f2_2j" transform="matrix(12,0,0,12,195.7,1056.3)" />
<use xlink:href="#f2_25" transform="matrix(12,0,0,12,209.2,1056.3)" />
<use xlink:href="#f2_2a" transform="matrix(12,0,0,12,214,1056.3)" />
<use xlink:href="#f2_23" transform="matrix(12,0,0,12,222.8,1056.3)" />
<use xlink:href="#f2_2g" transform="matrix(12,0,0,12,236.7,1056.3)" />
<use xlink:href="#f2_21" transform="matrix(12,0,0,12,242.2,1056.3)" />
<use xlink:href="#f2_2e" transform="matrix(12,0,0,12,250.3,1056.3)" />
<use xlink:href="#f2_29" transform="matrix(12,0,0,12,256.8,1056.3)" />
<use xlink:href="#f2_2f" transform="matrix(12,0,0,12,270.4,1056.3)" />
<use xlink:href="#f2_u" transform="matrix(12,0,0,12,282.1,1056.3)" />
<use xlink:href="#f2_c" transform="matrix(12,0,0,12,55,1077.2)" />
<use xlink:href="#f2_25" transform="matrix(12,0,0,12,61.6,1077.2)" />
<use xlink:href="#f2_d" transform="matrix(12,0,0,12,66,1077.2)" />
<use xlink:href="#f2_19" transform="matrix(12,0,0,12,77,1077.2)" />
<use xlink:href="#f2_20" transform="matrix(12,0,0,12,83.2,1077.2)" />
<use xlink:href="#f2_21" transform="matrix(12,0,0,12,92.4,1077.2)" />
<use xlink:href="#f2_1x" transform="matrix(12,0,0,12,100.4,1077.2)" />
<use xlink:href="#f2_28" transform="matrix(12,0,0,12,108.8,1077.2)" />
<use xlink:href="#f2_2f" transform="matrix(12,0,0,12,118,1077.2)" />
<use xlink:href="#f2_2b" transform="matrix(12,0,0,12,125,1077.2)" />
<use xlink:href="#f2_28" transform="matrix(12,0,0,12,134.5,1077.2)" />
<use xlink:href="#f2_2h" transform="matrix(12,0,0,12,138.9,1077.2)" />
<use xlink:href="#f2_2g" transform="matrix(12,0,0,12,148,1077.2)" />
<use xlink:href="#f2_25" transform="matrix(12,0,0,12,153.9,1077.2)" />
<use xlink:href="#f2_2b" transform="matrix(12,0,0,12,158.3,1077.2)" />
<use xlink:href="#f2_2a" transform="matrix(12,0,0,12,167.8,1077.2)" />
<use xlink:href="#f2_c" transform="matrix(12,0,0,12,55,1098.5)" />
<use xlink:href="#f2_25" transform="matrix(12,0,0,12,61.6,1098.5)" />
<use xlink:href="#f2_25" transform="matrix(12,0,0,12,66.4,1098.5)" />
<use xlink:href="#f2_d" transform="matrix(12,0,0,12,70.8,1098.5)" />
<use xlink:href="#f2_11" transform="matrix(12,0,0,12,82.1,1098.5)" />
<use xlink:href="#f2_2m" transform="matrix(12,0,0,12,94.9,1098.5)" />
<use xlink:href="#f2_21" transform="matrix(12,0,0,12,103,1098.5)" />
<use xlink:href="#f2_2b" transform="matrix(12,0,0,12,111.1,1098.5)" />
<use xlink:href="#f2_2g" transform="matrix(12,0,0,12,120.6,1098.5)" />
<use xlink:href="#f2_2e" transform="matrix(12,0,0,12,126.1,1098.5)" />
<use xlink:href="#f2_2b" transform="matrix(12,0,0,12,131.9,1098.5)" />
<use xlink:href="#f2_2c" transform="matrix(12,0,0,12,141.5,1098.5)" />
<use xlink:href="#f2_21" transform="matrix(12,0,0,12,150.6,1098.5)" />
<use xlink:href="#f2_c" transform="matrix(12,0,0,12,55,1119.4)" />
<use xlink:href="#f2_25" transform="matrix(12,0,0,12,61.6,1119.4)" />
<use xlink:href="#f2_25" transform="matrix(12,0,0,12,66.4,1119.4)" />
<use xlink:href="#f2_25" transform="matrix(12,0,0,12,71.2,1119.4)" />
<use xlink:href="#f2_d" transform="matrix(12,0,0,12,75.9,1119.4)" />
<use xlink:href="#f2_1f" transform="matrix(12,0,0,12,86.9,1119.4)" />
<use xlink:href="#f2_2f" transform="matrix(12,0,0,12,100.1,1119.4)" />
<use xlink:href="#f2_29" transform="matrix(12,0,0,12,107.4,1119.4)" />
<use xlink:href="#f2_2b" transform="matrix(12,0,0,12,121,1119.4)" />
<use xlink:href="#f2_2g" transform="matrix(12,0,0,12,130.5,1119.4)" />
<use xlink:href="#f2_25" transform="matrix(12,0,0,12,136.3,1119.4)" />
<use xlink:href="#f2_1z" transform="matrix(12,0,0,12,140.7,1119.4)" />
<use xlink:href="#f2_2c" transform="matrix(12,0,0,12,153.5,1119.4)" />
<use xlink:href="#f2_2e" transform="matrix(12,0,0,12,162.7,1119.4)" />
<use xlink:href="#f2_21" transform="matrix(12,0,0,12,168.9,1119.4)" />
<use xlink:href="#f2_2f" transform="matrix(12,0,0,12,177,1119.4)" />
<use xlink:href="#f2_2f" transform="matrix(12,0,0,12,184,1119.4)" />
<use xlink:href="#f2_2h" transform="matrix(12,0,0,12,190.9,1119.4)" />
<use xlink:href="#f2_2e" transform="matrix(12,0,0,12,200.1,1119.4)" />
<use xlink:href="#f2_21" transform="matrix(12,0,0,12,206.3,1119.4)" />
<use xlink:href="#f2_c" transform="matrix(12,0,0,12,55,1140.6)" />
<use xlink:href="#f2_1y" transform="matrix(12,0,0,12,61.3,1140.6)" />
<use xlink:href="#f2_d" transform="matrix(12,0,0,12,70.1,1140.6)" />
<use xlink:href="#f2_11" transform="matrix(12,0,0,12,81,1140.6)" />
<use xlink:href="#f2_2f" transform="matrix(12,0,0,12,98.6,1140.6)" />
<use xlink:href="#f2_2b" transform="matrix(12,0,0,12,105.6,1140.6)" />
<use xlink:href="#f2_28" transform="matrix(12,0,0,12,115.4,1140.6)" />
<use xlink:href="#f2_2h" transform="matrix(12,0,0,12,119.8,1140.6)" />
<use xlink:href="#f2_2g" transform="matrix(12,0,0,12,129,1140.6)" />
<use xlink:href="#f2_25" transform="matrix(12,0,0,12,134.9,1140.6)" />
<use xlink:href="#f2_2b" transform="matrix(12,0,0,12,139.3,1140.6)" />
<use xlink:href="#f2_2a" transform="matrix(12,0,0,12,148.8,1140.6)" />
<use xlink:href="#f2_2b" transform="matrix(12,0,0,12,162.3,1140.6)" />
<use xlink:href="#f2_22" transform="matrix(12,0,0,12,171.8,1140.6)" />
<use xlink:href="#f2_23" transform="matrix(12,0,0,12,182.1,1140.6)" />
<use xlink:href="#f2_28" transform="matrix(12,0,0,12,191.6,1140.6)" />
<use xlink:href="#f2_2h" transform="matrix(12,0,0,12,196,1140.6)" />
<use xlink:href="#f2_1z" transform="matrix(12,0,0,12,205.2,1140.6)" />
<use xlink:href="#f2_2b" transform="matrix(12,0,0,12,213.2,1140.6)" />
<use xlink:href="#f2_2f" transform="matrix(12,0,0,12,222.7,1140.6)" />
<use xlink:href="#f2_21" transform="matrix(12,0,0,12,229.7,1140.6)" />
<use xlink:href="#f2_c" transform="matrix(12,0,0,12,242.5,1140.6)" />
<use xlink:href="#f2_13" transform="matrix(12,0,0,12,248.7,1140.6)" />
<use xlink:href="#f2_q" transform="matrix(7.9,0,0,7.9,261.2,1142.1)" />
<use xlink:href="#f2_18" transform="matrix(12,0,0,12,267.4,1140.6)" />
<use xlink:href="#f2_l" transform="matrix(7.9,0,0,7.9,280.6,1142.1)" />
<use xlink:href="#f2_m" transform="matrix(7.9,0,0,7.9,286.8,1142.1)" />
<use xlink:href="#f2_1f" transform="matrix(12,0,0,12,293.1,1140.6)" />
<use xlink:href="#f2_q" transform="matrix(7.9,0,0,7.9,306.3,1142.1)" />
<use xlink:href="#f2_d" transform="matrix(12,0,0,12,312.5,1140.6)" />
<use xlink:href="#f2_25" transform="matrix(12,0,0,12,323.1,1140.6)" />
<use xlink:href="#f2_2a" transform="matrix(12,0,0,12,327.9,1140.6)" />
<use xlink:href="#f2_2j" transform="matrix(12,0,0,12,341.4,1140.6)" />
<use xlink:href="#f2_1x" transform="matrix(12,0,0,12,354.7,1140.6)" />
<use xlink:href="#f2_2g" transform="matrix(12,0,0,12,362.7,1140.6)" />
<use xlink:href="#f2_21" transform="matrix(12,0,0,12,368.2,1140.6)" />
<use xlink:href="#f2_2e" transform="matrix(12,0,0,12,376.3,1140.6)" />
<use xlink:href="#f2_25" transform="matrix(12,0,0,12,387.2,1140.6)" />
<use xlink:href="#f2_2f" transform="matrix(12,0,0,12,392,1140.6)" />
<use xlink:href="#f2_28" transform="matrix(12,0,0,12,404.1,1140.6)" />
<use xlink:href="#f2_1x" transform="matrix(12,0,0,12,408.5,1140.6)" />
<use xlink:href="#f2_1y" transform="matrix(12,0,0,12,416.9,1140.6)" />
<use xlink:href="#f2_21" transform="matrix(12,0,0,12,426,1140.6)" />
<use xlink:href="#f2_28" transform="matrix(12,0,0,12,434.5,1140.6)" />
<use xlink:href="#f2_28" transform="matrix(12,0,0,12,439.2,1140.6)" />
<use xlink:href="#f2_21" transform="matrix(12,0,0,12,444,1140.6)" />
<use xlink:href="#f2_20" transform="matrix(12,0,0,12,452.1,1140.6)" />
<use xlink:href="#f2_1x" transform="matrix(12,0,0,12,466,1140.6)" />
<use xlink:href="#f2_2f" transform="matrix(12,0,0,12,474,1140.6)" />
<use xlink:href="#f2_l" transform="matrix(12,0,0,12,485.8,1140.6)" />
<use xlink:href="#f2_k" transform="matrix(12,0,0,12,494.9,1140.6)" />
<use xlink:href="#f2_9" transform="matrix(12,0,0,12,504.1,1140.6)" />
<use xlink:href="#f2_1y" transform="matrix(12,0,0,12,524.2,1140.6)" />
<use xlink:href="#f2_2l" transform="matrix(12,0,0,12,533.4,1140.6)" />
<use xlink:href="#f2_2j" transform="matrix(12,0,0,12,546.9,1140.6)" />
<use xlink:href="#f2_21" transform="matrix(12,0,0,12,560.2,1140.6)" />
<use xlink:href="#f2_25" transform="matrix(12,0,0,12,568.6,1140.6)" />
<use xlink:href="#f2_23" transform="matrix(12,0,0,12,573.3,1140.6)" />
<use xlink:href="#f2_24" transform="matrix(12,0,0,12,582.8,1140.6)" />
<use xlink:href="#f2_2g" transform="matrix(12,0,0,12,591.6,1140.6)" />
<use xlink:href="#f2_i" transform="matrix(12,0,0,12,597.1,1140.6)" />
<use xlink:href="#f2_1n" transform="matrix(12,0,0,12,606.3,1140.6)" />
<use xlink:href="#f2_24" transform="matrix(12,0,0,12,623.5,1140.6)" />
<use xlink:href="#f2_1x" transform="matrix(12,0,0,12,632.3,1140.6)" />
<use xlink:href="#f2_2g" transform="matrix(12,0,0,12,640.4,1140.6)" />
<use xlink:href="#f2_2j" transform="matrix(12,0,0,12,650.6,1140.6)" />
<use xlink:href="#f2_2b" transform="matrix(12,0,0,12,663.4,1140.6)" />
<use xlink:href="#f2_2h" transform="matrix(12,0,0,12,672.9,1140.6)" />
<use xlink:href="#f2_28" transform="matrix(12,0,0,12,682.1,1140.6)" />
<use xlink:href="#f2_20" transform="matrix(12,0,0,12,686.5,1140.6)" />
<use xlink:href="#f2_1y" transform="matrix(12,0,0,12,700.8,1140.6)" />
<use xlink:href="#f2_21" transform="matrix(12,0,0,12,709.6,1140.6)" />
<use xlink:href="#f2_2g" transform="matrix(12,0,0,12,722.4,1140.6)" />
<use xlink:href="#f2_24" transform="matrix(12,0,0,12,727.9,1140.6)" />
<use xlink:href="#f2_21" transform="matrix(12,0,0,12,736.7,1140.6)" />
<use xlink:href="#f2_29" transform="matrix(12,0,0,12,749.9,1140.6)" />
<use xlink:href="#f2_2b" transform="matrix(12,0,0,12,763.4,1140.6)" />
<use xlink:href="#f2_28" transform="matrix(12,0,0,12,773.3,1140.6)" />
<use xlink:href="#f2_1x" transform="matrix(12,0,0,12,777.7,1140.6)" />
<use xlink:href="#f2_28" transform="matrix(12,0,0,12,786.1,1140.6)" />
<use xlink:href="#f2_25" transform="matrix(12,0,0,12,791.2,1140.6)" />
<use xlink:href="#f2_2g" transform="matrix(12,0,0,12,796.4,1140.6)" />
<use xlink:href="#f2_2l" transform="matrix(12,0,0,12,801.9,1140.6)" />
<use xlink:href="#f2_2b" transform="matrix(12,0,0,12,815,1140.6)" />
<use xlink:href="#f2_22" transform="matrix(12,0,0,12,824.6,1140.6)" />
<use xlink:href="#f2_2g" transform="matrix(12,0,0,12,55,1161.6)" />
<use xlink:href="#f2_24" transform="matrix(12,0,0,12,60.5,1161.6)" />
<use xlink:href="#f2_21" transform="matrix(12,0,0,12,69.3,1161.6)" />
<use xlink:href="#f2_2f" transform="matrix(12,0,0,12,82.1,1161.6)" />
<use xlink:href="#f2_2b" transform="matrix(12,0,0,12,89.1,1161.6)" />
<use xlink:href="#f2_28" transform="matrix(12,0,0,12,98.6,1161.6)" />
<use xlink:href="#f2_2h" transform="matrix(12,0,0,12,103,1161.6)" />
<use xlink:href="#f2_2g" transform="matrix(12,0,0,12,112.2,1161.6)" />
<use xlink:href="#f2_25" transform="matrix(12,0,0,12,118,1161.6)" />
<use xlink:href="#f2_2b" transform="matrix(12,0,0,12,122.4,1161.6)" />
<use xlink:href="#f2_2a" transform="matrix(12,0,0,12,131.9,1161.6)" />
<use xlink:href="#f2_z" transform="matrix(12,0,0,12,145.5,1161.6)" />
<use xlink:href="#f2_c" transform="matrix(12,0,0,12,55,1182.8)" />
<use xlink:href="#f2_1d" transform="matrix(12,0,0,12,61.3,1182.8)" />
<use xlink:href="#f2_2b" transform="matrix(12,0,0,12,77.4,1182.8)" />
<use xlink:href="#f2_28" transform="matrix(12,0,0,12,86.9,1182.8)" />
<use xlink:href="#f2_1x" transform="matrix(12,0,0,12,91.3,1182.8)" />
<use xlink:href="#f2_2e" transform="matrix(12,0,0,12,99.4,1182.8)" />
<use xlink:href="#f2_29" transform="matrix(12,0,0,12,110.7,1182.8)" />
<use xlink:href="#f2_1x" transform="matrix(12,0,0,12,124.3,1182.8)" />
<use xlink:href="#f2_2f" transform="matrix(12,0,0,12,132.7,1182.8)" />
<use xlink:href="#f2_2f" transform="matrix(12,0,0,12,139.6,1182.8)" />
<use xlink:href="#f2_2b" transform="matrix(12,0,0,12,151.4,1182.8)" />
<use xlink:href="#f2_22" transform="matrix(12,0,0,12,160.9,1182.8)" />
<use xlink:href="#f2_23" transform="matrix(12,0,0,12,171.1,1182.8)" />
<use xlink:href="#f2_28" transform="matrix(12,0,0,12,180.6,1182.8)" />
<use xlink:href="#f2_2h" transform="matrix(12,0,0,12,185.4,1182.8)" />
<use xlink:href="#f2_1z" transform="matrix(12,0,0,12,194.6,1182.8)" />
<use xlink:href="#f2_2b" transform="matrix(12,0,0,12,202.6,1182.8)" />
<use xlink:href="#f2_2f" transform="matrix(12,0,0,12,212.2,1182.8)" />
<use xlink:href="#f2_21" transform="matrix(12,0,0,12,219.1,1182.8)" />
<use xlink:href="#f2_x" transform="matrix(12,0,0,12,231.9,1182.8)" />
<use xlink:href="#f2_l" transform="matrix(12,0,0,12,247,1182.8)" />
<use xlink:href="#f2_s" transform="matrix(12,0,0,12,256.1,1182.8)" />
<use xlink:href="#f2_k" transform="matrix(12,0,0,12,265.3,1182.8)" />
<use xlink:href="#f2_23" transform="matrix(12,0,0,12,279.2,1182.8)" />
<use xlink:href="#f2_29" transform="matrix(12,0,0,12,293.1,1182.8)" />
<use xlink:href="#f2_2b" transform="matrix(12,0,0,12,306.7,1182.8)" />
<use xlink:href="#f2_28" transform="matrix(12,0,0,12,316.6,1182.8)" />
<use xlink:href="#f2_h" transform="matrix(7.9,0,0,7.9,321.7,1175.9)" />
<use xlink:href="#f2_l" transform="matrix(7.9,0,0,7.9,325.3,1175.9)" />
<use xlink:href="#f2_d" transform="matrix(12,0,0,12,331.6,1182.8)" />
</g>
<image preserveAspectRatio="none" x="55" y="127" width="426" height="442" xlink:href="img/6.png" />
<image preserveAspectRatio="none" x="55" y="632" width="336" height="80" xlink:href="img/7.png" />
<image preserveAspectRatio="none" x="55" y="712" width="364" height="158" xlink:href="img/8.png" />
<path fill-rule="evenodd" d="M37.4,38.1h.7v-.7h-.7v.7Z" class="g2_124" />
<path fill-rule="evenodd" d="M37.4,38.1h.7v-.7h-.7v.7Z" class="g2_124" />
<path fill-rule="evenodd" d="M38.1,38.1H871.5v-.7H38.1v.7Z" class="g2_124" />
<path fill-rule="evenodd" d="M871.5,38.1h.8v-.7h-.8v.7Z" class="g2_124" />
<path fill-rule="evenodd" d="M871.5,38.1h.8v-.7h-.8v.7Z" class="g2_124" />
<path fill-rule="evenodd" d="M37.4,1248.5h.7V38.1h-.7V1248.5Z" class="g2_124" />
<path fill-rule="evenodd" d="M872.3,1248.5h.7V38.1h-.7V1248.5Z" class="g2_124" />
<path fill-rule="evenodd" d="M871.5,1248.5h.8V38.1h-.8V1248.5Z" class="g2_124" />
<path fill-rule="evenodd" d="M37.4,1249.2h.7v-.7h-.7v.7Z" class="g2_124" />
<path fill-rule="evenodd" d="M37.4,1249.2h.7v-.7h-.7v.7Z" class="g2_124" />
<path fill-rule="evenodd" d="M38.1,1249.9H871.5v-.7H38.1v.7Z" class="g2_124" />
<path fill-rule="evenodd" d="M38.1,1249.2H871.5v-.7H38.1v.7Z" class="g2_124" />
<path fill-rule="evenodd" d="M872.3,1249.9h.7v-1.4h-.7v1.4Z" class="g2_124" />
<path fill-rule="evenodd" d="M871.5,1249.9H873v-.7h-1.5v.7Z" class="g2_124" />
<path fill-rule="evenodd" d="M871.5,1249.2h.8v-.7h-.8v.7Z" class="g2_124" />
<path fill-rule="evenodd" d="M871.5,1249.2h.8v-.7h-.8v.7Z" class="g2_124" />
<defs>
<path d="M489,-15c0,0,-99,0,-179,30c0,0,-80,30,-136,91c0,0,-56,61,-85,152c0,0,-30,91,-30,212c0,0,0,123,32,218c0,0,33,96,92,161c0,0,59,65,142,98c0,0,82,34,181,34c0,0,40,0,78,-7c0,0,37,-7,69,-18c0,0,31,-11,57,-25c0,0,25,-14,35,-24c0,0,10,-10,14,-17c0,0,4,-7,6,-17c0,0,2,-11,3,-25c0,0,2,-14,2,-35c0,0,0,-22,-2,-38c0,0,-1,-15,-5,-25c0,0,-4,-10,-9,-14c0,0,-5,-5,-12,-5c0,0,-11,0,-28,13c0,0,-18,13,-45,29c0,0,-27,16,-65,29c0,0,-37,13,-89,13c0,0,-58,0,-103,-23c0,0,-45,-23,-77,-67c0,0,-31,-44,-48,-106c0,0,-16,-61,-16,-139c0,0,0,-85,17,-147c0,0,18,-62,50,-103c0,0,33,-40,79,-60c0,0,45,-19,103,-19c0,0,52,0,90,12c0,0,38,12,65,27c0,0,27,15,45,27c0,0,17,12,27,12c0,0,8,0,12,-3c0,0,4,-3,7,-12c0,0,3,-9,5,-25c0,0,1,-16,1,-43c0,0,0,-18,-1,-31c0,0,-1,-14,-3,-23c0,0,-2,-9,-6,-16c0,0,-4,-7,-12,-15c0,0,-8,-9,-32,-22c0,0,-23,-14,-57,-26C661,13,627,1,583,-6c0,0,-43,-9,-94,-9Z" 
id="f0_j"
transform="scale(0.001,-0.001)" />

<path d="M440,150c0,0,41,0,68,8c0,0,28,9,49,26c0,0,20,16,32,41c0,0,11,25,11,58c0,0,0,33,-11,60c0,0,-11,26,-33,44c0,0,-21,18,-55,28c0,0,-33,9,-87,9H298V150ZM407,567c0,0,42,0,68,10c0,0,25,10,42,28c0,0,16,17,24,41c0,0,9,24,9,50c0,0,0,29,-9,52c0,0,-9,23,-27,39c0,0,-18,15,-45,23c0,0,-27,8,-72,8H298V567ZM164,0c0,0,-25,0,-42,15c0,0,-16,14,-16,47V903c0,0,0,33,16,48c0,0,17,14,42,14H406c0,0,88,0,150,-15c0,0,61,-15,103,-45c0,0,42,-30,65,-77c0,0,22,-46,22,-108c0,0,0,-36,-9,-67c0,0,-9,-31,-26,-56c0,0,-17,-25,-42,-45c0,0,-25,-19,-57,-31c0,0,41,-7,76,-26c0,0,34,-19,60,-48c0,0,26,-30,41,-69c0,0,15,-40,15,-89c0,0,0,-51,-14,-93c0,0,-15,-42,-40,-74c0,0,-25,-32,-59,-55c0,0,-35,-23,-77,-38C614,29,573,14,525,7C525,7,478,0,420,0Z" 
id="f0_i"
transform="scale(0.001,-0.001)" />

<path d="M320,-17c0,0,-50,0,-93,9c0,0,-43,8,-76,19c0,0,-32,11,-54,24C97,35,75,48,65,58c0,0,-10,9,-14,28c0,0,-4,18,-4,52c0,0,0,23,1,39c0,0,2,15,5,25c0,0,4,10,9,14c0,0,6,4,13,4c0,0,11,0,30,-12c0,0,19,-13,49,-28c0,0,30,-15,71,-27c0,0,42,-12,96,-12c0,0,36,0,64,8c0,0,29,9,49,25c0,0,19,15,30,38c0,0,10,23,10,52c0,0,0,33,-18,56c0,0,-18,24,-46,42c0,0,-29,18,-66,34c0,0,-36,16,-75,34c0,0,-39,18,-76,41c0,0,-36,23,-65,54c0,0,-29,32,-47,75c0,0,-17,44,-17,104c0,0,0,70,25,122c0,0,26,53,70,88c0,0,43,34,103,51c0,0,59,18,125,18c0,0,35,0,69,-6c0,0,34,-5,64,-14c0,0,30,-9,53,-20c0,0,23,-11,31,-18c0,0,7,-8,10,-13c0,0,3,-5,4,-14c0,0,2,-8,3,-21c0,0,1,-13,1,-33c0,0,0,-21,-1,-36c0,0,-1,-15,-4,-25c0,0,-3,-9,-7,-14c0,0,-5,-4,-14,-4c0,0,-8,0,-26,10c0,0,-18,10,-44,23c0,0,-26,12,-60,22c0,0,-34,10,-75,10c0,0,-32,0,-56,-8c0,0,-24,-8,-40,-21c0,0,-16,-14,-24,-34c0,0,-8,-19,-8,-41c0,0,0,-32,18,-56c0,0,17,-23,46,-42c0,0,30,-18,67,-34c0,0,38,-16,76,-34c0,0,39,-18,76,-41c0,0,38,-22,67,-54c0,0,29,-32,47,-75c0,0,18,-43,18,-101c0,0,0,-76,-29,-133c0,0,-28,-58,-77,-96C572,60,524,21,459,2c0,0,-65,-19,-139,-19Z" 
id="f0_2n"
transform="scale(0.001,-0.001)" />

<path d="M164,0c0,0,-25,0,-42,15c0,0,-16,14,-16,47V903c0,0,0,33,16,48c0,0,17,14,42,14H645c0,0,7,0,12,-4c0,0,5,-3,9,-13c0,0,4,-9,6,-24c0,0,2,-14,2,-36c0,0,0,-21,-2,-36c0,0,-2,-14,-6,-23c0,0,-4,-9,-9,-13c0,0,-5,-4,-12,-4H301V576H593c0,0,6,0,12,-4c0,0,6,-4,9,-13c0,0,4,-8,6,-23c0,0,2,-14,2,-35c0,0,0,-22,-2,-36c0,0,-2,-14,-6,-23c0,0,-3,-8,-9,-12c0,0,-6,-4,-12,-4H301V154H649c0,0,6,0,12,-5c0,0,5,-4,9,-13c0,0,4,-9,6,-23c0,0,2,-15,2,-36c0,0,0,-22,-2,-36c0,0,-2,-15,-6,-24c0,0,-4,-9,-9,-13c0,0,-6,-4,-12,-4Z" 
id="f0_t"
transform="scale(0.001,-0.001)" />

<path d="M79,297c0,0,-19,0,-27,18c0,0,-8,17,-8,60c0,0,0,41,8,59c0,0,8,17,27,17H389c0,0,9,0,15,-4c0,0,7,-4,11,-13c0,0,5,-9,7,-23c0,0,1,-15,1,-36c0,0,0,-43,-8,-61c0,0,-8,-17,-26,-17Z" 
id="f0_oj"
transform="scale(0.001,-0.001)" />

<path d="M121,-4c0,0,-39,0,-60,2C61,-2,39,0,32,8c0,0,-8,8,-3,24c0,0,4,15,18,41L279,495L64,892c0,0,-14,26,-19,42c0,0,-5,17,4,24c0,0,9,8,32,10c0,0,23,2,65,2c0,0,35,0,56,-2c0,0,20,-1,32,-4c0,0,12,-4,17,-10c0,0,5,-6,9,-15L431,620L595,939c0,0,5,9,10,15c0,0,5,6,16,10c0,0,10,3,29,4c0,0,19,2,53,2c0,0,37,0,59,-2c0,0,22,-2,30,-10c0,0,8,-8,4,-24c0,0,-4,-16,-17,-42L564,497L793,73c0,0,14,-26,18,-41c0,0,4,-16,-5,-24c0,0,-9,-8,-32,-10c0,0,-24,-2,-65,-2c0,0,-36,0,-56,2c0,0,-20,1,-31,3c0,0,-12,4,-17,10c0,0,-5,6,-9,15L414,374L233,26c0,0,-4,-9,-9,-15c0,0,-6,-6,-17,-10c0,0,-12,-2,-32,-3c0,0,-21,-2,-54,-2Z" 
id="f0_3e"
transform="scale(0.001,-0.001)" />

<path d="M204,-4c0,0,-28,0,-47,2c0,0,-19,2,-31,5c0,0,-11,4,-16,10c0,0,-4,6,-4,13V939c0,0,0,7,4,13c0,0,5,6,17,10c0,0,11,3,30,6c0,0,19,2,47,2c0,0,29,0,48,-2c0,0,18,-3,29,-6c0,0,11,-4,16,-10c0,0,5,-6,5,-13V26c0,0,0,-7,-5,-13c0,0,-5,-6,-16,-10c0,0,-11,-3,-29,-5c0,0,-19,-2,-48,-2Z" 
id="f0_1c"
transform="scale(0.001,-0.001)" />

<path d="M127,0c0,0,-16,0,-28,3C99,3,87,6,80,15c0,0,-8,8,-11,25c0,0,-3,16,-3,42c0,0,0,25,2,42c0,0,2,18,8,32c0,0,6,14,15,27c0,0,9,13,24,29L282,390c0,0,50,53,81,95c0,0,30,43,47,79c0,0,17,35,24,65c0,0,6,30,6,57c0,0,0,24,-8,46c0,0,-8,22,-23,39c0,0,-15,16,-38,25c0,0,-23,10,-55,10c0,0,-44,0,-78,-12c0,0,-33,-11,-59,-25c0,0,-26,-13,-43,-25c0,0,-17,-12,-27,-12c0,0,-7,0,-11,5c0,0,-5,4,-8,15c0,0,-3,10,-5,28c0,0,-2,17,-2,42c0,0,0,18,1,29c0,0,1,12,4,20c0,0,2,9,6,15c0,0,3,6,13,15c0,0,9,9,34,23c0,0,25,14,61,27c0,0,37,14,81,23c0,0,44,9,92,9c0,0,75,0,131,-19c0,0,57,-19,94,-53c0,0,37,-34,55,-81c0,0,19,-47,19,-100c0,0,0,-47,-9,-93c0,0,-9,-45,-37,-98c0,0,-29,-52,-80,-116c0,0,-52,-64,-136,-148L299,159H679c0,0,8,0,14,-4c0,0,6,-5,11,-14c0,0,4,-9,7,-25c0,0,2,-15,2,-36c0,0,0,-22,-2,-37c0,0,-2,-15,-6,-25c0,0,-3,-10,-9,-14c0,0,-6,-4,-14,-4Z" 
id="f0_rz"
transform="scale(0.001,-0.001)" />

<path d="M385,138c0,0,29,0,52,9c0,0,22,10,39,28c0,0,17,19,28,47c0,0,11,29,19,66c0,0,7,37,9,84c0,0,3,47,3,104c0,0,0,69,-4,122c0,0,-4,52,-11,91c0,0,-8,39,-20,66c0,0,-12,27,-28,43c0,0,-16,16,-37,22c0,0,-21,7,-47,7c0,0,-44,0,-73,-21c0,0,-28,-21,-45,-64c0,0,-17,-42,-24,-106c0,0,-6,-63,-6,-148c0,0,0,-103,8,-171c0,0,8,-67,26,-107c0,0,17,-40,45,-56c0,0,27,-16,66,-16ZM378,-17c0,0,-99,0,-164,33c0,0,-65,34,-103,98c0,0,-38,64,-54,156c0,0,-15,92,-15,209c0,0,0,115,19,208c0,0,19,94,61,160c0,0,42,65,110,101c0,0,68,35,165,35c0,0,99,0,164,-34c0,0,65,-34,103,-98c0,0,39,-64,53,-156c0,0,15,-92,15,-209c0,0,0,-115,-18,-209c0,0,-19,-93,-61,-159C653,118,611,53,543,17c0,0,-67,-34,-165,-34Z" 
id="f0_rx"
transform="scale(0.001,-0.001)" />

<path d="M142,0c0,0,-6,0,-12,4c0,0,-5,3,-9,12c0,0,-4,9,-6,23c0,0,-3,15,-3,36c0,0,0,21,2,36c0,0,2,14,6,23c0,0,4,9,10,13c0,0,5,5,12,5H322V779L166,693c0,0,-17,-8,-28,-10c0,0,-1,0,-3,0c-4,0,-10,1,-14,5c0,0,-6,6,-8,22c0,0,-2,15,-2,44c0,0,0,18,0,29c0,0,1,12,4,20c0,0,3,8,8,14c0,0,5,5,14,11L345,962c0,0,4,3,9,5c0,0,6,2,15,3c0,0,9,1,23,2c0,0,15,0,38,0c0,0,28,0,46,-1c0,0,17,-1,26,-4c0,0,9,-3,12,-7c0,0,3,-4,3,-11V152H675c0,0,7,0,12,-5c0,0,6,-4,10,-13c0,0,4,-9,6,-23c0,0,2,-15,2,-36c0,0,0,-21,-2,-36c0,0,-3,-14,-7,-23c0,0,-4,-9,-9,-12c0,0,-5,-4,-12,-4Z" 
id="f0_ry"
transform="scale(0.001,-0.001)" />

<path d="M337,-17c0,0,-50,0,-93,8c0,0,-43,7,-76,16c0,0,-34,11,-55,22c0,0,-22,11,-29,17c0,0,-6,6,-10,13c0,0,-3,8,-6,18c0,0,-2,10,-3,25c0,0,-1,16,-1,37c0,0,0,36,6,50c0,0,6,13,17,13c0,0,8,0,26,-10c0,0,18,-10,47,-21c0,0,28,-12,66,-22c0,0,38,-10,87,-10c0,0,41,0,72,10c0,0,31,9,53,27c0,0,22,17,33,42c0,0,11,25,11,56c0,0,0,34,-13,61c0,0,-13,26,-39,45c0,0,-26,20,-65,30c0,0,-39,10,-92,10H189c0,0,-9,0,-16,3c0,0,-7,3,-11,11c0,0,-5,8,-7,23c0,0,-1,14,-1,37c0,0,0,22,1,36c0,0,2,13,6,21c0,0,4,7,11,10c0,0,6,3,15,3h85c0,0,43,0,77,10c0,0,33,10,56,29c0,0,23,19,35,45c0,0,12,27,12,59c0,0,0,25,-8,47c0,0,-9,22,-25,38c0,0,-16,16,-41,26c0,0,-26,9,-60,9c0,0,-39,0,-73,-11c0,0,-34,-12,-62,-26c0,0,-27,-13,-46,-25c0,0,-19,-12,-28,-12c0,0,-6,0,-10,2c0,0,-5,3,-8,11c0,0,-3,7,-4,21c0,0,-2,14,-2,37c0,0,0,18,1,31c0,0,1,12,3,20c0,0,2,8,5,14c0,0,4,6,11,13c0,0,8,7,31,21c0,0,23,14,58,28c0,0,35,13,81,22c0,0,46,10,100,10c0,0,70,0,124,-17c0,0,54,-16,91,-47c0,0,37,-31,56,-76c0,0,19,-46,19,-102c0,0,0,-44,-11,-83c0,0,-12,-38,-33,-68c0,0,-22,-29,-54,-50c0,0,-33,-21,-75,-32v-2c0,0,50,-6,91,-26c0,0,40,-19,68,-49c0,0,28,-30,43,-68c0,0,15,-37,15,-81c0,0,0,-72,-28,-128c0,0,-27,-56,-77,-94C604,60,555,22,487,2c0,0,-69,-19,-150,-19Z" 
id="f0_s0"
transform="scale(0.001,-0.001)" />

<path d="M589,371L453,782h-1L317,371ZM106,-4c0,0,-35,0,-54,2C52,-2,32,0,25,8c0,0,-7,9,-5,24c0,0,2,16,11,42L329,931c0,0,4,13,10,21c0,0,6,7,19,12c0,0,13,4,36,5c0,0,23,1,61,1c0,0,44,0,71,-1c0,0,26,-1,40,-5c0,0,15,-5,21,-13c0,0,6,-8,11,-22L896,73c0,0,9,-27,11,-43c0,0,3,-15,-6,-23c0,0,-8,-7,-29,-9c0,0,-21,-2,-57,-2c0,0,-38,0,-59,1c0,0,-22,1,-33,4c0,0,-11,3,-16,9c0,0,-4,6,-7,16L635,220H272L211,31c0,0,-2,-11,-7,-18c0,0,-5,-7,-16,-11c0,0,-11,-3,-31,-4c0,0,-19,-2,-51,-2Z" 
id="f0_5"
transform="scale(0.001,-0.001)" />

<path d="M198,-4c0,0,-27,0,-45,2c0,0,-18,2,-28,5c0,0,-11,4,-15,10c0,0,-4,6,-4,13V887c0,0,0,38,20,58c0,0,20,20,53,20H308c0,0,34,0,59,-6c0,0,24,-5,42,-18c0,0,18,-13,30,-35c0,0,12,-21,21,-52L669,279h3L889,852c0,0,9,32,21,53c0,0,11,22,27,35c0,0,15,14,36,19c0,0,21,6,48,6h132c0,0,21,0,35,-5c0,0,15,-5,24,-15c0,0,9,-11,14,-25c0,0,5,-15,5,-33V26c0,0,0,-7,-4,-13c0,0,-4,-6,-15,-10c0,0,-11,-3,-29,-5c0,0,-18,-2,-45,-2c0,0,-27,0,-45,2c0,0,-18,2,-28,5c0,0,-11,4,-15,10c0,0,-5,6,-5,13V813h-1L764,27c0,0,-3,-10,-10,-16c0,0,-6,-6,-18,-10c0,0,-12,-3,-29,-4c0,0,-18,-1,-44,-1c0,0,-25,0,-43,2c0,0,-18,2,-29,5c0,0,-12,4,-19,10c0,0,-6,6,-9,14L293,813h-2V26c0,0,0,-7,-4,-13c0,0,-4,-6,-15,-10c0,0,-11,-3,-29,-5c0,0,-17,-2,-45,-2Z" 
id="f0_1x"
transform="scale(0.001,-0.001)" />

<path d="M193,-4c0,0,-26,0,-43,2c0,0,-18,2,-27,6c0,0,-10,4,-14,10c0,0,-3,6,-3,13V895c0,0,0,35,20,53c0,0,21,17,50,17H282c0,0,28,0,47,-5c0,0,20,-5,35,-16c0,0,15,-11,29,-31c0,0,13,-20,27,-49L608,511c0,0,17,-32,33,-63c0,0,16,-31,31,-62c0,0,14,-31,29,-60c0,0,14,-30,27,-60h1c0,0,-2,52,-3,109c0,0,-1,57,-1,108V936c0,0,0,7,4,13c0,0,5,6,15,11c0,0,10,4,28,6c0,0,17,2,44,2c0,0,25,0,42,-2c0,0,17,-2,27,-6c0,0,9,-5,13,-11c0,0,4,-6,4,-13V68c0,0,0,-17,-6,-30c0,0,-6,-14,-17,-23C879,15,869,6,856,2c0,0,-14,-3,-28,-3H744c0,0,-26,0,-45,4c0,0,-19,5,-35,19c0,0,-16,14,-31,38c0,0,-15,23,-34,60L359,572c0,0,-21,40,-43,86c0,0,-21,47,-38,91h-2c0,0,3,-54,5,-107c0,0,2,-53,2,-110V27c0,0,0,-7,-5,-13c0,0,-4,-6,-14,-10c0,0,-10,-4,-27,-6c0,0,-17,-2,-44,-2Z" 
id="f0_1y"
transform="scale(0.001,-0.001)" />

<path d="M378,-4c0,0,-28,0,-47,2c0,0,-19,2,-31,5c0,0,-11,4,-16,10c0,0,-4,6,-4,13V805H38c0,0,-8,0,-13,4c0,0,-5,5,-9,14c0,0,-3,9,-5,25c0,0,-2,15,-2,37c0,0,0,22,2,38c0,0,2,15,5,25c0,0,4,9,9,13c0,0,5,4,13,4H718c0,0,7,0,12,-4c0,0,6,-4,10,-13c0,0,3,-10,5,-25c0,0,2,-16,2,-38c0,0,0,-22,-2,-37c0,0,-2,-16,-5,-25c0,0,-4,-9,-10,-14c0,0,-5,-4,-12,-4H476V26c0,0,0,-7,-5,-13c0,0,-5,-6,-16,-10c0,0,-11,-3,-30,-5c0,0,-19,-2,-47,-2Z" 
id="f0_2t"
transform="scale(0.001,-0.001)" />

<path d="M514,145c0,0,72,0,121,27c0,0,48,26,78,73c0,0,30,46,42,107c0,0,13,62,13,131c0,0,0,76,-12,139c0,0,-12,62,-41,106c0,0,-29,45,-76,69c0,0,-48,24,-120,24c0,0,-72,0,-120,-27c0,0,-49,-27,-79,-73c0,0,-29,-45,-42,-106c0,0,-12,-61,-12,-129c0,0,0,-79,12,-142c0,0,12,-63,40,-108c0,0,28,-44,76,-68c0,0,48,-23,120,-23ZM508,-17c0,0,-113,0,-196,29c0,0,-84,29,-140,90c0,0,-56,60,-84,154c0,0,-28,93,-28,221c0,0,0,117,29,210c0,0,30,94,89,160c0,0,59,65,146,101c0,0,87,35,202,35c0,0,110,0,194,-29c0,0,84,-30,140,-90c0,0,56,-60,85,-153c0,0,29,-92,29,-217c0,0,0,-120,-30,-215c0,0,-30,-95,-89,-161C855,118,796,52,709,17c0,0,-87,-34,-201,-34Z" 
id="f0_24"
transform="scale(0.001,-0.001)" />

<path d="M407,475c0,0,61,0,105,44c0,0,44,43,44,103c0,0,0,64,-43,108c0,0,-44,43,-109,43c0,0,-57,0,-99,-44c0,0,-42,-45,-42,-107c0,0,0,-62,42,-104c0,0,42,-43,102,-43ZM195,0L430,323c0,0,-67,-8,-85,-8c0,0,-126,0,-212,92c0,0,-87,92,-87,227c0,0,0,141,107,237c0,0,106,96,264,96c0,0,151,0,246,-97c0,0,95,-96,95,-250c0,0,0,-112,-56,-223c0,0,-55,-112,-94,-168L448,0Z" 
id="f1_t"
transform="scale(0.001,-0.001)" />

<path d="M44,-281L425,1053H537L156,-281Z" 
id="f1_j"
transform="scale(0.001,-0.001)" />

<path d="M299,0V777H162l36,173H508V0Z" 
id="f1_l"
transform="scale(0.001,-0.001)" />

<path d="M460,-325c0,0,-148,79,-231,172c0,0,-84,93,-123,217c0,0,-39,126,-39,304c0,0,0,178,39,303c0,0,39,125,122,217c0,0,82,93,232,172V997c0,0,-91,-52,-145,-134c0,0,-54,-81,-79,-190c0,0,-25,-109,-25,-305c0,0,0,-194,26,-309c0,0,26,-114,82,-193c0,0,56,-79,141,-128v-63Z" 
id="f2_c"
transform="scale(0.001,-0.001)" />

<path d="M376,50c0,0,103,0,149,80c0,0,46,81,46,240c0,0,0,137,-47,204c0,0,-48,67,-148,67c0,0,-44,0,-87,-7c0,0,-44,-8,-63,-17V62c0,0,63,-12,150,-12Zm3,-64c0,0,-64,0,-141,14c0,0,-78,14,-136,37v971L0,1026v34H226V809c0,0,0,-40,-4,-148c0,0,74,59,188,59c0,0,143,0,219,-87c0,0,77,-87,77,-263c0,0,0,-189,-84,-287c0,0,-84,-97,-243,-97Z" 
id="f2_1y"
transform="scale(0.001,-0.001)" />

<path d="M49,-325v63c0,0,85,49,140,128c0,0,56,79,83,194c0,0,26,115,26,308c0,0,0,196,-25,305c0,0,-25,109,-79,190c0,0,-54,82,-145,134v63c0,0,149,-80,232,-172c0,0,83,-92,122,-217c0,0,39,-125,39,-303c0,0,0,-177,-39,-303c0,0,-39,-125,-122,-217c0,0,-83,-93,-232,-173Z" 
id="f2_d"
transform="scale(0.001,-0.001)" />

<path d="M32,0V33L151,52V649L52,668v33H275V52L395,33V0ZM201,850c0,0,-32,0,-56,24c0,0,-24,24,-24,56c0,0,0,34,24,58c0,0,24,24,56,24c0,0,34,0,58,-24c0,0,24,-24,24,-58c0,0,0,-32,-24,-56c0,0,-24,-24,-58,-24Z" 
id="f2_25"
transform="scale(0.001,-0.001)" />

<path d="M394,460c0,0,126,0,186,57c0,0,60,57,60,187c0,0,0,123,-57,176c0,0,-58,53,-194,53H316V460ZM54,0V40L172,60V941L44,960v40H421c0,0,368,0,368,-295c0,0,0,-153,-93,-233c0,0,-93,-80,-267,-80H316V60L475,40V0Z" 
id="f2_1g"
transform="scale(0.001,-0.001)" />

<path d="M495,413c0,0,0,133,-34,190c0,0,-34,57,-105,57c0,0,-78,0,-119,-63c0,0,-42,-62,-42,-184ZM374,-14c0,0,-163,0,-239,87c0,0,-75,88,-75,283c0,0,0,183,77,273c0,0,76,91,219,91c0,0,269,0,269,-306V353H194V340c0,0,0,-103,23,-160c0,0,22,-57,70,-87c0,0,47,-29,124,-29c0,0,40,0,96,6c0,0,55,7,91,15V43C598,43,562,20,500,3c0,0,-61,-17,-126,-17Z" 
id="f2_21"
transform="scale(0.001,-0.001)" />

<path d="M439,0V33l93,19V500c0,0,0,62,-30,97c0,0,-31,36,-94,36c0,0,-67,0,-165,-22V52L338,33V0H35V33l84,19V649L35,668v33H235l7,-57c0,0,57,33,122,54c0,0,65,22,108,22c0,0,91,0,137,-53c0,0,47,-53,47,-154V52L741,33V0Z" 
id="f2_2a"
transform="scale(0.001,-0.001)" />

<path d="M249,-14c0,0,-71,0,-107,42c0,0,-35,42,-35,119V639H15v33l93,29l76,159h47V701H391V639H231V161c0,0,0,-48,22,-73c0,0,22,-24,57,-24c0,0,44,0,106,12V26C416,26,389,8,340,-2c0,0,-49,-12,-91,-12Z" 
id="f2_2g"
transform="scale(0.001,-0.001)" />

<path d="M284,67c0,0,51,0,88,12c0,0,37,12,74,30V358l-98,-3c0,0,-100,-4,-135,-39c0,0,-35,-35,-35,-117c0,0,0,-132,106,-132ZM233,-14c0,0,-179,0,-179,208c0,0,0,70,27,116c0,0,27,46,87,70c0,0,60,24,173,27l105,3V519c0,0,0,72,-26,107c0,0,-27,34,-82,34c0,0,-75,0,-137,-35L176,538H134V691c0,0,121,26,213,26c0,0,115,0,169,-47c0,0,54,-47,54,-144V52L657,33V0H465L451,70c0,0,-85,-84,-218,-84Z" 
id="f2_1x"
transform="scale(0.001,-0.001)" />

<path d="M67,0V109L206,235c0,0,133,118,196,190c0,0,63,72,90,149c0,0,27,77,27,177c0,0,0,97,-44,148c0,0,-44,50,-144,50c0,0,-39,0,-81,-10c0,0,-42,-11,-74,-29L150,787H101V980c0,0,135,32,230,32c0,0,164,0,247,-68c0,0,82,-69,82,-193c0,0,0,-84,-32,-158c0,0,-33,-75,-100,-148c0,0,-67,-74,-222,-206c0,0,-67,-57,-141,-125H680V0Z" 
id="f2_m"
transform="scale(0.001,-0.001)" />

<path d="M57,302V417H454V302Z" 
id="f2_h"
transform="scale(0.001,-0.001)" />

<path d="M377,45c0,0,99,0,147,73c0,0,47,73,47,237c0,0,0,161,-47,233c0,0,-47,72,-147,72c0,0,-97,0,-141,-69c0,0,-44,-69,-44,-236c0,0,0,-169,45,-240c0,0,44,-70,140,-70Zm0,-59c0,0,-158,0,-238,94c0,0,-81,95,-81,274c0,0,0,178,81,272c0,0,80,94,244,94c0,0,160,0,241,-92c0,0,82,-92,82,-274c0,0,0,-368,-329,-368Z" 
id="f2_2b"
transform="scale(0.001,-0.001)" />

<path d="M359,-270c0,0,124,0,192,46c0,0,67,47,67,129c0,0,0,43,-26,67c0,0,-26,24,-79,24H242c0,0,-32,-27,-51,-69c0,0,-20,-41,-20,-77c0,0,0,-64,46,-92c0,0,46,-28,142,-28Zm11,561c0,0,81,0,115,47c0,0,34,47,34,141c0,0,0,100,-35,142c0,0,-35,42,-113,42c0,0,-78,0,-114,-43c0,0,-37,-42,-37,-141c0,0,0,-98,36,-143c0,0,36,-45,114,-45ZM359,-329c0,0,-143,0,-218,44c0,0,-75,43,-75,125c0,0,0,39,27,78c0,0,26,38,98,89c0,0,-43,14,-72,48c0,0,-29,35,-29,74L208,262c0,0,-118,55,-118,217c0,0,0,115,73,178c0,0,73,63,211,63c0,0,28,0,71,-6c0,0,44,-6,67,-13l165,83l26,-32L599,644c0,0,50,-56,50,-165c0,0,0,-120,-72,-182c0,0,-73,-62,-208,-62c0,0,-62,0,-114,11L208,148c0,0,2,-13,29,-24c0,0,27,-12,67,-12H512c0,0,113,0,168,-49c0,0,55,-49,55,-134c0,0,0,-79,-44,-137c0,0,-43,-58,-128,-90c0,0,-84,-31,-204,-31Z" 
id="f2_23"
transform="scale(0.001,-0.001)" />

<path d="M360,-14L72,649L0,668v33H327V668L216,648L420,164L615,649L504,668v33H764V668L697,652L416,-14Z" 
id="f2_2i"
transform="scale(0.001,-0.001)" />

<path d="M278,-14c0,0,-52,0,-115,11c0,0,-63,10,-99,23V193H98L134,95c0,0,56,-50,146,-50c0,0,144,0,144,123c0,0,0,91,-114,130l-66,21c0,0,-75,25,-110,50c0,0,-34,26,-53,63c0,0,-18,36,-18,89c0,0,0,92,63,145c0,0,63,54,170,54c0,0,77,0,193,-23V544H454l-32,81c0,0,-39,35,-124,35c0,0,-61,0,-92,-30c0,0,-32,-30,-32,-80c0,0,0,-43,29,-72c0,0,28,-29,86,-48c0,0,110,-38,144,-55c0,0,33,-17,57,-42c0,0,23,-25,36,-57c0,0,13,-32,13,-79c0,0,0,-104,-66,-158c0,0,-66,-53,-195,-53Z" 
id="f2_2f"
transform="scale(0.001,-0.001)" />

<path d="M392,152V469H76v77H392V863h77V546H787V469H469V152Z" 
id="f2_f"
transform="scale(0.001,-0.001)" />

<path d="M383,64c0,0,85,0,152,28V645c0,0,-67,13,-152,13c0,0,-194,0,-194,-314c0,0,0,-141,48,-211c0,0,48,-69,146,-69ZM342,-14c0,0,-287,0,-287,358c0,0,0,184,82,280c0,0,81,96,239,96c0,0,81,0,163,-18c0,0,-4,25,-4,124v182l-118,18v34H659V52L745,33V0H548l-9,52c0,0,-84,-66,-197,-66Z" 
id="f2_20"
transform="scale(0.001,-0.001)" />

<path d="M64,0V34L168,59V639H47v36l121,29v49c0,0,0,155,61,239c0,0,62,84,173,84c0,0,58,0,107,-15V908H472l-33,92c0,0,-26,16,-62,16c0,0,-47,0,-66,-42c0,0,-19,-42,-19,-157V701H478V639H292V59L443,34V0Z" 
id="f2_22"
transform="scale(0.001,-0.001)" />

<path d="M31,0V33l88,19V649L31,668v33H235l7,-87c0,0,44,37,121,71c0,0,76,35,121,35h11V530H463l-43,82c0,0,-37,0,-88,-10c0,0,-52,-10,-89,-26V52L363,33V0Z" 
id="f2_2e"
transform="scale(0.001,-0.001)" />

<path d="M431,0V33L535,52V499c0,0,0,62,-32,96c0,0,-32,33,-95,33c0,0,-66,0,-163,-22V52L350,33V0H32V33l89,19V649L32,668v33H237l6,-57c0,0,56,32,119,54c0,0,62,22,110,22c0,0,52,0,95,-20c0,0,44,-19,66,-62c0,0,57,32,134,57c0,0,77,25,128,25c0,0,179,0,179,-207V52l90,-19V0H846V33L950,52V499c0,0,0,129,-119,129c0,0,-19,0,-45,-3c0,0,-26,-3,-52,-7c0,0,-25,-4,-49,-8c0,0,-23,-5,-39,-8c0,0,13,-41,13,-89V52L764,33V0Z" 
id="f2_29"
transform="scale(0.001,-0.001)" />

<path d="M289,-14c0,0,-179,0,-179,205V649L20,668v33H233V200c0,0,0,-128,120,-128c0,0,92,0,173,23V649L420,668v33H649V52L738,33V0H533l-6,57C527,57,474,28,405,7c0,0,-69,-21,-116,-21Z" 
id="f2_2h"
transform="scale(0.001,-0.001)" />

<path d="M382,45c0,0,188,0,188,314c0,0,0,143,-47,213c0,0,-46,69,-141,69c0,0,-87,0,-146,-24V58c0,0,67,-13,146,-13ZM25,-325v35l88,18V649L34,668v33H231l1,-41c0,0,31,27,84,43c0,0,53,17,107,17c0,0,134,0,208,-94c0,0,73,-93,73,-267c0,0,0,-178,-80,-276c0,0,-80,-97,-232,-97c0,0,-84,0,-160,16c0,0,4,-53,4,-84V-272l123,-18v-35Z" 
id="f2_2c"
transform="scale(0.001,-0.001)" />

<path d="M350,-14c0,0,-142,0,-269,31L73,228h49L156,87c0,0,29,-16,82,-28c0,0,54,-12,100,-12c0,0,117,0,173,54c0,0,56,53,56,178c0,0,0,99,-52,150c0,0,-51,51,-159,56l-107,6v61l107,7c0,0,84,5,124,52c0,0,41,48,41,145c0,0,0,101,-44,147c0,0,-44,45,-139,45c0,0,-40,0,-83,-10c0,0,-43,-11,-76,-29L153,786H104V979c0,0,74,19,127,26c0,0,54,6,107,6c0,0,321,0,321,-246c0,0,0,-104,-57,-165c0,0,-57,-62,-162,-77c0,0,136,-16,200,-78c0,0,64,-62,64,-173c0,0,0,-135,-92,-211c0,0,-93,-75,-262,-75Z" 
id="f2_n"
transform="scale(0.001,-0.001)" />

<path d="M44,0V40L172,60V941L44,960v40H794V760H745L721,922c0,0,-83,11,-241,11H316V543H586l23,119h48V354H609L586,475H316V67H513c0,0,193,0,252,12l43,185h49L843,0Z" 
id="f2_15"
transform="scale(0.001,-0.001)" />

<path d="M442,0V33l93,19V504c0,0,0,129,-124,129c0,0,-70,0,-168,-22V52L338,33V0H31V33l88,19v956L15,1026v34H243V756c0,0,0,-77,-5,-112c0,0,54,31,122,53c0,0,68,23,115,23c0,0,91,0,137,-53c0,0,47,-53,47,-154V52L744,33V0Z" 
id="f2_24"
transform="scale(0.001,-0.001)" />

<path d="M31,0V33L150,52v956L31,1026v34H274V52L394,33V0Z" 
id="f2_28"
transform="scale(0.001,-0.001)" />

<path d="M595,60c0,0,141,0,206,102c0,0,65,102,65,340c0,0,0,236,-65,335c0,0,-65,100,-206,100c0,0,-142,0,-207,-100c0,0,-66,-99,-66,-335c0,0,0,-239,66,-340c0,0,65,-102,207,-102Zm0,-74c0,0,-253,0,-387,130C208,116,75,246,75,501c0,0,0,510,520,510c0,0,256,0,387,-129c0,0,132,-130,132,-381c0,0,0,-254,-133,-385C981,116,848,-14,595,-14Z" 
id="f3_1f"
transform="scale(0.001,-0.001)" />

<path d="M498,506c0,0,115,0,164,47c0,0,48,48,48,166c0,0,0,112,-46,156c0,0,-46,43,-169,43H390V506ZM793,0L514,423H390V74L518,54V0H36V54L154,74V926L26,945v55H504c0,0,221,0,330,-68c0,0,109,-68,109,-212c0,0,0,-215,-201,-276L1009,74L1117,54V0Z" 
id="f3_1i"
transform="scale(0.001,-0.001)" />

<path d="M54,0V40L172,60V941L44,960v40H794V760H745L721,922c0,0,-83,11,-241,11H316V516H611l23,120h46V328H634L611,449H316V60L483,40V0Z" 
id="f2_16"
transform="scale(0.001,-0.001)" />

<path d="M577,-14c0,0,-243,0,-379,132C198,118,63,250,63,488c0,0,0,258,130,391c0,0,131,132,387,132c0,0,156,0,335,-38l5,-218H871L848,884c0,0,-52,32,-121,50c0,0,-69,17,-141,17c0,0,-191,0,-279,-112c0,0,-88,-113,-88,-349c0,0,0,-217,92,-332c0,0,92,-115,268,-115c0,0,85,0,160,20c0,0,76,21,120,55l27,149h49L930,32c0,0,-164,-46,-353,-46Z" 
id="f2_13"
transform="scale(0.001,-0.001)" />

<path d="M44,0V40L172,60V941L44,960v40H445V960L316,941V549H787V941L659,960v40h400V960L930,941V60L1059,40V0H659V40L787,60V481H316V60L445,40V0Z" 
id="f2_18"
transform="scale(0.001,-0.001)" />

<path d="M-12,338v55H777V338Z" 
id="f4_4y"
transform="scale(0.001,-0.001)" />

<path d="M551,45c0,0,171,0,252,108c0,0,82,108,82,349c0,0,0,239,-81,344c0,0,-81,105,-253,105c0,0,-172,0,-252,-105c0,0,-80,-105,-80,-344c0,0,0,-241,80,-349c0,0,81,-108,252,-108Zm0,-59c0,0,-238,0,-363,129C188,115,63,245,63,501c0,0,0,510,488,510c0,0,242,0,366,-129c0,0,124,-130,124,-381c0,0,0,-255,-126,-385C915,116,790,-14,551,-14Z" 
id="f2_1f"
transform="scale(0.001,-0.001)" />

<path d="M399,-14c0,0,-341,0,-341,370c0,0,0,175,87,269c0,0,87,95,249,95c0,0,101,0,220,-23V501H573L541,625c0,0,-62,35,-149,35c0,0,-200,0,-200,-304c0,0,0,-158,61,-225c0,0,61,-67,189,-67c0,0,109,0,189,24V43C631,43,595,16,530,1c0,0,-64,-15,-131,-15Z" 
id="f2_1z"
transform="scale(0.001,-0.001)" />

<path d="M55,0V40L184,60V941L55,960v40H455V960L327,941V60L455,40V0Z" 
id="f2_19"
transform="scale(0.001,-0.001)" />

<path d="M327,-14L84,649L1,668v33H335V668L219,648L385,174L554,632h63L786,171L944,649L830,668v33h267V668l-78,-16L784,-14H726L553,448L382,-14Z" 
id="f2_2j"
transform="scale(0.001,-0.001)" />

<path d="M191,-20c0,0,-39,0,-65,25c0,0,-25,27,-25,64c0,0,0,38,26,64c0,0,26,26,64,26c0,0,38,0,64,-26c0,0,26,-26,26,-64c0,0,0,-37,-25,-64c0,0,-26,-25,-65,-25Z" 
id="f2_i"
transform="scale(0.001,-0.001)" />

<path d="M58,-234v58c0,0,131,42,131,125c0,0,0,15,-11,27c0,0,-11,12,-38,25C140,1,89,27,89,75c0,0,0,40,25,61c0,0,26,21,65,21c0,0,48,0,77,-34c0,0,30,-34,30,-86c0,0,0,-101,-60,-170c0,0,-59,-69,-168,-101Z" 
id="f2_g"
transform="scale(0.001,-0.001)" />

<path d="M64,-325c0,0,-46,0,-107,14v148H-8l19,-81c0,0,25,-21,62,-21c0,0,44,0,67,47c0,0,22,47,22,152V649L57,668v33H286V-28c0,0,0,-146,-57,-221c0,0,-56,-76,-165,-76ZM213,850c0,0,-34,0,-58,24c0,0,-24,24,-24,56c0,0,0,34,24,58c0,0,24,24,58,24c0,0,32,0,56,-24c0,0,24,-24,24,-58c0,0,0,-32,-24,-56c0,0,-24,-24,-56,-24Z" 
id="f2_26"
transform="scale(0.001,-0.001)" />

<path d="M-12,1083v71H777v-71Z" 
id="f2_36"
transform="scale(0.001,-0.001)" />

<path d="M64,0V141c0,0,64,68,119,123c0,0,119,118,174,185c0,0,56,68,81,140c0,0,26,72,26,165c0,0,0,81,-40,131c0,0,-39,50,-105,50c0,0,-46,0,-74,-10c0,0,-27,-10,-50,-29L163,751H98V979c0,0,59,13,116,23c0,0,58,9,125,9c0,0,165,0,252,-68c0,0,88,-68,88,-193c0,0,0,-78,-26,-142c0,0,-26,-64,-83,-124c0,0,-56,-61,-224,-197c0,0,-64,-52,-139,-119H698V0Z" 
id="f3_m"
transform="scale(0.001,-0.001)" />

<path d="M377,478c0,0,57,0,112,14v10c0,0,0,216,-25,325c0,0,-26,110,-91,110c0,0,-112,0,-112,-245c0,0,0,-214,116,-214ZM312,-14c0,0,-124,0,-232,31V245h65L177,99c0,0,26,-18,62,-29c0,0,36,-10,70,-10c0,0,80,0,126,91c0,0,45,92,52,265c0,0,-77,-28,-154,-28c0,0,-135,0,-213,81c0,0,-78,80,-78,226c0,0,0,152,87,234c0,0,87,82,242,82c0,0,176,0,257,-123c0,0,81,-123,81,-385c0,0,0,-169,-48,-284C661,219,614,103,525,44c0,0,-89,-58,-213,-58Z" 
id="f3_t"
transform="scale(0.001,-0.001)" />

<path d="M191,-20c0,0,-51,0,-88,34c0,0,-36,36,-36,88c0,0,0,52,36,88c0,0,36,36,88,36c0,0,51,0,88,-36c0,0,36,-36,36,-88c0,0,0,-51,-36,-87c0,0,-36,-35,-88,-35Z" 
id="f3_i"
transform="scale(0.001,-0.001)" />

<path d="M474,-326c0,0,-112,57,-188,133c0,0,-107,108,-165,254c0,0,-58,147,-58,305c0,0,0,231,114,421c0,0,114,191,297,273v-31c0,0,-92,-51,-151,-139c0,0,-59,-88,-88,-223c0,0,-30,-135,-30,-281c0,0,0,-160,25,-290c0,0,20,-102,47,-164c0,0,28,-62,75,-120c0,0,47,-57,122,-109v-29Z" 
id="f4_c"
transform="scale(0.001,-0.001)" />

<path d="M286,72c0,0,57,0,149,75V407c0,0,-113,-45,-145,-64c0,0,-59,-32,-85,-68c0,0,-25,-36,-25,-78c0,0,0,-54,32,-89c0,0,32,-36,74,-36ZM217,-13c0,0,-71,0,-116,48c0,0,-46,48,-46,127c0,0,0,50,22,87c0,0,31,50,106,95c0,0,76,45,252,109v26c0,0,0,102,-32,140c0,0,-32,38,-94,38c0,0,-47,0,-74,-25c0,0,-28,-25,-28,-58l1,-43c0,0,0,-34,-17,-53c0,0,-18,-18,-47,-18c0,0,-28,0,-45,19c0,0,-18,19,-18,53c0,0,0,64,66,117c0,0,65,54,184,54c0,0,91,0,149,-31c0,0,44,-23,65,-72c0,0,13,-32,13,-131V238c0,0,0,-98,4,-120c0,0,4,-22,12,-29c0,0,9,-8,20,-8c0,0,12,0,21,5c0,0,16,10,61,55V99C676,99,592,-12,516,-12c0,0,-37,0,-58,24c0,0,-22,26,-23,86C435,98,330,17,303,5c0,0,-40,-18,-86,-18Z" 
id="f4_1x"
transform="scale(0.001,-0.001)" />

<path d="M35,-326v29c0,0,92,51,151,139c0,0,60,87,89,221c0,0,28,136,28,282c0,0,0,159,-24,290c0,0,-19,103,-47,165c0,0,-28,62,-75,119c0,0,-46,57,-122,110v31c0,0,113,-56,188,-132c0,0,107,-109,165,-255c0,0,58,-147,58,-306c0,0,0,-231,-114,-420c0,0,-113,-191,-297,-273Z" 
id="f4_d"
transform="scale(0.001,-0.001)" />

<path d="M107,-21V325h27c0,0,19,-109,52,-163c0,0,33,-54,100,-90c0,0,68,-36,148,-36c0,0,93,0,148,49c0,0,54,50,54,117c0,0,0,37,-21,75c0,0,-20,38,-64,71c0,0,-29,22,-159,95c0,0,-130,72,-185,115c0,0,-55,44,-83,96c0,0,-28,52,-28,114c0,0,0,109,83,188c0,0,84,78,213,78c0,0,81,0,171,-39c0,0,42,-19,59,-19c0,0,20,0,32,11c0,0,12,12,20,47h27V684H674c0,0,-14,101,-48,161c0,0,-35,60,-100,95c0,0,-64,35,-133,35c0,0,-77,0,-128,-47c0,0,-51,-48,-51,-108c0,0,0,-46,32,-84c0,0,47,-56,221,-149c0,0,142,-76,194,-117c0,0,51,-41,80,-96c0,0,28,-55,28,-115c0,0,0,-115,-90,-198c0,0,-89,-82,-229,-82c0,0,-44,0,-83,6c0,0,-23,4,-95,27c0,0,-73,24,-93,24c0,0,-18,0,-29,-11c0,0,-11,-12,-16,-46Z" 
id="f4_1j"
transform="scale(0.001,-0.001)" />

<path d="M255,-10c0,0,-35,0,-68,18c0,0,-32,19,-48,55c0,0,-16,35,-16,109V632H15v24c0,0,41,16,84,56c0,0,43,39,77,92c0,0,17,29,48,104h23V683H407V632H247V188c0,0,0,-66,19,-90c0,0,19,-23,49,-23c0,0,24,0,47,16c0,0,23,15,36,45h29c0,0,-26,-73,-74,-110c0,0,-47,-36,-98,-36Z" 
id="f4_2g"
transform="scale(0.001,-0.001)" />

<path d="M479,469c0,0,-4,66,-16,93c0,0,-18,42,-55,65c0,0,-37,24,-78,24c0,0,-62,0,-111,-48c0,0,-48,-48,-57,-134ZM355,-20c0,0,-123,0,-211,95c0,0,-87,96,-87,258c0,0,0,175,90,273c0,0,89,98,225,98c0,0,115,0,189,-76c0,0,74,-75,74,-202H162c0,0,0,-152,74,-239c0,0,75,-86,175,-86c0,0,67,0,117,36c0,0,50,37,83,127l24,-15c0,0,-16,-102,-91,-186c0,0,-76,-83,-189,-83Z" 
id="f4_21"
transform="scale(0.001,-0.001)" />

<path d="M356,519c0,0,145,0,218,63c0,0,74,63,74,160c0,0,0,95,-60,154c0,0,-59,59,-157,59c0,0,-43,0,-117,-13V520c0,0,14,0,25,0c0,0,10,-1,17,-1ZM26,0V27H64c0,0,64,0,92,42c0,0,15,23,15,110V833c0,0,0,96,-21,119c0,0,-29,33,-86,33H26v27H395c0,0,161,0,238,-24c0,0,76,-23,129,-86c0,0,54,-63,54,-151c0,0,0,-93,-61,-162c0,0,-61,-68,-189,-97L775,202c0,0,72,-100,123,-133c0,0,52,-33,134,-42V0H762L419,473c0,0,-38,-1,-61,-1c0,0,-10,0,-21,0c0,0,-11,0,-23,1V179c0,0,0,-96,21,-119c0,0,28,-33,84,-33h40V0Z" 
id="f4_1i"
transform="scale(0.001,-0.001)" />

<path d="M406,32c0,0,72,0,119,60c0,0,47,59,47,205c0,0,0,181,-78,286c0,0,-53,71,-135,71c0,0,-40,0,-79,-23c0,0,-40,-24,-65,-83c0,0,-24,-58,-24,-151c0,0,0,-149,59,-257c0,0,59,-108,156,-108ZM374,-20c0,0,-154,0,-245,122c0,0,-77,104,-77,233c0,0,0,94,46,187c0,0,47,92,123,137c0,0,76,44,161,44c0,0,155,0,249,-118c0,0,80,-100,80,-231c0,0,0,-91,-44,-185C667,169,623,75,546,27c0,0,-77,-47,-172,-47Z" 
id="f4_2b"
transform="scale(0.001,-0.001)" />

<path d="M292,-20c0,0,-57,0,-100,33c0,0,-42,33,-58,85c0,0,-17,52,-17,148V551c0,0,0,49,-10,68c0,0,-11,18,-31,29c0,0,-19,9,-68,9c-2,0,-4,0,-6,0v26H242V226c0,0,0,-95,33,-125c0,0,33,-30,80,-30c0,0,32,0,73,21c0,0,40,20,96,76V555c0,0,0,59,-21,80c0,0,-22,21,-89,22v26H647V269c0,0,0,-119,6,-145c0,0,6,-27,18,-37c0,0,12,-11,29,-11c0,0,23,0,52,13L763,63L558,-20H524V124C524,124,436,29,390,4c0,0,-47,-24,-98,-24Z" 
id="f4_2h"
transform="scale(0.001,-0.001)" />

<path d="M58,0V26c0,0,47,0,64,10c0,0,18,10,28,32c0,0,9,23,9,86V775c0,0,0,116,-5,142c0,0,-5,27,-17,37c0,0,-11,9,-29,9c0,0,-20,0,-49,-12L46,978l204,83h34V154c0,0,0,-64,9,-85c0,0,9,-21,29,-32c0,0,19,-11,72,-11V0Z" 
id="f4_28"
transform="scale(0.001,-0.001)" />

<path d="M177,647v35c0,0,77,46,105,86c0,0,19,28,19,68c0,0,0,23,-8,34c0,0,-9,11,-19,11c0,0,-9,0,-22,-5c0,0,-19,-7,-32,-7c0,0,-30,0,-53,23c0,0,-23,22,-23,56c0,0,0,37,23,58c0,0,31,28,75,28c0,0,50,0,90,-42c0,0,40,-42,40,-105c0,0,0,-88,-67,-160c0,0,-44,-48,-128,-80Z" 
id="f4_53"
transform="scale(0.001,-0.001)" />

<path d="M312,-20c0,0,-62,0,-143,22c0,0,-25,8,-40,8c0,0,-18,0,-27,-19H77V234h25c0,0,21,-105,80,-158c0,0,59,-53,132,-53c0,0,51,0,84,31c0,0,32,30,32,72c0,0,0,52,-36,87c0,0,-36,35,-144,88c0,0,-109,54,-142,97c0,0,-34,43,-34,107c0,0,0,85,58,141c0,0,58,57,150,57c0,0,40,0,97,-17c0,0,38,-11,51,-11c0,0,12,0,19,5c0,0,7,5,15,23h25V470H464c0,0,-28,110,-72,149c0,0,-45,40,-113,40c0,0,-53,0,-85,-28c0,0,-32,-27,-32,-61c0,0,0,-41,24,-71c0,0,23,-31,94,-65L389,381c0,0,152,-74,152,-194c0,0,0,-94,-71,-151c0,0,-70,-56,-158,-56Z" 
id="f4_2f"
transform="scale(0.001,-0.001)" />

<path d="M336,-20L117,554c0,0,-21,55,-42,74c0,0,-21,19,-66,29v26H296V657c0,0,-40,-3,-52,-14c0,0,-13,-12,-13,-33c0,0,0,-23,13,-56L390,162L537,481L498,581c0,0,-18,46,-47,63c0,0,-17,11,-61,13v26H716V657c0,0,-54,-2,-77,-20c0,0,-15,-12,-15,-39c0,0,0,-15,6,-30L785,177L929,554c0,0,15,40,15,65c0,0,0,14,-15,25c0,0,-14,12,-57,13v26h216V657c0,0,-65,-10,-95,-89L764,-20H733L563,415L363,-20Z" 
id="f4_2j"
transform="scale(0.001,-0.001)" />

<path d="M63,0V26H93c0,0,30,0,54,15c0,0,25,15,34,41c0,0,10,25,10,99V630H58v53H191v45c0,0,0,102,33,173c0,0,32,71,100,114c0,0,68,44,152,44c0,0,79,0,145,-51c0,0,43,-33,43,-75c0,0,0,-22,-19,-42c0,0,-20,-20,-42,-20c0,0,-17,0,-36,12c0,0,-19,13,-47,53c0,0,-28,41,-51,55c0,0,-23,14,-51,14c0,0,-35,0,-58,-18c0,0,-24,-18,-35,-57c0,0,-10,-38,-10,-197V683H491V630H315V181c0,0,0,-96,21,-122c0,0,27,-33,73,-33h62V0Z" 
id="f4_22"
transform="scale(0.001,-0.001)" />

<path d="M17,0V26c0,0,52,0,77,17c0,0,19,12,26,38c0,0,4,13,4,73V419c0,0,0,119,-5,142c0,0,-4,23,-17,33c0,0,-13,11,-33,11c0,0,-23,0,-52,-11l-7,26l207,83h31V549c0,0,86,154,176,154c0,0,41,0,68,-25c0,0,27,-25,27,-58c0,0,0,-29,-20,-49c0,0,-19,-20,-46,-20c0,0,-26,0,-58,25c0,0,-33,26,-48,26c0,0,-14,0,-29,-15c0,0,-34,-30,-70,-101V159c0,0,0,-56,15,-85c0,0,9,-20,34,-34c0,0,24,-14,71,-14V0Z" 
id="f4_2e"
transform="scale(0.001,-0.001)" />

<path d="M55,0V26c0,0,50,0,67,10c0,0,17,10,27,32c0,0,10,23,10,86V418c0,0,0,111,-6,144c0,0,-6,24,-17,33c0,0,-11,10,-30,10c0,0,-21,0,-51,-11L45,620l206,83h33V154c0,0,0,-64,9,-85c0,0,9,-22,27,-32c0,0,19,-11,67,-11V0ZM222,909c0,0,-32,0,-54,23c0,0,-22,22,-22,53c0,0,0,32,22,54c0,0,22,22,54,22c0,0,31,0,53,-22c0,0,22,-22,22,-54c0,0,0,-31,-22,-53c0,0,-22,-23,-53,-23Z" 
id="f4_25"
transform="scale(0.001,-0.001)" />

<path d="M21,0V26H35c0,0,53,0,71,27c0,0,18,27,18,101V408c0,0,0,123,-5,150c0,0,-6,27,-17,37c0,0,-12,10,-31,10c0,0,-21,0,-50,-11L10,620l206,83h32V558c0,0,120,145,229,145c0,0,56,0,96,-28c0,0,40,-28,64,-92c0,0,16,-45,16,-137V154c0,0,0,-65,11,-88c0,0,8,-19,26,-29c0,0,18,-11,68,-11V0H419V26h14c0,0,47,0,66,15c0,0,20,15,27,43c0,0,3,11,3,70V434c0,0,0,93,-24,135c0,0,-24,42,-81,42c0,0,-88,0,-176,-97V154c0,0,0,-69,9,-86c0,0,10,-21,28,-31c0,0,19,-11,75,-11V0Z" 
id="f4_2a"
transform="scale(0.001,-0.001)" />

<path d="M342,-20c0,0,-116,0,-203,97c0,0,-86,98,-86,264c0,0,0,161,96,261c0,0,95,101,230,101c0,0,100,0,165,-53c0,0,65,-54,65,-111c0,0,0,-29,-18,-46c0,0,-18,-18,-51,-18c0,0,-44,0,-66,29c0,0,-13,15,-17,59c0,0,-4,45,-30,68c0,0,-26,22,-73,22c0,0,-74,0,-120,-55c0,0,-60,-73,-60,-193c0,0,0,-122,60,-216c0,0,60,-93,162,-93c0,0,73,0,131,49c0,0,41,35,80,126l22,-10C629,261,601,125,521,52c0,0,-81,-72,-179,-72Z" 
id="f4_1z"
transform="scale(0.001,-0.001)" />

<path d="M411,-239c0,0,134,0,198,48c0,0,64,47,64,100c0,0,0,39,-38,55c0,0,-39,16,-154,19c0,0,-167,5,-258,17c0,0,-35,-37,-53,-70c0,0,-17,-32,-17,-60c0,0,0,-36,43,-62c0,0,74,-47,215,-47ZM380,257c0,0,56,0,93,43c0,0,36,42,36,133c0,0,0,118,-51,185c0,0,-38,49,-98,49c0,0,-55,0,-92,-44c0,0,-37,-44,-37,-135c0,0,0,-117,50,-182c0,0,39,-49,99,-49ZM345,-328c0,0,-144,0,-243,64c0,0,-56,38,-56,78c0,0,0,18,8,36c0,0,13,27,52,76c0,0,5,7,76,80c0,0,-39,23,-55,41c0,0,-16,19,-16,42c0,0,0,26,22,61c0,0,21,35,98,100c0,0,-63,30,-97,85c0,0,-33,55,-33,121c0,0,0,101,76,174c0,0,77,73,196,73c0,0,98,0,170,-48H688c0,0,32,0,37,-2c0,0,6,-2,8,-6c0,0,4,-7,4,-24c0,0,0,-20,-4,-27c0,0,-2,-4,-7,-6c0,0,-6,-2,-38,-2H599c0,0,41,-54,41,-137c0,0,0,-96,-73,-163c0,0,-73,-68,-196,-68c0,0,-51,0,-104,15c0,0,-33,-28,-44,-49c0,0,-12,-22,-12,-37c0,0,0,-12,13,-24c0,0,12,-12,48,-17c0,0,21,-4,104,-6c0,0,154,-4,199,-11c0,0,70,-10,111,-51c0,0,42,-41,42,-102c0,0,0,-84,-79,-158c0,0,-117,-108,-304,-108Z" 
id="f4_23"
transform="scale(0.001,-0.001)" />

<path d="M376,-20L133,556c0,0,-17,41,-31,58c0,0,-15,18,-39,30c0,0,-12,7,-50,13v26H335V657H314c0,0,-29,0,-44,-14c0,0,-16,-14,-15,-38c0,0,-1,-26,15,-62L429,165L588,557c0,0,17,42,17,64c0,0,0,10,-6,17c0,0,-8,11,-21,15c0,0,-13,4,-52,4v26H750V657c0,0,-39,-3,-54,-16c0,0,-26,-23,-47,-76L409,-20Z" 
id="f4_2i"
transform="scale(0.001,-0.001)" />

<path d="M23,0V26c0,0,47,0,66,10c0,0,19,11,28,33c0,0,10,22,10,85V416c0,0,0,112,-7,145c0,0,-5,25,-16,34c0,0,-11,10,-31,10c0,0,-21,0,-50,-11L12,620l207,83h32V557c0,0,75,75,88,86c0,0,34,29,72,44c0,0,39,16,77,16c0,0,64,0,110,-37c0,0,47,-38,62,-109c0,0,77,90,130,118c0,0,53,28,109,28c0,0,54,0,96,-28c0,0,42,-28,67,-91c0,0,16,-43,16,-136V154c0,0,0,-64,10,-88c0,0,8,-16,28,-28c0,0,20,-12,65,-12V0H844V26h14c0,0,44,0,69,18c0,0,17,12,24,38c0,0,3,13,3,72V448c0,0,0,83,-20,117c0,0,-29,48,-93,48c0,0,-39,0,-79,-20c0,0,-40,-19,-97,-73l-1,-8l2,-32V154c0,0,0,-70,8,-87c0,0,7,-17,29,-29c0,0,21,-12,73,-12V0H431V26c0,0,57,0,78,14c0,0,21,13,29,40c0,0,4,13,4,74V448c0,0,0,83,-25,120c0,0,-33,48,-91,48c0,0,-40,0,-80,-22c0,0,-61,-33,-95,-74V154c0,0,0,-67,10,-87c0,0,9,-20,27,-30c0,0,18,-11,74,-11V0Z" 
id="f4_29"
transform="scale(0.001,-0.001)" />

<path d="M398,24c0,0,74,0,120,58c0,0,61,76,61,214c0,0,0,156,-69,240c0,0,-47,59,-113,59c0,0,-36,0,-71,-18c0,0,-27,-14,-88,-81V242c0,0,0,-83,6,-109c0,0,11,-43,51,-76c0,0,41,-33,103,-33ZM-4,-326v27H15c5,0,42,0,69,16c0,0,14,8,22,26c0,0,7,19,7,94V481c0,0,0,67,-6,85c0,0,-5,18,-18,27c0,0,-13,9,-36,9c0,0,-18,0,-45,-10L0,615l209,85h29V540c0,0,53,91,106,127c0,0,53,36,112,36c0,0,103,0,172,-80c0,0,84,-99,84,-257c0,0,0,-176,-102,-292c0,0,-83,-94,-210,-94c0,0,-55,0,-95,16c0,0,-30,10,-67,44V-167c0,0,0,-71,8,-90c0,0,9,-20,30,-31c0,0,21,-11,77,-11v-27Z" 
id="f4_2c"
transform="scale(0.001,-0.001)" />

<path d="M191,-20c0,0,-34,0,-58,24c0,0,-24,24,-24,58c0,0,0,35,24,59c0,0,24,24,58,24c0,0,35,0,59,-24c0,0,24,-25,24,-59c0,0,0,-34,-24,-58c0,0,-25,-24,-59,-24Z" 
id="f4_i"
transform="scale(0.001,-0.001)" />

<path d="M26,0V27H62c0,0,63,0,91,37c0,0,18,24,18,115V833c0,0,0,77,-10,102c0,0,-7,18,-30,32c0,0,-33,18,-69,18H26v27H459V985H422c0,0,-35,0,-67,-17c0,0,-23,-12,-32,-36c0,0,-9,-25,-9,-99V542H784V833c0,0,0,77,-10,102c0,0,-8,18,-31,32c0,0,-33,18,-68,18H639v27h432V985h-36c0,0,-36,0,-68,-17c0,0,-24,-12,-32,-36c0,0,-9,-25,-9,-99V179c0,0,0,-77,10,-102c0,0,7,-18,31,-32c0,0,32,-18,68,-18h36V0H639V27h36c0,0,62,0,90,37c0,0,19,24,19,115V487H314V179c0,0,0,-77,9,-102c0,0,8,-18,32,-32c0,0,32,-18,67,-18h37V0Z" 
id="f4_18"
transform="scale(0.001,-0.001)" />

<path d="M399,62c0,0,68,0,131,68V481c0,0,-5,51,-27,93c0,0,-22,42,-59,63c0,0,-37,21,-72,21c0,0,-65,0,-117,-59c0,0,-67,-77,-67,-226c0,0,0,-151,65,-231c0,0,66,-80,146,-80ZM330,-20c0,0,-112,0,-196,93c0,0,-83,94,-83,240c0,0,0,147,92,269c0,0,93,122,238,122c0,0,90,0,149,-58V773c0,0,0,117,-6,144c0,0,-5,27,-17,37c0,0,-12,9,-30,9c0,0,-20,0,-52,-12l-9,27l204,83h33V270c0,0,0,-120,6,-146c0,0,5,-27,18,-37c0,0,12,-11,28,-11c0,0,21,0,54,13l9,-26L564,-20H530V78C530,78,480,25,432,2c0,0,-47,-22,-102,-22Z" 
id="f4_20"
transform="scale(0.001,-0.001)" />

<path d="M397,34c0,0,67,0,126,75c0,0,58,74,58,216c0,0,0,131,-58,201c0,0,-59,70,-133,70c0,0,-39,0,-79,-20c0,0,-29,-14,-75,-59V109c0,0,37,-37,78,-56c0,0,40,-19,83,-19ZM358,-20c0,0,-59,0,-121,21c0,0,-61,22,-126,65V773c0,0,0,117,-5,144c0,0,-6,27,-18,37c0,0,-12,9,-29,9c0,0,-21,0,-53,-12l-9,27l205,83h34V564c0,0,98,139,213,139c0,0,105,0,183,-90c0,0,78,-90,78,-245c0,0,0,-182,-121,-293c0,0,-103,-95,-231,-95Z" 
id="f4_1y"
transform="scale(0.001,-0.001)" />

<path d="M145,-328c0,0,-44,0,-73,25c0,0,-28,25,-28,58c0,0,0,31,21,50c0,0,20,19,56,19c0,0,25,0,67,-16c0,0,30,-11,38,-11c0,0,22,0,49,23c0,0,26,23,53,89L376,28L131,542c0,0,-11,24,-36,58c0,0,-19,27,-30,36c0,0,-18,12,-56,21v26H328V657H312c0,0,-33,0,-50,-15c0,0,-17,-14,-17,-36c0,0,0,-30,25,-81L437,179L589,557c0,0,12,31,12,62c0,0,0,13,-5,20c0,0,-6,8,-19,13c0,0,-12,5,-44,5v26H754V657c0,0,-27,-3,-42,-12c0,0,-15,-9,-33,-34c0,0,-7,-10,-25,-58L376,-128c0,0,-40,-99,-105,-150c0,0,-66,-50,-126,-50Z" 
id="f4_2l"
transform="scale(0.001,-0.001)" />

<path d="M328,-20c0,0,-34,0,-58,24c0,0,-25,24,-25,58c0,0,0,35,25,59c0,0,24,24,58,24c0,0,34,0,59,-24c0,0,24,-24,24,-59c0,0,0,-34,-25,-58c0,0,-24,-24,-58,-24ZM308,238c0,0,5,94,23,155c0,0,18,62,76,172c0,0,44,84,58,129c0,0,13,46,13,92c0,0,0,95,-50,150c0,0,-50,56,-123,56c0,0,-65,0,-102,-30c0,0,-38,-31,-38,-67c0,0,0,-27,23,-67c0,0,22,-41,22,-62c0,0,0,-26,-17,-45c0,0,-17,-18,-42,-18c0,0,-31,0,-57,31c0,0,-26,31,-26,86c0,0,0,85,73,150c0,0,72,64,196,64c0,0,153,0,225,-89c0,0,54,-66,54,-146c0,0,0,-54,-24,-112c0,0,-25,-57,-92,-135C500,552,391,430,367,378c0,0,-24,-51,-29,-140Z" 
id="f4_z"
transform="scale(0.001,-0.001)" />

<path d="M134,0V40L339,60V876L137,804v39l292,166h39V60L672,40V0Z" 
id="f2_l"
transform="scale(0.001,-0.001)" />

<path d="M377,45c0,0,99,0,145,108c0,0,46,109,46,352c0,0,0,240,-45,345c0,0,-46,106,-146,106c0,0,-97,0,-139,-100c0,0,-43,-99,-43,-351c0,0,0,-254,44,-357c0,0,43,-103,138,-103Zm0,-59c0,0,-158,0,-238,132c0,0,-81,133,-81,386c0,0,0,249,81,380c0,0,80,132,244,132c0,0,159,0,241,-130c0,0,82,-130,82,-382c0,0,0,-518,-329,-518Z" 
id="f2_k"
transform="scale(0.001,-0.001)" />

<path d="M148,-329c0,0,-58,0,-114,13v151H69l24,-71c0,0,23,-17,64,-17c0,0,39,0,72,22c0,0,33,23,60,67c0,0,27,44,68,157L90,649L19,668v33H344V668L233,648L423,158L606,649L497,668v33H758V668L685,652L411,-43c0,0,-48,-124,-84,-177c0,0,-36,-54,-79,-82c0,0,-44,-27,-100,-27Z" 
id="f2_2l"
transform="scale(0.001,-0.001)" />

<path d="M350,-14c0,0,-142,0,-253,31L89,228h49L172,87c0,0,32,-18,78,-29c0,0,46,-11,88,-11c0,0,118,0,173,56c0,0,56,55,56,187c0,0,0,93,-24,140c0,0,-24,47,-76,70c0,0,-52,22,-140,22c0,0,-68,0,-133,-18H122v496H630V886H189V567c0,0,81,18,173,18c0,0,173,0,258,-71c0,0,84,-71,84,-216c0,0,0,-151,-92,-232c0,0,-91,-80,-262,-80Z" 
id="f2_p"
transform="scale(0.001,-0.001)" />

<path d="M41,0V34L426,641H261c0,0,-42,0,-80,-7c0,0,-39,-7,-54,-19L104,515H69V701H586V665L201,60H407c0,0,42,0,89,10c0,0,47,10,66,25l39,147h35L617,0Z" 
id="f2_2m"
transform="scale(0.001,-0.001)" />

<path d="M476,327V830h-4L114,327ZM476,0V220H30v99l488,686h86V327H740V220H604V0Z" 
id="f2_o"
transform="scale(0.001,-0.001)" />

<path d="M843,0L451,506L316,398V60L460,40V0H44V40L172,60V941L44,960v40H445V960L316,941V470L795,941l-99,19v40h313V960L894,941L552,607L979,60L1088,40V0Z" 
id="f2_1b"
transform="scale(0.001,-0.001)" />

<path d="M76,316v76H787V316Zm0,306v76H787V622Z" 
id="f2_x"
transform="scale(0.001,-0.001)" />

<path d="M477,0V33l64,19L348,354L257,254V52L331,33V0H44V33l89,19v956L29,1026v34H257V338L544,647l-73,20v34H718V667L631,650L431,446L688,50L764,33V0Z" 
id="f2_27"
transform="scale(0.001,-0.001)" />

<path d="M529,65c0,0,183,0,270,108c0,0,87,108,87,334c0,0,0,210,-113,318c0,0,-113,108,-322,108H316V71c0,0,90,-6,213,-6Zm0,-67L172,0H44V40L172,60V941L44,960v40H498c0,0,277,0,411,-123c0,0,133,-124,133,-371c0,0,0,-251,-129,-380C913,126,785,-2,529,-2Z" 
id="f2_14"
transform="scale(0.001,-0.001)" />

<path d="M211,-20c0,0,-39,0,-64,25c0,0,-26,27,-26,64c0,0,0,38,26,64c0,0,26,26,64,26c0,0,37,0,64,-25c0,0,26,-26,26,-65c0,0,0,-37,-26,-64c0,0,-26,-25,-64,-25Zm0,556c0,0,-38,0,-64,26c0,0,-26,26,-26,64c0,0,0,37,26,64c0,0,25,27,64,27c0,0,38,0,64,-27c0,0,26,-27,26,-64c0,0,0,-38,-26,-64c0,0,-27,-26,-64,-26Z" 
id="f2_u"
transform="scale(0.001,-0.001)" />

<path d="M681,416L504,902L333,416ZM669,0V40L803,60L704,348H310L210,60L344,40V0H15V40L128,60l341,949H611L965,60L1092,40V0Z" 
id="f2_11"
transform="scale(0.001,-0.001)" />

<path d="M410,45c0,0,90,0,130,58c0,0,40,59,40,193c0,0,0,122,-38,177c0,0,-38,54,-122,54c0,0,-102,0,-217,-37c0,0,0,-227,51,-336c0,0,52,-109,156,-109Zm3,-59c0,0,-169,0,-258,131c0,0,-89,131,-89,377c0,0,0,161,47,278c0,0,47,117,131,178c0,0,85,61,196,61c0,0,109,0,217,-26V813H608L582,915c0,0,-25,13,-67,23c0,0,-41,10,-75,10c0,0,-109,0,-170,-105c0,0,-60,-106,-66,-308c0,0,121,63,244,63c0,0,132,0,201,-74c0,0,69,-74,69,-214c0,0,0,-156,-78,-240c0,0,-79,-84,-227,-84Z" 
id="f2_q"
transform="scale(0.001,-0.001)" />

<path d="M975,35c0,0,67,0,98,54c0,0,32,53,32,170c0,0,0,114,-31,166c0,0,-31,53,-99,53c0,0,-65,0,-94,-50c0,0,-30,-49,-30,-169c0,0,0,-123,30,-173c0,0,30,-51,94,-51Zm0,-54c0,0,-120,0,-180,70c0,0,-60,71,-60,208c0,0,0,133,60,203c0,0,61,71,184,71c0,0,119,0,180,-69c0,0,61,-68,61,-205c0,0,0,-278,-245,-278ZM292,518c0,0,67,0,98,54c0,0,31,53,31,170c0,0,0,114,-30,166c0,0,-31,53,-99,53c0,0,-65,0,-95,-50c0,0,-29,-49,-29,-169c0,0,0,-123,30,-173c0,0,30,-51,94,-51Zm0,-55c0,0,-120,0,-180,71c0,0,-60,72,-60,208c0,0,0,274,244,274c0,0,119,0,180,-69c0,0,62,-69,62,-205c0,0,0,-279,-246,-279ZM246,-14L953,1016h83L328,-14Z" 
id="f2_9"
transform="scale(0.001,-0.001)" />

<path d="M420,-22L89,941L1,960v40H383V960L236,941L474,236L744,930h33L1037,236l227,705l-156,19v40h331V960l-87,-19L1025,-22H985L726,666L460,-22Z" 
id="f2_1n"
transform="scale(0.001,-0.001)" />

<path d="M306,-20c0,0,-39,0,-65,25c0,0,-25,27,-25,64c0,0,0,38,26,64c0,0,26,26,64,26c0,0,37,0,63,-25c0,0,26,-26,26,-65c0,0,0,-37,-25,-64c0,0,-26,-25,-64,-25ZM269,261L249,510l107,22c0,0,64,13,93,65c0,0,29,52,29,152c0,0,0,109,-39,154c0,0,-40,45,-140,45c0,0,-83,0,-145,-36L128,789H79V979c0,0,118,32,220,32c0,0,316,0,316,-253c0,0,0,-121,-60,-195c0,0,-60,-74,-175,-98l-42,-9L328,261Z" 
id="f2_z"
transform="scale(0.001,-0.001)" />

<path d="M617,0L251,860V60L385,40V0H44V40L172,60V941L44,960v40H347L672,239l355,761h287V960L1185,941V60L1314,40V0H908V40l134,20V859L643,0Z" 
id="f2_1d"
transform="scale(0.001,-0.001)" />

<path d="M377,45c0,0,100,0,147,52c0,0,47,52,47,174c0,0,0,119,-46,173c0,0,-47,54,-148,54c0,0,-98,0,-141,-51c0,0,-44,-51,-44,-176c0,0,0,-126,44,-176c0,0,44,-50,141,-50Zm2,518c0,0,84,0,123,46c0,0,39,46,39,148c0,0,0,102,-40,151c0,0,-41,48,-122,48c0,0,-79,0,-118,-47c0,0,-38,-47,-38,-152c0,0,0,-104,37,-149c0,0,38,-45,119,-45ZM377,-14c0,0,-319,0,-319,285c0,0,0,99,48,164c0,0,48,66,129,96c0,0,-65,30,-106,87c0,0,-40,56,-40,139c0,0,0,123,75,191c0,0,76,68,219,68c0,0,139,0,216,-67c0,0,76,-68,76,-192c0,0,0,-82,-40,-139c0,0,-40,-57,-108,-87c0,0,85,-31,132,-98c0,0,47,-67,47,-162c0,0,0,-142,-80,-214c0,0,-80,-71,-249,-71Z" 
id="f2_s"
transform="scale(0.001,-0.001)" />


</defs>
</svg>