<?xml version="1.0" encoding="UTF-8" standalone="no"?>
<!DOCTYPE svg PUBLIC "-//W3C//DTD SVG 1.1//EN"
"http://www.w3.org/Graphics/SVG/1.1/DTD/svg11.dtd">
<svg viewBox="0 0 909 1286" version="1.1" xmlns="http://www.w3.org/2000/svg" xmlns:xlink="http://www.w3.org/1999/xlink">
<defs>
<clipPath id="c0_4"><path d="M155.5,715.9V695h53.1v20.9Z" /></clipPath>
<clipPath id="c1_4"><path d="M387.6,956.8v-33h5.1v33Z" /></clipPath>
<style type="text/css"><![CDATA[
.g0_4{
fill: none;
stroke: #000000;
stroke-width: 0.90444446;
stroke-linecap: round;
stroke-linejoin: round;
}
.g1_4{
fill: none;
stroke: #000000;
stroke-width: 0.90138894;
stroke-linecap: round;
stroke-linejoin: round;
}
.g2_4{
fill: none;
stroke: #000000;
stroke-width: 0.9029167;
stroke-linecap: round;
stroke-linejoin: round;
}
]]></style>
</defs>
<g fill="#000000" >
<use xlink:href="#f0_l" transform="matrix(12,0,0,12,64.9,106.8)" />
<use xlink:href="#f0_k" transform="matrix(12,0,0,12,74.1,106.8)" />
<use xlink:href="#f0_i" transform="matrix(12,0,0,12,83.2,106.8)" />
<use xlink:href="#f0_13" transform="matrix(12,0,0,12,117,106.8)" />
<use xlink:href="#f0_1x" transform="matrix(12,0,0,12,128.7,106.8)" />
<use xlink:href="#f0_28" transform="matrix(12,0,0,12,136.4,106.8)" />
<use xlink:href="#f0_1z" transform="matrix(12,0,0,12,140.8,106.8)" />
<use xlink:href="#f0_2h" transform="matrix(12,0,0,12,148.6,106.8)" />
<use xlink:href="#f0_28" transform="matrix(12,0,0,12,157.4,106.8)" />
<use xlink:href="#f0_1x" transform="matrix(12,0,0,12,161.4,106.8)" />
<use xlink:href="#f0_2g" transform="matrix(12,0,0,12,169.5,106.8)" />
<use xlink:href="#f0_21" transform="matrix(12,0,0,12,174.6,106.8)" />
<use xlink:href="#f0_2g" transform="matrix(12,0,0,12,185.7,106.8)" />
<use xlink:href="#f0_24" transform="matrix(12,0,0,12,191.2,106.8)" />
<use xlink:href="#f0_21" transform="matrix(12,0,0,12,199.6,106.8)" />
<use xlink:href="#f0_22" transform="matrix(12,0,0,12,210.7,106.8)" />
<use xlink:href="#f0_2e" transform="matrix(12,0,0,12,216.2,106.8)" />
<use xlink:href="#f0_21" transform="matrix(12,0,0,12,222.1,106.8)" />
<use xlink:href="#f0_21" transform="matrix(12,0,0,12,229.8,106.8)" />
<use xlink:href="#f0_2m" transform="matrix(12,0,0,12,237.5,106.8)" />
<use xlink:href="#f0_25" transform="matrix(12,0,0,12,245.2,106.8)" />
<use xlink:href="#f0_2a" transform="matrix(12,0,0,12,249.6,106.8)" />
<use xlink:href="#f0_23" transform="matrix(12,0,0,12,258.1,106.8)" />
<use xlink:href="#f0_2c" transform="matrix(12,0,0,12,269.9,106.8)" />
<use xlink:href="#f0_2b" transform="matrix(12,0,0,12,279,106.8)" />
<use xlink:href="#f0_25" transform="matrix(12,0,0,12,288.2,106.8)" />
<use xlink:href="#f0_2a" transform="matrix(12,0,0,12,292.2,106.8)" />
<use xlink:href="#f0_2g" transform="matrix(12,0,0,12,300.7,106.8)" />
<use xlink:href="#f0_2b" transform="matrix(12,0,0,12,309.5,106.8)" />
<use xlink:href="#f0_22" transform="matrix(12,0,0,12,318.7,106.8)" />
<use xlink:href="#f0_1x" transform="matrix(12,0,0,12,327.5,106.8)" />
<use xlink:href="#f0_2f" transform="matrix(12,0,0,12,338.5,106.8)" />
<use xlink:href="#f0_2b" transform="matrix(12,0,0,12,345.2,106.8)" />
<use xlink:href="#f0_28" transform="matrix(12,0,0,12,354.7,106.8)" />
<use xlink:href="#f0_2h" transform="matrix(12,0,0,12,358.7,106.8)" />
<use xlink:href="#f0_2g" transform="matrix(12,0,0,12,367.6,106.8)" />
<use xlink:href="#f0_25" transform="matrix(12,0,0,12,372.7,106.8)" />
<use xlink:href="#f0_2b" transform="matrix(12,0,0,12,376.7,106.8)" />
<use xlink:href="#f0_2a" transform="matrix(12,0,0,12,386.3,106.8)" />
<use xlink:href="#f0_1z" transform="matrix(12,0,0,12,397.7,106.8)" />
<use xlink:href="#f0_2b" transform="matrix(12,0,0,12,405.4,106.8)" />
<use xlink:href="#f0_2a" transform="matrix(12,0,0,12,414.9,106.8)" />
<use xlink:href="#f0_2g" transform="matrix(12,0,0,12,423.4,106.8)" />
<use xlink:href="#f0_1x" transform="matrix(12,0,0,12,428.5,106.8)" />
<use xlink:href="#f0_25" transform="matrix(12,0,0,12,436.2,106.8)" />
<use xlink:href="#f0_2a" transform="matrix(12,0,0,12,440.6,106.8)" />
<use xlink:href="#f0_25" transform="matrix(12,0,0,12,449.1,106.8)" />
<use xlink:href="#f0_2a" transform="matrix(12,0,0,12,453.1,106.8)" />
<use xlink:href="#f0_23" transform="matrix(12,0,0,12,461.6,106.8)" />
<use xlink:href="#f0_q" transform="matrix(12,0,0,12,474.1,106.8)" />
<use xlink:href="#f0_k" transform="matrix(12,0,0,12,482.9,106.8)" />
<use xlink:href="#f0_23" transform="matrix(12,0,0,12,495,106.8)" />
<use xlink:href="#f0_2b" transform="matrix(12,0,0,12,507.5,106.8)" />
<use xlink:href="#f0_22" transform="matrix(12,0,0,12,516.7,106.8)" />
<use xlink:href="#f0_23" transform="matrix(12,0,0,12,525.1,106.8)" />
<use xlink:href="#f0_28" transform="matrix(12,0,0,12,533.9,106.8)" />
<use xlink:href="#f0_2l" transform="matrix(12,0,0,12,538,106.8)" />
<use xlink:href="#f0_1z" transform="matrix(12,0,0,12,546.1,106.8)" />
<use xlink:href="#f0_2b" transform="matrix(12,0,0,12,554.2,106.8)" />
<use xlink:href="#f0_2f" transform="matrix(12,0,0,12,563.3,106.8)" />
<use xlink:href="#f0_21" transform="matrix(12,0,0,12,569.9,106.8)" />
<use xlink:href="#f0_c" transform="matrix(12,0,0,12,581.3,106.8)" />
<use xlink:href="#f0_1d" transform="matrix(12,0,0,12,587.2,106.8)" />
<use xlink:href="#f0_2b" transform="matrix(12,0,0,12,603,106.8)" />
<use xlink:href="#f0_28" transform="matrix(12,0,0,12,612.2,106.8)" />
<use xlink:href="#f0_1x" transform="matrix(12,0,0,12,616.6,106.8)" />
<use xlink:href="#f0_2e" transform="matrix(12,0,0,12,624.3,106.8)" />
<use xlink:href="#f0_29" transform="matrix(12,0,0,12,633.5,106.8)" />
<use xlink:href="#f0_1x" transform="matrix(12,0,0,12,646.7,106.8)" />
<use xlink:href="#f0_2f" transform="matrix(12,0,0,12,654.8,106.8)" />
<use xlink:href="#f0_2f" transform="matrix(12,0,0,12,661.4,106.8)" />
<use xlink:href="#f0_x" transform="matrix(12,0,0,12,671.4,106.8)" />
<use xlink:href="#f0_l" transform="matrix(12,0,0,12,684.6,106.8)" />
<use xlink:href="#f0_s" transform="matrix(12,0,0,12,693.4,106.8)" />
<use xlink:href="#f0_k" transform="matrix(12,0,0,12,702.2,106.8)" />
<use xlink:href="#f0_23" transform="matrix(12,0,0,12,714.7,106.8)" />
<use xlink:href="#f0_29" transform="matrix(12,0,0,12,726.8,106.8)" />
<use xlink:href="#f0_2b" transform="matrix(12,0,0,12,740.4,106.8)" />
<use xlink:href="#f0_28" transform="matrix(12,0,0,12,749.6,106.8)" />
<use xlink:href="#f0_4y" transform="matrix(7,0,0,7,752.4,100.6)" />
<use xlink:href="#f0_l" transform="matrix(7,0,0,7,757.9,100.6)" />
<use xlink:href="#f0_d" transform="matrix(12,0,0,12,763,106.8)" />
<use xlink:href="#f0_25" transform="matrix(12,0,0,12,772.2,106.8)" />
<use xlink:href="#f0_2a" transform="matrix(12,0,0,12,776.3,106.8)" />
<use xlink:href="#f0_m" transform="matrix(12,0,0,12,788.1,106.8)" />
<use xlink:href="#f0_p" transform="matrix(12,0,0,12,796.9,106.8)" />
<use xlink:href="#f0_k" transform="matrix(12,0,0,12,805.7,106.8)" />
<use xlink:href="#f0_23" transform="matrix(12,0,0,12,817.8,106.8)" />
<use xlink:href="#f0_2b" transform="matrix(12,0,0,12,830.3,106.8)" />
<use xlink:href="#f0_22" transform="matrix(12,0,0,12,839.5,106.8)" />
<use xlink:href="#f0_2j" transform="matrix(12,0,0,12,117,131.4)" />
<use xlink:href="#f0_1x" transform="matrix(12,0,0,12,129.8,131.4)" />
<use xlink:href="#f0_2g" transform="matrix(12,0,0,12,137.5,131.4)" />
<use xlink:href="#f0_21" transform="matrix(12,0,0,12,142.3,131.4)" />
<use xlink:href="#f0_2e" transform="matrix(12,0,0,12,150,131.4)" />
<use xlink:href="#f0_i" transform="matrix(12,0,0,12,154.8,131.4)" />
<use xlink:href="#f0_c" transform="matrix(12,0,0,12,117,160.4)" />
<use xlink:href="#f1_1b" transform="matrix(12,0,0,12,123.2,160.4)" />
<use xlink:href="#f1_22" transform="matrix(7,0,0,7,135.3,166.6)" />
<use xlink:href="#f0_2b" transform="matrix(12,0,0,12,141.9,160.4)" />
<use xlink:href="#f0_22" transform="matrix(12,0,0,12,151.4,160.4)" />
<use xlink:href="#f0_2j" transform="matrix(12,0,0,12,161,160.4)" />
<use xlink:href="#f0_1x" transform="matrix(12,0,0,12,174.2,160.4)" />
<use xlink:href="#f0_2g" transform="matrix(12,0,0,12,182.3,160.4)" />
<use xlink:href="#f0_21" transform="matrix(12,0,0,12,187.8,160.4)" />
<use xlink:href="#f0_2e" transform="matrix(12,0,0,12,195.9,160.4)" />
<use xlink:href="#f0_x" transform="matrix(12,0,0,12,205.8,160.4)" />
<use xlink:href="#f0_l" transform="matrix(12,0,0,12,220.1,160.4)" />
<use xlink:href="#f0_i" transform="matrix(12,0,0,12,229.3,160.4)" />
<use xlink:href="#f0_s" transform="matrix(12,0,0,12,234.1,160.4)" />
<use xlink:href="#f0_q" transform="matrix(12,0,0,12,243.2,160.4)" />
<use xlink:href="#f0_1b" transform="matrix(12,0,0,12,256.1,160.4)" />
<use xlink:href="#f0_27" transform="matrix(12,0,0,12,273,160.4)" />
<use xlink:href="#f0_23" transform="matrix(12,0,0,12,282.2,160.4)" />
<use xlink:href="#f0_29" transform="matrix(12,0,0,12,295,160.4)" />
<use xlink:href="#f0_2b" transform="matrix(12,0,0,12,308.6,160.4)" />
<use xlink:href="#f0_28" transform="matrix(12,0,0,12,318.1,160.4)" />
<use xlink:href="#f0_4y" transform="matrix(7,0,0,7,322.3,154.1)" />
<use xlink:href="#f0_l" transform="matrix(7,0,0,7,327.8,154.1)" />
<use xlink:href="#f0_d" transform="matrix(12,0,0,12,332.9,160.4)" />
<use xlink:href="#f0_11" transform="matrix(12,0,0,12,64.9,189)" />
<use xlink:href="#f0_2a" transform="matrix(12,0,0,12,77.4,189)" />
<use xlink:href="#f0_2f" transform="matrix(12,0,0,12,85.8,189)" />
<use xlink:href="#f0_i" transform="matrix(12,0,0,12,92.4,189)" />
<use xlink:href="#f0_1n" transform="matrix(12,0,0,12,117,189)" />
<use xlink:href="#f0_21" transform="matrix(12,0,0,12,132.4,189)" />
<use xlink:href="#f0_27" transform="matrix(12,0,0,12,143.8,189)" />
<use xlink:href="#f0_2a" transform="matrix(12,0,0,12,152.9,189)" />
<use xlink:href="#f0_2b" transform="matrix(12,0,0,12,161.8,189)" />
<use xlink:href="#f0_2j" transform="matrix(12,0,0,12,171.3,189)" />
<use xlink:href="#f1_22" transform="matrix(6.8,0,0,6.8,142.3,227.5)" />
<use xlink:href="#f1_22" transform="matrix(6.8,0,0,6.8,179.3,227.5)" />
<use xlink:href="#f1_1k" transform="matrix(11.8,0,0,11.8,131.3,222.7)" />
<use xlink:href="#f1_27" transform="matrix(11.8,0,0,11.8,168.6,222.7)" />
<use xlink:href="#f1_29" transform="matrix(11.8,0,0,11.8,201.6,222.7)" />
<use xlink:href="#f2_14" transform="matrix(11.8,0,0,11.8,119.9,222.7)" />
<use xlink:href="#f2_x" transform="matrix(11.8,0,0,11.8,154,222.7)" />
<use xlink:href="#f2_3a" transform="matrix(11.8,0,0,11.8,188.8,222.7)" />
</g>
<path d="M151.8,270.1h87" class="g0_4" />
<g fill="#000000" >
<use xlink:href="#f0_l" transform="matrix(6.9,0,0,6.9,343.6,266.7)" />
<use xlink:href="#f0_q" transform="matrix(11.9,0,0,11.9,152.5,263)" />
<use xlink:href="#f0_k" transform="matrix(11.9,0,0,11.9,161.7,263)" />
<use xlink:href="#f0_j" transform="matrix(11.9,0,0,11.9,173.4,263)" />
<use xlink:href="#f0_l" transform="matrix(11.9,0,0,11.9,180,263)" />
<use xlink:href="#f0_s" transform="matrix(11.9,0,0,11.9,188.8,263)" />
<use xlink:href="#f0_k" transform="matrix(11.9,0,0,11.9,198,263)" />
<use xlink:href="#f0_l" transform="matrix(11.9,0,0,11.9,255.9,274.8)" />
<use xlink:href="#f0_i" transform="matrix(11.9,0,0,11.9,265.1,274.8)" />
<use xlink:href="#f0_n" transform="matrix(11.9,0,0,11.9,269.9,274.8)" />
<use xlink:href="#f0_n" transform="matrix(11.9,0,0,11.9,279,274.8)" />
<use xlink:href="#f0_k" transform="matrix(11.9,0,0,11.9,169,289.1)" />
<use xlink:href="#f0_i" transform="matrix(11.9,0,0,11.9,178.2,289.1)" />
<use xlink:href="#f0_m" transform="matrix(11.9,0,0,11.9,183,289.1)" />
<use xlink:href="#f0_p" transform="matrix(11.9,0,0,11.9,192.1,289.1)" />
<use xlink:href="#f1_29" transform="matrix(11.9,0,0,11.9,209.7,263)" />
<use xlink:href="#f1_2b" transform="matrix(11.9,0,0,11.9,222.9,263)" />
<use xlink:href="#f1_28" transform="matrix(11.9,0,0,11.9,232.1,263)" />
<use xlink:href="#f1_29" transform="matrix(11.9,0,0,11.9,119.9,274.8)" />
<use xlink:href="#f1_29" transform="matrix(11.9,0,0,11.9,287.8,274.8)" />
<use xlink:href="#f1_2b" transform="matrix(11.9,0,0,11.9,301,274.8)" />
<use xlink:href="#f1_28" transform="matrix(11.9,0,0,11.9,310.2,274.8)" />
<use xlink:href="#f1_27" transform="matrix(11.9,0,0,11.9,318.6,274.8)" />
<use xlink:href="#f1_23" transform="matrix(11.9,0,0,11.9,326.7,274.8)" />
<use xlink:href="#f1_27" transform="matrix(11.9,0,0,11.9,203.1,289.1)" />
<use xlink:href="#f1_23" transform="matrix(11.9,0,0,11.9,211.2,289.1)" />
<use xlink:href="#f2_h" transform="matrix(6.9,0,0,6.9,337.7,266.7)" />
<use xlink:href="#f2_x" transform="matrix(11.9,0,0,11.9,137.1,274.8)" />
<use xlink:href="#f2_x" transform="matrix(11.9,0,0,11.9,243.8,274.8)" />
<use xlink:href="#f0_l" transform="matrix(11.8,0,0,11.8,165.7,327.9)" />
<use xlink:href="#f0_i" transform="matrix(11.8,0,0,11.8,174.9,327.9)" />
<use xlink:href="#f0_s" transform="matrix(11.8,0,0,11.8,179.6,327.9)" />
<use xlink:href="#f0_q" transform="matrix(11.8,0,0,11.8,188.8,327.9)" />
<use xlink:href="#f0_l" transform="matrix(11.8,0,0,11.8,210.1,327.9)" />
<use xlink:href="#f0_i" transform="matrix(11.8,0,0,11.8,219.2,327.9)" />
<use xlink:href="#f0_n" transform="matrix(11.8,0,0,11.8,224,327.9)" />
<use xlink:href="#f0_n" transform="matrix(11.8,0,0,11.8,233.1,327.9)" />
<use xlink:href="#f1_22" transform="matrix(6.8,0,0,6.8,141.9,332.7)" />
<use xlink:href="#f1_1k" transform="matrix(11.8,0,0,11.8,130.9,327.9)" />
<use xlink:href="#f1_1b" transform="matrix(11.8,0,0,11.8,242.3,327.9)" />
<use xlink:href="#f2_14" transform="matrix(11.8,0,0,11.8,119.9,327.9)" />
<use xlink:href="#f2_x" transform="matrix(11.8,0,0,11.8,153.6,327.9)" />
<use xlink:href="#f2_3a" transform="matrix(11.8,0,0,11.8,199.4,327.9)" />
<use xlink:href="#f0_m" transform="matrix(11.8,0,0,11.8,189.9,366.8)" />
<use xlink:href="#f0_i" transform="matrix(11.8,0,0,11.8,199.1,366.8)" />
<use xlink:href="#f0_o" transform="matrix(11.8,0,0,11.8,203.5,366.8)" />
<use xlink:href="#f0_r" transform="matrix(11.8,0,0,11.8,212.7,366.8)" />
<use xlink:href="#f0_n" transform="matrix(11.8,0,0,11.8,221.8,366.8)" />
<use xlink:href="#f0_s" transform="matrix(11.8,0,0,11.8,231,366.8)" />
<use xlink:href="#f1_22" transform="matrix(6.8,0,0,6.8,163.9,371.6)" />
<use xlink:href="#f1_1k" transform="matrix(11.8,0,0,11.8,152.9,366.8)" />
<use xlink:href="#f1_1b" transform="matrix(11.8,0,0,11.8,240.9,366.8)" />
<use xlink:href="#f2_4g" transform="matrix(11.8,0,0,11.8,119.2,366.8)" />
<use xlink:href="#f2_14" transform="matrix(11.8,0,0,11.8,141.5,366.8)" />
<use xlink:href="#f2_x" transform="matrix(11.8,0,0,11.8,175.6,366.8)" />
<use xlink:href="#f0_m" transform="matrix(12.1,0,0,12.1,211.2,408.2)" />
<use xlink:href="#f0_i" transform="matrix(12.1,0,0,12.1,220,408.2)" />
<use xlink:href="#f0_o" transform="matrix(12.1,0,0,12.1,224.8,408.2)" />
<use xlink:href="#f0_r" transform="matrix(12.1,0,0,12.1,233.9,408.2)" />
<use xlink:href="#f0_n" transform="matrix(12.1,0,0,12.1,243.1,408.2)" />
<use xlink:href="#f0_s" transform="matrix(12.1,0,0,12.1,252.3,408.2)" />
<use xlink:href="#f1_22" transform="matrix(7,0,0,7,151.4,412.6)" />
<use xlink:href="#f1_22" transform="matrix(7,0,0,7,185.2,412.6)" />
<use xlink:href="#f1_1k" transform="matrix(12.1,0,0,12.1,140.4,408.2)" />
<use xlink:href="#f1_1k" transform="matrix(12.1,0,0,12.1,174.2,408.2)" />
<use xlink:href="#f1_1b" transform="matrix(12.1,0,0,12.1,261.8,408.2)" />
<use xlink:href="#f2_36" transform="matrix(7,0,0,7,152.9,399.8)" />
<use xlink:href="#f2_4g" transform="matrix(12.1,0,0,12.1,119.2,408.2)" />
<use xlink:href="#f2_h" transform="matrix(12.1,0,0,12.1,162.1,408.2)" />
<use xlink:href="#f2_x" transform="matrix(12.1,0,0,12.1,196.9,408.2)" />
<use xlink:href="#f0_m" transform="matrix(12.1,0,0,12.1,212.3,449.7)" />
<use xlink:href="#f0_i" transform="matrix(12.1,0,0,12.1,221.5,449.7)" />
<use xlink:href="#f0_o" transform="matrix(12.1,0,0,12.1,226.2,449.7)" />
<use xlink:href="#f0_r" transform="matrix(12.1,0,0,12.1,235.4,449.7)" />
<use xlink:href="#f0_n" transform="matrix(12.1,0,0,12.1,244.9,449.7)" />
<use xlink:href="#f0_s" transform="matrix(12.1,0,0,12.1,254.1,449.7)" />
<use xlink:href="#f1_22" transform="matrix(7,0,0,7,151.8,454.1)" />
<use xlink:href="#f1_22" transform="matrix(7,0,0,7,188.1,454.1)" />
<use xlink:href="#f1_1k" transform="matrix(12.1,0,0,12.1,140.8,449.7)" />
<use xlink:href="#f1_1k" transform="matrix(12.1,0,0,12.1,177.1,449.7)" />
<use xlink:href="#f1_1b" transform="matrix(12.1,0,0,12.1,264,449.7)" />
<use xlink:href="#f2_36" transform="matrix(7,0,0,7,189.9,441.2)" />
<use xlink:href="#f2_4g" transform="matrix(12.1,0,0,12.1,119.2,449.7)" />
<use xlink:href="#f2_x" transform="matrix(12.1,0,0,12.1,163.5,449.7)" />
<use xlink:href="#f2_h" transform="matrix(12.1,0,0,12.1,199.1,449.7)" />
<use xlink:href="#f3_x" transform="matrix(12.3,0,0,12.3,123.8,487.4)" />
<use xlink:href="#f0_m" transform="matrix(12.3,0,0,12.3,134.2,487.4)" />
<use xlink:href="#f0_r" transform="matrix(12.3,0,0,12.3,143.6,487.4)" />
<use xlink:href="#f0_n" transform="matrix(12.3,0,0,12.3,153.1,487.4)" />
<use xlink:href="#f3_h" transform="matrix(12.3,0,0,12.3,167.2,487.4)" />
<use xlink:href="#f0_m" transform="matrix(12.3,0,0,12.3,177.6,487.4)" />
<use xlink:href="#f0_i" transform="matrix(12.3,0,0,12.3,187,487.4)" />
<use xlink:href="#f0_o" transform="matrix(12.3,0,0,12.3,191.7,487.4)" />
<use xlink:href="#f0_r" transform="matrix(12.3,0,0,12.3,201.2,487.4)" />
<use xlink:href="#f0_n" transform="matrix(12.3,0,0,12.3,210.6,487.4)" />
<use xlink:href="#f0_s" transform="matrix(12.3,0,0,12.3,220,487.4)" />
<use xlink:href="#f1_1b" transform="matrix(12.3,0,0,12.3,229.4,487.4)" />
<use xlink:href="#f3_x" transform="matrix(12.3,0,0,12.3,120.2,516.7)" />
<use xlink:href="#f0_m" transform="matrix(12.3,0,0,12.3,130.5,516.7)" />
<use xlink:href="#f0_r" transform="matrix(12.3,0,0,12.3,140,516.7)" />
<use xlink:href="#f0_k" transform="matrix(12.3,0,0,12.3,149.4,516.7)" />
<use xlink:href="#f0_i" transform="matrix(12.3,0,0,12.3,158.8,516.7)" />
<use xlink:href="#f0_p" transform="matrix(12.3,0,0,12.3,163.5,516.7)" />
<use xlink:href="#f0_m" transform="matrix(12.3,0,0,12.3,173,516.7)" />
<use xlink:href="#f0_q" transform="matrix(12.3,0,0,12.3,182.4,516.7)" />
<use xlink:href="#f0_m" transform="matrix(12.3,0,0,12.3,191.8,516.7)" />
<use xlink:href="#f1_1b" transform="matrix(12.3,0,0,12.3,201.2,516.7)" />
<use xlink:href="#f0_l" transform="matrix(12,0,0,12,64.9,623.1)" />
<use xlink:href="#f0_l" transform="matrix(12,0,0,12,73,623.1)" />
<use xlink:href="#f0_i" transform="matrix(12,0,0,12,81.8,623.1)" />
<use xlink:href="#f0_11" transform="matrix(12,0,0,12,117,623.1)" />
<use xlink:href="#f0_2a" transform="matrix(12,0,0,12,129.4,623.1)" />
<use xlink:href="#f0_21" transform="matrix(12,0,0,12,141.2,623.1)" />
<use xlink:href="#f0_28" transform="matrix(12,0,0,12,148.9,623.1)" />
<use xlink:href="#f0_21" transform="matrix(12,0,0,12,153,623.1)" />
<use xlink:href="#f0_29" transform="matrix(12,0,0,12,160.7,623.1)" />
<use xlink:href="#f0_21" transform="matrix(12,0,0,12,174.3,623.1)" />
<use xlink:href="#f0_2a" transform="matrix(12,0,0,12,182,623.1)" />
<use xlink:href="#f0_2g" transform="matrix(12,0,0,12,190.4,623.1)" />
<use xlink:href="#f0_52" transform="matrix(12,0,0,12,198.9,623.1)" />
<use xlink:href="#f1_1o" transform="matrix(12,0,0,12,204.2,623.1)" />
<use xlink:href="#f0_53" transform="matrix(12,0,0,12,215.2,623.1)" />
<use xlink:href="#f0_c" transform="matrix(12,0,0,12,224.1,623.1)" />
<use xlink:href="#f0_11" transform="matrix(12,0,0,12,230,623.1)" />
<use xlink:href="#f0_2g" transform="matrix(12,0,0,12,242.4,623.1)" />
<use xlink:href="#f0_i" transform="matrix(12,0,0,12,247.6,623.1)" />
<use xlink:href="#f0_29" transform="matrix(12,0,0,12,255.3,623.1)" />
<use xlink:href="#f0_1x" transform="matrix(12,0,0,12,268.5,623.1)" />
<use xlink:href="#f0_2f" transform="matrix(12,0,0,12,276.2,623.1)" />
<use xlink:href="#f0_2f" transform="matrix(12,0,0,12,282.8,623.1)" />
<use xlink:href="#f0_x" transform="matrix(12,0,0,12,292.4,623.1)" />
<use xlink:href="#f0_o" transform="matrix(12,0,0,12,305.7,623.1)" />
<use xlink:href="#f0_k" transform="matrix(12,0,0,12,314.5,623.1)" />
<use xlink:href="#f0_23" transform="matrix(12,0,0,12,326.6,623.1)" />
<use xlink:href="#f0_29" transform="matrix(12,0,0,12,338.7,623.1)" />
<use xlink:href="#f0_2b" transform="matrix(12,0,0,12,352,623.1)" />
<use xlink:href="#f0_28" transform="matrix(12,0,0,12,361.1,623.1)" />
<use xlink:href="#f0_4y" transform="matrix(7,0,0,7,364.8,616.9)" />
<use xlink:href="#f0_l" transform="matrix(7,0,0,7,370,616.9)" />
<use xlink:href="#f0_d" transform="matrix(12,0,0,12,374.7,623.1)" />
<use xlink:href="#f0_24" transform="matrix(12,0,0,12,383.9,623.1)" />
<use xlink:href="#f0_1x" transform="matrix(12,0,0,12,392.4,623.1)" />
<use xlink:href="#f0_2i" transform="matrix(12,0,0,12,400.1,623.1)" />
<use xlink:href="#f0_25" transform="matrix(12,0,0,12,408.5,623.1)" />
<use xlink:href="#f0_2a" transform="matrix(12,0,0,12,412.6,623.1)" />
<use xlink:href="#f0_23" transform="matrix(12,0,0,12,421.1,623.1)" />
<use xlink:href="#f0_22" transform="matrix(12,0,0,12,432.8,623.1)" />
<use xlink:href="#f0_i" transform="matrix(12,0,0,12,438,623.1)" />
<use xlink:href="#f0_1z" transform="matrix(12,0,0,12,442.4,623.1)" />
<use xlink:href="#f0_i" transform="matrix(12,0,0,12,450.1,623.1)" />
<use xlink:href="#f0_1z" transform="matrix(12,0,0,12,454.5,623.1)" />
<use xlink:href="#f0_i" transform="matrix(12,0,0,12,462.2,623.1)" />
<use xlink:href="#f0_2f" transform="matrix(12,0,0,12,470,623.1)" />
<use xlink:href="#f0_2g" transform="matrix(12,0,0,12,476.6,623.1)" />
<use xlink:href="#f0_2e" transform="matrix(12,0,0,12,481.7,623.1)" />
<use xlink:href="#f0_2h" transform="matrix(12,0,0,12,487.6,623.1)" />
<use xlink:href="#f0_1z" transform="matrix(12,0,0,12,496.4,623.1)" />
<use xlink:href="#f0_2g" transform="matrix(12,0,0,12,504.1,623.1)" />
<use xlink:href="#f0_2h" transform="matrix(12,0,0,12,509.3,623.1)" />
<use xlink:href="#f0_2e" transform="matrix(12,0,0,12,518.1,623.1)" />
<use xlink:href="#f0_21" transform="matrix(12,0,0,12,524,623.1)" />
<use xlink:href="#f0_g" transform="matrix(12,0,0,12,531.7,623.1)" />
<use xlink:href="#f0_24" transform="matrix(12,0,0,12,539.4,623.1)" />
<use xlink:href="#f0_1x" transform="matrix(12,0,0,12,547.9,623.1)" />
<use xlink:href="#f0_2f" transform="matrix(12,0,0,12,555.6,623.1)" />
<use xlink:href="#f0_2h" transform="matrix(12,0,0,12,565.5,623.1)" />
<use xlink:href="#f0_2a" transform="matrix(12,0,0,12,574.3,623.1)" />
<use xlink:href="#f0_25" transform="matrix(12,0,0,12,582.8,623.1)" />
<use xlink:href="#f0_2g" transform="matrix(12,0,0,12,586.8,623.1)" />
<use xlink:href="#f0_1z" transform="matrix(12,0,0,12,594.9,623.1)" />
<use xlink:href="#f0_21" transform="matrix(12,0,0,12,602.6,623.1)" />
<use xlink:href="#f0_28" transform="matrix(12,0,0,12,610.4,623.1)" />
<use xlink:href="#f0_28" transform="matrix(12,0,0,12,614.4,623.1)" />
<use xlink:href="#f0_21" transform="matrix(12,0,0,12,621.8,623.1)" />
<use xlink:href="#f0_20" transform="matrix(12,0,0,12,629.5,623.1)" />
<use xlink:href="#f0_23" transform="matrix(12,0,0,12,638.3,623.1)" />
<use xlink:href="#f0_21" transform="matrix(12,0,0,12,647.1,623.1)" />
<use xlink:href="#f0_28" transform="matrix(12,0,0,12,658.2,623.1)" />
<use xlink:href="#f0_21" transform="matrix(12,0,0,12,662.2,623.1)" />
<use xlink:href="#f0_2a" transform="matrix(12,0,0,12,669.9,623.1)" />
<use xlink:href="#f0_23" transform="matrix(12,0,0,12,678.4,623.1)" />
<use xlink:href="#f0_2g" transform="matrix(12,0,0,12,687.2,623.1)" />
<use xlink:href="#f0_24" transform="matrix(12,0,0,12,692.3,623.1)" />
<use xlink:href="#f0_2b" transform="matrix(12,0,0,12,704.1,623.1)" />
<use xlink:href="#f0_22" transform="matrix(12,0,0,12,713.3,623.1)" />
<use xlink:href="#f0_o" transform="matrix(12,0,0,12,721.4,623.1)" />
<use xlink:href="#f0_k" transform="matrix(12,0,0,12,730.2,623.1)" />
<use xlink:href="#f0_k" transform="matrix(12,0,0,12,739,623.1)" />
<use xlink:href="#f0_2c" transform="matrix(12,0,0,12,751.1,623.1)" />
<use xlink:href="#f0_29" transform="matrix(12,0,0,12,759.9,623.1)" />
<use xlink:href="#f0_i" transform="matrix(12,0,0,12,773.2,623.1)" />
<use xlink:href="#f0_13" transform="matrix(12,0,0,12,780.9,623.1)" />
<use xlink:href="#f0_1x" transform="matrix(12,0,0,12,792.6,623.1)" />
<use xlink:href="#f0_28" transform="matrix(12,0,0,12,800.4,623.1)" />
<use xlink:href="#f0_1z" transform="matrix(12,0,0,12,804.4,623.1)" />
<use xlink:href="#f0_2h" transform="matrix(12,0,0,12,812.1,623.1)" />
<use xlink:href="#f0_28" transform="matrix(12,0,0,12,820.9,623.1)" />
<use xlink:href="#f0_1x" transform="matrix(12,0,0,12,825,623.1)" />
<use xlink:href="#f0_2g" transform="matrix(12,0,0,12,832.7,623.1)" />
<use xlink:href="#f0_21" transform="matrix(12,0,0,12,837.8,623.1)" />
<use xlink:href="#f0_2g" transform="matrix(12,0,0,12,117,647.7)" />
<use xlink:href="#f0_24" transform="matrix(12,0,0,12,122.5,647.7)" />
<use xlink:href="#f0_21" transform="matrix(12,0,0,12,131.3,647.7)" />
<use xlink:href="#f0_20" transform="matrix(12,0,0,12,142.7,647.7)" />
<use xlink:href="#f0_21" transform="matrix(12,0,0,12,151.8,647.7)" />
<use xlink:href="#f0_2a" transform="matrix(12,0,0,12,159.9,647.7)" />
<use xlink:href="#f0_2f" transform="matrix(12,0,0,12,168.7,647.7)" />
<use xlink:href="#f0_25" transform="matrix(12,0,0,12,175.4,647.7)" />
<use xlink:href="#f0_2g" transform="matrix(12,0,0,12,179.8,647.7)" />
<use xlink:href="#f0_2l" transform="matrix(12,0,0,12,185.3,647.7)" />
<use xlink:href="#f0_2b" transform="matrix(12,0,0,12,197.4,647.7)" />
<use xlink:href="#f0_22" transform="matrix(12,0,0,12,206.9,647.7)" />
<use xlink:href="#f0_52" transform="matrix(12,0,0,12,215.8,647.7)" />
<use xlink:href="#f1_1o" transform="matrix(12,0,0,12,221.5,647.7)" />
<use xlink:href="#f0_53" transform="matrix(12,0,0,12,232.8,647.7)" />
<use xlink:href="#f0_1x" transform="matrix(12,0,0,12,242.4,647.7)" />
<use xlink:href="#f0_2a" transform="matrix(12,0,0,12,250.1,647.7)" />
<use xlink:href="#f0_20" transform="matrix(12,0,0,12,258.9,647.7)" />
<use xlink:href="#f0_2g" transform="matrix(12,0,0,12,271.4,647.7)" />
<use xlink:href="#f0_24" transform="matrix(12,0,0,12,276.9,647.7)" />
<use xlink:href="#f0_21" transform="matrix(12,0,0,12,285.4,647.7)" />
<use xlink:href="#f0_2a" transform="matrix(12,0,0,12,297.1,647.7)" />
<use xlink:href="#f0_2h" transform="matrix(12,0,0,12,305.9,647.7)" />
<use xlink:href="#f0_29" transform="matrix(12,0,0,12,315.1,647.7)" />
<use xlink:href="#f0_1y" transform="matrix(12,0,0,12,328.7,647.7)" />
<use xlink:href="#f0_21" transform="matrix(12,0,0,12,337.1,647.7)" />
<use xlink:href="#f0_2e" transform="matrix(12,0,0,12,345.2,647.7)" />
<use xlink:href="#f0_2b" transform="matrix(12,0,0,12,355.1,647.7)" />
<use xlink:href="#f0_22" transform="matrix(12,0,0,12,364.7,647.7)" />
<use xlink:href="#f0_2h" transform="matrix(12,0,0,12,373.5,647.7)" />
<use xlink:href="#f0_2a" transform="matrix(12,0,0,12,382.7,647.7)" />
<use xlink:href="#f0_25" transform="matrix(12,0,0,12,391.5,647.7)" />
<use xlink:href="#f0_2g" transform="matrix(12,0,0,12,395.9,647.7)" />
<use xlink:href="#f0_1z" transform="matrix(12,0,0,12,404.4,647.7)" />
<use xlink:href="#f0_21" transform="matrix(12,0,0,12,412.4,647.7)" />
<use xlink:href="#f0_28" transform="matrix(12,0,0,12,420.5,647.7)" />
<use xlink:href="#f0_28" transform="matrix(12,0,0,12,424.9,647.7)" />
<use xlink:href="#f0_2f" transform="matrix(12,0,0,12,429,647.7)" />
<use xlink:href="#f0_25" transform="matrix(12,0,0,12,439.7,647.7)" />
<use xlink:href="#f0_2a" transform="matrix(12,0,0,12,444.1,647.7)" />
<use xlink:href="#f0_o" transform="matrix(12,0,0,12,456.6,647.7)" />
<use xlink:href="#f0_23" transform="matrix(12,0,0,12,469.1,647.7)" />
<use xlink:href="#f0_2b" transform="matrix(12,0,0,12,481.6,647.7)" />
<use xlink:href="#f0_22" transform="matrix(12,0,0,12,491.1,647.7)" />
<use xlink:href="#f0_52" transform="matrix(12,0,0,12,499.9,647.7)" />
<use xlink:href="#f1_1o" transform="matrix(12,0,0,12,505.3,647.7)" />
<use xlink:href="#f0_53" transform="matrix(12,0,0,12,516.6,647.7)" />
<use xlink:href="#f0_i" transform="matrix(12,0,0,12,522.5,647.7)" />
<use xlink:href="#f0_c" transform="matrix(12,0,0,12,530.6,647.7)" />
<use xlink:href="#f1_1e" transform="matrix(12,0,0,12,536.8,647.7)" />
<use xlink:href="#f1_11" transform="matrix(7,0,0,7,548.9,653.9)" />
<use xlink:href="#f0_x" transform="matrix(12,0,0,12,559.2,647.7)" />
<use xlink:href="#f0_q" transform="matrix(12,0,0,12,572.8,647.7)" />
<use xlink:href="#f0_i" transform="matrix(12,0,0,12,581.6,647.7)" />
<use xlink:href="#f0_k" transform="matrix(12,0,0,12,586.4,647.7)" />
<use xlink:href="#f0_m" transform="matrix(12,0,0,12,595.5,647.7)" />
<use xlink:href="#f0_m" transform="matrix(12,0,0,12,604.7,647.7)" />
<use xlink:href="#f0_6n" transform="matrix(12,0,0,12,617.5,647.7)" />
<use xlink:href="#f0_l" transform="matrix(12,0,0,12,631.1,647.7)" />
<use xlink:href="#f0_k" transform="matrix(12,0,0,12,640.3,647.7)" />
<use xlink:href="#f0_m" transform="matrix(7,0,0,7,649.4,641.4)" />
<use xlink:href="#f0_n" transform="matrix(7,0,0,7,654.5,641.4)" />
<use xlink:href="#f0_29" transform="matrix(12,0,0,12,661.1,647.7)" />
<use xlink:href="#f0_2b" transform="matrix(12,0,0,12,674.7,647.7)" />
<use xlink:href="#f0_28" transform="matrix(12,0,0,12,684.2,647.7)" />
<use xlink:href="#f0_4y" transform="matrix(7,0,0,7,688.6,641.4)" />
<use xlink:href="#f0_l" transform="matrix(7,0,0,7,694.1,641.4)" />
<use xlink:href="#f0_d" transform="matrix(12,0,0,12,702.2,647.7)" />
<use xlink:href="#f0_11" transform="matrix(12,0,0,12,64.9,676.3)" />
<use xlink:href="#f0_2a" transform="matrix(12,0,0,12,77.4,676.3)" />
<use xlink:href="#f0_2f" transform="matrix(12,0,0,12,85.8,676.3)" />
<use xlink:href="#f0_i" transform="matrix(12,0,0,12,92.4,676.3)" />
<use xlink:href="#f0_1n" transform="matrix(12,0,0,12,117,676.3)" />
<use xlink:href="#f0_21" transform="matrix(12,0,0,12,132.4,676.3)" />
<use xlink:href="#f0_27" transform="matrix(12,0,0,12,143.8,676.3)" />
<use xlink:href="#f0_2a" transform="matrix(12,0,0,12,152.9,676.3)" />
<use xlink:href="#f0_2b" transform="matrix(12,0,0,12,161.8,676.3)" />
<use xlink:href="#f0_2j" transform="matrix(12,0,0,12,171.3,676.3)" />
</g>
<path d="M149.5,718.6h56.1" class="g0_4" />
<g fill="#000000" >
<use xlink:href="#f0_n" transform="matrix(6.9,0,0,6.9,198,729.1)" />
<use xlink:href="#f1_11" transform="matrix(6.9,0,0,6.9,165.4,741.9)" />
</g>
<g clip-path="url(#c0_4)">
<g fill="#000000" >
<use xlink:href="#f1_1q" transform="matrix(11.9,0,0,11.9,155.5,711.5)" />
<use xlink:href="#f1_1d" transform="matrix(11.9,0,0,11.9,182.2,711.5)" />
</g>
</g>
<g fill="#000000" >
<use xlink:href="#f1_20" transform="matrix(11.9,0,0,11.9,119.9,723.2)" />
<use xlink:href="#f1_1e" transform="matrix(11.9,0,0,11.9,151.4,737.5)" />
<use xlink:href="#f1_1x" transform="matrix(11.9,0,0,11.9,188.1,737.5)" />
<use xlink:href="#f2_3a" transform="matrix(11.9,0,0,11.9,169.4,711.5)" />
<use xlink:href="#f2_x" transform="matrix(11.9,0,0,11.9,134.9,723.2)" />
<use xlink:href="#f2_3a" transform="matrix(11.9,0,0,11.9,175.6,737.5)" />
<use xlink:href="#f0_16" transform="matrix(12,0,0,12,117,770.1)" />
<use xlink:href="#f0_2b" transform="matrix(12,0,0,12,126.9,770.1)" />
<use xlink:href="#f0_2e" transform="matrix(12,0,0,12,136.4,770.1)" />
<use xlink:href="#f1_16" transform="matrix(12,0,0,12,147.4,770.1)" />
<use xlink:href="#f1_13" transform="matrix(12,0,0,12,158.4,770.1)" />
<use xlink:href="#f1_13" transform="matrix(12,0,0,12,170.5,770.1)" />
<use xlink:href="#f1_1q" transform="matrix(12,0,0,12,187.1,770.1)" />
<use xlink:href="#f0_25" transform="matrix(12,0,0,12,201.7,770.1)" />
<use xlink:href="#f0_2f" transform="matrix(12,0,0,12,206.1,770.1)" />
<use xlink:href="#f0_o" transform="matrix(12,0,0,12,217.9,770.1)" />
<use xlink:href="#f2_c" transform="matrix(11.8,0,0,18.7,248.6,838)" />
<use xlink:href="#f2_d" transform="matrix(11.8,0,0,18.7,334,838)" />
</g>
<path d="M149.5,812.3H347.8" class="g1_4" />
<g fill="#000000" >
<use xlink:href="#f0_n" transform="matrix(6.9,0,0,6.9,473,808.6)" />
<use xlink:href="#f0_n" transform="matrix(6.9,0,0,6.9,340.3,822.6)" />
<use xlink:href="#f0_m" transform="matrix(6.9,0,0,6.9,222.6,827.7)" />
<use xlink:href="#f0_n" transform="matrix(6.9,0,0,6.9,228.1,827.7)" />
<use xlink:href="#f0_l" transform="matrix(6.9,0,0,6.9,320.5,827.7)" />
<use xlink:href="#f0_k" transform="matrix(6.9,0,0,6.9,326,827.7)" />
<use xlink:href="#f0_o" transform="matrix(11.9,0,0,11.9,228.1,805.3)" />
<use xlink:href="#f0_o" transform="matrix(11.9,0,0,11.9,251.5,805.3)" />
<use xlink:href="#f0_k" transform="matrix(11.9,0,0,11.9,260.7,805.3)" />
<use xlink:href="#f0_o" transform="matrix(11.9,0,0,11.9,367,816.7)" />
<use xlink:href="#f0_i" transform="matrix(11.9,0,0,11.9,376.2,816.7)" />
<use xlink:href="#f0_l" transform="matrix(11.9,0,0,11.9,380.6,816.7)" />
<use xlink:href="#f0_p" transform="matrix(11.9,0,0,11.9,389.8,816.7)" />
<use xlink:href="#f0_l" transform="matrix(11.9,0,0,11.9,398.9,816.7)" />
<use xlink:href="#f0_o" transform="matrix(11.9,0,0,11.9,408.1,816.7)" />
<use xlink:href="#f0_q" transform="matrix(11.9,0,0,11.9,150.3,835.8)" />
<use xlink:href="#f0_i" transform="matrix(11.9,0,0,11.9,159.5,835.8)" />
<use xlink:href="#f0_k" transform="matrix(11.9,0,0,11.9,164.3,835.8)" />
<use xlink:href="#f0_m" transform="matrix(11.9,0,0,11.9,173.4,835.8)" />
<use xlink:href="#f0_m" transform="matrix(11.9,0,0,11.9,182.6,835.8)" />
<use xlink:href="#f0_l" transform="matrix(11.9,0,0,11.9,203.8,835.8)" />
<use xlink:href="#f0_k" transform="matrix(11.9,0,0,11.9,213,835.8)" />
<use xlink:href="#f0_o" transform="matrix(11.9,0,0,11.9,256.3,835.8)" />
<use xlink:href="#f0_k" transform="matrix(11.9,0,0,11.9,265.4,835.8)" />
<use xlink:href="#f0_k" transform="matrix(11.9,0,0,11.9,274.6,835.8)" />
<use xlink:href="#f0_l" transform="matrix(11.9,0,0,11.9,295.8,835.8)" />
<use xlink:href="#f0_k" transform="matrix(11.9,0,0,11.9,305,835.8)" />
<use xlink:href="#f1_20" transform="matrix(11.9,0,0,11.9,119.9,816.7)" />
<use xlink:href="#f1_23" transform="matrix(11.9,0,0,11.9,420.5,816.7)" />
<use xlink:href="#f1_29" transform="matrix(11.9,0,0,11.9,429.7,816.7)" />
<use xlink:href="#f1_1z" transform="matrix(11.9,0,0,11.9,445.1,816.7)" />
<use xlink:href="#f1_29" transform="matrix(11.9,0,0,11.9,453.2,816.7)" />
<use xlink:href="#f2_h" transform="matrix(6.9,0,0,6.9,467.1,808.6)" />
<use xlink:href="#f2_h" transform="matrix(6.9,0,0,6.9,315,827.7)" />
<use xlink:href="#f2_3a" transform="matrix(11.9,0,0,11.9,239.1,805.3)" />
<use xlink:href="#f2_x" transform="matrix(11.9,0,0,11.9,134.9,816.7)" />
<use xlink:href="#f2_x" transform="matrix(11.9,0,0,11.9,352.7,816.7)" />
<use xlink:href="#f2_3a" transform="matrix(11.9,0,0,11.9,193.2,835.8)" />
<use xlink:href="#f2_3a" transform="matrix(11.9,0,0,11.9,236.5,835.8)" />
<use xlink:href="#f2_3a" transform="matrix(11.9,0,0,11.9,285.3,835.8)" />
</g>
<path d="M273.9,888.6H326" class="g2_4" />
<g fill="#000000" >
<use xlink:href="#f0_n" transform="matrix(6.9,0,0,6.9,350.5,884.9)" />
<use xlink:href="#f0_n" transform="matrix(6.9,0,0,6.9,431.2,884.9)" />
<use xlink:href="#f0_o" transform="matrix(11.9,0,0,11.9,295.5,881.6)" />
<use xlink:href="#f0_1m" transform="matrix(11.9,0,0,11.9,119.9,893)" />
<use xlink:href="#f0_2b" transform="matrix(11.9,0,0,11.9,132.7,893)" />
<use xlink:href="#f0_28" transform="matrix(11.9,0,0,11.9,141.9,893)" />
<use xlink:href="#f0_2h" transform="matrix(11.9,0,0,11.9,147,893)" />
<use xlink:href="#f0_29" transform="matrix(11.9,0,0,11.9,156.2,893)" />
<use xlink:href="#f0_21" transform="matrix(11.9,0,0,11.9,170.1,893)" />
<use xlink:href="#f0_2b" transform="matrix(11.9,0,0,11.9,182.6,893)" />
<use xlink:href="#f0_22" transform="matrix(11.9,0,0,11.9,191.8,893)" />
<use xlink:href="#f0_o" transform="matrix(11.9,0,0,11.9,202.4,893)" />
<use xlink:href="#f0_25" transform="matrix(11.9,0,0,11.9,258.8,893)" />
<use xlink:href="#f0_2f" transform="matrix(11.9,0,0,11.9,264,893)" />
<use xlink:href="#f0_k" transform="matrix(11.9,0,0,11.9,375.4,893)" />
<use xlink:href="#f0_i" transform="matrix(11.9,0,0,11.9,384.6,893)" />
<use xlink:href="#f0_t" transform="matrix(11.9,0,0,11.9,389,893)" />
<use xlink:href="#f0_q" transform="matrix(11.9,0,0,11.9,398.1,893)" />
<use xlink:href="#f0_o" transform="matrix(11.9,0,0,11.9,275,907.3)" />
<use xlink:href="#f0_i" transform="matrix(11.9,0,0,11.9,284.2,907.3)" />
<use xlink:href="#f0_l" transform="matrix(11.9,0,0,11.9,288.9,907.3)" />
<use xlink:href="#f0_p" transform="matrix(11.9,0,0,11.9,298.1,907.3)" />
<use xlink:href="#f0_l" transform="matrix(11.9,0,0,11.9,307.2,907.3)" />
<use xlink:href="#f0_o" transform="matrix(11.9,0,0,11.9,316.4,907.3)" />
<use xlink:href="#f1_23" transform="matrix(11.9,0,0,11.9,211.6,893)" />
<use xlink:href="#f1_29" transform="matrix(11.9,0,0,11.9,220.7,893)" />
<use xlink:href="#f1_1o" transform="matrix(11.9,0,0,11.9,239.4,893)" />
<use xlink:href="#f1_1z" transform="matrix(11.9,0,0,11.9,328.9,893)" />
<use xlink:href="#f1_29" transform="matrix(11.9,0,0,11.9,336.9,893)" />
<use xlink:href="#f1_1z" transform="matrix(11.9,0,0,11.9,409.5,893)" />
<use xlink:href="#f1_29" transform="matrix(11.9,0,0,11.9,417.6,893)" />
<use xlink:href="#f2_x" transform="matrix(11.9,0,0,11.9,361.5,893)" />
<use xlink:href="#f2_c" transform="matrix(11.8,0,0,18.9,302.1,950.5)" />
</g>
<g clip-path="url(#c1_4)">
<g fill="#000000" >
<use xlink:href="#f2_d" transform="matrix(11.8,0,0,18.9,387.6,950.5)" />
</g>
</g>
<g fill="#000000" >
<use xlink:href="#f0_n" transform="matrix(6.9,0,0,6.9,393.8,934.8)" />
<use xlink:href="#f0_l" transform="matrix(6.9,0,0,6.9,374,939.9)" />
<use xlink:href="#f0_k" transform="matrix(6.9,0,0,6.9,379.5,939.9)" />
<use xlink:href="#f0_n" transform="matrix(6.9,0,0,6.9,424.6,939.9)" />
<use xlink:href="#f0_m" transform="matrix(6.9,0,0,6.9,504.5,939.9)" />
<use xlink:href="#f0_o" transform="matrix(6.9,0,0,6.9,510,939.9)" />
<use xlink:href="#f0_n" transform="matrix(6.9,0,0,6.9,539,939.9)" />
<use xlink:href="#f0_1m" transform="matrix(12,0,0,12,119.9,948.3)" />
<use xlink:href="#f0_2b" transform="matrix(12,0,0,12,133.1,948.3)" />
<use xlink:href="#f0_28" transform="matrix(12,0,0,12,142.3,948.3)" />
<use xlink:href="#f0_2h" transform="matrix(12,0,0,12,147.1,948.3)" />
<use xlink:href="#f0_29" transform="matrix(12,0,0,12,156.2,948.3)" />
<use xlink:href="#f0_21" transform="matrix(12,0,0,12,170.2,948.3)" />
<use xlink:href="#f0_2b" transform="matrix(12,0,0,12,182.7,948.3)" />
<use xlink:href="#f0_22" transform="matrix(12,0,0,12,191.8,948.3)" />
<use xlink:href="#f0_l" transform="matrix(12,0,0,12,202.5,948.3)" />
<use xlink:href="#f0_2h" transform="matrix(12,0,0,12,211.7,948.3)" />
<use xlink:href="#f0_2a" transform="matrix(12,0,0,12,220.8,948.3)" />
<use xlink:href="#f0_25" transform="matrix(12,0,0,12,230,948.3)" />
<use xlink:href="#f0_2g" transform="matrix(12,0,0,12,235.1,948.3)" />
<use xlink:href="#f0_1z" transform="matrix(12,0,0,12,245,948.3)" />
<use xlink:href="#f0_21" transform="matrix(12,0,0,12,253.1,948.3)" />
<use xlink:href="#f0_28" transform="matrix(12,0,0,12,261.2,948.3)" />
<use xlink:href="#f0_28" transform="matrix(12,0,0,12,266,948.3)" />
<use xlink:href="#f0_25" transform="matrix(12,0,0,12,275.5,948.3)" />
<use xlink:href="#f0_2f" transform="matrix(12,0,0,12,280.7,948.3)" />
<use xlink:href="#f0_o" transform="matrix(12,0,0,12,310,948.3)" />
<use xlink:href="#f0_k" transform="matrix(12,0,0,12,319.2,948.3)" />
<use xlink:href="#f0_k" transform="matrix(12,0,0,12,328.3,948.3)" />
<use xlink:href="#f0_l" transform="matrix(12,0,0,12,349.6,948.3)" />
<use xlink:href="#f0_k" transform="matrix(12,0,0,12,358.8,948.3)" />
<use xlink:href="#f0_q" transform="matrix(12,0,0,12,449.7,948.3)" />
<use xlink:href="#f0_o" transform="matrix(12,0,0,12,458.8,948.3)" />
<use xlink:href="#f0_l" transform="matrix(12,0,0,12,480.5,948.3)" />
<use xlink:href="#f0_k" transform="matrix(12,0,0,12,489.6,948.3)" />
<use xlink:href="#f1_1z" transform="matrix(12,0,0,12,403,948.3)" />
<use xlink:href="#f1_29" transform="matrix(12,0,0,12,411.1,948.3)" />
<use xlink:href="#f1_1z" transform="matrix(12,0,0,12,517.4,948.3)" />
<use xlink:href="#f1_29" transform="matrix(12,0,0,12,525.4,948.3)" />
<use xlink:href="#f2_h" transform="matrix(6.9,0,0,6.9,368.5,939.9)" />
<use xlink:href="#f2_h" transform="matrix(6.9,0,0,6.9,499,939.9)" />
<use xlink:href="#f2_x" transform="matrix(12,0,0,12,290,948.3)" />
<use xlink:href="#f2_3a" transform="matrix(12,0,0,12,338.8,948.3)" />
<use xlink:href="#f2_x" transform="matrix(12,0,0,12,435.6,948.3)" />
<use xlink:href="#f2_3a" transform="matrix(12,0,0,12,469.7,948.3)" />
</g>
<path d="M286.2,997.8h67.2" class="g2_4" />
<g fill="#000000" >
<use xlink:href="#f0_m" transform="matrix(6.9,0,0,6.9,424.2,994.2)" />
<use xlink:href="#f0_m" transform="matrix(6.9,0,0,6.9,429.7,994.2)" />
<use xlink:href="#f0_m" transform="matrix(6.9,0,0,6.9,340.3,1008.5)" />
<use xlink:href="#f0_o" transform="matrix(6.9,0,0,6.9,345.4,1008.5)" />
<use xlink:href="#f0_k" transform="matrix(11.9,0,0,11.9,304,990.9)" />
<use xlink:href="#f0_i" transform="matrix(11.9,0,0,11.9,313.1,990.9)" />
<use xlink:href="#f0_t" transform="matrix(11.9,0,0,11.9,317.5,990.9)" />
<use xlink:href="#f0_q" transform="matrix(11.9,0,0,11.9,326.7,990.9)" />
<use xlink:href="#f0_1e" transform="matrix(11.9,0,0,11.9,120.3,1002.2)" />
<use xlink:href="#f0_2h" transform="matrix(11.9,0,0,11.9,133.5,1002.2)" />
<use xlink:href="#f0_29" transform="matrix(11.9,0,0,11.9,142.6,1002.2)" />
<use xlink:href="#f0_1y" transform="matrix(11.9,0,0,11.9,156.6,1002.2)" />
<use xlink:href="#f0_21" transform="matrix(11.9,0,0,11.9,165.7,1002.2)" />
<use xlink:href="#f0_2e" transform="matrix(11.9,0,0,11.9,173.8,1002.2)" />
<use xlink:href="#f0_2b" transform="matrix(11.9,0,0,11.9,184.4,1002.2)" />
<use xlink:href="#f0_22" transform="matrix(11.9,0,0,11.9,193.6,1002.2)" />
<use xlink:href="#f0_2h" transform="matrix(11.9,0,0,11.9,204.2,1002.2)" />
<use xlink:href="#f0_2a" transform="matrix(11.9,0,0,11.9,213.4,1002.2)" />
<use xlink:href="#f0_25" transform="matrix(11.9,0,0,11.9,222.5,1002.2)" />
<use xlink:href="#f0_2g" transform="matrix(11.9,0,0,11.9,227.7,1002.2)" />
<use xlink:href="#f0_1z" transform="matrix(11.9,0,0,11.9,237.5,1002.2)" />
<use xlink:href="#f0_21" transform="matrix(11.9,0,0,11.9,245.6,1002.2)" />
<use xlink:href="#f0_28" transform="matrix(11.9,0,0,11.9,253.3,1002.2)" />
<use xlink:href="#f0_28" transform="matrix(11.9,0,0,11.9,258.4,1002.2)" />
<use xlink:href="#f0_x" transform="matrix(11.9,0,0,11.9,267.6,1002.2)" />
<use xlink:href="#f0_l" transform="matrix(11.9,0,0,11.9,370.6,1002.2)" />
<use xlink:href="#f0_i" transform="matrix(11.9,0,0,11.9,379.8,1002.2)" />
<use xlink:href="#f0_p" transform="matrix(11.9,0,0,11.9,384.2,1002.2)" />
<use xlink:href="#f0_l" transform="matrix(11.9,0,0,11.9,405.5,1002.2)" />
<use xlink:href="#f0_k" transform="matrix(11.9,0,0,11.9,414.6,1002.2)" />
<use xlink:href="#f0_q" transform="matrix(11.9,0,0,11.9,287.1,1016.5)" />
<use xlink:href="#f0_o" transform="matrix(11.9,0,0,11.9,296.3,1016.5)" />
<use xlink:href="#f0_6n" transform="matrix(11.9,0,0,11.9,305.4,1016.5)" />
<use xlink:href="#f0_l" transform="matrix(11.9,0,0,11.9,315.7,1016.5)" />
<use xlink:href="#f0_k" transform="matrix(11.9,0,0,11.9,324.8,1016.5)" />
<use xlink:href="#f2_h" transform="matrix(6.9,0,0,6.9,334.4,1008.5)" />
<use xlink:href="#f2_x" transform="matrix(11.9,0,0,11.9,358.2,1002.2)" />
<use xlink:href="#f2_3a" transform="matrix(11.9,0,0,11.9,394.9,1002.2)" />
<use xlink:href="#f4_o" transform="matrix(8,0,0,8,792.2,1264.2)" />
</g>
<defs>
<path d="M197,0V27c0,0,71,2,92,13c0,0,21,10,29,29c0,0,9,18,9,109V725c0,0,0,110,-8,141c0,0,-5,24,-19,35c0,0,-14,11,-33,11c0,0,-28,0,-77,-23l-11,23l246,121h25V178c0,0,0,-85,7,-106c0,0,7,-21,29,-32c0,0,23,-11,91,-13V0Z" 
id="f0_l"
transform="scale(0.001,-0.001)" />

<path d="M379,29c0,0,41,0,84,37c0,0,43,36,65,121c0,0,34,128,34,362c0,0,0,173,-35,288c0,0,-27,86,-69,122c0,0,-31,25,-74,25c0,0,-51,0,-90,-46c0,0,-54,-62,-73,-195c0,0,-20,-132,-20,-261c0,0,0,-209,52,-341c0,0,42,-112,126,-112Zm-2,-46c0,0,-145,0,-241,170c0,0,-81,144,-81,347c0,0,0,173,52,298c0,0,52,125,139,186c0,0,67,49,139,49c0,0,116,0,208,-119c0,0,116,-147,116,-398c0,0,0,-176,-51,-299C658,217,608,94,529,38c0,0,-79,-55,-152,-55Z" 
id="f0_k"
transform="scale(0.001,-0.001)" />

<path d="M191,-20c0,0,-34,0,-58,24c0,0,-24,24,-24,58c0,0,0,35,24,59c0,0,24,24,58,24c0,0,35,0,59,-24c0,0,24,-25,24,-59c0,0,0,-34,-24,-58c0,0,-25,-24,-59,-24Z" 
id="f0_i"
transform="scale(0.001,-0.001)" />

<path d="M548,-21c0,0,-251,0,-389,185C159,164,56,303,56,490c0,0,0,152,68,278c0,0,67,127,186,197c0,0,119,69,260,69c0,0,109,0,216,-53c0,0,31,-17,44,-17c0,0,20,0,35,14c0,0,20,21,28,56h26L943,690H919c0,0,-46,155,-131,224c0,0,-86,68,-206,68c0,0,-100,0,-181,-51c0,0,-81,-52,-128,-163c0,0,-46,-112,-46,-279c0,0,0,-137,44,-238c0,0,44,-101,132,-154c0,0,88,-54,201,-54c0,0,99,0,174,42c0,0,75,42,165,167l23,-14C966,238,890,103,789,40c0,0,-102,-61,-241,-61Z" 
id="f0_13"
transform="scale(0.001,-0.001)" />

<path d="M286,72c0,0,57,0,149,75V407c0,0,-113,-45,-145,-64c0,0,-59,-32,-85,-68c0,0,-25,-36,-25,-78c0,0,0,-54,32,-89c0,0,32,-36,74,-36ZM217,-13c0,0,-71,0,-116,48c0,0,-46,48,-46,127c0,0,0,50,22,87c0,0,31,50,106,95c0,0,76,45,252,109v26c0,0,0,102,-32,140c0,0,-32,38,-94,38c0,0,-47,0,-74,-25c0,0,-28,-25,-28,-58l1,-43c0,0,0,-34,-17,-53c0,0,-18,-18,-47,-18c0,0,-28,0,-45,19c0,0,-18,19,-18,53c0,0,0,64,66,117c0,0,65,54,184,54c0,0,91,0,149,-31c0,0,44,-23,65,-72c0,0,13,-32,13,-131V238c0,0,0,-98,4,-120c0,0,4,-22,12,-29c0,0,9,-8,20,-8c0,0,12,0,21,5c0,0,16,10,61,55V99C676,99,592,-12,516,-12c0,0,-37,0,-58,24c0,0,-22,26,-23,86C435,98,330,17,303,5c0,0,-40,-18,-86,-18Z" 
id="f0_1x"
transform="scale(0.001,-0.001)" />

<path d="M58,0V26c0,0,47,0,64,10c0,0,18,10,28,32c0,0,9,23,9,86V775c0,0,0,116,-5,142c0,0,-5,27,-17,37c0,0,-11,9,-29,9c0,0,-20,0,-49,-12L46,978l204,83h34V154c0,0,0,-64,9,-85c0,0,9,-21,29,-32c0,0,19,-11,72,-11V0Z" 
id="f0_28"
transform="scale(0.001,-0.001)" />

<path d="M342,-20c0,0,-116,0,-203,97c0,0,-86,98,-86,264c0,0,0,161,96,261c0,0,95,101,230,101c0,0,100,0,165,-53c0,0,65,-54,65,-111c0,0,0,-29,-18,-46c0,0,-18,-18,-51,-18c0,0,-44,0,-66,29c0,0,-13,15,-17,59c0,0,-4,45,-30,68c0,0,-26,22,-73,22c0,0,-74,0,-120,-55c0,0,-60,-73,-60,-193c0,0,0,-122,60,-216c0,0,60,-93,162,-93c0,0,73,0,131,49c0,0,41,35,80,126l22,-10C629,261,601,125,521,52c0,0,-81,-72,-179,-72Z" 
id="f0_1z"
transform="scale(0.001,-0.001)" />

<path d="M292,-20c0,0,-57,0,-100,33c0,0,-42,33,-58,85c0,0,-17,52,-17,148V551c0,0,0,49,-10,68c0,0,-11,18,-31,29c0,0,-19,9,-68,9c-2,0,-4,0,-6,0v26H242V226c0,0,0,-95,33,-125c0,0,33,-30,80,-30c0,0,32,0,73,21c0,0,40,20,96,76V555c0,0,0,59,-21,80c0,0,-22,21,-89,22v26H647V269c0,0,0,-119,6,-145c0,0,6,-27,18,-37c0,0,12,-11,29,-11c0,0,23,0,52,13L763,63L558,-20H524V124C524,124,436,29,390,4c0,0,-47,-24,-98,-24Z" 
id="f0_2h"
transform="scale(0.001,-0.001)" />

<path d="M255,-10c0,0,-35,0,-68,18c0,0,-32,19,-48,55c0,0,-16,35,-16,109V632H15v24c0,0,41,16,84,56c0,0,43,39,77,92c0,0,17,29,48,104h23V683H407V632H247V188c0,0,0,-66,19,-90c0,0,19,-23,49,-23c0,0,24,0,47,16c0,0,23,15,36,45h29c0,0,-26,-73,-74,-110c0,0,-47,-36,-98,-36Z" 
id="f0_2g"
transform="scale(0.001,-0.001)" />

<path d="M479,469c0,0,-4,66,-16,93c0,0,-18,42,-55,65c0,0,-37,24,-78,24c0,0,-62,0,-111,-48c0,0,-48,-48,-57,-134ZM355,-20c0,0,-123,0,-211,95c0,0,-87,96,-87,258c0,0,0,175,90,273c0,0,89,98,225,98c0,0,115,0,189,-76c0,0,74,-75,74,-202H162c0,0,0,-152,74,-239c0,0,75,-86,175,-86c0,0,67,0,117,36c0,0,50,37,83,127l24,-15c0,0,-16,-102,-91,-186c0,0,-76,-83,-189,-83Z" 
id="f0_21"
transform="scale(0.001,-0.001)" />

<path d="M20,0V26c0,0,45,0,71,15c0,0,15,7,24,28c0,0,9,21,9,85V773c0,0,0,117,-5,144c0,0,-6,27,-17,37c0,0,-12,9,-31,9c0,0,-16,0,-51,-12L10,978l204,83h34V561c0,0,83,91,131,116c0,0,49,26,97,26c0,0,58,0,100,-32c0,0,42,-32,62,-101c0,0,14,-47,14,-174V154c0,0,0,-65,11,-89c0,0,7,-18,25,-28c0,0,18,-11,66,-11V0H418V26h15c0,0,48,0,67,15c0,0,18,15,26,43c0,0,2,12,2,70V396c0,0,0,112,-12,147c0,0,-11,35,-36,53c0,0,-26,17,-61,17c0,0,-37,0,-76,-19c0,0,-40,-20,-95,-79V154c0,0,0,-70,8,-87c0,0,8,-17,29,-29c0,0,22,-12,74,-12V0Z" 
id="f0_24"
transform="scale(0.001,-0.001)" />

<path d="M63,0V26H93c0,0,30,0,54,15c0,0,25,15,34,41c0,0,10,25,10,99V630H58v53H191v45c0,0,0,102,33,173c0,0,32,71,100,114c0,0,68,44,152,44c0,0,79,0,145,-51c0,0,43,-33,43,-75c0,0,0,-22,-19,-42c0,0,-20,-20,-42,-20c0,0,-17,0,-36,12c0,0,-19,13,-47,53c0,0,-28,41,-51,55c0,0,-23,14,-51,14c0,0,-35,0,-58,-18c0,0,-24,-18,-35,-57c0,0,-10,-38,-10,-197V683H491V630H315V181c0,0,0,-96,21,-122c0,0,27,-33,73,-33h62V0Z" 
id="f0_22"
transform="scale(0.001,-0.001)" />

<path d="M17,0V26c0,0,52,0,77,17c0,0,19,12,26,38c0,0,4,13,4,73V419c0,0,0,119,-5,142c0,0,-4,23,-17,33c0,0,-13,11,-33,11c0,0,-23,0,-52,-11l-7,26l207,83h31V549c0,0,86,154,176,154c0,0,41,0,68,-25c0,0,27,-25,27,-58c0,0,0,-29,-20,-49c0,0,-19,-20,-46,-20c0,0,-26,0,-58,25c0,0,-33,26,-48,26c0,0,-14,0,-29,-15c0,0,-34,-30,-70,-101V159c0,0,0,-56,15,-85c0,0,9,-20,34,-34c0,0,24,-14,71,-14V0Z" 
id="f0_2e"
transform="scale(0.001,-0.001)" />

<path d="M30,0V27L485,632H260c0,0,-72,0,-94,-10c0,0,-22,-9,-36,-35c0,0,-20,-37,-23,-92H76l5,188H654V656L196,51H445c0,0,79,0,106,13c0,0,28,13,45,46c0,0,12,23,21,100h25L634,0Z" 
id="f0_2m"
transform="scale(0.001,-0.001)" />

<path d="M55,0V26c0,0,50,0,67,10c0,0,17,10,27,32c0,0,10,23,10,86V418c0,0,0,111,-6,144c0,0,-6,24,-17,33c0,0,-11,10,-30,10c0,0,-21,0,-51,-11L45,620l206,83h33V154c0,0,0,-64,9,-85c0,0,9,-22,27,-32c0,0,19,-11,67,-11V0ZM222,909c0,0,-32,0,-54,23c0,0,-22,22,-22,53c0,0,0,32,22,54c0,0,22,22,54,22c0,0,31,0,53,-22c0,0,22,-22,22,-54c0,0,0,-31,-22,-53c0,0,-22,-23,-53,-23Z" 
id="f0_25"
transform="scale(0.001,-0.001)" />

<path d="M21,0V26H35c0,0,53,0,71,27c0,0,18,27,18,101V408c0,0,0,123,-5,150c0,0,-6,27,-17,37c0,0,-12,10,-31,10c0,0,-21,0,-50,-11L10,620l206,83h32V558c0,0,120,145,229,145c0,0,56,0,96,-28c0,0,40,-28,64,-92c0,0,16,-45,16,-137V154c0,0,0,-65,11,-88c0,0,8,-19,26,-29c0,0,18,-11,68,-11V0H419V26h14c0,0,47,0,66,15c0,0,20,15,27,43c0,0,3,11,3,70V434c0,0,0,93,-24,135c0,0,-24,42,-81,42c0,0,-88,0,-176,-97V154c0,0,0,-69,9,-86c0,0,10,-21,28,-31c0,0,19,-11,75,-11V0Z" 
id="f0_2a"
transform="scale(0.001,-0.001)" />

<path d="M411,-239c0,0,134,0,198,48c0,0,64,47,64,100c0,0,0,39,-38,55c0,0,-39,16,-154,19c0,0,-167,5,-258,17c0,0,-35,-37,-53,-70c0,0,-17,-32,-17,-60c0,0,0,-36,43,-62c0,0,74,-47,215,-47ZM380,257c0,0,56,0,93,43c0,0,36,42,36,133c0,0,0,118,-51,185c0,0,-38,49,-98,49c0,0,-55,0,-92,-44c0,0,-37,-44,-37,-135c0,0,0,-117,50,-182c0,0,39,-49,99,-49ZM345,-328c0,0,-144,0,-243,64c0,0,-56,38,-56,78c0,0,0,18,8,36c0,0,13,27,52,76c0,0,5,7,76,80c0,0,-39,23,-55,41c0,0,-16,19,-16,42c0,0,0,26,22,61c0,0,21,35,98,100c0,0,-63,30,-97,85c0,0,-33,55,-33,121c0,0,0,101,76,174c0,0,77,73,196,73c0,0,98,0,170,-48H688c0,0,32,0,37,-2c0,0,6,-2,8,-6c0,0,4,-7,4,-24c0,0,0,-20,-4,-27c0,0,-2,-4,-7,-6c0,0,-6,-2,-38,-2H599c0,0,41,-54,41,-137c0,0,0,-96,-73,-163c0,0,-73,-68,-196,-68c0,0,-51,0,-104,15c0,0,-33,-28,-44,-49c0,0,-12,-22,-12,-37c0,0,0,-12,13,-24c0,0,12,-12,48,-17c0,0,21,-4,104,-6c0,0,154,-4,199,-11c0,0,70,-10,111,-51c0,0,42,-41,42,-102c0,0,0,-84,-79,-158c0,0,-117,-108,-304,-108Z" 
id="f0_23"
transform="scale(0.001,-0.001)" />

<path d="M398,24c0,0,74,0,120,58c0,0,61,76,61,214c0,0,0,156,-69,240c0,0,-47,59,-113,59c0,0,-36,0,-71,-18c0,0,-27,-14,-88,-81V242c0,0,0,-83,6,-109c0,0,11,-43,51,-76c0,0,41,-33,103,-33ZM-4,-326v27H15c5,0,42,0,69,16c0,0,14,8,22,26c0,0,7,19,7,94V481c0,0,0,67,-6,85c0,0,-5,18,-18,27c0,0,-13,9,-36,9c0,0,-18,0,-45,-10L0,615l209,85h29V540c0,0,53,91,106,127c0,0,53,36,112,36c0,0,103,0,172,-80c0,0,84,-99,84,-257c0,0,0,-176,-102,-292c0,0,-83,-94,-210,-94c0,0,-55,0,-95,16c0,0,-30,10,-67,44V-167c0,0,0,-71,8,-90c0,0,9,-20,30,-31c0,0,21,-11,77,-11v-27Z" 
id="f0_2c"
transform="scale(0.001,-0.001)" />

<path d="M406,32c0,0,72,0,119,60c0,0,47,59,47,205c0,0,0,181,-78,286c0,0,-53,71,-135,71c0,0,-40,0,-79,-23c0,0,-40,-24,-65,-83c0,0,-24,-58,-24,-151c0,0,0,-149,59,-257c0,0,59,-108,156,-108ZM374,-20c0,0,-154,0,-245,122c0,0,-77,104,-77,233c0,0,0,94,46,187c0,0,47,92,123,137c0,0,76,44,161,44c0,0,155,0,249,-118c0,0,80,-100,80,-231c0,0,0,-91,-44,-185C667,169,623,75,546,27c0,0,-77,-47,-172,-47Z" 
id="f0_2b"
transform="scale(0.001,-0.001)" />

<path d="M312,-20c0,0,-62,0,-143,22c0,0,-25,8,-40,8c0,0,-18,0,-27,-19H77V234h25c0,0,21,-105,80,-158c0,0,59,-53,132,-53c0,0,51,0,84,31c0,0,32,30,32,72c0,0,0,52,-36,87c0,0,-36,35,-144,88c0,0,-109,54,-142,97c0,0,-34,43,-34,107c0,0,0,85,58,141c0,0,58,57,150,57c0,0,40,0,97,-17c0,0,38,-11,51,-11c0,0,12,0,19,5c0,0,7,5,15,23h25V470H464c0,0,-28,110,-72,149c0,0,-45,40,-113,40c0,0,-53,0,-85,-28c0,0,-32,-27,-32,-61c0,0,0,-41,24,-71c0,0,23,-31,94,-65L389,381c0,0,152,-74,152,-194c0,0,0,-94,-71,-151c0,0,-70,-56,-158,-56Z" 
id="f0_2f"
transform="scale(0.001,-0.001)" />

<path d="M405,24c0,0,65,0,116,62c0,0,51,61,51,174c0,0,0,128,-50,221c0,0,-51,93,-144,93c0,0,-29,0,-61,-12c0,0,-33,-12,-96,-51c0,0,-14,-101,-14,-163c0,0,0,-72,27,-155c0,0,26,-84,79,-134c0,0,38,-35,92,-35ZM384,-17c0,0,-104,0,-177,68C207,51,66,185,66,397c0,0,0,136,54,258c0,0,54,122,156,217c0,0,101,95,193,128c0,0,93,33,172,33h44v-28c0,0,-99,-10,-161,-39c0,0,-62,-29,-123,-90c0,0,-61,-60,-101,-135c0,0,-39,-74,-66,-176c0,0,107,73,215,73c0,0,104,0,180,-83c0,0,76,-84,76,-215c0,0,0,-126,-77,-231c0,0,-92,-126,-244,-126Z" 
id="f0_q"
transform="scale(0.001,-0.001)" />

<path d="M145,-328c0,0,-44,0,-73,25c0,0,-28,25,-28,58c0,0,0,31,21,50c0,0,20,19,56,19c0,0,25,0,67,-16c0,0,30,-11,38,-11c0,0,22,0,49,23c0,0,26,23,53,89L376,28L131,542c0,0,-11,24,-36,58c0,0,-19,27,-30,36c0,0,-18,12,-56,21v26H328V657H312c0,0,-33,0,-50,-15c0,0,-17,-14,-17,-36c0,0,0,-30,25,-81L437,179L589,557c0,0,12,31,12,62c0,0,0,13,-5,20c0,0,-6,8,-19,13c0,0,-12,5,-44,5v26H754V657c0,0,-27,-3,-42,-12c0,0,-15,-9,-33,-34c0,0,-7,-10,-25,-58L376,-128c0,0,-40,-99,-105,-150c0,0,-66,-50,-126,-50Z" 
id="f0_2l"
transform="scale(0.001,-0.001)" />

<path d="M474,-326c0,0,-112,57,-188,133c0,0,-107,108,-165,254c0,0,-58,147,-58,305c0,0,0,231,114,421c0,0,114,191,297,273v-31c0,0,-92,-51,-151,-139c0,0,-59,-88,-88,-223c0,0,-30,-135,-30,-281c0,0,0,-160,25,-290c0,0,20,-102,47,-164c0,0,28,-62,75,-120c0,0,47,-57,122,-109v-29Z" 
id="f0_c"
transform="scale(0.001,-0.001)" />

<path d="M25,0V27H61c0,0,64,0,91,39c0,0,16,24,16,109V837c0,0,0,67,-15,97c0,0,-10,22,-38,36c0,0,-28,15,-90,15v27H312L678,220l363,792h285V985h-35c0,0,-64,0,-91,-39c0,0,-17,-24,-17,-109V175c0,0,0,-93,21,-116c0,0,28,-32,87,-32h35V0H898V27h36c0,0,64,0,90,39c0,0,17,24,17,109V852L649,0H625L234,852V175c0,0,0,-93,20,-116c0,0,27,-32,87,-32h35V0Z" 
id="f0_1d"
transform="scale(0.001,-0.001)" />

<path d="M23,0V26c0,0,47,0,66,10c0,0,19,11,28,33c0,0,10,22,10,85V416c0,0,0,112,-7,145c0,0,-5,25,-16,34c0,0,-11,10,-31,10c0,0,-21,0,-50,-11L12,620l207,83h32V557c0,0,75,75,88,86c0,0,34,29,72,44c0,0,39,16,77,16c0,0,64,0,110,-37c0,0,47,-38,62,-109c0,0,77,90,130,118c0,0,53,28,109,28c0,0,54,0,96,-28c0,0,42,-28,67,-91c0,0,16,-43,16,-136V154c0,0,0,-64,10,-88c0,0,8,-16,28,-28c0,0,20,-12,65,-12V0H844V26h14c0,0,44,0,69,18c0,0,17,12,24,38c0,0,3,13,3,72V448c0,0,0,83,-20,117c0,0,-29,48,-93,48c0,0,-39,0,-79,-20c0,0,-40,-19,-97,-73l-1,-8l2,-32V154c0,0,0,-70,8,-87c0,0,7,-17,29,-29c0,0,21,-12,73,-12V0H431V26c0,0,57,0,78,14c0,0,21,13,29,40c0,0,4,13,4,74V448c0,0,0,83,-25,120c0,0,-33,48,-91,48c0,0,-40,0,-80,-22c0,0,-61,-33,-95,-74V154c0,0,0,-67,10,-87c0,0,9,-20,27,-30c0,0,18,-11,74,-11V0Z" 
id="f0_29"
transform="scale(0.001,-0.001)" />

<path d="M27,354v62H831V354Zm0,243v62H831V597Z" 
id="f0_x"
transform="scale(0.001,-0.001)" />

<path d="M394,23c0,0,80,0,129,45c0,0,48,45,48,110c0,0,0,54,-28,97c0,0,-53,79,-214,206c0,0,-62,-52,-92,-114c0,0,-30,-61,-30,-133c0,0,0,-96,53,-154c0,0,52,-57,134,-57Zm17,566c0,0,90,81,114,128c0,0,24,46,24,105c0,0,0,79,-44,123c0,0,-44,45,-121,45c0,0,-76,0,-124,-45c0,0,-48,-44,-48,-103c0,0,0,-38,20,-77c0,0,20,-39,56,-74L411,589ZM382,-17c0,0,-144,0,-225,90c0,0,-64,72,-64,158c0,0,0,67,45,133c0,0,45,66,156,146c0,0,-121,98,-156,158c0,0,-34,59,-34,124c0,0,0,98,76,169c0,0,76,72,202,72c0,0,123,0,198,-67c0,0,74,-66,74,-151c0,0,0,-57,-40,-116c0,0,-40,-59,-168,-139c0,0,132,-101,174,-159c0,0,57,-76,57,-161c0,0,0,-106,-82,-182c0,0,-81,-75,-213,-75Z" 
id="f0_s"
transform="scale(0.001,-0.001)" />

<path d="M-12,338v55H777V338Z" 
id="f0_4y"
transform="scale(0.001,-0.001)" />

<path d="M35,-326v29c0,0,92,51,151,139c0,0,60,87,89,221c0,0,28,136,28,282c0,0,0,159,-24,290c0,0,-19,103,-47,165c0,0,-28,62,-75,119c0,0,-46,57,-122,110v31c0,0,113,-56,188,-132c0,0,107,-109,165,-255c0,0,58,-147,58,-306c0,0,0,-231,-114,-420c0,0,-113,-191,-297,-273Z" 
id="f0_d"
transform="scale(0.001,-0.001)" />

<path d="M33,0V27c0,0,264,241,371,393c0,0,108,152,108,278c0,0,0,96,-59,158c0,0,-59,62,-141,62c0,0,-75,0,-134,-43c0,0,-59,-44,-88,-128H63c0,0,18,138,95,212c0,0,77,74,193,74c0,0,123,0,205,-80c0,0,83,-79,83,-186c0,0,0,-77,-36,-154c0,0,-55,-121,-179,-256C424,357,238,154,191,112H455c0,0,81,0,114,6c0,0,32,6,58,25c0,0,27,18,46,52h27L630,0Z" 
id="f0_m"
transform="scale(0.001,-0.001)" />

<path d="M247,-17c0,0,-91,0,-132,30c0,0,-42,31,-42,68c0,0,0,21,17,37c0,0,18,16,44,17c0,0,19,0,34,-6c0,0,14,-7,49,-31c0,0,56,-39,113,-39c0,0,88,0,154,66c0,0,66,66,66,161c0,0,0,92,-59,171c0,0,-59,80,-163,123c0,0,-81,34,-221,39l194,393H663L605,885H301L234,750c0,0,198,-29,313,-147c0,0,100,-102,100,-239c0,0,0,-80,-33,-148c0,0,-32,-68,-81,-116c0,0,-50,-47,-110,-77c0,0,-86,-40,-176,-40Z" 
id="f0_p"
transform="scale(0.001,-0.001)" />

<path d="M336,-20L117,554c0,0,-21,55,-42,74c0,0,-21,19,-66,29v26H296V657c0,0,-40,-3,-52,-14c0,0,-13,-12,-13,-33c0,0,0,-23,13,-56L390,162L537,481L498,581c0,0,-18,46,-47,63c0,0,-17,11,-61,13v26H716V657c0,0,-54,-2,-77,-20c0,0,-15,-12,-15,-39c0,0,0,-15,6,-30L785,177L929,554c0,0,15,40,15,65c0,0,0,14,-15,25c0,0,-14,12,-57,13v26h216V657c0,0,-65,-10,-95,-89L764,-20H733L563,415L363,-20Z" 
id="f0_2j"
transform="scale(0.001,-0.001)" />

<path d="M-40,0l10,26c0,0,57,2,77,11c0,0,30,13,44,34c0,0,20,31,48,128L313,811c0,0,20,71,20,113c0,0,0,30,-19,46c0,0,-19,16,-74,16H225l9,26H614l-8,-26h-1c-9,0,-48,-1,-69,-11c0,0,-32,-16,-47,-40c0,0,-15,-25,-44,-124L369,549L729,821c0,0,72,54,94,86c0,0,14,20,14,36c0,0,0,13,-14,26c0,0,-14,13,-42,17l7,26h325l-7,-26c0,0,-53,-9,-89,-24c0,0,-36,-15,-74,-41c0,0,-11,-7,-146,-112L485,573L738,188c0,0,67,-104,111,-133c0,0,44,-29,116,-29L956,0H524l7,26c0,0,52,6,73,25c0,0,21,20,21,44c0,0,0,23,-7,44c0,0,-6,15,-44,74L367,533L267,185c0,0,-25,-75,-25,-100c0,0,0,-26,21,-40c0,0,21,-14,103,-19L354,0Z" 
id="f1_1b"
transform="scale(0.001,-0.001)" />

<path d="M-162,-328c0,0,-45,0,-77,26c0,0,-23,19,-23,49c0,0,0,23,19,41c0,0,19,17,47,17c0,0,20,0,34,-12c0,0,13,-13,13,-29c0,0,0,-17,-15,-31c0,0,-12,-10,-12,-16c0,0,0,-6,5,-10c0,0,7,-5,21,-5c0,0,32,0,67,20c0,0,36,20,63,60c0,0,27,40,52,115c0,0,10,32,58,205L233,608H89l10,49c0,0,69,0,96,9c0,0,28,8,50,32c0,0,23,25,55,91c0,0,42,90,81,139c0,0,53,66,112,100c0,0,58,33,110,33c0,0,54,0,88,-29c0,0,33,-28,33,-62c0,0,0,-26,-18,-44c0,0,-17,-18,-44,-18c0,0,-23,0,-37,14c0,0,-15,13,-15,32c0,0,0,12,10,29c0,0,10,18,10,24c0,0,0,10,-6,15c0,0,-9,8,-27,8c0,0,-43,0,-77,-31c0,0,-46,-41,-83,-127c0,0,-18,-45,-74,-215H473L460,608H350L260,279C260,279,201,65,145,-51c0,0,-79,-166,-169,-229c0,0,-69,-48,-138,-48Z" 
id="f1_22"
transform="scale(0.001,-0.001)" />

<path d="M25,0V27H61c0,0,63,0,91,37c0,0,18,24,18,115V833c0,0,0,77,-10,102c0,0,-7,18,-30,32c0,0,-33,18,-69,18H25v27H456V985H421c0,0,-35,0,-67,-18c0,0,-23,-11,-32,-35c0,0,-9,-24,-9,-99V523c0,0,15,15,102,95c0,0,222,203,268,271c0,0,20,30,20,52c0,0,0,18,-15,31c0,0,-16,13,-53,13H611v27H983V985c0,0,-33,-1,-60,-9c0,0,-26,-9,-65,-32c0,0,-39,-24,-96,-76c0,0,-16,-15,-151,-153L456,561L829,190c0,0,92,-92,157,-125c0,0,65,-33,130,-38V0H634V27c0,0,43,0,62,15c0,0,19,15,19,32c0,0,0,18,-7,33c0,0,-7,14,-46,53L313,506V179c0,0,0,-77,10,-102c0,0,7,-18,31,-32c0,0,32,-18,67,-18h35V0Z" 
id="f0_1b"
transform="scale(0.001,-0.001)" />

<path d="M13,0V26c0,0,52,0,78,13c0,0,16,8,24,25c0,0,11,25,11,86V773c0,0,0,118,-5,145c0,0,-5,26,-17,36c0,0,-12,10,-32,10c0,0,-15,0,-47,-13L13,978l203,83h34V381L424,540c0,0,55,50,64,64c0,0,6,9,6,18c0,0,0,15,-12,26c0,0,-13,11,-41,12v23H738V660c0,0,-61,-2,-102,-19c0,0,-40,-17,-89,-62L372,418L547,196c0,0,73,-92,98,-117c0,0,36,-35,63,-45c0,0,18,-8,65,-8V0H441V26c0,0,28,1,38,9c0,0,10,8,10,22c0,0,0,17,-29,56L250,381V154c0,0,0,-67,10,-88c0,0,9,-21,26,-30c0,0,17,-9,75,-10V0Z" 
id="f0_27"
transform="scale(0.001,-0.001)" />

<path d="M678,393L506,802L330,393ZM11,0V27c0,0,63,12,82,30c0,0,38,35,84,145l356,832h27L912,193c0,0,43,-101,77,-132c0,0,35,-30,97,-34V0H687V27c0,0,60,3,82,21c0,0,21,17,21,41c0,0,0,33,-30,104L700,338H307L239,179c0,0,-26,-59,-26,-88c0,0,0,-23,22,-41c0,0,22,-17,95,-23V0Z" 
id="f0_11"
transform="scale(0.001,-0.001)" />

<path d="M474,-21L174,817c0,0,-34,94,-42,112c0,0,-15,28,-41,42c0,0,-26,14,-70,14v27H395V985H377c0,0,-40,0,-60,-18c0,0,-21,-18,-21,-44c0,0,0,-26,33,-120L528,235L696,718l-30,85l-24,68c0,0,-16,37,-35,66c0,0,-10,14,-24,24c0,0,-19,13,-38,19c0,0,-14,5,-44,5v27H894V985H867c0,0,-41,0,-61,-18c0,0,-19,-18,-19,-49c0,0,0,-38,33,-133L1015,235l193,557c0,0,32,93,32,129c0,0,0,17,-10,32c0,0,-11,15,-28,21c0,0,-28,11,-74,11v27h302V985c0,0,-39,0,-64,-15c0,0,-25,-14,-47,-53c0,0,-15,-26,-47,-124L990,-21H960L729,624L501,-21Z" 
id="f0_1n"
transform="scale(0.001,-0.001)" />

<path d="M108,0l8,26h19c0,0,58,0,90,19c0,0,21,13,39,46c0,0,17,34,49,142L517,951H461c0,0,-88,0,-143,-22c0,0,-54,-22,-87,-65c0,0,-33,-42,-54,-121H149l71,269H988L905,743H877c0,0,14,59,14,105c0,0,0,55,-33,82c0,0,-24,21,-127,21H646L446,238c0,0,-38,-123,-38,-151c0,0,0,-27,24,-44c0,0,24,-17,84,-17h35L542,0Z" 
id="f1_1k"
transform="scale(0.001,-0.001)" />

<path d="M457,-17c0,0,-31,0,-48,24c0,0,-30,44,-99,346L206,264L131,0H15L258,852l21,72c0,0,4,19,4,33c0,0,0,17,-14,29c0,0,-13,12,-38,12c0,0,-16,0,-52,-7l-5,26l258,44L224,328l85,73c0,0,140,117,183,173c0,0,13,19,13,29c0,0,0,6,-4,12c0,0,-5,6,-18,10c0,0,-13,4,-46,4H411l8,28H745l-7,-28c0,0,-56,-3,-97,-18c0,0,-40,-14,-79,-43c0,0,-75,-56,-98,-77L399,434c0,0,16,-54,40,-150c0,0,40,-159,54,-189c0,0,14,-29,29,-29c0,0,13,0,30,12c0,0,39,28,83,90l26,-18C661,150,580,47,536,15c0,0,-43,-32,-79,-32Z" 
id="f1_27"
transform="scale(0.001,-0.001)" />

<path d="M839,-17c0,0,-25,0,-42,17c0,0,-17,18,-17,44c0,0,0,36,35,144l78,239c0,0,26,83,28,92c0,0,3,14,3,27c0,0,0,19,-9,29c0,0,-10,11,-22,11c0,0,-34,0,-71,-32c0,0,-111,-95,-208,-266C614,288,551,176,495,0H382L517,451c0,0,22,73,22,97c0,0,0,20,-8,30c0,0,-9,10,-21,10c0,0,-25,0,-53,-18c0,0,-46,-29,-118,-125c0,0,-72,-95,-112,-182c0,0,-19,-41,-91,-263H26L165,483l17,63c0,0,6,14,6,21c0,0,0,17,-15,30c0,0,-15,13,-38,13c0,0,-10,0,-54,-9l-7,27l256,47L234,338c0,0,67,119,113,178c0,0,73,93,141,135c0,0,41,24,85,24c0,0,38,0,63,-25c0,0,25,-24,25,-62c0,0,0,-36,-18,-95L587,305c0,0,129,227,244,319c0,0,64,51,126,51c0,0,36,0,60,-26c0,0,23,-25,23,-78c0,0,0,-43,-15,-91L933,192c0,0,-31,-94,-31,-104c0,0,0,-10,6,-17c0,0,4,-5,11,-5c0,0,7,0,23,13c0,0,38,33,71,87l24,-16c0,0,-17,-30,-62,-81C975,69,929,18,898,0c0,0,-32,-17,-59,-17Z" 
id="f1_29"
transform="scale(0.001,-0.001)" />

<path d="M719,62L422,783L93,62ZM0,0L469,1034L896,0Z" 
id="f2_14"
transform="scale(0.001,-0.001)" />

<path d="M0,214v74H784V214ZM0,494v72H784V494Z" 
id="f2_x"
transform="scale(0.001,-0.001)" />

<path d="M52,62L0,114L278,390L0,667l52,52L330,442L608,719l51,-51L382,390L659,114L608,62L330,338L52,62Z" 
id="f2_3a"
transform="scale(0.001,-0.001)" />

<path d="M2,-20L369,1061h59L62,-20Z" 
id="f0_j"
transform="scale(0.001,-0.001)" />

<path d="M238,-17c0,0,-103,0,-139,25C99,8,62,33,62,62c0,0,0,22,17,38c0,0,18,16,42,16c0,0,19,0,38,-6c0,0,13,-3,58,-27c0,0,45,-23,62,-28c0,0,27,-8,59,-8c0,0,76,0,132,59c0,0,56,59,56,140c0,0,0,59,-26,115c0,0,-19,41,-42,63c0,0,-32,30,-88,54c0,0,-56,25,-114,25H232v22c0,0,59,8,118,42c0,0,59,35,86,85c0,0,27,49,27,108c0,0,0,76,-48,124c0,0,-48,47,-120,47c0,0,-116,0,-193,-124L77,819c0,0,44,102,110,158c0,0,66,56,164,56c0,0,122,0,187,-80c0,0,49,-58,49,-126c0,0,0,-110,-139,-228c0,0,93,-36,141,-104c0,0,48,-68,48,-160c0,0,0,-131,-84,-227C553,108,444,-17,238,-17Z" 
id="f0_n"
transform="scale(0.001,-0.001)" />

<path d="M293,20c0,0,105,0,197,156c0,0,92,156,92,317c0,0,0,69,-34,106c0,0,-33,37,-87,37c0,0,-110,0,-202,-157c0,0,-92,-157,-92,-312c0,0,0,-71,36,-109c0,0,36,-38,90,-38ZM276,-17c0,0,-102,0,-167,65c0,0,-64,65,-64,168c0,0,0,110,63,220c0,0,63,111,168,175c0,0,106,64,204,64c0,0,99,0,162,-65c0,0,64,-65,64,-169c0,0,0,-111,-59,-221C647,220,588,111,482,46c0,0,-106,-63,-206,-63Z" 
id="f1_2b"
transform="scale(0.001,-0.001)" />

<path d="M122,-17c0,0,-27,0,-45,19C77,2,59,21,59,46c0,0,0,27,25,111L291,859c0,0,25,86,25,98c0,0,0,18,-14,30c0,0,-14,12,-44,12c0,0,-18,0,-53,-6v27l257,42L200,170c0,0,-19,-67,-19,-82c0,0,0,-11,6,-18c0,0,7,-8,16,-8c0,0,13,0,28,13c0,0,35,31,73,98l22,-23C326,150,259,50,202,11c0,0,-42,-28,-80,-28Z" 
id="f1_28"
transform="scale(0.001,-0.001)" />

<path d="M290,-283c0,0,107,0,183,37c0,0,76,36,76,93c0,0,0,29,-28,55c0,0,-28,27,-109,43c0,0,-44,9,-232,55c0,0,-60,-27,-91,-70c0,0,-31,-43,-31,-85c0,0,0,-49,44,-81c0,0,65,-47,188,-47Zm53,531c0,0,39,0,76,22c0,0,37,22,63,60c0,0,25,38,40,96c0,0,15,59,15,85c0,0,0,60,-33,94c0,0,-33,34,-87,34c0,0,-85,0,-139,-84c0,0,-55,-85,-55,-176c0,0,0,-58,35,-94c0,0,35,-37,85,-37ZM269,-328c0,0,-92,0,-168,21c0,0,-76,22,-108,60c0,0,-33,37,-33,76c0,0,0,32,21,67c0,0,21,35,53,57c0,0,20,14,114,66c0,0,-35,27,-35,59c0,0,0,30,31,63c0,0,30,34,127,74c0,0,-82,16,-130,69c0,0,-48,53,-48,118c0,0,0,106,93,189c0,0,93,84,247,84c0,0,56,0,92,-11c0,0,36,-12,70,-35H796L774,551H650c0,0,14,-40,14,-75c0,0,0,-99,-84,-176c0,0,-84,-77,-231,-85c0,0,-79,-24,-118,-57c0,0,-15,-12,-15,-25c0,0,0,-14,13,-27c0,0,14,-12,68,-25L442,48c0,0,120,-28,159,-66c0,0,38,-39,38,-91c0,0,0,-61,-46,-111c0,0,-45,-51,-132,-80c0,0,-87,-28,-192,-28Z" 
id="f1_23"
transform="scale(0.001,-0.001)" />

<path d="M0,356v74H784V356Z" 
id="f2_h"
transform="scale(0.001,-0.001)" />

<path d="M452,373V875L97,373ZM452,0V267H23v95l470,671h82V373H711V267H575V0Z" 
id="f0_o"
transform="scale(0.001,-0.001)" />

<path d="M275,-20L578,891H299c0,0,-84,0,-120,-20c0,0,-63,-35,-101,-106l-21,8l97,239H696V983L359,-20Z" 
id="f0_r"
transform="scale(0.001,-0.001)" />

<path d="M945,-20c0,0,47,75,125,153H57v74H1147l108,91c0,0,23,19,95,72c0,0,-134,103,-203,166H57v72H1070c0,0,-78,78,-125,154h85c0,0,88,-107,217,-217c0,0,130,-110,206,-154V349c0,0,-101,-58,-219,-162c0,0,-118,-103,-204,-207Z" 
id="f2_4g"
transform="scale(0.001,-0.001)" />

<path d="M230,639c0,0,69,0,118,48c0,0,48,49,48,118c0,0,0,69,-48,118c0,0,-49,49,-118,49c0,0,-69,0,-118,-49c0,0,-48,-49,-48,-118c0,0,0,-69,48,-118c0,0,49,-48,118,-48Zm1,-64c0,0,-96,0,-163,67C68,642,1,709,1,804c0,0,0,95,67,162c0,0,67,68,163,68c0,0,94,0,161,-68c0,0,68,-67,68,-162c0,0,0,-95,-68,-162c0,0,-67,-67,-161,-67Z" 
id="f2_36"
transform="scale(0.001,-0.001)" />

<path d="M0,214v74H784V214ZM0,494v72H784V494Z" 
id="f3_x"
transform="scale(0.001,-0.001)" />

<path d="M0,356v74H784V356Z" 
id="f3_h"
transform="scale(0.001,-0.001)" />

<path d="M268,648c0,0,-51,0,-91,43c0,0,-39,42,-39,105c0,0,0,88,66,160c0,0,44,48,127,78v-32c0,0,-77,-46,-104,-85c0,0,-21,-30,-21,-69c0,0,0,-24,9,-35c0,0,9,-11,20,-11c0,0,7,0,21,5c0,0,20,7,33,7c0,0,30,0,53,-23c0,0,24,-22,24,-56c0,0,0,-38,-23,-58c0,0,-33,-29,-75,-29Z" 
id="f0_52"
transform="scale(0.001,-0.001)" />

<path d="M-102,0l8,27c0,0,64,6,103,29c0,0,59,36,163,140L467,492L386,784c0,0,-37,135,-64,166c0,0,-27,31,-95,36l7,26H596l-9,-26c0,0,-50,0,-67,-7c0,0,-18,-6,-27,-19c0,0,-9,-14,-9,-30c0,0,0,-18,18,-84L571,596L729,755c0,0,94,94,129,151c0,0,13,20,13,36c0,0,0,18,-15,28c0,0,-20,13,-75,16l8,26h343l-8,-26c0,0,-73,-11,-127,-44c0,0,-54,-34,-147,-134L588,541L662,269c0,0,10,-39,38,-120c0,0,18,-53,36,-75c0,0,17,-22,45,-34c0,0,27,-11,82,-14L855,0H458l8,26c0,0,61,3,88,24c0,0,20,15,20,39c0,0,0,21,-19,92L483,436L247,196c0,0,-69,-71,-83,-94c0,0,-8,-13,-8,-26c0,0,0,-23,22,-37c0,0,11,-6,64,-13L234,0Z" 
id="f1_1o"
transform="scale(0.001,-0.001)" />

<path d="M177,647v35c0,0,77,46,105,86c0,0,19,28,19,68c0,0,0,23,-8,34c0,0,-9,11,-19,11c0,0,-9,0,-22,-5c0,0,-19,-7,-32,-7c0,0,-30,0,-53,23c0,0,-23,22,-23,56c0,0,0,37,23,58c0,0,31,28,75,28c0,0,50,0,90,-42c0,0,40,-42,40,-105c0,0,0,-88,-67,-160c0,0,-44,-48,-128,-80Z" 
id="f0_53"
transform="scale(0.001,-0.001)" />

<path d="M376,-20L133,556c0,0,-17,41,-31,58c0,0,-15,18,-39,30c0,0,-12,7,-50,13v26H335V657H314c0,0,-29,0,-44,-14c0,0,-16,-14,-15,-38c0,0,-1,-26,15,-62L429,165L588,557c0,0,17,42,17,64c0,0,0,10,-6,17c0,0,-8,11,-21,15c0,0,-13,4,-52,4v26H750V657c0,0,-39,-3,-54,-16c0,0,-26,-23,-47,-76L409,-20Z" 
id="f0_2i"
transform="scale(0.001,-0.001)" />

<path d="M82,-253v33c0,0,77,25,119,78c0,0,42,54,42,114c0,0,0,14,-7,23c0,0,-5,6,-11,6c0,0,-8,0,-35,-14c0,0,-14,-7,-28,-7c0,0,-37,0,-58,21C104,1,82,23,82,61c0,0,0,36,28,62c0,0,28,27,68,27c0,0,49,0,88,-43c0,0,38,-43,38,-113c0,0,0,-77,-53,-143c0,0,-53,-66,-169,-104Z" 
id="f0_g"
transform="scale(0.001,-0.001)" />

<path d="M399,62c0,0,68,0,131,68V481c0,0,-5,51,-27,93c0,0,-22,42,-59,63c0,0,-37,21,-72,21c0,0,-65,0,-117,-59c0,0,-67,-77,-67,-226c0,0,0,-151,65,-231c0,0,66,-80,146,-80ZM330,-20c0,0,-112,0,-196,93c0,0,-83,94,-83,240c0,0,0,147,92,269c0,0,93,122,238,122c0,0,90,0,149,-58V773c0,0,0,117,-6,144c0,0,-5,27,-17,37c0,0,-12,9,-30,9c0,0,-20,0,-52,-12l-9,27l204,83h33V270c0,0,0,-120,6,-146c0,0,5,-27,18,-37c0,0,12,-11,28,-11c0,0,21,0,54,13l9,-26L564,-20H530V78C530,78,480,25,432,2c0,0,-47,-22,-102,-22Z" 
id="f0_20"
transform="scale(0.001,-0.001)" />

<path d="M397,34c0,0,67,0,126,75c0,0,58,74,58,216c0,0,0,131,-58,201c0,0,-59,70,-133,70c0,0,-39,0,-79,-20c0,0,-29,-14,-75,-59V109c0,0,37,-37,78,-56c0,0,40,-19,83,-19ZM358,-20c0,0,-59,0,-121,21c0,0,-61,22,-126,65V773c0,0,0,117,-5,144c0,0,-6,27,-18,37c0,0,-12,9,-29,9c0,0,-21,0,-53,-12l-9,27l205,83h34V564c0,0,98,139,213,139c0,0,105,0,183,-90c0,0,78,-90,78,-245c0,0,0,-182,-121,-293c0,0,-103,-95,-231,-95Z" 
id="f0_1y"
transform="scale(0.001,-0.001)" />

<path d="M714,-21L378,830L198,200c0,0,-20,-72,-20,-111c0,0,0,-28,19,-43c0,0,18,-14,86,-20L276,0H-46l11,26c0,0,59,2,79,10c0,0,30,12,45,32c0,0,22,31,49,117L342,903c0,0,-29,46,-62,63c0,0,-33,17,-104,20l9,26H438L746,229L913,813c0,0,21,73,21,113c0,0,0,28,-19,43c0,0,-19,16,-72,16c0,0,-9,0,-19,1l8,26h325l-9,-26c0,0,-1,0,-2,0c-9,0,-51,-1,-73,-11c0,0,-35,-16,-52,-40c0,0,-24,-35,-49,-123L733,-21Z" 
id="f1_1e"
transform="scale(0.001,-0.001)" />

<path d="M600,387l39,398L345,387ZM-74,0l8,26c0,0,55,3,97,37c0,0,42,35,125,149l605,822h26L710,193c0,0,-6,-59,-6,-78c0,0,0,-30,11,-46c0,0,14,-22,39,-32c0,0,24,-11,81,-11L827,0H429l8,26h17c0,0,49,0,79,21c0,0,22,15,34,48c0,0,8,23,15,109l13,128H305L202,193c0,0,-35,-47,-44,-68c0,0,-9,-20,-9,-38c0,0,0,-25,20,-42c0,0,19,-17,64,-19L225,0Z" 
id="f1_11"
transform="scale(0.001,-0.001)" />

<path d="M693,201L428,466L166,203l-44,41L386,509L122,772l45,42L429,552L692,816l43,-43L471,510L736,245L693,201Z" 
id="f0_6n"
transform="scale(0.001,-0.001)" />

<path d="M-2,0V22L748,957H538c0,0,-137,0,-193,-12c0,0,-56,-12,-96,-50c0,0,-40,-38,-67,-114H155l76,231H933V984L182,49H299c0,0,190,0,268,19c0,0,78,18,129,65c0,0,52,46,87,131h29L724,0Z" 
id="f1_1q"
transform="scale(0.001,-0.001)" />

<path d="M2,0l8,26H31c0,0,73,0,106,35c0,0,24,24,50,107L403,923c0,0,-25,33,-47,44c0,0,-22,12,-83,19l8,26H536L637,193l595,819h239V986c0,0,-80,-6,-94,-12c0,0,-25,-11,-46,-43c0,0,-20,-32,-44,-124L1102,165c0,0,-16,-50,-16,-79c0,0,0,-27,20,-40c0,0,28,-20,89,-20h18L1206,0H787l7,26h20c0,0,57,0,87,17c0,0,23,12,41,45c0,0,18,34,51,148l166,587L564,0H533L431,823L254,197c0,0,-23,-80,-23,-108c0,0,0,-28,20,-43c0,0,20,-14,97,-20L340,0Z" 
id="f1_1d"
transform="scale(0.001,-0.001)" />

<path d="M252,70c0,0,90,0,212,168c0,0,123,168,123,294c0,0,0,47,-30,76c0,0,-30,30,-77,30c0,0,-103,0,-214,-156C266,482,155,327,155,185c0,0,0,-56,28,-85c0,0,29,-30,69,-30ZM185,-17c0,0,-63,0,-109,50C76,33,29,83,29,169c0,0,0,111,77,237c0,0,77,126,203,205c0,0,99,64,182,64c0,0,44,0,75,-17c0,0,32,-16,62,-54l71,247c0,0,11,40,18,64c0,0,9,31,9,50c0,0,0,16,-11,27c0,0,-16,13,-40,13c0,0,-17,0,-57,-6v27l255,42L615,170c0,0,-21,-73,-21,-95c0,0,0,-7,4,-13c0,0,4,-6,8,-6c0,0,7,0,16,9c0,0,16,16,56,88l25,-16c0,0,-43,-73,-88,-114c0,0,-44,-40,-83,-40c0,0,-20,0,-35,17c0,0,-16,18,-16,51c0,0,0,42,22,114l29,94C532,259,413,91,315,27c0,0,-68,-44,-130,-44Z" 
id="f1_20"
transform="scale(0.001,-0.001)" />

<path d="M251,69c0,0,93,0,201,118c0,0,131,157,126,322c0,0,0,62,-26,90c0,0,-27,28,-74,28c0,0,-52,0,-110,-44c0,0,-83,-62,-148,-185c0,0,-64,-122,-64,-221c0,0,0,-50,28,-79c0,0,29,-29,67,-29ZM183,-17c0,0,-60,0,-103,44C80,27,36,71,36,149c0,0,0,117,77,247c0,0,77,130,195,208c0,0,92,62,174,62c0,0,49,0,82,-22c0,0,32,-22,49,-73l24,77l115,18L609,160L593,92c0,0,-2,-10,-2,-17c0,0,0,-10,5,-19c0,0,4,-6,11,-6c0,0,6,0,17,11c0,0,21,20,55,88l25,-18c0,0,-43,-75,-89,-112c0,0,-45,-36,-84,-36c0,0,-27,0,-42,16c0,0,-15,15,-15,46c0,0,0,36,17,96l16,55C507,196,399,69,309,19c0,0,-64,-36,-126,-36Z" 
id="f1_1x"
transform="scale(0.001,-0.001)" />

<path d="M24,0V27H60c0,0,63,0,91,37c0,0,18,24,18,115V833c0,0,0,77,-10,102c0,0,-7,18,-30,32c0,0,-32,18,-69,18H24v27H776L787,790H761c0,0,-20,71,-45,104c0,0,-26,33,-64,48c0,0,-37,15,-117,15H312V558H497c0,0,63,0,93,28c0,0,29,28,39,111h27V355H629c0,0,-1,59,-16,87c0,0,-14,27,-40,41c0,0,-26,14,-76,14H312V179c0,0,0,-77,10,-102c0,0,7,-18,31,-32c0,0,33,-18,69,-18h37V0Z" 
id="f0_16"
transform="scale(0.001,-0.001)" />

<path d="M-36,0l10,26c0,0,57,2,76,11c0,0,30,13,44,34c0,0,20,31,48,127L315,809c0,0,22,74,22,116c0,0,0,20,-10,33c0,0,-10,14,-29,21c0,0,-19,7,-75,7l9,26h789L947,757H919c0,0,8,46,8,76c0,0,0,49,-27,78c0,0,-28,29,-70,41c0,0,-30,7,-133,7H489L375,556H511c0,0,90,0,134,28c0,0,44,28,91,118h29L659,334H629c0,0,11,45,11,74c0,0,0,46,-30,71c0,0,-30,25,-112,25H360L270,185c0,0,-24,-76,-24,-100c0,0,0,-26,20,-40c0,0,21,-14,101,-19L358,0Z" 
id="f1_16"
transform="scale(0.001,-0.001)" />

<path d="M518,-21c0,0,-124,0,-220,50c0,0,-95,52,-145,146c0,0,-50,94,-50,202c0,0,0,166,88,322c0,0,89,157,244,246c0,0,155,89,312,89c0,0,74,0,166,-34c0,0,40,-15,58,-15c0,0,18,0,31,7c0,0,14,8,45,42h28L999,707H972l-3,82c0,0,-4,45,-17,80c0,0,-14,35,-40,61c0,0,-27,26,-68,40c0,0,-41,15,-91,15c0,0,-134,0,-234,-73c0,0,-127,-94,-199,-264c0,0,-60,-140,-60,-284c0,0,0,-147,86,-234c0,0,86,-88,223,-88c0,0,104,0,185,46c0,0,81,47,151,143h35C940,231,858,100,757,39c0,0,-100,-60,-239,-60Z" 
id="f1_13"
transform="scale(0.001,-0.001)" />

<path d="M412,-328c0,0,-195,96,-303,284C109,-44,0,142,0,365c0,0,0,232,114,422c0,0,114,191,298,273v-31c0,0,-92,-51,-151,-139c0,0,-59,-88,-88,-223c0,0,-29,-136,-29,-282c0,0,0,-167,27,-301c0,0,26,-133,82,-221c0,0,55,-89,159,-159v-32Z" 
id="f2_c"
transform="scale(0.001,-0.001)" />

<path d="M34,-328v32c0,0,92,50,151,138c0,0,59,88,88,222c0,0,29,135,29,283c0,0,0,165,-27,300c0,0,-26,134,-82,222c0,0,-56,89,-159,160v31c0,0,194,-96,303,-284c0,0,108,-187,108,-410c0,0,0,-232,-114,-422c0,0,-114,-191,-297,-272Z" 
id="f2_d"
transform="scale(0.001,-0.001)" />

<path d="M269,-17c0,0,-105,0,-165,59c0,0,-59,60,-59,160c0,0,0,114,64,225c0,0,64,110,171,179c0,0,108,69,212,69c0,0,81,0,121,-34c0,0,41,-34,41,-83c0,0,0,-46,-29,-79c0,0,-21,-25,-51,-25c0,0,-24,0,-39,15c0,0,-15,14,-15,37c0,0,0,14,5,26c0,0,6,12,23,29c0,0,18,16,22,24c0,0,4,7,4,15c0,0,0,16,-15,27c0,0,-21,14,-61,14c0,0,-73,0,-144,-51c0,0,-72,-51,-123,-146c0,0,-61,-115,-61,-229c0,0,0,-76,44,-121c0,0,43,-44,117,-44c0,0,58,0,114,29c0,0,56,28,126,104l22,-20C593,163,515,70,436,26c0,0,-79,-43,-167,-43Z" 
id="f1_1z"
transform="scale(0.001,-0.001)" />

<path d="M553,-21L174,849c0,0,-29,67,-41,82c0,0,-19,24,-46,37c0,0,-27,13,-73,17v27H427V985c0,0,-70,-7,-91,-24c0,0,-21,-17,-21,-44c0,0,0,-38,34,-117L607,207L846,793c0,0,35,86,35,120c0,0,0,22,-22,41c0,0,-21,20,-73,28c0,0,-4,1,-13,3v27h311V985c0,0,-53,-10,-81,-35c0,0,-39,-37,-70,-112L581,-21Z" 
id="f0_1m"
transform="scale(0.001,-0.001)" />

<path d="M379,437c0,0,34,0,81,16c0,0,47,17,83,47c0,0,14,97,14,155c0,0,0,72,-25,156c0,0,-25,83,-70,128c0,0,-45,45,-103,45c0,0,-66,0,-116,-60c0,0,-50,-59,-50,-177c0,0,0,-157,66,-246c0,0,49,-64,120,-64ZM80,-20V7c0,0,97,1,181,45c0,0,83,44,161,153c0,0,78,109,109,240c0,0,-117,-75,-212,-75c0,0,-107,0,-183,82c0,0,-76,82,-76,219c0,0,0,132,76,236c0,0,92,126,240,126c0,0,124,0,213,-103c0,0,109,-128,109,-315c0,0,0,-169,-82,-314C616,301,533,155,385,59c0,0,-120,-79,-262,-79Z" 
id="f0_t"
transform="scale(0.001,-0.001)" />

<path d="M911,-16L244,799V175c0,0,0,-93,21,-116c0,0,28,-32,86,-32h36V0H36V27H71c0,0,65,0,92,39c0,0,16,24,16,109V879c0,0,-44,52,-67,68c0,0,-23,17,-67,31c0,0,-21,7,-64,7v27H253L873,253V837c0,0,0,93,-21,116c0,0,-28,32,-87,32H730v27h351V985h-36c0,0,-64,0,-91,-39c0,0,-16,-24,-16,-109V-16Z" 
id="f0_1e"
transform="scale(0.001,-0.001)" />

<path d="M494,385V878L152,385ZM494,0V262H20V385l498,708H628V385H775V262H628V0Z" 
id="f4_o"
transform="scale(0.001,-0.001)" />


</defs>
</svg>