<?xml version="1.0" encoding="UTF-8" standalone="no"?>
<!DOCTYPE svg PUBLIC "-//W3C//DTD SVG 1.1//EN"
"http://www.w3.org/Graphics/SVG/1.1/DTD/svg11.dtd">
<svg viewBox="0 0 909 1286" version="1.1" xmlns="http://www.w3.org/2000/svg" xmlns:xlink="http://www.w3.org/1999/xlink">
<defs>
<clipPath id="c0_12"><path d="M367,737.9V709.6h6.3v28.3Z" /></clipPath>
<clipPath id="c1_12"><path d="M401.1,737.9V709.6h5.5v28.3Z" /></clipPath>
<style type="text/css"><![CDATA[
.g0_12{
fill: none;
stroke: #FFFFFF;
stroke-width: 0.77152777;
stroke-linecap: round;
stroke-linejoin: round;
}
.g1_12{
}
.g2_12{
fill: none;
stroke: #000000;
stroke-width: 0.89527774;
stroke-linecap: round;
stroke-linejoin: round;
}
.g3_12{
fill: none;
stroke: #000000;
stroke-width: 0.90444446;
stroke-linecap: round;
stroke-linejoin: round;
}
.g4_12{
fill: none;
stroke: #000000;
stroke-width: 0.9075001;
stroke-linecap: round;
stroke-linejoin: round;
}
.g5_12{
fill: none;
stroke: #000000;
stroke-width: 0.8998611;
stroke-linecap: round;
stroke-linejoin: round;
}
]]></style>
</defs>
<path d="M512.4,486.7l6.2,9.7l5.4,8.5l4.1,8.7l2,8.5l1.1,7.7l1.2,6.7l-1.2,6.7l-2.1,6.7l-2,4.9l-3.1,5.6l-3.1,4.9l-3.4,3.9l-7.1,6.6l-6.5,4.7l-11.5,6.9l-10.3,6.7l-11.6,5.6L459,606.4l-6.4,3.9l-6.2,4.9l-5.4,4.6l-5.1,5.9l-4.1,6.7l-3.4,7.4l-1,9.8l-1,10.5l-6.2,-10.5l-5.4,-10.5l-3.1,-10.6l-1,-10.5v-4.9l1,-4.9l1.1,-4.6l2,-3.9l2.1,-4.8l3.3,-3.9l3.1,-3.6l4.1,-3.8l17,-11.6l16.7,-9.5l14.6,-8.8L489.3,546l6.4,-4.6l5.2,-6.7L505,528l3.3,-7.7l2.1,-8.7l2,-7.7V486.7" class="g0_12" />
<g fill="#000000" >
<use xlink:href="#f0_c" transform="matrix(12,0,0,12,117,122.6)" />
<use xlink:href="#f0_20" transform="matrix(12,0,0,12,122.5,122.6)" />
<use xlink:href="#f0_d" transform="matrix(12,0,0,12,131.3,122.6)" />
<use xlink:href="#f0_1n" transform="matrix(12,0,0,12,155.8,122.6)" />
<use xlink:href="#f0_24" transform="matrix(12,0,0,12,172.7,122.6)" />
<use xlink:href="#f0_1x" transform="matrix(12,0,0,12,181.2,122.6)" />
<use xlink:href="#f0_2g" transform="matrix(12,0,0,12,189.2,122.6)" />
<use xlink:href="#f0_25" transform="matrix(12,0,0,12,198.1,122.6)" />
<use xlink:href="#f0_2f" transform="matrix(12,0,0,12,202.5,122.6)" />
<use xlink:href="#f0_1x" transform="matrix(12,0,0,12,212.4,122.6)" />
<use xlink:href="#f0_1y" transform="matrix(12,0,0,12,223.8,122.6)" />
<use xlink:href="#f0_25" transform="matrix(12,0,0,12,232.6,122.6)" />
<use xlink:href="#f0_2b" transform="matrix(12,0,0,12,236.7,122.6)" />
<use xlink:href="#f0_20" transform="matrix(12,0,0,12,246.2,122.6)" />
<use xlink:href="#f0_21" transform="matrix(12,0,0,12,255.4,122.6)" />
<use xlink:href="#f0_23" transform="matrix(12,0,0,12,263.1,122.6)" />
<use xlink:href="#f0_2e" transform="matrix(12,0,0,12,272.3,122.6)" />
<use xlink:href="#f0_1x" transform="matrix(12,0,0,12,278.1,122.6)" />
<use xlink:href="#f0_20" transform="matrix(12,0,0,12,286.2,122.6)" />
<use xlink:href="#f0_1x" transform="matrix(12,0,0,12,295.4,122.6)" />
<use xlink:href="#f0_1y" transform="matrix(12,0,0,12,303.1,122.6)" />
<use xlink:href="#f0_28" transform="matrix(12,0,0,12,311.9,122.6)" />
<use xlink:href="#f0_21" transform="matrix(12,0,0,12,316,122.6)" />
<use xlink:href="#f0_2c" transform="matrix(12,0,0,12,327.7,122.6)" />
<use xlink:href="#f0_2b" transform="matrix(12,0,0,12,336.6,122.6)" />
<use xlink:href="#f0_28" transform="matrix(12,0,0,12,346.1,122.6)" />
<use xlink:href="#f0_2l" transform="matrix(12,0,0,12,350.5,122.6)" />
<use xlink:href="#f0_29" transform="matrix(12,0,0,12,358.6,122.6)" />
<use xlink:href="#f0_21" transform="matrix(12,0,0,12,372.2,122.6)" />
<use xlink:href="#f0_2e" transform="matrix(12,0,0,12,379.9,122.6)" />
<use xlink:href="#f0_z" transform="matrix(12,0,0,12,389.8,122.6)" />
<use xlink:href="#f0_17" transform="matrix(12,0,0,12,400.5,122.6)" />
<use xlink:href="#f0_25" transform="matrix(12,0,0,12,413.3,122.6)" />
<use xlink:href="#f0_2i" transform="matrix(12,0,0,12,417.7,122.6)" />
<use xlink:href="#f0_21" transform="matrix(12,0,0,12,426.6,122.6)" />
<use xlink:href="#f0_1x" transform="matrix(12,0,0,12,438,122.6)" />
<use xlink:href="#f0_2a" transform="matrix(12,0,0,12,445.7,122.6)" />
<use xlink:href="#f0_21" transform="matrix(12,0,0,12,458.2,122.6)" />
<use xlink:href="#f0_2k" transform="matrix(12,0,0,12,465.9,122.6)" />
<use xlink:href="#f0_1x" transform="matrix(12,0,0,12,474.7,122.6)" />
<use xlink:href="#f0_29" transform="matrix(12,0,0,12,482.8,122.6)" />
<use xlink:href="#f0_2c" transform="matrix(12,0,0,12,496,122.6)" />
<use xlink:href="#f0_28" transform="matrix(12,0,0,12,505.2,122.6)" />
<use xlink:href="#f0_21" transform="matrix(12,0,0,12,509.2,122.6)" />
<use xlink:href="#f0_i" transform="matrix(12,0,0,12,517.3,122.6)" />
<use xlink:href="#f0_11" transform="matrix(12,0,0,12,64.9,151.6)" />
<use xlink:href="#f0_2a" transform="matrix(12,0,0,12,77.4,151.6)" />
<use xlink:href="#f0_2f" transform="matrix(12,0,0,12,85.8,151.6)" />
<use xlink:href="#f0_i" transform="matrix(12,0,0,12,92.4,151.6)" />
<use xlink:href="#f0_12" transform="matrix(12,0,0,12,155.8,151.6)" />
<use xlink:href="#f0_25" transform="matrix(12,0,0,12,167.6,151.6)" />
<use xlink:href="#f0_2b" transform="matrix(12,0,0,12,172,151.6)" />
<use xlink:href="#f0_20" transform="matrix(12,0,0,12,181.2,151.6)" />
<use xlink:href="#f0_21" transform="matrix(12,0,0,12,190,151.6)" />
<use xlink:href="#f0_23" transform="matrix(12,0,0,12,198.1,151.6)" />
<use xlink:href="#f0_2e" transform="matrix(12,0,0,12,206.9,151.6)" />
<use xlink:href="#f0_1x" transform="matrix(12,0,0,12,212.8,151.6)" />
<use xlink:href="#f0_20" transform="matrix(12,0,0,12,220.8,151.6)" />
<use xlink:href="#f0_1x" transform="matrix(12,0,0,12,229.7,151.6)" />
<use xlink:href="#f0_1y" transform="matrix(12,0,0,12,237.4,151.6)" />
<use xlink:href="#f0_28" transform="matrix(12,0,0,12,246.2,151.6)" />
<use xlink:href="#f0_21" transform="matrix(12,0,0,12,250.2,151.6)" />
<use xlink:href="#f0_2c" transform="matrix(12,0,0,12,261.6,151.6)" />
<use xlink:href="#f0_2b" transform="matrix(12,0,0,12,270.5,151.6)" />
<use xlink:href="#f0_28" transform="matrix(12,0,0,12,280,151.6)" />
<use xlink:href="#f0_2l" transform="matrix(12,0,0,12,284,151.6)" />
<use xlink:href="#f0_29" transform="matrix(12,0,0,12,292.1,151.6)" />
<use xlink:href="#f0_21" transform="matrix(12,0,0,12,305.7,151.6)" />
<use xlink:href="#f0_2e" transform="matrix(12,0,0,12,313.4,151.6)" />
<use xlink:href="#f0_2f" transform="matrix(12,0,0,12,319.3,151.6)" />
<use xlink:href="#f0_1x" transform="matrix(12,0,0,12,329.6,151.6)" />
<use xlink:href="#f0_2e" transform="matrix(12,0,0,12,337.3,151.6)" />
<use xlink:href="#f0_21" transform="matrix(12,0,0,12,343.6,151.6)" />
<use xlink:href="#f0_2g" transform="matrix(12,0,0,12,354.2,151.6)" />
<use xlink:href="#f0_24" transform="matrix(12,0,0,12,359.7,151.6)" />
<use xlink:href="#f0_21" transform="matrix(12,0,0,12,368.2,151.6)" />
<use xlink:href="#f0_2c" transform="matrix(12,0,0,12,379.6,151.6)" />
<use xlink:href="#f0_2b" transform="matrix(12,0,0,12,388.4,151.6)" />
<use xlink:href="#f0_28" transform="matrix(12,0,0,12,397.6,151.6)" />
<use xlink:href="#f0_2l" transform="matrix(12,0,0,12,402,151.6)" />
<use xlink:href="#f0_29" transform="matrix(12,0,0,12,410.1,151.6)" />
<use xlink:href="#f0_21" transform="matrix(12,0,0,12,423.3,151.6)" />
<use xlink:href="#f0_2e" transform="matrix(12,0,0,12,431.4,151.6)" />
<use xlink:href="#f0_2f" transform="matrix(12,0,0,12,437.2,151.6)" />
<use xlink:href="#f0_2j" transform="matrix(12,0,0,12,447.5,151.6)" />
<use xlink:href="#f0_24" transform="matrix(12,0,0,12,460.4,151.6)" />
<use xlink:href="#f0_25" transform="matrix(12,0,0,12,468.8,151.6)" />
<use xlink:href="#f0_1z" transform="matrix(12,0,0,12,473.3,151.6)" />
<use xlink:href="#f0_24" transform="matrix(12,0,0,12,481,151.6)" />
<use xlink:href="#f0_1x" transform="matrix(12,0,0,12,493.1,151.6)" />
<use xlink:href="#f0_2e" transform="matrix(12,0,0,12,500.8,151.6)" />
<use xlink:href="#f0_21" transform="matrix(12,0,0,12,507.1,151.6)" />
<use xlink:href="#f0_20" transform="matrix(12,0,0,12,517.7,151.6)" />
<use xlink:href="#f0_21" transform="matrix(12,0,0,12,526.9,151.6)" />
<use xlink:href="#f0_23" transform="matrix(12,0,0,12,534.6,151.6)" />
<use xlink:href="#f0_2e" transform="matrix(12,0,0,12,543.4,151.6)" />
<use xlink:href="#f0_1x" transform="matrix(12,0,0,12,549.7,151.6)" />
<use xlink:href="#f0_20" transform="matrix(12,0,0,12,557.4,151.6)" />
<use xlink:href="#f0_21" transform="matrix(12,0,0,12,566.2,151.6)" />
<use xlink:href="#f0_20" transform="matrix(12,0,0,12,574.3,151.6)" />
<use xlink:href="#f0_1y" transform="matrix(12,0,0,12,586.4,151.6)" />
<use xlink:href="#f0_2l" transform="matrix(12,0,0,12,595.2,151.6)" />
<use xlink:href="#f0_29" transform="matrix(12,0,0,12,606.6,151.6)" />
<use xlink:href="#f0_25" transform="matrix(12,0,0,12,620.2,151.6)" />
<use xlink:href="#f0_1z" transform="matrix(12,0,0,12,624.3,151.6)" />
<use xlink:href="#f0_2e" transform="matrix(12,0,0,12,632,151.6)" />
<use xlink:href="#f0_2b" transform="matrix(12,0,0,12,638.2,151.6)" />
<use xlink:href="#f0_2b" transform="matrix(12,0,0,12,650.7,151.6)" />
<use xlink:href="#f0_2e" transform="matrix(12,0,0,12,660.2,151.6)" />
<use xlink:href="#f0_23" transform="matrix(12,0,0,12,666.1,151.6)" />
<use xlink:href="#f0_1x" transform="matrix(12,0,0,12,674.9,151.6)" />
<use xlink:href="#f0_2a" transform="matrix(12,0,0,12,683,151.6)" />
<use xlink:href="#f0_25" transform="matrix(12,0,0,12,691.5,151.6)" />
<use xlink:href="#f0_2f" transform="matrix(12,0,0,12,695.5,151.6)" />
<use xlink:href="#f0_29" transform="matrix(12,0,0,12,702.5,151.6)" />
<use xlink:href="#f0_2j" transform="matrix(12,0,0,12,718.7,151.6)" />
<use xlink:href="#f0_25" transform="matrix(12,0,0,12,731.9,151.6)" />
<use xlink:href="#f0_2g" transform="matrix(12,0,0,12,735.9,151.6)" />
<use xlink:href="#f0_24" transform="matrix(12,0,0,12,741.4,151.6)" />
<use xlink:href="#f0_25" transform="matrix(12,0,0,12,749.9,151.6)" />
<use xlink:href="#f0_2a" transform="matrix(12,0,0,12,753.9,151.6)" />
<use xlink:href="#f0_1x" transform="matrix(12,0,0,12,766.1,151.6)" />
<use xlink:href="#f0_2f" transform="matrix(12,0,0,12,777.5,151.6)" />
<use xlink:href="#f0_2h" transform="matrix(12,0,0,12,784.1,151.6)" />
<use xlink:href="#f0_25" transform="matrix(12,0,0,12,792.9,151.6)" />
<use xlink:href="#f0_2g" transform="matrix(12,0,0,12,797.3,151.6)" />
<use xlink:href="#f0_1x" transform="matrix(12,0,0,12,802.4,151.6)" />
<use xlink:href="#f0_1y" transform="matrix(12,0,0,12,810.2,151.6)" />
<use xlink:href="#f0_28" transform="matrix(12,0,0,12,819,151.6)" />
<use xlink:href="#f0_21" transform="matrix(12,0,0,12,823,151.6)" />
<use xlink:href="#f0_2c" transform="matrix(12,0,0,12,155.8,175.8)" />
<use xlink:href="#f0_21" transform="matrix(12,0,0,12,164.6,175.8)" />
<use xlink:href="#f0_2e" transform="matrix(12,0,0,12,172.7,175.8)" />
<use xlink:href="#f0_25" transform="matrix(12,0,0,12,178.6,175.8)" />
<use xlink:href="#f0_2b" transform="matrix(12,0,0,12,183,175.8)" />
<use xlink:href="#f0_20" transform="matrix(12,0,0,12,192.2,175.8)" />
<use xlink:href="#f0_2f" transform="matrix(12,0,0,12,204.7,175.8)" />
<use xlink:href="#f0_2b" transform="matrix(12,0,0,12,211.7,175.8)" />
<use xlink:href="#f0_2g" transform="matrix(12,0,0,12,224.5,175.8)" />
<use xlink:href="#f0_24" transform="matrix(12,0,0,12,229.6,175.8)" />
<use xlink:href="#f0_1x" transform="matrix(12,0,0,12,238.5,175.8)" />
<use xlink:href="#f0_2g" transform="matrix(12,0,0,12,246.2,175.8)" />
<use xlink:href="#f0_1y" transform="matrix(12,0,0,12,254.6,175.8)" />
<use xlink:href="#f0_25" transform="matrix(12,0,0,12,263.4,175.8)" />
<use xlink:href="#f0_2b" transform="matrix(12,0,0,12,267.5,175.8)" />
<use xlink:href="#f0_20" transform="matrix(12,0,0,12,277,175.8)" />
<use xlink:href="#f0_21" transform="matrix(12,0,0,12,285.8,175.8)" />
<use xlink:href="#f0_23" transform="matrix(12,0,0,12,293.9,175.8)" />
<use xlink:href="#f0_2e" transform="matrix(12,0,0,12,302.7,175.8)" />
<use xlink:href="#f0_1x" transform="matrix(12,0,0,12,309,175.8)" />
<use xlink:href="#f0_20" transform="matrix(12,0,0,12,316.7,175.8)" />
<use xlink:href="#f0_1x" transform="matrix(12,0,0,12,325.9,175.8)" />
<use xlink:href="#f0_1y" transform="matrix(12,0,0,12,333.6,175.8)" />
<use xlink:href="#f0_28" transform="matrix(12,0,0,12,342.4,175.8)" />
<use xlink:href="#f0_21" transform="matrix(12,0,0,12,346.4,175.8)" />
<use xlink:href="#f0_2c" transform="matrix(12,0,0,12,357.8,175.8)" />
<use xlink:href="#f0_2b" transform="matrix(12,0,0,12,367,175.8)" />
<use xlink:href="#f0_28" transform="matrix(12,0,0,12,376.2,175.8)" />
<use xlink:href="#f0_2l" transform="matrix(12,0,0,12,380.6,175.8)" />
<use xlink:href="#f0_29" transform="matrix(12,0,0,12,388.7,175.8)" />
<use xlink:href="#f0_21" transform="matrix(12,0,0,12,402.3,175.8)" />
<use xlink:href="#f0_2e" transform="matrix(12,0,0,12,410,175.8)" />
<use xlink:href="#f0_2f" transform="matrix(12,0,0,12,416.2,175.8)" />
<use xlink:href="#f0_1x" transform="matrix(12,0,0,12,426.5,175.8)" />
<use xlink:href="#f0_2a" transform="matrix(12,0,0,12,434.2,175.8)" />
<use xlink:href="#f0_20" transform="matrix(12,0,0,12,443,175.8)" />
<use xlink:href="#f0_2g" transform="matrix(12,0,0,12,455.5,175.8)" />
<use xlink:href="#f0_24" transform="matrix(12,0,0,12,460.7,175.8)" />
<use xlink:href="#f0_21" transform="matrix(12,0,0,12,469.5,175.8)" />
<use xlink:href="#f0_25" transform="matrix(12,0,0,12,477.2,175.8)" />
<use xlink:href="#f0_2e" transform="matrix(12,0,0,12,481.6,175.8)" />
<use xlink:href="#f0_20" transform="matrix(12,0,0,12,490.8,175.8)" />
<use xlink:href="#f0_21" transform="matrix(12,0,0,12,499.6,175.8)" />
<use xlink:href="#f0_23" transform="matrix(12,0,0,12,507.7,175.8)" />
<use xlink:href="#f0_2e" transform="matrix(12,0,0,12,516.5,175.8)" />
<use xlink:href="#f0_1x" transform="matrix(12,0,0,12,522.8,175.8)" />
<use xlink:href="#f0_20" transform="matrix(12,0,0,12,530.5,175.8)" />
<use xlink:href="#f0_21" transform="matrix(12,0,0,12,539.7,175.8)" />
<use xlink:href="#f0_20" transform="matrix(12,0,0,12,547.4,175.8)" />
<use xlink:href="#f0_2c" transform="matrix(12,0,0,12,559.9,175.8)" />
<use xlink:href="#f0_2e" transform="matrix(12,0,0,12,569,175.8)" />
<use xlink:href="#f0_2b" transform="matrix(12,0,0,12,574.9,175.8)" />
<use xlink:href="#f0_20" transform="matrix(12,0,0,12,584.4,175.8)" />
<use xlink:href="#f0_2h" transform="matrix(12,0,0,12,593.3,175.8)" />
<use xlink:href="#f0_1z" transform="matrix(12,0,0,12,602.4,175.8)" />
<use xlink:href="#f0_2g" transform="matrix(12,0,0,12,610.1,175.8)" />
<use xlink:href="#f0_2f" transform="matrix(12,0,0,12,615.6,175.8)" />
<use xlink:href="#f0_20" transform="matrix(12,0,0,12,625.9,175.8)" />
<use xlink:href="#f0_2b" transform="matrix(12,0,0,12,634.8,175.8)" />
<use xlink:href="#f0_2a" transform="matrix(12,0,0,12,647.6,175.8)" />
<use xlink:href="#f0_2b" transform="matrix(12,0,0,12,656.4,175.8)" />
<use xlink:href="#f0_2g" transform="matrix(12,0,0,12,665.6,175.8)" />
<use xlink:href="#f0_1z" transform="matrix(12,0,0,12,674.4,175.8)" />
<use xlink:href="#f0_1x" transform="matrix(12,0,0,12,682.5,175.8)" />
<use xlink:href="#f0_2h" transform="matrix(12,0,0,12,690.2,175.8)" />
<use xlink:href="#f0_2f" transform="matrix(12,0,0,12,699.4,175.8)" />
<use xlink:href="#f0_21" transform="matrix(12,0,0,12,706,175.8)" />
<use xlink:href="#f0_1x" transform="matrix(12,0,0,12,717,175.8)" />
<use xlink:href="#f0_2a" transform="matrix(12,0,0,12,725.1,175.8)" />
<use xlink:href="#f0_2l" transform="matrix(12,0,0,12,733.5,175.8)" />
<use xlink:href="#f0_2f" transform="matrix(12,0,0,12,745.3,175.8)" />
<use xlink:href="#f0_21" transform="matrix(12,0,0,12,752.3,175.8)" />
<use xlink:href="#f0_2e" transform="matrix(12,0,0,12,760,175.8)" />
<use xlink:href="#f0_25" transform="matrix(12,0,0,12,766.2,175.8)" />
<use xlink:href="#f0_2b" transform="matrix(12,0,0,12,770.3,175.8)" />
<use xlink:href="#f0_2h" transform="matrix(12,0,0,12,779.8,175.8)" />
<use xlink:href="#f0_2f" transform="matrix(12,0,0,12,788.6,175.8)" />
<use xlink:href="#f0_1x" transform="matrix(12,0,0,12,798.9,175.8)" />
<use xlink:href="#f0_22" transform="matrix(12,0,0,12,807,175.8)" />
<use xlink:href="#f0_22" transform="matrix(12,0,0,12,812.2,175.8)" />
<use xlink:href="#f0_21" transform="matrix(12,0,0,12,817.7,175.8)" />
<use xlink:href="#f0_1z" transform="matrix(12,0,0,12,825.4,175.8)" />
<use xlink:href="#f0_2g" transform="matrix(12,0,0,12,833.5,175.8)" />
<use xlink:href="#f0_2f" transform="matrix(12,0,0,12,838.6,175.8)" />
<use xlink:href="#f0_2b" transform="matrix(12,0,0,12,155.8,200.3)" />
<use xlink:href="#f0_2a" transform="matrix(12,0,0,12,165.4,200.3)" />
<use xlink:href="#f0_2g" transform="matrix(12,0,0,12,177.5,200.3)" />
<use xlink:href="#f0_24" transform="matrix(12,0,0,12,182.6,200.3)" />
<use xlink:href="#f0_21" transform="matrix(12,0,0,12,191.4,200.3)" />
<use xlink:href="#f0_21" transform="matrix(12,0,0,12,202.8,200.3)" />
<use xlink:href="#f0_2a" transform="matrix(12,0,0,12,210.9,200.3)" />
<use xlink:href="#f0_2i" transform="matrix(12,0,0,12,219.4,200.3)" />
<use xlink:href="#f0_25" transform="matrix(12,0,0,12,228.2,200.3)" />
<use xlink:href="#f0_2e" transform="matrix(12,0,0,12,232.6,200.3)" />
<use xlink:href="#f0_2b" transform="matrix(12,0,0,12,238.5,200.3)" />
<use xlink:href="#f0_2a" transform="matrix(12,0,0,12,248,200.3)" />
<use xlink:href="#f0_29" transform="matrix(12,0,0,12,256.5,200.3)" />
<use xlink:href="#f0_21" transform="matrix(12,0,0,12,270.1,200.3)" />
<use xlink:href="#f0_2a" transform="matrix(12,0,0,12,278.1,200.3)" />
<use xlink:href="#f0_2g" transform="matrix(12,0,0,12,286.6,200.3)" />
<use xlink:href="#f0_i" transform="matrix(12,0,0,12,292.1,200.3)" />
<use xlink:href="#f0_21" transform="matrix(12,0,0,12,299.8,200.3)" />
<use xlink:href="#f0_23" transform="matrix(12,0,0,12,307.5,200.3)" />
<use xlink:href="#f0_u" transform="matrix(12,0,0,12,316.7,200.3)" />
<use xlink:href="#f0_h" transform="matrix(12,0,0,12,321.8,200.3)" />
<use xlink:href="#f0_c" transform="matrix(12,0,0,12,331.4,200.3)" />
<use xlink:href="#f0_1x" transform="matrix(12,0,0,12,337.3,200.3)" />
<use xlink:href="#f0_d" transform="matrix(12,0,0,12,345.4,200.3)" />
<use xlink:href="#f0_1g" transform="matrix(12,0,0,12,354.9,200.3)" />
<use xlink:href="#f0_18" transform="matrix(12,0,0,12,365.2,200.3)" />
<use xlink:href="#f0_12" transform="matrix(12,0,0,12,378,200.3)" />
<use xlink:href="#f0_1m" transform="matrix(12,0,0,12,390.2,200.3)" />
<use xlink:href="#f0_c" transform="matrix(12,0,0,12,417,200.3)" />
<use xlink:href="#f0_1y" transform="matrix(12,0,0,12,423.2,200.3)" />
<use xlink:href="#f0_d" transform="matrix(12,0,0,12,431.7,200.3)" />
<use xlink:href="#f0_14" transform="matrix(12,0,0,12,441.2,200.3)" />
<use xlink:href="#f0_21" transform="matrix(12,0,0,12,454.5,200.3)" />
<use xlink:href="#f0_2k" transform="matrix(12,0,0,12,462.5,200.3)" />
<use xlink:href="#f0_2g" transform="matrix(12,0,0,12,471,200.3)" />
<use xlink:href="#f0_2e" transform="matrix(12,0,0,12,476.5,200.3)" />
<use xlink:href="#f0_2b" transform="matrix(12,0,0,12,482.4,200.3)" />
<use xlink:href="#f0_2a" transform="matrix(12,0,0,12,491.9,200.3)" />
<use xlink:href="#f0_c" transform="matrix(12,0,0,12,510.7,200.3)" />
<use xlink:href="#f0_1z" transform="matrix(12,0,0,12,516.9,200.3)" />
<use xlink:href="#f0_d" transform="matrix(12,0,0,12,524.6,200.3)" />
<use xlink:href="#f0_1e" transform="matrix(12,0,0,12,534.5,200.3)" />
<use xlink:href="#f0_2l" transform="matrix(12,0,0,12,547.4,200.3)" />
<use xlink:href="#f0_28" transform="matrix(12,0,0,12,555.8,200.3)" />
<use xlink:href="#f0_2b" transform="matrix(12,0,0,12,559.9,200.3)" />
<use xlink:href="#f0_2a" transform="matrix(12,0,0,12,569.4,200.3)" />
<use xlink:href="#f0_h" transform="matrix(12,0,0,12,578.2,200.3)" />
<use xlink:href="#f0_m" transform="matrix(12,0,0,12,584.1,200.3)" />
<use xlink:href="#f0_h" transform="matrix(12,0,0,12,593.3,200.3)" />
<use xlink:href="#f0_2a" transform="matrix(12,0,0,12,599.2,200.3)" />
<use xlink:href="#f0_2l" transform="matrix(12,0,0,12,608,200.3)" />
<use xlink:href="#f0_28" transform="matrix(12,0,0,12,616.4,200.3)" />
<use xlink:href="#f0_2b" transform="matrix(12,0,0,12,620.5,200.3)" />
<use xlink:href="#f0_2a" transform="matrix(12,0,0,12,630,200.3)" />
<use xlink:href="#f0_h" transform="matrix(12,0,0,12,638.5,200.3)" />
<use xlink:href="#f0_q" transform="matrix(12,0,0,12,644.7,200.3)" />
<use xlink:href="#f0_m" transform="matrix(6.9,0,0,6.9,466.7,301.6)" />
<use xlink:href="#f0_m" transform="matrix(12,0,0,12,48.2,259.5)" />
<use xlink:href="#f0_o" transform="matrix(12,0,0,12,57.4,259.5)" />
<use xlink:href="#f0_i" transform="matrix(12,0,0,12,66.5,259.5)" />
<use xlink:href="#f0_c" transform="matrix(12,0,0,12,100.3,259.5)" />
<use xlink:href="#f0_1x" transform="matrix(12,0,0,12,106.4,259.5)" />
<use xlink:href="#f0_d" transform="matrix(12,0,0,12,114.5,259.5)" />
<use xlink:href="#f0_1n" transform="matrix(12,0,0,12,140.1,259.5)" />
<use xlink:href="#f0_2e" transform="matrix(12,0,0,12,155.9,259.5)" />
<use xlink:href="#f0_25" transform="matrix(12,0,0,12,162,259.5)" />
<use xlink:href="#f0_2g" transform="matrix(12,0,0,12,167.1,259.5)" />
<use xlink:href="#f0_21" transform="matrix(12,0,0,12,172.2,259.5)" />
<use xlink:href="#f0_2g" transform="matrix(12,0,0,12,183.2,259.5)" />
<use xlink:href="#f0_24" transform="matrix(12,0,0,12,188.3,259.5)" />
<use xlink:href="#f0_21" transform="matrix(12,0,0,12,197.5,259.5)" />
<use xlink:href="#f0_1z" transform="matrix(12,0,0,12,208.9,259.5)" />
<use xlink:href="#f0_21" transform="matrix(12,0,0,12,217,259.5)" />
<use xlink:href="#f0_28" transform="matrix(12,0,0,12,225.2,259.5)" />
<use xlink:href="#f0_28" transform="matrix(12,0,0,12,230.3,259.5)" />
<use xlink:href="#f0_2e" transform="matrix(12,0,0,12,237.6,259.5)" />
<use xlink:href="#f0_21" transform="matrix(12,0,0,12,243.7,259.5)" />
<use xlink:href="#f0_1x" transform="matrix(12,0,0,12,251.9,259.5)" />
<use xlink:href="#f0_1z" transform="matrix(12,0,0,12,260,259.5)" />
<use xlink:href="#f0_2g" transform="matrix(12,0,0,12,268.1,259.5)" />
<use xlink:href="#f0_25" transform="matrix(12,0,0,12,273.2,259.5)" />
<use xlink:href="#f0_2b" transform="matrix(12,0,0,12,278.3,259.5)" />
<use xlink:href="#f0_2a" transform="matrix(12,0,0,12,287.5,259.5)" />
<use xlink:href="#f0_1x" transform="matrix(12,0,0,12,299.3,259.5)" />
<use xlink:href="#f0_2a" transform="matrix(12,0,0,12,307.4,259.5)" />
<use xlink:href="#f0_20" transform="matrix(12,0,0,12,316.6,259.5)" />
<use xlink:href="#f0_1z" transform="matrix(12,0,0,12,329,259.5)" />
<use xlink:href="#f0_1x" transform="matrix(12,0,0,12,337.2,259.5)" />
<use xlink:href="#f0_28" transform="matrix(12,0,0,12,345.3,259.5)" />
<use xlink:href="#f0_1z" transform="matrix(12,0,0,12,350.4,259.5)" />
<use xlink:href="#f0_2h" transform="matrix(12,0,0,12,358.5,259.5)" />
<use xlink:href="#f0_28" transform="matrix(12,0,0,12,367.7,259.5)" />
<use xlink:href="#f0_1x" transform="matrix(12,0,0,12,372.8,259.5)" />
<use xlink:href="#f0_2g" transform="matrix(12,0,0,12,380.9,259.5)" />
<use xlink:href="#f0_21" transform="matrix(12,0,0,12,386,259.5)" />
<use xlink:href="#f0_2g" transform="matrix(12,0,0,12,397.4,259.5)" />
<use xlink:href="#f0_24" transform="matrix(12,0,0,12,402.5,259.5)" />
<use xlink:href="#f0_21" transform="matrix(12,0,0,12,411.7,259.5)" />
<use xlink:href="#f0_21" transform="matrix(12,0,0,12,422.3,259.5)" />
<use xlink:href="#f0_i" transform="matrix(12,0,0,12,430.5,259.5)" />
<use xlink:href="#f0_29" transform="matrix(12,0,0,12,435.1,259.5)" />
<use xlink:href="#f0_i" transform="matrix(12,0,0,12,449.3,259.5)" />
<use xlink:href="#f0_22" transform="matrix(12,0,0,12,453.9,259.5)" />
<use xlink:href="#f0_i" transform="matrix(12,0,0,12,460,259.5)" />
<use xlink:href="#f0_2b" transform="matrix(12,0,0,12,468.1,259.5)" />
<use xlink:href="#f0_22" transform="matrix(12,0,0,12,477.3,259.5)" />
<use xlink:href="#f0_2g" transform="matrix(12,0,0,12,485.7,259.5)" />
<use xlink:href="#f0_24" transform="matrix(12,0,0,12,490.8,259.5)" />
<use xlink:href="#f0_21" transform="matrix(12,0,0,12,500,259.5)" />
<use xlink:href="#f0_22" transform="matrix(12,0,0,12,511.4,259.5)" />
<use xlink:href="#f0_2b" transform="matrix(12,0,0,12,517.5,259.5)" />
<use xlink:href="#f0_28" transform="matrix(12,0,0,12,526.6,259.5)" />
<use xlink:href="#f0_28" transform="matrix(12,0,0,12,531.7,259.5)" />
<use xlink:href="#f0_2b" transform="matrix(12,0,0,12,536.8,259.5)" />
<use xlink:href="#f0_2j" transform="matrix(12,0,0,12,546,259.5)" />
<use xlink:href="#f0_25" transform="matrix(12,0,0,12,559.2,259.5)" />
<use xlink:href="#f0_2a" transform="matrix(12,0,0,12,564.3,259.5)" />
<use xlink:href="#f0_23" transform="matrix(12,0,0,12,573.5,259.5)" />
<use xlink:href="#f0_1z" transform="matrix(12,0,0,12,586,259.5)" />
<use xlink:href="#f0_21" transform="matrix(12,0,0,12,594.1,259.5)" />
<use xlink:href="#f0_28" transform="matrix(12,0,0,12,602.2,259.5)" />
<use xlink:href="#f0_28" transform="matrix(12,0,0,12,607.3,259.5)" />
<use xlink:href="#f0_1x" transform="matrix(12,0,0,12,614.7,259.5)" />
<use xlink:href="#f0_2g" transform="matrix(12,0,0,12,622.8,259.5)" />
<use xlink:href="#f0_m" transform="matrix(12,0,0,12,631.6,259.5)" />
<use xlink:href="#f0_t" transform="matrix(12,0,0,12,640.8,259.5)" />
<use xlink:href="#f0_s" transform="matrix(12,0,0,12,650,259.5)" />
<use xlink:href="#f0_1b" transform="matrix(12,0,0,12,662.5,259.5)" />
<use xlink:href="#f0_i" transform="matrix(12,0,0,12,675.7,259.5)" />
<use xlink:href="#f1_1j" transform="matrix(12,0,0,12,180.7,290.6)" />
<use xlink:href="#f1_2a" transform="matrix(12,0,0,12,189.9,290.6)" />
<use xlink:href="#f0_c" transform="matrix(12,0,0,12,201.6,290.6)" />
<use xlink:href="#f1_2f" transform="matrix(12,0,0,12,207.7,290.6)" />
<use xlink:href="#f0_d" transform="matrix(12,0,0,12,214.8,290.6)" />
<use xlink:href="#f0_2o" transform="matrix(12,0,0,12,224,290.6)" />
<use xlink:href="#f1_1j" transform="matrix(12,0,0,12,231.3,290.6)" />
<use xlink:href="#f1_2a" transform="matrix(12,0,0,12,240.5,290.6)" />
<use xlink:href="#f0_m" transform="matrix(6.9,0,0,6.9,249.7,282.6)" />
<use xlink:href="#f2_f" transform="matrix(6.9,0,0,6.9,259,282.6)" />
<use xlink:href="#f0_c" transform="matrix(12,0,0,12,264.8,290.6)" />
<use xlink:href="#f0_k" transform="matrix(12,0,0,12,270.9,290.6)" />
<use xlink:href="#f0_i" transform="matrix(12,0,0,12,280.1,290.6)" />
<use xlink:href="#f0_k" transform="matrix(12,0,0,12,284.7,290.6)" />
<use xlink:href="#f0_k" transform="matrix(12,0,0,12,293.9,290.6)" />
<use xlink:href="#f0_o" transform="matrix(12,0,0,12,303,290.6)" />
<use xlink:href="#f1_1d" transform="matrix(12,0,0,12,314.7,290.6)" />
<use xlink:href="#f0_d" transform="matrix(12,0,0,12,333.1,290.6)" />
<use xlink:href="#f0_2o" transform="matrix(12,0,0,12,340.8,290.6)" />
<use xlink:href="#f0_2o" transform="matrix(12,0,0,12,344.5,290.6)" />
<use xlink:href="#f1_18" transform="matrix(12,0,0,12,350.3,290.6)" />
<use xlink:href="#f2_f" transform="matrix(6.9,0,0,6.9,369.1,282.6)" />
<use xlink:href="#f0_c" transform="matrix(12,0,0,12,374.9,290.6)" />
<use xlink:href="#f0_k" transform="matrix(12,0,0,12,381,290.6)" />
<use xlink:href="#f0_i" transform="matrix(12,0,0,12,390.2,290.6)" />
<use xlink:href="#f0_k" transform="matrix(12,0,0,12,394.7,290.6)" />
<use xlink:href="#f0_m" transform="matrix(12,0,0,12,403.9,290.6)" />
<use xlink:href="#f0_k" transform="matrix(12,0,0,12,413.1,290.6)" />
<use xlink:href="#f1_1d" transform="matrix(12,0,0,12,424.8,290.6)" />
<use xlink:href="#f0_d" transform="matrix(12,0,0,12,443.1,290.6)" />
<use xlink:href="#f0_2o" transform="matrix(12,0,0,12,452.3,290.6)" />
<use xlink:href="#f1_18" transform="matrix(12,0,0,12,458.5,290.6)" />
<use xlink:href="#f0_c" transform="matrix(12,0,0,12,480.5,290.6)" />
<use xlink:href="#f1_23" transform="matrix(12,0,0,12,487.8,290.6)" />
<use xlink:href="#f0_d" transform="matrix(12,0,0,12,498.5,290.6)" />
<use xlink:href="#f0_c" transform="matrix(12,0,0,12,506.9,290.6)" />
<use xlink:href="#f0_l" transform="matrix(12,0,0,12,511.3,290.6)" />
<use xlink:href="#f0_1y" transform="matrix(12,0,0,12,521.6,290.6)" />
<use xlink:href="#f0_1x" transform="matrix(12,0,0,12,530.8,290.6)" />
<use xlink:href="#f0_2e" transform="matrix(12,0,0,12,538.9,290.6)" />
<use xlink:href="#f0_d" transform="matrix(12,0,0,12,545,290.6)" />
<use xlink:href="#f0_2o" transform="matrix(12,0,0,12,552.3,290.6)" />
<use xlink:href="#f1_1g" transform="matrix(12,0,0,12,558.5,290.6)" />
<use xlink:href="#f1_2g" transform="matrix(12,0,0,12,569.7,290.6)" />
<use xlink:href="#f0_c" transform="matrix(12,0,0,12,576.3,290.6)" />
<use xlink:href="#f1_2f" transform="matrix(12,0,0,12,582.5,290.6)" />
<use xlink:href="#f0_d" transform="matrix(12,0,0,12,589.6,290.6)" />
<use xlink:href="#f0_m" transform="matrix(5.1,0,0,5.1,240.2,338.9)" />
<use xlink:href="#f0_k" transform="matrix(7,0,0,7,230.3,328.3)" />
<use xlink:href="#f0_j" transform="matrix(7,0,0,7,250.8,343.7)" />
<use xlink:href="#f0_c" transform="matrix(12.1,0,0,12.1,158.4,336.7)" />
<use xlink:href="#f0_17" transform="matrix(12.1,0,0,12.1,164.6,336.7)" />
<use xlink:href="#f0_25" transform="matrix(12.1,0,0,12.1,177.8,336.7)" />
<use xlink:href="#f0_2i" transform="matrix(12.1,0,0,12.1,183,336.7)" />
<use xlink:href="#f0_21" transform="matrix(12.1,0,0,12.1,191.8,336.7)" />
<use xlink:href="#f0_2a" transform="matrix(12.1,0,0,12.1,199.9,336.7)" />
<use xlink:href="#f0_u" transform="matrix(12.1,0,0,12.1,210.9,336.7)" />
<use xlink:href="#f0_k" transform="matrix(12.1,0,0,12.1,295.5,336.7)" />
<use xlink:href="#f0_i" transform="matrix(12.1,0,0,12.1,304.7,336.7)" />
<use xlink:href="#f0_l" transform="matrix(12.1,0,0,12.1,309.5,336.7)" />
<use xlink:href="#f0_o" transform="matrix(12.1,0,0,12.1,318.7,336.7)" />
<use xlink:href="#f0_d" transform="matrix(12.1,0,0,12.1,342.5,336.7)" />
<use xlink:href="#f1_1j" transform="matrix(7,0,0,7,229.2,343.7)" />
<use xlink:href="#f1_2a" transform="matrix(7,0,0,7,234.3,343.7)" />
<use xlink:href="#f1_1j" transform="matrix(7,0,0,7,255.6,343.7)" />
<use xlink:href="#f1_2a" transform="matrix(7,0,0,7,260.7,343.7)" />
<use xlink:href="#f1_15" transform="matrix(12.1,0,0,12.1,217.8,336.7)" />
<use xlink:href="#f1_1m" transform="matrix(12.1,0,0,12.1,328.5,336.7)" />
<use xlink:href="#f3_f" transform="matrix(5.1,0,0,5.1,243.8,338.9)" />
<use xlink:href="#f3_x" transform="matrix(12.1,0,0,12.1,270.6,336.7)" />
<use xlink:href="#f3_h" transform="matrix(12.1,0,0,12.1,283.4,336.7)" />
<use xlink:href="#f0_11" transform="matrix(12,0,0,12,64.9,366.4)" />
<use xlink:href="#f0_2a" transform="matrix(12,0,0,12,77.4,366.4)" />
<use xlink:href="#f0_2f" transform="matrix(12,0,0,12,85.8,366.4)" />
<use xlink:href="#f0_i" transform="matrix(12,0,0,12,92.4,366.4)" />
<use xlink:href="#f4_13" transform="matrix(12,0,0,12,155.8,366.4)" />
<use xlink:href="#f4_21" transform="matrix(12,0,0,12,169,366.4)" />
<use xlink:href="#f4_28" transform="matrix(12,0,0,12,177.1,366.4)" />
<use xlink:href="#f4_28" transform="matrix(12,0,0,12,181.9,366.4)" />
<use xlink:href="#f4_2e" transform="matrix(12,0,0,12,190.4,366.4)" />
<use xlink:href="#f4_21" transform="matrix(12,0,0,12,198.1,366.4)" />
<use xlink:href="#f4_1x" transform="matrix(12,0,0,12,206.2,366.4)" />
<use xlink:href="#f4_1z" transform="matrix(12,0,0,12,215.3,366.4)" />
<use xlink:href="#f4_2g" transform="matrix(12,0,0,12,223.4,366.4)" />
<use xlink:href="#f4_25" transform="matrix(12,0,0,12,229.7,366.4)" />
<use xlink:href="#f4_2b" transform="matrix(12,0,0,12,234.8,366.4)" />
<use xlink:href="#f4_2a" transform="matrix(12,0,0,12,244,366.4)" />
<use xlink:href="#f4_u" transform="matrix(12,0,0,12,257.9,366.4)" />
<use xlink:href="#f4_h" transform="matrix(12,0,0,12,267.8,366.4)" />
<use xlink:href="#f0_11" transform="matrix(12,0,0,12,155.8,393.9)" />
<use xlink:href="#f0_2g" transform="matrix(12,0,0,12,168.7,393.9)" />
<use xlink:href="#f0_1x" transform="matrix(12,0,0,12,180.8,393.9)" />
<use xlink:href="#f0_2a" transform="matrix(12,0,0,12,188.5,393.9)" />
<use xlink:href="#f0_2b" transform="matrix(12,0,0,12,197.3,393.9)" />
<use xlink:href="#f0_20" transform="matrix(12,0,0,12,206.9,393.9)" />
<use xlink:href="#f0_21" transform="matrix(12,0,0,12,216,393.9)" />
<use xlink:href="#f0_u" transform="matrix(12,0,0,12,227.4,393.9)" />
</g>
<path d="M155.8,396.5h76.7v-.7H155.8v.7Z" class="g1_12" />
<g fill="#000000" >
<use xlink:href="#f0_m" transform="matrix(6.9,0,0,6.9,222.6,418.5)" />
<use xlink:href="#f0_m" transform="matrix(12,0,0,12,253,426.6)" />
<use xlink:href="#f0_c" transform="matrix(12,0,0,12,299.9,426.6)" />
<use xlink:href="#f0_1f" transform="matrix(12,0,0,12,306.2,426.6)" />
<use xlink:href="#f0_2k" transform="matrix(12,0,0,12,319.4,426.6)" />
<use xlink:href="#f0_d" transform="matrix(12,0,0,12,329.3,426.6)" />
<use xlink:href="#f0_c" transform="matrix(12,0,0,12,158.4,454.1)" />
<use xlink:href="#f0_d" transform="matrix(12,0,0,12,173.1,454.1)" />
<use xlink:href="#f0_c" transform="matrix(12,0,0,12,198.4,454.1)" />
<use xlink:href="#f0_d" transform="matrix(12,0,0,12,224,454.1)" />
<use xlink:href="#f1_1j" transform="matrix(12,0,0,12,158.8,426.6)" />
<use xlink:href="#f1_2a" transform="matrix(12,0,0,12,167.9,426.6)" />
<use xlink:href="#f1_1j" transform="matrix(12,0,0,12,203.5,426.6)" />
<use xlink:href="#f1_2a" transform="matrix(12,0,0,12,212.7,426.6)" />
<use xlink:href="#f1_21" transform="matrix(12,0,0,12,262.1,426.6)" />
<use xlink:href="#f1_2f" transform="matrix(12,0,0,12,165.4,454.1)" />
<use xlink:href="#f1_1x" transform="matrix(12,0,0,12,205,454.1)" />
<use xlink:href="#f1_2d" transform="matrix(12,0,0,12,214.1,454.1)" />
<use xlink:href="#f3_f" transform="matrix(6.9,0,0,6.9,228.4,418.5)" />
<use xlink:href="#f3_34" transform="matrix(12,0,0,12,181.1,426.6)" />
<use xlink:href="#f3_f" transform="matrix(12,0,0,12,239.4,426.6)" />
<use xlink:href="#f0_11" transform="matrix(12,0,0,12,155.8,481.9)" />
<use xlink:href="#f0_2g" transform="matrix(12,0,0,12,168.7,481.9)" />
<use xlink:href="#f0_1z" transform="matrix(12,0,0,12,177.5,481.9)" />
<use xlink:href="#f0_1x" transform="matrix(12,0,0,12,185.6,481.9)" />
<use xlink:href="#f0_2g" transform="matrix(12,0,0,12,193.7,481.9)" />
<use xlink:href="#f0_24" transform="matrix(12,0,0,12,199.2,481.9)" />
<use xlink:href="#f0_2b" transform="matrix(12,0,0,12,207.6,481.9)" />
<use xlink:href="#f0_20" transform="matrix(12,0,0,12,217.1,481.9)" />
<use xlink:href="#f0_21" transform="matrix(12,0,0,12,226.3,481.9)" />
<use xlink:href="#f0_u" transform="matrix(12,0,0,12,237.3,481.9)" />
<use xlink:href="#f0_h" transform="matrix(12,0,0,12,246.2,481.9)" />
</g>
<path d="M155.8,484.5h96.5v-.7H155.8v.7Z" class="g1_12" />
<g fill="#000000" >
<use xlink:href="#f0_m" transform="matrix(6.9,0,0,6.9,276.1,519)" />
<use xlink:href="#f0_m" transform="matrix(12,0,0,12,158.8,514.6)" />
<use xlink:href="#f0_m" transform="matrix(12,0,0,12,209.4,514.6)" />
<use xlink:href="#f0_c" transform="matrix(12,0,0,12,317.9,514.6)" />
<use xlink:href="#f0_1i" transform="matrix(12,0,0,12,324.5,514.6)" />
<use xlink:href="#f0_21" transform="matrix(12,0,0,12,336.9,514.6)" />
<use xlink:href="#f0_20" transform="matrix(12,0,0,12,345,514.6)" />
<use xlink:href="#f0_d" transform="matrix(12,0,0,12,354.5,514.6)" />
<use xlink:href="#f0_c" transform="matrix(12,0,0,12,158.4,542.1)" />
<use xlink:href="#f0_d" transform="matrix(12,0,0,12,183.7,542.1)" />
<use xlink:href="#f0_c" transform="matrix(12,0,0,12,255.5,542.1)" />
<use xlink:href="#f0_d" transform="matrix(12,0,0,12,273.5,542.1)" />
<use xlink:href="#f1_18" transform="matrix(12,0,0,12,168.7,514.6)" />
<use xlink:href="#f1_21" transform="matrix(12,0,0,12,218.5,514.6)" />
<use xlink:href="#f1_18" transform="matrix(12,0,0,12,261.4,514.6)" />
<use xlink:href="#f1_1x" transform="matrix(12,0,0,12,165,542.1)" />
<use xlink:href="#f1_2d" transform="matrix(12,0,0,12,174.2,542.1)" />
<use xlink:href="#f1_23" transform="matrix(12,0,0,12,262.9,542.1)" />
<use xlink:href="#f3_f" transform="matrix(6.9,0,0,6.9,184.8,506.1)" />
<use xlink:href="#f3_h" transform="matrix(6.9,0,0,6.9,227,506.1)" />
<use xlink:href="#f3_f" transform="matrix(12,0,0,12,195.8,514.6)" />
<use xlink:href="#f3_34" transform="matrix(12,0,0,12,238.7,514.6)" />
<use xlink:href="#f0_1v" transform="matrix(12,0,0,12,155.8,569.9)" />
<use xlink:href="#f0_1v" transform="matrix(12,0,0,12,165,569.9)" />
<use xlink:href="#f0_1v" transform="matrix(12,0,0,12,174.2,569.9)" />
<use xlink:href="#f0_1v" transform="matrix(12,0,0,12,183.3,569.9)" />
<use xlink:href="#f0_1v" transform="matrix(12,0,0,12,192.5,569.9)" />
<use xlink:href="#f0_1v" transform="matrix(12,0,0,12,201.7,569.9)" />
<use xlink:href="#f0_1v" transform="matrix(12,0,0,12,210.8,569.9)" />
<use xlink:href="#f0_1v" transform="matrix(12,0,0,12,220,569.9)" />
<use xlink:href="#f0_1v" transform="matrix(12,0,0,12,229.2,569.9)" />
<use xlink:href="#f0_1v" transform="matrix(12,0,0,12,238.3,569.9)" />
<use xlink:href="#f0_1v" transform="matrix(12,0,0,12,247.5,569.9)" />
<use xlink:href="#f0_1v" transform="matrix(12,0,0,12,256.6,569.9)" />
<use xlink:href="#f0_1v" transform="matrix(12,0,0,12,265.8,569.9)" />
<use xlink:href="#f0_1v" transform="matrix(12,0,0,12,275,569.9)" />
<use xlink:href="#f0_1v" transform="matrix(12,0,0,12,284.1,569.9)" />
<use xlink:href="#f0_1v" transform="matrix(12,0,0,12,293.3,569.9)" />
<use xlink:href="#f0_1v" transform="matrix(12,0,0,12,302.5,569.9)" />
<use xlink:href="#f0_1v" transform="matrix(12,0,0,12,311.6,569.9)" />
<use xlink:href="#f0_1v" transform="matrix(12,0,0,12,320.8,569.9)" />
<use xlink:href="#f0_1v" transform="matrix(12,0,0,12,330,569.9)" />
<use xlink:href="#f0_1v" transform="matrix(12,0,0,12,339.1,569.9)" />
<use xlink:href="#f0_1v" transform="matrix(12,0,0,12,348.3,569.9)" />
<use xlink:href="#f0_1v" transform="matrix(12,0,0,12,357.5,569.9)" />
<use xlink:href="#f0_1v" transform="matrix(12,0,0,12,366.6,569.9)" />
<use xlink:href="#f0_1v" transform="matrix(12,0,0,12,375.8,569.9)" />
<use xlink:href="#f0_1v" transform="matrix(12,0,0,12,385,569.9)" />
<use xlink:href="#f0_m" transform="matrix(6.9,0,0,6.9,273.2,591.9)" />
<use xlink:href="#f0_m" transform="matrix(6.9,0,0,6.9,318.6,604.8)" />
<use xlink:href="#f0_m" transform="matrix(12,0,0,12,194,600)" />
<use xlink:href="#f0_c" transform="matrix(12,0,0,12,345.4,600)" />
<use xlink:href="#f0_2e" transform="matrix(12,0,0,12,352,600)" />
<use xlink:href="#f0_21" transform="matrix(12,0,0,12,357.9,600)" />
<use xlink:href="#f0_20" transform="matrix(12,0,0,12,366,600)" />
<use xlink:href="#f0_2b" transform="matrix(12,0,0,12,375.1,600)" />
<use xlink:href="#f0_2k" transform="matrix(12,0,0,12,384.3,600)" />
<use xlink:href="#f0_d" transform="matrix(12,0,0,12,394.2,600)" />
<use xlink:href="#f1_1j" transform="matrix(12,0,0,12,158.8,600)" />
<use xlink:href="#f1_2a" transform="matrix(12,0,0,12,167.9,600)" />
<use xlink:href="#f1_18" transform="matrix(12,0,0,12,203.9,600)" />
<use xlink:href="#f1_1j" transform="matrix(12,0,0,12,254.4,600)" />
<use xlink:href="#f1_2a" transform="matrix(12,0,0,12,263.6,600)" />
<use xlink:href="#f1_18" transform="matrix(12,0,0,12,304.3,600)" />
<use xlink:href="#f3_f" transform="matrix(6.9,0,0,6.9,220,591.9)" />
<use xlink:href="#f3_f" transform="matrix(6.9,0,0,6.9,279,591.9)" />
<use xlink:href="#f3_f" transform="matrix(12,0,0,12,180.4,600)" />
<use xlink:href="#f3_34" transform="matrix(12,0,0,12,232.1,600)" />
<use xlink:href="#f3_f" transform="matrix(12,0,0,12,290,600)" />
<use xlink:href="#f0_k" transform="matrix(7,0,0,7,171.6,625.3)" />
<use xlink:href="#f1_1z" transform="matrix(5.1,0,0,5.1,170.9,635.9)" />
<use xlink:href="#f1_21" transform="matrix(5.1,0,0,5.1,174.5,635.9)" />
<use xlink:href="#f1_28" transform="matrix(5.1,0,0,5.1,177.8,635.9)" />
<use xlink:href="#f1_28" transform="matrix(5.1,0,0,5.1,180,635.9)" />
<use xlink:href="#f1_1j" transform="matrix(7,0,0,7,216,638.1)" />
<use xlink:href="#f1_18" transform="matrix(7,0,0,7,221.1,638.1)" />
<use xlink:href="#f1_15" transform="matrix(7,0,0,7,228.8,638.1)" />
<use xlink:href="#f1_1i" transform="matrix(7,0,0,7,266.2,638.1)" />
<use xlink:href="#f1_18" transform="matrix(7,0,0,7,272.4,638.1)" />
<use xlink:href="#f1_15" transform="matrix(7,0,0,7,280.1,638.1)" />
<use xlink:href="#f1_15" transform="matrix(12.1,0,0,12.1,159.1,633.7)" />
<use xlink:href="#f1_15" transform="matrix(12.1,0,0,12.1,204.6,633.7)" />
<use xlink:href="#f1_15" transform="matrix(12.1,0,0,12.1,254.4,633.7)" />
<use xlink:href="#f3_x" transform="matrix(12.1,0,0,12.1,189.9,633.7)" />
<use xlink:href="#f3_h" transform="matrix(12.1,0,0,12.1,240.9,633.7)" />
<use xlink:href="#f0_k" transform="matrix(11.9,0,0,11.9,172.7,666.7)" />
<use xlink:href="#f0_i" transform="matrix(11.9,0,0,11.9,181.9,666.7)" />
<use xlink:href="#f0_k" transform="matrix(11.9,0,0,11.9,186.6,666.7)" />
<use xlink:href="#f0_c" transform="matrix(11.9,0,0,11.9,211.5,666.7)" />
<use xlink:href="#f0_k" transform="matrix(11.9,0,0,11.9,228,666.7)" />
<use xlink:href="#f0_i" transform="matrix(11.9,0,0,11.9,237.2,666.7)" />
<use xlink:href="#f0_l" transform="matrix(11.9,0,0,11.9,241.9,666.7)" />
<use xlink:href="#f0_o" transform="matrix(11.9,0,0,11.9,251.1,666.7)" />
<use xlink:href="#f0_d" transform="matrix(11.9,0,0,11.9,260.3,666.7)" />
<use xlink:href="#f3_x" transform="matrix(11.9,0,0,11.9,158.8,666.7)" />
<use xlink:href="#f3_h" transform="matrix(11.9,0,0,11.9,198.4,666.7)" />
<use xlink:href="#f3_h" transform="matrix(11.9,0,0,11.9,218.2,666.7)" />
<use xlink:href="#f0_k" transform="matrix(12.3,0,0,12.3,172.7,696.1)" />
<use xlink:href="#f0_i" transform="matrix(12.3,0,0,12.3,181.9,696.1)" />
<use xlink:href="#f0_l" transform="matrix(12.3,0,0,12.3,186.3,696.1)" />
<use xlink:href="#f0_o" transform="matrix(12.3,0,0,12.3,195.5,696.1)" />
<use xlink:href="#f1_1m" transform="matrix(12.3,0,0,12.3,203.1,696.1)" />
<use xlink:href="#f3_x" transform="matrix(12.3,0,0,12.3,158.8,696.1)" />
</g>
<path d="M237.6,740.1h51.7" class="g2_12" />
<g clip-path="url(#c0_12)">
<g fill="#000000" >
<use xlink:href="#f3_c" transform="matrix(12.1,0,0,18.1,367,732)" />
</g>
</g>
<g clip-path="url(#c1_12)">
<g fill="#000000" >
<use xlink:href="#f3_d" transform="matrix(12.1,0,0,18.1,401.1,732)" />
</g>
</g>
<path d="M319.2,740.1h88.7" class="g2_12" />
<g fill="#000000" >
<use xlink:href="#f0_m" transform="matrix(4.8,0,0,4.8,392.7,736.4)" />
<use xlink:href="#f0_m" transform="matrix(6.6,0,0,6.6,345.4,721.7)" />
<use xlink:href="#f0_k" transform="matrix(6.6,0,0,6.6,204.2,736.8)" />
<use xlink:href="#f0_m" transform="matrix(6.6,0,0,6.6,381.7,750)" />
<use xlink:href="#f0_1r" transform="matrix(11.4,0,0,11.4,319,729.8)" />
<use xlink:href="#f0_1t" transform="matrix(11.4,0,0,11.4,359.7,729.8)" />
<use xlink:href="#f0_k" transform="matrix(11.4,0,0,11.4,238.3,733.5)" />
<use xlink:href="#f0_i" transform="matrix(11.4,0,0,11.4,247.9,733.5)" />
<use xlink:href="#f0_k" transform="matrix(11.4,0,0,11.4,252.6,733.5)" />
<use xlink:href="#f0_p" transform="matrix(11.4,0,0,11.4,261.8,733.5)" />
<use xlink:href="#f0_t" transform="matrix(11.4,0,0,11.4,271.3,733.5)" />
<use xlink:href="#f0_l" transform="matrix(11.4,0,0,11.4,280.8,733.5)" />
<use xlink:href="#f0_28" transform="matrix(11.4,0,0,11.4,292.2,744.5)" />
<use xlink:href="#f0_2b" transform="matrix(11.4,0,0,11.4,297.3,744.5)" />
<use xlink:href="#f0_23" transform="matrix(11.4,0,0,11.4,306.5,744.5)" />
<use xlink:href="#f0_o" transform="matrix(11.4,0,0,11.4,258.9,758)" />
<use xlink:href="#f1_18" transform="matrix(6.6,0,0,6.6,384.3,734.2)" />
<use xlink:href="#f1_1z" transform="matrix(6.6,0,0,6.6,202.4,748.9)" />
<use xlink:href="#f1_21" transform="matrix(6.6,0,0,6.6,207.2,748.9)" />
<use xlink:href="#f1_28" transform="matrix(6.6,0,0,6.6,211.9,748.9)" />
<use xlink:href="#f1_28" transform="matrix(6.6,0,0,6.6,215.2,748.9)" />
<use xlink:href="#f1_1j" transform="matrix(11.4,0,0,11.4,326,729.8)" />
<use xlink:href="#f1_2a" transform="matrix(11.4,0,0,11.4,335.5,729.8)" />
<use xlink:href="#f1_1g" transform="matrix(11.4,0,0,11.4,375.4,729.8)" />
<use xlink:href="#f1_15" transform="matrix(11.4,0,0,11.4,159.1,744.5)" />
<use xlink:href="#f1_15" transform="matrix(11.4,0,0,11.4,191.4,744.5)" />
<use xlink:href="#f1_18" transform="matrix(11.4,0,0,11.4,347.6,762.4)" />
<use xlink:href="#f3_f" transform="matrix(6.6,0,0,6.6,351.3,721.7)" />
<use xlink:href="#f3_f" transform="matrix(6.6,0,0,6.6,364.1,754.7)" />
<use xlink:href="#f3_x" transform="matrix(11.4,0,0,11.4,176,744.5)" />
<use xlink:href="#f3_h" transform="matrix(11.4,0,0,11.4,223.7,744.5)" />
<use xlink:href="#f3_4r" transform="matrix(11.4,0,0,11.4,338.8,761.7)" />
<use xlink:href="#f3_57" transform="matrix(11.4,0,0,11.4,373.3,761.7)" />
<use xlink:href="#f3_4t" transform="matrix(11.4,0,0,11.4,338.8,769.4)" />
<use xlink:href="#f3_59" transform="matrix(11.4,0,0,11.4,373.3,769.4)" />
</g>
<path d="M239.4,811.6h50.4" class="g3_12" />
<g fill="#000000" >
<use xlink:href="#f3_c" transform="matrix(11.8,0,0,15.6,323.4,834.3)" />
<use xlink:href="#f3_d" transform="matrix(11.8,0,0,15.6,363.7,834.3)" />
</g>
<path d="M319,811.6h62.7" class="g3_12" />
<g fill="#000000" >
<use xlink:href="#f0_m" transform="matrix(6.9,0,0,6.9,370.3,821.8)" />
<use xlink:href="#f0_k" transform="matrix(11.9,0,0,11.9,240.2,804.6)" />
<use xlink:href="#f0_i" transform="matrix(11.9,0,0,11.9,249.3,804.6)" />
<use xlink:href="#f0_k" transform="matrix(11.9,0,0,11.9,254.1,804.6)" />
<use xlink:href="#f0_p" transform="matrix(11.9,0,0,11.9,263.2,804.6)" />
<use xlink:href="#f0_t" transform="matrix(11.9,0,0,11.9,272.4,804.6)" />
<use xlink:href="#f0_l" transform="matrix(11.9,0,0,11.9,281.5,804.6)" />
<use xlink:href="#f0_k" transform="matrix(11.9,0,0,11.9,319.7,804.6)" />
<use xlink:href="#f0_i" transform="matrix(11.9,0,0,11.9,328.8,804.6)" />
<use xlink:href="#f0_k" transform="matrix(11.9,0,0,11.9,333.6,804.6)" />
<use xlink:href="#f0_k" transform="matrix(11.9,0,0,11.9,342.7,804.6)" />
<use xlink:href="#f0_o" transform="matrix(11.9,0,0,11.9,351.9,804.6)" />
<use xlink:href="#f0_l" transform="matrix(11.9,0,0,11.9,373.5,804.6)" />
<use xlink:href="#f0_k" transform="matrix(11.9,0,0,11.9,191,816.3)" />
<use xlink:href="#f0_i" transform="matrix(11.9,0,0,11.9,200.2,816.3)" />
<use xlink:href="#f0_l" transform="matrix(11.9,0,0,11.9,204.6,816.3)" />
<use xlink:href="#f0_o" transform="matrix(11.9,0,0,11.9,213.7,816.3)" />
<use xlink:href="#f0_28" transform="matrix(11.9,0,0,11.9,292.6,816.3)" />
<use xlink:href="#f0_2b" transform="matrix(11.9,0,0,11.9,297.3,816.3)" />
<use xlink:href="#f0_23" transform="matrix(11.9,0,0,11.9,306.5,816.3)" />
<use xlink:href="#f0_m" transform="matrix(11.9,0,0,11.9,260.3,830.3)" />
<use xlink:href="#f0_k" transform="matrix(11.9,0,0,11.9,330.7,832.8)" />
<use xlink:href="#f0_i" transform="matrix(11.9,0,0,11.9,339.9,832.8)" />
<use xlink:href="#f0_k" transform="matrix(11.9,0,0,11.9,344.3,832.8)" />
<use xlink:href="#f0_m" transform="matrix(11.9,0,0,11.9,353.4,832.8)" />
<use xlink:href="#f3_3a" transform="matrix(11.9,0,0,11.9,363,804.6)" />
<use xlink:href="#f3_x" transform="matrix(11.9,0,0,11.9,177.1,816.3)" />
<use xlink:href="#f3_h" transform="matrix(11.9,0,0,11.9,225.9,816.3)" />
</g>
<path d="M308.3,881.3h78.5" class="g4_12" />
<g fill="#000000" >
<use xlink:href="#f0_n" transform="matrix(7,0,0,7,367.4,866.2)" />
<use xlink:href="#f0_o" transform="matrix(7,0,0,7,378.8,892.2)" />
<use xlink:href="#f0_o" transform="matrix(12,0,0,12,321.2,874.3)" />
<use xlink:href="#f0_l" transform="matrix(12,0,0,12,342.8,874.3)" />
<use xlink:href="#f0_k" transform="matrix(12,0,0,12,352,874.3)" />
<use xlink:href="#f0_k" transform="matrix(12,0,0,12,191,886)" />
<use xlink:href="#f0_i" transform="matrix(12,0,0,12,200.2,886)" />
<use xlink:href="#f0_l" transform="matrix(12,0,0,12,204.6,886)" />
<use xlink:href="#f0_o" transform="matrix(12,0,0,12,213.8,886)" />
<use xlink:href="#f0_k" transform="matrix(12,0,0,12,238.7,886)" />
<use xlink:href="#f0_i" transform="matrix(12,0,0,12,247.9,886)" />
<use xlink:href="#f0_k" transform="matrix(12,0,0,12,252.7,886)" />
<use xlink:href="#f0_m" transform="matrix(12,0,0,12,261.9,886)" />
<use xlink:href="#f0_t" transform="matrix(12,0,0,12,271,886)" />
<use xlink:href="#f0_28" transform="matrix(12,0,0,12,282,886)" />
<use xlink:href="#f0_2b" transform="matrix(12,0,0,12,286.8,886)" />
<use xlink:href="#f0_23" transform="matrix(12,0,0,12,296,886)" />
<use xlink:href="#f0_m" transform="matrix(12,0,0,12,309.5,900.3)" />
<use xlink:href="#f0_m" transform="matrix(12,0,0,12,332.9,900.3)" />
<use xlink:href="#f0_l" transform="matrix(12,0,0,12,354.2,900.3)" />
<use xlink:href="#f0_k" transform="matrix(12,0,0,12,363.4,900.3)" />
<use xlink:href="#f3_h" transform="matrix(7,0,0,7,361.5,866.2)" />
<use xlink:href="#f3_h" transform="matrix(7,0,0,7,373.3,892.2)" />
<use xlink:href="#f3_3a" transform="matrix(12,0,0,12,332.2,874.3)" />
<use xlink:href="#f3_x" transform="matrix(12,0,0,12,177.1,886)" />
<use xlink:href="#f3_h" transform="matrix(12,0,0,12,225.9,886)" />
<use xlink:href="#f3_3a" transform="matrix(12,0,0,12,320.5,900.3)" />
<use xlink:href="#f3_3a" transform="matrix(12,0,0,12,343.9,900.3)" />
<use xlink:href="#f0_k" transform="matrix(11.9,0,0,11.9,191,928.5)" />
<use xlink:href="#f0_i" transform="matrix(11.9,0,0,11.9,200.2,928.5)" />
<use xlink:href="#f0_l" transform="matrix(11.9,0,0,11.9,204.6,928.5)" />
<use xlink:href="#f0_o" transform="matrix(11.9,0,0,11.9,213.8,928.5)" />
<use xlink:href="#f0_k" transform="matrix(11.9,0,0,11.9,238.7,928.5)" />
<use xlink:href="#f0_i" transform="matrix(11.9,0,0,11.9,247.8,928.5)" />
<use xlink:href="#f0_k" transform="matrix(11.9,0,0,11.9,252.3,928.5)" />
<use xlink:href="#f0_m" transform="matrix(11.9,0,0,11.9,261.4,928.5)" />
<use xlink:href="#f0_t" transform="matrix(11.9,0,0,11.9,270.6,928.5)" />
<use xlink:href="#f0_28" transform="matrix(11.9,0,0,11.9,281.9,928.5)" />
<use xlink:href="#f0_2b" transform="matrix(11.9,0,0,11.9,286.7,928.5)" />
<use xlink:href="#f0_23" transform="matrix(11.9,0,0,11.9,295.9,928.5)" />
<use xlink:href="#f0_l" transform="matrix(11.9,0,0,11.9,305.8,928.5)" />
<use xlink:href="#f0_k" transform="matrix(11.9,0,0,11.9,314.9,928.5)" />
<use xlink:href="#f3_x" transform="matrix(11.9,0,0,11.9,177.1,928.5)" />
<use xlink:href="#f3_h" transform="matrix(11.9,0,0,11.9,225.9,928.5)" />
</g>
<path d="M159.3,945.4v26.3M265.5,945.4v26.3M158.9,945.8H266" class="g5_12" />
<g fill="#000000" >
<use xlink:href="#f0_k" transform="matrix(11.8,0,0,11.8,210.5,963)" />
<use xlink:href="#f0_i" transform="matrix(11.8,0,0,11.8,219.6,963)" />
<use xlink:href="#f0_l" transform="matrix(11.8,0,0,11.8,224,963)" />
<use xlink:href="#f0_l" transform="matrix(11.8,0,0,11.8,233.2,963)" />
<use xlink:href="#f0_l" transform="matrix(11.8,0,0,11.8,242.4,963)" />
<use xlink:href="#f1_1z" transform="matrix(6.8,0,0,6.8,174.2,967.8)" />
<use xlink:href="#f1_21" transform="matrix(6.8,0,0,6.8,178.9,967.8)" />
<use xlink:href="#f1_28" transform="matrix(6.8,0,0,6.8,183.7,967.8)" />
<use xlink:href="#f1_28" transform="matrix(6.8,0,0,6.8,186.6,967.8)" />
<use xlink:href="#f1_15" transform="matrix(11.8,0,0,11.8,163.2,963)" />
<use xlink:href="#f1_1m" transform="matrix(11.8,0,0,11.8,248.6,963)" />
<use xlink:href="#f3_x" transform="matrix(11.8,0,0,11.8,196.2,963)" />
<use xlink:href="#f5_l" transform="matrix(8,0,0,8,785.4,1264.2)" />
<use xlink:href="#f5_m" transform="matrix(8,0,0,8,792.2,1264.2)" />
</g>
<defs>
<path d="M474,-326c0,0,-112,57,-188,133c0,0,-107,108,-165,254c0,0,-58,147,-58,305c0,0,0,231,114,421c0,0,114,191,297,273v-31c0,0,-92,-51,-151,-139c0,0,-59,-88,-88,-223c0,0,-30,-135,-30,-281c0,0,0,-160,25,-290c0,0,20,-102,47,-164c0,0,28,-62,75,-120c0,0,47,-57,122,-109v-29Z" 
id="f0_c"
transform="scale(0.001,-0.001)" />

<path d="M399,62c0,0,68,0,131,68V481c0,0,-5,51,-27,93c0,0,-22,42,-59,63c0,0,-37,21,-72,21c0,0,-65,0,-117,-59c0,0,-67,-77,-67,-226c0,0,0,-151,65,-231c0,0,66,-80,146,-80ZM330,-20c0,0,-112,0,-196,93c0,0,-83,94,-83,240c0,0,0,147,92,269c0,0,93,122,238,122c0,0,90,0,149,-58V773c0,0,0,117,-6,144c0,0,-5,27,-17,37c0,0,-12,9,-30,9c0,0,-20,0,-52,-12l-9,27l204,83h33V270c0,0,0,-120,6,-146c0,0,5,-27,18,-37c0,0,12,-11,28,-11c0,0,21,0,54,13l9,-26L564,-20H530V78C530,78,480,25,432,2c0,0,-47,-22,-102,-22Z" 
id="f0_20"
transform="scale(0.001,-0.001)" />

<path d="M35,-326v29c0,0,92,51,151,139c0,0,60,87,89,221c0,0,28,136,28,282c0,0,0,159,-24,290c0,0,-19,103,-47,165c0,0,-28,62,-75,119c0,0,-46,57,-122,110v31c0,0,113,-56,188,-132c0,0,107,-109,165,-255c0,0,58,-147,58,-306c0,0,0,-231,-114,-420c0,0,-113,-191,-297,-273Z" 
id="f0_d"
transform="scale(0.001,-0.001)" />

<path d="M474,-21L174,817c0,0,-34,94,-42,112c0,0,-15,28,-41,42c0,0,-26,14,-70,14v27H395V985H377c0,0,-40,0,-60,-18c0,0,-21,-18,-21,-44c0,0,0,-26,33,-120L528,235L696,718l-30,85l-24,68c0,0,-16,37,-35,66c0,0,-10,14,-24,24c0,0,-19,13,-38,19c0,0,-14,5,-44,5v27H894V985H867c0,0,-41,0,-61,-18c0,0,-19,-18,-19,-49c0,0,0,-38,33,-133L1015,235l193,557c0,0,32,93,32,129c0,0,0,17,-10,32c0,0,-11,15,-28,21c0,0,-28,11,-74,11v27h302V985c0,0,-39,0,-64,-15c0,0,-25,-14,-47,-53c0,0,-15,-26,-47,-124L990,-21H960L729,624L501,-21Z" 
id="f0_1n"
transform="scale(0.001,-0.001)" />

<path d="M20,0V26c0,0,45,0,71,15c0,0,15,7,24,28c0,0,9,21,9,85V773c0,0,0,117,-5,144c0,0,-6,27,-17,37c0,0,-12,9,-31,9c0,0,-16,0,-51,-12L10,978l204,83h34V561c0,0,83,91,131,116c0,0,49,26,97,26c0,0,58,0,100,-32c0,0,42,-32,62,-101c0,0,14,-47,14,-174V154c0,0,0,-65,11,-89c0,0,7,-18,25,-28c0,0,18,-11,66,-11V0H418V26h15c0,0,48,0,67,15c0,0,18,15,26,43c0,0,2,12,2,70V396c0,0,0,112,-12,147c0,0,-11,35,-36,53c0,0,-26,17,-61,17c0,0,-37,0,-76,-19c0,0,-40,-20,-95,-79V154c0,0,0,-70,8,-87c0,0,8,-17,29,-29c0,0,22,-12,74,-12V0Z" 
id="f0_24"
transform="scale(0.001,-0.001)" />

<path d="M286,72c0,0,57,0,149,75V407c0,0,-113,-45,-145,-64c0,0,-59,-32,-85,-68c0,0,-25,-36,-25,-78c0,0,0,-54,32,-89c0,0,32,-36,74,-36ZM217,-13c0,0,-71,0,-116,48c0,0,-46,48,-46,127c0,0,0,50,22,87c0,0,31,50,106,95c0,0,76,45,252,109v26c0,0,0,102,-32,140c0,0,-32,38,-94,38c0,0,-47,0,-74,-25c0,0,-28,-25,-28,-58l1,-43c0,0,0,-34,-17,-53c0,0,-18,-18,-47,-18c0,0,-28,0,-45,19c0,0,-18,19,-18,53c0,0,0,64,66,117c0,0,65,54,184,54c0,0,91,0,149,-31c0,0,44,-23,65,-72c0,0,13,-32,13,-131V238c0,0,0,-98,4,-120c0,0,4,-22,12,-29c0,0,9,-8,20,-8c0,0,12,0,21,5c0,0,16,10,61,55V99C676,99,592,-12,516,-12c0,0,-37,0,-58,24c0,0,-22,26,-23,86C435,98,330,17,303,5c0,0,-40,-18,-86,-18Z" 
id="f0_1x"
transform="scale(0.001,-0.001)" />

<path d="M255,-10c0,0,-35,0,-68,18c0,0,-32,19,-48,55c0,0,-16,35,-16,109V632H15v24c0,0,41,16,84,56c0,0,43,39,77,92c0,0,17,29,48,104h23V683H407V632H247V188c0,0,0,-66,19,-90c0,0,19,-23,49,-23c0,0,24,0,47,16c0,0,23,15,36,45h29c0,0,-26,-73,-74,-110c0,0,-47,-36,-98,-36Z" 
id="f0_2g"
transform="scale(0.001,-0.001)" />

<path d="M55,0V26c0,0,50,0,67,10c0,0,17,10,27,32c0,0,10,23,10,86V418c0,0,0,111,-6,144c0,0,-6,24,-17,33c0,0,-11,10,-30,10c0,0,-21,0,-51,-11L45,620l206,83h33V154c0,0,0,-64,9,-85c0,0,9,-22,27,-32c0,0,19,-11,67,-11V0ZM222,909c0,0,-32,0,-54,23c0,0,-22,22,-22,53c0,0,0,32,22,54c0,0,22,22,54,22c0,0,31,0,53,-22c0,0,22,-22,22,-54c0,0,0,-31,-22,-53c0,0,-22,-23,-53,-23Z" 
id="f0_25"
transform="scale(0.001,-0.001)" />

<path d="M312,-20c0,0,-62,0,-143,22c0,0,-25,8,-40,8c0,0,-18,0,-27,-19H77V234h25c0,0,21,-105,80,-158c0,0,59,-53,132,-53c0,0,51,0,84,31c0,0,32,30,32,72c0,0,0,52,-36,87c0,0,-36,35,-144,88c0,0,-109,54,-142,97c0,0,-34,43,-34,107c0,0,0,85,58,141c0,0,58,57,150,57c0,0,40,0,97,-17c0,0,38,-11,51,-11c0,0,12,0,19,5c0,0,7,5,15,23h25V470H464c0,0,-28,110,-72,149c0,0,-45,40,-113,40c0,0,-53,0,-85,-28c0,0,-32,-27,-32,-61c0,0,0,-41,24,-71c0,0,23,-31,94,-65L389,381c0,0,152,-74,152,-194c0,0,0,-94,-71,-151c0,0,-70,-56,-158,-56Z" 
id="f0_2f"
transform="scale(0.001,-0.001)" />

<path d="M397,34c0,0,67,0,126,75c0,0,58,74,58,216c0,0,0,131,-58,201c0,0,-59,70,-133,70c0,0,-39,0,-79,-20c0,0,-29,-14,-75,-59V109c0,0,37,-37,78,-56c0,0,40,-19,83,-19ZM358,-20c0,0,-59,0,-121,21c0,0,-61,22,-126,65V773c0,0,0,117,-5,144c0,0,-6,27,-18,37c0,0,-12,9,-29,9c0,0,-21,0,-53,-12l-9,27l205,83h34V564c0,0,98,139,213,139c0,0,105,0,183,-90c0,0,78,-90,78,-245c0,0,0,-182,-121,-293c0,0,-103,-95,-231,-95Z" 
id="f0_1y"
transform="scale(0.001,-0.001)" />

<path d="M406,32c0,0,72,0,119,60c0,0,47,59,47,205c0,0,0,181,-78,286c0,0,-53,71,-135,71c0,0,-40,0,-79,-23c0,0,-40,-24,-65,-83c0,0,-24,-58,-24,-151c0,0,0,-149,59,-257c0,0,59,-108,156,-108ZM374,-20c0,0,-154,0,-245,122c0,0,-77,104,-77,233c0,0,0,94,46,187c0,0,47,92,123,137c0,0,76,44,161,44c0,0,155,0,249,-118c0,0,80,-100,80,-231c0,0,0,-91,-44,-185C667,169,623,75,546,27c0,0,-77,-47,-172,-47Z" 
id="f0_2b"
transform="scale(0.001,-0.001)" />

<path d="M479,469c0,0,-4,66,-16,93c0,0,-18,42,-55,65c0,0,-37,24,-78,24c0,0,-62,0,-111,-48c0,0,-48,-48,-57,-134ZM355,-20c0,0,-123,0,-211,95c0,0,-87,96,-87,258c0,0,0,175,90,273c0,0,89,98,225,98c0,0,115,0,189,-76c0,0,74,-75,74,-202H162c0,0,0,-152,74,-239c0,0,75,-86,175,-86c0,0,67,0,117,36c0,0,50,37,83,127l24,-15c0,0,-16,-102,-91,-186c0,0,-76,-83,-189,-83Z" 
id="f0_21"
transform="scale(0.001,-0.001)" />

<path d="M411,-239c0,0,134,0,198,48c0,0,64,47,64,100c0,0,0,39,-38,55c0,0,-39,16,-154,19c0,0,-167,5,-258,17c0,0,-35,-37,-53,-70c0,0,-17,-32,-17,-60c0,0,0,-36,43,-62c0,0,74,-47,215,-47ZM380,257c0,0,56,0,93,43c0,0,36,42,36,133c0,0,0,118,-51,185c0,0,-38,49,-98,49c0,0,-55,0,-92,-44c0,0,-37,-44,-37,-135c0,0,0,-117,50,-182c0,0,39,-49,99,-49ZM345,-328c0,0,-144,0,-243,64c0,0,-56,38,-56,78c0,0,0,18,8,36c0,0,13,27,52,76c0,0,5,7,76,80c0,0,-39,23,-55,41c0,0,-16,19,-16,42c0,0,0,26,22,61c0,0,21,35,98,100c0,0,-63,30,-97,85c0,0,-33,55,-33,121c0,0,0,101,76,174c0,0,77,73,196,73c0,0,98,0,170,-48H688c0,0,32,0,37,-2c0,0,6,-2,8,-6c0,0,4,-7,4,-24c0,0,0,-20,-4,-27c0,0,-2,-4,-7,-6c0,0,-6,-2,-38,-2H599c0,0,41,-54,41,-137c0,0,0,-96,-73,-163c0,0,-73,-68,-196,-68c0,0,-51,0,-104,15c0,0,-33,-28,-44,-49c0,0,-12,-22,-12,-37c0,0,0,-12,13,-24c0,0,12,-12,48,-17c0,0,21,-4,104,-6c0,0,154,-4,199,-11c0,0,70,-10,111,-51c0,0,42,-41,42,-102c0,0,0,-84,-79,-158c0,0,-117,-108,-304,-108Z" 
id="f0_23"
transform="scale(0.001,-0.001)" />

<path d="M17,0V26c0,0,52,0,77,17c0,0,19,12,26,38c0,0,4,13,4,73V419c0,0,0,119,-5,142c0,0,-4,23,-17,33c0,0,-13,11,-33,11c0,0,-23,0,-52,-11l-7,26l207,83h31V549c0,0,86,154,176,154c0,0,41,0,68,-25c0,0,27,-25,27,-58c0,0,0,-29,-20,-49c0,0,-19,-20,-46,-20c0,0,-26,0,-58,25c0,0,-33,26,-48,26c0,0,-14,0,-29,-15c0,0,-34,-30,-70,-101V159c0,0,0,-56,15,-85c0,0,9,-20,34,-34c0,0,24,-14,71,-14V0Z" 
id="f0_2e"
transform="scale(0.001,-0.001)" />

<path d="M58,0V26c0,0,47,0,64,10c0,0,18,10,28,32c0,0,9,23,9,86V775c0,0,0,116,-5,142c0,0,-5,27,-17,37c0,0,-11,9,-29,9c0,0,-20,0,-49,-12L46,978l204,83h34V154c0,0,0,-64,9,-85c0,0,9,-21,29,-32c0,0,19,-11,72,-11V0Z" 
id="f0_28"
transform="scale(0.001,-0.001)" />

<path d="M398,24c0,0,74,0,120,58c0,0,61,76,61,214c0,0,0,156,-69,240c0,0,-47,59,-113,59c0,0,-36,0,-71,-18c0,0,-27,-14,-88,-81V242c0,0,0,-83,6,-109c0,0,11,-43,51,-76c0,0,41,-33,103,-33ZM-4,-326v27H15c5,0,42,0,69,16c0,0,14,8,22,26c0,0,7,19,7,94V481c0,0,0,67,-6,85c0,0,-5,18,-18,27c0,0,-13,9,-36,9c0,0,-18,0,-45,-10L0,615l209,85h29V540c0,0,53,91,106,127c0,0,53,36,112,36c0,0,103,0,172,-80c0,0,84,-99,84,-257c0,0,0,-176,-102,-292c0,0,-83,-94,-210,-94c0,0,-55,0,-95,16c0,0,-30,10,-67,44V-167c0,0,0,-71,8,-90c0,0,9,-20,30,-31c0,0,21,-11,77,-11v-27Z" 
id="f0_2c"
transform="scale(0.001,-0.001)" />

<path d="M145,-328c0,0,-44,0,-73,25c0,0,-28,25,-28,58c0,0,0,31,21,50c0,0,20,19,56,19c0,0,25,0,67,-16c0,0,30,-11,38,-11c0,0,22,0,49,23c0,0,26,23,53,89L376,28L131,542c0,0,-11,24,-36,58c0,0,-19,27,-30,36c0,0,-18,12,-56,21v26H328V657H312c0,0,-33,0,-50,-15c0,0,-17,-14,-17,-36c0,0,0,-30,25,-81L437,179L589,557c0,0,12,31,12,62c0,0,0,13,-5,20c0,0,-6,8,-19,13c0,0,-12,5,-44,5v26H754V657c0,0,-27,-3,-42,-12c0,0,-15,-9,-33,-34c0,0,-7,-10,-25,-58L376,-128c0,0,-40,-99,-105,-150c0,0,-66,-50,-126,-50Z" 
id="f0_2l"
transform="scale(0.001,-0.001)" />

<path d="M23,0V26c0,0,47,0,66,10c0,0,19,11,28,33c0,0,10,22,10,85V416c0,0,0,112,-7,145c0,0,-5,25,-16,34c0,0,-11,10,-31,10c0,0,-21,0,-50,-11L12,620l207,83h32V557c0,0,75,75,88,86c0,0,34,29,72,44c0,0,39,16,77,16c0,0,64,0,110,-37c0,0,47,-38,62,-109c0,0,77,90,130,118c0,0,53,28,109,28c0,0,54,0,96,-28c0,0,42,-28,67,-91c0,0,16,-43,16,-136V154c0,0,0,-64,10,-88c0,0,8,-16,28,-28c0,0,20,-12,65,-12V0H844V26h14c0,0,44,0,69,18c0,0,17,12,24,38c0,0,3,13,3,72V448c0,0,0,83,-20,117c0,0,-29,48,-93,48c0,0,-39,0,-79,-20c0,0,-40,-19,-97,-73l-1,-8l2,-32V154c0,0,0,-70,8,-87c0,0,7,-17,29,-29c0,0,21,-12,73,-12V0H431V26c0,0,57,0,78,14c0,0,21,13,29,40c0,0,4,13,4,74V448c0,0,0,83,-25,120c0,0,-33,48,-91,48c0,0,-40,0,-80,-22c0,0,-61,-33,-95,-74V154c0,0,0,-67,10,-87c0,0,9,-20,27,-30c0,0,18,-11,74,-11V0Z" 
id="f0_29"
transform="scale(0.001,-0.001)" />

<path d="M328,-20c0,0,-34,0,-58,24c0,0,-25,24,-25,58c0,0,0,35,25,59c0,0,24,24,58,24c0,0,34,0,59,-24c0,0,24,-24,24,-59c0,0,0,-34,-25,-58c0,0,-24,-24,-58,-24ZM308,238c0,0,5,94,23,155c0,0,18,62,76,172c0,0,44,84,58,129c0,0,13,46,13,92c0,0,0,95,-50,150c0,0,-50,56,-123,56c0,0,-65,0,-102,-30c0,0,-38,-31,-38,-67c0,0,0,-27,23,-67c0,0,22,-41,22,-62c0,0,0,-26,-17,-45c0,0,-17,-18,-42,-18c0,0,-31,0,-57,31c0,0,-26,31,-26,86c0,0,0,85,73,150c0,0,72,64,196,64c0,0,153,0,225,-89c0,0,54,-66,54,-146c0,0,0,-54,-24,-112c0,0,-25,-57,-92,-135C500,552,391,430,367,378c0,0,-24,-51,-29,-140Z" 
id="f0_z"
transform="scale(0.001,-0.001)" />

<path d="M613,-21c0,0,-293,0,-445,186C168,165,54,306,54,490c0,0,0,134,64,256c0,0,76,145,209,224c0,0,111,64,262,64c0,0,55,0,100,-9c0,0,45,-9,128,-39c0,0,42,-16,56,-16c0,0,14,0,24,13c0,0,10,13,12,51h28L963,715H937c0,0,-40,119,-102,179c0,0,-91,88,-232,88c0,0,-193,0,-294,-153c0,0,-84,-129,-84,-307c0,0,0,-144,56,-263c0,0,56,-120,146,-175c0,0,91,-56,186,-56c0,0,56,0,109,15c0,0,52,14,100,41V376c0,0,0,77,-11,101c0,0,-12,23,-36,36c0,0,-24,12,-86,12v27h392V525h-18c0,0,-58,0,-80,-39c0,0,-15,-28,-15,-110V67C968,67,882,21,799,0c0,0,-84,-21,-186,-21Z" 
id="f0_17"
transform="scale(0.001,-0.001)" />

<path d="M376,-20L133,556c0,0,-17,41,-31,58c0,0,-15,18,-39,30c0,0,-12,7,-50,13v26H335V657H314c0,0,-29,0,-44,-14c0,0,-16,-14,-15,-38c0,0,-1,-26,15,-62L429,165L588,557c0,0,17,42,17,64c0,0,0,10,-6,17c0,0,-8,11,-21,15c0,0,-13,4,-52,4v26H750V657c0,0,-39,-3,-54,-16c0,0,-26,-23,-47,-76L409,-20Z" 
id="f0_2i"
transform="scale(0.001,-0.001)" />

<path d="M21,0V26H35c0,0,53,0,71,27c0,0,18,27,18,101V408c0,0,0,123,-5,150c0,0,-6,27,-17,37c0,0,-12,10,-31,10c0,0,-21,0,-50,-11L10,620l206,83h32V558c0,0,120,145,229,145c0,0,56,0,96,-28c0,0,40,-28,64,-92c0,0,16,-45,16,-137V154c0,0,0,-65,11,-88c0,0,8,-19,26,-29c0,0,18,-11,68,-11V0H419V26h14c0,0,47,0,66,15c0,0,20,15,27,43c0,0,3,11,3,70V434c0,0,0,93,-24,135c0,0,-24,42,-81,42c0,0,-88,0,-176,-97V154c0,0,0,-69,9,-86c0,0,10,-21,28,-31c0,0,19,-11,75,-11V0Z" 
id="f0_2a"
transform="scale(0.001,-0.001)" />

<path d="M25,0V26c0,0,27,4,47,19c0,0,29,22,96,111L311,346L182,535c0,0,-55,81,-86,102c0,0,-30,20,-75,20v26H341V657c0,0,-30,0,-42,-10c0,0,-13,-11,-13,-28c0,0,0,-19,27,-56c0,0,8,-12,25,-37l48,-78l56,77c0,0,55,74,55,94c0,0,0,16,0,27c0,0,0,11,0,11v26H674V657c0,0,-37,-2,-64,-20c0,0,-37,-26,-100,-111L416,402L587,156c0,0,63,-91,89,-109c0,0,27,-18,70,-21V0H423V26c0,0,34,0,53,15c0,0,14,11,14,28c0,0,0,17,-48,87L341,302L232,157c0,0,-50,-69,-50,-82c0,0,0,-18,17,-32c0,0,17,-15,50,-17V0Z" 
id="f0_2k"
transform="scale(0.001,-0.001)" />

<path d="M191,-20c0,0,-34,0,-58,24c0,0,-24,24,-24,58c0,0,0,35,24,59c0,0,24,24,58,24c0,0,35,0,59,-24c0,0,24,-25,24,-59c0,0,0,-34,-24,-58c0,0,-25,-24,-59,-24Z" 
id="f0_i"
transform="scale(0.001,-0.001)" />

<path d="M678,393L506,802L330,393ZM11,0V27c0,0,63,12,82,30c0,0,38,35,84,145l356,832h27L912,193c0,0,43,-101,77,-132c0,0,35,-30,97,-34V0H687V27c0,0,60,3,82,21c0,0,21,17,21,41c0,0,0,33,-30,104L700,338H307L239,179c0,0,-26,-59,-26,-88c0,0,0,-23,22,-41c0,0,22,-17,95,-23V0Z" 
id="f0_11"
transform="scale(0.001,-0.001)" />

<path d="M485,53c0,0,135,0,206,61c0,0,71,60,71,150c0,0,0,59,-32,114c0,0,-33,54,-105,85c0,0,-72,32,-179,32c0,0,-46,0,-79,-2c0,0,-33,-1,-53,-5V73c0,0,86,-20,171,-20ZM455,547c0,0,109,0,164,23c0,0,55,24,84,72c0,0,29,49,29,106c0,0,0,89,-72,151c0,0,-73,63,-212,63c0,0,-74,0,-134,-16V557c0,0,27,-5,63,-8c0,0,35,-2,78,-2ZM24,0V27H63c0,0,63,0,91,41c0,0,17,26,17,111V833c0,0,0,94,-22,119c0,0,-29,33,-86,33H24v27H462c0,0,122,0,196,-18c0,0,112,-27,171,-95c0,0,59,-68,59,-157c0,0,0,-76,-46,-136c0,0,-47,-60,-137,-89c0,0,105,-23,157,-72c0,0,73,-69,73,-168c0,0,0,-75,-48,-145C887,132,839,63,756,32C756,32,673,0,502,0Z" 
id="f0_12"
transform="scale(0.001,-0.001)" />

<path d="M336,-20L117,554c0,0,-21,55,-42,74c0,0,-21,19,-66,29v26H296V657c0,0,-40,-3,-52,-14c0,0,-13,-12,-13,-33c0,0,0,-23,13,-56L390,162L537,481L498,581c0,0,-18,46,-47,63c0,0,-17,11,-61,13v26H716V657c0,0,-54,-2,-77,-20c0,0,-15,-12,-15,-39c0,0,0,-15,6,-30L785,177L929,554c0,0,15,40,15,65c0,0,0,14,-15,25c0,0,-14,12,-57,13v26h216V657c0,0,-65,-10,-95,-89L764,-20H733L563,415L363,-20Z" 
id="f0_2j"
transform="scale(0.001,-0.001)" />

<path d="M342,-20c0,0,-116,0,-203,97c0,0,-86,98,-86,264c0,0,0,161,96,261c0,0,95,101,230,101c0,0,100,0,165,-53c0,0,65,-54,65,-111c0,0,0,-29,-18,-46c0,0,-18,-18,-51,-18c0,0,-44,0,-66,29c0,0,-13,15,-17,59c0,0,-4,45,-30,68c0,0,-26,22,-73,22c0,0,-74,0,-120,-55c0,0,-60,-73,-60,-193c0,0,0,-122,60,-216c0,0,60,-93,162,-93c0,0,73,0,131,49c0,0,41,35,80,126l22,-10C629,261,601,125,521,52c0,0,-81,-72,-179,-72Z" 
id="f0_1z"
transform="scale(0.001,-0.001)" />

<path d="M292,-20c0,0,-57,0,-100,33c0,0,-42,33,-58,85c0,0,-17,52,-17,148V551c0,0,0,49,-10,68c0,0,-11,18,-31,29c0,0,-19,9,-68,9c-2,0,-4,0,-6,0v26H242V226c0,0,0,-95,33,-125c0,0,33,-30,80,-30c0,0,32,0,73,21c0,0,40,20,96,76V555c0,0,0,59,-21,80c0,0,-22,21,-89,22v26H647V269c0,0,0,-119,6,-145c0,0,6,-27,18,-37c0,0,12,-11,29,-11c0,0,23,0,52,13L763,63L558,-20H524V124C524,124,436,29,390,4c0,0,-47,-24,-98,-24Z" 
id="f0_2h"
transform="scale(0.001,-0.001)" />

<path d="M63,0V26H93c0,0,30,0,54,15c0,0,25,15,34,41c0,0,10,25,10,99V630H58v53H191v45c0,0,0,102,33,173c0,0,32,71,100,114c0,0,68,44,152,44c0,0,79,0,145,-51c0,0,43,-33,43,-75c0,0,0,-22,-19,-42c0,0,-20,-20,-42,-20c0,0,-17,0,-36,12c0,0,-19,13,-47,53c0,0,-28,41,-51,55c0,0,-23,14,-51,14c0,0,-35,0,-58,-18c0,0,-24,-18,-35,-57c0,0,-10,-38,-10,-197V683H491V630H315V181c0,0,0,-96,21,-122c0,0,27,-33,73,-33h62V0Z" 
id="f0_22"
transform="scale(0.001,-0.001)" />

<path d="M213,-20c0,0,-34,0,-58,24c0,0,-24,24,-24,58c0,0,0,34,24,58c0,0,24,25,58,25c0,0,35,0,59,-25c0,0,24,-24,24,-58c0,0,0,-34,-24,-58c0,0,-25,-24,-59,-24Zm3,559c0,0,-35,0,-59,24c0,0,-24,24,-24,58c0,0,0,35,24,59c0,0,24,24,59,24c0,0,34,0,58,-24c0,0,24,-24,24,-59c0,0,0,-34,-24,-58c0,0,-24,-24,-58,-24Z" 
id="f0_u"
transform="scale(0.001,-0.001)" />

<path d="M62,286V399H448V286Z" 
id="f0_h"
transform="scale(0.001,-0.001)" />

<path d="M435,502c0,0,78,0,134,60c0,0,57,60,57,155c0,0,0,66,-27,122c0,0,-27,56,-76,84c0,0,-50,28,-112,28c0,0,-38,0,-98,-14V517c0,0,39,-8,70,-12c0,0,31,-3,52,-3ZM25,0V27H63c0,0,65,0,92,42c0,0,15,23,15,110V833c0,0,0,96,-20,119c0,0,-29,33,-87,33H25v27H396c0,0,136,0,214,-28c0,0,78,-28,132,-94c0,0,54,-67,54,-158c0,0,0,-124,-82,-202c0,0,-82,-77,-231,-77c0,0,-36,0,-79,5c0,0,-43,5,-91,16V179c0,0,0,-96,21,-119c0,0,28,-33,85,-33h39V0Z" 
id="f0_1g"
transform="scale(0.001,-0.001)" />

<path d="M26,0V27H62c0,0,63,0,91,37c0,0,18,24,18,115V833c0,0,0,77,-10,102c0,0,-7,18,-30,32c0,0,-33,18,-69,18H26v27H459V985H422c0,0,-35,0,-67,-17c0,0,-23,-12,-32,-36c0,0,-9,-25,-9,-99V542H784V833c0,0,0,77,-10,102c0,0,-8,18,-31,32c0,0,-33,18,-68,18H639v27h432V985h-36c0,0,-36,0,-68,-17c0,0,-24,-12,-32,-36c0,0,-9,-25,-9,-99V179c0,0,0,-77,10,-102c0,0,7,-18,31,-32c0,0,32,-18,68,-18h36V0H639V27h36c0,0,62,0,90,37c0,0,19,24,19,115V487H314V179c0,0,0,-77,9,-102c0,0,8,-18,32,-32c0,0,32,-18,67,-18h37V0Z" 
id="f0_18"
transform="scale(0.001,-0.001)" />

<path d="M553,-21L174,849c0,0,-29,67,-41,82c0,0,-19,24,-46,37c0,0,-27,13,-73,17v27H427V985c0,0,-70,-7,-91,-24c0,0,-21,-17,-21,-44c0,0,0,-38,34,-117L607,207L846,793c0,0,35,86,35,120c0,0,0,22,-22,41c0,0,-21,20,-73,28c0,0,-4,1,-13,3v27h311V985c0,0,-53,-10,-81,-35c0,0,-39,-37,-70,-112L581,-21Z" 
id="f0_1m"
transform="scale(0.001,-0.001)" />

<path d="M473,53c0,0,173,0,287,121c0,0,114,122,114,330c0,0,0,210,-114,330c0,0,-114,121,-293,121c0,0,-67,0,-153,-21V74c0,0,95,-21,159,-21ZM26,0V27H64c0,0,64,0,91,41c0,0,16,25,16,111V833c0,0,0,95,-21,119c0,0,-29,33,-86,33H26v27H438c0,0,226,0,345,-51c0,0,118,-52,190,-172c0,0,72,-120,72,-278c0,0,0,-211,-129,-353C916,158,773,0,478,0Z" 
id="f0_14"
transform="scale(0.001,-0.001)" />

<path d="M911,-16L244,799V175c0,0,0,-93,21,-116c0,0,28,-32,86,-32h36V0H36V27H71c0,0,65,0,92,39c0,0,16,24,16,109V879c0,0,-44,52,-67,68c0,0,-23,17,-67,31c0,0,-21,7,-64,7v27H253L873,253V837c0,0,0,93,-21,116c0,0,-28,32,-87,32H730v27h351V985h-36c0,0,-64,0,-91,-39c0,0,-16,-24,-16,-109V-16Z" 
id="f0_1e"
transform="scale(0.001,-0.001)" />

<path d="M33,0V27c0,0,264,241,371,393c0,0,108,152,108,278c0,0,0,96,-59,158c0,0,-59,62,-141,62c0,0,-75,0,-134,-43c0,0,-59,-44,-88,-128H63c0,0,18,138,95,212c0,0,77,74,193,74c0,0,123,0,205,-80c0,0,83,-79,83,-186c0,0,0,-77,-36,-154c0,0,-55,-121,-179,-256C424,357,238,154,191,112H455c0,0,81,0,114,6c0,0,32,6,58,25c0,0,27,18,46,52h27L630,0Z" 
id="f0_m"
transform="scale(0.001,-0.001)" />

<path d="M405,24c0,0,65,0,116,62c0,0,51,61,51,174c0,0,0,128,-50,221c0,0,-51,93,-144,93c0,0,-29,0,-61,-12c0,0,-33,-12,-96,-51c0,0,-14,-101,-14,-163c0,0,0,-72,27,-155c0,0,26,-84,79,-134c0,0,38,-35,92,-35ZM384,-17c0,0,-104,0,-177,68C207,51,66,185,66,397c0,0,0,136,54,258c0,0,54,122,156,217c0,0,101,95,193,128c0,0,93,33,172,33h44v-28c0,0,-99,-10,-161,-39c0,0,-62,-29,-123,-90c0,0,-61,-60,-101,-135c0,0,-39,-74,-66,-176c0,0,107,73,215,73c0,0,104,0,180,-83c0,0,76,-84,76,-215c0,0,0,-126,-77,-231c0,0,-92,-126,-244,-126Z" 
id="f0_q"
transform="scale(0.001,-0.001)" />

<path d="M452,373V875L97,373ZM452,0V267H23v95l470,671h82V373H711V267H575V0Z" 
id="f0_o"
transform="scale(0.001,-0.001)" />

<path d="M379,437c0,0,34,0,81,16c0,0,47,17,83,47c0,0,14,97,14,155c0,0,0,72,-25,156c0,0,-25,83,-70,128c0,0,-45,45,-103,45c0,0,-66,0,-116,-60c0,0,-50,-59,-50,-177c0,0,0,-157,66,-246c0,0,49,-64,120,-64ZM80,-20V7c0,0,97,1,181,45c0,0,83,44,161,153c0,0,78,109,109,240c0,0,-117,-75,-212,-75c0,0,-107,0,-183,82c0,0,-76,82,-76,219c0,0,0,132,76,236c0,0,92,126,240,126c0,0,124,0,213,-103c0,0,109,-128,109,-315c0,0,0,-169,-82,-314C616,301,533,155,385,59c0,0,-120,-79,-262,-79Z" 
id="f0_t"
transform="scale(0.001,-0.001)" />

<path d="M394,23c0,0,80,0,129,45c0,0,48,45,48,110c0,0,0,54,-28,97c0,0,-53,79,-214,206c0,0,-62,-52,-92,-114c0,0,-30,-61,-30,-133c0,0,0,-96,53,-154c0,0,52,-57,134,-57Zm17,566c0,0,90,81,114,128c0,0,24,46,24,105c0,0,0,79,-44,123c0,0,-44,45,-121,45c0,0,-76,0,-124,-45c0,0,-48,-44,-48,-103c0,0,0,-38,20,-77c0,0,20,-39,56,-74L411,589ZM382,-17c0,0,-144,0,-225,90c0,0,-64,72,-64,158c0,0,0,67,45,133c0,0,45,66,156,146c0,0,-121,98,-156,158c0,0,-34,59,-34,124c0,0,0,98,76,169c0,0,76,72,202,72c0,0,123,0,198,-67c0,0,74,-66,74,-151c0,0,0,-57,-40,-116c0,0,-40,-59,-168,-139c0,0,132,-101,174,-159c0,0,57,-76,57,-161c0,0,0,-106,-82,-182c0,0,-81,-75,-213,-75Z" 
id="f0_s"
transform="scale(0.001,-0.001)" />

<path d="M25,0V27H61c0,0,63,0,91,37c0,0,18,24,18,115V833c0,0,0,77,-10,102c0,0,-7,18,-30,32c0,0,-33,18,-69,18H25v27H456V985H421c0,0,-35,0,-67,-18c0,0,-23,-11,-32,-35c0,0,-9,-24,-9,-99V523c0,0,15,15,102,95c0,0,222,203,268,271c0,0,20,30,20,52c0,0,0,18,-15,31c0,0,-16,13,-53,13H611v27H983V985c0,0,-33,-1,-60,-9c0,0,-26,-9,-65,-32c0,0,-39,-24,-96,-76c0,0,-16,-15,-151,-153L456,561L829,190c0,0,92,-92,157,-125c0,0,65,-33,130,-38V0H634V27c0,0,43,0,62,15c0,0,19,15,19,32c0,0,0,18,-7,33c0,0,-7,14,-46,53L313,506V179c0,0,0,-77,10,-102c0,0,7,-18,31,-32c0,0,32,-18,67,-18h35V0Z" 
id="f0_1b"
transform="scale(0.001,-0.001)" />

<path d="M11,-21L94,353h25c0,0,-5,-54,-5,-90c0,0,0,-102,65,-167c0,0,66,-64,171,-64c0,0,98,0,149,60c0,0,51,60,51,138c0,0,0,51,-23,93c0,0,-36,62,-188,217c0,0,-74,75,-95,111c0,0,-35,61,-35,127c0,0,0,106,80,181c0,0,79,75,203,75c0,0,42,0,79,-8c0,0,24,-4,85,-30c0,0,43,-17,48,-19c0,0,10,-2,23,-2c0,0,22,0,37,11c0,0,16,12,37,48h27L751,699H726c0,0,3,45,3,72c0,0,0,90,-60,148c0,0,-60,57,-158,57c0,0,-77,0,-126,-46c0,0,-49,-45,-49,-105c0,0,0,-52,31,-99c0,0,31,-47,143,-154c0,0,112,-107,145,-167c0,0,33,-60,33,-128c0,0,0,-77,-41,-149C647,128,606,57,530,17c0,0,-76,-38,-167,-38c0,0,-45,0,-83,8c0,0,-39,8,-125,39c0,0,-29,11,-48,11c0,0,-44,0,-69,-58Z" 
id="f1_1j"
transform="scale(0.001,-0.001)" />

<path d="M504,-17c0,0,-27,0,-42,17c0,0,-16,16,-16,44c0,0,0,36,29,123l98,300c0,0,18,56,18,87c0,0,0,15,-10,24c0,0,-11,10,-26,10c0,0,-23,0,-54,-18c0,0,-60,-34,-124,-111c0,0,-65,-77,-137,-197c0,0,-38,-63,-63,-139L141,0H29L163,467c0,0,24,85,24,102c0,0,0,16,-13,28c0,0,-13,13,-32,13c0,0,-9,0,-30,-3L84,602l-7,27l257,46L238,340c0,0,149,205,228,270c0,0,79,65,152,65c0,0,40,0,66,-27c0,0,26,-27,26,-70c0,0,0,-44,-25,-118L584,149c0,0,-17,-54,-17,-66c0,0,0,-10,5,-17c0,0,5,-7,11,-7c0,0,8,0,20,9c0,0,35,31,77,95l23,-14C703,149,637,51,578,10c0,0,-42,-27,-74,-27Z" 
id="f1_2a"
transform="scale(0.001,-0.001)" />

<path d="M-13,-17L32,225H60c0,0,4,-114,47,-161c0,0,42,-47,117,-47c0,0,57,0,90,31c0,0,33,32,33,78c0,0,0,30,-12,55c0,0,-21,45,-87,124c0,0,-67,79,-86,119c0,0,-19,39,-19,79c0,0,0,72,52,122c0,0,53,50,136,50c0,0,24,0,43,-4c0,0,11,-2,49,-17c0,0,39,-15,51,-15c0,0,32,0,54,36h28L510,446H483c0,0,-4,100,-42,146c0,0,-39,46,-97,46c0,0,-46,0,-73,-26c0,0,-28,-25,-28,-61c0,0,0,-25,11,-47c0,0,11,-22,48,-63c0,0,97,-106,125,-159c0,0,29,-54,29,-102c0,0,0,-77,-65,-138c0,0,-65,-59,-164,-59c0,0,-54,0,-124,25c0,0,-25,9,-38,9c0,0,-34,0,-51,-34Z" 
id="f1_2f"
transform="scale(0.001,-0.001)" />

<path d="M120,-328V1061h62V-328Z" 
id="f0_2o"
transform="scale(0.001,-0.001)" />

<path d="M355,0V355H0v72H355V784h72V427H782V355H427V0Z" 
id="f2_f"
transform="scale(0.001,-0.001)" />

<path d="M379,29c0,0,41,0,84,37c0,0,43,36,65,121c0,0,34,128,34,362c0,0,0,173,-35,288c0,0,-27,86,-69,122c0,0,-31,25,-74,25c0,0,-51,0,-90,-46c0,0,-54,-62,-73,-195c0,0,-20,-132,-20,-261c0,0,0,-209,52,-341c0,0,42,-112,126,-112Zm-2,-46c0,0,-145,0,-241,170c0,0,-81,144,-81,347c0,0,0,173,52,298c0,0,52,125,139,186c0,0,67,49,139,49c0,0,116,0,208,-119c0,0,116,-147,116,-398c0,0,0,-176,-51,-299C658,217,608,94,529,38c0,0,-79,-55,-152,-55Z" 
id="f0_k"
transform="scale(0.001,-0.001)" />

<path d="M2,0l8,26H31c0,0,73,0,106,35c0,0,24,24,50,107L403,923c0,0,-25,33,-47,44c0,0,-22,12,-83,19l8,26H536L637,193l595,819h239V986c0,0,-80,-6,-94,-12c0,0,-25,-11,-46,-43c0,0,-20,-32,-44,-124L1102,165c0,0,-16,-50,-16,-79c0,0,0,-27,20,-40c0,0,28,-20,89,-20h18L1206,0H787l7,26h20c0,0,57,0,87,17c0,0,23,12,41,45c0,0,18,34,51,148l166,587L564,0H533L431,823L254,197c0,0,-23,-80,-23,-108c0,0,0,-28,20,-43c0,0,20,-14,97,-20L340,0Z" 
id="f1_1d"
transform="scale(0.001,-0.001)" />

<path d="M-39,0l10,26c0,0,58,2,77,11c0,0,30,13,44,34c0,0,20,31,48,128L314,811c0,0,21,75,21,114c0,0,0,20,-9,33c0,0,-9,14,-29,21c0,0,-20,7,-77,7l9,26H626l-8,-26c0,0,-1,0,-2,0c-9,0,-51,-1,-72,-11c0,0,-35,-15,-51,-39c0,0,-23,-33,-50,-124L372,560H843l72,251c0,0,21,74,21,114c0,0,0,19,-9,33c0,0,-10,14,-29,21c0,0,-20,7,-76,7l7,26h405l-9,-26h-2c-9,0,-52,-1,-74,-11c0,0,-36,-16,-53,-40c0,0,-25,-35,-50,-124L867,186c0,0,-22,-71,-22,-101c0,0,0,-27,19,-40c0,0,20,-14,95,-19L950,0H563l10,26c0,0,58,2,78,11c0,0,29,13,43,34c0,0,19,30,48,128l88,309H357L266,186c0,0,-22,-70,-22,-101c0,0,0,-27,19,-40c0,0,20,-14,94,-19L351,0Z" 
id="f1_18"
transform="scale(0.001,-0.001)" />

<path d="M290,-283c0,0,107,0,183,37c0,0,76,36,76,93c0,0,0,29,-28,55c0,0,-28,27,-109,43c0,0,-44,9,-232,55c0,0,-60,-27,-91,-70c0,0,-31,-43,-31,-85c0,0,0,-49,44,-81c0,0,65,-47,188,-47Zm53,531c0,0,39,0,76,22c0,0,37,22,63,60c0,0,25,38,40,96c0,0,15,59,15,85c0,0,0,60,-33,94c0,0,-33,34,-87,34c0,0,-85,0,-139,-84c0,0,-55,-85,-55,-176c0,0,0,-58,35,-94c0,0,35,-37,85,-37ZM269,-328c0,0,-92,0,-168,21c0,0,-76,22,-108,60c0,0,-33,37,-33,76c0,0,0,32,21,67c0,0,21,35,53,57c0,0,20,14,114,66c0,0,-35,27,-35,59c0,0,0,30,31,63c0,0,30,34,127,74c0,0,-82,16,-130,69c0,0,-48,53,-48,118c0,0,0,106,93,189c0,0,93,84,247,84c0,0,56,0,92,-11c0,0,36,-12,70,-35H796L774,551H650c0,0,14,-40,14,-75c0,0,0,-99,-84,-176c0,0,-84,-77,-231,-85c0,0,-79,-24,-118,-57c0,0,-15,-12,-15,-25c0,0,0,-14,13,-27c0,0,14,-12,68,-25L442,48c0,0,120,-28,159,-66c0,0,38,-39,38,-91c0,0,0,-61,-46,-111c0,0,-45,-51,-132,-80c0,0,-87,-28,-192,-28Z" 
id="f1_23"
transform="scale(0.001,-0.001)" />

<path d="M197,0V27c0,0,71,2,92,13c0,0,21,10,29,29c0,0,9,18,9,109V725c0,0,0,110,-8,141c0,0,-5,24,-19,35c0,0,-14,11,-33,11c0,0,-28,0,-77,-23l-11,23l246,121h25V178c0,0,0,-85,7,-106c0,0,7,-21,29,-32c0,0,23,-11,91,-13V0Z" 
id="f0_l"
transform="scale(0.001,-0.001)" />

<path d="M512,518c0,0,82,0,149,34c0,0,67,33,105,101c0,0,38,67,38,140c0,0,0,75,-47,119c0,0,-47,44,-142,44c0,0,-52,0,-125,-12L376,541c0,0,85,-23,136,-23ZM-35,0l8,26c0,0,78,0,109,28c0,0,31,27,67,151L312,782c0,0,30,104,30,139c0,0,0,26,-21,44c0,0,-21,17,-94,21l9,26H636c0,0,157,0,235,-68c0,0,78,-67,78,-164c0,0,0,-77,-50,-150c0,0,-49,-72,-147,-117c0,0,-97,-46,-210,-46c0,0,-71,0,-179,27L280,203c0,0,-28,-92,-28,-121c0,0,0,-22,20,-37c0,0,20,-14,96,-19L361,0Z" 
id="f1_1g"
transform="scale(0.001,-0.001)" />

<path d="M133,-17c0,0,-31,0,-50,20C83,3,63,23,63,55c0,0,0,40,25,123L228,609H104l8,30c0,0,82,23,139,67c0,0,57,44,128,154h33L351,657H456L443,609H337L203,171c0,0,-25,-75,-25,-97c0,0,0,-12,5,-19c0,0,5,-6,13,-6c0,0,16,0,44,25c0,0,15,15,71,92l24,-19C335,147,270,48,213,9c0,0,-40,-26,-80,-26Z" 
id="f1_2g"
transform="scale(0.001,-0.001)" />

<path d="M2,-20L369,1061h59L62,-20Z" 
id="f0_j"
transform="scale(0.001,-0.001)" />

<path d="M-33,0l9,26c0,0,58,2,78,11c0,0,30,13,43,34c0,0,20,31,48,130L318,812c0,0,21,74,21,113c0,0,0,28,-20,45c0,0,-20,16,-77,16H226l9,26H966L904,769H878c0,0,5,34,5,57c0,0,0,39,-20,66c0,0,-25,34,-74,52c0,0,-36,13,-166,13H488L374,557h99c0,0,102,0,148,31c0,0,46,31,79,115h26L623,336H593c0,0,13,46,13,79c0,0,0,32,-13,52c0,0,-13,19,-36,28c0,0,-23,10,-95,10H361L263,156c0,0,-14,-43,-14,-66c0,0,0,-17,19,-30c0,0,13,-9,65,-9h93c0,0,145,0,233,51c0,0,87,52,157,180h27L747,0Z" 
id="f1_15"
transform="scale(0.001,-0.001)" />

<path d="M232,-21l84,842c0,0,6,64,6,86c0,0,0,34,-25,56c0,0,-25,23,-79,23H191l7,26H598l-9,-26c0,0,-64,-1,-89,-14c0,0,-24,-13,-38,-44c0,0,-8,-16,-16,-94L387,231L781,769c0,0,65,88,81,123c0,0,11,23,11,40c0,0,0,20,-17,36c0,0,-17,15,-64,18l9,26h304l-8,-26c0,0,-36,-3,-58,-15c0,0,-41,-19,-82,-59c0,0,-40,-39,-128,-159L259,-21Z" 
id="f1_1m"
transform="scale(0.001,-0.001)" />

<path d="M355,0V355H0v72H355V784h72V427H782V355H427V0Z" 
id="f3_f"
transform="scale(0.001,-0.001)" />

<path d="M0,214v74H784V214ZM0,494v72H784V494Z" 
id="f3_x"
transform="scale(0.001,-0.001)" />

<path d="M0,356v74H784V356Z" 
id="f3_h"
transform="scale(0.001,-0.001)" />

<path d="M610,-21c0,0,-162,0,-287,63c0,0,-126,65,-194,187c0,0,-68,121,-68,258c0,0,0,145,75,275c0,0,76,129,205,201c0,0,128,71,273,71c0,0,107,0,225,-46c0,0,69,-27,88,-27c0,0,24,0,41,18c0,0,18,17,23,55h29V683H991c0,0,-33,138,-122,211c0,0,-90,73,-203,73c0,0,-95,0,-174,-54c0,0,-79,-55,-116,-143c0,0,-47,-112,-47,-250c0,0,0,-135,34,-247c0,0,35,-111,108,-168c0,0,73,-57,189,-57c0,0,96,0,175,42c0,0,80,41,168,144V146c0,0,-85,-89,-178,-129c0,0,-92,-38,-215,-38Z" 
id="f4_13"
transform="scale(0.001,-0.001)" />

<path d="M458,424c0,0,0,120,-13,165c0,0,-13,44,-40,67c0,0,-16,14,-42,14c0,0,-39,0,-63,-38c0,0,-44,-66,-44,-182V424ZM358,-20c0,0,-155,0,-235,119c0,0,-64,96,-64,239c0,0,0,174,94,277c0,0,94,104,221,104c0,0,106,0,184,-87c0,0,78,-87,84,-257H259c0,0,7,-139,74,-220c0,0,51,-62,124,-62c0,0,45,0,81,25c0,0,37,25,79,90l25,-16C642,192,585,76,517,28c0,0,-69,-48,-159,-48Z" 
id="f4_21"
transform="scale(0.001,-0.001)" />

<path d="M32,0V26c0,0,46,2,69,27c0,0,14,18,14,92V867c0,0,0,74,-17,94c0,0,-17,21,-66,24v27H325V145c0,0,0,-74,17,-95c0,0,17,-21,68,-24V0Z" 
id="f4_28"
transform="scale(0.001,-0.001)" />

<path d="M57,0V26c0,0,45,4,61,25c0,0,16,22,16,113V550c0,0,0,59,-6,76c0,0,-7,21,-22,30c0,0,-14,10,-49,14v27H342l1,-158c0,0,69,109,121,144c0,0,52,36,100,36c0,0,42,0,66,-26c0,0,25,-26,25,-73c0,0,0,-50,-24,-77c0,0,-25,-28,-59,-28c0,0,-39,0,-68,25c0,0,-28,26,-33,29c0,0,-8,4,-17,4c0,0,-22,0,-41,-16c0,0,-31,-26,-46,-73c0,0,-24,-72,-24,-159V122c0,0,0,-42,5,-54c0,0,9,-21,27,-30c0,0,17,-9,59,-12V0Z" 
id="f4_2e"
transform="scale(0.001,-0.001)" />

<path d="M350,115c0,0,37,0,86,42V391c0,0,-90,-53,-134,-113c0,0,-29,-41,-29,-82c0,0,0,-34,24,-60c0,0,19,-21,53,-21ZM207,-9c0,0,-59,0,-99,38c0,0,-40,40,-40,99c0,0,0,80,69,143c0,0,69,64,299,170v70c0,0,0,79,-8,100c0,0,-9,20,-33,36c0,0,-23,15,-53,15c0,0,-49,0,-80,-22c0,0,-19,-13,-19,-31c0,0,0,-16,21,-39c0,0,28,-32,28,-62c0,0,0,-36,-27,-62c0,0,-27,-26,-71,-26c0,0,-47,0,-79,29c0,0,-32,28,-32,66c0,0,0,54,43,103c0,0,42,48,118,75c0,0,76,26,158,26c0,0,99,0,157,-42c0,0,58,-43,75,-92c0,0,11,-31,11,-144V170c0,0,0,-47,3,-60c0,0,4,-12,11,-18c0,0,8,-6,18,-6c0,0,19,0,39,28L738,96c0,0,-37,-56,-77,-81c0,0,-40,-24,-90,-24c0,0,-60,0,-94,27c0,0,-33,28,-41,85C436,103,309,-9,207,-9Z" 
id="f4_1x"
transform="scale(0.001,-0.001)" />

<path d="M365,-20c0,0,-139,0,-223,105c0,0,-83,105,-83,253c0,0,0,142,76,250c0,0,92,131,253,131c0,0,108,0,172,-55c0,0,63,-54,63,-121c0,0,0,-43,-25,-68c0,0,-26,-25,-68,-25c0,0,-44,0,-73,29c0,0,-28,29,-35,104c0,0,-5,47,-22,65c0,0,-17,19,-40,19c0,0,-36,0,-61,-38c0,0,-39,-58,-39,-176c0,0,0,-99,31,-188c0,0,32,-90,86,-134c0,0,41,-32,97,-32c0,0,36,0,69,17c0,0,33,17,78,65l23,-18C644,163,595,70,521,25c0,0,-73,-45,-156,-45Z" 
id="f4_1z"
transform="scale(0.001,-0.001)" />

<path d="M298,-9c0,0,-67,0,-113,36c0,0,-46,37,-58,83c0,0,-8,25,-8,137V624H28v26c0,0,94,66,161,139c0,0,66,73,115,163h25V697H494V624H329V193c0,0,0,-60,5,-78c0,0,6,-17,20,-28c0,0,14,-11,26,-11c0,0,48,0,92,75l22,-17C494,134,434,-9,298,-9Z" 
id="f4_2g"
transform="scale(0.001,-0.001)" />

<path d="M32,0V26c0,0,46,2,69,27c0,0,14,18,14,92V551c0,0,0,75,-17,95c0,0,-17,21,-66,24v27H325V145c0,0,0,-74,17,-95c0,0,17,-21,68,-24V0ZM220,804c0,0,-48,0,-82,33c0,0,-33,34,-33,82c0,0,0,48,33,82c0,0,34,33,82,33c0,0,48,0,82,-33c0,0,33,-34,33,-82c0,0,0,-48,-34,-82c0,0,-34,-33,-81,-33Z" 
id="f4_25"
transform="scale(0.001,-0.001)" />

<path d="M381,31c0,0,33,0,56,19c0,0,29,25,38,71c0,0,15,71,15,286c0,0,0,127,-14,174c0,0,-14,48,-42,69c0,0,-19,16,-50,16c0,0,-38,0,-65,-29c0,0,-27,-29,-36,-113c0,0,-8,-85,-8,-235c0,0,0,-80,10,-150c0,0,8,-53,35,-80c0,0,27,-28,61,-28Zm2,-51c0,0,-157,0,-242,110c0,0,-85,110,-85,256c0,0,0,150,87,261c0,0,86,112,238,112c0,0,90,0,169,-47c0,0,78,-47,119,-134c0,0,40,-86,40,-189c0,0,0,-149,-75,-249c0,0,-91,-120,-251,-120Z" 
id="f4_2b"
transform="scale(0.001,-0.001)" />

<path d="M52,0V26c0,0,44,5,62,29c0,0,13,16,13,97V546c0,0,0,79,-14,98c0,0,-15,20,-61,26v27H336V607c0,0,54,59,104,85c0,0,49,27,106,27c0,0,68,0,113,-38c0,0,44,-38,59,-94c0,0,12,-42,12,-163V152c0,0,0,-81,15,-101c0,0,14,-19,61,-25V0H452V26c0,0,40,6,57,33c0,0,12,19,12,93V462c0,0,0,86,-7,109c0,0,-6,22,-22,35c0,0,-16,12,-36,12c0,0,-64,0,-120,-92V152c0,0,0,-79,15,-100c0,0,15,-20,55,-26V0Z" 
id="f4_2a"
transform="scale(0.001,-0.001)" />

<path d="M254,-18c0,0,-51,0,-88,36c0,0,-36,36,-36,87c0,0,0,52,36,88c0,0,37,37,88,37c0,0,53,0,89,-37c0,0,36,-36,36,-88c0,0,0,-51,-36,-87c0,0,-37,-36,-89,-36Zm2,488c0,0,-52,0,-88,36c0,0,-36,37,-36,88c0,0,0,51,36,88c0,0,36,36,88,36c0,0,51,0,87,-36c0,0,36,-37,36,-88c0,0,0,-51,-36,-88c0,0,-36,-36,-87,-36Z" 
id="f4_u"
transform="scale(0.001,-0.001)" />

<path d="M37,274V428H473V274Z" 
id="f4_h"
transform="scale(0.001,-0.001)" />

<path d="M545,30c0,0,143,0,236,111c0,0,93,111,93,351c0,0,0,259,-103,386c0,0,-82,102,-226,102c0,0,-136,0,-218,-101C327,879,225,754,225,512c0,0,0,-247,106,-380c0,0,81,-102,214,-102Zm2,-51c0,0,-209,0,-351,147C196,126,54,274,54,510c0,0,0,240,164,393c0,0,142,131,341,131c0,0,197,0,341,-149c0,0,145,-149,145,-373c0,0,0,-230,-146,-382C899,130,754,-21,547,-21Z" 
id="f0_1f"
transform="scale(0.001,-0.001)" />

<path d="M187,318c0,0,111,12,181,43c0,0,92,41,138,98c0,0,46,57,46,108c0,0,0,32,-20,51c0,0,-20,20,-56,20c0,0,-77,0,-163,-81c0,0,-85,-81,-126,-239ZM268,-17c0,0,-110,0,-165,68c0,0,-55,69,-55,151c0,0,0,111,69,228c0,0,68,116,172,180c0,0,104,65,213,65c0,0,79,0,118,-32c0,0,38,-32,38,-76c0,0,0,-62,-50,-119c0,0,-65,-73,-191,-119c0,0,-84,-30,-235,-47c0,0,-5,-38,-5,-62c0,0,0,-67,47,-114c0,0,47,-46,114,-46c0,0,54,0,104,22c0,0,50,22,148,97l15,-21C605,158,428,-17,268,-17Z" 
id="f1_21"
transform="scale(0.001,-0.001)" />

<path d="M251,69c0,0,93,0,201,118c0,0,131,157,126,322c0,0,0,62,-26,90c0,0,-27,28,-74,28c0,0,-52,0,-110,-44c0,0,-83,-62,-148,-185c0,0,-64,-122,-64,-221c0,0,0,-50,28,-79c0,0,29,-29,67,-29ZM183,-17c0,0,-60,0,-103,44C80,27,36,71,36,149c0,0,0,117,77,247c0,0,77,130,195,208c0,0,92,62,174,62c0,0,49,0,82,-22c0,0,32,-22,49,-73l24,77l115,18L609,160L593,92c0,0,-2,-10,-2,-17c0,0,0,-10,5,-19c0,0,4,-6,11,-6c0,0,6,0,17,11c0,0,21,20,55,88l25,-18c0,0,-43,-75,-89,-112c0,0,-45,-36,-84,-36c0,0,-27,0,-42,16c0,0,-15,15,-15,46c0,0,0,36,17,96l16,55C507,196,399,69,309,19c0,0,-64,-36,-126,-36Z" 
id="f1_1x"
transform="scale(0.001,-0.001)" />

<path d="M247,72c0,0,46,0,103,51c0,0,88,77,145,198c0,0,58,120,58,208c0,0,0,48,-29,78c0,0,-29,31,-72,31c0,0,-90,0,-191,-157C261,481,161,325,161,186c0,0,0,-56,25,-85c0,0,25,-29,61,-29ZM192,-326l8,27c0,0,73,6,91,13c0,0,28,11,46,36c0,0,19,26,41,108L480,224C480,224,381,80,296,22c0,0,-60,-40,-112,-40c0,0,-75,0,-113,60c0,0,-38,61,-38,132c0,0,0,112,69,236c0,0,69,124,182,203c0,0,88,62,159,62c0,0,53,0,87,-26c0,0,34,-26,51,-83l25,84l116,25L481,-167c0,0,-17,-59,-17,-75c0,0,0,-17,9,-30c0,0,8,-12,23,-18c0,0,23,-9,61,-9l-8,-27Z" 
id="f1_2d"
transform="scale(0.001,-0.001)" />

<path d="M968,-20c0,0,42,100,87,170c0,0,45,70,144,184H56v73H1199c0,0,-106,122,-148,189c0,0,-43,67,-83,166h60c0,0,87,-108,217,-218c0,0,130,-110,206,-154V349c0,0,-99,-56,-217,-159c0,0,-117,-102,-206,-210Z" 
id="f3_34"
transform="scale(0.001,-0.001)" />

<path d="M356,519c0,0,145,0,218,63c0,0,74,63,74,160c0,0,0,95,-60,154c0,0,-59,59,-157,59c0,0,-43,0,-117,-13V520c0,0,14,0,25,0c0,0,10,-1,17,-1ZM26,0V27H64c0,0,64,0,92,42c0,0,15,23,15,110V833c0,0,0,96,-21,119c0,0,-29,33,-86,33H26v27H395c0,0,161,0,238,-24c0,0,76,-23,129,-86c0,0,54,-63,54,-151c0,0,0,-93,-61,-162c0,0,-61,-68,-189,-97L775,202c0,0,72,-100,123,-133c0,0,52,-33,134,-42V0H762L419,473c0,0,-38,-1,-61,-1c0,0,-10,0,-21,0c0,0,-11,0,-23,1V179c0,0,0,-96,21,-119c0,0,28,-33,84,-33h40V0Z" 
id="f0_1i"
transform="scale(0.001,-0.001)" />

<path d="M-12,-328v62H778v-62Z" 
id="f0_1v"
transform="scale(0.001,-0.001)" />

<path d="M269,-17c0,0,-105,0,-165,59c0,0,-59,60,-59,160c0,0,0,114,64,225c0,0,64,110,171,179c0,0,108,69,212,69c0,0,81,0,121,-34c0,0,41,-34,41,-83c0,0,0,-46,-29,-79c0,0,-21,-25,-51,-25c0,0,-24,0,-39,15c0,0,-15,14,-15,37c0,0,0,14,5,26c0,0,6,12,23,29c0,0,18,16,22,24c0,0,4,7,4,15c0,0,0,16,-15,27c0,0,-21,14,-61,14c0,0,-73,0,-144,-51c0,0,-72,-51,-123,-146c0,0,-61,-115,-61,-229c0,0,0,-76,44,-121c0,0,43,-44,117,-44c0,0,58,0,114,29c0,0,56,28,126,104l22,-20C593,163,515,70,436,26c0,0,-79,-43,-167,-43Z" 
id="f1_1z"
transform="scale(0.001,-0.001)" />

<path d="M122,-17c0,0,-27,0,-45,19C77,2,59,21,59,46c0,0,0,27,25,111L291,859c0,0,25,86,25,98c0,0,0,18,-14,30c0,0,-14,12,-44,12c0,0,-18,0,-53,-6v27l257,42L200,170c0,0,-19,-67,-19,-82c0,0,0,-11,6,-18c0,0,7,-8,16,-8c0,0,13,0,28,13c0,0,35,31,73,98l22,-23C326,150,259,50,202,11c0,0,-42,-28,-80,-28Z" 
id="f1_28"
transform="scale(0.001,-0.001)" />

<path d="M453,539c0,0,129,0,204,71c0,0,75,72,75,178c0,0,0,83,-48,127c0,0,-48,44,-144,44c0,0,-24,0,-58,-6L367,545c0,0,48,-6,86,-6ZM-34,0l8,26c0,0,54,3,74,12c0,0,30,12,45,34c0,0,24,36,50,125L316,809c0,0,18,61,18,95c0,0,0,35,-28,58c0,0,-27,24,-78,24q-1,0,-2,0l9,26H566c0,0,167,0,240,-63c0,0,73,-62,73,-164c0,0,0,-98,-74,-179c0,0,-75,-81,-204,-102L698,207c0,0,36,-110,72,-143c0,0,36,-33,116,-38L877,0H635L473,492c0,0,-1,0,-2,0c-12,0,-63,0,-117,11L265,184c0,0,-18,-56,-18,-94c0,0,0,-29,22,-46c0,0,16,-12,90,-18L352,0Z" 
id="f1_1i"
transform="scale(0.001,-0.001)" />

<path d="M412,-328c0,0,-195,96,-303,284C109,-44,0,142,0,365c0,0,0,232,114,422c0,0,114,191,298,273v-31c0,0,-92,-51,-151,-139c0,0,-59,-88,-88,-223c0,0,-29,-136,-29,-282c0,0,0,-167,27,-301c0,0,26,-133,82,-221c0,0,55,-89,159,-159v-32Z" 
id="f3_c"
transform="scale(0.001,-0.001)" />

<path d="M34,-328v32c0,0,92,50,151,138c0,0,59,88,88,222c0,0,29,135,29,283c0,0,0,165,-27,300c0,0,-26,134,-82,222c0,0,-56,89,-159,160v31c0,0,194,-96,303,-284c0,0,108,-187,108,-410c0,0,0,-232,-114,-422c0,0,-114,-191,-297,-272Z" 
id="f3_d"
transform="scale(0.001,-0.001)" />

<path d="M125,-302V1034H453V975H237V-243H453v-59Z" 
id="f0_1r"
transform="scale(0.001,-0.001)" />

<path d="M56,-302v60H272V975H56v59H383V-302Z" 
id="f0_1t"
transform="scale(0.001,-0.001)" />

<path d="M247,-17c0,0,-91,0,-132,30c0,0,-42,31,-42,68c0,0,0,21,17,37c0,0,18,16,44,17c0,0,19,0,34,-6c0,0,14,-7,49,-31c0,0,56,-39,113,-39c0,0,88,0,154,66c0,0,66,66,66,161c0,0,0,92,-59,171c0,0,-59,80,-163,123c0,0,-81,34,-221,39l194,393H663L605,885H301L234,750c0,0,198,-29,313,-147c0,0,100,-102,100,-239c0,0,0,-80,-33,-148c0,0,-32,-68,-81,-116c0,0,-50,-47,-110,-77c0,0,-86,-40,-176,-40Z" 
id="f0_p"
transform="scale(0.001,-0.001)" />

<path d="M0,-123V1415H525v-72H72V-123Z" 
id="f3_4r"
transform="scale(0.001,-0.001)" />

<path d="M478,-123V1343H26v72H550V-123Z" 
id="f3_57"
transform="scale(0.001,-0.001)" />

<path d="M0,-123V1415H72V-51H525v-72Z" 
id="f3_4t"
transform="scale(0.001,-0.001)" />

<path d="M26,-123v72H478V1415h72V-123Z" 
id="f3_59"
transform="scale(0.001,-0.001)" />

<path d="M52,62L0,114L278,390L0,667l52,52L330,442L608,719l51,-51L382,390L659,114L608,62L330,338L52,62Z" 
id="f3_3a"
transform="scale(0.001,-0.001)" />

<path d="M238,-17c0,0,-103,0,-139,25C99,8,62,33,62,62c0,0,0,22,17,38c0,0,18,16,42,16c0,0,19,0,38,-6c0,0,13,-3,58,-27c0,0,45,-23,62,-28c0,0,27,-8,59,-8c0,0,76,0,132,59c0,0,56,59,56,140c0,0,0,59,-26,115c0,0,-19,41,-42,63c0,0,-32,30,-88,54c0,0,-56,25,-114,25H232v22c0,0,59,8,118,42c0,0,59,35,86,85c0,0,27,49,27,108c0,0,0,76,-48,124c0,0,-48,47,-120,47c0,0,-116,0,-193,-124L77,819c0,0,44,102,110,158c0,0,66,56,164,56c0,0,122,0,187,-80c0,0,49,-58,49,-126c0,0,0,-110,-139,-228c0,0,93,-36,141,-104c0,0,48,-68,48,-160c0,0,0,-131,-84,-227C553,108,444,-17,238,-17Z" 
id="f0_n"
transform="scale(0.001,-0.001)" />

<path d="M435,0V856c0,0,-48,-47,-127,-93c0,0,-79,-46,-142,-69V824c0,0,113,52,197,128c0,0,85,75,120,146h86V0Z" 
id="f5_l"
transform="scale(0.001,-0.001)" />

<path d="M46,0c0,0,-2,48,16,93c0,0,27,74,88,146c0,0,61,71,176,165c0,0,178,146,241,232c0,0,63,85,63,161c0,0,0,80,-57,135c0,0,-58,55,-149,55c0,0,-98,0,-156,-59c0,0,-58,-58,-59,-160L71,782c0,0,15,154,107,235c0,0,93,81,249,81c0,0,157,0,249,-87c0,0,92,-88,92,-217c0,0,0,-65,-27,-129c0,0,-27,-63,-89,-133c0,0,-62,-70,-207,-193C445,339,324,238,290,202c0,0,-35,-36,-57,-73H770V0Z" 
id="f5_m"
transform="scale(0.001,-0.001)" />


</defs>
</svg>