<?xml version="1.0" encoding="UTF-8" standalone="no"?>
<!DOCTYPE svg PUBLIC "-//W3C//DTD SVG 1.1//EN"
"http://www.w3.org/Graphics/SVG/1.1/DTD/svg11.dtd">
<svg viewBox="0 0 909 1286" version="1.1" xmlns="http://www.w3.org/2000/svg" xmlns:xlink="http://www.w3.org/1999/xlink">
<defs>
<clipPath id="c0_97"><path d="M55.2,359.9V252.1H460.9V359.9Z" /></clipPath>
<clipPath id="c1_97"><path d="M55.2,1181.6V947.9H423.9v233.7Z" /></clipPath>
<style type="text/css"><![CDATA[
.g0_97{
fill: #D9D9D9;
}
.g1_97{
fill: none;
stroke: #000000;
stroke-width: 0.7638889;
stroke-linecap: butt;
stroke-linejoin: miter;
}
.g2_97{
fill: none;
stroke: #000000;
stroke-width: 0.91304076;
stroke-linecap: butt;
stroke-linejoin: round;
}
.g3_97{
}
]]></style>
</defs>
<image preserveAspectRatio="none" x="747" y="1196" width="96" height="59" xlink:href="img/1.png" />
<image preserveAspectRatio="none" x="336" y="41" width="259" height="51" xlink:href="img/2.png" />
<image preserveAspectRatio="none" x="342" y="50" width="247" height="27" xlink:href="img/3.png" />
<image preserveAspectRatio="none" x="341" y="45" width="239" height="42" xlink:href="img/4.png" />
<g fill="#FFFFFF" >
<use xlink:href="#f0_j" transform="matrix(11.5,0,0,11.5,355.1,70.1)" />
<use xlink:href="#f0_i" transform="matrix(11.5,0,0,11.5,364.3,70.1)" />
<use xlink:href="#f0_2n" transform="matrix(11.5,0,0,11.5,374.1,70.1)" />
<use xlink:href="#f0_t" transform="matrix(11.5,0,0,11.5,382.6,70.1)" />
<use xlink:href="#f0_oj" transform="matrix(11.5,0,0,11.5,391,70.1)" />
<use xlink:href="#f0_3e" transform="matrix(11.5,0,0,11.5,396.5,70.1)" />
<use xlink:href="#f0_1c" transform="matrix(11.5,0,0,11.5,406.1,70.1)" />
<use xlink:href="#f0_1c" transform="matrix(11.5,0,0,11.5,410.8,70.1)" />
<use xlink:href="#f0_oj" transform="matrix(11.5,0,0,11.5,415.6,70.1)" />
<use xlink:href="#f0_rz" transform="matrix(11.5,0,0,11.5,421.1,70.1)" />
<use xlink:href="#f0_rx" transform="matrix(11.5,0,0,11.5,429.9,70.1)" />
<use xlink:href="#f0_ry" transform="matrix(11.5,0,0,11.5,438.7,70.1)" />
<use xlink:href="#f0_s2" transform="matrix(11.5,0,0,11.5,447.5,70.1)" />
<use xlink:href="#f0_t" transform="matrix(11.5,0,0,11.5,460.4,70.1)" />
<use xlink:href="#f0_3e" transform="matrix(11.5,0,0,11.5,468.8,70.1)" />
<use xlink:href="#f0_5" transform="matrix(11.5,0,0,11.5,478.3,70.1)" />
<use xlink:href="#f0_1x" transform="matrix(11.5,0,0,11.5,489,70.1)" />
<use xlink:href="#f0_1c" transform="matrix(11.5,0,0,11.5,504.4,70.1)" />
<use xlink:href="#f0_1y" transform="matrix(11.5,0,0,11.5,509.1,70.1)" />
<use xlink:href="#f0_5" transform="matrix(11.5,0,0,11.5,520.8,70.1)" />
<use xlink:href="#f0_2t" transform="matrix(11.5,0,0,11.5,531.5,70.1)" />
<use xlink:href="#f0_1c" transform="matrix(11.5,0,0,11.5,540.2,70.1)" />
<use xlink:href="#f0_24" transform="matrix(11.5,0,0,11.5,545,70.1)" />
<use xlink:href="#f0_1y" transform="matrix(11.5,0,0,11.5,556.7,70.1)" />
</g>
<image preserveAspectRatio="none" x="554" y="45" width="36" height="42" xlink:href="img/5.png" />
<g fill="#FFFFFF" >
<use xlink:href="#f1_p" transform="matrix(11,0,0,11,770.3,1227.6)" />
<use xlink:href="#f1_j" transform="matrix(11,0,0,11,783.5,1227.6)" />
<use xlink:href="#f1_l" transform="matrix(11,0,0,11,794.1,1227.6)" />
<use xlink:href="#f1_m" transform="matrix(11,0,0,11,802.9,1227.6)" />
</g>
<path fill-rule="evenodd" d="M52.8,1193.5H856.9v-.8H52.8v.8Z" class="g0_97" />
<path d="M37.9,99.4L873,98.5" class="g1_97" />
<g fill="#000000" >
<use xlink:href="#f2_c" transform="matrix(12,0,0,12,55,144.1)" />
<use xlink:href="#f2_25" transform="matrix(12,0,0,12,61.6,144.1)" />
<use xlink:href="#f2_d" transform="matrix(12,0,0,12,66,144.1)" />
<use xlink:href="#f2_1e" transform="matrix(12,0,0,12,77,144.1)" />
<use xlink:href="#f2_2l" transform="matrix(12,0,0,12,90.5,144.1)" />
<use xlink:href="#f2_28" transform="matrix(12,0,0,12,99.3,144.1)" />
<use xlink:href="#f2_2b" transform="matrix(12,0,0,12,103.7,144.1)" />
<use xlink:href="#f2_2a" transform="matrix(12,0,0,12,113.6,144.1)" />
<use xlink:href="#f2_h" transform="matrix(12,0,0,12,122.5,144.1)" />
<use xlink:href="#f2_q" transform="matrix(12,0,0,12,128.7,144.1)" />
<use xlink:href="#f2_g" transform="matrix(12,0,0,12,137.9,144.1)" />
<use xlink:href="#f2_q" transform="matrix(12,0,0,12,142.7,144.1)" />
<use xlink:href="#f2_c" transform="matrix(12,0,0,12,55,166.9)" />
<use xlink:href="#f2_25" transform="matrix(12,0,0,12,61.6,166.9)" />
<use xlink:href="#f2_25" transform="matrix(12,0,0,12,66.4,166.9)" />
<use xlink:href="#f2_d" transform="matrix(12,0,0,12,70.8,166.9)" />
<use xlink:href="#f2_12" transform="matrix(12,0,0,12,81.7,166.9)" />
<use xlink:href="#f2_1x" transform="matrix(12,0,0,12,93.8,166.9)" />
<use xlink:href="#f2_27" transform="matrix(12,0,0,12,101.9,166.9)" />
<use xlink:href="#f2_21" transform="matrix(12,0,0,12,111.1,166.9)" />
<use xlink:href="#f2_28" transform="matrix(12,0,0,12,119.5,166.9)" />
<use xlink:href="#f2_25" transform="matrix(12,0,0,12,124.6,166.9)" />
<use xlink:href="#f2_2g" transform="matrix(12,0,0,12,129,166.9)" />
<use xlink:href="#f2_21" transform="matrix(12,0,0,12,134.5,166.9)" />
<use xlink:href="#f2_c" transform="matrix(12,0,0,12,55,189.6)" />
<use xlink:href="#f2_25" transform="matrix(12,0,0,12,61.6,189.6)" />
<use xlink:href="#f2_25" transform="matrix(12,0,0,12,66.4,189.6)" />
<use xlink:href="#f2_25" transform="matrix(12,0,0,12,71.2,189.6)" />
<use xlink:href="#f2_d" transform="matrix(12,0,0,12,75.9,189.6)" />
<use xlink:href="#f2_1g" transform="matrix(12,0,0,12,86.9,189.6)" />
<use xlink:href="#f2_2b" transform="matrix(12,0,0,12,97.1,189.6)" />
<use xlink:href="#f2_28" transform="matrix(12,0,0,12,106.6,189.6)" />
<use xlink:href="#f2_2l" transform="matrix(12,0,0,12,111.4,189.6)" />
<use xlink:href="#f2_2f" transform="matrix(12,0,0,12,120.2,189.6)" />
<use xlink:href="#f2_2g" transform="matrix(12,0,0,12,127.2,189.6)" />
<use xlink:href="#f2_2l" transform="matrix(12,0,0,12,133,189.6)" />
<use xlink:href="#f2_2e" transform="matrix(12,0,0,12,141.5,189.6)" />
<use xlink:href="#f2_21" transform="matrix(12,0,0,12,147.7,189.6)" />
<use xlink:href="#f2_2a" transform="matrix(12,0,0,12,156.1,189.6)" />
<use xlink:href="#f2_21" transform="matrix(12,0,0,12,165.3,189.6)" />
<use xlink:href="#f3_11" transform="matrix(12,0,0,12,55,212.4)" />
<use xlink:href="#f3_2a" transform="matrix(12,0,0,12,68.3,212.4)" />
<use xlink:href="#f3_2f" transform="matrix(12,0,0,12,78.5,212.4)" />
<use xlink:href="#f3_2j" transform="matrix(12,0,0,12,85.5,212.4)" />
<use xlink:href="#f3_21" transform="matrix(12,0,0,12,98.7,212.4)" />
<use xlink:href="#f3_2e" transform="matrix(12,0,0,12,107.1,212.4)" />
<use xlink:href="#f3_u" transform="matrix(12,0,0,12,114.8,212.4)" />
<use xlink:href="#f3_c" transform="matrix(12,0,0,12,55,247.2)" />
<use xlink:href="#f3_25" transform="matrix(12,0,0,12,61.3,247.2)" />
<use xlink:href="#f3_d" transform="matrix(12,0,0,12,66.3,247.2)" />
<use xlink:href="#f3_1e" transform="matrix(12,0,0,12,77.3,247.2)" />
<use xlink:href="#f3_2l" transform="matrix(12,0,0,12,90.6,247.2)" />
<use xlink:href="#f3_28" transform="matrix(12,0,0,12,99.8,247.2)" />
<use xlink:href="#f3_2b" transform="matrix(12,0,0,12,104.5,247.2)" />
<use xlink:href="#f3_2a" transform="matrix(12,0,0,12,113.6,247.2)" />
<use xlink:href="#f3_q" transform="matrix(12,0,0,12,128.6,247.2)" />
<use xlink:href="#f3_g" transform="matrix(12,0,0,12,137.4,247.2)" />
<use xlink:href="#f3_q" transform="matrix(12,0,0,12,142.2,247.2)" />
</g>
<g clip-path="url(#c0_97)">
<g fill="#000000" >
<use xlink:href="#f2_m" transform="matrix(7,0,0,7,157.2,354.6)" />
<use xlink:href="#f2_o" transform="matrix(7,0,0,7,171.2,354.6)" />
<use xlink:href="#f2_m" transform="matrix(7,0,0,7,314.1,354.6)" />
<use xlink:href="#f2_m" transform="matrix(7,0,0,7,381.4,354.6)" />
<use xlink:href="#f2_q" transform="matrix(7,0,0,7,395.4,354.6)" />
<use xlink:href="#f2_m" transform="matrix(7,0,0,7,445.5,354.6)" />
<use xlink:href="#f2_1d" transform="matrix(12.1,0,0,12.1,58,292.9)" />
<use xlink:href="#f2_2b" transform="matrix(12.1,0,0,12.1,74.3,292.9)" />
<use xlink:href="#f2_2a" transform="matrix(12.1,0,0,12.1,83.4,292.9)" />
<use xlink:href="#f2_2b" transform="matrix(12.1,0,0,12.1,92.6,292.9)" />
<use xlink:href="#f2_29" transform="matrix(12.1,0,0,12.1,101.7,292.9)" />
<use xlink:href="#f2_21" transform="matrix(12.1,0,0,12.1,115.7,292.9)" />
<use xlink:href="#f2_2e" transform="matrix(12.1,0,0,12.1,123.7,292.9)" />
<use xlink:href="#f2_11" transform="matrix(12.1,0,0,12.1,182.7,292.9)" />
<use xlink:href="#f2_20" transform="matrix(12.1,0,0,12.1,195.6,292.9)" />
<use xlink:href="#f2_25" transform="matrix(12.1,0,0,12.1,204.8,292.9)" />
<use xlink:href="#f2_2c" transform="matrix(12.1,0,0,12.1,209.9,292.9)" />
<use xlink:href="#f2_25" transform="matrix(12.1,0,0,12.1,219.1,292.9)" />
<use xlink:href="#f2_1z" transform="matrix(12.1,0,0,12.1,224.2,292.9)" />
<use xlink:href="#f2_1x" transform="matrix(12.1,0,0,12.1,236.9,292.9)" />
<use xlink:href="#f2_1z" transform="matrix(12.1,0,0,12.1,244.8,292.9)" />
<use xlink:href="#f2_25" transform="matrix(12.1,0,0,12.1,252.8,292.9)" />
<use xlink:href="#f2_20" transform="matrix(12.1,0,0,12.1,258,292.9)" />
<use xlink:href="#f2_g" transform="matrix(12.1,0,0,12.1,267.1,292.9)" />
<use xlink:href="#f2_24" transform="matrix(12.1,0,0,12.1,288.9,292.9)" />
<use xlink:href="#f2_21" transform="matrix(12.1,0,0,12.1,298,292.9)" />
<use xlink:href="#f2_2k" transform="matrix(12.1,0,0,12.1,306,292.9)" />
<use xlink:href="#f2_1x" transform="matrix(12.1,0,0,12.1,315.2,292.9)" />
<use xlink:href="#f2_29" transform="matrix(12.1,0,0,12.1,323.2,292.9)" />
<use xlink:href="#f2_21" transform="matrix(12.1,0,0,12.1,337.2,292.9)" />
<use xlink:href="#f2_2g" transform="matrix(12.1,0,0,12.1,345.2,292.9)" />
<use xlink:href="#f2_24" transform="matrix(12.1,0,0,12.1,350.4,292.9)" />
<use xlink:href="#f2_2l" transform="matrix(12.1,0,0,12.1,359.5,292.9)" />
<use xlink:href="#f2_28" transform="matrix(12.1,0,0,12.1,368.1,292.9)" />
<use xlink:href="#f2_21" transform="matrix(12.1,0,0,12.1,372.9,292.9)" />
<use xlink:href="#f2_2a" transform="matrix(12.1,0,0,12.1,380.9,292.9)" />
<use xlink:href="#f2_21" transform="matrix(12.1,0,0,12.1,390.1,292.9)" />
<use xlink:href="#f2_20" transform="matrix(12.1,0,0,12.1,398.1,292.9)" />
<use xlink:href="#f2_25" transform="matrix(12.1,0,0,12.1,407.2,292.9)" />
<use xlink:href="#f2_1x" transform="matrix(12.1,0,0,12.1,412.4,292.9)" />
<use xlink:href="#f2_29" transform="matrix(12.1,0,0,12.1,420.4,292.9)" />
<use xlink:href="#f2_25" transform="matrix(12.1,0,0,12.1,434.4,292.9)" />
<use xlink:href="#f2_2a" transform="matrix(12.1,0,0,12.1,439.6,292.9)" />
<use xlink:href="#f2_21" transform="matrix(12.1,0,0,12.1,448.7,292.9)" />
<use xlink:href="#f2_18" transform="matrix(12.1,0,0,12.1,58,349.9)" />
<use xlink:href="#f2_1f" transform="matrix(12.1,0,0,12.1,71.1,349.9)" />
<use xlink:href="#f2_1f" transform="matrix(12.1,0,0,12.1,84.3,349.9)" />
<use xlink:href="#f2_13" transform="matrix(12.1,0,0,12.1,97.5,349.9)" />
<use xlink:href="#f2_h" transform="matrix(12.1,0,0,12.1,114.4,349.9)" />
<use xlink:href="#f2_c" transform="matrix(12.1,0,0,12.1,124.7,349.9)" />
<use xlink:href="#f2_13" transform="matrix(12.1,0,0,12.1,130.7,349.9)" />
<use xlink:href="#f2_18" transform="matrix(12.1,0,0,12.1,143,349.9)" />
<use xlink:href="#f2_d" transform="matrix(12.1,0,0,12.1,164.5,349.9)" />
<use xlink:href="#f2_h" transform="matrix(12.1,0,0,12.1,182.2,349.9)" />
<use xlink:href="#f2_13" transform="matrix(12.1,0,0,12.1,192.6,349.9)" />
<use xlink:href="#f2_1f" transform="matrix(12.1,0,0,12.1,204.9,349.9)" />
<use xlink:href="#f2_1f" transform="matrix(12.1,0,0,12.1,218,349.9)" />
<use xlink:href="#f2_18" transform="matrix(12.1,0,0,12.1,231.2,349.9)" />
<use xlink:href="#f2_18" transform="matrix(12.1,0,0,12.1,299.9,349.9)" />
<use xlink:href="#f2_1e" transform="matrix(12.1,0,0,12.1,320.8,349.9)" />
<use xlink:href="#f2_h" transform="matrix(12.1,0,0,12.1,338.6,349.9)" />
<use xlink:href="#f2_c" transform="matrix(12.1,0,0,12.1,348.9,349.9)" />
<use xlink:href="#f2_13" transform="matrix(12.1,0,0,12.1,354.9,349.9)" />
<use xlink:href="#f2_18" transform="matrix(12.1,0,0,12.1,367.2,349.9)" />
<use xlink:href="#f2_d" transform="matrix(12.1,0,0,12.1,388.7,349.9)" />
<use xlink:href="#f2_h" transform="matrix(12.1,0,0,12.1,407.8,349.9)" />
<use xlink:href="#f2_1e" transform="matrix(12.1,0,0,12.1,418.1,349.9)" />
<use xlink:href="#f2_18" transform="matrix(12.1,0,0,12.1,431.2,349.9)" />
<use xlink:href="#f4_34" transform="matrix(12.1,0,0,12.1,147.6,292.9)" />
<use xlink:href="#f4_35" transform="matrix(12.1,0,0,12.1,217.1,322.5)" />
<use xlink:href="#f4_35" transform="matrix(12.1,0,0,12.1,314.2,322.5)" />
</g>
</g>
<g fill="#000000" >
<use xlink:href="#f3_c" transform="matrix(12,0,0,12,55,401.6)" />
<use xlink:href="#f3_25" transform="matrix(12,0,0,12,61.3,401.6)" />
<use xlink:href="#f3_25" transform="matrix(12,0,0,12,66.3,401.6)" />
<use xlink:href="#f3_d" transform="matrix(12,0,0,12,71.5,401.6)" />
<use xlink:href="#f3_12" transform="matrix(12,0,0,12,82.1,401.6)" />
<use xlink:href="#f3_1x" transform="matrix(12,0,0,12,94.6,401.6)" />
<use xlink:href="#f3_27" transform="matrix(12,0,0,12,103.7,401.6)" />
<use xlink:href="#f3_21" transform="matrix(12,0,0,12,113.6,401.6)" />
<use xlink:href="#f3_28" transform="matrix(12,0,0,12,121.7,401.6)" />
<use xlink:href="#f3_25" transform="matrix(12,0,0,12,126.5,401.6)" />
<use xlink:href="#f3_2g" transform="matrix(12,0,0,12,131.6,401.6)" />
<use xlink:href="#f3_21" transform="matrix(12,0,0,12,137.8,401.6)" />
<use xlink:href="#f3_1h" transform="matrix(12,0,0,12,55,646.2)" />
<use xlink:href="#f3_l" transform="matrix(12,0,0,12,74.1,646.2)" />
<use xlink:href="#f3_q" transform="matrix(12,0,0,12,83.3,646.2)" />
<use xlink:href="#f3_i" transform="matrix(12,0,0,12,92.4,646.2)" />
<use xlink:href="#f2_c" transform="matrix(12,0,0,12,59.8,669)" />
<use xlink:href="#f2_25" transform="matrix(12,0,0,12,66,669)" />
<use xlink:href="#f2_d" transform="matrix(12,0,0,12,70.4,669)" />
<use xlink:href="#f2_1n" transform="matrix(12,0,0,12,81.4,669)" />
<use xlink:href="#f2_24" transform="matrix(12,0,0,12,98.6,669)" />
<use xlink:href="#f2_25" transform="matrix(12,0,0,12,107.8,669)" />
<use xlink:href="#f2_1z" transform="matrix(12,0,0,12,112.5,669)" />
<use xlink:href="#f2_24" transform="matrix(12,0,0,12,121,669)" />
<use xlink:href="#f2_2b" transform="matrix(12,0,0,12,134.5,669)" />
<use xlink:href="#f2_2a" transform="matrix(12,0,0,12,144,669)" />
<use xlink:href="#f2_21" transform="matrix(12,0,0,12,152.8,669)" />
<use xlink:href="#f2_2b" transform="matrix(12,0,0,12,165.6,669)" />
<use xlink:href="#f2_22" transform="matrix(12,0,0,12,175.2,669)" />
<use xlink:href="#f2_2g" transform="matrix(12,0,0,12,185.4,669)" />
<use xlink:href="#f2_24" transform="matrix(12,0,0,12,190.9,669)" />
<use xlink:href="#f2_21" transform="matrix(12,0,0,12,199.7,669)" />
<use xlink:href="#f2_22" transform="matrix(12,0,0,12,212.9,669)" />
<use xlink:href="#f2_2b" transform="matrix(12,0,0,12,218.4,669)" />
<use xlink:href="#f2_28" transform="matrix(12,0,0,12,228.3,669)" />
<use xlink:href="#f2_28" transform="matrix(12,0,0,12,233,669)" />
<use xlink:href="#f2_2b" transform="matrix(12,0,0,12,237.4,669)" />
<use xlink:href="#f2_2j" transform="matrix(12,0,0,12,246.9,669)" />
<use xlink:href="#f2_25" transform="matrix(12,0,0,12,260.5,669)" />
<use xlink:href="#f2_2a" transform="matrix(12,0,0,12,265.2,669)" />
<use xlink:href="#f2_23" transform="matrix(12,0,0,12,274.4,669)" />
<use xlink:href="#f2_25" transform="matrix(12,0,0,12,288.7,669)" />
<use xlink:href="#f2_2f" transform="matrix(12,0,0,12,293.5,669)" />
<use xlink:href="#f2_1x" transform="matrix(12,0,0,12,305.2,669)" />
<use xlink:href="#f2_20" transform="matrix(12,0,0,12,318,669)" />
<use xlink:href="#f2_25" transform="matrix(12,0,0,12,327.5,669)" />
<use xlink:href="#f2_2f" transform="matrix(12,0,0,12,331.9,669)" />
<use xlink:href="#f2_1x" transform="matrix(12,0,0,12,338.9,669)" />
<use xlink:href="#f2_1z" transform="matrix(12,0,0,12,346.9,669)" />
<use xlink:href="#f2_1z" transform="matrix(12,0,0,12,355.4,669)" />
<use xlink:href="#f2_24" transform="matrix(12,0,0,12,363.8,669)" />
<use xlink:href="#f2_1x" transform="matrix(12,0,0,12,372.6,669)" />
<use xlink:href="#f2_2e" transform="matrix(12,0,0,12,380.6,669)" />
<use xlink:href="#f2_25" transform="matrix(12,0,0,12,387.2,669)" />
<use xlink:href="#f2_20" transform="matrix(12,0,0,12,391.6,669)" />
<use xlink:href="#f2_21" transform="matrix(12,0,0,12,401.1,669)" />
<use xlink:href="#f2_u" transform="matrix(12,0,0,12,413.9,669)" />
<use xlink:href="#f2_2f" transform="matrix(12,0,0,12,423.5,669)" />
<use xlink:href="#f2_2g" transform="matrix(12,0,0,12,430.4,669)" />
<use xlink:href="#f2_1x" transform="matrix(12,0,0,12,435.9,669)" />
<use xlink:href="#f2_2e" transform="matrix(12,0,0,12,444,669)" />
<use xlink:href="#f2_1z" transform="matrix(12,0,0,12,450.2,669)" />
<use xlink:href="#f2_24" transform="matrix(12,0,0,12,458.3,669)" />
<use xlink:href="#f2_g" transform="matrix(12,0,0,12,467.7,669)" />
<use xlink:href="#f2_29" transform="matrix(12,0,0,12,477.2,669)" />
<use xlink:href="#f2_1x" transform="matrix(12,0,0,12,490.7,669)" />
<use xlink:href="#f2_28" transform="matrix(12,0,0,12,499.2,669)" />
<use xlink:href="#f2_2g" transform="matrix(12,0,0,12,503.6,669)" />
<use xlink:href="#f2_2b" transform="matrix(12,0,0,12,509,669)" />
<use xlink:href="#f2_2f" transform="matrix(12,0,0,12,518.6,669)" />
<use xlink:href="#f2_21" transform="matrix(12,0,0,12,525.5,669)" />
<use xlink:href="#f2_g" transform="matrix(12,0,0,12,533.6,669)" />
<use xlink:href="#f2_22" transform="matrix(12,0,0,12,543.1,669)" />
<use xlink:href="#f2_2e" transform="matrix(12,0,0,12,548.6,669)" />
<use xlink:href="#f2_2h" transform="matrix(12,0,0,12,554.8,669)" />
<use xlink:href="#f2_1z" transform="matrix(12,0,0,12,564,669)" />
<use xlink:href="#f2_2g" transform="matrix(12,0,0,12,572,669)" />
<use xlink:href="#f2_2b" transform="matrix(12,0,0,12,577.5,669)" />
<use xlink:href="#f2_2f" transform="matrix(12,0,0,12,587,669)" />
<use xlink:href="#f2_21" transform="matrix(12,0,0,12,594,669)" />
<use xlink:href="#f2_g" transform="matrix(12,0,0,12,602.1,669)" />
<use xlink:href="#f2_23" transform="matrix(12,0,0,12,611.6,669)" />
<use xlink:href="#f2_28" transform="matrix(12,0,0,12,620.7,669)" />
<use xlink:href="#f2_2h" transform="matrix(12,0,0,12,625.1,669)" />
<use xlink:href="#f2_1z" transform="matrix(12,0,0,12,634.3,669)" />
<use xlink:href="#f2_2b" transform="matrix(12,0,0,12,642.4,669)" />
<use xlink:href="#f2_2f" transform="matrix(12,0,0,12,651.9,669)" />
<use xlink:href="#f2_21" transform="matrix(12,0,0,12,658.8,669)" />
<use xlink:href="#f2_c" transform="matrix(12,0,0,12,55,691.7)" />
<use xlink:href="#f2_25" transform="matrix(12,0,0,12,61.6,691.7)" />
<use xlink:href="#f2_25" transform="matrix(12,0,0,12,66.4,691.7)" />
<use xlink:href="#f2_d" transform="matrix(12,0,0,12,70.8,691.7)" />
<use xlink:href="#f2_1n" transform="matrix(12,0,0,12,82.1,691.7)" />
<use xlink:href="#f2_24" transform="matrix(12,0,0,12,99.3,691.7)" />
<use xlink:href="#f2_1x" transform="matrix(12,0,0,12,108.1,691.7)" />
<use xlink:href="#f2_2g" transform="matrix(12,0,0,12,116.2,691.7)" />
<use xlink:href="#f2_25" transform="matrix(12,0,0,12,126.4,691.7)" />
<use xlink:href="#f2_2f" transform="matrix(12,0,0,12,131.2,691.7)" />
<use xlink:href="#f2_2g" transform="matrix(12,0,0,12,142.9,691.7)" />
<use xlink:href="#f2_24" transform="matrix(12,0,0,12,148.4,691.7)" />
<use xlink:href="#f2_21" transform="matrix(12,0,0,12,157.2,691.7)" />
<use xlink:href="#f2_20" transform="matrix(12,0,0,12,170,691.7)" />
<use xlink:href="#f2_25" transform="matrix(12,0,0,12,179.5,691.7)" />
<use xlink:href="#f2_22" transform="matrix(12,0,0,12,184.3,691.7)" />
<use xlink:href="#f2_22" transform="matrix(12,0,0,12,190.2,691.7)" />
<use xlink:href="#f2_21" transform="matrix(12,0,0,12,196,691.7)" />
<use xlink:href="#f2_2e" transform="matrix(12,0,0,12,204.1,691.7)" />
<use xlink:href="#f2_21" transform="matrix(12,0,0,12,210.3,691.7)" />
<use xlink:href="#f2_2a" transform="matrix(12,0,0,12,218.7,691.7)" />
<use xlink:href="#f2_1z" transform="matrix(12,0,0,12,227.5,691.7)" />
<use xlink:href="#f2_21" transform="matrix(12,0,0,12,235.6,691.7)" />
<use xlink:href="#f2_1y" transform="matrix(12,0,0,12,248.8,691.7)" />
<use xlink:href="#f2_21" transform="matrix(12,0,0,12,257.6,691.7)" />
<use xlink:href="#f2_2g" transform="matrix(12,0,0,12,265.6,691.7)" />
<use xlink:href="#f2_2j" transform="matrix(12,0,0,12,271.1,691.7)" />
<use xlink:href="#f2_21" transform="matrix(12,0,0,12,284.4,691.7)" />
<use xlink:href="#f2_21" transform="matrix(12,0,0,12,292.4,691.7)" />
<use xlink:href="#f2_2a" transform="matrix(12,0,0,12,300.5,691.7)" />
<use xlink:href="#f2_1x" transform="matrix(12,0,0,12,314,691.7)" />
<use xlink:href="#f2_1z" transform="matrix(12,0,0,12,322.1,691.7)" />
<use xlink:href="#f2_25" transform="matrix(12,0,0,12,330.5,691.7)" />
<use xlink:href="#f2_20" transform="matrix(12,0,0,12,335.3,691.7)" />
<use xlink:href="#f2_25" transform="matrix(12,0,0,12,344.8,691.7)" />
<use xlink:href="#f2_1z" transform="matrix(12,0,0,12,349.5,691.7)" />
<use xlink:href="#f2_1x" transform="matrix(12,0,0,12,362.4,691.7)" />
<use xlink:href="#f2_29" transform="matrix(12,0,0,12,370.8,691.7)" />
<use xlink:href="#f2_25" transform="matrix(12,0,0,12,385,691.7)" />
<use xlink:href="#f2_2a" transform="matrix(12,0,0,12,389.8,691.7)" />
<use xlink:href="#f2_2b" transform="matrix(12,0,0,12,398.6,691.7)" />
<use xlink:href="#f2_1x" transform="matrix(12,0,0,12,412.9,691.7)" />
<use xlink:href="#f2_1z" transform="matrix(12,0,0,12,421,691.7)" />
<use xlink:href="#f2_25" transform="matrix(12,0,0,12,429.4,691.7)" />
<use xlink:href="#f2_20" transform="matrix(12,0,0,12,434.2,691.7)" />
<use xlink:href="#f2_1x" transform="matrix(12,0,0,12,448.1,691.7)" />
<use xlink:href="#f2_2a" transform="matrix(12,0,0,12,456.5,691.7)" />
<use xlink:href="#f2_20" transform="matrix(12,0,0,12,465.3,691.7)" />
<use xlink:href="#f2_1y" transform="matrix(12,0,0,12,479.2,691.7)" />
<use xlink:href="#f2_1x" transform="matrix(12,0,0,12,488,691.7)" />
<use xlink:href="#f2_2f" transform="matrix(12,0,0,12,496.4,691.7)" />
<use xlink:href="#f2_25" transform="matrix(12,0,0,12,503.7,691.7)" />
<use xlink:href="#f2_1z" transform="matrix(12,0,0,12,508.5,691.7)" />
<use xlink:href="#f2_1x" transform="matrix(12,0,0,12,521.3,691.7)" />
<use xlink:href="#f2_29" transform="matrix(12,0,0,12,529.7,691.7)" />
<use xlink:href="#f2_25" transform="matrix(12,0,0,12,543.7,691.7)" />
<use xlink:href="#f2_2a" transform="matrix(12,0,0,12,548.4,691.7)" />
<use xlink:href="#f2_2b" transform="matrix(12,0,0,12,557.2,691.7)" />
<use xlink:href="#f2_1x" transform="matrix(12,0,0,12,571.5,691.7)" />
<use xlink:href="#f2_1z" transform="matrix(12,0,0,12,579.6,691.7)" />
<use xlink:href="#f2_25" transform="matrix(12,0,0,12,588,691.7)" />
<use xlink:href="#f2_20" transform="matrix(12,0,0,12,592.7,691.7)" />
<use xlink:href="#f2_z" transform="matrix(12,0,0,12,607,691.7)" />
<use xlink:href="#f2_c" transform="matrix(12,0,0,12,55,714.5)" />
<use xlink:href="#f2_25" transform="matrix(12,0,0,12,61.6,714.5)" />
<use xlink:href="#f2_25" transform="matrix(12,0,0,12,66.4,714.5)" />
<use xlink:href="#f2_25" transform="matrix(12,0,0,12,71.2,714.5)" />
<use xlink:href="#f2_d" transform="matrix(12,0,0,12,75.9,714.5)" />
<use xlink:href="#f2_1n" transform="matrix(12,0,0,12,87.2,714.5)" />
<use xlink:href="#f2_2e" transform="matrix(12,0,0,12,104.1,714.5)" />
<use xlink:href="#f2_25" transform="matrix(12,0,0,12,110.7,714.5)" />
<use xlink:href="#f2_2g" transform="matrix(12,0,0,12,115.1,714.5)" />
<use xlink:href="#f2_21" transform="matrix(12,0,0,12,120.6,714.5)" />
<use xlink:href="#f2_2g" transform="matrix(12,0,0,12,133.4,714.5)" />
<use xlink:href="#f2_24" transform="matrix(12,0,0,12,138.9,714.5)" />
<use xlink:href="#f2_21" transform="matrix(12,0,0,12,147.7,714.5)" />
<use xlink:href="#f2_2a" transform="matrix(12,0,0,12,160.5,714.5)" />
<use xlink:href="#f2_1x" transform="matrix(12,0,0,12,169.3,714.5)" />
<use xlink:href="#f2_29" transform="matrix(12,0,0,12,177.7,714.5)" />
<use xlink:href="#f2_21" transform="matrix(12,0,0,12,191.6,714.5)" />
<use xlink:href="#f2_2b" transform="matrix(12,0,0,12,204.5,714.5)" />
<use xlink:href="#f2_22" transform="matrix(12,0,0,12,214,714.5)" />
<use xlink:href="#f2_2g" transform="matrix(12,0,0,12,224.2,714.5)" />
<use xlink:href="#f2_24" transform="matrix(12,0,0,12,229.7,714.5)" />
<use xlink:href="#f2_21" transform="matrix(12,0,0,12,238.5,714.5)" />
<use xlink:href="#f2_28" transform="matrix(12,0,0,12,251.7,714.5)" />
<use xlink:href="#f2_25" transform="matrix(12,0,0,12,256.4,714.5)" />
<use xlink:href="#f2_2a" transform="matrix(12,0,0,12,261.2,714.5)" />
<use xlink:href="#f2_27" transform="matrix(12,0,0,12,270.4,714.5)" />
<use xlink:href="#f2_1x" transform="matrix(12,0,0,12,279.5,714.5)" />
<use xlink:href="#f2_23" transform="matrix(12,0,0,12,287.6,714.5)" />
<use xlink:href="#f2_21" transform="matrix(12,0,0,12,296.8,714.5)" />
<use xlink:href="#f2_26" transform="matrix(12,0,0,12,310,714.5)" />
<use xlink:href="#f2_2b" transform="matrix(12,0,0,12,314.4,714.5)" />
<use xlink:href="#f2_25" transform="matrix(12,0,0,12,324.2,714.5)" />
<use xlink:href="#f2_2a" transform="matrix(12,0,0,12,329,714.5)" />
<use xlink:href="#f2_25" transform="matrix(12,0,0,12,338.2,714.5)" />
<use xlink:href="#f2_2a" transform="matrix(12,0,0,12,342.9,714.5)" />
<use xlink:href="#f2_23" transform="matrix(12,0,0,12,352.1,714.5)" />
<use xlink:href="#f2_2g" transform="matrix(12,0,0,12,366,714.5)" />
<use xlink:href="#f2_2j" transform="matrix(12,0,0,12,371.5,714.5)" />
<use xlink:href="#f2_2b" transform="matrix(12,0,0,12,384.7,714.5)" />
<use xlink:href="#f2_2a" transform="matrix(12,0,0,12,398.6,714.5)" />
<use xlink:href="#f2_2h" transform="matrix(12,0,0,12,407.4,714.5)" />
<use xlink:href="#f2_1z" transform="matrix(12,0,0,12,416.6,714.5)" />
<use xlink:href="#f2_28" transform="matrix(12,0,0,12,425,714.5)" />
<use xlink:href="#f2_21" transform="matrix(12,0,0,12,429.8,714.5)" />
<use xlink:href="#f2_2b" transform="matrix(12,0,0,12,437.8,714.5)" />
<use xlink:href="#f2_2g" transform="matrix(12,0,0,12,447,714.5)" />
<use xlink:href="#f2_25" transform="matrix(12,0,0,12,452.5,714.5)" />
<use xlink:href="#f2_20" transform="matrix(12,0,0,12,456.9,714.5)" />
<use xlink:href="#f2_21" transform="matrix(12,0,0,12,466.1,714.5)" />
<use xlink:href="#f2_2f" transform="matrix(12,0,0,12,474.5,714.5)" />
<use xlink:href="#f2_i" transform="matrix(12,0,0,12,481.4,714.5)" />
<use xlink:href="#f3_11" transform="matrix(12,0,0,12,55,737.2)" />
<use xlink:href="#f3_2a" transform="matrix(12,0,0,12,68.3,737.2)" />
<use xlink:href="#f3_2f" transform="matrix(12,0,0,12,78.5,737.2)" />
<use xlink:href="#f3_2j" transform="matrix(12,0,0,12,85.5,737.2)" />
<use xlink:href="#f3_21" transform="matrix(12,0,0,12,98.7,737.2)" />
<use xlink:href="#f3_2e" transform="matrix(12,0,0,12,107.1,737.2)" />
<use xlink:href="#f3_u" transform="matrix(12,0,0,12,114.8,737.2)" />
<use xlink:href="#f2_c" transform="matrix(12,0,0,12,55,772)" />
<use xlink:href="#f2_25" transform="matrix(12,0,0,12,61.6,772)" />
<use xlink:href="#f2_d" transform="matrix(12,0,0,12,66,772)" />
<use xlink:href="#f2_1d" transform="matrix(12,0,0,12,77,772)" />
<use xlink:href="#f2_1x" transform="matrix(12,0,0,12,93.1,772)" />
<use xlink:href="#f2_28" transform="matrix(12,0,0,12,101.5,772)" />
<use xlink:href="#f2_2g" transform="matrix(12,0,0,12,105.9,772)" />
<use xlink:href="#f2_2b" transform="matrix(12,0,0,12,111.4,772)" />
<use xlink:href="#f2_2f" transform="matrix(12,0,0,12,120.9,772)" />
<use xlink:href="#f2_21" transform="matrix(12,0,0,12,127.9,772)" />
<use xlink:href="#f2_c" transform="matrix(12,0,0,12,55,794.8)" />
<use xlink:href="#f2_25" transform="matrix(12,0,0,12,61.6,794.8)" />
<use xlink:href="#f2_25" transform="matrix(12,0,0,12,66.4,794.8)" />
<use xlink:href="#f2_d" transform="matrix(12,0,0,12,70.8,794.8)" />
<use xlink:href="#f2_1x" transform="matrix(12,0,0,12,81.7,794.8)" />
<use xlink:href="#f2_1z" transform="matrix(12,0,0,12,89.8,794.8)" />
<use xlink:href="#f2_25" transform="matrix(12,0,0,12,98.2,794.8)" />
<use xlink:href="#f2_20" transform="matrix(12,0,0,12,103,794.8)" />
<use xlink:href="#f2_25" transform="matrix(12,0,0,12,112.5,794.8)" />
<use xlink:href="#f2_1z" transform="matrix(12,0,0,12,117.3,794.8)" />
<use xlink:href="#f2_1x" transform="matrix(12,0,0,12,130.1,794.8)" />
<use xlink:href="#f2_29" transform="matrix(12,0,0,12,138.5,794.8)" />
<use xlink:href="#f2_25" transform="matrix(12,0,0,12,152.4,794.8)" />
<use xlink:href="#f2_2a" transform="matrix(12,0,0,12,157.2,794.8)" />
<use xlink:href="#f2_2b" transform="matrix(12,0,0,12,166,794.8)" />
<use xlink:href="#f2_1x" transform="matrix(12,0,0,12,180.3,794.8)" />
<use xlink:href="#f2_1z" transform="matrix(12,0,0,12,188.3,794.8)" />
<use xlink:href="#f2_25" transform="matrix(12,0,0,12,196.8,794.8)" />
<use xlink:href="#f2_20" transform="matrix(12,0,0,12,201.5,794.8)" />
<use xlink:href="#f2_24" transform="matrix(12,0,0,12,215.8,794.8)" />
<use xlink:href="#f2_1x" transform="matrix(12,0,0,12,224.6,794.8)" />
<use xlink:href="#f2_2i" transform="matrix(12,0,0,12,233,794.8)" />
<use xlink:href="#f2_21" transform="matrix(12,0,0,12,241.8,794.8)" />
<use xlink:href="#f2_h" transform="matrix(12,0,0,12,254.9,794.8)" />
<use xlink:href="#f2_13" transform="matrix(12,0,0,12,261.2,794.8)" />
<use xlink:href="#f2_1f" transform="matrix(12,0,0,12,273.3,794.8)" />
<use xlink:href="#f2_1f" transform="matrix(12,0,0,12,286.5,794.8)" />
<use xlink:href="#f2_18" transform="matrix(12,0,0,12,299.7,794.8)" />
<use xlink:href="#f2_y" transform="matrix(12,0,0,12,317.6,794.8)" />
<use xlink:href="#f2_h" transform="matrix(12,0,0,12,332.7,794.8)" />
<use xlink:href="#f2_1e" transform="matrix(12,0,0,12,339,794.8)" />
<use xlink:href="#f2_18" transform="matrix(12,0,0,12,352.2,794.8)" />
<use xlink:href="#f2_m" transform="matrix(7.9,0,0,7.9,365.4,796.2)" />
<use xlink:href="#f2_23" transform="matrix(12,0,0,12,376.4,794.8)" />
<use xlink:href="#f2_2e" transform="matrix(12,0,0,12,385.5,794.8)" />
<use xlink:href="#f2_2b" transform="matrix(12,0,0,12,391.4,794.8)" />
<use xlink:href="#f2_2h" transform="matrix(12,0,0,12,400.9,794.8)" />
<use xlink:href="#f2_2c" transform="matrix(12,0,0,12,410.1,794.8)" />
<use xlink:href="#f2_2j" transform="matrix(12,0,0,12,55,817.5)" />
<use xlink:href="#f2_24" transform="matrix(12,0,0,12,68.3,817.5)" />
<use xlink:href="#f2_21" transform="matrix(12,0,0,12,77,817.5)" />
<use xlink:href="#f2_2e" transform="matrix(12,0,0,12,85.1,817.5)" />
<use xlink:href="#f2_21" transform="matrix(12,0,0,12,91.3,817.5)" />
<use xlink:href="#f2_1x" transform="matrix(12,0,0,12,104.1,817.5)" />
<use xlink:href="#f2_2f" transform="matrix(12,0,0,12,112.2,817.5)" />
<use xlink:href="#f2_1y" transform="matrix(12,0,0,12,124.3,817.5)" />
<use xlink:href="#f2_1x" transform="matrix(12,0,0,12,133.1,817.5)" />
<use xlink:href="#f2_2f" transform="matrix(12,0,0,12,141.2,817.5)" />
<use xlink:href="#f2_25" transform="matrix(12,0,0,12,148.5,817.5)" />
<use xlink:href="#f2_1z" transform="matrix(12,0,0,12,153.3,817.5)" />
<use xlink:href="#f2_1x" transform="matrix(12,0,0,12,166.1,817.5)" />
<use xlink:href="#f2_29" transform="matrix(12,0,0,12,174.5,817.5)" />
<use xlink:href="#f2_25" transform="matrix(12,0,0,12,188.8,817.5)" />
<use xlink:href="#f2_2a" transform="matrix(12,0,0,12,193.6,817.5)" />
<use xlink:href="#f2_2b" transform="matrix(12,0,0,12,202.4,817.5)" />
<use xlink:href="#f2_1x" transform="matrix(12,0,0,12,216.6,817.5)" />
<use xlink:href="#f2_1z" transform="matrix(12,0,0,12,224.7,817.5)" />
<use xlink:href="#f2_25" transform="matrix(12,0,0,12,233.1,817.5)" />
<use xlink:href="#f2_20" transform="matrix(12,0,0,12,237.9,817.5)" />
<use xlink:href="#f2_24" transform="matrix(12,0,0,12,251.8,817.5)" />
<use xlink:href="#f2_1x" transform="matrix(12,0,0,12,260.6,817.5)" />
<use xlink:href="#f2_2i" transform="matrix(12,0,0,12,269,817.5)" />
<use xlink:href="#f2_21" transform="matrix(12,0,0,12,278.2,817.5)" />
<use xlink:href="#f2_h" transform="matrix(12,0,0,12,291.2,817.5)" />
<use xlink:href="#f2_1e" transform="matrix(12,0,0,12,297.5,817.5)" />
<use xlink:href="#f2_18" transform="matrix(12,0,0,12,310.7,817.5)" />
<use xlink:href="#f2_m" transform="matrix(7.9,0,0,7.9,323.9,819)" />
<use xlink:href="#f2_y" transform="matrix(12,0,0,12,334.9,817.5)" />
<use xlink:href="#f2_h" transform="matrix(12,0,0,12,349.6,817.5)" />
<use xlink:href="#f2_13" transform="matrix(12,0,0,12,355.8,817.5)" />
<use xlink:href="#f2_1f" transform="matrix(12,0,0,12,367.9,817.5)" />
<use xlink:href="#f2_1f" transform="matrix(12,0,0,12,381.2,817.5)" />
<use xlink:href="#f2_18" transform="matrix(12,0,0,12,394.3,817.5)" />
<use xlink:href="#f2_23" transform="matrix(12,0,0,12,412.3,817.5)" />
<use xlink:href="#f2_2e" transform="matrix(12,0,0,12,421.4,817.5)" />
<use xlink:href="#f2_2b" transform="matrix(12,0,0,12,427.3,817.5)" />
<use xlink:href="#f2_2h" transform="matrix(12,0,0,12,436.8,817.5)" />
<use xlink:href="#f2_2c" transform="matrix(12,0,0,12,446,817.5)" />
<use xlink:href="#f2_c" transform="matrix(12,0,0,12,55,840.2)" />
<use xlink:href="#f2_25" transform="matrix(12,0,0,12,61.6,840.2)" />
<use xlink:href="#f2_25" transform="matrix(12,0,0,12,66.4,840.2)" />
<use xlink:href="#f2_25" transform="matrix(12,0,0,12,71.2,840.2)" />
<use xlink:href="#f2_d" transform="matrix(12,0,0,12,75.9,840.2)" />
<use xlink:href="#f2_1g" transform="matrix(12,0,0,12,86.9,840.2)" />
<use xlink:href="#f2_24" transform="matrix(12,0,0,12,97.1,840.2)" />
<use xlink:href="#f2_2b" transform="matrix(12,0,0,12,105.9,840.2)" />
<use xlink:href="#f2_2f" transform="matrix(12,0,0,12,115.4,840.2)" />
<use xlink:href="#f2_2c" transform="matrix(12,0,0,12,122.4,840.2)" />
<use xlink:href="#f2_24" transform="matrix(12,0,0,12,131.9,840.2)" />
<use xlink:href="#f2_2b" transform="matrix(12,0,0,12,140.7,840.2)" />
<use xlink:href="#f2_20" transform="matrix(12,0,0,12,150.2,840.2)" />
<use xlink:href="#f2_25" transform="matrix(12,0,0,12,159.8,840.2)" />
<use xlink:href="#f2_21" transform="matrix(12,0,0,12,164.2,840.2)" />
<use xlink:href="#f2_2f" transform="matrix(12,0,0,12,172.2,840.2)" />
<use xlink:href="#f2_2g" transform="matrix(12,0,0,12,179.2,840.2)" />
<use xlink:href="#f2_21" transform="matrix(12,0,0,12,184.7,840.2)" />
<use xlink:href="#f2_2e" transform="matrix(12,0,0,12,192.7,840.2)" />
<use xlink:href="#f2_28" transform="matrix(12,0,0,12,203.7,840.2)" />
<use xlink:href="#f2_25" transform="matrix(12,0,0,12,208.5,840.2)" />
<use xlink:href="#f2_2a" transform="matrix(12,0,0,12,213.2,840.2)" />
<use xlink:href="#f2_27" transform="matrix(12,0,0,12,222.4,840.2)" />
<use xlink:href="#f2_1x" transform="matrix(12,0,0,12,231.6,840.2)" />
<use xlink:href="#f2_23" transform="matrix(12,0,0,12,239.6,840.2)" />
<use xlink:href="#f2_21" transform="matrix(12,0,0,12,249.1,840.2)" />
<use xlink:href="#f3_1h" transform="matrix(12,0,0,12,55,886.1)" />
<use xlink:href="#f3_l" transform="matrix(12,0,0,12,74.1,886.1)" />
<use xlink:href="#f3_r" transform="matrix(12,0,0,12,83.3,886.1)" />
<use xlink:href="#f3_i" transform="matrix(12,0,0,12,92.4,886.1)" />
<use xlink:href="#f2_1m" transform="matrix(12,0,0,12,101.6,886.1)" />
<use xlink:href="#f2_1x" transform="matrix(12,0,0,12,114.8,886.1)" />
<use xlink:href="#f2_2c" transform="matrix(12,0,0,12,122.9,886.1)" />
<use xlink:href="#f2_2b" transform="matrix(12,0,0,12,132,886.1)" />
<use xlink:href="#f2_2h" transform="matrix(12,0,0,12,141.6,886.1)" />
<use xlink:href="#f2_2e" transform="matrix(12,0,0,12,150.4,886.1)" />
<use xlink:href="#f2_2c" transform="matrix(12,0,0,12,161.3,886.1)" />
<use xlink:href="#f2_2e" transform="matrix(12,0,0,12,170.1,886.1)" />
<use xlink:href="#f2_21" transform="matrix(12,0,0,12,176.3,886.1)" />
<use xlink:href="#f2_2f" transform="matrix(12,0,0,12,184.4,886.1)" />
<use xlink:href="#f2_2f" transform="matrix(12,0,0,12,191.4,886.1)" />
<use xlink:href="#f2_2h" transform="matrix(12,0,0,12,198.3,886.1)" />
<use xlink:href="#f2_2e" transform="matrix(12,0,0,12,207.5,886.1)" />
<use xlink:href="#f2_21" transform="matrix(12,0,0,12,213.7,886.1)" />
<use xlink:href="#f2_2b" transform="matrix(12,0,0,12,226.5,886.1)" />
<use xlink:href="#f2_22" transform="matrix(12,0,0,12,236,886.1)" />
<use xlink:href="#f2_2j" transform="matrix(12,0,0,12,246.3,886.1)" />
<use xlink:href="#f2_1x" transform="matrix(12,0,0,12,259.5,886.1)" />
<use xlink:href="#f2_2g" transform="matrix(12,0,0,12,267.6,886.1)" />
<use xlink:href="#f2_21" transform="matrix(12,0,0,12,273,886.1)" />
<use xlink:href="#f2_2e" transform="matrix(12,0,0,12,281.1,886.1)" />
<use xlink:href="#f2_1x" transform="matrix(12,0,0,12,292.1,886.1)" />
<use xlink:href="#f2_2g" transform="matrix(12,0,0,12,299.8,886.1)" />
<use xlink:href="#f2_m" transform="matrix(12,0,0,12,309.6,886.1)" />
<use xlink:href="#f2_k" transform="matrix(12,0,0,12,318.8,886.1)" />
<use xlink:href="#f2_37" transform="matrix(12,0,0,12,328,886.1)" />
<use xlink:href="#f2_13" transform="matrix(12,0,0,12,334.9,886.1)" />
<use xlink:href="#f2_25" transform="matrix(12,0,0,12,352.2,886.1)" />
<use xlink:href="#f2_2f" transform="matrix(12,0,0,12,356.6,886.1)" />
<use xlink:href="#f2_l" transform="matrix(12,0,0,12,368.3,886.1)" />
<use xlink:href="#f2_r" transform="matrix(12,0,0,12,377.4,886.1)" />
<use xlink:href="#f2_i" transform="matrix(12,0,0,12,386.6,886.1)" />
<use xlink:href="#f2_p" transform="matrix(12,0,0,12,391.4,886.1)" />
<use xlink:href="#f2_29" transform="matrix(12,0,0,12,405.6,886.1)" />
<use xlink:href="#f2_29" transform="matrix(12,0,0,12,419.6,886.1)" />
<use xlink:href="#f2_18" transform="matrix(12,0,0,12,437.9,886.1)" />
<use xlink:href="#f2_23" transform="matrix(12,0,0,12,451.1,886.1)" />
<use xlink:href="#f2_i" transform="matrix(12,0,0,12,460.3,886.1)" />
<use xlink:href="#f2_13" transform="matrix(12,0,0,12,469.8,886.1)" />
<use xlink:href="#f2_1x" transform="matrix(12,0,0,12,481.9,886.1)" />
<use xlink:href="#f2_28" transform="matrix(12,0,0,12,490.3,886.1)" />
<use xlink:href="#f2_1z" transform="matrix(12,0,0,12,495,886.1)" />
<use xlink:href="#f2_2h" transform="matrix(12,0,0,12,503.1,886.1)" />
<use xlink:href="#f2_28" transform="matrix(12,0,0,12,512.6,886.1)" />
<use xlink:href="#f2_1x" transform="matrix(12,0,0,12,517.4,886.1)" />
<use xlink:href="#f2_2g" transform="matrix(12,0,0,12,525.5,886.1)" />
<use xlink:href="#f2_21" transform="matrix(12,0,0,12,530.9,886.1)" />
<use xlink:href="#f2_2g" transform="matrix(12,0,0,12,543.7,886.1)" />
<use xlink:href="#f2_24" transform="matrix(12,0,0,12,549.2,886.1)" />
<use xlink:href="#f2_21" transform="matrix(12,0,0,12,558,886.1)" />
<use xlink:href="#f2_2i" transform="matrix(12,0,0,12,570.8,886.1)" />
<use xlink:href="#f2_1x" transform="matrix(12,0,0,12,579.6,886.1)" />
<use xlink:href="#f2_2c" transform="matrix(12,0,0,12,587.7,886.1)" />
<use xlink:href="#f2_2b" transform="matrix(12,0,0,12,596.9,886.1)" />
<use xlink:href="#f2_2h" transform="matrix(12,0,0,12,606.4,886.1)" />
<use xlink:href="#f2_2e" transform="matrix(12,0,0,12,615.6,886.1)" />
<use xlink:href="#f2_2c" transform="matrix(12,0,0,12,626.5,886.1)" />
<use xlink:href="#f2_2e" transform="matrix(12,0,0,12,635.3,886.1)" />
<use xlink:href="#f2_21" transform="matrix(12,0,0,12,641.5,886.1)" />
<use xlink:href="#f2_2f" transform="matrix(12,0,0,12,649.6,886.1)" />
<use xlink:href="#f2_2f" transform="matrix(12,0,0,12,656.6,886.1)" />
<use xlink:href="#f2_2h" transform="matrix(12,0,0,12,663.5,886.1)" />
<use xlink:href="#f2_2e" transform="matrix(12,0,0,12,672.7,886.1)" />
<use xlink:href="#f2_21" transform="matrix(12,0,0,12,678.9,886.1)" />
<use xlink:href="#f2_2b" transform="matrix(12,0,0,12,691.7,886.1)" />
<use xlink:href="#f2_22" transform="matrix(12,0,0,12,701.3,886.1)" />
<use xlink:href="#f2_2j" transform="matrix(12,0,0,12,711.5,886.1)" />
<use xlink:href="#f2_1x" transform="matrix(12,0,0,12,724.7,886.1)" />
<use xlink:href="#f2_2g" transform="matrix(12,0,0,12,732.8,886.1)" />
<use xlink:href="#f2_21" transform="matrix(12,0,0,12,738.2,886.1)" />
<use xlink:href="#f2_2e" transform="matrix(12,0,0,12,746.3,886.1)" />
<use xlink:href="#f2_1x" transform="matrix(12,0,0,12,756.9,886.1)" />
<use xlink:href="#f2_2g" transform="matrix(12,0,0,12,764.6,886.1)" />
<use xlink:href="#f2_m" transform="matrix(12,0,0,12,774.9,886.1)" />
<use xlink:href="#f2_k" transform="matrix(12,0,0,12,784,886.1)" />
<use xlink:href="#f2_37" transform="matrix(12,0,0,12,792.8,886.1)" />
<use xlink:href="#f2_13" transform="matrix(12,0,0,12,799.8,886.1)" />
<use xlink:href="#f2_2j" transform="matrix(12,0,0,12,55,908.9)" />
<use xlink:href="#f2_24" transform="matrix(12,0,0,12,68.3,908.9)" />
<use xlink:href="#f2_21" transform="matrix(12,0,0,12,77,908.9)" />
<use xlink:href="#f2_2a" transform="matrix(12,0,0,12,85.5,908.9)" />
<use xlink:href="#f2_l" transform="matrix(12,0,0,12,99,908.9)" />
<use xlink:href="#f2_p" transform="matrix(12,0,0,12,108.2,908.9)" />
<use xlink:href="#f2_23" transform="matrix(12,0,0,12,122.1,908.9)" />
<use xlink:href="#f2_2b" transform="matrix(12,0,0,12,136,908.9)" />
<use xlink:href="#f2_22" transform="matrix(12,0,0,12,145.5,908.9)" />
<use xlink:href="#f2_23" transform="matrix(12,0,0,12,155.8,908.9)" />
<use xlink:href="#f2_28" transform="matrix(12,0,0,12,165.3,908.9)" />
<use xlink:href="#f2_2h" transform="matrix(12,0,0,12,169.7,908.9)" />
<use xlink:href="#f2_1z" transform="matrix(12,0,0,12,178.8,908.9)" />
<use xlink:href="#f2_2b" transform="matrix(12,0,0,12,186.9,908.9)" />
<use xlink:href="#f2_2f" transform="matrix(12,0,0,12,196.4,908.9)" />
<use xlink:href="#f2_21" transform="matrix(12,0,0,12,203.4,908.9)" />
<use xlink:href="#f2_c" transform="matrix(12,0,0,12,216.2,908.9)" />
<use xlink:href="#f2_1d" transform="matrix(12,0,0,12,222.4,908.9)" />
<use xlink:href="#f2_2b" transform="matrix(12,0,0,12,238.6,908.9)" />
<use xlink:href="#f2_28" transform="matrix(12,0,0,12,248.1,908.9)" />
<use xlink:href="#f2_1x" transform="matrix(12,0,0,12,252.5,908.9)" />
<use xlink:href="#f2_2e" transform="matrix(12,0,0,12,260.5,908.9)" />
<use xlink:href="#f2_29" transform="matrix(12,0,0,12,271.9,908.9)" />
<use xlink:href="#f2_1x" transform="matrix(12,0,0,12,285.8,908.9)" />
<use xlink:href="#f2_2f" transform="matrix(12,0,0,12,293.9,908.9)" />
<use xlink:href="#f2_2f" transform="matrix(12,0,0,12,300.8,908.9)" />
<use xlink:href="#f2_x" transform="matrix(12,0,0,12,312.5,908.9)" />
<use xlink:href="#f2_l" transform="matrix(12,0,0,12,327.6,908.9)" />
<use xlink:href="#f2_s" transform="matrix(12,0,0,12,336.7,908.9)" />
<use xlink:href="#f2_k" transform="matrix(12,0,0,12,345.9,908.9)" />
<use xlink:href="#f2_23" transform="matrix(12,0,0,12,359.8,908.9)" />
<use xlink:href="#f2_29" transform="matrix(12,0,0,12,373.7,908.9)" />
<use xlink:href="#f2_2b" transform="matrix(12,0,0,12,387.3,908.9)" />
<use xlink:href="#f2_28" transform="matrix(12,0,0,12,397.2,908.9)" />
<use xlink:href="#f2_h" transform="matrix(7.9,0,0,7.9,402.4,901.9)" />
<use xlink:href="#f2_l" transform="matrix(7.9,0,0,7.9,406.1,901.9)" />
<use xlink:href="#f2_d" transform="matrix(12,0,0,12,412.3,908.9)" />
<use xlink:href="#f2_25" transform="matrix(12,0,0,12,423.6,908.9)" />
<use xlink:href="#f2_2f" transform="matrix(12,0,0,12,428.4,908.9)" />
<use xlink:href="#f2_20" transform="matrix(12,0,0,12,440.1,908.9)" />
<use xlink:href="#f2_25" transform="matrix(12,0,0,12,449.6,908.9)" />
<use xlink:href="#f2_2f" transform="matrix(12,0,0,12,454,908.9)" />
<use xlink:href="#f2_2f" transform="matrix(12,0,0,12,461.3,908.9)" />
<use xlink:href="#f2_2b" transform="matrix(12,0,0,12,468.3,908.9)" />
<use xlink:href="#f2_28" transform="matrix(12,0,0,12,478.2,908.9)" />
<use xlink:href="#f2_2i" transform="matrix(12,0,0,12,482.9,908.9)" />
<use xlink:href="#f2_21" transform="matrix(12,0,0,12,491.7,908.9)" />
<use xlink:href="#f2_20" transform="matrix(12,0,0,12,499.8,908.9)" />
<use xlink:href="#f2_25" transform="matrix(12,0,0,12,514.1,908.9)" />
<use xlink:href="#f2_2a" transform="matrix(12,0,0,12,518.9,908.9)" />
<use xlink:href="#f2_l" transform="matrix(12,0,0,12,532.4,908.9)" />
<use xlink:href="#f2_p" transform="matrix(12,0,0,12,541.6,908.9)" />
<use xlink:href="#f2_k" transform="matrix(12,0,0,12,550.7,908.9)" />
<use xlink:href="#f2_23" transform="matrix(12,0,0,12,564.7,908.9)" />
<use xlink:href="#f2_2b" transform="matrix(12,0,0,12,578.6,908.9)" />
<use xlink:href="#f2_22" transform="matrix(12,0,0,12,588.1,908.9)" />
<use xlink:href="#f2_2j" transform="matrix(12,0,0,12,598.3,908.9)" />
<use xlink:href="#f2_1x" transform="matrix(12,0,0,12,611.6,908.9)" />
<use xlink:href="#f2_2g" transform="matrix(12,0,0,12,619.6,908.9)" />
<use xlink:href="#f2_21" transform="matrix(12,0,0,12,625.1,908.9)" />
<use xlink:href="#f2_2e" transform="matrix(12,0,0,12,633.1,908.9)" />
<use xlink:href="#f2_i" transform="matrix(12,0,0,12,639,908.9)" />
<use xlink:href="#f3_11" transform="matrix(12,0,0,12,55,931.6)" />
<use xlink:href="#f3_2a" transform="matrix(12,0,0,12,68.3,931.6)" />
<use xlink:href="#f3_2f" transform="matrix(12,0,0,12,78.5,931.6)" />
<use xlink:href="#f3_2j" transform="matrix(12,0,0,12,85.5,931.6)" />
<use xlink:href="#f3_21" transform="matrix(12,0,0,12,98.7,931.6)" />
<use xlink:href="#f3_2e" transform="matrix(12,0,0,12,107.1,931.6)" />
<use xlink:href="#f3_u" transform="matrix(12,0,0,12,114.8,931.6)" />
</g>
<path d="M116.9,1067.7h52.6m19.9,0h65.2M116.9,1122h64m19.8,0h68.1m-146.1,28.6v27m147.3,-27v27M122.3,1151.1H270.5m-148.2,26H270.5" class="g2_97" />
<g clip-path="url(#c1_97)">
<g fill="#000000" >
<use xlink:href="#f2_l" transform="matrix(7.1,0,0,7.1,412.9,991.7)" />
<use xlink:href="#f2_l" transform="matrix(7.1,0,0,7.1,253.7,1022)" />
<use xlink:href="#f2_l" transform="matrix(12.3,0,0,12.2,106.2,969.7)" />
<use xlink:href="#f2_r" transform="matrix(12.3,0,0,12.2,115.3,969.7)" />
<use xlink:href="#f2_i" transform="matrix(12.3,0,0,12.2,124.4,969.7)" />
<use xlink:href="#f2_p" transform="matrix(12.3,0,0,12.2,129,969.7)" />
<use xlink:href="#f2_l" transform="matrix(12.3,0,0,12.2,277.1,969.7)" />
<use xlink:href="#f2_p" transform="matrix(12.3,0,0,12.2,286.2,969.7)" />
<use xlink:href="#f2_k" transform="matrix(12.3,0,0,12.2,295.4,969.7)" />
<use xlink:href="#f2_l" transform="matrix(12.3,0,0,12.2,149.8,1000)" />
<use xlink:href="#f2_p" transform="matrix(12.3,0,0,12.2,158.9,1000)" />
<use xlink:href="#f2_l" transform="matrix(12.3,0,0,12.2,333.3,1000)" />
<use xlink:href="#f2_s" transform="matrix(12.3,0,0,12.2,342.4,1000)" />
<use xlink:href="#f2_23" transform="matrix(12.3,0,0,12.2,355.2,1000)" />
<use xlink:href="#f2_29" transform="matrix(12.3,0,0,12.2,364.3,1000)" />
<use xlink:href="#f2_29" transform="matrix(12.3,0,0,12.2,378.3,1000)" />
<use xlink:href="#f2_2b" transform="matrix(12.3,0,0,12.2,392.3,1000)" />
<use xlink:href="#f2_28" transform="matrix(12.3,0,0,12.2,401.4,1000)" />
<use xlink:href="#f2_l" transform="matrix(12.3,0,0,12.2,159.7,1030.2)" />
<use xlink:href="#f2_s" transform="matrix(12.3,0,0,12.2,168.8,1030.2)" />
<use xlink:href="#f2_k" transform="matrix(12.3,0,0,12.2,178,1030.2)" />
<use xlink:href="#f2_l" transform="matrix(12.3,0,0,12.2,116.1,1114.8)" />
<use xlink:href="#f2_r" transform="matrix(12.3,0,0,12.2,125.2,1114.8)" />
<use xlink:href="#f2_i" transform="matrix(12.3,0,0,12.2,134.4,1114.8)" />
<use xlink:href="#f2_p" transform="matrix(12.3,0,0,12.2,138.9,1114.8)" />
<use xlink:href="#f2_l" transform="matrix(12.3,0,0,12.2,209.2,1114.8)" />
<use xlink:href="#f2_p" transform="matrix(12.3,0,0,12.2,218.4,1114.8)" />
<use xlink:href="#f2_l" transform="matrix(12.3,0,0,12.2,240.7,1114.8)" />
<use xlink:href="#f2_s" transform="matrix(12.3,0,0,12.2,249.8,1114.8)" />
<use xlink:href="#f2_l" transform="matrix(12.3,0,0,12.2,132.3,1141.1)" />
<use xlink:href="#f2_r" transform="matrix(12.3,0,0,12.2,141.5,1141.1)" />
<use xlink:href="#f2_i" transform="matrix(12.3,0,0,12.2,150.6,1141.1)" />
<use xlink:href="#f2_p" transform="matrix(12.3,0,0,12.2,155.2,1141.1)" />
<use xlink:href="#f2_l" transform="matrix(12.3,0,0,12.2,199.8,1141.1)" />
<use xlink:href="#f2_s" transform="matrix(12.3,0,0,12.2,208.9,1141.1)" />
<use xlink:href="#f2_k" transform="matrix(12.3,0,0,12.2,218.1,1141.1)" />
<use xlink:href="#f2_l" transform="matrix(12.3,0,0,12.2,240.6,1141.1)" />
<use xlink:href="#f2_p" transform="matrix(12.3,0,0,12.2,249.8,1141.1)" />
<use xlink:href="#f2_k" transform="matrix(12.3,0,0,12.2,258.9,1141.1)" />
<use xlink:href="#f2_l" transform="matrix(12.3,0,0,12.2,158,1168.7)" />
<use xlink:href="#f2_r" transform="matrix(12.3,0,0,12.2,167.1,1168.7)" />
<use xlink:href="#f2_i" transform="matrix(12.3,0,0,12.2,176.3,1168.7)" />
<use xlink:href="#f2_n" transform="matrix(12.3,0,0,12.2,180.8,1168.7)" />
<use xlink:href="#f2_m" transform="matrix(12.3,0,0,12.2,190,1168.7)" />
<use xlink:href="#f2_p" transform="matrix(12.3,0,0,12.2,199.1,1168.7)" />
<use xlink:href="#f5_11" transform="matrix(7.1,0,0,7.1,81.4,974.5)" />
<use xlink:href="#f5_11" transform="matrix(7.1,0,0,7.1,252.4,974.5)" />
<use xlink:href="#f5_12" transform="matrix(7.1,0,0,7.1,129.8,1004.7)" />
<use xlink:href="#f5_11" transform="matrix(7.1,0,0,7.1,308.5,1004.7)" />
<use xlink:href="#f5_12" transform="matrix(7.1,0,0,7.1,134.4,1035)" />
<use xlink:href="#f5_11" transform="matrix(7.1,0,0,7.1,127.7,1065.2)" />
<use xlink:href="#f5_2f" transform="matrix(7.1,0,0,7.1,162.6,1065.2)" />
<use xlink:href="#f5_12" transform="matrix(7.1,0,0,7.1,203.6,1065.2)" />
<use xlink:href="#f5_11" transform="matrix(7.1,0,0,7.1,245.9,1065.2)" />
<use xlink:href="#f5_11" transform="matrix(7.1,0,0,7.1,143.9,1091.5)" />
<use xlink:href="#f5_12" transform="matrix(7.1,0,0,7.1,208.2,1091.5)" />
<use xlink:href="#f5_11" transform="matrix(7.1,0,0,7.1,245.9,1091.5)" />
<use xlink:href="#f5_2f" transform="matrix(7.1,0,0,7.1,174,1119.5)" />
<use xlink:href="#f5_2f" transform="matrix(7.1,0,0,7.1,135,1173.4)" />
<use xlink:href="#f5_1g" transform="matrix(12.3,0,0,12.2,63.9,969.7)" />
<use xlink:href="#f5_29" transform="matrix(12.3,0,0,12.2,142.1,969.7)" />
<use xlink:href="#f5_29" transform="matrix(12.3,0,0,12.2,155.2,969.7)" />
<use xlink:href="#f5_18" transform="matrix(12.3,0,0,12.2,173.4,969.7)" />
<use xlink:href="#f5_23" transform="matrix(12.3,0,0,12.2,186.6,969.7)" />
<use xlink:href="#f5_1n" transform="matrix(12.3,0,0,12.2,237,969.7)" />
<use xlink:href="#f5_23" transform="matrix(12.3,0,0,12.2,309.6,969.7)" />
<use xlink:href="#f5_29" transform="matrix(12.3,0,0,12.2,318.8,969.7)" />
<use xlink:href="#f5_1n" transform="matrix(12.3,0,0,12.2,114.9,1000)" />
<use xlink:href="#f5_23" transform="matrix(12.3,0,0,12.2,172.8,1000)" />
<use xlink:href="#f5_29" transform="matrix(12.3,0,0,12.2,182,1000)" />
<use xlink:href="#f5_1d" transform="matrix(12.3,0,0,12.2,290.6,1000)" />
<use xlink:href="#f5_1d" transform="matrix(12.3,0,0,12.2,116.9,1030.2)" />
<use xlink:href="#f5_23" transform="matrix(12.3,0,0,12.2,192.2,1030.2)" />
<use xlink:href="#f5_29" transform="matrix(12.3,0,0,12.2,201.3,1030.2)" />
<use xlink:href="#f5_29" transform="matrix(12.3,0,0,12.2,218.9,1030.2)" />
<use xlink:href="#f5_2b" transform="matrix(12.3,0,0,12.2,232,1030.2)" />
<use xlink:href="#f5_28" transform="matrix(12.3,0,0,12.2,241.2,1030.2)" />
<use xlink:href="#f5_1g" transform="matrix(12.3,0,0,12.2,118.6,1060.5)" />
<use xlink:href="#f5_1g" transform="matrix(12.3,0,0,12.2,154.2,1060.5)" />
<use xlink:href="#f5_1n" transform="matrix(12.3,0,0,12.2,188.7,1060.5)" />
<use xlink:href="#f5_1d" transform="matrix(12.3,0,0,12.2,227.9,1060.5)" />
<use xlink:href="#f5_1g" transform="matrix(12.3,0,0,12.2,134.9,1086.8)" />
<use xlink:href="#f5_1d" transform="matrix(12.3,0,0,12.2,190.8,1086.8)" />
<use xlink:href="#f5_1n" transform="matrix(12.3,0,0,12.2,230.5,1086.8)" />
<use xlink:href="#f5_1g" transform="matrix(12.3,0,0,12.2,165.5,1114.8)" />
<use xlink:href="#f5_1g" transform="matrix(12.3,0,0,12.2,126.6,1168.7)" />
<use xlink:href="#f5_29" transform="matrix(12.3,0,0,12.2,212.2,1168.7)" />
<use xlink:href="#f5_29" transform="matrix(12.3,0,0,12.2,225.4,1168.7)" />
<use xlink:href="#f5_18" transform="matrix(12.3,0,0,12.2,243.5,1168.7)" />
<use xlink:href="#f5_23" transform="matrix(12.3,0,0,12.2,256.7,1168.7)" />
<use xlink:href="#f4_h" transform="matrix(7.1,0,0,7.1,407.2,991.7)" />
<use xlink:href="#f4_h" transform="matrix(7.1,0,0,7.1,247.9,1022)" />
<use xlink:href="#f4_x" transform="matrix(12.3,0,0,12.2,93.7,969.7)" />
<use xlink:href="#f4_x" transform="matrix(12.3,0,0,12.2,264.7,969.7)" />
<use xlink:href="#f4_x" transform="matrix(12.3,0,0,12.2,142.6,1000)" />
<use xlink:href="#f4_x" transform="matrix(12.3,0,0,12.2,320.8,1000)" />
<use xlink:href="#f4_x" transform="matrix(12.3,0,0,12.2,147.2,1030.2)" />
<use xlink:href="#f4_h" transform="matrix(12.3,0,0,12.2,139.9,1060.5)" />
<use xlink:href="#f4_3a" transform="matrix(12.3,0,0,12.2,214.6,1060.5)" />
<use xlink:href="#f4_x" transform="matrix(12.3,0,0,12.2,174.6,1072.3)" />
<use xlink:href="#f4_3a" transform="matrix(12.3,0,0,12.2,219.2,1086.8)" />
<use xlink:href="#f4_h" transform="matrix(12.3,0,0,12.2,151.2,1114.8)" />
<use xlink:href="#f4_3a" transform="matrix(12.3,0,0,12.2,229.6,1114.8)" />
<use xlink:href="#f4_x" transform="matrix(12.3,0,0,12.2,185.9,1126.6)" />
<use xlink:href="#f4_3a" transform="matrix(12.3,0,0,12.2,229.6,1141.1)" />
<use xlink:href="#f4_x" transform="matrix(12.3,0,0,12.2,145.5,1168.7)" />
</g>
</g>
<image preserveAspectRatio="none" x="76" y="949" width="42" height="19" xlink:href="img/6.png" />
<image preserveAspectRatio="none" x="130" y="1040" width="43" height="19" xlink:href="img/7.png" />
<image preserveAspectRatio="none" x="147" y="1066" width="42" height="19" xlink:href="img/8.png" />
<image preserveAspectRatio="none" x="57" y="407" width="331" height="96" xlink:href="img/9.png" />
<image preserveAspectRatio="none" x="57" y="505" width="389" height="99" xlink:href="img/10.png" />
<path fill-rule="evenodd" d="M37.4,38.1h.7v-.7h-.7v.7Z" class="g3_97" />
<path fill-rule="evenodd" d="M37.4,38.1h.7v-.7h-.7v.7Z" class="g3_97" />
<path fill-rule="evenodd" d="M38.1,38.1H871.5v-.7H38.1v.7Z" class="g3_97" />
<path fill-rule="evenodd" d="M871.5,38.1h.8v-.7h-.8v.7Z" class="g3_97" />
<path fill-rule="evenodd" d="M871.5,38.1h.8v-.7h-.8v.7Z" class="g3_97" />
<path fill-rule="evenodd" d="M37.4,1248.5h.7V38.1h-.7V1248.5Z" class="g3_97" />
<path fill-rule="evenodd" d="M872.3,1248.5h.7V38.1h-.7V1248.5Z" class="g3_97" />
<path fill-rule="evenodd" d="M871.5,1248.5h.8V38.1h-.8V1248.5Z" class="g3_97" />
<path fill-rule="evenodd" d="M37.4,1249.2h.7v-.7h-.7v.7Z" class="g3_97" />
<path fill-rule="evenodd" d="M37.4,1249.2h.7v-.7h-.7v.7Z" class="g3_97" />
<path fill-rule="evenodd" d="M38.1,1249.9H871.5v-.7H38.1v.7Z" class="g3_97" />
<path fill-rule="evenodd" d="M38.1,1249.2H871.5v-.7H38.1v.7Z" class="g3_97" />
<path fill-rule="evenodd" d="M872.3,1249.9h.7v-1.4h-.7v1.4Z" class="g3_97" />
<path fill-rule="evenodd" d="M871.5,1249.9H873v-.7h-1.5v.7Z" class="g3_97" />
<path fill-rule="evenodd" d="M871.5,1249.2h.8v-.7h-.8v.7Z" class="g3_97" />
<path fill-rule="evenodd" d="M871.5,1249.2h.8v-.7h-.8v.7Z" class="g3_97" />
<defs>
<path d="M489,-15c0,0,-99,0,-179,30c0,0,-80,30,-136,91c0,0,-56,61,-85,152c0,0,-30,91,-30,212c0,0,0,123,32,218c0,0,33,96,92,161c0,0,59,65,142,98c0,0,82,34,181,34c0,0,40,0,78,-7c0,0,37,-7,69,-18c0,0,31,-11,57,-25c0,0,25,-14,35,-24c0,0,10,-10,14,-17c0,0,4,-7,6,-17c0,0,2,-11,3,-25c0,0,2,-14,2,-35c0,0,0,-22,-2,-38c0,0,-1,-15,-5,-25c0,0,-4,-10,-9,-14c0,0,-5,-5,-12,-5c0,0,-11,0,-28,13c0,0,-18,13,-45,29c0,0,-27,16,-65,29c0,0,-37,13,-89,13c0,0,-58,0,-103,-23c0,0,-45,-23,-77,-67c0,0,-31,-44,-48,-106c0,0,-16,-61,-16,-139c0,0,0,-85,17,-147c0,0,18,-62,50,-103c0,0,33,-40,79,-60c0,0,45,-19,103,-19c0,0,52,0,90,12c0,0,38,12,65,27c0,0,27,15,45,27c0,0,17,12,27,12c0,0,8,0,12,-3c0,0,4,-3,7,-12c0,0,3,-9,5,-25c0,0,1,-16,1,-43c0,0,0,-18,-1,-31c0,0,-1,-14,-3,-23c0,0,-2,-9,-6,-16c0,0,-4,-7,-12,-15c0,0,-8,-9,-32,-22c0,0,-23,-14,-57,-26C661,13,627,1,583,-6c0,0,-43,-9,-94,-9Z" 
id="f0_j"
transform="scale(0.001,-0.001)" />

<path d="M440,150c0,0,41,0,68,8c0,0,28,9,49,26c0,0,20,16,32,41c0,0,11,25,11,58c0,0,0,33,-11,60c0,0,-11,26,-33,44c0,0,-21,18,-55,28c0,0,-33,9,-87,9H298V150ZM407,567c0,0,42,0,68,10c0,0,25,10,42,28c0,0,16,17,24,41c0,0,9,24,9,50c0,0,0,29,-9,52c0,0,-9,23,-27,39c0,0,-18,15,-45,23c0,0,-27,8,-72,8H298V567ZM164,0c0,0,-25,0,-42,15c0,0,-16,14,-16,47V903c0,0,0,33,16,48c0,0,17,14,42,14H406c0,0,88,0,150,-15c0,0,61,-15,103,-45c0,0,42,-30,65,-77c0,0,22,-46,22,-108c0,0,0,-36,-9,-67c0,0,-9,-31,-26,-56c0,0,-17,-25,-42,-45c0,0,-25,-19,-57,-31c0,0,41,-7,76,-26c0,0,34,-19,60,-48c0,0,26,-30,41,-69c0,0,15,-40,15,-89c0,0,0,-51,-14,-93c0,0,-15,-42,-40,-74c0,0,-25,-32,-59,-55c0,0,-35,-23,-77,-38C614,29,573,14,525,7C525,7,478,0,420,0Z" 
id="f0_i"
transform="scale(0.001,-0.001)" />

<path d="M320,-17c0,0,-50,0,-93,9c0,0,-43,8,-76,19c0,0,-32,11,-54,24C97,35,75,48,65,58c0,0,-10,9,-14,28c0,0,-4,18,-4,52c0,0,0,23,1,39c0,0,2,15,5,25c0,0,4,10,9,14c0,0,6,4,13,4c0,0,11,0,30,-12c0,0,19,-13,49,-28c0,0,30,-15,71,-27c0,0,42,-12,96,-12c0,0,36,0,64,8c0,0,29,9,49,25c0,0,19,15,30,38c0,0,10,23,10,52c0,0,0,33,-18,56c0,0,-18,24,-46,42c0,0,-29,18,-66,34c0,0,-36,16,-75,34c0,0,-39,18,-76,41c0,0,-36,23,-65,54c0,0,-29,32,-47,75c0,0,-17,44,-17,104c0,0,0,70,25,122c0,0,26,53,70,88c0,0,43,34,103,51c0,0,59,18,125,18c0,0,35,0,69,-6c0,0,34,-5,64,-14c0,0,30,-9,53,-20c0,0,23,-11,31,-18c0,0,7,-8,10,-13c0,0,3,-5,4,-14c0,0,2,-8,3,-21c0,0,1,-13,1,-33c0,0,0,-21,-1,-36c0,0,-1,-15,-4,-25c0,0,-3,-9,-7,-14c0,0,-5,-4,-14,-4c0,0,-8,0,-26,10c0,0,-18,10,-44,23c0,0,-26,12,-60,22c0,0,-34,10,-75,10c0,0,-32,0,-56,-8c0,0,-24,-8,-40,-21c0,0,-16,-14,-24,-34c0,0,-8,-19,-8,-41c0,0,0,-32,18,-56c0,0,17,-23,46,-42c0,0,30,-18,67,-34c0,0,38,-16,76,-34c0,0,39,-18,76,-41c0,0,38,-22,67,-54c0,0,29,-32,47,-75c0,0,18,-43,18,-101c0,0,0,-76,-29,-133c0,0,-28,-58,-77,-96C572,60,524,21,459,2c0,0,-65,-19,-139,-19Z" 
id="f0_2n"
transform="scale(0.001,-0.001)" />

<path d="M164,0c0,0,-25,0,-42,15c0,0,-16,14,-16,47V903c0,0,0,33,16,48c0,0,17,14,42,14H645c0,0,7,0,12,-4c0,0,5,-3,9,-13c0,0,4,-9,6,-24c0,0,2,-14,2,-36c0,0,0,-21,-2,-36c0,0,-2,-14,-6,-23c0,0,-4,-9,-9,-13c0,0,-5,-4,-12,-4H301V576H593c0,0,6,0,12,-4c0,0,6,-4,9,-13c0,0,4,-8,6,-23c0,0,2,-14,2,-35c0,0,0,-22,-2,-36c0,0,-2,-14,-6,-23c0,0,-3,-8,-9,-12c0,0,-6,-4,-12,-4H301V154H649c0,0,6,0,12,-5c0,0,5,-4,9,-13c0,0,4,-9,6,-23c0,0,2,-15,2,-36c0,0,0,-22,-2,-36c0,0,-2,-15,-6,-24c0,0,-4,-9,-9,-13c0,0,-6,-4,-12,-4Z" 
id="f0_t"
transform="scale(0.001,-0.001)" />

<path d="M79,297c0,0,-19,0,-27,18c0,0,-8,17,-8,60c0,0,0,41,8,59c0,0,8,17,27,17H389c0,0,9,0,15,-4c0,0,7,-4,11,-13c0,0,5,-9,7,-23c0,0,1,-15,1,-36c0,0,0,-43,-8,-61c0,0,-8,-17,-26,-17Z" 
id="f0_oj"
transform="scale(0.001,-0.001)" />

<path d="M121,-4c0,0,-39,0,-60,2C61,-2,39,0,32,8c0,0,-8,8,-3,24c0,0,4,15,18,41L279,495L64,892c0,0,-14,26,-19,42c0,0,-5,17,4,24c0,0,9,8,32,10c0,0,23,2,65,2c0,0,35,0,56,-2c0,0,20,-1,32,-4c0,0,12,-4,17,-10c0,0,5,-6,9,-15L431,620L595,939c0,0,5,9,10,15c0,0,5,6,16,10c0,0,10,3,29,4c0,0,19,2,53,2c0,0,37,0,59,-2c0,0,22,-2,30,-10c0,0,8,-8,4,-24c0,0,-4,-16,-17,-42L564,497L793,73c0,0,14,-26,18,-41c0,0,4,-16,-5,-24c0,0,-9,-8,-32,-10c0,0,-24,-2,-65,-2c0,0,-36,0,-56,2c0,0,-20,1,-31,3c0,0,-12,4,-17,10c0,0,-5,6,-9,15L414,374L233,26c0,0,-4,-9,-9,-15c0,0,-6,-6,-17,-10c0,0,-12,-2,-32,-3c0,0,-21,-2,-54,-2Z" 
id="f0_3e"
transform="scale(0.001,-0.001)" />

<path d="M204,-4c0,0,-28,0,-47,2c0,0,-19,2,-31,5c0,0,-11,4,-16,10c0,0,-4,6,-4,13V939c0,0,0,7,4,13c0,0,5,6,17,10c0,0,11,3,30,6c0,0,19,2,47,2c0,0,29,0,48,-2c0,0,18,-3,29,-6c0,0,11,-4,16,-10c0,0,5,-6,5,-13V26c0,0,0,-7,-5,-13c0,0,-5,-6,-16,-10c0,0,-11,-3,-29,-5c0,0,-19,-2,-48,-2Z" 
id="f0_1c"
transform="scale(0.001,-0.001)" />

<path d="M127,0c0,0,-16,0,-28,3C99,3,87,6,80,15c0,0,-8,8,-11,25c0,0,-3,16,-3,42c0,0,0,25,2,42c0,0,2,18,8,32c0,0,6,14,15,27c0,0,9,13,24,29L282,390c0,0,50,53,81,95c0,0,30,43,47,79c0,0,17,35,24,65c0,0,6,30,6,57c0,0,0,24,-8,46c0,0,-8,22,-23,39c0,0,-15,16,-38,25c0,0,-23,10,-55,10c0,0,-44,0,-78,-12c0,0,-33,-11,-59,-25c0,0,-26,-13,-43,-25c0,0,-17,-12,-27,-12c0,0,-7,0,-11,5c0,0,-5,4,-8,15c0,0,-3,10,-5,28c0,0,-2,17,-2,42c0,0,0,18,1,29c0,0,1,12,4,20c0,0,2,9,6,15c0,0,3,6,13,15c0,0,9,9,34,23c0,0,25,14,61,27c0,0,37,14,81,23c0,0,44,9,92,9c0,0,75,0,131,-19c0,0,57,-19,94,-53c0,0,37,-34,55,-81c0,0,19,-47,19,-100c0,0,0,-47,-9,-93c0,0,-9,-45,-37,-98c0,0,-29,-52,-80,-116c0,0,-52,-64,-136,-148L299,159H679c0,0,8,0,14,-4c0,0,6,-5,11,-14c0,0,4,-9,7,-25c0,0,2,-15,2,-36c0,0,0,-22,-2,-37c0,0,-2,-15,-6,-25c0,0,-3,-10,-9,-14c0,0,-6,-4,-14,-4Z" 
id="f0_rz"
transform="scale(0.001,-0.001)" />

<path d="M385,138c0,0,29,0,52,9c0,0,22,10,39,28c0,0,17,19,28,47c0,0,11,29,19,66c0,0,7,37,9,84c0,0,3,47,3,104c0,0,0,69,-4,122c0,0,-4,52,-11,91c0,0,-8,39,-20,66c0,0,-12,27,-28,43c0,0,-16,16,-37,22c0,0,-21,7,-47,7c0,0,-44,0,-73,-21c0,0,-28,-21,-45,-64c0,0,-17,-42,-24,-106c0,0,-6,-63,-6,-148c0,0,0,-103,8,-171c0,0,8,-67,26,-107c0,0,17,-40,45,-56c0,0,27,-16,66,-16ZM378,-17c0,0,-99,0,-164,33c0,0,-65,34,-103,98c0,0,-38,64,-54,156c0,0,-15,92,-15,209c0,0,0,115,19,208c0,0,19,94,61,160c0,0,42,65,110,101c0,0,68,35,165,35c0,0,99,0,164,-34c0,0,65,-34,103,-98c0,0,39,-64,53,-156c0,0,15,-92,15,-209c0,0,0,-115,-18,-209c0,0,-19,-93,-61,-159C653,118,611,53,543,17c0,0,-67,-34,-165,-34Z" 
id="f0_rx"
transform="scale(0.001,-0.001)" />

<path d="M142,0c0,0,-6,0,-12,4c0,0,-5,3,-9,12c0,0,-4,9,-6,23c0,0,-3,15,-3,36c0,0,0,21,2,36c0,0,2,14,6,23c0,0,4,9,10,13c0,0,5,5,12,5H322V779L166,693c0,0,-17,-8,-28,-10c0,0,-1,0,-3,0c-4,0,-10,1,-14,5c0,0,-6,6,-8,22c0,0,-2,15,-2,44c0,0,0,18,0,29c0,0,1,12,4,20c0,0,3,8,8,14c0,0,5,5,14,11L345,962c0,0,4,3,9,5c0,0,6,2,15,3c0,0,9,1,23,2c0,0,15,0,38,0c0,0,28,0,46,-1c0,0,17,-1,26,-4c0,0,9,-3,12,-7c0,0,3,-4,3,-11V152H675c0,0,7,0,12,-5c0,0,6,-4,10,-13c0,0,4,-9,6,-23c0,0,2,-15,2,-36c0,0,0,-21,-2,-36c0,0,-3,-14,-7,-23c0,0,-4,-9,-9,-12c0,0,-5,-4,-12,-4Z" 
id="f0_ry"
transform="scale(0.001,-0.001)" />

<path d="M326,-17c0,0,-45,0,-85,6c0,0,-41,5,-73,13c0,0,-32,8,-52,17c0,0,-21,8,-27,14c0,0,-6,6,-9,12c0,0,-3,7,-5,16c0,0,-2,10,-3,24c0,0,-1,14,-1,33c0,0,0,21,2,36c0,0,1,14,5,23c0,0,3,9,8,13c0,0,4,4,10,4c0,0,7,0,23,-9c0,0,15,-8,40,-19c0,0,25,-10,61,-19c0,0,36,-8,86,-8c0,0,43,0,78,9c0,0,36,9,60,29c0,0,25,19,38,49c0,0,14,30,14,72c0,0,0,36,-11,64c0,0,-12,28,-35,47c0,0,-24,19,-62,29c0,0,-38,10,-93,10c0,0,-43,0,-78,-5c0,0,-36,-4,-67,-4c0,0,-22,0,-31,11c0,0,-9,11,-9,40V909c0,0,0,30,11,43c0,0,12,13,37,13H615c0,0,6,0,12,-4c0,0,6,-5,10,-15c0,0,5,-9,6,-25c0,0,2,-16,2,-39c0,0,0,-45,-7,-65c0,0,-8,-20,-23,-20H272V590c0,0,26,3,52,4c0,0,25,0,54,0c0,0,78,0,139,-18c0,0,61,-18,102,-53c0,0,42,-36,63,-88c0,0,22,-53,22,-122c0,0,0,-79,-27,-140c0,0,-27,-62,-77,-104C600,69,550,27,481,5c0,0,-70,-22,-155,-22Z" 
id="f0_s2"
transform="scale(0.001,-0.001)" />

<path d="M589,371L453,782h-1L317,371ZM106,-4c0,0,-35,0,-54,2C52,-2,32,0,25,8c0,0,-7,9,-5,24c0,0,2,16,11,42L329,931c0,0,4,13,10,21c0,0,6,7,19,12c0,0,13,4,36,5c0,0,23,1,61,1c0,0,44,0,71,-1c0,0,26,-1,40,-5c0,0,15,-5,21,-13c0,0,6,-8,11,-22L896,73c0,0,9,-27,11,-43c0,0,3,-15,-6,-23c0,0,-8,-7,-29,-9c0,0,-21,-2,-57,-2c0,0,-38,0,-59,1c0,0,-22,1,-33,4c0,0,-11,3,-16,9c0,0,-4,6,-7,16L635,220H272L211,31c0,0,-2,-11,-7,-18c0,0,-5,-7,-16,-11c0,0,-11,-3,-31,-4c0,0,-19,-2,-51,-2Z" 
id="f0_5"
transform="scale(0.001,-0.001)" />

<path d="M198,-4c0,0,-27,0,-45,2c0,0,-18,2,-28,5c0,0,-11,4,-15,10c0,0,-4,6,-4,13V887c0,0,0,38,20,58c0,0,20,20,53,20H308c0,0,34,0,59,-6c0,0,24,-5,42,-18c0,0,18,-13,30,-35c0,0,12,-21,21,-52L669,279h3L889,852c0,0,9,32,21,53c0,0,11,22,27,35c0,0,15,14,36,19c0,0,21,6,48,6h132c0,0,21,0,35,-5c0,0,15,-5,24,-15c0,0,9,-11,14,-25c0,0,5,-15,5,-33V26c0,0,0,-7,-4,-13c0,0,-4,-6,-15,-10c0,0,-11,-3,-29,-5c0,0,-18,-2,-45,-2c0,0,-27,0,-45,2c0,0,-18,2,-28,5c0,0,-11,4,-15,10c0,0,-5,6,-5,13V813h-1L764,27c0,0,-3,-10,-10,-16c0,0,-6,-6,-18,-10c0,0,-12,-3,-29,-4c0,0,-18,-1,-44,-1c0,0,-25,0,-43,2c0,0,-18,2,-29,5c0,0,-12,4,-19,10c0,0,-6,6,-9,14L293,813h-2V26c0,0,0,-7,-4,-13c0,0,-4,-6,-15,-10c0,0,-11,-3,-29,-5c0,0,-17,-2,-45,-2Z" 
id="f0_1x"
transform="scale(0.001,-0.001)" />

<path d="M193,-4c0,0,-26,0,-43,2c0,0,-18,2,-27,6c0,0,-10,4,-14,10c0,0,-3,6,-3,13V895c0,0,0,35,20,53c0,0,21,17,50,17H282c0,0,28,0,47,-5c0,0,20,-5,35,-16c0,0,15,-11,29,-31c0,0,13,-20,27,-49L608,511c0,0,17,-32,33,-63c0,0,16,-31,31,-62c0,0,14,-31,29,-60c0,0,14,-30,27,-60h1c0,0,-2,52,-3,109c0,0,-1,57,-1,108V936c0,0,0,7,4,13c0,0,5,6,15,11c0,0,10,4,28,6c0,0,17,2,44,2c0,0,25,0,42,-2c0,0,17,-2,27,-6c0,0,9,-5,13,-11c0,0,4,-6,4,-13V68c0,0,0,-17,-6,-30c0,0,-6,-14,-17,-23C879,15,869,6,856,2c0,0,-14,-3,-28,-3H744c0,0,-26,0,-45,4c0,0,-19,5,-35,19c0,0,-16,14,-31,38c0,0,-15,23,-34,60L359,572c0,0,-21,40,-43,86c0,0,-21,47,-38,91h-2c0,0,3,-54,5,-107c0,0,2,-53,2,-110V27c0,0,0,-7,-5,-13c0,0,-4,-6,-14,-10c0,0,-10,-4,-27,-6c0,0,-17,-2,-44,-2Z" 
id="f0_1y"
transform="scale(0.001,-0.001)" />

<path d="M378,-4c0,0,-28,0,-47,2c0,0,-19,2,-31,5c0,0,-11,4,-16,10c0,0,-4,6,-4,13V805H38c0,0,-8,0,-13,4c0,0,-5,5,-9,14c0,0,-3,9,-5,25c0,0,-2,15,-2,37c0,0,0,22,2,38c0,0,2,15,5,25c0,0,4,9,9,13c0,0,5,4,13,4H718c0,0,7,0,12,-4c0,0,6,-4,10,-13c0,0,3,-10,5,-25c0,0,2,-16,2,-38c0,0,0,-22,-2,-37c0,0,-2,-16,-5,-25c0,0,-4,-9,-10,-14c0,0,-5,-4,-12,-4H476V26c0,0,0,-7,-5,-13c0,0,-5,-6,-16,-10c0,0,-11,-3,-30,-5c0,0,-19,-2,-47,-2Z" 
id="f0_2t"
transform="scale(0.001,-0.001)" />

<path d="M514,145c0,0,72,0,121,27c0,0,48,26,78,73c0,0,30,46,42,107c0,0,13,62,13,131c0,0,0,76,-12,139c0,0,-12,62,-41,106c0,0,-29,45,-76,69c0,0,-48,24,-120,24c0,0,-72,0,-120,-27c0,0,-49,-27,-79,-73c0,0,-29,-45,-42,-106c0,0,-12,-61,-12,-129c0,0,0,-79,12,-142c0,0,12,-63,40,-108c0,0,28,-44,76,-68c0,0,48,-23,120,-23ZM508,-17c0,0,-113,0,-196,29c0,0,-84,29,-140,90c0,0,-56,60,-84,154c0,0,-28,93,-28,221c0,0,0,117,29,210c0,0,30,94,89,160c0,0,59,65,146,101c0,0,87,35,202,35c0,0,110,0,194,-29c0,0,84,-30,140,-90c0,0,56,-60,85,-153c0,0,29,-92,29,-217c0,0,0,-120,-30,-215c0,0,-30,-95,-89,-161C855,118,796,52,709,17c0,0,-87,-34,-201,-34Z" 
id="f0_24"
transform="scale(0.001,-0.001)" />

<path d="M340,-13c0,0,-73,0,-129,20C211,7,155,27,86,74l22,217c0,0,156,-103,245,-103c0,0,64,0,112,45c0,0,47,46,47,107c0,0,0,68,-47,113c0,0,-48,46,-121,46c0,0,-85,0,-184,-42l48,495H681V777H393L382,665c0,0,163,0,251,-95c0,0,88,-95,88,-224c0,0,0,-146,-113,-253C608,93,494,-13,340,-13Z" 
id="f1_p"
transform="scale(0.001,-0.001)" />

<path d="M44,-281L425,1053H537L156,-281Z" 
id="f1_j"
transform="scale(0.001,-0.001)" />

<path d="M299,0V777H162l36,173H508V0Z" 
id="f1_l"
transform="scale(0.001,-0.001)" />

<path d="M75,0L400,413c0,0,71,91,101,149c0,0,30,58,30,109c0,0,0,55,-36,91c0,0,-36,36,-91,36c0,0,-63,0,-91,-45c0,0,-28,-46,-34,-142H67c0,0,0,173,102,268c0,0,102,95,253,95c0,0,140,0,229,-82c0,0,89,-82,89,-209c0,0,0,-125,-104,-276L580,324c0,0,-34,-50,-85,-114L468,178H740V0Z" 
id="f1_m"
transform="scale(0.001,-0.001)" />

<path d="M460,-325c0,0,-148,79,-231,172c0,0,-84,93,-123,217c0,0,-39,126,-39,304c0,0,0,178,39,303c0,0,39,125,122,217c0,0,82,93,232,172V997c0,0,-91,-52,-145,-134c0,0,-54,-81,-79,-190c0,0,-25,-109,-25,-305c0,0,0,-194,26,-309c0,0,26,-114,82,-193c0,0,56,-79,141,-128v-63Z" 
id="f2_c"
transform="scale(0.001,-0.001)" />

<path d="M32,0V33L151,52V649L52,668v33H275V52L395,33V0ZM201,850c0,0,-32,0,-56,24c0,0,-24,24,-24,56c0,0,0,34,24,58c0,0,24,24,56,24c0,0,34,0,58,-24c0,0,24,-24,24,-58c0,0,0,-32,-24,-56c0,0,-24,-24,-58,-24Z" 
id="f2_25"
transform="scale(0.001,-0.001)" />

<path d="M49,-325v63c0,0,85,49,140,128c0,0,56,79,83,194c0,0,26,115,26,308c0,0,0,196,-25,305c0,0,-25,109,-79,190c0,0,-54,82,-145,134v63c0,0,149,-80,232,-172c0,0,83,-92,122,-217c0,0,39,-125,39,-303c0,0,0,-177,-39,-303c0,0,-39,-125,-122,-217c0,0,-83,-93,-232,-173Z" 
id="f2_d"
transform="scale(0.001,-0.001)" />

<path d="M868,0L251,900V60L385,40V0H44V40L172,60V941L44,960v40H347L862,259V941L727,960v40h341V960L940,941V0Z" 
id="f2_1e"
transform="scale(0.001,-0.001)" />

<path d="M148,-329c0,0,-58,0,-114,13v151H69l24,-71c0,0,23,-17,64,-17c0,0,39,0,72,22c0,0,33,23,60,67c0,0,27,44,68,157L90,649L19,668v33H344V668L233,648L423,158L606,649L497,668v33H758V668L685,652L411,-43c0,0,-48,-124,-84,-177c0,0,-36,-54,-79,-82c0,0,-44,-27,-100,-27Z" 
id="f2_2l"
transform="scale(0.001,-0.001)" />

<path d="M31,0V33L150,52v956L31,1026v34H274V52L394,33V0Z" 
id="f2_28"
transform="scale(0.001,-0.001)" />

<path d="M377,45c0,0,99,0,147,73c0,0,47,73,47,237c0,0,0,161,-47,233c0,0,-47,72,-147,72c0,0,-97,0,-141,-69c0,0,-44,-69,-44,-236c0,0,0,-169,45,-240c0,0,44,-70,140,-70Zm0,-59c0,0,-158,0,-238,94c0,0,-81,95,-81,274c0,0,0,178,81,272c0,0,80,94,244,94c0,0,160,0,241,-92c0,0,82,-92,82,-274c0,0,0,-368,-329,-368Z" 
id="f2_2b"
transform="scale(0.001,-0.001)" />

<path d="M439,0V33l93,19V500c0,0,0,62,-30,97c0,0,-31,36,-94,36c0,0,-67,0,-165,-22V52L338,33V0H35V33l84,19V649L35,668v33H235l7,-57c0,0,57,33,122,54c0,0,65,22,108,22c0,0,91,0,137,-53c0,0,47,-53,47,-154V52L741,33V0Z" 
id="f2_2a"
transform="scale(0.001,-0.001)" />

<path d="M57,302V417H454V302Z" 
id="f2_h"
transform="scale(0.001,-0.001)" />

<path d="M410,45c0,0,90,0,130,58c0,0,40,59,40,193c0,0,0,122,-38,177c0,0,-38,54,-122,54c0,0,-102,0,-217,-37c0,0,0,-227,51,-336c0,0,52,-109,156,-109Zm3,-59c0,0,-169,0,-258,131c0,0,-89,131,-89,377c0,0,0,161,47,278c0,0,47,117,131,178c0,0,85,61,196,61c0,0,109,0,217,-26V813H608L582,915c0,0,-25,13,-67,23c0,0,-41,10,-75,10c0,0,-109,0,-170,-105c0,0,-60,-106,-66,-308c0,0,121,63,244,63c0,0,132,0,201,-74c0,0,69,-74,69,-214c0,0,0,-156,-78,-240c0,0,-79,-84,-227,-84Z" 
id="f2_q"
transform="scale(0.001,-0.001)" />

<path d="M58,-234v58c0,0,131,42,131,125c0,0,0,15,-11,27c0,0,-11,12,-38,25C140,1,89,27,89,75c0,0,0,40,25,61c0,0,26,21,65,21c0,0,48,0,77,-34c0,0,30,-34,30,-86c0,0,0,-101,-60,-170c0,0,-59,-69,-168,-101Z" 
id="f2_g"
transform="scale(0.001,-0.001)" />

<path d="M536,63c0,0,127,0,191,54c0,0,63,54,63,168c0,0,0,105,-70,154c0,0,-70,49,-225,49H316V67c0,0,103,-4,220,-4ZM480,555c0,0,121,0,178,48c0,0,57,48,57,155c0,0,0,91,-58,133c0,0,-57,42,-186,42H316V555ZM554,-4L235,0H44V40L172,60V941L44,960v40H501c0,0,191,0,279,-56c0,0,88,-56,88,-179c0,0,0,-88,-55,-149c0,0,-54,-62,-151,-83c0,0,135,-14,209,-79c0,0,73,-65,73,-166c0,0,0,-144,-99,-219C845,69,745,-4,554,-4Z" 
id="f2_12"
transform="scale(0.001,-0.001)" />

<path d="M284,67c0,0,51,0,88,12c0,0,37,12,74,30V358l-98,-3c0,0,-100,-4,-135,-39c0,0,-35,-35,-35,-117c0,0,0,-132,106,-132ZM233,-14c0,0,-179,0,-179,208c0,0,0,70,27,116c0,0,27,46,87,70c0,0,60,24,173,27l105,3V519c0,0,0,72,-26,107c0,0,-27,34,-82,34c0,0,-75,0,-137,-35L176,538H134V691c0,0,121,26,213,26c0,0,115,0,169,-47c0,0,54,-47,54,-144V52L657,33V0H465L451,70c0,0,-85,-84,-218,-84Z" 
id="f2_1x"
transform="scale(0.001,-0.001)" />

<path d="M477,0V33l64,19L348,354L257,254V52L331,33V0H44V33l89,19v956L29,1026v34H257V338L544,647l-73,20v34H718V667L631,650L431,446L688,50L764,33V0Z" 
id="f2_27"
transform="scale(0.001,-0.001)" />

<path d="M495,413c0,0,0,133,-34,190c0,0,-34,57,-105,57c0,0,-78,0,-119,-63c0,0,-42,-62,-42,-184ZM374,-14c0,0,-163,0,-239,87c0,0,-75,88,-75,283c0,0,0,183,77,273c0,0,76,91,219,91c0,0,269,0,269,-306V353H194V340c0,0,0,-103,23,-160c0,0,22,-57,70,-87c0,0,47,-29,124,-29c0,0,40,0,96,6c0,0,55,7,91,15V43C598,43,562,20,500,3c0,0,-61,-17,-126,-17Z" 
id="f2_21"
transform="scale(0.001,-0.001)" />

<path d="M249,-14c0,0,-71,0,-107,42c0,0,-35,42,-35,119V639H15v33l93,29l76,159h47V701H391V639H231V161c0,0,0,-48,22,-73c0,0,22,-24,57,-24c0,0,44,0,106,12V26C416,26,389,8,340,-2c0,0,-49,-12,-91,-12Z" 
id="f2_2g"
transform="scale(0.001,-0.001)" />

<path d="M394,460c0,0,126,0,186,57c0,0,60,57,60,187c0,0,0,123,-57,176c0,0,-58,53,-194,53H316V460ZM54,0V40L172,60V941L44,960v40H421c0,0,368,0,368,-295c0,0,0,-153,-93,-233c0,0,-93,-80,-267,-80H316V60L475,40V0Z" 
id="f2_1g"
transform="scale(0.001,-0.001)" />

<path d="M278,-14c0,0,-52,0,-115,11c0,0,-63,10,-99,23V193H98L134,95c0,0,56,-50,146,-50c0,0,144,0,144,123c0,0,0,91,-114,130l-66,21c0,0,-75,25,-110,50c0,0,-34,26,-53,63c0,0,-18,36,-18,89c0,0,0,92,63,145c0,0,63,54,170,54c0,0,77,0,193,-23V544H454l-32,81c0,0,-39,35,-124,35c0,0,-61,0,-92,-30c0,0,-32,-30,-32,-80c0,0,0,-43,29,-72c0,0,28,-29,86,-48c0,0,110,-38,144,-55c0,0,33,-17,57,-42c0,0,23,-25,36,-57c0,0,13,-32,13,-79c0,0,0,-104,-66,-158c0,0,-66,-53,-195,-53Z" 
id="f2_2f"
transform="scale(0.001,-0.001)" />

<path d="M31,0V33l88,19V649L31,668v33H235l7,-87c0,0,44,37,121,71c0,0,76,35,121,35h11V530H463l-43,82c0,0,-37,0,-88,-10c0,0,-52,-10,-89,-26V52L363,33V0Z" 
id="f2_2e"
transform="scale(0.001,-0.001)" />

<path d="M639,416L478,858L313,416ZM647,0V54L762,74L667,333H283L191,74L319,54V0H15V54L90,74l355,935H662L1016,74l76,-20V0Z" 
id="f3_11"
transform="scale(0.001,-0.001)" />

<path d="M41,0V49l69,18V634L41,652v49H313l11,-61l50,26c0,0,105,54,188,54c0,0,194,0,194,-207V67L827,49V0H478V49l63,18V484c0,0,0,63,-27,98c0,0,-26,35,-75,35c0,0,-57,0,-114,-25V67L389,49V0Z" 
id="f3_2a"
transform="scale(0.001,-0.001)" />

<path d="M276,-14c0,0,-57,0,-125,13C151,-1,83,10,48,23V214H97l28,-98c0,0,26,-26,69,-44c0,0,42,-17,86,-17c0,0,65,0,97,28c0,0,32,28,32,71c0,0,0,41,-31,65c0,0,-30,25,-133,57c0,0,-108,34,-154,92c0,0,-45,58,-45,143c0,0,0,95,71,152c0,0,71,57,183,57c0,0,77,0,207,-22V518H457l-24,82c0,0,-21,22,-60,35c0,0,-40,14,-75,14c0,0,-53,0,-79,-22c0,0,-26,-22,-26,-59c0,0,0,-40,32,-65c0,0,32,-26,132,-55c0,0,109,-34,155,-89c0,0,45,-55,45,-137c0,0,0,-117,-72,-177c0,0,-72,-59,-209,-59Z" 
id="f3_2f"
transform="scale(0.001,-0.001)" />

<path d="M305,-14L57,634L4,652v49H351V652L268,632L419,232L581,631h71L814,232L950,634l-82,18v49h227V652l-54,-15L806,-14H715L555,378L395,-14Z" 
id="f3_2j"
transform="scale(0.001,-0.001)" />

<path d="M434,423c0,0,0,101,-7,142c0,0,-6,40,-22,60c0,0,-16,19,-45,19c0,0,-44,0,-66,-48c0,0,-22,-49,-22,-173ZM389,-14c0,0,-172,0,-254,89c0,0,-83,90,-83,279c0,0,0,184,79,274c0,0,79,91,238,91c0,0,142,0,206,-76c0,0,64,-76,64,-237V345H271V333c0,0,0,-111,18,-158c0,0,18,-47,58,-72c0,0,40,-25,110,-25c0,0,66,0,166,22V42C623,42,582,18,517,1c0,0,-66,-15,-128,-15Z" 
id="f3_21"
transform="scale(0.001,-0.001)" />

<path d="M41,0V49l91,18V634L41,652v49H336l8,-145c0,0,80,89,144,128c0,0,64,40,117,40h40V468H604l-45,94c0,0,-47,0,-106,-21c0,0,-60,-20,-105,-48V67L460,49V0Z" 
id="f3_2e"
transform="scale(0.001,-0.001)" />

<path d="M248,-20c0,0,-52,0,-87,34c0,0,-36,36,-36,88c0,0,0,52,36,88c0,0,35,36,87,36c0,0,52,0,88,-36c0,0,36,-36,36,-88c0,0,0,-51,-36,-87c0,0,-35,-35,-88,-35Zm0,488c0,0,-52,0,-87,36c0,0,-36,36,-36,88c0,0,0,52,35,88c0,0,35,36,88,36c0,0,53,0,89,-36c0,0,35,-37,35,-88c0,0,0,-51,-36,-87c0,0,-35,-37,-88,-37Z" 
id="f3_u"
transform="scale(0.001,-0.001)" />

<path d="M460,-325c0,0,-148,79,-231,172c0,0,-84,93,-123,217c0,0,-39,126,-39,305c0,0,0,178,39,303c0,0,39,125,123,218c0,0,83,92,231,170V975c0,0,-68,-52,-109,-133c0,0,-41,-81,-61,-189c0,0,-19,-109,-19,-285c0,0,0,-177,19,-285c0,0,19,-107,60,-189c0,0,42,-82,110,-134v-85Z" 
id="f3_c"
transform="scale(0.001,-0.001)" />

<path d="M34,0V49l76,18V634L38,652v49H325V67L402,49V0ZM217,831c0,0,-48,0,-81,33c0,0,-34,33,-34,82c0,0,0,48,34,81c0,0,34,33,81,33c0,0,48,0,81,-33c0,0,33,-33,33,-81c0,0,0,-47,-33,-81c0,0,-32,-34,-81,-34Z" 
id="f3_25"
transform="scale(0.001,-0.001)" />

<path d="M49,-325v85c0,0,68,53,110,135c0,0,41,82,60,190c0,0,19,109,19,283c0,0,0,177,-19,285c0,0,-20,108,-61,189c0,0,-41,81,-109,133v85c0,0,149,-80,232,-172c0,0,83,-92,122,-217c0,0,39,-125,39,-302c0,0,0,-178,-39,-304c0,0,-39,-125,-122,-218c0,0,-83,-93,-232,-172Z" 
id="f3_d"
transform="scale(0.001,-0.001)" />

<path d="M868,0L251,804V74L385,54V0H29V54L157,74V926L29,945v55H371L862,361V926L727,945v55h356V945L955,926V0Z" 
id="f3_1e"
transform="scale(0.001,-0.001)" />

<path d="M159,-329c0,0,-61,0,-123,14v180H81l32,-94c0,0,21,-17,55,-17c0,0,28,0,50,13c0,0,21,14,40,39c0,0,20,25,37,62c0,0,17,37,50,110L64,634L15,652v49H374V652L290,632L455,244L602,634l-82,18v49H749V652L698,637L421,-44c0,0,-47,-121,-83,-176c0,0,-36,-55,-80,-82c0,0,-43,-27,-99,-27Z" 
id="f3_2l"
transform="scale(0.001,-0.001)" />

<path d="M30,0V49l76,18V992l-72,18v50H322V67L398,49V0Z" 
id="f3_28"
transform="scale(0.001,-0.001)" />

<path d="M379,60c0,0,59,0,84,64c0,0,24,65,24,231c0,0,0,164,-24,227c0,0,-24,63,-84,63c0,0,-57,0,-80,-60c0,0,-22,-61,-22,-230c0,0,0,-173,23,-234c0,0,22,-61,79,-61Zm-2,-74c0,0,-161,0,-240,91c0,0,-79,91,-79,277c0,0,0,186,80,276c0,0,81,90,245,90c0,0,167,0,245,-93c0,0,78,-93,78,-273c0,0,0,-188,-81,-278c0,0,-81,-90,-248,-90Z" 
id="f3_2b"
transform="scale(0.001,-0.001)" />

<path d="M404,60c0,0,54,0,75,59c0,0,21,59,21,177c0,0,0,106,-29,162c0,0,-29,57,-87,57c0,0,-55,0,-112,-17v-4c0,0,0,-434,132,-434Zm3,-74c0,0,-172,0,-263,130c0,0,-92,130,-92,378c0,0,0,161,48,278c0,0,48,117,135,178c0,0,87,61,199,61c0,0,117,0,225,-32V751H594L562,896c0,0,-52,39,-113,39c0,0,-75,0,-121,-95c0,0,-47,-96,-55,-267c0,0,81,35,161,35c0,0,137,0,211,-77c0,0,74,-77,74,-220c0,0,0,-158,-81,-242c0,0,-81,-83,-231,-83Z" 
id="f3_q"
transform="scale(0.001,-0.001)" />

<path d="M20,-236v69c0,0,47,14,81,37c0,0,33,24,52,52c0,0,18,28,18,53c0,0,0,17,-11,28c0,0,-12,12,-45,30c0,0,-57,30,-57,93c0,0,0,48,34,74c0,0,33,25,85,25c0,0,63,0,105,-41c0,0,42,-41,42,-105c0,0,0,-115,-78,-195c0,0,-77,-81,-226,-120Z" 
id="f3_g"
transform="scale(0.001,-0.001)" />

<path d="M67,0V109L206,235c0,0,133,118,196,190c0,0,63,72,90,149c0,0,27,77,27,177c0,0,0,97,-44,148c0,0,-44,50,-144,50c0,0,-39,0,-81,-10c0,0,-42,-11,-74,-29L150,787H101V980c0,0,135,32,230,32c0,0,164,0,247,-68c0,0,82,-69,82,-193c0,0,0,-84,-32,-158c0,0,-33,-75,-100,-148c0,0,-67,-74,-222,-206c0,0,-67,-57,-141,-125H680V0Z" 
id="f2_m"
transform="scale(0.001,-0.001)" />

<path d="M476,327V830h-4L114,327ZM476,0V220H30v99l488,686h86V327H740V220H604V0Z" 
id="f2_o"
transform="scale(0.001,-0.001)" />

<path d="M617,0L251,860V60L385,40V0H44V40L172,60V941L44,960v40H347L672,239l355,761h287V960L1185,941V60L1314,40V0H908V40l134,20V859L643,0Z" 
id="f2_1d"
transform="scale(0.001,-0.001)" />

<path d="M431,0V33L535,52V499c0,0,0,62,-32,96c0,0,-32,33,-95,33c0,0,-66,0,-163,-22V52L350,33V0H32V33l89,19V649L32,668v33H237l6,-57c0,0,56,32,119,54c0,0,62,22,110,22c0,0,52,0,95,-20c0,0,44,-19,66,-62c0,0,57,32,134,57c0,0,77,25,128,25c0,0,179,0,179,-207V52l90,-19V0H846V33L950,52V499c0,0,0,129,-119,129c0,0,-19,0,-45,-3c0,0,-26,-3,-52,-7c0,0,-25,-4,-49,-8c0,0,-23,-5,-39,-8c0,0,13,-41,13,-89V52L764,33V0Z" 
id="f2_29"
transform="scale(0.001,-0.001)" />

<path d="M681,416L504,902L333,416ZM669,0V40L803,60L704,348H310L210,60L344,40V0H15V40L128,60l341,949H611L965,60L1092,40V0Z" 
id="f2_11"
transform="scale(0.001,-0.001)" />

<path d="M383,64c0,0,85,0,152,28V645c0,0,-67,13,-152,13c0,0,-194,0,-194,-314c0,0,0,-141,48,-211c0,0,48,-69,146,-69ZM342,-14c0,0,-287,0,-287,358c0,0,0,184,82,280c0,0,81,96,239,96c0,0,81,0,163,-18c0,0,-4,25,-4,124v182l-118,18v34H659V52L745,33V0H548l-9,52c0,0,-84,-66,-197,-66Z" 
id="f2_20"
transform="scale(0.001,-0.001)" />

<path d="M382,45c0,0,188,0,188,314c0,0,0,143,-47,213c0,0,-46,69,-141,69c0,0,-87,0,-146,-24V58c0,0,67,-13,146,-13ZM25,-325v35l88,18V649L34,668v33H231l1,-41c0,0,31,27,84,43c0,0,53,17,107,17c0,0,134,0,208,-94c0,0,73,-93,73,-267c0,0,0,-178,-80,-276c0,0,-80,-97,-232,-97c0,0,-84,0,-160,16c0,0,4,-53,4,-84V-272l123,-18v-35Z" 
id="f2_2c"
transform="scale(0.001,-0.001)" />

<path d="M399,-14c0,0,-341,0,-341,370c0,0,0,175,87,269c0,0,87,95,249,95c0,0,101,0,220,-23V501H573L541,625c0,0,-62,35,-149,35c0,0,-200,0,-200,-304c0,0,0,-158,61,-225c0,0,61,-67,189,-67c0,0,109,0,189,24V43C631,43,595,16,530,1c0,0,-64,-15,-131,-15Z" 
id="f2_1z"
transform="scale(0.001,-0.001)" />

<path d="M442,0V33l93,19V504c0,0,0,129,-124,129c0,0,-70,0,-168,-22V52L338,33V0H31V33l88,19v956L15,1026v34H243V756c0,0,0,-77,-5,-112c0,0,54,31,122,53c0,0,68,23,115,23c0,0,91,0,137,-53c0,0,47,-53,47,-154V52L744,33V0Z" 
id="f2_24"
transform="scale(0.001,-0.001)" />

<path d="M13,0V34L95,46L325,350L122,649L40,668v33H357V668L264,648L399,446L554,649l-96,19v33H710V668L630,652L433,397L663,50L745,34V0H427V34l94,17L359,299L169,50L266,34V0Z" 
id="f2_2k"
transform="scale(0.001,-0.001)" />

<path d="M44,0V40L172,60V941L44,960v40H445V960L316,941V549H787V941L659,960v40h400V960L930,941V60L1059,40V0H659V40L787,60V481H316V60L445,40V0Z" 
id="f2_18"
transform="scale(0.001,-0.001)" />

<path d="M551,45c0,0,171,0,252,108c0,0,82,108,82,349c0,0,0,239,-81,344c0,0,-81,105,-253,105c0,0,-172,0,-252,-105c0,0,-80,-105,-80,-344c0,0,0,-241,80,-349c0,0,81,-108,252,-108Zm0,-59c0,0,-238,0,-363,129C188,115,63,245,63,501c0,0,0,510,488,510c0,0,242,0,366,-129c0,0,124,-130,124,-381c0,0,0,-255,-126,-385C915,116,790,-14,551,-14Z" 
id="f2_1f"
transform="scale(0.001,-0.001)" />

<path d="M577,-14c0,0,-243,0,-379,132C198,118,63,250,63,488c0,0,0,258,130,391c0,0,131,132,387,132c0,0,156,0,335,-38l5,-218H871L848,884c0,0,-52,32,-121,50c0,0,-69,17,-141,17c0,0,-191,0,-279,-112c0,0,-88,-113,-88,-349c0,0,0,-217,92,-332c0,0,92,-115,268,-115c0,0,85,0,160,20c0,0,76,21,120,55l27,149h49L930,32c0,0,-164,-46,-353,-46Z" 
id="f2_13"
transform="scale(0.001,-0.001)" />

<path d="M968,-20c0,0,42,100,87,170c0,0,45,70,144,184H56v73H1199c0,0,-106,122,-148,189c0,0,-43,67,-83,166h60c0,0,87,-108,217,-218c0,0,130,-110,206,-154V349c0,0,-99,-56,-217,-159c0,0,-117,-102,-206,-210Z" 
id="f4_34"
transform="scale(0.001,-0.001)" />

<path d="M439,-20c0,0,-56,99,-159,216c0,0,-102,118,-211,207v60c0,0,101,-43,171,-88c0,0,70,-44,184,-143V1375h73V232c0,0,122,105,189,148c0,0,66,42,166,83V403c0,0,-108,-87,-218,-217C634,186,524,56,480,-20Z" 
id="f4_35"
transform="scale(0.001,-0.001)" />

<path d="M559,77c0,0,87,0,129,53c0,0,42,53,42,162c0,0,0,99,-49,147c0,0,-50,49,-163,49H389V82c0,0,108,-5,170,-5ZM499,570c0,0,80,0,118,42c0,0,38,42,38,141c0,0,0,88,-38,126c0,0,-37,39,-124,39H389V570ZM561,-3L221,0H25V54L154,74V926L25,945v55H511c0,0,199,0,294,-53c0,0,95,-53,95,-173c0,0,0,-89,-56,-154c0,0,-56,-65,-150,-85c0,0,139,-14,211,-76c0,0,71,-61,71,-167c0,0,0,-146,-107,-221C869,71,762,-3,561,-3Z" 
id="f3_12"
transform="scale(0.001,-0.001)" />

<path d="M345,75c0,0,50,0,110,26V351l-63,-2c0,0,-72,-3,-100,-38c0,0,-28,-35,-28,-113c0,0,0,-63,22,-93c0,0,23,-30,59,-30ZM266,-14c0,0,-217,0,-217,208c0,0,0,79,32,126c0,0,32,48,93,71c0,0,60,22,190,25l91,2V521c0,0,0,126,-104,126c0,0,-62,0,-140,-39L183,521H134V691c0,0,112,17,165,21c0,0,53,5,108,5c0,0,264,0,264,-194V67L741,49V0H483L466,54C466,54,408,14,361,0c0,0,-47,-14,-95,-14Z" 
id="f3_1x"
transform="scale(0.001,-0.001)" />

<path d="M43,0V49l67,18V992l-72,18v50H325V336L599,635l-75,17v49H791V652L711,636L544,460L785,67L847,50V0H510V50l41,17L411,313L325,253V67L395,49V0Z" 
id="f3_27"
transform="scale(0.001,-0.001)" />

<path d="M327,-14c0,0,-101,0,-156,45c0,0,-55,45,-55,131V624H25v48l108,29l87,159H332V701H480V624H332V176c0,0,0,-49,20,-73c0,0,20,-25,53,-25c0,0,40,0,97,12V26c0,0,-22,-15,-76,-27c0,0,-55,-13,-99,-13Z" 
id="f3_2g"
transform="scale(0.001,-0.001)" />

<path d="M595,60c0,0,141,0,206,102c0,0,65,102,65,340c0,0,0,236,-65,335c0,0,-65,100,-206,100c0,0,-142,0,-207,-100c0,0,-66,-99,-66,-335c0,0,0,-239,66,-340c0,0,65,-102,207,-102ZM945,-246c0,0,-54,0,-96,10c0,0,-43,10,-79,31c0,0,-36,21,-71,56c0,0,-34,35,-113,135c0,0,-249,2,-380,132C206,118,75,250,75,501c0,0,0,510,520,510c0,0,256,0,387,-129c0,0,132,-130,132,-381c0,0,0,-370,-279,-477l37,-44c0,0,110,-138,188,-138c0,0,39,0,61,6v-64c0,0,-15,-7,-73,-19c0,0,-57,-11,-103,-11Z" 
id="f3_1h"
transform="scale(0.001,-0.001)" />

<path d="M122,0V64L295,82V837L123,780v64l282,165H511V82L685,64V0Z" 
id="f3_l"
transform="scale(0.001,-0.001)" />

<path d="M191,-20c0,0,-51,0,-88,34c0,0,-36,36,-36,88c0,0,0,52,36,88c0,0,36,36,88,36c0,0,51,0,88,-36c0,0,36,-36,36,-88c0,0,0,-51,-36,-87c0,0,-36,-35,-88,-35Z" 
id="f3_i"
transform="scale(0.001,-0.001)" />

<path d="M420,-22L89,941L1,960v40H383V960L236,941L474,236L744,930h33L1037,236l227,705l-156,19v40h331V960l-87,-19L1025,-22H985L726,666L460,-22Z" 
id="f2_1n"
transform="scale(0.001,-0.001)" />

<path d="M64,0V34L168,59V639H47v36l121,29v49c0,0,0,155,61,239c0,0,62,84,173,84c0,0,58,0,107,-15V908H472l-33,92c0,0,-26,16,-62,16c0,0,-47,0,-66,-42c0,0,-19,-42,-19,-157V701H478V639H292V59L443,34V0Z" 
id="f2_22"
transform="scale(0.001,-0.001)" />

<path d="M327,-14L84,649L1,668v33H335V668L219,648L385,174L554,632h63L786,171L944,649L830,668v33h267V668l-78,-16L784,-14H726L553,448L382,-14Z" 
id="f2_2j"
transform="scale(0.001,-0.001)" />

<path d="M359,-270c0,0,124,0,192,46c0,0,67,47,67,129c0,0,0,43,-26,67c0,0,-26,24,-79,24H242c0,0,-32,-27,-51,-69c0,0,-20,-41,-20,-77c0,0,0,-64,46,-92c0,0,46,-28,142,-28Zm11,561c0,0,81,0,115,47c0,0,34,47,34,141c0,0,0,100,-35,142c0,0,-35,42,-113,42c0,0,-78,0,-114,-43c0,0,-37,-42,-37,-141c0,0,0,-98,36,-143c0,0,36,-45,114,-45ZM359,-329c0,0,-143,0,-218,44c0,0,-75,43,-75,125c0,0,0,39,27,78c0,0,26,38,98,89c0,0,-43,14,-72,48c0,0,-29,35,-29,74L208,262c0,0,-118,55,-118,217c0,0,0,115,73,178c0,0,73,63,211,63c0,0,28,0,71,-6c0,0,44,-6,67,-13l165,83l26,-32L599,644c0,0,50,-56,50,-165c0,0,0,-120,-72,-182c0,0,-73,-62,-208,-62c0,0,-62,0,-114,11L208,148c0,0,2,-13,29,-24c0,0,27,-12,67,-12H512c0,0,113,0,168,-49c0,0,55,-49,55,-134c0,0,0,-79,-44,-137c0,0,-43,-58,-128,-90c0,0,-84,-31,-204,-31Z" 
id="f2_23"
transform="scale(0.001,-0.001)" />

<path d="M211,-20c0,0,-39,0,-64,25c0,0,-26,27,-26,64c0,0,0,38,26,64c0,0,26,26,64,26c0,0,37,0,64,-25c0,0,26,-26,26,-65c0,0,0,-37,-26,-64c0,0,-26,-25,-64,-25Zm0,556c0,0,-38,0,-64,26c0,0,-26,26,-26,64c0,0,0,37,26,64c0,0,25,27,64,27c0,0,38,0,64,-27c0,0,26,-27,26,-64c0,0,0,-38,-26,-64c0,0,-27,-26,-64,-26Z" 
id="f2_u"
transform="scale(0.001,-0.001)" />

<path d="M289,-14c0,0,-179,0,-179,205V649L20,668v33H233V200c0,0,0,-128,120,-128c0,0,92,0,173,23V649L420,668v33H649V52L738,33V0H533l-6,57C527,57,474,28,405,7c0,0,-69,-21,-116,-21Z" 
id="f2_2h"
transform="scale(0.001,-0.001)" />

<path d="M376,50c0,0,103,0,149,80c0,0,46,81,46,240c0,0,0,137,-47,204c0,0,-48,67,-148,67c0,0,-44,0,-87,-7c0,0,-44,-8,-63,-17V62c0,0,63,-12,150,-12Zm3,-64c0,0,-64,0,-141,14c0,0,-78,14,-136,37v971L0,1026v34H226V809c0,0,0,-40,-4,-148c0,0,74,59,188,59c0,0,143,0,219,-87c0,0,77,-87,77,-263c0,0,0,-189,-84,-287c0,0,-84,-97,-243,-97Z" 
id="f2_1y"
transform="scale(0.001,-0.001)" />

<path d="M306,-20c0,0,-39,0,-65,25c0,0,-25,27,-25,64c0,0,0,38,26,64c0,0,26,26,64,26c0,0,37,0,63,-25c0,0,26,-26,26,-65c0,0,0,-37,-25,-64c0,0,-26,-25,-64,-25ZM269,261L249,510l107,22c0,0,64,13,93,65c0,0,29,52,29,152c0,0,0,109,-39,154c0,0,-40,45,-140,45c0,0,-83,0,-145,-36L128,789H79V979c0,0,118,32,220,32c0,0,316,0,316,-253c0,0,0,-121,-60,-195c0,0,-60,-74,-175,-98l-42,-9L328,261Z" 
id="f2_z"
transform="scale(0.001,-0.001)" />

<path d="M64,-325c0,0,-46,0,-107,14v148H-8l19,-81c0,0,25,-21,62,-21c0,0,44,0,67,47c0,0,22,47,22,152V649L57,668v33H286V-28c0,0,0,-146,-57,-221c0,0,-56,-76,-165,-76ZM213,850c0,0,-34,0,-58,24c0,0,-24,24,-24,56c0,0,0,34,24,58c0,0,24,24,58,24c0,0,32,0,56,-24c0,0,24,-24,24,-58c0,0,0,-32,-24,-56c0,0,-24,-24,-56,-24Z" 
id="f2_26"
transform="scale(0.001,-0.001)" />

<path d="M191,-20c0,0,-39,0,-65,25c0,0,-25,27,-25,64c0,0,0,38,26,64c0,0,26,26,64,26c0,0,38,0,64,-26c0,0,26,-26,26,-64c0,0,0,-37,-25,-64c0,0,-26,-25,-65,-25Z" 
id="f2_i"
transform="scale(0.001,-0.001)" />

<path d="M360,-14L72,649L0,668v33H327V668L216,648L420,164L615,649L504,668v33H764V668L697,652L416,-14Z" 
id="f2_2i"
transform="scale(0.001,-0.001)" />

<path d="M78,139v77L681,507L78,798v77L789,526V488L78,139Z" 
id="f2_y"
transform="scale(0.001,-0.001)" />

<path d="M160,0L581,834H186L152,715H87v285H727V941L338,0Z" 
id="f3_r"
transform="scale(0.001,-0.001)" />

<path d="M536,-22L130,941L17,960v40H421V960L287,941L590,205L892,941L761,960v40h325V960L976,941L574,-22Z" 
id="f2_1m"
transform="scale(0.001,-0.001)" />

<path d="M377,45c0,0,99,0,145,108c0,0,46,109,46,352c0,0,0,240,-45,345c0,0,-46,106,-146,106c0,0,-97,0,-139,-100c0,0,-43,-99,-43,-351c0,0,0,-254,44,-357c0,0,43,-103,138,-103Zm0,-59c0,0,-158,0,-238,132c0,0,-81,133,-81,386c0,0,0,249,81,380c0,0,80,132,244,132c0,0,159,0,241,-130c0,0,82,-130,82,-382c0,0,0,-518,-329,-518Z" 
id="f2_k"
transform="scale(0.001,-0.001)" />

<path d="M304,627c0,0,66,0,111,45c0,0,45,46,45,112c0,0,0,66,-45,112c0,0,-45,46,-111,46c0,0,-63,0,-109,-46c0,0,-46,-45,-46,-112c0,0,0,-67,46,-112c0,0,46,-45,109,-45Zm0,-75c0,0,-97,0,-164,68c0,0,-67,67,-67,164c0,0,0,62,31,115c0,0,30,54,84,86c0,0,54,31,116,31c0,0,62,0,116,-31c0,0,54,-31,85,-85c0,0,31,-54,31,-116c0,0,0,-63,-31,-117c0,0,-32,-54,-86,-84c0,0,-53,-31,-115,-31Z" 
id="f2_37"
transform="scale(0.001,-0.001)" />

<path d="M134,0V40L339,60V876L137,804v39l292,166h39V60L672,40V0Z" 
id="f2_l"
transform="scale(0.001,-0.001)" />

<path d="M178,0L615,886H176L150,764H101v236H720V943L274,0Z" 
id="f2_r"
transform="scale(0.001,-0.001)" />

<path d="M350,-14c0,0,-142,0,-253,31L89,228h49L172,87c0,0,32,-18,78,-29c0,0,46,-11,88,-11c0,0,118,0,173,56c0,0,56,55,56,187c0,0,0,93,-24,140c0,0,-24,47,-76,70c0,0,-52,22,-140,22c0,0,-68,0,-133,-18H122v496H630V886H189V567c0,0,81,18,173,18c0,0,173,0,258,-71c0,0,84,-71,84,-216c0,0,0,-151,-92,-232c0,0,-91,-80,-262,-80Z" 
id="f2_p"
transform="scale(0.001,-0.001)" />

<path d="M76,316v76H787V316Zm0,306v76H787V622Z" 
id="f2_x"
transform="scale(0.001,-0.001)" />

<path d="M377,45c0,0,100,0,147,52c0,0,47,52,47,174c0,0,0,119,-46,173c0,0,-47,54,-148,54c0,0,-98,0,-141,-51c0,0,-44,-51,-44,-176c0,0,0,-126,44,-176c0,0,44,-50,141,-50Zm2,518c0,0,84,0,123,46c0,0,39,46,39,148c0,0,0,102,-40,151c0,0,-41,48,-122,48c0,0,-79,0,-118,-47c0,0,-38,-47,-38,-152c0,0,0,-104,37,-149c0,0,38,-45,119,-45ZM377,-14c0,0,-319,0,-319,285c0,0,0,99,48,164c0,0,48,66,129,96c0,0,-65,30,-106,87c0,0,-40,56,-40,139c0,0,0,123,75,191c0,0,76,68,219,68c0,0,139,0,216,-67c0,0,76,-68,76,-192c0,0,0,-82,-40,-139c0,0,-40,-57,-108,-87c0,0,85,-31,132,-98c0,0,47,-67,47,-162c0,0,0,-142,-80,-214c0,0,-80,-71,-249,-71Z" 
id="f2_s"
transform="scale(0.001,-0.001)" />

<path d="M350,-14c0,0,-142,0,-269,31L73,228h49L156,87c0,0,29,-16,82,-28c0,0,54,-12,100,-12c0,0,117,0,173,54c0,0,56,53,56,178c0,0,0,99,-52,150c0,0,-51,51,-159,56l-107,6v61l107,7c0,0,84,5,124,52c0,0,41,48,41,145c0,0,0,101,-44,147c0,0,-44,45,-139,45c0,0,-40,0,-83,-10c0,0,-43,-11,-76,-29L153,786H104V979c0,0,74,19,127,26c0,0,54,6,107,6c0,0,321,0,321,-246c0,0,0,-104,-57,-165c0,0,-57,-62,-162,-77c0,0,136,-16,200,-78c0,0,64,-62,64,-173c0,0,0,-135,-92,-211c0,0,-93,-75,-262,-75Z" 
id="f2_n"
transform="scale(0.001,-0.001)" />

<path d="M631,416L539,902L283,416ZM576,0l8,40L691,60L643,348H249L96,60L197,40L189,0H-83l8,40L7,60l509,949H659L845,60L938,40L930,0Z" 
id="f5_11"
transform="scale(0.001,-0.001)" />

<path d="M459,63c0,0,143,0,210,55c0,0,67,56,67,185c0,0,0,101,-66,146c0,0,-66,46,-190,46H341L266,67c0,0,114,-4,193,-4Zm18,499c0,0,144,0,206,49c0,0,61,48,61,170c0,0,0,77,-48,115c0,0,-48,37,-160,37H419L353,562ZM459,-4L173,0H14l8,40l99,20L277,941L151,960l8,40H570c0,0,330,0,330,-210c0,0,0,-105,-66,-174c0,0,-66,-69,-184,-85c0,0,115,-9,179,-69c0,0,63,-59,63,-157c0,0,0,-160,-108,-235C784,70,675,-4,459,-4Z" 
id="f5_12"
transform="scale(0.001,-0.001)" />

<path d="M228,-14c0,0,-103,0,-209,46L49,200H83L95,99c0,0,20,-21,55,-38c0,0,36,-16,81,-16c0,0,163,0,163,133c0,0,0,44,-35,78c0,0,-34,34,-113,72c0,0,-75,37,-112,81c0,0,-36,45,-36,104c0,0,0,99,66,153c0,0,67,54,184,54c0,0,85,0,200,-26L521,538H486l-11,80c0,0,-47,42,-124,42c0,0,-61,0,-97,-28c0,0,-37,-28,-37,-87c0,0,0,-40,31,-71c0,0,32,-30,119,-75c0,0,78,-40,113,-86c0,0,36,-47,36,-107c0,0,0,-113,-71,-167c0,0,-72,-53,-217,-53Z" 
id="f5_2f"
transform="scale(0.001,-0.001)" />

<path d="M457,460c0,0,289,0,289,266c0,0,0,106,-54,157c0,0,-54,50,-163,50H419L335,460ZM-7,0L0,40L120,60L276,941L151,960l7,40H559c0,0,161,0,248,-67c0,0,87,-66,87,-198c0,0,0,-167,-109,-255c0,0,-109,-88,-312,-88H323L264,60L427,40L420,0Z" 
id="f5_1g"
transform="scale(0.001,-0.001)" />

<path d="M55,0L169,649L81,668l6,33H295L274,557c0,0,52,73,117,118c0,0,65,45,122,45c0,0,66,0,102,-42c0,0,36,-41,36,-121c0,0,51,72,115,117c0,0,64,46,123,46c0,0,63,0,99,-40c0,0,36,-40,36,-116c0,0,0,-16,-3,-42c0,0,-3,-27,-80,-470l98,-19L1032,0H808l77,434c0,0,17,90,17,124c0,0,0,34,-16,54c0,0,-15,21,-49,21c0,0,-33,0,-78,-32c0,0,-46,-31,-83,-80c0,0,-37,-49,-44,-91L558,0H434l76,434c0,0,19,98,19,124c0,0,0,34,-17,54c0,0,-16,21,-51,21c0,0,-33,0,-81,-34c0,0,-47,-33,-84,-80c0,0,-36,-48,-43,-89L179,0Z" 
id="f5_29"
transform="scale(0.001,-0.001)" />

<path d="M-15,0l6,40L121,60L275,941L151,960l6,40H558l-6,-40L419,941L350,549H821l68,392L765,960l6,40h401l-6,-40L1033,941L879,60L1003,40L996,0H596l6,40L735,60l74,421H338L264,60L388,40L382,0Z" 
id="f5_18"
transform="scale(0.001,-0.001)" />

<path d="M312,78c0,0,42,0,93,28c0,0,51,27,99,76l82,460c0,0,-18,5,-32,9c0,0,-14,3,-28,6c0,0,-14,2,-29,3c0,0,-16,1,-36,1c0,0,-75,0,-139,-56c0,0,-64,-56,-100,-150c0,0,-37,-95,-37,-202c0,0,0,-80,33,-127c0,0,33,-48,94,-48ZM249,-325c0,0,-65,0,-136,16c0,0,-70,15,-112,37l13,170H48l27,-93c0,0,60,-59,173,-59c0,0,91,0,145,47c0,0,54,48,72,152l29,175c0,0,-54,-59,-120,-97c0,0,-66,-37,-119,-37c0,0,-95,0,-149,66c0,0,-55,67,-55,182c0,0,0,131,58,243c0,0,57,112,154,177c0,0,97,66,211,66c0,0,45,0,117,-9c0,0,72,-9,128,-22L594,-25c0,0,-28,-158,-108,-229c0,0,-80,-71,-237,-71Z" 
id="f5_23"
transform="scale(0.001,-0.001)" />

<path d="M330,-22L185,941l-84,19l6,40H456l-7,-40L329,941L433,243L751,930h35L898,241l313,700l-123,19l6,40h294l-6,-40l-91,-19L847,-22H800L691,647L379,-22Z" 
id="f5_1n"
transform="scale(0.001,-0.001)" />

<path d="M512,0L339,860L198,60L330,40L322,0H-17l8,40L120,60L276,941L151,960l7,40H443L597,237l446,763h300l-8,-40L1204,941L1048,60L1173,40L1166,0H760l8,40L905,60l141,800L538,0Z" 
id="f5_1d"
transform="scale(0.001,-0.001)" />

<path d="M325,47c0,0,68,0,130,54c0,0,61,55,97,149c0,0,36,94,36,202c0,0,0,103,-39,156c0,0,-39,53,-113,53c0,0,-67,0,-128,-54c0,0,-61,-55,-96,-149c0,0,-35,-94,-35,-204c0,0,0,-101,39,-154c0,0,39,-53,109,-53Zm-6,-61c0,0,-124,0,-199,79c0,0,-74,79,-74,214c0,0,0,120,51,222c0,0,51,102,143,160c0,0,91,59,205,59c0,0,124,0,199,-80c0,0,74,-79,74,-214c0,0,0,-120,-51,-222C667,204,615,102,524,43c0,0,-91,-57,-205,-57Z" 
id="f5_2b"
transform="scale(0.001,-0.001)" />

<path d="M81,0L258,1008l-96,18l6,34H391L214,52L331,33L325,0Z" 
id="f5_28"
transform="scale(0.001,-0.001)" />

<path d="M0,356v74H784V356Z" 
id="f4_h"
transform="scale(0.001,-0.001)" />

<path d="M0,214v74H784V214ZM0,494v72H784V494Z" 
id="f4_x"
transform="scale(0.001,-0.001)" />

<path d="M52,62L0,114L278,390L0,667l52,52L330,442L608,719l51,-51L382,390L659,114L608,62L330,338L52,62Z" 
id="f4_3a"
transform="scale(0.001,-0.001)" />


</defs>
</svg>