<?xml version="1.0" encoding="UTF-8" standalone="no"?>
<!DOCTYPE svg PUBLIC "-//W3C//DTD SVG 1.1//EN"
"http://www.w3.org/Graphics/SVG/1.1/DTD/svg11.dtd">
<svg viewBox="0 0 909 1286" version="1.1" xmlns="http://www.w3.org/2000/svg" xmlns:xlink="http://www.w3.org/1999/xlink">
<defs>
<clipPath id="c0_98"><path d="M77.2,1109.7v-29.8H399.6v29.8Z" /></clipPath>
<clipPath id="c1_98"><path d="M77.6,1144.2v-29.8H456.7v29.8Z" /></clipPath>
<clipPath id="c2_98"><path d="M110.2,1173.9v-29.1H426.9v29.1Z" /></clipPath>
<style type="text/css"><![CDATA[
.g0_98{
fill: #D9D9D9;
}
.g1_98{
fill: none;
stroke: #000000;
stroke-width: 0.7638889;
stroke-linecap: butt;
stroke-linejoin: miter;
}
.g2_98{
}
]]></style>
</defs>
<image preserveAspectRatio="none" x="747" y="1196" width="96" height="59" xlink:href="img/1.png" />
<image preserveAspectRatio="none" x="336" y="41" width="259" height="51" xlink:href="img/2.png" />
<image preserveAspectRatio="none" x="342" y="50" width="247" height="27" xlink:href="img/3.png" />
<image preserveAspectRatio="none" x="341" y="45" width="239" height="42" xlink:href="img/4.png" />
<g fill="#FFFFFF" >
<use xlink:href="#f0_j" transform="matrix(11.5,0,0,11.5,355.1,70.1)" />
<use xlink:href="#f0_i" transform="matrix(11.5,0,0,11.5,364.3,70.1)" />
<use xlink:href="#f0_2n" transform="matrix(11.5,0,0,11.5,374.1,70.1)" />
<use xlink:href="#f0_t" transform="matrix(11.5,0,0,11.5,382.6,70.1)" />
<use xlink:href="#f0_oj" transform="matrix(11.5,0,0,11.5,391,70.1)" />
<use xlink:href="#f0_3e" transform="matrix(11.5,0,0,11.5,396.5,70.1)" />
<use xlink:href="#f0_1c" transform="matrix(11.5,0,0,11.5,406.1,70.1)" />
<use xlink:href="#f0_1c" transform="matrix(11.5,0,0,11.5,410.8,70.1)" />
<use xlink:href="#f0_oj" transform="matrix(11.5,0,0,11.5,415.6,70.1)" />
<use xlink:href="#f0_rz" transform="matrix(11.5,0,0,11.5,421.1,70.1)" />
<use xlink:href="#f0_rx" transform="matrix(11.5,0,0,11.5,429.9,70.1)" />
<use xlink:href="#f0_ry" transform="matrix(11.5,0,0,11.5,438.7,70.1)" />
<use xlink:href="#f0_s2" transform="matrix(11.5,0,0,11.5,447.5,70.1)" />
<use xlink:href="#f0_t" transform="matrix(11.5,0,0,11.5,460.4,70.1)" />
<use xlink:href="#f0_3e" transform="matrix(11.5,0,0,11.5,468.8,70.1)" />
<use xlink:href="#f0_5" transform="matrix(11.5,0,0,11.5,478.3,70.1)" />
<use xlink:href="#f0_1x" transform="matrix(11.5,0,0,11.5,489,70.1)" />
<use xlink:href="#f0_1c" transform="matrix(11.5,0,0,11.5,504.4,70.1)" />
<use xlink:href="#f0_1y" transform="matrix(11.5,0,0,11.5,509.1,70.1)" />
<use xlink:href="#f0_5" transform="matrix(11.5,0,0,11.5,520.8,70.1)" />
<use xlink:href="#f0_2t" transform="matrix(11.5,0,0,11.5,531.5,70.1)" />
<use xlink:href="#f0_1c" transform="matrix(11.5,0,0,11.5,540.2,70.1)" />
<use xlink:href="#f0_24" transform="matrix(11.5,0,0,11.5,545,70.1)" />
<use xlink:href="#f0_1y" transform="matrix(11.5,0,0,11.5,556.7,70.1)" />
</g>
<image preserveAspectRatio="none" x="554" y="45" width="36" height="42" xlink:href="img/5.png" />
<g fill="#FFFFFF" >
<use xlink:href="#f1_q" transform="matrix(11,0,0,11,770.3,1227.6)" />
<use xlink:href="#f1_j" transform="matrix(11,0,0,11,783.5,1227.6)" />
<use xlink:href="#f1_l" transform="matrix(11,0,0,11,794.1,1227.6)" />
<use xlink:href="#f1_m" transform="matrix(11,0,0,11,802.9,1227.6)" />
</g>
<path fill-rule="evenodd" d="M52.8,1193.5H856.9v-.8H52.8v.8Z" class="g0_98" />
<path d="M37.9,99.4L873,98.5" class="g1_98" />
<g fill="#000000" >
<use xlink:href="#f2_1h" transform="matrix(12,0,0,12,55,166.9)" />
<use xlink:href="#f2_l" transform="matrix(12,0,0,12,74.1,166.9)" />
<use xlink:href="#f2_s" transform="matrix(12,0,0,12,83.3,166.9)" />
<use xlink:href="#f2_i" transform="matrix(12,0,0,12,92.4,166.9)" />
<use xlink:href="#f3_15" transform="matrix(12,0,0,12,101.6,166.9)" />
<use xlink:href="#f3_2k" transform="matrix(12,0,0,12,113,166.9)" />
<use xlink:href="#f3_1x" transform="matrix(12,0,0,12,121.8,166.9)" />
<use xlink:href="#f3_29" transform="matrix(12,0,0,12,130.2,166.9)" />
<use xlink:href="#f3_25" transform="matrix(12,0,0,12,144.1,166.9)" />
<use xlink:href="#f3_2a" transform="matrix(12,0,0,12,148.9,166.9)" />
<use xlink:href="#f3_21" transform="matrix(12,0,0,12,158,166.9)" />
<use xlink:href="#f3_2g" transform="matrix(12,0,0,12,170.8,166.9)" />
<use xlink:href="#f3_24" transform="matrix(12,0,0,12,176.3,166.9)" />
<use xlink:href="#f3_21" transform="matrix(12,0,0,12,185.1,166.9)" />
<use xlink:href="#f3_23" transform="matrix(12,0,0,12,197.9,166.9)" />
<use xlink:href="#f3_25" transform="matrix(12,0,0,12,207.5,166.9)" />
<use xlink:href="#f3_2i" transform="matrix(12,0,0,12,212.2,166.9)" />
<use xlink:href="#f3_21" transform="matrix(12,0,0,12,221,166.9)" />
<use xlink:href="#f3_2a" transform="matrix(12,0,0,12,229.4,166.9)" />
<use xlink:href="#f3_20" transform="matrix(12,0,0,12,243,166.9)" />
<use xlink:href="#f3_21" transform="matrix(12,0,0,12,252.2,166.9)" />
<use xlink:href="#f3_22" transform="matrix(12,0,0,12,260.6,166.9)" />
<use xlink:href="#f3_21" transform="matrix(12,0,0,12,266.4,166.9)" />
<use xlink:href="#f3_1z" transform="matrix(12,0,0,12,274.5,166.9)" />
<use xlink:href="#f3_2g" transform="matrix(12,0,0,12,282.6,166.9)" />
<use xlink:href="#f3_25" transform="matrix(12,0,0,12,288.4,166.9)" />
<use xlink:href="#f3_2i" transform="matrix(12,0,0,12,293.2,166.9)" />
<use xlink:href="#f3_21" transform="matrix(12,0,0,12,302,166.9)" />
<use xlink:href="#f3_1z" transform="matrix(12,0,0,12,314.8,166.9)" />
<use xlink:href="#f3_2e" transform="matrix(12,0,0,12,322.9,166.9)" />
<use xlink:href="#f3_2l" transform="matrix(12,0,0,12,329.4,166.9)" />
<use xlink:href="#f3_2f" transform="matrix(12,0,0,12,338.2,166.9)" />
<use xlink:href="#f3_2g" transform="matrix(12,0,0,12,345.2,166.9)" />
<use xlink:href="#f3_1x" transform="matrix(12,0,0,12,350.7,166.9)" />
<use xlink:href="#f3_28" transform="matrix(12,0,0,12,359.1,166.9)" />
<use xlink:href="#f3_u" transform="matrix(12,0,0,12,368.3,166.9)" />
<use xlink:href="#f3_11" transform="matrix(12,0,0,12,55,275.4)" />
<use xlink:href="#f3_2a" transform="matrix(12,0,0,12,68.3,275.4)" />
<use xlink:href="#f3_2f" transform="matrix(12,0,0,12,77.4,275.4)" />
<use xlink:href="#f3_2j" transform="matrix(12,0,0,12,84.4,275.4)" />
<use xlink:href="#f3_21" transform="matrix(12,0,0,12,97.6,275.4)" />
<use xlink:href="#f3_2e" transform="matrix(12,0,0,12,105.6,275.4)" />
<use xlink:href="#f3_2g" transform="matrix(12,0,0,12,116.6,275.4)" />
<use xlink:href="#f3_24" transform="matrix(12,0,0,12,122.1,275.4)" />
<use xlink:href="#f3_21" transform="matrix(12,0,0,12,130.9,275.4)" />
<use xlink:href="#f3_22" transform="matrix(12,0,0,12,143.7,275.4)" />
<use xlink:href="#f3_2b" transform="matrix(12,0,0,12,149.2,275.4)" />
<use xlink:href="#f3_28" transform="matrix(12,0,0,12,159.1,275.4)" />
<use xlink:href="#f3_28" transform="matrix(12,0,0,12,163.8,275.4)" />
<use xlink:href="#f3_2b" transform="matrix(12,0,0,12,168.2,275.4)" />
<use xlink:href="#f3_2j" transform="matrix(12,0,0,12,177.8,275.4)" />
<use xlink:href="#f3_25" transform="matrix(12,0,0,12,191.3,275.4)" />
<use xlink:href="#f3_2a" transform="matrix(12,0,0,12,196.1,275.4)" />
<use xlink:href="#f3_23" transform="matrix(12,0,0,12,205.2,275.4)" />
<use xlink:href="#f3_2d" transform="matrix(12,0,0,12,219.2,275.4)" />
<use xlink:href="#f3_2h" transform="matrix(12,0,0,12,228.3,275.4)" />
<use xlink:href="#f3_21" transform="matrix(12,0,0,12,237.5,275.4)" />
<use xlink:href="#f3_2f" transform="matrix(12,0,0,12,245.6,275.4)" />
<use xlink:href="#f3_2g" transform="matrix(12,0,0,12,252.5,275.4)" />
<use xlink:href="#f3_25" transform="matrix(12,0,0,12,258.4,275.4)" />
<use xlink:href="#f3_2b" transform="matrix(12,0,0,12,262.8,275.4)" />
<use xlink:href="#f3_2a" transform="matrix(12,0,0,12,272.3,275.4)" />
<use xlink:href="#f3_2f" transform="matrix(12,0,0,12,281.1,275.4)" />
<use xlink:href="#f3_u" transform="matrix(12,0,0,12,292.8,275.4)" />
<use xlink:href="#f3_c" transform="matrix(12,0,0,12,55,298.2)" />
<use xlink:href="#f3_25" transform="matrix(12,0,0,12,61.6,298.2)" />
<use xlink:href="#f3_d" transform="matrix(12,0,0,12,66,298.2)" />
<use xlink:href="#f3_19" transform="matrix(12,0,0,12,77,298.2)" />
<use xlink:href="#f3_2f" transform="matrix(12,0,0,12,83.2,298.2)" />
<use xlink:href="#f3_2g" transform="matrix(12,0,0,12,94.6,298.2)" />
<use xlink:href="#f3_24" transform="matrix(12,0,0,12,100,298.2)" />
<use xlink:href="#f3_21" transform="matrix(12,0,0,12,108.8,298.2)" />
<use xlink:href="#f3_1x" transform="matrix(12,0,0,12,121.7,298.2)" />
<use xlink:href="#f3_1y" transform="matrix(12,0,0,12,129.7,298.2)" />
<use xlink:href="#f3_2b" transform="matrix(12,0,0,12,138.5,298.2)" />
<use xlink:href="#f3_2i" transform="matrix(12,0,0,12,148,298.2)" />
<use xlink:href="#f3_21" transform="matrix(12,0,0,12,156.8,298.2)" />
<use xlink:href="#f3_20" transform="matrix(12,0,0,12,169.7,298.2)" />
<use xlink:href="#f3_21" transform="matrix(12,0,0,12,178.8,298.2)" />
<use xlink:href="#f3_22" transform="matrix(12,0,0,12,187.2,298.2)" />
<use xlink:href="#f3_21" transform="matrix(12,0,0,12,193.1,298.2)" />
<use xlink:href="#f3_1z" transform="matrix(12,0,0,12,201.2,298.2)" />
<use xlink:href="#f3_2g" transform="matrix(12,0,0,12,209.2,298.2)" />
<use xlink:href="#f3_2f" transform="matrix(12,0,0,12,219.5,298.2)" />
<use xlink:href="#f3_2g" transform="matrix(12,0,0,12,226.4,298.2)" />
<use xlink:href="#f3_2b" transform="matrix(12,0,0,12,231.5,298.2)" />
<use xlink:href="#f3_25" transform="matrix(12,0,0,12,241.1,298.2)" />
<use xlink:href="#f3_1z" transform="matrix(12,0,0,12,245.5,298.2)" />
<use xlink:href="#f3_24" transform="matrix(12,0,0,12,253.9,298.2)" />
<use xlink:href="#f3_25" transform="matrix(12,0,0,12,263.1,298.2)" />
<use xlink:href="#f3_2b" transform="matrix(12,0,0,12,267.5,298.2)" />
<use xlink:href="#f3_29" transform="matrix(12,0,0,12,277.3,298.2)" />
<use xlink:href="#f3_21" transform="matrix(12,0,0,12,291.3,298.2)" />
<use xlink:href="#f3_2g" transform="matrix(12,0,0,12,299.3,298.2)" />
<use xlink:href="#f3_2e" transform="matrix(12,0,0,12,304.8,298.2)" />
<use xlink:href="#f3_25" transform="matrix(12,0,0,12,311,298.2)" />
<use xlink:href="#f3_1z" transform="matrix(12,0,0,12,315.4,298.2)" />
<use xlink:href="#f3_2b" transform="matrix(12,0,0,12,328.3,298.2)" />
<use xlink:href="#f3_2e" transform="matrix(12,0,0,12,337.8,298.2)" />
<use xlink:href="#f3_2a" transform="matrix(12,0,0,12,348.7,298.2)" />
<use xlink:href="#f3_2b" transform="matrix(12,0,0,12,357.5,298.2)" />
<use xlink:href="#f3_2a" transform="matrix(12,0,0,12,367.1,298.2)" />
<use xlink:href="#f3_h" transform="matrix(12,0,0,12,376.4,298.2)" />
<use xlink:href="#f3_2f" transform="matrix(12,0,0,12,382.6,298.2)" />
<use xlink:href="#f3_2g" transform="matrix(12,0,0,12,389.6,298.2)" />
<use xlink:href="#f3_2b" transform="matrix(12,0,0,12,394.6,298.2)" />
<use xlink:href="#f3_25" transform="matrix(12,0,0,12,404.2,298.2)" />
<use xlink:href="#f3_1z" transform="matrix(12,0,0,12,408.6,298.2)" />
<use xlink:href="#f3_24" transform="matrix(12,0,0,12,417,298.2)" />
<use xlink:href="#f3_25" transform="matrix(12,0,0,12,426.2,298.2)" />
<use xlink:href="#f3_2b" transform="matrix(12,0,0,12,430.6,298.2)" />
<use xlink:href="#f3_29" transform="matrix(12,0,0,12,440.5,298.2)" />
<use xlink:href="#f3_21" transform="matrix(12,0,0,12,454.4,298.2)" />
<use xlink:href="#f3_2g" transform="matrix(12,0,0,12,462.5,298.2)" />
<use xlink:href="#f3_2e" transform="matrix(12,0,0,12,467.9,298.2)" />
<use xlink:href="#f3_25" transform="matrix(12,0,0,12,474.2,298.2)" />
<use xlink:href="#f3_1z" transform="matrix(12,0,0,12,478.9,298.2)" />
<use xlink:href="#f3_z" transform="matrix(12,0,0,12,491.7,298.2)" />
<use xlink:href="#f3_c" transform="matrix(12,0,0,12,55,320.9)" />
<use xlink:href="#f3_25" transform="matrix(12,0,0,12,61.6,320.9)" />
<use xlink:href="#f3_25" transform="matrix(12,0,0,12,66.4,320.9)" />
<use xlink:href="#f3_d" transform="matrix(12,0,0,12,70.8,320.9)" />
<use xlink:href="#f3_1n" transform="matrix(12,0,0,12,82.1,320.9)" />
<use xlink:href="#f3_2e" transform="matrix(12,0,0,12,99,320.9)" />
<use xlink:href="#f3_25" transform="matrix(12,0,0,12,105.6,320.9)" />
<use xlink:href="#f3_2g" transform="matrix(12,0,0,12,110,320.9)" />
<use xlink:href="#f3_21" transform="matrix(12,0,0,12,115.4,320.9)" />
<use xlink:href="#f3_2g" transform="matrix(12,0,0,12,128.3,320.9)" />
<use xlink:href="#f3_24" transform="matrix(12,0,0,12,133.7,320.9)" />
<use xlink:href="#f3_21" transform="matrix(12,0,0,12,142.5,320.9)" />
<use xlink:href="#f3_2g" transform="matrix(12,0,0,12,155,320.9)" />
<use xlink:href="#f3_21" transform="matrix(12,0,0,12,160.5,320.9)" />
<use xlink:href="#f3_2e" transform="matrix(12,0,0,12,168.6,320.9)" />
<use xlink:href="#f3_29" transform="matrix(12,0,0,12,174.8,320.9)" />
<use xlink:href="#f3_2h" transform="matrix(12,0,0,12,193.1,320.9)" />
<use xlink:href="#f3_2f" transform="matrix(12,0,0,12,202.3,320.9)" />
<use xlink:href="#f3_21" transform="matrix(12,0,0,12,209.2,320.9)" />
<use xlink:href="#f3_20" transform="matrix(12,0,0,12,217.3,320.9)" />
<use xlink:href="#f3_22" transform="matrix(12,0,0,12,231.6,320.9)" />
<use xlink:href="#f3_2b" transform="matrix(12,0,0,12,237.1,320.9)" />
<use xlink:href="#f3_2e" transform="matrix(12,0,0,12,246.6,320.9)" />
<use xlink:href="#f3_2g" transform="matrix(12,0,0,12,257.2,320.9)" />
<use xlink:href="#f3_24" transform="matrix(12,0,0,12,262.7,320.9)" />
<use xlink:href="#f3_21" transform="matrix(12,0,0,12,271.5,320.9)" />
<use xlink:href="#f3_21" transform="matrix(12,0,0,12,284.3,320.9)" />
<use xlink:href="#f3_28" transform="matrix(12,0,0,12,292.7,320.9)" />
<use xlink:href="#f3_21" transform="matrix(12,0,0,12,297.1,320.9)" />
<use xlink:href="#f3_1z" transform="matrix(12,0,0,12,305.5,320.9)" />
<use xlink:href="#f3_2g" transform="matrix(12,0,0,12,313.6,320.9)" />
<use xlink:href="#f3_2e" transform="matrix(12,0,0,12,319.1,320.9)" />
<use xlink:href="#f3_2b" transform="matrix(12,0,0,12,324.9,320.9)" />
<use xlink:href="#f3_2a" transform="matrix(12,0,0,12,334.5,320.9)" />
<use xlink:href="#f3_2b" transform="matrix(12,0,0,12,348,320.9)" />
<use xlink:href="#f3_1z" transform="matrix(12,0,0,12,357.5,320.9)" />
<use xlink:href="#f3_1z" transform="matrix(12,0,0,12,365.6,320.9)" />
<use xlink:href="#f3_2h" transform="matrix(12,0,0,12,373.7,320.9)" />
<use xlink:href="#f3_2c" transform="matrix(12,0,0,12,382.8,320.9)" />
<use xlink:href="#f3_25" transform="matrix(12,0,0,12,392,320.9)" />
<use xlink:href="#f3_21" transform="matrix(12,0,0,12,396.4,320.9)" />
<use xlink:href="#f3_20" transform="matrix(12,0,0,12,404.5,320.9)" />
<use xlink:href="#f3_2f" transform="matrix(12,0,0,12,418.4,320.9)" />
<use xlink:href="#f3_25" transform="matrix(12,0,0,12,425.7,320.9)" />
<use xlink:href="#f3_2g" transform="matrix(12,0,0,12,430.1,320.9)" />
<use xlink:href="#f3_21" transform="matrix(12,0,0,12,435.6,320.9)" />
<use xlink:href="#f3_i" transform="matrix(12,0,0,12,443.6,320.9)" />
<use xlink:href="#f3_c" transform="matrix(12,0,0,12,55,343.7)" />
<use xlink:href="#f3_25" transform="matrix(12,0,0,12,61.6,343.7)" />
<use xlink:href="#f3_25" transform="matrix(12,0,0,12,66.4,343.7)" />
<use xlink:href="#f3_25" transform="matrix(12,0,0,12,71.2,343.7)" />
<use xlink:href="#f3_d" transform="matrix(12,0,0,12,75.9,343.7)" />
<use xlink:href="#f3_17" transform="matrix(12,0,0,12,86.9,343.7)" />
<use xlink:href="#f3_25" transform="matrix(12,0,0,12,100.4,343.7)" />
<use xlink:href="#f3_2i" transform="matrix(12,0,0,12,105.2,343.7)" />
<use xlink:href="#f3_21" transform="matrix(12,0,0,12,114.4,343.7)" />
<use xlink:href="#f3_1x" transform="matrix(12,0,0,12,127.2,343.7)" />
<use xlink:href="#f3_2a" transform="matrix(12,0,0,12,135.2,343.7)" />
<use xlink:href="#f3_21" transform="matrix(12,0,0,12,148.8,343.7)" />
<use xlink:href="#f3_2k" transform="matrix(12,0,0,12,157.2,343.7)" />
<use xlink:href="#f3_1x" transform="matrix(12,0,0,12,166,343.7)" />
<use xlink:href="#f3_29" transform="matrix(12,0,0,12,174.4,343.7)" />
<use xlink:href="#f3_2c" transform="matrix(12,0,0,12,188.4,343.7)" />
<use xlink:href="#f3_28" transform="matrix(12,0,0,12,197.9,343.7)" />
<use xlink:href="#f3_21" transform="matrix(12,0,0,12,202.6,343.7)" />
<use xlink:href="#f3_2b" transform="matrix(12,0,0,12,215.7,343.7)" />
<use xlink:href="#f3_22" transform="matrix(12,0,0,12,225.2,343.7)" />
<use xlink:href="#f3_2g" transform="matrix(12,0,0,12,235.4,343.7)" />
<use xlink:href="#f3_24" transform="matrix(12,0,0,12,240.9,343.7)" />
<use xlink:href="#f3_21" transform="matrix(12,0,0,12,249.7,343.7)" />
<use xlink:href="#f3_1z" transform="matrix(12,0,0,12,262.5,343.7)" />
<use xlink:href="#f3_2b" transform="matrix(12,0,0,12,270.6,343.7)" />
<use xlink:href="#f3_29" transform="matrix(12,0,0,12,280.1,343.7)" />
<use xlink:href="#f3_2c" transform="matrix(12,0,0,12,293.7,343.7)" />
<use xlink:href="#f3_2b" transform="matrix(12,0,0,12,302.9,343.7)" />
<use xlink:href="#f3_2h" transform="matrix(12,0,0,12,312.4,343.7)" />
<use xlink:href="#f3_2a" transform="matrix(12,0,0,12,321.5,343.7)" />
<use xlink:href="#f3_20" transform="matrix(12,0,0,12,330.3,343.7)" />
<use xlink:href="#f3_2j" transform="matrix(12,0,0,12,344.2,343.7)" />
<use xlink:href="#f3_24" transform="matrix(12,0,0,12,357.8,343.7)" />
<use xlink:href="#f3_25" transform="matrix(12,0,0,12,367,343.7)" />
<use xlink:href="#f3_1z" transform="matrix(12,0,0,12,371.7,343.7)" />
<use xlink:href="#f3_24" transform="matrix(12,0,0,12,380.1,343.7)" />
<use xlink:href="#f3_2f" transform="matrix(12,0,0,12,393.7,343.7)" />
<use xlink:href="#f3_24" transform="matrix(12,0,0,12,401,343.7)" />
<use xlink:href="#f3_2b" transform="matrix(12,0,0,12,409.8,343.7)" />
<use xlink:href="#f3_2j" transform="matrix(12,0,0,12,419.3,343.7)" />
<use xlink:href="#f3_2f" transform="matrix(12,0,0,12,432.6,343.7)" />
<use xlink:href="#f3_2g" transform="matrix(12,0,0,12,444.2,343.7)" />
<use xlink:href="#f3_24" transform="matrix(12,0,0,12,449.7,343.7)" />
<use xlink:href="#f3_25" transform="matrix(12,0,0,12,458.9,343.7)" />
<use xlink:href="#f3_2f" transform="matrix(12,0,0,12,463.3,343.7)" />
<use xlink:href="#f3_2g" transform="matrix(12,0,0,12,475,343.7)" />
<use xlink:href="#f3_2l" transform="matrix(12,0,0,12,480.8,343.7)" />
<use xlink:href="#f3_2c" transform="matrix(12,0,0,12,489.3,343.7)" />
<use xlink:href="#f3_21" transform="matrix(12,0,0,12,498.4,343.7)" />
<use xlink:href="#f3_2b" transform="matrix(12,0,0,12,511.3,343.7)" />
<use xlink:href="#f3_22" transform="matrix(12,0,0,12,520.8,343.7)" />
<use xlink:href="#f3_20" transform="matrix(12,0,0,12,531,343.7)" />
<use xlink:href="#f3_21" transform="matrix(12,0,0,12,540.2,343.7)" />
<use xlink:href="#f3_22" transform="matrix(12,0,0,12,548.6,343.7)" />
<use xlink:href="#f3_21" transform="matrix(12,0,0,12,554.5,343.7)" />
<use xlink:href="#f3_1z" transform="matrix(12,0,0,12,562.5,343.7)" />
<use xlink:href="#f3_2g" transform="matrix(12,0,0,12,570.6,343.7)" />
<use xlink:href="#f3_i" transform="matrix(12,0,0,12,576.1,343.7)" />
<use xlink:href="#f2_11" transform="matrix(12,0,0,12,55,366.4)" />
<use xlink:href="#f2_2a" transform="matrix(12,0,0,12,68.3,366.4)" />
<use xlink:href="#f2_2f" transform="matrix(12,0,0,12,78.5,366.4)" />
<use xlink:href="#f2_2j" transform="matrix(12,0,0,12,85.5,366.4)" />
<use xlink:href="#f2_21" transform="matrix(12,0,0,12,98.7,366.4)" />
<use xlink:href="#f2_2e" transform="matrix(12,0,0,12,107.1,366.4)" />
<use xlink:href="#f2_u" transform="matrix(12,0,0,12,114.8,366.4)" />
<use xlink:href="#f3_c" transform="matrix(12,0,0,12,55,401.6)" />
<use xlink:href="#f3_25" transform="matrix(12,0,0,12,61.6,401.6)" />
<use xlink:href="#f3_d" transform="matrix(12,0,0,12,66,401.6)" />
<use xlink:href="#f3_2a" transform="matrix(12,0,0,12,77,401.6)" />
<use xlink:href="#f3_2b" transform="matrix(12,0,0,12,85.8,401.6)" />
<use xlink:href="#f3_2a" transform="matrix(12,0,0,12,95.3,401.6)" />
<use xlink:href="#f3_i" transform="matrix(12,0,0,12,108.8,401.6)" />
<use xlink:href="#f3_2f" transform="matrix(12,0,0,12,118.3,401.6)" />
<use xlink:href="#f3_2g" transform="matrix(12,0,0,12,125.3,401.6)" />
<use xlink:href="#f3_2b" transform="matrix(12,0,0,12,130.4,401.6)" />
<use xlink:href="#f3_25" transform="matrix(12,0,0,12,140,401.6)" />
<use xlink:href="#f3_1z" transform="matrix(12,0,0,12,144.4,401.6)" />
<use xlink:href="#f3_24" transform="matrix(12,0,0,12,152.8,401.6)" />
<use xlink:href="#f3_25" transform="matrix(12,0,0,12,161.9,401.6)" />
<use xlink:href="#f3_2b" transform="matrix(12,0,0,12,166.3,401.6)" />
<use xlink:href="#f3_29" transform="matrix(12,0,0,12,176.2,401.6)" />
<use xlink:href="#f3_21" transform="matrix(12,0,0,12,190.2,401.6)" />
<use xlink:href="#f3_2g" transform="matrix(12,0,0,12,198.2,401.6)" />
<use xlink:href="#f3_2e" transform="matrix(12,0,0,12,203.7,401.6)" />
<use xlink:href="#f3_25" transform="matrix(12,0,0,12,209.9,401.6)" />
<use xlink:href="#f3_1z" transform="matrix(12,0,0,12,214.3,401.6)" />
<use xlink:href="#f3_c" transform="matrix(12,0,0,12,55,424.3)" />
<use xlink:href="#f3_25" transform="matrix(12,0,0,12,61.6,424.3)" />
<use xlink:href="#f3_25" transform="matrix(12,0,0,12,66.4,424.3)" />
<use xlink:href="#f3_d" transform="matrix(12,0,0,12,70.8,424.3)" />
<use xlink:href="#f3_16" transform="matrix(12,0,0,12,81.7,424.3)" />
<use xlink:href="#f3_h" transform="matrix(12,0,0,12,96.5,424.3)" />
<use xlink:href="#f3_13" transform="matrix(12,0,0,12,107.5,424.3)" />
<use xlink:href="#f3_21" transform="matrix(12,0,0,12,119.6,424.3)" />
<use xlink:href="#f3_2a" transform="matrix(12,0,0,12,128,424.3)" />
<use xlink:href="#f3_2g" transform="matrix(12,0,0,12,136.8,424.3)" />
<use xlink:href="#f3_21" transform="matrix(12,0,0,12,142.3,424.3)" />
<use xlink:href="#f3_2e" transform="matrix(12,0,0,12,150.3,424.3)" />
<use xlink:href="#f3_c" transform="matrix(12,0,0,12,160.9,424.3)" />
<use xlink:href="#f3_16" transform="matrix(12,0,0,12,167.2,424.3)" />
<use xlink:href="#f3_21" transform="matrix(12,0,0,12,177.1,424.3)" />
<use xlink:href="#f3_2e" transform="matrix(12,0,0,12,185.1,424.3)" />
<use xlink:href="#f3_1y" transform="matrix(12,0,0,12,191.3,424.3)" />
<use xlink:href="#f3_13" transform="matrix(12,0,0,12,204.9,424.3)" />
<use xlink:href="#f3_21" transform="matrix(12,0,0,12,217,424.3)" />
<use xlink:href="#f3_2a" transform="matrix(12,0,0,12,225.4,424.3)" />
<use xlink:href="#f3_2g" transform="matrix(12,0,0,12,234.2,424.3)" />
<use xlink:href="#f3_2e" transform="matrix(12,0,0,12,239.7,424.3)" />
<use xlink:href="#f3_21" transform="matrix(12,0,0,12,245.9,424.3)" />
<use xlink:href="#f3_d" transform="matrix(12,0,0,12,254,424.3)" />
<use xlink:href="#f3_c" transform="matrix(12,0,0,12,55,447.1)" />
<use xlink:href="#f3_25" transform="matrix(12,0,0,12,61.6,447.1)" />
<use xlink:href="#f3_25" transform="matrix(12,0,0,12,66.4,447.1)" />
<use xlink:href="#f3_25" transform="matrix(12,0,0,12,71.2,447.1)" />
<use xlink:href="#f3_d" transform="matrix(12,0,0,12,75.9,447.1)" />
<use xlink:href="#f3_1e" transform="matrix(12,0,0,12,86.9,447.1)" />
<use xlink:href="#f3_1x" transform="matrix(12,0,0,12,100.1,447.1)" />
<use xlink:href="#f3_13" transform="matrix(12,0,0,12,108.1,447.1)" />
<use xlink:href="#f3_28" transform="matrix(12,0,0,12,120.6,447.1)" />
<use xlink:href="#f3_25" transform="matrix(12,0,0,12,130.1,447.1)" />
<use xlink:href="#f3_2a" transform="matrix(12,0,0,12,134.9,447.1)" />
<use xlink:href="#f3_2c" transform="matrix(12,0,0,12,148.8,447.1)" />
<use xlink:href="#f3_2e" transform="matrix(12,0,0,12,158,447.1)" />
<use xlink:href="#f3_21" transform="matrix(12,0,0,12,164.2,447.1)" />
<use xlink:href="#f3_2f" transform="matrix(12,0,0,12,172.2,447.1)" />
<use xlink:href="#f3_21" transform="matrix(12,0,0,12,179.2,447.1)" />
<use xlink:href="#f3_2a" transform="matrix(12,0,0,12,187.6,447.1)" />
<use xlink:href="#f3_1z" transform="matrix(12,0,0,12,196.8,447.1)" />
<use xlink:href="#f3_21" transform="matrix(12,0,0,12,204.9,447.1)" />
<use xlink:href="#f3_2b" transform="matrix(12,0,0,12,217.7,447.1)" />
<use xlink:href="#f3_22" transform="matrix(12,0,0,12,227.2,447.1)" />
<use xlink:href="#f3_21" transform="matrix(12,0,0,12,237.4,447.1)" />
<use xlink:href="#f3_2k" transform="matrix(12,0,0,12,245.9,447.1)" />
<use xlink:href="#f3_1z" transform="matrix(12,0,0,12,254.7,447.1)" />
<use xlink:href="#f3_21" transform="matrix(12,0,0,12,262.7,447.1)" />
<use xlink:href="#f3_2f" transform="matrix(12,0,0,12,270.8,447.1)" />
<use xlink:href="#f3_2f" transform="matrix(12,0,0,12,278.1,447.1)" />
<use xlink:href="#f3_1e" transform="matrix(12,0,0,12,289.8,447.1)" />
<use xlink:href="#f3_1x" transform="matrix(12,0,0,12,303.1,447.1)" />
<use xlink:href="#f2_1h" transform="matrix(12,0,0,12,55,492.6)" />
<use xlink:href="#f2_l" transform="matrix(12,0,0,12,74.1,492.6)" />
<use xlink:href="#f2_t" transform="matrix(12,0,0,12,83.3,492.6)" />
<use xlink:href="#f2_i" transform="matrix(12,0,0,12,92.4,492.6)" />
<use xlink:href="#f3_18" transform="matrix(12,0,0,12,101.6,492.6)" />
<use xlink:href="#f3_2b" transform="matrix(12,0,0,12,114.4,492.6)" />
<use xlink:href="#f3_2j" transform="matrix(12,0,0,12,124,492.6)" />
<use xlink:href="#f3_20" transform="matrix(12,0,0,12,141.9,492.6)" />
<use xlink:href="#f3_2b" transform="matrix(12,0,0,12,150.7,492.6)" />
<use xlink:href="#f3_2l" transform="matrix(12,0,0,12,165,492.6)" />
<use xlink:href="#f3_2b" transform="matrix(12,0,0,12,173.4,492.6)" />
<use xlink:href="#f3_2h" transform="matrix(12,0,0,12,182.9,492.6)" />
<use xlink:href="#f3_1z" transform="matrix(12,0,0,12,196.8,492.6)" />
<use xlink:href="#f3_2b" transform="matrix(12,0,0,12,204.5,492.6)" />
<use xlink:href="#f3_2a" transform="matrix(12,0,0,12,214,492.6)" />
<use xlink:href="#f3_2i" transform="matrix(12,0,0,12,222.8,492.6)" />
<use xlink:href="#f3_21" transform="matrix(12,0,0,12,231.6,492.6)" />
<use xlink:href="#f3_2e" transform="matrix(12,0,0,12,239.7,492.6)" />
<use xlink:href="#f3_2g" transform="matrix(12,0,0,12,245.9,492.6)" />
<use xlink:href="#f3_2g" transform="matrix(12,0,0,12,255.8,492.6)" />
<use xlink:href="#f3_24" transform="matrix(12,0,0,12,261.3,492.6)" />
<use xlink:href="#f3_21" transform="matrix(12,0,0,12,270.1,492.6)" />
<use xlink:href="#f3_22" transform="matrix(12,0,0,12,283.3,492.6)" />
<use xlink:href="#f3_2b" transform="matrix(12,0,0,12,288.8,492.6)" />
<use xlink:href="#f3_28" transform="matrix(12,0,0,12,298.6,492.6)" />
<use xlink:href="#f3_28" transform="matrix(12,0,0,12,303.4,492.6)" />
<use xlink:href="#f3_2b" transform="matrix(12,0,0,12,307.8,492.6)" />
<use xlink:href="#f3_2j" transform="matrix(12,0,0,12,317.3,492.6)" />
<use xlink:href="#f3_25" transform="matrix(12,0,0,12,330.9,492.6)" />
<use xlink:href="#f3_2a" transform="matrix(12,0,0,12,335.6,492.6)" />
<use xlink:href="#f3_23" transform="matrix(12,0,0,12,344.4,492.6)" />
<use xlink:href="#f3_u" transform="matrix(12,0,0,12,358.4,492.6)" />
<use xlink:href="#f3_c" transform="matrix(12,0,0,12,55,515.3)" />
<use xlink:href="#f3_25" transform="matrix(12,0,0,12,61.6,515.3)" />
<use xlink:href="#f3_d" transform="matrix(12,0,0,12,66,515.3)" />
<use xlink:href="#f3_1g" transform="matrix(12,0,0,12,77,515.3)" />
<use xlink:href="#f3_2e" transform="matrix(12,0,0,12,87.2,515.3)" />
<use xlink:href="#f3_2b" transform="matrix(12,0,0,12,93.1,515.3)" />
<use xlink:href="#f3_2c" transform="matrix(12,0,0,12,102.6,515.3)" />
<use xlink:href="#f3_h" transform="matrix(12,0,0,12,111.9,515.3)" />
<use xlink:href="#f3_l" transform="matrix(12,0,0,12,118.1,515.3)" />
<use xlink:href="#f3_h" transform="matrix(12,0,0,12,126.9,515.3)" />
<use xlink:href="#f3_21" transform="matrix(12,0,0,12,133.1,515.3)" />
<use xlink:href="#f3_2a" transform="matrix(12,0,0,12,141.2,515.3)" />
<use xlink:href="#f3_21" transform="matrix(12,0,0,12,150,515.3)" />
<use xlink:href="#f3_2g" transform="matrix(12,0,0,12,162.8,515.3)" />
<use xlink:href="#f3_2b" transform="matrix(12,0,0,12,167.9,515.3)" />
<use xlink:href="#f3_1g" transform="matrix(12,0,0,12,181.9,515.3)" />
<use xlink:href="#f3_2e" transform="matrix(12,0,0,12,192.1,515.3)" />
<use xlink:href="#f3_2b" transform="matrix(12,0,0,12,198,515.3)" />
<use xlink:href="#f3_2c" transform="matrix(12,0,0,12,207.5,515.3)" />
<use xlink:href="#f3_1x" transform="matrix(12,0,0,12,216.7,515.3)" />
<use xlink:href="#f3_2a" transform="matrix(12,0,0,12,224.7,515.3)" />
<use xlink:href="#f3_h" transform="matrix(12,0,0,12,233.6,515.3)" />
<use xlink:href="#f3_m" transform="matrix(12,0,0,12,239.9,515.3)" />
<use xlink:href="#f3_h" transform="matrix(12,0,0,12,249.1,515.3)" />
<use xlink:href="#f3_2b" transform="matrix(12,0,0,12,255.3,515.3)" />
<use xlink:href="#f3_28" transform="matrix(12,0,0,12,264.8,515.3)" />
<use xlink:href="#f3_c" transform="matrix(12,0,0,12,55,538.1)" />
<use xlink:href="#f3_25" transform="matrix(12,0,0,12,61.6,538.1)" />
<use xlink:href="#f3_25" transform="matrix(12,0,0,12,66.4,538.1)" />
<use xlink:href="#f3_d" transform="matrix(12,0,0,12,70.8,538.1)" />
<use xlink:href="#f3_12" transform="matrix(12,0,0,12,81.7,538.1)" />
<use xlink:href="#f3_2e" transform="matrix(12,0,0,12,93.8,538.1)" />
<use xlink:href="#f3_2b" transform="matrix(12,0,0,12,100.1,538.1)" />
<use xlink:href="#f3_29" transform="matrix(12,0,0,12,109.6,538.1)" />
<use xlink:href="#f3_2b" transform="matrix(12,0,0,12,123.1,538.1)" />
<use xlink:href="#f3_1y" transform="matrix(12,0,0,12,132.7,538.1)" />
<use xlink:href="#f3_21" transform="matrix(12,0,0,12,141.8,538.1)" />
<use xlink:href="#f3_2a" transform="matrix(12,0,0,12,150.2,538.1)" />
<use xlink:href="#f3_2m" transform="matrix(12,0,0,12,159,538.1)" />
<use xlink:href="#f3_21" transform="matrix(12,0,0,12,167.1,538.1)" />
<use xlink:href="#f3_2a" transform="matrix(12,0,0,12,175.5,538.1)" />
<use xlink:href="#f3_21" transform="matrix(12,0,0,12,184.3,538.1)" />
<use xlink:href="#f3_2g" transform="matrix(12,0,0,12,197.1,538.1)" />
<use xlink:href="#f3_2b" transform="matrix(12,0,0,12,202.6,538.1)" />
<use xlink:href="#f3_m" transform="matrix(12,0,0,12,216.5,538.1)" />
<use xlink:href="#f3_h" transform="matrix(12,0,0,12,225.9,538.1)" />
<use xlink:href="#f3_1y" transform="matrix(12,0,0,12,232.2,538.1)" />
<use xlink:href="#f3_2e" transform="matrix(12,0,0,12,241,538.1)" />
<use xlink:href="#f3_2b" transform="matrix(12,0,0,12,246.8,538.1)" />
<use xlink:href="#f3_29" transform="matrix(12,0,0,12,256.4,538.1)" />
<use xlink:href="#f3_2b" transform="matrix(12,0,0,12,269.9,538.1)" />
<use xlink:href="#f3_1x" transform="matrix(12,0,0,12,279.4,538.1)" />
<use xlink:href="#f3_1z" transform="matrix(12,0,0,12,287.5,538.1)" />
<use xlink:href="#f3_21" transform="matrix(12,0,0,12,295.6,538.1)" />
<use xlink:href="#f3_2g" transform="matrix(12,0,0,12,303.6,538.1)" />
<use xlink:href="#f3_2b" transform="matrix(12,0,0,12,309.1,538.1)" />
<use xlink:href="#f3_2c" transform="matrix(12,0,0,12,318.6,538.1)" />
<use xlink:href="#f3_24" transform="matrix(12,0,0,12,327.8,538.1)" />
<use xlink:href="#f3_21" transform="matrix(12,0,0,12,336.7,538.1)" />
<use xlink:href="#f3_2a" transform="matrix(12,0,0,12,344.8,538.1)" />
<use xlink:href="#f3_2b" transform="matrix(12,0,0,12,353.6,538.1)" />
<use xlink:href="#f3_2a" transform="matrix(12,0,0,12,363.1,538.1)" />
<use xlink:href="#f3_21" transform="matrix(12,0,0,12,371.9,538.1)" />
<use xlink:href="#f3_c" transform="matrix(12,0,0,12,55,560.8)" />
<use xlink:href="#f3_25" transform="matrix(12,0,0,12,61.6,560.8)" />
<use xlink:href="#f3_25" transform="matrix(12,0,0,12,66.4,560.8)" />
<use xlink:href="#f3_25" transform="matrix(12,0,0,12,71.2,560.8)" />
<use xlink:href="#f3_d" transform="matrix(12,0,0,12,75.9,560.8)" />
<use xlink:href="#f3_m" transform="matrix(12,0,0,12,86.9,560.8)" />
<use xlink:href="#f3_h" transform="matrix(12,0,0,12,96.1,560.8)" />
<use xlink:href="#f3_1y" transform="matrix(12,0,0,12,102.3,560.8)" />
<use xlink:href="#f3_2e" transform="matrix(12,0,0,12,111.1,560.8)" />
<use xlink:href="#f3_2b" transform="matrix(12,0,0,12,117.4,560.8)" />
<use xlink:href="#f3_29" transform="matrix(12,0,0,12,127.2,560.8)" />
<use xlink:href="#f3_2b" transform="matrix(12,0,0,12,140.8,560.8)" />
<use xlink:href="#f3_1y" transform="matrix(12,0,0,12,150.3,560.8)" />
<use xlink:href="#f3_2h" transform="matrix(12,0,0,12,159.1,560.8)" />
<use xlink:href="#f3_2g" transform="matrix(12,0,0,12,168.3,560.8)" />
<use xlink:href="#f3_1x" transform="matrix(12,0,0,12,173.8,560.8)" />
<use xlink:href="#f3_2a" transform="matrix(12,0,0,12,181.8,560.8)" />
<use xlink:href="#f3_21" transform="matrix(12,0,0,12,190.6,560.8)" />
<use xlink:href="#f3_2g" transform="matrix(12,0,0,12,203.4,560.8)" />
<use xlink:href="#f3_2b" transform="matrix(12,0,0,12,208.5,560.8)" />
<use xlink:href="#f3_12" transform="matrix(12,0,0,12,222.8,560.8)" />
<use xlink:href="#f3_2h" transform="matrix(12,0,0,12,234.9,560.8)" />
<use xlink:href="#f3_2g" transform="matrix(12,0,0,12,243.7,560.8)" />
<use xlink:href="#f3_h" transform="matrix(12,0,0,12,249.4,560.8)" />
<use xlink:href="#f3_m" transform="matrix(12,0,0,12,255.7,560.8)" />
<use xlink:href="#f3_h" transform="matrix(12,0,0,12,264.5,560.8)" />
<use xlink:href="#f3_21" transform="matrix(12,0,0,12,270.7,560.8)" />
<use xlink:href="#f3_2a" transform="matrix(12,0,0,12,278.8,560.8)" />
<use xlink:href="#f3_21" transform="matrix(12,0,0,12,287.6,560.8)" />
<use xlink:href="#f2_1f" transform="matrix(12,0,0,12,440.9,583.5)" />
<use xlink:href="#f2_1i" transform="matrix(12,0,0,12,455.2,583.5)" />
<use xlink:href="#f3_1n" transform="matrix(12,0,0,12,55,606.3)" />
<use xlink:href="#f3_24" transform="matrix(12,0,0,12,72.3,606.3)" />
<use xlink:href="#f3_1x" transform="matrix(12,0,0,12,81.1,606.3)" />
<use xlink:href="#f3_2g" transform="matrix(12,0,0,12,89.1,606.3)" />
<use xlink:href="#f3_24" transform="matrix(12,0,0,12,99.4,606.3)" />
<use xlink:href="#f3_1x" transform="matrix(12,0,0,12,108.2,606.3)" />
<use xlink:href="#f3_2c" transform="matrix(12,0,0,12,116.2,606.3)" />
<use xlink:href="#f3_2c" transform="matrix(12,0,0,12,125.4,606.3)" />
<use xlink:href="#f3_21" transform="matrix(12,0,0,12,134.6,606.3)" />
<use xlink:href="#f3_2a" transform="matrix(12,0,0,12,143,606.3)" />
<use xlink:href="#f3_2f" transform="matrix(12,0,0,12,152.1,606.3)" />
<use xlink:href="#f3_2j" transform="matrix(12,0,0,12,163.9,606.3)" />
<use xlink:href="#f3_24" transform="matrix(12,0,0,12,177.1,606.3)" />
<use xlink:href="#f3_21" transform="matrix(12,0,0,12,185.9,606.3)" />
<use xlink:href="#f3_2a" transform="matrix(12,0,0,12,194.3,606.3)" />
<use xlink:href="#f3_c" transform="matrix(12,0,0,12,55,629)" />
<use xlink:href="#f3_25" transform="matrix(12,0,0,12,61.6,629)" />
<use xlink:href="#f3_d" transform="matrix(12,0,0,12,66,629)" />
<use xlink:href="#f3_21" transform="matrix(12,0,0,12,77,629)" />
<use xlink:href="#f3_2g" transform="matrix(12,0,0,12,85,629)" />
<use xlink:href="#f3_24" transform="matrix(12,0,0,12,90.5,629)" />
<use xlink:href="#f3_2l" transform="matrix(12,0,0,12,99.7,629)" />
<use xlink:href="#f3_28" transform="matrix(12,0,0,12,108.5,629)" />
<use xlink:href="#f3_1z" transform="matrix(12,0,0,12,117.6,629)" />
<use xlink:href="#f3_24" transform="matrix(12,0,0,12,126.1,629)" />
<use xlink:href="#f3_28" transform="matrix(12,0,0,12,135.2,629)" />
<use xlink:href="#f3_2b" transform="matrix(12,0,0,12,139.6,629)" />
<use xlink:href="#f3_2e" transform="matrix(12,0,0,12,149.1,629)" />
<use xlink:href="#f3_25" transform="matrix(12,0,0,12,155.7,629)" />
<use xlink:href="#f3_20" transform="matrix(12,0,0,12,160.5,629)" />
<use xlink:href="#f3_21" transform="matrix(12,0,0,12,169.7,629)" />
<use xlink:href="#f3_25" transform="matrix(12,0,0,12,182.8,629)" />
<use xlink:href="#f3_2f" transform="matrix(12,0,0,12,187.6,629)" />
<use xlink:href="#f3_2g" transform="matrix(12,0,0,12,199.3,629)" />
<use xlink:href="#f3_2e" transform="matrix(12,0,0,12,204.8,629)" />
<use xlink:href="#f3_21" transform="matrix(12,0,0,12,211,629)" />
<use xlink:href="#f3_1x" transform="matrix(12,0,0,12,219.1,629)" />
<use xlink:href="#f3_2g" transform="matrix(12,0,0,12,226.8,629)" />
<use xlink:href="#f3_21" transform="matrix(12,0,0,12,232.3,629)" />
<use xlink:href="#f3_20" transform="matrix(12,0,0,12,240.3,629)" />
<use xlink:href="#f3_2j" transform="matrix(12,0,0,12,254.2,629)" />
<use xlink:href="#f3_25" transform="matrix(12,0,0,12,267.5,629)" />
<use xlink:href="#f3_2g" transform="matrix(12,0,0,12,271.8,629)" />
<use xlink:href="#f3_24" transform="matrix(12,0,0,12,277.3,629)" />
<use xlink:href="#f3_1e" transform="matrix(12,0,0,12,290.9,629)" />
<use xlink:href="#f3_1x" transform="matrix(12,0,0,12,304.1,629)" />
<use xlink:href="#f3_19" transform="matrix(12,0,0,12,312.1,629)" />
<use xlink:href="#f3_25" transform="matrix(12,0,0,12,323.1,629)" />
<use xlink:href="#f3_2a" transform="matrix(12,0,0,12,327.9,629)" />
<use xlink:href="#f3_2g" transform="matrix(12,0,0,12,341.4,629)" />
<use xlink:href="#f3_24" transform="matrix(12,0,0,12,346.9,629)" />
<use xlink:href="#f3_21" transform="matrix(12,0,0,12,355.7,629)" />
<use xlink:href="#f3_2c" transform="matrix(12,0,0,12,368.5,629)" />
<use xlink:href="#f3_2e" transform="matrix(12,0,0,12,377.7,629)" />
<use xlink:href="#f3_21" transform="matrix(12,0,0,12,383.9,629)" />
<use xlink:href="#f3_2f" transform="matrix(12,0,0,12,392,629)" />
<use xlink:href="#f3_21" transform="matrix(12,0,0,12,398.9,629)" />
<use xlink:href="#f3_2a" transform="matrix(12,0,0,12,407.3,629)" />
<use xlink:href="#f3_1z" transform="matrix(12,0,0,12,416.1,629)" />
<use xlink:href="#f3_21" transform="matrix(12,0,0,12,424.6,629)" />
<use xlink:href="#f3_2b" transform="matrix(12,0,0,12,437.4,629)" />
<use xlink:href="#f3_22" transform="matrix(12,0,0,12,446.9,629)" />
<use xlink:href="#f3_1x" transform="matrix(12,0,0,12,457.1,629)" />
<use xlink:href="#f3_1z" transform="matrix(12,0,0,12,465.2,629)" />
<use xlink:href="#f3_21" transform="matrix(12,0,0,12,473.3,629)" />
<use xlink:href="#f3_2g" transform="matrix(12,0,0,12,481.3,629)" />
<use xlink:href="#f3_2b" transform="matrix(12,0,0,12,486.4,629)" />
<use xlink:href="#f3_2a" transform="matrix(12,0,0,12,496,629)" />
<use xlink:href="#f3_21" transform="matrix(12,0,0,12,504.8,629)" />
<use xlink:href="#f3_g" transform="matrix(12,0,0,12,512.9,629)" />
<use xlink:href="#f3_c" transform="matrix(12,0,0,12,55,651.7)" />
<use xlink:href="#f3_25" transform="matrix(12,0,0,12,61.6,651.7)" />
<use xlink:href="#f3_25" transform="matrix(12,0,0,12,66.4,651.7)" />
<use xlink:href="#f3_d" transform="matrix(12,0,0,12,70.8,651.7)" />
<use xlink:href="#f3_1z" transform="matrix(12,0,0,12,81.7,651.7)" />
<use xlink:href="#f3_24" transform="matrix(12,0,0,12,90.2,651.7)" />
<use xlink:href="#f3_28" transform="matrix(12,0,0,12,99.3,651.7)" />
<use xlink:href="#f3_2b" transform="matrix(12,0,0,12,103.7,651.7)" />
<use xlink:href="#f3_2e" transform="matrix(12,0,0,12,113.2,651.7)" />
<use xlink:href="#f3_2b" transform="matrix(12,0,0,12,119.5,651.7)" />
<use xlink:href="#f3_1y" transform="matrix(12,0,0,12,129,651.7)" />
<use xlink:href="#f3_21" transform="matrix(12,0,0,12,137.8,651.7)" />
<use xlink:href="#f3_2a" transform="matrix(12,0,0,12,145.8,651.7)" />
<use xlink:href="#f3_2m" transform="matrix(12,0,0,12,155,651.7)" />
<use xlink:href="#f3_21" transform="matrix(12,0,0,12,163.1,651.7)" />
<use xlink:href="#f3_2a" transform="matrix(12,0,0,12,171.5,651.7)" />
<use xlink:href="#f3_21" transform="matrix(12,0,0,12,180.3,651.7)" />
<use xlink:href="#f3_25" transform="matrix(12,0,0,12,193.5,651.7)" />
<use xlink:href="#f3_2f" transform="matrix(12,0,0,12,198.2,651.7)" />
<use xlink:href="#f3_2g" transform="matrix(12,0,0,12,210,651.7)" />
<use xlink:href="#f3_2e" transform="matrix(12,0,0,12,215.4,651.7)" />
<use xlink:href="#f3_21" transform="matrix(12,0,0,12,221.6,651.7)" />
<use xlink:href="#f3_1x" transform="matrix(12,0,0,12,229.7,651.7)" />
<use xlink:href="#f3_2g" transform="matrix(12,0,0,12,237.4,651.7)" />
<use xlink:href="#f3_21" transform="matrix(12,0,0,12,242.9,651.7)" />
<use xlink:href="#f3_20" transform="matrix(12,0,0,12,251,651.7)" />
<use xlink:href="#f3_2j" transform="matrix(12,0,0,12,264.9,651.7)" />
<use xlink:href="#f3_25" transform="matrix(12,0,0,12,278.1,651.7)" />
<use xlink:href="#f3_2g" transform="matrix(12,0,0,12,282.5,651.7)" />
<use xlink:href="#f3_24" transform="matrix(12,0,0,12,288,651.7)" />
<use xlink:href="#f3_1e" transform="matrix(12,0,0,12,301.5,651.7)" />
<use xlink:href="#f3_1x" transform="matrix(12,0,0,12,314.7,651.7)" />
<use xlink:href="#f3_29" transform="matrix(12,0,0,12,327.9,651.7)" />
<use xlink:href="#f3_21" transform="matrix(12,0,0,12,341.5,651.7)" />
<use xlink:href="#f3_2g" transform="matrix(12,0,0,12,349.5,651.7)" />
<use xlink:href="#f3_1x" transform="matrix(12,0,0,12,355,651.7)" />
<use xlink:href="#f3_28" transform="matrix(12,0,0,12,363.4,651.7)" />
<use xlink:href="#f3_25" transform="matrix(12,0,0,12,372.9,651.7)" />
<use xlink:href="#f3_2a" transform="matrix(12,0,0,12,377.7,651.7)" />
<use xlink:href="#f3_2g" transform="matrix(12,0,0,12,391.3,651.7)" />
<use xlink:href="#f3_24" transform="matrix(12,0,0,12,396.7,651.7)" />
<use xlink:href="#f3_21" transform="matrix(12,0,0,12,405.5,651.7)" />
<use xlink:href="#f3_2c" transform="matrix(12,0,0,12,418.3,651.7)" />
<use xlink:href="#f3_2e" transform="matrix(12,0,0,12,427.9,651.7)" />
<use xlink:href="#f3_21" transform="matrix(12,0,0,12,434.1,651.7)" />
<use xlink:href="#f3_2f" transform="matrix(12,0,0,12,442.1,651.7)" />
<use xlink:href="#f3_21" transform="matrix(12,0,0,12,449.1,651.7)" />
<use xlink:href="#f3_2a" transform="matrix(12,0,0,12,457.2,651.7)" />
<use xlink:href="#f3_1z" transform="matrix(12,0,0,12,466.3,651.7)" />
<use xlink:href="#f3_21" transform="matrix(12,0,0,12,474.4,651.7)" />
<use xlink:href="#f3_2b" transform="matrix(12,0,0,12,487.2,651.7)" />
<use xlink:href="#f3_22" transform="matrix(12,0,0,12,496.7,651.7)" />
<use xlink:href="#f3_20" transform="matrix(12,0,0,12,507,651.7)" />
<use xlink:href="#f3_2e" transform="matrix(12,0,0,12,516.2,651.7)" />
<use xlink:href="#f3_2l" transform="matrix(12,0,0,12,522.7,651.7)" />
<use xlink:href="#f3_2b" transform="matrix(12,0,0,12,535.9,651.7)" />
<use xlink:href="#f3_2g" transform="matrix(12,0,0,12,545.4,651.7)" />
<use xlink:href="#f3_24" transform="matrix(12,0,0,12,550.9,651.7)" />
<use xlink:href="#f3_21" transform="matrix(12,0,0,12,559.7,651.7)" />
<use xlink:href="#f3_2e" transform="matrix(12,0,0,12,567.8,651.7)" />
<use xlink:href="#f3_c" transform="matrix(12,0,0,12,55,674.5)" />
<use xlink:href="#f3_25" transform="matrix(12,0,0,12,61.6,674.5)" />
<use xlink:href="#f3_25" transform="matrix(12,0,0,12,66.4,674.5)" />
<use xlink:href="#f3_25" transform="matrix(12,0,0,12,71.2,674.5)" />
<use xlink:href="#f3_d" transform="matrix(12,0,0,12,75.9,674.5)" />
<use xlink:href="#f3_29" transform="matrix(12,0,0,12,87.2,674.5)" />
<use xlink:href="#f3_21" transform="matrix(12,0,0,12,101.2,674.5)" />
<use xlink:href="#f3_2g" transform="matrix(12,0,0,12,109.2,674.5)" />
<use xlink:href="#f3_24" transform="matrix(12,0,0,12,114.7,674.5)" />
<use xlink:href="#f3_2l" transform="matrix(12,0,0,12,123.9,674.5)" />
<use xlink:href="#f3_28" transform="matrix(12,0,0,12,132.7,674.5)" />
<use xlink:href="#f3_1z" transform="matrix(12,0,0,12,142.2,674.5)" />
<use xlink:href="#f3_24" transform="matrix(12,0,0,12,150.6,674.5)" />
<use xlink:href="#f3_28" transform="matrix(12,0,0,12,159.8,674.5)" />
<use xlink:href="#f3_2b" transform="matrix(12,0,0,12,164.2,674.5)" />
<use xlink:href="#f3_2e" transform="matrix(12,0,0,12,173.7,674.5)" />
<use xlink:href="#f3_25" transform="matrix(12,0,0,12,180.3,674.5)" />
<use xlink:href="#f3_20" transform="matrix(12,0,0,12,184.7,674.5)" />
<use xlink:href="#f3_21" transform="matrix(12,0,0,12,194.2,674.5)" />
<use xlink:href="#f3_25" transform="matrix(12,0,0,12,207.4,674.5)" />
<use xlink:href="#f3_2f" transform="matrix(12,0,0,12,211.8,674.5)" />
<use xlink:href="#f3_2g" transform="matrix(12,0,0,12,223.5,674.5)" />
<use xlink:href="#f3_2e" transform="matrix(12,0,0,12,229,674.5)" />
<use xlink:href="#f3_21" transform="matrix(12,0,0,12,235.2,674.5)" />
<use xlink:href="#f3_1x" transform="matrix(12,0,0,12,243.3,674.5)" />
<use xlink:href="#f3_2g" transform="matrix(12,0,0,12,251.3,674.5)" />
<use xlink:href="#f3_21" transform="matrix(12,0,0,12,256.8,674.5)" />
<use xlink:href="#f3_20" transform="matrix(12,0,0,12,264.9,674.5)" />
<use xlink:href="#f3_2j" transform="matrix(12,0,0,12,278.4,674.5)" />
<use xlink:href="#f3_25" transform="matrix(12,0,0,12,291.7,674.5)" />
<use xlink:href="#f3_2g" transform="matrix(12,0,0,12,296,674.5)" />
<use xlink:href="#f3_24" transform="matrix(12,0,0,12,301.5,674.5)" />
<use xlink:href="#f3_1b" transform="matrix(12,0,0,12,315.4,674.5)" />
<use xlink:href="#f3_1e" transform="matrix(12,0,0,12,328.3,674.5)" />
<use xlink:href="#f3_1f" transform="matrix(12,0,0,12,341.5,674.5)" />
<use xlink:href="#f3_m" transform="matrix(7.9,0,0,7.9,355.1,675.9)" />
<use xlink:href="#f3_z" transform="matrix(12,0,0,12,366.1,674.5)" />
<use xlink:href="#f3_1n" transform="matrix(12,0,0,12,378.9,674.5)" />
<use xlink:href="#f3_2e" transform="matrix(12,0,0,12,395.8,674.5)" />
<use xlink:href="#f3_25" transform="matrix(12,0,0,12,402.3,674.5)" />
<use xlink:href="#f3_2g" transform="matrix(12,0,0,12,406.7,674.5)" />
<use xlink:href="#f3_21" transform="matrix(12,0,0,12,412.2,674.5)" />
<use xlink:href="#f3_1z" transform="matrix(12,0,0,12,425,674.5)" />
<use xlink:href="#f3_24" transform="matrix(12,0,0,12,433.1,674.5)" />
<use xlink:href="#f3_21" transform="matrix(12,0,0,12,441.9,674.5)" />
<use xlink:href="#f3_29" transform="matrix(12,0,0,12,450.3,674.5)" />
<use xlink:href="#f3_25" transform="matrix(12,0,0,12,464.6,674.5)" />
<use xlink:href="#f3_1z" transform="matrix(12,0,0,12,469.4,674.5)" />
<use xlink:href="#f3_1x" transform="matrix(12,0,0,12,477.8,674.5)" />
<use xlink:href="#f3_28" transform="matrix(12,0,0,12,486.2,674.5)" />
<use xlink:href="#f3_21" transform="matrix(12,0,0,12,495.4,674.5)" />
<use xlink:href="#f3_2d" transform="matrix(12,0,0,12,503.4,674.5)" />
<use xlink:href="#f3_2h" transform="matrix(12,0,0,12,512.6,674.5)" />
<use xlink:href="#f3_1x" transform="matrix(12,0,0,12,521.8,674.5)" />
<use xlink:href="#f3_2g" transform="matrix(12,0,0,12,529.8,674.5)" />
<use xlink:href="#f3_25" transform="matrix(12,0,0,12,535.7,674.5)" />
<use xlink:href="#f3_2b" transform="matrix(12,0,0,12,540.1,674.5)" />
<use xlink:href="#f3_2a" transform="matrix(12,0,0,12,549.6,674.5)" />
<use xlink:href="#f3_2f" transform="matrix(12,0,0,12,558.8,674.5)" />
<use xlink:href="#f3_25" transform="matrix(12,0,0,12,570.9,674.5)" />
<use xlink:href="#f3_2a" transform="matrix(12,0,0,12,575.6,674.5)" />
<use xlink:href="#f3_2f" transform="matrix(12,0,0,12,589.2,674.5)" />
<use xlink:href="#f3_2h" transform="matrix(12,0,0,12,596.1,674.5)" />
<use xlink:href="#f3_2c" transform="matrix(12,0,0,12,605.3,674.5)" />
<use xlink:href="#f3_2c" transform="matrix(12,0,0,12,614.5,674.5)" />
<use xlink:href="#f3_2b" transform="matrix(12,0,0,12,623.6,674.5)" />
<use xlink:href="#f3_2e" transform="matrix(12,0,0,12,633.1,674.5)" />
<use xlink:href="#f3_2g" transform="matrix(12,0,0,12,639,674.5)" />
<use xlink:href="#f3_2b" transform="matrix(12,0,0,12,648.9,674.5)" />
<use xlink:href="#f3_22" transform="matrix(12,0,0,12,658.4,674.5)" />
<use xlink:href="#f3_2l" transform="matrix(12,0,0,12,669,674.5)" />
<use xlink:href="#f3_2b" transform="matrix(12,0,0,12,677.5,674.5)" />
<use xlink:href="#f3_2h" transform="matrix(12,0,0,12,687,674.5)" />
<use xlink:href="#f3_2e" transform="matrix(12,0,0,12,696.1,674.5)" />
<use xlink:href="#f3_1x" transform="matrix(12,0,0,12,707.1,674.5)" />
<use xlink:href="#f3_2a" transform="matrix(12,0,0,12,715.2,674.5)" />
<use xlink:href="#f3_2f" transform="matrix(12,0,0,12,724,674.5)" />
<use xlink:href="#f3_2j" transform="matrix(12,0,0,12,730.9,674.5)" />
<use xlink:href="#f3_21" transform="matrix(12,0,0,12,744.2,674.5)" />
<use xlink:href="#f3_2e" transform="matrix(12,0,0,12,752.2,674.5)" />
<use xlink:href="#f3_i" transform="matrix(12,0,0,12,758.4,674.5)" />
<use xlink:href="#f2_11" transform="matrix(12,0,0,12,55,697.2)" />
<use xlink:href="#f2_2a" transform="matrix(12,0,0,12,68.3,697.2)" />
<use xlink:href="#f2_2f" transform="matrix(12,0,0,12,78.5,697.2)" />
<use xlink:href="#f2_2j" transform="matrix(12,0,0,12,85.5,697.2)" />
<use xlink:href="#f2_21" transform="matrix(12,0,0,12,98.7,697.2)" />
<use xlink:href="#f2_2e" transform="matrix(12,0,0,12,107.1,697.2)" />
<use xlink:href="#f2_u" transform="matrix(12,0,0,12,114.8,697.2)" />
<use xlink:href="#f2_1f" transform="matrix(12,0,0,12,458.2,1075.7)" />
<use xlink:href="#f2_1i" transform="matrix(12,0,0,12,472.5,1075.7)" />
<use xlink:href="#f3_c" transform="matrix(12,0,0,12,55,1109.8)" />
<use xlink:href="#f3_25" transform="matrix(12,0,0,12,61.6,1109.8)" />
<use xlink:href="#f3_d" transform="matrix(12,0,0,12,66,1109.8)" />
</g>
<g clip-path="url(#c0_98)">
<g fill="#000000" >
<use xlink:href="#f3_m" transform="matrix(7.5,0,0,7,91.7,1105.5)" />
<use xlink:href="#f3_p" transform="matrix(7.5,0,0,7,112.7,1105.5)" />
<use xlink:href="#f3_m" transform="matrix(7.5,0,0,7,289.2,1105.5)" />
<use xlink:href="#f3_p" transform="matrix(7.5,0,0,7,310.3,1105.5)" />
<use xlink:href="#f4_1x" transform="matrix(7.5,0,0,7,223.7,1092.6)" />
<use xlink:href="#f4_1z" transform="matrix(7.5,0,0,7,229,1092.6)" />
<use xlink:href="#f4_21" transform="matrix(7.5,0,0,7,233.6,1092.6)" />
<use xlink:href="#f4_2g" transform="matrix(7.5,0,0,7,238.2,1092.6)" />
<use xlink:href="#f4_2b" transform="matrix(7.5,0,0,7,241.2,1092.6)" />
<use xlink:href="#f4_2a" transform="matrix(7.5,0,0,7,246.5,1092.6)" />
<use xlink:href="#f4_21" transform="matrix(7.5,0,0,7,251.7,1092.6)" />
<use xlink:href="#f4_13" transform="matrix(13,0,0,12.1,79.4,1100.9)" />
<use xlink:href="#f4_18" transform="matrix(13,0,0,12.1,98.5,1100.9)" />
<use xlink:href="#f4_13" transform="matrix(13,0,0,12.1,135.4,1100.9)" />
<use xlink:href="#f4_28" transform="matrix(13,0,0,12.1,147.7,1100.9)" />
<use xlink:href="#f4_1e" transform="matrix(13,0,0,12.1,171.1,1100.9)" />
<use xlink:href="#f4_1x" transform="matrix(13,0,0,12.1,183.4,1100.9)" />
<use xlink:href="#f4_28" transform="matrix(13,0,0,12.1,196.6,1100.9)" />
<use xlink:href="#f4_13" transform="matrix(13,0,0,12.1,276.9,1100.9)" />
<use xlink:href="#f4_18" transform="matrix(13,0,0,12.1,296,1100.9)" />
<use xlink:href="#f4_28" transform="matrix(13,0,0,12.1,332.9,1100.9)" />
<use xlink:href="#f4_1e" transform="matrix(13,0,0,12.1,356.4,1100.9)" />
<use xlink:href="#f4_1x" transform="matrix(13,0,0,12.1,368.7,1100.9)" />
<use xlink:href="#f4_13" transform="matrix(13,0,0,12.1,377.8,1100.9)" />
<use xlink:href="#f4_28" transform="matrix(13,0,0,12.1,390.1,1100.9)" />
<use xlink:href="#f5_h" transform="matrix(13,0,0,12.1,122.8,1100.9)" />
<use xlink:href="#f5_f" transform="matrix(13,0,0,12.1,156.8,1100.9)" />
<use xlink:href="#f5_3k" transform="matrix(13,0,0,12.1,206.3,1100.9)" />
<use xlink:href="#f5_3k" transform="matrix(13,0,0,12.1,224.8,1100.9)" />
<use xlink:href="#f5_3k" transform="matrix(13,0,0,12.1,244.1,1100.9)" />
<use xlink:href="#f5_34" transform="matrix(13,0,0,12.1,257.2,1100.9)" />
<use xlink:href="#f5_h" transform="matrix(13,0,0,12.1,320.3,1100.9)" />
<use xlink:href="#f5_f" transform="matrix(13,0,0,12.1,342,1100.9)" />
</g>
</g>
<g fill="#000000" >
<use xlink:href="#f3_c" transform="matrix(12,0,0,12,55,1135.1)" />
<use xlink:href="#f3_25" transform="matrix(12,0,0,12,61.6,1135.1)" />
<use xlink:href="#f3_25" transform="matrix(12,0,0,12,66.4,1135.1)" />
<use xlink:href="#f3_d" transform="matrix(12,0,0,12,70.8,1135.1)" />
</g>
<g clip-path="url(#c1_98)">
<g fill="#000000" >
<use xlink:href="#f3_q" transform="matrix(7.5,0,0,7,101.4,1140)" />
<use xlink:href="#f3_p" transform="matrix(7.5,0,0,7,122.4,1140)" />
<use xlink:href="#f3_q" transform="matrix(7.5,0,0,7,301.8,1140)" />
<use xlink:href="#f3_p" transform="matrix(7.5,0,0,7,322.8,1140)" />
<use xlink:href="#f3_q" transform="matrix(7.5,0,0,7,357.6,1140)" />
<use xlink:href="#f3_p" transform="matrix(7.5,0,0,7,378.6,1140)" />
<use xlink:href="#f3_m" transform="matrix(13,0,0,12.1,80.3,1135.3)" />
<use xlink:href="#f3_m" transform="matrix(13,0,0,12.1,179.9,1135.3)" />
<use xlink:href="#f3_m" transform="matrix(13,0,0,12.1,402.2,1135.3)" />
<use xlink:href="#f4_20" transform="matrix(7.5,0,0,7,233,1127.1)" />
<use xlink:href="#f4_2e" transform="matrix(7.5,0,0,7,238.2,1127.1)" />
<use xlink:href="#f4_2l" transform="matrix(7.5,0,0,7,242.4,1127.1)" />
<use xlink:href="#f4_21" transform="matrix(7.5,0,0,7,247,1127.1)" />
<use xlink:href="#f4_2g" transform="matrix(7.5,0,0,7,251.6,1127.1)" />
<use xlink:href="#f4_24" transform="matrix(7.5,0,0,7,254.6,1127.1)" />
<use xlink:href="#f4_21" transform="matrix(7.5,0,0,7,259.9,1127.1)" />
<use xlink:href="#f4_2e" transform="matrix(7.5,0,0,7,264.5,1127.1)" />
<use xlink:href="#f4_13" transform="matrix(13,0,0,12.1,89.2,1135.3)" />
<use xlink:href="#f4_18" transform="matrix(13,0,0,12.1,108.1,1135.3)" />
<use xlink:href="#f4_13" transform="matrix(13,0,0,12.1,145,1135.3)" />
<use xlink:href="#f4_28" transform="matrix(13,0,0,12.1,157.3,1135.3)" />
<use xlink:href="#f4_1e" transform="matrix(13,0,0,12.1,190.2,1135.3)" />
<use xlink:href="#f4_1x" transform="matrix(13,0,0,12.1,202.5,1135.3)" />
<use xlink:href="#f4_13" transform="matrix(13,0,0,12.1,289.7,1135.3)" />
<use xlink:href="#f4_18" transform="matrix(13,0,0,12.1,308.6,1135.3)" />
<use xlink:href="#f4_13" transform="matrix(13,0,0,12.1,345.5,1135.3)" />
<use xlink:href="#f4_18" transform="matrix(13,0,0,12.1,364.4,1135.3)" />
<use xlink:href="#f4_1e" transform="matrix(13,0,0,12.1,412.4,1135.3)" />
<use xlink:href="#f4_1x" transform="matrix(13,0,0,12.1,424.7,1135.3)" />
<use xlink:href="#f4_13" transform="matrix(13,0,0,12.1,433.9,1135.3)" />
<use xlink:href="#f4_28" transform="matrix(13,0,0,12.1,446.2,1135.3)" />
<use xlink:href="#f5_h" transform="matrix(13,0,0,12.1,132.4,1135.3)" />
<use xlink:href="#f5_f" transform="matrix(13,0,0,12.1,166.4,1135.3)" />
<use xlink:href="#f5_3k" transform="matrix(13,0,0,12.1,215.6,1135.3)" />
<use xlink:href="#f5_3k" transform="matrix(13,0,0,12.1,234.1,1135.3)" />
<use xlink:href="#f5_3k" transform="matrix(13,0,0,12.1,253.4,1135.3)" />
<use xlink:href="#f5_34" transform="matrix(13,0,0,12.1,269.9,1135.3)" />
<use xlink:href="#f5_h" transform="matrix(13,0,0,12.1,332.8,1135.3)" />
<use xlink:href="#f5_f" transform="matrix(13,0,0,12.1,388.7,1135.3)" />
</g>
</g>
<g fill="#000000" >
<use xlink:href="#f3_c" transform="matrix(12,0,0,12,82.9,1164.9)" />
<use xlink:href="#f3_25" transform="matrix(12,0,0,12,89.1,1164.9)" />
<use xlink:href="#f3_25" transform="matrix(12,0,0,12,93.9,1164.9)" />
<use xlink:href="#f3_25" transform="matrix(12,0,0,12,98.7,1164.9)" />
<use xlink:href="#f3_d" transform="matrix(12,0,0,12,103.4,1164.9)" />
</g>
<g clip-path="url(#c2_98)">
<g fill="#000000" >
<use xlink:href="#f3_n" transform="matrix(7.5,0,0,7.2,139,1169.6)" />
<use xlink:href="#f3_m" transform="matrix(7.5,0,0,7.2,234.1,1169.6)" />
<use xlink:href="#f3_n" transform="matrix(7.5,0,0,7.2,313.8,1169.6)" />
<use xlink:href="#f4_13" transform="matrix(13,0,0,12.4,112.4,1164.7)" />
<use xlink:href="#f4_18" transform="matrix(13,0,0,12.4,124.7,1164.7)" />
<use xlink:href="#f4_13" transform="matrix(13,0,0,12.4,161.4,1164.7)" />
<use xlink:href="#f4_28" transform="matrix(13,0,0,12.4,173.7,1164.7)" />
<use xlink:href="#f4_1b" transform="matrix(13,0,0,12.4,196.9,1164.7)" />
<use xlink:href="#f4_1e" transform="matrix(13,0,0,12.4,209.2,1164.7)" />
<use xlink:href="#f4_1f" transform="matrix(13,0,0,12.4,221.6,1164.7)" />
<use xlink:href="#f4_13" transform="matrix(13,0,0,12.4,287.3,1164.7)" />
<use xlink:href="#f4_18" transform="matrix(13,0,0,12.4,299.6,1164.7)" />
<use xlink:href="#f4_1f" transform="matrix(13,0,0,12.4,336.3,1164.7)" />
<use xlink:href="#f4_1e" transform="matrix(13,0,0,12.4,349.5,1164.7)" />
<use xlink:href="#f4_1f" transform="matrix(13,0,0,12.4,361.8,1164.7)" />
<use xlink:href="#f4_1b" transform="matrix(13,0,0,12.4,392.4,1164.7)" />
<use xlink:href="#f4_13" transform="matrix(13,0,0,12.4,404.8,1164.7)" />
<use xlink:href="#f4_28" transform="matrix(13,0,0,12.4,417.1,1164.7)" />
<use xlink:href="#f5_h" transform="matrix(13,0,0,12.4,148.8,1164.7)" />
<use xlink:href="#f5_f" transform="matrix(13,0,0,12.4,182.9,1164.7)" />
<use xlink:href="#f5_3k" transform="matrix(13,0,0,12.4,244.9,1164.7)" />
<use xlink:href="#f5_3k" transform="matrix(13,0,0,12.4,263.4,1164.7)" />
<use xlink:href="#f5_34" transform="matrix(13,0,0,12.4,267.5,1164.7)" />
<use xlink:href="#f5_h" transform="matrix(13,0,0,12.4,323.7,1164.7)" />
<use xlink:href="#f5_f" transform="matrix(13,0,0,12.4,378.4,1164.7)" />
</g>
</g>
<image preserveAspectRatio="none" x="57" y="172" width="200" height="84" xlink:href="img/6.png" />
<image preserveAspectRatio="none" x="57" y="715" width="337" height="105" xlink:href="img/7.png" />
<image preserveAspectRatio="none" x="57" y="822" width="326" height="133" xlink:href="img/8.png" />
<image preserveAspectRatio="none" x="57" y="979" width="400" height="96" xlink:href="img/9.png" />
<path fill-rule="evenodd" d="M37.4,38.1h.7v-.7h-.7v.7Z" class="g2_98" />
<path fill-rule="evenodd" d="M37.4,38.1h.7v-.7h-.7v.7Z" class="g2_98" />
<path fill-rule="evenodd" d="M38.1,38.1H871.5v-.7H38.1v.7Z" class="g2_98" />
<path fill-rule="evenodd" d="M871.5,38.1h.8v-.7h-.8v.7Z" class="g2_98" />
<path fill-rule="evenodd" d="M871.5,38.1h.8v-.7h-.8v.7Z" class="g2_98" />
<path fill-rule="evenodd" d="M37.4,1248.5h.7V38.1h-.7V1248.5Z" class="g2_98" />
<path fill-rule="evenodd" d="M872.3,1248.5h.7V38.1h-.7V1248.5Z" class="g2_98" />
<path fill-rule="evenodd" d="M871.5,1248.5h.8V38.1h-.8V1248.5Z" class="g2_98" />
<path fill-rule="evenodd" d="M37.4,1249.2h.7v-.7h-.7v.7Z" class="g2_98" />
<path fill-rule="evenodd" d="M37.4,1249.2h.7v-.7h-.7v.7Z" class="g2_98" />
<path fill-rule="evenodd" d="M38.1,1249.9H871.5v-.7H38.1v.7Z" class="g2_98" />
<path fill-rule="evenodd" d="M38.1,1249.2H871.5v-.7H38.1v.7Z" class="g2_98" />
<path fill-rule="evenodd" d="M872.3,1249.9h.7v-1.4h-.7v1.4Z" class="g2_98" />
<path fill-rule="evenodd" d="M871.5,1249.9H873v-.7h-1.5v.7Z" class="g2_98" />
<path fill-rule="evenodd" d="M871.5,1249.2h.8v-.7h-.8v.7Z" class="g2_98" />
<path fill-rule="evenodd" d="M871.5,1249.2h.8v-.7h-.8v.7Z" class="g2_98" />
<defs>
<path d="M489,-15c0,0,-99,0,-179,30c0,0,-80,30,-136,91c0,0,-56,61,-85,152c0,0,-30,91,-30,212c0,0,0,123,32,218c0,0,33,96,92,161c0,0,59,65,142,98c0,0,82,34,181,34c0,0,40,0,78,-7c0,0,37,-7,69,-18c0,0,31,-11,57,-25c0,0,25,-14,35,-24c0,0,10,-10,14,-17c0,0,4,-7,6,-17c0,0,2,-11,3,-25c0,0,2,-14,2,-35c0,0,0,-22,-2,-38c0,0,-1,-15,-5,-25c0,0,-4,-10,-9,-14c0,0,-5,-5,-12,-5c0,0,-11,0,-28,13c0,0,-18,13,-45,29c0,0,-27,16,-65,29c0,0,-37,13,-89,13c0,0,-58,0,-103,-23c0,0,-45,-23,-77,-67c0,0,-31,-44,-48,-106c0,0,-16,-61,-16,-139c0,0,0,-85,17,-147c0,0,18,-62,50,-103c0,0,33,-40,79,-60c0,0,45,-19,103,-19c0,0,52,0,90,12c0,0,38,12,65,27c0,0,27,15,45,27c0,0,17,12,27,12c0,0,8,0,12,-3c0,0,4,-3,7,-12c0,0,3,-9,5,-25c0,0,1,-16,1,-43c0,0,0,-18,-1,-31c0,0,-1,-14,-3,-23c0,0,-2,-9,-6,-16c0,0,-4,-7,-12,-15c0,0,-8,-9,-32,-22c0,0,-23,-14,-57,-26C661,13,627,1,583,-6c0,0,-43,-9,-94,-9Z" 
id="f0_j"
transform="scale(0.001,-0.001)" />

<path d="M440,150c0,0,41,0,68,8c0,0,28,9,49,26c0,0,20,16,32,41c0,0,11,25,11,58c0,0,0,33,-11,60c0,0,-11,26,-33,44c0,0,-21,18,-55,28c0,0,-33,9,-87,9H298V150ZM407,567c0,0,42,0,68,10c0,0,25,10,42,28c0,0,16,17,24,41c0,0,9,24,9,50c0,0,0,29,-9,52c0,0,-9,23,-27,39c0,0,-18,15,-45,23c0,0,-27,8,-72,8H298V567ZM164,0c0,0,-25,0,-42,15c0,0,-16,14,-16,47V903c0,0,0,33,16,48c0,0,17,14,42,14H406c0,0,88,0,150,-15c0,0,61,-15,103,-45c0,0,42,-30,65,-77c0,0,22,-46,22,-108c0,0,0,-36,-9,-67c0,0,-9,-31,-26,-56c0,0,-17,-25,-42,-45c0,0,-25,-19,-57,-31c0,0,41,-7,76,-26c0,0,34,-19,60,-48c0,0,26,-30,41,-69c0,0,15,-40,15,-89c0,0,0,-51,-14,-93c0,0,-15,-42,-40,-74c0,0,-25,-32,-59,-55c0,0,-35,-23,-77,-38C614,29,573,14,525,7C525,7,478,0,420,0Z" 
id="f0_i"
transform="scale(0.001,-0.001)" />

<path d="M320,-17c0,0,-50,0,-93,9c0,0,-43,8,-76,19c0,0,-32,11,-54,24C97,35,75,48,65,58c0,0,-10,9,-14,28c0,0,-4,18,-4,52c0,0,0,23,1,39c0,0,2,15,5,25c0,0,4,10,9,14c0,0,6,4,13,4c0,0,11,0,30,-12c0,0,19,-13,49,-28c0,0,30,-15,71,-27c0,0,42,-12,96,-12c0,0,36,0,64,8c0,0,29,9,49,25c0,0,19,15,30,38c0,0,10,23,10,52c0,0,0,33,-18,56c0,0,-18,24,-46,42c0,0,-29,18,-66,34c0,0,-36,16,-75,34c0,0,-39,18,-76,41c0,0,-36,23,-65,54c0,0,-29,32,-47,75c0,0,-17,44,-17,104c0,0,0,70,25,122c0,0,26,53,70,88c0,0,43,34,103,51c0,0,59,18,125,18c0,0,35,0,69,-6c0,0,34,-5,64,-14c0,0,30,-9,53,-20c0,0,23,-11,31,-18c0,0,7,-8,10,-13c0,0,3,-5,4,-14c0,0,2,-8,3,-21c0,0,1,-13,1,-33c0,0,0,-21,-1,-36c0,0,-1,-15,-4,-25c0,0,-3,-9,-7,-14c0,0,-5,-4,-14,-4c0,0,-8,0,-26,10c0,0,-18,10,-44,23c0,0,-26,12,-60,22c0,0,-34,10,-75,10c0,0,-32,0,-56,-8c0,0,-24,-8,-40,-21c0,0,-16,-14,-24,-34c0,0,-8,-19,-8,-41c0,0,0,-32,18,-56c0,0,17,-23,46,-42c0,0,30,-18,67,-34c0,0,38,-16,76,-34c0,0,39,-18,76,-41c0,0,38,-22,67,-54c0,0,29,-32,47,-75c0,0,18,-43,18,-101c0,0,0,-76,-29,-133c0,0,-28,-58,-77,-96C572,60,524,21,459,2c0,0,-65,-19,-139,-19Z" 
id="f0_2n"
transform="scale(0.001,-0.001)" />

<path d="M164,0c0,0,-25,0,-42,15c0,0,-16,14,-16,47V903c0,0,0,33,16,48c0,0,17,14,42,14H645c0,0,7,0,12,-4c0,0,5,-3,9,-13c0,0,4,-9,6,-24c0,0,2,-14,2,-36c0,0,0,-21,-2,-36c0,0,-2,-14,-6,-23c0,0,-4,-9,-9,-13c0,0,-5,-4,-12,-4H301V576H593c0,0,6,0,12,-4c0,0,6,-4,9,-13c0,0,4,-8,6,-23c0,0,2,-14,2,-35c0,0,0,-22,-2,-36c0,0,-2,-14,-6,-23c0,0,-3,-8,-9,-12c0,0,-6,-4,-12,-4H301V154H649c0,0,6,0,12,-5c0,0,5,-4,9,-13c0,0,4,-9,6,-23c0,0,2,-15,2,-36c0,0,0,-22,-2,-36c0,0,-2,-15,-6,-24c0,0,-4,-9,-9,-13c0,0,-6,-4,-12,-4Z" 
id="f0_t"
transform="scale(0.001,-0.001)" />

<path d="M79,297c0,0,-19,0,-27,18c0,0,-8,17,-8,60c0,0,0,41,8,59c0,0,8,17,27,17H389c0,0,9,0,15,-4c0,0,7,-4,11,-13c0,0,5,-9,7,-23c0,0,1,-15,1,-36c0,0,0,-43,-8,-61c0,0,-8,-17,-26,-17Z" 
id="f0_oj"
transform="scale(0.001,-0.001)" />

<path d="M121,-4c0,0,-39,0,-60,2C61,-2,39,0,32,8c0,0,-8,8,-3,24c0,0,4,15,18,41L279,495L64,892c0,0,-14,26,-19,42c0,0,-5,17,4,24c0,0,9,8,32,10c0,0,23,2,65,2c0,0,35,0,56,-2c0,0,20,-1,32,-4c0,0,12,-4,17,-10c0,0,5,-6,9,-15L431,620L595,939c0,0,5,9,10,15c0,0,5,6,16,10c0,0,10,3,29,4c0,0,19,2,53,2c0,0,37,0,59,-2c0,0,22,-2,30,-10c0,0,8,-8,4,-24c0,0,-4,-16,-17,-42L564,497L793,73c0,0,14,-26,18,-41c0,0,4,-16,-5,-24c0,0,-9,-8,-32,-10c0,0,-24,-2,-65,-2c0,0,-36,0,-56,2c0,0,-20,1,-31,3c0,0,-12,4,-17,10c0,0,-5,6,-9,15L414,374L233,26c0,0,-4,-9,-9,-15c0,0,-6,-6,-17,-10c0,0,-12,-2,-32,-3c0,0,-21,-2,-54,-2Z" 
id="f0_3e"
transform="scale(0.001,-0.001)" />

<path d="M204,-4c0,0,-28,0,-47,2c0,0,-19,2,-31,5c0,0,-11,4,-16,10c0,0,-4,6,-4,13V939c0,0,0,7,4,13c0,0,5,6,17,10c0,0,11,3,30,6c0,0,19,2,47,2c0,0,29,0,48,-2c0,0,18,-3,29,-6c0,0,11,-4,16,-10c0,0,5,-6,5,-13V26c0,0,0,-7,-5,-13c0,0,-5,-6,-16,-10c0,0,-11,-3,-29,-5c0,0,-19,-2,-48,-2Z" 
id="f0_1c"
transform="scale(0.001,-0.001)" />

<path d="M127,0c0,0,-16,0,-28,3C99,3,87,6,80,15c0,0,-8,8,-11,25c0,0,-3,16,-3,42c0,0,0,25,2,42c0,0,2,18,8,32c0,0,6,14,15,27c0,0,9,13,24,29L282,390c0,0,50,53,81,95c0,0,30,43,47,79c0,0,17,35,24,65c0,0,6,30,6,57c0,0,0,24,-8,46c0,0,-8,22,-23,39c0,0,-15,16,-38,25c0,0,-23,10,-55,10c0,0,-44,0,-78,-12c0,0,-33,-11,-59,-25c0,0,-26,-13,-43,-25c0,0,-17,-12,-27,-12c0,0,-7,0,-11,5c0,0,-5,4,-8,15c0,0,-3,10,-5,28c0,0,-2,17,-2,42c0,0,0,18,1,29c0,0,1,12,4,20c0,0,2,9,6,15c0,0,3,6,13,15c0,0,9,9,34,23c0,0,25,14,61,27c0,0,37,14,81,23c0,0,44,9,92,9c0,0,75,0,131,-19c0,0,57,-19,94,-53c0,0,37,-34,55,-81c0,0,19,-47,19,-100c0,0,0,-47,-9,-93c0,0,-9,-45,-37,-98c0,0,-29,-52,-80,-116c0,0,-52,-64,-136,-148L299,159H679c0,0,8,0,14,-4c0,0,6,-5,11,-14c0,0,4,-9,7,-25c0,0,2,-15,2,-36c0,0,0,-22,-2,-37c0,0,-2,-15,-6,-25c0,0,-3,-10,-9,-14c0,0,-6,-4,-14,-4Z" 
id="f0_rz"
transform="scale(0.001,-0.001)" />

<path d="M385,138c0,0,29,0,52,9c0,0,22,10,39,28c0,0,17,19,28,47c0,0,11,29,19,66c0,0,7,37,9,84c0,0,3,47,3,104c0,0,0,69,-4,122c0,0,-4,52,-11,91c0,0,-8,39,-20,66c0,0,-12,27,-28,43c0,0,-16,16,-37,22c0,0,-21,7,-47,7c0,0,-44,0,-73,-21c0,0,-28,-21,-45,-64c0,0,-17,-42,-24,-106c0,0,-6,-63,-6,-148c0,0,0,-103,8,-171c0,0,8,-67,26,-107c0,0,17,-40,45,-56c0,0,27,-16,66,-16ZM378,-17c0,0,-99,0,-164,33c0,0,-65,34,-103,98c0,0,-38,64,-54,156c0,0,-15,92,-15,209c0,0,0,115,19,208c0,0,19,94,61,160c0,0,42,65,110,101c0,0,68,35,165,35c0,0,99,0,164,-34c0,0,65,-34,103,-98c0,0,39,-64,53,-156c0,0,15,-92,15,-209c0,0,0,-115,-18,-209c0,0,-19,-93,-61,-159C653,118,611,53,543,17c0,0,-67,-34,-165,-34Z" 
id="f0_rx"
transform="scale(0.001,-0.001)" />

<path d="M142,0c0,0,-6,0,-12,4c0,0,-5,3,-9,12c0,0,-4,9,-6,23c0,0,-3,15,-3,36c0,0,0,21,2,36c0,0,2,14,6,23c0,0,4,9,10,13c0,0,5,5,12,5H322V779L166,693c0,0,-17,-8,-28,-10c0,0,-1,0,-3,0c-4,0,-10,1,-14,5c0,0,-6,6,-8,22c0,0,-2,15,-2,44c0,0,0,18,0,29c0,0,1,12,4,20c0,0,3,8,8,14c0,0,5,5,14,11L345,962c0,0,4,3,9,5c0,0,6,2,15,3c0,0,9,1,23,2c0,0,15,0,38,0c0,0,28,0,46,-1c0,0,17,-1,26,-4c0,0,9,-3,12,-7c0,0,3,-4,3,-11V152H675c0,0,7,0,12,-5c0,0,6,-4,10,-13c0,0,4,-9,6,-23c0,0,2,-15,2,-36c0,0,0,-21,-2,-36c0,0,-3,-14,-7,-23c0,0,-4,-9,-9,-12c0,0,-5,-4,-12,-4Z" 
id="f0_ry"
transform="scale(0.001,-0.001)" />

<path d="M326,-17c0,0,-45,0,-85,6c0,0,-41,5,-73,13c0,0,-32,8,-52,17c0,0,-21,8,-27,14c0,0,-6,6,-9,12c0,0,-3,7,-5,16c0,0,-2,10,-3,24c0,0,-1,14,-1,33c0,0,0,21,2,36c0,0,1,14,5,23c0,0,3,9,8,13c0,0,4,4,10,4c0,0,7,0,23,-9c0,0,15,-8,40,-19c0,0,25,-10,61,-19c0,0,36,-8,86,-8c0,0,43,0,78,9c0,0,36,9,60,29c0,0,25,19,38,49c0,0,14,30,14,72c0,0,0,36,-11,64c0,0,-12,28,-35,47c0,0,-24,19,-62,29c0,0,-38,10,-93,10c0,0,-43,0,-78,-5c0,0,-36,-4,-67,-4c0,0,-22,0,-31,11c0,0,-9,11,-9,40V909c0,0,0,30,11,43c0,0,12,13,37,13H615c0,0,6,0,12,-4c0,0,6,-5,10,-15c0,0,5,-9,6,-25c0,0,2,-16,2,-39c0,0,0,-45,-7,-65c0,0,-8,-20,-23,-20H272V590c0,0,26,3,52,4c0,0,25,0,54,0c0,0,78,0,139,-18c0,0,61,-18,102,-53c0,0,42,-36,63,-88c0,0,22,-53,22,-122c0,0,0,-79,-27,-140c0,0,-27,-62,-77,-104C600,69,550,27,481,5c0,0,-70,-22,-155,-22Z" 
id="f0_s2"
transform="scale(0.001,-0.001)" />

<path d="M589,371L453,782h-1L317,371ZM106,-4c0,0,-35,0,-54,2C52,-2,32,0,25,8c0,0,-7,9,-5,24c0,0,2,16,11,42L329,931c0,0,4,13,10,21c0,0,6,7,19,12c0,0,13,4,36,5c0,0,23,1,61,1c0,0,44,0,71,-1c0,0,26,-1,40,-5c0,0,15,-5,21,-13c0,0,6,-8,11,-22L896,73c0,0,9,-27,11,-43c0,0,3,-15,-6,-23c0,0,-8,-7,-29,-9c0,0,-21,-2,-57,-2c0,0,-38,0,-59,1c0,0,-22,1,-33,4c0,0,-11,3,-16,9c0,0,-4,6,-7,16L635,220H272L211,31c0,0,-2,-11,-7,-18c0,0,-5,-7,-16,-11c0,0,-11,-3,-31,-4c0,0,-19,-2,-51,-2Z" 
id="f0_5"
transform="scale(0.001,-0.001)" />

<path d="M198,-4c0,0,-27,0,-45,2c0,0,-18,2,-28,5c0,0,-11,4,-15,10c0,0,-4,6,-4,13V887c0,0,0,38,20,58c0,0,20,20,53,20H308c0,0,34,0,59,-6c0,0,24,-5,42,-18c0,0,18,-13,30,-35c0,0,12,-21,21,-52L669,279h3L889,852c0,0,9,32,21,53c0,0,11,22,27,35c0,0,15,14,36,19c0,0,21,6,48,6h132c0,0,21,0,35,-5c0,0,15,-5,24,-15c0,0,9,-11,14,-25c0,0,5,-15,5,-33V26c0,0,0,-7,-4,-13c0,0,-4,-6,-15,-10c0,0,-11,-3,-29,-5c0,0,-18,-2,-45,-2c0,0,-27,0,-45,2c0,0,-18,2,-28,5c0,0,-11,4,-15,10c0,0,-5,6,-5,13V813h-1L764,27c0,0,-3,-10,-10,-16c0,0,-6,-6,-18,-10c0,0,-12,-3,-29,-4c0,0,-18,-1,-44,-1c0,0,-25,0,-43,2c0,0,-18,2,-29,5c0,0,-12,4,-19,10c0,0,-6,6,-9,14L293,813h-2V26c0,0,0,-7,-4,-13c0,0,-4,-6,-15,-10c0,0,-11,-3,-29,-5c0,0,-17,-2,-45,-2Z" 
id="f0_1x"
transform="scale(0.001,-0.001)" />

<path d="M193,-4c0,0,-26,0,-43,2c0,0,-18,2,-27,6c0,0,-10,4,-14,10c0,0,-3,6,-3,13V895c0,0,0,35,20,53c0,0,21,17,50,17H282c0,0,28,0,47,-5c0,0,20,-5,35,-16c0,0,15,-11,29,-31c0,0,13,-20,27,-49L608,511c0,0,17,-32,33,-63c0,0,16,-31,31,-62c0,0,14,-31,29,-60c0,0,14,-30,27,-60h1c0,0,-2,52,-3,109c0,0,-1,57,-1,108V936c0,0,0,7,4,13c0,0,5,6,15,11c0,0,10,4,28,6c0,0,17,2,44,2c0,0,25,0,42,-2c0,0,17,-2,27,-6c0,0,9,-5,13,-11c0,0,4,-6,4,-13V68c0,0,0,-17,-6,-30c0,0,-6,-14,-17,-23C879,15,869,6,856,2c0,0,-14,-3,-28,-3H744c0,0,-26,0,-45,4c0,0,-19,5,-35,19c0,0,-16,14,-31,38c0,0,-15,23,-34,60L359,572c0,0,-21,40,-43,86c0,0,-21,47,-38,91h-2c0,0,3,-54,5,-107c0,0,2,-53,2,-110V27c0,0,0,-7,-5,-13c0,0,-4,-6,-14,-10c0,0,-10,-4,-27,-6c0,0,-17,-2,-44,-2Z" 
id="f0_1y"
transform="scale(0.001,-0.001)" />

<path d="M378,-4c0,0,-28,0,-47,2c0,0,-19,2,-31,5c0,0,-11,4,-16,10c0,0,-4,6,-4,13V805H38c0,0,-8,0,-13,4c0,0,-5,5,-9,14c0,0,-3,9,-5,25c0,0,-2,15,-2,37c0,0,0,22,2,38c0,0,2,15,5,25c0,0,4,9,9,13c0,0,5,4,13,4H718c0,0,7,0,12,-4c0,0,6,-4,10,-13c0,0,3,-10,5,-25c0,0,2,-16,2,-38c0,0,0,-22,-2,-37c0,0,-2,-16,-5,-25c0,0,-4,-9,-10,-14c0,0,-5,-4,-12,-4H476V26c0,0,0,-7,-5,-13c0,0,-5,-6,-16,-10c0,0,-11,-3,-30,-5c0,0,-19,-2,-47,-2Z" 
id="f0_2t"
transform="scale(0.001,-0.001)" />

<path d="M514,145c0,0,72,0,121,27c0,0,48,26,78,73c0,0,30,46,42,107c0,0,13,62,13,131c0,0,0,76,-12,139c0,0,-12,62,-41,106c0,0,-29,45,-76,69c0,0,-48,24,-120,24c0,0,-72,0,-120,-27c0,0,-49,-27,-79,-73c0,0,-29,-45,-42,-106c0,0,-12,-61,-12,-129c0,0,0,-79,12,-142c0,0,12,-63,40,-108c0,0,28,-44,76,-68c0,0,48,-23,120,-23ZM508,-17c0,0,-113,0,-196,29c0,0,-84,29,-140,90c0,0,-56,60,-84,154c0,0,-28,93,-28,221c0,0,0,117,29,210c0,0,30,94,89,160c0,0,59,65,146,101c0,0,87,35,202,35c0,0,110,0,194,-29c0,0,84,-30,140,-90c0,0,56,-60,85,-153c0,0,29,-92,29,-217c0,0,0,-120,-30,-215c0,0,-30,-95,-89,-161C855,118,796,52,709,17c0,0,-87,-34,-201,-34Z" 
id="f0_24"
transform="scale(0.001,-0.001)" />

<path d="M402,179c0,0,58,0,100,45c0,0,42,45,42,107c0,0,0,65,-41,108c0,0,-41,44,-101,44c0,0,-65,0,-110,-44c0,0,-45,-45,-45,-109c0,0,0,-64,45,-107c0,0,44,-44,110,-44ZM390,-11c0,0,-150,0,-247,94c0,0,-97,96,-97,243c0,0,0,106,48,217c0,0,49,111,108,194L356,952H605L372,631c0,0,48,9,88,9c0,0,123,0,212,-91c0,0,89,-92,89,-219c0,0,0,-148,-105,-245c0,0,-105,-96,-266,-96Z" 
id="f1_q"
transform="scale(0.001,-0.001)" />

<path d="M44,-281L425,1053H537L156,-281Z" 
id="f1_j"
transform="scale(0.001,-0.001)" />

<path d="M299,0V777H162l36,173H508V0Z" 
id="f1_l"
transform="scale(0.001,-0.001)" />

<path d="M75,0L400,413c0,0,71,91,101,149c0,0,30,58,30,109c0,0,0,55,-36,91c0,0,-36,36,-91,36c0,0,-63,0,-91,-45c0,0,-28,-46,-34,-142H67c0,0,0,173,102,268c0,0,102,95,253,95c0,0,140,0,229,-82c0,0,89,-82,89,-209c0,0,0,-125,-104,-276L580,324c0,0,-34,-50,-85,-114L468,178H740V0Z" 
id="f1_m"
transform="scale(0.001,-0.001)" />

<path d="M595,60c0,0,141,0,206,102c0,0,65,102,65,340c0,0,0,236,-65,335c0,0,-65,100,-206,100c0,0,-142,0,-207,-100c0,0,-66,-99,-66,-335c0,0,0,-239,66,-340c0,0,65,-102,207,-102ZM945,-246c0,0,-54,0,-96,10c0,0,-43,10,-79,31c0,0,-36,21,-71,56c0,0,-34,35,-113,135c0,0,-249,2,-380,132C206,118,75,250,75,501c0,0,0,510,520,510c0,0,256,0,387,-129c0,0,132,-130,132,-381c0,0,0,-370,-279,-477l37,-44c0,0,110,-138,188,-138c0,0,39,0,61,6v-64c0,0,-15,-7,-73,-19c0,0,-57,-11,-103,-11Z" 
id="f2_1h"
transform="scale(0.001,-0.001)" />

<path d="M122,0V64L295,82V837L123,780v64l282,165H511V82L685,64V0Z" 
id="f2_l"
transform="scale(0.001,-0.001)" />

<path d="M377,60c0,0,65,0,94,49c0,0,30,49,30,160c0,0,0,115,-30,168c0,0,-29,52,-94,52c0,0,-61,0,-88,-51c0,0,-26,-51,-26,-169c0,0,0,-115,27,-162c0,0,27,-47,87,-47Zm2,509c0,0,51,0,75,43c0,0,24,43,24,143c0,0,0,98,-24,142c0,0,-25,45,-75,45c0,0,-48,0,-71,-45c0,0,-22,-44,-22,-142c0,0,0,-102,22,-144c0,0,22,-42,71,-42ZM377,-14c0,0,-326,0,-326,284c0,0,0,95,46,162c0,0,46,68,128,98c0,0,-72,28,-112,85c0,0,-39,58,-39,141c0,0,0,123,81,191c0,0,81,69,228,69c0,0,145,0,226,-70c0,0,81,-70,81,-192c0,0,0,-82,-40,-140c0,0,-41,-58,-114,-84c0,0,86,-32,132,-99c0,0,45,-67,45,-161c0,0,0,-142,-82,-213c0,0,-81,-71,-254,-71Z" 
id="f2_s"
transform="scale(0.001,-0.001)" />

<path d="M191,-20c0,0,-51,0,-88,34c0,0,-36,36,-36,88c0,0,0,52,36,88c0,0,36,36,88,36c0,0,51,0,88,-36c0,0,36,-36,36,-88c0,0,0,-51,-36,-87c0,0,-36,-35,-88,-35Z" 
id="f2_i"
transform="scale(0.001,-0.001)" />

<path d="M44,0V40L172,60V941L44,960v40H794V760H745L721,922c0,0,-83,11,-241,11H316V543H586l23,119h48V354H609L586,475H316V67H513c0,0,193,0,252,12l43,185h49L843,0Z" 
id="f3_15"
transform="scale(0.001,-0.001)" />

<path d="M13,0V34L95,46L325,350L122,649L40,668v33H357V668L264,648L399,446L554,649l-96,19v33H710V668L630,652L433,397L663,50L745,34V0H427V34l94,17L359,299L169,50L266,34V0Z" 
id="f3_2k"
transform="scale(0.001,-0.001)" />

<path d="M284,67c0,0,51,0,88,12c0,0,37,12,74,30V358l-98,-3c0,0,-100,-4,-135,-39c0,0,-35,-35,-35,-117c0,0,0,-132,106,-132ZM233,-14c0,0,-179,0,-179,208c0,0,0,70,27,116c0,0,27,46,87,70c0,0,60,24,173,27l105,3V519c0,0,0,72,-26,107c0,0,-27,34,-82,34c0,0,-75,0,-137,-35L176,538H134V691c0,0,121,26,213,26c0,0,115,0,169,-47c0,0,54,-47,54,-144V52L657,33V0H465L451,70c0,0,-85,-84,-218,-84Z" 
id="f3_1x"
transform="scale(0.001,-0.001)" />

<path d="M431,0V33L535,52V499c0,0,0,62,-32,96c0,0,-32,33,-95,33c0,0,-66,0,-163,-22V52L350,33V0H32V33l89,19V649L32,668v33H237l6,-57c0,0,56,32,119,54c0,0,62,22,110,22c0,0,52,0,95,-20c0,0,44,-19,66,-62c0,0,57,32,134,57c0,0,77,25,128,25c0,0,179,0,179,-207V52l90,-19V0H846V33L950,52V499c0,0,0,129,-119,129c0,0,-19,0,-45,-3c0,0,-26,-3,-52,-7c0,0,-25,-4,-49,-8c0,0,-23,-5,-39,-8c0,0,13,-41,13,-89V52L764,33V0Z" 
id="f3_29"
transform="scale(0.001,-0.001)" />

<path d="M32,0V33L151,52V649L52,668v33H275V52L395,33V0ZM201,850c0,0,-32,0,-56,24c0,0,-24,24,-24,56c0,0,0,34,24,58c0,0,24,24,56,24c0,0,34,0,58,-24c0,0,24,-24,24,-58c0,0,0,-32,-24,-56c0,0,-24,-24,-58,-24Z" 
id="f3_25"
transform="scale(0.001,-0.001)" />

<path d="M439,0V33l93,19V500c0,0,0,62,-30,97c0,0,-31,36,-94,36c0,0,-67,0,-165,-22V52L338,33V0H35V33l84,19V649L35,668v33H235l7,-57c0,0,57,33,122,54c0,0,65,22,108,22c0,0,91,0,137,-53c0,0,47,-53,47,-154V52L741,33V0Z" 
id="f3_2a"
transform="scale(0.001,-0.001)" />

<path d="M495,413c0,0,0,133,-34,190c0,0,-34,57,-105,57c0,0,-78,0,-119,-63c0,0,-42,-62,-42,-184ZM374,-14c0,0,-163,0,-239,87c0,0,-75,88,-75,283c0,0,0,183,77,273c0,0,76,91,219,91c0,0,269,0,269,-306V353H194V340c0,0,0,-103,23,-160c0,0,22,-57,70,-87c0,0,47,-29,124,-29c0,0,40,0,96,6c0,0,55,7,91,15V43C598,43,562,20,500,3c0,0,-61,-17,-126,-17Z" 
id="f3_21"
transform="scale(0.001,-0.001)" />

<path d="M249,-14c0,0,-71,0,-107,42c0,0,-35,42,-35,119V639H15v33l93,29l76,159h47V701H391V639H231V161c0,0,0,-48,22,-73c0,0,22,-24,57,-24c0,0,44,0,106,12V26C416,26,389,8,340,-2c0,0,-49,-12,-91,-12Z" 
id="f3_2g"
transform="scale(0.001,-0.001)" />

<path d="M442,0V33l93,19V504c0,0,0,129,-124,129c0,0,-70,0,-168,-22V52L338,33V0H31V33l88,19v956L15,1026v34H243V756c0,0,0,-77,-5,-112c0,0,54,31,122,53c0,0,68,23,115,23c0,0,91,0,137,-53c0,0,47,-53,47,-154V52L744,33V0Z" 
id="f3_24"
transform="scale(0.001,-0.001)" />

<path d="M359,-270c0,0,124,0,192,46c0,0,67,47,67,129c0,0,0,43,-26,67c0,0,-26,24,-79,24H242c0,0,-32,-27,-51,-69c0,0,-20,-41,-20,-77c0,0,0,-64,46,-92c0,0,46,-28,142,-28Zm11,561c0,0,81,0,115,47c0,0,34,47,34,141c0,0,0,100,-35,142c0,0,-35,42,-113,42c0,0,-78,0,-114,-43c0,0,-37,-42,-37,-141c0,0,0,-98,36,-143c0,0,36,-45,114,-45ZM359,-329c0,0,-143,0,-218,44c0,0,-75,43,-75,125c0,0,0,39,27,78c0,0,26,38,98,89c0,0,-43,14,-72,48c0,0,-29,35,-29,74L208,262c0,0,-118,55,-118,217c0,0,0,115,73,178c0,0,73,63,211,63c0,0,28,0,71,-6c0,0,44,-6,67,-13l165,83l26,-32L599,644c0,0,50,-56,50,-165c0,0,0,-120,-72,-182c0,0,-73,-62,-208,-62c0,0,-62,0,-114,11L208,148c0,0,2,-13,29,-24c0,0,27,-12,67,-12H512c0,0,113,0,168,-49c0,0,55,-49,55,-134c0,0,0,-79,-44,-137c0,0,-43,-58,-128,-90c0,0,-84,-31,-204,-31Z" 
id="f3_23"
transform="scale(0.001,-0.001)" />

<path d="M360,-14L72,649L0,668v33H327V668L216,648L420,164L615,649L504,668v33H764V668L697,652L416,-14Z" 
id="f3_2i"
transform="scale(0.001,-0.001)" />

<path d="M383,64c0,0,85,0,152,28V645c0,0,-67,13,-152,13c0,0,-194,0,-194,-314c0,0,0,-141,48,-211c0,0,48,-69,146,-69ZM342,-14c0,0,-287,0,-287,358c0,0,0,184,82,280c0,0,81,96,239,96c0,0,81,0,163,-18c0,0,-4,25,-4,124v182l-118,18v34H659V52L745,33V0H548l-9,52c0,0,-84,-66,-197,-66Z" 
id="f3_20"
transform="scale(0.001,-0.001)" />

<path d="M64,0V34L168,59V639H47v36l121,29v49c0,0,0,155,61,239c0,0,62,84,173,84c0,0,58,0,107,-15V908H472l-33,92c0,0,-26,16,-62,16c0,0,-47,0,-66,-42c0,0,-19,-42,-19,-157V701H478V639H292V59L443,34V0Z" 
id="f3_22"
transform="scale(0.001,-0.001)" />

<path d="M399,-14c0,0,-341,0,-341,370c0,0,0,175,87,269c0,0,87,95,249,95c0,0,101,0,220,-23V501H573L541,625c0,0,-62,35,-149,35c0,0,-200,0,-200,-304c0,0,0,-158,61,-225c0,0,61,-67,189,-67c0,0,109,0,189,24V43C631,43,595,16,530,1c0,0,-64,-15,-131,-15Z" 
id="f3_1z"
transform="scale(0.001,-0.001)" />

<path d="M31,0V33l88,19V649L31,668v33H235l7,-87c0,0,44,37,121,71c0,0,76,35,121,35h11V530H463l-43,82c0,0,-37,0,-88,-10c0,0,-52,-10,-89,-26V52L363,33V0Z" 
id="f3_2e"
transform="scale(0.001,-0.001)" />

<path d="M148,-329c0,0,-58,0,-114,13v151H69l24,-71c0,0,23,-17,64,-17c0,0,39,0,72,22c0,0,33,23,60,67c0,0,27,44,68,157L90,649L19,668v33H344V668L233,648L423,158L606,649L497,668v33H758V668L685,652L411,-43c0,0,-48,-124,-84,-177c0,0,-36,-54,-79,-82c0,0,-44,-27,-100,-27Z" 
id="f3_2l"
transform="scale(0.001,-0.001)" />

<path d="M278,-14c0,0,-52,0,-115,11c0,0,-63,10,-99,23V193H98L134,95c0,0,56,-50,146,-50c0,0,144,0,144,123c0,0,0,91,-114,130l-66,21c0,0,-75,25,-110,50c0,0,-34,26,-53,63c0,0,-18,36,-18,89c0,0,0,92,63,145c0,0,63,54,170,54c0,0,77,0,193,-23V544H454l-32,81c0,0,-39,35,-124,35c0,0,-61,0,-92,-30c0,0,-32,-30,-32,-80c0,0,0,-43,29,-72c0,0,28,-29,86,-48c0,0,110,-38,144,-55c0,0,33,-17,57,-42c0,0,23,-25,36,-57c0,0,13,-32,13,-79c0,0,0,-104,-66,-158c0,0,-66,-53,-195,-53Z" 
id="f3_2f"
transform="scale(0.001,-0.001)" />

<path d="M31,0V33L150,52v956L31,1026v34H274V52L394,33V0Z" 
id="f3_28"
transform="scale(0.001,-0.001)" />

<path d="M211,-20c0,0,-39,0,-64,25c0,0,-26,27,-26,64c0,0,0,38,26,64c0,0,26,26,64,26c0,0,37,0,64,-25c0,0,26,-26,26,-65c0,0,0,-37,-26,-64c0,0,-26,-25,-64,-25Zm0,556c0,0,-38,0,-64,26c0,0,-26,26,-26,64c0,0,0,37,26,64c0,0,25,27,64,27c0,0,38,0,64,-27c0,0,26,-27,26,-64c0,0,0,-38,-26,-64c0,0,-27,-26,-64,-26Z" 
id="f3_u"
transform="scale(0.001,-0.001)" />

<path d="M681,416L504,902L333,416ZM669,0V40L803,60L704,348H310L210,60L344,40V0H15V40L128,60l341,949H611L965,60L1092,40V0Z" 
id="f3_11"
transform="scale(0.001,-0.001)" />

<path d="M327,-14L84,649L1,668v33H335V668L219,648L385,174L554,632h63L786,171L944,649L830,668v33h267V668l-78,-16L784,-14H726L553,448L382,-14Z" 
id="f3_2j"
transform="scale(0.001,-0.001)" />

<path d="M377,45c0,0,99,0,147,73c0,0,47,73,47,237c0,0,0,161,-47,233c0,0,-47,72,-147,72c0,0,-97,0,-141,-69c0,0,-44,-69,-44,-236c0,0,0,-169,45,-240c0,0,44,-70,140,-70Zm0,-59c0,0,-158,0,-238,94c0,0,-81,95,-81,274c0,0,0,178,81,272c0,0,80,94,244,94c0,0,160,0,241,-92c0,0,82,-92,82,-274c0,0,0,-368,-329,-368Z" 
id="f3_2b"
transform="scale(0.001,-0.001)" />

<path d="M383,64c0,0,44,0,87,7c0,0,43,7,65,17V645c0,0,-67,13,-152,13c0,0,-194,0,-194,-309c0,0,0,-143,48,-214c0,0,47,-71,146,-71Zm56,-389v35l96,18V-77c0,0,0,73,7,124c0,0,-79,-61,-200,-61c0,0,-287,0,-287,362c0,0,0,180,81,276c0,0,81,96,237,96c0,0,84,0,166,-18l67,33h53V-272l77,-18v-35Z" 
id="f3_2d"
transform="scale(0.001,-0.001)" />

<path d="M289,-14c0,0,-179,0,-179,205V649L20,668v33H233V200c0,0,0,-128,120,-128c0,0,92,0,173,23V649L420,668v33H649V52L738,33V0H533l-6,57C527,57,474,28,405,7c0,0,-69,-21,-116,-21Z" 
id="f3_2h"
transform="scale(0.001,-0.001)" />

<path d="M460,-325c0,0,-148,79,-231,172c0,0,-84,93,-123,217c0,0,-39,126,-39,304c0,0,0,178,39,303c0,0,39,125,122,217c0,0,82,93,232,172V997c0,0,-91,-52,-145,-134c0,0,-54,-81,-79,-190c0,0,-25,-109,-25,-305c0,0,0,-194,26,-309c0,0,26,-114,82,-193c0,0,56,-79,141,-128v-63Z" 
id="f3_c"
transform="scale(0.001,-0.001)" />

<path d="M49,-325v63c0,0,85,49,140,128c0,0,56,79,83,194c0,0,26,115,26,308c0,0,0,196,-25,305c0,0,-25,109,-79,190c0,0,-54,82,-145,134v63c0,0,149,-80,232,-172c0,0,83,-92,122,-217c0,0,39,-125,39,-303c0,0,0,-177,-39,-303c0,0,-39,-125,-122,-217c0,0,-83,-93,-232,-173Z" 
id="f3_d"
transform="scale(0.001,-0.001)" />

<path d="M55,0V40L184,60V941L55,960v40H455V960L327,941V60L455,40V0Z" 
id="f3_19"
transform="scale(0.001,-0.001)" />

<path d="M376,50c0,0,103,0,149,80c0,0,46,81,46,240c0,0,0,137,-47,204c0,0,-48,67,-148,67c0,0,-44,0,-87,-7c0,0,-44,-8,-63,-17V62c0,0,63,-12,150,-12Zm3,-64c0,0,-64,0,-141,14c0,0,-78,14,-136,37v971L0,1026v34H226V809c0,0,0,-40,-4,-148c0,0,74,59,188,59c0,0,143,0,219,-87c0,0,77,-87,77,-263c0,0,0,-189,-84,-287c0,0,-84,-97,-243,-97Z" 
id="f3_1y"
transform="scale(0.001,-0.001)" />

<path d="M57,302V417H454V302Z" 
id="f3_h"
transform="scale(0.001,-0.001)" />

<path d="M306,-20c0,0,-39,0,-65,25c0,0,-25,27,-25,64c0,0,0,38,26,64c0,0,26,26,64,26c0,0,37,0,63,-25c0,0,26,-26,26,-65c0,0,0,-37,-25,-64c0,0,-26,-25,-64,-25ZM269,261L249,510l107,22c0,0,64,13,93,65c0,0,29,52,29,152c0,0,0,109,-39,154c0,0,-40,45,-140,45c0,0,-83,0,-145,-36L128,789H79V979c0,0,118,32,220,32c0,0,316,0,316,-253c0,0,0,-121,-60,-195c0,0,-60,-74,-175,-98l-42,-9L328,261Z" 
id="f3_z"
transform="scale(0.001,-0.001)" />

<path d="M420,-22L89,941L1,960v40H383V960L236,941L474,236L744,930h33L1037,236l227,705l-156,19v40h331V960l-87,-19L1025,-22H985L726,666L460,-22Z" 
id="f3_1n"
transform="scale(0.001,-0.001)" />

<path d="M382,45c0,0,188,0,188,314c0,0,0,143,-47,213c0,0,-46,69,-141,69c0,0,-87,0,-146,-24V58c0,0,67,-13,146,-13ZM25,-325v35l88,18V649L34,668v33H231l1,-41c0,0,31,27,84,43c0,0,53,17,107,17c0,0,134,0,208,-94c0,0,73,-93,73,-267c0,0,0,-178,-80,-276c0,0,-80,-97,-232,-97c0,0,-84,0,-160,16c0,0,4,-53,4,-84V-272l123,-18v-35Z" 
id="f3_2c"
transform="scale(0.001,-0.001)" />

<path d="M191,-20c0,0,-39,0,-65,25c0,0,-25,27,-25,64c0,0,0,38,26,64c0,0,26,26,64,26c0,0,38,0,64,-26c0,0,26,-26,26,-64c0,0,0,-37,-25,-64c0,0,-26,-25,-65,-25Z" 
id="f3_i"
transform="scale(0.001,-0.001)" />

<path d="M577,-14c0,0,-243,0,-379,131C198,117,63,248,63,488c0,0,0,263,131,393c0,0,132,130,386,130c0,0,182,0,352,-45V751H882L862,875c0,0,-52,37,-124,57c0,0,-72,19,-152,19c0,0,-191,0,-279,-113c0,0,-88,-114,-88,-348c0,0,0,-220,91,-333c0,0,91,-114,269,-114c0,0,63,0,131,15c0,0,69,15,105,36V377L686,397v40h370V397L958,377V52C958,52,871,24,778,5c0,0,-93,-19,-201,-19Z" 
id="f3_17"
transform="scale(0.001,-0.001)" />

<path d="M639,416L478,858L313,416ZM647,0V54L762,74L667,333H283L191,74L319,54V0H15V54L90,74l355,935H662L1016,74l76,-20V0Z" 
id="f2_11"
transform="scale(0.001,-0.001)" />

<path d="M41,0V49l69,18V634L41,652v49H313l11,-61l50,26c0,0,105,54,188,54c0,0,194,0,194,-207V67L827,49V0H478V49l63,18V484c0,0,0,63,-27,98c0,0,-26,35,-75,35c0,0,-57,0,-114,-25V67L389,49V0Z" 
id="f2_2a"
transform="scale(0.001,-0.001)" />

<path d="M276,-14c0,0,-57,0,-125,13C151,-1,83,10,48,23V214H97l28,-98c0,0,26,-26,69,-44c0,0,42,-17,86,-17c0,0,65,0,97,28c0,0,32,28,32,71c0,0,0,41,-31,65c0,0,-30,25,-133,57c0,0,-108,34,-154,92c0,0,-45,58,-45,143c0,0,0,95,71,152c0,0,71,57,183,57c0,0,77,0,207,-22V518H457l-24,82c0,0,-21,22,-60,35c0,0,-40,14,-75,14c0,0,-53,0,-79,-22c0,0,-26,-22,-26,-59c0,0,0,-40,32,-65c0,0,32,-26,132,-55c0,0,109,-34,155,-89c0,0,45,-55,45,-137c0,0,0,-117,-72,-177c0,0,-72,-59,-209,-59Z" 
id="f2_2f"
transform="scale(0.001,-0.001)" />

<path d="M305,-14L57,634L4,652v49H351V652L268,632L419,232L581,631h71L814,232L950,634l-82,18v49h227V652l-54,-15L806,-14H715L555,378L395,-14Z" 
id="f2_2j"
transform="scale(0.001,-0.001)" />

<path d="M434,423c0,0,0,101,-7,142c0,0,-6,40,-22,60c0,0,-16,19,-45,19c0,0,-44,0,-66,-48c0,0,-22,-49,-22,-173ZM389,-14c0,0,-172,0,-254,89c0,0,-83,90,-83,279c0,0,0,184,79,274c0,0,79,91,238,91c0,0,142,0,206,-76c0,0,64,-76,64,-237V345H271V333c0,0,0,-111,18,-158c0,0,18,-47,58,-72c0,0,40,-25,110,-25c0,0,66,0,166,22V42C623,42,582,18,517,1c0,0,-66,-15,-128,-15Z" 
id="f2_21"
transform="scale(0.001,-0.001)" />

<path d="M41,0V49l91,18V634L41,652v49H336l8,-145c0,0,80,89,144,128c0,0,64,40,117,40h40V468H604l-45,94c0,0,-47,0,-106,-21c0,0,-60,-20,-105,-48V67L460,49V0Z" 
id="f2_2e"
transform="scale(0.001,-0.001)" />

<path d="M248,-20c0,0,-52,0,-87,34c0,0,-36,36,-36,88c0,0,0,52,36,88c0,0,35,36,87,36c0,0,52,0,88,-36c0,0,36,-36,36,-88c0,0,0,-51,-36,-87c0,0,-35,-35,-88,-35Zm0,488c0,0,-52,0,-87,36c0,0,-36,36,-36,88c0,0,0,52,35,88c0,0,35,36,88,36c0,0,53,0,89,-36c0,0,35,-37,35,-88c0,0,0,-51,-36,-87c0,0,-35,-37,-88,-37Z" 
id="f2_u"
transform="scale(0.001,-0.001)" />

<path d="M54,0V40L172,60V941L44,960v40H794V760H745L721,922c0,0,-83,11,-241,11H316V516H611l23,120h46V328H634L611,449H316V60L483,40V0Z" 
id="f3_16"
transform="scale(0.001,-0.001)" />

<path d="M577,-14c0,0,-243,0,-379,132C198,118,63,250,63,488c0,0,0,258,130,391c0,0,131,132,387,132c0,0,156,0,335,-38l5,-218H871L848,884c0,0,-52,32,-121,50c0,0,-69,17,-141,17c0,0,-191,0,-279,-112c0,0,-88,-113,-88,-349c0,0,0,-217,92,-332c0,0,92,-115,268,-115c0,0,85,0,160,20c0,0,76,21,120,55l27,149h49L930,32c0,0,-164,-46,-353,-46Z" 
id="f3_13"
transform="scale(0.001,-0.001)" />

<path d="M868,0L251,900V60L385,40V0H44V40L172,60V941L44,960v40H347L862,259V941L727,960v40h341V960L940,941V0Z" 
id="f3_1e"
transform="scale(0.001,-0.001)" />

<path d="M377,478c0,0,57,0,112,14v10c0,0,0,216,-25,325c0,0,-26,110,-91,110c0,0,-112,0,-112,-245c0,0,0,-214,116,-214ZM312,-14c0,0,-124,0,-232,31V245h65L177,99c0,0,26,-18,62,-29c0,0,36,-10,70,-10c0,0,80,0,126,91c0,0,45,92,52,265c0,0,-77,-28,-154,-28c0,0,-135,0,-213,81c0,0,-78,80,-78,226c0,0,0,152,87,234c0,0,87,82,242,82c0,0,176,0,257,-123c0,0,81,-123,81,-385c0,0,0,-169,-48,-284C661,219,614,103,525,44c0,0,-89,-58,-213,-58Z" 
id="f2_t"
transform="scale(0.001,-0.001)" />

<path d="M44,0V40L172,60V941L44,960v40H445V960L316,941V549H787V941L659,960v40h400V960L930,941V60L1059,40V0H659V40L787,60V481H316V60L445,40V0Z" 
id="f3_18"
transform="scale(0.001,-0.001)" />

<path d="M394,460c0,0,126,0,186,57c0,0,60,57,60,187c0,0,0,123,-57,176c0,0,-58,53,-194,53H316V460ZM54,0V40L172,60V941L44,960v40H421c0,0,368,0,368,-295c0,0,0,-153,-93,-233c0,0,-93,-80,-267,-80H316V60L475,40V0Z" 
id="f3_1g"
transform="scale(0.001,-0.001)" />

<path d="M134,0V40L339,60V876L137,804v39l292,166h39V60L672,40V0Z" 
id="f3_l"
transform="scale(0.001,-0.001)" />

<path d="M67,0V109L206,235c0,0,133,118,196,190c0,0,63,72,90,149c0,0,27,77,27,177c0,0,0,97,-44,148c0,0,-44,50,-144,50c0,0,-39,0,-81,-10c0,0,-42,-11,-74,-29L150,787H101V980c0,0,135,32,230,32c0,0,164,0,247,-68c0,0,82,-69,82,-193c0,0,0,-84,-32,-158c0,0,-33,-75,-100,-148c0,0,-67,-74,-222,-206c0,0,-67,-57,-141,-125H680V0Z" 
id="f3_m"
transform="scale(0.001,-0.001)" />

<path d="M536,63c0,0,127,0,191,54c0,0,63,54,63,168c0,0,0,105,-70,154c0,0,-70,49,-225,49H316V67c0,0,103,-4,220,-4ZM480,555c0,0,121,0,178,48c0,0,57,48,57,155c0,0,0,91,-58,133c0,0,-57,42,-186,42H316V555ZM554,-4L235,0H44V40L172,60V941L44,960v40H501c0,0,191,0,279,-56c0,0,88,-56,88,-179c0,0,0,-88,-55,-149c0,0,-54,-62,-151,-83c0,0,135,-14,209,-79c0,0,73,-65,73,-166c0,0,0,-144,-99,-219C845,69,745,-4,554,-4Z" 
id="f3_12"
transform="scale(0.001,-0.001)" />

<path d="M41,0V34L426,641H261c0,0,-42,0,-80,-7c0,0,-39,-7,-54,-19L104,515H69V701H586V665L201,60H407c0,0,42,0,89,10c0,0,47,10,66,25l39,147h35L617,0Z" 
id="f3_2m"
transform="scale(0.001,-0.001)" />

<path d="M595,60c0,0,141,0,206,102c0,0,65,102,65,340c0,0,0,236,-65,335c0,0,-65,100,-206,100c0,0,-142,0,-207,-100c0,0,-66,-99,-66,-335c0,0,0,-239,66,-340c0,0,65,-102,207,-102Zm0,-74c0,0,-253,0,-387,130C208,116,75,246,75,501c0,0,0,510,520,510c0,0,256,0,387,-129c0,0,132,-130,132,-381c0,0,0,-254,-133,-385C981,116,848,-14,595,-14Z" 
id="f2_1f"
transform="scale(0.001,-0.001)" />

<path d="M498,506c0,0,115,0,164,47c0,0,48,48,48,166c0,0,0,112,-46,156c0,0,-46,43,-169,43H390V506ZM793,0L514,423H390V74L518,54V0H36V54L154,74V926L26,945v55H504c0,0,221,0,330,-68c0,0,109,-68,109,-212c0,0,0,-215,-201,-276L1009,74L1117,54V0Z" 
id="f2_1i"
transform="scale(0.001,-0.001)" />

<path d="M58,-234v58c0,0,131,42,131,125c0,0,0,15,-11,27c0,0,-11,12,-38,25C140,1,89,27,89,75c0,0,0,40,25,61c0,0,26,21,65,21c0,0,48,0,77,-34c0,0,30,-34,30,-86c0,0,0,-101,-60,-170c0,0,-59,-69,-168,-101Z" 
id="f3_g"
transform="scale(0.001,-0.001)" />

<path d="M843,0L451,506L316,398V60L460,40V0H44V40L172,60V941L44,960v40H445V960L316,941V470L795,941l-99,19v40h313V960L894,941L552,607L979,60L1088,40V0Z" 
id="f3_1b"
transform="scale(0.001,-0.001)" />

<path d="M551,45c0,0,171,0,252,108c0,0,82,108,82,349c0,0,0,239,-81,344c0,0,-81,105,-253,105c0,0,-172,0,-252,-105c0,0,-80,-105,-80,-344c0,0,0,-241,80,-349c0,0,81,-108,252,-108Zm0,-59c0,0,-238,0,-363,129C188,115,63,245,63,501c0,0,0,510,488,510c0,0,242,0,366,-129c0,0,124,-130,124,-381c0,0,0,-255,-126,-385C915,116,790,-14,551,-14Z" 
id="f3_1f"
transform="scale(0.001,-0.001)" />

<path d="M350,-14c0,0,-142,0,-253,31L89,228h49L172,87c0,0,32,-18,78,-29c0,0,46,-11,88,-11c0,0,118,0,173,56c0,0,56,55,56,187c0,0,0,93,-24,140c0,0,-24,47,-76,70c0,0,-52,22,-140,22c0,0,-68,0,-133,-18H122v496H630V886H189V567c0,0,81,18,173,18c0,0,173,0,258,-71c0,0,84,-71,84,-216c0,0,0,-151,-92,-232c0,0,-91,-80,-262,-80Z" 
id="f3_p"
transform="scale(0.001,-0.001)" />

<path d="M301,78c0,0,85,0,185,104l81,442c0,0,-29,20,-55,28c0,0,-25,8,-62,8c0,0,-75,0,-137,-56c0,0,-62,-56,-98,-152c0,0,-36,-95,-36,-199c0,0,0,-79,33,-127c0,0,33,-48,89,-48ZM245,-14c0,0,-90,0,-145,66c0,0,-54,66,-54,182c0,0,0,131,57,244c0,0,57,114,152,178c0,0,96,64,208,64c0,0,90,0,170,-33l33,26h40L589,52L673,33L667,0H454l22,117C476,117,350,-14,245,-14Z" 
id="f4_1x"
transform="scale(0.001,-0.001)" />

<path d="M298,-14c0,0,-120,0,-185,69c0,0,-66,69,-66,191c0,0,0,130,52,237c0,0,52,107,149,172c0,0,97,65,203,65c0,0,53,0,112,-12c0,0,60,-11,99,-27L628,485H587L575,615c0,0,-47,47,-125,47c0,0,-72,0,-134,-53c0,0,-62,-53,-100,-147c0,0,-37,-95,-37,-208c0,0,0,-190,154,-190c0,0,106,0,222,74l22,-32c0,0,-60,-56,-135,-88c0,0,-76,-32,-144,-32Z" 
id="f4_1z"
transform="scale(0.001,-0.001)" />

<path d="M188,355c0,0,148,11,236,69c0,0,89,58,89,143c0,0,0,41,-23,68c0,0,-22,27,-66,27c0,0,-52,0,-101,-43c0,0,-49,-42,-85,-114c0,0,-36,-71,-50,-150ZM298,-14c0,0,-120,0,-186,67c0,0,-65,67,-65,193c0,0,0,125,53,232c0,0,52,108,145,175c0,0,94,67,196,67c0,0,92,0,147,-42c0,0,56,-43,56,-111c0,0,0,-102,-126,-173c0,0,-125,-72,-336,-86l-3,-54c0,0,0,-95,40,-143c0,0,40,-47,118,-47c0,0,67,0,124,22c0,0,57,23,106,52l22,-32c0,0,-69,-58,-146,-89c0,0,-76,-31,-145,-31Z" 
id="f4_21"
transform="scale(0.001,-0.001)" />

<path d="M200,-14c0,0,-59,0,-93,35c0,0,-34,36,-34,100c0,0,0,22,4,51c0,0,4,30,82,467H67l6,33l99,29L275,860h47L295,701H455L443,639H283L210,230c0,0,-13,-69,-13,-99c0,0,0,-34,17,-51c0,0,17,-16,43,-16c0,0,54,0,113,21L386,50c0,0,-92,-64,-186,-64Z" 
id="f4_2g"
transform="scale(0.001,-0.001)" />

<path d="M325,47c0,0,68,0,130,54c0,0,61,55,97,149c0,0,36,94,36,202c0,0,0,103,-39,156c0,0,-39,53,-113,53c0,0,-67,0,-128,-54c0,0,-61,-55,-96,-149c0,0,-35,-94,-35,-204c0,0,0,-101,39,-154c0,0,39,-53,109,-53Zm-6,-61c0,0,-124,0,-199,79c0,0,-74,79,-74,214c0,0,0,120,51,222c0,0,51,102,143,160c0,0,91,59,205,59c0,0,124,0,199,-80c0,0,74,-79,74,-214c0,0,0,-120,-51,-222C667,204,615,102,524,43c0,0,-91,-57,-205,-57Z" 
id="f4_2b"
transform="scale(0.001,-0.001)" />

<path d="M54,0L169,649L81,668l6,33H294L274,558c0,0,62,81,130,121c0,0,67,41,132,41c0,0,75,0,113,-41c0,0,38,-41,38,-117c0,0,0,-10,-3,-32c0,0,-3,-21,-81,-478L700,34L695,0H470l76,434c0,0,17,94,17,123c0,0,0,34,-18,55c0,0,-18,21,-56,21c0,0,-56,0,-121,-47c0,0,-65,-47,-108,-117L178,0Z" 
id="f4_2a"
transform="scale(0.001,-0.001)" />

<path d="M521,-14c0,0,-205,0,-320,107C201,93,85,200,85,390c0,0,0,185,77,326c0,0,77,142,220,219c0,0,142,76,324,76c0,0,158,0,327,-38L1000,755H951V884c0,0,-46,32,-112,50c0,0,-65,17,-137,17c0,0,-135,0,-242,-72c0,0,-107,-72,-166,-203c0,0,-60,-132,-60,-301c0,0,0,-160,78,-244c0,0,78,-84,222,-84c0,0,85,0,166,25c0,0,82,26,133,65l53,149h49L889,52C889,52,803,20,705,3c0,0,-99,-17,-184,-17Z" 
id="f4_13"
transform="scale(0.001,-0.001)" />

<path d="M-15,0l6,40L121,60L275,941L151,960l6,40H558l-6,-40L419,941L350,549H821l68,392L765,960l6,40h401l-6,-40L1033,941L879,60L1003,40L996,0H596l6,40L735,60l74,421H338L264,60L388,40L382,0Z" 
id="f4_18"
transform="scale(0.001,-0.001)" />

<path d="M81,0L258,1008l-96,18l6,34H391L214,52L331,33L325,0Z" 
id="f4_28"
transform="scale(0.001,-0.001)" />

<path d="M712,0L354,900L205,60L336,40L329,0H-10l7,40L127,60L283,941L157,960l8,40H454L752,250L873,941L742,960l7,40h341l-8,-40L951,941L785,0Z" 
id="f4_1e"
transform="scale(0.001,-0.001)" />

<path d="M0,356v74H784V356Z" 
id="f5_h"
transform="scale(0.001,-0.001)" />

<path d="M355,0V355H0v72H355V784h72V427H782V355H427V0Z" 
id="f5_f"
transform="scale(0.001,-0.001)" />

<path d="M0,334v73H1700V334Z" 
id="f5_3k"
transform="scale(0.001,-0.001)" />

<path d="M968,-20c0,0,42,100,87,170c0,0,45,70,144,184H56v73H1199c0,0,-106,122,-148,189c0,0,-43,67,-83,166h60c0,0,87,-108,217,-218c0,0,130,-110,206,-154V349c0,0,-99,-56,-217,-159c0,0,-117,-102,-206,-210Z" 
id="f5_34"
transform="scale(0.001,-0.001)" />

<path d="M410,45c0,0,90,0,130,58c0,0,40,59,40,193c0,0,0,122,-38,177c0,0,-38,54,-122,54c0,0,-102,0,-217,-37c0,0,0,-227,51,-336c0,0,52,-109,156,-109Zm3,-59c0,0,-169,0,-258,131c0,0,-89,131,-89,377c0,0,0,161,47,278c0,0,47,117,131,178c0,0,85,61,196,61c0,0,109,0,217,-26V813H608L582,915c0,0,-25,13,-67,23c0,0,-41,10,-75,10c0,0,-109,0,-170,-105c0,0,-60,-106,-66,-308c0,0,121,63,244,63c0,0,132,0,201,-74c0,0,69,-74,69,-214c0,0,0,-156,-78,-240c0,0,-79,-84,-227,-84Z" 
id="f3_q"
transform="scale(0.001,-0.001)" />

<path d="M301,78c0,0,41,0,90,27c0,0,49,28,95,77l81,442c0,0,-26,18,-54,27c0,0,-27,10,-67,10c0,0,-70,0,-131,-55c0,0,-61,-55,-99,-152c0,0,-37,-97,-37,-201c0,0,0,-79,33,-127c0,0,33,-48,89,-48ZM245,-14c0,0,-91,0,-145,68c0,0,-54,69,-54,183c0,0,0,128,55,240c0,0,55,112,150,177c0,0,96,66,210,66c0,0,70,0,123,-18c0,0,3,36,51,306l-115,18l6,34H768L589,52L673,33L667,0H454l22,117C476,117,350,-14,245,-14Z" 
id="f4_20"
transform="scale(0.001,-0.001)" />

<path d="M62,0L176,649L88,668l6,33H301L278,543c0,0,55,84,124,130c0,0,69,47,138,47c0,0,37,0,59,-6L566,530H534l-28,95c0,0,-60,0,-124,-46c0,0,-63,-45,-116,-120L186,0Z" 
id="f4_2e"
transform="scale(0.001,-0.001)" />

<path d="M-15,-329c0,0,-61,0,-112,13l28,152h34l12,-72c0,0,18,-17,60,-17c0,0,100,0,212,202L253,9L116,649L33,668l6,33H230L338,155L513,458c0,0,48,83,48,144c0,0,0,27,-16,44c0,0,-15,16,-33,22l6,33H659c0,0,20,-17,20,-47c0,0,0,-59,-62,-164L322,-7c0,0,-86,-145,-135,-205c0,0,-50,-61,-98,-89c0,0,-49,-28,-104,-28Z" 
id="f4_2l"
transform="scale(0.001,-0.001)" />

<path d="M55,0L232,1008l-88,18l6,34H365L286,615L274,558c0,0,59,79,128,120c0,0,68,42,134,42c0,0,75,0,113,-41c0,0,38,-41,38,-117c0,0,0,-10,-3,-32c0,0,-3,-21,-81,-478L700,34L695,0H470l76,434c0,0,17,94,17,123c0,0,0,34,-18,55c0,0,-18,21,-56,21c0,0,-56,0,-121,-47c0,0,-65,-47,-107,-114L178,0Z" 
id="f4_24"
transform="scale(0.001,-0.001)" />

<path d="M350,-14c0,0,-142,0,-269,31L73,228h49L156,87c0,0,29,-16,82,-28c0,0,54,-12,100,-12c0,0,117,0,173,54c0,0,56,53,56,178c0,0,0,99,-52,150c0,0,-51,51,-159,56l-107,6v61l107,7c0,0,84,5,124,52c0,0,41,48,41,145c0,0,0,101,-44,147c0,0,-44,45,-139,45c0,0,-40,0,-83,-10c0,0,-43,-11,-76,-29L153,786H104V979c0,0,74,19,127,26c0,0,54,6,107,6c0,0,321,0,321,-246c0,0,0,-104,-57,-165c0,0,-57,-62,-162,-77c0,0,136,-16,200,-78c0,0,64,-62,64,-173c0,0,0,-135,-92,-211c0,0,-93,-75,-262,-75Z" 
id="f3_n"
transform="scale(0.001,-0.001)" />

<path d="M743,0L436,512L330,424L264,60L404,40L397,0H-17l8,40L120,60L276,941L151,960l7,40H559l-8,-40L420,941L347,525L853,941l-89,19l7,40h314l-8,-40L961,941L546,602L880,60L979,40L972,0Z" 
id="f4_1b"
transform="scale(0.001,-0.001)" />

<path d="M500,49c0,0,111,0,205,75c0,0,95,75,154,216c0,0,59,140,59,280c0,0,0,150,-76,240c0,0,-77,91,-202,91c0,0,-111,0,-204,-75c0,0,-93,-76,-151,-217c0,0,-59,-141,-59,-284c0,0,0,-147,75,-237c0,0,75,-89,199,-89Zm-5,-63c0,0,-121,0,-216,50c0,0,-96,50,-149,142c0,0,-53,91,-53,205c0,0,0,180,74,326c0,0,75,145,204,224c0,0,129,78,295,78c0,0,120,0,216,-50c0,0,96,-51,149,-142c0,0,53,-91,53,-206c0,0,0,-177,-75,-325C993,288,918,140,789,63c0,0,-129,-77,-294,-77Z" 
id="f4_1f"
transform="scale(0.001,-0.001)" />


</defs>
</svg>