<?xml version="1.0" encoding="UTF-8" standalone="no"?>
<!DOCTYPE svg PUBLIC "-//W3C//DTD SVG 1.1//EN"
"http://www.w3.org/Graphics/SVG/1.1/DTD/svg11.dtd">
<svg viewBox="0 0 909 1286" version="1.1" xmlns="http://www.w3.org/2000/svg" xmlns:xlink="http://www.w3.org/1999/xlink">
<defs>
<clipPath id="c0_118"><path d="M55.2,304.5V270H392.4v34.5Z" /></clipPath>
<clipPath id="c1_118"><path d="M55.2,389.9V350.6H382.3v39.3Z" /></clipPath>
<clipPath id="c2_118"><path d="M55.2,451.9V413.4H330v38.5Z" /></clipPath>
<clipPath id="c3_118"><path d="M55.2,505.1V475.3H275.1v29.8Z" /></clipPath>
<clipPath id="c4_118"><path d="M55.2,1123.6v-62.2H185.4v62.2Z" /></clipPath>
<clipPath id="c5_118"><path d="M55.2,1175v-51H273.3v51Z" /></clipPath>
<style type="text/css"><![CDATA[
.g0_118{
fill: #D9D9D9;
}
.g1_118{
fill: none;
stroke: #000000;
stroke-width: 0.7638889;
stroke-linecap: butt;
stroke-linejoin: miter;
}
.g2_118{
fill: none;
stroke: #000000;
stroke-width: 0.21193141;
stroke-linecap: square;
stroke-linejoin: round;
}
.g3_118{
}
.g4_118{
fill: none;
stroke: #000000;
stroke-width: 0.21208711;
stroke-linecap: square;
stroke-linejoin: round;
}
.g5_118{
fill: none;
stroke: #000000;
stroke-width: 0.9077177;
stroke-linecap: butt;
stroke-linejoin: round;
}
]]></style>
</defs>
<image preserveAspectRatio="none" x="747" y="1196" width="96" height="59" xlink:href="img/1.png" />
<image preserveAspectRatio="none" x="336" y="41" width="259" height="51" xlink:href="img/2.png" />
<image preserveAspectRatio="none" x="342" y="50" width="247" height="27" xlink:href="img/3.png" />
<image preserveAspectRatio="none" x="341" y="45" width="239" height="42" xlink:href="img/4.png" />
<g fill="#FFFFFF" >
<use xlink:href="#f0_j" transform="matrix(11.5,0,0,11.5,355.1,70.1)" />
<use xlink:href="#f0_i" transform="matrix(11.5,0,0,11.5,364.3,70.1)" />
<use xlink:href="#f0_2n" transform="matrix(11.5,0,0,11.5,374.1,70.1)" />
<use xlink:href="#f0_t" transform="matrix(11.5,0,0,11.5,382.6,70.1)" />
<use xlink:href="#f0_oj" transform="matrix(11.5,0,0,11.5,391,70.1)" />
<use xlink:href="#f0_3e" transform="matrix(11.5,0,0,11.5,396.5,70.1)" />
<use xlink:href="#f0_1c" transform="matrix(11.5,0,0,11.5,406.1,70.1)" />
<use xlink:href="#f0_1c" transform="matrix(11.5,0,0,11.5,410.8,70.1)" />
<use xlink:href="#f0_oj" transform="matrix(11.5,0,0,11.5,415.6,70.1)" />
<use xlink:href="#f0_rz" transform="matrix(11.5,0,0,11.5,421.1,70.1)" />
<use xlink:href="#f0_rx" transform="matrix(11.5,0,0,11.5,429.9,70.1)" />
<use xlink:href="#f0_ry" transform="matrix(11.5,0,0,11.5,438.7,70.1)" />
<use xlink:href="#f0_s0" transform="matrix(11.5,0,0,11.5,447.5,70.1)" />
<use xlink:href="#f0_t" transform="matrix(11.5,0,0,11.5,460.4,70.1)" />
<use xlink:href="#f0_3e" transform="matrix(11.5,0,0,11.5,468.8,70.1)" />
<use xlink:href="#f0_5" transform="matrix(11.5,0,0,11.5,478.3,70.1)" />
<use xlink:href="#f0_1x" transform="matrix(11.5,0,0,11.5,489,70.1)" />
<use xlink:href="#f0_1c" transform="matrix(11.5,0,0,11.5,504.4,70.1)" />
<use xlink:href="#f0_1y" transform="matrix(11.5,0,0,11.5,509.1,70.1)" />
<use xlink:href="#f0_5" transform="matrix(11.5,0,0,11.5,520.8,70.1)" />
<use xlink:href="#f0_2t" transform="matrix(11.5,0,0,11.5,531.5,70.1)" />
<use xlink:href="#f0_1c" transform="matrix(11.5,0,0,11.5,540.2,70.1)" />
<use xlink:href="#f0_24" transform="matrix(11.5,0,0,11.5,545,70.1)" />
<use xlink:href="#f0_1y" transform="matrix(11.5,0,0,11.5,556.7,70.1)" />
</g>
<image preserveAspectRatio="none" x="554" y="45" width="36" height="42" xlink:href="img/5.png" />
<g fill="#FFFFFF" >
<use xlink:href="#f1_n" transform="matrix(11,0,0,11,770.3,1227.6)" />
<use xlink:href="#f1_j" transform="matrix(11,0,0,11,783.5,1227.6)" />
<use xlink:href="#f1_l" transform="matrix(11,0,0,11,794.1,1227.6)" />
<use xlink:href="#f1_l" transform="matrix(11,0,0,11,802.9,1227.6)" />
</g>
<path fill-rule="evenodd" d="M52.8,1193.5H856.9v-.8H52.8v.8Z" class="g0_118" />
<path d="M37.9,99.4L873,98.5" class="g1_118" />
<g fill="#000000" >
<use xlink:href="#f2_l" transform="matrix(12,0,0,12,55,265.5)" />
<use xlink:href="#f2_m" transform="matrix(12,0,0,12,64.2,265.5)" />
<use xlink:href="#f2_i" transform="matrix(12,0,0,12,73.4,265.5)" />
<use xlink:href="#f3_15" transform="matrix(12,0,0,12,82.9,265.5)" />
<use xlink:href="#f3_2k" transform="matrix(12,0,0,12,94.3,265.5)" />
<use xlink:href="#f3_2c" transform="matrix(12,0,0,12,103.1,265.5)" />
<use xlink:href="#f3_28" transform="matrix(12,0,0,12,112.2,265.5)" />
<use xlink:href="#f3_1x" transform="matrix(12,0,0,12,117,265.5)" />
<use xlink:href="#f3_25" transform="matrix(12,0,0,12,125.4,265.5)" />
<use xlink:href="#f3_2a" transform="matrix(12,0,0,12,130.2,265.5)" />
<use xlink:href="#f3_2g" transform="matrix(12,0,0,12,143.7,265.5)" />
<use xlink:href="#f3_24" transform="matrix(12,0,0,12,149.2,265.5)" />
<use xlink:href="#f3_21" transform="matrix(12,0,0,12,158,265.5)" />
<use xlink:href="#f3_29" transform="matrix(12,0,0,12,171.2,265.5)" />
<use xlink:href="#f3_21" transform="matrix(12,0,0,12,185.1,265.5)" />
<use xlink:href="#f3_1z" transform="matrix(12,0,0,12,193.2,265.5)" />
<use xlink:href="#f3_24" transform="matrix(12,0,0,12,201.6,265.5)" />
<use xlink:href="#f3_1x" transform="matrix(12,0,0,12,210.4,265.5)" />
<use xlink:href="#f3_2a" transform="matrix(12,0,0,12,218.8,265.5)" />
<use xlink:href="#f3_25" transform="matrix(12,0,0,12,228,265.5)" />
<use xlink:href="#f3_2f" transform="matrix(12,0,0,12,232.7,265.5)" />
<use xlink:href="#f3_29" transform="matrix(12,0,0,12,240.1,265.5)" />
<use xlink:href="#f3_2b" transform="matrix(12,0,0,12,258.7,265.5)" />
<use xlink:href="#f3_22" transform="matrix(12,0,0,12,268.3,265.5)" />
<use xlink:href="#f3_2g" transform="matrix(12,0,0,12,278.5,265.5)" />
<use xlink:href="#f3_24" transform="matrix(12,0,0,12,284,265.5)" />
<use xlink:href="#f3_21" transform="matrix(12,0,0,12,292.8,265.5)" />
<use xlink:href="#f3_22" transform="matrix(12,0,0,12,306,265.5)" />
<use xlink:href="#f3_2b" transform="matrix(12,0,0,12,311.5,265.5)" />
<use xlink:href="#f3_28" transform="matrix(12,0,0,12,321.3,265.5)" />
<use xlink:href="#f3_28" transform="matrix(12,0,0,12,326.1,265.5)" />
<use xlink:href="#f3_2b" transform="matrix(12,0,0,12,330.5,265.5)" />
<use xlink:href="#f3_2j" transform="matrix(12,0,0,12,340,265.5)" />
<use xlink:href="#f3_25" transform="matrix(12,0,0,12,353.6,265.5)" />
<use xlink:href="#f3_2a" transform="matrix(12,0,0,12,358.3,265.5)" />
<use xlink:href="#f3_23" transform="matrix(12,0,0,12,367.5,265.5)" />
<use xlink:href="#f3_2e" transform="matrix(12,0,0,12,381.4,265.5)" />
<use xlink:href="#f3_21" transform="matrix(12,0,0,12,387.6,265.5)" />
<use xlink:href="#f3_1x" transform="matrix(12,0,0,12,395.7,265.5)" />
<use xlink:href="#f3_1z" transform="matrix(12,0,0,12,403.8,265.5)" />
<use xlink:href="#f3_2g" transform="matrix(12,0,0,12,411.8,265.5)" />
<use xlink:href="#f3_25" transform="matrix(12,0,0,12,417.3,265.5)" />
<use xlink:href="#f3_2b" transform="matrix(12,0,0,12,422.1,265.5)" />
<use xlink:href="#f3_2a" transform="matrix(12,0,0,12,431.6,265.5)" />
<use xlink:href="#f3_u" transform="matrix(12,0,0,12,440.4,265.5)" />
</g>
<g clip-path="url(#c0_118)">
<g fill="#000000" >
<use xlink:href="#f3_n" transform="matrix(7.4,0,0,7.1,84,298.8)" />
<use xlink:href="#f3_m" transform="matrix(7.4,0,0,7.1,133.3,298.8)" />
<use xlink:href="#f3_m" transform="matrix(7.4,0,0,7.1,278.1,298.8)" />
<use xlink:href="#f3_m" transform="matrix(7.4,0,0,7.1,330.1,298.8)" />
<use xlink:href="#f3_m" transform="matrix(7.4,0,0,7.1,368.9,298.8)" />
<use xlink:href="#f3_o" transform="matrix(7.4,0,0,7.1,205.9,300.1)" />
<use xlink:href="#f3_o" transform="matrix(7.4,0,0,7.1,211.2,300.1)" />
<use xlink:href="#f3_n" transform="matrix(7.4,0,0,7.1,216.5,300.1)" />
<use xlink:href="#f4_18" transform="matrix(7.4,0,0,7.1,211,285.8)" />
<use xlink:href="#f4_1b" transform="matrix(7.4,0,0,7.1,222.5,300.1)" />
<use xlink:href="#f4_13" transform="matrix(12.9,0,0,12.2,57.4,294.1)" />
<use xlink:href="#f4_18" transform="matrix(12.9,0,0,12.2,69.7,294.1)" />
<use xlink:href="#f4_13" transform="matrix(12.9,0,0,12.2,106.4,294.1)" />
<use xlink:href="#f4_18" transform="matrix(12.9,0,0,12.2,118.8,294.1)" />
<use xlink:href="#f4_1f" transform="matrix(12.9,0,0,12.2,156.2,294.1)" />
<use xlink:href="#f4_18" transform="matrix(12.9,0,0,12.2,169.3,294.1)" />
<use xlink:href="#f4_13" transform="matrix(12.9,0,0,12.2,251.1,294.1)" />
<use xlink:href="#f4_18" transform="matrix(12.9,0,0,12.2,263.4,294.1)" />
<use xlink:href="#f4_13" transform="matrix(12.9,0,0,12.2,303.1,294.1)" />
<use xlink:href="#f4_18" transform="matrix(12.9,0,0,12.2,315.4,294.1)" />
<use xlink:href="#f4_18" transform="matrix(12.9,0,0,12.2,354.3,294.1)" />
<use xlink:href="#f4_1f" transform="matrix(12.9,0,0,12.2,374.5,294.1)" />
<use xlink:href="#f5_f" transform="matrix(5.4,0,0,5.1,220.3,281.1)" />
<use xlink:href="#f5_h" transform="matrix(12.9,0,0,12.2,93.8,294.1)" />
<use xlink:href="#f5_h" transform="matrix(12.9,0,0,12.2,143.5,294.1)" />
<use xlink:href="#f5_3k" transform="matrix(12.9,0,0,12.2,188.5,294.1)" />
<use xlink:href="#f5_3k" transform="matrix(12.9,0,0,12.2,207,294.1)" />
<use xlink:href="#f5_3k" transform="matrix(12.9,0,0,12.2,226.3,294.1)" />
<use xlink:href="#f5_34" transform="matrix(12.9,0,0,12.2,231.3,294.1)" />
<use xlink:href="#f5_x" transform="matrix(12.9,0,0,12.2,289.3,294.1)" />
<use xlink:href="#f5_f" transform="matrix(12.9,0,0,12.2,340.2,294.1)" />
</g>
</g>
<g fill="#000000" >
<use xlink:href="#f2_1j" transform="matrix(12,0,0,12,55,323.5)" />
<use xlink:href="#f2_2b" transform="matrix(12,0,0,12,65.3,323.5)" />
<use xlink:href="#f2_28" transform="matrix(12,0,0,12,74.5,323.5)" />
<use xlink:href="#f2_2h" transform="matrix(12,0,0,12,79.2,323.5)" />
<use xlink:href="#f2_2g" transform="matrix(12,0,0,12,89.5,323.5)" />
<use xlink:href="#f2_25" transform="matrix(12,0,0,12,95.7,323.5)" />
<use xlink:href="#f2_2b" transform="matrix(12,0,0,12,100.8,323.5)" />
<use xlink:href="#f2_2a" transform="matrix(12,0,0,12,109.9,323.5)" />
<use xlink:href="#f2_u" transform="matrix(12,0,0,12,120.2,323.5)" />
<use xlink:href="#f3_1j" transform="matrix(12,0,0,12,59.8,346.2)" />
<use xlink:href="#f3_2g" transform="matrix(12,0,0,12,69.7,346.2)" />
<use xlink:href="#f3_21" transform="matrix(12,0,0,12,75.2,346.2)" />
<use xlink:href="#f3_2c" transform="matrix(12,0,0,12,83.3,346.2)" />
<use xlink:href="#f3_h" transform="matrix(12,0,0,12,92.4,346.2)" />
<use xlink:href="#f3_19" transform="matrix(12,0,0,12,98.7,346.2)" />
<use xlink:href="#f3_u" transform="matrix(12,0,0,12,109.3,346.2)" />
<use xlink:href="#f3_2c" transform="matrix(12,0,0,12,119.2,346.2)" />
<use xlink:href="#f3_2e" transform="matrix(12,0,0,12,128,346.2)" />
<use xlink:href="#f3_2b" transform="matrix(12,0,0,12,133.8,346.2)" />
<use xlink:href="#f3_2g" transform="matrix(12,0,0,12,143,346.2)" />
<use xlink:href="#f3_2b" transform="matrix(12,0,0,12,148.1,346.2)" />
<use xlink:href="#f3_2a" transform="matrix(12,0,0,12,157.6,346.2)" />
<use xlink:href="#f3_1x" transform="matrix(12,0,0,12,166.4,346.2)" />
<use xlink:href="#f3_2g" transform="matrix(12,0,0,12,174.5,346.2)" />
<use xlink:href="#f3_25" transform="matrix(12,0,0,12,180,346.2)" />
<use xlink:href="#f3_2b" transform="matrix(12,0,0,12,184.4,346.2)" />
<use xlink:href="#f3_2a" transform="matrix(12,0,0,12,193.9,346.2)" />
</g>
<g clip-path="url(#c1_118)">
<g fill="#000000" >
<use xlink:href="#f3_n" transform="matrix(7.4,0,0,7.1,84,385.8)" />
<use xlink:href="#f3_m" transform="matrix(7.4,0,0,7.1,133.4,385.8)" />
<use xlink:href="#f3_n" transform="matrix(7.4,0,0,7.1,269.7,385.8)" />
<use xlink:href="#f3_m" transform="matrix(7.4,0,0,7.1,319.1,385.8)" />
<use xlink:href="#f3_m" transform="matrix(7.4,0,0,7.1,373.1,385.8)" />
<use xlink:href="#f4_18" transform="matrix(7.4,0,0,7.1,206.2,372.7)" />
<use xlink:href="#f4_13" transform="matrix(12.8,0,0,12.3,57.4,381)" />
<use xlink:href="#f4_18" transform="matrix(12.8,0,0,12.3,69.7,381)" />
<use xlink:href="#f4_13" transform="matrix(12.8,0,0,12.3,106.5,381)" />
<use xlink:href="#f4_18" transform="matrix(12.8,0,0,12.3,118.8,381)" />
<use xlink:href="#f4_1f" transform="matrix(12.8,0,0,12.3,156.2,381)" />
<use xlink:href="#f4_18" transform="matrix(12.8,0,0,12.3,169.3,381)" />
<use xlink:href="#f4_13" transform="matrix(12.8,0,0,12.3,243,381)" />
<use xlink:href="#f4_18" transform="matrix(12.8,0,0,12.3,255.3,381)" />
<use xlink:href="#f4_13" transform="matrix(12.8,0,0,12.3,292.1,381)" />
<use xlink:href="#f4_18" transform="matrix(12.8,0,0,12.3,304.4,381)" />
<use xlink:href="#f4_1f" transform="matrix(12.8,0,0,12.3,341.8,381)" />
<use xlink:href="#f4_18" transform="matrix(12.8,0,0,12.3,358.4,381)" />
<use xlink:href="#f5_3r" transform="matrix(5.4,0,0,5.1,215.4,368)" />
<use xlink:href="#f5_3r" transform="matrix(7.4,0,0,7.1,344.8,364.2)" />
<use xlink:href="#f5_h" transform="matrix(12.8,0,0,12.3,93.9,381)" />
<use xlink:href="#f5_h" transform="matrix(12.8,0,0,12.3,143.6,381)" />
<use xlink:href="#f5_3k" transform="matrix(12.8,0,0,12.3,188.6,381)" />
<use xlink:href="#f5_3k" transform="matrix(12.8,0,0,12.3,207.1,381)" />
<use xlink:href="#f5_34" transform="matrix(12.8,0,0,12.3,223.3,381)" />
<use xlink:href="#f5_h" transform="matrix(12.8,0,0,12.3,279.6,381)" />
<use xlink:href="#f5_h" transform="matrix(12.8,0,0,12.3,329.3,381)" />
</g>
</g>
<image preserveAspectRatio="none" x="160" y="355" width="61" height="32" xlink:href="img/6.png" />
<image preserveAspectRatio="none" x="158" y="374" width="283" height="32" xlink:href="img/7.png" />
<g fill="#000000" >
<use xlink:href="#f3_1j" transform="matrix(12,0,0,12,55,408.9)" />
<use xlink:href="#f3_2g" transform="matrix(12,0,0,12,65.3,408.9)" />
<use xlink:href="#f3_21" transform="matrix(12,0,0,12,70.8,408.9)" />
<use xlink:href="#f3_2c" transform="matrix(12,0,0,12,78.8,408.9)" />
<use xlink:href="#f3_h" transform="matrix(12,0,0,12,88,408.9)" />
<use xlink:href="#f3_19" transform="matrix(12,0,0,12,93.9,408.9)" />
<use xlink:href="#f3_19" transform="matrix(12,0,0,12,100.1,408.9)" />
<use xlink:href="#f3_u" transform="matrix(12,0,0,12,110.7,408.9)" />
<use xlink:href="#f3_22" transform="matrix(12,0,0,12,120.6,408.9)" />
<use xlink:href="#f3_2b" transform="matrix(12,0,0,12,126.1,408.9)" />
<use xlink:href="#f3_2e" transform="matrix(12,0,0,12,135.6,408.9)" />
<use xlink:href="#f3_29" transform="matrix(12,0,0,12,141.8,408.9)" />
<use xlink:href="#f3_1x" transform="matrix(12,0,0,12,155.4,408.9)" />
<use xlink:href="#f3_2g" transform="matrix(12,0,0,12,163.5,408.9)" />
<use xlink:href="#f3_25" transform="matrix(12,0,0,12,169.3,408.9)" />
<use xlink:href="#f3_2b" transform="matrix(12,0,0,12,173.7,408.9)" />
<use xlink:href="#f3_2a" transform="matrix(12,0,0,12,183.2,408.9)" />
<use xlink:href="#f3_2b" transform="matrix(12,0,0,12,196.8,408.9)" />
<use xlink:href="#f3_22" transform="matrix(12,0,0,12,206.3,408.9)" />
<use xlink:href="#f3_1z" transform="matrix(12,0,0,12,216.6,408.9)" />
<use xlink:href="#f3_1x" transform="matrix(12,0,0,12,224.6,408.9)" />
<use xlink:href="#f3_2e" transform="matrix(12,0,0,12,232.7,408.9)" />
<use xlink:href="#f3_1y" transform="matrix(12,0,0,12,239.3,408.9)" />
<use xlink:href="#f3_2b" transform="matrix(12,0,0,12,248.1,408.9)" />
<use xlink:href="#f3_1z" transform="matrix(12,0,0,12,257.6,408.9)" />
<use xlink:href="#f3_1x" transform="matrix(12,0,0,12,265.7,408.9)" />
<use xlink:href="#f3_2g" transform="matrix(12,0,0,12,273.7,408.9)" />
<use xlink:href="#f3_25" transform="matrix(12,0,0,12,279.2,408.9)" />
<use xlink:href="#f3_2b" transform="matrix(12,0,0,12,283.6,408.9)" />
<use xlink:href="#f3_2a" transform="matrix(12,0,0,12,293.1,408.9)" />
</g>
<g clip-path="url(#c2_118)">
<g fill="#000000" >
<use xlink:href="#f3_n" transform="matrix(7.4,0,0,7,84,447.9)" />
<use xlink:href="#f3_m" transform="matrix(7.4,0,0,7,133.5,447.9)" />
<use xlink:href="#f3_m" transform="matrix(7.4,0,0,7,187.7,447.9)" />
<use xlink:href="#f3_n" transform="matrix(7.4,0,0,7,267.6,447.9)" />
<use xlink:href="#f3_m" transform="matrix(7.4,0,0,7,321.1,447.9)" />
<use xlink:href="#f4_13" transform="matrix(12.8,0,0,12,57.4,443.2)" />
<use xlink:href="#f4_18" transform="matrix(12.8,0,0,12,69.7,443.2)" />
<use xlink:href="#f4_13" transform="matrix(12.8,0,0,12,106.5,443.2)" />
<use xlink:href="#f4_18" transform="matrix(12.8,0,0,12,118.8,443.2)" />
<use xlink:href="#f4_1f" transform="matrix(12.8,0,0,12,156.3,443.2)" />
<use xlink:href="#f4_18" transform="matrix(12.8,0,0,12,172.9,443.2)" />
<use xlink:href="#f4_13" transform="matrix(12.8,0,0,12,240.8,443.2)" />
<use xlink:href="#f4_18" transform="matrix(12.8,0,0,12,253.1,443.2)" />
<use xlink:href="#f4_13" transform="matrix(12.8,0,0,12,289.9,443.2)" />
<use xlink:href="#f4_18" transform="matrix(12.8,0,0,12,306.2,443.2)" />
<use xlink:href="#f5_3r" transform="matrix(7.4,0,0,7,159.2,426.7)" />
<use xlink:href="#f5_3r" transform="matrix(7.4,0,0,7,292.8,426.7)" />
<use xlink:href="#f5_h" transform="matrix(12.8,0,0,12,93.9,443.2)" />
<use xlink:href="#f5_h" transform="matrix(12.8,0,0,12,143.7,443.2)" />
<use xlink:href="#f5_3k" transform="matrix(12.8,0,0,12,198.4,443.2)" />
<use xlink:href="#f5_3k" transform="matrix(12.8,0,0,12,217,443.2)" />
<use xlink:href="#f5_34" transform="matrix(12.8,0,0,12,221.1,443.2)" />
<use xlink:href="#f5_h" transform="matrix(12.8,0,0,12,277.4,443.2)" />
</g>
</g>
<image preserveAspectRatio="none" x="158" y="436" width="61" height="32" xlink:href="img/8.png" />
<g fill="#000000" >
<use xlink:href="#f3_c" transform="matrix(12,0,0,12,328.6,442.7)" />
<use xlink:href="#f3_1z" transform="matrix(12,0,0,12,334.9,442.7)" />
<use xlink:href="#f3_1x" transform="matrix(12,0,0,12,342.9,442.7)" />
<use xlink:href="#f3_2e" transform="matrix(12,0,0,12,351,442.7)" />
<use xlink:href="#f3_1y" transform="matrix(12,0,0,12,357.2,442.7)" />
<use xlink:href="#f3_2b" transform="matrix(12,0,0,12,366,442.7)" />
<use xlink:href="#f3_1z" transform="matrix(12,0,0,12,375.5,442.7)" />
<use xlink:href="#f3_1x" transform="matrix(12,0,0,12,383.6,442.7)" />
<use xlink:href="#f3_2g" transform="matrix(12,0,0,12,391.7,442.7)" />
<use xlink:href="#f3_25" transform="matrix(12,0,0,12,397.1,442.7)" />
<use xlink:href="#f3_2b" transform="matrix(12,0,0,12,401.5,442.7)" />
<use xlink:href="#f3_2a" transform="matrix(12,0,0,12,411,442.7)" />
<use xlink:href="#f3_d" transform="matrix(12,0,0,12,419.8,442.7)" />
<use xlink:href="#f3_1j" transform="matrix(12,0,0,12,55,470.9)" />
<use xlink:href="#f3_2g" transform="matrix(12,0,0,12,65.3,470.9)" />
<use xlink:href="#f3_21" transform="matrix(12,0,0,12,70.8,470.9)" />
<use xlink:href="#f3_2c" transform="matrix(12,0,0,12,78.8,470.9)" />
<use xlink:href="#f3_h" transform="matrix(12,0,0,12,88,470.9)" />
<use xlink:href="#f3_19" transform="matrix(12,0,0,12,93.9,470.9)" />
<use xlink:href="#f3_19" transform="matrix(12,0,0,12,100.1,470.9)" />
<use xlink:href="#f3_19" transform="matrix(12,0,0,12,106,470.9)" />
<use xlink:href="#f3_u" transform="matrix(12,0,0,12,116.9,470.9)" />
<use xlink:href="#f3_20" transform="matrix(12,0,0,12,126.5,470.9)" />
<use xlink:href="#f3_21" transform="matrix(12,0,0,12,135.6,470.9)" />
<use xlink:href="#f3_2c" transform="matrix(12,0,0,12,143.7,470.9)" />
<use xlink:href="#f3_2e" transform="matrix(12,0,0,12,152.9,470.9)" />
<use xlink:href="#f3_2b" transform="matrix(12,0,0,12,158.7,470.9)" />
<use xlink:href="#f3_2g" transform="matrix(12,0,0,12,167.9,470.9)" />
<use xlink:href="#f3_2b" transform="matrix(12,0,0,12,173,470.9)" />
<use xlink:href="#f3_2a" transform="matrix(12,0,0,12,182.5,470.9)" />
<use xlink:href="#f3_1x" transform="matrix(12,0,0,12,191.3,470.9)" />
<use xlink:href="#f3_2g" transform="matrix(12,0,0,12,199.4,470.9)" />
<use xlink:href="#f3_25" transform="matrix(12,0,0,12,204.9,470.9)" />
<use xlink:href="#f3_2b" transform="matrix(12,0,0,12,209.3,470.9)" />
<use xlink:href="#f3_2a" transform="matrix(12,0,0,12,218.8,470.9)" />
</g>
<g clip-path="url(#c3_118)">
<g fill="#000000" >
<use xlink:href="#f3_n" transform="matrix(7.5,0,0,7,84.1,500.9)" />
<use xlink:href="#f3_m" transform="matrix(7.5,0,0,7,133.8,500.9)" />
<use xlink:href="#f3_m" transform="matrix(7.5,0,0,7,214.2,500.9)" />
<use xlink:href="#f3_m" transform="matrix(7.5,0,0,7,266.5,500.9)" />
<use xlink:href="#f4_13" transform="matrix(12.9,0,0,12.1,57.4,496.2)" />
<use xlink:href="#f4_18" transform="matrix(12.9,0,0,12.1,69.8,496.2)" />
<use xlink:href="#f4_13" transform="matrix(12.9,0,0,12.1,106.7,496.2)" />
<use xlink:href="#f4_18" transform="matrix(12.9,0,0,12.1,119,496.2)" />
<use xlink:href="#f4_13" transform="matrix(12.9,0,0,12.1,187.1,496.2)" />
<use xlink:href="#f4_18" transform="matrix(12.9,0,0,12.1,199.5,496.2)" />
<use xlink:href="#f4_13" transform="matrix(12.9,0,0,12.1,239.3,496.2)" />
<use xlink:href="#f4_18" transform="matrix(12.9,0,0,12.1,251.7,496.2)" />
<use xlink:href="#f5_h" transform="matrix(12.9,0,0,12.1,94,496.2)" />
<use xlink:href="#f5_3k" transform="matrix(12.9,0,0,12.1,144.6,496.2)" />
<use xlink:href="#f5_3k" transform="matrix(12.9,0,0,12.1,163.2,496.2)" />
<use xlink:href="#f5_34" transform="matrix(12.9,0,0,12.1,167.3,496.2)" />
<use xlink:href="#f5_x" transform="matrix(12.9,0,0,12.1,225.6,496.2)" />
</g>
</g>
<g fill="#000000" >
<use xlink:href="#f2_l" transform="matrix(12,0,0,12,55,546.5)" />
<use xlink:href="#f2_n" transform="matrix(12,0,0,12,64.2,546.5)" />
<use xlink:href="#f2_i" transform="matrix(12,0,0,12,73.4,546.5)" />
<use xlink:href="#f3_18" transform="matrix(12,0,0,12,82.9,546.5)" />
<use xlink:href="#f3_2b" transform="matrix(12,0,0,12,95.7,546.5)" />
<use xlink:href="#f3_2j" transform="matrix(12,0,0,12,105.3,546.5)" />
<use xlink:href="#f3_1x" transform="matrix(12,0,0,12,123.2,546.5)" />
<use xlink:href="#f3_2e" transform="matrix(12,0,0,12,131.3,546.5)" />
<use xlink:href="#f3_21" transform="matrix(12,0,0,12,137.5,546.5)" />
<use xlink:href="#f3_25" transform="matrix(12,0,0,12,149.9,546.5)" />
<use xlink:href="#f3_2a" transform="matrix(12,0,0,12,154.7,546.5)" />
<use xlink:href="#f3_2g" transform="matrix(12,0,0,12,163.5,546.5)" />
<use xlink:href="#f3_21" transform="matrix(12,0,0,12,169,546.5)" />
<use xlink:href="#f3_2e" transform="matrix(12,0,0,12,177,546.5)" />
<use xlink:href="#f3_24" transform="matrix(12,0,0,12,183.3,546.5)" />
<use xlink:href="#f3_1x" transform="matrix(12,0,0,12,192.1,546.5)" />
<use xlink:href="#f3_28" transform="matrix(12,0,0,12,200.5,546.5)" />
<use xlink:href="#f3_2b" transform="matrix(12,0,0,12,204.9,546.5)" />
<use xlink:href="#f3_23" transform="matrix(12,0,0,12,214.4,546.5)" />
<use xlink:href="#f3_21" transform="matrix(12,0,0,12,223.6,546.5)" />
<use xlink:href="#f3_2a" transform="matrix(12,0,0,12,232,546.5)" />
<use xlink:href="#f3_1z" transform="matrix(12,0,0,12,245.5,546.5)" />
<use xlink:href="#f3_2b" transform="matrix(12,0,0,12,253.6,546.5)" />
<use xlink:href="#f3_29" transform="matrix(12,0,0,12,263.5,546.5)" />
<use xlink:href="#f3_2c" transform="matrix(12,0,0,12,277,546.5)" />
<use xlink:href="#f3_2b" transform="matrix(12,0,0,12,286.2,546.5)" />
<use xlink:href="#f3_2h" transform="matrix(12,0,0,12,295.7,546.5)" />
<use xlink:href="#f3_2a" transform="matrix(12,0,0,12,304.9,546.5)" />
<use xlink:href="#f3_20" transform="matrix(12,0,0,12,313.7,546.5)" />
<use xlink:href="#f3_2f" transform="matrix(12,0,0,12,322.8,546.5)" />
<use xlink:href="#f3_22" transform="matrix(12,0,0,12,334.9,546.5)" />
<use xlink:href="#f3_2b" transform="matrix(12,0,0,12,340.4,546.5)" />
<use xlink:href="#f3_2e" transform="matrix(12,0,0,12,349.9,546.5)" />
<use xlink:href="#f3_29" transform="matrix(12,0,0,12,356.5,546.5)" />
<use xlink:href="#f3_21" transform="matrix(12,0,0,12,370.1,546.5)" />
<use xlink:href="#f3_20" transform="matrix(12,0,0,12,378.2,546.5)" />
<use xlink:href="#f3_z" transform="matrix(12,0,0,12,392.4,546.5)" />
<use xlink:href="#f3_1n" transform="matrix(12,0,0,12,404.9,546.5)" />
<use xlink:href="#f3_24" transform="matrix(12,0,0,12,422.1,546.5)" />
<use xlink:href="#f3_1x" transform="matrix(12,0,0,12,430.9,546.5)" />
<use xlink:href="#f3_2g" transform="matrix(12,0,0,12,439,546.5)" />
<use xlink:href="#f3_23" transform="matrix(12,0,0,12,449.2,546.5)" />
<use xlink:href="#f3_21" transform="matrix(12,0,0,12,458.4,546.5)" />
<use xlink:href="#f3_2a" transform="matrix(12,0,0,12,466.5,546.5)" />
<use xlink:href="#f3_21" transform="matrix(12,0,0,12,475.3,546.5)" />
<use xlink:href="#f3_2e" transform="matrix(12,0,0,12,483.3,546.5)" />
<use xlink:href="#f3_1x" transform="matrix(12,0,0,12,489.5,546.5)" />
<use xlink:href="#f3_28" transform="matrix(12,0,0,12,498,546.5)" />
<use xlink:href="#f3_1z" transform="matrix(12,0,0,12,507.1,546.5)" />
<use xlink:href="#f3_2b" transform="matrix(12,0,0,12,515.2,546.5)" />
<use xlink:href="#f3_29" transform="matrix(12,0,0,12,525,546.5)" />
<use xlink:href="#f3_2c" transform="matrix(12,0,0,12,538.6,546.5)" />
<use xlink:href="#f3_2b" transform="matrix(12,0,0,12,547.8,546.5)" />
<use xlink:href="#f3_2f" transform="matrix(12,0,0,12,557.3,546.5)" />
<use xlink:href="#f3_25" transform="matrix(12,0,0,12,564.6,546.5)" />
<use xlink:href="#f3_2g" transform="matrix(12,0,0,12,569,546.5)" />
<use xlink:href="#f3_25" transform="matrix(12,0,0,12,574.9,546.5)" />
<use xlink:href="#f3_2b" transform="matrix(12,0,0,12,579.3,546.5)" />
<use xlink:href="#f3_2a" transform="matrix(12,0,0,12,588.8,546.5)" />
<use xlink:href="#f3_2f" transform="matrix(12,0,0,12,597.9,546.5)" />
<use xlink:href="#f3_1z" transform="matrix(12,0,0,12,609.7,546.5)" />
<use xlink:href="#f3_1x" transform="matrix(12,0,0,12,617.7,546.5)" />
<use xlink:href="#f3_2a" transform="matrix(12,0,0,12,626.1,546.5)" />
<use xlink:href="#f3_1y" transform="matrix(12,0,0,12,639.7,546.5)" />
<use xlink:href="#f3_21" transform="matrix(12,0,0,12,648.5,546.5)" />
<use xlink:href="#f3_1x" transform="matrix(12,0,0,12,661.3,546.5)" />
<use xlink:href="#f3_2f" transform="matrix(12,0,0,12,669.4,546.5)" />
<use xlink:href="#f3_2f" transform="matrix(12,0,0,12,676.7,546.5)" />
<use xlink:href="#f3_25" transform="matrix(12,0,0,12,684,546.5)" />
<use xlink:href="#f3_23" transform="matrix(12,0,0,12,688.8,546.5)" />
<use xlink:href="#f3_24" transform="matrix(12,0,0,12,698.3,546.5)" />
<use xlink:href="#f3_21" transform="matrix(12,0,0,12,707.1,546.5)" />
<use xlink:href="#f3_20" transform="matrix(12,0,0,12,715.1,546.5)" />
<use xlink:href="#f3_2g" transform="matrix(12,0,0,12,729.1,546.5)" />
<use xlink:href="#f3_2b" transform="matrix(12,0,0,12,734.2,546.5)" />
<use xlink:href="#f3_2g" transform="matrix(12,0,0,12,748.1,546.5)" />
<use xlink:href="#f3_24" transform="matrix(12,0,0,12,753.6,546.5)" />
<use xlink:href="#f3_21" transform="matrix(12,0,0,12,762.4,546.5)" />
<use xlink:href="#f3_29" transform="matrix(12,0,0,12,770.8,546.5)" />
<use xlink:href="#f3_z" transform="matrix(12,0,0,12,789.1,546.5)" />
<use xlink:href="#f2_1j" transform="matrix(12,0,0,12,55,569.2)" />
<use xlink:href="#f2_2b" transform="matrix(12,0,0,12,65.3,569.2)" />
<use xlink:href="#f2_28" transform="matrix(12,0,0,12,74.5,569.2)" />
<use xlink:href="#f2_2h" transform="matrix(12,0,0,12,79.2,569.2)" />
<use xlink:href="#f2_2g" transform="matrix(12,0,0,12,89.5,569.2)" />
<use xlink:href="#f2_25" transform="matrix(12,0,0,12,95.7,569.2)" />
<use xlink:href="#f2_2b" transform="matrix(12,0,0,12,100.8,569.2)" />
<use xlink:href="#f2_2a" transform="matrix(12,0,0,12,109.9,569.2)" />
<use xlink:href="#f2_u" transform="matrix(12,0,0,12,120.2,569.2)" />
<use xlink:href="#f3_19" transform="matrix(12,0,0,12,59.8,590.1)" />
<use xlink:href="#f3_2a" transform="matrix(12,0,0,12,66,590.1)" />
<use xlink:href="#f3_2g" transform="matrix(12,0,0,12,74.8,590.1)" />
<use xlink:href="#f3_21" transform="matrix(12,0,0,12,80.3,590.1)" />
<use xlink:href="#f3_2e" transform="matrix(12,0,0,12,88.4,590.1)" />
<use xlink:href="#f3_24" transform="matrix(12,0,0,12,94.6,590.1)" />
<use xlink:href="#f3_1x" transform="matrix(12,0,0,12,103.4,590.1)" />
<use xlink:href="#f3_28" transform="matrix(12,0,0,12,111.8,590.1)" />
<use xlink:href="#f3_2b" transform="matrix(12,0,0,12,116.2,590.1)" />
<use xlink:href="#f3_23" transform="matrix(12,0,0,12,125.7,590.1)" />
<use xlink:href="#f3_21" transform="matrix(12,0,0,12,134.9,590.1)" />
<use xlink:href="#f3_2a" transform="matrix(12,0,0,12,142.9,590.1)" />
<use xlink:href="#f3_1z" transform="matrix(12,0,0,12,156.5,590.1)" />
<use xlink:href="#f3_2b" transform="matrix(12,0,0,12,164.6,590.1)" />
<use xlink:href="#f3_29" transform="matrix(12,0,0,12,174.4,590.1)" />
<use xlink:href="#f3_2c" transform="matrix(12,0,0,12,188,590.1)" />
<use xlink:href="#f3_2b" transform="matrix(12,0,0,12,197.2,590.1)" />
<use xlink:href="#f3_2h" transform="matrix(12,0,0,12,206.7,590.1)" />
<use xlink:href="#f3_2a" transform="matrix(12,0,0,12,215.9,590.1)" />
<use xlink:href="#f3_20" transform="matrix(12,0,0,12,224.7,590.1)" />
<use xlink:href="#f3_2f" transform="matrix(12,0,0,12,233.8,590.1)" />
<use xlink:href="#f3_1x" transform="matrix(12,0,0,12,245.5,590.1)" />
<use xlink:href="#f3_2e" transform="matrix(12,0,0,12,253.6,590.1)" />
<use xlink:href="#f3_21" transform="matrix(12,0,0,12,259.8,590.1)" />
<use xlink:href="#f3_22" transform="matrix(12,0,0,12,273,590.1)" />
<use xlink:href="#f3_2b" transform="matrix(12,0,0,12,278.5,590.1)" />
<use xlink:href="#f3_2e" transform="matrix(12,0,0,12,288,590.1)" />
<use xlink:href="#f3_29" transform="matrix(12,0,0,12,294.2,590.1)" />
<use xlink:href="#f3_21" transform="matrix(12,0,0,12,308.2,590.1)" />
<use xlink:href="#f3_20" transform="matrix(12,0,0,12,316.2,590.1)" />
<use xlink:href="#f3_20" transform="matrix(12,0,0,12,330.1,590.1)" />
<use xlink:href="#f3_2h" transform="matrix(12,0,0,12,339.3,590.1)" />
<use xlink:href="#f3_21" transform="matrix(12,0,0,12,348.5,590.1)" />
<use xlink:href="#f3_2g" transform="matrix(12,0,0,12,361.3,590.1)" />
<use xlink:href="#f3_2b" transform="matrix(12,0,0,12,366.4,590.1)" />
<use xlink:href="#f3_1z" transform="matrix(12,0,0,12,380.3,590.1)" />
<use xlink:href="#f3_2b" transform="matrix(12,0,0,12,388,590.1)" />
<use xlink:href="#f3_29" transform="matrix(12,0,0,12,397.6,590.1)" />
<use xlink:href="#f3_1y" transform="matrix(12,0,0,12,411.5,590.1)" />
<use xlink:href="#f3_25" transform="matrix(12,0,0,12,420.7,590.1)" />
<use xlink:href="#f3_2a" transform="matrix(12,0,0,12,425.8,590.1)" />
<use xlink:href="#f3_1x" transform="matrix(12,0,0,12,434.6,590.1)" />
<use xlink:href="#f3_2g" transform="matrix(12,0,0,12,442.7,590.1)" />
<use xlink:href="#f3_25" transform="matrix(12,0,0,12,448.5,590.1)" />
<use xlink:href="#f3_2b" transform="matrix(12,0,0,12,452.9,590.1)" />
<use xlink:href="#f3_2a" transform="matrix(12,0,0,12,462.4,590.1)" />
<use xlink:href="#f3_2b" transform="matrix(12,0,0,12,476,590.1)" />
<use xlink:href="#f3_22" transform="matrix(12,0,0,12,485.5,590.1)" />
<use xlink:href="#f3_2g" transform="matrix(12,0,0,12,495.7,590.1)" />
<use xlink:href="#f3_2j" transform="matrix(12,0,0,12,501.8,590.1)" />
<use xlink:href="#f3_2b" transform="matrix(12,0,0,12,515,590.1)" />
<use xlink:href="#f3_20" transform="matrix(12,0,0,12,528.9,590.1)" />
<use xlink:href="#f3_25" transform="matrix(12,0,0,12,538.1,590.1)" />
<use xlink:href="#f3_22" transform="matrix(12,0,0,12,542.8,590.1)" />
<use xlink:href="#f3_22" transform="matrix(12,0,0,12,548.7,590.1)" />
<use xlink:href="#f3_21" transform="matrix(12,0,0,12,554.6,590.1)" />
<use xlink:href="#f3_2e" transform="matrix(12,0,0,12,562.6,590.1)" />
<use xlink:href="#f3_21" transform="matrix(12,0,0,12,568.8,590.1)" />
<use xlink:href="#f3_2a" transform="matrix(12,0,0,12,577.3,590.1)" />
<use xlink:href="#f3_2g" transform="matrix(12,0,0,12,586.1,590.1)" />
<use xlink:href="#f3_24" transform="matrix(12,0,0,12,596.3,590.1)" />
<use xlink:href="#f3_1x" transform="matrix(12,0,0,12,605.1,590.1)" />
<use xlink:href="#f3_28" transform="matrix(12,0,0,12,613.5,590.1)" />
<use xlink:href="#f3_2b" transform="matrix(12,0,0,12,617.9,590.1)" />
<use xlink:href="#f3_23" transform="matrix(12,0,0,12,627.4,590.1)" />
<use xlink:href="#f3_21" transform="matrix(12,0,0,12,636.6,590.1)" />
<use xlink:href="#f3_2a" transform="matrix(12,0,0,12,645,590.1)" />
<use xlink:href="#f3_2f" transform="matrix(12,0,0,12,653.8,590.1)" />
<use xlink:href="#f3_i" transform="matrix(12,0,0,12,660.8,590.1)" />
<use xlink:href="#f3_17" transform="matrix(12,0,0,12,670.3,590.1)" />
<use xlink:href="#f3_21" transform="matrix(12,0,0,12,683.5,590.1)" />
<use xlink:href="#f3_2a" transform="matrix(12,0,0,12,691.9,590.1)" />
<use xlink:href="#f3_21" transform="matrix(12,0,0,12,700.7,590.1)" />
<use xlink:href="#f3_2e" transform="matrix(12,0,0,12,708.7,590.1)" />
<use xlink:href="#f3_1x" transform="matrix(12,0,0,12,715,590.1)" />
<use xlink:href="#f3_28" transform="matrix(12,0,0,12,723.4,590.1)" />
<use xlink:href="#f3_22" transform="matrix(12,0,0,12,732.9,590.1)" />
<use xlink:href="#f3_2b" transform="matrix(12,0,0,12,738.4,590.1)" />
<use xlink:href="#f3_2e" transform="matrix(12,0,0,12,747.9,590.1)" />
<use xlink:href="#f3_29" transform="matrix(12,0,0,12,754.5,590.1)" />
<use xlink:href="#f3_2h" transform="matrix(12,0,0,12,768.1,590.1)" />
<use xlink:href="#f3_28" transform="matrix(12,0,0,12,777.6,590.1)" />
<use xlink:href="#f3_1x" transform="matrix(12,0,0,12,782.3,590.1)" />
<use xlink:href="#f3_2b" transform="matrix(12,0,0,12,795.5,590.1)" />
<use xlink:href="#f3_22" transform="matrix(12,0,0,12,805,590.1)" />
<use xlink:href="#f3_19" transform="matrix(12,0,0,12,55,611.4)" />
<use xlink:href="#f3_2a" transform="matrix(12,0,0,12,61.3,611.4)" />
<use xlink:href="#f3_2g" transform="matrix(12,0,0,12,70.1,611.4)" />
<use xlink:href="#f3_21" transform="matrix(12,0,0,12,75.5,611.4)" />
<use xlink:href="#f3_2e" transform="matrix(12,0,0,12,83.6,611.4)" />
<use xlink:href="#f3_24" transform="matrix(12,0,0,12,89.8,611.4)" />
<use xlink:href="#f3_1x" transform="matrix(12,0,0,12,98.6,611.4)" />
<use xlink:href="#f3_28" transform="matrix(12,0,0,12,107,611.4)" />
<use xlink:href="#f3_2b" transform="matrix(12,0,0,12,111.4,611.4)" />
<use xlink:href="#f3_23" transform="matrix(12,0,0,12,120.9,611.4)" />
<use xlink:href="#f3_21" transform="matrix(12,0,0,12,130.1,611.4)" />
<use xlink:href="#f3_2a" transform="matrix(12,0,0,12,138.5,611.4)" />
<use xlink:href="#f3_1z" transform="matrix(12,0,0,12,152.1,611.4)" />
<use xlink:href="#f3_2b" transform="matrix(12,0,0,12,160.1,611.4)" />
<use xlink:href="#f3_29" transform="matrix(12,0,0,12,169.7,611.4)" />
<use xlink:href="#f3_2c" transform="matrix(12,0,0,12,183.2,611.4)" />
<use xlink:href="#f3_2b" transform="matrix(12,0,0,12,192.4,611.4)" />
<use xlink:href="#f3_2h" transform="matrix(12,0,0,12,201.9,611.4)" />
<use xlink:href="#f3_2a" transform="matrix(12,0,0,12,211.1,611.4)" />
<use xlink:href="#f3_20" transform="matrix(12,0,0,12,219.9,611.4)" />
<use xlink:href="#f3_2f" transform="matrix(12,0,0,12,229.4,611.4)" />
<use xlink:href="#f3_1x" transform="matrix(12,0,0,12,241.1,611.4)" />
<use xlink:href="#f3_2e" transform="matrix(12,0,0,12,249.2,611.4)" />
<use xlink:href="#f3_21" transform="matrix(12,0,0,12,255.4,611.4)" />
<use xlink:href="#f3_c" transform="matrix(12,0,0,12,55,632.3)" />
<use xlink:href="#f3_25" transform="matrix(12,0,0,12,61.6,632.3)" />
<use xlink:href="#f3_d" transform="matrix(12,0,0,12,66,632.3)" />
<use xlink:href="#f3_11" transform="matrix(12,0,0,12,77,632.3)" />
<use xlink:href="#f3_1o" transform="matrix(12,0,0,12,89.8,632.3)" />
<use xlink:href="#f3_c" transform="matrix(12,0,0,12,55,653.2)" />
<use xlink:href="#f3_25" transform="matrix(12,0,0,12,61.6,653.2)" />
<use xlink:href="#f3_25" transform="matrix(12,0,0,12,66.4,653.2)" />
<use xlink:href="#f3_d" transform="matrix(12,0,0,12,70.8,653.2)" />
<use xlink:href="#f3_11" transform="matrix(12,0,0,12,82.1,653.2)" />
<use xlink:href="#f3_1o" transform="matrix(12,0,0,12,94.9,653.2)" />
<use xlink:href="#f3_n" transform="matrix(12,0,0,12,108.2,653.2)" />
<use xlink:href="#f3_c" transform="matrix(12,0,0,12,55,674.5)" />
<use xlink:href="#f3_25" transform="matrix(12,0,0,12,61.6,674.5)" />
<use xlink:href="#f3_25" transform="matrix(12,0,0,12,66.4,674.5)" />
<use xlink:href="#f3_25" transform="matrix(12,0,0,12,71.2,674.5)" />
<use xlink:href="#f3_d" transform="matrix(12,0,0,12,75.9,674.5)" />
<use xlink:href="#f3_11" transform="matrix(12,0,0,12,87.2,674.5)" />
<use xlink:href="#f3_1o" transform="matrix(12,0,0,12,100.1,674.5)" />
<use xlink:href="#f3_p" transform="matrix(12,0,0,12,113.3,674.5)" />
<use xlink:href="#f3_c" transform="matrix(12,0,0,12,55,695.4)" />
<use xlink:href="#f3_25" transform="matrix(12,0,0,12,61.6,695.4)" />
<use xlink:href="#f3_2i" transform="matrix(12,0,0,12,66.4,695.4)" />
<use xlink:href="#f3_d" transform="matrix(12,0,0,12,75.2,695.4)" />
<use xlink:href="#f3_11" transform="matrix(12,0,0,12,86.1,695.4)" />
<use xlink:href="#f3_1o" transform="matrix(12,0,0,12,99,695.4)" />
<use xlink:href="#f3_r" transform="matrix(12,0,0,12,112.2,695.4)" />
<use xlink:href="#f3_11" transform="matrix(12,0,0,12,55,716.6)" />
<use xlink:href="#f3_x" transform="matrix(12,0,0,12,72.6,716.6)" />
<use xlink:href="#f3_1c" transform="matrix(12,0,0,12,87.6,716.6)" />
<use xlink:href="#f3_21" transform="matrix(12,0,0,12,98.6,716.6)" />
<use xlink:href="#f3_2f" transform="matrix(12,0,0,12,106.7,716.6)" />
<use xlink:href="#f3_2f" transform="matrix(12,0,0,12,114,716.6)" />
<use xlink:href="#f3_15" transform="matrix(12,0,0,12,125.7,716.6)" />
<use xlink:href="#f3_i" transform="matrix(12,0,0,12,137.1,716.6)" />
<use xlink:href="#f3_1e" transform="matrix(12,0,0,12,141.8,716.6)" />
<use xlink:href="#f3_i" transform="matrix(12,0,0,12,155.1,716.6)" />
<use xlink:href="#f3_24" transform="matrix(12,0,0,12,164.5,716.6)" />
<use xlink:href="#f3_1x" transform="matrix(12,0,0,12,173.3,716.6)" />
<use xlink:href="#f3_28" transform="matrix(12,0,0,12,181.7,716.6)" />
<use xlink:href="#f3_2b" transform="matrix(12,0,0,12,186.1,716.6)" />
<use xlink:href="#f3_23" transform="matrix(12,0,0,12,195.7,716.6)" />
<use xlink:href="#f3_21" transform="matrix(12,0,0,12,204.8,716.6)" />
<use xlink:href="#f3_2a" transform="matrix(12,0,0,12,212.9,716.6)" />
<use xlink:href="#f3_1o" transform="matrix(12,0,0,12,55,737.6)" />
<use xlink:href="#f3_x" transform="matrix(12,0,0,12,73,737.6)" />
<use xlink:href="#f3_1d" transform="matrix(12,0,0,12,88,737.6)" />
<use xlink:href="#f3_2b" transform="matrix(12,0,0,12,104.1,737.6)" />
<use xlink:href="#f3_2e" transform="matrix(12,0,0,12,113.3,737.6)" />
<use xlink:href="#f3_21" transform="matrix(12,0,0,12,119.5,737.6)" />
<use xlink:href="#f3_15" transform="matrix(12,0,0,12,132.3,737.6)" />
<use xlink:href="#f3_i" transform="matrix(12,0,0,12,143.3,737.6)" />
<use xlink:href="#f3_1e" transform="matrix(12,0,0,12,148.1,737.6)" />
<use xlink:href="#f3_i" transform="matrix(12,0,0,12,161.3,737.6)" />
<use xlink:href="#f3_24" transform="matrix(12,0,0,12,170.4,737.6)" />
<use xlink:href="#f3_1x" transform="matrix(12,0,0,12,179.2,737.6)" />
<use xlink:href="#f3_28" transform="matrix(12,0,0,12,187.6,737.6)" />
<use xlink:href="#f3_2b" transform="matrix(12,0,0,12,192,737.6)" />
<use xlink:href="#f3_23" transform="matrix(12,0,0,12,201.6,737.6)" />
<use xlink:href="#f3_21" transform="matrix(12,0,0,12,210.7,737.6)" />
<use xlink:href="#f3_2a" transform="matrix(12,0,0,12,218.8,737.6)" />
<use xlink:href="#f2_l" transform="matrix(12,0,0,12,55,781.9)" />
<use xlink:href="#f2_o" transform="matrix(12,0,0,12,64.2,781.9)" />
<use xlink:href="#f2_i" transform="matrix(12,0,0,12,73.4,781.9)" />
<use xlink:href="#f3_14" transform="matrix(12,0,0,12,82.9,781.9)" />
<use xlink:href="#f3_2e" transform="matrix(12,0,0,12,96.1,781.9)" />
<use xlink:href="#f3_1x" transform="matrix(12,0,0,12,102.3,781.9)" />
<use xlink:href="#f3_2j" transform="matrix(12,0,0,12,110.4,781.9)" />
<use xlink:href="#f3_2g" transform="matrix(12,0,0,12,128,781.9)" />
<use xlink:href="#f3_24" transform="matrix(12,0,0,12,133.5,781.9)" />
<use xlink:href="#f3_21" transform="matrix(12,0,0,12,142.3,781.9)" />
<use xlink:href="#f3_2f" transform="matrix(12,0,0,12,155.1,781.9)" />
<use xlink:href="#f3_2g" transform="matrix(12,0,0,12,161.7,781.9)" />
<use xlink:href="#f3_2e" transform="matrix(12,0,0,12,167.2,781.9)" />
<use xlink:href="#f3_2h" transform="matrix(12,0,0,12,173.4,781.9)" />
<use xlink:href="#f3_1z" transform="matrix(12,0,0,12,182.5,781.9)" />
<use xlink:href="#f3_2g" transform="matrix(12,0,0,12,190.2,781.9)" />
<use xlink:href="#f3_2h" transform="matrix(12,0,0,12,195.7,781.9)" />
<use xlink:href="#f3_2e" transform="matrix(12,0,0,12,204.9,781.9)" />
<use xlink:href="#f3_21" transform="matrix(12,0,0,12,211.1,781.9)" />
<use xlink:href="#f3_2f" transform="matrix(12,0,0,12,219.2,781.9)" />
<use xlink:href="#f3_2b" transform="matrix(12,0,0,12,230.5,781.9)" />
<use xlink:href="#f3_22" transform="matrix(12,0,0,12,240.1,781.9)" />
<use xlink:href="#f3_2g" transform="matrix(12,0,0,12,250.3,781.9)" />
<use xlink:href="#f3_24" transform="matrix(12,0,0,12,255.8,781.9)" />
<use xlink:href="#f3_21" transform="matrix(12,0,0,12,264.6,781.9)" />
<use xlink:href="#f3_22" transform="matrix(12,0,0,12,277.4,781.9)" />
<use xlink:href="#f3_2b" transform="matrix(12,0,0,12,282.9,781.9)" />
<use xlink:href="#f3_28" transform="matrix(12,0,0,12,292.8,781.9)" />
<use xlink:href="#f3_28" transform="matrix(12,0,0,12,297.6,781.9)" />
<use xlink:href="#f3_2b" transform="matrix(12,0,0,12,302,781.9)" />
<use xlink:href="#f3_2j" transform="matrix(12,0,0,12,311.5,781.9)" />
<use xlink:href="#f3_25" transform="matrix(12,0,0,12,325,781.9)" />
<use xlink:href="#f3_2a" transform="matrix(12,0,0,12,329.8,781.9)" />
<use xlink:href="#f3_23" transform="matrix(12,0,0,12,338.9,781.9)" />
<use xlink:href="#f3_29" transform="matrix(12,0,0,12,353.2,781.9)" />
<use xlink:href="#f3_2b" transform="matrix(12,0,0,12,366.8,781.9)" />
<use xlink:href="#f3_28" transform="matrix(12,0,0,12,376.7,781.9)" />
<use xlink:href="#f3_21" transform="matrix(12,0,0,12,381.4,781.9)" />
<use xlink:href="#f3_1z" transform="matrix(12,0,0,12,389.5,781.9)" />
<use xlink:href="#f3_2h" transform="matrix(12,0,0,12,397.6,781.9)" />
<use xlink:href="#f3_28" transform="matrix(12,0,0,12,407.1,781.9)" />
<use xlink:href="#f3_21" transform="matrix(12,0,0,12,411.9,781.9)" />
<use xlink:href="#f3_2f" transform="matrix(12,0,0,12,419.9,781.9)" />
<use xlink:href="#f3_c" transform="matrix(12,0,0,12,55,804.3)" />
<use xlink:href="#f3_25" transform="matrix(12,0,0,12,61.6,804.3)" />
<use xlink:href="#f3_d" transform="matrix(12,0,0,12,66,804.3)" />
<use xlink:href="#f3_1o" transform="matrix(12,0,0,12,77,804.3)" />
<use xlink:href="#f3_21" transform="matrix(12,0,0,12,90.2,804.3)" />
<use xlink:href="#f3_16" transform="matrix(12,0,0,12,98.2,804.3)" />
<use xlink:href="#f3_q" transform="matrix(7.9,0,0,7.9,108.2,805.8)" />
<use xlink:href="#f3_c" transform="matrix(12,0,0,12,55,825.9)" />
<use xlink:href="#f3_25" transform="matrix(12,0,0,12,61.6,825.9)" />
<use xlink:href="#f3_25" transform="matrix(12,0,0,12,66.4,825.9)" />
<use xlink:href="#f3_d" transform="matrix(12,0,0,12,70.8,825.9)" />
<use xlink:href="#f3_18" transform="matrix(12,0,0,12,81.7,825.9)" />
<use xlink:href="#f3_m" transform="matrix(7.9,0,0,7.9,95,827.4)" />
<use xlink:href="#f3_1j" transform="matrix(12,0,0,12,101.2,825.9)" />
<use xlink:href="#f3_m" transform="matrix(7.9,0,0,7.9,111.5,827.4)" />
<use xlink:href="#f3_1f" transform="matrix(12,0,0,12,117.7,825.9)" />
<use xlink:href="#f3_r" transform="matrix(7.9,0,0,7.9,130.9,827.4)" />
<use xlink:href="#f2_1j" transform="matrix(12,0,0,12,55,871.4)" />
<use xlink:href="#f2_2b" transform="matrix(12,0,0,12,65.3,871.4)" />
<use xlink:href="#f2_28" transform="matrix(12,0,0,12,74.5,871.4)" />
<use xlink:href="#f2_2h" transform="matrix(12,0,0,12,79.2,871.4)" />
<use xlink:href="#f2_2g" transform="matrix(12,0,0,12,89.5,871.4)" />
<use xlink:href="#f2_25" transform="matrix(12,0,0,12,95.7,871.4)" />
<use xlink:href="#f2_2b" transform="matrix(12,0,0,12,100.8,871.4)" />
<use xlink:href="#f2_2a" transform="matrix(12,0,0,12,109.9,871.4)" />
<use xlink:href="#f2_u" transform="matrix(12,0,0,12,120.2,871.4)" />
<use xlink:href="#f2_l" transform="matrix(12,0,0,12,55,991.7)" />
<use xlink:href="#f2_p" transform="matrix(12,0,0,12,64.2,991.7)" />
<use xlink:href="#f2_i" transform="matrix(12,0,0,12,73.4,991.7)" />
<use xlink:href="#f3_11" transform="matrix(12,0,0,12,82.9,991.7)" />
<use xlink:href="#f3_28" transform="matrix(12,0,0,12,96.1,991.7)" />
<use xlink:href="#f3_2h" transform="matrix(12,0,0,12,100.5,991.7)" />
<use xlink:href="#f3_29" transform="matrix(12,0,0,12,110,991.7)" />
<use xlink:href="#f3_25" transform="matrix(12,0,0,12,124.3,991.7)" />
<use xlink:href="#f3_2a" transform="matrix(12,0,0,12,129.1,991.7)" />
<use xlink:href="#f3_25" transform="matrix(12,0,0,12,138.6,991.7)" />
<use xlink:href="#f3_2h" transform="matrix(12,0,0,12,143.4,991.7)" />
<use xlink:href="#f3_29" transform="matrix(12,0,0,12,152.9,991.7)" />
<use xlink:href="#f3_1z" transform="matrix(12,0,0,12,171.2,991.7)" />
<use xlink:href="#f3_2e" transform="matrix(12,0,0,12,179.3,991.7)" />
<use xlink:href="#f3_2l" transform="matrix(12,0,0,12,185.8,991.7)" />
<use xlink:href="#f3_2f" transform="matrix(12,0,0,12,194.6,991.7)" />
<use xlink:href="#f3_2g" transform="matrix(12,0,0,12,201.6,991.7)" />
<use xlink:href="#f3_1x" transform="matrix(12,0,0,12,207.1,991.7)" />
<use xlink:href="#f3_28" transform="matrix(12,0,0,12,215.5,991.7)" />
<use xlink:href="#f3_25" transform="matrix(12,0,0,12,220.3,991.7)" />
<use xlink:href="#f3_2m" transform="matrix(12,0,0,12,225,991.7)" />
<use xlink:href="#f3_21" transform="matrix(12,0,0,12,233.5,991.7)" />
<use xlink:href="#f3_2f" transform="matrix(12,0,0,12,241.5,991.7)" />
<use xlink:href="#f3_25" transform="matrix(12,0,0,12,253.6,991.7)" />
<use xlink:href="#f3_2a" transform="matrix(12,0,0,12,258.4,991.7)" />
<use xlink:href="#f3_1x" transform="matrix(12,0,0,12,271.9,991.7)" />
<use xlink:href="#f3_2a" transform="matrix(12,0,0,12,280.3,991.7)" />
<use xlink:href="#f3_22" transform="matrix(12,0,0,12,294.2,991.7)" />
<use xlink:href="#f3_1z" transform="matrix(12,0,0,12,299.7,991.7)" />
<use xlink:href="#f3_1z" transform="matrix(12,0,0,12,308.2,991.7)" />
<use xlink:href="#f3_2f" transform="matrix(12,0,0,12,321,991.7)" />
<use xlink:href="#f3_2g" transform="matrix(12,0,0,12,327.9,991.7)" />
<use xlink:href="#f3_2e" transform="matrix(12,0,0,12,333.4,991.7)" />
<use xlink:href="#f3_2h" transform="matrix(12,0,0,12,339.6,991.7)" />
<use xlink:href="#f3_1z" transform="matrix(12,0,0,12,348.8,991.7)" />
<use xlink:href="#f3_2g" transform="matrix(12,0,0,12,356.5,991.7)" />
<use xlink:href="#f3_2h" transform="matrix(12,0,0,12,362,991.7)" />
<use xlink:href="#f3_2e" transform="matrix(12,0,0,12,371.2,991.7)" />
<use xlink:href="#f3_21" transform="matrix(12,0,0,12,377.4,991.7)" />
<use xlink:href="#f3_i" transform="matrix(12,0,0,12,385.1,991.7)" />
<use xlink:href="#f3_11" transform="matrix(12,0,0,12,394.6,991.7)" />
<use xlink:href="#f3_2g" transform="matrix(12,0,0,12,407.4,991.7)" />
<use xlink:href="#f3_2b" transform="matrix(12,0,0,12,412.5,991.7)" />
<use xlink:href="#f3_29" transform="matrix(12,0,0,12,421.7,991.7)" />
<use xlink:href="#f3_25" transform="matrix(12,0,0,12,436,991.7)" />
<use xlink:href="#f3_1z" transform="matrix(12,0,0,12,440.8,991.7)" />
<use xlink:href="#f3_2e" transform="matrix(12,0,0,12,453.6,991.7)" />
<use xlink:href="#f3_1x" transform="matrix(12,0,0,12,459.8,991.7)" />
<use xlink:href="#f3_20" transform="matrix(12,0,0,12,467.8,991.7)" />
<use xlink:href="#f3_25" transform="matrix(12,0,0,12,477.4,991.7)" />
<use xlink:href="#f3_2h" transform="matrix(12,0,0,12,481.8,991.7)" />
<use xlink:href="#f3_2f" transform="matrix(12,0,0,12,491.3,991.7)" />
<use xlink:href="#f3_2b" transform="matrix(12,0,0,12,503,991.7)" />
<use xlink:href="#f3_22" transform="matrix(12,0,0,12,512.5,991.7)" />
<use xlink:href="#f3_2g" transform="matrix(12,0,0,12,522.8,991.7)" />
<use xlink:href="#f3_24" transform="matrix(12,0,0,12,528.2,991.7)" />
<use xlink:href="#f3_21" transform="matrix(12,0,0,12,537,991.7)" />
<use xlink:href="#f3_29" transform="matrix(12,0,0,12,550.2,991.7)" />
<use xlink:href="#f3_21" transform="matrix(12,0,0,12,563.8,991.7)" />
<use xlink:href="#f3_2g" transform="matrix(12,0,0,12,571.9,991.7)" />
<use xlink:href="#f3_1x" transform="matrix(12,0,0,12,577.3,991.7)" />
<use xlink:href="#f3_28" transform="matrix(12,0,0,12,585.7,991.7)" />
<use xlink:href="#f3_25" transform="matrix(12,0,0,12,595.3,991.7)" />
<use xlink:href="#f3_2f" transform="matrix(12,0,0,12,600,991.7)" />
<use xlink:href="#f3_l" transform="matrix(12,0,0,12,611.7,991.7)" />
<use xlink:href="#f3_m" transform="matrix(12,0,0,12,620.9,991.7)" />
<use xlink:href="#f3_p" transform="matrix(12,0,0,12,630.1,991.7)" />
<use xlink:href="#f3_2c" transform="matrix(12,0,0,12,639.2,991.7)" />
<use xlink:href="#f3_29" transform="matrix(12,0,0,12,648.8,991.7)" />
<use xlink:href="#f3_i" transform="matrix(12,0,0,12,662.3,991.7)" />
<use xlink:href="#f3_1n" transform="matrix(12,0,0,12,671.8,991.7)" />
<use xlink:href="#f3_24" transform="matrix(12,0,0,12,689.1,991.7)" />
<use xlink:href="#f3_1x" transform="matrix(12,0,0,12,697.9,991.7)" />
<use xlink:href="#f3_2g" transform="matrix(12,0,0,12,705.9,991.7)" />
<use xlink:href="#f3_25" transform="matrix(12,0,0,12,716.5,991.7)" />
<use xlink:href="#f3_2f" transform="matrix(12,0,0,12,720.9,991.7)" />
<use xlink:href="#f3_2g" transform="matrix(12,0,0,12,732.6,991.7)" />
<use xlink:href="#f3_24" transform="matrix(12,0,0,12,738.1,991.7)" />
<use xlink:href="#f3_21" transform="matrix(12,0,0,12,746.9,991.7)" />
<use xlink:href="#f3_28" transform="matrix(12,0,0,12,760.1,991.7)" />
<use xlink:href="#f3_21" transform="matrix(12,0,0,12,764.5,991.7)" />
<use xlink:href="#f3_2a" transform="matrix(12,0,0,12,772.9,991.7)" />
<use xlink:href="#f3_23" transform="matrix(12,0,0,12,781.7,991.7)" />
<use xlink:href="#f3_2g" transform="matrix(12,0,0,12,790.9,991.7)" />
<use xlink:href="#f3_24" transform="matrix(12,0,0,12,796.4,991.7)" />
<use xlink:href="#f3_2b" transform="matrix(12,0,0,12,809.9,991.7)" />
<use xlink:href="#f3_22" transform="matrix(12,0,0,12,819.4,991.7)" />
<use xlink:href="#f3_2g" transform="matrix(12,0,0,12,829.7,991.7)" />
<use xlink:href="#f3_24" transform="matrix(12,0,0,12,835.2,991.7)" />
<use xlink:href="#f3_21" transform="matrix(12,0,0,12,844,991.7)" />
<use xlink:href="#f3_2f" transform="matrix(12,0,0,12,55,1013)" />
<use xlink:href="#f3_25" transform="matrix(12,0,0,12,62.4,1013)" />
<use xlink:href="#f3_20" transform="matrix(12,0,0,12,66.8,1013)" />
<use xlink:href="#f3_21" transform="matrix(12,0,0,12,76.3,1013)" />
<use xlink:href="#f3_2b" transform="matrix(12,0,0,12,89.1,1013)" />
<use xlink:href="#f3_22" transform="matrix(12,0,0,12,98.6,1013)" />
<use xlink:href="#f3_2g" transform="matrix(12,0,0,12,108.8,1013)" />
<use xlink:href="#f3_24" transform="matrix(12,0,0,12,114.3,1013)" />
<use xlink:href="#f3_21" transform="matrix(12,0,0,12,123.1,1013)" />
<use xlink:href="#f3_2h" transform="matrix(12,0,0,12,135.9,1013)" />
<use xlink:href="#f3_2a" transform="matrix(12,0,0,12,145.1,1013)" />
<use xlink:href="#f3_25" transform="matrix(12,0,0,12,154.3,1013)" />
<use xlink:href="#f3_2g" transform="matrix(12,0,0,12,158.7,1013)" />
<use xlink:href="#f3_1z" transform="matrix(12,0,0,12,168.9,1013)" />
<use xlink:href="#f3_21" transform="matrix(12,0,0,12,177,1013)" />
<use xlink:href="#f3_28" transform="matrix(12,0,0,12,185.4,1013)" />
<use xlink:href="#f3_28" transform="matrix(12,0,0,12,190.2,1013)" />
<use xlink:href="#f3_2b" transform="matrix(12,0,0,12,199.7,1013)" />
<use xlink:href="#f3_22" transform="matrix(12,0,0,12,209.2,1013)" />
<use xlink:href="#f3_2g" transform="matrix(12,0,0,12,219.4,1013)" />
<use xlink:href="#f3_24" transform="matrix(12,0,0,12,224.9,1013)" />
<use xlink:href="#f3_21" transform="matrix(12,0,0,12,233.7,1013)" />
<use xlink:href="#f3_29" transform="matrix(12,0,0,12,246.9,1013)" />
<use xlink:href="#f3_21" transform="matrix(12,0,0,12,260.5,1013)" />
<use xlink:href="#f3_2g" transform="matrix(12,0,0,12,268.5,1013)" />
<use xlink:href="#f3_1x" transform="matrix(12,0,0,12,274,1013)" />
<use xlink:href="#f3_28" transform="matrix(12,0,0,12,282.4,1013)" />
<use xlink:href="#f3_z" transform="matrix(12,0,0,12,291.9,1013)" />
<use xlink:href="#f2_1j" transform="matrix(12,0,0,12,55,1034.3)" />
<use xlink:href="#f2_2b" transform="matrix(12,0,0,12,65.3,1034.3)" />
<use xlink:href="#f2_28" transform="matrix(12,0,0,12,74.5,1034.3)" />
<use xlink:href="#f2_2h" transform="matrix(12,0,0,12,79.2,1034.3)" />
<use xlink:href="#f2_2g" transform="matrix(12,0,0,12,89.5,1034.3)" />
<use xlink:href="#f2_25" transform="matrix(12,0,0,12,95.7,1034.3)" />
<use xlink:href="#f2_2b" transform="matrix(12,0,0,12,100.8,1034.3)" />
<use xlink:href="#f2_2a" transform="matrix(12,0,0,12,109.9,1034.3)" />
<use xlink:href="#f2_u" transform="matrix(12,0,0,12,120.2,1034.3)" />
<use xlink:href="#f3_16" transform="matrix(12,0,0,12,59.8,1057)" />
<use xlink:href="#f3_2b" transform="matrix(12,0,0,12,69.7,1057)" />
<use xlink:href="#f3_2e" transform="matrix(12,0,0,12,79.2,1057)" />
<use xlink:href="#f3_16" transform="matrix(12,0,0,12,89.8,1057)" />
<use xlink:href="#f3_i" transform="matrix(12,0,0,12,99.7,1057)" />
<use xlink:href="#f3_13" transform="matrix(12,0,0,12,104.5,1057)" />
<use xlink:href="#f3_i" transform="matrix(12,0,0,12,116.6,1057)" />
<use xlink:href="#f3_13" transform="matrix(12,0,0,12,121.3,1057)" />
<use xlink:href="#f3_i" transform="matrix(12,0,0,12,133.4,1057)" />
</g>
<path d="M59.2,1080.4l1.8,-1m.1,0l4.4,7.3m0,0l4.9,-19.3m0,0H80.9" class="g2_118" />
<path fill-rule="evenodd" d="M58.2,1079.4l2.6,-1.3l3.9,5.9l4.5,-17.7h11v.9H69.9l-4.7,18.7h-.9l-4.5,-6.6l-1.3,.7l-.3,-.6Z" class="g3_118" />
<path d="M59.2,1112.3l1.8,-1.1m.1,0l4.4,7.2m0,0l4.9,-19.1m0,-.1H80.9" class="g2_118" />
<path fill-rule="evenodd" d="M58.2,1111.3l2.6,-1.4l3.9,5.9L69.2,1098h11v1H69.9l-4.7,18.7h-.9l-4.5,-6.6l-1.3,.7l-.3,-.5Z" class="g3_118" />
<g clip-path="url(#c4_118)">
<g fill="#000000" >
<use xlink:href="#f3_m" transform="matrix(12.6,0,0,12.3,70.4,1084.5)" />
<use xlink:href="#f3_o" transform="matrix(12.6,0,0,12.3,108,1084.5)" />
<use xlink:href="#f3_m" transform="matrix(12.6,0,0,12.3,70.4,1116.3)" />
<use xlink:href="#f3_o" transform="matrix(12.6,0,0,12.3,108,1116.3)" />
<use xlink:href="#f3_l" transform="matrix(12.6,0,0,12.3,129.5,1116.3)" />
<use xlink:href="#f3_m" transform="matrix(12.6,0,0,12.3,138.7,1116.3)" />
<use xlink:href="#f3_p" transform="matrix(12.6,0,0,12.3,147.9,1116.3)" />
<use xlink:href="#f4_1x" transform="matrix(12.6,0,0,12.3,79.9,1084.5)" />
<use xlink:href="#f4_2e" transform="matrix(12.6,0,0,12.3,117.5,1084.5)" />
<use xlink:href="#f4_1x" transform="matrix(12.6,0,0,12.3,79.9,1116.3)" />
<use xlink:href="#f4_2c" transform="matrix(12.6,0,0,12.3,159.4,1116.3)" />
<use xlink:href="#f4_29" transform="matrix(12.6,0,0,12.3,168.5,1116.3)" />
<use xlink:href="#f5_x" transform="matrix(12.6,0,0,12.3,93.7,1084.5)" />
<use xlink:href="#f5_x" transform="matrix(12.6,0,0,12.3,93.7,1116.3)" />
<use xlink:href="#f5_3a" transform="matrix(12.6,0,0,12.3,118.9,1116.3)" />
</g>
</g>
<path d="M90.7,1165.8l1.9,-1m0,0l4.4,7.1m0,0l4.9,-19m0,0h10.6" class="g4_118" />
<path fill-rule="evenodd" d="M89.8,1164.8l2.5,-1.4l4,5.9l4.5,-17.6h10.9v.9H101.5l-4.8,18.6h-.9l-4.4,-6.5l-1.3,.6l-.3,-.5Z" class="g3_118" />
<path d="M86.4,1149.5h28.7" class="g5_118" />
<path d="M163.4,1150l1.9,-1m0,0l4.5,7.2m0,0l4.8,-19m0,0h10.6" class="g4_118" />
<path fill-rule="evenodd" d="M162.5,1149.1l2.6,-1.4l3.9,5.9l4.5,-17.6h11v.9H174.2l-4.7,18.6h-.9l-4.5,-6.5l-1.3,.6l-.3,-.5Z" class="g3_118" />
<g clip-path="url(#c5_118)">
<g fill="#000000" >
<use xlink:href="#f3_p" transform="matrix(12.7,0,0,12.2,87,1142.5)" />
<use xlink:href="#f3_k" transform="matrix(12.7,0,0,12.2,96.2,1142.5)" />
<use xlink:href="#f3_k" transform="matrix(12.7,0,0,12.2,105.4,1142.5)" />
<use xlink:href="#f3_m" transform="matrix(12.7,0,0,12.2,134.4,1154)" />
<use xlink:href="#f3_p" transform="matrix(12.7,0,0,12.2,143.6,1154)" />
<use xlink:href="#f3_k" transform="matrix(12.7,0,0,12.2,152.8,1154)" />
<use xlink:href="#f3_m" transform="matrix(12.7,0,0,12.2,174.7,1154)" />
<use xlink:href="#f3_n" transform="matrix(12.7,0,0,12.2,203.1,1154)" />
<use xlink:href="#f3_p" transform="matrix(12.7,0,0,12.2,212.3,1154)" />
<use xlink:href="#f3_n" transform="matrix(12.7,0,0,12.2,221.5,1154)" />
<use xlink:href="#f3_i" transform="matrix(12.7,0,0,12.2,230.7,1154)" />
<use xlink:href="#f3_p" transform="matrix(12.7,0,0,12.2,235.3,1154)" />
<use xlink:href="#f3_m" transform="matrix(12.7,0,0,12.2,102,1169.7)" />
<use xlink:href="#f4_1x" transform="matrix(12.7,0,0,12.2,57.9,1154)" />
<use xlink:href="#f4_2c" transform="matrix(12.7,0,0,12.2,246.7,1154)" />
<use xlink:href="#f4_29" transform="matrix(12.7,0,0,12.2,255.9,1154)" />
<use xlink:href="#f5_x" transform="matrix(12.7,0,0,12.2,71.7,1154)" />
<use xlink:href="#f5_x" transform="matrix(12.7,0,0,12.2,120,1154)" />
<use xlink:href="#f5_x" transform="matrix(12.7,0,0,12.2,189.3,1154)" />
</g>
</g>
<image preserveAspectRatio="none" x="57" y="127" width="628" height="85" xlink:href="img/9.png" />
<image preserveAspectRatio="none" x="57" y="877" width="154" height="63" xlink:href="img/10.png" />
<path fill-rule="evenodd" d="M37.4,38.1h.7v-.7h-.7v.7Z" class="g3_118" />
<path fill-rule="evenodd" d="M37.4,38.1h.7v-.7h-.7v.7Z" class="g3_118" />
<path fill-rule="evenodd" d="M38.1,38.1H871.5v-.7H38.1v.7Z" class="g3_118" />
<path fill-rule="evenodd" d="M871.5,38.1h.8v-.7h-.8v.7Z" class="g3_118" />
<path fill-rule="evenodd" d="M871.5,38.1h.8v-.7h-.8v.7Z" class="g3_118" />
<path fill-rule="evenodd" d="M37.4,1248.5h.7V38.1h-.7V1248.5Z" class="g3_118" />
<path fill-rule="evenodd" d="M872.3,1248.5h.7V38.1h-.7V1248.5Z" class="g3_118" />
<path fill-rule="evenodd" d="M871.5,1248.5h.8V38.1h-.8V1248.5Z" class="g3_118" />
<path fill-rule="evenodd" d="M37.4,1249.2h.7v-.7h-.7v.7Z" class="g3_118" />
<path fill-rule="evenodd" d="M37.4,1249.2h.7v-.7h-.7v.7Z" class="g3_118" />
<path fill-rule="evenodd" d="M38.1,1249.9H871.5v-.7H38.1v.7Z" class="g3_118" />
<path fill-rule="evenodd" d="M38.1,1249.2H871.5v-.7H38.1v.7Z" class="g3_118" />
<path fill-rule="evenodd" d="M872.3,1249.9h.7v-1.4h-.7v1.4Z" class="g3_118" />
<path fill-rule="evenodd" d="M871.5,1249.9H873v-.7h-1.5v.7Z" class="g3_118" />
<path fill-rule="evenodd" d="M871.5,1249.2h.8v-.7h-.8v.7Z" class="g3_118" />
<path fill-rule="evenodd" d="M871.5,1249.2h.8v-.7h-.8v.7Z" class="g3_118" />
<defs>
<path d="M489,-15c0,0,-99,0,-179,30c0,0,-80,30,-136,91c0,0,-56,61,-85,152c0,0,-30,91,-30,212c0,0,0,123,32,218c0,0,33,96,92,161c0,0,59,65,142,98c0,0,82,34,181,34c0,0,40,0,78,-7c0,0,37,-7,69,-18c0,0,31,-11,57,-25c0,0,25,-14,35,-24c0,0,10,-10,14,-17c0,0,4,-7,6,-17c0,0,2,-11,3,-25c0,0,2,-14,2,-35c0,0,0,-22,-2,-38c0,0,-1,-15,-5,-25c0,0,-4,-10,-9,-14c0,0,-5,-5,-12,-5c0,0,-11,0,-28,13c0,0,-18,13,-45,29c0,0,-27,16,-65,29c0,0,-37,13,-89,13c0,0,-58,0,-103,-23c0,0,-45,-23,-77,-67c0,0,-31,-44,-48,-106c0,0,-16,-61,-16,-139c0,0,0,-85,17,-147c0,0,18,-62,50,-103c0,0,33,-40,79,-60c0,0,45,-19,103,-19c0,0,52,0,90,12c0,0,38,12,65,27c0,0,27,15,45,27c0,0,17,12,27,12c0,0,8,0,12,-3c0,0,4,-3,7,-12c0,0,3,-9,5,-25c0,0,1,-16,1,-43c0,0,0,-18,-1,-31c0,0,-1,-14,-3,-23c0,0,-2,-9,-6,-16c0,0,-4,-7,-12,-15c0,0,-8,-9,-32,-22c0,0,-23,-14,-57,-26C661,13,627,1,583,-6c0,0,-43,-9,-94,-9Z" 
id="f0_j"
transform="scale(0.001,-0.001)" />

<path d="M440,150c0,0,41,0,68,8c0,0,28,9,49,26c0,0,20,16,32,41c0,0,11,25,11,58c0,0,0,33,-11,60c0,0,-11,26,-33,44c0,0,-21,18,-55,28c0,0,-33,9,-87,9H298V150ZM407,567c0,0,42,0,68,10c0,0,25,10,42,28c0,0,16,17,24,41c0,0,9,24,9,50c0,0,0,29,-9,52c0,0,-9,23,-27,39c0,0,-18,15,-45,23c0,0,-27,8,-72,8H298V567ZM164,0c0,0,-25,0,-42,15c0,0,-16,14,-16,47V903c0,0,0,33,16,48c0,0,17,14,42,14H406c0,0,88,0,150,-15c0,0,61,-15,103,-45c0,0,42,-30,65,-77c0,0,22,-46,22,-108c0,0,0,-36,-9,-67c0,0,-9,-31,-26,-56c0,0,-17,-25,-42,-45c0,0,-25,-19,-57,-31c0,0,41,-7,76,-26c0,0,34,-19,60,-48c0,0,26,-30,41,-69c0,0,15,-40,15,-89c0,0,0,-51,-14,-93c0,0,-15,-42,-40,-74c0,0,-25,-32,-59,-55c0,0,-35,-23,-77,-38C614,29,573,14,525,7C525,7,478,0,420,0Z" 
id="f0_i"
transform="scale(0.001,-0.001)" />

<path d="M320,-17c0,0,-50,0,-93,9c0,0,-43,8,-76,19c0,0,-32,11,-54,24C97,35,75,48,65,58c0,0,-10,9,-14,28c0,0,-4,18,-4,52c0,0,0,23,1,39c0,0,2,15,5,25c0,0,4,10,9,14c0,0,6,4,13,4c0,0,11,0,30,-12c0,0,19,-13,49,-28c0,0,30,-15,71,-27c0,0,42,-12,96,-12c0,0,36,0,64,8c0,0,29,9,49,25c0,0,19,15,30,38c0,0,10,23,10,52c0,0,0,33,-18,56c0,0,-18,24,-46,42c0,0,-29,18,-66,34c0,0,-36,16,-75,34c0,0,-39,18,-76,41c0,0,-36,23,-65,54c0,0,-29,32,-47,75c0,0,-17,44,-17,104c0,0,0,70,25,122c0,0,26,53,70,88c0,0,43,34,103,51c0,0,59,18,125,18c0,0,35,0,69,-6c0,0,34,-5,64,-14c0,0,30,-9,53,-20c0,0,23,-11,31,-18c0,0,7,-8,10,-13c0,0,3,-5,4,-14c0,0,2,-8,3,-21c0,0,1,-13,1,-33c0,0,0,-21,-1,-36c0,0,-1,-15,-4,-25c0,0,-3,-9,-7,-14c0,0,-5,-4,-14,-4c0,0,-8,0,-26,10c0,0,-18,10,-44,23c0,0,-26,12,-60,22c0,0,-34,10,-75,10c0,0,-32,0,-56,-8c0,0,-24,-8,-40,-21c0,0,-16,-14,-24,-34c0,0,-8,-19,-8,-41c0,0,0,-32,18,-56c0,0,17,-23,46,-42c0,0,30,-18,67,-34c0,0,38,-16,76,-34c0,0,39,-18,76,-41c0,0,38,-22,67,-54c0,0,29,-32,47,-75c0,0,18,-43,18,-101c0,0,0,-76,-29,-133c0,0,-28,-58,-77,-96C572,60,524,21,459,2c0,0,-65,-19,-139,-19Z" 
id="f0_2n"
transform="scale(0.001,-0.001)" />

<path d="M164,0c0,0,-25,0,-42,15c0,0,-16,14,-16,47V903c0,0,0,33,16,48c0,0,17,14,42,14H645c0,0,7,0,12,-4c0,0,5,-3,9,-13c0,0,4,-9,6,-24c0,0,2,-14,2,-36c0,0,0,-21,-2,-36c0,0,-2,-14,-6,-23c0,0,-4,-9,-9,-13c0,0,-5,-4,-12,-4H301V576H593c0,0,6,0,12,-4c0,0,6,-4,9,-13c0,0,4,-8,6,-23c0,0,2,-14,2,-35c0,0,0,-22,-2,-36c0,0,-2,-14,-6,-23c0,0,-3,-8,-9,-12c0,0,-6,-4,-12,-4H301V154H649c0,0,6,0,12,-5c0,0,5,-4,9,-13c0,0,4,-9,6,-23c0,0,2,-15,2,-36c0,0,0,-22,-2,-36c0,0,-2,-15,-6,-24c0,0,-4,-9,-9,-13c0,0,-6,-4,-12,-4Z" 
id="f0_t"
transform="scale(0.001,-0.001)" />

<path d="M79,297c0,0,-19,0,-27,18c0,0,-8,17,-8,60c0,0,0,41,8,59c0,0,8,17,27,17H389c0,0,9,0,15,-4c0,0,7,-4,11,-13c0,0,5,-9,7,-23c0,0,1,-15,1,-36c0,0,0,-43,-8,-61c0,0,-8,-17,-26,-17Z" 
id="f0_oj"
transform="scale(0.001,-0.001)" />

<path d="M121,-4c0,0,-39,0,-60,2C61,-2,39,0,32,8c0,0,-8,8,-3,24c0,0,4,15,18,41L279,495L64,892c0,0,-14,26,-19,42c0,0,-5,17,4,24c0,0,9,8,32,10c0,0,23,2,65,2c0,0,35,0,56,-2c0,0,20,-1,32,-4c0,0,12,-4,17,-10c0,0,5,-6,9,-15L431,620L595,939c0,0,5,9,10,15c0,0,5,6,16,10c0,0,10,3,29,4c0,0,19,2,53,2c0,0,37,0,59,-2c0,0,22,-2,30,-10c0,0,8,-8,4,-24c0,0,-4,-16,-17,-42L564,497L793,73c0,0,14,-26,18,-41c0,0,4,-16,-5,-24c0,0,-9,-8,-32,-10c0,0,-24,-2,-65,-2c0,0,-36,0,-56,2c0,0,-20,1,-31,3c0,0,-12,4,-17,10c0,0,-5,6,-9,15L414,374L233,26c0,0,-4,-9,-9,-15c0,0,-6,-6,-17,-10c0,0,-12,-2,-32,-3c0,0,-21,-2,-54,-2Z" 
id="f0_3e"
transform="scale(0.001,-0.001)" />

<path d="M204,-4c0,0,-28,0,-47,2c0,0,-19,2,-31,5c0,0,-11,4,-16,10c0,0,-4,6,-4,13V939c0,0,0,7,4,13c0,0,5,6,17,10c0,0,11,3,30,6c0,0,19,2,47,2c0,0,29,0,48,-2c0,0,18,-3,29,-6c0,0,11,-4,16,-10c0,0,5,-6,5,-13V26c0,0,0,-7,-5,-13c0,0,-5,-6,-16,-10c0,0,-11,-3,-29,-5c0,0,-19,-2,-48,-2Z" 
id="f0_1c"
transform="scale(0.001,-0.001)" />

<path d="M127,0c0,0,-16,0,-28,3C99,3,87,6,80,15c0,0,-8,8,-11,25c0,0,-3,16,-3,42c0,0,0,25,2,42c0,0,2,18,8,32c0,0,6,14,15,27c0,0,9,13,24,29L282,390c0,0,50,53,81,95c0,0,30,43,47,79c0,0,17,35,24,65c0,0,6,30,6,57c0,0,0,24,-8,46c0,0,-8,22,-23,39c0,0,-15,16,-38,25c0,0,-23,10,-55,10c0,0,-44,0,-78,-12c0,0,-33,-11,-59,-25c0,0,-26,-13,-43,-25c0,0,-17,-12,-27,-12c0,0,-7,0,-11,5c0,0,-5,4,-8,15c0,0,-3,10,-5,28c0,0,-2,17,-2,42c0,0,0,18,1,29c0,0,1,12,4,20c0,0,2,9,6,15c0,0,3,6,13,15c0,0,9,9,34,23c0,0,25,14,61,27c0,0,37,14,81,23c0,0,44,9,92,9c0,0,75,0,131,-19c0,0,57,-19,94,-53c0,0,37,-34,55,-81c0,0,19,-47,19,-100c0,0,0,-47,-9,-93c0,0,-9,-45,-37,-98c0,0,-29,-52,-80,-116c0,0,-52,-64,-136,-148L299,159H679c0,0,8,0,14,-4c0,0,6,-5,11,-14c0,0,4,-9,7,-25c0,0,2,-15,2,-36c0,0,0,-22,-2,-37c0,0,-2,-15,-6,-25c0,0,-3,-10,-9,-14c0,0,-6,-4,-14,-4Z" 
id="f0_rz"
transform="scale(0.001,-0.001)" />

<path d="M385,138c0,0,29,0,52,9c0,0,22,10,39,28c0,0,17,19,28,47c0,0,11,29,19,66c0,0,7,37,9,84c0,0,3,47,3,104c0,0,0,69,-4,122c0,0,-4,52,-11,91c0,0,-8,39,-20,66c0,0,-12,27,-28,43c0,0,-16,16,-37,22c0,0,-21,7,-47,7c0,0,-44,0,-73,-21c0,0,-28,-21,-45,-64c0,0,-17,-42,-24,-106c0,0,-6,-63,-6,-148c0,0,0,-103,8,-171c0,0,8,-67,26,-107c0,0,17,-40,45,-56c0,0,27,-16,66,-16ZM378,-17c0,0,-99,0,-164,33c0,0,-65,34,-103,98c0,0,-38,64,-54,156c0,0,-15,92,-15,209c0,0,0,115,19,208c0,0,19,94,61,160c0,0,42,65,110,101c0,0,68,35,165,35c0,0,99,0,164,-34c0,0,65,-34,103,-98c0,0,39,-64,53,-156c0,0,15,-92,15,-209c0,0,0,-115,-18,-209c0,0,-19,-93,-61,-159C653,118,611,53,543,17c0,0,-67,-34,-165,-34Z" 
id="f0_rx"
transform="scale(0.001,-0.001)" />

<path d="M142,0c0,0,-6,0,-12,4c0,0,-5,3,-9,12c0,0,-4,9,-6,23c0,0,-3,15,-3,36c0,0,0,21,2,36c0,0,2,14,6,23c0,0,4,9,10,13c0,0,5,5,12,5H322V779L166,693c0,0,-17,-8,-28,-10c0,0,-1,0,-3,0c-4,0,-10,1,-14,5c0,0,-6,6,-8,22c0,0,-2,15,-2,44c0,0,0,18,0,29c0,0,1,12,4,20c0,0,3,8,8,14c0,0,5,5,14,11L345,962c0,0,4,3,9,5c0,0,6,2,15,3c0,0,9,1,23,2c0,0,15,0,38,0c0,0,28,0,46,-1c0,0,17,-1,26,-4c0,0,9,-3,12,-7c0,0,3,-4,3,-11V152H675c0,0,7,0,12,-5c0,0,6,-4,10,-13c0,0,4,-9,6,-23c0,0,2,-15,2,-36c0,0,0,-21,-2,-36c0,0,-3,-14,-7,-23c0,0,-4,-9,-9,-12c0,0,-5,-4,-12,-4Z" 
id="f0_ry"
transform="scale(0.001,-0.001)" />

<path d="M337,-17c0,0,-50,0,-93,8c0,0,-43,7,-76,16c0,0,-34,11,-55,22c0,0,-22,11,-29,17c0,0,-6,6,-10,13c0,0,-3,8,-6,18c0,0,-2,10,-3,25c0,0,-1,16,-1,37c0,0,0,36,6,50c0,0,6,13,17,13c0,0,8,0,26,-10c0,0,18,-10,47,-21c0,0,28,-12,66,-22c0,0,38,-10,87,-10c0,0,41,0,72,10c0,0,31,9,53,27c0,0,22,17,33,42c0,0,11,25,11,56c0,0,0,34,-13,61c0,0,-13,26,-39,45c0,0,-26,20,-65,30c0,0,-39,10,-92,10H189c0,0,-9,0,-16,3c0,0,-7,3,-11,11c0,0,-5,8,-7,23c0,0,-1,14,-1,37c0,0,0,22,1,36c0,0,2,13,6,21c0,0,4,7,11,10c0,0,6,3,15,3h85c0,0,43,0,77,10c0,0,33,10,56,29c0,0,23,19,35,45c0,0,12,27,12,59c0,0,0,25,-8,47c0,0,-9,22,-25,38c0,0,-16,16,-41,26c0,0,-26,9,-60,9c0,0,-39,0,-73,-11c0,0,-34,-12,-62,-26c0,0,-27,-13,-46,-25c0,0,-19,-12,-28,-12c0,0,-6,0,-10,2c0,0,-5,3,-8,11c0,0,-3,7,-4,21c0,0,-2,14,-2,37c0,0,0,18,1,31c0,0,1,12,3,20c0,0,2,8,5,14c0,0,4,6,11,13c0,0,8,7,31,21c0,0,23,14,58,28c0,0,35,13,81,22c0,0,46,10,100,10c0,0,70,0,124,-17c0,0,54,-16,91,-47c0,0,37,-31,56,-76c0,0,19,-46,19,-102c0,0,0,-44,-11,-83c0,0,-12,-38,-33,-68c0,0,-22,-29,-54,-50c0,0,-33,-21,-75,-32v-2c0,0,50,-6,91,-26c0,0,40,-19,68,-49c0,0,28,-30,43,-68c0,0,15,-37,15,-81c0,0,0,-72,-28,-128c0,0,-27,-56,-77,-94C604,60,555,22,487,2c0,0,-69,-19,-150,-19Z" 
id="f0_s0"
transform="scale(0.001,-0.001)" />

<path d="M589,371L453,782h-1L317,371ZM106,-4c0,0,-35,0,-54,2C52,-2,32,0,25,8c0,0,-7,9,-5,24c0,0,2,16,11,42L329,931c0,0,4,13,10,21c0,0,6,7,19,12c0,0,13,4,36,5c0,0,23,1,61,1c0,0,44,0,71,-1c0,0,26,-1,40,-5c0,0,15,-5,21,-13c0,0,6,-8,11,-22L896,73c0,0,9,-27,11,-43c0,0,3,-15,-6,-23c0,0,-8,-7,-29,-9c0,0,-21,-2,-57,-2c0,0,-38,0,-59,1c0,0,-22,1,-33,4c0,0,-11,3,-16,9c0,0,-4,6,-7,16L635,220H272L211,31c0,0,-2,-11,-7,-18c0,0,-5,-7,-16,-11c0,0,-11,-3,-31,-4c0,0,-19,-2,-51,-2Z" 
id="f0_5"
transform="scale(0.001,-0.001)" />

<path d="M198,-4c0,0,-27,0,-45,2c0,0,-18,2,-28,5c0,0,-11,4,-15,10c0,0,-4,6,-4,13V887c0,0,0,38,20,58c0,0,20,20,53,20H308c0,0,34,0,59,-6c0,0,24,-5,42,-18c0,0,18,-13,30,-35c0,0,12,-21,21,-52L669,279h3L889,852c0,0,9,32,21,53c0,0,11,22,27,35c0,0,15,14,36,19c0,0,21,6,48,6h132c0,0,21,0,35,-5c0,0,15,-5,24,-15c0,0,9,-11,14,-25c0,0,5,-15,5,-33V26c0,0,0,-7,-4,-13c0,0,-4,-6,-15,-10c0,0,-11,-3,-29,-5c0,0,-18,-2,-45,-2c0,0,-27,0,-45,2c0,0,-18,2,-28,5c0,0,-11,4,-15,10c0,0,-5,6,-5,13V813h-1L764,27c0,0,-3,-10,-10,-16c0,0,-6,-6,-18,-10c0,0,-12,-3,-29,-4c0,0,-18,-1,-44,-1c0,0,-25,0,-43,2c0,0,-18,2,-29,5c0,0,-12,4,-19,10c0,0,-6,6,-9,14L293,813h-2V26c0,0,0,-7,-4,-13c0,0,-4,-6,-15,-10c0,0,-11,-3,-29,-5c0,0,-17,-2,-45,-2Z" 
id="f0_1x"
transform="scale(0.001,-0.001)" />

<path d="M193,-4c0,0,-26,0,-43,2c0,0,-18,2,-27,6c0,0,-10,4,-14,10c0,0,-3,6,-3,13V895c0,0,0,35,20,53c0,0,21,17,50,17H282c0,0,28,0,47,-5c0,0,20,-5,35,-16c0,0,15,-11,29,-31c0,0,13,-20,27,-49L608,511c0,0,17,-32,33,-63c0,0,16,-31,31,-62c0,0,14,-31,29,-60c0,0,14,-30,27,-60h1c0,0,-2,52,-3,109c0,0,-1,57,-1,108V936c0,0,0,7,4,13c0,0,5,6,15,11c0,0,10,4,28,6c0,0,17,2,44,2c0,0,25,0,42,-2c0,0,17,-2,27,-6c0,0,9,-5,13,-11c0,0,4,-6,4,-13V68c0,0,0,-17,-6,-30c0,0,-6,-14,-17,-23C879,15,869,6,856,2c0,0,-14,-3,-28,-3H744c0,0,-26,0,-45,4c0,0,-19,5,-35,19c0,0,-16,14,-31,38c0,0,-15,23,-34,60L359,572c0,0,-21,40,-43,86c0,0,-21,47,-38,91h-2c0,0,3,-54,5,-107c0,0,2,-53,2,-110V27c0,0,0,-7,-5,-13c0,0,-4,-6,-14,-10c0,0,-10,-4,-27,-6c0,0,-17,-2,-44,-2Z" 
id="f0_1y"
transform="scale(0.001,-0.001)" />

<path d="M378,-4c0,0,-28,0,-47,2c0,0,-19,2,-31,5c0,0,-11,4,-16,10c0,0,-4,6,-4,13V805H38c0,0,-8,0,-13,4c0,0,-5,5,-9,14c0,0,-3,9,-5,25c0,0,-2,15,-2,37c0,0,0,22,2,38c0,0,2,15,5,25c0,0,4,9,9,13c0,0,5,4,13,4H718c0,0,7,0,12,-4c0,0,6,-4,10,-13c0,0,3,-10,5,-25c0,0,2,-16,2,-38c0,0,0,-22,-2,-37c0,0,-2,-16,-5,-25c0,0,-4,-9,-10,-14c0,0,-5,-4,-12,-4H476V26c0,0,0,-7,-5,-13c0,0,-5,-6,-16,-10c0,0,-11,-3,-30,-5c0,0,-19,-2,-47,-2Z" 
id="f0_2t"
transform="scale(0.001,-0.001)" />

<path d="M514,145c0,0,72,0,121,27c0,0,48,26,78,73c0,0,30,46,42,107c0,0,13,62,13,131c0,0,0,76,-12,139c0,0,-12,62,-41,106c0,0,-29,45,-76,69c0,0,-48,24,-120,24c0,0,-72,0,-120,-27c0,0,-49,-27,-79,-73c0,0,-29,-45,-42,-106c0,0,-12,-61,-12,-129c0,0,0,-79,12,-142c0,0,12,-63,40,-108c0,0,28,-44,76,-68c0,0,48,-23,120,-23ZM508,-17c0,0,-113,0,-196,29c0,0,-84,29,-140,90c0,0,-56,60,-84,154c0,0,-28,93,-28,221c0,0,0,117,29,210c0,0,30,94,89,160c0,0,59,65,146,101c0,0,87,35,202,35c0,0,110,0,194,-29c0,0,84,-30,140,-90c0,0,56,-60,85,-153c0,0,29,-92,29,-217c0,0,0,-120,-30,-215c0,0,-30,-95,-89,-161C855,118,796,52,709,17c0,0,-87,-34,-201,-34Z" 
id="f0_24"
transform="scale(0.001,-0.001)" />

<path d="M404,-11c0,0,-136,0,-225,76c0,0,-90,78,-111,215H265c0,0,35,-136,135,-136c0,0,50,0,85,35c0,0,34,36,34,88c0,0,0,64,-41,105c0,0,-42,41,-107,41H336V573h21c0,0,68,0,109,33c0,0,41,34,41,89c0,0,0,50,-32,85c0,0,-32,35,-79,35c0,0,-110,0,-127,-135H76c0,0,9,130,96,209c0,0,87,79,208,79c0,0,134,0,227,-76c0,0,94,-75,94,-182c0,0,0,-116,-115,-210c0,0,73,-46,107,-96c0,0,34,-51,34,-121c0,0,0,-134,-88,-214c0,0,-89,-80,-235,-80Z" 
id="f1_n"
transform="scale(0.001,-0.001)" />

<path d="M44,-281L425,1053H537L156,-281Z" 
id="f1_j"
transform="scale(0.001,-0.001)" />

<path d="M299,0V777H162l36,173H508V0Z" 
id="f1_l"
transform="scale(0.001,-0.001)" />

<path d="M122,0V64L295,82V837L123,780v64l282,165H511V82L685,64V0Z" 
id="f2_l"
transform="scale(0.001,-0.001)" />

<path d="M64,0V141c0,0,64,68,119,123c0,0,119,118,174,185c0,0,56,68,81,140c0,0,26,72,26,165c0,0,0,81,-40,131c0,0,-39,50,-105,50c0,0,-46,0,-74,-10c0,0,-27,-10,-50,-29L163,751H98V979c0,0,59,13,116,23c0,0,58,9,125,9c0,0,165,0,252,-68c0,0,88,-68,88,-193c0,0,0,-78,-26,-142c0,0,-26,-64,-83,-124c0,0,-56,-61,-224,-197c0,0,-64,-52,-139,-119H698V0Z" 
id="f2_m"
transform="scale(0.001,-0.001)" />

<path d="M191,-20c0,0,-51,0,-88,34c0,0,-36,36,-36,88c0,0,0,52,36,88c0,0,36,36,88,36c0,0,51,0,88,-36c0,0,36,-36,36,-88c0,0,0,-51,-36,-87c0,0,-36,-35,-88,-35Z" 
id="f2_i"
transform="scale(0.001,-0.001)" />

<path d="M44,0V40L172,60V941L44,960v40H794V760H745L721,922c0,0,-83,11,-241,11H316V543H586l23,119h48V354H609L586,475H316V67H513c0,0,193,0,252,12l43,185h49L843,0Z" 
id="f3_15"
transform="scale(0.001,-0.001)" />

<path d="M13,0V34L95,46L325,350L122,649L40,668v33H357V668L264,648L399,446L554,649l-96,19v33H710V668L630,652L433,397L663,50L745,34V0H427V34l94,17L359,299L169,50L266,34V0Z" 
id="f3_2k"
transform="scale(0.001,-0.001)" />

<path d="M382,45c0,0,188,0,188,314c0,0,0,143,-47,213c0,0,-46,69,-141,69c0,0,-87,0,-146,-24V58c0,0,67,-13,146,-13ZM25,-325v35l88,18V649L34,668v33H231l1,-41c0,0,31,27,84,43c0,0,53,17,107,17c0,0,134,0,208,-94c0,0,73,-93,73,-267c0,0,0,-178,-80,-276c0,0,-80,-97,-232,-97c0,0,-84,0,-160,16c0,0,4,-53,4,-84V-272l123,-18v-35Z" 
id="f3_2c"
transform="scale(0.001,-0.001)" />

<path d="M31,0V33L150,52v956L31,1026v34H274V52L394,33V0Z" 
id="f3_28"
transform="scale(0.001,-0.001)" />

<path d="M284,67c0,0,51,0,88,12c0,0,37,12,74,30V358l-98,-3c0,0,-100,-4,-135,-39c0,0,-35,-35,-35,-117c0,0,0,-132,106,-132ZM233,-14c0,0,-179,0,-179,208c0,0,0,70,27,116c0,0,27,46,87,70c0,0,60,24,173,27l105,3V519c0,0,0,72,-26,107c0,0,-27,34,-82,34c0,0,-75,0,-137,-35L176,538H134V691c0,0,121,26,213,26c0,0,115,0,169,-47c0,0,54,-47,54,-144V52L657,33V0H465L451,70c0,0,-85,-84,-218,-84Z" 
id="f3_1x"
transform="scale(0.001,-0.001)" />

<path d="M32,0V33L151,52V649L52,668v33H275V52L395,33V0ZM201,850c0,0,-32,0,-56,24c0,0,-24,24,-24,56c0,0,0,34,24,58c0,0,24,24,56,24c0,0,34,0,58,-24c0,0,24,-24,24,-58c0,0,0,-32,-24,-56c0,0,-24,-24,-58,-24Z" 
id="f3_25"
transform="scale(0.001,-0.001)" />

<path d="M439,0V33l93,19V500c0,0,0,62,-30,97c0,0,-31,36,-94,36c0,0,-67,0,-165,-22V52L338,33V0H35V33l84,19V649L35,668v33H235l7,-57c0,0,57,33,122,54c0,0,65,22,108,22c0,0,91,0,137,-53c0,0,47,-53,47,-154V52L741,33V0Z" 
id="f3_2a"
transform="scale(0.001,-0.001)" />

<path d="M249,-14c0,0,-71,0,-107,42c0,0,-35,42,-35,119V639H15v33l93,29l76,159h47V701H391V639H231V161c0,0,0,-48,22,-73c0,0,22,-24,57,-24c0,0,44,0,106,12V26C416,26,389,8,340,-2c0,0,-49,-12,-91,-12Z" 
id="f3_2g"
transform="scale(0.001,-0.001)" />

<path d="M442,0V33l93,19V504c0,0,0,129,-124,129c0,0,-70,0,-168,-22V52L338,33V0H31V33l88,19v956L15,1026v34H243V756c0,0,0,-77,-5,-112c0,0,54,31,122,53c0,0,68,23,115,23c0,0,91,0,137,-53c0,0,47,-53,47,-154V52L744,33V0Z" 
id="f3_24"
transform="scale(0.001,-0.001)" />

<path d="M495,413c0,0,0,133,-34,190c0,0,-34,57,-105,57c0,0,-78,0,-119,-63c0,0,-42,-62,-42,-184ZM374,-14c0,0,-163,0,-239,87c0,0,-75,88,-75,283c0,0,0,183,77,273c0,0,76,91,219,91c0,0,269,0,269,-306V353H194V340c0,0,0,-103,23,-160c0,0,22,-57,70,-87c0,0,47,-29,124,-29c0,0,40,0,96,6c0,0,55,7,91,15V43C598,43,562,20,500,3c0,0,-61,-17,-126,-17Z" 
id="f3_21"
transform="scale(0.001,-0.001)" />

<path d="M431,0V33L535,52V499c0,0,0,62,-32,96c0,0,-32,33,-95,33c0,0,-66,0,-163,-22V52L350,33V0H32V33l89,19V649L32,668v33H237l6,-57c0,0,56,32,119,54c0,0,62,22,110,22c0,0,52,0,95,-20c0,0,44,-19,66,-62c0,0,57,32,134,57c0,0,77,25,128,25c0,0,179,0,179,-207V52l90,-19V0H846V33L950,52V499c0,0,0,129,-119,129c0,0,-19,0,-45,-3c0,0,-26,-3,-52,-7c0,0,-25,-4,-49,-8c0,0,-23,-5,-39,-8c0,0,13,-41,13,-89V52L764,33V0Z" 
id="f3_29"
transform="scale(0.001,-0.001)" />

<path d="M399,-14c0,0,-341,0,-341,370c0,0,0,175,87,269c0,0,87,95,249,95c0,0,101,0,220,-23V501H573L541,625c0,0,-62,35,-149,35c0,0,-200,0,-200,-304c0,0,0,-158,61,-225c0,0,61,-67,189,-67c0,0,109,0,189,24V43C631,43,595,16,530,1c0,0,-64,-15,-131,-15Z" 
id="f3_1z"
transform="scale(0.001,-0.001)" />

<path d="M278,-14c0,0,-52,0,-115,11c0,0,-63,10,-99,23V193H98L134,95c0,0,56,-50,146,-50c0,0,144,0,144,123c0,0,0,91,-114,130l-66,21c0,0,-75,25,-110,50c0,0,-34,26,-53,63c0,0,-18,36,-18,89c0,0,0,92,63,145c0,0,63,54,170,54c0,0,77,0,193,-23V544H454l-32,81c0,0,-39,35,-124,35c0,0,-61,0,-92,-30c0,0,-32,-30,-32,-80c0,0,0,-43,29,-72c0,0,28,-29,86,-48c0,0,110,-38,144,-55c0,0,33,-17,57,-42c0,0,23,-25,36,-57c0,0,13,-32,13,-79c0,0,0,-104,-66,-158c0,0,-66,-53,-195,-53Z" 
id="f3_2f"
transform="scale(0.001,-0.001)" />

<path d="M377,45c0,0,99,0,147,73c0,0,47,73,47,237c0,0,0,161,-47,233c0,0,-47,72,-147,72c0,0,-97,0,-141,-69c0,0,-44,-69,-44,-236c0,0,0,-169,45,-240c0,0,44,-70,140,-70Zm0,-59c0,0,-158,0,-238,94c0,0,-81,95,-81,274c0,0,0,178,81,272c0,0,80,94,244,94c0,0,160,0,241,-92c0,0,82,-92,82,-274c0,0,0,-368,-329,-368Z" 
id="f3_2b"
transform="scale(0.001,-0.001)" />

<path d="M64,0V34L168,59V639H47v36l121,29v49c0,0,0,155,61,239c0,0,62,84,173,84c0,0,58,0,107,-15V908H472l-33,92c0,0,-26,16,-62,16c0,0,-47,0,-66,-42c0,0,-19,-42,-19,-157V701H478V639H292V59L443,34V0Z" 
id="f3_22"
transform="scale(0.001,-0.001)" />

<path d="M327,-14L84,649L1,668v33H335V668L219,648L385,174L554,632h63L786,171L944,649L830,668v33h267V668l-78,-16L784,-14H726L553,448L382,-14Z" 
id="f3_2j"
transform="scale(0.001,-0.001)" />

<path d="M359,-270c0,0,124,0,192,46c0,0,67,47,67,129c0,0,0,43,-26,67c0,0,-26,24,-79,24H242c0,0,-32,-27,-51,-69c0,0,-20,-41,-20,-77c0,0,0,-64,46,-92c0,0,46,-28,142,-28Zm11,561c0,0,81,0,115,47c0,0,34,47,34,141c0,0,0,100,-35,142c0,0,-35,42,-113,42c0,0,-78,0,-114,-43c0,0,-37,-42,-37,-141c0,0,0,-98,36,-143c0,0,36,-45,114,-45ZM359,-329c0,0,-143,0,-218,44c0,0,-75,43,-75,125c0,0,0,39,27,78c0,0,26,38,98,89c0,0,-43,14,-72,48c0,0,-29,35,-29,74L208,262c0,0,-118,55,-118,217c0,0,0,115,73,178c0,0,73,63,211,63c0,0,28,0,71,-6c0,0,44,-6,67,-13l165,83l26,-32L599,644c0,0,50,-56,50,-165c0,0,0,-120,-72,-182c0,0,-73,-62,-208,-62c0,0,-62,0,-114,11L208,148c0,0,2,-13,29,-24c0,0,27,-12,67,-12H512c0,0,113,0,168,-49c0,0,55,-49,55,-134c0,0,0,-79,-44,-137c0,0,-43,-58,-128,-90c0,0,-84,-31,-204,-31Z" 
id="f3_23"
transform="scale(0.001,-0.001)" />

<path d="M31,0V33l88,19V649L31,668v33H235l7,-87c0,0,44,37,121,71c0,0,76,35,121,35h11V530H463l-43,82c0,0,-37,0,-88,-10c0,0,-52,-10,-89,-26V52L363,33V0Z" 
id="f3_2e"
transform="scale(0.001,-0.001)" />

<path d="M211,-20c0,0,-39,0,-64,25c0,0,-26,27,-26,64c0,0,0,38,26,64c0,0,26,26,64,26c0,0,37,0,64,-25c0,0,26,-26,26,-65c0,0,0,-37,-26,-64c0,0,-26,-25,-64,-25Zm0,556c0,0,-38,0,-64,26c0,0,-26,26,-26,64c0,0,0,37,26,64c0,0,25,27,64,27c0,0,38,0,64,-27c0,0,26,-27,26,-64c0,0,0,-38,-26,-64c0,0,-27,-26,-64,-26Z" 
id="f3_u"
transform="scale(0.001,-0.001)" />

<path d="M350,-14c0,0,-142,0,-269,31L73,228h49L156,87c0,0,29,-16,82,-28c0,0,54,-12,100,-12c0,0,117,0,173,54c0,0,56,53,56,178c0,0,0,99,-52,150c0,0,-51,51,-159,56l-107,6v61l107,7c0,0,84,5,124,52c0,0,41,48,41,145c0,0,0,101,-44,147c0,0,-44,45,-139,45c0,0,-40,0,-83,-10c0,0,-43,-11,-76,-29L153,786H104V979c0,0,74,19,127,26c0,0,54,6,107,6c0,0,321,0,321,-246c0,0,0,-104,-57,-165c0,0,-57,-62,-162,-77c0,0,136,-16,200,-78c0,0,64,-62,64,-173c0,0,0,-135,-92,-211c0,0,-93,-75,-262,-75Z" 
id="f3_n"
transform="scale(0.001,-0.001)" />

<path d="M67,0V109L206,235c0,0,133,118,196,190c0,0,63,72,90,149c0,0,27,77,27,177c0,0,0,97,-44,148c0,0,-44,50,-144,50c0,0,-39,0,-81,-10c0,0,-42,-11,-74,-29L150,787H101V980c0,0,135,32,230,32c0,0,164,0,247,-68c0,0,82,-69,82,-193c0,0,0,-84,-32,-158c0,0,-33,-75,-100,-148c0,0,-67,-74,-222,-206c0,0,-67,-57,-141,-125H680V0Z" 
id="f3_m"
transform="scale(0.001,-0.001)" />

<path d="M476,327V830h-4L114,327ZM476,0V220H30v99l488,686h86V327H740V220H604V0Z" 
id="f3_o"
transform="scale(0.001,-0.001)" />

<path d="M-15,0l6,40L121,60L275,941L151,960l6,40H558l-6,-40L419,941L350,549H821l68,392L765,960l6,40h401l-6,-40L1033,941L879,60L1003,40L996,0H596l6,40L735,60l74,421H338L264,60L388,40L382,0Z" 
id="f4_18"
transform="scale(0.001,-0.001)" />

<path d="M743,0L436,512L330,424L264,60L404,40L397,0H-17l8,40L120,60L276,941L151,960l7,40H559l-8,-40L420,941L347,525L853,941l-89,19l7,40h314l-8,-40L961,941L546,602L880,60L979,40L972,0Z" 
id="f4_1b"
transform="scale(0.001,-0.001)" />

<path d="M521,-14c0,0,-205,0,-320,107C201,93,85,200,85,390c0,0,0,185,77,326c0,0,77,142,220,219c0,0,142,76,324,76c0,0,158,0,327,-38L1000,755H951V884c0,0,-46,32,-112,50c0,0,-65,17,-137,17c0,0,-135,0,-242,-72c0,0,-107,-72,-166,-203c0,0,-60,-132,-60,-301c0,0,0,-160,78,-244c0,0,78,-84,222,-84c0,0,85,0,166,25c0,0,82,26,133,65l53,149h49L889,52C889,52,803,20,705,3c0,0,-99,-17,-184,-17Z" 
id="f4_13"
transform="scale(0.001,-0.001)" />

<path d="M500,49c0,0,111,0,205,75c0,0,95,75,154,216c0,0,59,140,59,280c0,0,0,150,-76,240c0,0,-77,91,-202,91c0,0,-111,0,-204,-75c0,0,-93,-76,-151,-217c0,0,-59,-141,-59,-284c0,0,0,-147,75,-237c0,0,75,-89,199,-89Zm-5,-63c0,0,-121,0,-216,50c0,0,-96,50,-149,142c0,0,-53,91,-53,205c0,0,0,180,74,326c0,0,75,145,204,224c0,0,129,78,295,78c0,0,120,0,216,-50c0,0,96,-51,149,-142c0,0,53,-91,53,-206c0,0,0,-177,-75,-325C993,288,918,140,789,63c0,0,-129,-77,-294,-77Z" 
id="f4_1f"
transform="scale(0.001,-0.001)" />

<path d="M355,0V355H0v72H355V784h72V427H782V355H427V0Z" 
id="f5_f"
transform="scale(0.001,-0.001)" />

<path d="M0,356v74H784V356Z" 
id="f5_h"
transform="scale(0.001,-0.001)" />

<path d="M0,334v73H1700V334Z" 
id="f5_3k"
transform="scale(0.001,-0.001)" />

<path d="M968,-20c0,0,42,100,87,170c0,0,45,70,144,184H56v73H1199c0,0,-106,122,-148,189c0,0,-43,67,-83,166h60c0,0,87,-108,217,-218c0,0,130,-110,206,-154V349c0,0,-99,-56,-217,-159c0,0,-117,-102,-206,-210Z" 
id="f5_34"
transform="scale(0.001,-0.001)" />

<path d="M0,214v74H784V214ZM0,494v72H784V494Z" 
id="f5_x"
transform="scale(0.001,-0.001)" />

<path d="M410,-14c0,0,-86,0,-175,14C235,0,145,14,81,38V307h66L181,146c0,0,31,-37,94,-62c0,0,64,-24,132,-24c0,0,214,0,214,177c0,0,0,55,-41,93c0,0,-41,38,-128,68c0,0,-128,42,-185,68c0,0,-56,27,-95,63c0,0,-38,36,-62,87c0,0,-23,51,-23,125c0,0,0,132,90,201c0,0,90,69,263,69c0,0,125,0,278,-32V741H651L618,878c0,0,-76,56,-178,56c0,0,-92,0,-141,-34c0,0,-49,-34,-49,-104c0,0,0,-50,41,-86c0,0,41,-35,128,-63c0,0,171,-56,235,-97c0,0,64,-41,97,-103c0,0,34,-61,34,-143c0,0,0,-318,-375,-318Z" 
id="f2_1j"
transform="scale(0.001,-0.001)" />

<path d="M379,60c0,0,59,0,84,64c0,0,24,65,24,231c0,0,0,164,-24,227c0,0,-24,63,-84,63c0,0,-57,0,-80,-60c0,0,-22,-61,-22,-230c0,0,0,-173,23,-234c0,0,22,-61,79,-61Zm-2,-74c0,0,-161,0,-240,91c0,0,-79,91,-79,277c0,0,0,186,80,276c0,0,81,90,245,90c0,0,167,0,245,-93c0,0,78,-93,78,-273c0,0,0,-188,-81,-278c0,0,-81,-90,-248,-90Z" 
id="f2_2b"
transform="scale(0.001,-0.001)" />

<path d="M30,0V49l76,18V992l-72,18v50H322V67L398,49V0Z" 
id="f2_28"
transform="scale(0.001,-0.001)" />

<path d="M287,-18c0,0,-194,0,-194,206V634L23,652v49H309V217c0,0,0,-63,26,-98c0,0,27,-35,76,-35c0,0,57,0,113,25V634l-64,18v49H740V67L809,49V0H536L526,61L475,35c0,0,-104,-53,-188,-53Z" 
id="f2_2h"
transform="scale(0.001,-0.001)" />

<path d="M327,-14c0,0,-101,0,-156,45c0,0,-55,45,-55,131V624H25v48l108,29l87,159H332V701H480V624H332V176c0,0,0,-49,20,-73c0,0,20,-25,53,-25c0,0,40,0,97,12V26c0,0,-22,-15,-76,-27c0,0,-55,-13,-99,-13Z" 
id="f2_2g"
transform="scale(0.001,-0.001)" />

<path d="M34,0V49l76,18V634L38,652v49H325V67L402,49V0ZM217,831c0,0,-48,0,-81,33c0,0,-34,33,-34,82c0,0,0,48,34,81c0,0,34,33,81,33c0,0,48,0,81,-33c0,0,33,-33,33,-81c0,0,0,-47,-33,-81c0,0,-32,-34,-81,-34Z" 
id="f2_25"
transform="scale(0.001,-0.001)" />

<path d="M41,0V49l69,18V634L41,652v49H313l11,-61l50,26c0,0,105,54,188,54c0,0,194,0,194,-207V67L827,49V0H478V49l63,18V484c0,0,0,63,-27,98c0,0,-26,35,-75,35c0,0,-57,0,-114,-25V67L389,49V0Z" 
id="f2_2a"
transform="scale(0.001,-0.001)" />

<path d="M248,-20c0,0,-52,0,-87,34c0,0,-36,36,-36,88c0,0,0,52,36,88c0,0,35,36,87,36c0,0,52,0,88,-36c0,0,36,-36,36,-88c0,0,0,-51,-36,-87c0,0,-35,-35,-88,-35Zm0,488c0,0,-52,0,-87,36c0,0,-36,36,-36,88c0,0,0,52,35,88c0,0,35,36,88,36c0,0,53,0,89,-36c0,0,35,-37,35,-88c0,0,0,-51,-36,-87c0,0,-35,-37,-88,-37Z" 
id="f2_u"
transform="scale(0.001,-0.001)" />

<path d="M410,-14c0,0,-80,0,-162,14c0,0,-81,14,-144,38V270h48L178,134c0,0,28,-35,95,-62c0,0,68,-27,134,-27c0,0,104,0,163,53c0,0,58,54,58,148c0,0,0,54,-23,89c0,0,-22,35,-59,59c0,0,-37,24,-84,41c0,0,-47,17,-97,34c0,0,-49,17,-96,38c0,0,-47,21,-84,53c0,0,-37,32,-60,79c0,0,-23,48,-23,117c0,0,0,119,90,187c0,0,89,68,248,68c0,0,121,0,263,-32V771H654L628,893c0,0,-76,55,-188,55c0,0,-100,0,-156,-40c0,0,-56,-41,-56,-112c0,0,0,-49,22,-81c0,0,23,-32,60,-55c0,0,37,-22,84,-39c0,0,48,-16,97,-34c0,0,50,-17,97,-39c0,0,48,-22,85,-56c0,0,36,-34,59,-83c0,0,23,-49,23,-120c0,0,0,-145,-89,-224c0,0,-89,-79,-256,-79Z" 
id="f3_1j"
transform="scale(0.001,-0.001)" />

<path d="M57,302V417H454V302Z" 
id="f3_h"
transform="scale(0.001,-0.001)" />

<path d="M55,0V40L184,60V941L55,960v40H455V960L327,941V60L455,40V0Z" 
id="f3_19"
transform="scale(0.001,-0.001)" />

<path d="M492,110V466H137v73H492V900h72V539H921V466H564V110ZM527,48c0,0,189,0,322,134c0,0,134,133,134,323c0,0,0,189,-134,323c0,0,-133,133,-322,133c0,0,-188,0,-321,-133C206,828,72,694,72,505c0,0,0,-190,134,-323C206,182,339,48,527,48Zm1,-69c0,0,-219,0,-374,154C154,133,0,288,0,506c0,0,0,220,154,375c0,0,155,154,374,154c0,0,218,0,372,-154c0,0,155,-155,155,-375c0,0,0,-218,-155,-373C900,133,746,-21,528,-21Z" 
id="f5_3r"
transform="scale(0.001,-0.001)" />

<path d="M376,50c0,0,103,0,149,80c0,0,46,81,46,240c0,0,0,137,-47,204c0,0,-48,67,-148,67c0,0,-44,0,-87,-7c0,0,-44,-8,-63,-17V62c0,0,63,-12,150,-12Zm3,-64c0,0,-64,0,-141,14c0,0,-78,14,-136,37v971L0,1026v34H226V809c0,0,0,-40,-4,-148c0,0,74,59,188,59c0,0,143,0,219,-87c0,0,77,-87,77,-263c0,0,0,-189,-84,-287c0,0,-84,-97,-243,-97Z" 
id="f3_1y"
transform="scale(0.001,-0.001)" />

<path d="M460,-325c0,0,-148,79,-231,172c0,0,-84,93,-123,217c0,0,-39,126,-39,304c0,0,0,178,39,303c0,0,39,125,122,217c0,0,82,93,232,172V997c0,0,-91,-52,-145,-134c0,0,-54,-81,-79,-190c0,0,-25,-109,-25,-305c0,0,0,-194,26,-309c0,0,26,-114,82,-193c0,0,56,-79,141,-128v-63Z" 
id="f3_c"
transform="scale(0.001,-0.001)" />

<path d="M49,-325v63c0,0,85,49,140,128c0,0,56,79,83,194c0,0,26,115,26,308c0,0,0,196,-25,305c0,0,-25,109,-79,190c0,0,-54,82,-145,134v63c0,0,149,-80,232,-172c0,0,83,-92,122,-217c0,0,39,-125,39,-303c0,0,0,-177,-39,-303c0,0,-39,-125,-122,-217c0,0,-83,-93,-232,-173Z" 
id="f3_d"
transform="scale(0.001,-0.001)" />

<path d="M383,64c0,0,85,0,152,28V645c0,0,-67,13,-152,13c0,0,-194,0,-194,-314c0,0,0,-141,48,-211c0,0,48,-69,146,-69ZM342,-14c0,0,-287,0,-287,358c0,0,0,184,82,280c0,0,81,96,239,96c0,0,81,0,163,-18c0,0,-4,25,-4,124v182l-118,18v34H659V52L745,33V0H548l-9,52c0,0,-84,-66,-197,-66Z" 
id="f3_20"
transform="scale(0.001,-0.001)" />

<path d="M342,-14c0,0,-138,0,-276,29L57,258h69L165,96c0,0,65,-36,136,-36c0,0,90,0,141,58c0,0,50,57,50,161c0,0,0,91,-40,139c0,0,-41,48,-132,54l-87,5v90l84,6c0,0,66,5,98,49c0,0,32,44,32,134c0,0,0,83,-38,131c0,0,-38,48,-107,48c0,0,-40,0,-66,-13c0,0,-26,-12,-49,-26L155,751H90V979c0,0,76,19,132,26c0,0,55,6,108,6c0,0,337,0,337,-246c0,0,0,-102,-54,-164c0,0,-54,-63,-153,-78c0,0,252,-30,252,-251c0,0,0,-136,-98,-211c0,0,-98,-75,-272,-75Z" 
id="f2_n"
transform="scale(0.001,-0.001)" />

<path d="M44,0V40L172,60V941L44,960v40H445V960L316,941V549H787V941L659,960v40h400V960L930,941V60L1059,40V0H659V40L787,60V481H316V60L445,40V0Z" 
id="f3_18"
transform="scale(0.001,-0.001)" />

<path d="M289,-14c0,0,-179,0,-179,205V649L20,668v33H233V200c0,0,0,-128,120,-128c0,0,92,0,173,23V649L420,668v33H649V52L738,33V0H533l-6,57C527,57,474,28,405,7c0,0,-69,-21,-116,-21Z" 
id="f3_2h"
transform="scale(0.001,-0.001)" />

<path d="M306,-20c0,0,-39,0,-65,25c0,0,-25,27,-25,64c0,0,0,38,26,64c0,0,26,26,64,26c0,0,37,0,63,-25c0,0,26,-26,26,-65c0,0,0,-37,-25,-64c0,0,-26,-25,-64,-25ZM269,261L249,510l107,22c0,0,64,13,93,65c0,0,29,52,29,152c0,0,0,109,-39,154c0,0,-40,45,-140,45c0,0,-83,0,-145,-36L128,789H79V979c0,0,118,32,220,32c0,0,316,0,316,-253c0,0,0,-121,-60,-195c0,0,-60,-74,-175,-98l-42,-9L328,261Z" 
id="f3_z"
transform="scale(0.001,-0.001)" />

<path d="M420,-22L89,941L1,960v40H383V960L236,941L474,236L744,930h33L1037,236l227,705l-156,19v40h331V960l-87,-19L1025,-22H985L726,666L460,-22Z" 
id="f3_1n"
transform="scale(0.001,-0.001)" />

<path d="M191,-20c0,0,-39,0,-65,25c0,0,-25,27,-25,64c0,0,0,38,26,64c0,0,26,26,64,26c0,0,38,0,64,-26c0,0,26,-26,26,-64c0,0,0,-37,-25,-64c0,0,-26,-25,-65,-25Z" 
id="f3_i"
transform="scale(0.001,-0.001)" />

<path d="M577,-14c0,0,-243,0,-379,131C198,117,63,248,63,488c0,0,0,263,131,393c0,0,132,130,386,130c0,0,182,0,352,-45V751H882L862,875c0,0,-52,37,-124,57c0,0,-72,19,-152,19c0,0,-191,0,-279,-113c0,0,-88,-114,-88,-348c0,0,0,-220,91,-333c0,0,91,-114,269,-114c0,0,63,0,131,15c0,0,69,15,105,36V377L686,397v40h370V397L958,377V52C958,52,871,24,778,5c0,0,-93,-19,-201,-19Z" 
id="f3_17"
transform="scale(0.001,-0.001)" />

<path d="M681,416L504,902L333,416ZM669,0V40L803,60L704,348H310L210,60L344,40V0H15V40L128,60l341,949H611L965,60L1092,40V0Z" 
id="f3_11"
transform="scale(0.001,-0.001)" />

<path d="M663,0V40L790,60L527,448L236,60L360,40V0H34V40L144,60L484,512L194,941L81,960v40H494V960L367,941L574,633L806,941L683,960v40h327V960L900,941L618,567L962,60L1076,40V0Z" 
id="f3_1o"
transform="scale(0.001,-0.001)" />

<path d="M350,-14c0,0,-142,0,-253,31L89,228h49L172,87c0,0,32,-18,78,-29c0,0,46,-11,88,-11c0,0,118,0,173,56c0,0,56,55,56,187c0,0,0,93,-24,140c0,0,-24,47,-76,70c0,0,-52,22,-140,22c0,0,-68,0,-133,-18H122v496H630V886H189V567c0,0,81,18,173,18c0,0,173,0,258,-71c0,0,84,-71,84,-216c0,0,0,-151,-92,-232c0,0,-91,-80,-262,-80Z" 
id="f3_p"
transform="scale(0.001,-0.001)" />

<path d="M360,-14L72,649L0,668v33H327V668L216,648L420,164L615,649L504,668v33H764V668L697,652L416,-14Z" 
id="f3_2i"
transform="scale(0.001,-0.001)" />

<path d="M178,0L615,886H176L150,764H101v236H720V943L274,0Z" 
id="f3_r"
transform="scale(0.001,-0.001)" />

<path d="M76,316v76H787V316Zm0,306v76H787V622Z" 
id="f3_x"
transform="scale(0.001,-0.001)" />

<path d="M44,0V40L172,60V941L44,960v40H471V960L316,941V65H513c0,0,159,0,234,14l46,208h48L828,0Z" 
id="f3_1c"
transform="scale(0.001,-0.001)" />

<path d="M868,0L251,900V60L385,40V0H44V40L172,60V941L44,960v40H347L862,259V941L727,960v40h341V960L940,941V0Z" 
id="f3_1e"
transform="scale(0.001,-0.001)" />

<path d="M617,0L251,860V60L385,40V0H44V40L172,60V941L44,960v40H347L672,239l355,761h287V960L1185,941V60L1314,40V0H908V40l134,20V859L643,0Z" 
id="f3_1d"
transform="scale(0.001,-0.001)" />

<path d="M435,350V646c0,0,0,84,7,158L145,350ZM435,0V198H21V319l450,686H636V350H736V198H636V0Z" 
id="f2_o"
transform="scale(0.001,-0.001)" />

<path d="M529,65c0,0,183,0,270,108c0,0,87,108,87,334c0,0,0,210,-113,318c0,0,-113,108,-322,108H316V71c0,0,90,-6,213,-6Zm0,-67L172,0H44V40L172,60V941L44,960v40H498c0,0,277,0,411,-123c0,0,133,-124,133,-371c0,0,0,-251,-129,-380C913,126,785,-2,529,-2Z" 
id="f3_14"
transform="scale(0.001,-0.001)" />

<path d="M54,0V40L172,60V941L44,960v40H794V760H745L721,922c0,0,-83,11,-241,11H316V516H611l23,120h46V328H634L611,449H316V60L483,40V0Z" 
id="f3_16"
transform="scale(0.001,-0.001)" />

<path d="M410,45c0,0,90,0,130,58c0,0,40,59,40,193c0,0,0,122,-38,177c0,0,-38,54,-122,54c0,0,-102,0,-217,-37c0,0,0,-227,51,-336c0,0,52,-109,156,-109Zm3,-59c0,0,-169,0,-258,131c0,0,-89,131,-89,377c0,0,0,161,47,278c0,0,47,117,131,178c0,0,85,61,196,61c0,0,109,0,217,-26V813H608L582,915c0,0,-25,13,-67,23c0,0,-41,10,-75,10c0,0,-109,0,-170,-105c0,0,-60,-106,-66,-308c0,0,121,63,244,63c0,0,132,0,201,-74c0,0,69,-74,69,-214c0,0,0,-156,-78,-240c0,0,-79,-84,-227,-84Z" 
id="f3_q"
transform="scale(0.001,-0.001)" />

<path d="M551,45c0,0,171,0,252,108c0,0,82,108,82,349c0,0,0,239,-81,344c0,0,-81,105,-253,105c0,0,-172,0,-252,-105c0,0,-80,-105,-80,-344c0,0,0,-241,80,-349c0,0,81,-108,252,-108Zm0,-59c0,0,-238,0,-363,129C188,115,63,245,63,501c0,0,0,510,488,510c0,0,242,0,366,-129c0,0,124,-130,124,-381c0,0,0,-255,-126,-385C915,116,790,-14,551,-14Z" 
id="f3_1f"
transform="scale(0.001,-0.001)" />

<path d="M346,-14c0,0,-139,0,-276,29L61,258h69L169,96c0,0,29,-16,71,-26c0,0,43,-10,77,-10c0,0,172,0,172,230c0,0,0,120,-44,174c0,0,-44,53,-139,53c0,0,-53,0,-97,-19L186,488H111v512H633V834H194V571c0,0,91,21,164,21c0,0,178,0,264,-74c0,0,86,-73,86,-220c0,0,0,-151,-94,-232c0,0,-93,-80,-268,-80Z" 
id="f2_p"
transform="scale(0.001,-0.001)" />

<path d="M148,-329c0,0,-58,0,-114,13v151H69l24,-71c0,0,23,-17,64,-17c0,0,39,0,72,22c0,0,33,23,60,67c0,0,27,44,68,157L90,649L19,668v33H344V668L233,648L423,158L606,649L497,668v33H758V668L685,652L411,-43c0,0,-48,-124,-84,-177c0,0,-36,-54,-79,-82c0,0,-44,-27,-100,-27Z" 
id="f3_2l"
transform="scale(0.001,-0.001)" />

<path d="M41,0V34L426,641H261c0,0,-42,0,-80,-7c0,0,-39,-7,-54,-19L104,515H69V701H586V665L201,60H407c0,0,42,0,89,10c0,0,47,10,66,25l39,147h35L617,0Z" 
id="f3_2m"
transform="scale(0.001,-0.001)" />

<path d="M134,0V40L339,60V876L137,804v39l292,166h39V60L672,40V0Z" 
id="f3_l"
transform="scale(0.001,-0.001)" />

<path d="M577,-14c0,0,-243,0,-379,132C198,118,63,250,63,488c0,0,0,258,130,391c0,0,131,132,387,132c0,0,156,0,335,-38l5,-218H871L848,884c0,0,-52,32,-121,50c0,0,-69,17,-141,17c0,0,-191,0,-279,-112c0,0,-88,-113,-88,-349c0,0,0,-217,92,-332c0,0,92,-115,268,-115c0,0,85,0,160,20c0,0,76,21,120,55l27,149h49L930,32c0,0,-164,-46,-353,-46Z" 
id="f3_13"
transform="scale(0.001,-0.001)" />

<path d="M301,78c0,0,85,0,185,104l81,442c0,0,-29,20,-55,28c0,0,-25,8,-62,8c0,0,-75,0,-137,-56c0,0,-62,-56,-98,-152c0,0,-36,-95,-36,-199c0,0,0,-79,33,-127c0,0,33,-48,89,-48ZM245,-14c0,0,-90,0,-145,66c0,0,-54,66,-54,182c0,0,0,131,57,244c0,0,57,114,152,178c0,0,96,64,208,64c0,0,90,0,170,-33l33,26h40L589,52L673,33L667,0H454l22,117C476,117,350,-14,245,-14Z" 
id="f4_1x"
transform="scale(0.001,-0.001)" />

<path d="M62,0L176,649L88,668l6,33H301L278,543c0,0,55,84,124,130c0,0,69,47,138,47c0,0,37,0,59,-6L566,530H534l-28,95c0,0,-60,0,-124,-46c0,0,-63,-45,-116,-120L186,0Z" 
id="f4_2e"
transform="scale(0.001,-0.001)" />

<path d="M317,45c0,0,74,0,134,54c0,0,60,55,97,153c0,0,36,98,36,200c0,0,0,82,-33,129c0,0,-33,46,-89,46c0,0,-40,0,-93,-29c0,0,-54,-29,-96,-75L192,81c0,0,46,-36,125,-36ZM-88,-325l5,35l90,17L170,649L93,668l6,33H297L283,588c0,0,130,132,235,132c0,0,90,0,145,-67c0,0,55,-66,55,-182c0,0,0,-132,-56,-244C662,227,606,114,510,49c0,0,-97,-63,-209,-63c0,0,-35,0,-72,5c0,0,-37,5,-55,11l-8,-67L130,-273l119,-17l-6,-35Z" 
id="f4_2c"
transform="scale(0.001,-0.001)" />

<path d="M55,0L169,649L81,668l6,33H295L274,557c0,0,52,73,117,118c0,0,65,45,122,45c0,0,66,0,102,-42c0,0,36,-41,36,-121c0,0,51,72,115,117c0,0,64,46,123,46c0,0,63,0,99,-40c0,0,36,-40,36,-116c0,0,0,-16,-3,-42c0,0,-3,-27,-80,-470l98,-19L1032,0H808l77,434c0,0,17,90,17,124c0,0,0,34,-16,54c0,0,-15,21,-49,21c0,0,-33,0,-78,-32c0,0,-46,-31,-83,-80c0,0,-37,-49,-44,-91L558,0H434l76,434c0,0,19,98,19,124c0,0,0,34,-17,54c0,0,-16,21,-51,21c0,0,-33,0,-81,-34c0,0,-47,-33,-84,-80c0,0,-36,-48,-43,-89L179,0Z" 
id="f4_29"
transform="scale(0.001,-0.001)" />

<path d="M52,62L0,114L278,390L0,667l52,52L330,442L608,719l51,-51L382,390L659,114L608,62L330,338L52,62Z" 
id="f5_3a"
transform="scale(0.001,-0.001)" />

<path d="M377,45c0,0,99,0,145,108c0,0,46,109,46,352c0,0,0,240,-45,345c0,0,-46,106,-146,106c0,0,-97,0,-139,-100c0,0,-43,-99,-43,-351c0,0,0,-254,44,-357c0,0,43,-103,138,-103Zm0,-59c0,0,-158,0,-238,132c0,0,-81,133,-81,386c0,0,0,249,81,380c0,0,80,132,244,132c0,0,159,0,241,-130c0,0,82,-130,82,-382c0,0,0,-518,-329,-518Z" 
id="f3_k"
transform="scale(0.001,-0.001)" />


</defs>
</svg>