<?xml version="1.0" encoding="UTF-8" standalone="no"?>
<!DOCTYPE svg PUBLIC "-//W3C//DTD SVG 1.1//EN"
"http://www.w3.org/Graphics/SVG/1.1/DTD/svg11.dtd">
<svg viewBox="0 0 909 1286" version="1.1" xmlns="http://www.w3.org/2000/svg" xmlns:xlink="http://www.w3.org/1999/xlink">
<defs>
<style type="text/css"><![CDATA[
.g0_78{
fill: #FFFFFF;
stroke: #FFFFFF;
stroke-width: 1.5583333;
stroke-linecap: butt;
stroke-linejoin: miter;
stroke-miterlimit: 1000;
}
]]></style>
</defs>
<g fill="#000000" >
<use xlink:href="#f0_5" transform="matrix(12,0,0,12,443.8,1140.7)" />
<use xlink:href="#f0_9" transform="matrix(12,0,0,12,454.7,1140.7)" />
<use xlink:href="#f0_9" transform="matrix(12,0,0,12,86.4,1140.7)" />
<use xlink:href="#f0_a" transform="matrix(12,0,0,12,96.5,1140.7)" />
<use xlink:href="#f1_8" transform="matrix(12,0,0,12,106.7,1140.7)" />
<use xlink:href="#f0_5" transform="matrix(12,0,0,12,111.4,1140.7)" />
<use xlink:href="#f1_8" transform="matrix(12,0,0,12,121.6,1140.7)" />
<use xlink:href="#f0_f" transform="matrix(12,0,0,12,126.3,1140.7)" />
<use xlink:href="#f0_i" transform="matrix(12,0,0,12,766.5,1140.7)" />
<use xlink:href="#f0_3" transform="matrix(12,0,0,12,780.1,1140.7)" />
<use xlink:href="#f0_l" transform="matrix(12,0,0,12,784.8,1140.7)" />
<use xlink:href="#f0_3" transform="matrix(12,0,0,12,797.8,1140.7)" />
<use xlink:href="#f0_h" transform="matrix(12,0,0,12,802.5,1140.7)" />
<use xlink:href="#f0_3" transform="matrix(12,0,0,12,817.5,1140.7)" />
<use xlink:href="#f1_3" transform="matrix(12,0,0,12,129.7,159.8)" />
<use xlink:href="#f1_1c" transform="matrix(12,0,0,12,135.4,159.8)" />
<use xlink:href="#f1_4" transform="matrix(12,0,0,12,145.3,159.8)" />
<use xlink:href="#f1_15" transform="matrix(12,0,0,12,173,159.8)" />
<use xlink:href="#f1_1s" transform="matrix(12,0,0,12,191,159.8)" />
<use xlink:href="#f1_1j" transform="matrix(12,0,0,12,199.1,159.8)" />
<use xlink:href="#f1_1u" transform="matrix(12,0,0,12,204.9,159.8)" />
<use xlink:href="#f1_1f" transform="matrix(12,0,0,12,212.1,159.8)" />
<use xlink:href="#f1_1u" transform="matrix(12,0,0,12,226.7,159.8)" />
<use xlink:href="#f1_1i" transform="matrix(12,0,0,12,233.9,159.8)" />
<use xlink:href="#f1_1f" transform="matrix(12,0,0,12,245.1,159.8)" />
<use xlink:href="#f1_1d" transform="matrix(12,0,0,12,259.7,159.8)" />
<use xlink:href="#f1_1i" transform="matrix(12,0,0,12,267.9,159.8)" />
<use xlink:href="#f1_1f" transform="matrix(12,0,0,12,279,159.8)" />
<use xlink:href="#f1_1n" transform="matrix(12,0,0,12,288.2,159.8)" />
<use xlink:href="#f1_1j" transform="matrix(12,0,0,12,304.6,159.8)" />
<use xlink:href="#f1_1d" transform="matrix(12,0,0,12,310.3,159.8)" />
<use xlink:href="#f1_1b" transform="matrix(12,0,0,12,318.5,159.8)" />
<use xlink:href="#f1_1m" transform="matrix(12,0,0,12,328.7,159.8)" />
<use xlink:href="#f1_1f" transform="matrix(12,0,0,12,339.9,159.8)" />
<use xlink:href="#f1_1r" transform="matrix(12,0,0,12,349.1,159.8)" />
<use xlink:href="#f1_1v" transform="matrix(12,0,0,12,359.3,159.8)" />
<use xlink:href="#f1_1b" transform="matrix(12,0,0,12,370.5,159.8)" />
<use xlink:href="#f1_1u" transform="matrix(12,0,0,12,380.7,159.8)" />
<use xlink:href="#f1_1j" transform="matrix(12,0,0,12,387.9,159.8)" />
<use xlink:href="#f1_1p" transform="matrix(12,0,0,12,393.7,159.8)" />
<use xlink:href="#f1_1o" transform="matrix(12,0,0,12,402.9,159.8)" />
<use xlink:href="#f1_1t" transform="matrix(12,0,0,12,414,159.8)" />
<use xlink:href="#f1_1j" transform="matrix(12,0,0,12,428,159.8)" />
<use xlink:href="#f1_1o" transform="matrix(12,0,0,12,433.8,159.8)" />
<use xlink:href="#f1_1w" transform="matrix(12,0,0,12,444.9,159.8)" />
<use xlink:href="#f1_1p" transform="matrix(12,0,0,12,454.8,159.8)" />
<use xlink:href="#f1_1m" transform="matrix(12,0,0,12,464,159.8)" />
<use xlink:href="#f1_1w" transform="matrix(12,0,0,12,469.8,159.8)" />
<use xlink:href="#f1_1f" transform="matrix(12,0,0,12,479.6,159.8)" />
<use xlink:href="#f1_1e" transform="matrix(12,0,0,12,488.8,159.8)" />
<use xlink:href="#f1_1j" transform="matrix(12,0,0,12,504.8,159.8)" />
<use xlink:href="#f1_1o" transform="matrix(12,0,0,12,510.6,159.8)" />
<use xlink:href="#f1_1u" transform="matrix(12,0,0,12,527.2,159.8)" />
<use xlink:href="#f1_1i" transform="matrix(12,0,0,12,534.4,159.8)" />
<use xlink:href="#f1_1f" transform="matrix(12,0,0,12,545.6,159.8)" />
<use xlink:href="#f1_1g" transform="matrix(12,0,0,12,560.2,159.8)" />
<use xlink:href="#f1_1p" transform="matrix(12,0,0,12,566.3,159.8)" />
<use xlink:href="#f1_1m" transform="matrix(12,0,0,12,575.5,159.8)" />
<use xlink:href="#f1_1m" transform="matrix(12,0,0,12,581.3,159.8)" />
<use xlink:href="#f1_1p" transform="matrix(12,0,0,12,587.1,159.8)" />
<use xlink:href="#f1_1x" transform="matrix(12,0,0,12,596.3,159.8)" />
<use xlink:href="#f1_1j" transform="matrix(12,0,0,12,610.6,159.8)" />
<use xlink:href="#f1_1o" transform="matrix(12,0,0,12,616.3,159.8)" />
<use xlink:href="#f1_1h" transform="matrix(12,0,0,12,627.5,159.8)" />
<use xlink:href="#f1_1s" transform="matrix(12,0,0,12,642.8,159.8)" />
<use xlink:href="#f1_1f" transform="matrix(12,0,0,12,651,159.8)" />
<use xlink:href="#f1_1b" transform="matrix(12,0,0,12,660.2,159.8)" />
<use xlink:href="#f1_1d" transform="matrix(12,0,0,12,670.4,159.8)" />
<use xlink:href="#f1_1u" transform="matrix(12,0,0,12,678.5,159.8)" />
<use xlink:href="#f1_1j" transform="matrix(12,0,0,12,685.7,159.8)" />
<use xlink:href="#f1_1p" transform="matrix(12,0,0,12,691.5,159.8)" />
<use xlink:href="#f1_1o" transform="matrix(12,0,0,12,700.6,159.8)" />
<use xlink:href="#f1_1t" transform="matrix(12,0,0,12,711.8,159.8)" />
<use xlink:href="#f1_j" transform="matrix(12,0,0,12,725.8,159.8)" />
<use xlink:href="#f1_3" transform="matrix(12,0,0,12,173,199.1)" />
<use xlink:href="#f1_1j" transform="matrix(12,0,0,12,178.7,199.1)" />
<use xlink:href="#f1_4" transform="matrix(12,0,0,12,184,199.1)" />
<use xlink:href="#f1_10" transform="matrix(12,0,0,12,216.3,199.1)" />
<use xlink:href="#f1_1f" transform="matrix(12,0,0,12,229.5,199.1)" />
<use xlink:href="#f1_1j" transform="matrix(12,0,0,12,238.7,199.1)" />
<use xlink:href="#f1_1n" transform="matrix(12,0,0,12,244.5,199.1)" />
<use xlink:href="#f1_1f" transform="matrix(12,0,0,12,260.8,199.1)" />
<use xlink:href="#f1_1s" transform="matrix(12,0,0,12,270,199.1)" />
<use xlink:href="#f1_6" transform="matrix(12,0,0,12,278.1,199.1)" />
<use xlink:href="#f1_12" transform="matrix(12,0,0,12,284.3,199.1)" />
<use xlink:href="#f1_1j" transform="matrix(12,0,0,12,296.5,199.1)" />
<use xlink:href="#f1_1f" transform="matrix(12,0,0,12,302.2,199.1)" />
<use xlink:href="#f1_1n" transform="matrix(12,0,0,12,311.4,199.1)" />
<use xlink:href="#f1_1b" transform="matrix(12,0,0,12,327.8,199.1)" />
<use xlink:href="#f1_1o" transform="matrix(12,0,0,12,338,199.1)" />
<use xlink:href="#f1_1o" transform="matrix(12,0,0,12,349.1,199.1)" />
<use xlink:href="#f1_1s" transform="matrix(12,0,0,12,366.2,199.1)" />
<use xlink:href="#f1_1f" transform="matrix(12,0,0,12,374.3,199.1)" />
<use xlink:href="#f1_1b" transform="matrix(12,0,0,12,383.5,199.1)" />
<use xlink:href="#f1_1d" transform="matrix(12,0,0,12,393.7,199.1)" />
<use xlink:href="#f1_1u" transform="matrix(12,0,0,12,401.8,199.1)" />
<use xlink:href="#f1_1j" transform="matrix(12,0,0,12,409,199.1)" />
<use xlink:href="#f1_1p" transform="matrix(12,0,0,12,414.8,199.1)" />
<use xlink:href="#f1_1o" transform="matrix(12,0,0,12,423.9,199.1)" />
<use xlink:href="#f1_3" transform="matrix(12,0,0,12,173,238.5)" />
<use xlink:href="#f1_1j" transform="matrix(12,0,0,12,178.8,238.5)" />
<use xlink:href="#f1_1j" transform="matrix(12,0,0,12,184.3,238.5)" />
<use xlink:href="#f1_4" transform="matrix(12,0,0,12,189.8,238.5)" />
<use xlink:href="#f1_q" transform="matrix(12,0,0,12,216.3,238.5)" />
<use xlink:href="#f1_1s" transform="matrix(12,0,0,12,228.5,238.5)" />
<use xlink:href="#f1_1j" transform="matrix(12,0,0,12,236.6,238.5)" />
<use xlink:href="#f1_1f" transform="matrix(12,0,0,12,242.4,238.5)" />
<use xlink:href="#f1_1e" transform="matrix(12,0,0,12,251.5,238.5)" />
<use xlink:href="#f1_1b" transform="matrix(12,0,0,12,262.1,238.5)" />
<use xlink:href="#f1_1m" transform="matrix(12,0,0,12,272.3,238.5)" />
<use xlink:href="#f1_6" transform="matrix(12,0,0,12,278,238.5)" />
<use xlink:href="#f1_n" transform="matrix(12,0,0,12,284.2,238.5)" />
<use xlink:href="#f1_1s" transform="matrix(12,0,0,12,297.4,238.5)" />
<use xlink:href="#f1_1b" transform="matrix(12,0,0,12,305.5,238.5)" />
<use xlink:href="#f1_1g" transform="matrix(12,0,0,12,315.7,238.5)" />
<use xlink:href="#f1_1u" transform="matrix(12,0,0,12,321.8,238.5)" />
<use xlink:href="#f1_1t" transform="matrix(12,0,0,12,329,238.5)" />
<use xlink:href="#f1_1b" transform="matrix(12,0,0,12,342.6,238.5)" />
<use xlink:href="#f1_1m" transform="matrix(12,0,0,12,352.8,238.5)" />
<use xlink:href="#f1_1l" transform="matrix(12,0,0,12,358.5,238.5)" />
<use xlink:href="#f1_1z" transform="matrix(12,0,0,12,369.4,238.5)" />
<use xlink:href="#f1_1m" transform="matrix(12,0,0,12,379.3,238.5)" />
<use xlink:href="#f1_1b" transform="matrix(12,0,0,12,385,238.5)" />
<use xlink:href="#f1_1u" transform="matrix(12,0,0,12,395.3,238.5)" />
<use xlink:href="#f1_1j" transform="matrix(12,0,0,12,402.4,238.5)" />
<use xlink:href="#f1_1p" transform="matrix(12,0,0,12,408.2,238.5)" />
<use xlink:href="#f1_1o" transform="matrix(12,0,0,12,417.3,238.5)" />
<use xlink:href="#f1_1p" transform="matrix(12,0,0,12,433.6,238.5)" />
<use xlink:href="#f1_1g" transform="matrix(12,0,0,12,442.7,238.5)" />
<use xlink:href="#f1_1b" transform="matrix(12,0,0,12,453.9,238.5)" />
<use xlink:href="#f1_1o" transform="matrix(12,0,0,12,464.2,238.5)" />
<use xlink:href="#f1_1j" transform="matrix(12,0,0,12,475.3,238.5)" />
<use xlink:href="#f1_1t" transform="matrix(12,0,0,12,481.1,238.5)" />
<use xlink:href="#f1_1p" transform="matrix(12,0,0,12,489.5,238.5)" />
<use xlink:href="#f1_1m" transform="matrix(12,0,0,12,498.7,238.5)" />
<use xlink:href="#f1_1f" transform="matrix(12,0,0,12,504.5,238.5)" />
<use xlink:href="#f1_7" transform="matrix(12,0,0,12,513.6,238.5)" />
<use xlink:href="#f0_h" transform="matrix(12,0,0,12,439.6,277.9)" />
<use xlink:href="#f0_j" transform="matrix(12,0,0,12,454.4,277.9)" />
<use xlink:href="#f1_3" transform="matrix(12,0,0,12,129.7,317.2)" />
<use xlink:href="#f1_1b" transform="matrix(12,0,0,12,135.4,317.2)" />
<use xlink:href="#f1_4" transform="matrix(12,0,0,12,145.3,317.2)" />
<use xlink:href="#f1_15" transform="matrix(12,0,0,12,173,317.2)" />
<use xlink:href="#f1_1i" transform="matrix(12,0,0,12,191,317.2)" />
<use xlink:href="#f1_1b" transform="matrix(12,0,0,12,202.2,317.2)" />
<use xlink:href="#f1_1u" transform="matrix(12,0,0,12,212.4,317.2)" />
<use xlink:href="#f1_1i" transform="matrix(12,0,0,12,224.8,317.2)" />
<use xlink:href="#f1_1b" transform="matrix(12,0,0,12,236,317.2)" />
<use xlink:href="#f1_1q" transform="matrix(12,0,0,12,246.2,317.2)" />
<use xlink:href="#f1_1q" transform="matrix(12,0,0,12,256.7,317.2)" />
<use xlink:href="#f1_1f" transform="matrix(12,0,0,12,267.3,317.2)" />
<use xlink:href="#f1_1o" transform="matrix(12,0,0,12,276.5,317.2)" />
<use xlink:href="#f1_1t" transform="matrix(12,0,0,12,287.6,317.2)" />
<use xlink:href="#f1_1x" transform="matrix(12,0,0,12,301.3,317.2)" />
<use xlink:href="#f1_1i" transform="matrix(12,0,0,12,315.6,317.2)" />
<use xlink:href="#f1_1f" transform="matrix(12,0,0,12,326.8,317.2)" />
<use xlink:href="#f1_1o" transform="matrix(12,0,0,12,336,317.2)" />
<use xlink:href="#f1_j" transform="matrix(12,0,0,12,352.3,317.2)" />
<use xlink:href="#f1_3" transform="matrix(12,0,0,12,173,356.5)" />
<use xlink:href="#f1_1j" transform="matrix(12,0,0,12,178.7,356.5)" />
<use xlink:href="#f1_4" transform="matrix(12,0,0,12,184,356.5)" />
<use xlink:href="#f1_z" transform="matrix(12,0,0,12,216.3,356.5)" />
<use xlink:href="#f1_1i" transform="matrix(12,0,0,12,228.4,356.5)" />
<use xlink:href="#f1_1f" transform="matrix(12,0,0,12,239.5,356.5)" />
<use xlink:href="#f1_1o" transform="matrix(12,0,0,12,248.6,356.5)" />
<use xlink:href="#f1_1p" transform="matrix(12,0,0,12,259.7,356.5)" />
<use xlink:href="#f1_1m" transform="matrix(12,0,0,12,268.8,356.5)" />
<use xlink:href="#f1_1s" transform="matrix(12,0,0,12,279.5,356.5)" />
<use xlink:href="#f1_1f" transform="matrix(12,0,0,12,287.6,356.5)" />
<use xlink:href="#f1_1b" transform="matrix(12,0,0,12,296.7,356.5)" />
<use xlink:href="#f1_1d" transform="matrix(12,0,0,12,306.8,356.5)" />
<use xlink:href="#f1_1u" transform="matrix(12,0,0,12,314.9,356.5)" />
<use xlink:href="#f1_1t" transform="matrix(12,0,0,12,322,356.5)" />
<use xlink:href="#f1_1x" transform="matrix(12,0,0,12,335.5,356.5)" />
<use xlink:href="#f1_1j" transform="matrix(12,0,0,12,349.7,356.5)" />
<use xlink:href="#f1_1u" transform="matrix(12,0,0,12,355.4,356.5)" />
<use xlink:href="#f1_1i" transform="matrix(12,0,0,12,362.5,356.5)" />
<use xlink:href="#f1_1d" transform="matrix(12,0,0,12,378.6,356.5)" />
<use xlink:href="#f1_1p" transform="matrix(12,0,0,12,386.7,356.5)" />
<use xlink:href="#f1_1o" transform="matrix(12,0,0,12,395.8,356.5)" />
<use xlink:href="#f1_1d" transform="matrix(12,0,0,12,406.9,356.5)" />
<use xlink:href="#f1_7" transform="matrix(12,0,0,12,414.9,356.5)" />
<use xlink:href="#f1_s" transform="matrix(12,0,0,12,420,356.5)" />
<use xlink:href="#f1_x" transform="matrix(12,0,0,12,435.2,356.5)" />
<use xlink:href="#f1_y" transform="matrix(12,0,0,12,450.1,356.5)" />
<use xlink:href="#f2_6" transform="matrix(9.6,0,0,9.6,464.4,362.7)" />
<use xlink:href="#f1_7" transform="matrix(12,0,0,12,472.4,356.5)" />
<use xlink:href="#f1_3" transform="matrix(12,0,0,12,173,395.8)" />
<use xlink:href="#f1_1j" transform="matrix(12,0,0,12,178.8,395.8)" />
<use xlink:href="#f1_1j" transform="matrix(12,0,0,12,184.3,395.8)" />
<use xlink:href="#f1_4" transform="matrix(12,0,0,12,189.8,395.8)" />
<use xlink:href="#f1_11" transform="matrix(12,0,0,12,216.3,395.8)" />
<use xlink:href="#f1_1b" transform="matrix(12,0,0,12,227.8,395.8)" />
<use xlink:href="#f1_1m" transform="matrix(12,0,0,12,237.9,395.8)" />
<use xlink:href="#f1_1j" transform="matrix(12,0,0,12,243.6,395.8)" />
<use xlink:href="#f1_1d" transform="matrix(12,0,0,12,249.3,395.8)" />
<use xlink:href="#f1_1z" transform="matrix(12,0,0,12,257.4,395.8)" />
<use xlink:href="#f1_1m" transform="matrix(12,0,0,12,267.2,395.8)" />
<use xlink:href="#f1_1j" transform="matrix(12,0,0,12,272.9,395.8)" />
<use xlink:href="#f1_1d" transform="matrix(12,0,0,12,278.6,395.8)" />
<use xlink:href="#f1_1b" transform="matrix(12,0,0,12,291.6,395.8)" />
<use xlink:href="#f1_1d" transform="matrix(12,0,0,12,301.8,395.8)" />
<use xlink:href="#f1_1j" transform="matrix(12,0,0,12,309.8,395.8)" />
<use xlink:href="#f1_1e" transform="matrix(12,0,0,12,315.5,395.8)" />
<use xlink:href="#f1_1s" transform="matrix(12,0,0,12,331,395.8)" />
<use xlink:href="#f1_1f" transform="matrix(12,0,0,12,339,395.8)" />
<use xlink:href="#f1_1b" transform="matrix(12,0,0,12,348.1,395.8)" />
<use xlink:href="#f1_1d" transform="matrix(12,0,0,12,358.2,395.8)" />
<use xlink:href="#f1_1u" transform="matrix(12,0,0,12,366.3,395.8)" />
<use xlink:href="#f1_1t" transform="matrix(12,0,0,12,373.4,395.8)" />
<use xlink:href="#f1_1x" transform="matrix(12,0,0,12,386.8,395.8)" />
<use xlink:href="#f1_1j" transform="matrix(12,0,0,12,401,395.8)" />
<use xlink:href="#f1_1u" transform="matrix(12,0,0,12,406.7,395.8)" />
<use xlink:href="#f1_1i" transform="matrix(12,0,0,12,413.8,395.8)" />
<use xlink:href="#f1_3" transform="matrix(12,0,0,12,429.9,395.8)" />
<use xlink:href="#f1_n" transform="matrix(12,0,0,12,435.9,395.8)" />
<use xlink:href="#f1_s" transform="matrix(12,0,0,12,449.1,395.8)" />
<use xlink:href="#f2_6" transform="matrix(9.6,0,0,9.6,464.5,402)" />
<use xlink:href="#f1_n" transform="matrix(12,0,0,12,472.5,395.8)" />
<use xlink:href="#f1_y" transform="matrix(12,0,0,12,485.6,395.8)" />
<use xlink:href="#f1_4" transform="matrix(12,0,0,12,499.7,395.8)" />
<use xlink:href="#f2_5" transform="matrix(9.6,0,0,9.6,505.9,402)" />
<use xlink:href="#f1_y" transform="matrix(12,0,0,12,514,395.8)" />
<use xlink:href="#f1_8" transform="matrix(12,0,0,12,528.2,395.8)" />
<use xlink:href="#f1_s" transform="matrix(12,0,0,12,533.1,395.8)" />
<use xlink:href="#f3_3" transform="matrix(9.6,0,0,9.6,548.4,389.8)" />
<use xlink:href="#f1_7" transform="matrix(12,0,0,12,562.9,395.8)" />
<use xlink:href="#f1_3" transform="matrix(12,0,0,12,173,435.2)" />
<use xlink:href="#f1_1j" transform="matrix(12,0,0,12,178.9,435.2)" />
<use xlink:href="#f1_1j" transform="matrix(12,0,0,12,184.4,435.2)" />
<use xlink:href="#f1_1j" transform="matrix(12,0,0,12,190,435.2)" />
<use xlink:href="#f1_4" transform="matrix(12,0,0,12,195.5,435.2)" />
<use xlink:href="#f1_p" transform="matrix(12,0,0,12,216.3,435.2)" />
<use xlink:href="#f1_1u" transform="matrix(12,0,0,12,229.5,435.2)" />
<use xlink:href="#f1_1i" transform="matrix(12,0,0,12,236.7,435.2)" />
<use xlink:href="#f1_1z" transform="matrix(12,0,0,12,247.8,435.2)" />
<use xlink:href="#f1_1m" transform="matrix(12,0,0,12,257.7,435.2)" />
<use xlink:href="#f1_1d" transform="matrix(12,0,0,12,268.5,435.2)" />
<use xlink:href="#f1_1i" transform="matrix(12,0,0,12,276.6,435.2)" />
<use xlink:href="#f1_1m" transform="matrix(12,0,0,12,287.8,435.2)" />
<use xlink:href="#f1_1p" transform="matrix(12,0,0,12,293.5,435.2)" />
<use xlink:href="#f1_1s" transform="matrix(12,0,0,12,302.7,435.2)" />
<use xlink:href="#f1_1j" transform="matrix(12,0,0,12,310.8,435.2)" />
<use xlink:href="#f1_1e" transform="matrix(12,0,0,12,316.6,435.2)" />
<use xlink:href="#f1_1f" transform="matrix(12,0,0,12,327.1,435.2)" />
<use xlink:href="#f1_1s" transform="matrix(12,0,0,12,341.3,435.2)" />
<use xlink:href="#f1_1f" transform="matrix(12,0,0,12,349.5,435.2)" />
<use xlink:href="#f1_1b" transform="matrix(12,0,0,12,358.6,435.2)" />
<use xlink:href="#f1_1d" transform="matrix(12,0,0,12,368.8,435.2)" />
<use xlink:href="#f1_1u" transform="matrix(12,0,0,12,376.9,435.2)" />
<use xlink:href="#f1_1t" transform="matrix(12,0,0,12,384.1,435.2)" />
<use xlink:href="#f1_1x" transform="matrix(12,0,0,12,397.6,435.2)" />
<use xlink:href="#f1_1j" transform="matrix(12,0,0,12,411.9,435.2)" />
<use xlink:href="#f1_1u" transform="matrix(12,0,0,12,417.7,435.2)" />
<use xlink:href="#f1_1i" transform="matrix(12,0,0,12,424.8,435.2)" />
<use xlink:href="#f1_x" transform="matrix(12,0,0,12,441,435.2)" />
<use xlink:href="#f1_1b" transform="matrix(12,0,0,12,456,435.2)" />
<use xlink:href="#f1_y" transform="matrix(12,0,0,12,466.2,435.2)" />
<use xlink:href="#f1_n" transform="matrix(12,0,0,12,480.5,435.2)" />
<use xlink:href="#f1_s" transform="matrix(12,0,0,12,493.7,435.2)" />
<use xlink:href="#f2_6" transform="matrix(9.6,0,0,9.6,509.1,441.3)" />
<use xlink:href="#f1_7" transform="matrix(12,0,0,12,517.1,435.2)" />
<use xlink:href="#f1_15" transform="matrix(12,0,0,12,173,474.6)" />
<use xlink:href="#f1_1s" transform="matrix(12,0,0,12,191,474.6)" />
<use xlink:href="#f1_1j" transform="matrix(12,0,0,12,199.1,474.6)" />
<use xlink:href="#f1_1u" transform="matrix(12,0,0,12,204.9,474.6)" />
<use xlink:href="#f1_1f" transform="matrix(12,0,0,12,212.1,474.6)" />
<use xlink:href="#f1_1u" transform="matrix(12,0,0,12,227,474.6)" />
<use xlink:href="#f1_1i" transform="matrix(12,0,0,12,234.2,474.6)" />
<use xlink:href="#f1_1f" transform="matrix(12,0,0,12,245.3,474.6)" />
<use xlink:href="#f1_1d" transform="matrix(12,0,0,12,260.2,474.6)" />
<use xlink:href="#f1_1i" transform="matrix(12,0,0,12,268.4,474.6)" />
<use xlink:href="#f1_1f" transform="matrix(12,0,0,12,279.5,474.6)" />
<use xlink:href="#f1_1n" transform="matrix(12,0,0,12,288.7,474.6)" />
<use xlink:href="#f1_1j" transform="matrix(12,0,0,12,305.1,474.6)" />
<use xlink:href="#f1_1d" transform="matrix(12,0,0,12,310.8,474.6)" />
<use xlink:href="#f1_1b" transform="matrix(12,0,0,12,319,474.6)" />
<use xlink:href="#f1_1m" transform="matrix(12,0,0,12,329.2,474.6)" />
<use xlink:href="#f1_1f" transform="matrix(12,0,0,12,340.7,474.6)" />
<use xlink:href="#f1_1r" transform="matrix(12,0,0,12,349.9,474.6)" />
<use xlink:href="#f1_1v" transform="matrix(12,0,0,12,360.1,474.6)" />
<use xlink:href="#f1_1b" transform="matrix(12,0,0,12,371.3,474.6)" />
<use xlink:href="#f1_1u" transform="matrix(12,0,0,12,381.5,474.6)" />
<use xlink:href="#f1_1j" transform="matrix(12,0,0,12,388.7,474.6)" />
<use xlink:href="#f1_1p" transform="matrix(12,0,0,12,394.4,474.6)" />
<use xlink:href="#f1_1o" transform="matrix(12,0,0,12,403.6,474.6)" />
<use xlink:href="#f1_1t" transform="matrix(12,0,0,12,414.8,474.6)" />
<use xlink:href="#f1_1j" transform="matrix(12,0,0,12,429,474.6)" />
<use xlink:href="#f1_1o" transform="matrix(12,0,0,12,434.8,474.6)" />
<use xlink:href="#f1_1w" transform="matrix(12,0,0,12,445.9,474.6)" />
<use xlink:href="#f1_1p" transform="matrix(12,0,0,12,455.8,474.6)" />
<use xlink:href="#f1_1m" transform="matrix(12,0,0,12,465,474.6)" />
<use xlink:href="#f1_1w" transform="matrix(12,0,0,12,470.8,474.6)" />
<use xlink:href="#f1_1f" transform="matrix(12,0,0,12,480.6,474.6)" />
<use xlink:href="#f1_1e" transform="matrix(12,0,0,12,489.8,474.6)" />
<use xlink:href="#f1_1j" transform="matrix(12,0,0,12,506.1,474.6)" />
<use xlink:href="#f1_1o" transform="matrix(12,0,0,12,511.9,474.6)" />
<use xlink:href="#f1_1u" transform="matrix(12,0,0,12,528.7,474.6)" />
<use xlink:href="#f1_1i" transform="matrix(12,0,0,12,535.9,474.6)" />
<use xlink:href="#f1_1f" transform="matrix(12,0,0,12,547.1,474.6)" />
<use xlink:href="#f1_1b" transform="matrix(12,0,0,12,562,474.6)" />
<use xlink:href="#f1_1c" transform="matrix(12,0,0,12,572.2,474.6)" />
<use xlink:href="#f1_1p" transform="matrix(12,0,0,12,582.4,474.6)" />
<use xlink:href="#f1_1w" transform="matrix(12,0,0,12,591.6,474.6)" />
<use xlink:href="#f1_1f" transform="matrix(12,0,0,12,601.5,474.6)" />
<use xlink:href="#f1_1s" transform="matrix(12,0,0,12,616.4,474.6)" />
<use xlink:href="#f1_1f" transform="matrix(12,0,0,12,624.5,474.6)" />
<use xlink:href="#f1_1b" transform="matrix(12,0,0,12,633.7,474.6)" />
<use xlink:href="#f1_1d" transform="matrix(12,0,0,12,643.9,474.6)" />
<use xlink:href="#f1_1u" transform="matrix(12,0,0,12,652,474.6)" />
<use xlink:href="#f1_1j" transform="matrix(12,0,0,12,659.2,474.6)" />
<use xlink:href="#f1_1p" transform="matrix(12,0,0,12,665,474.6)" />
<use xlink:href="#f1_1o" transform="matrix(12,0,0,12,674.2,474.6)" />
<use xlink:href="#f1_1t" transform="matrix(12,0,0,12,685.3,474.6)" />
<use xlink:href="#f1_7" transform="matrix(12,0,0,12,693.8,474.6)" />
<use xlink:href="#f1_3" transform="matrix(12,0,0,12,129.7,513.9)" />
<use xlink:href="#f1_1c" transform="matrix(12,0,0,12,135.4,513.9)" />
<use xlink:href="#f1_4" transform="matrix(12,0,0,12,145.3,513.9)" />
<use xlink:href="#f1_o" transform="matrix(12,0,0,12,173,513.9)" />
<use xlink:href="#f1_1j" transform="matrix(12,0,0,12,187.2,513.9)" />
<use xlink:href="#f1_1t" transform="matrix(12,0,0,12,192.9,513.9)" />
<use xlink:href="#f1_1u" transform="matrix(12,0,0,12,201.3,513.9)" />
<use xlink:href="#f1_1j" transform="matrix(12,0,0,12,208.4,513.9)" />
<use xlink:href="#f1_1o" transform="matrix(12,0,0,12,214.1,513.9)" />
<use xlink:href="#f1_1h" transform="matrix(12,0,0,12,225.2,513.9)" />
<use xlink:href="#f1_1v" transform="matrix(12,0,0,12,235,513.9)" />
<use xlink:href="#f1_1j" transform="matrix(12,0,0,12,246.1,513.9)" />
<use xlink:href="#f1_1t" transform="matrix(12,0,0,12,251.8,513.9)" />
<use xlink:href="#f1_1i" transform="matrix(12,0,0,12,260.2,513.9)" />
<use xlink:href="#f1_1c" transform="matrix(12,0,0,12,276.3,513.9)" />
<use xlink:href="#f1_1f" transform="matrix(12,0,0,12,286.5,513.9)" />
<use xlink:href="#f1_1u" transform="matrix(12,0,0,12,295.6,513.9)" />
<use xlink:href="#f1_1x" transform="matrix(12,0,0,12,302.7,513.9)" />
<use xlink:href="#f1_1f" transform="matrix(12,0,0,12,316.9,513.9)" />
<use xlink:href="#f1_1f" transform="matrix(12,0,0,12,326,513.9)" />
<use xlink:href="#f1_1o" transform="matrix(12,0,0,12,335.1,513.9)" />
<use xlink:href="#f1_j" transform="matrix(12,0,0,12,351.2,513.9)" />
<use xlink:href="#f1_3" transform="matrix(12,0,0,12,173,553.2)" />
<use xlink:href="#f1_1j" transform="matrix(12,0,0,12,178.7,553.2)" />
<use xlink:href="#f1_4" transform="matrix(12,0,0,12,184,553.2)" />
<use xlink:href="#f1_p" transform="matrix(12,0,0,12,216.3,553.2)" />
<use xlink:href="#f1_1u" transform="matrix(12,0,0,12,229.5,553.2)" />
<use xlink:href="#f1_1i" transform="matrix(12,0,0,12,236.7,553.2)" />
<use xlink:href="#f1_1b" transform="matrix(12,0,0,12,247.9,553.2)" />
<use xlink:href="#f1_1o" transform="matrix(12,0,0,12,258.1,553.2)" />
<use xlink:href="#f1_1p" transform="matrix(12,0,0,12,269.3,553.2)" />
<use xlink:href="#f1_1m" transform="matrix(12,0,0,12,278.5,553.2)" />
<use xlink:href="#f1_1b" transform="matrix(12,0,0,12,290.9,553.2)" />
<use xlink:href="#f1_1o" transform="matrix(12,0,0,12,301.1,553.2)" />
<use xlink:href="#f1_1e" transform="matrix(12,0,0,12,312.2,553.2)" />
<use xlink:href="#f1_z" transform="matrix(12,0,0,12,329.4,553.2)" />
<use xlink:href="#f1_1i" transform="matrix(12,0,0,12,341.6,553.2)" />
<use xlink:href="#f1_1f" transform="matrix(12,0,0,12,352.8,553.2)" />
<use xlink:href="#f1_1o" transform="matrix(12,0,0,12,362,553.2)" />
<use xlink:href="#f1_1p" transform="matrix(12,0,0,12,373.1,553.2)" />
<use xlink:href="#f1_1m" transform="matrix(12,0,0,12,382.3,553.2)" />
<use xlink:href="#f1_3" transform="matrix(12,0,0,12,173,592.5)" />
<use xlink:href="#f1_1j" transform="matrix(12,0,0,12,178.8,592.5)" />
<use xlink:href="#f1_1j" transform="matrix(12,0,0,12,184.3,592.5)" />
<use xlink:href="#f1_4" transform="matrix(12,0,0,12,189.8,592.5)" />
<use xlink:href="#f1_z" transform="matrix(12,0,0,12,216.3,592.5)" />
<use xlink:href="#f1_1s" transform="matrix(12,0,0,12,228.5,592.5)" />
<use xlink:href="#f1_1p" transform="matrix(12,0,0,12,236.6,592.5)" />
<use xlink:href="#f1_1q" transform="matrix(12,0,0,12,245.8,592.5)" />
<use xlink:href="#f1_1b" transform="matrix(12,0,0,12,256.3,592.5)" />
<use xlink:href="#f1_1o" transform="matrix(12,0,0,12,266.5,592.5)" />
<use xlink:href="#f1_6" transform="matrix(12,0,0,12,277.7,592.5)" />
<use xlink:href="#f1_b" transform="matrix(12,0,0,12,283.8,592.5)" />
<use xlink:href="#f1_6" transform="matrix(12,0,0,12,294,592.5)" />
<use xlink:href="#f1_1p" transform="matrix(12,0,0,12,300.2,592.5)" />
<use xlink:href="#f1_1m" transform="matrix(12,0,0,12,309.3,592.5)" />
<use xlink:href="#f1_1b" transform="matrix(12,0,0,12,320.2,592.5)" />
<use xlink:href="#f1_1o" transform="matrix(12,0,0,12,330.4,592.5)" />
<use xlink:href="#f1_1e" transform="matrix(12,0,0,12,341.6,592.5)" />
<use xlink:href="#f1_b" transform="matrix(12,0,0,12,357.2,592.5)" />
<use xlink:href="#f1_6" transform="matrix(12,0,0,12,367.4,592.5)" />
<use xlink:href="#f1_1n" transform="matrix(12,0,0,12,373.5,592.5)" />
<use xlink:href="#f1_1f" transform="matrix(12,0,0,12,389.9,592.5)" />
<use xlink:href="#f1_1u" transform="matrix(12,0,0,12,399.1,592.5)" />
<use xlink:href="#f1_1i" transform="matrix(12,0,0,12,406.2,592.5)" />
<use xlink:href="#f1_1z" transform="matrix(12,0,0,12,417.4,592.5)" />
<use xlink:href="#f1_1m" transform="matrix(12,0,0,12,427.3,592.5)" />
<use xlink:href="#f1_1q" transform="matrix(12,0,0,12,433,592.5)" />
<use xlink:href="#f1_1s" transform="matrix(12,0,0,12,443.6,592.5)" />
<use xlink:href="#f1_1p" transform="matrix(12,0,0,12,451.7,592.5)" />
<use xlink:href="#f1_1q" transform="matrix(12,0,0,12,460.9,592.5)" />
<use xlink:href="#f1_1b" transform="matrix(12,0,0,12,471.4,592.5)" />
<use xlink:href="#f1_1o" transform="matrix(12,0,0,12,481.6,592.5)" />
<use xlink:href="#f1_6" transform="matrix(12,0,0,12,492.8,592.5)" />
<use xlink:href="#f1_b" transform="matrix(12,0,0,12,498.9,592.5)" />
<use xlink:href="#f1_6" transform="matrix(12,0,0,12,509.1,592.5)" />
<use xlink:href="#f1_1p" transform="matrix(12,0,0,12,515.2,592.5)" />
<use xlink:href="#f1_1m" transform="matrix(12,0,0,12,524.4,592.5)" />
</g>
<path fill-rule="evenodd" d="M763.6,1125.5h57.3v16.3H763.6v-16.3Z" class="g0_78" />
<defs>
<path d="M354,0V148H581c3,0,6,0,9,0c52,0,91,12,113,35c24,25,36,66,36,124V1688c0,31,-9,57,-30,74c-20,16,-49,26,-90,27H296v148c161,9,295,28,404,58c110,29,221,74,334,133h119V261c0,-36,10,-65,31,-85c18,-19,45,-28,77,-28c2,0,5,0,7,0h284V0Z" 
id="f0_5"
transform="scale(4.8828125E-4,-4.8828125E-4)" />

<path d="M798,-59C611,-59,460,-10,347,87C235,183,177,303,177,440c0,92,25,163,75,218c49,54,110,80,185,81c67,-1,121,-22,163,-65c45,-41,65,-93,65,-155c0,-44,-10,-84,-29,-114C616,371,578,341,521,310C480,286,458,263,458,241c0,-35,22,-67,66,-93C586,108,659,89,742,89c3,0,7,0,10,0c1,0,3,0,5,0c106,0,191,47,254,137c66,92,98,249,98,474c0,188,-30,325,-93,411c-61,87,-141,130,-237,131c-44,-1,-91,-11,-143,-27c-52,-17,-107,-43,-167,-77c0,-81,-11,-134,-31,-163C420,947,394,932,359,932c-1,0,-3,0,-5,0c-2,0,-5,0,-7,0c-29,0,-51,7,-67,23c-19,17,-28,38,-28,64c0,38,29,98,89,177l73,977c217,-48,411,-74,584,-74c5,0,10,0,15,0c7,0,13,0,20,0c127,0,233,14,318,41c35,11,56,17,62,19c14,-2,22,-12,22,-31c0,-69,-26,-140,-78,-215c-52,-77,-119,-133,-204,-171c-79,-37,-179,-57,-301,-57c-4,0,-9,0,-13,0c-6,0,-12,0,-19,0c-91,0,-194,11,-307,31L481,1303c77,34,147,58,214,75c66,17,128,26,187,26c192,0,359,-66,495,-194c137,-130,204,-302,204,-516c0,-223,-70,-405,-215,-544C1222,9,1033,-59,798,-59Z" 
id="f0_9"
transform="scale(4.8828125E-4,-4.8828125E-4)" />

<path d="M932,89c2,0,3,0,5,0c1,0,2,0,4,0c77,0,142,39,193,119c53,79,78,217,78,408c0,185,-23,313,-72,385c-48,70,-112,107,-190,108C874,1108,805,1065,743,982C681,897,651,778,651,622c0,-179,33,-321,98,-423C795,127,856,89,932,89Zm9,-148C717,-59,538,21,406,183C254,373,177,633,177,963c0,372,93,675,278,904c165,203,368,306,611,306c156,0,280,-40,375,-117c94,-78,140,-166,140,-267c0,-75,-21,-136,-67,-182c-44,-47,-101,-70,-168,-70c-60,0,-108,18,-148,60c-40,39,-60,90,-60,151c0,44,14,87,37,131c15,25,23,46,23,63c0,23,-11,43,-34,59c-23,16,-55,23,-101,25C932,2024,834,1954,768,1813C686,1639,648,1403,651,1100c66,72,136,125,208,160c71,36,146,55,224,55c148,0,280,-53,397,-157c118,-104,176,-260,176,-467c0,-227,-66,-408,-198,-544C1326,8,1153,-59,941,-59Z" 
id="f0_a"
transform="scale(4.8828125E-4,-4.8828125E-4)" />

<path d="M8,0L681,2261H880L205,0Z" 
id="f1_8"
transform="scale(4.8828125E-4,-4.8828125E-4)" />

<path d="M118,0V148H319c3,0,6,0,9,0c41,0,72,11,95,34c25,23,35,55,35,95V2006c0,37,-10,64,-35,81c-24,17,-67,26,-128,27H118v147H2099l44,-797H2011c-33,184,-74,319,-123,403c-47,81,-111,144,-191,185c-78,41,-181,61,-310,62H1071c-49,-1,-84,-10,-107,-29c-21,-18,-32,-44,-32,-76V1242h107c2,0,5,0,8,0c120,0,213,35,281,104c68,69,108,182,120,339h133V620H1448c-9,173,-49,295,-117,367c-68,70,-173,105,-310,107H932V258c0,-36,11,-62,32,-78c32,-21,75,-32,131,-32c4,0,7,0,11,0h277c2,0,4,0,7,0c186,0,338,58,456,176c120,116,195,295,224,533h133L2173,0Z" 
id="f0_f"
transform="scale(4.8828125E-4,-4.8828125E-4)" />

<path d="M1291,1153c92,0,174,20,246,62c75,39,128,90,160,149c32,58,48,155,48,286c0,180,-49,307,-147,383c-70,52,-192,80,-365,81c-98,-1,-160,-9,-188,-26c-26,-16,-40,-45,-40,-85V1153h275c4,0,7,0,11,0ZM193,0V148H394c3,0,6,0,9,0c41,0,74,11,95,32c23,22,34,54,34,95V1989c0,37,-11,67,-35,90c-23,23,-52,34,-86,35H193v147H1506c223,0,402,-61,538,-182c136,-120,203,-267,203,-441c0,-135,-39,-251,-117,-349c-78,-100,-184,-172,-317,-218c-127,-43,-254,-66,-380,-66c-4,0,-8,0,-12,0H1005V275c0,-41,13,-73,35,-95c23,-21,50,-32,84,-32c2,0,4,0,7,0h259V0Z" 
id="f0_i"
transform="scale(4.8828125E-4,-4.8828125E-4)" />

<path d="M420,-59c-70,0,-131,26,-182,74C188,66,162,127,162,200c0,70,26,130,76,182c51,49,112,75,182,76c72,-1,133,-27,185,-76c50,-52,75,-112,75,-182C680,127,655,66,605,15C553,-33,492,-59,420,-59Z" 
id="f0_3"
transform="scale(4.8828125E-4,-4.8828125E-4)" />

<path d="M532,0V148H781c2,0,4,0,7,0c33,0,61,11,81,31c23,20,32,47,32,82V1995c0,40,-9,69,-32,89c-21,18,-55,29,-101,30C513,2113,342,1876,252,1404H118l44,857H2114l45,-857H2026c-34,182,-75,324,-127,426c-50,101,-110,174,-176,219c-65,43,-137,64,-217,65c-45,-1,-79,-10,-100,-29c-20,-19,-31,-45,-31,-81V261c0,-33,11,-61,32,-82c20,-20,43,-31,71,-31c2,0,4,0,5,0h262V0Z" 
id="f0_l"
transform="scale(4.8828125E-4,-4.8828125E-4)" />

<path d="M1296,89c3,0,6,0,9,0c1,0,3,0,5,0c185,0,333,79,444,235c113,157,168,432,168,825c0,272,-24,477,-72,614c-49,138,-121,240,-215,309c-95,65,-207,101,-332,101c-124,0,-232,-36,-324,-101C888,2003,814,1894,761,1745C707,1593,680,1389,680,1128c0,-275,24,-485,75,-624C805,361,877,257,972,189C1066,122,1173,89,1296,89Zm-2,-148C1077,-59,880,-7,707,95C535,199,397,338,298,515C197,691,148,894,148,1128c0,345,110,629,329,855c220,225,492,336,814,338c214,-2,411,-52,591,-156c181,-104,321,-246,422,-425c101,-179,150,-380,150,-605C2454,793,2344,509,2122,281C1899,53,1624,-59,1294,-59Z" 
id="f0_h"
transform="scale(4.8828125E-4,-4.8828125E-4)" />

<path d="M993,-606C830,-460,706,-338,622,-236C486,-72,382,99,312,280C241,461,206,651,206,848c0,194,34,377,100,553c65,174,163,342,290,501c88,109,221,243,397,403l41,-84C886,2067,776,1930,704,1806C634,1681,581,1540,544,1383C506,1225,487,1043,487,839c0,-200,20,-378,58,-532C585,151,642,8,715,-118c73,-130,179,-266,319,-408l-41,-80Z" 
id="f1_3"
transform="scale(4.8828125E-4,-4.8828125E-4)" />

<path d="M952,89c102,0,183,47,244,139c80,117,119,285,119,504c0,214,-33,370,-103,467c-71,97,-156,145,-262,145c-114,0,-207,-50,-281,-149C597,1094,562,929,562,700C562,480,597,324,668,229C738,136,830,89,942,89c2,0,3,0,5,0c2,0,3,0,5,0ZM325,-14L266,0c21,116,30,238,30,365V1983c0,49,-16,87,-50,118c-34,27,-81,41,-142,42H44v118l518,31V1228c60,83,127,145,199,187c73,41,153,62,238,64c168,-2,309,-67,425,-199c116,-131,173,-304,173,-518c0,-233,-62,-421,-187,-563C1285,55,1131,-14,946,-14C859,-14,779,2,707,37C637,72,564,131,487,215C431,121,377,44,325,-14Z" 
id="f1_1c"
transform="scale(4.8828125E-4,-4.8828125E-4)" />

<path d="M70,-606l-41,80c141,142,246,278,321,406C423,8,480,151,518,307c40,154,58,332,58,530c0,206,-18,388,-55,546c-38,157,-93,298,-165,423C287,1930,177,2069,29,2221l41,84C249,2143,379,2012,461,1913C590,1754,689,1586,756,1409C823,1230,857,1043,857,848C857,654,825,471,759,301C695,128,597,-39,466,-204C373,-320,241,-454,70,-606Z" 
id="f1_4"
transform="scale(4.8828125E-4,-4.8828125E-4)" />

<path d="M929,-43L296,1956c-24,76,-53,125,-84,151c-32,24,-82,35,-152,36v118H813V2143H759c-79,-1,-131,-7,-154,-18c-21,-14,-34,-32,-34,-56c0,-19,10,-48,23,-84l11,-29L1057,526l410,1326c-46,143,-81,229,-107,253c-26,25,-78,37,-155,38H1065v118h961V2143H1925c-86,-1,-142,-7,-168,-19c-26,-14,-38,-34,-38,-60c0,-23,3,-41,9,-58L2195,526l379,1281c17,48,25,95,25,141c0,66,-17,115,-48,148c-32,31,-79,46,-143,47h-72v118h709V2143c-60,-9,-107,-24,-144,-45c-35,-22,-67,-52,-93,-92c-24,-41,-52,-107,-79,-199L2180,-43H2066L1545,1607L1033,-43Z" 
id="f1_15"
transform="scale(4.8828125E-4,-4.8828125E-4)" />

<path d="M104,0V118H241c48,0,83,9,107,27c25,18,37,41,37,69v903c0,67,-14,117,-43,150c-27,32,-67,48,-120,48H104v120l503,29V889c55,193,120,339,197,440c78,98,172,148,287,150c76,-2,139,-26,185,-73c46,-49,70,-115,70,-194c0,-66,-15,-117,-46,-153c-29,-36,-66,-54,-111,-54c-1,0,-3,0,-5,0c-2,0,-4,0,-5,0c-42,0,-76,17,-102,46c-29,31,-43,73,-43,127c0,34,6,66,16,98c10,24,15,41,15,47c0,15,-9,21,-28,23c-39,-2,-85,-26,-137,-73C830,1202,776,1108,738,987C680,799,651,649,651,536V226c0,-35,12,-63,38,-81c26,-18,67,-27,128,-27h188V0Z" 
id="f1_1s"
transform="scale(4.8828125E-4,-4.8828125E-4)" />

<path d="M89,0V118H248c47,0,80,9,103,32c22,20,34,52,34,93v875c0,54,-17,97,-49,124c-33,28,-81,43,-145,44H73v118l578,31V218c0,-33,9,-58,26,-70c26,-21,56,-30,95,-30H946V0ZM474,1922c-43,0,-81,17,-113,47c-33,31,-51,71,-51,115c0,41,18,79,52,113c34,32,73,49,118,50c46,-1,85,-18,119,-50c35,-34,52,-72,52,-116c0,-44,-17,-81,-51,-112c-32,-30,-70,-47,-114,-47c-2,0,-4,0,-6,0c-2,0,-4,0,-6,0Z" 
id="f1_1j"
transform="scale(4.8828125E-4,-4.8828125E-4)" />

<path d="M706,-14C587,-14,493,17,426,81C359,147,325,231,325,338v962H73v101c118,18,207,67,268,144c90,113,139,273,146,481H591V1435h459V1300H591V368c0,-82,20,-143,57,-186c36,-43,84,-64,140,-64c69,0,129,33,176,99c49,66,78,176,86,330h103C1147,356,1103,214,1022,122C941,31,836,-14,706,-14Z" 
id="f1_1u"
transform="scale(4.8828125E-4,-4.8828125E-4)" />

<path d="M1060,798c40,0,71,12,92,38c20,24,31,67,31,130c0,113,-36,209,-109,288c-73,80,-159,119,-258,121C704,1373,611,1326,535,1230C457,1134,417,990,414,798ZM816,-43C623,-43,461,24,330,163C199,303,133,480,133,698c0,231,66,420,195,564c132,144,292,215,483,217c141,-2,263,-38,364,-110c102,-73,180,-179,231,-313c36,-97,56,-217,58,-361H414C420,478,461,325,539,238C627,139,739,89,874,89c2,0,4,0,6,0c1,0,3,0,4,0c201,0,363,114,486,340l94,-44C1314,98,1098,-43,816,-43Z" 
id="f1_1f"
transform="scale(4.8828125E-4,-4.8828125E-4)" />

<path d="M104,0V118h87c60,0,102,10,127,33c24,23,36,58,36,107V1962c0,59,-15,105,-48,136c-33,29,-80,44,-141,45H60v118l560,31V1186c75,96,156,169,242,218c85,49,175,73,270,75c92,-2,174,-25,246,-66c57,-36,104,-98,144,-183c41,-87,59,-190,59,-307V243c0,-44,12,-76,34,-96c21,-20,55,-29,99,-29h119V0H1065V118h82c65,0,109,9,133,30c23,22,35,52,35,95V923c0,117,-27,209,-82,278c-57,66,-128,99,-215,99c-68,0,-130,-20,-188,-56C772,1205,723,1147,681,1071C642,995,620,914,620,828V258c0,-52,13,-88,32,-108c20,-23,55,-32,103,-32H872V0Z" 
id="f1_1i"
transform="scale(4.8828125E-4,-4.8828125E-4)" />

<path d="M778,-43C579,-43,417,20,292,153C167,284,104,460,104,678c0,254,69,450,205,590c137,139,298,209,482,211c139,-2,254,-40,344,-115c92,-78,136,-162,136,-255c0,-56,-17,-102,-52,-139c-32,-35,-72,-53,-117,-53c-1,0,-3,0,-5,0c-2,0,-4,0,-6,0c-43,0,-81,16,-112,46c-30,30,-47,68,-47,113c0,42,17,85,49,126c17,19,24,34,24,46c0,28,-18,57,-56,84c-40,28,-92,41,-158,43C671,1373,579,1329,518,1238C429,1105,385,930,385,715C385,509,425,351,504,246C583,142,683,89,805,89c1,0,3,0,5,0c1,0,2,0,3,0c170,0,295,114,377,340l112,-30C1222,102,1047,-43,778,-43Z" 
id="f1_1d"
transform="scale(4.8828125E-4,-4.8828125E-4)" />

<path d="M133,0V118H249c44,0,78,9,101,30c23,19,35,45,35,78v926c0,50,-14,89,-40,113c-26,26,-76,43,-152,50v120l414,29c21,-104,36,-202,44,-294c75,112,151,191,227,239c75,45,159,68,250,70c97,-2,178,-29,241,-80c63,-53,111,-139,145,-255c67,110,142,194,225,251c84,55,172,82,270,84c130,-2,228,-41,290,-119c84,-104,126,-237,126,-399V241c0,-44,12,-73,33,-88c32,-23,78,-35,139,-35h78V0H1907V118h76c64,0,110,9,136,30c26,22,40,52,40,93V963c0,106,-26,189,-75,249c-51,58,-116,88,-199,88c-61,0,-116,-18,-166,-52c-51,-35,-90,-85,-119,-148c-42,-92,-63,-171,-63,-234V241c0,-42,12,-74,37,-93c24,-21,61,-30,110,-30h105V0H1021V118h87c55,0,96,9,123,30c28,22,40,48,40,80V897c0,139,-23,243,-70,307c-48,64,-112,96,-193,96c-104,0,-183,-37,-240,-111C691,1083,651,959,651,820V241c0,-44,11,-74,30,-90c31,-23,78,-33,141,-33h79V0Z" 
id="f1_1n"
transform="scale(4.8828125E-4,-4.8828125E-4)" />

<path d="M652,60c2,0,4,0,6,0c2,0,4,0,6,0c119,0,224,45,311,137c90,92,134,208,134,348V753C846,717,660,658,550,576C469,513,429,426,429,313c0,-81,22,-143,63,-188C533,82,586,60,652,60ZM597,-43C451,-43,339,-13,263,49C186,112,148,193,148,292c0,148,87,270,263,368c174,98,408,163,698,197v226c0,80,-30,147,-93,205c-61,56,-139,85,-234,87c-87,-2,-163,-20,-227,-58c-45,-29,-68,-57,-68,-83c0,-16,13,-41,34,-74c27,-43,41,-81,41,-112c0,-49,-15,-87,-44,-116C489,903,453,888,407,888c-2,0,-4,0,-7,0c-2,0,-4,0,-6,0c-48,0,-88,16,-121,50c-33,35,-51,80,-51,135c0,100,58,192,172,278c115,84,264,126,451,128c173,-2,304,-40,394,-113c90,-77,136,-168,136,-275V295c0,-72,11,-124,32,-156c22,-34,48,-50,81,-50c2,0,3,0,5,0c1,0,3,0,5,0c38,0,78,15,118,44l54,-76C1595,-10,1513,-43,1421,-43c-70,0,-130,16,-177,51c-48,35,-91,99,-126,189C1022,99,937,35,863,3C788,-28,701,-43,597,-43Z" 
id="f1_1b"
transform="scale(4.8828125E-4,-4.8828125E-4)" />

<path d="M89,0V118H238c51,0,86,10,110,33c25,22,37,54,37,95V1983c0,49,-14,87,-40,112c-36,30,-81,47,-133,48H89v118l562,31V214c0,-29,7,-51,24,-66c26,-21,57,-30,93,-30H917V0Z" 
id="f1_1m"
transform="scale(4.8828125E-4,-4.8828125E-4)" />

<path d="M813,89c65,0,125,21,182,64c59,44,105,110,137,198c34,87,51,207,51,356c0,175,-16,306,-46,395c-29,88,-75,157,-135,203c-59,46,-124,68,-192,70C704,1373,619,1322,548,1218C478,1112,443,950,443,730C443,504,478,341,548,240C618,139,702,89,802,89c2,0,3,0,5,0c2,0,4,0,6,0ZM917,-590v117h99c61,0,104,13,128,36c26,21,39,58,39,108V202C1123,119,1057,57,985,17C914,-23,834,-43,749,-43C585,-43,443,26,325,168C206,310,148,489,148,706c0,143,31,276,90,399c61,119,141,212,240,276c101,64,206,96,316,98c81,-2,159,-20,231,-55c72,-35,150,-96,231,-182c55,86,113,164,179,237l44,-44c-20,-123,-31,-251,-31,-388V-326c0,-53,11,-90,31,-108c29,-26,72,-39,131,-39h60V-590Z" 
id="f1_1r"
transform="scale(4.8828125E-4,-4.8828125E-4)" />

<path d="M788,-14C663,-14,556,28,471,115C383,200,341,345,341,550v622c0,53,-22,95,-66,124c-31,19,-92,30,-186,35v117l518,16V523c0,-117,27,-205,84,-268c56,-62,128,-93,217,-93c108,0,201,44,279,136c76,92,115,206,115,344v530c0,49,-17,85,-52,113c-35,26,-103,41,-200,46v117l518,16V286c0,-55,13,-97,42,-126c29,-29,71,-42,123,-42h85V0L1331,-14l-29,312C1216,193,1132,115,1048,63C963,11,877,-14,788,-14Z" 
id="f1_1v"
transform="scale(4.8828125E-4,-4.8828125E-4)" />

<path d="M784,60c117,0,215,53,287,157c75,105,112,280,112,522c0,224,-36,384,-110,485c-74,101,-172,149,-294,151C665,1373,570,1322,495,1216C422,1111,385,947,385,721C385,490,422,322,495,217C567,113,660,60,774,60c2,0,4,0,5,0c2,0,3,0,5,0ZM770,-43C585,-43,426,24,298,167C168,307,104,490,104,717c0,224,66,407,194,548c131,141,290,212,481,214c194,-2,356,-72,488,-211c131,-140,197,-324,197,-551c0,-158,-29,-292,-89,-402C1317,203,1233,116,1123,52C1014,-11,897,-43,770,-43Z" 
id="f1_1p"
transform="scale(4.8828125E-4,-4.8828125E-4)" />

<path d="M118,0V118h99c50,0,89,9,115,30c24,19,38,45,38,75v909c0,58,-16,106,-48,136c-30,31,-76,47,-134,47H118v120l473,29c20,-89,35,-191,45,-307c62,105,137,186,223,239c87,54,184,81,293,83c93,-2,173,-21,235,-58c63,-38,115,-98,153,-179c38,-81,57,-173,57,-273V263c0,-54,12,-90,35,-112c23,-23,62,-33,116,-33h101V0H1079V118h71c68,0,115,9,141,32c26,21,40,53,40,96V863c0,133,-20,234,-60,300c-55,91,-137,137,-249,137c-110,0,-202,-47,-275,-139C672,1066,636,946,636,796V263c0,-54,12,-92,36,-112c23,-23,63,-33,116,-33H888V0Z" 
id="f1_1o"
transform="scale(4.8828125E-4,-4.8828125E-4)" />

<path d="M784,-43C642,-43,509,2,387,96L275,-28H193L162,532H266C332,353,406,229,489,160C571,93,672,60,791,60c3,0,5,0,8,0c3,0,7,0,10,0c110,0,193,24,253,71c61,49,91,113,91,190c0,43,-12,79,-33,113c-23,32,-54,56,-92,73c-40,16,-142,40,-307,72C564,611,454,643,391,678C328,712,280,759,244,820c-35,60,-51,126,-51,198c0,106,35,204,105,293c90,111,217,166,380,168c126,-2,240,-52,346,-154l100,110h63l40,-518H1123c-44,160,-105,278,-180,350c-77,71,-170,106,-280,108c-96,-2,-171,-27,-226,-79c-55,-51,-83,-115,-83,-187c0,-67,26,-122,75,-163C480,900,579,866,726,842c172,-29,284,-54,336,-74c81,-30,143,-76,188,-139c44,-62,65,-140,65,-229C1315,275,1267,170,1166,84C1066,-1,938,-43,784,-43Z" 
id="f1_1t"
transform="scale(4.8828125E-4,-4.8828125E-4)" />

<path d="M799,-43L241,1207c-19,44,-44,75,-74,93c-29,18,-74,29,-138,31v104H739V1331c-94,-5,-155,-13,-181,-28c-26,-14,-40,-35,-40,-62c0,-25,5,-48,14,-69L909,325l359,819c5,14,8,28,8,45c0,74,-75,120,-226,142v104h591V1331c-60,-8,-109,-25,-144,-51c-35,-27,-62,-64,-81,-108L883,-43Z" 
id="f1_1w"
transform="scale(4.8828125E-4,-4.8828125E-4)" />

<path d="M781,118c111,0,206,52,284,159c79,105,118,261,118,466c0,192,-42,343,-127,455c-72,98,-162,146,-271,146c-108,0,-195,-45,-259,-136C461,1118,429,966,429,752c0,-234,32,-398,98,-492C593,165,677,118,781,118ZM726,-14C565,-14,429,52,316,188C205,324,148,504,148,729c0,241,72,434,216,579c113,113,243,169,389,171c90,-2,171,-26,243,-72c72,-47,135,-118,187,-211v808c0,42,-16,75,-48,101c-32,25,-82,37,-150,38H888v118l560,31V330c0,-76,17,-131,48,-163c32,-34,79,-49,140,-49h109V0H1227l-44,292C1126,188,1059,112,982,61C906,9,820,-14,726,-14Z" 
id="f1_1e"
transform="scale(4.8828125E-4,-4.8828125E-4)" />

<path d="M73,0V118H194c55,0,93,9,113,27c23,17,34,46,34,86V1300H89v135H341v102c0,254,53,448,160,582c107,133,238,200,396,202c119,-2,211,-29,275,-86c67,-58,99,-133,99,-223c0,-61,-15,-108,-46,-144c-30,-35,-68,-50,-117,-50c-43,0,-78,12,-106,40c-27,27,-41,62,-41,104c0,47,17,85,49,117c27,23,40,42,40,55c0,17,-11,31,-34,46c-23,14,-57,22,-102,23c-87,-1,-159,-40,-219,-116c-59,-76,-88,-189,-88,-339V1435H961V1300H607V257c0,-49,10,-83,33,-101c29,-26,72,-38,127,-38H961V0Z" 
id="f1_1g"
transform="scale(4.8828125E-4,-4.8828125E-4)" />

<path d="M730,-43L232,1224c-15,35,-35,58,-55,70c-20,11,-55,18,-104,21v120H697V1315H614c-40,0,-70,-7,-87,-18c-17,-12,-26,-27,-26,-46c0,-21,5,-44,15,-65L836,373l278,768c-34,84,-66,136,-96,152c-30,15,-81,22,-156,22v120h687V1315h-58c-52,0,-88,-7,-108,-19c-22,-13,-31,-31,-31,-51c0,-20,5,-38,14,-59L1693,373l260,722c18,45,25,83,25,117c0,30,-12,53,-39,73c-26,15,-77,27,-150,30v120h558V1315c-69,-10,-123,-32,-158,-61c-35,-32,-65,-78,-90,-139L1681,-43h-91L1189,955L825,-43Z" 
id="f1_1x"
transform="scale(4.8828125E-4,-4.8828125E-4)" />

<path d="M801,-502c175,0,308,29,397,86c88,58,133,121,133,191c0,41,-14,79,-42,116c-27,35,-71,63,-132,81C1097,-10,1008,0,892,0C704,0,570,-25,490,-77C411,-129,370,-190,370,-262c0,-69,30,-122,90,-162c79,-52,194,-78,341,-78Zm4,1108c87,0,160,34,217,100c58,67,87,163,87,290c0,115,-30,208,-88,277c-60,67,-133,100,-223,102c-91,-2,-164,-35,-222,-99c-58,-66,-89,-158,-89,-274c0,-127,31,-224,89,-293C633,640,704,606,793,606c2,0,4,0,6,1c2,-1,4,-1,6,-1ZM764,-606c-220,0,-384,40,-491,121c-82,61,-125,132,-125,211c0,58,26,113,80,163c53,49,143,88,269,111C396,24,319,60,269,108c-51,49,-76,110,-76,182c0,66,21,124,64,174c41,49,114,91,220,129C387,639,319,695,275,762c-44,68,-69,144,-69,233c0,136,57,250,165,343c109,94,252,139,427,141c71,-2,140,-12,206,-31c67,-18,131,-47,194,-87c105,97,201,145,290,147c52,-2,96,-17,131,-47c36,-31,51,-69,51,-110c0,-37,-11,-66,-35,-91c-22,-21,-48,-33,-76,-33c-2,0,-4,0,-5,0c-1,0,-3,0,-4,0c-57,0,-96,35,-115,104c-10,29,-25,42,-45,44c-35,-2,-75,-24,-119,-70c46,-61,77,-115,93,-159c17,-46,26,-93,26,-144c0,-91,-21,-171,-64,-240C1283,694,1212,633,1112,581C1016,529,923,503,836,503c-3,0,-5,0,-8,0H662C544,501,466,489,426,464C390,437,370,399,370,350c0,-43,15,-75,47,-96c31,-22,92,-32,177,-32l378,15c189,-2,327,-34,411,-96c84,-65,125,-151,125,-261c0,-122,-47,-226,-145,-308C1230,-547,1030,-606,764,-606Z" 
id="f1_1h"
transform="scale(4.8828125E-4,-4.8828125E-4)" />

<path d="M445,-43c-52,0,-98,16,-136,52C270,44,252,87,252,139c0,52,18,95,55,131c38,36,84,54,138,55c53,-1,99,-19,136,-55c36,-35,55,-79,55,-129C636,89,617,44,581,9C544,-27,498,-43,445,-43Zm6,1152c-2,0,-4,0,-6,0c-2,0,-5,0,-7,0c-50,0,-94,18,-131,54c-37,35,-55,79,-55,131c0,49,18,92,55,128c38,37,84,55,136,57c54,-2,101,-20,138,-55c36,-37,55,-80,55,-130c0,-53,-17,-98,-55,-133c-36,-34,-78,-52,-130,-52Z" 
id="f1_j"
transform="scale(4.8828125E-4,-4.8828125E-4)" />

<path d="M1058,1227c172,0,305,33,404,99c99,67,150,187,150,359c0,116,-19,209,-57,280c-38,67,-88,114,-149,140c-60,25,-181,37,-361,38c-118,-1,-191,-9,-218,-25c-28,-17,-43,-46,-43,-86V1227h263c3,0,7,0,11,0ZM1832,-28c-74,0,-138,18,-194,54c-54,37,-96,93,-124,168c-21,55,-44,200,-72,434c-15,134,-38,232,-72,289c-32,58,-84,104,-154,139c-69,35,-151,52,-249,53H784V226c0,-38,10,-64,29,-79c23,-20,61,-29,111,-29h214V0H104V118H319c49,0,84,9,106,29c23,18,33,44,33,79V2027c0,39,-10,66,-33,87c-25,19,-58,28,-106,29H104v118H1259c224,0,397,-52,521,-154c124,-104,186,-239,186,-405c0,-102,-24,-191,-73,-267c-49,-80,-121,-141,-214,-188c-93,-46,-238,-80,-438,-100c146,-41,246,-81,301,-117c55,-40,97,-89,131,-150c34,-63,69,-186,107,-373c27,-134,59,-226,96,-275c27,-35,56,-55,88,-55c1,0,3,0,4,0c1,0,2,0,3,0c32,0,62,23,90,67c29,46,46,127,53,243h103C2198,142,2070,-28,1832,-28Z" 
id="f1_10"
transform="scale(4.8828125E-4,-4.8828125E-4)" />

<path d="M193,591V828H857V591Z" 
id="f1_6"
transform="scale(4.8828125E-4,-4.8828125E-4)" />

<path d="M532,0V118H784c33,0,59,7,76,26c18,16,28,38,28,67V2026c0,38,-13,67,-35,87c-25,20,-63,29,-115,30C590,2142,468,2075,368,1937C287,1824,228,1647,193,1404H73l52,857H1975l51,-857H1907c-69,492,-249,738,-541,739c-60,-1,-99,-10,-121,-32c-21,-19,-33,-53,-33,-97V223c0,-37,12,-63,32,-79c19,-19,55,-26,102,-26h222V0Z" 
id="f1_12"
transform="scale(4.8828125E-4,-4.8828125E-4)" />

<path d="M177,0V118H405c46,0,78,9,98,29c20,18,29,49,29,91V2030c0,40,-9,69,-31,86c-20,17,-55,26,-107,27H177v118H2011l29,-782H1922c-46,266,-112,441,-196,522c-96,95,-232,141,-409,142H958c-35,-1,-60,-9,-76,-25c-16,-17,-25,-42,-25,-74V1242h196c2,0,4,0,6,0c107,0,192,37,255,109c64,71,99,183,105,334h104V651H1419c-7,168,-42,290,-105,362c-63,73,-150,110,-261,110H857V258c0,-52,14,-88,37,-110c24,-21,67,-30,127,-30h235V0Z" 
id="f1_q"
transform="scale(4.8828125E-4,-4.8828125E-4)" />

<path d="M1259,-43C1071,-43,898,2,741,96C584,189,457,324,364,501C269,678,222,872,222,1083c0,225,48,434,146,631c96,196,220,344,371,443c153,98,317,148,491,148c98,0,192,-16,284,-48c90,-33,191,-89,298,-170l95,218h119l44,-915H1951c-66,255,-151,445,-252,569c-127,151,-277,227,-452,229c-190,-2,-344,-86,-463,-254C666,1763,607,1479,607,1076C607,735,674,477,811,299C929,148,1092,73,1303,73c185,0,339,58,463,176c125,118,206,296,245,535h103C2082,516,1991,312,1836,170C1684,26,1493,-43,1259,-43Z" 
id="f1_n"
transform="scale(4.8828125E-4,-4.8828125E-4)" />

<path d="M89,0V118H222c55,0,97,9,123,32c26,20,40,49,40,85V1997c0,44,-15,78,-44,101c-43,29,-101,44,-174,45H89v118l562,31V723l463,403c44,38,65,72,65,101c0,23,-12,41,-39,56c-38,19,-103,29,-194,32v120h754V1315c-149,-7,-262,-44,-342,-108L1021,914L1560,180c33,-42,88,-62,166,-62h77V0H1021V118h76c60,0,98,4,118,15c19,9,29,23,29,37c0,13,-5,27,-16,42L831,749L651,590V215c0,-30,9,-53,29,-67c29,-21,69,-30,119,-30H901V0Z" 
id="f1_1l"
transform="scale(4.8828125E-4,-4.8828125E-4)" />

<path d="M316,-606c-73,0,-131,22,-175,65c-45,42,-68,96,-68,159c0,45,14,85,43,116c28,30,63,45,104,45c38,0,70,-13,96,-39c26,-26,38,-58,38,-93c0,-13,-1,-28,-6,-48c-3,-15,-6,-27,-6,-33c0,-26,17,-39,48,-39c33,0,71,13,114,37c41,24,81,64,118,118c36,55,102,175,195,361L267,1199c-18,35,-41,61,-70,80c-27,17,-69,29,-124,36v120H755V1315H691c-60,0,-100,-7,-121,-21c-22,-15,-34,-35,-34,-60c0,-13,3,-24,8,-35L943,361l308,692c23,47,34,93,34,140c0,35,-15,63,-44,83c-31,20,-89,32,-176,39v120h591V1315c-116,-10,-195,-58,-237,-139L871,-49C775,-265,684,-412,597,-489C510,-566,416,-606,316,-606Z" 
id="f1_1z"
transform="scale(4.8828125E-4,-4.8828125E-4)" />

<path d="M443,-43c-52,0,-98,16,-136,52C270,44,252,89,252,141c0,50,18,93,55,129c38,36,84,54,138,55c53,-1,99,-19,136,-55c36,-36,55,-79,55,-129C636,89,617,44,581,9C544,-27,497,-43,443,-43Z" 
id="f1_7"
transform="scale(4.8828125E-4,-4.8828125E-4)" />

<path d="M1158,1242c164,0,294,43,388,128c73,65,110,175,110,330c0,143,-35,248,-107,314c-73,65,-197,99,-374,100c-93,-1,-154,-12,-177,-32c-25,-21,-37,-67,-37,-139V1242h188c3,0,6,0,9,0ZM1957,-14c-95,0,-173,17,-231,57c-56,40,-100,98,-131,174c-18,43,-43,144,-76,306c-37,187,-71,314,-101,378c-29,66,-67,113,-116,146c-48,30,-106,45,-176,47H961V269c0,-37,11,-64,32,-83c28,-24,61,-38,98,-38c2,0,4,0,6,0h205V0H177V148H351c3,0,5,0,8,0c41,0,73,12,95,35c23,23,33,57,33,100V1978c0,46,-9,80,-30,103c-22,21,-52,32,-90,33H177v147H1341c190,0,344,-26,463,-75c119,-49,208,-116,266,-201c60,-86,89,-179,89,-283c0,-168,-75,-303,-223,-403c-112,-80,-286,-132,-520,-153c121,-20,216,-52,281,-95c66,-43,124,-107,175,-189c61,-110,110,-242,146,-393c25,-99,46,-160,64,-183c19,-23,40,-35,63,-35c66,0,104,88,116,267h135C2385,325,2344,189,2269,108C2195,24,2092,-14,1957,-14Z" 
id="f0_j"
transform="scale(4.8828125E-4,-4.8828125E-4)" />

<path d="M1006,89c105,0,187,42,242,128c75,111,112,278,112,495c0,226,-34,388,-101,486c-66,98,-151,146,-257,146c-110,0,-203,-55,-281,-165C645,1069,607,911,607,704C607,493,643,338,717,238C790,139,883,89,996,89c1,0,3,0,5,0c2,0,3,0,5,0ZM89,-590v117H193c48,0,87,10,110,29c25,19,38,45,38,75V1121c0,68,-17,117,-51,147c-33,28,-101,44,-201,47v120l463,29c22,-103,36,-201,39,-294c71,112,144,190,220,237c78,46,162,70,252,72c98,-2,191,-32,280,-93c89,-61,159,-150,215,-268c55,-119,83,-252,83,-398c0,-237,-67,-431,-202,-579C1326,17,1193,-43,1037,-43c-88,0,-169,21,-241,67C726,69,662,138,607,229V-343c0,-44,10,-76,30,-93c28,-24,67,-37,115,-37H857V-590Z" 
id="f1_1q"
transform="scale(4.8828125E-4,-4.8828125E-4)" />

<path d="M1102,1138c188,0,325,40,409,118c87,79,130,211,130,392c0,127,-20,225,-58,294c-38,67,-95,119,-170,151c-75,32,-198,49,-370,50c-113,-1,-184,-12,-215,-32c-29,-21,-44,-58,-44,-108V1138h307c3,0,7,0,11,0ZM104,0V118H328c45,0,78,7,98,26c22,16,32,42,32,73V2014c0,44,-12,78,-39,97c-26,22,-77,31,-150,32H104v118H1219c252,0,445,-58,578,-171c133,-115,198,-264,198,-448c0,-184,-61,-327,-183,-423C1646,1088,1441,1021,1197,1021c-3,0,-6,0,-8,0H784V251c0,-46,10,-78,30,-97c29,-24,68,-36,115,-36h254V0Z" 
id="f1_z"
transform="scale(4.8828125E-4,-4.8828125E-4)" />

<path d="M148,0V118H332c32,0,58,6,76,20c20,13,34,32,43,56c4,15,7,58,7,130V1951c0,84,-9,137,-27,159c-18,21,-60,32,-124,33H148v118h961V2143H932c-61,-1,-102,-12,-121,-33c-18,-22,-27,-75,-27,-159V1256H1818v695c0,87,-9,141,-27,160c-19,22,-62,31,-130,32H1493v118h976V2143H2290c-44,-1,-75,-6,-93,-18c-18,-11,-34,-30,-44,-56c-6,-19,-10,-65,-10,-136V312c0,-80,7,-127,20,-142c28,-36,77,-52,149,-52h157V0H1493V118h168c68,0,113,16,137,53c14,18,20,70,20,153v785H784V312c0,-80,6,-129,17,-144c26,-34,70,-50,131,-50h177V0Z" 
id="f1_s"
transform="scale(4.8828125E-4,-4.8828125E-4)" />

<path d="M133,0V118c108,3,195,38,260,107c64,65,94,149,94,247V2018l-13,17c-36,46,-66,76,-92,87c-32,14,-76,20,-131,21H133v118H680L2040,460V1762c0,129,-28,227,-87,291c-54,57,-133,87,-239,90v118h784V2143c-80,-1,-139,-12,-177,-33c-40,-25,-74,-64,-104,-124c-29,-59,-44,-124,-44,-192V0H2027L620,1867V492c0,-127,34,-219,98,-280c64,-61,165,-93,303,-94V0Z" 
id="f1_x"
transform="scale(4.8828125E-4,-4.8828125E-4)" />

<path d="M1207,73c131,0,246,35,345,106c100,69,179,180,237,331c60,153,89,352,89,599c0,269,-28,480,-84,631c-55,151,-133,264,-236,338c-100,72,-215,108,-342,110c-198,-2,-359,-83,-483,-246C610,1777,547,1509,547,1140C547,736,611,457,738,304C863,150,1021,73,1207,73Zm-6,-116C1021,-43,849,3,691,102C532,200,403,342,307,527C212,709,162,914,162,1140c0,220,47,418,141,596c93,177,221,316,383,418c162,101,330,151,506,151c191,0,371,-50,537,-149c165,-100,297,-240,392,-419c94,-179,140,-380,140,-602c0,-226,-46,-428,-142,-608C2026,347,1894,206,1729,107C1563,5,1387,-43,1201,-43Z" 
id="f1_y"
transform="scale(4.8828125E-4,-4.8828125E-4)" />

<path d="M840,-36C707,-36,590,-14,493,29C396,73,324,134,277,211c-49,75,-74,162,-74,260c0,76,20,136,57,181c36,45,84,68,140,69c52,-1,95,-18,126,-52c32,-35,47,-81,47,-137c0,-39,-9,-71,-28,-95C527,411,493,387,445,367C396,342,370,319,370,299c0,-32,17,-65,47,-103c31,-37,78,-68,138,-89C614,83,692,73,784,73c160,0,279,39,357,118c78,78,115,203,115,379c0,180,-31,308,-95,386c-63,77,-157,115,-283,115c-33,0,-74,-5,-125,-11c-41,-6,-69,-7,-88,-7c-28,0,-52,6,-68,20c-16,13,-24,32,-24,55c0,21,8,38,24,53c16,12,42,18,77,20l82,-9l75,-9c3,-1,6,-1,9,-1c124,0,219,33,281,98c66,66,98,165,98,304c0,168,-32,288,-96,359c-66,71,-162,107,-292,109c-118,-2,-212,-23,-283,-63C480,1946,443,1910,443,1876c0,-24,23,-53,69,-90c66,-52,98,-105,98,-160c0,-43,-16,-78,-45,-106c-29,-27,-66,-41,-110,-41c-3,0,-5,0,-7,0c-2,0,-4,0,-6,0c-48,0,-86,18,-118,56c-31,39,-47,92,-47,162c0,107,39,202,116,288c111,117,267,175,473,177c191,-2,346,-52,460,-153c115,-104,171,-229,171,-379c0,-108,-30,-203,-93,-281c-61,-79,-166,-148,-318,-208c142,-36,254,-98,332,-178C1520,857,1571,726,1571,570c0,-176,-62,-316,-185,-423C1247,23,1065,-36,840,-36Z" 
id="f2_6"
transform="scale(4.8828125E-4,-4.8828125E-4)" />

<path d="M1073,-43C836,-43,629,29,455,177L281,-28H177V842H281C324,603,422,416,571,280C721,141,891,73,1079,73c152,0,278,45,374,133c96,87,144,194,144,323c0,70,-17,133,-52,188c-36,53,-92,99,-170,137c-76,37,-228,83,-454,136c-247,58,-417,125,-508,199C286,1291,222,1439,222,1630c0,197,65,358,194,486c129,125,293,189,495,189c96,0,189,-18,276,-50c86,-35,177,-92,269,-171l141,208h103V1464H1597c-63,250,-158,434,-282,550c-123,114,-267,172,-427,174C753,2186,643,2147,558,2067C472,1988,429,1890,429,1777c0,-72,17,-136,49,-190c32,-55,80,-97,145,-131c65,-34,185,-72,362,-110c251,-57,427,-115,529,-170c102,-58,179,-128,229,-212c51,-87,75,-186,75,-299c0,-205,-69,-375,-208,-509C1471,21,1291,-43,1073,-43Z" 
id="f1_11"
transform="scale(4.8828125E-4,-4.8828125E-4)" />

<path d="M148,0V81L597,590c252,270,402,440,451,512c73,97,127,194,159,287c34,93,49,179,49,255c0,125,-34,224,-104,298c-69,72,-165,108,-290,110C723,2050,608,2017,521,1949C434,1881,388,1810,388,1736c0,-28,8,-48,20,-58c12,-16,40,-28,81,-37c105,-25,157,-87,157,-183c0,-54,-17,-98,-52,-132c-33,-34,-77,-50,-129,-50c-2,0,-4,0,-7,0c-1,0,-3,0,-4,0c-61,0,-114,29,-161,84c-47,56,-71,133,-71,227c0,103,27,197,79,283c53,84,134,153,243,209c108,54,224,81,348,83c122,-2,237,-28,342,-81c107,-54,185,-124,239,-209c53,-88,79,-181,79,-283c0,-72,-12,-144,-39,-214c-26,-75,-66,-142,-118,-205C1308,1060,1218,967,1124,891L720,550C617,461,542,390,495,330c-45,-60,174,-90,655,-90c12,0,24,0,36,0c2,0,5,0,8,0c72,0,124,20,155,58c32,40,69,150,112,330h110L1517,0Z" 
id="f2_5"
transform="scale(4.8828125E-4,-4.8828125E-4)" />

<path d="M1461,0V831H628v185h833v831h183V1016h833V831H1644V0Z" 
id="f3_3"
transform="scale(4.8828125E-4,-4.8828125E-4)" />

<path d="M193,0V118H350c61,0,105,9,130,30c26,22,38,52,38,92V2026c0,40,-11,67,-32,88c-23,19,-57,28,-106,29H193v118H2011l44,-768H1937c-41,240,-105,409,-194,505c-88,97,-205,144,-347,145H952c-37,-1,-63,-10,-81,-29c-18,-21,-28,-48,-28,-88V1227h191c2,0,4,0,6,0c101,0,183,38,245,111c66,75,99,190,105,347h118V620H1390c-6,174,-41,300,-105,375c-66,74,-154,113,-267,114H843V218c0,-33,11,-58,32,-74c23,-19,58,-26,110,-26h350c382,0,602,241,660,724h119L2070,0Z" 
id="f1_p"
transform="scale(4.8828125E-4,-4.8828125E-4)" />

<path d="M1143,118c172,0,322,44,452,133c84,58,148,140,193,249c61,142,90,342,90,597c0,374,-66,649,-197,825c-112,147,-282,220,-508,221H918c-46,-1,-79,-10,-101,-29c-23,-21,-33,-48,-33,-87V229c0,-36,12,-64,38,-82c26,-20,67,-29,128,-29ZM104,0V118H315c53,0,91,7,111,26c22,16,32,44,32,81V2040c0,30,-10,56,-33,74c-22,19,-54,28,-93,29H104v118H1274c174,0,321,-30,443,-92c151,-77,280,-207,385,-386c107,-182,159,-396,159,-642c0,-204,-30,-388,-95,-550C2119,466,2044,356,1945,263C1846,168,1723,98,1581,52C1474,17,1331,0,1152,0Z" 
id="f1_o"
transform="scale(4.8828125E-4,-4.8828125E-4)" />

<path d="M148,0V84L591,594c248,269,396,440,446,512c72,98,124,194,156,287c34,92,49,178,49,255c0,126,-35,225,-104,298c-69,72,-165,107,-285,109C715,2053,602,2020,515,1953C428,1884,385,1812,385,1736c0,-26,6,-46,18,-58c14,-16,40,-28,80,-37c102,-26,153,-87,153,-185c0,-55,-17,-99,-52,-133c-33,-34,-75,-52,-126,-52c-2,0,-4,0,-6,0c-1,0,-3,0,-4,0c-60,0,-112,29,-156,86c-48,58,-70,133,-70,226c0,104,27,197,81,284c53,84,132,154,241,209c108,54,224,81,348,83c124,-2,239,-28,344,-81c105,-54,185,-122,237,-208c53,-86,79,-179,79,-280c0,-70,-12,-142,-39,-213c-26,-72,-65,-139,-117,-202C1309,1065,1219,972,1126,897L721,558C620,472,545,400,500,341c-48,-61,183,-90,689,-90c78,0,131,19,163,59c34,38,70,147,112,326h104L1519,0Z" 
id="f1_b"
transform="scale(4.8828125E-4,-4.8828125E-4)" />


</defs>
</svg>