<?xml version="1.0" encoding="UTF-8" standalone="no"?>
<!DOCTYPE svg PUBLIC "-//W3C//DTD SVG 1.1//EN"
"http://www.w3.org/Graphics/SVG/1.1/DTD/svg11.dtd">
<svg viewBox="0 0 909 1286" version="1.1" xmlns="http://www.w3.org/2000/svg" xmlns:xlink="http://www.w3.org/1999/xlink">
<defs>
<clipPath id="c0_7"><path d="M785,128.1V107.2h56.1v20.9Z" /></clipPath>
<clipPath id="c1_7"><path d="M179.3,327.9V307H337v20.9Z" /></clipPath>
<clipPath id="c2_7"><path d="M204.6,329.4V318.8H337v10.6Z" /></clipPath>
<clipPath id="c3_7"><path d="M227.7,364.2V343.3H337v20.9Z" /></clipPath>
<clipPath id="c4_7"><path d="M271.3,393.9V373H337v20.9Z" /></clipPath>
<clipPath id="c5_7"><path d="M224,393.6V372.7H337v20.9Z" /></clipPath>
<clipPath id="c6_7"><path d="M177.1,781.1V760.2H427.5v20.9Z" /></clipPath>
<clipPath id="c7_7"><path d="M410.3,1054.3v-19.4H585.6v19.4Z" /></clipPath>
<clipPath id="c8_7"><path d="M404.8,1077v-19.4H585.6V1077Z" /></clipPath>
<clipPath id="c9_7"><path d="M550,1066.8v-20.9h35.6v20.9Z" /></clipPath>
<style type="text/css"><![CDATA[
.g0_7{
fill: #FFFFFF;
}
.g1_7{
fill: #1F1A17;
}
]]></style>
</defs>
<path fill-rule="evenodd" d="M279.7,577.6L310,573.8l1.1,9.8v9.5l-1.1,1l-1,1.8l-2.1,1.8h-2l-2.1,1h-3.3l-2,-1l-2.1,-1.8l-2.1,-2.8l-11.5,9.5l-1,-9.5l11.5,-8.8l-11.5,1l-1.1,-7.7Zm16.7,6v1.7l1.1,2.1l1,1.8l1,1h3.3l1.1,-1l1,-1.8v-4.9l-8.5,1.1Zm2.1,36.2l2,8.7l9.5,-6.6l1.1,-1.1h1l1,-1H298.5Zm-14.7,-7.7l32.7,1l3.1,10.5l-26.3,20.1l-2,-8.5l4.1,-2.8l-3.1,-12.6h-5.4l-3.1,-7.7ZM329,673.5l-2.3,.8l-3,1l-3.1,1l-3.1,-1l-3.4,-1l-3,-.8L309,670.7l-2.1,-2.1l-2,-3.8l-1,-2.9v-6.6l1,-2.9l2,-2.8l1.1,-3.1l3.1,-1.8l2,-1.8l3.4,-1h6.1l3.1,1l3.3,1.8l2.1,1.8l2.1,3.1l2,2.8l1,2.9v6.6l-1,3.9l-1,2.8l-2.1,2.1l-3.1,2.8ZM312.1,664l3.3,2.8l3.1,.8h3.1l3.1,-1.8l2,-2.8l2.3,-2.9v-3.8l-1,-2.8l-2.3,-2.1l-3.1,-1h-4.1l-3.1,1l-2.3,2.8l-2,2.9v3.8l1,3.1Zm31.6,45l18.7,-26l6.4,5.7l-19,25.9L343.7,709Zm20.8,15.2l14.9,-28.9l7.2,4.9L371.9,728l-7.4,-3.8Zm26.2,12.5l7.4,-23.1L392,710.8l3.1,-6.7l19.7,7.7l-2,6.7l-6.2,-2.1l-8.5,23.2l-7.4,-2.9Zm58.8,-1H458l-4.4,-10.5v-2.9l-1,-2v3.9l-1,1l-2.1,10.5Zm-11.6,11.6l9.5,-31.7H458l11.5,31.7h-8.4L459,741.4H447.4l-1,5.9h-8.5ZM494.7,709l2.1,9.5l-2.1,-2.1h-5.4l-3.1,1.1l-2,2.8l-1,3.9l1,2.8l1,3.8l2.1,2.1l3,.7h3.1l2.3,-.7l1.1,-1l2,-1.1l1,-2.8l2.1,9.5l-1,1l-2.1,2.1l-2,.8h-2.1l-2.3,1h-4.1l-2.1,-1l-4.1,-1.8l-2.3,-2.9l-3.1,-3.1l-1,-3.6l-1,-3.8v-3.1l1,-3.6l1,-3.1l2.1,-2.8l2.3,-1.8l2.1,-1l3,-1.8h8.5Zm22.9,10.5l7.4,-4.9l-7.4,-7.7h-1.1v-1l-1,-.8l-1,-1v1l1,.8v2l2.1,11.6Zm-5.2,15.2l-4.1,-33.4l8.2,-4.9l24.2,23.9l-7.2,3.9l-4.4,-4.7l-10.5,5.7l1.3,5.6l-7.5,3.9Zm37.8,-22.1L529.1,689.7l5.4,-4.9l4.1,-4.6l3.1,-2.1l3.3,-1.8h6.2l3.1,1.1l3.1,.7l3.3,3.1l2.1,3.6l1,3.1l1,3.8v3.6l-1,2.1l-1,2.8l-3.1,2.9l-3.4,3.8l-1,1l-5.1,4.7Zm2,-11.3l1.1,-1.1l2,-2.8l1,-3.8v-2.9l-2,-2.8l-3.1,-3.1l-3.1,-.8l-3.1,.8l-3.3,3.1l-1,.8l11.5,12.6Zm28.3,-20.1L555.3,663l11.6,-16.5l5.4,3.9l-6.5,9.7L570,663l6.4,-8.8l5.1,3.9l-6.2,8.7l4.1,3.9l6.5,-9.8l6.1,4.9l-11.5,15.4ZM613.1,618l-3.1,7.7l-13.6,-3.8h-1.3l-1,-1.1l-2.1,-1h-2l2,1l2.1,1.8l1,1l11.6,9.5l-2.1,4.9L590,637h-1l-3.1,-1h-2.1l2.1,1h1l2.1,1l1,1.1l11.5,7.4l-3,7L572.3,637l3,-7.7l16.7,1v1.1h4.4h-1.3l-1,-1.1l-1,-1l-1.1,-.8L579.4,618l3.1,-7.7l30.6,7.7Zm2.1,-21.1l-13.7,-2l-17.7,8.7l1.1,-9.5l8.2,-3.1l2,-.8h1.3l-1.3,-1h-1l-1,-1l-6.2,-4.6l1,-10.6l14.7,14.4l13.6,1.8l-1,7.7Z" class="g0_7" />
<g fill="#000000" >
<use xlink:href="#f0_l" transform="matrix(12,0,0,12,64.9,123.7)" />
<use xlink:href="#f0_p" transform="matrix(12,0,0,12,74.1,123.7)" />
<use xlink:href="#f0_i" transform="matrix(12,0,0,12,83.2,123.7)" />
<use xlink:href="#f0_c" transform="matrix(12,0,0,12,117,123.7)" />
<use xlink:href="#f0_11" transform="matrix(12,0,0,12,122.5,123.7)" />
<use xlink:href="#f0_d" transform="matrix(12,0,0,12,134.6,123.7)" />
<use xlink:href="#f0_g" transform="matrix(12,0,0,12,140.1,123.7)" />
<use xlink:href="#f0_c" transform="matrix(12,0,0,12,146.8,123.7)" />
<use xlink:href="#f0_12" transform="matrix(12,0,0,12,152.3,123.7)" />
<use xlink:href="#f0_d" transform="matrix(12,0,0,12,163.7,123.7)" />
<use xlink:href="#f0_1x" transform="matrix(12,0,0,12,171.8,123.7)" />
<use xlink:href="#f0_2a" transform="matrix(12,0,0,12,179.1,123.7)" />
<use xlink:href="#f0_20" transform="matrix(12,0,0,12,187.2,123.7)" />
<use xlink:href="#f0_c" transform="matrix(12,0,0,12,198.2,123.7)" />
<use xlink:href="#f0_13" transform="matrix(12,0,0,12,203.7,123.7)" />
<use xlink:href="#f0_d" transform="matrix(12,0,0,12,215.1,123.7)" />
<use xlink:href="#f0_1x" transform="matrix(12,0,0,12,223.6,123.7)" />
<use xlink:href="#f0_2e" transform="matrix(12,0,0,12,230.9,123.7)" />
<use xlink:href="#f0_21" transform="matrix(12,0,0,12,236.1,123.7)" />
<use xlink:href="#f0_2g" transform="matrix(12,0,0,12,246.4,123.7)" />
<use xlink:href="#f0_24" transform="matrix(12,0,0,12,251.2,123.7)" />
<use xlink:href="#f0_2e" transform="matrix(12,0,0,12,259.3,123.7)" />
<use xlink:href="#f0_21" transform="matrix(12,0,0,12,264.8,123.7)" />
<use xlink:href="#f0_21" transform="matrix(12,0,0,12,272.1,123.7)" />
<use xlink:href="#f0_2a" transform="matrix(12,0,0,12,281.7,123.7)" />
<use xlink:href="#f0_2b" transform="matrix(12,0,0,12,289.8,123.7)" />
<use xlink:href="#f0_2a" transform="matrix(12,0,0,12,298.6,123.7)" />
<use xlink:href="#f0_h" transform="matrix(12,0,0,12,306.7,123.7)" />
<use xlink:href="#f0_1z" transform="matrix(12,0,0,12,312.2,123.7)" />
<use xlink:href="#f0_2l" transform="matrix(12,0,0,12,319.5,123.7)" />
<use xlink:href="#f0_1z" transform="matrix(12,0,0,12,327.3,123.7)" />
<use xlink:href="#f0_28" transform="matrix(12,0,0,12,334.2,123.7)" />
<use xlink:href="#f0_25" transform="matrix(12,0,0,12,337.9,123.7)" />
<use xlink:href="#f0_1z" transform="matrix(12,0,0,12,341.6,123.7)" />
<use xlink:href="#f0_22" transform="matrix(12,0,0,12,351.9,123.7)" />
<use xlink:href="#f0_2h" transform="matrix(12,0,0,12,356.7,123.7)" />
<use xlink:href="#f0_2a" transform="matrix(12,0,0,12,365.2,123.7)" />
<use xlink:href="#f0_1z" transform="matrix(12,0,0,12,372.9,123.7)" />
<use xlink:href="#f0_2g" transform="matrix(12,0,0,12,380.2,123.7)" />
<use xlink:href="#f0_25" transform="matrix(12,0,0,12,385,123.7)" />
<use xlink:href="#f0_2b" transform="matrix(12,0,0,12,388.7,123.7)" />
<use xlink:href="#f0_2a" transform="matrix(12,0,0,12,397.5,123.7)" />
<use xlink:href="#f0_1x" transform="matrix(12,0,0,12,405.6,123.7)" />
<use xlink:href="#f0_28" transform="matrix(12,0,0,12,412.9,123.7)" />
<use xlink:href="#f0_25" transform="matrix(12,0,0,12,419.2,123.7)" />
<use xlink:href="#f0_2f" transform="matrix(12,0,0,12,422.9,123.7)" />
<use xlink:href="#f0_2b" transform="matrix(12,0,0,12,429.1,123.7)" />
<use xlink:href="#f0_29" transform="matrix(12,0,0,12,438,123.7)" />
<use xlink:href="#f0_21" transform="matrix(12,0,0,12,450.8,123.7)" />
<use xlink:href="#f0_2e" transform="matrix(12,0,0,12,458.2,123.7)" />
<use xlink:href="#f0_2f" transform="matrix(12,0,0,12,463.7,123.7)" />
<use xlink:href="#f0_2b" transform="matrix(12,0,0,12,472.5,123.7)" />
<use xlink:href="#f0_22" transform="matrix(12,0,0,12,481.3,123.7)" />
<use xlink:href="#f0_1x" transform="matrix(12,0,0,12,488.7,123.7)" />
<use xlink:href="#f0_1z" transform="matrix(12,0,0,12,499,123.7)" />
<use xlink:href="#f0_1x" transform="matrix(12,0,0,12,506,123.7)" />
<use xlink:href="#f0_2e" transform="matrix(12,0,0,12,513.3,123.7)" />
<use xlink:href="#f0_1y" transform="matrix(12,0,0,12,518.8,123.7)" />
<use xlink:href="#f0_2b" transform="matrix(12,0,0,12,526.9,123.7)" />
<use xlink:href="#f0_2a" transform="matrix(12,0,0,12,535.7,123.7)" />
<use xlink:href="#f0_2l" transform="matrix(12,0,0,12,543.8,123.7)" />
<use xlink:href="#f0_28" transform="matrix(12,0,0,12,551.5,123.7)" />
<use xlink:href="#f0_1z" transform="matrix(12,0,0,12,557.8,123.7)" />
<use xlink:href="#f0_2b" transform="matrix(12,0,0,12,565.2,123.7)" />
<use xlink:href="#f0_29" transform="matrix(12,0,0,12,574,123.7)" />
<use xlink:href="#f0_2c" transform="matrix(12,0,0,12,586.8,123.7)" />
<use xlink:href="#f0_2b" transform="matrix(12,0,0,12,595.3,123.7)" />
<use xlink:href="#f0_2h" transform="matrix(12,0,0,12,604.1,123.7)" />
<use xlink:href="#f0_2a" transform="matrix(12,0,0,12,612.5,123.7)" />
<use xlink:href="#f0_20" transform="matrix(12,0,0,12,620.3,123.7)" />
<use xlink:href="#f0_2j" transform="matrix(12,0,0,12,631.7,123.7)" />
<use xlink:href="#f0_25" transform="matrix(12,0,0,12,644.1,123.7)" />
<use xlink:href="#f0_2g" transform="matrix(12,0,0,12,647.8,123.7)" />
<use xlink:href="#f0_24" transform="matrix(12,0,0,12,652.6,123.7)" />
<use xlink:href="#f0_29" transform="matrix(12,0,0,12,662.9,123.7)" />
<use xlink:href="#f0_2b" transform="matrix(12,0,0,12,675.8,123.7)" />
<use xlink:href="#f0_28" transform="matrix(12,0,0,12,684.6,123.7)" />
<use xlink:href="#f0_21" transform="matrix(12,0,0,12,688.3,123.7)" />
<use xlink:href="#f0_1z" transform="matrix(12,0,0,12,695.6,123.7)" />
<use xlink:href="#f0_2h" transform="matrix(12,0,0,12,703,123.7)" />
<use xlink:href="#f0_28" transform="matrix(12,0,0,12,711.4,123.7)" />
<use xlink:href="#f0_1x" transform="matrix(12,0,0,12,714.7,123.7)" />
<use xlink:href="#f0_2e" transform="matrix(12,0,0,12,722.1,123.7)" />
<use xlink:href="#f0_22" transform="matrix(12,0,0,12,730.6,123.7)" />
<use xlink:href="#f0_2b" transform="matrix(12,0,0,12,735.3,123.7)" />
<use xlink:href="#f0_2e" transform="matrix(12,0,0,12,744.2,123.7)" />
<use xlink:href="#f0_29" transform="matrix(12,0,0,12,749.7,123.7)" />
<use xlink:href="#f0_2h" transform="matrix(12,0,0,12,762.5,123.7)" />
<use xlink:href="#f0_28" transform="matrix(12,0,0,12,768.9,123.7)" />
<use xlink:href="#f0_1x" transform="matrix(12,0,0,12,772.6,123.7)" />
<use xlink:href="#f0_o" transform="matrix(6.9,0,0,6.9,797.5,128.5)" />
<use xlink:href="#f0_s" transform="matrix(6.9,0,0,6.9,818.4,128.5)" />
</g>
<g clip-path="url(#c0_7)">
<g fill="#000000" >
<use xlink:href="#f1_13" transform="matrix(12,0,0,12,785,123.7)" />
<use xlink:href="#f1_18" transform="matrix(12,0,0,12,804.1,123.7)" />
<use xlink:href="#f1_1f" transform="matrix(12,0,0,12,823.9,123.7)" />
</g>
</g>
<g fill="#000000" >
<use xlink:href="#f0_i" transform="matrix(12,0,0,12,840,123.7)" />
<use xlink:href="#f0_19" transform="matrix(12,0,0,12,117,150.1)" />
<use xlink:href="#f0_2f" transform="matrix(12,0,0,12,122.5,150.1)" />
<use xlink:href="#f0_2b" transform="matrix(12,0,0,12,129.1,150.1)" />
<use xlink:href="#f0_29" transform="matrix(12,0,0,12,137.9,150.1)" />
<use xlink:href="#f0_21" transform="matrix(12,0,0,12,151.1,150.1)" />
<use xlink:href="#f0_2e" transform="matrix(12,0,0,12,158.5,150.1)" />
<use xlink:href="#f0_2f" transform="matrix(12,0,0,12,164.4,150.1)" />
<use xlink:href="#f0_c" transform="matrix(12,0,0,12,173.9,150.1)" />
<use xlink:href="#f0_11" transform="matrix(12,0,0,12,179.5,150.1)" />
<use xlink:href="#f0_d" transform="matrix(12,0,0,12,191.9,150.1)" />
<use xlink:href="#f0_1x" transform="matrix(12,0,0,12,200.8,150.1)" />
<use xlink:href="#f0_2a" transform="matrix(12,0,0,12,208.1,150.1)" />
<use xlink:href="#f0_20" transform="matrix(12,0,0,12,216.6,150.1)" />
<use xlink:href="#f0_c" transform="matrix(12,0,0,12,228,150.1)" />
<use xlink:href="#f0_13" transform="matrix(12,0,0,12,233.5,150.1)" />
<use xlink:href="#f0_d" transform="matrix(12,0,0,12,245.2,150.1)" />
<use xlink:href="#f0_23" transform="matrix(12,0,0,12,254.1,150.1)" />
<use xlink:href="#f0_25" transform="matrix(12,0,0,12,262.5,150.1)" />
<use xlink:href="#f0_2i" transform="matrix(12,0,0,12,266.6,150.1)" />
<use xlink:href="#f0_21" transform="matrix(12,0,0,12,274.7,150.1)" />
<use xlink:href="#f0_2c" transform="matrix(12,0,0,12,285.3,150.1)" />
<use xlink:href="#f0_2b" transform="matrix(12,0,0,12,294.1,150.1)" />
<use xlink:href="#f0_2f" transform="matrix(12,0,0,12,303,150.1)" />
<use xlink:href="#f0_25" transform="matrix(12,0,0,12,309.6,150.1)" />
<use xlink:href="#f0_2g" transform="matrix(12,0,0,12,313.3,150.1)" />
<use xlink:href="#f0_25" transform="matrix(12,0,0,12,318.4,150.1)" />
<use xlink:href="#f0_2i" transform="matrix(12,0,0,12,322.1,150.1)" />
<use xlink:href="#f0_21" transform="matrix(12,0,0,12,330.5,150.1)" />
<use xlink:href="#f0_1k" transform="matrix(12,0,0,12,340.8,150.1)" />
<use xlink:href="#f0_2b" transform="matrix(12,0,0,12,350.4,150.1)" />
<use xlink:href="#f0_28" transform="matrix(12,0,0,12,359.5,150.1)" />
<use xlink:href="#f0_28" transform="matrix(12,0,0,12,363.2,150.1)" />
<use xlink:href="#f0_21" transform="matrix(12,0,0,12,367.3,150.1)" />
<use xlink:href="#f0_2a" transform="matrix(12,0,0,12,374.6,150.1)" />
<use xlink:href="#f0_53" transform="matrix(12,0,0,12,383.1,150.1)" />
<use xlink:href="#f0_2f" transform="matrix(12,0,0,12,387.1,150.1)" />
<use xlink:href="#f0_2g" transform="matrix(12,0,0,12,396.3,150.1)" />
<use xlink:href="#f0_21" transform="matrix(12,0,0,12,401.5,150.1)" />
<use xlink:href="#f0_2f" transform="matrix(12,0,0,12,408.8,150.1)" />
<use xlink:href="#f0_2g" transform="matrix(12,0,0,12,415.4,150.1)" />
<use xlink:href="#f0_2j" transform="matrix(12,0,0,12,423.5,150.1)" />
<use xlink:href="#f0_24" transform="matrix(12,0,0,12,436,150.1)" />
<use xlink:href="#f0_21" transform="matrix(12,0,0,12,444.5,150.1)" />
<use xlink:href="#f0_2e" transform="matrix(12,0,0,12,451.8,150.1)" />
<use xlink:href="#f0_21" transform="matrix(12,0,0,12,457.7,150.1)" />
<use xlink:href="#f0_1x" transform="matrix(12,0,0,12,465,150.1)" />
<use xlink:href="#f0_2f" transform="matrix(12,0,0,12,472.8,150.1)" />
<use xlink:href="#f0_25" transform="matrix(12,0,0,12,482.3,150.1)" />
<use xlink:href="#f0_2f" transform="matrix(12,0,0,12,486,150.1)" />
<use xlink:href="#f0_2b" transform="matrix(12,0,0,12,492.6,150.1)" />
<use xlink:href="#f0_29" transform="matrix(12,0,0,12,501.4,150.1)" />
<use xlink:href="#f0_21" transform="matrix(12,0,0,12,514.7,150.1)" />
<use xlink:href="#f0_2e" transform="matrix(12,0,0,12,522,150.1)" />
<use xlink:href="#f0_c" transform="matrix(12,0,0,12,530.9,150.1)" />
<use xlink:href="#f0_12" transform="matrix(12,0,0,12,536.7,150.1)" />
<use xlink:href="#f0_d" transform="matrix(12,0,0,12,548.1,150.1)" />
<use xlink:href="#f0_20" transform="matrix(12,0,0,12,557,150.1)" />
<use xlink:href="#f0_2b" transform="matrix(12,0,0,12,565.8,150.1)" />
<use xlink:href="#f0_21" transform="matrix(12,0,0,12,574.6,150.1)" />
<use xlink:href="#f0_2f" transform="matrix(12,0,0,12,582.3,150.1)" />
<use xlink:href="#f0_2a" transform="matrix(12,0,0,12,591.5,150.1)" />
<use xlink:href="#f0_2b" transform="matrix(12,0,0,12,599.6,150.1)" />
<use xlink:href="#f0_2g" transform="matrix(12,0,0,12,608.8,150.1)" />
<use xlink:href="#f0_23" transform="matrix(12,0,0,12,616.9,150.1)" />
<use xlink:href="#f0_25" transform="matrix(12,0,0,12,625.3,150.1)" />
<use xlink:href="#f0_2i" transform="matrix(12,0,0,12,629.4,150.1)" />
<use xlink:href="#f0_21" transform="matrix(12,0,0,12,637.4,150.1)" />
<use xlink:href="#f0_1k" transform="matrix(12,0,0,12,647.7,150.1)" />
<use xlink:href="#f0_2b" transform="matrix(12,0,0,12,657.7,150.1)" />
<use xlink:href="#f0_28" transform="matrix(12,0,0,12,666.5,150.1)" />
<use xlink:href="#f0_28" transform="matrix(12,0,0,12,670.5,150.1)" />
<use xlink:href="#f0_21" transform="matrix(12,0,0,12,674.2,150.1)" />
<use xlink:href="#f0_2a" transform="matrix(12,0,0,12,681.9,150.1)" />
<use xlink:href="#f0_53" transform="matrix(12,0,0,12,690,150.1)" />
<use xlink:href="#f0_2f" transform="matrix(12,0,0,12,694.4,150.1)" />
<use xlink:href="#f0_2g" transform="matrix(12,0,0,12,704,150.1)" />
<use xlink:href="#f0_21" transform="matrix(12,0,0,12,708.8,150.1)" />
<use xlink:href="#f0_2f" transform="matrix(12,0,0,12,716.5,150.1)" />
<use xlink:href="#f0_2g" transform="matrix(12,0,0,12,722.7,150.1)" />
<use xlink:href="#f0_1y" transform="matrix(12,0,0,12,730.5,150.1)" />
<use xlink:href="#f0_2h" transform="matrix(12,0,0,12,738.9,150.1)" />
<use xlink:href="#f0_2g" transform="matrix(12,0,0,12,747.4,150.1)" />
<use xlink:href="#f0_23" transform="matrix(12,0,0,12,755.4,150.1)" />
<use xlink:href="#f0_25" transform="matrix(12,0,0,12,762.7,150.1)" />
<use xlink:href="#f0_2i" transform="matrix(12,0,0,12,766.4,150.1)" />
<use xlink:href="#f0_21" transform="matrix(12,0,0,12,774.8,150.1)" />
<use xlink:href="#f0_2f" transform="matrix(12,0,0,12,782.2,150.1)" />
<use xlink:href="#f0_2c" transform="matrix(12,0,0,12,791.7,150.1)" />
<use xlink:href="#f0_2b" transform="matrix(12,0,0,12,800.5,150.1)" />
<use xlink:href="#f0_2f" transform="matrix(12,0,0,12,809.4,150.1)" />
<use xlink:href="#f0_25" transform="matrix(12,0,0,12,816,150.1)" />
<use xlink:href="#f0_2g" transform="matrix(12,0,0,12,819.7,150.1)" />
<use xlink:href="#f0_25" transform="matrix(12,0,0,12,824.8,150.1)" />
<use xlink:href="#f0_2i" transform="matrix(12,0,0,12,828.5,150.1)" />
<use xlink:href="#f0_21" transform="matrix(12,0,0,12,836.9,150.1)" />
<use xlink:href="#f0_19" transform="matrix(12,0,0,12,117,173.6)" />
<use xlink:href="#f0_2b" transform="matrix(12,0,0,12,122.5,173.6)" />
<use xlink:href="#f0_20" transform="matrix(12,0,0,12,131.6,173.6)" />
<use xlink:href="#f0_2b" transform="matrix(12,0,0,12,140.1,173.6)" />
<use xlink:href="#f0_22" transform="matrix(12,0,0,12,148.9,173.6)" />
<use xlink:href="#f0_2b" transform="matrix(12,0,0,12,154.1,173.6)" />
<use xlink:href="#f0_2e" transform="matrix(12,0,0,12,162.9,173.6)" />
<use xlink:href="#f0_29" transform="matrix(12,0,0,12,168.4,173.6)" />
<use xlink:href="#f0_2g" transform="matrix(12,0,0,12,184.6,173.6)" />
<use xlink:href="#f0_21" transform="matrix(12,0,0,12,189.4,173.6)" />
<use xlink:href="#f0_2f" transform="matrix(12,0,0,12,196.7,173.6)" />
<use xlink:href="#f0_2g" transform="matrix(12,0,0,12,203.3,173.6)" />
<use xlink:href="#f0_i" transform="matrix(12,0,0,12,208.1,173.6)" />
<use xlink:href="#f0_19" transform="matrix(12,0,0,12,215.1,173.6)" />
<use xlink:href="#f0_2f" transform="matrix(12,0,0,12,220.6,173.6)" />
<use xlink:href="#f0_2b" transform="matrix(12,0,0,12,226.9,173.6)" />
<use xlink:href="#f0_29" transform="matrix(12,0,0,12,236,173.6)" />
<use xlink:href="#f0_21" transform="matrix(12,0,0,12,248.9,173.6)" />
<use xlink:href="#f0_2e" transform="matrix(12,0,0,12,256.2,173.6)" />
<use xlink:href="#f0_2f" transform="matrix(12,0,0,12,262.1,173.6)" />
<use xlink:href="#f0_c" transform="matrix(12,0,0,12,271.3,173.6)" />
<use xlink:href="#f0_11" transform="matrix(12,0,0,12,277.2,173.6)" />
<use xlink:href="#f0_d" transform="matrix(12,0,0,12,289.3,173.6)" />
<use xlink:href="#f0_1x" transform="matrix(12,0,0,12,298.2,173.6)" />
<use xlink:href="#f0_2a" transform="matrix(12,0,0,12,305.5,173.6)" />
<use xlink:href="#f0_20" transform="matrix(12,0,0,12,313.6,173.6)" />
<use xlink:href="#f0_c" transform="matrix(12,0,0,12,325.4,173.6)" />
<use xlink:href="#f0_12" transform="matrix(12,0,0,12,330.9,173.6)" />
<use xlink:href="#f0_d" transform="matrix(12,0,0,12,342.3,173.6)" />
<use xlink:href="#f0_2b" transform="matrix(12,0,0,12,350.7,173.6)" />
<use xlink:href="#f0_2a" transform="matrix(12,0,0,12,359.5,173.6)" />
<use xlink:href="#f0_2e" transform="matrix(12,0,0,12,370.9,173.6)" />
<use xlink:href="#f0_21" transform="matrix(12,0,0,12,376.5,173.6)" />
<use xlink:href="#f0_20" transform="matrix(12,0,0,12,384.2,173.6)" />
<use xlink:href="#f0_2h" transform="matrix(12,0,0,12,392.6,173.6)" />
<use xlink:href="#f0_1z" transform="matrix(12,0,0,12,401.1,173.6)" />
<use xlink:href="#f0_2g" transform="matrix(12,0,0,12,408.8,173.6)" />
<use xlink:href="#f0_25" transform="matrix(12,0,0,12,413.6,173.6)" />
<use xlink:href="#f0_2b" transform="matrix(12,0,0,12,417.3,173.6)" />
<use xlink:href="#f0_2a" transform="matrix(12,0,0,12,426.4,173.6)" />
<use xlink:href="#f0_2j" transform="matrix(12,0,0,12,437.5,173.6)" />
<use xlink:href="#f0_25" transform="matrix(12,0,0,12,449.9,173.6)" />
<use xlink:href="#f0_2g" transform="matrix(12,0,0,12,454,173.6)" />
<use xlink:href="#f0_24" transform="matrix(12,0,0,12,458.8,173.6)" />
<use xlink:href="#f0_1q" transform="matrix(12,0,0,12,470.2,173.6)" />
<use xlink:href="#f0_2a" transform="matrix(12,0,0,12,480.5,173.6)" />
<use xlink:href="#f0_c" transform="matrix(12,0,0,12,488.5,173.6)" />
<use xlink:href="#f0_18" transform="matrix(12,0,0,12,494.4,173.6)" />
<use xlink:href="#f0_23" transform="matrix(12,0,0,12,506.9,173.6)" />
<use xlink:href="#f0_d" transform="matrix(12,0,0,12,515.4,173.6)" />
<use xlink:href="#f0_j" transform="matrix(12,0,0,12,521.2,173.6)" />
<use xlink:href="#f0_1z" transform="matrix(12,0,0,12,525.7,173.6)" />
<use xlink:href="#f0_2b" transform="matrix(12,0,0,12,533,173.6)" />
<use xlink:href="#f0_2a" transform="matrix(12,0,0,12,542.2,173.6)" />
<use xlink:href="#f0_1z" transform="matrix(12,0,0,12,550.3,173.6)" />
<use xlink:href="#f0_i" transform="matrix(12,0,0,12,557.6,173.6)" />
<use xlink:href="#f0_18" transform="matrix(12,0,0,12,564.6,173.6)" />
<use xlink:href="#f0_13" transform="matrix(12,0,0,12,577.1,173.6)" />
<use xlink:href="#f0_28" transform="matrix(12,0,0,12,588.5,173.6)" />
<use xlink:href="#f0_23" transform="matrix(12,0,0,12,595.5,173.6)" />
<use xlink:href="#f0_25" transform="matrix(12,0,0,12,603.9,173.6)" />
<use xlink:href="#f0_2i" transform="matrix(12,0,0,12,608,173.6)" />
<use xlink:href="#f0_21" transform="matrix(12,0,0,12,616.1,173.6)" />
<use xlink:href="#f0_2g" transform="matrix(12,0,0,12,626.7,173.6)" />
<use xlink:href="#f0_24" transform="matrix(12,0,0,12,631.5,173.6)" />
<use xlink:href="#f0_21" transform="matrix(12,0,0,12,639.6,173.6)" />
<use xlink:href="#f0_2f" transform="matrix(12,0,0,12,650.3,173.6)" />
<use xlink:href="#f0_1x" transform="matrix(12,0,0,12,656.5,173.6)" />
<use xlink:href="#f0_29" transform="matrix(12,0,0,12,664.2,173.6)" />
<use xlink:href="#f0_21" transform="matrix(12,0,0,12,677.1,173.6)" />
<use xlink:href="#f0_2c" transform="matrix(12,0,0,12,687.4,173.6)" />
<use xlink:href="#f0_2e" transform="matrix(12,0,0,12,695.8,173.6)" />
<use xlink:href="#f0_2b" transform="matrix(12,0,0,12,701.4,173.6)" />
<use xlink:href="#f0_20" transform="matrix(12,0,0,12,710.2,173.6)" />
<use xlink:href="#f0_2h" transform="matrix(12,0,0,12,719,173.6)" />
<use xlink:href="#f0_1z" transform="matrix(12,0,0,12,727.4,173.6)" />
<use xlink:href="#f0_2g" transform="matrix(12,0,0,12,734.8,173.6)" />
<use xlink:href="#f0_c" transform="matrix(12,0,0,12,742.9,173.6)" />
<use xlink:href="#f0_14" transform="matrix(12,0,0,12,748.4,173.6)" />
<use xlink:href="#f0_d" transform="matrix(12,0,0,12,761.2,173.6)" />
<use xlink:href="#f0_i" transform="matrix(12,0,0,12,766.8,173.6)" />
<use xlink:href="#f0_c" transform="matrix(12,0,0,12,117,202.2)" />
<use xlink:href="#f0_1x" transform="matrix(12,0,0,12,122.5,202.2)" />
<use xlink:href="#f0_d" transform="matrix(12,0,0,12,130.2,202.2)" />
<use xlink:href="#f0_1n" transform="matrix(12,0,0,12,155.8,202.2)" />
<use xlink:href="#f0_2e" transform="matrix(12,0,0,12,171.6,202.2)" />
<use xlink:href="#f0_25" transform="matrix(12,0,0,12,177.8,202.2)" />
<use xlink:href="#f0_2g" transform="matrix(12,0,0,12,181.9,202.2)" />
<use xlink:href="#f0_21" transform="matrix(12,0,0,12,187.4,202.2)" />
<use xlink:href="#f0_2g" transform="matrix(12,0,0,12,198.8,202.2)" />
<use xlink:href="#f0_24" transform="matrix(12,0,0,12,203.9,202.2)" />
<use xlink:href="#f0_21" transform="matrix(12,0,0,12,212.7,202.2)" />
<use xlink:href="#f0_2f" transform="matrix(12,0,0,12,223.4,202.2)" />
<use xlink:href="#f0_2g" transform="matrix(12,0,0,12,230.4,202.2)" />
<use xlink:href="#f0_2e" transform="matrix(12,0,0,12,235.5,202.2)" />
<use xlink:href="#f0_2h" transform="matrix(12,0,0,12,241.8,202.2)" />
<use xlink:href="#f0_1z" transform="matrix(12,0,0,12,250.6,202.2)" />
<use xlink:href="#f0_2g" transform="matrix(12,0,0,12,258.7,202.2)" />
<use xlink:href="#f0_2h" transform="matrix(12,0,0,12,263.8,202.2)" />
<use xlink:href="#f0_2e" transform="matrix(12,0,0,12,273,202.2)" />
<use xlink:href="#f0_21" transform="matrix(12,0,0,12,278.8,202.2)" />
<use xlink:href="#f0_2f" transform="matrix(12,0,0,12,286.6,202.2)" />
<use xlink:href="#f0_2b" transform="matrix(12,0,0,12,296.9,202.2)" />
<use xlink:href="#f0_22" transform="matrix(12,0,0,12,306.4,202.2)" />
<use xlink:href="#f0_c" transform="matrix(12,0,0,12,315.2,202.2)" />
<use xlink:href="#f0_11" transform="matrix(12,0,0,12,321.1,202.2)" />
<use xlink:href="#f0_d" transform="matrix(12,0,0,12,334,202.2)" />
<use xlink:href="#f0_g" transform="matrix(12,0,0,12,339.8,202.2)" />
<use xlink:href="#f0_c" transform="matrix(12,0,0,12,347.9,202.2)" />
<use xlink:href="#f0_12" transform="matrix(12,0,0,12,353.8,202.2)" />
<use xlink:href="#f0_d" transform="matrix(12,0,0,12,365.9,202.2)" />
<use xlink:href="#f0_g" transform="matrix(12,0,0,12,371.8,202.2)" />
<use xlink:href="#f0_c" transform="matrix(12,0,0,12,379.5,202.2)" />
<use xlink:href="#f0_13" transform="matrix(12,0,0,12,385.8,202.2)" />
<use xlink:href="#f0_d" transform="matrix(12,0,0,12,397.5,202.2)" />
<use xlink:href="#f0_1x" transform="matrix(12,0,0,12,407.1,202.2)" />
<use xlink:href="#f0_2a" transform="matrix(12,0,0,12,414.8,202.2)" />
<use xlink:href="#f0_20" transform="matrix(12,0,0,12,423.6,202.2)" />
<use xlink:href="#f0_c" transform="matrix(12,0,0,12,436.1,202.2)" />
<use xlink:href="#f0_14" transform="matrix(12,0,0,12,442,202.2)" />
<use xlink:href="#f0_d" transform="matrix(12,0,0,12,455.2,202.2)" />
<use xlink:href="#f0_i" transform="matrix(12,0,0,12,461.1,202.2)" />
<use xlink:href="#f0_11" transform="matrix(12,0,0,12,64.9,231.1)" />
<use xlink:href="#f0_2a" transform="matrix(12,0,0,12,77.4,231.1)" />
<use xlink:href="#f0_2f" transform="matrix(12,0,0,12,85.8,231.1)" />
<use xlink:href="#f0_i" transform="matrix(12,0,0,12,92.4,231.1)" />
<use xlink:href="#f0_1j" transform="matrix(12,0,0,12,117,231.1)" />
<use xlink:href="#f0_2g" transform="matrix(12,0,0,12,126.9,231.1)" />
<use xlink:href="#f0_2e" transform="matrix(12,0,0,12,131.7,231.1)" />
<use xlink:href="#f0_2h" transform="matrix(12,0,0,12,137.6,231.1)" />
<use xlink:href="#f0_1z" transform="matrix(12,0,0,12,146.4,231.1)" />
<use xlink:href="#f0_2g" transform="matrix(12,0,0,12,153.7,231.1)" />
<use xlink:href="#f0_2h" transform="matrix(12,0,0,12,158.8,231.1)" />
<use xlink:href="#f0_2e" transform="matrix(12,0,0,12,167.3,231.1)" />
<use xlink:href="#f0_21" transform="matrix(12,0,0,12,173.2,231.1)" />
<use xlink:href="#f0_2b" transform="matrix(12,0,0,12,183.9,231.1)" />
<use xlink:href="#f0_22" transform="matrix(12,0,0,12,193,231.1)" />
</g>
<g fill="#1F1A17" >
<use xlink:href="#f0_11" transform="matrix(12,0,0,12,124.7,281.4)" />
</g>
<path d="M143.7,275.1h-1.5l-.3,-1.1v-1.1l-.4,-1.1l-.4,-1.1l-.3,-1.1l-.8,-.7l-.3,-.8l-.8,-1.1l-.7,-.3l-1.1,-.7l-.7,-.8l-1.1,-.3l-.8,-.4l-1.1,-.4h-2.2v-1.4h2.2l1.5,.3l1.1,.4l1.1,.7l1.1,.4l.7,.7l1.1,1.1l.8,.7l.7,1.1l.7,.8l.4,1.1l.4,1.4l.3,1.1l.4,1.1v1.5Zm-12.5,12.4v-1.4l1.1,-.4h1.1l1.1,-.4l.8,-.3l1.1,-.4l.7,-.4l1.1,-.7l.7,-.7l.8,-.8l.3,-1.1l.8,-.7l.3,-1.1l.4,-.7l.4,-1.1v-1.1l.3,-1.1h1.5v1.1l-.4,1.4l-.3,1.1l-.4,1.1l-.4,1.1l-.7,1.1l-.7,.8l-.8,1.1l-1.1,.7l-.7,.7l-1.1,.8l-1.1,.3l-1.1,.4l-1.5,.4l-1.1,.3h-1.1ZM118.4,275.1h1.9v2.2l.3,1.1l.4,.7l.4,1.1l.7,.7l.4,1.1l.7,.8l1.1,.7l.7,.7l.7,.4l1.1,.4l1.1,.3l1.1,.4h1.1l1.1,.4v1.4h-1.4l-1.1,-.3l-1.5,-.4l-1.1,-.4l-1.1,-.3l-.7,-.8l-1.1,-.7l-1.1,-.7l-.7,-1.1l-.8,-.8l-.3,-1.1l-.8,-1.1l-.3,-1.1l-.4,-1.1v-1.4l-.4,-1.1Zm12.8,-12.4v1.4H129l-1.1,.4l-1.1,.4l-1.1,.3l-.7,.8l-.7,.7l-1.1,.3l-.7,1.1l-.4,.8l-.7,.7l-.4,1.1l-.4,1.1l-.3,1.1v2.2h-1.9l.4,-1.5v-1.1l.4,-1.1l.3,-1.4l.8,-1.1l.3,-.8l.8,-1.1l.7,-.7l1.1,-1.1l1.1,-.7l.7,-.4l1.1,-.7l1.1,-.4l1.5,-.3h2.5Z" class="g1_7" />
<g fill="#1F1A17" >
<use xlink:href="#f0_25" transform="matrix(12,0,0,12,156.6,280.6)" />
<use xlink:href="#f0_2f" transform="matrix(12,0,0,12,161.7,280.6)" />
<use xlink:href="#f0_13" transform="matrix(12,0,0,12,177.8,280.6)" />
<use xlink:href="#f0_18" transform="matrix(12,0,0,12,189.9,280.6)" />
<use xlink:href="#f0_13" transform="matrix(12,0,0,12,207.9,280.6)" />
<use xlink:href="#f0_18" transform="matrix(12,0,0,12,220,280.6)" />
<use xlink:href="#f0_13" transform="matrix(12,0,0,12,238,280.6)" />
<use xlink:href="#f0_18" transform="matrix(12,0,0,12,249.7,280.6)" />
<use xlink:href="#f0_13" transform="matrix(12,0,0,12,267.6,280.6)" />
<use xlink:href="#f0_18" transform="matrix(12,0,0,12,279.8,280.6)" />
<use xlink:href="#f0_1f" transform="matrix(12,0,0,12,292.9,280.6)" />
<use xlink:href="#f0_n" transform="matrix(6,0,0,6,203.1,284.3)" />
<use xlink:href="#f0_m" transform="matrix(6,0,0,6,233.2,284.3)" />
<use xlink:href="#f0_m" transform="matrix(6,0,0,6,262.9,284.3)" />
<use xlink:href="#f0_12" transform="matrix(12,0,0,12,124.7,324.6)" />
</g>
<path d="M143.7,318.3h-1.5l-.3,-1.1v-1.1l-.4,-1.1l-.4,-1.1l-.3,-.8L140,312l-.3,-.7l-.8,-.7l-.7,-.8l-1.1,-.7l-.7,-.7l-1.1,-.4l-.8,-.3l-1.1,-.4h-2.2v-1.5h2.2l1.5,.4l1.1,.4l1.1,.7l1.1,.4l.7,.7l1.1,1.1l.8,.7l.7,1.1l.7,1.1l.4,1.1l.4,1.1l.3,1.1l.4,1.1v1.5Zm-12.5,12.4v-1.4h1.1l1.1,-.4l1.1,-.4l.8,-.3l1.1,-.4l.7,-.4l1.1,-.7l.7,-.7l.8,-.8l.3,-.7l.8,-1.1l.3,-1.1l.4,-.7l.4,-1.1v-1.1l.3,-1.1h1.5v1.1l-.4,1.4l-.3,1.1l-.4,1.1l-.4,1.1l-.7,1.1l-.7,1.1l-.8,.8l-1.1,.7l-.7,.7l-1.1,.8l-1.1,.3l-1.1,.4l-1.5,.4l-1.1,.3h-1.1ZM118.4,318.3h1.9v2.2l.3,1.1l.4,.7l.4,1.1l.7,1.1l.4,.7l.7,.8l1.1,.7l.7,.7l.7,.4l1.1,.4l1.1,.3l1.1,.4l1.1,.4h1.1v1.4h-1.4l-1.1,-.3l-1.5,-.4l-1.1,-.4l-1.1,-.3l-.7,-.8l-1.1,-.7l-1.1,-.7l-.7,-.8l-.8,-1.1l-.3,-1.1l-.8,-1.1l-.3,-1.1l-.4,-1.1v-1.4l-.4,-1.1Zm12.8,-12.5v1.5H129l-1.1,.4l-1.1,.3l-1.1,.4l-.7,.7l-.7,.7l-1.1,.8l-.7,.7l-.4,.7l-.7,1.1l-.4,.8l-.4,1.1l-.3,1.1v2.2h-1.9l.4,-1.5v-1.1l.4,-1.1l.3,-1.1l.8,-1.1l.3,-1.1l.8,-1.1l.7,-.7l1.1,-1.1l1.1,-.7l.7,-.4l1.1,-.7l1.1,-.4l1.5,-.4h2.5Z" class="g1_7" />
<g fill="#1F1A17" >
<use xlink:href="#f0_25" transform="matrix(12,0,0,12,157.7,323.5)" />
<use xlink:href="#f0_2f" transform="matrix(12,0,0,12,162.8,323.5)" />
</g>
<g clip-path="url(#c1_7)">
<g fill="#1F1A17" >
<use xlink:href="#f0_13" transform="matrix(12,0,0,12,179.3,323.5)" />
<use xlink:href="#f0_18" transform="matrix(12,0,0,12,191.4,323.5)" />
<use xlink:href="#f0_4z" transform="matrix(12,0,0,12,209.4,323.5)" />
<use xlink:href="#f0_13" transform="matrix(12,0,0,12,227.3,323.5)" />
<use xlink:href="#f0_4z" transform="matrix(12,0,0,12,239.4,323.5)" />
<use xlink:href="#f0_13" transform="matrix(12,0,0,12,257.8,323.5)" />
<use xlink:href="#f0_18" transform="matrix(12,0,0,12,269.9,323.5)" />
<use xlink:href="#f0_4z" transform="matrix(12,0,0,12,287.8,323.5)" />
<use xlink:href="#f0_13" transform="matrix(12,0,0,12,306.1,323.5)" />
<use xlink:href="#f0_18" transform="matrix(12,0,0,12,318.2,323.5)" />
</g>
</g>
<g clip-path="url(#c2_7)">
<g fill="#1F1A17" >
<use xlink:href="#f0_n" transform="matrix(6,0,0,6,204.6,327.2)" />
<use xlink:href="#f0_m" transform="matrix(6,0,0,6,283.1,327.2)" />
<use xlink:href="#f0_n" transform="matrix(6,0,0,6,331.5,327.2)" />
</g>
</g>
<path d="M231.2,345.3v-19h1.5v19h-1.5Z" class="g1_7" />
<path d="M235.2,345.3v-19H237v19h-1.8Z" class="g1_7" />
<g clip-path="url(#c3_7)">
<g fill="#1F1A17" >
<use xlink:href="#f0_1f" transform="matrix(12,0,0,12,227.7,359.8)" />
</g>
</g>
<g fill="#1F1A17" >
<use xlink:href="#f0_13" transform="matrix(12,0,0,12,125.4,426.9)" />
</g>
<path d="M143.7,420.7h-1.5l-.3,-1.1v-1.1l-.4,-1.1l-.4,-.7l-.3,-1.1l-.8,-.7l-.3,-1.1l-.8,-.8l-.7,-.7l-1.1,-.7l-.7,-.4l-1.1,-.4l-.8,-.3l-1.1,-.4h-1.1l-1.1,-.4v-1.4h1.1l1.1,.3l1.5,.4l1.1,.4l1.1,.3l1.1,.8l.7,.7l1.1,.7l.8,1.1l.7,.8l.7,1.1l.4,1.1l.4,1.1l.3,1.1l.4,1.4v1.1Zm-12.5,12.5v-1.5h2.2l1.1,-.4l.8,-.3l1.1,-.4l.7,-.7l1.1,-.8l.7,-.3l.8,-1.1l.3,-.8l.8,-.7l.3,-1.1l.4,-1.1l.4,-1.1v-1.1l.3,-1.1h1.5v1.5l-.4,1.1l-.3,1.1l-.4,1.4l-.4,1.1l-.7,.8l-.7,1.1l-.8,.7l-1.1,1.1l-.7,.7l-1.1,.4l-1.1,.7l-1.1,.4l-1.5,.4h-2.2ZM118.4,420.7h1.9v2.2l.3,1.1l.4,1.1l.4,1.1l.7,.7l.4,.8l.7,1.1l1.1,.3l.7,.8l.7,.7l1.1,.4l1.1,.3l1.1,.4h2.2v1.5h-2.5l-1.5,-.4l-1.1,-.4l-1.1,-.7l-.7,-.4l-1.1,-.7l-1.1,-1.1l-.7,-.7l-.8,-1.1l-.3,-.8l-.8,-1.1l-.3,-1.4l-.4,-1.1v-1.1l-.4,-1.5Zm12.8,-12.4v1.4l-1.1,.4H129l-1.1,.4l-1.1,.3l-1.1,.4l-.7,.4l-.7,.7l-1.1,.7l-.7,.8l-.4,1.1l-.7,.7l-.4,1.1l-.4,.7l-.3,1.1v2.2h-1.9l.4,-1.1v-1.4l.4,-1.1l.3,-1.1l.8,-1.1l.3,-1.1l.8,-.8l.7,-1.1l1.1,-.7l1.1,-.7l.7,-.8l1.1,-.3l1.1,-.4l1.5,-.4l1.1,-.3h1.4Z" class="g1_7" />
<g fill="#1F1A17" >
<use xlink:href="#f0_25" transform="matrix(12,0,0,12,159.5,426.2)" />
<use xlink:href="#f0_2f" transform="matrix(12,0,0,12,164.6,426.2)" />
<use xlink:href="#f0_13" transform="matrix(12,0,0,12,180.8,426.2)" />
<use xlink:href="#f0_18" transform="matrix(12,0,0,12,192.9,426.2)" />
<use xlink:href="#f0_4z" transform="matrix(12,0,0,12,210.8,426.2)" />
<use xlink:href="#f0_13" transform="matrix(12,0,0,12,228.8,426.2)" />
<use xlink:href="#f0_18" transform="matrix(12,0,0,12,240.9,426.2)" />
<use xlink:href="#f0_4z" transform="matrix(12,0,0,12,254.1,426.2)" />
<use xlink:href="#f0_13" transform="matrix(12,0,0,12,272.4,426.2)" />
<use xlink:href="#f0_4z" transform="matrix(12,0,0,12,284.9,426.2)" />
<use xlink:href="#f0_18" transform="matrix(12,0,0,12,303.2,426.2)" />
<use xlink:href="#f0_n" transform="matrix(6,0,0,6,206.4,429.9)" />
</g>
<path d="M276.2,410.8v-19h1.5v19h-1.5Z" class="g1_7" />
<path d="M280.2,410.8v-19h1.5v19h-1.5Z" class="g1_7" />
<g clip-path="url(#c4_7)">
<g fill="#1F1A17" >
<use xlink:href="#f0_1f" transform="matrix(12,0,0,12,271.3,389.5)" />
</g>
</g>
<path d="M234.1,411.2v-19h1.8v19h-1.8Z" class="g1_7" />
<g clip-path="url(#c5_7)">
<g fill="#1F1A17" >
<use xlink:href="#f0_13" transform="matrix(12,0,0,12,228.4,389.2)" />
<use xlink:href="#f0_18" transform="matrix(12,0,0,12,240.5,389.2)" />
</g>
</g>
<g fill="#1F1A17" >
<use xlink:href="#f0_n" transform="matrix(6,0,0,6,253.7,392.8)" />
</g>
<g fill="#000000" >
<use xlink:href="#f0_c" transform="matrix(12,0,0,12,117,521.9)" />
<use xlink:href="#f0_1y" transform="matrix(12,0,0,12,122.9,521.9)" />
<use xlink:href="#f0_d" transform="matrix(12,0,0,12,131.3,521.9)" />
<use xlink:href="#f0_1f" transform="matrix(12,0,0,12,155.8,521.9)" />
<use xlink:href="#f0_2h" transform="matrix(12,0,0,12,169.1,521.9)" />
<use xlink:href="#f0_2g" transform="matrix(12,0,0,12,177.9,521.9)" />
<use xlink:href="#f0_2b" transform="matrix(12,0,0,12,186.7,521.9)" />
<use xlink:href="#f0_22" transform="matrix(12,0,0,12,196.2,521.9)" />
<use xlink:href="#f0_c" transform="matrix(12,0,0,12,204.7,521.9)" />
<use xlink:href="#f0_11" transform="matrix(12,0,0,12,210.9,521.9)" />
<use xlink:href="#f0_d" transform="matrix(12,0,0,12,223.8,521.9)" />
<use xlink:href="#f0_g" transform="matrix(12,0,0,12,229.6,521.9)" />
<use xlink:href="#f0_c" transform="matrix(12,0,0,12,237.7,521.9)" />
<use xlink:href="#f0_12" transform="matrix(12,0,0,12,244,521.9)" />
<use xlink:href="#f0_d" transform="matrix(12,0,0,12,256.1,521.9)" />
<use xlink:href="#f0_1x" transform="matrix(12,0,0,12,265.6,521.9)" />
<use xlink:href="#f0_2a" transform="matrix(12,0,0,12,273.4,521.9)" />
<use xlink:href="#f0_20" transform="matrix(12,0,0,12,282.2,521.9)" />
<use xlink:href="#f0_c" transform="matrix(12,0,0,12,294.7,521.9)" />
<use xlink:href="#f0_13" transform="matrix(12,0,0,12,300.9,521.9)" />
<use xlink:href="#f0_d" transform="matrix(12,0,0,12,312.6,521.9)" />
<use xlink:href="#f0_25" transform="matrix(12,0,0,12,322.2,521.9)" />
<use xlink:href="#f0_2f" transform="matrix(12,0,0,12,326.2,521.9)" />
<use xlink:href="#f0_2b" transform="matrix(12,0,0,12,333.2,521.9)" />
<use xlink:href="#f0_29" transform="matrix(12,0,0,12,342.8,521.9)" />
<use xlink:href="#f0_21" transform="matrix(12,0,0,12,356,521.9)" />
<use xlink:href="#f0_2e" transform="matrix(12,0,0,12,364.1,521.9)" />
<use xlink:href="#f0_2f" transform="matrix(12,0,0,12,369.9,521.9)" />
<use xlink:href="#f0_g" transform="matrix(12,0,0,12,376.9,521.9)" />
<use xlink:href="#f0_2j" transform="matrix(12,0,0,12,385,521.9)" />
<use xlink:href="#f0_24" transform="matrix(12,0,0,12,398.2,521.9)" />
<use xlink:href="#f0_25" transform="matrix(12,0,0,12,406.7,521.9)" />
<use xlink:href="#f0_1z" transform="matrix(12,0,0,12,411.1,521.9)" />
<use xlink:href="#f0_24" transform="matrix(12,0,0,12,419.2,521.9)" />
<use xlink:href="#f0_2b" transform="matrix(12,0,0,12,431.3,521.9)" />
<use xlink:href="#f0_2a" transform="matrix(12,0,0,12,440.5,521.9)" />
<use xlink:href="#f0_21" transform="matrix(12,0,0,12,449.3,521.9)" />
<use xlink:href="#f0_25" transform="matrix(12,0,0,12,460.7,521.9)" />
<use xlink:href="#f0_2f" transform="matrix(12,0,0,12,465.1,521.9)" />
<use xlink:href="#f0_28" transform="matrix(12,0,0,12,475,521.9)" />
<use xlink:href="#f0_21" transform="matrix(12,0,0,12,479.4,521.9)" />
<use xlink:href="#f0_1x" transform="matrix(12,0,0,12,487.2,521.9)" />
<use xlink:href="#f0_2f" transform="matrix(12,0,0,12,495.2,521.9)" />
<use xlink:href="#f0_2g" transform="matrix(12,0,0,12,502.2,521.9)" />
<use xlink:href="#f0_2e" transform="matrix(12,0,0,12,511,521.9)" />
<use xlink:href="#f0_21" transform="matrix(12,0,0,12,516.9,521.9)" />
<use xlink:href="#f0_1x" transform="matrix(12,0,0,12,525,521.9)" />
<use xlink:href="#f0_1z" transform="matrix(12,0,0,12,533.1,521.9)" />
<use xlink:href="#f0_2g" transform="matrix(12,0,0,12,540.8,521.9)" />
<use xlink:href="#f0_25" transform="matrix(12,0,0,12,546.3,521.9)" />
<use xlink:href="#f0_2i" transform="matrix(12,0,0,12,550.3,521.9)" />
<use xlink:href="#f0_21" transform="matrix(12,0,0,12,559.2,521.9)" />
<use xlink:href="#f0_2g" transform="matrix(12,0,0,12,570.6,521.9)" />
<use xlink:href="#f0_2b" transform="matrix(12,0,0,12,576.1,521.9)" />
<use xlink:href="#f0_2j" transform="matrix(12,0,0,12,585.6,521.9)" />
<use xlink:href="#f0_1x" transform="matrix(12,0,0,12,598.4,521.9)" />
<use xlink:href="#f0_2e" transform="matrix(12,0,0,12,606.5,521.9)" />
<use xlink:href="#f0_20" transform="matrix(12,0,0,12,612.4,521.9)" />
<use xlink:href="#f0_2f" transform="matrix(12,0,0,12,621.6,521.9)" />
<use xlink:href="#f0_1x" transform="matrix(12,0,0,12,631.9,521.9)" />
<use xlink:href="#f0_20" transform="matrix(12,0,0,12,640,521.9)" />
<use xlink:href="#f0_20" transform="matrix(12,0,0,12,648.8,521.9)" />
<use xlink:href="#f0_25" transform="matrix(12,0,0,12,657.9,521.9)" />
<use xlink:href="#f0_2g" transform="matrix(12,0,0,12,662.3,521.9)" />
<use xlink:href="#f0_25" transform="matrix(12,0,0,12,667.5,521.9)" />
<use xlink:href="#f0_2b" transform="matrix(12,0,0,12,671.9,521.9)" />
<use xlink:href="#f0_2a" transform="matrix(12,0,0,12,681.1,521.9)" />
<use xlink:href="#f0_2b" transform="matrix(12,0,0,12,693.2,521.9)" />
<use xlink:href="#f0_22" transform="matrix(12,0,0,12,702.4,521.9)" />
<use xlink:href="#f0_18" transform="matrix(12,0,0,12,711.6,521.9)" />
<use xlink:href="#f0_13" transform="matrix(12,0,0,12,724.4,521.9)" />
<use xlink:href="#f0_1e" transform="matrix(12,0,0,12,736.5,521.9)" />
<use xlink:href="#f0_z" transform="matrix(12,0,0,12,753.1,521.9)" />
<use xlink:href="#f0_11" transform="matrix(12,0,0,12,64.9,550.9)" />
<use xlink:href="#f0_2a" transform="matrix(12,0,0,12,77.4,550.9)" />
<use xlink:href="#f0_2f" transform="matrix(12,0,0,12,85.8,550.9)" />
<use xlink:href="#f0_i" transform="matrix(12,0,0,12,92.5,550.9)" />
<use xlink:href="#f0_c" transform="matrix(12,0,0,12,117,550.9)" />
<use xlink:href="#f0_12" transform="matrix(12,0,0,12,122.9,550.9)" />
<use xlink:href="#f0_d" transform="matrix(12,0,0,12,134.6,550.9)" />
<use xlink:href="#f0_2j" transform="matrix(12,0,0,12,143.8,550.9)" />
<use xlink:href="#f0_25" transform="matrix(12,0,0,12,157,550.9)" />
<use xlink:href="#f0_28" transform="matrix(12,0,0,12,161.1,550.9)" />
<use xlink:href="#f0_28" transform="matrix(12,0,0,12,165.1,550.9)" />
<use xlink:href="#f0_1y" transform="matrix(12,0,0,12,172.5,550.9)" />
<use xlink:href="#f0_21" transform="matrix(12,0,0,12,180.9,550.9)" />
<use xlink:href="#f0_28" transform="matrix(12,0,0,12,191.6,550.9)" />
<use xlink:href="#f0_21" transform="matrix(12,0,0,12,195.6,550.9)" />
<use xlink:href="#f0_1x" transform="matrix(12,0,0,12,203.7,550.9)" />
<use xlink:href="#f0_2f" transform="matrix(12,0,0,12,211.4,550.9)" />
<use xlink:href="#f0_2g" transform="matrix(12,0,0,12,218.1,550.9)" />
<use xlink:href="#f0_2e" transform="matrix(12,0,0,12,226.5,550.9)" />
<use xlink:href="#f0_21" transform="matrix(12,0,0,12,232.4,550.9)" />
<use xlink:href="#f0_1x" transform="matrix(12,0,0,12,240.1,550.9)" />
<use xlink:href="#f0_1z" transform="matrix(12,0,0,12,247.8,550.9)" />
<use xlink:href="#f0_2g" transform="matrix(12,0,0,12,255.5,550.9)" />
<use xlink:href="#f0_25" transform="matrix(12,0,0,12,261,550.9)" />
<use xlink:href="#f0_2i" transform="matrix(12,0,0,12,265.1,550.9)" />
<use xlink:href="#f0_21" transform="matrix(12,0,0,12,273.5,550.9)" />
<use xlink:href="#f0_1x" transform="matrix(12,0,0,12,284.6,550.9)" />
<use xlink:href="#f0_2f" transform="matrix(12,0,0,12,292.3,550.9)" />
<use xlink:href="#f0_25" transform="matrix(12,0,0,12,302.2,550.9)" />
<use xlink:href="#f0_2g" transform="matrix(12,0,0,12,306.3,550.9)" />
<use xlink:href="#f0_1z" transform="matrix(12,0,0,12,314.7,550.9)" />
<use xlink:href="#f0_2b" transform="matrix(12,0,0,12,322.4,550.9)" />
<use xlink:href="#f0_2a" transform="matrix(12,0,0,12,331.6,550.9)" />
<use xlink:href="#f0_2g" transform="matrix(12,0,0,12,340,550.9)" />
<use xlink:href="#f0_1x" transform="matrix(12,0,0,12,345.2,550.9)" />
<use xlink:href="#f0_25" transform="matrix(12,0,0,12,352.9,550.9)" />
<use xlink:href="#f0_2a" transform="matrix(12,0,0,12,356.9,550.9)" />
<use xlink:href="#f0_27" transform="matrix(12,0,0,12,368.7,550.9)" />
<use xlink:href="#f0_21" transform="matrix(12,0,0,12,377.9,550.9)" />
<use xlink:href="#f0_2g" transform="matrix(12,0,0,12,385.6,550.9)" />
<use xlink:href="#f0_2b" transform="matrix(12,0,0,12,390.7,550.9)" />
<use xlink:href="#f0_2a" transform="matrix(12,0,0,12,399.9,550.9)" />
<use xlink:href="#f0_21" transform="matrix(12,0,0,12,408.3,550.9)" />
<use xlink:href="#f0_1x" transform="matrix(12,0,0,12,419.3,550.9)" />
<use xlink:href="#f0_2f" transform="matrix(12,0,0,12,427.1,550.9)" />
<use xlink:href="#f0_22" transform="matrix(12,0,0,12,437.4,550.9)" />
<use xlink:href="#f0_2h" transform="matrix(12,0,0,12,442.5,550.9)" />
<use xlink:href="#f0_2a" transform="matrix(12,0,0,12,451.3,550.9)" />
<use xlink:href="#f0_1z" transform="matrix(12,0,0,12,459.8,550.9)" />
<use xlink:href="#f0_2g" transform="matrix(12,0,0,12,467.5,550.9)" />
<use xlink:href="#f0_25" transform="matrix(12,0,0,12,472.6,550.9)" />
<use xlink:href="#f0_2b" transform="matrix(12,0,0,12,476.7,550.9)" />
<use xlink:href="#f0_2a" transform="matrix(12,0,0,12,485.8,550.9)" />
<use xlink:href="#f0_1x" transform="matrix(12,0,0,12,494.3,550.9)" />
<use xlink:href="#f0_28" transform="matrix(12,0,0,12,502.4,550.9)" />
<use xlink:href="#f0_23" transform="matrix(12,0,0,12,509.7,550.9)" />
<use xlink:href="#f0_2e" transform="matrix(12,0,0,12,518.5,550.9)" />
<use xlink:href="#f0_2b" transform="matrix(12,0,0,12,524.4,550.9)" />
<use xlink:href="#f0_2h" transform="matrix(12,0,0,12,533.6,550.9)" />
<use xlink:href="#f0_2c" transform="matrix(12,0,0,12,542.4,550.9)" />
<use xlink:href="#f0_1x" transform="matrix(12,0,0,12,554.2,550.9)" />
<use xlink:href="#f0_2a" transform="matrix(12,0,0,12,562.3,550.9)" />
<use xlink:href="#f0_20" transform="matrix(12,0,0,12,570.7,550.9)" />
<use xlink:href="#f0_27" transform="matrix(12,0,0,12,582.8,550.9)" />
<use xlink:href="#f0_21" transform="matrix(12,0,0,12,591.7,550.9)" />
<use xlink:href="#f0_2g" transform="matrix(12,0,0,12,599.4,550.9)" />
<use xlink:href="#f0_2b" transform="matrix(12,0,0,12,604.5,550.9)" />
<use xlink:href="#f0_2a" transform="matrix(12,0,0,12,613.7,550.9)" />
<use xlink:href="#f0_21" transform="matrix(12,0,0,12,622.1,550.9)" />
<use xlink:href="#f0_2f" transform="matrix(12,0,0,12,630.2,550.9)" />
<use xlink:href="#f0_1x" transform="matrix(12,0,0,12,640.1,550.9)" />
<use xlink:href="#f0_2e" transform="matrix(12,0,0,12,647.9,550.9)" />
<use xlink:href="#f0_21" transform="matrix(12,0,0,12,653.7,550.9)" />
<use xlink:href="#f0_28" transform="matrix(12,0,0,12,664.8,550.9)" />
<use xlink:href="#f0_21" transform="matrix(12,0,0,12,668.8,550.9)" />
<use xlink:href="#f0_2f" transform="matrix(12,0,0,12,676.5,550.9)" />
<use xlink:href="#f0_2f" transform="matrix(12,0,0,12,683.1,550.9)" />
<use xlink:href="#f0_2e" transform="matrix(12,0,0,12,693.1,550.9)" />
<use xlink:href="#f0_21" transform="matrix(12,0,0,12,699,550.9)" />
<use xlink:href="#f0_1x" transform="matrix(12,0,0,12,706.7,550.9)" />
<use xlink:href="#f0_1z" transform="matrix(12,0,0,12,714.4,550.9)" />
<use xlink:href="#f0_2g" transform="matrix(12,0,0,12,722.1,550.9)" />
<use xlink:href="#f0_25" transform="matrix(12,0,0,12,727.2,550.9)" />
<use xlink:href="#f0_2i" transform="matrix(12,0,0,12,731.3,550.9)" />
<use xlink:href="#f0_21" transform="matrix(12,0,0,12,739.7,550.9)" />
<use xlink:href="#f0_2g" transform="matrix(12,0,0,12,751.1,550.9)" />
<use xlink:href="#f0_24" transform="matrix(12,0,0,12,756.3,550.9)" />
<use xlink:href="#f0_1x" transform="matrix(12,0,0,12,763.3,550.9)" />
<use xlink:href="#f0_2a" transform="matrix(12,0,0,12,771,550.9)" />
<use xlink:href="#f0_1x" transform="matrix(12,0,0,12,782.8,550.9)" />
<use xlink:href="#f0_28" transform="matrix(12,0,0,12,790.5,550.9)" />
<use xlink:href="#f0_20" transform="matrix(12,0,0,12,794.5,550.9)" />
<use xlink:href="#f0_21" transform="matrix(12,0,0,12,803.7,550.9)" />
<use xlink:href="#f0_24" transform="matrix(12,0,0,12,811.4,550.9)" />
<use xlink:href="#f0_2l" transform="matrix(12,0,0,12,819.9,550.9)" />
<use xlink:href="#f0_20" transform="matrix(12,0,0,12,827.9,550.9)" />
<use xlink:href="#f0_21" transform="matrix(12,0,0,12,836.8,550.9)" />
<use xlink:href="#f0_2g" transform="matrix(12,0,0,12,117,579.5)" />
<use xlink:href="#f0_2b" transform="matrix(12,0,0,12,122.1,579.5)" />
<use xlink:href="#f0_2j" transform="matrix(12,0,0,12,131.2,579.5)" />
<use xlink:href="#f0_1x" transform="matrix(12,0,0,12,144.5,579.5)" />
<use xlink:href="#f0_2e" transform="matrix(12,0,0,12,152.6,579.5)" />
<use xlink:href="#f0_20" transform="matrix(12,0,0,12,158.7,579.5)" />
<use xlink:href="#f0_2f" transform="matrix(12,0,0,12,167.9,579.5)" />
<use xlink:href="#f0_2a" transform="matrix(12,0,0,12,177.8,579.5)" />
<use xlink:href="#f0_2h" transform="matrix(12,0,0,12,187,579.5)" />
<use xlink:href="#f0_1z" transform="matrix(12,0,0,12,196.1,579.5)" />
<use xlink:href="#f0_28" transform="matrix(12,0,0,12,204.3,579.5)" />
<use xlink:href="#f0_21" transform="matrix(12,0,0,12,209.4,579.5)" />
<use xlink:href="#f0_2b" transform="matrix(12,0,0,12,217.5,579.5)" />
<use xlink:href="#f0_2c" transform="matrix(12,0,0,12,226.7,579.5)" />
<use xlink:href="#f0_24" transform="matrix(12,0,0,12,235.8,579.5)" />
<use xlink:href="#f0_25" transform="matrix(12,0,0,12,245,579.5)" />
<use xlink:href="#f0_28" transform="matrix(12,0,0,12,250.1,579.5)" />
<use xlink:href="#f0_25" transform="matrix(12,0,0,12,255.2,579.5)" />
<use xlink:href="#f0_1z" transform="matrix(12,0,0,12,258.9,579.5)" />
<use xlink:href="#f0_1x" transform="matrix(12,0,0,12,269.5,579.5)" />
<use xlink:href="#f0_20" transform="matrix(12,0,0,12,277.7,579.5)" />
<use xlink:href="#f0_20" transform="matrix(12,0,0,12,286.8,579.5)" />
<use xlink:href="#f0_25" transform="matrix(12,0,0,12,296,579.5)" />
<use xlink:href="#f0_2g" transform="matrix(12,0,0,12,301.1,579.5)" />
<use xlink:href="#f0_25" transform="matrix(12,0,0,12,306.2,579.5)" />
<use xlink:href="#f0_2b" transform="matrix(12,0,0,12,311.3,579.5)" />
<use xlink:href="#f0_2a" transform="matrix(12,0,0,12,320.4,579.5)" />
<use xlink:href="#f0_2e" transform="matrix(12,0,0,12,332.2,579.5)" />
<use xlink:href="#f0_21" transform="matrix(12,0,0,12,338.3,579.5)" />
<use xlink:href="#f0_1x" transform="matrix(12,0,0,12,346.4,579.5)" />
<use xlink:href="#f0_1z" transform="matrix(12,0,0,12,354.6,579.5)" />
<use xlink:href="#f0_2g" transform="matrix(12,0,0,12,362.7,579.5)" />
<use xlink:href="#f0_25" transform="matrix(12,0,0,12,367.8,579.5)" />
<use xlink:href="#f0_2b" transform="matrix(12,0,0,12,372.9,579.5)" />
<use xlink:href="#f0_2a" transform="matrix(12,0,0,12,382.1,579.5)" />
<use xlink:href="#f0_i" transform="matrix(12,0,0,12,391.2,579.5)" />
<use xlink:href="#f0_l" transform="matrix(12,0,0,12,64.9,657.2)" />
<use xlink:href="#f0_q" transform="matrix(12,0,0,12,74.1,657.2)" />
<use xlink:href="#f0_i" transform="matrix(12,0,0,12,83.2,657.2)" />
<use xlink:href="#f0_c" transform="matrix(12,0,0,12,117,657.2)" />
<use xlink:href="#f0_1x" transform="matrix(12,0,0,12,122.5,657.2)" />
<use xlink:href="#f0_d" transform="matrix(12,0,0,12,130.2,657.2)" />
<use xlink:href="#f0_19" transform="matrix(12,0,0,12,155.8,657.2)" />
<use xlink:href="#f0_20" transform="matrix(12,0,0,12,161.7,657.2)" />
<use xlink:href="#f0_21" transform="matrix(12,0,0,12,170.5,657.2)" />
<use xlink:href="#f0_2a" transform="matrix(12,0,0,12,178.2,657.2)" />
<use xlink:href="#f0_2g" transform="matrix(12,0,0,12,186.7,657.2)" />
<use xlink:href="#f0_25" transform="matrix(12,0,0,12,191.8,657.2)" />
<use xlink:href="#f0_22" transform="matrix(12,0,0,12,195.9,657.2)" />
<use xlink:href="#f0_2l" transform="matrix(12,0,0,12,201,657.2)" />
<use xlink:href="#f0_2g" transform="matrix(12,0,0,12,212.8,657.2)" />
<use xlink:href="#f0_24" transform="matrix(12,0,0,12,217.9,657.2)" />
<use xlink:href="#f0_21" transform="matrix(12,0,0,12,226.4,657.2)" />
<use xlink:href="#f0_1z" transform="matrix(12,0,0,12,237,657.2)" />
<use xlink:href="#f0_24" transform="matrix(12,0,0,12,244.7,657.2)" />
<use xlink:href="#f0_25" transform="matrix(12,0,0,12,253.2,657.2)" />
<use xlink:href="#f0_2e" transform="matrix(12,0,0,12,257.2,657.2)" />
<use xlink:href="#f0_1x" transform="matrix(12,0,0,12,263.1,657.2)" />
<use xlink:href="#f0_28" transform="matrix(12,0,0,12,270.8,657.2)" />
<use xlink:href="#f0_29" transform="matrix(12,0,0,12,278.2,657.2)" />
<use xlink:href="#f0_2b" transform="matrix(12,0,0,12,291.4,657.2)" />
<use xlink:href="#f0_28" transform="matrix(12,0,0,12,300.6,657.2)" />
<use xlink:href="#f0_21" transform="matrix(12,0,0,12,304.6,657.2)" />
<use xlink:href="#f0_1z" transform="matrix(12,0,0,12,312.3,657.2)" />
<use xlink:href="#f0_2h" transform="matrix(12,0,0,12,320.1,657.2)" />
<use xlink:href="#f0_28" transform="matrix(12,0,0,12,329.2,657.2)" />
<use xlink:href="#f0_21" transform="matrix(12,0,0,12,333.3,657.2)" />
<use xlink:href="#f0_25" transform="matrix(12,0,0,12,344.3,657.2)" />
<use xlink:href="#f0_2a" transform="matrix(12,0,0,12,348.4,657.2)" />
<use xlink:href="#f0_2g" transform="matrix(12,0,0,12,360.1,657.2)" />
<use xlink:href="#f0_24" transform="matrix(12,0,0,12,365.2,657.2)" />
<use xlink:href="#f0_21" transform="matrix(12,0,0,12,373.7,657.2)" />
<use xlink:href="#f0_22" transform="matrix(12,0,0,12,384.4,657.2)" />
<use xlink:href="#f0_2b" transform="matrix(12,0,0,12,389.5,657.2)" />
<use xlink:href="#f0_28" transform="matrix(12,0,0,12,398.7,657.2)" />
<use xlink:href="#f0_28" transform="matrix(12,0,0,12,402.7,657.2)" />
<use xlink:href="#f0_2b" transform="matrix(12,0,0,12,406.8,657.2)" />
<use xlink:href="#f0_2j" transform="matrix(12,0,0,12,415.9,657.2)" />
<use xlink:href="#f0_25" transform="matrix(12,0,0,12,428.8,657.2)" />
<use xlink:href="#f0_2a" transform="matrix(12,0,0,12,433.2,657.2)" />
<use xlink:href="#f0_23" transform="matrix(12,0,0,12,441.7,657.2)" />
<use xlink:href="#f0_2c" transform="matrix(12,0,0,12,453.8,657.2)" />
<use xlink:href="#f0_1x" transform="matrix(12,0,0,12,462.6,657.2)" />
<use xlink:href="#f0_25" transform="matrix(12,0,0,12,470.3,657.2)" />
<use xlink:href="#f0_2e" transform="matrix(12,0,0,12,474.4,657.2)" />
<use xlink:href="#f0_z" transform="matrix(12,0,0,12,483.6,657.2)" />
</g>
<path d="M158,702l1.1,.8v32.7h-1.4V702.8l.3,-.8Zm-.3,.8v-.4l.3,-.4l-.3,.8ZM187,685.9V687l-28.2,16.5L158,702l27.9,-16.1H187Zm-1.1,0l.4,-.4l.7,.4h-1.1Zm29.3,16.9l-1.1,.7L185.9,687l1.1,-1.1L214.9,702l.3,.8Zm-.3,-.8l.3,.4v.4l-.3,-.8Zm-1.1,33.5V702.8h1.4v32.7h-1.4Z" class="g1_7" />
<path d="M187.4,668.9v17.7h-1.9V668.9h1.9Z" class="g1_7" />
<path d="M238.3,689.9l-23.4,13.6l-.8,-1.5l23.5,-13.6l.7,1.5Z" class="g1_7" />
<g fill="#1F1A17" >
<use xlink:href="#f0_1f" transform="matrix(12,0,0,12,208.6,751.1)" />
<use xlink:href="#f0_18" transform="matrix(12,0,0,12,221.8,751.1)" />
<use xlink:href="#f0_1x" transform="matrix(12,0,0,12,267.3,719.9)" />
<use xlink:href="#f0_2a" transform="matrix(12,0,0,12,275.4,719.9)" />
<use xlink:href="#f0_20" transform="matrix(12,0,0,12,284.5,719.9)" />
</g>
<path d="M312,699.1l1.1,.7v32.4h-1.4V699.8l.3,-.7Zm-.3,.7v-.3l.3,-.4l-.3,.7ZM341,682.9V684l-28.2,16.6l-.8,-1.5l28.3,-16.2h.7Zm-.7,0l.3,-.4l.4,.4h-.7Zm29.3,16.9l-1.1,.8L340.3,684l.7,-1.1l28.2,16.2l.4,.7Zm-.4,-.7l.4,.4v.3l-.4,-.7Zm-1.1,33.1V699.8h1.5v32.4h-1.5Z" class="g1_7" />
<path d="M368.5,699.1l1.1,.7v32.4h-1.5V699.8l.4,-.7Zm-.4,.7v-.3l.4,-.4l-.4,.7Zm29.4,-16.9V684l-28.3,16.6l-.7,-1.5l27.9,-16.2h1.1Zm-1.1,0l.7,-.4l.4,.4h-1.1Zm29.3,16.9l-1.1,.8L396.4,684l1.1,-1.1l27.8,16.2l.4,.7Zm-.4,-.7l.4,.4v.3l-.4,-.7Zm-1.1,33.1V699.8h1.5v32.4h-1.5Z" class="g1_7" />
<g fill="#1F1A17" >
<use xlink:href="#f0_1f" transform="matrix(12,0,0,12,363.4,748.5)" />
<use xlink:href="#f0_18" transform="matrix(12,0,0,12,376.6,748.5)" />
</g>
<g clip-path="url(#c6_7)">
<g fill="#1F1A17" >
<use xlink:href="#f0_c" transform="matrix(12,0,0,12,177.1,776.7)" />
<use xlink:href="#f0_25" transform="matrix(12,0,0,12,187.7,776.7)" />
<use xlink:href="#f0_d" transform="matrix(12,0,0,12,197.6,776.7)" />
</g>
</g>
<g fill="#1F1A17" >
<use xlink:href="#f0_c" transform="matrix(12,0,0,12,357.1,773.1)" />
<use xlink:href="#f0_25" transform="matrix(12,0,0,12,367.8,773.1)" />
<use xlink:href="#f0_25" transform="matrix(12,0,0,12,372.9,773.1)" />
<use xlink:href="#f0_d" transform="matrix(12,0,0,12,382.4,773.1)" />
</g>
<g fill="#000000" >
<use xlink:href="#f0_11" transform="matrix(12,0,0,12,64.9,852.3)" />
<use xlink:href="#f0_2a" transform="matrix(12,0,0,12,77.4,852.3)" />
<use xlink:href="#f0_2f" transform="matrix(12,0,0,12,85.8,852.3)" />
<use xlink:href="#f0_i" transform="matrix(12,0,0,12,92.4,852.3)" />
<use xlink:href="#f0_c" transform="matrix(12,0,0,12,117,852.3)" />
<use xlink:href="#f0_25" transform="matrix(12,0,0,12,122.1,852.3)" />
<use xlink:href="#f0_d" transform="matrix(12,0,0,12,125.8,852.3)" />
</g>
<path d="M158,830l1.1,.8v32.4h-1.4V830.8l.3,-.8Zm-.3,.8v-.4l.3,-.4l-.3,.8Zm29.3,-17v1.1l-28.2,16.6L158,830l27.9,-16.2H187Zm-1.1,0l.7,-.3l.4,.3h-1.1Zm29.6,17l-1.5,.7L185.9,814.9l1.1,-1.1L214.8,830l.7,.8Zm-.7,-.8l.7,.4v.4l-.7,-.8Zm-1.1,33.2V830.8h1.8v32.4h-1.8Z" class="g1_7" />
<path d="M187.3,796.5v17.7h-1.8V796.5h1.8Z" class="g1_7" />
<path d="M246.6,813.1l-31.8,18.4L214,830l31.9,-18.4l.7,1.5Z" class="g1_7" />
<g fill="#1F1A17" >
<use xlink:href="#f0_e" transform="matrix(12,0,0,12.1,209.7,829.9)" />
<use xlink:href="#f0_13" transform="matrix(12,0,0,12.1,255.9,841.6)" />
<use xlink:href="#f0_24" transform="matrix(12,0,0,12.1,267.7,841.6)" />
<use xlink:href="#f0_25" transform="matrix(12,0,0,12.1,276.8,841.6)" />
<use xlink:href="#f0_2e" transform="matrix(12,0,0,12.1,282,841.6)" />
<use xlink:href="#f0_1x" transform="matrix(12,0,0,12.1,288.2,841.6)" />
<use xlink:href="#f0_28" transform="matrix(12,0,0,12.1,296.3,841.6)" />
<use xlink:href="#f0_1z" transform="matrix(12,0,0,12.1,306.2,841.6)" />
<use xlink:href="#f0_1x" transform="matrix(12,0,0,12.1,314.2,841.6)" />
<use xlink:href="#f0_2e" transform="matrix(12,0,0,12.1,322.3,841.6)" />
<use xlink:href="#f0_1y" transform="matrix(12,0,0,12.1,328.5,841.6)" />
<use xlink:href="#f0_2b" transform="matrix(12,0,0,12.1,337.7,841.6)" />
<use xlink:href="#f0_2a" transform="matrix(12,0,0,12.1,346.9,841.6)" />
</g>
<path d="M222.1,823.4L251,834.8l-.7,1.1l-28.6,-11l.4,-1.5Zm-1.5,-.4l.4,1.5l.4,-1.5l4,5.9l-1.1,1.1l-4,-5.9l.3,-1.1Zm0,0l-.3,1.1l-.8,-1.1h1.1Zm7.3,-.7v.7l-6.9,1.5l-.4,-1.5l7,-1.4l.3,.7Z" class="g1_7" />
<g fill="#1F1A17" >
<use xlink:href="#f0_1f" transform="matrix(12,0,0,12.1,208.6,879)" />
<use xlink:href="#f0_18" transform="matrix(12,0,0,12.1,221.8,879)" />
</g>
<g fill="#000000" >
<use xlink:href="#f0_c" transform="matrix(12,0,0,12,117,959)" />
<use xlink:href="#f0_1y" transform="matrix(12,0,0,12,122.9,959)" />
<use xlink:href="#f0_d" transform="matrix(12,0,0,12,131.3,959)" />
<use xlink:href="#f0_1n" transform="matrix(12,0,0,12,155.8,959)" />
<use xlink:href="#f0_2e" transform="matrix(12,0,0,12,171.6,959)" />
<use xlink:href="#f0_25" transform="matrix(12,0,0,12,177.5,959)" />
<use xlink:href="#f0_2g" transform="matrix(12,0,0,12,181.5,959)" />
<use xlink:href="#f0_21" transform="matrix(12,0,0,12,187,959)" />
<use xlink:href="#f0_2g" transform="matrix(12,0,0,12,198.1,959)" />
<use xlink:href="#f0_24" transform="matrix(12,0,0,12,203.2,959)" />
<use xlink:href="#f0_21" transform="matrix(12,0,0,12,211.7,959)" />
<use xlink:href="#f0_2f" transform="matrix(12,0,0,12,222.3,959)" />
<use xlink:href="#f0_2g" transform="matrix(12,0,0,12,229.3,959)" />
<use xlink:href="#f0_2e" transform="matrix(12,0,0,12,234.4,959)" />
<use xlink:href="#f0_2h" transform="matrix(12,0,0,12,240.3,959)" />
<use xlink:href="#f0_1z" transform="matrix(12,0,0,12,249.1,959)" />
<use xlink:href="#f0_2g" transform="matrix(12,0,0,12,256.9,959)" />
<use xlink:href="#f0_2h" transform="matrix(12,0,0,12,262,959)" />
<use xlink:href="#f0_2e" transform="matrix(12,0,0,12,271.2,959)" />
<use xlink:href="#f0_21" transform="matrix(12,0,0,12,277,959)" />
<use xlink:href="#f0_2b" transform="matrix(12,0,0,12,288.1,959)" />
<use xlink:href="#f0_22" transform="matrix(12,0,0,12,297.2,959)" />
<use xlink:href="#f0_2g" transform="matrix(12,0,0,12,305.7,959)" />
<use xlink:href="#f0_24" transform="matrix(12,0,0,12,311.2,959)" />
<use xlink:href="#f0_21" transform="matrix(12,0,0,12,319.7,959)" />
<use xlink:href="#f0_2c" transform="matrix(12,0,0,12,330.7,959)" />
<use xlink:href="#f0_2e" transform="matrix(12,0,0,12,339.5,959)" />
<use xlink:href="#f0_2b" transform="matrix(12,0,0,12,345.4,959)" />
<use xlink:href="#f0_20" transform="matrix(12,0,0,12,354.6,959)" />
<use xlink:href="#f0_2h" transform="matrix(12,0,0,12,363.7,959)" />
<use xlink:href="#f0_1z" transform="matrix(12,0,0,12,372.5,959)" />
<use xlink:href="#f0_2g" transform="matrix(12,0,0,12,380.3,959)" />
<use xlink:href="#f0_2j" transform="matrix(12,0,0,12,388.3,959)" />
<use xlink:href="#f0_24" transform="matrix(12,0,0,12,401.2,959)" />
<use xlink:href="#f0_21" transform="matrix(12,0,0,12,410,959)" />
<use xlink:href="#f0_2a" transform="matrix(12,0,0,12,417.7,959)" />
<use xlink:href="#f0_1z" transform="matrix(12,0,0,12,429.5,959)" />
<use xlink:href="#f0_24" transform="matrix(12,0,0,12,437.2,959)" />
<use xlink:href="#f0_28" transform="matrix(12,0,0,12,445.7,959)" />
<use xlink:href="#f0_2b" transform="matrix(12,0,0,12,449.7,959)" />
<use xlink:href="#f0_2e" transform="matrix(12,0,0,12,459.2,959)" />
<use xlink:href="#f0_2b" transform="matrix(12,0,0,12,465.1,959)" />
<use xlink:href="#f0_1y" transform="matrix(12,0,0,12,474.3,959)" />
<use xlink:href="#f0_21" transform="matrix(12,0,0,12,482.7,959)" />
<use xlink:href="#f0_2a" transform="matrix(12,0,0,12,490.5,959)" />
<use xlink:href="#f0_2m" transform="matrix(12,0,0,12,498.9,959)" />
<use xlink:href="#f0_21" transform="matrix(12,0,0,12,506.6,959)" />
<use xlink:href="#f0_2a" transform="matrix(12,0,0,12,514.7,959)" />
<use xlink:href="#f0_21" transform="matrix(12,0,0,12,523.2,959)" />
<use xlink:href="#f0_25" transform="matrix(12,0,0,12,534.2,959)" />
<use xlink:href="#f0_2f" transform="matrix(12,0,0,12,538.2,959)" />
<use xlink:href="#f0_2g" transform="matrix(12,0,0,12,548.5,959)" />
<use xlink:href="#f0_2e" transform="matrix(12,0,0,12,553.7,959)" />
<use xlink:href="#f0_21" transform="matrix(12,0,0,12,559.6,959)" />
<use xlink:href="#f0_1x" transform="matrix(12,0,0,12,567.3,959)" />
<use xlink:href="#f0_2g" transform="matrix(12,0,0,12,575,959)" />
<use xlink:href="#f0_21" transform="matrix(12,0,0,12,580.1,959)" />
<use xlink:href="#f0_20" transform="matrix(12,0,0,12,587.8,959)" />
<use xlink:href="#f0_2j" transform="matrix(12,0,0,12,600,959)" />
<use xlink:href="#f0_25" transform="matrix(12,0,0,12,612.8,959)" />
<use xlink:href="#f0_2g" transform="matrix(12,0,0,12,616.9,959)" />
<use xlink:href="#f0_24" transform="matrix(12,0,0,12,622,959)" />
<use xlink:href="#f0_29" transform="matrix(12,0,0,12,633.8,959)" />
<use xlink:href="#f0_21" transform="matrix(12,0,0,12,647.3,959)" />
<use xlink:href="#f0_2g" transform="matrix(12,0,0,12,655.1,959)" />
<use xlink:href="#f0_24" transform="matrix(12,0,0,12,660.2,959)" />
<use xlink:href="#f0_2l" transform="matrix(12,0,0,12,668.6,959)" />
<use xlink:href="#f0_28" transform="matrix(12,0,0,12,676.7,959)" />
<use xlink:href="#f0_1z" transform="matrix(12,0,0,12,684.5,959)" />
<use xlink:href="#f0_24" transform="matrix(12,0,0,12,692.2,959)" />
<use xlink:href="#f0_28" transform="matrix(12,0,0,12,700.6,959)" />
<use xlink:href="#f0_2b" transform="matrix(12,0,0,12,704.7,959)" />
<use xlink:href="#f0_2e" transform="matrix(12,0,0,12,713.8,959)" />
<use xlink:href="#f0_25" transform="matrix(12,0,0,12,719.7,959)" />
<use xlink:href="#f0_20" transform="matrix(12,0,0,12,723.8,959)" />
<use xlink:href="#f0_21" transform="matrix(12,0,0,12,732.9,959)" />
<use xlink:href="#f0_25" transform="matrix(12,0,0,12,744,959)" />
<use xlink:href="#f0_2a" transform="matrix(12,0,0,12,748,959)" />
<use xlink:href="#f0_2g" transform="matrix(12,0,0,12,759.4,959)" />
<use xlink:href="#f0_24" transform="matrix(12,0,0,12,764.6,959)" />
<use xlink:href="#f0_21" transform="matrix(12,0,0,12,773.4,959)" />
<use xlink:href="#f0_2c" transform="matrix(12,0,0,12,784.4,959)" />
<use xlink:href="#f0_2e" transform="matrix(12,0,0,12,793.2,959)" />
<use xlink:href="#f0_21" transform="matrix(12,0,0,12,799.1,959)" />
<use xlink:href="#f0_2f" transform="matrix(12,0,0,12,806.8,959)" />
<use xlink:href="#f0_21" transform="matrix(12,0,0,12,813.8,959)" />
<use xlink:href="#f0_2a" transform="matrix(12,0,0,12,821.5,959)" />
<use xlink:href="#f0_1z" transform="matrix(12,0,0,12,830,959)" />
<use xlink:href="#f0_21" transform="matrix(12,0,0,12,836.4,959)" />
<use xlink:href="#f0_2b" transform="matrix(12,0,0,12,160.2,983.2)" />
<use xlink:href="#f0_22" transform="matrix(12,0,0,12,169.4,983.2)" />
<use xlink:href="#f0_2f" transform="matrix(12,0,0,12,178.2,983.2)" />
<use xlink:href="#f0_2b" transform="matrix(12,0,0,12,184.9,983.2)" />
<use xlink:href="#f0_20" transform="matrix(12,0,0,12,194.4,983.2)" />
<use xlink:href="#f0_25" transform="matrix(12,0,0,12,203.2,983.2)" />
<use xlink:href="#f0_2h" transform="matrix(12,0,0,12,207.2,983.2)" />
<use xlink:href="#f0_29" transform="matrix(12,0,0,12,216.4,983.2)" />
<use xlink:href="#f0_29" transform="matrix(12,0,0,12,232.9,983.2)" />
<use xlink:href="#f0_21" transform="matrix(12,0,0,12,246.5,983.2)" />
<use xlink:href="#f0_2g" transform="matrix(12,0,0,12,254.2,983.2)" />
<use xlink:href="#f0_1x" transform="matrix(12,0,0,12,259.4,983.2)" />
<use xlink:href="#f0_28" transform="matrix(12,0,0,12,267.5,983.2)" />
<use xlink:href="#f0_1x" transform="matrix(12,0,0,12,274.8,983.2)" />
<use xlink:href="#f0_2a" transform="matrix(12,0,0,12,282.5,983.2)" />
<use xlink:href="#f0_20" transform="matrix(12,0,0,12,291,983.2)" />
<use xlink:href="#f0_20" transform="matrix(12,0,0,12,303.5,983.2)" />
<use xlink:href="#f0_2e" transform="matrix(12,0,0,12,312.3,983.2)" />
<use xlink:href="#f0_2l" transform="matrix(12,0,0,12,318.5,983.2)" />
<use xlink:href="#f0_21" transform="matrix(12,0,0,12,329.9,983.2)" />
<use xlink:href="#f0_2g" transform="matrix(12,0,0,12,338,983.2)" />
<use xlink:href="#f0_24" transform="matrix(12,0,0,12,343.1,983.2)" />
<use xlink:href="#f0_21" transform="matrix(12,0,0,12,351.6,983.2)" />
<use xlink:href="#f0_2e" transform="matrix(12,0,0,12,359.7,983.2)" />
<use xlink:href="#f0_i" transform="matrix(12,0,0,12,364.5,983.2)" />
<use xlink:href="#f0_11" transform="matrix(12,0,0,12,64.9,1012.1)" />
<use xlink:href="#f0_2a" transform="matrix(12,0,0,12,77.4,1012.1)" />
<use xlink:href="#f0_2f" transform="matrix(12,0,0,12,85.8,1012.1)" />
<use xlink:href="#f0_i" transform="matrix(12,0,0,12,92.4,1012.1)" />
</g>
<path d="M167.6,1025.7v1.4H150v-1.4h17.6Zm18.3,.4l-.7,1H167.6v-1.4h17.6l.7,.4Zm-.7,-.4h.3l.4,.4l-.7,-.4Zm8,16.4v0l-8.8,-15.3l1.5,-.7l8.8,14.9l-1.5,1.1Zm10.3,15H202l-8.8,-15l1.5,-1.1l8.8,15.4v.7Zm0,-.7l.4,.3l-.4,.4v-.7Zm-8.8,16l-1.5,-.7l8.8,-15.3l1.5,.7l-8.8,15.3Zm-9.5,15.4l-.8,-1.1l8.8,-15l1.5,.7l-8.8,15l-.7,.4Zm.7,-.4l-.4,.4h-.3l.7,-.4Zm-18.3,.4v-1.5h17.6v1.5H167.6Zm-18.4,-.4l.8,-1.1h17.6v1.5H150l-.8,-.4Zm.8,.4h-.4l-.4,-.4l.8,.4Zm-8.1,-16.1v0l8.8,15l-1.5,.7l-8.8,-15l1.5,-.7Zm-10.3,-15.3h1.1l9.2,15.3l-1.5,.7l-8.8,-15.3v-.7Zm0,.7l-.3,-.4l.3,-.3v.7Zm8.8,-16.1l1.5,1.1l-9.2,15l-1.1,-.7l8.8,-15.4Zm9.6,-15.3l.7,1.1l-8.8,15.3l-1.5,-1.1l8.8,-14.9l.8,-.4Zm-.8,.4l.4,-.4h.4l-.8,.4Z" class="g1_7" />
<path d="M180.4,1056.7h-1.8v-2.2l-.4,-1.1l-.4,-1.1l-.3,-.7l-.8,-1.1l-.7,-.7l-.7,-.7l-.8,-.8l-.7,-.7l-1.1,-.7l-.7,-.4l-1.1,-.4l-1.1,-.3h-2.2v-1.5h2.5l1.1,.4l1.1,.3l1.1,.8l1.1,.3l1.1,.8l.8,1.1l1.1,.7l.7,1.1l.4,1.1l.7,1.1l.4,1.1l.3,1.1v1.4l.4,1.1Zm-12.8,12.8v-1.4l1.1,-.4h1.1l1.1,-.4l1.1,-.3l.7,-.4l1.1,-.7l.7,-.4l.8,-.7l.7,-1.1l.7,-.8l.8,-.7l.3,-1.1l.4,-1.1l.4,-1.1v-2.2h1.8l-.4,1.5v1.1l-.3,1.1l-.4,1.5l-.7,1l-.4,.8l-.7,1.1l-1.1,1.1l-.8,.7l-1.1,.7l-1.1,.4l-1.1,.7l-1.1,.4l-1.1,.3h-1.4l-1.1,.4Zm-12.9,-12.8h1.5l.4,1.1v1.1l.3,1.1l.4,1.1l.4,1.1l.7,.7l.4,.8l.7,1.1l1.1,.7l.7,.4l.8,.7l1.1,.4l1.1,.3l1.1,.4h1.1l1.1,.4v1.4l-1.5,-.4H165l-1.1,-.3l-1.5,-.4l-1.1,-.7l-.7,-.4l-1.1,-.7l-1.1,-.7l-.7,-1.1l-.8,-1.1l-.3,-.8l-.8,-1l-.3,-1.5l-.4,-1.1v-1.1l-.4,-1.5Zm12.9,-12.4v1.5h-2.2l-1.1,.3l-1.1,.4l-1.1,.4l-.8,.7l-.7,.7l-1.1,.8l-.7,.7l-.4,.7l-.7,1.1l-.4,.7l-.4,1.1l-.3,1.1v1.1l-.4,1.1h-1.5l.4,-1.1v-1.4l.4,-1.1l.3,-1.1l.8,-1.1l.3,-1.1l.8,-1.1l.7,-.7l1.1,-1.1l1.1,-.8l.7,-.3l1.1,-.8l1.5,-.3l1.1,-.4h2.6Z" class="g1_7" />
<path d="M222.2,1057.5H202.8V1056h19.4v1.5Z" class="g1_7" />
<g fill="#1F1A17" >
<use xlink:href="#f0_13" transform="matrix(12,0,0,12,224,1063.1)" />
<use xlink:href="#f0_28" transform="matrix(12,0,0,12,236.1,1063.1)" />
<use xlink:href="#f0_f" transform="matrix(12,0,0,12,246,1063.1)" />
<use xlink:href="#f0_m" transform="matrix(12,0,0,12,261.1,1063.1)" />
<use xlink:href="#f0_1e" transform="matrix(12,0,0,12,270.2,1063.1)" />
<use xlink:href="#f0_1x" transform="matrix(12,0,0,12,283.4,1063.1)" />
<use xlink:href="#f0_f" transform="matrix(12,0,0,12,295.9,1063.1)" />
<use xlink:href="#f0_13" transform="matrix(12,0,0,12,310.9,1063.1)" />
<use xlink:href="#f0_28" transform="matrix(12,0,0,12,323,1063.1)" />
<use xlink:href="#f0_4y" transform="matrix(12,0,0,12,332.9,1063.1)" />
<use xlink:href="#f0_13" transform="matrix(12,0,0,12,346.5,1063.1)" />
<use xlink:href="#f0_18" transform="matrix(12,0,0,12,359,1063.1)" />
<use xlink:href="#f0_n" transform="matrix(6,0,0,6,372.2,1066.8)" />
</g>
<path d="M338.4,1069.1l-.7,.8H222.6v-1.5H337.7l.7,.7Zm0,0v.8h-.7l.7,-.8Zm-.7,-27.7l.7,.7v27H337v-27l.7,-.7Zm0,0h.7v.7l-.7,-.7Zm-115.9,.7l.8,-.7H337.7v1.5H222.6l-.8,-.8Zm0,0v-.7h.8l-.8,.7Zm.8,27.8l-.8,-.8v-27h1.9v27l-1.1,.8Zm0,0h-.8v-.8l.8,.8Z" class="g1_7" />
<path d="M445.5,1057.8H392v-1.4h53.5v1.4Zm-.7,-4.7l7.3,4l-7.3,4v-8Z" class="g1_7" />
<g clip-path="url(#c7_7)">
<g fill="#1F1A17" >
<use xlink:href="#f0_20" transform="matrix(10.8,0,0,11,410.3,1050.3)" />
<use xlink:href="#f0_2e" transform="matrix(10.8,0,0,11,418.7,1050.3)" />
<use xlink:href="#f0_2l" transform="matrix(10.8,0,0,11,424.2,1050.3)" />
</g>
</g>
<g clip-path="url(#c8_7)">
<g fill="#1F1A17" >
<use xlink:href="#f0_21" transform="matrix(10.8,0,0,11,404.8,1073)" />
<use xlink:href="#f0_2g" transform="matrix(10.8,0,0,11,412.1,1073)" />
<use xlink:href="#f0_24" transform="matrix(10.8,0,0,11,416.9,1073)" />
<use xlink:href="#f0_21" transform="matrix(10.8,0,0,11,425.3,1073)" />
<use xlink:href="#f0_2e" transform="matrix(10.8,0,0,11,432.6,1073)" />
</g>
</g>
<path d="M497.6,1025v1.8h-18V1025h18Zm17.9,.7l-.3,1.1H497.6V1025h17.6l.3,.7Zm-.3,-.7h.3v.7l-.3,-.7Zm8,16.4v0l-8.8,-15l1.1,-.7l9.2,15l-1.5,.7Zm10.3,15.3H532l-8.8,-15.3l1.5,-.7l8.8,15.3v.7Zm0,-.7v.7v-.7Zm-8.8,15.7l-1.5,-.7l8.8,-15l1.5,.7l-8.8,15Zm-9.5,15.7l-.8,-1.1l8.8,-15.3l1.5,.7l-9.2,15.3l-.3,.4Zm.3,-.4v.4h-.3l.3,-.4Zm-17.9,.4V1086h17.6v1.4H497.6Zm-18.4,-.4l.4,-1h18v1.4h-18l-.4,-.4Zm.4,.4h-.4v-.4l.4,.4ZM471.5,1071v0l8.8,15.3l-1.1,.7l-9.1,-15.3l1.4,-.7Zm-10.2,-15h1.4l8.8,15l-1.4,.7l-8.8,-15v-.7Zm0,.7v-.7v.7Zm8.8,-16l1.4,.7l-8.8,15.3l-1.4,-.7l8.8,-15.3Zm9.5,-15.7l.7,1.4l-8.8,15l-1.4,-.7l9.1,-15l.4,-.7Zm-.4,.7v-.7h.4l-.4,.7Z" class="g1_7" />
<path d="M510,1056.4h-1.4v-1.1l-.4,-1.1v-1.1l-.4,-1.1l-.7,-1.1l-.4,-.7l-.7,-1.1l-.7,-.8l-.8,-.7l-.7,-.4l-1.1,-.7l-1.1,-.4l-.7,-.3l-1.1,-.4h-1.1l-1.1,-.4v-1.4h1.1l1.1,.4l1.4,.3l1.1,.4l1.1,.3l1.1,.8l1.1,.7l.8,.7l.7,1.1l.7,.8l.8,1.1l.3,1l.8,1.5v1.1l.3,1.1v1.5Zm-12.4,12.4v-1.5h2.2l1.1,-.3l.7,-.4l1.1,-.4l1.1,-.7l.7,-.7l.8,-.8l.7,-.7l.7,-.7l.4,-1.1l.7,-.7l.4,-1.1v-1.1l.4,-1.1v-1.1H510v1.1l-.3,1.4v1.1l-.8,1.1l-.3,1.1l-.8,1.1l-.7,1.1l-.7,.7l-.8,.8l-1.1,.7l-1.1,.7l-1.1,.8l-1.1,.3l-1.4,.4h-2.2Zm-12.9,-12.4h1.5v1.1l.4,1.1v1.1l.3,1.1l.8,.7l.3,1.1l.8,.7l.7,.7l.7,.8l.8,.7l1.1,.7l1.1,.4l.7,.4l1.1,.3h2.6v1.5H495l-1.5,-.4l-1.1,-.3l-1.1,-.8l-1.1,-.7l-1.1,-.7l-.7,-.8l-.7,-.7l-.8,-1.1l-.7,-1.1l-.4,-1.1l-.7,-1.1v-1.1l-.4,-1.4v-1.1Zm12.9,-12.8v1.4l-1.5,.4H495l-1.1,.4l-.7,.3l-1.1,.4l-1.1,.7l-.8,.4l-.7,.7l-.7,.8l-.8,1.1l-.3,.7l-.8,1.1l-.3,1.1v1.1l-.4,1.1v1.1h-1.5v-1.5l.4,-1.1v-1.1l.7,-1.5l.4,-1l.7,-1.1l.8,-.8l.7,-1.1l.7,-.7l1.1,-.7l1.1,-.8l1.1,-.3l1.1,-.4l1.5,-.3l1.1,-.4h1.5Z" class="g1_7" />
<path d="M552.2,1057.1H532.8v-1.5h19.4v1.5Z" class="g1_7" />
<g clip-path="url(#c9_7)">
<g fill="#1F1A17" >
<use xlink:href="#f0_13" transform="matrix(12,0,0,12,554.8,1062.4)" />
<use xlink:href="#f0_18" transform="matrix(12,0,0,12,566.9,1062.4)" />
</g>
</g>
<g fill="#1F1A17" >
<use xlink:href="#f0_n" transform="matrix(6,0,0,6,580.1,1066)" />
<use xlink:href="#f0_1d" transform="matrix(12,0,0,12,301,1114.1)" />
<use xlink:href="#f0_21" transform="matrix(12,0,0,12,317.2,1114.1)" />
<use xlink:href="#f0_2g" transform="matrix(12,0,0,12,325.6,1114.1)" />
<use xlink:href="#f0_24" transform="matrix(12,0,0,12,330.7,1114.1)" />
<use xlink:href="#f0_2l" transform="matrix(12,0,0,12,339.9,1114.1)" />
<use xlink:href="#f0_28" transform="matrix(12,0,0,12,349.1,1114.1)" />
<use xlink:href="#f0_1z" transform="matrix(12,0,0,12,354.2,1114.1)" />
<use xlink:href="#f0_24" transform="matrix(12,0,0,12,362.2,1114.1)" />
<use xlink:href="#f0_28" transform="matrix(12,0,0,12,371.4,1114.1)" />
<use xlink:href="#f0_2b" transform="matrix(12,0,0,12,376.5,1114.1)" />
<use xlink:href="#f0_2e" transform="matrix(12,0,0,12,385.7,1114.1)" />
<use xlink:href="#f0_25" transform="matrix(12,0,0,12,391.6,1114.1)" />
<use xlink:href="#f0_20" transform="matrix(12,0,0,12,396.7,1114.1)" />
<use xlink:href="#f0_21" transform="matrix(12,0,0,12,405.8,1114.1)" />
<use xlink:href="#f0_13" transform="matrix(12,0,0,12,118.8,1115.9)" />
<use xlink:href="#f0_24" transform="matrix(12,0,0,12,131,1115.9)" />
<use xlink:href="#f0_28" transform="matrix(12,0,0,12,140.1,1115.9)" />
<use xlink:href="#f0_2b" transform="matrix(12,0,0,12,145.2,1115.9)" />
<use xlink:href="#f0_2e" transform="matrix(12,0,0,12,154.4,1115.9)" />
<use xlink:href="#f0_2b" transform="matrix(12,0,0,12,160.5,1115.9)" />
<use xlink:href="#f0_1y" transform="matrix(12,0,0,12,169.6,1115.9)" />
<use xlink:href="#f0_21" transform="matrix(12,0,0,12,178.8,1115.9)" />
<use xlink:href="#f0_2a" transform="matrix(12,0,0,12,186.9,1115.9)" />
<use xlink:href="#f0_2m" transform="matrix(12,0,0,12,196,1115.9)" />
<use xlink:href="#f0_21" transform="matrix(12,0,0,12,204.2,1115.9)" />
<use xlink:href="#f0_2a" transform="matrix(12,0,0,12,212.3,1115.9)" />
<use xlink:href="#f0_21" transform="matrix(12,0,0,12,221.4,1115.9)" />
<use xlink:href="#f0_1k" transform="matrix(12,0,0,12,470,1115.9)" />
<use xlink:href="#f0_2b" transform="matrix(12,0,0,12,479.9,1115.9)" />
<use xlink:href="#f0_28" transform="matrix(12,0,0,12,489.1,1115.9)" />
<use xlink:href="#f0_2h" transform="matrix(12,0,0,12,494.2,1115.9)" />
<use xlink:href="#f0_21" transform="matrix(12,0,0,12,503.3,1115.9)" />
<use xlink:href="#f0_2a" transform="matrix(12,0,0,12,511.4,1115.9)" />
<use xlink:href="#f0_21" transform="matrix(12,0,0,12,520.6,1115.9)" />
</g>
<g fill="#000000" >
<use xlink:href="#f2_r" transform="matrix(8,0,0,8,792.2,1264.3)" />
</g>
<defs>
<path d="M197,0V27c0,0,71,2,92,13c0,0,21,10,29,29c0,0,9,18,9,109V725c0,0,0,110,-8,141c0,0,-5,24,-19,35c0,0,-14,11,-33,11c0,0,-28,0,-77,-23l-11,23l246,121h25V178c0,0,0,-85,7,-106c0,0,7,-21,29,-32c0,0,23,-11,91,-13V0Z" 
id="f0_l"
transform="scale(0.001,-0.001)" />

<path d="M247,-17c0,0,-91,0,-132,30c0,0,-42,31,-42,68c0,0,0,21,17,37c0,0,18,16,44,17c0,0,19,0,34,-6c0,0,14,-7,49,-31c0,0,56,-39,113,-39c0,0,88,0,154,66c0,0,66,66,66,161c0,0,0,92,-59,171c0,0,-59,80,-163,123c0,0,-81,34,-221,39l194,393H663L605,885H301L234,750c0,0,198,-29,313,-147c0,0,100,-102,100,-239c0,0,0,-80,-33,-148c0,0,-32,-68,-81,-116c0,0,-50,-47,-110,-77c0,0,-86,-40,-176,-40Z" 
id="f0_p"
transform="scale(0.001,-0.001)" />

<path d="M191,-20c0,0,-34,0,-58,24c0,0,-24,24,-24,58c0,0,0,35,24,59c0,0,24,24,58,24c0,0,35,0,59,-24c0,0,24,-25,24,-59c0,0,0,-34,-24,-58c0,0,-25,-24,-59,-24Z" 
id="f0_i"
transform="scale(0.001,-0.001)" />

<path d="M474,-326c0,0,-112,57,-188,133c0,0,-107,108,-165,254c0,0,-58,147,-58,305c0,0,0,231,114,421c0,0,114,191,297,273v-31c0,0,-92,-51,-151,-139c0,0,-59,-88,-88,-223c0,0,-30,-135,-30,-281c0,0,0,-160,25,-290c0,0,20,-102,47,-164c0,0,28,-62,75,-120c0,0,47,-57,122,-109v-29Z" 
id="f0_c"
transform="scale(0.001,-0.001)" />

<path d="M678,393L506,802L330,393ZM11,0V27c0,0,63,12,82,30c0,0,38,35,84,145l356,832h27L912,193c0,0,43,-101,77,-132c0,0,35,-30,97,-34V0H687V27c0,0,60,3,82,21c0,0,21,17,21,41c0,0,0,33,-30,104L700,338H307L239,179c0,0,-26,-59,-26,-88c0,0,0,-23,22,-41c0,0,22,-17,95,-23V0Z" 
id="f0_11"
transform="scale(0.001,-0.001)" />

<path d="M35,-326v29c0,0,92,51,151,139c0,0,60,87,89,221c0,0,28,136,28,282c0,0,0,159,-24,290c0,0,-19,103,-47,165c0,0,-28,62,-75,119c0,0,-46,57,-122,110v31c0,0,113,-56,188,-132c0,0,107,-109,165,-255c0,0,58,-147,58,-306c0,0,0,-231,-114,-420c0,0,-113,-191,-297,-273Z" 
id="f0_d"
transform="scale(0.001,-0.001)" />

<path d="M82,-253v33c0,0,77,25,119,78c0,0,42,54,42,114c0,0,0,14,-7,23c0,0,-5,6,-11,6c0,0,-8,0,-35,-14c0,0,-14,-7,-28,-7c0,0,-37,0,-58,21C104,1,82,23,82,61c0,0,0,36,28,62c0,0,28,27,68,27c0,0,49,0,88,-43c0,0,38,-43,38,-113c0,0,0,-77,-53,-143c0,0,-53,-66,-169,-104Z" 
id="f0_g"
transform="scale(0.001,-0.001)" />

<path d="M485,53c0,0,135,0,206,61c0,0,71,60,71,150c0,0,0,59,-32,114c0,0,-33,54,-105,85c0,0,-72,32,-179,32c0,0,-46,0,-79,-2c0,0,-33,-1,-53,-5V73c0,0,86,-20,171,-20ZM455,547c0,0,109,0,164,23c0,0,55,24,84,72c0,0,29,49,29,106c0,0,0,89,-72,151c0,0,-73,63,-212,63c0,0,-74,0,-134,-16V557c0,0,27,-5,63,-8c0,0,35,-2,78,-2ZM24,0V27H63c0,0,63,0,91,41c0,0,17,26,17,111V833c0,0,0,94,-22,119c0,0,-29,33,-86,33H24v27H462c0,0,122,0,196,-18c0,0,112,-27,171,-95c0,0,59,-68,59,-157c0,0,0,-76,-46,-136c0,0,-47,-60,-137,-89c0,0,105,-23,157,-72c0,0,73,-69,73,-168c0,0,0,-75,-48,-145C887,132,839,63,756,32C756,32,673,0,502,0Z" 
id="f0_12"
transform="scale(0.001,-0.001)" />

<path d="M286,72c0,0,57,0,149,75V407c0,0,-113,-45,-145,-64c0,0,-59,-32,-85,-68c0,0,-25,-36,-25,-78c0,0,0,-54,32,-89c0,0,32,-36,74,-36ZM217,-13c0,0,-71,0,-116,48c0,0,-46,48,-46,127c0,0,0,50,22,87c0,0,31,50,106,95c0,0,76,45,252,109v26c0,0,0,102,-32,140c0,0,-32,38,-94,38c0,0,-47,0,-74,-25c0,0,-28,-25,-28,-58l1,-43c0,0,0,-34,-17,-53c0,0,-18,-18,-47,-18c0,0,-28,0,-45,19c0,0,-18,19,-18,53c0,0,0,64,66,117c0,0,65,54,184,54c0,0,91,0,149,-31c0,0,44,-23,65,-72c0,0,13,-32,13,-131V238c0,0,0,-98,4,-120c0,0,4,-22,12,-29c0,0,9,-8,20,-8c0,0,12,0,21,5c0,0,16,10,61,55V99C676,99,592,-12,516,-12c0,0,-37,0,-58,24c0,0,-22,26,-23,86C435,98,330,17,303,5c0,0,-40,-18,-86,-18Z" 
id="f0_1x"
transform="scale(0.001,-0.001)" />

<path d="M21,0V26H35c0,0,53,0,71,27c0,0,18,27,18,101V408c0,0,0,123,-5,150c0,0,-6,27,-17,37c0,0,-12,10,-31,10c0,0,-21,0,-50,-11L10,620l206,83h32V558c0,0,120,145,229,145c0,0,56,0,96,-28c0,0,40,-28,64,-92c0,0,16,-45,16,-137V154c0,0,0,-65,11,-88c0,0,8,-19,26,-29c0,0,18,-11,68,-11V0H419V26h14c0,0,47,0,66,15c0,0,20,15,27,43c0,0,3,11,3,70V434c0,0,0,93,-24,135c0,0,-24,42,-81,42c0,0,-88,0,-176,-97V154c0,0,0,-69,9,-86c0,0,10,-21,28,-31c0,0,19,-11,75,-11V0Z" 
id="f0_2a"
transform="scale(0.001,-0.001)" />

<path d="M399,62c0,0,68,0,131,68V481c0,0,-5,51,-27,93c0,0,-22,42,-59,63c0,0,-37,21,-72,21c0,0,-65,0,-117,-59c0,0,-67,-77,-67,-226c0,0,0,-151,65,-231c0,0,66,-80,146,-80ZM330,-20c0,0,-112,0,-196,93c0,0,-83,94,-83,240c0,0,0,147,92,269c0,0,93,122,238,122c0,0,90,0,149,-58V773c0,0,0,117,-6,144c0,0,-5,27,-17,37c0,0,-12,9,-30,9c0,0,-20,0,-52,-12l-9,27l204,83h33V270c0,0,0,-120,6,-146c0,0,5,-27,18,-37c0,0,12,-11,28,-11c0,0,21,0,54,13l9,-26L564,-20H530V78C530,78,480,25,432,2c0,0,-47,-22,-102,-22Z" 
id="f0_20"
transform="scale(0.001,-0.001)" />

<path d="M548,-21c0,0,-251,0,-389,185C159,164,56,303,56,490c0,0,0,152,68,278c0,0,67,127,186,197c0,0,119,69,260,69c0,0,109,0,216,-53c0,0,31,-17,44,-17c0,0,20,0,35,14c0,0,20,21,28,56h26L943,690H919c0,0,-46,155,-131,224c0,0,-86,68,-206,68c0,0,-100,0,-181,-51c0,0,-81,-52,-128,-163c0,0,-46,-112,-46,-279c0,0,0,-137,44,-238c0,0,44,-101,132,-154c0,0,88,-54,201,-54c0,0,99,0,174,42c0,0,75,42,165,167l23,-14C966,238,890,103,789,40c0,0,-102,-61,-241,-61Z" 
id="f0_13"
transform="scale(0.001,-0.001)" />

<path d="M17,0V26c0,0,52,0,77,17c0,0,19,12,26,38c0,0,4,13,4,73V419c0,0,0,119,-5,142c0,0,-4,23,-17,33c0,0,-13,11,-33,11c0,0,-23,0,-52,-11l-7,26l207,83h31V549c0,0,86,154,176,154c0,0,41,0,68,-25c0,0,27,-25,27,-58c0,0,0,-29,-20,-49c0,0,-19,-20,-46,-20c0,0,-26,0,-58,25c0,0,-33,26,-48,26c0,0,-14,0,-29,-15c0,0,-34,-30,-70,-101V159c0,0,0,-56,15,-85c0,0,9,-20,34,-34c0,0,24,-14,71,-14V0Z" 
id="f0_2e"
transform="scale(0.001,-0.001)" />

<path d="M479,469c0,0,-4,66,-16,93c0,0,-18,42,-55,65c0,0,-37,24,-78,24c0,0,-62,0,-111,-48c0,0,-48,-48,-57,-134ZM355,-20c0,0,-123,0,-211,95c0,0,-87,96,-87,258c0,0,0,175,90,273c0,0,89,98,225,98c0,0,115,0,189,-76c0,0,74,-75,74,-202H162c0,0,0,-152,74,-239c0,0,75,-86,175,-86c0,0,67,0,117,36c0,0,50,37,83,127l24,-15c0,0,-16,-102,-91,-186c0,0,-76,-83,-189,-83Z" 
id="f0_21"
transform="scale(0.001,-0.001)" />

<path d="M255,-10c0,0,-35,0,-68,18c0,0,-32,19,-48,55c0,0,-16,35,-16,109V632H15v24c0,0,41,16,84,56c0,0,43,39,77,92c0,0,17,29,48,104h23V683H407V632H247V188c0,0,0,-66,19,-90c0,0,19,-23,49,-23c0,0,24,0,47,16c0,0,23,15,36,45h29c0,0,-26,-73,-74,-110c0,0,-47,-36,-98,-36Z" 
id="f0_2g"
transform="scale(0.001,-0.001)" />

<path d="M20,0V26c0,0,45,0,71,15c0,0,15,7,24,28c0,0,9,21,9,85V773c0,0,0,117,-5,144c0,0,-6,27,-17,37c0,0,-12,9,-31,9c0,0,-16,0,-51,-12L10,978l204,83h34V561c0,0,83,91,131,116c0,0,49,26,97,26c0,0,58,0,100,-32c0,0,42,-32,62,-101c0,0,14,-47,14,-174V154c0,0,0,-65,11,-89c0,0,7,-18,25,-28c0,0,18,-11,66,-11V0H418V26h15c0,0,48,0,67,15c0,0,18,15,26,43c0,0,2,12,2,70V396c0,0,0,112,-12,147c0,0,-11,35,-36,53c0,0,-26,17,-61,17c0,0,-37,0,-76,-19c0,0,-40,-20,-95,-79V154c0,0,0,-70,8,-87c0,0,8,-17,29,-29c0,0,22,-12,74,-12V0Z" 
id="f0_24"
transform="scale(0.001,-0.001)" />

<path d="M406,32c0,0,72,0,119,60c0,0,47,59,47,205c0,0,0,181,-78,286c0,0,-53,71,-135,71c0,0,-40,0,-79,-23c0,0,-40,-24,-65,-83c0,0,-24,-58,-24,-151c0,0,0,-149,59,-257c0,0,59,-108,156,-108ZM374,-20c0,0,-154,0,-245,122c0,0,-77,104,-77,233c0,0,0,94,46,187c0,0,47,92,123,137c0,0,76,44,161,44c0,0,155,0,249,-118c0,0,80,-100,80,-231c0,0,0,-91,-44,-185C667,169,623,75,546,27c0,0,-77,-47,-172,-47Z" 
id="f0_2b"
transform="scale(0.001,-0.001)" />

<path d="M62,286V399H448V286Z" 
id="f0_h"
transform="scale(0.001,-0.001)" />

<path d="M342,-20c0,0,-116,0,-203,97c0,0,-86,98,-86,264c0,0,0,161,96,261c0,0,95,101,230,101c0,0,100,0,165,-53c0,0,65,-54,65,-111c0,0,0,-29,-18,-46c0,0,-18,-18,-51,-18c0,0,-44,0,-66,29c0,0,-13,15,-17,59c0,0,-4,45,-30,68c0,0,-26,22,-73,22c0,0,-74,0,-120,-55c0,0,-60,-73,-60,-193c0,0,0,-122,60,-216c0,0,60,-93,162,-93c0,0,73,0,131,49c0,0,41,35,80,126l22,-10C629,261,601,125,521,52c0,0,-81,-72,-179,-72Z" 
id="f0_1z"
transform="scale(0.001,-0.001)" />

<path d="M145,-328c0,0,-44,0,-73,25c0,0,-28,25,-28,58c0,0,0,31,21,50c0,0,20,19,56,19c0,0,25,0,67,-16c0,0,30,-11,38,-11c0,0,22,0,49,23c0,0,26,23,53,89L376,28L131,542c0,0,-11,24,-36,58c0,0,-19,27,-30,36c0,0,-18,12,-56,21v26H328V657H312c0,0,-33,0,-50,-15c0,0,-17,-14,-17,-36c0,0,0,-30,25,-81L437,179L589,557c0,0,12,31,12,62c0,0,0,13,-5,20c0,0,-6,8,-19,13c0,0,-12,5,-44,5v26H754V657c0,0,-27,-3,-42,-12c0,0,-15,-9,-33,-34c0,0,-7,-10,-25,-58L376,-128c0,0,-40,-99,-105,-150c0,0,-66,-50,-126,-50Z" 
id="f0_2l"
transform="scale(0.001,-0.001)" />

<path d="M58,0V26c0,0,47,0,64,10c0,0,18,10,28,32c0,0,9,23,9,86V775c0,0,0,116,-5,142c0,0,-5,27,-17,37c0,0,-11,9,-29,9c0,0,-20,0,-49,-12L46,978l204,83h34V154c0,0,0,-64,9,-85c0,0,9,-21,29,-32c0,0,19,-11,72,-11V0Z" 
id="f0_28"
transform="scale(0.001,-0.001)" />

<path d="M55,0V26c0,0,50,0,67,10c0,0,17,10,27,32c0,0,10,23,10,86V418c0,0,0,111,-6,144c0,0,-6,24,-17,33c0,0,-11,10,-30,10c0,0,-21,0,-51,-11L45,620l206,83h33V154c0,0,0,-64,9,-85c0,0,9,-22,27,-32c0,0,19,-11,67,-11V0ZM222,909c0,0,-32,0,-54,23c0,0,-22,22,-22,53c0,0,0,32,22,54c0,0,22,22,54,22c0,0,31,0,53,-22c0,0,22,-22,22,-54c0,0,0,-31,-22,-53c0,0,-22,-23,-53,-23Z" 
id="f0_25"
transform="scale(0.001,-0.001)" />

<path d="M63,0V26H93c0,0,30,0,54,15c0,0,25,15,34,41c0,0,10,25,10,99V630H58v53H191v45c0,0,0,102,33,173c0,0,32,71,100,114c0,0,68,44,152,44c0,0,79,0,145,-51c0,0,43,-33,43,-75c0,0,0,-22,-19,-42c0,0,-20,-20,-42,-20c0,0,-17,0,-36,12c0,0,-19,13,-47,53c0,0,-28,41,-51,55c0,0,-23,14,-51,14c0,0,-35,0,-58,-18c0,0,-24,-18,-35,-57c0,0,-10,-38,-10,-197V683H491V630H315V181c0,0,0,-96,21,-122c0,0,27,-33,73,-33h62V0Z" 
id="f0_22"
transform="scale(0.001,-0.001)" />

<path d="M292,-20c0,0,-57,0,-100,33c0,0,-42,33,-58,85c0,0,-17,52,-17,148V551c0,0,0,49,-10,68c0,0,-11,18,-31,29c0,0,-19,9,-68,9c-2,0,-4,0,-6,0v26H242V226c0,0,0,-95,33,-125c0,0,33,-30,80,-30c0,0,32,0,73,21c0,0,40,20,96,76V555c0,0,0,59,-21,80c0,0,-22,21,-89,22v26H647V269c0,0,0,-119,6,-145c0,0,6,-27,18,-37c0,0,12,-11,29,-11c0,0,23,0,52,13L763,63L558,-20H524V124C524,124,436,29,390,4c0,0,-47,-24,-98,-24Z" 
id="f0_2h"
transform="scale(0.001,-0.001)" />

<path d="M312,-20c0,0,-62,0,-143,22c0,0,-25,8,-40,8c0,0,-18,0,-27,-19H77V234h25c0,0,21,-105,80,-158c0,0,59,-53,132,-53c0,0,51,0,84,31c0,0,32,30,32,72c0,0,0,52,-36,87c0,0,-36,35,-144,88c0,0,-109,54,-142,97c0,0,-34,43,-34,107c0,0,0,85,58,141c0,0,58,57,150,57c0,0,40,0,97,-17c0,0,38,-11,51,-11c0,0,12,0,19,5c0,0,7,5,15,23h25V470H464c0,0,-28,110,-72,149c0,0,-45,40,-113,40c0,0,-53,0,-85,-28c0,0,-32,-27,-32,-61c0,0,0,-41,24,-71c0,0,23,-31,94,-65L389,381c0,0,152,-74,152,-194c0,0,0,-94,-71,-151c0,0,-70,-56,-158,-56Z" 
id="f0_2f"
transform="scale(0.001,-0.001)" />

<path d="M23,0V26c0,0,47,0,66,10c0,0,19,11,28,33c0,0,10,22,10,85V416c0,0,0,112,-7,145c0,0,-5,25,-16,34c0,0,-11,10,-31,10c0,0,-21,0,-50,-11L12,620l207,83h32V557c0,0,75,75,88,86c0,0,34,29,72,44c0,0,39,16,77,16c0,0,64,0,110,-37c0,0,47,-38,62,-109c0,0,77,90,130,118c0,0,53,28,109,28c0,0,54,0,96,-28c0,0,42,-28,67,-91c0,0,16,-43,16,-136V154c0,0,0,-64,10,-88c0,0,8,-16,28,-28c0,0,20,-12,65,-12V0H844V26h14c0,0,44,0,69,18c0,0,17,12,24,38c0,0,3,13,3,72V448c0,0,0,83,-20,117c0,0,-29,48,-93,48c0,0,-39,0,-79,-20c0,0,-40,-19,-97,-73l-1,-8l2,-32V154c0,0,0,-70,8,-87c0,0,7,-17,29,-29c0,0,21,-12,73,-12V0H431V26c0,0,57,0,78,14c0,0,21,13,29,40c0,0,4,13,4,74V448c0,0,0,83,-25,120c0,0,-33,48,-91,48c0,0,-40,0,-80,-22c0,0,-61,-33,-95,-74V154c0,0,0,-67,10,-87c0,0,9,-20,27,-30c0,0,18,-11,74,-11V0Z" 
id="f0_29"
transform="scale(0.001,-0.001)" />

<path d="M397,34c0,0,67,0,126,75c0,0,58,74,58,216c0,0,0,131,-58,201c0,0,-59,70,-133,70c0,0,-39,0,-79,-20c0,0,-29,-14,-75,-59V109c0,0,37,-37,78,-56c0,0,40,-19,83,-19ZM358,-20c0,0,-59,0,-121,21c0,0,-61,22,-126,65V773c0,0,0,117,-5,144c0,0,-6,27,-18,37c0,0,-12,9,-29,9c0,0,-21,0,-53,-12l-9,27l205,83h34V564c0,0,98,139,213,139c0,0,105,0,183,-90c0,0,78,-90,78,-245c0,0,0,-182,-121,-293c0,0,-103,-95,-231,-95Z" 
id="f0_1y"
transform="scale(0.001,-0.001)" />

<path d="M398,24c0,0,74,0,120,58c0,0,61,76,61,214c0,0,0,156,-69,240c0,0,-47,59,-113,59c0,0,-36,0,-71,-18c0,0,-27,-14,-88,-81V242c0,0,0,-83,6,-109c0,0,11,-43,51,-76c0,0,41,-33,103,-33ZM-4,-326v27H15c5,0,42,0,69,16c0,0,14,8,22,26c0,0,7,19,7,94V481c0,0,0,67,-6,85c0,0,-5,18,-18,27c0,0,-13,9,-36,9c0,0,-18,0,-45,-10L0,615l209,85h29V540c0,0,53,91,106,127c0,0,53,36,112,36c0,0,103,0,172,-80c0,0,84,-99,84,-257c0,0,0,-176,-102,-292c0,0,-83,-94,-210,-94c0,0,-55,0,-95,16c0,0,-30,10,-67,44V-167c0,0,0,-71,8,-90c0,0,9,-20,30,-31c0,0,21,-11,77,-11v-27Z" 
id="f0_2c"
transform="scale(0.001,-0.001)" />

<path d="M336,-20L117,554c0,0,-21,55,-42,74c0,0,-21,19,-66,29v26H296V657c0,0,-40,-3,-52,-14c0,0,-13,-12,-13,-33c0,0,0,-23,13,-56L390,162L537,481L498,581c0,0,-18,46,-47,63c0,0,-17,11,-61,13v26H716V657c0,0,-54,-2,-77,-20c0,0,-15,-12,-15,-39c0,0,0,-15,6,-30L785,177L929,554c0,0,15,40,15,65c0,0,0,14,-15,25c0,0,-14,12,-57,13v26h216V657c0,0,-65,-10,-95,-89L764,-20H733L563,415L363,-20Z" 
id="f0_2j"
transform="scale(0.001,-0.001)" />

<path d="M452,373V875L97,373ZM452,0V267H23v95l470,671h82V373H711V267H575V0Z" 
id="f0_o"
transform="scale(0.001,-0.001)" />

<path d="M394,23c0,0,80,0,129,45c0,0,48,45,48,110c0,0,0,54,-28,97c0,0,-53,79,-214,206c0,0,-62,-52,-92,-114c0,0,-30,-61,-30,-133c0,0,0,-96,53,-154c0,0,52,-57,134,-57Zm17,566c0,0,90,81,114,128c0,0,24,46,24,105c0,0,0,79,-44,123c0,0,-44,45,-121,45c0,0,-76,0,-124,-45c0,0,-48,-44,-48,-103c0,0,0,-38,20,-77c0,0,20,-39,56,-74L411,589ZM382,-17c0,0,-144,0,-225,90c0,0,-64,72,-64,158c0,0,0,67,45,133c0,0,45,66,156,146c0,0,-121,98,-156,158c0,0,-34,59,-34,124c0,0,0,98,76,169c0,0,76,72,202,72c0,0,123,0,198,-67c0,0,74,-66,74,-151c0,0,0,-57,-40,-116c0,0,-40,-59,-168,-139c0,0,132,-101,174,-159c0,0,57,-76,57,-161c0,0,0,-106,-82,-182c0,0,-81,-75,-213,-75Z" 
id="f0_s"
transform="scale(0.001,-0.001)" />

<path d="M518,-21c0,0,-124,0,-220,50c0,0,-95,52,-145,146c0,0,-50,94,-50,202c0,0,0,166,88,322c0,0,89,157,244,246c0,0,155,89,312,89c0,0,74,0,166,-34c0,0,40,-15,58,-15c0,0,18,0,31,7c0,0,14,8,45,42h28L999,707H972l-3,82c0,0,-4,45,-17,80c0,0,-14,35,-40,61c0,0,-27,26,-68,40c0,0,-41,15,-91,15c0,0,-134,0,-234,-73c0,0,-127,-94,-199,-264c0,0,-60,-140,-60,-284c0,0,0,-147,86,-234c0,0,86,-88,223,-88c0,0,104,0,185,46c0,0,81,47,151,143h35C940,231,858,100,757,39c0,0,-100,-60,-239,-60Z" 
id="f1_13"
transform="scale(0.001,-0.001)" />

<path d="M-39,0l10,26c0,0,58,2,77,11c0,0,30,13,44,34c0,0,20,31,48,128L314,811c0,0,21,75,21,114c0,0,0,20,-9,33c0,0,-9,14,-29,21c0,0,-20,7,-77,7l9,26H626l-8,-26c0,0,-1,0,-2,0c-9,0,-51,-1,-72,-11c0,0,-35,-15,-51,-39c0,0,-23,-33,-50,-124L372,560H843l72,251c0,0,21,74,21,114c0,0,0,19,-9,33c0,0,-10,14,-29,21c0,0,-20,7,-76,7l7,26h405l-9,-26h-2c-9,0,-52,-1,-74,-11c0,0,-36,-16,-53,-40c0,0,-25,-35,-50,-124L867,186c0,0,-22,-71,-22,-101c0,0,0,-27,19,-40c0,0,20,-14,95,-19L950,0H563l10,26c0,0,58,2,78,11c0,0,29,13,43,34c0,0,19,30,48,128l88,309H357L266,186c0,0,-22,-70,-22,-101c0,0,0,-27,19,-40c0,0,20,-14,94,-19L351,0Z" 
id="f1_18"
transform="scale(0.001,-0.001)" />

<path d="M467,25c0,0,68,0,133,34c0,0,65,33,136,115c0,0,89,102,149,260c0,0,61,158,61,296c0,0,0,101,-55,179c0,0,-54,78,-164,78c0,0,-74,0,-146,-37c0,0,-71,-37,-141,-121c0,0,-70,-84,-126,-219c0,0,-69,-167,-69,-316c0,0,0,-105,55,-187c0,0,54,-82,167,-82ZM441,-21c0,0,-117,0,-196,50c0,0,-79,52,-116,137c0,0,-38,85,-38,165c0,0,0,141,68,280c0,0,68,138,163,231c0,0,95,93,202,143c0,0,108,49,229,49c0,0,100,0,178,-43c0,0,77,-44,121,-129c0,0,44,-85,44,-177c0,0,0,-163,-94,-341c0,0,-94,-179,-246,-273c0,0,-153,-92,-315,-92Z" 
id="f1_1f"
transform="scale(0.001,-0.001)" />

<path d="M38,0V27H74c0,0,63,0,91,37c0,0,18,24,18,115V833c0,0,0,77,-10,102c0,0,-7,18,-30,32c0,0,-33,18,-69,18H38v27H470V985H434c0,0,-62,0,-90,-37c0,0,-18,-24,-18,-115V179c0,0,0,-77,9,-102c0,0,8,-18,31,-32c0,0,32,-18,68,-18h36V0Z" 
id="f0_19"
transform="scale(0.001,-0.001)" />

<path d="M411,-239c0,0,134,0,198,48c0,0,64,47,64,100c0,0,0,39,-38,55c0,0,-39,16,-154,19c0,0,-167,5,-258,17c0,0,-35,-37,-53,-70c0,0,-17,-32,-17,-60c0,0,0,-36,43,-62c0,0,74,-47,215,-47ZM380,257c0,0,56,0,93,43c0,0,36,42,36,133c0,0,0,118,-51,185c0,0,-38,49,-98,49c0,0,-55,0,-92,-44c0,0,-37,-44,-37,-135c0,0,0,-117,50,-182c0,0,39,-49,99,-49ZM345,-328c0,0,-144,0,-243,64c0,0,-56,38,-56,78c0,0,0,18,8,36c0,0,13,27,52,76c0,0,5,7,76,80c0,0,-39,23,-55,41c0,0,-16,19,-16,42c0,0,0,26,22,61c0,0,21,35,98,100c0,0,-63,30,-97,85c0,0,-33,55,-33,121c0,0,0,101,76,174c0,0,77,73,196,73c0,0,98,0,170,-48H688c0,0,32,0,37,-2c0,0,6,-2,8,-6c0,0,4,-7,4,-24c0,0,0,-20,-4,-27c0,0,-2,-4,-7,-6c0,0,-6,-2,-38,-2H599c0,0,41,-54,41,-137c0,0,0,-96,-73,-163c0,0,-73,-68,-196,-68c0,0,-51,0,-104,15c0,0,-33,-28,-44,-49c0,0,-12,-22,-12,-37c0,0,0,-12,13,-24c0,0,12,-12,48,-17c0,0,21,-4,104,-6c0,0,154,-4,199,-11c0,0,70,-10,111,-51c0,0,42,-41,42,-102c0,0,0,-84,-79,-158c0,0,-117,-108,-304,-108Z" 
id="f0_23"
transform="scale(0.001,-0.001)" />

<path d="M376,-20L133,556c0,0,-17,41,-31,58c0,0,-15,18,-39,30c0,0,-12,7,-50,13v26H335V657H314c0,0,-29,0,-44,-14c0,0,-16,-14,-15,-38c0,0,-1,-26,15,-62L429,165L588,557c0,0,17,42,17,64c0,0,0,10,-6,17c0,0,-8,11,-21,15c0,0,-13,4,-52,4v26H750V657c0,0,-39,-3,-54,-16c0,0,-26,-23,-47,-76L409,-20Z" 
id="f0_2i"
transform="scale(0.001,-0.001)" />

<path d="M253,0V27h36c0,0,64,0,91,39c0,0,16,24,16,109V948H274c0,0,-71,0,-100,-10c0,0,-39,-14,-67,-54c0,0,-27,-41,-33,-109H46l12,237H883L894,775H865c0,0,-8,62,-22,89c0,0,-23,43,-61,64c0,0,-39,20,-101,20H539V175c0,0,0,-93,20,-116c0,0,28,-32,87,-32h36V0Z" 
id="f0_1k"
transform="scale(0.001,-0.001)" />

<path d="M177,647v35c0,0,77,46,105,86c0,0,19,28,19,68c0,0,0,23,-8,34c0,0,-9,11,-19,11c0,0,-9,0,-22,-5c0,0,-19,-7,-32,-7c0,0,-30,0,-53,23c0,0,-23,22,-23,56c0,0,0,37,23,58c0,0,31,28,75,28c0,0,50,0,90,-42c0,0,40,-42,40,-105c0,0,0,-88,-67,-160c0,0,-44,-48,-128,-80Z" 
id="f0_53"
transform="scale(0.001,-0.001)" />

<path d="M20,0V28L669,951H345c0,0,-81,0,-117,-17c0,0,-36,-18,-55,-51c0,0,-19,-33,-35,-124H110l20,253H880L215,62H629c0,0,96,0,147,41c0,0,51,42,91,170l24,-5L843,0Z" 
id="f0_1q"
transform="scale(0.001,-0.001)" />

<path d="M26,0V27H62c0,0,63,0,91,37c0,0,18,24,18,115V833c0,0,0,77,-10,102c0,0,-7,18,-30,32c0,0,-33,18,-69,18H26v27H459V985H422c0,0,-35,0,-67,-17c0,0,-23,-12,-32,-36c0,0,-9,-25,-9,-99V542H784V833c0,0,0,77,-10,102c0,0,-8,18,-31,32c0,0,-33,18,-68,18H639v27h432V985h-36c0,0,-36,0,-68,-17c0,0,-24,-12,-32,-36c0,0,-9,-25,-9,-99V179c0,0,0,-77,10,-102c0,0,7,-18,31,-32c0,0,32,-18,68,-18h36V0H639V27h36c0,0,62,0,90,37c0,0,19,24,19,115V487H314V179c0,0,0,-77,9,-102c0,0,8,-18,32,-32c0,0,32,-18,67,-18h37V0Z" 
id="f0_18"
transform="scale(0.001,-0.001)" />

<path d="M2,-20L369,1061h59L62,-20Z" 
id="f0_j"
transform="scale(0.001,-0.001)" />

<path d="M473,53c0,0,173,0,287,121c0,0,114,122,114,330c0,0,0,210,-114,330c0,0,-114,121,-293,121c0,0,-67,0,-153,-21V74c0,0,95,-21,159,-21ZM26,0V27H64c0,0,64,0,91,41c0,0,16,25,16,111V833c0,0,0,95,-21,119c0,0,-29,33,-86,33H26v27H438c0,0,226,0,345,-51c0,0,118,-52,190,-172c0,0,72,-120,72,-278c0,0,0,-211,-129,-353C916,158,773,0,478,0Z" 
id="f0_14"
transform="scale(0.001,-0.001)" />

<path d="M474,-21L174,817c0,0,-34,94,-42,112c0,0,-15,28,-41,42c0,0,-26,14,-70,14v27H395V985H377c0,0,-40,0,-60,-18c0,0,-21,-18,-21,-44c0,0,0,-26,33,-120L528,235L696,718l-30,85l-24,68c0,0,-16,37,-35,66c0,0,-10,14,-24,24c0,0,-19,13,-38,19c0,0,-14,5,-44,5v27H894V985H867c0,0,-41,0,-61,-18c0,0,-19,-18,-19,-49c0,0,0,-38,33,-133L1015,235l193,557c0,0,32,93,32,129c0,0,0,17,-10,32c0,0,-11,15,-28,21c0,0,-28,11,-74,11v27h302V985c0,0,-39,0,-64,-15c0,0,-25,-14,-47,-53c0,0,-15,-26,-47,-124L990,-21H960L729,624L501,-21Z" 
id="f0_1n"
transform="scale(0.001,-0.001)" />

<path d="M107,-21V325h27c0,0,19,-109,52,-163c0,0,33,-54,100,-90c0,0,68,-36,148,-36c0,0,93,0,148,49c0,0,54,50,54,117c0,0,0,37,-21,75c0,0,-20,38,-64,71c0,0,-29,22,-159,95c0,0,-130,72,-185,115c0,0,-55,44,-83,96c0,0,-28,52,-28,114c0,0,0,109,83,188c0,0,84,78,213,78c0,0,81,0,171,-39c0,0,42,-19,59,-19c0,0,20,0,32,11c0,0,12,12,20,47h27V684H674c0,0,-14,101,-48,161c0,0,-35,60,-100,95c0,0,-64,35,-133,35c0,0,-77,0,-128,-47c0,0,-51,-48,-51,-108c0,0,0,-46,32,-84c0,0,47,-56,221,-149c0,0,142,-76,194,-117c0,0,51,-41,80,-96c0,0,28,-55,28,-115c0,0,0,-115,-90,-198c0,0,-89,-82,-229,-82c0,0,-44,0,-83,6c0,0,-23,4,-95,27c0,0,-73,24,-93,24c0,0,-18,0,-29,-11c0,0,-11,-12,-16,-46Z" 
id="f0_1j"
transform="scale(0.001,-0.001)" />

<path d="M545,30c0,0,143,0,236,111c0,0,93,111,93,351c0,0,0,259,-103,386c0,0,-82,102,-226,102c0,0,-136,0,-218,-101C327,879,225,754,225,512c0,0,0,-247,106,-380c0,0,81,-102,214,-102Zm2,-51c0,0,-209,0,-351,147C196,126,54,274,54,510c0,0,0,240,164,393c0,0,142,131,341,131c0,0,197,0,341,-149c0,0,145,-149,145,-373c0,0,0,-230,-146,-382C899,130,754,-21,547,-21Z" 
id="f0_1f"
transform="scale(0.001,-0.001)" />

<path d="M238,-17c0,0,-103,0,-139,25C99,8,62,33,62,62c0,0,0,22,17,38c0,0,18,16,42,16c0,0,19,0,38,-6c0,0,13,-3,58,-27c0,0,45,-23,62,-28c0,0,27,-8,59,-8c0,0,76,0,132,59c0,0,56,59,56,140c0,0,0,59,-26,115c0,0,-19,41,-42,63c0,0,-32,30,-88,54c0,0,-56,25,-114,25H232v22c0,0,59,8,118,42c0,0,59,35,86,85c0,0,27,49,27,108c0,0,0,76,-48,124c0,0,-48,47,-120,47c0,0,-116,0,-193,-124L77,819c0,0,44,102,110,158c0,0,66,56,164,56c0,0,122,0,187,-80c0,0,49,-58,49,-126c0,0,0,-110,-139,-228c0,0,93,-36,141,-104c0,0,48,-68,48,-160c0,0,0,-131,-84,-227C553,108,444,-17,238,-17Z" 
id="f0_n"
transform="scale(0.001,-0.001)" />

<path d="M33,0V27c0,0,264,241,371,393c0,0,108,152,108,278c0,0,0,96,-59,158c0,0,-59,62,-141,62c0,0,-75,0,-134,-43c0,0,-59,-44,-88,-128H63c0,0,18,138,95,212c0,0,77,74,193,74c0,0,123,0,205,-80c0,0,83,-79,83,-186c0,0,0,-77,-36,-154c0,0,-55,-121,-179,-256C424,357,238,154,191,112H455c0,0,81,0,114,6c0,0,32,6,58,25c0,0,27,18,46,52h27L630,0Z" 
id="f0_m"
transform="scale(0.001,-0.001)" />

<path d="M-13,338v55H1541V338Z" 
id="f0_4z"
transform="scale(0.001,-0.001)" />

<path d="M911,-16L244,799V175c0,0,0,-93,21,-116c0,0,28,-32,86,-32h36V0H36V27H71c0,0,65,0,92,39c0,0,16,24,16,109V879c0,0,-44,52,-67,68c0,0,-23,17,-67,31c0,0,-21,7,-64,7v27H253L873,253V837c0,0,0,93,-21,116c0,0,-28,32,-87,32H730v27h351V985h-36c0,0,-64,0,-91,-39c0,0,-16,-24,-16,-109V-16Z" 
id="f0_1e"
transform="scale(0.001,-0.001)" />

<path d="M328,-20c0,0,-34,0,-58,24c0,0,-25,24,-25,58c0,0,0,35,25,59c0,0,24,24,58,24c0,0,34,0,59,-24c0,0,24,-24,24,-59c0,0,0,-34,-25,-58c0,0,-24,-24,-58,-24ZM308,238c0,0,5,94,23,155c0,0,18,62,76,172c0,0,44,84,58,129c0,0,13,46,13,92c0,0,0,95,-50,150c0,0,-50,56,-123,56c0,0,-65,0,-102,-30c0,0,-38,-31,-38,-67c0,0,0,-27,23,-67c0,0,22,-41,22,-62c0,0,0,-26,-17,-45c0,0,-17,-18,-42,-18c0,0,-31,0,-57,31c0,0,-26,31,-26,86c0,0,0,85,73,150c0,0,72,64,196,64c0,0,153,0,225,-89c0,0,54,-66,54,-146c0,0,0,-54,-24,-112c0,0,-25,-57,-92,-135C500,552,391,430,367,378c0,0,-24,-51,-29,-140Z" 
id="f0_z"
transform="scale(0.001,-0.001)" />

<path d="M13,0V26c0,0,52,0,78,13c0,0,16,8,24,25c0,0,11,25,11,86V773c0,0,0,118,-5,145c0,0,-5,26,-17,36c0,0,-12,10,-32,10c0,0,-15,0,-47,-13L13,978l203,83h34V381L424,540c0,0,55,50,64,64c0,0,6,9,6,18c0,0,0,15,-12,26c0,0,-13,11,-41,12v23H738V660c0,0,-61,-2,-102,-19c0,0,-40,-17,-89,-62L372,418L547,196c0,0,73,-92,98,-117c0,0,36,-35,63,-45c0,0,18,-8,65,-8V0H441V26c0,0,28,1,38,9c0,0,10,8,10,22c0,0,0,17,-29,56L250,381V154c0,0,0,-67,10,-88c0,0,9,-21,26,-30c0,0,17,-9,75,-10V0Z" 
id="f0_27"
transform="scale(0.001,-0.001)" />

<path d="M405,24c0,0,65,0,116,62c0,0,51,61,51,174c0,0,0,128,-50,221c0,0,-51,93,-144,93c0,0,-29,0,-61,-12c0,0,-33,-12,-96,-51c0,0,-14,-101,-14,-163c0,0,0,-72,27,-155c0,0,26,-84,79,-134c0,0,38,-35,92,-35ZM384,-17c0,0,-104,0,-177,68C207,51,66,185,66,397c0,0,0,136,54,258c0,0,54,122,156,217c0,0,101,95,193,128c0,0,93,33,172,33h44v-28c0,0,-99,-10,-161,-39c0,0,-62,-29,-123,-90c0,0,-61,-60,-101,-135c0,0,-39,-74,-66,-176c0,0,107,73,215,73c0,0,104,0,180,-83c0,0,76,-84,76,-215c0,0,0,-126,-77,-231c0,0,-92,-126,-244,-126Z" 
id="f0_q"
transform="scale(0.001,-0.001)" />

<path d="M387,441c0,0,-27,0,-50,22c0,0,-15,15,-15,50c0,0,0,35,17,86c0,0,17,50,21,69c0,0,5,19,9,57c0,0,-44,-30,-77,-65c0,0,-55,-62,-82,-78c0,0,-19,-12,-40,-12c0,0,-26,0,-44,17c0,0,-17,17,-17,38c0,0,0,19,15,40c0,0,15,20,46,34c0,0,20,9,91,23c0,0,47,10,90,29c0,0,-40,20,-96,31c0,0,-91,20,-113,35c0,0,-33,25,-33,60c0,0,0,20,16,37c0,0,17,17,39,17c0,0,25,0,53,-16c0,0,27,-15,68,-63c0,0,41,-47,84,-73c0,0,-3,51,-21,102c0,0,-26,73,-26,101c0,0,0,39,19,59c0,0,18,20,45,20c0,0,23,0,40,-20c0,0,17,-21,17,-58c0,0,0,-34,-20,-94c0,0,-20,-60,-24,-111c0,0,41,26,74,64c0,0,51,59,75,73c0,0,25,14,50,14c0,0,25,0,41,-17c0,0,17,-17,17,-40c0,0,0,-27,-24,-49c0,0,-25,-22,-123,-43c0,0,-58,-13,-96,-29c0,0,39,-21,95,-31c0,0,90,-16,118,-41c0,0,28,-25,28,-54c0,0,0,-22,-17,-39c0,0,-16,-16,-39,-16c0,0,-22,0,-49,16c0,0,-28,15,-74,70c0,0,-30,36,-76,69c0,0,1,-43,17,-93c0,0,27,-88,27,-120c0,0,0,-30,-18,-50c0,0,-18,-21,-38,-21Z" 
id="f0_e"
transform="scale(0.001,-0.001)" />

<path d="M30,0V27L485,632H260c0,0,-72,0,-94,-10c0,0,-22,-9,-36,-35c0,0,-20,-37,-23,-92H76l5,188H654V656L196,51H445c0,0,79,0,106,13c0,0,28,13,45,46c0,0,12,23,21,100h25L634,0Z" 
id="f0_2m"
transform="scale(0.001,-0.001)" />

<path d="M399,105V477H27v62H399V909h60V539H831V477H459V105Z" 
id="f0_f"
transform="scale(0.001,-0.001)" />

<path d="M-12,338v55H777V338Z" 
id="f0_4y"
transform="scale(0.001,-0.001)" />

<path d="M25,0V27H61c0,0,64,0,91,39c0,0,16,24,16,109V837c0,0,0,67,-15,97c0,0,-10,22,-38,36c0,0,-28,15,-90,15v27H312L678,220l363,792h285V985h-35c0,0,-64,0,-91,-39c0,0,-17,-24,-17,-109V175c0,0,0,-93,21,-116c0,0,28,-32,87,-32h35V0H898V27h36c0,0,64,0,90,39c0,0,17,24,17,109V852L649,0H625L234,852V175c0,0,0,-93,20,-116c0,0,27,-32,87,-32h35V0Z" 
id="f0_1d"
transform="scale(0.001,-0.001)" />

<path d="M225,0c0,0,2,129,51,312c0,0,48,183,139,352c0,0,91,170,193,286H72v129H780V975C780,975,676,864,573,680C573,680,470,495,414,301C414,301,374,163,363,0Z" 
id="f2_r"
transform="scale(0.001,-0.001)" />


</defs>
</svg>