<?xml version="1.0" encoding="UTF-8" standalone="no"?>
<!DOCTYPE svg PUBLIC "-//W3C//DTD SVG 1.1//EN"
"http://www.w3.org/Graphics/SVG/1.1/DTD/svg11.dtd">
<svg viewBox="0 0 909 1286" version="1.1" xmlns="http://www.w3.org/2000/svg" xmlns:xlink="http://www.w3.org/1999/xlink">
<defs>
<clipPath id="c0_56"><path d="M275.6,592.3V569.7h185v22.6Z" /></clipPath>
<clipPath id="c1_56"><path d="M275.6,605V563.8h185V605Z" /></clipPath>
<clipPath id="c2_56"><path d="M279.9,581.8v-18H454.8v18Z" /></clipPath>
</defs>
<g fill="#000000" >
<use xlink:href="#f0_e" transform="matrix(12,0,0,12,449,1140.7)" />
<use xlink:href="#f0_a" transform="matrix(12,0,0,12,86.4,1140.7)" />
<use xlink:href="#f0_b" transform="matrix(12,0,0,12,96.5,1140.7)" />
<use xlink:href="#f0_4" transform="matrix(12,0,0,12,106.6,1140.7)" />
<use xlink:href="#f0_6" transform="matrix(12,0,0,12,111.2,1140.7)" />
<use xlink:href="#f0_4" transform="matrix(12,0,0,12,121.3,1140.7)" />
<use xlink:href="#f0_f" transform="matrix(12,0,0,12,126,1140.7)" />
<use xlink:href="#f0_i" transform="matrix(12,0,0,12,766.5,1140.7)" />
<use xlink:href="#f0_3" transform="matrix(12,0,0,12,780.1,1140.7)" />
<use xlink:href="#f0_l" transform="matrix(12,0,0,12,784.9,1140.7)" />
<use xlink:href="#f0_3" transform="matrix(12,0,0,12,797.8,1140.7)" />
<use xlink:href="#f0_h" transform="matrix(12,0,0,12,802.5,1140.7)" />
<use xlink:href="#f0_3" transform="matrix(12,0,0,12,817.5,1140.7)" />
<use xlink:href="#f1_15" transform="matrix(12,0,0,12,129.7,162.2)" />
<use xlink:href="#f1_1r" transform="matrix(12,0,0,12,147.7,162.2)" />
<use xlink:href="#f1_1i" transform="matrix(12,0,0,12,155.8,162.2)" />
<use xlink:href="#f1_1t" transform="matrix(12,0,0,12,161.6,162.2)" />
<use xlink:href="#f1_1e" transform="matrix(12,0,0,12,168.8,162.2)" />
<use xlink:href="#f1_1t" transform="matrix(12,0,0,12,183.2,162.2)" />
<use xlink:href="#f1_1h" transform="matrix(12,0,0,12,190.4,162.2)" />
<use xlink:href="#f1_1e" transform="matrix(12,0,0,12,201.6,162.2)" />
<use xlink:href="#f1_1f" transform="matrix(12,0,0,12,216,162.2)" />
<use xlink:href="#f1_1i" transform="matrix(12,0,0,12,222.2,162.2)" />
<use xlink:href="#f1_1n" transform="matrix(12,0,0,12,227.9,162.2)" />
<use xlink:href="#f1_1a" transform="matrix(12,0,0,12,239.1,162.2)" />
<use xlink:href="#f1_1l" transform="matrix(12,0,0,12,249.3,162.2)" />
<use xlink:href="#f1_1p" transform="matrix(12,0,0,12,260.4,162.2)" />
<use xlink:href="#f1_1r" transform="matrix(12,0,0,12,270.9,162.2)" />
<use xlink:href="#f1_1o" transform="matrix(12,0,0,12,279.1,162.2)" />
<use xlink:href="#f1_1d" transform="matrix(12,0,0,12,288.2,162.2)" />
<use xlink:href="#f1_1u" transform="matrix(12,0,0,12,298.8,162.2)" />
<use xlink:href="#f1_1c" transform="matrix(12,0,0,12,309.9,162.2)" />
<use xlink:href="#f1_1t" transform="matrix(12,0,0,12,318.1,162.2)" />
<use xlink:href="#f1_3" transform="matrix(12,0,0,12,330.5,162.2)" />
<use xlink:href="#f1_1s" transform="matrix(12,0,0,12,336.6,162.2)" />
<use xlink:href="#f1_4" transform="matrix(12,0,0,12,345.1,162.2)" />
<use xlink:href="#f1_1i" transform="matrix(12,0,0,12,356.5,162.2)" />
<use xlink:href="#f1_1n" transform="matrix(12,0,0,12,362.3,162.2)" />
<use xlink:href="#f1_1e" transform="matrix(12,0,0,12,378.7,162.2)" />
<use xlink:href="#f1_1a" transform="matrix(12,0,0,12,387.9,162.2)" />
<use xlink:href="#f1_1c" transform="matrix(12,0,0,12,398.1,162.2)" />
<use xlink:href="#f1_1h" transform="matrix(12,0,0,12,406.3,162.2)" />
<use xlink:href="#f1_1o" transform="matrix(12,0,0,12,422.7,162.2)" />
<use xlink:href="#f1_1f" transform="matrix(12,0,0,12,431.9,162.2)" />
<use xlink:href="#f1_1t" transform="matrix(12,0,0,12,443.3,162.2)" />
<use xlink:href="#f1_1h" transform="matrix(12,0,0,12,450.4,162.2)" />
<use xlink:href="#f1_1e" transform="matrix(12,0,0,12,461.6,162.2)" />
<use xlink:href="#f1_1f" transform="matrix(12,0,0,12,476,162.2)" />
<use xlink:href="#f1_1o" transform="matrix(12,0,0,12,482.2,162.2)" />
<use xlink:href="#f1_1l" transform="matrix(12,0,0,12,491.3,162.2)" />
<use xlink:href="#f1_1l" transform="matrix(12,0,0,12,497.1,162.2)" />
<use xlink:href="#f1_1o" transform="matrix(12,0,0,12,502.9,162.2)" />
<use xlink:href="#f1_1w" transform="matrix(12,0,0,12,512.1,162.2)" />
<use xlink:href="#f1_1i" transform="matrix(12,0,0,12,526.4,162.2)" />
<use xlink:href="#f1_1n" transform="matrix(12,0,0,12,532.2,162.2)" />
<use xlink:href="#f1_1g" transform="matrix(12,0,0,12,543.3,162.2)" />
<use xlink:href="#f1_1r" transform="matrix(12,0,0,12,558.5,162.2)" />
<use xlink:href="#f1_1e" transform="matrix(12,0,0,12,566.6,162.2)" />
<use xlink:href="#f1_1a" transform="matrix(12,0,0,12,575.8,162.2)" />
<use xlink:href="#f1_1c" transform="matrix(12,0,0,12,586,162.2)" />
<use xlink:href="#f1_1t" transform="matrix(12,0,0,12,594.1,162.2)" />
<use xlink:href="#f1_1i" transform="matrix(12,0,0,12,601.3,162.2)" />
<use xlink:href="#f1_1o" transform="matrix(12,0,0,12,607.1,162.2)" />
<use xlink:href="#f1_1n" transform="matrix(12,0,0,12,616.3,162.2)" />
<use xlink:href="#f1_1s" transform="matrix(12,0,0,12,627.4,162.2)" />
<use xlink:href="#f1_j" transform="matrix(12,0,0,12,641.2,162.2)" />
<use xlink:href="#f1_3" transform="matrix(12,0,0,12,129.7,299)" />
<use xlink:href="#f1_1a" transform="matrix(12,0,0,12,135.4,299)" />
<use xlink:href="#f1_4" transform="matrix(12,0,0,12,145.3,299)" />
</g>
<image preserveAspectRatio="none" x="173" y="226" width="310" height="132" xlink:href="img/1.png" />
<g fill="#000000" >
<use xlink:href="#f1_3" transform="matrix(12,0,0,12,129.7,453.9)" />
<use xlink:href="#f1_1b" transform="matrix(12,0,0,12,135.4,453.9)" />
<use xlink:href="#f1_4" transform="matrix(12,0,0,12,145.3,453.9)" />
</g>
<image preserveAspectRatio="none" x="173" y="430" width="331" height="81" xlink:href="img/2.png" />
<g fill="#000000" >
<use xlink:href="#f1_3" transform="matrix(12,0,0,12,129.7,588.4)" />
<use xlink:href="#f1_1c" transform="matrix(12,0,0,12,135.4,588.4)" />
<use xlink:href="#f1_4" transform="matrix(12,0,0,12,143,588.4)" />
<use xlink:href="#f1_n" transform="matrix(12,0,0,12,173,588.4)" />
<use xlink:href="#f2_9" transform="matrix(9.6,0,0,9.6,186.3,594.4)" />
<use xlink:href="#f1_s" transform="matrix(12,0,0,12,194.3,588.4)" />
<use xlink:href="#f2_8" transform="matrix(9.6,0,0,9.6,209.6,594.4)" />
<use xlink:href="#f3_3" transform="matrix(12,0,0,12,217.7,588.4)" />
<use xlink:href="#f1_y" transform="matrix(12,0,0,12,236.1,588.4)" />
<use xlink:href="#f1_s" transform="matrix(12,0,0,12,250.3,588.4)" />
</g>
<g clip-path="url(#c0_56)">
<g fill="#000000" >
<use xlink:href="#f4_1mh" transform="matrix(12,0,0,12,439.5,588.2)" />
</g>
</g>
<g clip-path="url(#c1_56)">
<g fill="#000000" >
<use xlink:href="#f5_2" transform="matrix(8,0,0,8,354.2,593.1)" />
<use xlink:href="#f5_2" transform="matrix(9,0,0,9,353.6,578.5)" />
<use xlink:href="#f6_n" transform="matrix(8,0,0,8,342.4,582.3)" />
<use xlink:href="#f6_18" transform="matrix(9,0,0,9,344.9,599.3)" />
</g>
</g>
<g clip-path="url(#c2_56)">
<g fill="#000000" >
<use xlink:href="#f6_c" transform="matrix(10,0,0,10,284.2,578.5)" />
<use xlink:href="#f6_25" transform="matrix(10,0,0,10,289.1,578.5)" />
<use xlink:href="#f6_d" transform="matrix(10,0,0,10,293.9,578.5)" />
<use xlink:href="#f6_13" transform="matrix(10,0,0,10,302.8,578.5)" />
<use xlink:href="#f6_18" transform="matrix(10,0,0,10,313.7,578.5)" />
<use xlink:href="#f6_13" transform="matrix(10,0,0,10,326.4,578.5)" />
<use xlink:href="#f6_28" transform="matrix(10,0,0,10,337.4,578.5)" />
<use xlink:href="#f6_1x" transform="matrix(10,0,0,10,369.9,578.5)" />
<use xlink:href="#f6_2d" transform="matrix(10,0,0,10,378.4,578.5)" />
<use xlink:href="#f6_i" transform="matrix(10,0,0,10,387,578.5)" />
<use xlink:href="#f6_1e" transform="matrix(10,0,0,10,391.3,578.5)" />
<use xlink:href="#f6_1x" transform="matrix(10,0,0,10,403.6,578.5)" />
<use xlink:href="#f6_1f" transform="matrix(10,0,0,10,412.2,578.5)" />
<use xlink:href="#f6_18" transform="matrix(10,0,0,10,424.2,578.5)" />
</g>
</g>
<g clip-path="url(#c1_56)">
<g fill="#000000" >
<use xlink:href="#f6_c" transform="matrix(10,0,0,10,286.7,599.3)" />
<use xlink:href="#f6_25" transform="matrix(10,0,0,10,291.7,599.3)" />
<use xlink:href="#f6_25" transform="matrix(10,0,0,10,296.5,599.3)" />
<use xlink:href="#f6_d" transform="matrix(10,0,0,10,301.3,599.3)" />
</g>
</g>
<g fill="#000000" >
<use xlink:href="#f0_6" transform="matrix(12,0,0,12,86.4,664.7)" />
<use xlink:href="#f0_d" transform="matrix(12,0,0,12,96.4,664.7)" />
<use xlink:href="#f0_3" transform="matrix(12,0,0,12,106.5,664.7)" />
<use xlink:href="#f7_23" transform="matrix(16,0,0,16,129.7,664.7)" />
<use xlink:href="#f7_1t" transform="matrix(16,0,0,16,135,664.7)" />
<use xlink:href="#f7_q" transform="matrix(16,0,0,16,145.1,664.7)" />
<use xlink:href="#f7_1t" transform="matrix(16,0,0,16,152.1,664.7)" />
<use xlink:href="#f7_14" transform="matrix(16,0,0,16,171.7,664.7)" />
<use xlink:href="#f7_28" transform="matrix(16,0,0,16,181.6,664.7)" />
<use xlink:href="#f7_14" transform="matrix(16,0,0,16,196.1,664.7)" />
<use xlink:href="#f7_22" transform="matrix(16,0,0,16,210.9,664.7)" />
<use xlink:href="#f7_1u" transform="matrix(16,0,0,16,215.3,664.7)" />
<use xlink:href="#f7_k" transform="matrix(16,0,0,16,222.9,664.7)" />
<use xlink:href="#f7_22" transform="matrix(16,0,0,16,231.4,664.7)" />
<use xlink:href="#f7_22" transform="matrix(16,0,0,16,235.8,664.7)" />
<use xlink:href="#f7_28" transform="matrix(16,0,0,16,240.2,664.7)" />
<use xlink:href="#f7_13" transform="matrix(16,0,0,16,240.5,664.7)" />
<use xlink:href="#f7_14" transform="matrix(16,0,0,16,250.2,664.7)" />
<use xlink:href="#f7_22" transform="matrix(16,0,0,16,265,664.7)" />
<use xlink:href="#f7_28" transform="matrix(16,0,0,16,269.4,664.7)" />
<use xlink:href="#f7_1l" transform="matrix(16,0,0,16,279.1,664.7)" />
<use xlink:href="#f7_24" transform="matrix(16,0,0,16,289,664.7)" />
<use xlink:href="#f7_23" transform="matrix(16,0,0,16,294.3,664.7)" />
<use xlink:href="#f7_1a" transform="matrix(16,0,0,16,299.6,664.7)" />
<use xlink:href="#f7_12" transform="matrix(16,0,0,16,312.7,664.7)" />
<use xlink:href="#f7_1o" transform="matrix(16,0,0,16,332.8,664.7)" />
<use xlink:href="#f0_8" transform="matrix(12,0,0,12,812.3,664.7)" />
<use xlink:href="#f1_3" transform="matrix(12,0,0,12,129.7,727.5)" />
<use xlink:href="#f1_1i" transform="matrix(12,0,0,12,135.4,727.5)" />
<use xlink:href="#f1_4" transform="matrix(12,0,0,12,140.7,727.5)" />
<use xlink:href="#f7_12" transform="matrix(16,0,0,16,173,727.5)" />
<use xlink:href="#f7_28" transform="matrix(16,0,0,16,183.6,727.5)" />
<use xlink:href="#f7_23" transform="matrix(16,0,0,16,183.9,727.5)" />
<use xlink:href="#f7_1t" transform="matrix(16,0,0,16,189.2,727.5)" />
<use xlink:href="#f7_1w" transform="matrix(16,0,0,16,199.3,727.5)" />
<use xlink:href="#f7_24" transform="matrix(16,0,0,16,213.1,727.5)" />
<use xlink:href="#f7_1t" transform="matrix(16,0,0,16,218.4,727.5)" />
<use xlink:href="#f7_1g" transform="matrix(16,0,0,16,237.8,727.5)" />
<use xlink:href="#f7_2d" transform="matrix(16,0,0,16,247.8,727.5)" />
<use xlink:href="#f7_22" transform="matrix(16,0,0,16,252.8,727.5)" />
<use xlink:href="#f7_10" transform="matrix(16,0,0,16,257.3,727.5)" />
<use xlink:href="#f7_1f" transform="matrix(16,0,0,16,265.7,727.5)" />
<use xlink:href="#f7_28" transform="matrix(16,0,0,16,276.9,727.5)" />
<use xlink:href="#f7_1w" transform="matrix(16,0,0,16,278.2,727.5)" />
<use xlink:href="#f7_6" transform="matrix(16,0,0,16,292.1,727.5)" />
<use xlink:href="#f7_14" transform="matrix(16,0,0,16,302.9,727.5)" />
<use xlink:href="#f7_29" transform="matrix(16,0,0,16,312.9,727.5)" />
<use xlink:href="#f7_2d" transform="matrix(16,0,0,16,313.1,727.5)" />
<use xlink:href="#f7_o" transform="matrix(16,0,0,16,318.2,727.5)" />
<use xlink:href="#f7_1d" transform="matrix(16,0,0,16,327.8,727.5)" />
<use xlink:href="#f7_z" transform="matrix(16,0,0,16,346.9,727.5)" />
<use xlink:href="#f7_23" transform="matrix(16,0,0,16,361.8,727.5)" />
<use xlink:href="#f7_1q" transform="matrix(16,0,0,16,367.1,727.5)" />
<use xlink:href="#f7_23" transform="matrix(16,0,0,16,379.6,727.5)" />
<use xlink:href="#f7_14" transform="matrix(16,0,0,16,384.9,727.5)" />
<use xlink:href="#f7_2d" transform="matrix(16,0,0,16,394.9,727.5)" />
<use xlink:href="#f7_1s" transform="matrix(16,0,0,16,399.9,727.5)" />
<use xlink:href="#f7_22" transform="matrix(16,0,0,16,411.2,727.5)" />
<use xlink:href="#f7_1t" transform="matrix(16,0,0,16,424.8,727.5)" />
<use xlink:href="#f7_21" transform="matrix(16,0,0,16,435,727.5)" />
<use xlink:href="#f7_24" transform="matrix(16,0,0,16,444.6,727.5)" />
<use xlink:href="#f7_13" transform="matrix(16,0,0,16,449.8,727.5)" />
<use xlink:href="#f7_1l" transform="matrix(16,0,0,16,459.3,727.5)" />
<use xlink:href="#f7_28" transform="matrix(16,0,0,16,469.3,727.5)" />
<use xlink:href="#f7_1j" transform="matrix(16,0,0,16,469.6,727.5)" />
<use xlink:href="#f7_22" transform="matrix(16,0,0,16,479.7,727.5)" />
<use xlink:href="#f7_21" transform="matrix(16,0,0,16,493.4,727.5)" />
<use xlink:href="#f7_29" transform="matrix(16,0,0,16,503,727.5)" />
<use xlink:href="#f7_1n" transform="matrix(16,0,0,16,503.2,727.5)" />
<use xlink:href="#f1_3" transform="matrix(12,0,0,12,129.7,790.3)" />
<use xlink:href="#f1_1i" transform="matrix(12,0,0,12,135.5,790.3)" />
<use xlink:href="#f1_1i" transform="matrix(12,0,0,12,141,790.3)" />
<use xlink:href="#f1_4" transform="matrix(12,0,0,12,146.5,790.3)" />
<use xlink:href="#f7_1a" transform="matrix(16,0,0,16,173,790.3)" />
<use xlink:href="#f7_1w" transform="matrix(16,0,0,16,186.2,790.3)" />
<use xlink:href="#f7_24" transform="matrix(16,0,0,16,200,790.3)" />
<use xlink:href="#f7_1s" transform="matrix(16,0,0,16,205.3,790.3)" />
<use xlink:href="#f7_23" transform="matrix(16,0,0,16,225.2,790.3)" />
<use xlink:href="#f7_1x" transform="matrix(16,0,0,16,230.5,790.3)" />
<use xlink:href="#f7_1w" transform="matrix(16,0,0,16,241.9,790.3)" />
<use xlink:href="#f7_1s" transform="matrix(16,0,0,16,255.7,790.3)" />
<use xlink:href="#f7_1t" transform="matrix(16,0,0,16,267,790.3)" />
<use xlink:href="#f7_1r" transform="matrix(16,0,0,16,285.8,790.3)" />
<use xlink:href="#f7_28" transform="matrix(16,0,0,16,297.3,790.3)" />
<use xlink:href="#f7_13" transform="matrix(16,0,0,16,297.6,790.3)" />
<use xlink:href="#f1_3" transform="matrix(12,0,0,12,306.6,790.3)" />
<use xlink:href="#f1_n" transform="matrix(12,0,0,12,312.7,790.3)" />
<use xlink:href="#f1_s" transform="matrix(12,0,0,12,325.9,790.3)" />
<use xlink:href="#f2_6" transform="matrix(9.6,0,0,9.6,341.1,796.3)" />
<use xlink:href="#f1_4" transform="matrix(12,0,0,12,349.3,790.3)" />
<use xlink:href="#f2_6" transform="matrix(9.6,0,0,9.6,355.4,796.3)" />
<use xlink:href="#f1_x" transform="matrix(12,0,0,12,370.4,790.3)" />
<use xlink:href="#f7_14" transform="matrix(16,0,0,16,392.1,790.3)" />
<use xlink:href="#f7_24" transform="matrix(16,0,0,16,406.9,790.3)" />
<use xlink:href="#f7_z" transform="matrix(16,0,0,16,421,790.3)" />
<use xlink:href="#f7_1b" transform="matrix(16,0,0,16,435.8,790.3)" />
<use xlink:href="#f7_28" transform="matrix(16,0,0,16,446.1,790.3)" />
<use xlink:href="#f7_2f" transform="matrix(16,0,0,16,446.4,790.3)" />
<use xlink:href="#f7_22" transform="matrix(16,0,0,16,455.1,790.3)" />
<use xlink:href="#f7_22" transform="matrix(16,0,0,16,459.5,790.3)" />
<use xlink:href="#f1_3" transform="matrix(12,0,0,12,472.7,790.3)" />
<use xlink:href="#f1_n" transform="matrix(12,0,0,12,478.8,790.3)" />
<use xlink:href="#f1_s" transform="matrix(12,0,0,12,492,790.3)" />
<use xlink:href="#f2_6" transform="matrix(9.6,0,0,9.6,507.3,796.3)" />
<use xlink:href="#f1_4" transform="matrix(12,0,0,12,515.5,790.3)" />
<use xlink:href="#f2_5" transform="matrix(9.6,0,0,9.6,521.5,796.3)" />
<use xlink:href="#f1_x" transform="matrix(12,0,0,12,536.5,790.3)" />
<use xlink:href="#f1_s" transform="matrix(12,0,0,12,551.5,790.3)" />
<use xlink:href="#f7_z" transform="matrix(16,0,0,16,573.6,790.3)" />
<use xlink:href="#f7_23" transform="matrix(16,0,0,16,588.5,790.3)" />
<use xlink:href="#f7_1m" transform="matrix(16,0,0,16,593.7,790.3)" />
<use xlink:href="#f7_14" transform="matrix(16,0,0,16,605.9,790.3)" />
<use xlink:href="#f7_2f" transform="matrix(16,0,0,16,629.5,790.3)" />
<use xlink:href="#f7_22" transform="matrix(16,0,0,16,638.2,790.3)" />
<use xlink:href="#f7_22" transform="matrix(16,0,0,16,642.6,790.3)" />
<use xlink:href="#f7_1u" transform="matrix(16,0,0,16,647.1,790.3)" />
<use xlink:href="#f7_24" transform="matrix(16,0,0,16,654.7,790.3)" />
<use xlink:href="#f7_1s" transform="matrix(16,0,0,16,659.9,790.3)" />
<use xlink:href="#f7_21" transform="matrix(16,0,0,16,679.9,790.3)" />
<use xlink:href="#f7_29" transform="matrix(16,0,0,16,689.5,790.3)" />
<use xlink:href="#f7_1n" transform="matrix(16,0,0,16,689.8,790.3)" />
<use xlink:href="#f1_3" transform="matrix(12,0,0,12,129.7,853.1)" />
<use xlink:href="#f1_1i" transform="matrix(12,0,0,12,135.6,853.1)" />
<use xlink:href="#f1_1i" transform="matrix(12,0,0,12,141.1,853.1)" />
<use xlink:href="#f1_1i" transform="matrix(12,0,0,12,146.6,853.1)" />
<use xlink:href="#f1_4" transform="matrix(12,0,0,12,152.2,853.1)" />
<use xlink:href="#f7_1d" transform="matrix(16,0,0,16,173,853.1)" />
<use xlink:href="#f7_23" transform="matrix(16,0,0,16,182.8,853.1)" />
<use xlink:href="#f7_1y" transform="matrix(16,0,0,16,188.1,853.1)" />
<use xlink:href="#f7_22" transform="matrix(16,0,0,16,196.5,853.1)" />
<use xlink:href="#f7_2c" transform="matrix(16,0,0,16,200.9,853.1)" />
<use xlink:href="#f7_1s" transform="matrix(16,0,0,16,201.1,853.1)" />
<use xlink:href="#f7_1u" transform="matrix(16,0,0,16,212.4,853.1)" />
<use xlink:href="#f7_24" transform="matrix(16,0,0,16,220,853.1)" />
<use xlink:href="#f7_12" transform="matrix(16,0,0,16,234.4,853.1)" />
<use xlink:href="#f7_1r" transform="matrix(16,0,0,16,245,853.1)" />
<use xlink:href="#f7_24" transform="matrix(16,0,0,16,256.5,853.1)" />
<use xlink:href="#f7_1t" transform="matrix(16,0,0,16,261.7,853.1)" />
<use xlink:href="#f7_22" transform="matrix(16,0,0,16,271.9,853.1)" />
<use xlink:href="#f7_28" transform="matrix(16,0,0,16,276.3,853.1)" />
<use xlink:href="#f7_13" transform="matrix(16,0,0,16,276.5,853.1)" />
<use xlink:href="#f7_14" transform="matrix(16,0,0,16,285.9,853.1)" />
<use xlink:href="#f7_24" transform="matrix(16,0,0,16,300.7,853.1)" />
<use xlink:href="#f7_z" transform="matrix(16,0,0,16,315.1,853.1)" />
<use xlink:href="#f7_1b" transform="matrix(16,0,0,16,330,853.1)" />
<use xlink:href="#f7_28" transform="matrix(16,0,0,16,340.3,853.1)" />
<use xlink:href="#f7_2f" transform="matrix(16,0,0,16,340.5,853.1)" />
<use xlink:href="#f7_22" transform="matrix(16,0,0,16,349.2,853.1)" />
<use xlink:href="#f7_22" transform="matrix(16,0,0,16,353.6,853.1)" />
<use xlink:href="#f7_1b" transform="matrix(16,0,0,16,367.2,853.1)" />
<use xlink:href="#f7_2d" transform="matrix(16,0,0,16,377.5,853.1)" />
<use xlink:href="#f7_22" transform="matrix(16,0,0,16,377.7,853.1)" />
<use xlink:href="#f7_10" transform="matrix(16,0,0,16,382.1,853.1)" />
<use xlink:href="#f7_1r" transform="matrix(16,0,0,16,390.6,853.1)" />
<use xlink:href="#f7_1u" transform="matrix(16,0,0,16,402.1,853.1)" />
<use xlink:href="#f7_24" transform="matrix(16,0,0,16,409.7,853.1)" />
<use xlink:href="#f7_12" transform="matrix(16,0,0,16,424.1,853.1)" />
<use xlink:href="#f7_28" transform="matrix(16,0,0,16,434.7,853.1)" />
<use xlink:href="#f7_1r" transform="matrix(16,0,0,16,435,853.1)" />
<use xlink:href="#f7_24" transform="matrix(16,0,0,16,446.5,853.1)" />
<use xlink:href="#f7_1t" transform="matrix(16,0,0,16,451.7,853.1)" />
<use xlink:href="#f7_22" transform="matrix(16,0,0,16,461.8,853.1)" />
<use xlink:href="#f7_28" transform="matrix(16,0,0,16,466.2,853.1)" />
<use xlink:href="#f7_13" transform="matrix(16,0,0,16,466.5,853.1)" />
<use xlink:href="#f7_14" transform="matrix(16,0,0,16,475.9,853.1)" />
<use xlink:href="#f7_28" transform="matrix(16,0,0,16,485.8,853.1)" />
<use xlink:href="#f7_h" transform="matrix(16,0,0,16,500,853.1)" />
<use xlink:href="#f7_1x" transform="matrix(16,0,0,16,509.7,853.1)" />
<use xlink:href="#f7_1k" transform="matrix(16,0,0,16,521.1,853.1)" />
<use xlink:href="#f7_1t" transform="matrix(16,0,0,16,533.3,853.1)" />
<use xlink:href="#f7_22" transform="matrix(16,0,0,16,543.4,853.1)" />
<use xlink:href="#f7_13" transform="matrix(16,0,0,16,547.8,853.1)" />
<use xlink:href="#f7_14" transform="matrix(16,0,0,16,548.1,853.1)" />
<use xlink:href="#f7_11" transform="matrix(16,0,0,16,572,853.1)" />
<use xlink:href="#f7_r" transform="matrix(16,0,0,16,581.8,853.1)" />
<use xlink:href="#f7_18" transform="matrix(16,0,0,16,590.1,853.1)" />
<use xlink:href="#f7_1j" transform="matrix(16,0,0,16,603.3,853.1)" />
<use xlink:href="#f7_1u" transform="matrix(16,0,0,16,613.4,853.1)" />
<use xlink:href="#f7_21" transform="matrix(16,0,0,16,630.1,853.1)" />
<use xlink:href="#f7_22" transform="matrix(16,0,0,16,639.7,853.1)" />
<use xlink:href="#f7_28" transform="matrix(16,0,0,16,644.1,853.1)" />
<use xlink:href="#f7_1j" transform="matrix(16,0,0,16,644.4,853.1)" />
<use xlink:href="#f7_28" transform="matrix(16,0,0,16,654.5,853.1)" />
<use xlink:href="#f7_21" transform="matrix(16,0,0,16,663.9,853.1)" />
<use xlink:href="#f7_29" transform="matrix(16,0,0,16,673.5,853.1)" />
<use xlink:href="#f7_13" transform="matrix(16,0,0,16,673.8,853.1)" />
<use xlink:href="#f7_1n" transform="matrix(16,0,0,16,674,853.1)" />
<use xlink:href="#f1_r" transform="matrix(12,0,0,12,129.7,910.1)" />
<use xlink:href="#f1_1i" transform="matrix(12,0,0,12,144,910.1)" />
<use xlink:href="#f1_1v" transform="matrix(12,0,0,12,149.7,910.1)" />
<use xlink:href="#f1_1e" transform="matrix(12,0,0,12,159.6,910.1)" />
<use xlink:href="#f1_1r" transform="matrix(12,0,0,12,173.9,910.1)" />
<use xlink:href="#f1_1e" transform="matrix(12,0,0,12,182,910.1)" />
<use xlink:href="#f1_1a" transform="matrix(12,0,0,12,191.2,910.1)" />
<use xlink:href="#f1_1s" transform="matrix(12,0,0,12,201.4,910.1)" />
<use xlink:href="#f1_1o" transform="matrix(12,0,0,12,209.8,910.1)" />
<use xlink:href="#f1_1n" transform="matrix(12,0,0,12,219,910.1)" />
<use xlink:href="#f1_1s" transform="matrix(12,0,0,12,230.1,910.1)" />
<use xlink:href="#f1_1f" transform="matrix(12,0,0,12,243.7,910.1)" />
<use xlink:href="#f1_1o" transform="matrix(12,0,0,12,249.8,910.1)" />
<use xlink:href="#f1_1r" transform="matrix(12,0,0,12,259,910.1)" />
<use xlink:href="#f1_1t" transform="matrix(12,0,0,12,272.2,910.1)" />
<use xlink:href="#f1_1h" transform="matrix(12,0,0,12,279.4,910.1)" />
<use xlink:href="#f1_1e" transform="matrix(12,0,0,12,290.5,910.1)" />
<use xlink:href="#f1_1f" transform="matrix(12,0,0,12,304.8,910.1)" />
<use xlink:href="#f1_1o" transform="matrix(12,0,0,12,310.9,910.1)" />
<use xlink:href="#f1_1l" transform="matrix(12,0,0,12,320.1,910.1)" />
<use xlink:href="#f1_1l" transform="matrix(12,0,0,12,325.8,910.1)" />
<use xlink:href="#f1_1o" transform="matrix(12,0,0,12,331.6,910.1)" />
<use xlink:href="#f1_1w" transform="matrix(12,0,0,12,340.8,910.1)" />
<use xlink:href="#f1_1i" transform="matrix(12,0,0,12,355.1,910.1)" />
<use xlink:href="#f1_1n" transform="matrix(12,0,0,12,360.8,910.1)" />
<use xlink:href="#f1_1g" transform="matrix(12,0,0,12,372,910.1)" />
<use xlink:href="#f1_j" transform="matrix(12,0,0,12,386.9,910.1)" />
<use xlink:href="#f1_3" transform="matrix(12,0,0,12,129.7,964.4)" />
<use xlink:href="#f1_1i" transform="matrix(12,0,0,12,135.4,964.4)" />
<use xlink:href="#f1_4" transform="matrix(12,0,0,12,140.7,964.4)" />
<use xlink:href="#f1_l" transform="matrix(12,0,0,12,173,964.4)" />
<use xlink:href="#f1_1n" transform="matrix(12,0,0,12,186.2,964.4)" />
<use xlink:href="#f1_1i" transform="matrix(12,0,0,12,197.4,964.4)" />
<use xlink:href="#f1_1l" transform="matrix(12,0,0,12,203.2,964.4)" />
<use xlink:href="#f1_1i" transform="matrix(12,0,0,12,209,964.4)" />
<use xlink:href="#f1_1n" transform="matrix(12,0,0,12,214.7,964.4)" />
<use xlink:href="#f1_1e" transform="matrix(12,0,0,12,225.9,964.4)" />
<use xlink:href="#f1_1d" transform="matrix(12,0,0,12,240.6,964.4)" />
<use xlink:href="#f1_1o" transform="matrix(12,0,0,12,251.2,964.4)" />
<use xlink:href="#f1_1e" transform="matrix(12,0,0,12,260.3,964.4)" />
<use xlink:href="#f1_1s" transform="matrix(12,0,0,12,269.5,964.4)" />
<use xlink:href="#f1_1n" transform="matrix(12,0,0,12,283.5,964.4)" />
<use xlink:href="#f1_1o" transform="matrix(12,0,0,12,294.7,964.4)" />
<use xlink:href="#f1_1t" transform="matrix(12,0,0,12,303.8,964.4)" />
<use xlink:href="#f1_1u" transform="matrix(12,0,0,12,316.5,964.4)" />
<use xlink:href="#f1_1n" transform="matrix(12,0,0,12,327.7,964.4)" />
<use xlink:href="#f1_1d" transform="matrix(12,0,0,12,338.8,964.4)" />
<use xlink:href="#f1_1e" transform="matrix(12,0,0,12,349.4,964.4)" />
<use xlink:href="#f1_1r" transform="matrix(12,0,0,12,358.6,964.4)" />
<use xlink:href="#f1_1g" transform="matrix(12,0,0,12,366.7,964.4)" />
<use xlink:href="#f1_1o" transform="matrix(12,0,0,12,376.6,964.4)" />
<use xlink:href="#f1_q" transform="matrix(12,0,0,12,391.3,964.4)" />
<use xlink:href="#f1_1r" transform="matrix(12,0,0,12,403.5,964.4)" />
<use xlink:href="#f1_1i" transform="matrix(12,0,0,12,411.6,964.4)" />
<use xlink:href="#f1_1e" transform="matrix(12,0,0,12,417.4,964.4)" />
<use xlink:href="#f1_1d" transform="matrix(12,0,0,12,426.6,964.4)" />
<use xlink:href="#f1_1a" transform="matrix(12,0,0,12,437.1,964.4)" />
<use xlink:href="#f1_1l" transform="matrix(12,0,0,12,447.4,964.4)" />
<use xlink:href="#f1_6" transform="matrix(12,0,0,12,453.2,964.4)" />
<use xlink:href="#f1_n" transform="matrix(12,0,0,12,459.3,964.4)" />
<use xlink:href="#f1_1r" transform="matrix(12,0,0,12,472.5,964.4)" />
<use xlink:href="#f1_1a" transform="matrix(12,0,0,12,480.7,964.4)" />
<use xlink:href="#f1_1f" transform="matrix(12,0,0,12,490.9,964.4)" />
<use xlink:href="#f1_1t" transform="matrix(12,0,0,12,497,964.4)" />
<use xlink:href="#f1_1s" transform="matrix(12,0,0,12,504.2,964.4)" />
<use xlink:href="#f1_1r" transform="matrix(12,0,0,12,518.2,964.4)" />
<use xlink:href="#f1_1e" transform="matrix(12,0,0,12,526.3,964.4)" />
<use xlink:href="#f1_1a" transform="matrix(12,0,0,12,535.5,964.4)" />
<use xlink:href="#f1_1c" transform="matrix(12,0,0,12,545.7,964.4)" />
<use xlink:href="#f1_1t" transform="matrix(12,0,0,12,553.9,964.4)" />
<use xlink:href="#f1_1i" transform="matrix(12,0,0,12,561.1,964.4)" />
<use xlink:href="#f1_1o" transform="matrix(12,0,0,12,566.8,964.4)" />
<use xlink:href="#f1_1n" transform="matrix(12,0,0,12,576,964.4)" />
<use xlink:href="#f1_7" transform="matrix(12,0,0,12,587.2,964.4)" />
<use xlink:href="#f1_3" transform="matrix(12,0,0,12,129.7,1018.6)" />
<use xlink:href="#f1_1i" transform="matrix(12,0,0,12,135.5,1018.6)" />
<use xlink:href="#f1_1i" transform="matrix(12,0,0,12,141,1018.6)" />
<use xlink:href="#f1_4" transform="matrix(12,0,0,12,146.5,1018.6)" />
<use xlink:href="#f1_3" transform="matrix(12,0,0,12,173,1018.6)" />
<use xlink:href="#f1_n" transform="matrix(12,0,0,12,179.1,1018.6)" />
<use xlink:href="#f1_s" transform="matrix(12,0,0,12,192.3,1018.6)" />
<use xlink:href="#f2_6" transform="matrix(9.6,0,0,9.6,207.6,1024.6)" />
<use xlink:href="#f1_4" transform="matrix(12,0,0,12,215.8,1018.6)" />
<use xlink:href="#f2_5" transform="matrix(9.6,0,0,9.6,221.9,1024.6)" />
<use xlink:href="#f1_x" transform="matrix(12,0,0,12,235.5,1018.6)" />
<use xlink:href="#f1_s" transform="matrix(12,0,0,12,250.4,1018.6)" />
<use xlink:href="#f1_1i" transform="matrix(12,0,0,12,271.2,1018.6)" />
<use xlink:href="#f1_1s" transform="matrix(12,0,0,12,276.9,1018.6)" />
<use xlink:href="#f1_1m" transform="matrix(12,0,0,12,290.8,1018.6)" />
<use xlink:href="#f1_1o" transform="matrix(12,0,0,12,307.2,1018.6)" />
<use xlink:href="#f1_1r" transform="matrix(12,0,0,12,316.3,1018.6)" />
<use xlink:href="#f1_1e" transform="matrix(12,0,0,12,324.5,1018.6)" />
<use xlink:href="#f1_1b" transform="matrix(12,0,0,12,339,1018.6)" />
<use xlink:href="#f1_1a" transform="matrix(12,0,0,12,349.3,1018.6)" />
<use xlink:href="#f1_1s" transform="matrix(12,0,0,12,359.5,1018.6)" />
<use xlink:href="#f1_1i" transform="matrix(12,0,0,12,368,1018.6)" />
<use xlink:href="#f1_1c" transform="matrix(12,0,0,12,373.7,1018.6)" />
<use xlink:href="#f1_1t" transform="matrix(12,0,0,12,387.3,1018.6)" />
<use xlink:href="#f1_1h" transform="matrix(12,0,0,12,394.4,1018.6)" />
<use xlink:href="#f1_1a" transform="matrix(12,0,0,12,405.6,1018.6)" />
<use xlink:href="#f1_1n" transform="matrix(12,0,0,12,415.8,1018.6)" />
<use xlink:href="#f1_3" transform="matrix(12,0,0,12,432.4,1018.6)" />
<use xlink:href="#f1_n" transform="matrix(12,0,0,12,438.5,1018.6)" />
<use xlink:href="#f1_s" transform="matrix(12,0,0,12,451.7,1018.6)" />
<use xlink:href="#f2_6" transform="matrix(9.6,0,0,9.6,467.1,1024.6)" />
<use xlink:href="#f1_4" transform="matrix(12,0,0,12,475.2,1018.6)" />
<use xlink:href="#f2_6" transform="matrix(9.6,0,0,9.6,481.3,1024.6)" />
<use xlink:href="#f1_x" transform="matrix(12,0,0,12,494.9,1018.6)" />
<use xlink:href="#f1_1i" transform="matrix(12,0,0,12,515.3,1018.6)" />
<use xlink:href="#f1_1n" transform="matrix(12,0,0,12,521.1,1018.6)" />
<use xlink:href="#f1_1a" transform="matrix(12,0,0,12,537.7,1018.6)" />
<use xlink:href="#f1_1n" transform="matrix(12,0,0,12,547.9,1018.6)" />
<use xlink:href="#f1_1a" transform="matrix(12,0,0,12,564.5,1018.6)" />
<use xlink:href="#f1_1q" transform="matrix(12,0,0,12,574.7,1018.6)" />
<use xlink:href="#f1_1u" transform="matrix(12,0,0,12,585,1018.6)" />
<use xlink:href="#f1_1e" transform="matrix(12,0,0,12,596.1,1018.6)" />
<use xlink:href="#f1_1o" transform="matrix(12,0,0,12,605.3,1018.6)" />
<use xlink:href="#f1_1u" transform="matrix(12,0,0,12,614.5,1018.6)" />
<use xlink:href="#f1_1s" transform="matrix(12,0,0,12,625.7,1018.6)" />
<use xlink:href="#f1_1s" transform="matrix(12,0,0,12,639.6,1018.6)" />
<use xlink:href="#f1_1o" transform="matrix(12,0,0,12,648.1,1018.6)" />
<use xlink:href="#f1_1l" transform="matrix(12,0,0,12,657.2,1018.6)" />
<use xlink:href="#f1_1u" transform="matrix(12,0,0,12,663,1018.6)" />
<use xlink:href="#f1_1t" transform="matrix(12,0,0,12,674.2,1018.6)" />
<use xlink:href="#f1_1i" transform="matrix(12,0,0,12,681.4,1018.6)" />
<use xlink:href="#f1_1o" transform="matrix(12,0,0,12,687.2,1018.6)" />
<use xlink:href="#f1_1n" transform="matrix(12,0,0,12,696.4,1018.6)" />
<use xlink:href="#f1_7" transform="matrix(12,0,0,12,707.5,1018.6)" />
<use xlink:href="#f1_3" transform="matrix(12,0,0,12,129.7,1072.8)" />
<use xlink:href="#f1_1i" transform="matrix(12,0,0,12,135.6,1072.8)" />
<use xlink:href="#f1_1i" transform="matrix(12,0,0,12,141.1,1072.8)" />
<use xlink:href="#f1_1i" transform="matrix(12,0,0,12,146.6,1072.8)" />
<use xlink:href="#f1_4" transform="matrix(12,0,0,12,152.2,1072.8)" />
<use xlink:href="#f1_z" transform="matrix(12,0,0,12,173,1072.8)" />
<use xlink:href="#f1_1r" transform="matrix(12,0,0,12,185.2,1072.8)" />
<use xlink:href="#f1_1i" transform="matrix(12,0,0,12,193.3,1072.8)" />
<use xlink:href="#f1_1m" transform="matrix(12,0,0,12,199.1,1072.8)" />
<use xlink:href="#f1_1a" transform="matrix(12,0,0,12,215.5,1072.8)" />
<use xlink:href="#f1_1r" transform="matrix(12,0,0,12,225.7,1072.8)" />
<use xlink:href="#f1_1y" transform="matrix(12,0,0,12,233.8,1072.8)" />
<use xlink:href="#f1_1a" transform="matrix(12,0,0,12,249.5,1072.8)" />
<use xlink:href="#f1_1m" transform="matrix(12,0,0,12,259.8,1072.8)" />
<use xlink:href="#f1_1i" transform="matrix(12,0,0,12,276.1,1072.8)" />
<use xlink:href="#f1_1n" transform="matrix(12,0,0,12,281.9,1072.8)" />
<use xlink:href="#f1_1e" transform="matrix(12,0,0,12,293.1,1072.8)" />
<use xlink:href="#f1_1s" transform="matrix(12,0,0,12,302.2,1072.8)" />
<use xlink:href="#f1_1h" transform="matrix(12,0,0,12,316.6,1072.8)" />
<use xlink:href="#f1_1a" transform="matrix(12,0,0,12,327.7,1072.8)" />
<use xlink:href="#f1_1v" transform="matrix(12,0,0,12,337.9,1072.8)" />
<use xlink:href="#f1_1e" transform="matrix(12,0,0,12,347.8,1072.8)" />
<use xlink:href="#f1_1h" transform="matrix(12,0,0,12,362.8,1072.8)" />
<use xlink:href="#f1_1i" transform="matrix(12,0,0,12,374,1072.8)" />
<use xlink:href="#f1_1g" transform="matrix(12,0,0,12,379.8,1072.8)" />
<use xlink:href="#f1_1h" transform="matrix(12,0,0,12,389.6,1072.8)" />
<use xlink:href="#f1_1e" transform="matrix(12,0,0,12,400.8,1072.8)" />
<use xlink:href="#f1_1r" transform="matrix(12,0,0,12,410,1072.8)" />
<use xlink:href="#f1_1b" transform="matrix(12,0,0,12,423.9,1072.8)" />
<use xlink:href="#f1_1o" transform="matrix(12,0,0,12,434.2,1072.8)" />
<use xlink:href="#f1_1i" transform="matrix(12,0,0,12,443.3,1072.8)" />
<use xlink:href="#f1_1l" transform="matrix(12,0,0,12,449.1,1072.8)" />
<use xlink:href="#f1_1i" transform="matrix(12,0,0,12,454.9,1072.8)" />
<use xlink:href="#f1_1n" transform="matrix(12,0,0,12,460.7,1072.8)" />
<use xlink:href="#f1_1g" transform="matrix(12,0,0,12,471.8,1072.8)" />
<use xlink:href="#f1_1p" transform="matrix(12,0,0,12,487.6,1072.8)" />
<use xlink:href="#f1_1o" transform="matrix(12,0,0,12,498.1,1072.8)" />
<use xlink:href="#f1_1i" transform="matrix(12,0,0,12,507.3,1072.8)" />
<use xlink:href="#f1_1n" transform="matrix(12,0,0,12,513.1,1072.8)" />
<use xlink:href="#f1_1t" transform="matrix(12,0,0,12,524.2,1072.8)" />
<use xlink:href="#f1_1t" transform="matrix(12,0,0,12,537.2,1072.8)" />
<use xlink:href="#f1_1h" transform="matrix(12,0,0,12,544.4,1072.8)" />
<use xlink:href="#f1_1a" transform="matrix(12,0,0,12,555.6,1072.8)" />
<use xlink:href="#f1_1n" transform="matrix(12,0,0,12,565.8,1072.8)" />
<use xlink:href="#f1_1t" transform="matrix(12,0,0,12,582.8,1072.8)" />
<use xlink:href="#f1_1e" transform="matrix(12,0,0,12,590,1072.8)" />
<use xlink:href="#f1_1r" transform="matrix(12,0,0,12,599.1,1072.8)" />
<use xlink:href="#f1_1t" transform="matrix(12,0,0,12,607.3,1072.8)" />
<use xlink:href="#f1_1i" transform="matrix(12,0,0,12,614.4,1072.8)" />
<use xlink:href="#f1_1a" transform="matrix(12,0,0,12,620.2,1072.8)" />
<use xlink:href="#f1_1r" transform="matrix(12,0,0,12,630.4,1072.8)" />
<use xlink:href="#f1_1y" transform="matrix(12,0,0,12,638.6,1072.8)" />
<use xlink:href="#f1_1a" transform="matrix(12,0,0,12,654.3,1072.8)" />
<use xlink:href="#f1_1m" transform="matrix(12,0,0,12,664.5,1072.8)" />
<use xlink:href="#f1_1i" transform="matrix(12,0,0,12,680.9,1072.8)" />
<use xlink:href="#f1_1n" transform="matrix(12,0,0,12,686.7,1072.8)" />
<use xlink:href="#f1_1e" transform="matrix(12,0,0,12,697.8,1072.8)" />
<use xlink:href="#f1_1s" transform="matrix(12,0,0,12,707,1072.8)" />
<use xlink:href="#f1_7" transform="matrix(12,0,0,12,715.5,1072.8)" />
</g>
<defs>
<path d="M872,1021c2,0,3,0,5,0c1,0,3,0,4,0c84,0,154,42,213,128c59,85,89,217,89,394c0,177,-34,307,-101,390c-49,61,-110,91,-181,93c-84,-2,-151,-43,-203,-122c-52,-80,-78,-219,-78,-414c0,-173,25,-294,71,-364c44,-70,105,-105,181,-105ZM775,-59C623,-59,500,-19,400,60C301,139,252,231,252,330c0,75,23,138,69,188c47,47,105,72,174,73c60,-1,112,-23,153,-64c41,-43,61,-93,61,-154c0,-35,-15,-78,-46,-130C645,211,636,186,636,170c0,-23,9,-42,27,-54C689,98,719,88,757,88c3,0,5,1,8,1c2,0,4,0,6,0c66,0,130,29,193,84c66,55,118,151,157,285c39,135,60,320,62,553l-25,-19C1025,871,888,813,743,813C607,813,487,856,382,943C246,1056,177,1215,177,1421c0,148,31,279,92,396c61,114,145,203,254,264c110,61,236,92,380,92c223,0,399,-80,524,-236c153,-192,229,-447,229,-767c0,-380,-93,-687,-278,-919C1215,43,1013,-59,775,-59Z" 
id="f0_e"
transform="scale(4.8828125E-4,-4.8828125E-4)" />

<path d="M798,-59C611,-59,460,-10,347,87C235,183,177,303,177,440c0,92,25,163,75,218c49,54,110,80,185,81c67,-1,121,-22,163,-65c45,-41,65,-93,65,-155c0,-44,-10,-84,-29,-114C616,371,578,341,521,310C480,286,458,263,458,241c0,-35,22,-67,66,-93C586,108,659,89,742,89c3,0,7,0,10,0c1,0,3,0,5,0c106,0,191,47,254,137c66,92,98,249,98,474c0,188,-30,325,-93,411c-61,87,-141,130,-237,131c-44,-1,-91,-11,-143,-27c-52,-17,-107,-43,-167,-77c0,-81,-11,-134,-31,-163C420,947,394,932,359,932c-1,0,-3,0,-5,0c-2,0,-5,0,-7,0c-29,0,-51,7,-67,23c-19,17,-28,38,-28,64c0,38,29,98,89,177l73,977c217,-48,411,-74,584,-74c5,0,10,0,15,0c7,0,13,0,20,0c127,0,233,14,318,41c35,11,56,17,62,19c14,-2,22,-12,22,-31c0,-69,-26,-140,-78,-215c-52,-77,-119,-133,-204,-171c-79,-37,-179,-57,-301,-57c-4,0,-9,0,-13,0c-6,0,-12,0,-19,0c-91,0,-194,11,-307,31L481,1303c77,34,147,58,214,75c66,17,128,26,187,26c192,0,359,-66,495,-194c137,-130,204,-302,204,-516c0,-223,-70,-405,-215,-544C1222,9,1033,-59,798,-59Z" 
id="f0_a"
transform="scale(4.8828125E-4,-4.8828125E-4)" />

<path d="M932,89c2,0,3,0,5,0c1,0,2,0,4,0c77,0,142,39,193,119c53,79,78,217,78,408c0,185,-23,313,-72,385c-48,70,-112,107,-190,108C874,1108,805,1065,743,982C681,897,651,778,651,622c0,-179,33,-321,98,-423C795,127,856,89,932,89Zm9,-148C717,-59,538,21,406,183C254,373,177,633,177,963c0,372,93,675,278,904c165,203,368,306,611,306c156,0,280,-40,375,-117c94,-78,140,-166,140,-267c0,-75,-21,-136,-67,-182c-44,-47,-101,-70,-168,-70c-60,0,-108,18,-148,60c-40,39,-60,90,-60,151c0,44,14,87,37,131c15,25,23,46,23,63c0,23,-11,43,-34,59c-23,16,-55,23,-101,25C932,2024,834,1954,768,1813C686,1639,648,1403,651,1100c66,72,136,125,208,160c71,36,146,55,224,55c148,0,280,-53,397,-157c118,-104,176,-260,176,-467c0,-227,-66,-408,-198,-544C1326,8,1153,-59,941,-59Z" 
id="f0_b"
transform="scale(4.8828125E-4,-4.8828125E-4)" />

<path d="M-51,0L631,2261H924L241,0Z" 
id="f0_4"
transform="scale(4.8828125E-4,-4.8828125E-4)" />

<path d="M354,0V148H581c3,0,6,0,9,0c52,0,91,12,113,35c24,25,36,66,36,124V1688c0,31,-9,57,-30,74c-20,16,-49,26,-90,27H296v148c161,9,295,28,404,58c110,29,221,74,334,133h119V261c0,-36,10,-65,31,-85c18,-19,45,-28,77,-28c2,0,5,0,7,0h284V0Z" 
id="f0_6"
transform="scale(4.8828125E-4,-4.8828125E-4)" />

<path d="M1354,-59C1042,-59,779,50,568,270C358,489,252,772,252,1117c0,380,121,684,364,913c206,193,449,289,727,291c110,-2,212,-17,305,-51c95,-33,196,-91,303,-174l104,225h118l30,-902H2070c-44,254,-130,443,-253,567c-124,124,-266,187,-427,187c-175,0,-321,-83,-435,-246C840,1762,784,1503,784,1150C784,775,848,498,973,316C1074,176,1224,104,1418,104c2,0,4,0,6,0c2,0,4,0,6,0c196,0,360,70,493,211c98,102,167,252,205,453h133C2229,512,2130,310,1965,162C1798,14,1595,-59,1354,-59Z" 
id="f0_f"
transform="scale(4.8828125E-4,-4.8828125E-4)" />

<path d="M1291,1153c92,0,174,20,246,62c75,39,128,90,160,149c32,58,48,155,48,286c0,180,-49,307,-147,383c-70,52,-192,80,-365,81c-98,-1,-160,-9,-188,-26c-26,-16,-40,-45,-40,-85V1153h275c4,0,7,0,11,0ZM193,0V148H394c3,0,6,0,9,0c41,0,74,11,95,32c23,22,34,54,34,95V1989c0,37,-11,67,-35,90c-23,23,-52,34,-86,35H193v147H1506c223,0,402,-61,538,-182c136,-120,203,-267,203,-441c0,-135,-39,-251,-117,-349c-78,-100,-184,-172,-317,-218c-127,-43,-254,-66,-380,-66c-4,0,-8,0,-12,0H1005V275c0,-41,13,-73,35,-95c23,-21,50,-32,84,-32c2,0,4,0,7,0h259V0Z" 
id="f0_i"
transform="scale(4.8828125E-4,-4.8828125E-4)" />

<path d="M420,-59c-70,0,-131,26,-182,74C188,66,162,127,162,200c0,70,26,130,76,182c51,49,112,75,182,76c72,-1,133,-27,185,-76c50,-52,75,-112,75,-182C680,127,655,66,605,15C553,-33,492,-59,420,-59Z" 
id="f0_3"
transform="scale(4.8828125E-4,-4.8828125E-4)" />

<path d="M532,0V148H781c2,0,4,0,7,0c33,0,61,11,81,31c23,20,32,47,32,82V1995c0,40,-9,69,-32,89c-21,18,-55,29,-101,30C513,2113,342,1876,252,1404H118l44,857H2114l45,-857H2026c-34,182,-75,324,-127,426c-50,101,-110,174,-176,219c-65,43,-137,64,-217,65c-45,-1,-79,-10,-100,-29c-20,-19,-31,-45,-31,-81V261c0,-33,11,-61,32,-82c20,-20,43,-31,71,-31c2,0,4,0,5,0h262V0Z" 
id="f0_l"
transform="scale(4.8828125E-4,-4.8828125E-4)" />

<path d="M1296,89c3,0,6,0,9,0c1,0,3,0,5,0c185,0,333,79,444,235c113,157,168,432,168,825c0,272,-24,477,-72,614c-49,138,-121,240,-215,309c-95,65,-207,101,-332,101c-124,0,-232,-36,-324,-101C888,2003,814,1894,761,1745C707,1593,680,1389,680,1128c0,-275,24,-485,75,-624C805,361,877,257,972,189C1066,122,1173,89,1296,89Zm-2,-148C1077,-59,880,-7,707,95C535,199,397,338,298,515C197,691,148,894,148,1128c0,345,110,629,329,855c220,225,492,336,814,338c214,-2,411,-52,591,-156c181,-104,321,-246,422,-425c101,-179,150,-380,150,-605C2454,793,2344,509,2122,281C1899,53,1624,-59,1294,-59Z" 
id="f0_h"
transform="scale(4.8828125E-4,-4.8828125E-4)" />

<path d="M929,-43L296,1956c-24,76,-53,125,-84,151c-32,24,-82,35,-152,36v118H813V2143H759c-79,-1,-131,-7,-154,-18c-21,-14,-34,-32,-34,-56c0,-19,10,-48,23,-84l11,-29L1057,526l410,1326c-46,143,-81,229,-107,253c-26,25,-78,37,-155,38H1065v118h961V2143H1925c-86,-1,-142,-7,-168,-19c-26,-14,-38,-34,-38,-60c0,-23,3,-41,9,-58L2195,526l379,1281c17,48,25,95,25,141c0,66,-17,115,-48,148c-32,31,-79,46,-143,47h-72v118h709V2143c-60,-9,-107,-24,-144,-45c-35,-22,-67,-52,-93,-92c-24,-41,-52,-107,-79,-199L2180,-43H2066L1545,1607L1033,-43Z" 
id="f1_15"
transform="scale(4.8828125E-4,-4.8828125E-4)" />

<path d="M104,0V118H241c48,0,83,9,107,27c25,18,37,41,37,69v903c0,67,-14,117,-43,150c-27,32,-67,48,-120,48H104v120l503,29V889c55,193,120,339,197,440c78,98,172,148,287,150c76,-2,139,-26,185,-73c46,-49,70,-115,70,-194c0,-66,-15,-117,-46,-153c-29,-36,-66,-54,-111,-54c-1,0,-3,0,-5,0c-2,0,-4,0,-5,0c-42,0,-76,17,-102,46c-29,31,-43,73,-43,127c0,34,6,66,16,98c10,24,15,41,15,47c0,15,-9,21,-28,23c-39,-2,-85,-26,-137,-73C830,1202,776,1108,738,987C680,799,651,649,651,536V226c0,-35,12,-63,38,-81c26,-18,67,-27,128,-27h188V0Z" 
id="f1_1r"
transform="scale(4.8828125E-4,-4.8828125E-4)" />

<path d="M89,0V118H248c47,0,80,9,103,32c22,20,34,52,34,93v875c0,54,-17,97,-49,124c-33,28,-81,43,-145,44H73v118l578,31V218c0,-33,9,-58,26,-70c26,-21,56,-30,95,-30H946V0ZM474,1922c-43,0,-81,17,-113,47c-33,31,-51,71,-51,115c0,41,18,79,52,113c34,32,73,49,118,50c46,-1,85,-18,119,-50c35,-34,52,-72,52,-116c0,-44,-17,-81,-51,-112c-32,-30,-70,-47,-114,-47c-2,0,-4,0,-6,0c-2,0,-4,0,-6,0Z" 
id="f1_1i"
transform="scale(4.8828125E-4,-4.8828125E-4)" />

<path d="M706,-14C587,-14,493,17,426,81C359,147,325,231,325,338v962H73v101c118,18,207,67,268,144c90,113,139,273,146,481H591V1435h459V1300H591V368c0,-82,20,-143,57,-186c36,-43,84,-64,140,-64c69,0,129,33,176,99c49,66,78,176,86,330h103C1147,356,1103,214,1022,122C941,31,836,-14,706,-14Z" 
id="f1_1t"
transform="scale(4.8828125E-4,-4.8828125E-4)" />

<path d="M1060,798c40,0,71,12,92,38c20,24,31,67,31,130c0,113,-36,209,-109,288c-73,80,-159,119,-258,121C704,1373,611,1326,535,1230C457,1134,417,990,414,798ZM816,-43C623,-43,461,24,330,163C199,303,133,480,133,698c0,231,66,420,195,564c132,144,292,215,483,217c141,-2,263,-38,364,-110c102,-73,180,-179,231,-313c36,-97,56,-217,58,-361H414C420,478,461,325,539,238C627,139,739,89,874,89c2,0,4,0,6,0c1,0,3,0,4,0c201,0,363,114,486,340l94,-44C1314,98,1098,-43,816,-43Z" 
id="f1_1e"
transform="scale(4.8828125E-4,-4.8828125E-4)" />

<path d="M104,0V118h87c60,0,102,10,127,33c24,23,36,58,36,107V1962c0,59,-15,105,-48,136c-33,29,-80,44,-141,45H60v118l560,31V1186c75,96,156,169,242,218c85,49,175,73,270,75c92,-2,174,-25,246,-66c57,-36,104,-98,144,-183c41,-87,59,-190,59,-307V243c0,-44,12,-76,34,-96c21,-20,55,-29,99,-29h119V0H1065V118h82c65,0,109,9,133,30c23,22,35,52,35,95V923c0,117,-27,209,-82,278c-57,66,-128,99,-215,99c-68,0,-130,-20,-188,-56C772,1205,723,1147,681,1071C642,995,620,914,620,828V258c0,-52,13,-88,32,-108c20,-23,55,-32,103,-32H872V0Z" 
id="f1_1h"
transform="scale(4.8828125E-4,-4.8828125E-4)" />

<path d="M73,0V118H194c55,0,93,9,113,27c23,17,34,46,34,86V1300H89v135H341v102c0,254,53,448,160,582c107,133,238,200,396,202c119,-2,211,-29,275,-86c67,-58,99,-133,99,-223c0,-61,-15,-108,-46,-144c-30,-35,-68,-50,-117,-50c-43,0,-78,12,-106,40c-27,27,-41,62,-41,104c0,47,17,85,49,117c27,23,40,42,40,55c0,17,-11,31,-34,46c-23,14,-57,22,-102,23c-87,-1,-159,-40,-219,-116c-59,-76,-88,-189,-88,-339V1435H961V1300H607V257c0,-49,10,-83,33,-101c29,-26,72,-38,127,-38H961V0Z" 
id="f1_1f"
transform="scale(4.8828125E-4,-4.8828125E-4)" />

<path d="M118,0V118h99c50,0,89,9,115,30c24,19,38,45,38,75v909c0,58,-16,106,-48,136c-30,31,-76,47,-134,47H118v120l473,29c20,-89,35,-191,45,-307c62,105,137,186,223,239c87,54,184,81,293,83c93,-2,173,-21,235,-58c63,-38,115,-98,153,-179c38,-81,57,-173,57,-273V263c0,-54,12,-90,35,-112c23,-23,62,-33,116,-33h101V0H1079V118h71c68,0,115,9,141,32c26,21,40,53,40,96V863c0,133,-20,234,-60,300c-55,91,-137,137,-249,137c-110,0,-202,-47,-275,-139C672,1066,636,946,636,796V263c0,-54,12,-92,36,-112c23,-23,63,-33,116,-33H888V0Z" 
id="f1_1n"
transform="scale(4.8828125E-4,-4.8828125E-4)" />

<path d="M652,60c2,0,4,0,6,0c2,0,4,0,6,0c119,0,224,45,311,137c90,92,134,208,134,348V753C846,717,660,658,550,576C469,513,429,426,429,313c0,-81,22,-143,63,-188C533,82,586,60,652,60ZM597,-43C451,-43,339,-13,263,49C186,112,148,193,148,292c0,148,87,270,263,368c174,98,408,163,698,197v226c0,80,-30,147,-93,205c-61,56,-139,85,-234,87c-87,-2,-163,-20,-227,-58c-45,-29,-68,-57,-68,-83c0,-16,13,-41,34,-74c27,-43,41,-81,41,-112c0,-49,-15,-87,-44,-116C489,903,453,888,407,888c-2,0,-4,0,-7,0c-2,0,-4,0,-6,0c-48,0,-88,16,-121,50c-33,35,-51,80,-51,135c0,100,58,192,172,278c115,84,264,126,451,128c173,-2,304,-40,394,-113c90,-77,136,-168,136,-275V295c0,-72,11,-124,32,-156c22,-34,48,-50,81,-50c2,0,3,0,5,0c1,0,3,0,5,0c38,0,78,15,118,44l54,-76C1595,-10,1513,-43,1421,-43c-70,0,-130,16,-177,51c-48,35,-91,99,-126,189C1022,99,937,35,863,3C788,-28,701,-43,597,-43Z" 
id="f1_1a"
transform="scale(4.8828125E-4,-4.8828125E-4)" />

<path d="M89,0V118H238c51,0,86,10,110,33c25,22,37,54,37,95V1983c0,49,-14,87,-40,112c-36,30,-81,47,-133,48H89v118l562,31V214c0,-29,7,-51,24,-66c26,-21,57,-30,93,-30H917V0Z" 
id="f1_1l"
transform="scale(4.8828125E-4,-4.8828125E-4)" />

<path d="M1006,89c105,0,187,42,242,128c75,111,112,278,112,495c0,226,-34,388,-101,486c-66,98,-151,146,-257,146c-110,0,-203,-55,-281,-165C645,1069,607,911,607,704C607,493,643,338,717,238C790,139,883,89,996,89c1,0,3,0,5,0c2,0,3,0,5,0ZM89,-590v117H193c48,0,87,10,110,29c25,19,38,45,38,75V1121c0,68,-17,117,-51,147c-33,28,-101,44,-201,47v120l463,29c22,-103,36,-201,39,-294c71,112,144,190,220,237c78,46,162,70,252,72c98,-2,191,-32,280,-93c89,-61,159,-150,215,-268c55,-119,83,-252,83,-398c0,-237,-67,-431,-202,-579C1326,17,1193,-43,1037,-43c-88,0,-169,21,-241,67C726,69,662,138,607,229V-343c0,-44,10,-76,30,-93c28,-24,67,-37,115,-37H857V-590Z" 
id="f1_1p"
transform="scale(4.8828125E-4,-4.8828125E-4)" />

<path d="M784,60c117,0,215,53,287,157c75,105,112,280,112,522c0,224,-36,384,-110,485c-74,101,-172,149,-294,151C665,1373,570,1322,495,1216C422,1111,385,947,385,721C385,490,422,322,495,217C567,113,660,60,774,60c2,0,4,0,5,0c2,0,3,0,5,0ZM770,-43C585,-43,426,24,298,167C168,307,104,490,104,717c0,224,66,407,194,548c131,141,290,212,481,214c194,-2,356,-72,488,-211c131,-140,197,-324,197,-551c0,-158,-29,-292,-89,-402C1317,203,1233,116,1123,52C1014,-11,897,-43,770,-43Z" 
id="f1_1o"
transform="scale(4.8828125E-4,-4.8828125E-4)" />

<path d="M781,118c111,0,206,52,284,159c79,105,118,261,118,466c0,192,-42,343,-127,455c-72,98,-162,146,-271,146c-108,0,-195,-45,-259,-136C461,1118,429,966,429,752c0,-234,32,-398,98,-492C593,165,677,118,781,118ZM726,-14C565,-14,429,52,316,188C205,324,148,504,148,729c0,241,72,434,216,579c113,113,243,169,389,171c90,-2,171,-26,243,-72c72,-47,135,-118,187,-211v808c0,42,-16,75,-48,101c-32,25,-82,37,-150,38H888v118l560,31V330c0,-76,17,-131,48,-163c32,-34,79,-49,140,-49h109V0H1227l-44,292C1126,188,1059,112,982,61C906,9,820,-14,726,-14Z" 
id="f1_1d"
transform="scale(4.8828125E-4,-4.8828125E-4)" />

<path d="M788,-14C663,-14,556,28,471,115C383,200,341,345,341,550v622c0,53,-22,95,-66,124c-31,19,-92,30,-186,35v117l518,16V523c0,-117,27,-205,84,-268c56,-62,128,-93,217,-93c108,0,201,44,279,136c76,92,115,206,115,344v530c0,49,-17,85,-52,113c-35,26,-103,41,-200,46v117l518,16V286c0,-55,13,-97,42,-126c29,-29,71,-42,123,-42h85V0L1331,-14l-29,312C1216,193,1132,115,1048,63C963,11,877,-14,788,-14Z" 
id="f1_1u"
transform="scale(4.8828125E-4,-4.8828125E-4)" />

<path d="M778,-43C579,-43,417,20,292,153C167,284,104,460,104,678c0,254,69,450,205,590c137,139,298,209,482,211c139,-2,254,-40,344,-115c92,-78,136,-162,136,-255c0,-56,-17,-102,-52,-139c-32,-35,-72,-53,-117,-53c-1,0,-3,0,-5,0c-2,0,-4,0,-6,0c-43,0,-81,16,-112,46c-30,30,-47,68,-47,113c0,42,17,85,49,126c17,19,24,34,24,46c0,28,-18,57,-56,84c-40,28,-92,41,-158,43C671,1373,579,1329,518,1238C429,1105,385,930,385,715C385,509,425,351,504,246C583,142,683,89,805,89c1,0,3,0,5,0c1,0,2,0,3,0c170,0,295,114,377,340l112,-30C1222,102,1047,-43,778,-43Z" 
id="f1_1c"
transform="scale(4.8828125E-4,-4.8828125E-4)" />

<path d="M993,-606C830,-460,706,-338,622,-236C486,-72,382,99,312,280C241,461,206,651,206,848c0,194,34,377,100,553c65,174,163,342,290,501c88,109,221,243,397,403l41,-84C886,2067,776,1930,704,1806C634,1681,581,1540,544,1383C506,1225,487,1043,487,839c0,-200,20,-378,58,-532C585,151,642,8,715,-118c73,-130,179,-266,319,-408l-41,-80Z" 
id="f1_3"
transform="scale(4.8828125E-4,-4.8828125E-4)" />

<path d="M784,-43C642,-43,509,2,387,96L275,-28H193L162,532H266C332,353,406,229,489,160C571,93,672,60,791,60c3,0,5,0,8,0c3,0,7,0,10,0c110,0,193,24,253,71c61,49,91,113,91,190c0,43,-12,79,-33,113c-23,32,-54,56,-92,73c-40,16,-142,40,-307,72C564,611,454,643,391,678C328,712,280,759,244,820c-35,60,-51,126,-51,198c0,106,35,204,105,293c90,111,217,166,380,168c126,-2,240,-52,346,-154l100,110h63l40,-518H1123c-44,160,-105,278,-180,350c-77,71,-170,106,-280,108c-96,-2,-171,-27,-226,-79c-55,-51,-83,-115,-83,-187c0,-67,26,-122,75,-163C480,900,579,866,726,842c172,-29,284,-54,336,-74c81,-30,143,-76,188,-139c44,-62,65,-140,65,-229C1315,275,1267,170,1166,84C1066,-1,938,-43,784,-43Z" 
id="f1_1s"
transform="scale(4.8828125E-4,-4.8828125E-4)" />

<path d="M70,-606l-41,80c141,142,246,278,321,406C423,8,480,151,518,307c40,154,58,332,58,530c0,206,-18,388,-55,546c-38,157,-93,298,-165,423C287,1930,177,2069,29,2221l41,84C249,2143,379,2012,461,1913C590,1754,689,1586,756,1409C823,1230,857,1043,857,848C857,654,825,471,759,301C695,128,597,-39,466,-204C373,-320,241,-454,70,-606Z" 
id="f1_4"
transform="scale(4.8828125E-4,-4.8828125E-4)" />

<path d="M730,-43L232,1224c-15,35,-35,58,-55,70c-20,11,-55,18,-104,21v120H697V1315H614c-40,0,-70,-7,-87,-18c-17,-12,-26,-27,-26,-46c0,-21,5,-44,15,-65L836,373l278,768c-34,84,-66,136,-96,152c-30,15,-81,22,-156,22v120h687V1315h-58c-52,0,-88,-7,-108,-19c-22,-13,-31,-31,-31,-51c0,-20,5,-38,14,-59L1693,373l260,722c18,45,25,83,25,117c0,30,-12,53,-39,73c-26,15,-77,27,-150,30v120h558V1315c-69,-10,-123,-32,-158,-61c-35,-32,-65,-78,-90,-139L1681,-43h-91L1189,955L825,-43Z" 
id="f1_1w"
transform="scale(4.8828125E-4,-4.8828125E-4)" />

<path d="M801,-502c175,0,308,29,397,86c88,58,133,121,133,191c0,41,-14,79,-42,116c-27,35,-71,63,-132,81C1097,-10,1008,0,892,0C704,0,570,-25,490,-77C411,-129,370,-190,370,-262c0,-69,30,-122,90,-162c79,-52,194,-78,341,-78Zm4,1108c87,0,160,34,217,100c58,67,87,163,87,290c0,115,-30,208,-88,277c-60,67,-133,100,-223,102c-91,-2,-164,-35,-222,-99c-58,-66,-89,-158,-89,-274c0,-127,31,-224,89,-293C633,640,704,606,793,606c2,0,4,0,6,1c2,-1,4,-1,6,-1ZM764,-606c-220,0,-384,40,-491,121c-82,61,-125,132,-125,211c0,58,26,113,80,163c53,49,143,88,269,111C396,24,319,60,269,108c-51,49,-76,110,-76,182c0,66,21,124,64,174c41,49,114,91,220,129C387,639,319,695,275,762c-44,68,-69,144,-69,233c0,136,57,250,165,343c109,94,252,139,427,141c71,-2,140,-12,206,-31c67,-18,131,-47,194,-87c105,97,201,145,290,147c52,-2,96,-17,131,-47c36,-31,51,-69,51,-110c0,-37,-11,-66,-35,-91c-22,-21,-48,-33,-76,-33c-2,0,-4,0,-5,0c-1,0,-3,0,-4,0c-57,0,-96,35,-115,104c-10,29,-25,42,-45,44c-35,-2,-75,-24,-119,-70c46,-61,77,-115,93,-159c17,-46,26,-93,26,-144c0,-91,-21,-171,-64,-240C1283,694,1212,633,1112,581C1016,529,923,503,836,503c-3,0,-5,0,-8,0H662C544,501,466,489,426,464C390,437,370,399,370,350c0,-43,15,-75,47,-96c31,-22,92,-32,177,-32l378,15c189,-2,327,-34,411,-96c84,-65,125,-151,125,-261c0,-122,-47,-226,-145,-308C1230,-547,1030,-606,764,-606Z" 
id="f1_1g"
transform="scale(4.8828125E-4,-4.8828125E-4)" />

<path d="M445,-43c-52,0,-98,16,-136,52C270,44,252,87,252,139c0,52,18,95,55,131c38,36,84,54,138,55c53,-1,99,-19,136,-55c36,-35,55,-79,55,-129C636,89,617,44,581,9C544,-27,498,-43,445,-43Zm6,1152c-2,0,-4,0,-6,0c-2,0,-5,0,-7,0c-50,0,-94,18,-131,54c-37,35,-55,79,-55,131c0,49,18,92,55,128c38,37,84,55,136,57c54,-2,101,-20,138,-55c36,-37,55,-80,55,-130c0,-53,-17,-98,-55,-133c-36,-34,-78,-52,-130,-52Z" 
id="f1_j"
transform="scale(4.8828125E-4,-4.8828125E-4)" />

<path d="M952,89c102,0,183,47,244,139c80,117,119,285,119,504c0,214,-33,370,-103,467c-71,97,-156,145,-262,145c-114,0,-207,-50,-281,-149C597,1094,562,929,562,700C562,480,597,324,668,229C738,136,830,89,942,89c2,0,3,0,5,0c2,0,3,0,5,0ZM325,-14L266,0c21,116,30,238,30,365V1983c0,49,-16,87,-50,118c-34,27,-81,41,-142,42H44v118l518,31V1228c60,83,127,145,199,187c73,41,153,62,238,64c168,-2,309,-67,425,-199c116,-131,173,-304,173,-518c0,-233,-62,-421,-187,-563C1285,55,1131,-14,946,-14C859,-14,779,2,707,37C637,72,564,131,487,215C431,121,377,44,325,-14Z" 
id="f1_1b"
transform="scale(4.8828125E-4,-4.8828125E-4)" />

<path d="M1259,-43C1071,-43,898,2,741,96C584,189,457,324,364,501C269,678,222,872,222,1083c0,225,48,434,146,631c96,196,220,344,371,443c153,98,317,148,491,148c98,0,192,-16,284,-48c90,-33,191,-89,298,-170l95,218h119l44,-915H1951c-66,255,-151,445,-252,569c-127,151,-277,227,-452,229c-190,-2,-344,-86,-463,-254C666,1763,607,1479,607,1076C607,735,674,477,811,299C929,148,1092,73,1303,73c185,0,339,58,463,176c125,118,206,296,245,535h103C2082,516,1991,312,1836,170C1684,26,1493,-43,1259,-43Z" 
id="f1_n"
transform="scale(4.8828125E-4,-4.8828125E-4)" />

<path d="M941,73c122,0,222,43,297,133c74,89,111,223,111,402c0,188,-34,324,-102,410c-71,84,-165,126,-289,128C830,1144,724,1098,642,1008C559,915,518,788,518,625C518,445,558,309,637,215C717,121,819,73,941,73ZM937,-36C796,-36,671,0,561,73C449,148,359,264,290,423C220,582,185,768,185,981c0,227,44,434,130,620c85,187,194,327,327,420c134,92,273,139,418,141c148,-2,277,-41,381,-122c87,-68,130,-147,130,-240c0,-61,-19,-113,-55,-152c-36,-39,-80,-59,-131,-59c-2,0,-4,0,-5,0c-2,0,-4,0,-6,0c-45,0,-86,17,-120,50c-35,32,-53,72,-53,118c0,31,11,66,29,105c18,34,26,61,26,84c0,26,-14,49,-41,69c-37,23,-89,35,-153,37c-99,-2,-190,-34,-274,-95C707,1894,637,1786,581,1635C523,1483,495,1312,495,1123c0,-28,2,-70,5,-122c81,104,165,177,252,223c88,46,185,69,290,70c171,-1,313,-60,429,-173c116,-114,173,-258,173,-429c0,-211,-66,-385,-203,-522C1305,31,1138,-36,937,-36Z" 
id="f2_9"
transform="scale(4.8828125E-4,-4.8828125E-4)" />

<path d="M148,0V118H332c32,0,58,6,76,20c20,13,34,32,43,56c4,15,7,58,7,130V1951c0,84,-9,137,-27,159c-18,21,-60,32,-124,33H148v118h961V2143H932c-61,-1,-102,-12,-121,-33c-18,-22,-27,-75,-27,-159V1256H1818v695c0,87,-9,141,-27,160c-19,22,-62,31,-130,32H1493v118h976V2143H2290c-44,-1,-75,-6,-93,-18c-18,-11,-34,-30,-44,-56c-6,-19,-10,-65,-10,-136V312c0,-80,7,-127,20,-142c28,-36,77,-52,149,-52h157V0H1493V118h168c68,0,113,16,137,53c14,18,20,70,20,153v785H784V312c0,-80,6,-129,17,-144c26,-34,70,-50,131,-50h177V0Z" 
id="f1_s"
transform="scale(4.8828125E-4,-4.8828125E-4)" />

<path d="M796,-36C620,-36,478,11,368,110C258,208,203,325,203,463c0,81,17,145,52,189c35,45,80,68,136,69c52,-1,96,-20,132,-55c33,-35,50,-82,50,-137c0,-45,-9,-78,-28,-101C527,403,493,383,443,368C396,350,370,330,370,310c0,-33,17,-69,46,-107c32,-40,77,-70,140,-93C617,84,689,73,770,73c159,0,278,48,362,147c83,96,124,255,124,477c0,198,-41,345,-125,438c-84,93,-191,139,-323,141c-58,-2,-117,-16,-177,-40C571,1208,513,1170,452,1120c-6,-72,-20,-119,-41,-144C392,955,368,943,338,943c-1,0,-3,0,-5,0c-2,0,-4,-1,-6,-1c-20,0,-35,8,-47,21c-14,13,-22,33,-22,61c0,42,22,87,63,131c12,11,23,24,27,35l35,449c14,176,22,350,22,523c249,-61,453,-92,613,-92c4,0,8,0,12,0c7,0,15,0,23,0c67,0,130,6,191,17c67,11,117,26,149,44c17,8,29,11,34,12c9,-1,14,-9,14,-22c0,-37,-22,-84,-66,-141c-44,-58,-105,-104,-183,-137c-74,-34,-158,-51,-254,-51c-4,0,-8,0,-12,0c-4,0,-9,0,-13,0c-113,0,-247,20,-403,55L464,1268c77,38,149,67,217,87c69,20,135,29,197,31c196,-2,360,-68,492,-199c135,-131,201,-295,201,-486c0,-217,-72,-392,-216,-531C1212,31,1025,-36,796,-36Z" 
id="f2_8"
transform="scale(4.8828125E-4,-4.8828125E-4)" />

<path d="M651,842v179H2484V842Z" 
id="f3_3"
transform="scale(4.8828125E-4,-4.8828125E-4)" />

<path d="M1207,73c131,0,246,35,345,106c100,69,179,180,237,331c60,153,89,352,89,599c0,269,-28,480,-84,631c-55,151,-133,264,-236,338c-100,72,-215,108,-342,110c-198,-2,-359,-83,-483,-246C610,1777,547,1509,547,1140C547,736,611,457,738,304C863,150,1021,73,1207,73Zm-6,-116C1021,-43,849,3,691,102C532,200,403,342,307,527C212,709,162,914,162,1140c0,220,47,418,141,596c93,177,221,316,383,418c162,101,330,151,506,151c191,0,371,-50,537,-149c165,-100,297,-240,392,-419c94,-179,140,-380,140,-602c0,-226,-46,-428,-142,-608C2026,347,1894,206,1729,107C1563,5,1387,-43,1201,-43Z" 
id="f1_y"
transform="scale(4.8828125E-4,-4.8828125E-4)" />

<path d="M961,74c0,0,46,97,89,147H312v65h738c0,0,-43,50,-89,146h54c0,0,94,-111,201,-165V240c0,0,-107,-55,-201,-166Z" 
id="f4_1mh"
transform="scale(0.001,-0.001)" />

<path d="M1487,0V843H666v178h821v843h177V1021h820V843H1664V0Z" 
id="f5_2"
transform="scale(4.8828125E-4,-4.8828125E-4)" />

<path d="M387,-21c0,0,-8,0,-16,1c0,0,-114,6,-210,63c0,0,-96,58,-96,193c0,0,0,46,27,83c0,0,28,37,76,37c0,0,37,0,68,-24c0,0,30,-24,30,-64c0,0,0,-31,-7,-45c0,0,-7,-15,-23,-27c0,0,-5,-5,-13,-9c0,0,-7,-5,-15,-9c0,0,-3,-2,-5,-3c0,0,-2,-2,-6,-3c0,0,-7,-5,-13,-10c0,0,-5,-6,-8,-15c0,0,-1,-1,-2,-4c0,0,-1,-2,1,-5c0,0,0,-2,0,-4c0,0,0,-2,1,-4c0,0,3,-15,18,-28c0,0,14,-13,32,-22c0,0,10,-6,19,-11c0,0,10,-4,18,-7c0,0,8,-4,15,-6c0,0,8,-2,14,-4c0,0,23,-4,45,-6c0,0,22,-1,46,-1c0,0,113,0,163,69c0,0,49,69,49,173c0,0,0,95,-40,170c0,0,-36,68,-134,68c-5,0,-10,-1,-16,-1l-73,-1c0,0,-3,-2,-5,-2h-6c0,0,-3,-1,-5,-1h-5c0,0,-7,0,-12,1c0,0,-5,2,-11,3c0,0,-8,2,-14,8c0,0,-6,7,-9,15c0,0,-2,1,-2,3c0,0,0,2,0,4c0,0,0,30,18,37c0,0,15,5,35,5c2,0,4,0,7,0h13c0,0,4,-2,7,-2h7c0,0,3,0,7,0c0,0,4,-1,9,-1c0,0,5,0,15,0c16,0,44,0,72,4c0,0,42,5,74,42c0,0,23,26,35,60c0,0,11,33,14,68c0,0,0,11,1,22c0,0,1,10,1,21c0,0,0,89,-40,143c0,0,-40,54,-136,54c0,0,-14,0,-31,-1c0,0,-16,-2,-33,-5c0,0,-31,-6,-60,-20c0,0,-29,-14,-44,-38c0,0,-2,0,-3,-4c0,0,-2,-4,-3,-7c0,0,0,-3,-1,-6c0,0,-1,-3,-1,-4c0,0,0,-5,2,-8c0,0,1,-3,3,-6c0,0,1,-2,3,-4c0,0,1,-2,3,-4l12,-7c0,0,17,-13,30,-33c0,0,13,-19,13,-41c0,0,0,-38,-23,-66c0,0,-23,-28,-64,-28c0,0,-46,0,-73,32c0,0,-26,33,-26,76c0,0,0,20,6,46c0,0,7,27,23,55c0,0,29,53,97,97c0,0,68,45,188,45c0,0,123,0,217,-66c0,0,95,-66,95,-200c0,0,0,-99,-63,-164c0,0,-64,-64,-155,-85v-2c0,0,113,-18,180,-90c0,0,66,-72,66,-188c0,0,0,-151,-108,-227c0,0,-108,-75,-249,-75Z" 
id="f6_n"
transform="scale(0.001,-0.001)" />

<path d="M45,0V69c0,0,13,0,33,0c0,0,20,1,40,4c0,0,37,5,66,15c0,0,30,10,30,30V985c0,0,0,26,-28,35c0,0,-28,10,-62,11H58c0,0,-7,0,-13,2v70H552v-69c0,0,-11,-1,-28,-2c0,0,-18,-1,-36,-1c0,0,-22,-1,-41,-2c0,0,-19,-1,-28,-2c0,0,-14,-2,-25,-13c0,0,-10,-12,-12,-26c0,0,-1,-1,-1,-3c0,0,0,-3,0,-4V609H891V993c0,0,0,11,-9,20c0,0,-8,9,-20,12c0,0,-11,3,-31,5c0,0,-20,1,-40,1c0,0,-9,2,-17,2H723v70h505v-69c0,0,-10,-1,-20,-1h-21c0,0,-24,0,-48,-1c0,0,-24,-1,-48,-5c0,0,-18,-4,-26,-10c0,0,-8,-7,-8,-26V119c0,0,0,-17,13,-27c0,0,13,-11,32,-16c0,0,19,-4,40,-6c0,0,21,-1,42,-1h21c0,0,10,0,20,-2V0H720V69h78c0,0,33,1,61,10c0,0,29,10,30,43l2,408H381V115c0,0,0,-16,12,-27c0,0,12,-12,27,-15c0,0,10,-1,27,-3c0,0,18,-1,36,-1c0,0,20,-2,38,-2h28V0Z" 
id="f6_18"
transform="scale(0.001,-0.001)" />

<path d="M424,-189c0,0,-180,112,-275,284c0,0,-94,172,-94,383c0,0,0,101,27,199c0,0,28,98,77,185c0,0,47,82,117,149c0,0,71,66,150,114v-42c0,0,-5,-4,-9,-8c0,0,-5,-4,-9,-7c0,0,-34,-26,-66,-60c0,0,-32,-35,-58,-71c0,0,-6,-11,-12,-21c0,0,-6,-10,-13,-19c0,0,-29,-55,-43,-111c0,0,-15,-56,-27,-118c0,0,-4,-25,-7,-51c0,0,-2,-26,-3,-51c0,0,-2,-28,-2,-54c0,0,0,-26,0,-50c0,0,0,-43,2,-93c0,0,3,-51,9,-103c0,0,9,-70,28,-136c0,0,19,-67,54,-117c0,0,31,-42,70,-85c0,0,40,-43,84,-75v-42Z" 
id="f6_c"
transform="scale(0.001,-0.001)" />

<path d="M40,0V53H81c0,0,2,-1,5,-1c0,0,1,1,2,1c0,0,3,0,7,0h12c0,0,16,2,29,4c0,0,14,1,25,7c0,0,7,17,10,35c0,0,2,17,2,35c0,0,0,5,0,10c0,0,0,6,0,10c0,0,0,5,0,9c0,0,0,4,0,7V522c0,0,0,2,0,4c0,0,0,3,0,6c0,0,0,19,-1,38c0,0,0,18,-7,36c0,0,-6,11,-16,13c0,0,-10,3,-19,4h-1c0,0,-3,0,-6,1c0,0,-2,1,-4,1l-92,4v65l287,15V122c0,0,0,-4,0,-8c0,0,0,-4,0,-6c0,0,0,-29,5,-40c0,0,5,-11,39,-13c0,0,4,0,10,-1c0,0,5,-1,11,-1c0,0,5,0,10,0c0,0,5,-1,11,-1h41V0ZM234,912c0,0,-37,0,-63,29c0,0,-26,29,-26,64c0,0,0,35,28,61c0,0,29,26,62,26c0,0,37,0,64,-27c0,0,26,-26,26,-62c0,0,0,1,0,1v-2c0,0,0,1,0,1c0,-4,-1,-38,-28,-64c0,0,-28,-27,-63,-27Z" 
id="f6_25"
transform="scale(0.001,-0.001)" />

<path d="M83,-189v43c0,0,3,2,6,4c0,0,3,2,8,4c0,0,3,3,6,4c0,0,3,2,6,5c0,0,20,18,37,36c0,0,18,17,33,36c0,0,37,39,64,82c0,0,28,44,46,103c0,0,26,86,35,170c0,0,9,85,9,172c0,0,0,55,-2,110c0,0,-2,55,-13,110c0,0,-20,109,-52,182c0,0,-32,73,-98,139c0,0,-16,18,-37,37c0,0,-21,18,-45,36v42c0,0,183,-113,276,-292c0,0,92,-179,92,-391c0,0,0,-98,-28,-195c0,0,-28,-97,-79,-182c0,0,-47,-77,-117,-142c0,0,-69,-65,-147,-113Z" 
id="f6_d"
transform="scale(0.001,-0.001)" />

<path d="M582,-21c0,0,-231,0,-372,161C210,140,68,303,68,524c0,0,0,113,31,217c0,0,31,104,104,191c0,0,73,90,166,141c0,0,94,51,211,51h13c0,0,7,0,13,-1c0,0,71,-3,136,-29c0,0,66,-26,115,-75v1l62,97h57L997,676l-65,-3c0,0,-2,6,-4,13c0,0,-2,6,-4,14c0,0,-9,27,-18,56c0,0,-8,28,-19,55c0,0,-4,11,-8,20c0,0,-4,9,-8,19c0,0,-16,35,-33,64c0,0,-18,29,-47,56c0,0,-4,5,-9,8c0,0,-5,4,-9,9c0,0,-41,35,-90,52c0,0,-48,17,-101,17c0,0,-90,0,-159,-51c0,0,-69,-50,-102,-133c0,0,-14,-32,-23,-64c0,0,-8,-32,-14,-62c0,0,-11,-54,-14,-109c0,0,-3,-55,-3,-114c0,0,0,-11,0,-22c0,0,0,-12,0,-23c0,0,6,-161,73,-297c0,0,68,-136,265,-136c0,0,159,0,240,98c0,0,82,99,105,244l70,-11c0,0,-26,-186,-136,-292C884,84,773,-21,582,-21Z" 
id="f6_13"
transform="scale(0.001,-0.001)" />

<path d="M43,0V53c0,0,16,-1,36,-1c5,0,10,1,15,1c0,0,25,0,50,4c0,0,9,3,14,8c0,0,5,5,10,14c0,0,2,8,2,16c0,0,1,9,1,18c0,0,0,5,0,9c0,0,0,5,0,9c0,0,0,5,0,8c0,0,0,3,0,6V982c0,0,0,8,-1,16c0,0,0,7,-3,13c0,0,-2,5,-4,10c0,0,-3,4,-6,9c0,0,-12,9,-26,12c0,0,-13,3,-29,3H69l-40,2v64l283,15V105c0,0,0,-4,0,-7c0,0,0,-3,0,-6c0,0,0,-6,1,-13c0,0,2,-6,5,-12c0,0,1,-3,4,-5c0,0,3,-2,8,-4c0,0,2,-1,4,-2c0,0,2,-1,4,-1c0,0,9,-2,17,-2h25c0,0,7,0,14,0c0,0,8,-1,14,-1l30,1V0Z" 
id="f6_28"
transform="scale(0.001,-0.001)" />

<path d="M356,52c0,0,46,3,88,28c0,0,42,24,70,59c0,0,3,5,6,9c0,0,3,5,6,9c0,0,17,29,21,60c0,0,3,31,3,66c0,0,0,6,0,13c0,0,0,7,0,13v68c0,0,-3,-1,-6,-2c0,0,-4,-1,-9,-2c0,0,-24,-5,-53,-9c0,0,-28,-5,-57,-11c0,0,-78,-18,-143,-57c0,0,-65,-38,-65,-125c0,0,0,-55,38,-87c0,0,39,-32,91,-32ZM283,-22c0,0,-87,0,-151,41c0,0,-65,42,-65,138c0,0,0,98,88,154c0,0,87,56,191,85c0,0,56,17,110,26c0,0,55,9,94,15c0,0,2,21,1,43c0,0,-1,21,-1,44c0,0,0,5,0,10c0,0,-1,5,-1,11c0,0,-3,71,-52,94c0,0,-49,23,-112,23c0,0,-12,0,-24,-1c0,0,-12,-1,-26,-1c0,0,-23,-3,-44,-10c0,0,-22,-7,-37,-21c0,0,-6,-6,-8,-10c0,0,-3,-5,-3,-9c0,0,0,-7,3,-12c0,0,4,-5,8,-13c0,0,2,-3,4,-7c0,0,2,-4,4,-7c0,0,6,-10,10,-23c0,0,5,-12,5,-25c0,0,0,-40,-24,-58c0,0,-25,-17,-62,-17c0,0,-41,0,-61,29c0,0,-20,29,-20,67c0,0,0,50,35,89c0,0,34,38,77,58c0,0,21,10,41,17c0,0,20,7,38,12c0,0,26,6,52,8c0,0,26,2,55,2c0,0,13,0,25,0c0,0,12,-1,24,-1c0,0,26,-3,51,-8c0,0,24,-4,47,-12c0,0,92,-34,113,-89c0,0,21,-56,22,-143v-2q0,1,0,2L685,212c0,0,0,-16,0,-33c0,0,0,-17,1,-34c0,0,0,-4,1,-11c0,0,1,-6,3,-10c0,0,3,-14,9,-25c0,0,7,-10,18,-16c0,0,5,-4,10,-7c0,0,5,-3,11,-3c0,0,3,-1,6,-1h5c0,0,5,0,9,1c0,0,5,0,9,2c0,0,7,1,12,4c0,0,5,2,10,4c0,0,6,1,11,3c0,0,6,3,10,4c0,0,12,-1,16,-6c0,0,4,-4,4,-17c0,0,-9,-30,-37,-49C793,18,764,0,732,-8c0,0,-10,-2,-20,-3c0,0,-9,-2,-18,-2c0,0,-58,0,-89,28c0,0,-32,28,-47,83C558,98,508,37,434,7c0,0,-73,-29,-151,-29Z" 
id="f6_1x"
transform="scale(0.001,-0.001)" />

<path d="M392,55c0,0,95,0,133,68c0,0,39,68,48,149c0,0,3,26,4,52c0,0,2,26,2,51c0,0,0,21,-2,43c0,0,-1,22,-4,45c0,0,-13,76,-52,139c0,0,-40,63,-127,63v1c0,0,-90,-1,-128,-66c0,0,-39,-65,-49,-145c0,0,-3,-27,-5,-54c0,0,-1,-26,-1,-51c0,0,0,-55,6,-105c0,0,7,-49,32,-98c0,0,21,-41,59,-66c0,0,39,-26,84,-26Zm53,-367v54h49c0,0,59,3,72,15c0,0,12,12,12,79V97h-3C575,97,543,34,489,6c0,0,-53,-27,-122,-27c0,0,-78,0,-135,30c0,0,-56,31,-105,92c0,0,-32,41,-49,94c0,0,-17,53,-22,106c0,0,-1,11,-1,21c0,0,0,10,0,20c0,0,0,150,88,269c0,0,88,119,248,119c0,0,14,0,28,-1c0,0,13,-2,29,-6c0,0,50,-13,98,-45c0,0,47,-33,70,-78v2l72,107h56c0,0,-1,-12,-4,-26c0,0,-3,-14,-6,-29c0,0,-5,-23,-9,-50c0,0,-5,-26,-7,-54V-179c0,0,0,-3,0,-5c0,0,0,-3,0,-6c0,0,0,-33,7,-49c0,0,6,-15,47,-18h34c0,0,7,0,16,-1c0,0,8,0,16,0v-54Z" 
id="f6_2d"
transform="scale(0.001,-0.001)" />

<path d="M211,-21c0,0,-38,0,-68,26c0,0,-30,28,-30,66v1c0,0,0,38,29,66c0,0,29,27,68,27c0,0,38,0,66,-28c0,0,28,-28,28,-66c0,0,0,-37,-28,-65c0,0,-28,-27,-65,-27Z" 
id="f6_i"
transform="scale(0.001,-0.001)" />

<path d="M977,-22L292,912h-3V280c0,0,0,-5,0,-8c0,0,0,-3,0,-5c0,0,0,-44,5,-84c0,0,4,-41,35,-76c0,0,14,-11,30,-18c0,0,16,-8,32,-13c0,0,10,-1,20,-3c0,0,10,-1,20,-3c0,0,11,-1,21,-2c0,0,10,-1,19,-1V0H29V69c0,0,2,-1,5,-1c1,0,2,0,2,0c0,0,4,1,9,1c0,0,23,3,45,7c0,0,22,3,43,11c0,0,37,14,53,51c0,0,16,38,22,79c0,0,2,24,2,48c0,0,1,24,1,42V984c0,0,-20,26,-46,36c0,0,-27,10,-61,11c0,0,-9,0,-18,1c0,0,-9,1,-18,1H29v70H349L955,279h3V858c0,0,-3,97,-39,133c0,0,-36,36,-135,42v70h429v-69c0,0,-111,-7,-142,-50c0,0,-30,-43,-35,-147V-22Z" 
id="f6_1e"
transform="scale(0.001,-0.001)" />

<path d="M596,45c0,0,169,0,238,119c0,0,69,119,84,263c0,0,3,30,4,61c0,0,2,32,2,62v2c0,0,0,39,-3,97c0,0,-3,57,-17,118c0,0,-23,108,-92,199c0,0,-68,90,-220,90c0,0,-169,0,-238,-119c0,0,-69,-120,-84,-263c0,0,-3,-31,-4,-62c0,0,-2,-31,-2,-62c0,0,0,-41,3,-98c0,0,3,-58,17,-119c0,0,23,-108,92,-198c0,0,68,-90,220,-90Zm0,-66c0,0,-239,0,-383,174C213,153,68,329,68,550c0,0,0,44,9,93c0,0,8,48,25,98c0,0,49,144,170,264c0,0,122,119,320,119c0,0,239,0,383,-176c0,0,144,-176,145,-397q0,1,0,1v-2q0,1,0,1c0,-4,-1,-48,-9,-93c0,0,-8,-48,-25,-99c0,0,-49,-143,-170,-262C916,97,794,-21,596,-21Z" 
id="f6_1f"
transform="scale(0.001,-0.001)" />

<path d="M970,89c130,0,232,36,312,108c82,72,122,164,122,278c0,110,-40,197,-122,261c-81,65,-234,141,-459,231C729,924,658,869,614,801C570,730,547,639,547,526C547,387,585,280,660,203C735,127,833,89,955,89c3,0,5,0,8,0c2,0,5,0,7,0Zm115,1222c85,59,142,114,171,168c30,52,46,118,46,195c0,104,-34,188,-101,253c-66,65,-154,97,-266,99c-102,-2,-186,-31,-249,-87c-63,-57,-95,-129,-95,-214c0,-83,32,-151,93,-209c62,-58,196,-126,401,-205ZM927,-59C703,-59,526,-7,399,96C270,202,206,336,206,501c0,119,35,222,106,306c70,82,197,157,379,221c-156,69,-263,147,-323,232c-58,84,-87,185,-87,306c0,165,64,307,190,428c126,117,285,179,476,179c190,0,344,-46,460,-135c116,-90,174,-194,174,-312c0,-88,-26,-169,-81,-243c-55,-73,-154,-145,-296,-216c186,-81,315,-170,380,-263c68,-96,101,-214,101,-356c0,-211,-67,-381,-205,-512C1346,6,1161,-59,927,-59Z" 
id="f0_d"
transform="scale(4.8828125E-4,-4.8828125E-4)" />

<path d="M455,0L275,110l6,1354H-4l-90,177H293c-62,69,-94,153,-94,249c0,30,7,67,24,108c14,40,37,78,67,116c29,39,69,71,121,97c50,24,112,38,183,38c103,-3,220,-34,350,-96c132,-66,246,-142,344,-230V1812c-99,82,-205,150,-312,203c-110,51,-204,78,-285,78C591,2090,512,2056,452,1991c-62,-64,-93,-133,-93,-203c0,-69,9,-117,28,-147H648l90,-177H455V0Z" 
id="f7_23"
transform="scale(4.8828125E-4,-4.8828125E-4)" />

<path d="M1118,0L937,110l6,755H539c-16,0,-30,0,-42,-2c-16,-3,-25,-14,-25,-27V671c-4,-43,-21,-66,-48,-66c-2,0,-4,0,-5,0c-1,0,-2,0,-2,0c-14,0,-32,17,-56,50c-25,29,-52,65,-81,106c-26,44,-49,82,-69,117c-22,34,-32,59,-32,72c0,32,14,57,43,72c27,12,82,18,163,18H943v424H-5l-90,177H1259l90,-177H1118V0Z" 
id="f7_1t"
transform="scale(4.8828125E-4,-4.8828125E-4)" />

<path d="M497,445c-17,0,-40,15,-69,45c-34,29,-69,63,-106,104c-36,39,-67,77,-91,113c-29,32,-45,54,-45,66c0,15,8,31,19,46c10,14,23,21,39,23H377v622H6l-91,177H920l91,-177H558V842h609V666H558V523c0,-54,-20,-78,-61,-78Z" 
id="f7_q"
transform="scale(4.8828125E-4,-4.8828125E-4)" />

<path d="M510,588c121,2,265,74,433,216C889,886,834,944,778,979c-54,34,-126,51,-213,52c-59,-1,-117,-21,-171,-61C342,927,315,865,313,781c0,-58,20,-103,61,-138c34,-36,80,-55,136,-55ZM1118,0L933,110l13,460C892,532,839,500,787,472C735,446,677,432,613,432C493,434,391,480,309,570C225,655,180,762,179,888c0,20,6,49,17,85c9,34,24,69,48,104c25,37,62,69,110,96c45,23,103,35,176,35c40,0,83,-4,127,-9c44,-9,84,-29,119,-61c23,-17,46,-40,72,-67c26,-29,55,-72,85,-124h8v517H0l-89,177H1923l92,-177H1118V924c100,94,194,142,286,144c29,0,63,-8,101,-21c38,-20,75,-49,110,-88c35,-39,66,-90,90,-152c23,-63,34,-139,34,-226c0,-124,-52,-266,-158,-427L1422,299c54,74,100,149,135,230c32,76,49,146,49,207c0,49,-14,87,-43,117c-28,24,-64,36,-110,38c-40,-2,-87,-19,-147,-51C1247,804,1184,758,1118,701V0Z" 
id="f7_14"
transform="scale(4.8828125E-4,-4.8828125E-4)" />

<path d="M-274,1578c-47,80,-99,161,-157,245c-57,82,-103,139,-135,168c-47,58,-104,90,-171,94c-15,-1,-40,-4,-69,-12c-29,-12,-58,-23,-88,-32c-14,20,-38,63,-74,130c-38,63,-58,104,-61,124c3,9,11,17,23,24c12,6,25,9,40,12c37,3,67,7,92,7c1,0,2,0,3,0c88,0,189,-60,305,-179c70,-78,142,-174,214,-292c75,-121,124,-203,147,-251l-69,-38Z" 
id="f7_28"
transform="scale(4.8828125E-4,-4.8828125E-4)" />

<path d="M431,0L249,110l6,1354H21l-89,177H570l90,-177H431V0Z" 
id="f7_22"
transform="scale(4.8828125E-4,-4.8828125E-4)" />

<path d="M883,-22C668,208,478,423,313,626C255,700,218,755,202,791c-16,36,-23,60,-23,75c0,28,7,52,26,77c18,20,36,30,59,32c11,-2,25,-5,43,-9c17,-13,35,-25,54,-36c44,-30,76,-47,94,-48c2,-1,3,-1,4,-1c14,0,23,20,27,62c7,44,9,155,9,333c0,67,-5,130,-15,188H-2l-90,177H947l90,-177H677V924c0,-49,-11,-93,-35,-131C620,750,596,720,568,703C500,655,468,625,472,611c0,-8,18,-29,52,-64c34,-35,73,-79,122,-134C753,301,860,191,966,79L883,-22Z" 
id="f7_1u"
transform="scale(4.8828125E-4,-4.8828125E-4)" />

<path d="M619,634c140,0,211,76,211,234v596H457V801c1,-57,23,-100,61,-127c38,-28,72,-40,101,-40ZM709,500c-32,0,-72,10,-118,33c-46,23,-94,54,-143,93c-45,37,-84,80,-118,129c-35,49,-52,98,-52,148v561H-4l-90,177H1135l90,-177H1008V759C1007,681,976,620,918,574C863,524,793,500,709,500Z" 
id="f7_k"
transform="scale(4.8828125E-4,-4.8828125E-4)" />

<path d="M-77,1864l-203,203l200,200L122,2064L-77,1864Z" 
id="f7_13"
transform="scale(4.8828125E-4,-4.8828125E-4)" />

<path d="M1146,-170C1082,-48,1014,90,941,246C899,230,856,222,813,222c-7,0,-14,1,-22,1C666,223,536,289,400,414C336,475,284,547,244,629c-44,78,-65,165,-65,260c-2,98,33,180,105,246c74,61,211,93,414,95H911v234H-5l-90,177H1250l90,-177H1089V1106c-3,-35,-23,-53,-61,-53c-142,0,-269,-5,-380,-13C541,1028,472,1011,442,990C377,940,345,863,345,764c0,-96,38,-179,115,-249C532,438,626,399,743,397c38,0,71,5,102,16c-43,56,-66,114,-69,171c0,21,8,42,23,64c12,15,32,23,63,23c13,0,35,-5,64,-13c27,-10,56,-24,88,-44c33,-18,60,-40,81,-64c22,-26,33,-52,33,-81c0,-26,-5,-55,-17,-89c-14,-36,-40,-64,-77,-85c29,-51,63,-115,101,-194c37,-80,73,-149,115,-212l-104,-59Z" 
id="f7_1l"
transform="scale(4.8828125E-4,-4.8828125E-4)" />

<path d="M464,0L283,110l6,1354H0l-89,177H328c-27,174,-74,299,-143,377c-73,74,-154,110,-239,112c-127,-5,-189,-103,-188,-295l-64,-25c-9,14,-23,40,-41,78c-17,37,-25,72,-28,106c3,96,34,174,95,230c56,52,130,80,217,81c240,0,399,-220,479,-664H654l92,-177H464V0Z" 
id="f7_24"
transform="scale(4.8828125E-4,-4.8828125E-4)" />

<path d="M1496,0L1311,112l6,886H866C937,927,993,862,1033,799c35,-61,52,-128,52,-203c-2,-89,-32,-154,-92,-197C937,354,878,331,817,331c-2,0,-4,0,-6,1c-2,-1,-5,-1,-7,-1c-77,0,-144,23,-205,68C536,440,478,495,426,565C327,706,238,865,163,1042l103,43C327,937,393,813,463,713c38,-55,85,-99,142,-134c53,-40,101,-58,145,-58c55,0,95,17,121,52c26,34,40,76,40,128c0,42,-11,83,-31,124c-21,37,-50,73,-84,107c-75,73,-151,131,-231,177l26,66h726v289H-11l-92,177H1635l91,-177H1496V0Z" 
id="f7_1a"
transform="scale(4.8828125E-4,-4.8828125E-4)" />

<path d="M1349,-364l-157,140c39,39,59,72,62,104c0,25,-26,55,-79,90L373,480c-63,44,-95,113,-95,206v778H-4l-90,177H1306l90,-177H1108V662c0,-86,-35,-129,-102,-129c-2,0,-4,0,-7,0c-5,0,-10,0,-15,0c-65,0,-136,9,-212,28L665,718c68,-8,126,-9,175,-9c4,0,8,0,12,0c50,0,75,20,75,59v696H455V665c0,-26,6,-51,17,-72c6,-25,14,-40,23,-48L1291,26c67,-43,112,-78,134,-104c17,-29,26,-59,26,-86c-1,-44,-36,-110,-102,-200Z" 
id="f7_12"
transform="scale(4.8828125E-4,-4.8828125E-4)" />

<path d="M454,-10L251,194L451,394L654,189L454,-10Zm0,827L251,1021l200,200L654,1018L454,817Z" 
id="f7_1o"
transform="scale(4.8828125E-4,-4.8828125E-4)" />

<path d="M865,-59C655,-59,493,-10,379,89C264,188,206,315,206,469c0,93,25,165,71,220c47,52,106,79,178,79c66,0,119,-21,162,-64c43,-42,63,-96,63,-157C680,461,640,394,561,344C527,321,506,306,500,295c-8,-9,-13,-22,-13,-37c0,-38,23,-72,69,-102C623,111,695,89,776,89c3,0,5,0,8,0c2,0,4,0,6,0c107,0,192,39,253,116c65,78,95,200,95,365c0,162,-29,283,-87,362c-58,76,-133,116,-223,118c-21,-2,-50,-3,-85,-8c-34,-6,-60,-8,-78,-8c-28,0,-49,8,-65,23c-15,14,-24,35,-24,64c0,29,9,51,26,68c17,13,44,23,79,23c14,0,34,-2,60,-7c27,-5,49,-8,67,-8c4,0,7,1,11,1c2,0,4,0,6,0c89,0,157,32,208,95c50,62,76,166,76,314c0,145,-29,252,-87,318c-56,66,-137,99,-241,101c-72,-2,-126,-14,-162,-37c-38,-24,-57,-47,-57,-73c0,-15,3,-26,8,-34c6,-6,20,-20,44,-39c51,-39,84,-72,101,-100c17,-29,24,-61,24,-98c0,-61,-19,-113,-62,-152c-41,-39,-93,-58,-154,-58c-2,0,-4,0,-7,0c-2,0,-3,0,-5,0c-64,0,-118,24,-161,71c-46,49,-69,112,-69,191c0,110,41,211,125,301c107,116,263,175,468,175c139,0,258,-25,357,-72c100,-48,178,-112,230,-193c50,-81,76,-168,76,-264c0,-106,-32,-199,-98,-283c-66,-82,-176,-154,-328,-215c166,-46,290,-121,374,-222c84,-102,127,-223,127,-363c0,-187,-66,-336,-197,-449C1283,-2,1100,-59,865,-59Z" 
id="f0_8"
transform="scale(4.8828125E-4,-4.8828125E-4)" />

<path d="M843,-22C665,92,509,223,377,374C318,449,270,526,235,603c-38,80,-56,159,-56,237c0,80,27,162,81,248c29,38,64,70,107,96c41,23,88,35,145,35c90,-4,160,-32,209,-79c60,-60,115,-121,162,-182c98,136,196,203,293,203c1,0,2,0,3,0c43,-3,84,-14,124,-35c41,-21,72,-43,92,-63v401H0l-89,177H1711l93,-177H1574V0L1389,112l12,838c-44,34,-90,52,-138,54c-30,-2,-58,-5,-84,-12c-27,-10,-55,-29,-84,-59c-26,-25,-55,-64,-85,-113C978,772,941,710,903,636L762,739c25,49,51,94,74,132c-26,44,-61,82,-106,117c-44,34,-87,51,-125,54c-53,0,-107,-21,-160,-63C388,932,359,859,358,759c0,-52,6,-104,19,-152c16,-51,42,-104,81,-159C535,335,689,209,921,72L843,-22Z" 
id="f7_1w"
transform="scale(4.8828125E-4,-4.8828125E-4)" />

<path d="M614,710c1,0,2,0,3,0c55,0,110,16,168,49c61,26,110,54,144,83v622H455V952C458,790,511,710,614,710ZM1108,0L923,112l12,511C865,578,788,555,706,553c-2,0,-4,0,-6,0c-31,0,-69,12,-112,34c-46,24,-93,55,-140,91c-46,37,-86,81,-120,130c-33,48,-50,98,-50,150v506H-4l-90,177H1920l92,-177H1108V941c56,44,117,84,181,119c69,29,129,45,179,48c29,-2,63,-8,101,-22c40,-20,76,-50,112,-88c35,-40,65,-89,90,-152c24,-64,35,-139,35,-226c0,-120,-52,-262,-158,-423L1488,342c55,74,99,150,135,229c33,77,48,146,48,208c0,49,-13,87,-41,116c-29,23,-66,37,-111,37c-42,-3,-104,-23,-187,-64C1253,825,1176,773,1108,715V0Z" 
id="f7_1g"
transform="scale(4.8828125E-4,-4.8828125E-4)" />

<path d="M-943,-10l-138,122l807,560V519L-943,-10Z" 
id="f7_2d"
transform="scale(4.8828125E-4,-4.8828125E-4)" />

<path d="M869,-320C790,-214,712,-118,639,-33C564,49,513,96,486,112c-34,4,-70,12,-109,22c-39,8,-67,16,-84,22c-24,20,-47,50,-68,92c-23,42,-36,85,-36,132c0,14,13,34,36,55c19,20,47,33,84,34c33,-1,70,-23,108,-63c41,-41,69,-78,83,-108c6,-1,12,-1,18,-1c60,0,127,21,203,64c41,19,73,48,99,87c26,33,40,75,40,126c0,48,-9,81,-24,98c-17,14,-37,20,-63,20C739,689,698,678,651,660C602,640,555,629,509,629c-45,0,-87,19,-129,55c-39,34,-76,74,-107,123c-64,110,-94,207,-94,291c0,57,14,97,41,124c26,20,69,31,130,31H730v211H-8l-92,177H1056l90,-177H897V1135c0,-27,-20,-40,-60,-40H443c-50,0,-84,-9,-99,-26c-22,-18,-31,-39,-31,-65c0,-52,15,-101,46,-144c28,-47,64,-73,109,-75c42,0,88,11,137,31c46,20,90,29,131,32c34,0,68,-12,100,-35c32,-25,59,-57,84,-96c50,-81,76,-149,78,-201C996,405,955,321,874,263C798,202,704,162,597,141L958,-239l-89,-81Z" 
id="f7_10"
transform="scale(4.8828125E-4,-4.8828125E-4)" />

<path d="M1057,67C885,69,724,127,574,244C426,351,295,489,180,652l87,65C402,526,524,399,637,335C742,273,857,243,981,243c6,0,12,0,18,0c4,0,8,0,12,0c50,0,95,9,133,24c42,16,75,36,103,61c53,52,81,107,81,169c-3,81,-32,122,-84,122c-65,-3,-139,-11,-230,-25C924,578,859,567,820,567c-5,0,-10,-1,-15,-1c-44,0,-85,13,-122,37c-44,28,-93,80,-147,158c-59,88,-90,169,-91,241c0,60,21,116,64,167c41,46,96,70,166,73h420v222H5l-90,177H1592l90,-177H1274V1131c0,-17,-6,-33,-15,-43c-10,-16,-24,-23,-41,-23c-2,0,-3,0,-5,0H758C655,1059,607,1013,611,924c0,-81,14,-131,38,-152c25,-21,52,-32,83,-32c4,0,8,1,12,1c17,0,41,5,76,14c34,4,71,9,109,17c85,13,154,21,206,24c63,-3,121,-29,171,-78C1409,611,1461,513,1464,428C1462,316,1424,229,1346,165C1268,99,1172,67,1057,67Z" 
id="f7_1f"
transform="scale(4.8828125E-4,-4.8828125E-4)" />

<path d="M189,755V866h984V755Z" 
id="f7_6"
transform="scale(4.8828125E-4,-4.8828125E-4)" />

<path d="M-303,1509c-64,69,-139,133,-225,191c-84,58,-152,101,-203,132c-50,40,-91,59,-122,59c-14,0,-35,-4,-66,-15c-29,-12,-52,-23,-72,-32c-22,47,-47,104,-74,170c-26,64,-42,104,-45,119c2,21,19,32,52,32c51,0,95,-11,135,-31c39,-23,79,-53,117,-88c63,-48,144,-113,243,-193c100,-85,196,-183,289,-299h37c-14,43,-37,114,-72,212c-35,98,-70,176,-109,235c-23,42,-52,72,-88,97c-35,21,-89,30,-162,32c-19,108,-31,188,-35,240c1,30,13,45,38,45c24,0,58,-12,99,-33c43,-25,87,-70,132,-132c30,-36,58,-84,82,-143c25,-63,49,-129,72,-197c24,-72,47,-136,66,-197c19,-63,33,-115,42,-153l17,-38l-148,-13Z" 
id="f7_29"
transform="scale(4.8828125E-4,-4.8828125E-4)" />

<path d="M614,710c1,0,2,0,3,0c55,0,110,16,168,49c61,26,110,54,144,83v622H455V952C458,790,511,710,614,710ZM1105,0L923,108l12,514C865,578,788,555,706,553c-2,0,-4,0,-6,0c-31,0,-69,12,-112,34c-46,24,-93,55,-140,91c-46,37,-86,81,-120,130c-33,48,-50,98,-50,150v506H-1l-90,177H1254l89,-177H1108V917c84,46,148,68,190,68c1,0,2,0,4,0c30,-1,62,-4,96,-12c35,-9,64,-26,89,-50V767c-39,27,-91,43,-156,43c-63,0,-139,-32,-226,-95V0Z" 
id="f7_o"
transform="scale(4.8828125E-4,-4.8828125E-4)" />

<path d="M759,134c-4,0,-8,0,-12,0C591,134,458,196,351,313C238,425,180,552,179,694c0,76,18,136,53,178c35,40,86,69,151,87c121,33,242,63,366,91c24,3,42,18,55,44c10,24,15,79,15,166c-2,110,-5,179,-9,204H-5l-90,177H1216l92,-177H988c5,-83,7,-204,8,-364c0,-75,-6,-125,-20,-153C959,920,933,903,897,892C804,865,678,834,521,804C406,782,348,709,345,584c0,-40,9,-77,28,-112c15,-34,36,-66,62,-93c56,-58,120,-89,191,-89c1,0,3,0,5,0c2,0,4,0,6,0c145,0,322,55,530,164l78,-170c-55,-33,-125,-66,-212,-98C951,153,858,134,759,134Z" 
id="f7_1d"
transform="scale(4.8828125E-4,-4.8828125E-4)" />

<path d="M1707,0L1522,110l12,610c-38,-16,-75,-23,-110,-25c-37,-6,-66,-9,-87,-9c-26,0,-63,8,-110,24c-46,17,-92,39,-135,68l-4,-6c29,-52,44,-106,46,-159C1132,498,1092,408,1018,344C944,276,848,243,730,243c-2,0,-5,0,-7,0C474,246,263,445,90,839l83,49C305,576,469,420,665,420c3,0,6,0,9,0c2,0,4,0,6,0c89,0,157,32,209,96c52,57,78,126,78,205c-1,58,-17,107,-44,147c-31,40,-69,64,-116,78C772,930,724,914,668,895C613,866,573,854,545,854c-4,0,-15,8,-30,24c-15,13,-32,26,-49,43c-35,38,-53,66,-57,83c0,33,17,50,51,52c3,-1,5,-1,8,-1c14,0,29,3,47,7c23,3,46,6,69,9c53,9,91,14,116,14c26,0,59,21,99,67c43,43,66,101,67,176c0,64,-17,114,-52,152c-35,31,-78,46,-130,48c-36,-2,-73,-8,-110,-20c-36,-12,-71,-31,-105,-50c-66,-48,-107,-72,-124,-74q-1,0,-2,0c-16,0,-30,14,-44,38c-21,42,-41,86,-59,133c58,32,118,58,177,78c58,22,112,31,159,32c38,-1,86,-13,144,-38c61,-26,120,-66,175,-119c55,-54,93,-99,113,-139c17,-43,25,-87,25,-133c0,-47,-14,-90,-40,-133c-29,-43,-64,-73,-105,-95C1021,898,1147,845,1262,845c3,0,6,0,9,0c2,0,4,0,6,0c40,0,85,14,138,41c58,23,94,46,113,69v509H1149l-93,177h790l91,-177H1707V0Z" 
id="f7_z"
transform="scale(4.8828125E-4,-4.8828125E-4)" />

<path d="M619,1134c6,62,9,125,9,186c0,52,-8,99,-21,144c-17,39,-54,61,-114,64c-41,-3,-73,-22,-97,-55c-26,-34,-38,-70,-38,-112c1,-64,30,-116,90,-156c50,-42,108,-65,171,-71ZM1418,0L1234,113l5,573H776V526c-3,-36,-21,-54,-56,-54c-10,0,-32,14,-65,41c-36,23,-73,51,-111,84c-40,36,-75,69,-104,101c-32,32,-49,57,-49,75c0,15,8,31,22,46c10,14,24,21,41,23H597l8,180c-89,28,-162,58,-217,89c-60,32,-102,62,-133,94c-53,68,-78,132,-76,196c-2,61,17,119,55,176c35,56,99,85,189,88c2,0,4,0,6,0c89,0,170,-35,239,-104c71,-73,108,-200,108,-377V842h463v622H1005l-94,177h644l89,-177H1418V0Z" 
id="f7_1q"
transform="scale(4.8828125E-4,-4.8828125E-4)" />

<path d="M591,611c97,2,184,28,263,78c78,46,151,99,220,164v611H622c70,-127,108,-234,113,-323c-3,-70,-35,-128,-99,-172C574,923,492,882,391,849c0,-67,17,-122,51,-165c33,-48,82,-73,149,-73ZM1251,0L1068,110l11,518C1033,585,981,548,923,521C865,492,808,477,755,477C588,478,458,533,368,642C277,741,214,859,182,993c117,23,211,58,281,107c69,43,104,96,104,157c0,32,-11,69,-32,107c-20,39,-37,71,-54,100H0l-89,177H1392l91,-177H1251V0Z" 
id="f7_1s"
transform="scale(4.8828125E-4,-4.8828125E-4)" />

<path d="M1016,-158C825,-111,651,-33,495,73C420,125,361,185,316,251c-47,64,-72,132,-72,209c0,55,11,105,33,150c18,42,41,78,68,105C237,837,180,941,179,1025c0,67,18,122,53,165c37,41,96,63,177,63H851v211H-7l-88,177H1326l90,-177H1030V1138c0,-41,-17,-63,-54,-63c-2,0,-3,1,-4,1H443c-30,-2,-58,-13,-84,-34c-31,-23,-46,-54,-46,-90c0,-29,11,-58,34,-87c20,-31,41,-58,66,-78c30,23,59,41,90,56c30,13,61,22,90,29c59,10,113,14,159,16c84,-3,171,-42,259,-115c40,-35,74,-76,101,-119c25,-44,37,-90,37,-138c0,-65,-17,-122,-54,-168C1056,299,988,261,895,231L796,391c127,25,191,86,192,185c-1,53,-21,96,-61,128c-38,31,-79,46,-126,46C688,747,597,709,533,633C463,556,429,483,429,409c0,-74,52,-158,158,-249C688,66,839,-14,1039,-85l-23,-73Z" 
id="f7_21"
transform="scale(4.8828125E-4,-4.8828125E-4)" />

<path d="M1118,0L933,113l13,885H620c-1,0,-3,0,-5,0C435,998,345,912,345,743c-1,-72,25,-155,77,-248C471,400,558,277,684,127L584,46C434,234,328,391,269,518C206,643,177,753,179,851c0,58,10,108,32,154c21,40,47,75,79,101c69,46,141,69,214,69H941v289H-2l-90,177H1257l92,-177H1118V0Z" 
id="f7_1j"
transform="scale(4.8828125E-4,-4.8828125E-4)" />

<path d="M1001,-11L820,107V1633l181,-119V-11Z" 
id="f7_1n"
transform="scale(4.8828125E-4,-4.8828125E-4)" />

<path d="M585,544c73,0,158,30,252,93c96,55,181,127,255,219c-45,47,-107,94,-181,139c-77,42,-156,67,-242,70C564,1062,483,1036,428,985C373,932,345,874,345,811C351,633,431,544,585,544ZM1274,0L1089,110l13,501C967,478,817,413,649,411c-1,0,-3,0,-4,0c-97,0,-196,46,-295,133c-51,40,-90,90,-122,151c-34,55,-49,118,-49,187c-2,90,29,171,93,246c35,35,79,64,134,85c55,18,123,28,199,29c9,-1,19,-1,29,-1c11,0,21,0,32,1c23,-1,46,-3,70,-6c52,-9,100,-28,144,-55c46,-28,86,-63,119,-105c34,-43,64,-84,90,-126h6v514H-2l-90,177H1413l92,-177H1274V0Z" 
id="f7_1x"
transform="scale(4.8828125E-4,-4.8828125E-4)" />

<path d="M1105,842v622H553V842ZM1285,0L1098,110l7,556H553V523c0,-52,-19,-78,-56,-78c-1,0,-2,0,-4,0c0,0,-1,-1,-2,-1c-15,0,-37,16,-65,46c-33,29,-70,63,-107,104c-38,39,-70,77,-96,113c-29,32,-44,54,-44,66c0,15,6,31,17,46c10,14,24,21,42,23H374v622H2l-90,177H1425l91,-177H1285V0Z" 
id="f7_1r"
transform="scale(4.8828125E-4,-4.8828125E-4)" />

<path d="M840,-36C707,-36,590,-14,493,29C396,73,324,134,277,211c-49,75,-74,162,-74,260c0,76,20,136,57,181c36,45,84,68,140,69c52,-1,95,-18,126,-52c32,-35,47,-81,47,-137c0,-39,-9,-71,-28,-95C527,411,493,387,445,367C396,342,370,319,370,299c0,-32,17,-65,47,-103c31,-37,78,-68,138,-89C614,83,692,73,784,73c160,0,279,39,357,118c78,78,115,203,115,379c0,180,-31,308,-95,386c-63,77,-157,115,-283,115c-33,0,-74,-5,-125,-11c-41,-6,-69,-7,-88,-7c-28,0,-52,6,-68,20c-16,13,-24,32,-24,55c0,21,8,38,24,53c16,12,42,18,77,20l82,-9l75,-9c3,-1,6,-1,9,-1c124,0,219,33,281,98c66,66,98,165,98,304c0,168,-32,288,-96,359c-66,71,-162,107,-292,109c-118,-2,-212,-23,-283,-63C480,1946,443,1910,443,1876c0,-24,23,-53,69,-90c66,-52,98,-105,98,-160c0,-43,-16,-78,-45,-106c-29,-27,-66,-41,-110,-41c-3,0,-5,0,-7,0c-2,0,-4,0,-6,0c-48,0,-86,18,-118,56c-31,39,-47,92,-47,162c0,107,39,202,116,288c111,117,267,175,473,177c191,-2,346,-52,460,-153c115,-104,171,-229,171,-379c0,-108,-30,-203,-93,-281c-61,-79,-166,-148,-318,-208c142,-36,254,-98,332,-178C1520,857,1571,726,1571,570c0,-176,-62,-316,-185,-423C1247,23,1065,-36,840,-36Z" 
id="f2_6"
transform="scale(4.8828125E-4,-4.8828125E-4)" />

<path d="M133,0V118c108,3,195,38,260,107c64,65,94,149,94,247V2018l-13,17c-36,46,-66,76,-92,87c-32,14,-76,20,-131,21H133v118H680L2040,460V1762c0,129,-28,227,-87,291c-54,57,-133,87,-239,90v118h784V2143c-80,-1,-139,-12,-177,-33c-40,-25,-74,-64,-104,-124c-29,-59,-44,-124,-44,-192V0H2027L620,1867V492c0,-127,34,-219,98,-280c64,-61,165,-93,303,-94V0Z" 
id="f1_x"
transform="scale(4.8828125E-4,-4.8828125E-4)" />

<path d="M614,710c1,0,2,0,3,0c55,0,115,16,177,49c62,26,114,54,158,83v622H455V952C458,790,511,710,614,710ZM1129,0L946,110l10,513C935,610,900,596,851,582C801,564,753,555,707,555c-32,0,-71,10,-117,33c-46,23,-93,54,-142,92c-46,38,-86,81,-118,130c-35,47,-52,98,-52,149v505H-4l-90,177H1270l91,-177H1129V0Z" 
id="f7_1b"
transform="scale(4.8828125E-4,-4.8828125E-4)" />

<path d="M548,1089c126,64,191,142,196,237c0,57,-12,102,-35,138c-25,35,-61,52,-112,53c-56,-1,-107,-18,-152,-53c-51,-34,-78,-84,-78,-150c0,-109,59,-183,181,-225ZM1051,-123L839,278c-20,-8,-47,-12,-80,-12c-11,0,-23,1,-35,1c-46,3,-93,13,-140,26c-48,16,-104,43,-167,83C335,431,275,492,235,559c-38,67,-58,125,-58,173c3,90,100,189,289,299c-29,17,-60,37,-92,58c-32,20,-62,45,-90,72c-61,51,-93,121,-95,208c2,89,37,157,106,208c63,47,133,71,211,73c68,-2,151,-37,249,-104c46,-37,84,-76,114,-119c28,-46,42,-95,42,-148c0,-49,-11,-93,-37,-136C845,1098,796,1051,727,999c52,-44,115,-67,187,-69c5,0,10,0,15,0c88,0,173,12,258,36c87,16,144,30,171,39V828c-86,-35,-173,-54,-260,-54c-3,0,-7,1,-10,1c-4,0,-7,-1,-10,-1c-83,0,-160,19,-232,54C773,859,707,900,649,950C532,880,454,822,411,778C373,732,354,686,356,639c3,-94,32,-155,90,-188c47,-33,91,-50,129,-50c4,0,7,1,10,1c4,0,7,0,11,0c46,0,94,9,142,24c-44,64,-66,118,-66,159c0,26,11,44,34,57c17,10,35,15,55,15c59,-2,116,-24,169,-69c54,-43,81,-76,83,-104c0,-27,-11,-55,-32,-82C964,367,941,339,914,318L1160,-54l-109,-69Z" 
id="f7_2f"
transform="scale(4.8828125E-4,-4.8828125E-4)" />

<path d="M148,0V81L597,590c252,270,402,440,451,512c73,97,127,194,159,287c34,93,49,179,49,255c0,125,-34,224,-104,298c-69,72,-165,108,-290,110C723,2050,608,2017,521,1949C434,1881,388,1810,388,1736c0,-28,8,-48,20,-58c12,-16,40,-28,81,-37c105,-25,157,-87,157,-183c0,-54,-17,-98,-52,-132c-33,-34,-77,-50,-129,-50c-2,0,-4,0,-7,0c-1,0,-3,0,-4,0c-61,0,-114,29,-161,84c-47,56,-71,133,-71,227c0,103,27,197,79,283c53,84,134,153,243,209c108,54,224,81,348,83c122,-2,237,-28,342,-81c107,-54,185,-124,239,-209c53,-88,79,-181,79,-283c0,-72,-12,-144,-39,-214c-26,-75,-66,-142,-118,-205C1308,1060,1218,967,1124,891L720,550C617,461,542,390,495,330c-45,-60,174,-90,655,-90c12,0,24,0,36,0c2,0,5,0,8,0c72,0,124,20,155,58c32,40,69,150,112,330h110L1517,0Z" 
id="f2_5"
transform="scale(4.8828125E-4,-4.8828125E-4)" />

<path d="M419,1208c71,8,123,33,155,72c25,38,37,75,37,113c-4,84,-47,129,-128,135c-45,-2,-77,-15,-100,-41c-24,-31,-38,-65,-38,-100c0,-24,6,-52,17,-82c11,-32,29,-66,57,-97ZM1373,0L1189,113l12,478C1126,521,1057,471,995,443C935,415,874,400,811,400c-3,0,-6,0,-9,0C694,402,585,442,480,519c-49,39,-89,81,-119,130c-33,46,-49,98,-49,153c0,38,12,80,33,122c26,42,69,77,130,104c-46,31,-87,61,-124,90c-38,28,-68,57,-94,89c-52,56,-78,133,-78,229c0,70,24,130,73,180c46,45,102,68,171,69c87,-3,158,-29,211,-76c50,-52,78,-119,79,-205c0,-69,-19,-124,-61,-168c-42,-50,-100,-81,-177,-93c11,-14,29,-28,55,-41c26,-16,58,-23,95,-23c40,0,93,1,159,6c47,0,84,-3,113,-9c46,-68,70,-117,72,-147c0,-12,-2,-20,-6,-25c-7,-6,-17,-9,-34,-9c-3,0,-7,0,-11,0c-73,3,-139,8,-200,14C654,909,599,894,555,863C507,831,483,776,483,701c3,-58,26,-104,72,-137c45,-34,91,-52,139,-52c2,0,4,0,6,0c2,0,3,0,5,0c74,0,153,29,236,84c87,53,171,127,254,220v648H961l-95,177h648l90,-177H1373V0Z" 
id="f7_1m"
transform="scale(4.8828125E-4,-4.8828125E-4)" />

<path d="M814,984c16,49,25,105,26,169c0,115,-18,204,-56,263c-41,57,-93,86,-156,86c-70,-3,-115,-32,-133,-86c-21,-59,-32,-102,-31,-133c0,-134,117,-235,350,-299ZM810,-57L526,387c-28,51,-80,77,-158,81C289,483,237,519,214,578c-23,55,-34,94,-32,122c0,72,41,108,124,111c1,0,2,0,3,0c19,0,39,-12,62,-33c23,-29,55,-75,100,-138c42,11,94,38,155,78c57,38,109,98,158,176C669,924,578,961,509,999c-69,34,-121,70,-158,110c-33,37,-56,74,-70,109c-9,32,-14,65,-14,96c0,34,8,63,22,89c10,24,20,44,29,61H-2l-90,177H1124l91,-177H872c57,-75,97,-141,120,-196c18,-60,27,-110,27,-150C1019,998,984,885,914,778C843,666,733,570,582,489L930,38L810,-57Z" 
id="f7_1y"
transform="scale(4.8828125E-4,-4.8828125E-4)" />

<path d="M-222,1523c-40,66,-86,155,-136,263c-54,108,-81,206,-84,296c3,74,29,136,78,190c49,49,105,75,169,78c49,0,97,-19,143,-58C-7,2250,31,2171,63,2053L6,2037c-25,58,-49,99,-75,123c-26,22,-55,32,-87,32c-42,-1,-77,-23,-106,-62c-27,-40,-44,-87,-47,-142c1,-31,7,-66,18,-106c11,-39,25,-79,37,-122c32,-82,61,-154,85,-214l-53,-23Z" 
id="f7_2c"
transform="scale(4.8828125E-4,-4.8828125E-4)" />

<path d="M503,602c3,0,5,0,7,0c121,1,265,66,433,196C889,883,834,943,778,978c-54,35,-126,52,-213,53c-59,-1,-117,-21,-171,-62C342,924,315,862,313,778c0,-54,20,-95,61,-127c33,-32,76,-49,129,-49ZM1118,0L933,112l13,469C892,542,839,509,787,483C735,455,677,443,613,443C493,445,391,489,309,578C225,663,180,768,179,891c0,21,6,49,17,85c9,34,24,67,48,104c25,34,62,66,110,95c45,21,103,33,176,33c40,0,83,-4,127,-13c43,-9,82,-28,119,-58c23,-16,46,-39,72,-69c26,-31,55,-73,85,-128h8v524H81L-8,1641H1259l90,-177H1118V906c83,50,153,75,213,75c2,0,4,0,6,0c24,0,50,-2,75,-3c26,-5,56,-15,91,-35V761c-49,27,-99,43,-145,43c-44,0,-87,-10,-124,-28c-38,-21,-77,-46,-116,-75V0Z" 
id="f7_h"
transform="scale(4.8828125E-4,-4.8828125E-4)" />

<path d="M636,1069c58,62,85,141,85,239c-4,145,-56,218,-154,220c-51,-3,-93,-23,-130,-58c-41,-35,-61,-81,-61,-135c6,-64,33,-117,79,-163c26,-23,54,-41,84,-57c31,-20,63,-33,97,-46ZM1387,0L1202,110l10,484C1167,548,1109,510,1037,477C966,440,895,422,827,422c-124,1,-225,26,-301,73C448,536,390,579,350,623C248,717,196,776,196,799c-3,8,41,32,134,72c89,35,163,78,225,127c-252,82,-378,197,-376,343c0,69,23,139,72,211c48,74,120,110,215,113c24,-1,61,-6,107,-15c47,-15,95,-38,145,-69c50,-33,95,-75,127,-123c35,-54,53,-118,55,-196C898,1144,859,1045,778,964C695,880,593,807,472,746c11,-69,35,-118,73,-146c37,-29,89,-42,158,-42c95,1,189,33,282,97c91,60,164,124,222,194v615H1022l-96,177h600l90,-177H1387V0Z" 
id="f7_1k"
transform="scale(4.8828125E-4,-4.8828125E-4)" />

<path d="M882,112c-75,0,-150,19,-225,59C588,206,523,254,463,315C341,440,248,579,183,733l106,51C387,594,475,460,556,380C632,304,721,267,818,267c2,0,3,0,5,0c85,0,150,29,198,89c47,53,73,116,74,188c-1,84,-33,150,-94,197c-28,20,-61,41,-104,60c-44,15,-90,29,-142,41C668,821,609,809,577,809c-4,0,-7,0,-10,1c-3,-1,-6,-1,-9,-1c-18,0,-35,8,-49,21c-8,12,-25,36,-51,74c-27,39,-44,68,-47,88c0,16,8,30,23,39c12,6,26,9,41,9c25,0,61,-3,112,-6c52,-6,93,-15,122,-26c177,34,264,100,261,194c0,58,-18,112,-52,161c-30,44,-64,78,-99,101H-23l-92,177H1390l93,-177H981c52,-65,93,-129,124,-188c32,-64,48,-124,48,-179c0,-26,-19,-58,-62,-96C1051,961,985,930,897,911v-7C1147,801,1274,662,1276,484C1271,356,1227,261,1143,202C1060,141,973,112,882,112Z" 
id="f7_11"
transform="scale(4.8828125E-4,-4.8828125E-4)" />

<path d="M958,388C804,390,688,432,608,518C529,597,489,683,489,773c0,43,8,81,21,112c13,29,29,56,51,81H264l-90,175h999l95,-166c-13,-1,-26,-1,-40,-1c-39,0,-84,2,-136,4c-96,-2,-166,-3,-210,-6C837,964,804,955,779,943C747,924,720,895,695,851C669,804,655,753,655,700C657,568,720,503,843,501c3,0,6,0,10,0c53,0,117,24,190,75c77,47,181,130,315,244V591C1299,529,1236,480,1173,446C1112,406,1040,388,958,388ZM-4,1464l-90,177H1117l90,-177Z" 
id="f7_r"
transform="scale(4.8828125E-4,-4.8828125E-4)" />

<path d="M1496,0L1311,108l12,439C1208,440,1091,388,967,388C814,390,698,432,619,518C539,597,500,683,500,773c0,43,7,81,21,112c12,29,29,56,50,81H277l-91,175h981l93,-166c-13,-1,-27,-1,-43,-1c-37,0,-80,1,-128,2c-93,0,-162,-1,-204,-4c-42,-8,-74,-17,-97,-31C756,924,730,895,707,851C680,804,666,753,666,700C669,568,732,503,854,501c2,0,3,0,5,0c19,0,40,7,68,18c28,10,61,26,100,48c79,44,175,117,290,221v676H3l-89,177H1635l91,-177H1496V0Z" 
id="f7_18"
transform="scale(4.8828125E-4,-4.8828125E-4)" />

<path d="M1959,-59c-42,135,-83,267,-126,392C1757,206,1668,113,1563,50C1459,-11,1341,-43,1207,-43C1019,-43,845,3,684,101C523,199,396,336,303,515C209,692,162,892,162,1118c0,225,47,427,141,605c93,178,221,320,383,425c163,104,327,157,492,157c95,0,185,-16,270,-48c87,-33,184,-92,292,-178l138,226h117l45,-915H1922c-75,262,-164,453,-266,572c-130,149,-278,224,-446,226c-128,-2,-244,-38,-347,-112C761,2001,683,1890,628,1742C574,1593,547,1384,547,1117c0,-263,27,-468,82,-614C684,354,759,246,856,177C952,107,1065,73,1193,73c176,0,312,49,408,150c96,101,144,229,144,388V825c0,34,-14,60,-40,78c-26,18,-67,27,-125,29H1390v118h961V932H2224c-55,-2,-94,-12,-119,-32c-23,-20,-35,-49,-35,-86V-59Z" 
id="f1_r"
transform="scale(4.8828125E-4,-4.8828125E-4)" />

<path d="M799,-43L241,1207c-19,44,-44,75,-74,93c-29,18,-74,29,-138,31v104H739V1331c-94,-5,-155,-13,-181,-28c-26,-14,-40,-35,-40,-62c0,-25,5,-48,14,-69L909,325l359,819c5,14,8,28,8,45c0,74,-75,120,-226,142v104h591V1331c-60,-8,-109,-25,-144,-51c-35,-27,-62,-64,-81,-108L883,-43Z" 
id="f1_1v"
transform="scale(4.8828125E-4,-4.8828125E-4)" />

<path d="M1442,857L1042,1875L634,857ZM-28,0V118c86,0,155,18,205,56c49,37,95,109,138,216l768,1915h106L2000,241c33,-84,102,-123,205,-123h71V0H1375V118h70c95,0,162,9,199,30c27,12,40,35,40,64c0,17,-2,34,-10,55L1488,739H587L478,469C451,396,437,338,437,296c0,-50,23,-91,69,-126c47,-36,114,-52,201,-52h77V0Z" 
id="f1_l"
transform="scale(4.8828125E-4,-4.8828125E-4)" />

<path d="M177,0V118H405c46,0,78,9,98,29c20,18,29,49,29,91V2030c0,40,-9,69,-31,86c-20,17,-55,26,-107,27H177v118H2011l29,-782H1922c-46,266,-112,441,-196,522c-96,95,-232,141,-409,142H958c-35,-1,-60,-9,-76,-25c-16,-17,-25,-42,-25,-74V1242h196c2,0,4,0,6,0c107,0,192,37,255,109c64,71,99,183,105,334h104V651H1419c-7,168,-42,290,-105,362c-63,73,-150,110,-261,110H857V258c0,-52,14,-88,37,-110c24,-21,67,-30,127,-30h235V0Z" 
id="f1_q"
transform="scale(4.8828125E-4,-4.8828125E-4)" />

<path d="M193,591V828H857V591Z" 
id="f1_6"
transform="scale(4.8828125E-4,-4.8828125E-4)" />

<path d="M443,-43c-52,0,-98,16,-136,52C270,44,252,89,252,141c0,50,18,93,55,129c38,36,84,54,138,55c53,-1,99,-19,136,-55c36,-36,55,-79,55,-129C636,89,617,44,581,9C544,-27,497,-43,443,-43Z" 
id="f1_7"
transform="scale(4.8828125E-4,-4.8828125E-4)" />

<path d="M133,0V118H249c44,0,78,9,101,30c23,19,35,45,35,78v926c0,50,-14,89,-40,113c-26,26,-76,43,-152,50v120l414,29c21,-104,36,-202,44,-294c75,112,151,191,227,239c75,45,159,68,250,70c97,-2,178,-29,241,-80c63,-53,111,-139,145,-255c67,110,142,194,225,251c84,55,172,82,270,84c130,-2,228,-41,290,-119c84,-104,126,-237,126,-399V241c0,-44,12,-73,33,-88c32,-23,78,-35,139,-35h78V0H1907V118h76c64,0,110,9,136,30c26,22,40,52,40,93V963c0,106,-26,189,-75,249c-51,58,-116,88,-199,88c-61,0,-116,-18,-166,-52c-51,-35,-90,-85,-119,-148c-42,-92,-63,-171,-63,-234V241c0,-42,12,-74,37,-93c24,-21,61,-30,110,-30h105V0H1021V118h87c55,0,96,9,123,30c28,22,40,48,40,80V897c0,139,-23,243,-70,307c-48,64,-112,96,-193,96c-104,0,-183,-37,-240,-111C691,1083,651,959,651,820V241c0,-44,11,-74,30,-90c31,-23,78,-33,141,-33h79V0Z" 
id="f1_1m"
transform="scale(4.8828125E-4,-4.8828125E-4)" />

<path d="M813,89c65,0,125,21,182,64c59,44,105,110,137,198c34,87,51,207,51,356c0,175,-16,306,-46,395c-29,88,-75,157,-135,203c-59,46,-124,68,-192,70C704,1373,619,1322,548,1218C478,1112,443,950,443,730C443,504,478,341,548,240C618,139,702,89,802,89c2,0,3,0,5,0c2,0,4,0,6,0ZM917,-590v117h99c61,0,104,13,128,36c26,21,39,58,39,108V202C1123,119,1057,57,985,17C914,-23,834,-43,749,-43C585,-43,443,26,325,168C206,310,148,489,148,706c0,143,31,276,90,399c61,119,141,212,240,276c101,64,206,96,316,98c81,-2,159,-20,231,-55c72,-35,150,-96,231,-182c55,86,113,164,179,237l44,-44c-20,-123,-31,-251,-31,-388V-326c0,-53,11,-90,31,-108c29,-26,72,-39,131,-39h60V-590Z" 
id="f1_1q"
transform="scale(4.8828125E-4,-4.8828125E-4)" />

<path d="M1102,1138c188,0,325,40,409,118c87,79,130,211,130,392c0,127,-20,225,-58,294c-38,67,-95,119,-170,151c-75,32,-198,49,-370,50c-113,-1,-184,-12,-215,-32c-29,-21,-44,-58,-44,-108V1138h307c3,0,7,0,11,0ZM104,0V118H328c45,0,78,7,98,26c22,16,32,42,32,73V2014c0,44,-12,78,-39,97c-26,22,-77,31,-150,32H104v118H1219c252,0,445,-58,578,-171c133,-115,198,-264,198,-448c0,-184,-61,-327,-183,-423C1646,1088,1441,1021,1197,1021c-3,0,-6,0,-8,0H784V251c0,-46,10,-78,30,-97c29,-24,68,-36,115,-36h254V0Z" 
id="f1_z"
transform="scale(4.8828125E-4,-4.8828125E-4)" />

<path d="M316,-606c-73,0,-131,22,-175,65c-45,42,-68,96,-68,159c0,45,14,85,43,116c28,30,63,45,104,45c38,0,70,-13,96,-39c26,-26,38,-58,38,-93c0,-13,-1,-28,-6,-48c-3,-15,-6,-27,-6,-33c0,-26,17,-39,48,-39c33,0,71,13,114,37c41,24,81,64,118,118c36,55,102,175,195,361L267,1199c-18,35,-41,61,-70,80c-27,17,-69,29,-124,36v120H755V1315H691c-60,0,-100,-7,-121,-21c-22,-15,-34,-35,-34,-60c0,-13,3,-24,8,-35L943,361l308,692c23,47,34,93,34,140c0,35,-15,63,-44,83c-31,20,-89,32,-176,39v120h591V1315c-116,-10,-195,-58,-237,-139L871,-49C775,-265,684,-412,597,-489C510,-566,416,-606,316,-606Z" 
id="f1_1y"
transform="scale(4.8828125E-4,-4.8828125E-4)" />


</defs>
</svg>