<?xml version="1.0" encoding="UTF-8" standalone="no"?>
<!DOCTYPE svg PUBLIC "-//W3C//DTD SVG 1.1//EN"
"http://www.w3.org/Graphics/SVG/1.1/DTD/svg11.dtd">
<svg viewBox="0 0 909 1286" version="1.1" xmlns="http://www.w3.org/2000/svg" xmlns:xlink="http://www.w3.org/1999/xlink">
<defs>
<clipPath id="c0_17"><path d="M168.3,1056.1v-20.9H284.2v20.9Z" /></clipPath>
<style type="text/css"><![CDATA[
.g0_17{
fill: #1F1A17;
}
]]></style>
</defs>
<g fill="#000000" >
<use xlink:href="#f0_c" transform="matrix(12,0,0,12,117,124.8)" />
<use xlink:href="#f0_1y" transform="matrix(12,0,0,12,122.9,124.8)" />
<use xlink:href="#f0_d" transform="matrix(12,0,0,12,131.3,124.8)" />
<use xlink:href="#f0_14" transform="matrix(12,0,0,12,155.8,124.8)" />
<use xlink:href="#f0_2e" transform="matrix(12,0,0,12,168.7,124.8)" />
<use xlink:href="#f0_1x" transform="matrix(12,0,0,12,174.6,124.8)" />
<use xlink:href="#f0_2j" transform="matrix(12,0,0,12,182.3,124.8)" />
<use xlink:href="#f0_2g" transform="matrix(12,0,0,12,198.4,124.8)" />
<use xlink:href="#f0_24" transform="matrix(12,0,0,12,203.2,124.8)" />
<use xlink:href="#f0_21" transform="matrix(12,0,0,12,211.7,124.8)" />
<use xlink:href="#f0_2f" transform="matrix(12,0,0,12,222.7,124.8)" />
<use xlink:href="#f0_2g" transform="matrix(12,0,0,12,229.3,124.8)" />
<use xlink:href="#f0_2e" transform="matrix(12,0,0,12,234.5,124.8)" />
<use xlink:href="#f0_2h" transform="matrix(12,0,0,12,240.4,124.8)" />
<use xlink:href="#f0_1z" transform="matrix(12,0,0,12,249.2,124.8)" />
<use xlink:href="#f0_2g" transform="matrix(12,0,0,12,256.9,124.8)" />
<use xlink:href="#f0_2h" transform="matrix(12,0,0,12,262,124.8)" />
<use xlink:href="#f0_2e" transform="matrix(12,0,0,12,270.8,124.8)" />
<use xlink:href="#f0_21" transform="matrix(12,0,0,12,276.7,124.8)" />
<use xlink:href="#f0_2f" transform="matrix(12,0,0,12,284.1,124.8)" />
<use xlink:href="#f0_2b" transform="matrix(12,0,0,12,293.6,124.8)" />
<use xlink:href="#f0_22" transform="matrix(12,0,0,12,302.8,124.8)" />
<use xlink:href="#f0_2g" transform="matrix(12,0,0,12,311.3,124.8)" />
<use xlink:href="#f0_24" transform="matrix(12,0,0,12,316.4,124.8)" />
<use xlink:href="#f0_21" transform="matrix(12,0,0,12,324.9,124.8)" />
<use xlink:href="#f0_22" transform="matrix(12,0,0,12,335.9,124.8)" />
<use xlink:href="#f0_2b" transform="matrix(12,0,0,12,341,124.8)" />
<use xlink:href="#f0_28" transform="matrix(12,0,0,12,350.2,124.8)" />
<use xlink:href="#f0_28" transform="matrix(12,0,0,12,353.9,124.8)" />
<use xlink:href="#f0_2b" transform="matrix(12,0,0,12,357.9,124.8)" />
<use xlink:href="#f0_2j" transform="matrix(12,0,0,12,367.1,124.8)" />
<use xlink:href="#f0_25" transform="matrix(12,0,0,12,379.9,124.8)" />
<use xlink:href="#f0_2a" transform="matrix(12,0,0,12,384,124.8)" />
<use xlink:href="#f0_23" transform="matrix(12,0,0,12,392.5,124.8)" />
<use xlink:href="#f0_i" transform="matrix(12,0,0,12,401.3,124.8)" />
<use xlink:href="#f0_c" transform="matrix(12,0,0,12,117,153.4)" />
<use xlink:href="#f0_25" transform="matrix(12,0,0,12,122.1,153.4)" />
<use xlink:href="#f0_d" transform="matrix(12,0,0,12,125.8,153.4)" />
<use xlink:href="#f0_1o" transform="matrix(12,0,0,12,155.8,153.4)" />
<use xlink:href="#f0_21" transform="matrix(12,0,0,12,169,153.4)" />
<use xlink:href="#f0_16" transform="matrix(12,0,0,12,177.5,153.4)" />
<use xlink:href="#f0_o" transform="matrix(7,0,0,7,187.4,159.6)" />
<use xlink:href="#f0_c" transform="matrix(12,0,0,12,117,182.4)" />
<use xlink:href="#f0_25" transform="matrix(12,0,0,12,122.1,182.4)" />
<use xlink:href="#f0_25" transform="matrix(12,0,0,12,125.8,182.4)" />
<use xlink:href="#f0_d" transform="matrix(12,0,0,12,129.1,182.4)" />
<use xlink:href="#f0_18" transform="matrix(12,0,0,12,155.8,182.4)" />
<use xlink:href="#f0_13" transform="matrix(12,0,0,12,169,182.4)" />
<use xlink:href="#f0_28" transform="matrix(12,0,0,12,181.2,182.4)" />
<use xlink:href="#f0_1f" transform="matrix(12,0,0,12,185.6,182.4)" />
<use xlink:href="#f0_n" transform="matrix(7,0,0,7,198.7,188.6)" />
<use xlink:href="#f0_11" transform="matrix(12,0,0,12,64.9,283.9)" />
<use xlink:href="#f0_2a" transform="matrix(12,0,0,12,77.4,283.9)" />
<use xlink:href="#f0_2f" transform="matrix(12,0,0,12,85.8,283.9)" />
<use xlink:href="#f0_i" transform="matrix(12,0,0,12,92.4,283.9)" />
<use xlink:href="#f0_c" transform="matrix(12,0,0,12,117,283.9)" />
<use xlink:href="#f0_25" transform="matrix(12,0,0,12,122.1,283.9)" />
<use xlink:href="#f0_d" transform="matrix(12,0,0,12,125.8,283.9)" />
</g>
<path d="M208.5,208.4v1.8h-3l-.7,.4h-.7l-.8,.4l-.3,.3l-.8,.4l-.3,.4l-.7,.3l-.4,.4l-.4,.4l-.3,.3l-.8,.4l-.3,.7l-.4,.4l-.4,.7v.4l-.3,.7l-.4,.8l-.4,.3v.8l-.3,.7l-.4,1.5v1.4l-.4,1.9v3.3l.4,1.8v1.8l.4,1.9l.3,2.2l.4,1.8l.4,1.8l.7,1.9l.7,2.2l.4,1.8l.7,1.8l1.1,1.9l.7,1.8l1.1,1.8l.8,1.9l1.1,1.8l-1.1,.7L203,254.6l-1.1,-1.8l-1.1,-1.9l-.7,-1.8l-.8,-1.8l-.7,-2.2l-.7,-1.9l-.8,-1.8l-.7,-2.2l-.4,-1.8l-.3,-2.2l-.4,-1.9l-.3,-1.8l-.4,-1.8v-5.5l.4,-1.9v-1.8l.3,-1.5l.4,-.7v-.7l.3,-.8l.4,-.7l.4,-.7l.3,-.4l.4,-.7l.4,-.8l.3,-.3l.4,-.8l.7,-.3l.4,-.8l.7,-.3l.4,-.4l.7,-.4l.7,-.3l.8,-.4h.7l.7,-.4l.8,-.3h2.2l1.1,-.4Zm5.1,47.7L212.1,255l1.1,-1.9l1.5,-1.8l.7,-1.8l1.1,-1.9l.7,-2.2l1.1,-1.8l.8,-1.8l.3,-1.9l.8,-2.2l.3,-1.8l.4,-1.8l.3,-1.9l.4,-1.8v-7l-.4,-1.4l-.3,-1.5l-.4,-1.5l-.3,-.7v-.7l-.4,-.4l-.4,-.7l-.3,-.8l-.4,-.3l-.4,-.8l-.3,-.3l-.4,-.4l-.4,-.4l-.3,-.7l-.8,-.4l-.3,-.3l-.8,-.4l-.3,-.4H214l-.4,-.3l-.7,-.4h-.8l-.7,-.4h-2.9v-1.8l.7,.4h2.6l.7,.3h.7l.8,.4l.7,.4l.7,.3l.7,.4l.4,.4l.7,.3l.4,.4l.7,.7l.4,.4l.4,.4l.7,.7l.4,.7l.3,.4l.4,.7l.3,.8l.4,.7v.7l.4,.8l.3,1.4l.4,1.5l.4,1.8v7l-.4,1.8l-.4,2.2l-.3,1.9l-.4,1.8l-.7,2.2l-.7,1.8l-.8,2.2l-.7,1.9l-.7,2.2l-1.1,1.8l-1.1,1.8l-1.1,1.9l-1.1,2.2Z" class="g0_17" />
<g fill="#1F1A17" >
<use xlink:href="#f0_1o" transform="matrix(11.9,0,0,12,202.4,271.1)" />
<use xlink:href="#f0_21" transform="matrix(11.9,0,0,12,215.2,271.1)" />
</g>
<path fill-rule="evenodd" d="M203,220.9l.7,.3l.7,.4l.8,.7v1.9l-.8,.7l-.7,.7h-1.8l-.7,-.7l-.4,-.7l-.4,-.8l.4,-1.1l.4,-.7l.7,-.4l1.1,-.3Z" class="g0_17" />
<path d="M205.9,223.4h-1.5v-.7l-.3,-.4l-.4,-.3h-.4l-.3,-.4v-1.5h.7l.4,.4l.7,.4l.4,.3l.3,.4l.4,.4v1.4Zm-2.9,3v-1.5h.7v-.4h.4v-.3h.3v-.8h1.5v1.1l-.4,.8l-.3,.3l-.4,.4l-.7,.4H203Zm-3.3,-3h1.5l.3,.4v.4l.4,.3l.3,.4h.8v1.5h-1.1l-.7,-.4l-.4,-.4l-.4,-.3l-.3,-.8l-.4,-.3v-.8Zm3.3,-3.3v1.5l-.4,.4h-.7v.3h-.4v.8l-.3,.3h-1.5v-.7l.4,-.7l.3,-.4l.4,-.4l.4,-.3l.7,-.4l.3,-.4h.8Z" class="g0_17" />
<path fill-rule="evenodd" d="M213.2,220.9l1.1,.3l.7,.4l.4,.7l.4,1.1l-.4,.8l-.4,.7l-.7,.7h-1.8l-.8,-.7l-.7,-.7v-1.9l.7,-.7l.8,-.4l.7,-.3Z" class="g0_17" />
<path d="M216.5,223.4h-1.8v-1.1h-.4V222h-.7l-.4,-.4v-1.5h.8l.3,.4l.7,.4l.4,.3l.4,.4l.3,.4v.7l.4,.7Zm-3.3,3v-1.5h.8l.3,-.4l.4,-.3v-.8h1.8l-.4,.8v.3l-.3,.8l-.4,.3l-.4,.4l-.7,.4h-1.1Zm-2.9,-3h1.5v.8l.3,.3h.4v.4h.7v1.5h-1.1l-.7,-.4l-.4,-.4l-.3,-.3l-.4,-.8v-1.1Zm2.9,-3.3v1.5l-.3,.4h-.4l-.4,.3h-.3v1.1h-1.5V222l.4,-.4l.3,-.4l.4,-.3l.7,-.4l.4,-.4h.7Z" class="g0_17" />
<path d="M209.9,319.1V321l-.7,-.4h-2.6l-.7,-.4l-.7,-.3h-.8l-.7,-.4l-.7,-.4l-.8,-.3l-.3,-.4l-.7,-.4l-.4,-.7l-.4,-.4l-.7,-.7l-.4,-.4l-.3,-.7l-.4,-.7l-.4,-.4l-.3,-.7l-.4,-.8v-.7l-.4,-.7l-.3,-.8l-.4,-1.4V307l-.4,-1.8v-3.3l.4,-2.2v-1.8l.4,-1.9l.3,-1.8l.4,-2.2l.4,-1.8l.7,-2.2l.7,-1.9l.8,-1.8l.7,-2.2l.7,-1.8l1.1,-1.9l.7,-1.8l1.1,-1.8l1.1,-1.9l1.1,.8l-1.1,1.8l-.7,1.8l-1.1,1.9L203,281l-.8,1.8l-.7,1.9l-.7,1.8l-.7,2.2l-.8,1.8l-.3,1.9l-.4,1.8l-.4,2.2l-.3,1.8v1.9l-.4,1.8v3.3l.4,1.8l.3,1.5V310l.4,.7l.4,.7v.4l.3,.7l.4,.8l.4,.3l.3,.8v.3l.8,.8l.3,.3l.4,.4l.3,.4l.4,.3l.7,.4l.4,.4l.7,.3l.4,.4l.7,.4h.8l.7,.3h2.9Zm3.7,-44.7l1.4,-1.1l1.1,2.2l1.1,1.8l1.1,1.9l1.1,1.8l.8,2.2l1,1.8l.8,2.2l.3,1.9l.8,2.2l.3,1.8l.4,1.8l.4,2.2l.3,1.9v6.9l-.3,1.9l-.4,1.4l-.4,1.5v.7l-.3,.8l-.4,.7l-.4,.7l-.3,.8l-.4,.3l-.4,.8l-.3,.7l-.7,.4l-.4,.3l-.7,.8l-.4,.3l-.7,.4l-.4,.4l-.7,.3l-.8,.4l-.7,.4l-.7,.3h-.8l-.7,.4h-2.6l-.7,.4v-1.9h2.9l.8,-.3h.7l.7,-.4l.4,-.4h.7l.8,-.3l.3,-.4l.4,-.4l.7,-.3l.4,-.8l.4,-.3l.3,-.4l.4,-.4l.4,-.7l.3,-.4l.4,-.7l.3,-.7l.4,-.4l.4,-.7v-.8l.3,-1.4l.4,-1.5l.4,-1.5V299l-.4,-1.9l-.4,-1.8l-.3,-1.8l-.4,-1.9l-.7,-2.2l-.4,-1.8l-.7,-1.8l-1.1,-1.9l-.7,-2.2l-1.1,-1.8l-.8,-1.8L215,276.2l-1.4,-1.8Z" class="g0_17" />
<path fill-rule="evenodd" d="M204.4,308.5l.8,-.4l1.1,-.3l.3,-.8v-1.8l-.3,-.7l-1.1,-.8h-1.9l-.7,.8l-.4,.7l-.3,.7l.3,1.1l.4,.8l.7,.3l1.1,.4Z" class="g0_17" />
<path d="M205.9,305.9h1.8l-.3,.8v.7l-.4,.4l-.4,.3l-.3,.4l-.8,.4l-.3,.3h-.8v-1.4l.4,-.4h.4l.3,-.4h.4v-1.1Zm-1.5,-1.4V303h1.1l.8,.4l.3,.3l.4,.4l.4,.7v.4l.3,.7h-1.8v-.7l-.4,-.4h-.3v-.3h-.8Zm-1.4,1.4h-1.8l.3,-.7v-.4l.4,-.7l.3,-.4l.4,-.3l.7,-.4h1.1v1.5h-.7v.3h-.4l-.3,.4v.7Zm1.4,1.9v1.4h-.7l-.4,-.3l-.7,-.4l-.4,-.4l-.3,-.3l-.4,-.4v-.7l-.3,-.8H203V307h.3l.4,.4h.4l.3,.4Z" class="g0_17" />
<path fill-rule="evenodd" d="M214.7,308.5l1.1,-.4l.7,-.3l.4,-.8l.3,-1.1l-.3,-.7l-.4,-.7l-.7,-.8H214l-.8,.8l-.7,.7V307l.7,.8l.8,.3l.7,.4Z" class="g0_17" />
<path d="M216.5,305.9H218v.8l-.4,.7l-.4,.4l-.3,.3l-.4,.4l-.4,.4l-.7,.3h-.7v-1.4l.3,-.4h.8V307h.3v-.7l.4,-.4Zm-1.8,-1.4V303h1.4l.4,.4l.4,.3l.3,.4l.4,.7l.4,.4v.7h-1.5l-.4,-.3v-.4l-.3,-.4l-.4,-.3h-.7Zm-1.5,1.4h-1.4v-1.1l.3,-.7l.4,-.4l.4,-.3l.7,-.4h1.1v1.5H214v.3h-.4v.4h-.4v.7Zm1.5,1.9v1.4H214l-.4,-.3l-.7,-.4l-.4,-.4l-.4,-.3l-.3,-.4v-1.5h1.4v.8l.4,.3l.4,.4h.3l.4,.4Z" class="g0_17" />
<path d="M246.8,242.1l-22.6,16.5l-1.1,-1.1L245.7,241l1.1,1.1Z" class="g0_17" />
<g fill="#1F1A17" >
<use xlink:href="#f0_16" transform="matrix(11.9,0,0,12,250.1,244.7)" />
</g>
<path d="M248.3,288.3l-23,-16.5l1.1,-1.1L249,287.2l-.7,1.1Z" class="g0_17" />
<g fill="#1F1A17" >
<use xlink:href="#f0_16" transform="matrix(11.9,0,0,12,250.4,295.3)" />
</g>
<path d="M176,241.8l23,16.5l-1.1,1.1L175.2,242.9l.8,-1.1Z" class="g0_17" />
<path d="M174.9,286.5L197.5,270l.7,1.1l-22.6,16.5l-.7,-1.1Z" class="g0_17" />
<g fill="#1F1A17" >
<use xlink:href="#f0_16" transform="matrix(11.9,0,0,12,162.4,248)" />
<use xlink:href="#f0_16" transform="matrix(11.9,0,0,12,162.8,296.4)" />
</g>
<g fill="#000000" >
<use xlink:href="#f0_c" transform="matrix(12,0,0,12,117,412.3)" />
<use xlink:href="#f0_25" transform="matrix(12,0,0,12,122.1,412.3)" />
<use xlink:href="#f0_25" transform="matrix(12,0,0,12,125.8,412.3)" />
<use xlink:href="#f0_d" transform="matrix(12,0,0,12,129.1,412.3)" />
</g>
<g fill="#1F1A17" >
<use xlink:href="#f0_13" transform="matrix(12,0,0,12,188.8,416.3)" />
<use xlink:href="#f0_28" transform="matrix(12,0,0,12,201.3,416.3)" />
</g>
<path d="M196,400.4h1.5V382.3H196v18.1Z" class="g0_17" />
<g fill="#1F1A17" >
<use xlink:href="#f0_1f" transform="matrix(12,0,0,12,225.1,442.7)" />
</g>
<path d="M226.9,429.1L209.6,416.2l.7,-1.1L228,428l-1.1,1.1Z" class="g0_17" />
<path d="M223.2,432.7L205.6,419.9l.7,-1.1L224,431.3l-.8,1.4Z" class="g0_17" />
<path d="M167.2,427.2l17.7,-12.9l.8,1.1L168,428.3l-.8,-1.1Z" class="g0_17" />
<path d="M171.3,430.9L188.6,418l1.1,1.1L172,432l-.7,-1.1Z" class="g0_17" />
<g fill="#1F1A17" >
<use xlink:href="#f0_1f" transform="matrix(12,0,0,12,157.3,442)" />
<use xlink:href="#f0_1f" transform="matrix(12,0,0,12,189.9,381.1)" />
</g>
<path d="M220.3,358.8l-16.6,10.6L203,368l16.5,-10.3l.8,1.1Z" class="g0_17" />
<g fill="#1F1A17" >
<use xlink:href="#f0_18" transform="matrix(12,0,0,12,222.2,362)" />
</g>
<g fill="#000000" >
<use xlink:href="#f1_c" transform="matrix(12,0,0,12,435.2,523.4)" />
<use xlink:href="#f1_1f" transform="matrix(12,0,0,12,441.1,523.4)" />
<use xlink:href="#f1_1i" transform="matrix(12,0,0,12,455.1,523.4)" />
<use xlink:href="#f1_d" transform="matrix(12,0,0,12,467.9,523.4)" />
<use xlink:href="#f0_1h" transform="matrix(12,0,0,12,64.9,552)" />
<use xlink:href="#f0_i" transform="matrix(12,0,0,12,78.1,552)" />
<use xlink:href="#f0_m" transform="matrix(12,0,0,12,83.2,552)" />
<use xlink:href="#f0_q" transform="matrix(12,0,0,12,92.4,552)" />
<use xlink:href="#f0_c" transform="matrix(12,0,0,12,117,552)" />
<use xlink:href="#f0_1x" transform="matrix(12,0,0,12,122.5,552)" />
<use xlink:href="#f0_d" transform="matrix(12,0,0,12,130.2,552)" />
<use xlink:href="#f0_1n" transform="matrix(12,0,0,12,155.8,552)" />
<use xlink:href="#f0_24" transform="matrix(12,0,0,12,172.7,552)" />
<use xlink:href="#f0_21" transform="matrix(12,0,0,12,181.2,552)" />
<use xlink:href="#f0_2a" transform="matrix(12,0,0,12,189.2,552)" />
<use xlink:href="#f0_1z" transform="matrix(12,0,0,12,201.4,552)" />
<use xlink:href="#f0_2b" transform="matrix(12,0,0,12,209.1,552)" />
<use xlink:href="#f0_2a" transform="matrix(12,0,0,12,218.6,552)" />
<use xlink:href="#f0_1z" transform="matrix(12,0,0,12,227.1,552)" />
<use xlink:href="#f0_21" transform="matrix(12,0,0,12,235.2,552)" />
<use xlink:href="#f0_2a" transform="matrix(12,0,0,12,242.9,552)" />
<use xlink:href="#f0_2g" transform="matrix(12,0,0,12,251.7,552)" />
<use xlink:href="#f0_2e" transform="matrix(12,0,0,12,257.2,552)" />
<use xlink:href="#f0_1x" transform="matrix(12,0,0,12,263.1,552)" />
<use xlink:href="#f0_2g" transform="matrix(12,0,0,12,271.2,552)" />
<use xlink:href="#f0_21" transform="matrix(12,0,0,12,276.3,552)" />
<use xlink:href="#f0_20" transform="matrix(12,0,0,12,284.4,552)" />
<use xlink:href="#f0_2f" transform="matrix(12,0,0,12,296.9,552)" />
<use xlink:href="#f0_2h" transform="matrix(12,0,0,12,303.5,552)" />
<use xlink:href="#f0_28" transform="matrix(12,0,0,12,312.7,552)" />
<use xlink:href="#f0_2c" transform="matrix(12,0,0,12,316.7,552)" />
<use xlink:href="#f0_24" transform="matrix(12,0,0,12,325.9,552)" />
<use xlink:href="#f0_2h" transform="matrix(12,0,0,12,334.7,552)" />
<use xlink:href="#f0_2e" transform="matrix(12,0,0,12,343.5,552)" />
<use xlink:href="#f0_25" transform="matrix(12,0,0,12,349.7,552)" />
<use xlink:href="#f0_1z" transform="matrix(12,0,0,12,353.8,552)" />
<use xlink:href="#f0_1x" transform="matrix(12,0,0,12,364.8,552)" />
<use xlink:href="#f0_1z" transform="matrix(12,0,0,12,372.9,552)" />
<use xlink:href="#f0_25" transform="matrix(12,0,0,12,380.6,552)" />
<use xlink:href="#f0_20" transform="matrix(12,0,0,12,385,552)" />
<use xlink:href="#f0_2j" transform="matrix(12,0,0,12,397.5,552)" />
<use xlink:href="#f0_1x" transform="matrix(12,0,0,12,410.7,552)" />
<use xlink:href="#f0_2f" transform="matrix(12,0,0,12,418.5,552)" />
<use xlink:href="#f0_1x" transform="matrix(12,0,0,12,428.8,552)" />
<use xlink:href="#f0_20" transform="matrix(12,0,0,12,436.8,552)" />
<use xlink:href="#f0_20" transform="matrix(12,0,0,12,445.7,552)" />
<use xlink:href="#f0_21" transform="matrix(12,0,0,12,454.8,552)" />
<use xlink:href="#f0_20" transform="matrix(12,0,0,12,462.5,552)" />
<use xlink:href="#f0_2g" transform="matrix(12,0,0,12,475.4,552)" />
<use xlink:href="#f0_2b" transform="matrix(12,0,0,12,480.5,552)" />
<use xlink:href="#f0_1x" transform="matrix(12,0,0,12,493,552)" />
<use xlink:href="#f0_2a" transform="matrix(12,0,0,12,501.1,552)" />
<use xlink:href="#f0_2h" transform="matrix(12,0,0,12,513.2,552)" />
<use xlink:href="#f0_2a" transform="matrix(12,0,0,12,522,552)" />
<use xlink:href="#f0_27" transform="matrix(12,0,0,12,530.9,552)" />
<use xlink:href="#f0_2a" transform="matrix(12,0,0,12,539.7,552)" />
<use xlink:href="#f0_2b" transform="matrix(12,0,0,12,548.5,552)" />
<use xlink:href="#f0_2j" transform="matrix(12,0,0,12,558,552)" />
<use xlink:href="#f0_2a" transform="matrix(12,0,0,12,570.9,552)" />
<use xlink:href="#f0_2f" transform="matrix(12,0,0,12,583,552)" />
<use xlink:href="#f0_1x" transform="matrix(12,0,0,12,590,552)" />
<use xlink:href="#f0_28" transform="matrix(12,0,0,12,597.7,552)" />
<use xlink:href="#f0_2g" transform="matrix(12,0,0,12,602.1,552)" />
<use xlink:href="#f0_2c" transform="matrix(12,0,0,12,610.9,552)" />
<use xlink:href="#f0_2e" transform="matrix(12,0,0,12,619.8,552)" />
<use xlink:href="#f0_21" transform="matrix(12,0,0,12,626,552)" />
<use xlink:href="#f0_2f" transform="matrix(12,0,0,12,634.1,552)" />
<use xlink:href="#f0_21" transform="matrix(12,0,0,12,640.7,552)" />
<use xlink:href="#f0_2a" transform="matrix(12,0,0,12,648.8,552)" />
<use xlink:href="#f0_2g" transform="matrix(12,0,0,12,657.2,552)" />
<use xlink:href="#f0_25" transform="matrix(12,0,0,12,665.7,552)" />
<use xlink:href="#f0_2a" transform="matrix(12,0,0,12,670.1,552)" />
<use xlink:href="#f0_1x" transform="matrix(12,0,0,12,682.2,552)" />
<use xlink:href="#f0_2g" transform="matrix(12,0,0,12,693.6,552)" />
<use xlink:href="#f0_21" transform="matrix(12,0,0,12,699.1,552)" />
<use xlink:href="#f0_2f" transform="matrix(12,0,0,12,706.8,552)" />
<use xlink:href="#f0_2g" transform="matrix(12,0,0,12,713.8,552)" />
<use xlink:href="#f0_2g" transform="matrix(12,0,0,12,722.6,552)" />
<use xlink:href="#f0_2h" transform="matrix(12,0,0,12,727.8,552)" />
<use xlink:href="#f0_1y" transform="matrix(12,0,0,12,736.9,552)" />
<use xlink:href="#f0_21" transform="matrix(12,0,0,12,745.4,552)" />
<use xlink:href="#f0_1x" transform="matrix(12,0,0,12,756.8,552)" />
<use xlink:href="#f0_1y" transform="matrix(12,0,0,12,768.2,552)" />
<use xlink:href="#f0_2e" transform="matrix(12,0,0,12,776.6,552)" />
<use xlink:href="#f0_2b" transform="matrix(12,0,0,12,782.9,552)" />
<use xlink:href="#f0_2j" transform="matrix(12,0,0,12,792,552)" />
<use xlink:href="#f0_2a" transform="matrix(12,0,0,12,805.3,552)" />
<use xlink:href="#f0_23" transform="matrix(12,0,0,12,817.4,552)" />
<use xlink:href="#f0_1x" transform="matrix(12,0,0,12,826.2,552)" />
<use xlink:href="#f0_2f" transform="matrix(12,0,0,12,834.3,552)" />
<use xlink:href="#f0_c" transform="matrix(12,0,0,12,155.8,576.5)" />
<use xlink:href="#f0_11" transform="matrix(12,0,0,12,161.7,576.5)" />
<use xlink:href="#f0_d" transform="matrix(12,0,0,12,174.6,576.5)" />
<use xlink:href="#f0_2j" transform="matrix(12,0,0,12,184.1,576.5)" />
<use xlink:href="#f0_1x" transform="matrix(12,0,0,12,197,576.5)" />
<use xlink:href="#f0_2f" transform="matrix(12,0,0,12,204.7,576.5)" />
<use xlink:href="#f0_21" transform="matrix(12,0,0,12,214.6,576.5)" />
<use xlink:href="#f0_2a" transform="matrix(12,0,0,12,222.7,576.5)" />
<use xlink:href="#f0_2i" transform="matrix(12,0,0,12,231.2,576.5)" />
<use xlink:href="#f0_2b" transform="matrix(12,0,0,12,239.6,576.5)" />
<use xlink:href="#f0_28" transform="matrix(12,0,0,12,249.1,576.5)" />
<use xlink:href="#f0_2i" transform="matrix(12,0,0,12,253.2,576.5)" />
<use xlink:href="#f0_21" transform="matrix(12,0,0,12,262,576.5)" />
<use xlink:href="#f0_20" transform="matrix(12,0,0,12,269.7,576.5)" />
<use xlink:href="#f0_i" transform="matrix(12,0,0,12,278.5,576.5)" />
<use xlink:href="#f0_1k" transform="matrix(12,0,0,12,286.6,576.5)" />
<use xlink:href="#f0_24" transform="matrix(12,0,0,12,298,576.5)" />
<use xlink:href="#f0_25" transform="matrix(12,0,0,12,306.4,576.5)" />
<use xlink:href="#f0_2f" transform="matrix(12,0,0,12,310.5,576.5)" />
<use xlink:href="#f0_23" transform="matrix(12,0,0,12,320.8,576.5)" />
<use xlink:href="#f0_1x" transform="matrix(12,0,0,12,329.6,576.5)" />
<use xlink:href="#f0_2f" transform="matrix(12,0,0,12,337.7,576.5)" />
<use xlink:href="#f0_25" transform="matrix(12,0,0,12,348,576.5)" />
<use xlink:href="#f0_2a" transform="matrix(12,0,0,12,352.1,576.5)" />
<use xlink:href="#f0_2g" transform="matrix(12,0,0,12,360.5,576.5)" />
<use xlink:href="#f0_21" transform="matrix(12,0,0,12,366,576.5)" />
<use xlink:href="#f0_2a" transform="matrix(12,0,0,12,373.7,576.5)" />
<use xlink:href="#f0_2f" transform="matrix(12,0,0,12,382.5,576.5)" />
<use xlink:href="#f0_25" transform="matrix(12,0,0,12,389.2,576.5)" />
<use xlink:href="#f0_22" transform="matrix(12,0,0,12,393.2,576.5)" />
<use xlink:href="#f0_25" transform="matrix(12,0,0,12,398.7,576.5)" />
<use xlink:href="#f0_21" transform="matrix(12,0,0,12,402.8,576.5)" />
<use xlink:href="#f0_20" transform="matrix(12,0,0,12,410.9,576.5)" />
<use xlink:href="#f0_2j" transform="matrix(12,0,0,12,422.6,576.5)" />
<use xlink:href="#f0_24" transform="matrix(12,0,0,12,435.8,576.5)" />
<use xlink:href="#f0_21" transform="matrix(12,0,0,12,444.3,576.5)" />
<use xlink:href="#f0_2a" transform="matrix(12,0,0,12,452.4,576.5)" />
<use xlink:href="#f0_1z" transform="matrix(12,0,0,12,464.1,576.5)" />
<use xlink:href="#f0_2b" transform="matrix(12,0,0,12,472.2,576.5)" />
<use xlink:href="#f0_2c" transform="matrix(12,0,0,12,481.4,576.5)" />
<use xlink:href="#f0_2c" transform="matrix(12,0,0,12,490.6,576.5)" />
<use xlink:href="#f0_21" transform="matrix(12,0,0,12,499.4,576.5)" />
<use xlink:href="#f0_2e" transform="matrix(12,0,0,12,507.1,576.5)" />
<use xlink:href="#f0_2g" transform="matrix(12,0,0,12,516.6,576.5)" />
<use xlink:href="#f0_2h" transform="matrix(12,0,0,12,522.1,576.5)" />
<use xlink:href="#f0_2e" transform="matrix(12,0,0,12,530.9,576.5)" />
<use xlink:href="#f0_2a" transform="matrix(12,0,0,12,536.8,576.5)" />
<use xlink:href="#f0_25" transform="matrix(12,0,0,12,545.6,576.5)" />
<use xlink:href="#f0_2a" transform="matrix(12,0,0,12,549.7,576.5)" />
<use xlink:href="#f0_23" transform="matrix(12,0,0,12,558.5,576.5)" />
<use xlink:href="#f0_2f" transform="matrix(12,0,0,12,567.3,576.5)" />
<use xlink:href="#f0_2j" transform="matrix(12,0,0,12,577.6,576.5)" />
<use xlink:href="#f0_21" transform="matrix(12,0,0,12,590.5,576.5)" />
<use xlink:href="#f0_2e" transform="matrix(12,0,0,12,598.6,576.5)" />
<use xlink:href="#f0_21" transform="matrix(12,0,0,12,604.5,576.5)" />
<use xlink:href="#f0_1x" transform="matrix(12,0,0,12,615.5,576.5)" />
<use xlink:href="#f0_20" transform="matrix(12,0,0,12,623.2,576.5)" />
<use xlink:href="#f0_20" transform="matrix(12,0,0,12,632.4,576.5)" />
<use xlink:href="#f0_21" transform="matrix(12,0,0,12,641.2,576.5)" />
<use xlink:href="#f0_20" transform="matrix(12,0,0,12,648.9,576.5)" />
<use xlink:href="#f0_2g" transform="matrix(12,0,0,12,661.4,576.5)" />
<use xlink:href="#f0_2b" transform="matrix(12,0,0,12,666.5,576.5)" />
<use xlink:href="#f0_2g" transform="matrix(12,0,0,12,679.4,576.5)" />
<use xlink:href="#f0_24" transform="matrix(12,0,0,12,684.9,576.5)" />
<use xlink:href="#f0_25" transform="matrix(12,0,0,12,693.3,576.5)" />
<use xlink:href="#f0_2f" transform="matrix(12,0,0,12,697.4,576.5)" />
<use xlink:href="#f0_2g" transform="matrix(12,0,0,12,707.7,576.5)" />
<use xlink:href="#f0_21" transform="matrix(12,0,0,12,713.2,576.5)" />
<use xlink:href="#f0_2f" transform="matrix(12,0,0,12,720.9,576.5)" />
<use xlink:href="#f0_2g" transform="matrix(12,0,0,12,727.5,576.5)" />
<use xlink:href="#f0_2g" transform="matrix(12,0,0,12,735.9,576.5)" />
<use xlink:href="#f0_2h" transform="matrix(12,0,0,12,741.4,576.5)" />
<use xlink:href="#f0_1y" transform="matrix(12,0,0,12,750.3,576.5)" />
<use xlink:href="#f0_21" transform="matrix(12,0,0,12,758.7,576.5)" />
<use xlink:href="#f0_i" transform="matrix(12,0,0,12,766.8,576.5)" />
<use xlink:href="#f0_1f" transform="matrix(12,0,0,12,774.9,576.5)" />
<use xlink:href="#f0_2a" transform="matrix(12,0,0,12,787.7,576.5)" />
<use xlink:href="#f0_1z" transform="matrix(12,0,0,12,155.8,601.1)" />
<use xlink:href="#f0_2b" transform="matrix(12,0,0,12,163.5,601.1)" />
<use xlink:href="#f0_2b" transform="matrix(12,0,0,12,173.1,601.1)" />
<use xlink:href="#f0_28" transform="matrix(12,0,0,12,182.2,601.1)" />
<use xlink:href="#f0_25" transform="matrix(12,0,0,12,186.3,601.1)" />
<use xlink:href="#f0_2a" transform="matrix(12,0,0,12,190.3,601.1)" />
<use xlink:href="#f0_23" transform="matrix(12,0,0,12,199.2,601.1)" />
<use xlink:href="#f0_g" transform="matrix(12,0,0,12,208,601.1)" />
<use xlink:href="#f0_2g" transform="matrix(12,0,0,12,216.1,601.1)" />
<use xlink:href="#f0_24" transform="matrix(12,0,0,12,221.2,601.1)" />
<use xlink:href="#f0_21" transform="matrix(12,0,0,12,229.7,601.1)" />
<use xlink:href="#f0_23" transform="matrix(12,0,0,12,241.1,601.1)" />
<use xlink:href="#f0_1x" transform="matrix(12,0,0,12,249.9,601.1)" />
<use xlink:href="#f0_2f" transform="matrix(12,0,0,12,257.6,601.1)" />
<use xlink:href="#f0_c" transform="matrix(12,0,0,12,267.5,601.1)" />
<use xlink:href="#f0_11" transform="matrix(12,0,0,12,273.4,601.1)" />
<use xlink:href="#f0_d" transform="matrix(12,0,0,12,285.9,601.1)" />
<use xlink:href="#f0_1z" transform="matrix(12,0,0,12,295.4,601.1)" />
<use xlink:href="#f0_24" transform="matrix(12,0,0,12,303.2,601.1)" />
<use xlink:href="#f0_1x" transform="matrix(12,0,0,12,312,601.1)" />
<use xlink:href="#f0_2a" transform="matrix(12,0,0,12,319.7,601.1)" />
<use xlink:href="#f0_23" transform="matrix(12,0,0,12,328.1,601.1)" />
<use xlink:href="#f0_21" transform="matrix(12,0,0,12,337,601.1)" />
<use xlink:href="#f0_20" transform="matrix(12,0,0,12,345,601.1)" />
<use xlink:href="#f0_25" transform="matrix(12,0,0,12,357.2,601.1)" />
<use xlink:href="#f0_2a" transform="matrix(12,0,0,12,361.6,601.1)" />
<use xlink:href="#f0_2g" transform="matrix(12,0,0,12,370.1,601.1)" />
<use xlink:href="#f0_2b" transform="matrix(12,0,0,12,375.2,601.1)" />
<use xlink:href="#f0_1x" transform="matrix(12,0,0,12,388,601.1)" />
<use xlink:href="#f0_1z" transform="matrix(12,0,0,12,398.7,601.1)" />
<use xlink:href="#f0_2b" transform="matrix(12,0,0,12,406.8,601.1)" />
<use xlink:href="#f0_28" transform="matrix(12,0,0,12,415.9,601.1)" />
<use xlink:href="#f0_2b" transform="matrix(12,0,0,12,420,601.1)" />
<use xlink:href="#f0_2h" transform="matrix(12,0,0,12,429.2,601.1)" />
<use xlink:href="#f0_2e" transform="matrix(12,0,0,12,438.3,601.1)" />
<use xlink:href="#f0_28" transform="matrix(12,0,0,12,444.2,601.1)" />
<use xlink:href="#f0_21" transform="matrix(12,0,0,12,448.3,601.1)" />
<use xlink:href="#f0_2f" transform="matrix(12,0,0,12,456.3,601.1)" />
<use xlink:href="#f0_2f" transform="matrix(12,0,0,12,463,601.1)" />
<use xlink:href="#f0_2f" transform="matrix(12,0,0,12,472.9,601.1)" />
<use xlink:href="#f0_2b" transform="matrix(12,0,0,12,479.9,601.1)" />
<use xlink:href="#f0_28" transform="matrix(12,0,0,12,489,601.1)" />
<use xlink:href="#f0_25" transform="matrix(12,0,0,12,493.1,601.1)" />
<use xlink:href="#f0_20" transform="matrix(12,0,0,12,497.5,601.1)" />
<use xlink:href="#f0_c" transform="matrix(12,0,0,12,509.7,601.1)" />
<use xlink:href="#f0_12" transform="matrix(12,0,0,12,515.5,601.1)" />
<use xlink:href="#f0_d" transform="matrix(12,0,0,12,527.7,601.1)" />
<use xlink:href="#f0_i" transform="matrix(12,0,0,12,533.5,601.1)" />
<use xlink:href="#f0_c" transform="matrix(12,0,0,12,117,625.3)" />
<use xlink:href="#f0_25" transform="matrix(12,0,0,12,122.1,625.3)" />
<use xlink:href="#f0_d" transform="matrix(12,0,0,12,125.8,625.3)" />
<use xlink:href="#f0_19" transform="matrix(12,0,0,12,155.8,625.3)" />
<use xlink:href="#f0_20" transform="matrix(12,0,0,12,161.7,625.3)" />
<use xlink:href="#f0_21" transform="matrix(12,0,0,12,170.9,625.3)" />
<use xlink:href="#f0_2a" transform="matrix(12,0,0,12,178.6,625.3)" />
<use xlink:href="#f0_2g" transform="matrix(12,0,0,12,187,625.3)" />
<use xlink:href="#f0_25" transform="matrix(12,0,0,12,192.2,625.3)" />
<use xlink:href="#f0_22" transform="matrix(12,0,0,12,196.6,625.3)" />
<use xlink:href="#f0_2l" transform="matrix(12,0,0,12,201.7,625.3)" />
<use xlink:href="#f0_c" transform="matrix(12,0,0,12,213.1,625.3)" />
<use xlink:href="#f0_11" transform="matrix(12,0,0,12,219.4,625.3)" />
<use xlink:href="#f0_d" transform="matrix(12,0,0,12,231.9,625.3)" />
<use xlink:href="#f0_1x" transform="matrix(12,0,0,12,240.7,625.3)" />
<use xlink:href="#f0_2a" transform="matrix(12,0,0,12,248.8,625.3)" />
<use xlink:href="#f0_20" transform="matrix(12,0,0,12,257.2,625.3)" />
<use xlink:href="#f0_c" transform="matrix(12,0,0,12,269.4,625.3)" />
<use xlink:href="#f0_12" transform="matrix(12,0,0,12,275.6,625.3)" />
<use xlink:href="#f0_d" transform="matrix(12,0,0,12,287.3,625.3)" />
<use xlink:href="#f0_c" transform="matrix(12,0,0,12,117,649.9)" />
<use xlink:href="#f0_25" transform="matrix(12,0,0,12,122.1,649.9)" />
<use xlink:href="#f0_25" transform="matrix(12,0,0,12,125.8,649.9)" />
<use xlink:href="#f0_d" transform="matrix(12,0,0,12,129.1,649.9)" />
<use xlink:href="#f0_1n" transform="matrix(12,0,0,12,155.8,649.9)" />
<use xlink:href="#f0_2e" transform="matrix(12,0,0,12,171.6,649.9)" />
<use xlink:href="#f0_25" transform="matrix(12,0,0,12,177.8,649.9)" />
<use xlink:href="#f0_2g" transform="matrix(12,0,0,12,181.9,649.9)" />
<use xlink:href="#f0_21" transform="matrix(12,0,0,12,187,649.9)" />
<use xlink:href="#f0_2g" transform="matrix(12,0,0,12,198.4,649.9)" />
<use xlink:href="#f0_24" transform="matrix(12,0,0,12,203.6,649.9)" />
<use xlink:href="#f0_21" transform="matrix(12,0,0,12,212,649.9)" />
<use xlink:href="#f0_2f" transform="matrix(12,0,0,12,223.4,649.9)" />
<use xlink:href="#f0_2g" transform="matrix(12,0,0,12,230,649.9)" />
<use xlink:href="#f0_2e" transform="matrix(12,0,0,12,235.5,649.9)" />
<use xlink:href="#f0_2h" transform="matrix(12,0,0,12,241.4,649.9)" />
<use xlink:href="#f0_1z" transform="matrix(12,0,0,12,250.2,649.9)" />
<use xlink:href="#f0_2g" transform="matrix(12,0,0,12,257.9,649.9)" />
<use xlink:href="#f0_2h" transform="matrix(12,0,0,12,263.4,649.9)" />
<use xlink:href="#f0_2e" transform="matrix(12,0,0,12,272.3,649.9)" />
<use xlink:href="#f0_21" transform="matrix(12,0,0,12,278.1,649.9)" />
<use xlink:href="#f0_2f" transform="matrix(12,0,0,12,286.2,649.9)" />
<use xlink:href="#f0_2b" transform="matrix(12,0,0,12,295.8,649.9)" />
<use xlink:href="#f0_22" transform="matrix(12,0,0,12,305,649.9)" />
<use xlink:href="#f0_c" transform="matrix(12,0,0,12,313.8,649.9)" />
<use xlink:href="#f0_11" transform="matrix(12,0,0,12,319.7,649.9)" />
<use xlink:href="#f0_d" transform="matrix(12,0,0,12,332.5,649.9)" />
<use xlink:href="#f0_1x" transform="matrix(12,0,0,12,341.7,649.9)" />
<use xlink:href="#f0_2a" transform="matrix(12,0,0,12,349.8,649.9)" />
<use xlink:href="#f0_20" transform="matrix(12,0,0,12,358.3,649.9)" />
<use xlink:href="#f0_c" transform="matrix(12,0,0,12,370.4,649.9)" />
<use xlink:href="#f0_12" transform="matrix(12,0,0,12,376.6,649.9)" />
<use xlink:href="#f0_d" transform="matrix(12,0,0,12,388.4,649.9)" />
<use xlink:href="#f0_c" transform="matrix(12,0,0,12,117,674.4)" />
<use xlink:href="#f0_25" transform="matrix(12,0,0,12,122.1,674.4)" />
<use xlink:href="#f0_25" transform="matrix(12,0,0,12,125.4,674.4)" />
<use xlink:href="#f0_25" transform="matrix(12,0,0,12,129.1,674.4)" />
<use xlink:href="#f0_d" transform="matrix(12,0,0,12,132.4,674.4)" />
<use xlink:href="#f0_1n" transform="matrix(12,0,0,12,155.8,674.4)" />
<use xlink:href="#f0_24" transform="matrix(12,0,0,12,172.3,674.4)" />
<use xlink:href="#f0_2l" transform="matrix(12,0,0,12,181.2,674.4)" />
<use xlink:href="#f0_20" transform="matrix(12,0,0,12,192.9,674.4)" />
<use xlink:href="#f0_2b" transform="matrix(12,0,0,12,201.7,674.4)" />
<use xlink:href="#f0_21" transform="matrix(12,0,0,12,211.3,674.4)" />
<use xlink:href="#f0_2f" transform="matrix(12,0,0,12,219,674.4)" />
<use xlink:href="#f0_23" transform="matrix(12,0,0,12,228.9,674.4)" />
<use xlink:href="#f0_1x" transform="matrix(12,0,0,12,238.1,674.4)" />
<use xlink:href="#f0_2f" transform="matrix(12,0,0,12,245.8,674.4)" />
<use xlink:href="#f0_c" transform="matrix(12,0,0,12,256.1,674.4)" />
<use xlink:href="#f0_11" transform="matrix(12,0,0,12,262.3,674.4)" />
<use xlink:href="#f0_d" transform="matrix(12,0,0,12,274.8,674.4)" />
<use xlink:href="#f0_1z" transform="matrix(12,0,0,12,284.4,674.4)" />
<use xlink:href="#f0_24" transform="matrix(12,0,0,12,292.1,674.4)" />
<use xlink:href="#f0_1x" transform="matrix(12,0,0,12,300.9,674.4)" />
<use xlink:href="#f0_2a" transform="matrix(12,0,0,12,308.6,674.4)" />
<use xlink:href="#f0_23" transform="matrix(12,0,0,12,317.5,674.4)" />
<use xlink:href="#f0_21" transform="matrix(12,0,0,12,326.3,674.4)" />
<use xlink:href="#f0_2g" transform="matrix(12,0,0,12,337.7,674.4)" />
<use xlink:href="#f0_2b" transform="matrix(12,0,0,12,343.2,674.4)" />
<use xlink:href="#f0_2f" transform="matrix(12,0,0,12,355.7,674.4)" />
<use xlink:href="#f0_2b" transform="matrix(12,0,0,12,362.3,674.4)" />
<use xlink:href="#f0_28" transform="matrix(12,0,0,12,371.4,674.4)" />
<use xlink:href="#f0_25" transform="matrix(12,0,0,12,375.9,674.4)" />
<use xlink:href="#f0_20" transform="matrix(12,0,0,12,379.9,674.4)" />
<use xlink:href="#f0_2b" transform="matrix(12,0,0,12,392.4,674.4)" />
<use xlink:href="#f0_2a" transform="matrix(12,0,0,12,401.9,674.4)" />
<use xlink:href="#f0_1z" transform="matrix(12,0,0,12,414.1,674.4)" />
<use xlink:href="#f0_2b" transform="matrix(12,0,0,12,421.8,674.4)" />
<use xlink:href="#f0_2b" transform="matrix(12,0,0,12,431.3,674.4)" />
<use xlink:href="#f0_28" transform="matrix(12,0,0,12,440.5,674.4)" />
<use xlink:href="#f0_25" transform="matrix(12,0,0,12,444.9,674.4)" />
<use xlink:href="#f0_2a" transform="matrix(12,0,0,12,448.9,674.4)" />
<use xlink:href="#f0_23" transform="matrix(12,0,0,12,457.8,674.4)" />
<use xlink:href="#f0_i" transform="matrix(12,0,0,12,466.6,674.4)" />
<use xlink:href="#f0_11" transform="matrix(12,0,0,12,64.9,698.6)" />
<use xlink:href="#f0_2a" transform="matrix(12,0,0,12,77.4,698.6)" />
<use xlink:href="#f0_2f" transform="matrix(12,0,0,12,85.8,698.6)" />
<use xlink:href="#f0_i" transform="matrix(12,0,0,12,92.4,698.6)" />
<use xlink:href="#f0_c" transform="matrix(12,0,0,12,117,698.6)" />
<use xlink:href="#f0_25" transform="matrix(12,0,0,12,122.1,698.6)" />
<use xlink:href="#f0_d" transform="matrix(12,0,0,12,125.8,698.6)" />
<use xlink:href="#f2_1e" transform="matrix(12,0,0,12,155.8,698.6)" />
<use xlink:href="#f2_1f" transform="matrix(12,0,0,12,167.9,698.6)" />
<use xlink:href="#f0_m" transform="matrix(7,0,0,7,181.5,704.9)" />
<use xlink:href="#f0_c" transform="matrix(12,0,0,12,117,727.6)" />
<use xlink:href="#f0_25" transform="matrix(12,0,0,12,122.1,727.6)" />
<use xlink:href="#f0_25" transform="matrix(12,0,0,12,125.8,727.6)" />
<use xlink:href="#f0_d" transform="matrix(12,0,0,12,129.1,727.6)" />
<use xlink:href="#f2_1e" transform="matrix(12,0,0,12,155.8,727.6)" />
<use xlink:href="#f0_m" transform="matrix(7,0,0,7,168.3,733.8)" />
<use xlink:href="#f2_1f" transform="matrix(12,0,0,12,173.4,727.6)" />
<use xlink:href="#f0_o" transform="matrix(7,0,0,7,187.4,733.8)" />
<use xlink:href="#f0_c" transform="matrix(12,0,0,12,117,756.2)" />
<use xlink:href="#f0_25" transform="matrix(12,0,0,12,122.1,756.2)" />
<use xlink:href="#f0_25" transform="matrix(12,0,0,12,125.4,756.2)" />
<use xlink:href="#f0_25" transform="matrix(12,0,0,12,129.1,756.2)" />
<use xlink:href="#f0_d" transform="matrix(12,0,0,12,132.4,756.2)" />
<use xlink:href="#f2_1e" transform="matrix(12,0,0,12,155.8,756.2)" />
<use xlink:href="#f2_1f" transform="matrix(12,0,0,12,168,756.2)" />
<use xlink:href="#f0_m" transform="matrix(7,0,0,7,181.1,762.4)" />
<use xlink:href="#f0_25" transform="matrix(12,0,0,12,189.6,756.2)" />
<use xlink:href="#f0_2f" transform="matrix(12,0,0,12,193.6,756.2)" />
<use xlink:href="#f0_1x" transform="matrix(12,0,0,12,203.9,756.2)" />
<use xlink:href="#f0_2a" transform="matrix(12,0,0,12,212,756.2)" />
<use xlink:href="#f0_2b" transform="matrix(12,0,0,12,223.8,756.2)" />
<use xlink:href="#f0_20" transform="matrix(12,0,0,12,233.3,756.2)" />
<use xlink:href="#f0_20" transform="matrix(12,0,0,12,242.1,756.2)" />
<use xlink:href="#f0_21" transform="matrix(12,0,0,12,255,756.2)" />
<use xlink:href="#f0_28" transform="matrix(12,0,0,12,262.7,756.2)" />
<use xlink:href="#f0_21" transform="matrix(12,0,0,12,267.1,756.2)" />
<use xlink:href="#f0_1z" transform="matrix(12,0,0,12,275.2,756.2)" />
<use xlink:href="#f0_2g" transform="matrix(12,0,0,12,282.9,756.2)" />
<use xlink:href="#f0_2e" transform="matrix(12,0,0,12,288.4,756.2)" />
<use xlink:href="#f0_2b" transform="matrix(12,0,0,12,294.3,756.2)" />
<use xlink:href="#f0_2a" transform="matrix(12,0,0,12,303.8,756.2)" />
<use xlink:href="#f0_2f" transform="matrix(12,0,0,12,316,756.2)" />
<use xlink:href="#f0_2c" transform="matrix(12,0,0,12,323,756.2)" />
<use xlink:href="#f0_21" transform="matrix(12,0,0,12,331.8,756.2)" />
<use xlink:href="#f0_1z" transform="matrix(12,0,0,12,339.9,756.2)" />
<use xlink:href="#f0_25" transform="matrix(12,0,0,12,347.9,756.2)" />
<use xlink:href="#f0_21" transform="matrix(12,0,0,12,352,756.2)" />
<use xlink:href="#f0_2f" transform="matrix(12,0,0,12,360.1,756.2)" />
<use xlink:href="#f0_1x" transform="matrix(12,0,0,12,370.4,756.2)" />
<use xlink:href="#f0_2a" transform="matrix(12,0,0,12,378.5,756.2)" />
<use xlink:href="#f0_20" transform="matrix(12,0,0,12,386.9,756.2)" />
<use xlink:href="#f0_24" transform="matrix(12,0,0,12,399.8,756.2)" />
<use xlink:href="#f0_21" transform="matrix(12,0,0,12,408.2,756.2)" />
<use xlink:href="#f0_2a" transform="matrix(12,0,0,12,416.3,756.2)" />
<use xlink:href="#f0_1z" transform="matrix(12,0,0,12,424.7,756.2)" />
<use xlink:href="#f0_21" transform="matrix(12,0,0,12,432.8,756.2)" />
<use xlink:href="#f0_25" transform="matrix(12,0,0,12,444.2,756.2)" />
<use xlink:href="#f0_2g" transform="matrix(12,0,0,12,448.6,756.2)" />
<use xlink:href="#f0_20" transform="matrix(12,0,0,12,457.1,756.2)" />
<use xlink:href="#f0_25" transform="matrix(12,0,0,12,466.3,756.2)" />
<use xlink:href="#f0_29" transform="matrix(12,0,0,12,470.3,756.2)" />
<use xlink:href="#f0_21" transform="matrix(12,0,0,12,483.9,756.2)" />
<use xlink:href="#f0_2e" transform="matrix(12,0,0,12,491.6,756.2)" />
<use xlink:href="#f0_25" transform="matrix(12,0,0,12,497.8,756.2)" />
<use xlink:href="#f0_2m" transform="matrix(12,0,0,12,502.3,756.2)" />
<use xlink:href="#f0_21" transform="matrix(12,0,0,12,510,756.2)" />
<use xlink:href="#f0_2f" transform="matrix(12,0,0,12,518.1,756.2)" />
<use xlink:href="#f0_2g" transform="matrix(12,0,0,12,528.4,756.2)" />
<use xlink:href="#f0_2b" transform="matrix(12,0,0,12,533.9,756.2)" />
<use xlink:href="#f0_23" transform="matrix(12,0,0,12,546.7,756.2)" />
<use xlink:href="#f0_25" transform="matrix(12,0,0,12,555.9,756.2)" />
<use xlink:href="#f0_2i" transform="matrix(12,0,0,12,559.9,756.2)" />
<use xlink:href="#f0_21" transform="matrix(12,0,0,12,568.7,756.2)" />
<use xlink:href="#f2_1e" transform="matrix(12,0,0,12,579.3,756.2)" />
<use xlink:href="#f0_m" transform="matrix(7,0,0,7,591.4,762.4)" />
<use xlink:href="#f2_1f" transform="matrix(12,0,0,12,596.2,756.2)" />
<use xlink:href="#f0_o" transform="matrix(7,0,0,7,609.4,762.4)" />
<use xlink:href="#f0_2b" transform="matrix(12,0,0,12,617.9,756.2)" />
<use xlink:href="#f0_2a" transform="matrix(12,0,0,12,627,756.2)" />
<use xlink:href="#f0_1z" transform="matrix(12,0,0,12,639.2,756.2)" />
<use xlink:href="#f0_2b" transform="matrix(12,0,0,12,647.2,756.2)" />
<use xlink:href="#f0_2b" transform="matrix(12,0,0,12,656.4,756.2)" />
<use xlink:href="#f0_28" transform="matrix(12,0,0,12,665.9,756.2)" />
<use xlink:href="#f0_25" transform="matrix(12,0,0,12,670,756.2)" />
<use xlink:href="#f0_2a" transform="matrix(12,0,0,12,674.4,756.2)" />
<use xlink:href="#f0_23" transform="matrix(12,0,0,12,682.9,756.2)" />
<use xlink:href="#f0_i" transform="matrix(12,0,0,12,692,756.2)" />
<use xlink:href="#f0_c" transform="matrix(12,0,0,12,117,833.9)" />
<use xlink:href="#f0_1y" transform="matrix(12,0,0,12,122.9,833.9)" />
<use xlink:href="#f0_d" transform="matrix(12,0,0,12,131.3,833.9)" />
<use xlink:href="#f0_11" transform="matrix(12,0,0,12,155.8,833.9)" />
<use xlink:href="#f0_2e" transform="matrix(12,0,0,12,168.3,833.9)" />
<use xlink:href="#f0_2e" transform="matrix(12,0,0,12,174.2,833.9)" />
<use xlink:href="#f0_1x" transform="matrix(12,0,0,12,180.1,833.9)" />
<use xlink:href="#f0_2a" transform="matrix(12,0,0,12,187.8,833.9)" />
<use xlink:href="#f0_23" transform="matrix(12,0,0,12,196.3,833.9)" />
<use xlink:href="#f0_21" transform="matrix(12,0,0,12,205.1,833.9)" />
<use xlink:href="#f0_2g" transform="matrix(12,0,0,12,216.5,833.9)" />
<use xlink:href="#f0_24" transform="matrix(12,0,0,12,221.6,833.9)" />
<use xlink:href="#f0_21" transform="matrix(12,0,0,12,230.1,833.9)" />
<use xlink:href="#f0_22" transform="matrix(12,0,0,12,241.1,833.9)" />
<use xlink:href="#f0_2b" transform="matrix(12,0,0,12,246.2,833.9)" />
<use xlink:href="#f0_28" transform="matrix(12,0,0,12,255.4,833.9)" />
<use xlink:href="#f0_28" transform="matrix(12,0,0,12,259.5,833.9)" />
<use xlink:href="#f0_2b" transform="matrix(12,0,0,12,263.5,833.9)" />
<use xlink:href="#f0_2j" transform="matrix(12,0,0,12,272.7,833.9)" />
<use xlink:href="#f0_25" transform="matrix(12,0,0,12,285.5,833.9)" />
<use xlink:href="#f0_2a" transform="matrix(12,0,0,12,289.6,833.9)" />
<use xlink:href="#f0_23" transform="matrix(12,0,0,12,298,833.9)" />
<use xlink:href="#f0_25" transform="matrix(12,0,0,12,309.8,833.9)" />
<use xlink:href="#f0_2a" transform="matrix(12,0,0,12,314.2,833.9)" />
<use xlink:href="#f0_2g" transform="matrix(12,0,0,12,326,833.9)" />
<use xlink:href="#f0_24" transform="matrix(12,0,0,12,331.1,833.9)" />
<use xlink:href="#f0_21" transform="matrix(12,0,0,12,339.6,833.9)" />
<use xlink:href="#f0_20" transform="matrix(12,0,0,12,350.6,833.9)" />
<use xlink:href="#f0_21" transform="matrix(12,0,0,12,359.4,833.9)" />
<use xlink:href="#f0_1z" transform="matrix(12,0,0,12,367.1,833.9)" />
<use xlink:href="#f0_2e" transform="matrix(12,0,0,12,374.8,833.9)" />
<use xlink:href="#f0_21" transform="matrix(12,0,0,12,380.7,833.9)" />
<use xlink:href="#f0_1x" transform="matrix(12,0,0,12,388.4,833.9)" />
<use xlink:href="#f0_2f" transform="matrix(12,0,0,12,396.2,833.9)" />
<use xlink:href="#f0_25" transform="matrix(12,0,0,12,402.8,833.9)" />
<use xlink:href="#f0_2a" transform="matrix(12,0,0,12,406.8,833.9)" />
<use xlink:href="#f0_23" transform="matrix(12,0,0,12,415.6,833.9)" />
<use xlink:href="#f0_2b" transform="matrix(12,0,0,12,427.8,833.9)" />
<use xlink:href="#f0_2e" transform="matrix(12,0,0,12,436.9,833.9)" />
<use xlink:href="#f0_20" transform="matrix(12,0,0,12,442.8,833.9)" />
<use xlink:href="#f0_21" transform="matrix(12,0,0,12,451.6,833.9)" />
<use xlink:href="#f0_2e" transform="matrix(12,0,0,12,459.4,833.9)" />
<use xlink:href="#f0_2b" transform="matrix(12,0,0,12,468.6,833.9)" />
<use xlink:href="#f0_22" transform="matrix(12,0,0,12,477.7,833.9)" />
<use xlink:href="#f0_2g" transform="matrix(12,0,0,12,485.8,833.9)" />
<use xlink:href="#f0_24" transform="matrix(12,0,0,12,491,833.9)" />
<use xlink:href="#f0_21" transform="matrix(12,0,0,12,499.4,833.9)" />
<use xlink:href="#f0_25" transform="matrix(12,0,0,12,507.5,833.9)" />
<use xlink:href="#f0_2e" transform="matrix(12,0,0,12,511.5,833.9)" />
<use xlink:href="#f0_2e" transform="matrix(12,0,0,12,520.7,833.9)" />
<use xlink:href="#f0_21" transform="matrix(12,0,0,12,526.6,833.9)" />
<use xlink:href="#f0_20" transform="matrix(12,0,0,12,534.3,833.9)" />
<use xlink:href="#f0_2h" transform="matrix(12,0,0,12,543.2,833.9)" />
<use xlink:href="#f0_1z" transform="matrix(12,0,0,12,552,833.9)" />
<use xlink:href="#f0_2g" transform="matrix(12,0,0,12,559.7,833.9)" />
<use xlink:href="#f0_25" transform="matrix(12,0,0,12,564.8,833.9)" />
<use xlink:href="#f0_2a" transform="matrix(12,0,0,12,568.9,833.9)" />
<use xlink:href="#f0_23" transform="matrix(12,0,0,12,577.3,833.9)" />
<use xlink:href="#f0_1z" transform="matrix(12,0,0,12,589.5,833.9)" />
<use xlink:href="#f0_24" transform="matrix(12,0,0,12,597.2,833.9)" />
<use xlink:href="#f0_1x" transform="matrix(12,0,0,12,606,833.9)" />
<use xlink:href="#f0_2e" transform="matrix(12,0,0,12,613.7,833.9)" />
<use xlink:href="#f0_1x" transform="matrix(12,0,0,12,619.6,833.9)" />
<use xlink:href="#f0_1z" transform="matrix(12,0,0,12,627.3,833.9)" />
<use xlink:href="#f0_2g" transform="matrix(12,0,0,12,635,833.9)" />
<use xlink:href="#f0_21" transform="matrix(12,0,0,12,640.2,833.9)" />
<use xlink:href="#f0_2e" transform="matrix(12,0,0,12,647.9,833.9)" />
<use xlink:href="#f0_u" transform="matrix(12,0,0,12,653.8,833.9)" />
<use xlink:href="#f0_18" transform="matrix(12,0,0,12,155.8,862.9)" />
<use xlink:href="#f0_16" transform="matrix(12,0,0,12,169.1,862.9)" />
<use xlink:href="#f0_g" transform="matrix(12,0,0,12,177.1,862.9)" />
<use xlink:href="#f0_18" transform="matrix(12,0,0,12,185.6,862.9)" />
<use xlink:href="#f0_13" transform="matrix(12,0,0,12,198.8,862.9)" />
<use xlink:href="#f0_28" transform="matrix(12,0,0,12,210.6,862.9)" />
<use xlink:href="#f0_g" transform="matrix(12,0,0,12,215,862.9)" />
<use xlink:href="#f0_18" transform="matrix(12,0,0,12,223.1,862.9)" />
<use xlink:href="#f0_12" transform="matrix(12,0,0,12,235.9,862.9)" />
<use xlink:href="#f0_2e" transform="matrix(12,0,0,12,248,862.9)" />
<use xlink:href="#f0_g" transform="matrix(12,0,0,12,253.5,862.9)" />
<use xlink:href="#f0_18" transform="matrix(12,0,0,12,261.6,862.9)" />
<use xlink:href="#f0_19" transform="matrix(12,0,0,12,274.8,862.9)" />
<use xlink:href="#f0_11" transform="matrix(12,0,0,12,64.9,892.2)" />
<use xlink:href="#f0_2a" transform="matrix(12,0,0,12,77.4,892.2)" />
<use xlink:href="#f0_2f" transform="matrix(12,0,0,12,85.8,892.2)" />
<use xlink:href="#f0_i" transform="matrix(12,0,0,12,92.5,892.2)" />
<use xlink:href="#f2_18" transform="matrix(12.3,0,0,12.3,159.1,894.8)" />
<use xlink:href="#f2_19" transform="matrix(12.3,0,0,12.3,172.3,894.8)" />
<use xlink:href="#f2_18" transform="matrix(12.3,0,0,12.3,199.5,894.8)" />
<use xlink:href="#f2_12" transform="matrix(12.3,0,0,12.3,212.7,894.8)" />
<use xlink:href="#f2_2e" transform="matrix(12.3,0,0,12.3,223.7,894.8)" />
<use xlink:href="#f2_18" transform="matrix(12.3,0,0,12.3,251.2,894.8)" />
<use xlink:href="#f2_13" transform="matrix(12.3,0,0,12.3,264,894.8)" />
<use xlink:href="#f2_28" transform="matrix(12.3,0,0,12.3,276.5,894.8)" />
<use xlink:href="#f2_18" transform="matrix(12.3,0,0,12.3,301.8,894.8)" />
<use xlink:href="#f2_19" transform="matrix(12.3,0,0,12.3,315,894.8)" />
<use xlink:href="#f3_y" transform="matrix(12.3,0,0,12.3,184.8,894.8)" />
<use xlink:href="#f3_y" transform="matrix(12.3,0,0,12.3,236.1,894.8)" />
<use xlink:href="#f3_y" transform="matrix(12.3,0,0,12.3,286.7,894.8)" />
<use xlink:href="#f0_c" transform="matrix(12,0,0,12,117,971.1)" />
<use xlink:href="#f0_1z" transform="matrix(12,0,0,12,122.5,971.1)" />
<use xlink:href="#f0_d" transform="matrix(12,0,0,12,130.2,971.1)" />
<use xlink:href="#f0_13" transform="matrix(12,0,0,12,155.8,971.1)" />
<use xlink:href="#f0_2b" transform="matrix(12,0,0,12,167.6,971.1)" />
<use xlink:href="#f0_29" transform="matrix(12,0,0,12,176.7,971.1)" />
<use xlink:href="#f0_2c" transform="matrix(12,0,0,12,189.6,971.1)" />
<use xlink:href="#f0_28" transform="matrix(12,0,0,12,198.4,971.1)" />
<use xlink:href="#f0_21" transform="matrix(12,0,0,12,202.5,971.1)" />
<use xlink:href="#f0_2g" transform="matrix(12,0,0,12,210.2,971.1)" />
<use xlink:href="#f0_21" transform="matrix(12,0,0,12,215,971.1)" />
<use xlink:href="#f0_2g" transform="matrix(12,0,0,12,226,971.1)" />
<use xlink:href="#f0_24" transform="matrix(12,0,0,12,231.1,971.1)" />
<use xlink:href="#f0_21" transform="matrix(12,0,0,12,239.6,971.1)" />
<use xlink:href="#f0_22" transform="matrix(12,0,0,12,249.9,971.1)" />
<use xlink:href="#f0_2b" transform="matrix(12,0,0,12,255,971.1)" />
<use xlink:href="#f0_28" transform="matrix(12,0,0,12,264.2,971.1)" />
<use xlink:href="#f0_28" transform="matrix(12,0,0,12,267.9,971.1)" />
<use xlink:href="#f0_2b" transform="matrix(12,0,0,12,271.9,971.1)" />
<use xlink:href="#f0_2j" transform="matrix(12,0,0,12,281.1,971.1)" />
<use xlink:href="#f0_25" transform="matrix(12,0,0,12,293.9,971.1)" />
<use xlink:href="#f0_2a" transform="matrix(12,0,0,12,297.6,971.1)" />
<use xlink:href="#f0_23" transform="matrix(12,0,0,12,306.1,971.1)" />
<use xlink:href="#f0_2e" transform="matrix(12,0,0,12,318.2,971.1)" />
<use xlink:href="#f0_21" transform="matrix(12,0,0,12,324.1,971.1)" />
<use xlink:href="#f0_1x" transform="matrix(12,0,0,12,331.4,971.1)" />
<use xlink:href="#f0_1z" transform="matrix(12,0,0,12,339.2,971.1)" />
<use xlink:href="#f0_2g" transform="matrix(12,0,0,12,346.9,971.1)" />
<use xlink:href="#f0_25" transform="matrix(12,0,0,12,352,971.1)" />
<use xlink:href="#f0_2b" transform="matrix(12,0,0,12,355.7,971.1)" />
<use xlink:href="#f0_2a" transform="matrix(12,0,0,12,364.9,971.1)" />
<use xlink:href="#f0_u" transform="matrix(12,0,0,12,373.3,971.1)" />
<use xlink:href="#f0_o" transform="matrix(6.8,0,0,6.8,188.8,1011)" />
<use xlink:href="#f0_p" transform="matrix(6.8,0,0,6.8,239.4,1011)" />
<use xlink:href="#f2_1o" transform="matrix(11.8,0,0,11.8,159.9,1006.3)" />
<use xlink:href="#f2_21" transform="matrix(11.8,0,0,11.8,171.2,1006.3)" />
<use xlink:href="#f2_16" transform="matrix(11.8,0,0,11.8,179.3,1006.3)" />
<use xlink:href="#f2_1j" transform="matrix(11.8,0,0,11.8,211.9,1006.3)" />
<use xlink:href="#f2_1y" transform="matrix(11.8,0,0,11.8,221.1,1006.3)" />
<use xlink:href="#f2_16" transform="matrix(11.8,0,0,11.8,230.2,1006.3)" />
<use xlink:href="#f3_f" transform="matrix(11.8,0,0,11.8,198.7,1006.3)" />
<use xlink:href="#f3_3k" transform="matrix(11.8,0,0,11.8,250.1,1006.3)" />
<use xlink:href="#f3_3k" transform="matrix(11.8,0,0,11.8,268.7,1006.3)" />
<use xlink:href="#f3_34" transform="matrix(11.8,0,0,11.8,272.8,1006.3)" />
<use xlink:href="#f0_11" transform="matrix(12,0,0,12,64.9,1048.8)" />
<use xlink:href="#f0_2a" transform="matrix(12,0,0,12,77.4,1048.8)" />
<use xlink:href="#f0_2f" transform="matrix(12,0,0,12,85.8,1048.8)" />
<use xlink:href="#f0_i" transform="matrix(12,0,0,12,92.4,1048.8)" />
<use xlink:href="#f0_o" transform="matrix(7.2,0,0,7,198.4,1056.5)" />
<use xlink:href="#f0_p" transform="matrix(7.2,0,0,7,249.7,1056.5)" />
</g>
<g clip-path="url(#c0_17)">
<g fill="#000000" >
<use xlink:href="#f2_1o" transform="matrix(11.9,0,0,12,169.4,1051.7)" />
</g>
</g>
<g fill="#000000" >
<use xlink:href="#f2_21" transform="matrix(11.9,0,0,12,180.4,1051.7)" />
<use xlink:href="#f2_16" transform="matrix(11.9,0,0,12,188.5,1051.7)" />
<use xlink:href="#f2_1j" transform="matrix(11.9,0,0,12,222.2,1051.7)" />
<use xlink:href="#f2_1y" transform="matrix(11.9,0,0,12,231,1051.7)" />
<use xlink:href="#f2_16" transform="matrix(11.9,0,0,12,240.2,1051.7)" />
<use xlink:href="#f3_f" transform="matrix(12,0,0,12,208.3,1051.7)" />
</g>
<path d="M211.4,1081.3v-22.1h1.8v22.1h-1.8Zm5.1,-.8l-4,7.4l-4,-7.4h8Z" class="g0_17" />
<g fill="#000000" >
<use xlink:href="#f3_1r" transform="matrix(16.3,0,0,16.4,159.1,1112.6)" />
<use xlink:href="#f3_1t" transform="matrix(16.3,0,0,16.4,203.5,1112.6)" />
<use xlink:href="#f3_1r" transform="matrix(16.3,0,0,16.4,220.7,1112.6)" />
<use xlink:href="#f3_1t" transform="matrix(16.3,0,0,16.4,263.3,1112.6)" />
<use xlink:href="#f0_n" transform="matrix(7.2,0,0,7,196.2,1115.9)" />
<use xlink:href="#f0_q" transform="matrix(7.2,0,0,7,255.6,1115.9)" />
<use xlink:href="#f2_1o" transform="matrix(11.9,0,0,12,167.6,1111.1)" />
<use xlink:href="#f2_21" transform="matrix(11.9,0,0,12,178.6,1111.1)" />
<use xlink:href="#f2_16" transform="matrix(11.9,0,0,12,186.6,1111.1)" />
<use xlink:href="#f2_1j" transform="matrix(11.9,0,0,12,227.7,1111.1)" />
<use xlink:href="#f2_1y" transform="matrix(11.9,0,0,12,236.9,1111.1)" />
<use xlink:href="#f2_16" transform="matrix(11.9,0,0,12,246,1111.1)" />
<use xlink:href="#f3_3r" transform="matrix(6.8,0,0,7,209.4,1100.1)" />
</g>
<path d="M282.3,1097.4H272.1V1096h10.2v1.4Z" class="g0_17" />
<g fill="#000000" >
<use xlink:href="#f4_l" transform="matrix(8,0,0,8,785.4,1264.3)" />
<use xlink:href="#f4_r" transform="matrix(8,0,0,8,792.2,1264.3)" />
</g>
<defs>
<path d="M474,-326c0,0,-112,57,-188,133c0,0,-107,108,-165,254c0,0,-58,147,-58,305c0,0,0,231,114,421c0,0,114,191,297,273v-31c0,0,-92,-51,-151,-139c0,0,-59,-88,-88,-223c0,0,-30,-135,-30,-281c0,0,0,-160,25,-290c0,0,20,-102,47,-164c0,0,28,-62,75,-120c0,0,47,-57,122,-109v-29Z" 
id="f0_c"
transform="scale(0.001,-0.001)" />

<path d="M397,34c0,0,67,0,126,75c0,0,58,74,58,216c0,0,0,131,-58,201c0,0,-59,70,-133,70c0,0,-39,0,-79,-20c0,0,-29,-14,-75,-59V109c0,0,37,-37,78,-56c0,0,40,-19,83,-19ZM358,-20c0,0,-59,0,-121,21c0,0,-61,22,-126,65V773c0,0,0,117,-5,144c0,0,-6,27,-18,37c0,0,-12,9,-29,9c0,0,-21,0,-53,-12l-9,27l205,83h34V564c0,0,98,139,213,139c0,0,105,0,183,-90c0,0,78,-90,78,-245c0,0,0,-182,-121,-293c0,0,-103,-95,-231,-95Z" 
id="f0_1y"
transform="scale(0.001,-0.001)" />

<path d="M35,-326v29c0,0,92,51,151,139c0,0,60,87,89,221c0,0,28,136,28,282c0,0,0,159,-24,290c0,0,-19,103,-47,165c0,0,-28,62,-75,119c0,0,-46,57,-122,110v31c0,0,113,-56,188,-132c0,0,107,-109,165,-255c0,0,58,-147,58,-306c0,0,0,-231,-114,-420c0,0,-113,-191,-297,-273Z" 
id="f0_d"
transform="scale(0.001,-0.001)" />

<path d="M473,53c0,0,173,0,287,121c0,0,114,122,114,330c0,0,0,210,-114,330c0,0,-114,121,-293,121c0,0,-67,0,-153,-21V74c0,0,95,-21,159,-21ZM26,0V27H64c0,0,64,0,91,41c0,0,16,25,16,111V833c0,0,0,95,-21,119c0,0,-29,33,-86,33H26v27H438c0,0,226,0,345,-51c0,0,118,-52,190,-172c0,0,72,-120,72,-278c0,0,0,-211,-129,-353C916,158,773,0,478,0Z" 
id="f0_14"
transform="scale(0.001,-0.001)" />

<path d="M17,0V26c0,0,52,0,77,17c0,0,19,12,26,38c0,0,4,13,4,73V419c0,0,0,119,-5,142c0,0,-4,23,-17,33c0,0,-13,11,-33,11c0,0,-23,0,-52,-11l-7,26l207,83h31V549c0,0,86,154,176,154c0,0,41,0,68,-25c0,0,27,-25,27,-58c0,0,0,-29,-20,-49c0,0,-19,-20,-46,-20c0,0,-26,0,-58,25c0,0,-33,26,-48,26c0,0,-14,0,-29,-15c0,0,-34,-30,-70,-101V159c0,0,0,-56,15,-85c0,0,9,-20,34,-34c0,0,24,-14,71,-14V0Z" 
id="f0_2e"
transform="scale(0.001,-0.001)" />

<path d="M286,72c0,0,57,0,149,75V407c0,0,-113,-45,-145,-64c0,0,-59,-32,-85,-68c0,0,-25,-36,-25,-78c0,0,0,-54,32,-89c0,0,32,-36,74,-36ZM217,-13c0,0,-71,0,-116,48c0,0,-46,48,-46,127c0,0,0,50,22,87c0,0,31,50,106,95c0,0,76,45,252,109v26c0,0,0,102,-32,140c0,0,-32,38,-94,38c0,0,-47,0,-74,-25c0,0,-28,-25,-28,-58l1,-43c0,0,0,-34,-17,-53c0,0,-18,-18,-47,-18c0,0,-28,0,-45,19c0,0,-18,19,-18,53c0,0,0,64,66,117c0,0,65,54,184,54c0,0,91,0,149,-31c0,0,44,-23,65,-72c0,0,13,-32,13,-131V238c0,0,0,-98,4,-120c0,0,4,-22,12,-29c0,0,9,-8,20,-8c0,0,12,0,21,5c0,0,16,10,61,55V99C676,99,592,-12,516,-12c0,0,-37,0,-58,24c0,0,-22,26,-23,86C435,98,330,17,303,5c0,0,-40,-18,-86,-18Z" 
id="f0_1x"
transform="scale(0.001,-0.001)" />

<path d="M336,-20L117,554c0,0,-21,55,-42,74c0,0,-21,19,-66,29v26H296V657c0,0,-40,-3,-52,-14c0,0,-13,-12,-13,-33c0,0,0,-23,13,-56L390,162L537,481L498,581c0,0,-18,46,-47,63c0,0,-17,11,-61,13v26H716V657c0,0,-54,-2,-77,-20c0,0,-15,-12,-15,-39c0,0,0,-15,6,-30L785,177L929,554c0,0,15,40,15,65c0,0,0,14,-15,25c0,0,-14,12,-57,13v26h216V657c0,0,-65,-10,-95,-89L764,-20H733L563,415L363,-20Z" 
id="f0_2j"
transform="scale(0.001,-0.001)" />

<path d="M255,-10c0,0,-35,0,-68,18c0,0,-32,19,-48,55c0,0,-16,35,-16,109V632H15v24c0,0,41,16,84,56c0,0,43,39,77,92c0,0,17,29,48,104h23V683H407V632H247V188c0,0,0,-66,19,-90c0,0,19,-23,49,-23c0,0,24,0,47,16c0,0,23,15,36,45h29c0,0,-26,-73,-74,-110c0,0,-47,-36,-98,-36Z" 
id="f0_2g"
transform="scale(0.001,-0.001)" />

<path d="M20,0V26c0,0,45,0,71,15c0,0,15,7,24,28c0,0,9,21,9,85V773c0,0,0,117,-5,144c0,0,-6,27,-17,37c0,0,-12,9,-31,9c0,0,-16,0,-51,-12L10,978l204,83h34V561c0,0,83,91,131,116c0,0,49,26,97,26c0,0,58,0,100,-32c0,0,42,-32,62,-101c0,0,14,-47,14,-174V154c0,0,0,-65,11,-89c0,0,7,-18,25,-28c0,0,18,-11,66,-11V0H418V26h15c0,0,48,0,67,15c0,0,18,15,26,43c0,0,2,12,2,70V396c0,0,0,112,-12,147c0,0,-11,35,-36,53c0,0,-26,17,-61,17c0,0,-37,0,-76,-19c0,0,-40,-20,-95,-79V154c0,0,0,-70,8,-87c0,0,8,-17,29,-29c0,0,22,-12,74,-12V0Z" 
id="f0_24"
transform="scale(0.001,-0.001)" />

<path d="M479,469c0,0,-4,66,-16,93c0,0,-18,42,-55,65c0,0,-37,24,-78,24c0,0,-62,0,-111,-48c0,0,-48,-48,-57,-134ZM355,-20c0,0,-123,0,-211,95c0,0,-87,96,-87,258c0,0,0,175,90,273c0,0,89,98,225,98c0,0,115,0,189,-76c0,0,74,-75,74,-202H162c0,0,0,-152,74,-239c0,0,75,-86,175,-86c0,0,67,0,117,36c0,0,50,37,83,127l24,-15c0,0,-16,-102,-91,-186c0,0,-76,-83,-189,-83Z" 
id="f0_21"
transform="scale(0.001,-0.001)" />

<path d="M312,-20c0,0,-62,0,-143,22c0,0,-25,8,-40,8c0,0,-18,0,-27,-19H77V234h25c0,0,21,-105,80,-158c0,0,59,-53,132,-53c0,0,51,0,84,31c0,0,32,30,32,72c0,0,0,52,-36,87c0,0,-36,35,-144,88c0,0,-109,54,-142,97c0,0,-34,43,-34,107c0,0,0,85,58,141c0,0,58,57,150,57c0,0,40,0,97,-17c0,0,38,-11,51,-11c0,0,12,0,19,5c0,0,7,5,15,23h25V470H464c0,0,-28,110,-72,149c0,0,-45,40,-113,40c0,0,-53,0,-85,-28c0,0,-32,-27,-32,-61c0,0,0,-41,24,-71c0,0,23,-31,94,-65L389,381c0,0,152,-74,152,-194c0,0,0,-94,-71,-151c0,0,-70,-56,-158,-56Z" 
id="f0_2f"
transform="scale(0.001,-0.001)" />

<path d="M292,-20c0,0,-57,0,-100,33c0,0,-42,33,-58,85c0,0,-17,52,-17,148V551c0,0,0,49,-10,68c0,0,-11,18,-31,29c0,0,-19,9,-68,9c-2,0,-4,0,-6,0v26H242V226c0,0,0,-95,33,-125c0,0,33,-30,80,-30c0,0,32,0,73,21c0,0,40,20,96,76V555c0,0,0,59,-21,80c0,0,-22,21,-89,22v26H647V269c0,0,0,-119,6,-145c0,0,6,-27,18,-37c0,0,12,-11,29,-11c0,0,23,0,52,13L763,63L558,-20H524V124C524,124,436,29,390,4c0,0,-47,-24,-98,-24Z" 
id="f0_2h"
transform="scale(0.001,-0.001)" />

<path d="M342,-20c0,0,-116,0,-203,97c0,0,-86,98,-86,264c0,0,0,161,96,261c0,0,95,101,230,101c0,0,100,0,165,-53c0,0,65,-54,65,-111c0,0,0,-29,-18,-46c0,0,-18,-18,-51,-18c0,0,-44,0,-66,29c0,0,-13,15,-17,59c0,0,-4,45,-30,68c0,0,-26,22,-73,22c0,0,-74,0,-120,-55c0,0,-60,-73,-60,-193c0,0,0,-122,60,-216c0,0,60,-93,162,-93c0,0,73,0,131,49c0,0,41,35,80,126l22,-10C629,261,601,125,521,52c0,0,-81,-72,-179,-72Z" 
id="f0_1z"
transform="scale(0.001,-0.001)" />

<path d="M406,32c0,0,72,0,119,60c0,0,47,59,47,205c0,0,0,181,-78,286c0,0,-53,71,-135,71c0,0,-40,0,-79,-23c0,0,-40,-24,-65,-83c0,0,-24,-58,-24,-151c0,0,0,-149,59,-257c0,0,59,-108,156,-108ZM374,-20c0,0,-154,0,-245,122c0,0,-77,104,-77,233c0,0,0,94,46,187c0,0,47,92,123,137c0,0,76,44,161,44c0,0,155,0,249,-118c0,0,80,-100,80,-231c0,0,0,-91,-44,-185C667,169,623,75,546,27c0,0,-77,-47,-172,-47Z" 
id="f0_2b"
transform="scale(0.001,-0.001)" />

<path d="M63,0V26H93c0,0,30,0,54,15c0,0,25,15,34,41c0,0,10,25,10,99V630H58v53H191v45c0,0,0,102,33,173c0,0,32,71,100,114c0,0,68,44,152,44c0,0,79,0,145,-51c0,0,43,-33,43,-75c0,0,0,-22,-19,-42c0,0,-20,-20,-42,-20c0,0,-17,0,-36,12c0,0,-19,13,-47,53c0,0,-28,41,-51,55c0,0,-23,14,-51,14c0,0,-35,0,-58,-18c0,0,-24,-18,-35,-57c0,0,-10,-38,-10,-197V683H491V630H315V181c0,0,0,-96,21,-122c0,0,27,-33,73,-33h62V0Z" 
id="f0_22"
transform="scale(0.001,-0.001)" />

<path d="M58,0V26c0,0,47,0,64,10c0,0,18,10,28,32c0,0,9,23,9,86V775c0,0,0,116,-5,142c0,0,-5,27,-17,37c0,0,-11,9,-29,9c0,0,-20,0,-49,-12L46,978l204,83h34V154c0,0,0,-64,9,-85c0,0,9,-21,29,-32c0,0,19,-11,72,-11V0Z" 
id="f0_28"
transform="scale(0.001,-0.001)" />

<path d="M55,0V26c0,0,50,0,67,10c0,0,17,10,27,32c0,0,10,23,10,86V418c0,0,0,111,-6,144c0,0,-6,24,-17,33c0,0,-11,10,-30,10c0,0,-21,0,-51,-11L45,620l206,83h33V154c0,0,0,-64,9,-85c0,0,9,-22,27,-32c0,0,19,-11,67,-11V0ZM222,909c0,0,-32,0,-54,23c0,0,-22,22,-22,53c0,0,0,32,22,54c0,0,22,22,54,22c0,0,31,0,53,-22c0,0,22,-22,22,-54c0,0,0,-31,-22,-53c0,0,-22,-23,-53,-23Z" 
id="f0_25"
transform="scale(0.001,-0.001)" />

<path d="M21,0V26H35c0,0,53,0,71,27c0,0,18,27,18,101V408c0,0,0,123,-5,150c0,0,-6,27,-17,37c0,0,-12,10,-31,10c0,0,-21,0,-50,-11L10,620l206,83h32V558c0,0,120,145,229,145c0,0,56,0,96,-28c0,0,40,-28,64,-92c0,0,16,-45,16,-137V154c0,0,0,-65,11,-88c0,0,8,-19,26,-29c0,0,18,-11,68,-11V0H419V26h14c0,0,47,0,66,15c0,0,20,15,27,43c0,0,3,11,3,70V434c0,0,0,93,-24,135c0,0,-24,42,-81,42c0,0,-88,0,-176,-97V154c0,0,0,-69,9,-86c0,0,10,-21,28,-31c0,0,19,-11,75,-11V0Z" 
id="f0_2a"
transform="scale(0.001,-0.001)" />

<path d="M411,-239c0,0,134,0,198,48c0,0,64,47,64,100c0,0,0,39,-38,55c0,0,-39,16,-154,19c0,0,-167,5,-258,17c0,0,-35,-37,-53,-70c0,0,-17,-32,-17,-60c0,0,0,-36,43,-62c0,0,74,-47,215,-47ZM380,257c0,0,56,0,93,43c0,0,36,42,36,133c0,0,0,118,-51,185c0,0,-38,49,-98,49c0,0,-55,0,-92,-44c0,0,-37,-44,-37,-135c0,0,0,-117,50,-182c0,0,39,-49,99,-49ZM345,-328c0,0,-144,0,-243,64c0,0,-56,38,-56,78c0,0,0,18,8,36c0,0,13,27,52,76c0,0,5,7,76,80c0,0,-39,23,-55,41c0,0,-16,19,-16,42c0,0,0,26,22,61c0,0,21,35,98,100c0,0,-63,30,-97,85c0,0,-33,55,-33,121c0,0,0,101,76,174c0,0,77,73,196,73c0,0,98,0,170,-48H688c0,0,32,0,37,-2c0,0,6,-2,8,-6c0,0,4,-7,4,-24c0,0,0,-20,-4,-27c0,0,-2,-4,-7,-6c0,0,-6,-2,-38,-2H599c0,0,41,-54,41,-137c0,0,0,-96,-73,-163c0,0,-73,-68,-196,-68c0,0,-51,0,-104,15c0,0,-33,-28,-44,-49c0,0,-12,-22,-12,-37c0,0,0,-12,13,-24c0,0,12,-12,48,-17c0,0,21,-4,104,-6c0,0,154,-4,199,-11c0,0,70,-10,111,-51c0,0,42,-41,42,-102c0,0,0,-84,-79,-158c0,0,-117,-108,-304,-108Z" 
id="f0_23"
transform="scale(0.001,-0.001)" />

<path d="M191,-20c0,0,-34,0,-58,24c0,0,-24,24,-24,58c0,0,0,35,24,59c0,0,24,24,58,24c0,0,35,0,59,-24c0,0,24,-25,24,-59c0,0,0,-34,-24,-58c0,0,-25,-24,-59,-24Z" 
id="f0_i"
transform="scale(0.001,-0.001)" />

<path d="M12,0V27c0,0,38,4,66,16c0,0,46,19,88,52c0,0,41,33,95,101L496,496L300,789c0,0,-81,119,-138,156c0,0,-57,37,-130,40v27H499V985c0,0,-59,-3,-81,-20c0,0,-22,-17,-22,-38c0,0,0,-28,35,-81L588,613L767,841c0,0,31,41,38,56c0,0,7,15,7,31c0,0,0,15,-9,27c0,0,-11,16,-28,22c0,0,-17,7,-71,8v27h359V985c0,0,-42,-3,-69,-14c0,0,-40,-17,-74,-46c0,0,-34,-29,-95,-108L624,560L842,236c0,0,90,-134,134,-169c0,0,43,-36,111,-40V0H652V27c0,0,43,1,64,9c0,0,16,7,26,21c0,0,10,14,10,28c0,0,0,17,-7,35c0,0,-5,12,-41,66L532,443L320,173c0,0,-33,-44,-40,-58c0,0,-7,-15,-7,-30c0,0,0,-24,21,-40c0,0,20,-15,76,-18V0Z" 
id="f0_1o"
transform="scale(0.001,-0.001)" />

<path d="M24,0V27H60c0,0,63,0,91,37c0,0,18,24,18,115V833c0,0,0,77,-10,102c0,0,-7,18,-30,32c0,0,-32,18,-69,18H24v27H776L787,790H761c0,0,-20,71,-45,104c0,0,-26,33,-64,48c0,0,-37,15,-117,15H312V558H497c0,0,63,0,93,28c0,0,29,28,39,111h27V355H629c0,0,-1,59,-16,87c0,0,-14,27,-40,41c0,0,-26,14,-76,14H312V179c0,0,0,-77,10,-102c0,0,7,-18,31,-32c0,0,33,-18,69,-18h37V0Z" 
id="f0_16"
transform="scale(0.001,-0.001)" />

<path d="M452,373V875L97,373ZM452,0V267H23v95l470,671h82V373H711V267H575V0Z" 
id="f0_o"
transform="scale(0.001,-0.001)" />

<path d="M26,0V27H62c0,0,63,0,91,37c0,0,18,24,18,115V833c0,0,0,77,-10,102c0,0,-7,18,-30,32c0,0,-33,18,-69,18H26v27H459V985H422c0,0,-35,0,-67,-17c0,0,-23,-12,-32,-36c0,0,-9,-25,-9,-99V542H784V833c0,0,0,77,-10,102c0,0,-8,18,-31,32c0,0,-33,18,-68,18H639v27h432V985h-36c0,0,-36,0,-68,-17c0,0,-24,-12,-32,-36c0,0,-9,-25,-9,-99V179c0,0,0,-77,10,-102c0,0,7,-18,31,-32c0,0,32,-18,68,-18h36V0H639V27h36c0,0,62,0,90,37c0,0,19,24,19,115V487H314V179c0,0,0,-77,9,-102c0,0,8,-18,32,-32c0,0,32,-18,67,-18h37V0Z" 
id="f0_18"
transform="scale(0.001,-0.001)" />

<path d="M548,-21c0,0,-251,0,-389,185C159,164,56,303,56,490c0,0,0,152,68,278c0,0,67,127,186,197c0,0,119,69,260,69c0,0,109,0,216,-53c0,0,31,-17,44,-17c0,0,20,0,35,14c0,0,20,21,28,56h26L943,690H919c0,0,-46,155,-131,224c0,0,-86,68,-206,68c0,0,-100,0,-181,-51c0,0,-81,-52,-128,-163c0,0,-46,-112,-46,-279c0,0,0,-137,44,-238c0,0,44,-101,132,-154c0,0,88,-54,201,-54c0,0,99,0,174,42c0,0,75,42,165,167l23,-14C966,238,890,103,789,40c0,0,-102,-61,-241,-61Z" 
id="f0_13"
transform="scale(0.001,-0.001)" />

<path d="M545,30c0,0,143,0,236,111c0,0,93,111,93,351c0,0,0,259,-103,386c0,0,-82,102,-226,102c0,0,-136,0,-218,-101C327,879,225,754,225,512c0,0,0,-247,106,-380c0,0,81,-102,214,-102Zm2,-51c0,0,-209,0,-351,147C196,126,54,274,54,510c0,0,0,240,164,393c0,0,142,131,341,131c0,0,197,0,341,-149c0,0,145,-149,145,-373c0,0,0,-230,-146,-382C899,130,754,-21,547,-21Z" 
id="f0_1f"
transform="scale(0.001,-0.001)" />

<path d="M238,-17c0,0,-103,0,-139,25C99,8,62,33,62,62c0,0,0,22,17,38c0,0,18,16,42,16c0,0,19,0,38,-6c0,0,13,-3,58,-27c0,0,45,-23,62,-28c0,0,27,-8,59,-8c0,0,76,0,132,59c0,0,56,59,56,140c0,0,0,59,-26,115c0,0,-19,41,-42,63c0,0,-32,30,-88,54c0,0,-56,25,-114,25H232v22c0,0,59,8,118,42c0,0,59,35,86,85c0,0,27,49,27,108c0,0,0,76,-48,124c0,0,-48,47,-120,47c0,0,-116,0,-193,-124L77,819c0,0,44,102,110,158c0,0,66,56,164,56c0,0,122,0,187,-80c0,0,49,-58,49,-126c0,0,0,-110,-139,-228c0,0,93,-36,141,-104c0,0,48,-68,48,-160c0,0,0,-131,-84,-227C553,108,444,-17,238,-17Z" 
id="f0_n"
transform="scale(0.001,-0.001)" />

<path d="M678,393L506,802L330,393ZM11,0V27c0,0,63,12,82,30c0,0,38,35,84,145l356,832h27L912,193c0,0,43,-101,77,-132c0,0,35,-30,97,-34V0H687V27c0,0,60,3,82,21c0,0,21,17,21,41c0,0,0,33,-30,104L700,338H307L239,179c0,0,-26,-59,-26,-88c0,0,0,-23,22,-41c0,0,22,-17,95,-23V0Z" 
id="f0_11"
transform="scale(0.001,-0.001)" />

<path d="M491,-305c0,0,-180,60,-305,247C186,-58,61,127,61,368c0,0,0,239,124,423c0,0,125,184,306,243v-34c0,0,-78,-50,-115,-99c0,0,-50,-67,-79,-172c0,0,-36,-131,-36,-365c0,0,0,-221,33,-343c0,0,32,-122,88,-197c0,0,39,-52,109,-92v-37Z" 
id="f1_c"
transform="scale(0.001,-0.001)" />

<path d="M597,33c0,0,77,0,129,38c0,0,65,47,102,152c0,0,36,105,36,273c0,0,0,201,-37,300c0,0,-37,100,-95,141c0,0,-58,41,-133,41c0,0,-139,0,-211,-142c0,0,-59,-116,-59,-334c0,0,0,-259,91,-382c0,0,63,-87,177,-87Zm3,-54c0,0,-273,0,-423,183C177,162,60,309,60,509c0,0,0,225,153,375c0,0,144,142,358,142c6,0,12,0,19,0c0,0,3,0,8,0c42,0,250,-7,385,-141c0,0,151,-150,151,-375c0,0,0,-193,-113,-339c0,0,-149,-192,-421,-192Z" 
id="f1_1f"
transform="scale(0.001,-0.001)" />

<path d="M448,514c0,0,104,0,155,19c0,0,52,19,81,69c0,0,30,50,30,129c0,0,0,116,-54,171c0,0,-54,55,-174,55H406V514ZM28,0V27c0,0,70,0,95,13c0,0,25,14,35,35c0,0,10,21,10,103V834c0,0,0,82,-10,104c0,0,-10,21,-35,34c0,0,-25,13,-95,13v27H498c0,0,184,0,269,-25c0,0,85,-26,138,-94c0,0,54,-68,54,-160c0,0,0,-112,-80,-185c0,0,-52,-46,-145,-69L977,135c0,0,48,-66,68,-82c0,0,31,-23,72,-26V0H798L472,462H406V178c0,0,0,-82,10,-104c0,0,10,-21,35,-34c0,0,25,-13,95,-13V0Z" 
id="f1_1i"
transform="scale(0.001,-0.001)" />

<path d="M19,-305v34c0,0,77,52,114,100c0,0,50,67,79,171c0,0,36,131,36,365c0,0,0,221,-33,343c0,0,-32,122,-88,198c0,0,-39,52,-108,91v37c0,0,179,-60,304,-246c0,0,125,-186,125,-428c0,0,0,-238,-125,-421c0,0,-125,-184,-304,-244Z" 
id="f1_d"
transform="scale(0.001,-0.001)" />

<path d="M547,28c0,0,140,0,226,102c0,0,101,121,101,357c0,0,0,181,-56,304c0,0,-42,96,-112,141c0,0,-71,45,-159,45c0,0,-135,0,-218,-97C329,880,225,758,225,508c0,0,0,-245,106,-378c0,0,82,-102,216,-102Zm491,-326c0,0,-103,4,-220,41c0,0,-117,38,-222,105c0,0,-104,67,-180,142c0,0,-108,42,-171,91c0,0,-91,72,-141,178c0,0,-50,105,-50,249c0,0,0,227,147,377c0,0,147,149,355,149c0,0,199,0,344,-150c0,0,145,-150,145,-379c0,0,0,-185,-104,-326C941,179,838,39,673,-10c0,0,76,-131,164,-194c0,0,88,-62,201,-71v-23Z" 
id="f0_1h"
transform="scale(0.001,-0.001)" />

<path d="M33,0V27c0,0,264,241,371,393c0,0,108,152,108,278c0,0,0,96,-59,158c0,0,-59,62,-141,62c0,0,-75,0,-134,-43c0,0,-59,-44,-88,-128H63c0,0,18,138,95,212c0,0,77,74,193,74c0,0,123,0,205,-80c0,0,83,-79,83,-186c0,0,0,-77,-36,-154c0,0,-55,-121,-179,-256C424,357,238,154,191,112H455c0,0,81,0,114,6c0,0,32,6,58,25c0,0,27,18,46,52h27L630,0Z" 
id="f0_m"
transform="scale(0.001,-0.001)" />

<path d="M405,24c0,0,65,0,116,62c0,0,51,61,51,174c0,0,0,128,-50,221c0,0,-51,93,-144,93c0,0,-29,0,-61,-12c0,0,-33,-12,-96,-51c0,0,-14,-101,-14,-163c0,0,0,-72,27,-155c0,0,26,-84,79,-134c0,0,38,-35,92,-35ZM384,-17c0,0,-104,0,-177,68C207,51,66,185,66,397c0,0,0,136,54,258c0,0,54,122,156,217c0,0,101,95,193,128c0,0,93,33,172,33h44v-28c0,0,-99,-10,-161,-39c0,0,-62,-29,-123,-90c0,0,-61,-60,-101,-135c0,0,-39,-74,-66,-176c0,0,107,73,215,73c0,0,104,0,180,-83c0,0,76,-84,76,-215c0,0,0,-126,-77,-231c0,0,-92,-126,-244,-126Z" 
id="f0_q"
transform="scale(0.001,-0.001)" />

<path d="M474,-21L174,817c0,0,-34,94,-42,112c0,0,-15,28,-41,42c0,0,-26,14,-70,14v27H395V985H377c0,0,-40,0,-60,-18c0,0,-21,-18,-21,-44c0,0,0,-26,33,-120L528,235L696,718l-30,85l-24,68c0,0,-16,37,-35,66c0,0,-10,14,-24,24c0,0,-19,13,-38,19c0,0,-14,5,-44,5v27H894V985H867c0,0,-41,0,-61,-18c0,0,-19,-18,-19,-49c0,0,0,-38,33,-133L1015,235l193,557c0,0,32,93,32,129c0,0,0,17,-10,32c0,0,-11,15,-28,21c0,0,-28,11,-74,11v27h302V985c0,0,-39,0,-64,-15c0,0,-25,-14,-47,-53c0,0,-15,-26,-47,-124L990,-21H960L729,624L501,-21Z" 
id="f0_1n"
transform="scale(0.001,-0.001)" />

<path d="M399,62c0,0,68,0,131,68V481c0,0,-5,51,-27,93c0,0,-22,42,-59,63c0,0,-37,21,-72,21c0,0,-65,0,-117,-59c0,0,-67,-77,-67,-226c0,0,0,-151,65,-231c0,0,66,-80,146,-80ZM330,-20c0,0,-112,0,-196,93c0,0,-83,94,-83,240c0,0,0,147,92,269c0,0,93,122,238,122c0,0,90,0,149,-58V773c0,0,0,117,-6,144c0,0,-5,27,-17,37c0,0,-12,9,-30,9c0,0,-20,0,-52,-12l-9,27l204,83h33V270c0,0,0,-120,6,-146c0,0,5,-27,18,-37c0,0,12,-11,28,-11c0,0,21,0,54,13l9,-26L564,-20H530V78C530,78,480,25,432,2c0,0,-47,-22,-102,-22Z" 
id="f0_20"
transform="scale(0.001,-0.001)" />

<path d="M398,24c0,0,74,0,120,58c0,0,61,76,61,214c0,0,0,156,-69,240c0,0,-47,59,-113,59c0,0,-36,0,-71,-18c0,0,-27,-14,-88,-81V242c0,0,0,-83,6,-109c0,0,11,-43,51,-76c0,0,41,-33,103,-33ZM-4,-326v27H15c5,0,42,0,69,16c0,0,14,8,22,26c0,0,7,19,7,94V481c0,0,0,67,-6,85c0,0,-5,18,-18,27c0,0,-13,9,-36,9c0,0,-18,0,-45,-10L0,615l209,85h29V540c0,0,53,91,106,127c0,0,53,36,112,36c0,0,103,0,172,-80c0,0,84,-99,84,-257c0,0,0,-176,-102,-292c0,0,-83,-94,-210,-94c0,0,-55,0,-95,16c0,0,-30,10,-67,44V-167c0,0,0,-71,8,-90c0,0,9,-20,30,-31c0,0,21,-11,77,-11v-27Z" 
id="f0_2c"
transform="scale(0.001,-0.001)" />

<path d="M13,0V26c0,0,52,0,78,13c0,0,16,8,24,25c0,0,11,25,11,86V773c0,0,0,118,-5,145c0,0,-5,26,-17,36c0,0,-12,10,-32,10c0,0,-15,0,-47,-13L13,978l203,83h34V381L424,540c0,0,55,50,64,64c0,0,6,9,6,18c0,0,0,15,-12,26c0,0,-13,11,-41,12v23H738V660c0,0,-61,-2,-102,-19c0,0,-40,-17,-89,-62L372,418L547,196c0,0,73,-92,98,-117c0,0,36,-35,63,-45c0,0,18,-8,65,-8V0H441V26c0,0,28,1,38,9c0,0,10,8,10,22c0,0,0,17,-29,56L250,381V154c0,0,0,-67,10,-88c0,0,9,-21,26,-30c0,0,17,-9,75,-10V0Z" 
id="f0_27"
transform="scale(0.001,-0.001)" />

<path d="M376,-20L133,556c0,0,-17,41,-31,58c0,0,-15,18,-39,30c0,0,-12,7,-50,13v26H335V657H314c0,0,-29,0,-44,-14c0,0,-16,-14,-15,-38c0,0,-1,-26,15,-62L429,165L588,557c0,0,17,42,17,64c0,0,0,10,-6,17c0,0,-8,11,-21,15c0,0,-13,4,-52,4v26H750V657c0,0,-39,-3,-54,-16c0,0,-26,-23,-47,-76L409,-20Z" 
id="f0_2i"
transform="scale(0.001,-0.001)" />

<path d="M253,0V27h36c0,0,64,0,91,39c0,0,16,24,16,109V948H274c0,0,-71,0,-100,-10c0,0,-39,-14,-67,-54c0,0,-27,-41,-33,-109H46l12,237H883L894,775H865c0,0,-8,62,-22,89c0,0,-23,43,-61,64c0,0,-39,20,-101,20H539V175c0,0,0,-93,20,-116c0,0,28,-32,87,-32h36V0Z" 
id="f0_1k"
transform="scale(0.001,-0.001)" />

<path d="M82,-253v33c0,0,77,25,119,78c0,0,42,54,42,114c0,0,0,14,-7,23c0,0,-5,6,-11,6c0,0,-8,0,-35,-14c0,0,-14,-7,-28,-7c0,0,-37,0,-58,21C104,1,82,23,82,61c0,0,0,36,28,62c0,0,28,27,68,27c0,0,49,0,88,-43c0,0,38,-43,38,-113c0,0,0,-77,-53,-143c0,0,-53,-66,-169,-104Z" 
id="f0_g"
transform="scale(0.001,-0.001)" />

<path d="M485,53c0,0,135,0,206,61c0,0,71,60,71,150c0,0,0,59,-32,114c0,0,-33,54,-105,85c0,0,-72,32,-179,32c0,0,-46,0,-79,-2c0,0,-33,-1,-53,-5V73c0,0,86,-20,171,-20ZM455,547c0,0,109,0,164,23c0,0,55,24,84,72c0,0,29,49,29,106c0,0,0,89,-72,151c0,0,-73,63,-212,63c0,0,-74,0,-134,-16V557c0,0,27,-5,63,-8c0,0,35,-2,78,-2ZM24,0V27H63c0,0,63,0,91,41c0,0,17,26,17,111V833c0,0,0,94,-22,119c0,0,-29,33,-86,33H24v27H462c0,0,122,0,196,-18c0,0,112,-27,171,-95c0,0,59,-68,59,-157c0,0,0,-76,-46,-136c0,0,-47,-60,-137,-89c0,0,105,-23,157,-72c0,0,73,-69,73,-168c0,0,0,-75,-48,-145C887,132,839,63,756,32C756,32,673,0,502,0Z" 
id="f0_12"
transform="scale(0.001,-0.001)" />

<path d="M38,0V27H74c0,0,63,0,91,37c0,0,18,24,18,115V833c0,0,0,77,-10,102c0,0,-7,18,-30,32c0,0,-33,18,-69,18H38v27H470V985H434c0,0,-62,0,-90,-37c0,0,-18,-24,-18,-115V179c0,0,0,-77,9,-102c0,0,8,-18,31,-32c0,0,32,-18,68,-18h36V0Z" 
id="f0_19"
transform="scale(0.001,-0.001)" />

<path d="M145,-328c0,0,-44,0,-73,25c0,0,-28,25,-28,58c0,0,0,31,21,50c0,0,20,19,56,19c0,0,25,0,67,-16c0,0,30,-11,38,-11c0,0,22,0,49,23c0,0,26,23,53,89L376,28L131,542c0,0,-11,24,-36,58c0,0,-19,27,-30,36c0,0,-18,12,-56,21v26H328V657H312c0,0,-33,0,-50,-15c0,0,-17,-14,-17,-36c0,0,0,-30,25,-81L437,179L589,557c0,0,12,31,12,62c0,0,0,13,-5,20c0,0,-6,8,-19,13c0,0,-12,5,-44,5v26H754V657c0,0,-27,-3,-42,-12c0,0,-15,-9,-33,-34c0,0,-7,-10,-25,-58L376,-128c0,0,-40,-99,-105,-150c0,0,-66,-50,-126,-50Z" 
id="f0_2l"
transform="scale(0.001,-0.001)" />

<path d="M714,-21L378,830L198,200c0,0,-20,-72,-20,-111c0,0,0,-28,19,-43c0,0,18,-14,86,-20L276,0H-46l11,26c0,0,59,2,79,10c0,0,30,12,45,32c0,0,22,31,49,117L342,903c0,0,-29,46,-62,63c0,0,-33,17,-104,20l9,26H438L746,229L913,813c0,0,21,73,21,113c0,0,0,28,-19,43c0,0,-19,16,-72,16c0,0,-9,0,-19,1l8,26h325l-9,-26c0,0,-1,0,-2,0c-9,0,-51,-1,-73,-11c0,0,-35,-16,-52,-40c0,0,-24,-35,-49,-123L733,-21Z" 
id="f2_1e"
transform="scale(0.001,-0.001)" />

<path d="M467,25c0,0,68,0,133,34c0,0,65,33,136,115c0,0,89,102,149,260c0,0,61,158,61,296c0,0,0,101,-55,179c0,0,-54,78,-164,78c0,0,-74,0,-146,-37c0,0,-71,-37,-141,-121c0,0,-70,-84,-126,-219c0,0,-69,-167,-69,-316c0,0,0,-105,55,-187c0,0,54,-82,167,-82ZM441,-21c0,0,-117,0,-196,50c0,0,-79,52,-116,137c0,0,-38,85,-38,165c0,0,0,141,68,280c0,0,68,138,163,231c0,0,95,93,202,143c0,0,108,49,229,49c0,0,100,0,178,-43c0,0,77,-44,121,-129c0,0,44,-85,44,-177c0,0,0,-163,-94,-341c0,0,-94,-179,-246,-273c0,0,-153,-92,-315,-92Z" 
id="f2_1f"
transform="scale(0.001,-0.001)" />

<path d="M23,0V26c0,0,47,0,66,10c0,0,19,11,28,33c0,0,10,22,10,85V416c0,0,0,112,-7,145c0,0,-5,25,-16,34c0,0,-11,10,-31,10c0,0,-21,0,-50,-11L12,620l207,83h32V557c0,0,75,75,88,86c0,0,34,29,72,44c0,0,39,16,77,16c0,0,64,0,110,-37c0,0,47,-38,62,-109c0,0,77,90,130,118c0,0,53,28,109,28c0,0,54,0,96,-28c0,0,42,-28,67,-91c0,0,16,-43,16,-136V154c0,0,0,-64,10,-88c0,0,8,-16,28,-28c0,0,20,-12,65,-12V0H844V26h14c0,0,44,0,69,18c0,0,17,12,24,38c0,0,3,13,3,72V448c0,0,0,83,-20,117c0,0,-29,48,-93,48c0,0,-39,0,-79,-20c0,0,-40,-19,-97,-73l-1,-8l2,-32V154c0,0,0,-70,8,-87c0,0,7,-17,29,-29c0,0,21,-12,73,-12V0H431V26c0,0,57,0,78,14c0,0,21,13,29,40c0,0,4,13,4,74V448c0,0,0,83,-25,120c0,0,-33,48,-91,48c0,0,-40,0,-80,-22c0,0,-61,-33,-95,-74V154c0,0,0,-67,10,-87c0,0,9,-20,27,-30c0,0,18,-11,74,-11V0Z" 
id="f0_29"
transform="scale(0.001,-0.001)" />

<path d="M30,0V27L485,632H260c0,0,-72,0,-94,-10c0,0,-22,-9,-36,-35c0,0,-20,-37,-23,-92H76l5,188H654V656L196,51H445c0,0,79,0,106,13c0,0,28,13,45,46c0,0,12,23,21,100h25L634,0Z" 
id="f0_2m"
transform="scale(0.001,-0.001)" />

<path d="M213,-20c0,0,-34,0,-58,24c0,0,-24,24,-24,58c0,0,0,34,24,58c0,0,24,25,58,25c0,0,35,0,59,-25c0,0,24,-24,24,-58c0,0,0,-34,-24,-58c0,0,-25,-24,-59,-24Zm3,559c0,0,-35,0,-59,24c0,0,-24,24,-24,58c0,0,0,35,24,59c0,0,24,24,59,24c0,0,34,0,58,-24c0,0,24,-24,24,-59c0,0,0,-34,-24,-58c0,0,-24,-24,-58,-24Z" 
id="f0_u"
transform="scale(0.001,-0.001)" />

<path d="M-39,0l10,26c0,0,58,2,77,11c0,0,30,13,44,34c0,0,20,31,48,128L314,811c0,0,21,75,21,114c0,0,0,20,-9,33c0,0,-9,14,-29,21c0,0,-20,7,-77,7l9,26H626l-8,-26c0,0,-1,0,-2,0c-9,0,-51,-1,-72,-11c0,0,-35,-15,-51,-39c0,0,-23,-33,-50,-124L372,560H843l72,251c0,0,21,74,21,114c0,0,0,19,-9,33c0,0,-10,14,-29,21c0,0,-20,7,-76,7l7,26h405l-9,-26h-2c-9,0,-52,-1,-74,-11c0,0,-36,-16,-53,-40c0,0,-25,-35,-50,-124L867,186c0,0,-22,-71,-22,-101c0,0,0,-27,19,-40c0,0,20,-14,95,-19L950,0H563l10,26c0,0,58,2,78,11c0,0,29,13,43,34c0,0,19,30,48,128l88,309H357L266,186c0,0,-22,-70,-22,-101c0,0,0,-27,19,-40c0,0,20,-14,94,-19L351,0Z" 
id="f2_18"
transform="scale(0.001,-0.001)" />

<path d="M-46,0l10,26c0,0,62,2,82,11c0,0,33,13,48,35c0,0,25,36,51,126L318,810c0,0,23,76,23,115c0,0,0,20,-10,33c0,0,-10,13,-29,21c0,0,-20,7,-78,7l9,26H619l-8,-26h-2c-8,0,-48,-1,-69,-12c0,0,-33,-16,-51,-46c0,0,-17,-30,-45,-132L271,185c0,0,-23,-78,-23,-100c0,0,0,-17,9,-29c0,0,9,-12,30,-19c0,0,20,-6,85,-11L364,0Z" 
id="f2_19"
transform="scale(0.001,-0.001)" />

<path d="M357,55c0,0,117,0,206,70c0,0,90,70,90,191c0,0,0,92,-56,144c0,0,-57,51,-182,51c0,0,-24,0,-59,-3L231,65c0,0,81,-10,126,-10Zm86,508c0,0,158,0,234,68c0,0,77,67,77,169c0,0,0,76,-48,119c0,0,-48,43,-153,43c0,0,-28,0,-71,-9L372,564c0,0,49,-1,71,-1ZM-34,0l10,26c0,0,57,2,78,12c0,0,30,12,42,33c0,0,18,29,48,131L318,816c0,0,23,78,23,109c0,0,0,28,-20,44c0,0,-21,16,-78,16c0,0,-13,0,-24,1l10,26H594c0,0,92,0,164,-28c0,0,72,-29,108,-79c0,0,36,-51,36,-108c0,0,0,-87,-66,-157c0,0,-66,-71,-216,-104c0,0,99,-35,146,-91c0,0,46,-57,46,-125c0,0,0,-76,-39,-144c0,0,-39,-69,-99,-107C674,69,613,31,527,13C527,13,466,0,336,0Z" 
id="f2_12"
transform="scale(0.001,-0.001)" />

<path d="M31,0L164,463c0,0,24,81,24,115c0,0,0,14,-12,23c0,0,-14,12,-37,12c0,0,-15,0,-54,-7L74,633l255,42L220,312c0,0,134,223,243,312c0,0,62,51,102,51c0,0,25,0,39,-15c0,0,15,-15,15,-42c0,0,0,-50,-25,-94c0,0,-18,-34,-52,-34c0,0,-17,0,-30,11c0,0,-12,11,-15,35c0,0,-1,14,-7,18c0,0,-6,6,-14,6c0,0,-13,0,-24,-6c0,0,-19,-10,-59,-58c0,0,-62,-73,-134,-189c0,0,-32,-49,-54,-111c0,0,-32,-85,-36,-102L145,0Z" 
id="f2_2e"
transform="scale(0.001,-0.001)" />

<path d="M518,-21c0,0,-124,0,-220,50c0,0,-95,52,-145,146c0,0,-50,94,-50,202c0,0,0,166,88,322c0,0,89,157,244,246c0,0,155,89,312,89c0,0,74,0,166,-34c0,0,40,-15,58,-15c0,0,18,0,31,7c0,0,14,8,45,42h28L999,707H972l-3,82c0,0,-4,45,-17,80c0,0,-14,35,-40,61c0,0,-27,26,-68,40c0,0,-41,15,-91,15c0,0,-134,0,-234,-73c0,0,-127,-94,-199,-264c0,0,-60,-140,-60,-284c0,0,0,-147,86,-234c0,0,86,-88,223,-88c0,0,104,0,185,46c0,0,81,47,151,143h35C940,231,858,100,757,39c0,0,-100,-60,-239,-60Z" 
id="f2_13"
transform="scale(0.001,-0.001)" />

<path d="M122,-17c0,0,-27,0,-45,19C77,2,59,21,59,46c0,0,0,27,25,111L291,859c0,0,25,86,25,98c0,0,0,18,-14,30c0,0,-14,12,-44,12c0,0,-18,0,-53,-6v27l257,42L200,170c0,0,-19,-67,-19,-82c0,0,0,-11,6,-18c0,0,7,-8,16,-8c0,0,13,0,28,13c0,0,35,31,73,98l22,-23C326,150,259,50,202,11c0,0,-42,-28,-80,-28Z" 
id="f2_28"
transform="scale(0.001,-0.001)" />

<path d="M45,0V81L673,391L45,704v80L795,412V374L45,0Z" 
id="f3_y"
transform="scale(0.001,-0.001)" />

<path d="M247,-17c0,0,-91,0,-132,30c0,0,-42,31,-42,68c0,0,0,21,17,37c0,0,18,16,44,17c0,0,19,0,34,-6c0,0,14,-7,49,-31c0,0,56,-39,113,-39c0,0,88,0,154,66c0,0,66,66,66,161c0,0,0,92,-59,171c0,0,-59,80,-163,123c0,0,-81,34,-221,39l194,393H663L605,885H301L234,750c0,0,198,-29,313,-147c0,0,100,-102,100,-239c0,0,0,-80,-33,-148c0,0,-32,-68,-81,-116c0,0,-50,-47,-110,-77c0,0,-86,-40,-176,-40Z" 
id="f0_p"
transform="scale(0.001,-0.001)" />

<path d="M-102,0l8,27c0,0,64,6,103,29c0,0,59,36,163,140L467,492L386,784c0,0,-37,135,-64,166c0,0,-27,31,-95,36l7,26H596l-9,-26c0,0,-50,0,-67,-7c0,0,-18,-6,-27,-19c0,0,-9,-14,-9,-30c0,0,0,-18,18,-84L571,596L729,755c0,0,94,94,129,151c0,0,13,20,13,36c0,0,0,18,-15,28c0,0,-20,13,-75,16l8,26h343l-8,-26c0,0,-73,-11,-127,-44c0,0,-54,-34,-147,-134L588,541L662,269c0,0,10,-39,38,-120c0,0,18,-53,36,-75c0,0,17,-22,45,-34c0,0,27,-11,82,-14L855,0H458l8,26c0,0,61,3,88,24c0,0,20,15,20,39c0,0,0,21,-19,92L483,436L247,196c0,0,-69,-71,-83,-94c0,0,-8,-13,-8,-26c0,0,0,-23,22,-37c0,0,11,-6,64,-13L234,0Z" 
id="f2_1o"
transform="scale(0.001,-0.001)" />

<path d="M187,318c0,0,111,12,181,43c0,0,92,41,138,98c0,0,46,57,46,108c0,0,0,32,-20,51c0,0,-20,20,-56,20c0,0,-77,0,-163,-81c0,0,-85,-81,-126,-239ZM268,-17c0,0,-110,0,-165,68c0,0,-55,69,-55,151c0,0,0,111,69,228c0,0,68,116,172,180c0,0,104,65,213,65c0,0,79,0,118,-32c0,0,38,-32,38,-76c0,0,0,-62,-50,-119c0,0,-65,-73,-191,-119c0,0,-84,-30,-235,-47c0,0,-5,-38,-5,-62c0,0,0,-67,47,-114c0,0,47,-46,114,-46c0,0,54,0,104,22c0,0,50,22,148,97l15,-21C605,158,428,-17,268,-17Z" 
id="f2_21"
transform="scale(0.001,-0.001)" />

<path d="M-36,0l10,26c0,0,57,2,76,11c0,0,30,13,44,34c0,0,20,31,48,127L315,809c0,0,22,74,22,116c0,0,0,20,-10,33c0,0,-10,14,-29,21c0,0,-19,7,-75,7l9,26h789L947,757H919c0,0,8,46,8,76c0,0,0,49,-27,78c0,0,-28,29,-70,41c0,0,-30,7,-133,7H489L375,556H511c0,0,90,0,134,28c0,0,44,28,91,118h29L659,334H629c0,0,11,45,11,74c0,0,0,46,-30,71c0,0,-30,25,-112,25H360L270,185c0,0,-24,-76,-24,-100c0,0,0,-26,20,-40c0,0,21,-14,101,-19L358,0Z" 
id="f2_16"
transform="scale(0.001,-0.001)" />

<path d="M11,-21L94,353h25c0,0,-5,-54,-5,-90c0,0,0,-102,65,-167c0,0,66,-64,171,-64c0,0,98,0,149,60c0,0,51,60,51,138c0,0,0,51,-23,93c0,0,-36,62,-188,217c0,0,-74,75,-95,111c0,0,-35,61,-35,127c0,0,0,106,80,181c0,0,79,75,203,75c0,0,42,0,79,-8c0,0,24,-4,85,-30c0,0,43,-17,48,-19c0,0,10,-2,23,-2c0,0,22,0,37,11c0,0,16,12,37,48h27L751,699H726c0,0,3,45,3,72c0,0,0,90,-60,148c0,0,-60,57,-158,57c0,0,-77,0,-126,-46c0,0,-49,-45,-49,-105c0,0,0,-52,31,-99c0,0,31,-47,143,-154c0,0,112,-107,145,-167c0,0,33,-60,33,-128c0,0,0,-77,-41,-149C647,128,606,57,530,17c0,0,-76,-38,-167,-38c0,0,-45,0,-83,8c0,0,-39,8,-125,39c0,0,-29,11,-48,11c0,0,-44,0,-69,-58Z" 
id="f2_1j"
transform="scale(0.001,-0.001)" />

<path d="M296,18c0,0,63,0,130,48c0,0,68,48,118,162c0,0,50,114,50,230c0,0,0,69,-33,108c0,0,-32,38,-76,38c0,0,-66,0,-129,-57c0,0,-63,-58,-91,-157L169,53c0,0,72,-35,127,-35ZM284,-17c0,0,-109,0,-225,84L283,850c0,0,26,90,26,105c0,0,0,20,-12,29c0,0,-17,14,-50,14c0,0,-16,0,-48,-6v29l257,42L310,545c0,0,69,75,120,102c0,0,51,28,107,28c0,0,79,0,129,-55c0,0,51,-54,51,-147c0,0,0,-120,-67,-239C650,234,583,115,483,49c0,0,-101,-66,-199,-66Z" 
id="f2_1y"
transform="scale(0.001,-0.001)" />

<path d="M355,0V355H0v72H355V784h72V427H782V355H427V0Z" 
id="f3_f"
transform="scale(0.001,-0.001)" />

<path d="M0,334v73H1700V334Z" 
id="f3_3k"
transform="scale(0.001,-0.001)" />

<path d="M968,-20c0,0,42,100,87,170c0,0,45,70,144,184H56v73H1199c0,0,-106,122,-148,189c0,0,-43,67,-83,166h60c0,0,87,-108,217,-218c0,0,130,-110,206,-154V349c0,0,-99,-56,-217,-159c0,0,-117,-102,-206,-210Z" 
id="f3_34"
transform="scale(0.001,-0.001)" />

<path d="M0,-302V1034H328V970H119V-238H328v-64Z" 
id="f3_1r"
transform="scale(0.001,-0.001)" />

<path d="M56,-302v64H265V970H56v64H384V-302Z" 
id="f3_1t"
transform="scale(0.001,-0.001)" />

<path d="M492,110V466H137v73H492V900h72V539H921V466H564V110ZM527,48c0,0,189,0,322,134c0,0,134,133,134,323c0,0,0,189,-134,323c0,0,-133,133,-322,133c0,0,-188,0,-321,-133C206,828,72,694,72,505c0,0,0,-190,134,-323C206,182,339,48,527,48Zm1,-69c0,0,-219,0,-374,154C154,133,0,288,0,506c0,0,0,220,154,375c0,0,155,154,374,154c0,0,218,0,372,-154c0,0,155,-155,155,-375c0,0,0,-218,-155,-373C900,133,746,-21,528,-21Z" 
id="f3_3r"
transform="scale(0.001,-0.001)" />

<path d="M435,0V856c0,0,-48,-47,-127,-93c0,0,-79,-46,-142,-69V824c0,0,113,52,197,128c0,0,85,75,120,146h86V0Z" 
id="f4_l"
transform="scale(0.001,-0.001)" />

<path d="M225,0c0,0,2,129,51,312c0,0,48,183,139,352c0,0,91,170,193,286H72v129H780V975C780,975,676,864,573,680C573,680,470,495,414,301C414,301,374,163,363,0Z" 
id="f4_r"
transform="scale(0.001,-0.001)" />


</defs>
</svg>