<?xml version="1.0" encoding="UTF-8" standalone="no"?>
<!DOCTYPE svg PUBLIC "-//W3C//DTD SVG 1.1//EN"
"http://www.w3.org/Graphics/SVG/1.1/DTD/svg11.dtd">
<svg viewBox="0 0 909 1286" version="1.1" xmlns="http://www.w3.org/2000/svg" xmlns:xlink="http://www.w3.org/1999/xlink">
<defs>
<clipPath id="c0_30"><path d="M55.2,501.1V408.6H769v92.5Z" /></clipPath>
<clipPath id="c1_30"><path d="M55.2,592V551.3H365.5V592Z" /></clipPath>
<clipPath id="c2_30"><path d="M55.2,647.3V594.2H457v53.1Z" /></clipPath>
<style type="text/css"><![CDATA[
.g0_30{
fill: #D9D9D9;
}
.g1_30{
fill: none;
stroke: #000000;
stroke-width: 0.7638889;
stroke-linecap: butt;
stroke-linejoin: miter;
}
.g2_30{
}
]]></style>
</defs>
<image preserveAspectRatio="none" x="747" y="1196" width="96" height="59" xlink:href="img/1.png" />
<image preserveAspectRatio="none" x="336" y="41" width="259" height="51" xlink:href="img/2.png" />
<image preserveAspectRatio="none" x="342" y="50" width="247" height="27" xlink:href="img/3.png" />
<image preserveAspectRatio="none" x="341" y="45" width="239" height="42" xlink:href="img/4.png" />
<g fill="#FFFFFF" >
<use xlink:href="#f0_j" transform="matrix(11.5,0,0,11.5,355.1,70.1)" />
<use xlink:href="#f0_i" transform="matrix(11.5,0,0,11.5,364.3,70.1)" />
<use xlink:href="#f0_2n" transform="matrix(11.5,0,0,11.5,374.1,70.1)" />
<use xlink:href="#f0_t" transform="matrix(11.5,0,0,11.5,382.6,70.1)" />
<use xlink:href="#f0_oj" transform="matrix(11.5,0,0,11.5,391,70.1)" />
<use xlink:href="#f0_3e" transform="matrix(11.5,0,0,11.5,396.5,70.1)" />
<use xlink:href="#f0_1c" transform="matrix(11.5,0,0,11.5,406.1,70.1)" />
<use xlink:href="#f0_1c" transform="matrix(11.5,0,0,11.5,410.8,70.1)" />
<use xlink:href="#f0_oj" transform="matrix(11.5,0,0,11.5,415.6,70.1)" />
<use xlink:href="#f0_rz" transform="matrix(11.5,0,0,11.5,421.1,70.1)" />
<use xlink:href="#f0_rx" transform="matrix(11.5,0,0,11.5,429.9,70.1)" />
<use xlink:href="#f0_ry" transform="matrix(11.5,0,0,11.5,438.7,70.1)" />
<use xlink:href="#f0_s4" transform="matrix(11.5,0,0,11.5,447.5,70.1)" />
<use xlink:href="#f0_t" transform="matrix(11.5,0,0,11.5,460.4,70.1)" />
<use xlink:href="#f0_3e" transform="matrix(11.5,0,0,11.5,468.8,70.1)" />
<use xlink:href="#f0_5" transform="matrix(11.5,0,0,11.5,478.3,70.1)" />
<use xlink:href="#f0_1x" transform="matrix(11.5,0,0,11.5,489,70.1)" />
<use xlink:href="#f0_1c" transform="matrix(11.5,0,0,11.5,504.4,70.1)" />
<use xlink:href="#f0_1y" transform="matrix(11.5,0,0,11.5,509.1,70.1)" />
<use xlink:href="#f0_5" transform="matrix(11.5,0,0,11.5,520.8,70.1)" />
<use xlink:href="#f0_2t" transform="matrix(11.5,0,0,11.5,531.5,70.1)" />
<use xlink:href="#f0_1c" transform="matrix(11.5,0,0,11.5,540.2,70.1)" />
<use xlink:href="#f0_24" transform="matrix(11.5,0,0,11.5,545,70.1)" />
<use xlink:href="#f0_1y" transform="matrix(11.5,0,0,11.5,556.7,70.1)" />
</g>
<image preserveAspectRatio="none" x="554" y="45" width="36" height="42" xlink:href="img/5.png" />
<g fill="#FFFFFF" >
<use xlink:href="#f1_l" transform="matrix(11,0,0,11,770.3,1227.6)" />
<use xlink:href="#f1_n" transform="matrix(11,0,0,11,779.1,1227.6)" />
<use xlink:href="#f1_j" transform="matrix(11,0,0,11,792.3,1227.6)" />
<use xlink:href="#f1_l" transform="matrix(11,0,0,11,802.9,1227.6)" />
<use xlink:href="#f1_o" transform="matrix(11,0,0,11,811.7,1227.6)" />
</g>
<path fill-rule="evenodd" d="M52.8,1193.5H856.9v-.8H52.8v.8Z" class="g0_30" />
<path d="M37.9,99.4L873,98.5" class="g1_30" />
<g fill="#000000" >
<use xlink:href="#f2_c" transform="matrix(12,0,0,12,55,144.1)" />
<use xlink:href="#f2_25" transform="matrix(12,0,0,12,61.6,144.1)" />
<use xlink:href="#f2_25" transform="matrix(12,0,0,12,66.4,144.1)" />
<use xlink:href="#f2_25" transform="matrix(12,0,0,12,71.2,144.1)" />
<use xlink:href="#f2_d" transform="matrix(12,0,0,12,75.9,144.1)" />
<use xlink:href="#f2_15" transform="matrix(12,0,0,12,86.9,144.1)" />
<use xlink:href="#f2_2g" transform="matrix(12,0,0,12,98.2,144.1)" />
<use xlink:href="#f2_24" transform="matrix(12,0,0,12,103.7,144.1)" />
<use xlink:href="#f2_1x" transform="matrix(12,0,0,12,112.5,144.1)" />
<use xlink:href="#f2_2a" transform="matrix(12,0,0,12,120.6,144.1)" />
<use xlink:href="#f2_2b" transform="matrix(12,0,0,12,129.4,144.1)" />
<use xlink:href="#f2_25" transform="matrix(12,0,0,12,139.3,144.1)" />
<use xlink:href="#f2_1z" transform="matrix(12,0,0,12,143.7,144.1)" />
<use xlink:href="#f2_1x" transform="matrix(12,0,0,12,156.5,144.1)" />
<use xlink:href="#f2_1z" transform="matrix(12,0,0,12,164.5,144.1)" />
<use xlink:href="#f2_25" transform="matrix(12,0,0,12,173,144.1)" />
<use xlink:href="#f2_20" transform="matrix(12,0,0,12,177.7,144.1)" />
<use xlink:href="#f2_2g" transform="matrix(12,0,0,12,191.6,144.1)" />
<use xlink:href="#f2_2b" transform="matrix(12,0,0,12,196.7,144.1)" />
<use xlink:href="#f2_m" transform="matrix(12,0,0,12,211,144.1)" />
<use xlink:href="#f2_h" transform="matrix(12,0,0,12,220.1,144.1)" />
<use xlink:href="#f2_18" transform="matrix(12,0,0,12,226.3,144.1)" />
<use xlink:href="#f2_2l" transform="matrix(12,0,0,12,239.9,144.1)" />
<use xlink:href="#f2_20" transform="matrix(12,0,0,12,248.3,144.1)" />
<use xlink:href="#f2_2e" transform="matrix(12,0,0,12,257.5,144.1)" />
<use xlink:href="#f2_2b" transform="matrix(12,0,0,12,263.7,144.1)" />
<use xlink:href="#f2_2k" transform="matrix(12,0,0,12,273.2,144.1)" />
<use xlink:href="#f2_2l" transform="matrix(12,0,0,12,282.4,144.1)" />
<use xlink:href="#f2_21" transform="matrix(12,0,0,12,290.8,144.1)" />
<use xlink:href="#f2_2g" transform="matrix(12,0,0,12,298.9,144.1)" />
<use xlink:href="#f2_24" transform="matrix(12,0,0,12,304.3,144.1)" />
<use xlink:href="#f2_1x" transform="matrix(12,0,0,12,313.1,144.1)" />
<use xlink:href="#f2_2a" transform="matrix(12,0,0,12,321.6,144.1)" />
<use xlink:href="#f2_2b" transform="matrix(12,0,0,12,330.4,144.1)" />
<use xlink:href="#f2_25" transform="matrix(12,0,0,12,340.2,144.1)" />
<use xlink:href="#f2_1z" transform="matrix(12,0,0,12,344.6,144.1)" />
<use xlink:href="#f2_1x" transform="matrix(12,0,0,12,357.4,144.1)" />
<use xlink:href="#f2_1z" transform="matrix(12,0,0,12,365.5,144.1)" />
<use xlink:href="#f2_25" transform="matrix(12,0,0,12,373.9,144.1)" />
<use xlink:href="#f2_20" transform="matrix(12,0,0,12,378.7,144.1)" />
<use xlink:href="#f3_1j" transform="matrix(12,0,0,12,55,168.3)" />
<use xlink:href="#f3_2b" transform="matrix(12,0,0,12,65.3,168.3)" />
<use xlink:href="#f3_28" transform="matrix(12,0,0,12,74.5,168.3)" />
<use xlink:href="#f3_2h" transform="matrix(12,0,0,12,79.2,168.3)" />
<use xlink:href="#f3_2g" transform="matrix(12,0,0,12,89.5,168.3)" />
<use xlink:href="#f3_25" transform="matrix(12,0,0,12,95.7,168.3)" />
<use xlink:href="#f3_2b" transform="matrix(12,0,0,12,100.8,168.3)" />
<use xlink:href="#f3_2a" transform="matrix(12,0,0,12,109.9,168.3)" />
<use xlink:href="#f3_u" transform="matrix(12,0,0,12,120.2,168.3)" />
<use xlink:href="#f2_c" transform="matrix(12,0,0,12,131.3,168.3)" />
<use xlink:href="#f2_1x" transform="matrix(12,0,0,12,137.5,168.3)" />
<use xlink:href="#f2_d" transform="matrix(12,0,0,12,145.2,168.3)" />
<use xlink:href="#f2_1g" transform="matrix(12,0,0,12,156.2,168.3)" />
<use xlink:href="#f2_2e" transform="matrix(12,0,0,12,166.1,168.3)" />
<use xlink:href="#f2_2b" transform="matrix(12,0,0,12,171.9,168.3)" />
<use xlink:href="#f2_20" transform="matrix(12,0,0,12,181.5,168.3)" />
<use xlink:href="#f2_2h" transform="matrix(12,0,0,12,190.6,168.3)" />
<use xlink:href="#f2_1z" transform="matrix(12,0,0,12,199.8,168.3)" />
<use xlink:href="#f2_2g" transform="matrix(12,0,0,12,207.5,168.3)" />
<use xlink:href="#f2_2b" transform="matrix(12,0,0,12,217.4,168.3)" />
<use xlink:href="#f2_22" transform="matrix(12,0,0,12,226.9,168.3)" />
<use xlink:href="#f2_22" transform="matrix(12,0,0,12,237.5,168.3)" />
<use xlink:href="#f2_2b" transform="matrix(12,0,0,12,243,168.3)" />
<use xlink:href="#f2_28" transform="matrix(12,0,0,12,252.9,168.3)" />
<use xlink:href="#f2_28" transform="matrix(12,0,0,12,257.7,168.3)" />
<use xlink:href="#f2_2b" transform="matrix(12,0,0,12,262.1,168.3)" />
<use xlink:href="#f2_2j" transform="matrix(12,0,0,12,271.6,168.3)" />
<use xlink:href="#f2_25" transform="matrix(12,0,0,12,285.1,168.3)" />
<use xlink:href="#f2_2a" transform="matrix(12,0,0,12,289.9,168.3)" />
<use xlink:href="#f2_23" transform="matrix(12,0,0,12,299.1,168.3)" />
<use xlink:href="#f2_2e" transform="matrix(12,0,0,12,313,168.3)" />
<use xlink:href="#f2_21" transform="matrix(12,0,0,12,319.2,168.3)" />
<use xlink:href="#f2_1x" transform="matrix(12,0,0,12,327.3,168.3)" />
<use xlink:href="#f2_1z" transform="matrix(12,0,0,12,335.3,168.3)" />
<use xlink:href="#f2_2g" transform="matrix(12,0,0,12,343.4,168.3)" />
<use xlink:href="#f2_25" transform="matrix(12,0,0,12,348.9,168.3)" />
<use xlink:href="#f2_2b" transform="matrix(12,0,0,12,353.3,168.3)" />
<use xlink:href="#f2_2a" transform="matrix(12,0,0,12,362.8,168.3)" />
<use xlink:href="#f2_2f" transform="matrix(12,0,0,12,371.6,168.3)" />
<use xlink:href="#f2_u" transform="matrix(12,0,0,12,378.5,168.3)" />
<use xlink:href="#f2_c" transform="matrix(12,0,0,12,55,353.9)" />
<use xlink:href="#f2_1y" transform="matrix(12,0,0,12,61.3,353.9)" />
<use xlink:href="#f2_d" transform="matrix(12,0,0,12,70.1,353.9)" />
<use xlink:href="#f2_1k" transform="matrix(12,0,0,12,81,353.9)" />
<use xlink:href="#f2_21" transform="matrix(12,0,0,12,92.4,353.9)" />
<use xlink:href="#f2_2f" transform="matrix(12,0,0,12,100.4,353.9)" />
<use xlink:href="#f2_2g" transform="matrix(12,0,0,12,107.4,353.9)" />
<use xlink:href="#f2_2g" transform="matrix(12,0,0,12,116.9,353.9)" />
<use xlink:href="#f2_2b" transform="matrix(12,0,0,12,122,353.9)" />
<use xlink:href="#f2_20" transform="matrix(12,0,0,12,136.3,353.9)" />
<use xlink:href="#f2_25" transform="matrix(12,0,0,12,145.5,353.9)" />
<use xlink:href="#f2_2f" transform="matrix(12,0,0,12,149.9,353.9)" />
<use xlink:href="#f2_2g" transform="matrix(12,0,0,12,156.9,353.9)" />
<use xlink:href="#f2_25" transform="matrix(12,0,0,12,162.7,353.9)" />
<use xlink:href="#f2_2a" transform="matrix(12,0,0,12,167.5,353.9)" />
<use xlink:href="#f2_23" transform="matrix(12,0,0,12,176.3,353.9)" />
<use xlink:href="#f2_2h" transform="matrix(12,0,0,12,185.4,353.9)" />
<use xlink:href="#f2_25" transform="matrix(12,0,0,12,195,353.9)" />
<use xlink:href="#f2_2f" transform="matrix(12,0,0,12,199.7,353.9)" />
<use xlink:href="#f2_24" transform="matrix(12,0,0,12,207,353.9)" />
<use xlink:href="#f2_22" transform="matrix(12,0,0,12,221,353.9)" />
<use xlink:href="#f2_2b" transform="matrix(12,0,0,12,226.5,353.9)" />
<use xlink:href="#f2_28" transform="matrix(12,0,0,12,236.3,353.9)" />
<use xlink:href="#f2_28" transform="matrix(12,0,0,12,241.1,353.9)" />
<use xlink:href="#f2_2b" transform="matrix(12,0,0,12,245.5,353.9)" />
<use xlink:href="#f2_2j" transform="matrix(12,0,0,12,255,353.9)" />
<use xlink:href="#f2_25" transform="matrix(12,0,0,12,268.6,353.9)" />
<use xlink:href="#f2_2a" transform="matrix(12,0,0,12,273.3,353.9)" />
<use xlink:href="#f2_23" transform="matrix(12,0,0,12,282.5,353.9)" />
<use xlink:href="#f2_1z" transform="matrix(12,0,0,12,296.4,353.9)" />
<use xlink:href="#f2_2b" transform="matrix(12,0,0,12,304.5,353.9)" />
<use xlink:href="#f2_29" transform="matrix(12,0,0,12,314.4,353.9)" />
<use xlink:href="#f2_2c" transform="matrix(12,0,0,12,327.9,353.9)" />
<use xlink:href="#f2_2b" transform="matrix(12,0,0,12,337.1,353.9)" />
<use xlink:href="#f2_2h" transform="matrix(12,0,0,12,346.6,353.9)" />
<use xlink:href="#f2_2a" transform="matrix(12,0,0,12,355.8,353.9)" />
<use xlink:href="#f2_20" transform="matrix(12,0,0,12,364.6,353.9)" />
<use xlink:href="#f2_1x" transform="matrix(12,0,0,12,378.5,353.9)" />
<use xlink:href="#f2_2e" transform="matrix(12,0,0,12,386.6,353.9)" />
<use xlink:href="#f2_21" transform="matrix(12,0,0,12,392.8,353.9)" />
<use xlink:href="#f2_h" transform="matrix(12,0,0,12,406.1,353.9)" />
<use xlink:href="#f2_c" transform="matrix(12,0,0,12,55,378.1)" />
<use xlink:href="#f2_25" transform="matrix(12,0,0,12,61.6,378.1)" />
<use xlink:href="#f2_d" transform="matrix(12,0,0,12,66,378.1)" />
<use xlink:href="#f2_12" transform="matrix(12,0,0,12,77,378.1)" />
<use xlink:href="#f2_2h" transform="matrix(12,0,0,12,89.1,378.1)" />
<use xlink:href="#f2_2g" transform="matrix(12,0,0,12,98.2,378.1)" />
<use xlink:href="#f2_1x" transform="matrix(12,0,0,12,103.7,378.1)" />
<use xlink:href="#f2_2a" transform="matrix(12,0,0,12,111.8,378.1)" />
<use xlink:href="#f2_1x" transform="matrix(12,0,0,12,120.6,378.1)" />
<use xlink:href="#f2_28" transform="matrix(12,0,0,12,129,378.1)" />
<use xlink:href="#f2_1x" transform="matrix(12,0,0,12,138.2,378.1)" />
<use xlink:href="#f2_2a" transform="matrix(12,0,0,12,146.6,378.1)" />
<use xlink:href="#f2_20" transform="matrix(12,0,0,12,155.4,378.1)" />
<use xlink:href="#f2_12" transform="matrix(12,0,0,12,169.3,378.1)" />
<use xlink:href="#f2_2h" transform="matrix(12,0,0,12,181.4,378.1)" />
<use xlink:href="#f2_2g" transform="matrix(12,0,0,12,190.6,378.1)" />
<use xlink:href="#f2_1x" transform="matrix(12,0,0,12,196,378.1)" />
<use xlink:href="#f2_2a" transform="matrix(12,0,0,12,204.1,378.1)" />
<use xlink:href="#f2_h" transform="matrix(12,0,0,12,213.1,378.1)" />
<use xlink:href="#f2_m" transform="matrix(12,0,0,12,219.3,378.1)" />
<use xlink:href="#f2_h" transform="matrix(12,0,0,12,228.5,378.1)" />
<use xlink:href="#f2_2b" transform="matrix(12,0,0,12,234.7,378.1)" />
<use xlink:href="#f2_2a" transform="matrix(12,0,0,12,244.3,378.1)" />
<use xlink:href="#f2_21" transform="matrix(12,0,0,12,253.1,378.1)" />
<use xlink:href="#f2_1k" transform="matrix(12,0,0,12,55,402.3)" />
<use xlink:href="#f2_24" transform="matrix(12,0,0,12,66.4,402.3)" />
<use xlink:href="#f2_21" transform="matrix(12,0,0,12,75.2,402.3)" />
<use xlink:href="#f2_2f" transform="matrix(12,0,0,12,83.3,402.3)" />
<use xlink:href="#f2_21" transform="matrix(12,0,0,12,90.2,402.3)" />
<use xlink:href="#f2_1z" transform="matrix(12,0,0,12,103,402.3)" />
<use xlink:href="#f2_2b" transform="matrix(12,0,0,12,111.1,402.3)" />
<use xlink:href="#f2_29" transform="matrix(12,0,0,12,121,402.3)" />
<use xlink:href="#f2_2c" transform="matrix(12,0,0,12,134.5,402.3)" />
<use xlink:href="#f2_2b" transform="matrix(12,0,0,12,143.7,402.3)" />
<use xlink:href="#f2_2h" transform="matrix(12,0,0,12,153.2,402.3)" />
<use xlink:href="#f2_2a" transform="matrix(12,0,0,12,162.4,402.3)" />
<use xlink:href="#f2_20" transform="matrix(12,0,0,12,171.2,402.3)" />
<use xlink:href="#f2_1z" transform="matrix(12,0,0,12,185.1,402.3)" />
<use xlink:href="#f2_1x" transform="matrix(12,0,0,12,193.2,402.3)" />
<use xlink:href="#f2_2a" transform="matrix(12,0,0,12,201.6,402.3)" />
<use xlink:href="#f2_1y" transform="matrix(12,0,0,12,215.1,402.3)" />
<use xlink:href="#f2_21" transform="matrix(12,0,0,12,223.9,402.3)" />
<use xlink:href="#f2_20" transform="matrix(12,0,0,12,236.8,402.3)" />
<use xlink:href="#f2_25" transform="matrix(12,0,0,12,246.3,402.3)" />
<use xlink:href="#f2_2f" transform="matrix(12,0,0,12,251,402.3)" />
<use xlink:href="#f2_2g" transform="matrix(12,0,0,12,258,402.3)" />
<use xlink:href="#f2_25" transform="matrix(12,0,0,12,263.9,402.3)" />
<use xlink:href="#f2_2a" transform="matrix(12,0,0,12,268.6,402.3)" />
<use xlink:href="#f2_23" transform="matrix(12,0,0,12,277.4,402.3)" />
<use xlink:href="#f2_2h" transform="matrix(12,0,0,12,286.6,402.3)" />
<use xlink:href="#f2_25" transform="matrix(12,0,0,12,296.1,402.3)" />
<use xlink:href="#f2_2f" transform="matrix(12,0,0,12,300.9,402.3)" />
<use xlink:href="#f2_24" transform="matrix(12,0,0,12,308.2,402.3)" />
<use xlink:href="#f2_1y" transform="matrix(12,0,0,12,322.1,402.3)" />
<use xlink:href="#f2_2l" transform="matrix(12,0,0,12,331.3,402.3)" />
<use xlink:href="#f2_1k" transform="matrix(12,0,0,12,344.4,402.3)" />
<use xlink:href="#f2_2b" transform="matrix(12,0,0,12,355.8,402.3)" />
<use xlink:href="#f2_28" transform="matrix(12,0,0,12,365.7,402.3)" />
<use xlink:href="#f2_28" transform="matrix(12,0,0,12,370.4,402.3)" />
<use xlink:href="#f2_21" transform="matrix(12,0,0,12,375.2,402.3)" />
<use xlink:href="#f2_2a" transform="matrix(12,0,0,12,383.6,402.3)" />
<use xlink:href="#f2_b" transform="matrix(12,0,0,12,392.8,402.3)" />
<use xlink:href="#f2_2f" transform="matrix(12,0,0,12,395.7,402.3)" />
<use xlink:href="#f2_2e" transform="matrix(12,0,0,12,407.4,402.3)" />
<use xlink:href="#f2_21" transform="matrix(12,0,0,12,413.7,402.3)" />
<use xlink:href="#f2_1x" transform="matrix(12,0,0,12,422.1,402.3)" />
<use xlink:href="#f2_23" transform="matrix(12,0,0,12,430.1,402.3)" />
<use xlink:href="#f2_21" transform="matrix(12,0,0,12,439.3,402.3)" />
<use xlink:href="#f2_2a" transform="matrix(12,0,0,12,447.4,402.3)" />
<use xlink:href="#f2_2g" transform="matrix(12,0,0,12,456.2,402.3)" />
<use xlink:href="#f2_u" transform="matrix(12,0,0,12,461.7,402.3)" />
<use xlink:href="#f2_h" transform="matrix(12,0,0,12,472.1,402.3)" />
</g>
<g clip-path="url(#c0_30)">
<g fill="#000000" >
<use xlink:href="#f2_n" transform="matrix(7.3,0,0,7.1,100.5,434)" />
<use xlink:href="#f2_m" transform="matrix(7.3,0,0,7.1,132.4,434)" />
<use xlink:href="#f2_m" transform="matrix(7.3,0,0,7.1,164.6,434)" />
<use xlink:href="#f2_n" transform="matrix(7.3,0,0,7.1,295,434)" />
<use xlink:href="#f2_m" transform="matrix(7.3,0,0,7.1,308.5,434)" />
<use xlink:href="#f2_n" transform="matrix(7.3,0,0,7.1,465.6,434)" />
<use xlink:href="#f2_m" transform="matrix(7.3,0,0,7.1,497.4,434)" />
<use xlink:href="#f2_m" transform="matrix(7.3,0,0,7.1,529.6,434)" />
<use xlink:href="#f2_n" transform="matrix(7.3,0,0,7.1,697.7,434)" />
<use xlink:href="#f2_m" transform="matrix(7.3,0,0,7.1,745.6,434)" />
<use xlink:href="#f2_2f" transform="matrix(7.3,0,0,7.1,608.3,443.9)" />
<use xlink:href="#f2_25" transform="matrix(7.3,0,0,7.1,612.4,443.9)" />
<use xlink:href="#f2_28" transform="matrix(7.3,0,0,7.1,615.4,443.9)" />
<use xlink:href="#f2_2i" transform="matrix(7.3,0,0,7.1,618.1,443.9)" />
<use xlink:href="#f2_21" transform="matrix(7.3,0,0,7.1,623.2,443.9)" />
<use xlink:href="#f2_2e" transform="matrix(7.3,0,0,7.1,627.9,443.9)" />
<use xlink:href="#f2_12" transform="matrix(7.3,0,0,7.1,122.6,444.8)" />
<use xlink:href="#f2_2h" transform="matrix(7.3,0,0,7.1,129.5,444.8)" />
<use xlink:href="#f2_2g" transform="matrix(7.3,0,0,7.1,137.8,444.8)" />
<use xlink:href="#f2_1x" transform="matrix(7.3,0,0,7.1,140.8,444.8)" />
<use xlink:href="#f2_2a" transform="matrix(7.3,0,0,7.1,145.5,444.8)" />
<use xlink:href="#f2_1x" transform="matrix(7.3,0,0,7.1,153.5,444.8)" />
<use xlink:href="#f2_28" transform="matrix(7.3,0,0,7.1,158.2,444.8)" />
<use xlink:href="#f2_1k" transform="matrix(7.3,0,0,7.1,276,444.8)" />
<use xlink:href="#f2_2b" transform="matrix(7.3,0,0,7.1,282.6,444.8)" />
<use xlink:href="#f2_28" transform="matrix(7.3,0,0,7.1,287.9,444.8)" />
<use xlink:href="#f2_28" transform="matrix(7.3,0,0,7.1,290.6,444.8)" />
<use xlink:href="#f2_21" transform="matrix(7.3,0,0,7.1,293.4,444.8)" />
<use xlink:href="#f2_2a" transform="matrix(7.3,0,0,7.1,298.1,444.8)" />
<use xlink:href="#f2_2f" transform="matrix(7.3,0,0,7.1,303.4,444.8)" />
<use xlink:href="#f2_2e" transform="matrix(7.3,0,0,7.1,310,444.8)" />
<use xlink:href="#f2_21" transform="matrix(7.3,0,0,7.1,313.4,444.8)" />
<use xlink:href="#f2_1x" transform="matrix(7.3,0,0,7.1,318.1,444.8)" />
<use xlink:href="#f2_23" transform="matrix(7.3,0,0,7.1,322.7,444.8)" />
<use xlink:href="#f2_21" transform="matrix(7.3,0,0,7.1,328,444.8)" />
<use xlink:href="#f2_2a" transform="matrix(7.3,0,0,7.1,332.7,444.8)" />
<use xlink:href="#f2_2g" transform="matrix(7.3,0,0,7.1,338,444.8)" />
<use xlink:href="#f2_12" transform="matrix(7.3,0,0,7.1,481.1,444.8)" />
<use xlink:href="#f2_2h" transform="matrix(7.3,0,0,7.1,488,444.8)" />
<use xlink:href="#f2_2g" transform="matrix(7.3,0,0,7.1,496.4,444.8)" />
<use xlink:href="#f2_1x" transform="matrix(7.3,0,0,7.1,499.3,444.8)" />
<use xlink:href="#f2_2a" transform="matrix(7.3,0,0,7.1,504,444.8)" />
<use xlink:href="#f2_2b" transform="matrix(7.3,0,0,7.1,509.3,444.8)" />
<use xlink:href="#f2_1x" transform="matrix(7.3,0,0,7.1,514.6,444.8)" />
<use xlink:href="#f2_2g" transform="matrix(7.3,0,0,7.1,519.2,444.8)" />
<use xlink:href="#f2_21" transform="matrix(7.3,0,0,7.1,522.2,444.8)" />
<use xlink:href="#f2_25" transform="matrix(7.3,0,0,7.1,529,444.8)" />
<use xlink:href="#f2_2b" transform="matrix(7.3,0,0,7.1,532,444.8)" />
<use xlink:href="#f2_2a" transform="matrix(7.3,0,0,7.1,537.3,444.8)" />
<use xlink:href="#f2_29" transform="matrix(7.3,0,0,7.1,608.6,454.6)" />
<use xlink:href="#f2_25" transform="matrix(7.3,0,0,7.1,616.7,454.6)" />
<use xlink:href="#f2_2e" transform="matrix(7.3,0,0,7.1,619.7,454.6)" />
<use xlink:href="#f2_2e" transform="matrix(7.3,0,0,7.1,623.1,454.6)" />
<use xlink:href="#f2_2b" transform="matrix(7.3,0,0,7.1,626.5,454.6)" />
<use xlink:href="#f2_2e" transform="matrix(7.3,0,0,7.1,631.8,454.6)" />
<use xlink:href="#f2_1k" transform="matrix(7.3,0,0,7.1,212.5,474.5)" />
<use xlink:href="#f2_2b" transform="matrix(7.3,0,0,7.1,219.1,474.5)" />
<use xlink:href="#f2_28" transform="matrix(7.3,0,0,7.1,224.4,474.5)" />
<use xlink:href="#f2_28" transform="matrix(7.3,0,0,7.1,227.2,474.5)" />
<use xlink:href="#f2_21" transform="matrix(7.3,0,0,7.1,230,474.5)" />
<use xlink:href="#f2_2a" transform="matrix(7.3,0,0,7.1,234.6,474.5)" />
<use xlink:href="#f2_b" transform="matrix(7.3,0,0,7.1,239.9,474.5)" />
<use xlink:href="#f2_2f" transform="matrix(7.3,0,0,7.1,241.4,474.5)" />
<use xlink:href="#f2_n" transform="matrix(7.3,0,0,7.1,95.2,487.6)" />
<use xlink:href="#f2_m" transform="matrix(7.3,0,0,7.1,152.5,487.6)" />
<use xlink:href="#f2_n" transform="matrix(7.3,0,0,7.1,184.4,487.6)" />
<use xlink:href="#f2_1i" transform="matrix(7.3,0,0,7.1,211.6,488.9)" />
<use xlink:href="#f2_21" transform="matrix(7.3,0,0,7.1,218.7,488.9)" />
<use xlink:href="#f2_1x" transform="matrix(7.3,0,0,7.1,223.4,488.9)" />
<use xlink:href="#f2_23" transform="matrix(7.3,0,0,7.1,228,488.9)" />
<use xlink:href="#f2_21" transform="matrix(7.3,0,0,7.1,233.3,488.9)" />
<use xlink:href="#f2_2a" transform="matrix(7.3,0,0,7.1,238,488.9)" />
<use xlink:href="#f2_2g" transform="matrix(7.3,0,0,7.1,243.3,488.9)" />
<use xlink:href="#f2_12" transform="matrix(7.3,0,0,7.1,104,498.4)" />
<use xlink:href="#f2_2h" transform="matrix(7.3,0,0,7.1,110.9,498.4)" />
<use xlink:href="#f2_2g" transform="matrix(7.3,0,0,7.1,116.2,498.4)" />
<use xlink:href="#f2_1x" transform="matrix(7.3,0,0,7.1,119.2,498.4)" />
<use xlink:href="#f2_2a" transform="matrix(7.3,0,0,7.1,123.8,498.4)" />
<use xlink:href="#f2_h" transform="matrix(7.3,0,0,7.1,129.1,498.4)" />
<use xlink:href="#f2_m" transform="matrix(7.3,0,0,7.1,132.4,498.4)" />
<use xlink:href="#f2_h" transform="matrix(7.3,0,0,7.1,137.7,498.4)" />
<use xlink:href="#f2_2b" transform="matrix(7.3,0,0,7.1,141,498.4)" />
<use xlink:href="#f2_2a" transform="matrix(7.3,0,0,7.1,146.2,498.4)" />
<use xlink:href="#f2_21" transform="matrix(7.3,0,0,7.1,151.5,498.4)" />
<use xlink:href="#f2_e" transform="matrix(12.6,0,0,12.3,56.8,429.2)" />
<use xlink:href="#f2_13" transform="matrix(12.6,0,0,12.3,74.4,429.2)" />
<use xlink:href="#f2_18" transform="matrix(12.6,0,0,12.3,86.7,429.2)" />
<use xlink:href="#f2_13" transform="matrix(12.6,0,0,12.3,105.9,429.2)" />
<use xlink:href="#f2_18" transform="matrix(12.6,0,0,12.3,118.2,429.2)" />
<use xlink:href="#f2_13" transform="matrix(12.6,0,0,12.3,138.1,429.2)" />
<use xlink:href="#f2_18" transform="matrix(12.6,0,0,12.3,150.4,429.2)" />
<use xlink:href="#f2_13" transform="matrix(12.6,0,0,12.3,170.3,429.2)" />
<use xlink:href="#f2_18" transform="matrix(12.6,0,0,12.3,182.6,429.2)" />
<use xlink:href="#f2_1f" transform="matrix(12.6,0,0,12.3,195.8,429.2)" />
<use xlink:href="#f2_m" transform="matrix(12.6,0,0,12.3,223.5,429.2)" />
<use xlink:href="#f2_1r" transform="matrix(12.6,0,0,12.3,231.6,429.2)" />
<use xlink:href="#f2_11" transform="matrix(12.6,0,0,12.3,238.1,429.2)" />
<use xlink:href="#f2_23" transform="matrix(12.6,0,0,12.3,251,429.2)" />
<use xlink:href="#f2_c" transform="matrix(12.6,0,0,12.3,260.7,429.2)" />
<use xlink:href="#f2_1e" transform="matrix(12.6,0,0,12.3,267.9,429.2)" />
<use xlink:href="#f2_18" transform="matrix(12.6,0,0,12.3,281.1,429.2)" />
<use xlink:href="#f2_d" transform="matrix(12.6,0,0,12.3,301.7,429.2)" />
<use xlink:href="#f2_1t" transform="matrix(12.6,0,0,12.3,315.6,429.2)" />
<use xlink:href="#f2_n" transform="matrix(12.6,0,0,12.3,348.3,429.2)" />
<use xlink:href="#f2_1f" transform="matrix(12.6,0,0,12.3,356.9,429.2)" />
<use xlink:href="#f2_18" transform="matrix(12.6,0,0,12.3,370.1,429.2)" />
<use xlink:href="#f2_13" transform="matrix(12.6,0,0,12.3,439.3,429.2)" />
<use xlink:href="#f2_18" transform="matrix(12.6,0,0,12.3,451.6,429.2)" />
<use xlink:href="#f2_13" transform="matrix(12.6,0,0,12.3,470.8,429.2)" />
<use xlink:href="#f2_18" transform="matrix(12.6,0,0,12.3,483.1,429.2)" />
<use xlink:href="#f2_13" transform="matrix(12.6,0,0,12.3,503,429.2)" />
<use xlink:href="#f2_18" transform="matrix(12.6,0,0,12.3,515.3,429.2)" />
<use xlink:href="#f2_13" transform="matrix(12.6,0,0,12.3,535.2,429.2)" />
<use xlink:href="#f2_1f" transform="matrix(12.6,0,0,12.3,547.5,429.2)" />
<use xlink:href="#f2_1f" transform="matrix(12.6,0,0,12.3,560.7,429.2)" />
<use xlink:href="#f2_m" transform="matrix(12.6,0,0,12.3,598.6,429.2)" />
<use xlink:href="#f2_11" transform="matrix(12.6,0,0,12.3,608,429.2)" />
<use xlink:href="#f2_23" transform="matrix(12.6,0,0,12.3,620.9,429.2)" />
<use xlink:href="#f2_o" transform="matrix(12.6,0,0,12.3,660.5,429.2)" />
<use xlink:href="#f2_1e" transform="matrix(12.6,0,0,12.3,670.5,429.2)" />
<use xlink:href="#f2_18" transform="matrix(12.6,0,0,12.3,683.7,429.2)" />
<use xlink:href="#f2_m" transform="matrix(12.6,0,0,12.3,721.8,429.2)" />
<use xlink:href="#f2_18" transform="matrix(12.6,0,0,12.3,731.2,429.2)" />
<use xlink:href="#f2_1f" transform="matrix(12.6,0,0,12.3,751.1,429.2)" />
<use xlink:href="#f2_e" transform="matrix(12.6,0,0,12.3,56.8,482.8)" />
<use xlink:href="#f2_13" transform="matrix(12.6,0,0,12.3,69,482.8)" />
<use xlink:href="#f2_18" transform="matrix(12.6,0,0,12.3,81.3,482.8)" />
<use xlink:href="#f2_13" transform="matrix(12.6,0,0,12.3,100.5,482.8)" />
<use xlink:href="#f2_1f" transform="matrix(12.6,0,0,12.3,112.8,482.8)" />
<use xlink:href="#f2_13" transform="matrix(12.6,0,0,12.3,126,482.8)" />
<use xlink:href="#f2_18" transform="matrix(12.6,0,0,12.3,138.3,482.8)" />
<use xlink:href="#f2_13" transform="matrix(12.6,0,0,12.3,158.2,482.8)" />
<use xlink:href="#f2_18" transform="matrix(12.6,0,0,12.3,170.5,482.8)" />
<use xlink:href="#f2_1e" transform="matrix(12.6,0,0,12.3,267.8,482.8)" />
<use xlink:href="#f2_2b" transform="matrix(12.6,0,0,12.3,281,482.8)" />
<use xlink:href="#f2_2f" transform="matrix(12.6,0,0,12.3,294,482.8)" />
<use xlink:href="#f2_25" transform="matrix(12.6,0,0,12.3,301.2,482.8)" />
<use xlink:href="#f2_28" transform="matrix(12.6,0,0,12.3,306.3,482.8)" />
<use xlink:href="#f2_2i" transform="matrix(12.6,0,0,12.3,311.2,482.8)" />
<use xlink:href="#f2_21" transform="matrix(12.6,0,0,12.3,320.1,482.8)" />
<use xlink:href="#f2_2e" transform="matrix(12.6,0,0,12.3,328.1,482.8)" />
<use xlink:href="#f2_29" transform="matrix(12.6,0,0,12.3,339.1,482.8)" />
<use xlink:href="#f2_25" transform="matrix(12.6,0,0,12.3,353.2,482.8)" />
<use xlink:href="#f2_2e" transform="matrix(12.6,0,0,12.3,358.3,482.8)" />
<use xlink:href="#f2_2e" transform="matrix(12.6,0,0,12.3,364.3,482.8)" />
<use xlink:href="#f2_2b" transform="matrix(12.6,0,0,12.3,370.3,482.8)" />
<use xlink:href="#f2_2e" transform="matrix(12.6,0,0,12.3,379.5,482.8)" />
<use xlink:href="#f4_3r" transform="matrix(7.3,0,0,7.1,321.5,420.9)" />
<use xlink:href="#f4_1h" transform="matrix(7.3,0,0,7.1,384.3,420.9)" />
<use xlink:href="#f4_1h" transform="matrix(7.3,0,0,7.1,574.7,420.9)" />
<use xlink:href="#f4_f" transform="matrix(12.6,0,0,12.3,209.6,429.2)" />
<use xlink:href="#f4_f" transform="matrix(12.6,0,0,12.3,335,429.2)" />
<use xlink:href="#f4_3k" transform="matrix(12.6,0,0,12.3,397.2,429.2)" />
<use xlink:href="#f4_3k" transform="matrix(12.6,0,0,12.3,415.7,429.2)" />
<use xlink:href="#f4_34" transform="matrix(12.6,0,0,12.3,419.8,429.2)" />
<use xlink:href="#f4_f" transform="matrix(12.6,0,0,12.3,584.7,429.2)" />
<use xlink:href="#f4_35" transform="matrix(12.6,0,0,12.3,634.5,429.2)" />
<use xlink:href="#f4_f" transform="matrix(12.6,0,0,12.3,645.9,429.2)" />
<use xlink:href="#f4_f" transform="matrix(12.6,0,0,12.3,708,429.2)" />
<use xlink:href="#f4_3k" transform="matrix(12.6,0,0,12.3,194.3,482.8)" />
<use xlink:href="#f4_3k" transform="matrix(12.6,0,0,12.3,212.8,482.8)" />
<use xlink:href="#f4_3k" transform="matrix(12.6,0,0,12.3,232,482.8)" />
<use xlink:href="#f4_34" transform="matrix(12.6,0,0,12.3,247.3,482.8)" />
</g>
</g>
<g fill="#000000" >
<use xlink:href="#f2_c" transform="matrix(12,0,0,12,55,521.2)" />
<use xlink:href="#f2_25" transform="matrix(12,0,0,12,61.6,521.2)" />
<use xlink:href="#f2_25" transform="matrix(12,0,0,12,66.4,521.2)" />
<use xlink:href="#f2_d" transform="matrix(12,0,0,12,70.8,521.2)" />
<use xlink:href="#f2_12" transform="matrix(12,0,0,12,81.7,521.2)" />
<use xlink:href="#f2_21" transform="matrix(12,0,0,12,93.8,521.2)" />
<use xlink:href="#f2_2a" transform="matrix(12,0,0,12,102.3,521.2)" />
<use xlink:href="#f2_2m" transform="matrix(12,0,0,12,111.1,521.2)" />
<use xlink:href="#f2_2b" transform="matrix(12,0,0,12,119.1,521.2)" />
<use xlink:href="#f2_25" transform="matrix(12,0,0,12,129,521.2)" />
<use xlink:href="#f2_1z" transform="matrix(12,0,0,12,133.4,521.2)" />
<use xlink:href="#f2_1x" transform="matrix(12,0,0,12,146.2,521.2)" />
<use xlink:href="#f2_1z" transform="matrix(12,0,0,12,154.3,521.2)" />
<use xlink:href="#f2_25" transform="matrix(12,0,0,12,162.7,521.2)" />
<use xlink:href="#f2_20" transform="matrix(12,0,0,12,167.5,521.2)" />
<use xlink:href="#f2_1x" transform="matrix(12,0,0,12,181.4,521.2)" />
<use xlink:href="#f2_2a" transform="matrix(12,0,0,12,189.8,521.2)" />
<use xlink:href="#f2_20" transform="matrix(12,0,0,12,198.6,521.2)" />
<use xlink:href="#f2_2c" transform="matrix(12,0,0,12,212.5,521.2)" />
<use xlink:href="#f2_24" transform="matrix(12,0,0,12,221.7,521.2)" />
<use xlink:href="#f2_21" transform="matrix(12,0,0,12,230.5,521.2)" />
<use xlink:href="#f2_2a" transform="matrix(12,0,0,12,238.9,521.2)" />
<use xlink:href="#f2_2b" transform="matrix(12,0,0,12,247.7,521.2)" />
<use xlink:href="#f2_28" transform="matrix(12,0,0,12,257.6,521.2)" />
<use xlink:href="#f2_u" transform="matrix(12,0,0,12,262,521.2)" />
<use xlink:href="#f2_h" transform="matrix(12,0,0,12,272.2,521.2)" />
<use xlink:href="#f2_12" transform="matrix(12,0,0,12,55,545.4)" />
<use xlink:href="#f2_2b" transform="matrix(12,0,0,12,67.1,545.4)" />
<use xlink:href="#f2_2g" transform="matrix(12,0,0,12,76.3,545.4)" />
<use xlink:href="#f2_24" transform="matrix(12,0,0,12,81.8,545.4)" />
<use xlink:href="#f2_1z" transform="matrix(12,0,0,12,95.3,545.4)" />
<use xlink:href="#f2_1x" transform="matrix(12,0,0,12,103.4,545.4)" />
<use xlink:href="#f2_2a" transform="matrix(12,0,0,12,111.5,545.4)" />
<use xlink:href="#f2_20" transform="matrix(12,0,0,12,125,545.4)" />
<use xlink:href="#f2_25" transform="matrix(12,0,0,12,134.5,545.4)" />
<use xlink:href="#f2_2f" transform="matrix(12,0,0,12,139.3,545.4)" />
<use xlink:href="#f2_2g" transform="matrix(12,0,0,12,146.3,545.4)" />
<use xlink:href="#f2_25" transform="matrix(12,0,0,12,152.1,545.4)" />
<use xlink:href="#f2_2a" transform="matrix(12,0,0,12,156.9,545.4)" />
<use xlink:href="#f2_23" transform="matrix(12,0,0,12,165.7,545.4)" />
<use xlink:href="#f2_2h" transform="matrix(12,0,0,12,174.8,545.4)" />
<use xlink:href="#f2_25" transform="matrix(12,0,0,12,184.4,545.4)" />
<use xlink:href="#f2_2f" transform="matrix(12,0,0,12,189.1,545.4)" />
<use xlink:href="#f2_24" transform="matrix(12,0,0,12,196.4,545.4)" />
<use xlink:href="#f2_21" transform="matrix(12,0,0,12,205.2,545.4)" />
<use xlink:href="#f2_20" transform="matrix(12,0,0,12,213.3,545.4)" />
<use xlink:href="#f2_1y" transform="matrix(12,0,0,12,227.6,545.4)" />
<use xlink:href="#f2_2l" transform="matrix(12,0,0,12,236.8,545.4)" />
<use xlink:href="#f2_16" transform="matrix(12,0,0,12,250.3,545.4)" />
<use xlink:href="#f2_21" transform="matrix(12,0,0,12,260.2,545.4)" />
<use xlink:href="#f2_13" transform="matrix(12,0,0,12,268.6,545.4)" />
<use xlink:href="#f2_28" transform="matrix(12,0,0,12,281.1,545.4)" />
<use xlink:href="#f2_n" transform="matrix(7.9,0,0,7.9,285.7,546.9)" />
<use xlink:href="#f2_2g" transform="matrix(12,0,0,12,296.7,545.4)" />
<use xlink:href="#f2_21" transform="matrix(12,0,0,12,302.2,545.4)" />
<use xlink:href="#f2_2f" transform="matrix(12,0,0,12,310.3,545.4)" />
<use xlink:href="#f2_2g" transform="matrix(12,0,0,12,317.3,545.4)" />
</g>
<g clip-path="url(#c1_30)">
<g fill="#000000" >
<use xlink:href="#f2_q" transform="matrix(7.4,0,0,7.1,81.6,577.1)" />
<use xlink:href="#f2_p" transform="matrix(7.4,0,0,7.1,101.4,577.1)" />
<use xlink:href="#f2_n" transform="matrix(7.4,0,0,7.1,179,577.1)" />
<use xlink:href="#f2_1g" transform="matrix(7.4,0,0,7.1,112.8,587.9)" />
<use xlink:href="#f2_24" transform="matrix(7.4,0,0,7.1,118.7,587.9)" />
<use xlink:href="#f2_21" transform="matrix(7.4,0,0,7.1,124,587.9)" />
<use xlink:href="#f2_2a" transform="matrix(7.4,0,0,7.1,128.6,587.9)" />
<use xlink:href="#f2_2b" transform="matrix(7.4,0,0,7.1,133.9,587.9)" />
<use xlink:href="#f2_28" transform="matrix(7.4,0,0,7.1,139.2,587.9)" />
<use xlink:href="#f2_e" transform="matrix(12.8,0,0,12.2,56.8,572.3)" />
<use xlink:href="#f2_13" transform="matrix(12.8,0,0,12.2,69,572.3)" />
<use xlink:href="#f2_18" transform="matrix(12.8,0,0,12.2,87.5,572.3)" />
<use xlink:href="#f2_1f" transform="matrix(12.8,0,0,12.2,106.9,572.3)" />
<use xlink:href="#f2_18" transform="matrix(12.8,0,0,12.2,120,572.3)" />
<use xlink:href="#f2_f" transform="matrix(12.8,0,0,12.2,133.2,572.3)" />
<use xlink:href="#f2_16" transform="matrix(12.8,0,0,12.2,143.5,572.3)" />
<use xlink:href="#f2_21" transform="matrix(12.8,0,0,12.2,153.5,572.3)" />
<use xlink:href="#f2_13" transform="matrix(12.8,0,0,12.2,161.5,572.3)" />
<use xlink:href="#f2_28" transform="matrix(12.8,0,0,12.2,173.8,572.3)" />
<use xlink:href="#f2_2i" transform="matrix(12.8,0,0,12.2,231.6,572.3)" />
<use xlink:href="#f2_25" transform="matrix(12.8,0,0,12.2,240.5,572.3)" />
<use xlink:href="#f2_2b" transform="matrix(12.8,0,0,12.2,245.6,572.3)" />
<use xlink:href="#f2_28" transform="matrix(12.8,0,0,12.2,254.7,572.3)" />
<use xlink:href="#f2_21" transform="matrix(12.8,0,0,12.2,259.6,572.3)" />
<use xlink:href="#f2_2g" transform="matrix(12.8,0,0,12.2,267.6,572.3)" />
<use xlink:href="#f2_1z" transform="matrix(12.8,0,0,12.2,277.3,572.3)" />
<use xlink:href="#f2_2b" transform="matrix(12.8,0,0,12.2,285.3,572.3)" />
<use xlink:href="#f2_28" transform="matrix(12.8,0,0,12.2,294.5,572.3)" />
<use xlink:href="#f2_2b" transform="matrix(12.8,0,0,12.2,299.3,572.3)" />
<use xlink:href="#f2_2h" transform="matrix(12.8,0,0,12.2,308.5,572.3)" />
<use xlink:href="#f2_2e" transform="matrix(12.8,0,0,12.2,317.7,572.3)" />
<use xlink:href="#f2_1x" transform="matrix(12.8,0,0,12.2,323.7,572.3)" />
<use xlink:href="#f2_2g" transform="matrix(12.8,0,0,12.2,331.7,572.3)" />
<use xlink:href="#f2_25" transform="matrix(12.8,0,0,12.2,336.8,572.3)" />
<use xlink:href="#f2_2b" transform="matrix(12.8,0,0,12.2,341.9,572.3)" />
<use xlink:href="#f2_2a" transform="matrix(12.8,0,0,12.2,351.1,572.3)" />
<use xlink:href="#f4_3k" transform="matrix(12.8,0,0,12.2,188.9,572.3)" />
<use xlink:href="#f4_3k" transform="matrix(12.8,0,0,12.2,207.4,572.3)" />
<use xlink:href="#f4_34" transform="matrix(12.8,0,0,12.2,211.5,572.3)" />
</g>
</g>
<g clip-path="url(#c2_30)">
<g fill="#000000" >
<use xlink:href="#f2_q" transform="matrix(7.3,0,0,7.1,101.1,620.1)" />
<use xlink:href="#f2_p" transform="matrix(7.3,0,0,7.1,121,620.1)" />
<use xlink:href="#f2_n" transform="matrix(7.3,0,0,7.1,233.7,620.1)" />
<use xlink:href="#f2_q" transform="matrix(7.3,0,0,7.1,304.5,620.1)" />
<use xlink:href="#f2_m" transform="matrix(7.3,0,0,7.1,378.3,620.1)" />
<use xlink:href="#f2_12" transform="matrix(7.3,0,0,7.1,132.7,631)" />
<use xlink:href="#f2_21" transform="matrix(7.3,0,0,7.1,139.6,631)" />
<use xlink:href="#f2_2a" transform="matrix(7.3,0,0,7.1,144.3,631)" />
<use xlink:href="#f2_2m" transform="matrix(7.3,0,0,7.1,149.6,631)" />
<use xlink:href="#f2_2b" transform="matrix(7.3,0,0,7.1,154.2,631)" />
<use xlink:href="#f2_25" transform="matrix(7.3,0,0,7.1,159.6,631)" />
<use xlink:href="#f2_1z" transform="matrix(7.3,0,0,7.1,162.5,631)" />
<use xlink:href="#f2_1x" transform="matrix(7.3,0,0,7.1,169.8,631)" />
<use xlink:href="#f2_1z" transform="matrix(7.3,0,0,7.1,174.4,631)" />
<use xlink:href="#f2_25" transform="matrix(7.3,0,0,7.1,179.1,631)" />
<use xlink:href="#f2_20" transform="matrix(7.3,0,0,7.1,182,631)" />
<use xlink:href="#f2_22" transform="matrix(7.3,0,0,7.1,339.2,631)" />
<use xlink:href="#f2_21" transform="matrix(7.3,0,0,7.1,342.6,631)" />
<use xlink:href="#f2_2e" transform="matrix(7.3,0,0,7.1,347.3,631)" />
<use xlink:href="#f2_2e" transform="matrix(7.3,0,0,7.1,350.7,631)" />
<use xlink:href="#f2_25" transform="matrix(7.3,0,0,7.1,354.2,631)" />
<use xlink:href="#f2_1z" transform="matrix(7.3,0,0,7.1,357.1,631)" />
<use xlink:href="#f2_1y" transform="matrix(7.3,0,0,7.1,361.8,631)" />
<use xlink:href="#f2_21" transform="matrix(7.3,0,0,7.1,367.1,631)" />
<use xlink:href="#f2_2a" transform="matrix(7.3,0,0,7.1,371.8,631)" />
<use xlink:href="#f2_2m" transform="matrix(7.3,0,0,7.1,377.1,631)" />
<use xlink:href="#f2_2b" transform="matrix(7.3,0,0,7.1,381.7,631)" />
<use xlink:href="#f2_1x" transform="matrix(7.3,0,0,7.1,387,631)" />
<use xlink:href="#f2_2g" transform="matrix(7.3,0,0,7.1,391.7,631)" />
<use xlink:href="#f2_21" transform="matrix(7.3,0,0,7.1,394.6,631)" />
<use xlink:href="#f2_c" transform="matrix(7.3,0,0,7.1,327.1,641.7)" />
<use xlink:href="#f2_12" transform="matrix(7.3,0,0,7.1,330.5,641.7)" />
<use xlink:href="#f2_2h" transform="matrix(7.3,0,0,7.1,337.4,641.7)" />
<use xlink:href="#f2_22" transform="matrix(7.3,0,0,7.1,342.7,641.7)" />
<use xlink:href="#f2_22" transform="matrix(7.3,0,0,7.1,346.2,641.7)" />
<use xlink:href="#f2_1z" transform="matrix(7.3,0,0,7.1,352.3,641.7)" />
<use xlink:href="#f2_2b" transform="matrix(7.3,0,0,7.1,356.9,641.7)" />
<use xlink:href="#f2_28" transform="matrix(7.3,0,0,7.1,362.2,641.7)" />
<use xlink:href="#f2_2b" transform="matrix(7.3,0,0,7.1,365,641.7)" />
<use xlink:href="#f2_2h" transform="matrix(7.3,0,0,7.1,370.3,641.7)" />
<use xlink:href="#f2_2e" transform="matrix(7.3,0,0,7.1,375.7,641.7)" />
<use xlink:href="#f2_21" transform="matrix(7.3,0,0,7.1,379.1,641.7)" />
<use xlink:href="#f2_20" transform="matrix(7.3,0,0,7.1,383.8,641.7)" />
<use xlink:href="#f2_2c" transform="matrix(7.3,0,0,7.1,389.1,641.7)" />
<use xlink:href="#f2_i" transform="matrix(7.3,0,0,7.1,394.4,641.7)" />
<use xlink:href="#f2_2c" transform="matrix(7.3,0,0,7.1,397,641.7)" />
<use xlink:href="#f2_i" transform="matrix(7.3,0,0,7.1,402.4,641.7)" />
<use xlink:href="#f2_2g" transform="matrix(7.3,0,0,7.1,405,641.7)" />
<use xlink:href="#f2_d" transform="matrix(7.3,0,0,7.1,407.9,641.7)" />
<use xlink:href="#f2_n" transform="matrix(12.7,0,0,12.3,79.4,615.3)" />
<use xlink:href="#f2_13" transform="matrix(12.7,0,0,12.3,88.5,615.3)" />
<use xlink:href="#f2_18" transform="matrix(12.7,0,0,12.3,107.1,615.3)" />
<use xlink:href="#f2_13" transform="matrix(12.7,0,0,12.3,126.6,615.3)" />
<use xlink:href="#f2_1f" transform="matrix(12.7,0,0,12.3,138.9,615.3)" />
<use xlink:href="#f2_1f" transform="matrix(12.7,0,0,12.3,152.1,615.3)" />
<use xlink:href="#f2_18" transform="matrix(12.7,0,0,12.3,165.2,615.3)" />
<use xlink:href="#f2_f" transform="matrix(12.7,0,0,12.3,183.2,615.3)" />
<use xlink:href="#f2_16" transform="matrix(12.7,0,0,12.3,198,615.3)" />
<use xlink:href="#f2_21" transform="matrix(12.7,0,0,12.3,208,615.3)" />
<use xlink:href="#f2_13" transform="matrix(12.7,0,0,12.3,216.1,615.3)" />
<use xlink:href="#f2_28" transform="matrix(12.7,0,0,12.3,228.4,615.3)" />
<use xlink:href="#f2_c" transform="matrix(12.7,0,0,12.3,285.8,615.3)" />
<use xlink:href="#f2_13" transform="matrix(12.7,0,0,12.3,291.8,615.3)" />
<use xlink:href="#f2_18" transform="matrix(12.7,0,0,12.3,310.4,615.3)" />
<use xlink:href="#f2_p" transform="matrix(12.7,0,0,12.3,323.6,615.3)" />
<use xlink:href="#f2_13" transform="matrix(12.7,0,0,12.3,332.8,615.3)" />
<use xlink:href="#f2_1f" transform="matrix(12.7,0,0,12.3,345.1,615.3)" />
<use xlink:href="#f2_1f" transform="matrix(12.7,0,0,12.3,358.3,615.3)" />
<use xlink:href="#f2_d" transform="matrix(12.7,0,0,12.3,371.5,615.3)" />
<use xlink:href="#f2_16" transform="matrix(12.7,0,0,12.3,384.2,615.3)" />
<use xlink:href="#f2_21" transform="matrix(12.7,0,0,12.3,394.3,615.3)" />
<use xlink:href="#f2_f" transform="matrix(12.7,0,0,12.3,402.3,615.3)" />
<use xlink:href="#f2_n" transform="matrix(12.7,0,0,12.3,412.6,615.3)" />
<use xlink:href="#f2_18" transform="matrix(12.7,0,0,12.3,421.8,615.3)" />
<use xlink:href="#f2_13" transform="matrix(12.7,0,0,12.3,435,615.3)" />
<use xlink:href="#f2_28" transform="matrix(12.7,0,0,12.3,447.3,615.3)" />
<use xlink:href="#f4_34" transform="matrix(12.7,0,0,12.3,57.7,615.3)" />
<use xlink:href="#f4_3k" transform="matrix(12.7,0,0,12.3,243.6,615.3)" />
<use xlink:href="#f4_3k" transform="matrix(12.7,0,0,12.3,262.1,615.3)" />
<use xlink:href="#f4_34" transform="matrix(12.7,0,0,12.3,266.2,615.3)" />
</g>
</g>
<g fill="#000000" >
<use xlink:href="#f2_c" transform="matrix(12,0,0,12,55,667.5)" />
<use xlink:href="#f2_1x" transform="matrix(12,0,0,12,61.3,667.5)" />
<use xlink:href="#f2_d" transform="matrix(12,0,0,12,69.3,667.5)" />
<use xlink:href="#f2_1i" transform="matrix(12,0,0,12,80.3,667.5)" />
<use xlink:href="#f2_21" transform="matrix(12,0,0,12,92.4,667.5)" />
<use xlink:href="#f2_1x" transform="matrix(12,0,0,12,100.4,667.5)" />
<use xlink:href="#f2_1z" transform="matrix(12,0,0,12,108.5,667.5)" />
<use xlink:href="#f2_2g" transform="matrix(12,0,0,12,116.6,667.5)" />
<use xlink:href="#f2_25" transform="matrix(12,0,0,12,122.1,667.5)" />
<use xlink:href="#f2_2b" transform="matrix(12,0,0,12,126.5,667.5)" />
<use xlink:href="#f2_2a" transform="matrix(12,0,0,12,136,667.5)" />
<use xlink:href="#f2_2f" transform="matrix(12,0,0,12,144.8,667.5)" />
<use xlink:href="#f2_25" transform="matrix(12,0,0,12,156.9,667.5)" />
<use xlink:href="#f2_2a" transform="matrix(12,0,0,12,161.6,667.5)" />
<use xlink:href="#f2_2i" transform="matrix(12,0,0,12,170.8,667.5)" />
<use xlink:href="#f2_2b" transform="matrix(12,0,0,12,179.6,667.5)" />
<use xlink:href="#f2_28" transform="matrix(12,0,0,12,189.5,667.5)" />
<use xlink:href="#f2_2i" transform="matrix(12,0,0,12,194.2,667.5)" />
<use xlink:href="#f2_21" transform="matrix(12,0,0,12,203.4,667.5)" />
<use xlink:href="#f2_u" transform="matrix(12,0,0,12,211.5,667.5)" />
<use xlink:href="#f2_h" transform="matrix(12,0,0,12,221.5,667.5)" />
<use xlink:href="#f2_c" transform="matrix(12,0,0,12,55,691.7)" />
<use xlink:href="#f2_25" transform="matrix(12,0,0,12,61.6,691.7)" />
<use xlink:href="#f2_d" transform="matrix(12,0,0,12,66,691.7)" />
<use xlink:href="#f2_15" transform="matrix(12,0,0,12,77,691.7)" />
<use xlink:href="#f2_2g" transform="matrix(12,0,0,12,88,691.7)" />
<use xlink:href="#f2_1x" transform="matrix(12,0,0,12,93.5,691.7)" />
<use xlink:href="#f2_2e" transform="matrix(12,0,0,12,101.5,691.7)" />
<use xlink:href="#f2_20" transform="matrix(12,0,0,12,107.7,691.7)" />
<use xlink:href="#f2_2e" transform="matrix(12,0,0,12,121.3,691.7)" />
<use xlink:href="#f2_21" transform="matrix(12,0,0,12,127.5,691.7)" />
<use xlink:href="#f2_1x" transform="matrix(12,0,0,12,135.6,691.7)" />
<use xlink:href="#f2_1z" transform="matrix(12,0,0,12,143.6,691.7)" />
<use xlink:href="#f2_2g" transform="matrix(12,0,0,12,151.7,691.7)" />
<use xlink:href="#f2_25" transform="matrix(12,0,0,12,157.2,691.7)" />
<use xlink:href="#f2_2b" transform="matrix(12,0,0,12,161.6,691.7)" />
<use xlink:href="#f2_2a" transform="matrix(12,0,0,12,171.1,691.7)" />
<use xlink:href="#f2_c" transform="matrix(12,0,0,12,55,829.2)" />
<use xlink:href="#f2_25" transform="matrix(12,0,0,12,61.6,829.2)" />
<use xlink:href="#f2_25" transform="matrix(12,0,0,12,66.4,829.2)" />
<use xlink:href="#f2_d" transform="matrix(12,0,0,12,70.8,829.2)" />
<use xlink:href="#f2_1j" transform="matrix(12,0,0,12,81.7,829.2)" />
<use xlink:href="#f2_2g" transform="matrix(12,0,0,12,92,829.2)" />
<use xlink:href="#f2_21" transform="matrix(12,0,0,12,97.5,829.2)" />
<use xlink:href="#f2_2c" transform="matrix(12,0,0,12,105.5,829.2)" />
<use xlink:href="#f2_24" transform="matrix(12,0,0,12,114.7,829.2)" />
<use xlink:href="#f2_21" transform="matrix(12,0,0,12,123.5,829.2)" />
<use xlink:href="#f2_2a" transform="matrix(12,0,0,12,131.9,829.2)" />
<use xlink:href="#f2_2e" transform="matrix(12,0,0,12,145.5,829.2)" />
<use xlink:href="#f2_21" transform="matrix(12,0,0,12,151.7,829.2)" />
<use xlink:href="#f2_20" transform="matrix(12,0,0,12,159.8,829.2)" />
<use xlink:href="#f2_2h" transform="matrix(12,0,0,12,168.9,829.2)" />
<use xlink:href="#f2_1z" transform="matrix(12,0,0,12,178.1,829.2)" />
<use xlink:href="#f2_2g" transform="matrix(12,0,0,12,186.2,829.2)" />
<use xlink:href="#f2_25" transform="matrix(12,0,0,12,191.6,829.2)" />
<use xlink:href="#f2_2b" transform="matrix(12,0,0,12,196,829.2)" />
<use xlink:href="#f2_2a" transform="matrix(12,0,0,12,205.6,829.2)" />
<use xlink:href="#f2_u" transform="matrix(12,0,0,12,214.4,829.2)" />
<use xlink:href="#f2_h" transform="matrix(12,0,0,12,224.5,829.2)" />
<use xlink:href="#f2_c" transform="matrix(12,0,0,12,55,909.6)" />
<use xlink:href="#f2_1y" transform="matrix(12,0,0,12,61.3,909.6)" />
<use xlink:href="#f2_d" transform="matrix(12,0,0,12,70.1,909.6)" />
<use xlink:href="#f2_13" transform="matrix(12,0,0,12,81,909.6)" />
<use xlink:href="#f2_2b" transform="matrix(12,0,0,12,93.1,909.6)" />
<use xlink:href="#f2_2a" transform="matrix(12,0,0,12,102.6,909.6)" />
<use xlink:href="#f2_2i" transform="matrix(12,0,0,12,111.4,909.6)" />
<use xlink:href="#f2_21" transform="matrix(12,0,0,12,120.2,909.6)" />
<use xlink:href="#f2_2e" transform="matrix(12,0,0,12,128.3,909.6)" />
<use xlink:href="#f2_2f" transform="matrix(12,0,0,12,134.5,909.6)" />
<use xlink:href="#f2_25" transform="matrix(12,0,0,12,141.8,909.6)" />
<use xlink:href="#f2_2b" transform="matrix(12,0,0,12,146.2,909.6)" />
<use xlink:href="#f2_2a" transform="matrix(12,0,0,12,156.1,909.6)" />
<use xlink:href="#f2_u" transform="matrix(12,0,0,12,164.9,909.6)" />
<use xlink:href="#f2_h" transform="matrix(12,0,0,12,175,909.6)" />
<use xlink:href="#f2_c" transform="matrix(12,0,0,12,55,933.8)" />
<use xlink:href="#f2_25" transform="matrix(12,0,0,12,61.6,933.8)" />
<use xlink:href="#f2_d" transform="matrix(12,0,0,12,66,933.8)" />
<use xlink:href="#f2_12" transform="matrix(12,0,0,12,77,933.8)" />
<use xlink:href="#f2_21" transform="matrix(12,0,0,12,89.1,933.8)" />
<use xlink:href="#f2_2a" transform="matrix(12,0,0,12,97.1,933.8)" />
<use xlink:href="#f2_2m" transform="matrix(12,0,0,12,105.9,933.8)" />
<use xlink:href="#f2_2b" transform="matrix(12,0,0,12,114,933.8)" />
<use xlink:href="#f2_25" transform="matrix(12,0,0,12,123.9,933.8)" />
<use xlink:href="#f2_1z" transform="matrix(12,0,0,12,128.3,933.8)" />
<use xlink:href="#f2_1x" transform="matrix(12,0,0,12,141.1,933.8)" />
<use xlink:href="#f2_1z" transform="matrix(12,0,0,12,149.2,933.8)" />
<use xlink:href="#f2_25" transform="matrix(12,0,0,12,157.6,933.8)" />
<use xlink:href="#f2_20" transform="matrix(12,0,0,12,162.4,933.8)" />
<use xlink:href="#f2_2g" transform="matrix(12,0,0,12,176.3,933.8)" />
<use xlink:href="#f2_2b" transform="matrix(12,0,0,12,181.8,933.8)" />
<use xlink:href="#f2_12" transform="matrix(12,0,0,12,195.7,933.8)" />
<use xlink:href="#f2_21" transform="matrix(12,0,0,12,207.8,933.8)" />
<use xlink:href="#f2_2a" transform="matrix(12,0,0,12,215.8,933.8)" />
<use xlink:href="#f2_2m" transform="matrix(12,0,0,12,224.6,933.8)" />
<use xlink:href="#f2_1x" transform="matrix(12,0,0,12,237.5,933.8)" />
<use xlink:href="#f2_28" transform="matrix(12,0,0,12,245.9,933.8)" />
<use xlink:href="#f2_20" transform="matrix(12,0,0,12,250.3,933.8)" />
<use xlink:href="#f2_21" transform="matrix(12,0,0,12,259.8,933.8)" />
<use xlink:href="#f2_24" transform="matrix(12,0,0,12,268.2,933.8)" />
<use xlink:href="#f2_2l" transform="matrix(12,0,0,12,277.4,933.8)" />
<use xlink:href="#f2_20" transform="matrix(12,0,0,12,286.2,933.8)" />
<use xlink:href="#f2_21" transform="matrix(12,0,0,12,295.3,933.8)" />
<use xlink:href="#f2_c" transform="matrix(12,0,0,12,55,1080.1)" />
<use xlink:href="#f2_25" transform="matrix(12,0,0,12,61.6,1080.1)" />
<use xlink:href="#f2_25" transform="matrix(12,0,0,12,66.4,1080.1)" />
<use xlink:href="#f2_d" transform="matrix(12,0,0,12,70.8,1080.1)" />
<use xlink:href="#f2_11" transform="matrix(12,0,0,12,82.1,1080.1)" />
<use xlink:href="#f2_1z" transform="matrix(12,0,0,12,94.9,1080.1)" />
<use xlink:href="#f2_21" transform="matrix(12,0,0,12,103,1080.1)" />
<use xlink:href="#f2_2g" transform="matrix(12,0,0,12,111.1,1080.1)" />
<use xlink:href="#f2_2b" transform="matrix(12,0,0,12,116.6,1080.1)" />
<use xlink:href="#f2_2c" transform="matrix(12,0,0,12,126.1,1080.1)" />
<use xlink:href="#f2_24" transform="matrix(12,0,0,12,135.2,1080.1)" />
<use xlink:href="#f2_21" transform="matrix(12,0,0,12,144,1080.1)" />
<use xlink:href="#f2_2a" transform="matrix(12,0,0,12,152.1,1080.1)" />
<use xlink:href="#f2_2b" transform="matrix(12,0,0,12,160.9,1080.1)" />
<use xlink:href="#f2_2a" transform="matrix(12,0,0,12,170.4,1080.1)" />
<use xlink:href="#f2_21" transform="matrix(12,0,0,12,179.2,1080.1)" />
<use xlink:href="#f2_2g" transform="matrix(12,0,0,12,192,1080.1)" />
<use xlink:href="#f2_2b" transform="matrix(12,0,0,12,197.5,1080.1)" />
<use xlink:href="#f2_12" transform="matrix(12,0,0,12,211.4,1080.1)" />
<use xlink:href="#f2_21" transform="matrix(12,0,0,12,223.5,1080.1)" />
<use xlink:href="#f2_2a" transform="matrix(12,0,0,12,231.6,1080.1)" />
<use xlink:href="#f2_2m" transform="matrix(12,0,0,12,240.4,1080.1)" />
<use xlink:href="#f2_2b" transform="matrix(12,0,0,12,248.5,1080.1)" />
<use xlink:href="#f2_25" transform="matrix(12,0,0,12,258.4,1080.1)" />
<use xlink:href="#f2_1z" transform="matrix(12,0,0,12,262.8,1080.1)" />
<use xlink:href="#f2_1x" transform="matrix(12,0,0,12,275.6,1080.1)" />
<use xlink:href="#f2_1z" transform="matrix(12,0,0,12,283.6,1080.1)" />
<use xlink:href="#f2_25" transform="matrix(12,0,0,12,292.1,1080.1)" />
<use xlink:href="#f2_20" transform="matrix(12,0,0,12,296.8,1080.1)" />
</g>
<image preserveAspectRatio="none" x="55" y="175" width="391" height="158" xlink:href="img/6.png" />
<image preserveAspectRatio="none" x="55" y="699" width="458" height="110" xlink:href="img/7.png" />
<image preserveAspectRatio="none" x="55" y="836" width="444" height="52" xlink:href="img/8.png" />
<image preserveAspectRatio="none" x="55" y="940" width="406" height="118" xlink:href="img/9.png" />
<image preserveAspectRatio="none" x="55" y="1087" width="444" height="100" xlink:href="img/10.png" />
<path fill-rule="evenodd" d="M37.4,38.1h.7v-.7h-.7v.7Z" class="g2_30" />
<path fill-rule="evenodd" d="M37.4,38.1h.7v-.7h-.7v.7Z" class="g2_30" />
<path fill-rule="evenodd" d="M38.1,38.1H871.5v-.7H38.1v.7Z" class="g2_30" />
<path fill-rule="evenodd" d="M871.5,38.1h.8v-.7h-.8v.7Z" class="g2_30" />
<path fill-rule="evenodd" d="M871.5,38.1h.8v-.7h-.8v.7Z" class="g2_30" />
<path fill-rule="evenodd" d="M37.4,1248.5h.7V38.1h-.7V1248.5Z" class="g2_30" />
<path fill-rule="evenodd" d="M872.3,1248.5h.7V38.1h-.7V1248.5Z" class="g2_30" />
<path fill-rule="evenodd" d="M871.5,1248.5h.8V38.1h-.8V1248.5Z" class="g2_30" />
<path fill-rule="evenodd" d="M37.4,1249.2h.7v-.7h-.7v.7Z" class="g2_30" />
<path fill-rule="evenodd" d="M37.4,1249.2h.7v-.7h-.7v.7Z" class="g2_30" />
<path fill-rule="evenodd" d="M38.1,1249.9H871.5v-.7H38.1v.7Z" class="g2_30" />
<path fill-rule="evenodd" d="M38.1,1249.2H871.5v-.7H38.1v.7Z" class="g2_30" />
<path fill-rule="evenodd" d="M872.3,1249.9h.7v-1.4h-.7v1.4Z" class="g2_30" />
<path fill-rule="evenodd" d="M871.5,1249.9H873v-.7h-1.5v.7Z" class="g2_30" />
<path fill-rule="evenodd" d="M871.5,1249.2h.8v-.7h-.8v.7Z" class="g2_30" />
<path fill-rule="evenodd" d="M871.5,1249.2h.8v-.7h-.8v.7Z" class="g2_30" />
<defs>
<path d="M489,-15c0,0,-99,0,-179,30c0,0,-80,30,-136,91c0,0,-56,61,-85,152c0,0,-30,91,-30,212c0,0,0,123,32,218c0,0,33,96,92,161c0,0,59,65,142,98c0,0,82,34,181,34c0,0,40,0,78,-7c0,0,37,-7,69,-18c0,0,31,-11,57,-25c0,0,25,-14,35,-24c0,0,10,-10,14,-17c0,0,4,-7,6,-17c0,0,2,-11,3,-25c0,0,2,-14,2,-35c0,0,0,-22,-2,-38c0,0,-1,-15,-5,-25c0,0,-4,-10,-9,-14c0,0,-5,-5,-12,-5c0,0,-11,0,-28,13c0,0,-18,13,-45,29c0,0,-27,16,-65,29c0,0,-37,13,-89,13c0,0,-58,0,-103,-23c0,0,-45,-23,-77,-67c0,0,-31,-44,-48,-106c0,0,-16,-61,-16,-139c0,0,0,-85,17,-147c0,0,18,-62,50,-103c0,0,33,-40,79,-60c0,0,45,-19,103,-19c0,0,52,0,90,12c0,0,38,12,65,27c0,0,27,15,45,27c0,0,17,12,27,12c0,0,8,0,12,-3c0,0,4,-3,7,-12c0,0,3,-9,5,-25c0,0,1,-16,1,-43c0,0,0,-18,-1,-31c0,0,-1,-14,-3,-23c0,0,-2,-9,-6,-16c0,0,-4,-7,-12,-15c0,0,-8,-9,-32,-22c0,0,-23,-14,-57,-26C661,13,627,1,583,-6c0,0,-43,-9,-94,-9Z" 
id="f0_j"
transform="scale(0.001,-0.001)" />

<path d="M440,150c0,0,41,0,68,8c0,0,28,9,49,26c0,0,20,16,32,41c0,0,11,25,11,58c0,0,0,33,-11,60c0,0,-11,26,-33,44c0,0,-21,18,-55,28c0,0,-33,9,-87,9H298V150ZM407,567c0,0,42,0,68,10c0,0,25,10,42,28c0,0,16,17,24,41c0,0,9,24,9,50c0,0,0,29,-9,52c0,0,-9,23,-27,39c0,0,-18,15,-45,23c0,0,-27,8,-72,8H298V567ZM164,0c0,0,-25,0,-42,15c0,0,-16,14,-16,47V903c0,0,0,33,16,48c0,0,17,14,42,14H406c0,0,88,0,150,-15c0,0,61,-15,103,-45c0,0,42,-30,65,-77c0,0,22,-46,22,-108c0,0,0,-36,-9,-67c0,0,-9,-31,-26,-56c0,0,-17,-25,-42,-45c0,0,-25,-19,-57,-31c0,0,41,-7,76,-26c0,0,34,-19,60,-48c0,0,26,-30,41,-69c0,0,15,-40,15,-89c0,0,0,-51,-14,-93c0,0,-15,-42,-40,-74c0,0,-25,-32,-59,-55c0,0,-35,-23,-77,-38C614,29,573,14,525,7C525,7,478,0,420,0Z" 
id="f0_i"
transform="scale(0.001,-0.001)" />

<path d="M320,-17c0,0,-50,0,-93,9c0,0,-43,8,-76,19c0,0,-32,11,-54,24C97,35,75,48,65,58c0,0,-10,9,-14,28c0,0,-4,18,-4,52c0,0,0,23,1,39c0,0,2,15,5,25c0,0,4,10,9,14c0,0,6,4,13,4c0,0,11,0,30,-12c0,0,19,-13,49,-28c0,0,30,-15,71,-27c0,0,42,-12,96,-12c0,0,36,0,64,8c0,0,29,9,49,25c0,0,19,15,30,38c0,0,10,23,10,52c0,0,0,33,-18,56c0,0,-18,24,-46,42c0,0,-29,18,-66,34c0,0,-36,16,-75,34c0,0,-39,18,-76,41c0,0,-36,23,-65,54c0,0,-29,32,-47,75c0,0,-17,44,-17,104c0,0,0,70,25,122c0,0,26,53,70,88c0,0,43,34,103,51c0,0,59,18,125,18c0,0,35,0,69,-6c0,0,34,-5,64,-14c0,0,30,-9,53,-20c0,0,23,-11,31,-18c0,0,7,-8,10,-13c0,0,3,-5,4,-14c0,0,2,-8,3,-21c0,0,1,-13,1,-33c0,0,0,-21,-1,-36c0,0,-1,-15,-4,-25c0,0,-3,-9,-7,-14c0,0,-5,-4,-14,-4c0,0,-8,0,-26,10c0,0,-18,10,-44,23c0,0,-26,12,-60,22c0,0,-34,10,-75,10c0,0,-32,0,-56,-8c0,0,-24,-8,-40,-21c0,0,-16,-14,-24,-34c0,0,-8,-19,-8,-41c0,0,0,-32,18,-56c0,0,17,-23,46,-42c0,0,30,-18,67,-34c0,0,38,-16,76,-34c0,0,39,-18,76,-41c0,0,38,-22,67,-54c0,0,29,-32,47,-75c0,0,18,-43,18,-101c0,0,0,-76,-29,-133c0,0,-28,-58,-77,-96C572,60,524,21,459,2c0,0,-65,-19,-139,-19Z" 
id="f0_2n"
transform="scale(0.001,-0.001)" />

<path d="M164,0c0,0,-25,0,-42,15c0,0,-16,14,-16,47V903c0,0,0,33,16,48c0,0,17,14,42,14H645c0,0,7,0,12,-4c0,0,5,-3,9,-13c0,0,4,-9,6,-24c0,0,2,-14,2,-36c0,0,0,-21,-2,-36c0,0,-2,-14,-6,-23c0,0,-4,-9,-9,-13c0,0,-5,-4,-12,-4H301V576H593c0,0,6,0,12,-4c0,0,6,-4,9,-13c0,0,4,-8,6,-23c0,0,2,-14,2,-35c0,0,0,-22,-2,-36c0,0,-2,-14,-6,-23c0,0,-3,-8,-9,-12c0,0,-6,-4,-12,-4H301V154H649c0,0,6,0,12,-5c0,0,5,-4,9,-13c0,0,4,-9,6,-23c0,0,2,-15,2,-36c0,0,0,-22,-2,-36c0,0,-2,-15,-6,-24c0,0,-4,-9,-9,-13c0,0,-6,-4,-12,-4Z" 
id="f0_t"
transform="scale(0.001,-0.001)" />

<path d="M79,297c0,0,-19,0,-27,18c0,0,-8,17,-8,60c0,0,0,41,8,59c0,0,8,17,27,17H389c0,0,9,0,15,-4c0,0,7,-4,11,-13c0,0,5,-9,7,-23c0,0,1,-15,1,-36c0,0,0,-43,-8,-61c0,0,-8,-17,-26,-17Z" 
id="f0_oj"
transform="scale(0.001,-0.001)" />

<path d="M121,-4c0,0,-39,0,-60,2C61,-2,39,0,32,8c0,0,-8,8,-3,24c0,0,4,15,18,41L279,495L64,892c0,0,-14,26,-19,42c0,0,-5,17,4,24c0,0,9,8,32,10c0,0,23,2,65,2c0,0,35,0,56,-2c0,0,20,-1,32,-4c0,0,12,-4,17,-10c0,0,5,-6,9,-15L431,620L595,939c0,0,5,9,10,15c0,0,5,6,16,10c0,0,10,3,29,4c0,0,19,2,53,2c0,0,37,0,59,-2c0,0,22,-2,30,-10c0,0,8,-8,4,-24c0,0,-4,-16,-17,-42L564,497L793,73c0,0,14,-26,18,-41c0,0,4,-16,-5,-24c0,0,-9,-8,-32,-10c0,0,-24,-2,-65,-2c0,0,-36,0,-56,2c0,0,-20,1,-31,3c0,0,-12,4,-17,10c0,0,-5,6,-9,15L414,374L233,26c0,0,-4,-9,-9,-15c0,0,-6,-6,-17,-10c0,0,-12,-2,-32,-3c0,0,-21,-2,-54,-2Z" 
id="f0_3e"
transform="scale(0.001,-0.001)" />

<path d="M204,-4c0,0,-28,0,-47,2c0,0,-19,2,-31,5c0,0,-11,4,-16,10c0,0,-4,6,-4,13V939c0,0,0,7,4,13c0,0,5,6,17,10c0,0,11,3,30,6c0,0,19,2,47,2c0,0,29,0,48,-2c0,0,18,-3,29,-6c0,0,11,-4,16,-10c0,0,5,-6,5,-13V26c0,0,0,-7,-5,-13c0,0,-5,-6,-16,-10c0,0,-11,-3,-29,-5c0,0,-19,-2,-48,-2Z" 
id="f0_1c"
transform="scale(0.001,-0.001)" />

<path d="M127,0c0,0,-16,0,-28,3C99,3,87,6,80,15c0,0,-8,8,-11,25c0,0,-3,16,-3,42c0,0,0,25,2,42c0,0,2,18,8,32c0,0,6,14,15,27c0,0,9,13,24,29L282,390c0,0,50,53,81,95c0,0,30,43,47,79c0,0,17,35,24,65c0,0,6,30,6,57c0,0,0,24,-8,46c0,0,-8,22,-23,39c0,0,-15,16,-38,25c0,0,-23,10,-55,10c0,0,-44,0,-78,-12c0,0,-33,-11,-59,-25c0,0,-26,-13,-43,-25c0,0,-17,-12,-27,-12c0,0,-7,0,-11,5c0,0,-5,4,-8,15c0,0,-3,10,-5,28c0,0,-2,17,-2,42c0,0,0,18,1,29c0,0,1,12,4,20c0,0,2,9,6,15c0,0,3,6,13,15c0,0,9,9,34,23c0,0,25,14,61,27c0,0,37,14,81,23c0,0,44,9,92,9c0,0,75,0,131,-19c0,0,57,-19,94,-53c0,0,37,-34,55,-81c0,0,19,-47,19,-100c0,0,0,-47,-9,-93c0,0,-9,-45,-37,-98c0,0,-29,-52,-80,-116c0,0,-52,-64,-136,-148L299,159H679c0,0,8,0,14,-4c0,0,6,-5,11,-14c0,0,4,-9,7,-25c0,0,2,-15,2,-36c0,0,0,-22,-2,-37c0,0,-2,-15,-6,-25c0,0,-3,-10,-9,-14c0,0,-6,-4,-14,-4Z" 
id="f0_rz"
transform="scale(0.001,-0.001)" />

<path d="M385,138c0,0,29,0,52,9c0,0,22,10,39,28c0,0,17,19,28,47c0,0,11,29,19,66c0,0,7,37,9,84c0,0,3,47,3,104c0,0,0,69,-4,122c0,0,-4,52,-11,91c0,0,-8,39,-20,66c0,0,-12,27,-28,43c0,0,-16,16,-37,22c0,0,-21,7,-47,7c0,0,-44,0,-73,-21c0,0,-28,-21,-45,-64c0,0,-17,-42,-24,-106c0,0,-6,-63,-6,-148c0,0,0,-103,8,-171c0,0,8,-67,26,-107c0,0,17,-40,45,-56c0,0,27,-16,66,-16ZM378,-17c0,0,-99,0,-164,33c0,0,-65,34,-103,98c0,0,-38,64,-54,156c0,0,-15,92,-15,209c0,0,0,115,19,208c0,0,19,94,61,160c0,0,42,65,110,101c0,0,68,35,165,35c0,0,99,0,164,-34c0,0,65,-34,103,-98c0,0,39,-64,53,-156c0,0,15,-92,15,-209c0,0,0,-115,-18,-209c0,0,-19,-93,-61,-159C653,118,611,53,543,17c0,0,-67,-34,-165,-34Z" 
id="f0_rx"
transform="scale(0.001,-0.001)" />

<path d="M142,0c0,0,-6,0,-12,4c0,0,-5,3,-9,12c0,0,-4,9,-6,23c0,0,-3,15,-3,36c0,0,0,21,2,36c0,0,2,14,6,23c0,0,4,9,10,13c0,0,5,5,12,5H322V779L166,693c0,0,-17,-8,-28,-10c0,0,-1,0,-3,0c-4,0,-10,1,-14,5c0,0,-6,6,-8,22c0,0,-2,15,-2,44c0,0,0,18,0,29c0,0,1,12,4,20c0,0,3,8,8,14c0,0,5,5,14,11L345,962c0,0,4,3,9,5c0,0,6,2,15,3c0,0,9,1,23,2c0,0,15,0,38,0c0,0,28,0,46,-1c0,0,17,-1,26,-4c0,0,9,-3,12,-7c0,0,3,-4,3,-11V152H675c0,0,7,0,12,-5c0,0,6,-4,10,-13c0,0,4,-9,6,-23c0,0,2,-15,2,-36c0,0,0,-21,-2,-36c0,0,-3,-14,-7,-23c0,0,-4,-9,-9,-12c0,0,-5,-4,-12,-4Z" 
id="f0_ry"
transform="scale(0.001,-0.001)" />

<path d="M259,-4c0,0,-39,0,-62,3c0,0,-23,1,-34,7c0,0,-11,6,-12,14c0,0,-1,9,5,21L498,796H92c0,0,-16,0,-24,20c0,0,-7,21,-7,65c0,0,0,22,2,38c0,0,2,16,6,27c0,0,4,10,10,15c0,0,6,4,13,4H666c0,0,13,0,22,-3c0,0,9,-2,14,-11c0,0,6,-9,8,-25c0,0,3,-17,3,-43c0,0,0,-22,-2,-38c0,0,-1,-16,-4,-30c0,0,-2,-13,-7,-26c0,0,-4,-12,-10,-26L372,26c0,0,-5,-10,-12,-16c0,0,-7,-6,-20,-9c0,0,-12,-3,-32,-4c0,0,-20,-1,-49,-1Z" 
id="f0_s4"
transform="scale(0.001,-0.001)" />

<path d="M589,371L453,782h-1L317,371ZM106,-4c0,0,-35,0,-54,2C52,-2,32,0,25,8c0,0,-7,9,-5,24c0,0,2,16,11,42L329,931c0,0,4,13,10,21c0,0,6,7,19,12c0,0,13,4,36,5c0,0,23,1,61,1c0,0,44,0,71,-1c0,0,26,-1,40,-5c0,0,15,-5,21,-13c0,0,6,-8,11,-22L896,73c0,0,9,-27,11,-43c0,0,3,-15,-6,-23c0,0,-8,-7,-29,-9c0,0,-21,-2,-57,-2c0,0,-38,0,-59,1c0,0,-22,1,-33,4c0,0,-11,3,-16,9c0,0,-4,6,-7,16L635,220H272L211,31c0,0,-2,-11,-7,-18c0,0,-5,-7,-16,-11c0,0,-11,-3,-31,-4c0,0,-19,-2,-51,-2Z" 
id="f0_5"
transform="scale(0.001,-0.001)" />

<path d="M198,-4c0,0,-27,0,-45,2c0,0,-18,2,-28,5c0,0,-11,4,-15,10c0,0,-4,6,-4,13V887c0,0,0,38,20,58c0,0,20,20,53,20H308c0,0,34,0,59,-6c0,0,24,-5,42,-18c0,0,18,-13,30,-35c0,0,12,-21,21,-52L669,279h3L889,852c0,0,9,32,21,53c0,0,11,22,27,35c0,0,15,14,36,19c0,0,21,6,48,6h132c0,0,21,0,35,-5c0,0,15,-5,24,-15c0,0,9,-11,14,-25c0,0,5,-15,5,-33V26c0,0,0,-7,-4,-13c0,0,-4,-6,-15,-10c0,0,-11,-3,-29,-5c0,0,-18,-2,-45,-2c0,0,-27,0,-45,2c0,0,-18,2,-28,5c0,0,-11,4,-15,10c0,0,-5,6,-5,13V813h-1L764,27c0,0,-3,-10,-10,-16c0,0,-6,-6,-18,-10c0,0,-12,-3,-29,-4c0,0,-18,-1,-44,-1c0,0,-25,0,-43,2c0,0,-18,2,-29,5c0,0,-12,4,-19,10c0,0,-6,6,-9,14L293,813h-2V26c0,0,0,-7,-4,-13c0,0,-4,-6,-15,-10c0,0,-11,-3,-29,-5c0,0,-17,-2,-45,-2Z" 
id="f0_1x"
transform="scale(0.001,-0.001)" />

<path d="M193,-4c0,0,-26,0,-43,2c0,0,-18,2,-27,6c0,0,-10,4,-14,10c0,0,-3,6,-3,13V895c0,0,0,35,20,53c0,0,21,17,50,17H282c0,0,28,0,47,-5c0,0,20,-5,35,-16c0,0,15,-11,29,-31c0,0,13,-20,27,-49L608,511c0,0,17,-32,33,-63c0,0,16,-31,31,-62c0,0,14,-31,29,-60c0,0,14,-30,27,-60h1c0,0,-2,52,-3,109c0,0,-1,57,-1,108V936c0,0,0,7,4,13c0,0,5,6,15,11c0,0,10,4,28,6c0,0,17,2,44,2c0,0,25,0,42,-2c0,0,17,-2,27,-6c0,0,9,-5,13,-11c0,0,4,-6,4,-13V68c0,0,0,-17,-6,-30c0,0,-6,-14,-17,-23C879,15,869,6,856,2c0,0,-14,-3,-28,-3H744c0,0,-26,0,-45,4c0,0,-19,5,-35,19c0,0,-16,14,-31,38c0,0,-15,23,-34,60L359,572c0,0,-21,40,-43,86c0,0,-21,47,-38,91h-2c0,0,3,-54,5,-107c0,0,2,-53,2,-110V27c0,0,0,-7,-5,-13c0,0,-4,-6,-14,-10c0,0,-10,-4,-27,-6c0,0,-17,-2,-44,-2Z" 
id="f0_1y"
transform="scale(0.001,-0.001)" />

<path d="M378,-4c0,0,-28,0,-47,2c0,0,-19,2,-31,5c0,0,-11,4,-16,10c0,0,-4,6,-4,13V805H38c0,0,-8,0,-13,4c0,0,-5,5,-9,14c0,0,-3,9,-5,25c0,0,-2,15,-2,37c0,0,0,22,2,38c0,0,2,15,5,25c0,0,4,9,9,13c0,0,5,4,13,4H718c0,0,7,0,12,-4c0,0,6,-4,10,-13c0,0,3,-10,5,-25c0,0,2,-16,2,-38c0,0,0,-22,-2,-37c0,0,-2,-16,-5,-25c0,0,-4,-9,-10,-14c0,0,-5,-4,-12,-4H476V26c0,0,0,-7,-5,-13c0,0,-5,-6,-16,-10c0,0,-11,-3,-30,-5c0,0,-19,-2,-47,-2Z" 
id="f0_2t"
transform="scale(0.001,-0.001)" />

<path d="M514,145c0,0,72,0,121,27c0,0,48,26,78,73c0,0,30,46,42,107c0,0,13,62,13,131c0,0,0,76,-12,139c0,0,-12,62,-41,106c0,0,-29,45,-76,69c0,0,-48,24,-120,24c0,0,-72,0,-120,-27c0,0,-49,-27,-79,-73c0,0,-29,-45,-42,-106c0,0,-12,-61,-12,-129c0,0,0,-79,12,-142c0,0,12,-63,40,-108c0,0,28,-44,76,-68c0,0,48,-23,120,-23ZM508,-17c0,0,-113,0,-196,29c0,0,-84,29,-140,90c0,0,-56,60,-84,154c0,0,-28,93,-28,221c0,0,0,117,29,210c0,0,30,94,89,160c0,0,59,65,146,101c0,0,87,35,202,35c0,0,110,0,194,-29c0,0,84,-30,140,-90c0,0,56,-60,85,-153c0,0,29,-92,29,-217c0,0,0,-120,-30,-215c0,0,-30,-95,-89,-161C855,118,796,52,709,17c0,0,-87,-34,-201,-34Z" 
id="f0_24"
transform="scale(0.001,-0.001)" />

<path d="M299,0V777H162l36,173H508V0Z" 
id="f1_l"
transform="scale(0.001,-0.001)" />

<path d="M404,-11c0,0,-136,0,-225,76c0,0,-90,78,-111,215H265c0,0,35,-136,135,-136c0,0,50,0,85,35c0,0,34,36,34,88c0,0,0,64,-41,105c0,0,-42,41,-107,41H336V573h21c0,0,68,0,109,33c0,0,41,34,41,89c0,0,0,50,-32,85c0,0,-32,35,-79,35c0,0,-110,0,-127,-135H76c0,0,9,130,96,209c0,0,87,79,208,79c0,0,134,0,227,-76c0,0,94,-75,94,-182c0,0,0,-116,-115,-210c0,0,73,-46,107,-96c0,0,34,-51,34,-121c0,0,0,-134,-88,-214c0,0,-89,-80,-235,-80Z" 
id="f1_n"
transform="scale(0.001,-0.001)" />

<path d="M44,-281L425,1053H537L156,-281Z" 
id="f1_j"
transform="scale(0.001,-0.001)" />

<path d="M441,402V711h-3L193,402ZM441,0V227H19V404L457,952H650V402h90V227H650V0Z" 
id="f1_o"
transform="scale(0.001,-0.001)" />

<path d="M460,-325c0,0,-148,79,-231,172c0,0,-84,93,-123,217c0,0,-39,126,-39,304c0,0,0,178,39,303c0,0,39,125,122,217c0,0,82,93,232,172V997c0,0,-91,-52,-145,-134c0,0,-54,-81,-79,-190c0,0,-25,-109,-25,-305c0,0,0,-194,26,-309c0,0,26,-114,82,-193c0,0,56,-79,141,-128v-63Z" 
id="f2_c"
transform="scale(0.001,-0.001)" />

<path d="M32,0V33L151,52V649L52,668v33H275V52L395,33V0ZM201,850c0,0,-32,0,-56,24c0,0,-24,24,-24,56c0,0,0,34,24,58c0,0,24,24,56,24c0,0,34,0,58,-24c0,0,24,-24,24,-58c0,0,0,-32,-24,-56c0,0,-24,-24,-58,-24Z" 
id="f2_25"
transform="scale(0.001,-0.001)" />

<path d="M49,-325v63c0,0,85,49,140,128c0,0,56,79,83,194c0,0,26,115,26,308c0,0,0,196,-25,305c0,0,-25,109,-79,190c0,0,-54,82,-145,134v63c0,0,149,-80,232,-172c0,0,83,-92,122,-217c0,0,39,-125,39,-303c0,0,0,-177,-39,-303c0,0,-39,-125,-122,-217c0,0,-83,-93,-232,-173Z" 
id="f2_d"
transform="scale(0.001,-0.001)" />

<path d="M44,0V40L172,60V941L44,960v40H794V760H745L721,922c0,0,-83,11,-241,11H316V543H586l23,119h48V354H609L586,475H316V67H513c0,0,193,0,252,12l43,185h49L843,0Z" 
id="f2_15"
transform="scale(0.001,-0.001)" />

<path d="M249,-14c0,0,-71,0,-107,42c0,0,-35,42,-35,119V639H15v33l93,29l76,159h47V701H391V639H231V161c0,0,0,-48,22,-73c0,0,22,-24,57,-24c0,0,44,0,106,12V26C416,26,389,8,340,-2c0,0,-49,-12,-91,-12Z" 
id="f2_2g"
transform="scale(0.001,-0.001)" />

<path d="M442,0V33l93,19V504c0,0,0,129,-124,129c0,0,-70,0,-168,-22V52L338,33V0H31V33l88,19v956L15,1026v34H243V756c0,0,0,-77,-5,-112c0,0,54,31,122,53c0,0,68,23,115,23c0,0,91,0,137,-53c0,0,47,-53,47,-154V52L744,33V0Z" 
id="f2_24"
transform="scale(0.001,-0.001)" />

<path d="M284,67c0,0,51,0,88,12c0,0,37,12,74,30V358l-98,-3c0,0,-100,-4,-135,-39c0,0,-35,-35,-35,-117c0,0,0,-132,106,-132ZM233,-14c0,0,-179,0,-179,208c0,0,0,70,27,116c0,0,27,46,87,70c0,0,60,24,173,27l105,3V519c0,0,0,72,-26,107c0,0,-27,34,-82,34c0,0,-75,0,-137,-35L176,538H134V691c0,0,121,26,213,26c0,0,115,0,169,-47c0,0,54,-47,54,-144V52L657,33V0H465L451,70c0,0,-85,-84,-218,-84Z" 
id="f2_1x"
transform="scale(0.001,-0.001)" />

<path d="M439,0V33l93,19V500c0,0,0,62,-30,97c0,0,-31,36,-94,36c0,0,-67,0,-165,-22V52L338,33V0H35V33l84,19V649L35,668v33H235l7,-57c0,0,57,33,122,54c0,0,65,22,108,22c0,0,91,0,137,-53c0,0,47,-53,47,-154V52L741,33V0Z" 
id="f2_2a"
transform="scale(0.001,-0.001)" />

<path d="M377,45c0,0,99,0,147,73c0,0,47,73,47,237c0,0,0,161,-47,233c0,0,-47,72,-147,72c0,0,-97,0,-141,-69c0,0,-44,-69,-44,-236c0,0,0,-169,45,-240c0,0,44,-70,140,-70Zm0,-59c0,0,-158,0,-238,94c0,0,-81,95,-81,274c0,0,0,178,81,272c0,0,80,94,244,94c0,0,160,0,241,-92c0,0,82,-92,82,-274c0,0,0,-368,-329,-368Z" 
id="f2_2b"
transform="scale(0.001,-0.001)" />

<path d="M399,-14c0,0,-341,0,-341,370c0,0,0,175,87,269c0,0,87,95,249,95c0,0,101,0,220,-23V501H573L541,625c0,0,-62,35,-149,35c0,0,-200,0,-200,-304c0,0,0,-158,61,-225c0,0,61,-67,189,-67c0,0,109,0,189,24V43C631,43,595,16,530,1c0,0,-64,-15,-131,-15Z" 
id="f2_1z"
transform="scale(0.001,-0.001)" />

<path d="M383,64c0,0,85,0,152,28V645c0,0,-67,13,-152,13c0,0,-194,0,-194,-314c0,0,0,-141,48,-211c0,0,48,-69,146,-69ZM342,-14c0,0,-287,0,-287,358c0,0,0,184,82,280c0,0,81,96,239,96c0,0,81,0,163,-18c0,0,-4,25,-4,124v182l-118,18v34H659V52L745,33V0H548l-9,52c0,0,-84,-66,-197,-66Z" 
id="f2_20"
transform="scale(0.001,-0.001)" />

<path d="M67,0V109L206,235c0,0,133,118,196,190c0,0,63,72,90,149c0,0,27,77,27,177c0,0,0,97,-44,148c0,0,-44,50,-144,50c0,0,-39,0,-81,-10c0,0,-42,-11,-74,-29L150,787H101V980c0,0,135,32,230,32c0,0,164,0,247,-68c0,0,82,-69,82,-193c0,0,0,-84,-32,-158c0,0,-33,-75,-100,-148c0,0,-67,-74,-222,-206c0,0,-67,-57,-141,-125H680V0Z" 
id="f2_m"
transform="scale(0.001,-0.001)" />

<path d="M57,302V417H454V302Z" 
id="f2_h"
transform="scale(0.001,-0.001)" />

<path d="M44,0V40L172,60V941L44,960v40H445V960L316,941V549H787V941L659,960v40h400V960L930,941V60L1059,40V0H659V40L787,60V481H316V60L445,40V0Z" 
id="f2_18"
transform="scale(0.001,-0.001)" />

<path d="M148,-329c0,0,-58,0,-114,13v151H69l24,-71c0,0,23,-17,64,-17c0,0,39,0,72,22c0,0,33,23,60,67c0,0,27,44,68,157L90,649L19,668v33H344V668L233,648L423,158L606,649L497,668v33H758V668L685,652L411,-43c0,0,-48,-124,-84,-177c0,0,-36,-54,-79,-82c0,0,-44,-27,-100,-27Z" 
id="f2_2l"
transform="scale(0.001,-0.001)" />

<path d="M31,0V33l88,19V649L31,668v33H235l7,-87c0,0,44,37,121,71c0,0,76,35,121,35h11V530H463l-43,82c0,0,-37,0,-88,-10c0,0,-52,-10,-89,-26V52L363,33V0Z" 
id="f2_2e"
transform="scale(0.001,-0.001)" />

<path d="M13,0V34L95,46L325,350L122,649L40,668v33H357V668L264,648L399,446L554,649l-96,19v33H710V668L630,652L433,397L663,50L745,34V0H427V34l94,17L359,299L169,50L266,34V0Z" 
id="f2_2k"
transform="scale(0.001,-0.001)" />

<path d="M495,413c0,0,0,133,-34,190c0,0,-34,57,-105,57c0,0,-78,0,-119,-63c0,0,-42,-62,-42,-184ZM374,-14c0,0,-163,0,-239,87c0,0,-75,88,-75,283c0,0,0,183,77,273c0,0,76,91,219,91c0,0,269,0,269,-306V353H194V340c0,0,0,-103,23,-160c0,0,22,-57,70,-87c0,0,47,-29,124,-29c0,0,40,0,96,6c0,0,55,7,91,15V43C598,43,562,20,500,3c0,0,-61,-17,-126,-17Z" 
id="f2_21"
transform="scale(0.001,-0.001)" />

<path d="M410,-14c0,0,-86,0,-175,14C235,0,145,14,81,38V307h66L181,146c0,0,31,-37,94,-62c0,0,64,-24,132,-24c0,0,214,0,214,177c0,0,0,55,-41,93c0,0,-41,38,-128,68c0,0,-128,42,-185,68c0,0,-56,27,-95,63c0,0,-38,36,-62,87c0,0,-23,51,-23,125c0,0,0,132,90,201c0,0,90,69,263,69c0,0,125,0,278,-32V741H651L618,878c0,0,-76,56,-178,56c0,0,-92,0,-141,-34c0,0,-49,-34,-49,-104c0,0,0,-50,41,-86c0,0,41,-35,128,-63c0,0,171,-56,235,-97c0,0,64,-41,97,-103c0,0,34,-61,34,-143c0,0,0,-318,-375,-318Z" 
id="f3_1j"
transform="scale(0.001,-0.001)" />

<path d="M379,60c0,0,59,0,84,64c0,0,24,65,24,231c0,0,0,164,-24,227c0,0,-24,63,-84,63c0,0,-57,0,-80,-60c0,0,-22,-61,-22,-230c0,0,0,-173,23,-234c0,0,22,-61,79,-61Zm-2,-74c0,0,-161,0,-240,91c0,0,-79,91,-79,277c0,0,0,186,80,276c0,0,81,90,245,90c0,0,167,0,245,-93c0,0,78,-93,78,-273c0,0,0,-188,-81,-278c0,0,-81,-90,-248,-90Z" 
id="f3_2b"
transform="scale(0.001,-0.001)" />

<path d="M30,0V49l76,18V992l-72,18v50H322V67L398,49V0Z" 
id="f3_28"
transform="scale(0.001,-0.001)" />

<path d="M287,-18c0,0,-194,0,-194,206V634L23,652v49H309V217c0,0,0,-63,26,-98c0,0,27,-35,76,-35c0,0,57,0,113,25V634l-64,18v49H740V67L809,49V0H536L526,61L475,35c0,0,-104,-53,-188,-53Z" 
id="f3_2h"
transform="scale(0.001,-0.001)" />

<path d="M327,-14c0,0,-101,0,-156,45c0,0,-55,45,-55,131V624H25v48l108,29l87,159H332V701H480V624H332V176c0,0,0,-49,20,-73c0,0,20,-25,53,-25c0,0,40,0,97,12V26c0,0,-22,-15,-76,-27c0,0,-55,-13,-99,-13Z" 
id="f3_2g"
transform="scale(0.001,-0.001)" />

<path d="M34,0V49l76,18V634L38,652v49H325V67L402,49V0ZM217,831c0,0,-48,0,-81,33c0,0,-34,33,-34,82c0,0,0,48,34,81c0,0,34,33,81,33c0,0,48,0,81,-33c0,0,33,-33,33,-81c0,0,0,-47,-33,-81c0,0,-32,-34,-81,-34Z" 
id="f3_25"
transform="scale(0.001,-0.001)" />

<path d="M41,0V49l69,18V634L41,652v49H313l11,-61l50,26c0,0,105,54,188,54c0,0,194,0,194,-207V67L827,49V0H478V49l63,18V484c0,0,0,63,-27,98c0,0,-26,35,-75,35c0,0,-57,0,-114,-25V67L389,49V0Z" 
id="f3_2a"
transform="scale(0.001,-0.001)" />

<path d="M248,-20c0,0,-52,0,-87,34c0,0,-36,36,-36,88c0,0,0,52,36,88c0,0,35,36,87,36c0,0,52,0,88,-36c0,0,36,-36,36,-88c0,0,0,-51,-36,-87c0,0,-35,-35,-88,-35Zm0,488c0,0,-52,0,-87,36c0,0,-36,36,-36,88c0,0,0,52,35,88c0,0,35,36,88,36c0,0,53,0,89,-36c0,0,35,-37,35,-88c0,0,0,-51,-36,-87c0,0,-35,-37,-88,-37Z" 
id="f3_u"
transform="scale(0.001,-0.001)" />

<path d="M394,460c0,0,126,0,186,57c0,0,60,57,60,187c0,0,0,123,-57,176c0,0,-58,53,-194,53H316V460ZM54,0V40L172,60V941L44,960v40H421c0,0,368,0,368,-295c0,0,0,-153,-93,-233c0,0,-93,-80,-267,-80H316V60L475,40V0Z" 
id="f2_1g"
transform="scale(0.001,-0.001)" />

<path d="M289,-14c0,0,-179,0,-179,205V649L20,668v33H233V200c0,0,0,-128,120,-128c0,0,92,0,173,23V649L420,668v33H649V52L738,33V0H533l-6,57C527,57,474,28,405,7c0,0,-69,-21,-116,-21Z" 
id="f2_2h"
transform="scale(0.001,-0.001)" />

<path d="M64,0V34L168,59V639H47v36l121,29v49c0,0,0,155,61,239c0,0,62,84,173,84c0,0,58,0,107,-15V908H472l-33,92c0,0,-26,16,-62,16c0,0,-47,0,-66,-42c0,0,-19,-42,-19,-157V701H478V639H292V59L443,34V0Z" 
id="f2_22"
transform="scale(0.001,-0.001)" />

<path d="M31,0V33L150,52v956L31,1026v34H274V52L394,33V0Z" 
id="f2_28"
transform="scale(0.001,-0.001)" />

<path d="M327,-14L84,649L1,668v33H335V668L219,648L385,174L554,632h63L786,171L944,649L830,668v33h267V668l-78,-16L784,-14H726L553,448L382,-14Z" 
id="f2_2j"
transform="scale(0.001,-0.001)" />

<path d="M359,-270c0,0,124,0,192,46c0,0,67,47,67,129c0,0,0,43,-26,67c0,0,-26,24,-79,24H242c0,0,-32,-27,-51,-69c0,0,-20,-41,-20,-77c0,0,0,-64,46,-92c0,0,46,-28,142,-28Zm11,561c0,0,81,0,115,47c0,0,34,47,34,141c0,0,0,100,-35,142c0,0,-35,42,-113,42c0,0,-78,0,-114,-43c0,0,-37,-42,-37,-141c0,0,0,-98,36,-143c0,0,36,-45,114,-45ZM359,-329c0,0,-143,0,-218,44c0,0,-75,43,-75,125c0,0,0,39,27,78c0,0,26,38,98,89c0,0,-43,14,-72,48c0,0,-29,35,-29,74L208,262c0,0,-118,55,-118,217c0,0,0,115,73,178c0,0,73,63,211,63c0,0,28,0,71,-6c0,0,44,-6,67,-13l165,83l26,-32L599,644c0,0,50,-56,50,-165c0,0,0,-120,-72,-182c0,0,-73,-62,-208,-62c0,0,-62,0,-114,11L208,148c0,0,2,-13,29,-24c0,0,27,-12,67,-12H512c0,0,113,0,168,-49c0,0,55,-49,55,-134c0,0,0,-79,-44,-137c0,0,-43,-58,-128,-90c0,0,-84,-31,-204,-31Z" 
id="f2_23"
transform="scale(0.001,-0.001)" />

<path d="M278,-14c0,0,-52,0,-115,11c0,0,-63,10,-99,23V193H98L134,95c0,0,56,-50,146,-50c0,0,144,0,144,123c0,0,0,91,-114,130l-66,21c0,0,-75,25,-110,50c0,0,-34,26,-53,63c0,0,-18,36,-18,89c0,0,0,92,63,145c0,0,63,54,170,54c0,0,77,0,193,-23V544H454l-32,81c0,0,-39,35,-124,35c0,0,-61,0,-92,-30c0,0,-32,-30,-32,-80c0,0,0,-43,29,-72c0,0,28,-29,86,-48c0,0,110,-38,144,-55c0,0,33,-17,57,-42c0,0,23,-25,36,-57c0,0,13,-32,13,-79c0,0,0,-104,-66,-158c0,0,-66,-53,-195,-53Z" 
id="f2_2f"
transform="scale(0.001,-0.001)" />

<path d="M211,-20c0,0,-39,0,-64,25c0,0,-26,27,-26,64c0,0,0,38,26,64c0,0,26,26,64,26c0,0,37,0,64,-25c0,0,26,-26,26,-65c0,0,0,-37,-26,-64c0,0,-26,-25,-64,-25Zm0,556c0,0,-38,0,-64,26c0,0,-26,26,-26,64c0,0,0,37,26,64c0,0,25,27,64,27c0,0,38,0,64,-27c0,0,26,-27,26,-64c0,0,0,-38,-26,-64c0,0,-27,-26,-64,-26Z" 
id="f2_u"
transform="scale(0.001,-0.001)" />

<path d="M376,50c0,0,103,0,149,80c0,0,46,81,46,240c0,0,0,137,-47,204c0,0,-48,67,-148,67c0,0,-44,0,-87,-7c0,0,-44,-8,-63,-17V62c0,0,63,-12,150,-12Zm3,-64c0,0,-64,0,-141,14c0,0,-78,14,-136,37v971L0,1026v34H226V809c0,0,0,-40,-4,-148c0,0,74,59,188,59c0,0,143,0,219,-87c0,0,77,-87,77,-263c0,0,0,-189,-84,-287c0,0,-84,-97,-243,-97Z" 
id="f2_1y"
transform="scale(0.001,-0.001)" />

<path d="M235,0V40L394,60V936H356c0,0,-189,0,-258,-15L78,766H28v234H908V766H857L837,921c0,0,-22,5,-98,9c0,0,-75,4,-165,4H538V60L697,40V0Z" 
id="f2_1k"
transform="scale(0.001,-0.001)" />

<path d="M431,0V33L535,52V499c0,0,0,62,-32,96c0,0,-32,33,-95,33c0,0,-66,0,-163,-22V52L350,33V0H32V33l89,19V649L32,668v33H237l6,-57c0,0,56,32,119,54c0,0,62,22,110,22c0,0,52,0,95,-20c0,0,44,-19,66,-62c0,0,57,32,134,57c0,0,77,25,128,25c0,0,179,0,179,-207V52l90,-19V0H846V33L950,52V499c0,0,0,129,-119,129c0,0,-19,0,-45,-3c0,0,-26,-3,-52,-7c0,0,-25,-4,-49,-8c0,0,-23,-5,-39,-8c0,0,13,-41,13,-89V52L764,33V0Z" 
id="f2_29"
transform="scale(0.001,-0.001)" />

<path d="M382,45c0,0,188,0,188,314c0,0,0,143,-47,213c0,0,-46,69,-141,69c0,0,-87,0,-146,-24V58c0,0,67,-13,146,-13ZM25,-325v35l88,18V649L34,668v33H231l1,-41c0,0,31,27,84,43c0,0,53,17,107,17c0,0,134,0,208,-94c0,0,73,-93,73,-267c0,0,0,-178,-80,-276c0,0,-80,-97,-232,-97c0,0,-84,0,-160,16c0,0,4,-53,4,-84V-272l123,-18v-35Z" 
id="f2_2c"
transform="scale(0.001,-0.001)" />

<path d="M536,63c0,0,127,0,191,54c0,0,63,54,63,168c0,0,0,105,-70,154c0,0,-70,49,-225,49H316V67c0,0,103,-4,220,-4ZM480,555c0,0,121,0,178,48c0,0,57,48,57,155c0,0,0,91,-58,133c0,0,-57,42,-186,42H316V555ZM554,-4L235,0H44V40L172,60V941L44,960v40H501c0,0,191,0,279,-56c0,0,88,-56,88,-179c0,0,0,-88,-55,-149c0,0,-54,-62,-151,-83c0,0,135,-14,209,-79c0,0,73,-65,73,-166c0,0,0,-144,-99,-219C845,69,745,-4,554,-4Z" 
id="f2_12"
transform="scale(0.001,-0.001)" />

<path d="M110,641L64,1000H211L165,641Z" 
id="f2_b"
transform="scale(0.001,-0.001)" />

<path d="M350,-14c0,0,-142,0,-269,31L73,228h49L156,87c0,0,29,-16,82,-28c0,0,54,-12,100,-12c0,0,117,0,173,54c0,0,56,53,56,178c0,0,0,99,-52,150c0,0,-51,51,-159,56l-107,6v61l107,7c0,0,84,5,124,52c0,0,41,48,41,145c0,0,0,101,-44,147c0,0,-44,45,-139,45c0,0,-40,0,-83,-10c0,0,-43,-11,-76,-29L153,786H104V979c0,0,74,19,127,26c0,0,54,6,107,6c0,0,321,0,321,-246c0,0,0,-104,-57,-165c0,0,-57,-62,-162,-77c0,0,136,-16,200,-78c0,0,64,-62,64,-173c0,0,0,-135,-92,-211c0,0,-93,-75,-262,-75Z" 
id="f2_n"
transform="scale(0.001,-0.001)" />

<path d="M360,-14L72,649L0,668v33H327V668L216,648L420,164L615,649L504,668v33H764V668L697,652L416,-14Z" 
id="f2_2i"
transform="scale(0.001,-0.001)" />

<path d="M448,506c0,0,134,0,190,49c0,0,57,50,57,168c0,0,0,114,-56,162c0,0,-56,48,-195,48H316V506ZM777,0L496,438H316V60L468,40V0H54V40L172,60V941L44,960v40H476c0,0,188,0,277,-63c0,0,90,-64,90,-204c0,0,0,-100,-54,-173c0,0,-55,-73,-151,-101L909,60L1017,40V0Z" 
id="f2_1i"
transform="scale(0.001,-0.001)" />

<path d="M325,440l32,245L122,539L75,646l244,74L75,794l47,107L357,756l-32,244H442L407,756L643,898L691,793L443,720L691,647L643,542L407,682L442,440Z" 
id="f2_e"
transform="scale(0.001,-0.001)" />

<path d="M577,-14c0,0,-243,0,-379,132C198,118,63,250,63,488c0,0,0,258,130,391c0,0,131,132,387,132c0,0,156,0,335,-38l5,-218H871L848,884c0,0,-52,32,-121,50c0,0,-69,17,-141,17c0,0,-191,0,-279,-112c0,0,-88,-113,-88,-349c0,0,0,-217,92,-332c0,0,92,-115,268,-115c0,0,85,0,160,20c0,0,76,21,120,55l27,149h49L930,32c0,0,-164,-46,-353,-46Z" 
id="f2_13"
transform="scale(0.001,-0.001)" />

<path d="M551,45c0,0,171,0,252,108c0,0,82,108,82,349c0,0,0,239,-81,344c0,0,-81,105,-253,105c0,0,-172,0,-252,-105c0,0,-80,-105,-80,-344c0,0,0,-241,80,-349c0,0,81,-108,252,-108Zm0,-59c0,0,-238,0,-363,129C188,115,63,245,63,501c0,0,0,510,488,510c0,0,242,0,366,-129c0,0,124,-130,124,-381c0,0,0,-255,-126,-385C915,116,790,-14,551,-14Z" 
id="f2_1f"
transform="scale(0.001,-0.001)" />

<path d="M113,-203V1060H454v-35L232,994V-138l222,-30v-35Z" 
id="f2_1r"
transform="scale(0.001,-0.001)" />

<path d="M681,416L504,902L333,416ZM669,0V40L803,60L704,348H310L210,60L344,40V0H15V40L128,60l341,949H611L965,60L1092,40V0Z" 
id="f2_11"
transform="scale(0.001,-0.001)" />

<path d="M868,0L251,900V60L385,40V0H44V40L172,60V941L44,960v40H347L862,259V941L727,960v40h341V960L940,941V0Z" 
id="f2_1e"
transform="scale(0.001,-0.001)" />

<path d="M55,-203v35l222,30V994L55,1025v35H395V-203Z" 
id="f2_1t"
transform="scale(0.001,-0.001)" />

<path d="M476,327V830h-4L114,327ZM476,0V220H30v99l488,686h86V327H740V220H604V0Z" 
id="f2_o"
transform="scale(0.001,-0.001)" />

<path d="M492,110V466H137v73H492V900h72V539H921V466H564V110ZM527,48c0,0,189,0,322,134c0,0,134,133,134,323c0,0,0,189,-134,323c0,0,-133,133,-322,133c0,0,-188,0,-321,-133C206,828,72,694,72,505c0,0,0,-190,134,-323C206,182,339,48,527,48Zm1,-69c0,0,-219,0,-374,154C154,133,0,288,0,506c0,0,0,220,154,375c0,0,155,154,374,154c0,0,218,0,372,-154c0,0,155,-155,155,-375c0,0,0,-218,-155,-373C900,133,746,-21,528,-21Z" 
id="f4_3r"
transform="scale(0.001,-0.001)" />

<path d="M322,333V682h27c0,0,0,-66,28,-94c0,0,27,-27,87,-27h87c0,0,65,0,92,27c0,0,27,28,28,94h27V333H671c0,0,1,48,-13,73c0,0,-14,24,-46,37c0,0,-17,7,-61,7H464c0,0,-62,0,-88,-26c0,0,-26,-26,-27,-91ZM509,28c0,0,145,0,233,108c0,0,108,129,108,372c0,0,0,240,-108,369c0,0,-87,105,-230,105c0,0,-171,0,-266,-147c0,0,-75,-119,-75,-335c0,0,0,-238,98,-355c0,0,97,-117,240,-117Zm-3,-49c0,0,-229,0,-377,168C129,147,0,296,0,498c0,0,0,231,148,384c0,0,149,152,360,152c0,0,211,0,362,-153c0,0,151,-154,151,-371c0,0,0,-223,-150,-378C871,132,720,-21,506,-21Z" 
id="f4_1h"
transform="scale(0.001,-0.001)" />

<path d="M355,0V355H0v72H355V784h72V427H782V355H427V0Z" 
id="f4_f"
transform="scale(0.001,-0.001)" />

<path d="M0,334v73H1700V334Z" 
id="f4_3k"
transform="scale(0.001,-0.001)" />

<path d="M968,-20c0,0,42,100,87,170c0,0,45,70,144,184H56v73H1199c0,0,-106,122,-148,189c0,0,-43,67,-83,166h60c0,0,87,-108,217,-218c0,0,130,-110,206,-154V349c0,0,-99,-56,-217,-159c0,0,-117,-102,-206,-210Z" 
id="f4_34"
transform="scale(0.001,-0.001)" />

<path d="M439,-20c0,0,-56,99,-159,216c0,0,-102,118,-211,207v60c0,0,101,-43,171,-88c0,0,70,-44,184,-143V1375h73V232c0,0,122,105,189,148c0,0,66,42,166,83V403c0,0,-108,-87,-218,-217C634,186,524,56,480,-20Z" 
id="f4_35"
transform="scale(0.001,-0.001)" />

<path d="M41,0V34L426,641H261c0,0,-42,0,-80,-7c0,0,-39,-7,-54,-19L104,515H69V701H586V665L201,60H407c0,0,42,0,89,10c0,0,47,10,66,25l39,147h35L617,0Z" 
id="f2_2m"
transform="scale(0.001,-0.001)" />

<path d="M54,0V40L172,60V941L44,960v40H794V760H745L721,922c0,0,-83,11,-241,11H316V516H611l23,120h46V328H634L611,449H316V60L483,40V0Z" 
id="f2_16"
transform="scale(0.001,-0.001)" />

<path d="M410,45c0,0,90,0,130,58c0,0,40,59,40,193c0,0,0,122,-38,177c0,0,-38,54,-122,54c0,0,-102,0,-217,-37c0,0,0,-227,51,-336c0,0,52,-109,156,-109Zm3,-59c0,0,-169,0,-258,131c0,0,-89,131,-89,377c0,0,0,161,47,278c0,0,47,117,131,178c0,0,85,61,196,61c0,0,109,0,217,-26V813H608L582,915c0,0,-25,13,-67,23c0,0,-41,10,-75,10c0,0,-109,0,-170,-105c0,0,-60,-106,-66,-308c0,0,121,63,244,63c0,0,132,0,201,-74c0,0,69,-74,69,-214c0,0,0,-156,-78,-240c0,0,-79,-84,-227,-84Z" 
id="f2_q"
transform="scale(0.001,-0.001)" />

<path d="M350,-14c0,0,-142,0,-253,31L89,228h49L172,87c0,0,32,-18,78,-29c0,0,46,-11,88,-11c0,0,118,0,173,56c0,0,56,55,56,187c0,0,0,93,-24,140c0,0,-24,47,-76,70c0,0,-52,22,-140,22c0,0,-68,0,-133,-18H122v496H630V886H189V567c0,0,81,18,173,18c0,0,173,0,258,-71c0,0,84,-71,84,-216c0,0,0,-151,-92,-232c0,0,-91,-80,-262,-80Z" 
id="f2_p"
transform="scale(0.001,-0.001)" />

<path d="M392,152V469H76v77H392V863h77V546H787V469H469V152Z" 
id="f2_f"
transform="scale(0.001,-0.001)" />

<path d="M191,-20c0,0,-39,0,-65,25c0,0,-25,27,-25,64c0,0,0,38,26,64c0,0,26,26,64,26c0,0,38,0,64,-26c0,0,26,-26,26,-64c0,0,0,-37,-25,-64c0,0,-26,-25,-65,-25Z" 
id="f2_i"
transform="scale(0.001,-0.001)" />

<path d="M410,-14c0,0,-80,0,-162,14c0,0,-81,14,-144,38V270h48L178,134c0,0,28,-35,95,-62c0,0,68,-27,134,-27c0,0,104,0,163,53c0,0,58,54,58,148c0,0,0,54,-23,89c0,0,-22,35,-59,59c0,0,-37,24,-84,41c0,0,-47,17,-97,34c0,0,-49,17,-96,38c0,0,-47,21,-84,53c0,0,-37,32,-60,79c0,0,-23,48,-23,117c0,0,0,119,90,187c0,0,89,68,248,68c0,0,121,0,263,-32V771H654L628,893c0,0,-76,55,-188,55c0,0,-100,0,-156,-40c0,0,-56,-41,-56,-112c0,0,0,-49,22,-81c0,0,23,-32,60,-55c0,0,37,-22,84,-39c0,0,48,-16,97,-34c0,0,50,-17,97,-39c0,0,48,-22,85,-56c0,0,36,-34,59,-83c0,0,23,-49,23,-120c0,0,0,-145,-89,-224c0,0,-89,-79,-256,-79Z" 
id="f2_1j"
transform="scale(0.001,-0.001)" />


</defs>
</svg>