<?xml version="1.0" encoding="UTF-8" standalone="no"?>
<!DOCTYPE svg PUBLIC "-//W3C//DTD SVG 1.1//EN"
"http://www.w3.org/Graphics/SVG/1.1/DTD/svg11.dtd">
<svg viewBox="0 0 909 1286" version="1.1" xmlns="http://www.w3.org/2000/svg" xmlns:xlink="http://www.w3.org/1999/xlink">
<defs>
<clipPath id="c0_6"><path d="M178.9,799.8V771.6h5.9v28.2Z" /></clipPath>
<clipPath id="c1_6"><path d="M213.8,799.8V771.6h5.1v28.2Z" /></clipPath>
<clipPath id="c2_6"><path d="M594.4,895.2V867.7h5.1v27.5Z" /></clipPath>
<clipPath id="c3_6"><path d="M701.4,994.5V965.2h4.4v29.3Z" /></clipPath>
<style type="text/css"><![CDATA[
.g0_6{
fill: none;
stroke: #FFFFFF;
stroke-width: 0.77152777;
stroke-linecap: round;
stroke-linejoin: round;
}
.g1_6{
fill: #1F1A17;
}
]]></style>
</defs>
<path d="M512.4,486.7l6.2,9.7l5.4,8.5l4.1,8.7l2,8.5l1.1,7.7l1.2,6.7l-1.2,6.7l-2.1,6.7l-2,4.9l-3.1,5.6l-3.1,4.9l-3.4,3.9l-7.1,6.6l-6.5,4.7l-11.5,6.9l-10.3,6.7l-11.6,5.6L459,606.4l-6.4,3.9l-6.2,4.9l-5.4,4.6l-5.1,5.9l-4.1,6.7l-3.4,7.4l-1,9.8l-1,10.5l-6.2,-10.5l-5.4,-10.5l-3.1,-10.6l-1,-10.5v-4.9l1,-4.9l1.1,-4.6l2,-3.9l2.1,-4.8l3.3,-3.9l3.1,-3.6l4.1,-3.8l17,-11.6l16.7,-9.5l14.6,-8.8L489.3,546l6.4,-4.6l5.2,-6.7L505,528l3.3,-7.7l2.1,-8.7l2,-7.7V486.7" class="g0_6" />
<g fill="#000000" >
<use xlink:href="#f0_c" transform="matrix(12,0,0,12,117,155.2)" />
<use xlink:href="#f0_25" transform="matrix(12,0,0,12,122.1,155.2)" />
<use xlink:href="#f0_25" transform="matrix(12,0,0,12,125.8,155.2)" />
<use xlink:href="#f0_d" transform="matrix(12,0,0,12,129.1,155.2)" />
</g>
<path d="M204.3,117.5l-.7,1.5l-15.1,-8.8l.7,-1.5l15.1,8.8Zm15.8,9.6l-1.1,.7L203.6,119l.7,-1.5l15.4,8.9l.4,.7Zm-.4,-.7l.4,.3v.4l-.4,-.7Zm-1.4,18.4V127.1h1.8v17.7h-1.8Zm1.4,18l-1.4,-.7V144.8h1.8v17.3l-.4,.7Zm.4,-.7v.7h-.4l.4,-.7Zm-15.8,9.6l-.7,-1.5L219,161.7l.7,1.1l-15.4,8.9Zm-15.8,8.8V179l15.1,-8.8l.7,1.5l-15.1,8.8h-.7Zm.7,0l-.3,.4l-.4,-.4h.7ZM173.8,170.2l15.4,8.8l-.7,1.5l-15.4,-8.8l.7,-1.5Zm-16.1,-8.1l1.1,-.4l15,8.5l-.7,1.5L158,162.8l-.3,-.7Zm.3,.7h-.3v-.7l.3,.7Zm1.1,-18v17.3h-1.4V144.8h1.4ZM158,126.4l1.1,.7v17.7h-1.4V127.1l.3,-.7Zm-.3,.7v-.4l.3,-.3l-.3,.7ZM173.8,119l-15,8.8l-.8,-1.4l15.1,-8.9l.7,1.5Zm15.4,-10.3v1.5L173.8,119l-.7,-1.5l15.4,-8.8h.7Zm-.7,0h.7h-.7Z" class="g1_6" />
<path d="M237,115.3l-17.3,12.5l-1.1,-1.4l17.6,-12.2l.8,1.1Z" class="g1_6" />
<path d="M187.4,118.3l-22.7,13.2l-1.2,-1.4l23.2,-13.3l.7,1.5Z" class="g1_6" />
<path d="M185.9,172.8L163.2,159.5l.7,-1.5l22.8,13.3l-.8,1.5Z" class="g1_6" />
<path d="M213.1,159.9h1.5V131.5h-1.5v28.4Z" class="g1_6" />
<g fill="#1F1A17" >
<use xlink:href="#f0_13" transform="matrix(12,0,0,12.1,238.7,114.9)" />
<use xlink:href="#f0_18" transform="matrix(12,0,0,12.1,250.8,114.9)" />
<use xlink:href="#f0_x" transform="matrix(12,0,0,12.1,268.4,114.9)" />
<use xlink:href="#f0_13" transform="matrix(12,0,0,12.1,283.8,114.9)" />
<use xlink:href="#f0_18" transform="matrix(12,0,0,12.1,296.3,114.9)" />
<use xlink:href="#f0_m" transform="matrix(6,0,0,6,309.1,118.6)" />
<use xlink:href="#f0_f" transform="matrix(12,0,0,12.1,313.1,145)" />
<use xlink:href="#f0_18" transform="matrix(12,0,0,12.1,328.2,145)" />
<use xlink:href="#f0_1f" transform="matrix(12,0,0,12.1,345.8,145)" />
<use xlink:href="#f0_m" transform="matrix(6,0,0,6,341.4,148.6)" />
</g>
<path d="M406.2,138.9H367.3V137h38.9v1.9Zm-.3,-4.8l7,4l-7,3.7v-7.7Z" class="g1_6" />
<g fill="#1F1A17" >
<use xlink:href="#f0_18" transform="matrix(12,0,0,12.1,378.4,132.1)" />
<use xlink:href="#f0_f" transform="matrix(6,0,0,6,391.6,123)" />
</g>
<g fill="#000000" >
<use xlink:href="#f0_11" transform="matrix(12,0,0,12,64.9,285.8)" />
<use xlink:href="#f0_2a" transform="matrix(12,0,0,12,77.4,285.8)" />
<use xlink:href="#f0_2f" transform="matrix(12,0,0,12,85.8,285.8)" />
<use xlink:href="#f0_i" transform="matrix(12,0,0,12,92.4,285.8)" />
</g>
<path d="M165.4,260.5l-.7,1.4l-15.4,-8.8l1.1,-1.4l15,8.8Zm15.8,9.5l-1.5,.7l-15,-8.8l.7,-1.4l15.4,8.8l.4,.7Zm-.4,-.7l.4,.3v.4l-.4,-.7Zm-1.5,18.3V270h1.9v17.6h-1.9Zm1.5,18l-1.5,-.8V287.6h1.9v17.2l-.4,.8Zm.4,-.8v.8h-.4l.4,-.8Zm-15.8,9.6l-.7,-1.5l15,-8.4l1.1,1.1l-15.4,8.8Zm-16.1,8.8v-1.5l15.4,-8.8l.7,1.5l-15,8.8h-1.1Zm1.1,0l-.4,.3l-.7,-.3h1.1ZM135,312.9l15.4,8.8l-1.1,1.5l-15.1,-8.8l.8,-1.5Zm-16.6,-8.1l1.5,-.3l15.1,8.4l-.8,1.5l-15,-8.8l-.8,-.8Zm.8,.8h-.8v-.8l.8,.8Zm1.1,-18v17.2h-1.9V287.6h1.9Zm-1.1,-18.3l1.1,.7v17.6h-1.9V270l.8,-.7Zm-.8,.7v-.4l.8,-.3l-.8,.7ZM135,261.9l-15.1,8.8l-.7,-1.4l15,-8.8l.8,1.4Zm15.4,-10.2v1.4L135,261.9l-.8,-1.4l15.1,-8.8h1.1Zm-1.1,0h1.1h-1.1Z" class="g1_6" />
<path d="M198.1,258.3l-17.3,12.1l-1.1,-1.1l17.6,-12.5l.8,1.5Z" class="g1_6" />
<path d="M148.5,261.2L125.8,274l-1.1,-1.1l23.1,-13.2l.7,1.5Z" class="g1_6" />
<path d="M147.1,315.5L124.3,302.3l.7,-1.5L147.8,314l-.7,1.5Z" class="g1_6" />
<path d="M174.2,302.6h1.5V274h-1.5v28.6Z" class="g1_6" />
<g fill="#1F1A17" >
<use xlink:href="#f0_13" transform="matrix(12,0,0,12,199.5,257.9)" />
<use xlink:href="#f0_18" transform="matrix(12,0,0,12,211.9,257.9)" />
<use xlink:href="#f0_x" transform="matrix(12,0,0,12,229.5,257.9)" />
<use xlink:href="#f0_13" transform="matrix(12,0,0,12,244.6,257.9)" />
<use xlink:href="#f0_18" transform="matrix(12,0,0,12,256.7,257.9)" />
<use xlink:href="#f0_m" transform="matrix(6,0,0,6,269.9,261.6)" />
<use xlink:href="#f0_f" transform="matrix(12,0,0,12,273.9,292)" />
<use xlink:href="#f0_18" transform="matrix(12,0,0,12,288.9,292)" />
<use xlink:href="#f0_1f" transform="matrix(12,0,0,12,306.5,292)" />
<use xlink:href="#f0_m" transform="matrix(6,0,0,6,302.1,295.7)" />
</g>
<path d="M367.2,285.8H328.4v-1.5h38.8v1.5Zm-.7,-4.8l7.4,4l-7.4,4.1V281Z" class="g1_6" />
<g fill="#1F1A17" >
<use xlink:href="#f0_18" transform="matrix(12,0,0,12,339.2,279.5)" />
<use xlink:href="#f0_f" transform="matrix(6,0,0,6,352.4,270.4)" />
</g>
<path d="M431.1,258.3l-.7,1.4l-15.1,-8.8l.8,-1.4l15,8.8Zm15.8,9.5l-1.1,.7l-15.4,-8.8l.7,-1.4l15.4,8.8l.4,.7Zm-.4,-.7l.4,.3v.4l-.4,-.7Zm-1.1,18.3V267.8h1.5v17.6h-1.5Zm1.1,18l-1.1,-.4V285.4h1.5V303l-.4,.4Zm.4,-.4v.4h-.4l.4,-.4Zm-15.8,9.2l-.7,-1.1l15.4,-8.8l.7,1.1l-15.4,8.8ZM415.3,321v-1.1l15.1,-8.8l.7,1.1l-15,8.8h-.8Zm.8,0l-.4,.3l-.4,-.3h.8Zm-15.4,-9.9l15.4,8.8l-.8,1.1l-15.4,-8.8l.8,-1.1ZM384.5,303l1.1,-.7l15.1,8.8l-.8,1.1l-15,-8.8l-.4,-.4Zm.4,.4h-.4V303l.4,.4Zm1.1,-18V303h-1.5V285.4H386Zm-1.1,-18.3l1.1,.7v17.6h-1.5V267.8l.4,-.7Zm-.4,.7v-.4l.4,-.3l-.4,.7Zm16.2,-8.1l-15.1,8.8l-.7,-1.4l15,-8.8l.8,1.4Zm15.4,-10.2v1.4l-15.4,8.8l-.8,-1.4l15.4,-8.8h.8Zm-.8,0h.8h-.8Z" class="g1_6" />
<path d="M463.8,256.1l-17.3,12.4l-1.1,-1.4L463,255l.8,1.1Z" class="g1_6" />
<path d="M414.2,259l-22.7,13.2l-.8,-1.5l22.8,-13.2l.7,1.5Z" class="g1_6" />
<path d="M412.8,313.3L390,300.1l.7,-1.1l22.8,12.8l-.7,1.5Z" class="g1_6" />
<path d="M439.9,300.4h1.5V272.2h-1.5v28.2Z" class="g1_6" />
<g fill="#1F1A17" >
<use xlink:href="#f0_13" transform="matrix(12,0,0,12,466.8,256.1)" />
<use xlink:href="#f0_18" transform="matrix(12,0,0,12,478.9,256.1)" />
</g>
<path d="M495.7,255l17.6,12.4l-1.1,1.1L495,256.4l.7,-1.4Z" class="g1_6" />
<g fill="#1F1A17" >
<use xlink:href="#f0_13" transform="matrix(12,0,0,12,514.4,281)" />
<use xlink:href="#f0_18" transform="matrix(12,0,0,12,526.9,281)" />
<use xlink:href="#f0_n" transform="matrix(6,0,0,6,540.1,284.7)" />
</g>
<path d="M471.8,241h1.5V223.4h-1.5V241Z" class="g1_6" />
<g fill="#1F1A17" >
<use xlink:href="#f0_1f" transform="matrix(12,0,0,12,465.7,220.9)" />
<use xlink:href="#f0_18" transform="matrix(12,0,0,12,478.9,220.9)" />
</g>
<g fill="#000000" >
<use xlink:href="#f0_c" transform="matrix(12,0,0,12,117,473.5)" />
<use xlink:href="#f0_25" transform="matrix(12,0,0,12,122.1,473.5)" />
<use xlink:href="#f0_25" transform="matrix(12,0,0,12,125.4,473.5)" />
<use xlink:href="#f0_25" transform="matrix(12,0,0,12,129.1,473.5)" />
<use xlink:href="#f0_d" transform="matrix(12,0,0,12,132.4,473.5)" />
</g>
<path d="M204.3,445.5l-.7,1.1l-15.1,-8.8l.8,-1.1l15,8.8Zm15.8,9.1l-1.4,.7l-15.1,-8.7l.7,-1.1l15.5,8.7l.3,.4Zm-.3,-.4h.3v.4l-.3,-.4Zm-1.5,18V454.6h1.8v17.6h-1.8Zm1.5,18.2l-1.5,-.7V472.2h1.8v17.5l-.3,.7Zm.3,-.7v.4l-.3,.3l.3,-.7Zm-15.8,9.5l-.7,-1.5L218.7,489l1.1,1.4l-15.5,8.8ZM188.5,508v-1.5l15.1,-8.8l.7,1.5l-15,8.8h-.8Zm.8,0h-.8h.8ZM173.8,497.7l15.5,8.8l-.8,1.5l-15.4,-8.8l.7,-1.5Zm-16.1,-8l1.1,-.7l15,8.7l-.7,1.5L158,490.4l-.3,-.7Zm.3,.7l-.3,-.3v-.4l.3,.7Zm1.1,-18.2v17.5h-1.4V472.2h1.4Zm-1.1,-18l1.1,.4v17.6h-1.4V454.6l.3,-.4Zm-.3,.4v-.4h.3l-.3,.4Zm16.1,-8l-15,8.7l-.8,-1.1l15.1,-8.7l.7,1.1Zm15.5,-9.9v1.1l-15.5,8.8l-.7,-1.1l15.4,-8.8h.8Zm-.8,0l.4,-.4l.4,.4h-.8Z" class="g1_6" />
<path d="M187.4,445.8L164.7,459l-1.1,-1.1l23.1,-13.1l.7,1Z" class="g1_6" />
<path d="M186,500.3L163.2,487.1l.7,-1.4l22.8,13.1l-.7,1.5Z" class="g1_6" />
<path d="M213.1,487.1h1.5V459h-1.5v28.1Z" class="g1_6" />
<g fill="#1F1A17" >
<use xlink:href="#f0_f" transform="matrix(12,0,0,12,238,476.4)" />
<use xlink:href="#f0_18" transform="matrix(12,0,0,12,253,476.4)" />
<use xlink:href="#f0_19" transform="matrix(12,0,0,12,266.2,476.4)" />
</g>
<path d="M315.7,471.8h-39v-1.5h39v1.5Zm-.4,-4.8l7,4.1l-7,4V467Z" class="g1_6" />
<path d="M189.6,418.4h-1.8v18.7h1.8V418.4Z" class="g1_6" />
<g fill="#1F1A17" >
<use xlink:href="#f0_1f" transform="matrix(12,0,0,12,181.5,414.8)" />
<use xlink:href="#f0_13" transform="matrix(12,0,0,12,194.7,414.8)" />
<use xlink:href="#f0_18" transform="matrix(12,0,0,12,211.6,414.8)" />
<use xlink:href="#f0_m" transform="matrix(6,0,0,6,206.8,418.5)" />
<use xlink:href="#f0_p" transform="matrix(6,0,0,6,224.8,418.5)" />
</g>
<g fill="#000000" >
<use xlink:href="#f0_11" transform="matrix(12,0,0,12,64.9,609.5)" />
<use xlink:href="#f0_2a" transform="matrix(12,0,0,12,77.4,609.5)" />
<use xlink:href="#f0_2f" transform="matrix(12,0,0,12,85.8,609.5)" />
<use xlink:href="#f0_i" transform="matrix(12,0,0,12,92.4,609.5)" />
</g>
<path d="M164.2,582.6v0l-15,-8.8l.7,-1.4l15,8.7l-.7,1.5Zm16.1,8l-1.1,.4l-15,-8.4l.7,-1.5l15.1,8.8l.3,.7Zm-.3,-.7h.3v.7l-.3,-.7Zm-1.1,17.9V590.6h1.4v17.2h-1.4Zm1.1,18.3l-1.1,-.7V607.8h1.4v17.6l-.3,.7Zm.3,-.7v.3l-.3,.4l.3,-.7Zm-16.1,8v0l15,-8.8l.8,1.5l-15.1,8.4l-.7,-1.1Zm-15,9.9v-1.5l15,-8.4l.7,1.1l-15,8.8h-.7Zm.7,0l-.3,.3l-.4,-.3h.7Zm-15,-9.9v0l15,8.4l-.7,1.5l-15,-8.8l.7,-1.1Zm-16.1,-8l1.1,-.8l15,8.8l-.7,1.1l-15,-8.4l-.4,-.7Zm.4,.7l-.4,-.4v-.3l.4,.7Zm1.1,-18.3v17.6h-1.5V607.8h1.5Zm-1.1,-17.9l1.1,.7v17.2h-1.5V590.6l.4,-.7Zm-.4,.7v-.7h.4l-.4,.7Zm16.1,-8v0l-15,8.4l-.7,-1.1l15,-8.8l.7,1.5Zm15,-10.2v1.4l-15,8.8l-.7,-1.5l15,-8.7h.7Zm-.7,0h.7h-.7Z" class="g1_6" />
<path d="M162,607.8h-1.4v-1.1l-.4,-1.1v-1.1l-.4,-1.1l-.7,-.7l-.4,-1.1l-.7,-.7l-.7,-.8l-.8,-.7l-.7,-.7l-1.1,-.4l-.7,-.7l-1.1,-.4h-1.1l-1.1,-.4h-1.1v-1.4h1.1l1.4,.3l1.1,.4l1.1,.4l1.1,.3l1.1,.8l1.1,.7l.8,.7l.7,.8l.7,1.1l.8,1.1l.7,1.1l.4,1.1l.3,1.1v2.5Zm-12.4,12.4v-1.4h2.2l1.1,-.4L154,618l.7,-.3l1.1,-.8l.7,-.7l.8,-.7l.7,-.7l.7,-.8l.4,-.7l.7,-1.1l.4,-1.1V610l.4,-1.1v-1.1H162v2.6l-.3,1.1l-.4,1.1l-.7,1.1l-.8,1.1l-.7,1l-.7,.8l-.8,1.1l-1.1,.7l-1.1,.4l-1.1,.7l-1.1,.4l-1.1,.3h-2.5ZM137.1,607.8h1.5v1.1l.3,1.1v1.1l.4,1.1l.7,1.1l.4,.7l.7,.8l.8,.7l.7,.7l.7,.7l1.1,.8l.8,.3l1.1,.4l1.1,.4h2.2v1.4H147l-1.1,-.3l-1.1,-.4l-1.1,-.7l-1.1,-.4l-1.1,-.7l-.7,-1.1l-.8,-.8l-.7,-1l-.7,-1.1l-.8,-1.1l-.3,-1.1l-.4,-1.1v-2.6Zm12.5,-12.4v1.4h-1.1l-1.1,.4h-1.1l-1.1,.4l-.8,.7l-1.1,.4l-.7,.7l-.7,.7l-.8,.8l-.7,.7l-.4,1.1l-.7,.7l-.4,1.1v1.1l-.3,1.1v1.1h-1.5v-2.5l.4,-1.1l.3,-1.1l.8,-1.1l.7,-1.1l.7,-1.1l.8,-.8l.7,-.7l1.1,-.7l1.1,-.8l1.1,-.3l1.1,-.4l1.1,-.4l1.1,-.3h1.5Z" class="g1_6" />
<path d="M150.3,553h-1.5v20.1h1.5V553Z" class="g1_6" />
<g fill="#1F1A17" >
<use xlink:href="#f0_1f" transform="matrix(12,0,0,12,141.9,550.1)" />
<use xlink:href="#f0_13" transform="matrix(12,0,0,12,155.1,550.1)" />
<use xlink:href="#f0_18" transform="matrix(12,0,0,12,172,550.1)" />
<use xlink:href="#f0_m" transform="matrix(6,0,0,6,167.6,553.8)" />
<use xlink:href="#f0_p" transform="matrix(6,0,0,6,185.5,553.8)" />
<use xlink:href="#f0_f" transform="matrix(12,0,0,12,193.6,616.1)" />
<use xlink:href="#f0_18" transform="matrix(12,0,0,12,208.6,616.1)" />
<use xlink:href="#f0_19" transform="matrix(12,0,0,12,221.8,616.1)" />
</g>
<path d="M277.4,611.5H238.6v-1.9h38.8v1.9Zm-.4,-5.1l7.3,4l-7.3,4v-8Z" class="g1_6" />
<path d="M338.9,583.7v0l-15,-8.8l.7,-1.4l15,8.7l-.7,1.5Zm16.5,8l-1.1,.4l-15.4,-8.4l.7,-1.5L355,591l.4,.7ZM355,591h.4v.7L355,591Zm-1.1,17.9V591.7h1.5v17.2h-1.5Zm1.1,17.9l-1.1,-.3V608.9h1.5v17.6l-.4,.3Zm.4,-.3v.3H355l.4,-.3Zm-16.5,8v0l15.4,-8.8l.7,1.1l-15.4,8.8l-.7,-1.1Zm-15,9.9v-1.5l15,-8.4l.7,1.1l-15,8.8h-.7Zm.7,0l-.4,.3l-.3,-.3h.7Zm-15,-9.9v0l15,8.4l-.7,1.5l-15,-8.8l.7,-1.1Zm-16.1,-8l1.1,-.8l15,8.8l-.7,1.1l-15,-8.8l-.4,-.3Zm.4,.3h-.4v-.3l.4,.3ZM295,608.9v17.6h-1.5V608.9H295ZM293.9,591l1.1,.7v17.2h-1.5V591.7l.4,-.7Zm-.4,.7V591h.4l-.4,.7Zm16.1,-8v0l-15,8.4l-.7,-1.1l15,-8.8l.7,1.5Zm15,-10.2v1.4l-15,8.8l-.7,-1.5l15,-8.7h.7Zm-.7,0h.7h-.7Z" class="g1_6" />
<path d="M336.7,608.9h-1.5v-2.2l-.3,-1.1l-.4,-1.1l-.4,-.7l-.7,-1.1l-.7,-.7l-.4,-.8l-1.1,-.7l-.7,-.7l-.8,-.4l-1.1,-.7l-1.1,-.4h-1.1l-1.1,-.4h-1.1v-1.4h1.5l1.1,.3h1.1l1.5,.8l1.1,.3l.7,.8l1.1,.7l.7,.7l1.1,.8l.8,1.1l.3,1.1l.8,1.1l.3,1.1l.4,1.1v2.5Zm-12.5,12.4v-1.4h2.2l1.1,-.4l1.1,-.4l1.1,-.7l.8,-.4l.7,-.7l1.1,-.7l.4,-.8l.7,-.7l.7,-1.1l.4,-.7l.4,-1.1l.3,-1.1v-2.2h1.5v2.6l-.4,1.1l-.3,1.1l-.8,1.1l-.3,1l-.8,1.1l-1.1,.8l-.7,.7l-1.1,.7l-.7,.8l-1.1,.7l-1.5,.4l-1.1,.3h-2.6ZM311.8,608.9h1.5V610l.3,1.1l.4,1.1l.4,1.1l.3,.7l.4,1.1l.7,.7l.8,.8l.7,.7l.7,.7l1.1,.4l1.1,.7l.7,.4l1.1,.4h2.2v1.4h-2.5l-1.1,-.3l-1.1,-.4l-1.1,-.7l-1.1,-.8l-1.1,-.7l-.7,-.7l-.8,-.8l-.7,-1.1l-.7,-1l-.4,-1.1l-.4,-1.1l-.3,-1.1l-.4,-1.1v-1.5Zm12.4,-12.4v1.4h-1.1l-1.1,.4h-1.1l-.7,.4l-1.1,.7l-1.1,.4l-.7,.7l-.7,.7l-.8,.8l-.7,.7l-.4,1.1l-.3,.7l-.4,1.1l-.4,1.1l-.3,1.1v1.1h-1.5v-1.1l.4,-1.4l.3,-1.1l.4,-1.1l.4,-1.1L314,602l.7,-1.1l.8,-.8l.7,-.7l1.1,-.7l1.1,-.8l1.1,-.3l1.1,-.8h1.1l1.4,-.3h1.1Z" class="g1_6" />
<path d="M325,554.1h-1.5v20.1H325V554.1Z" class="g1_6" />
<g fill="#1F1A17" >
<use xlink:href="#f0_1f" transform="matrix(12,0,0,12,316.8,551.2)" />
<use xlink:href="#f0_18" transform="matrix(12,0,0,12,330,551.2)" />
<use xlink:href="#f0_f" transform="matrix(12,0,0,12,364.8,615)" />
<use xlink:href="#f0_13" transform="matrix(12,0,0,12,379.9,615)" />
<use xlink:href="#f0_18" transform="matrix(12,0,0,12,396.7,615)" />
<use xlink:href="#f0_19" transform="matrix(12,0,0,12,414.3,615)" />
<use xlink:href="#f0_m" transform="matrix(6,0,0,6,392,618.7)" />
<use xlink:href="#f0_p" transform="matrix(6,0,0,6,409.9,618.7)" />
</g>
<g fill="#000000" >
<use xlink:href="#f0_l" transform="matrix(12,0,0,12,64.9,726.5)" />
<use xlink:href="#f0_o" transform="matrix(12,0,0,12,74.1,726.5)" />
<use xlink:href="#f0_i" transform="matrix(12,0,0,12,83.2,726.5)" />
<use xlink:href="#f0_c" transform="matrix(12,0,0,12,117,726.5)" />
<use xlink:href="#f0_1x" transform="matrix(12,0,0,12,122.5,726.5)" />
<use xlink:href="#f0_d" transform="matrix(12,0,0,12,130.2,726.5)" />
<use xlink:href="#f0_1n" transform="matrix(12,0,0,12,155.8,726.5)" />
<use xlink:href="#f0_2e" transform="matrix(12,0,0,12,171.6,726.5)" />
<use xlink:href="#f0_25" transform="matrix(12,0,0,12,177.5,726.5)" />
<use xlink:href="#f0_2g" transform="matrix(12,0,0,12,181.5,726.5)" />
<use xlink:href="#f0_21" transform="matrix(12,0,0,12,186.7,726.5)" />
<use xlink:href="#f0_2g" transform="matrix(12,0,0,12,197.3,726.5)" />
<use xlink:href="#f0_24" transform="matrix(12,0,0,12,202.5,726.5)" />
<use xlink:href="#f0_21" transform="matrix(12,0,0,12,210.9,726.5)" />
<use xlink:href="#f0_22" transform="matrix(12,0,0,12,221.6,726.5)" />
<use xlink:href="#f0_2b" transform="matrix(12,0,0,12,226.8,726.5)" />
<use xlink:href="#f0_2e" transform="matrix(12,0,0,12,235.9,726.5)" />
<use xlink:href="#f0_29" transform="matrix(12,0,0,12,241.8,726.5)" />
<use xlink:href="#f0_2h" transform="matrix(12,0,0,12,255,726.5)" />
<use xlink:href="#f0_28" transform="matrix(12,0,0,12,263.8,726.5)" />
<use xlink:href="#f0_1x" transform="matrix(12,0,0,12,267.9,726.5)" />
<use xlink:href="#f0_2b" transform="matrix(12,0,0,12,278.5,726.5)" />
<use xlink:href="#f0_22" transform="matrix(12,0,0,12,287.7,726.5)" />
<use xlink:href="#f0_2g" transform="matrix(12,0,0,12,296.2,726.5)" />
<use xlink:href="#f0_24" transform="matrix(12,0,0,12,301.3,726.5)" />
<use xlink:href="#f0_21" transform="matrix(12,0,0,12,309.8,726.5)" />
<use xlink:href="#f0_22" transform="matrix(12,0,0,12,320.8,726.5)" />
<use xlink:href="#f0_2b" transform="matrix(12,0,0,12,326,726.5)" />
<use xlink:href="#f0_28" transform="matrix(12,0,0,12,335.1,726.5)" />
<use xlink:href="#f0_28" transform="matrix(12,0,0,12,339.2,726.5)" />
<use xlink:href="#f0_2b" transform="matrix(12,0,0,12,342.9,726.5)" />
<use xlink:href="#f0_2j" transform="matrix(12,0,0,12,352,726.5)" />
<use xlink:href="#f0_25" transform="matrix(12,0,0,12,364.9,726.5)" />
<use xlink:href="#f0_2a" transform="matrix(12,0,0,12,368.9,726.5)" />
<use xlink:href="#f0_23" transform="matrix(12,0,0,12,377.4,726.5)" />
<use xlink:href="#f0_1z" transform="matrix(12,0,0,12,389.1,726.5)" />
<use xlink:href="#f0_2b" transform="matrix(12,0,0,12,396.8,726.5)" />
<use xlink:href="#f0_2b" transform="matrix(12,0,0,12,406,726.5)" />
<use xlink:href="#f0_2e" transform="matrix(12,0,0,12,415.2,726.5)" />
<use xlink:href="#f0_20" transform="matrix(12,0,0,12,421.1,726.5)" />
<use xlink:href="#f0_25" transform="matrix(12,0,0,12,429.5,726.5)" />
<use xlink:href="#f0_2a" transform="matrix(12,0,0,12,433.6,726.5)" />
<use xlink:href="#f0_1x" transform="matrix(12,0,0,12,442,726.5)" />
<use xlink:href="#f0_2g" transform="matrix(12,0,0,12,449.7,726.5)" />
<use xlink:href="#f0_25" transform="matrix(12,0,0,12,454.9,726.5)" />
<use xlink:href="#f0_2b" transform="matrix(12,0,0,12,458.9,726.5)" />
<use xlink:href="#f0_2a" transform="matrix(12,0,0,12,468.1,726.5)" />
<use xlink:href="#f0_1z" transform="matrix(12,0,0,12,479.8,726.5)" />
<use xlink:href="#f0_2b" transform="matrix(12,0,0,12,487.6,726.5)" />
<use xlink:href="#f0_29" transform="matrix(12,0,0,12,496.7,726.5)" />
<use xlink:href="#f0_2c" transform="matrix(12,0,0,12,509.9,726.5)" />
<use xlink:href="#f0_2b" transform="matrix(12,0,0,12,518.4,726.5)" />
<use xlink:href="#f0_2h" transform="matrix(12,0,0,12,527.6,726.5)" />
<use xlink:href="#f0_2a" transform="matrix(12,0,0,12,536.4,726.5)" />
<use xlink:href="#f0_20" transform="matrix(12,0,0,12,544.8,726.5)" />
<use xlink:href="#f0_u" transform="matrix(12,0,0,12,557,726.5)" />
<use xlink:href="#f0_19" transform="matrix(12,0,0,12,155.8,755.5)" />
<use xlink:href="#f0_2e" transform="matrix(12,0,0,12,161.7,755.5)" />
<use xlink:href="#f0_2b" transform="matrix(12,0,0,12,167.6,755.5)" />
<use xlink:href="#f0_2a" transform="matrix(12,0,0,12,176.8,755.5)" />
<use xlink:href="#f0_c" transform="matrix(12,0,0,12,185.2,755.5)" />
<use xlink:href="#f0_19" transform="matrix(12,0,0,12,191.1,755.5)" />
<use xlink:href="#f0_19" transform="matrix(12,0,0,12,197,755.5)" />
<use xlink:href="#f0_19" transform="matrix(12,0,0,12,202.9,755.5)" />
<use xlink:href="#f0_d" transform="matrix(12,0,0,12,208.8,755.5)" />
<use xlink:href="#f0_24" transform="matrix(12,0,0,12,218,755.5)" />
<use xlink:href="#f0_21" transform="matrix(12,0,0,12,226.4,755.5)" />
<use xlink:href="#f0_2k" transform="matrix(12,0,0,12,234.1,755.5)" />
<use xlink:href="#f0_1x" transform="matrix(12,0,0,12,242.6,755.5)" />
<use xlink:href="#f0_1z" transform="matrix(12,0,0,12,250.3,755.5)" />
<use xlink:href="#f0_2l" transform="matrix(12,0,0,12,258,755.5)" />
<use xlink:href="#f0_1x" transform="matrix(12,0,0,12,266.1,755.5)" />
<use xlink:href="#f0_2a" transform="matrix(12,0,0,12,273.8,755.5)" />
<use xlink:href="#f0_2b" transform="matrix(12,0,0,12,282.3,755.5)" />
<use xlink:href="#f0_22" transform="matrix(12,0,0,12,291.4,755.5)" />
<use xlink:href="#f0_21" transform="matrix(12,0,0,12,296.6,755.5)" />
<use xlink:href="#f0_2e" transform="matrix(12,0,0,12,304.3,755.5)" />
<use xlink:href="#f0_2e" transform="matrix(12,0,0,12,310.2,755.5)" />
<use xlink:href="#f0_1x" transform="matrix(12,0,0,12,316.1,755.5)" />
<use xlink:href="#f0_2g" transform="matrix(12,0,0,12,323.8,755.5)" />
<use xlink:href="#f0_21" transform="matrix(12,0,0,12,328.9,755.5)" />
<use xlink:href="#f0_c" transform="matrix(12,0,0,12,339.9,755.5)" />
<use xlink:href="#f0_19" transform="matrix(12,0,0,12,345.8,755.5)" />
<use xlink:href="#f0_19" transform="matrix(12,0,0,12,351.7,755.5)" />
<use xlink:href="#f0_d" transform="matrix(12,0,0,12,357.6,755.5)" />
<use xlink:href="#f0_11" transform="matrix(12,0,0,12,64.9,795.4)" />
<use xlink:href="#f0_2a" transform="matrix(12,0,0,12,77.4,795.4)" />
<use xlink:href="#f0_2f" transform="matrix(12,0,0,12,85.8,795.4)" />
<use xlink:href="#f0_i" transform="matrix(12,0,0,12,92.4,795.4)" />
</g>
<g clip-path="url(#c0_6)">
<g fill="#000000" >
<use xlink:href="#f1_c" transform="matrix(11.9,0,0,15.9,178.9,794.7)" />
</g>
</g>
<g clip-path="url(#c1_6)">
<g fill="#000000" >
<use xlink:href="#f1_d" transform="matrix(11.9,0,0,15.9,213.8,794.7)" />
</g>
</g>
<g fill="#000000" >
<use xlink:href="#f0_o" transform="matrix(7,0,0,7,139.3,798)" />
<use xlink:href="#f0_q" transform="matrix(7,0,0,7,220,800.6)" />
<use xlink:href="#f0_n" transform="matrix(7,0,0,7,235.8,802.8)" />
<use xlink:href="#f2_16" transform="matrix(12.1,0,0,12.1,120.3,793.2)" />
<use xlink:href="#f2_21" transform="matrix(12.1,0,0,12.1,131.6,793.2)" />
<use xlink:href="#f2_16" transform="matrix(12.1,0,0,12.1,157.7,793.2)" />
<use xlink:href="#f2_21" transform="matrix(12.1,0,0,12.1,169,793.2)" />
<use xlink:href="#f2_13" transform="matrix(12.1,0,0,12.1,185.9,793.2)" />
<use xlink:href="#f2_1e" transform="matrix(12.1,0,0,12.1,198.3,793.2)" />
<use xlink:href="#f1_4r" transform="matrix(12.1,0,0,12.1,149.2,792.5)" />
<use xlink:href="#f1_57" transform="matrix(12.1,0,0,12.1,228,792.5)" />
<use xlink:href="#f1_4t" transform="matrix(12.1,0,0,12.1,149.2,800.6)" />
<use xlink:href="#f1_59" transform="matrix(12.1,0,0,12.1,228,800.6)" />
<use xlink:href="#f0_c" transform="matrix(12,0,0,12,117,889.7)" />
<use xlink:href="#f0_1y" transform="matrix(12,0,0,12,122.9,889.7)" />
<use xlink:href="#f0_d" transform="matrix(12,0,0,12,131.3,889.7)" />
<use xlink:href="#f0_1n" transform="matrix(12,0,0,12,155.8,889.7)" />
<use xlink:href="#f0_24" transform="matrix(12,0,0,12,172.7,889.7)" />
<use xlink:href="#f0_1x" transform="matrix(12,0,0,12,181.2,889.7)" />
<use xlink:href="#f0_2g" transform="matrix(12,0,0,12,189.2,889.7)" />
<use xlink:href="#f0_2g" transform="matrix(12,0,0,12,198.1,889.7)" />
<use xlink:href="#f0_2l" transform="matrix(12,0,0,12,203.2,889.7)" />
<use xlink:href="#f0_2c" transform="matrix(12,0,0,12,211.6,889.7)" />
<use xlink:href="#f0_21" transform="matrix(12,0,0,12,220.5,889.7)" />
<use xlink:href="#f0_2b" transform="matrix(12,0,0,12,231.9,889.7)" />
<use xlink:href="#f0_22" transform="matrix(12,0,0,12,241.4,889.7)" />
<use xlink:href="#f0_25" transform="matrix(12,0,0,12,250.2,889.7)" />
<use xlink:href="#f0_2f" transform="matrix(12,0,0,12,254.3,889.7)" />
<use xlink:href="#f0_2b" transform="matrix(12,0,0,12,261.3,889.7)" />
<use xlink:href="#f0_29" transform="matrix(12,0,0,12,270.4,889.7)" />
<use xlink:href="#f0_21" transform="matrix(12,0,0,12,284,889.7)" />
<use xlink:href="#f0_2e" transform="matrix(12,0,0,12,292.1,889.7)" />
<use xlink:href="#f0_25" transform="matrix(12,0,0,12,298,889.7)" />
<use xlink:href="#f0_2f" transform="matrix(12,0,0,12,302.4,889.7)" />
<use xlink:href="#f0_29" transform="matrix(12,0,0,12,309,889.7)" />
<use xlink:href="#f0_25" transform="matrix(12,0,0,12,325.9,889.7)" />
<use xlink:href="#f0_2f" transform="matrix(12,0,0,12,330.3,889.7)" />
<use xlink:href="#f0_21" transform="matrix(12,0,0,12,340.3,889.7)" />
<use xlink:href="#f0_2k" transform="matrix(12,0,0,12,348,889.7)" />
<use xlink:href="#f0_24" transform="matrix(12,0,0,12,356.8,889.7)" />
<use xlink:href="#f0_25" transform="matrix(12,0,0,12,365.2,889.7)" />
<use xlink:href="#f0_1y" transform="matrix(12,0,0,12,369.7,889.7)" />
<use xlink:href="#f0_25" transform="matrix(12,0,0,12,378.1,889.7)" />
<use xlink:href="#f0_2g" transform="matrix(12,0,0,12,382.5,889.7)" />
<use xlink:href="#f0_21" transform="matrix(12,0,0,12,387.7,889.7)" />
<use xlink:href="#f0_20" transform="matrix(12,0,0,12,395.7,889.7)" />
<use xlink:href="#f0_1y" transform="matrix(12,0,0,12,408.2,889.7)" />
<use xlink:href="#f0_2l" transform="matrix(12,0,0,12,417,889.7)" />
<use xlink:href="#f0_2g" transform="matrix(12,0,0,12,428.8,889.7)" />
<use xlink:href="#f0_24" transform="matrix(12,0,0,12,433.9,889.7)" />
<use xlink:href="#f0_21" transform="matrix(12,0,0,12,442.8,889.7)" />
<use xlink:href="#f0_1z" transform="matrix(12,0,0,12,454.2,889.7)" />
<use xlink:href="#f0_2b" transform="matrix(12,0,0,12,461.9,889.7)" />
<use xlink:href="#f0_29" transform="matrix(12,0,0,12,471.4,889.7)" />
<use xlink:href="#f0_2c" transform="matrix(12,0,0,12,484.6,889.7)" />
<use xlink:href="#f0_28" transform="matrix(12,0,0,12,493.8,889.7)" />
<use xlink:href="#f0_21" transform="matrix(12,0,0,12,497.8,889.7)" />
<use xlink:href="#f0_2k" transform="matrix(12,0,0,12,505.9,889.7)" />
<use xlink:href="#f1_c" transform="matrix(11.8,0,0,15.4,551.1,890)" />
</g>
<g clip-path="url(#c2_6)">
<g fill="#000000" >
<use xlink:href="#f1_d" transform="matrix(11.8,0,0,15.4,594.4,890)" />
</g>
</g>
<g fill="#000000" >
<use xlink:href="#f0_n" transform="matrix(6.8,0,0,6.8,586.3,893.3)" />
<use xlink:href="#f0_o" transform="matrix(6.8,0,0,6.8,660.7,893.3)" />
<use xlink:href="#f0_p" transform="matrix(6.8,0,0,6.8,600.6,895.5)" />
<use xlink:href="#f2_13" transform="matrix(11.8,0,0,11.8,527.6,888.6)" />
<use xlink:href="#f2_2b" transform="matrix(11.8,0,0,11.8,540.1,888.6)" />
<use xlink:href="#f2_1e" transform="matrix(11.8,0,0,11.8,559.5,888.6)" />
<use xlink:href="#f2_18" transform="matrix(11.8,0,0,11.8,572,888.6)" />
<use xlink:href="#f2_13" transform="matrix(11.8,0,0,11.8,609.4,888.6)" />
<use xlink:href="#f2_28" transform="matrix(11.8,0,0,11.8,621.8,888.6)" />
<use xlink:href="#f2_1j" transform="matrix(11.8,0,0,11.8,639,888.6)" />
<use xlink:href="#f2_1f" transform="matrix(11.8,0,0,11.8,648.2,888.6)" />
<use xlink:href="#f1_4r" transform="matrix(11.8,0,0,11.8,520.3,887.8)" />
<use xlink:href="#f1_57" transform="matrix(11.8,0,0,11.8,628.8,887.8)" />
<use xlink:href="#f1_4t" transform="matrix(11.8,0,0,11.8,520.3,895.9)" />
<use xlink:href="#f1_59" transform="matrix(11.8,0,0,11.8,628.8,895.9)" />
<use xlink:href="#f0_z" transform="matrix(12,0,0,12,671.8,889.7)" />
<use xlink:href="#f0_11" transform="matrix(12,0,0,12,64.9,924.5)" />
<use xlink:href="#f0_2a" transform="matrix(12,0,0,12,77.4,924.5)" />
<use xlink:href="#f0_2f" transform="matrix(12,0,0,12,85.8,924.5)" />
<use xlink:href="#f0_i" transform="matrix(12,0,0,12,92.4,924.5)" />
<use xlink:href="#f0_19" transform="matrix(12,0,0,12,117,924.5)" />
<use xlink:href="#f0_2b" transform="matrix(12,0,0,12,122.8,924.5)" />
<use xlink:href="#f0_2a" transform="matrix(12,0,0,12,131.7,924.5)" />
<use xlink:href="#f0_25" transform="matrix(12,0,0,12,140.1,924.5)" />
<use xlink:href="#f0_2f" transform="matrix(12,0,0,12,143.8,924.5)" />
<use xlink:href="#f0_1x" transform="matrix(12,0,0,12,150.4,924.5)" />
<use xlink:href="#f0_2g" transform="matrix(12,0,0,12,157.8,924.5)" />
<use xlink:href="#f0_25" transform="matrix(12,0,0,12,162.9,924.5)" />
<use xlink:href="#f0_2b" transform="matrix(12,0,0,12,167,924.5)" />
<use xlink:href="#f0_2a" transform="matrix(12,0,0,12,175.8,924.5)" />
<use xlink:href="#f0_25" transform="matrix(12,0,0,12,187.2,924.5)" />
<use xlink:href="#f0_2f" transform="matrix(12,0,0,12,191.2,924.5)" />
<use xlink:href="#f0_2b" transform="matrix(12,0,0,12,197.8,924.5)" />
<use xlink:href="#f0_29" transform="matrix(12,0,0,12,206.7,924.5)" />
<use xlink:href="#f0_21" transform="matrix(12,0,0,12,219.9,924.5)" />
<use xlink:href="#f0_2e" transform="matrix(12,0,0,12,227.2,924.5)" />
<use xlink:href="#f0_25" transform="matrix(12,0,0,12,233.1,924.5)" />
<use xlink:href="#f0_2f" transform="matrix(12,0,0,12,236.8,924.5)" />
<use xlink:href="#f0_29" transform="matrix(12,0,0,12,243.4,924.5)" />
<use xlink:href="#f0_c" transform="matrix(12,0,0,12,117,987.2)" />
<use xlink:href="#f0_1z" transform="matrix(12,0,0,12,122.5,987.2)" />
<use xlink:href="#f0_d" transform="matrix(12,0,0,12,130.2,987.2)" />
<use xlink:href="#f0_1n" transform="matrix(12,0,0,12,155.8,987.2)" />
<use xlink:href="#f0_2e" transform="matrix(12,0,0,12,171.6,987.2)" />
<use xlink:href="#f0_25" transform="matrix(12,0,0,12,177.8,987.2)" />
<use xlink:href="#f0_2g" transform="matrix(12,0,0,12,181.9,987.2)" />
<use xlink:href="#f0_21" transform="matrix(12,0,0,12,187,987.2)" />
<use xlink:href="#f0_2g" transform="matrix(12,0,0,12,198.4,987.2)" />
<use xlink:href="#f0_24" transform="matrix(12,0,0,12,203.6,987.2)" />
<use xlink:href="#f0_21" transform="matrix(12,0,0,12,212,987.2)" />
<use xlink:href="#f0_24" transform="matrix(12,0,0,12,223,987.2)" />
<use xlink:href="#f0_2l" transform="matrix(12,0,0,12,231.5,987.2)" />
<use xlink:href="#f0_1y" transform="matrix(12,0,0,12,239.9,987.2)" />
<use xlink:href="#f0_2e" transform="matrix(12,0,0,12,248.4,987.2)" />
<use xlink:href="#f0_25" transform="matrix(12,0,0,12,254.3,987.2)" />
<use xlink:href="#f0_20" transform="matrix(12,0,0,12,258.7,987.2)" />
<use xlink:href="#f0_25" transform="matrix(12,0,0,12,267.5,987.2)" />
<use xlink:href="#f0_2f" transform="matrix(12,0,0,12,271.6,987.2)" />
<use xlink:href="#f0_1x" transform="matrix(12,0,0,12,278.2,987.2)" />
<use xlink:href="#f0_2g" transform="matrix(12,0,0,12,286.3,987.2)" />
<use xlink:href="#f0_25" transform="matrix(12,0,0,12,291.4,987.2)" />
<use xlink:href="#f0_2b" transform="matrix(12,0,0,12,295.4,987.2)" />
<use xlink:href="#f0_2a" transform="matrix(12,0,0,12,305,987.2)" />
<use xlink:href="#f0_1x" transform="matrix(12,0,0,12,316.7,987.2)" />
<use xlink:href="#f0_2a" transform="matrix(12,0,0,12,324.8,987.2)" />
<use xlink:href="#f0_20" transform="matrix(12,0,0,12,333.3,987.2)" />
<use xlink:href="#f0_2a" transform="matrix(12,0,0,12,345.8,987.2)" />
<use xlink:href="#f0_2h" transform="matrix(12,0,0,12,354.2,987.2)" />
<use xlink:href="#f0_29" transform="matrix(12,0,0,12,363,987.2)" />
<use xlink:href="#f0_1y" transform="matrix(12,0,0,12,376.3,987.2)" />
<use xlink:href="#f0_21" transform="matrix(12,0,0,12,385.1,987.2)" />
<use xlink:href="#f0_2e" transform="matrix(12,0,0,12,392.8,987.2)" />
<use xlink:href="#f0_2b" transform="matrix(12,0,0,12,402.4,987.2)" />
<use xlink:href="#f0_22" transform="matrix(12,0,0,12,411.5,987.2)" />
<use xlink:href="#f0_2h" transform="matrix(12,0,0,12,420,987.2)" />
<use xlink:href="#f0_2a" transform="matrix(12,0,0,12,428.8,987.2)" />
<use xlink:href="#f0_2c" transform="matrix(12,0,0,12,437.3,987.2)" />
<use xlink:href="#f0_1x" transform="matrix(12,0,0,12,446.4,987.2)" />
<use xlink:href="#f0_25" transform="matrix(12,0,0,12,454.1,987.2)" />
<use xlink:href="#f0_2e" transform="matrix(12,0,0,12,458.2,987.2)" />
<use xlink:href="#f0_21" transform="matrix(12,0,0,12,464.1,987.2)" />
<use xlink:href="#f0_20" transform="matrix(12,0,0,12,472.2,987.2)" />
<use xlink:href="#f0_21" transform="matrix(12,0,0,12,484.3,987.2)" />
<use xlink:href="#f0_28" transform="matrix(12,0,0,12,492.4,987.2)" />
<use xlink:href="#f0_21" transform="matrix(12,0,0,12,496.4,987.2)" />
<use xlink:href="#f0_1z" transform="matrix(12,0,0,12,504.2,987.2)" />
<use xlink:href="#f0_2g" transform="matrix(12,0,0,12,512.2,987.2)" />
<use xlink:href="#f0_2e" transform="matrix(12,0,0,12,517.4,987.2)" />
<use xlink:href="#f0_2b" transform="matrix(12,0,0,12,523.3,987.2)" />
<use xlink:href="#f0_2a" transform="matrix(12,0,0,12,532.4,987.2)" />
<use xlink:href="#f0_2f" transform="matrix(12,0,0,12,541.2,987.2)" />
<use xlink:href="#f0_25" transform="matrix(12,0,0,12,551.2,987.2)" />
<use xlink:href="#f0_2a" transform="matrix(12,0,0,12,555.6,987.2)" />
<use xlink:href="#f0_2g" transform="matrix(12,0,0,12,567.4,987.2)" />
<use xlink:href="#f0_24" transform="matrix(12,0,0,12,572.9,987.2)" />
<use xlink:href="#f0_21" transform="matrix(12,0,0,12,581.3,987.2)" />
<use xlink:href="#f0_1z" transform="matrix(12,0,0,12,592.3,987.2)" />
<use xlink:href="#f0_2b" transform="matrix(12,0,0,12,600.1,987.2)" />
<use xlink:href="#f0_29" transform="matrix(12,0,0,12,609.2,987.2)" />
<use xlink:href="#f0_2c" transform="matrix(12,0,0,12,622.4,987.2)" />
<use xlink:href="#f0_28" transform="matrix(12,0,0,12,631.6,987.2)" />
<use xlink:href="#f0_21" transform="matrix(12,0,0,12,635.6,987.2)" />
<use xlink:href="#f0_2k" transform="matrix(12,0,0,12,643.4,987.2)" />
<use xlink:href="#f1_1r" transform="matrix(11.9,0,0,16,656,989)" />
</g>
<g clip-path="url(#c3_6)">
<g fill="#000000" >
<use xlink:href="#f1_1t" transform="matrix(11.9,0,0,16,701.4,989)" />
</g>
</g>
<g fill="#000000" >
<use xlink:href="#f0_n" transform="matrix(6.8,0,0,6.8,707.3,976.9)" />
<use xlink:href="#f0_q" transform="matrix(6.8,0,0,6.8,693.7,992.3)" />
<use xlink:href="#f2_13" transform="matrix(11.8,0,0,11.8,662.6,987.6)" />
<use xlink:href="#f2_2b" transform="matrix(11.8,0,0,11.8,675,987.6)" />
<use xlink:href="#f2_16" transform="matrix(11.8,0,0,11.8,684.2,987.6)" />
<use xlink:href="#f1_h" transform="matrix(6.8,0,0,6.8,712.4,976.9)" />
<use xlink:href="#f0_i" transform="matrix(12,0,0,12,721.6,987.2)" />
<use xlink:href="#f0_c" transform="matrix(12,0,0,12,141.8,1022)" />
<use xlink:href="#f0_11" transform="matrix(12,0,0,12,148,1022)" />
<use xlink:href="#f0_2g" transform="matrix(12,0,0,12,161.2,1022)" />
<use xlink:href="#f0_2b" transform="matrix(12,0,0,12,166.3,1022)" />
<use xlink:href="#f0_29" transform="matrix(12,0,0,12,175.4,1022)" />
<use xlink:href="#f0_25" transform="matrix(12,0,0,12,189.7,1022)" />
<use xlink:href="#f0_1z" transform="matrix(12,0,0,12,194.8,1022)" />
<use xlink:href="#f0_1e" transform="matrix(12,0,0,12,206.6,1022)" />
<use xlink:href="#f0_2b" transform="matrix(12,0,0,12,219.8,1022)" />
<use xlink:href="#f0_i" transform="matrix(12,0,0,12,229,1022)" />
<use xlink:href="#f0_2b" transform="matrix(12,0,0,12,237.4,1022)" />
<use xlink:href="#f0_22" transform="matrix(12,0,0,12,246.6,1022)" />
<use xlink:href="#f0_13" transform="matrix(12,0,0,12,255.4,1022)" />
<use xlink:href="#f0_2b" transform="matrix(12,0,0,12,267.6,1022)" />
<use xlink:href="#f0_x" transform="matrix(12,0,0,12,280.5,1022)" />
<use xlink:href="#f0_m" transform="matrix(12,0,0,12,294.5,1022)" />
<use xlink:href="#f0_r" transform="matrix(12,0,0,12,303.6,1022)" />
<use xlink:href="#f0_d" transform="matrix(12,0,0,12,312.8,1022)" />
<use xlink:href="#f0_11" transform="matrix(12,0,0,12,91.4,1060.5)" />
<use xlink:href="#f0_2a" transform="matrix(12,0,0,12,104.6,1060.5)" />
<use xlink:href="#f0_2f" transform="matrix(12,0,0,12,113.8,1060.5)" />
<use xlink:href="#f0_i" transform="matrix(12,0,0,12,120.9,1060.5)" />
<use xlink:href="#f0_18" transform="matrix(12,0,0,12,148.3,1062)" />
<use xlink:href="#f0_2l" transform="matrix(12,0,0,12,161.6,1062)" />
<use xlink:href="#f0_1y" transform="matrix(12,0,0,12,170.7,1062)" />
<use xlink:href="#f0_2e" transform="matrix(12,0,0,12,179.9,1062)" />
<use xlink:href="#f0_25" transform="matrix(12,0,0,12,186,1062)" />
<use xlink:href="#f0_20" transform="matrix(12,0,0,12,191.1,1062)" />
<use xlink:href="#f0_25" transform="matrix(12,0,0,12,200.3,1062)" />
<use xlink:href="#f0_2f" transform="matrix(12,0,0,12,205.4,1062)" />
<use xlink:href="#f0_1x" transform="matrix(12,0,0,12,212.5,1062)" />
<use xlink:href="#f0_2g" transform="matrix(12,0,0,12,220.6,1062)" />
<use xlink:href="#f0_25" transform="matrix(12,0,0,12,225.7,1062)" />
<use xlink:href="#f0_2b" transform="matrix(12,0,0,12,230.8,1062)" />
<use xlink:href="#f0_2a" transform="matrix(12,0,0,12,240,1062)" />
<use xlink:href="#f3_34" transform="matrix(12,0,0,12,262.5,1062)" />
<use xlink:href="#f2_2f" transform="matrix(12,0,0,12,280.6,1062)" />
<use xlink:href="#f2_2c" transform="matrix(12,0,0,12,287.8,1062)" />
<use xlink:href="#f0_n" transform="matrix(6.9,0,0,6.9,296.9,1053.9)" />
<use xlink:href="#f2_20" transform="matrix(12,0,0,12,302.2,1062)" />
<use xlink:href="#f0_n" transform="matrix(6.9,0,0,6.9,313.6,1053.9)" />
<use xlink:href="#f0_1e" transform="matrix(12,0,0,12,73.4,1096.1)" />
<use xlink:href="#f0_2h" transform="matrix(12,0,0,12,86.6,1096.1)" />
<use xlink:href="#f0_29" transform="matrix(12,0,0,12,95.8,1096.1)" />
<use xlink:href="#f0_1y" transform="matrix(12,0,0,12,110,1096.1)" />
<use xlink:href="#f0_21" transform="matrix(12,0,0,12,119.2,1096.1)" />
<use xlink:href="#f0_2e" transform="matrix(12,0,0,12,127.3,1096.1)" />
<use xlink:href="#f0_2b" transform="matrix(12,0,0,12,136.9,1096.1)" />
<use xlink:href="#f0_22" transform="matrix(12,0,0,12,146.1,1096.1)" />
<use xlink:href="#f0_2h" transform="matrix(12,0,0,12,154.5,1096.1)" />
<use xlink:href="#f0_2a" transform="matrix(12,0,0,12,163.7,1096.1)" />
<use xlink:href="#f0_2c" transform="matrix(12,0,0,12,172.9,1096.1)" />
<use xlink:href="#f0_1x" transform="matrix(12,0,0,12,182,1096.1)" />
<use xlink:href="#f0_25" transform="matrix(12,0,0,12,190.2,1096.1)" />
<use xlink:href="#f0_2e" transform="matrix(12,0,0,12,195.3,1096.1)" />
<use xlink:href="#f0_21" transform="matrix(12,0,0,12,201.4,1096.1)" />
<use xlink:href="#f0_20" transform="matrix(12,0,0,12,209.5,1096.1)" />
<use xlink:href="#f0_21" transform="matrix(12,0,0,12,221.6,1096.1)" />
<use xlink:href="#f0_28" transform="matrix(12,0,0,12,229.8,1096.1)" />
<use xlink:href="#f0_21" transform="matrix(12,0,0,12,234.9,1096.1)" />
<use xlink:href="#f0_1z" transform="matrix(12,0,0,12,243,1096.1)" />
<use xlink:href="#f0_2g" transform="matrix(12,0,0,12,251.1,1096.1)" />
<use xlink:href="#f0_2e" transform="matrix(12,0,0,12,256.2,1096.1)" />
<use xlink:href="#f0_2b" transform="matrix(12,0,0,12,262.3,1096.1)" />
<use xlink:href="#f0_2a" transform="matrix(12,0,0,12,271.5,1096.1)" />
<use xlink:href="#f3_34" transform="matrix(12.3,0,0,12.3,289.2,1096.8)" />
<use xlink:href="#f0_o" transform="matrix(12.3,0,0,12.3,307.8,1096.8)" />
<use xlink:href="#f4_q" transform="matrix(8,0,0,8,792.2,1264.2)" />
</g>
<defs>
<path d="M474,-326c0,0,-112,57,-188,133c0,0,-107,108,-165,254c0,0,-58,147,-58,305c0,0,0,231,114,421c0,0,114,191,297,273v-31c0,0,-92,-51,-151,-139c0,0,-59,-88,-88,-223c0,0,-30,-135,-30,-281c0,0,0,-160,25,-290c0,0,20,-102,47,-164c0,0,28,-62,75,-120c0,0,47,-57,122,-109v-29Z" 
id="f0_c"
transform="scale(0.001,-0.001)" />

<path d="M55,0V26c0,0,50,0,67,10c0,0,17,10,27,32c0,0,10,23,10,86V418c0,0,0,111,-6,144c0,0,-6,24,-17,33c0,0,-11,10,-30,10c0,0,-21,0,-51,-11L45,620l206,83h33V154c0,0,0,-64,9,-85c0,0,9,-22,27,-32c0,0,19,-11,67,-11V0ZM222,909c0,0,-32,0,-54,23c0,0,-22,22,-22,53c0,0,0,32,22,54c0,0,22,22,54,22c0,0,31,0,53,-22c0,0,22,-22,22,-54c0,0,0,-31,-22,-53c0,0,-22,-23,-53,-23Z" 
id="f0_25"
transform="scale(0.001,-0.001)" />

<path d="M35,-326v29c0,0,92,51,151,139c0,0,60,87,89,221c0,0,28,136,28,282c0,0,0,159,-24,290c0,0,-19,103,-47,165c0,0,-28,62,-75,119c0,0,-46,57,-122,110v31c0,0,113,-56,188,-132c0,0,107,-109,165,-255c0,0,58,-147,58,-306c0,0,0,-231,-114,-420c0,0,-113,-191,-297,-273Z" 
id="f0_d"
transform="scale(0.001,-0.001)" />

<path d="M548,-21c0,0,-251,0,-389,185C159,164,56,303,56,490c0,0,0,152,68,278c0,0,67,127,186,197c0,0,119,69,260,69c0,0,109,0,216,-53c0,0,31,-17,44,-17c0,0,20,0,35,14c0,0,20,21,28,56h26L943,690H919c0,0,-46,155,-131,224c0,0,-86,68,-206,68c0,0,-100,0,-181,-51c0,0,-81,-52,-128,-163c0,0,-46,-112,-46,-279c0,0,0,-137,44,-238c0,0,44,-101,132,-154c0,0,88,-54,201,-54c0,0,99,0,174,42c0,0,75,42,165,167l23,-14C966,238,890,103,789,40c0,0,-102,-61,-241,-61Z" 
id="f0_13"
transform="scale(0.001,-0.001)" />

<path d="M26,0V27H62c0,0,63,0,91,37c0,0,18,24,18,115V833c0,0,0,77,-10,102c0,0,-7,18,-30,32c0,0,-33,18,-69,18H26v27H459V985H422c0,0,-35,0,-67,-17c0,0,-23,-12,-32,-36c0,0,-9,-25,-9,-99V542H784V833c0,0,0,77,-10,102c0,0,-8,18,-31,32c0,0,-33,18,-68,18H639v27h432V985h-36c0,0,-36,0,-68,-17c0,0,-24,-12,-32,-36c0,0,-9,-25,-9,-99V179c0,0,0,-77,10,-102c0,0,7,-18,31,-32c0,0,32,-18,68,-18h36V0H639V27h36c0,0,62,0,90,37c0,0,19,24,19,115V487H314V179c0,0,0,-77,9,-102c0,0,8,-18,32,-32c0,0,32,-18,67,-18h37V0Z" 
id="f0_18"
transform="scale(0.001,-0.001)" />

<path d="M27,354v62H831V354Zm0,243v62H831V597Z" 
id="f0_x"
transform="scale(0.001,-0.001)" />

<path d="M33,0V27c0,0,264,241,371,393c0,0,108,152,108,278c0,0,0,96,-59,158c0,0,-59,62,-141,62c0,0,-75,0,-134,-43c0,0,-59,-44,-88,-128H63c0,0,18,138,95,212c0,0,77,74,193,74c0,0,123,0,205,-80c0,0,83,-79,83,-186c0,0,0,-77,-36,-154c0,0,-55,-121,-179,-256C424,357,238,154,191,112H455c0,0,81,0,114,6c0,0,32,6,58,25c0,0,27,18,46,52h27L630,0Z" 
id="f0_m"
transform="scale(0.001,-0.001)" />

<path d="M399,105V477H27v62H399V909h60V539H831V477H459V105Z" 
id="f0_f"
transform="scale(0.001,-0.001)" />

<path d="M545,30c0,0,143,0,236,111c0,0,93,111,93,351c0,0,0,259,-103,386c0,0,-82,102,-226,102c0,0,-136,0,-218,-101C327,879,225,754,225,512c0,0,0,-247,106,-380c0,0,81,-102,214,-102Zm2,-51c0,0,-209,0,-351,147C196,126,54,274,54,510c0,0,0,240,164,393c0,0,142,131,341,131c0,0,197,0,341,-149c0,0,145,-149,145,-373c0,0,0,-230,-146,-382C899,130,754,-21,547,-21Z" 
id="f0_1f"
transform="scale(0.001,-0.001)" />

<path d="M678,393L506,802L330,393ZM11,0V27c0,0,63,12,82,30c0,0,38,35,84,145l356,832h27L912,193c0,0,43,-101,77,-132c0,0,35,-30,97,-34V0H687V27c0,0,60,3,82,21c0,0,21,17,21,41c0,0,0,33,-30,104L700,338H307L239,179c0,0,-26,-59,-26,-88c0,0,0,-23,22,-41c0,0,22,-17,95,-23V0Z" 
id="f0_11"
transform="scale(0.001,-0.001)" />

<path d="M21,0V26H35c0,0,53,0,71,27c0,0,18,27,18,101V408c0,0,0,123,-5,150c0,0,-6,27,-17,37c0,0,-12,10,-31,10c0,0,-21,0,-50,-11L10,620l206,83h32V558c0,0,120,145,229,145c0,0,56,0,96,-28c0,0,40,-28,64,-92c0,0,16,-45,16,-137V154c0,0,0,-65,11,-88c0,0,8,-19,26,-29c0,0,18,-11,68,-11V0H419V26h14c0,0,47,0,66,15c0,0,20,15,27,43c0,0,3,11,3,70V434c0,0,0,93,-24,135c0,0,-24,42,-81,42c0,0,-88,0,-176,-97V154c0,0,0,-69,9,-86c0,0,10,-21,28,-31c0,0,19,-11,75,-11V0Z" 
id="f0_2a"
transform="scale(0.001,-0.001)" />

<path d="M312,-20c0,0,-62,0,-143,22c0,0,-25,8,-40,8c0,0,-18,0,-27,-19H77V234h25c0,0,21,-105,80,-158c0,0,59,-53,132,-53c0,0,51,0,84,31c0,0,32,30,32,72c0,0,0,52,-36,87c0,0,-36,35,-144,88c0,0,-109,54,-142,97c0,0,-34,43,-34,107c0,0,0,85,58,141c0,0,58,57,150,57c0,0,40,0,97,-17c0,0,38,-11,51,-11c0,0,12,0,19,5c0,0,7,5,15,23h25V470H464c0,0,-28,110,-72,149c0,0,-45,40,-113,40c0,0,-53,0,-85,-28c0,0,-32,-27,-32,-61c0,0,0,-41,24,-71c0,0,23,-31,94,-65L389,381c0,0,152,-74,152,-194c0,0,0,-94,-71,-151c0,0,-70,-56,-158,-56Z" 
id="f0_2f"
transform="scale(0.001,-0.001)" />

<path d="M191,-20c0,0,-34,0,-58,24c0,0,-24,24,-24,58c0,0,0,35,24,59c0,0,24,24,58,24c0,0,35,0,59,-24c0,0,24,-25,24,-59c0,0,0,-34,-24,-58c0,0,-25,-24,-59,-24Z" 
id="f0_i"
transform="scale(0.001,-0.001)" />

<path d="M238,-17c0,0,-103,0,-139,25C99,8,62,33,62,62c0,0,0,22,17,38c0,0,18,16,42,16c0,0,19,0,38,-6c0,0,13,-3,58,-27c0,0,45,-23,62,-28c0,0,27,-8,59,-8c0,0,76,0,132,59c0,0,56,59,56,140c0,0,0,59,-26,115c0,0,-19,41,-42,63c0,0,-32,30,-88,54c0,0,-56,25,-114,25H232v22c0,0,59,8,118,42c0,0,59,35,86,85c0,0,27,49,27,108c0,0,0,76,-48,124c0,0,-48,47,-120,47c0,0,-116,0,-193,-124L77,819c0,0,44,102,110,158c0,0,66,56,164,56c0,0,122,0,187,-80c0,0,49,-58,49,-126c0,0,0,-110,-139,-228c0,0,93,-36,141,-104c0,0,48,-68,48,-160c0,0,0,-131,-84,-227C553,108,444,-17,238,-17Z" 
id="f0_n"
transform="scale(0.001,-0.001)" />

<path d="M38,0V27H74c0,0,63,0,91,37c0,0,18,24,18,115V833c0,0,0,77,-10,102c0,0,-7,18,-30,32c0,0,-33,18,-69,18H38v27H470V985H434c0,0,-62,0,-90,-37c0,0,-18,-24,-18,-115V179c0,0,0,-77,9,-102c0,0,8,-18,31,-32c0,0,32,-18,68,-18h36V0Z" 
id="f0_19"
transform="scale(0.001,-0.001)" />

<path d="M247,-17c0,0,-91,0,-132,30c0,0,-42,31,-42,68c0,0,0,21,17,37c0,0,18,16,44,17c0,0,19,0,34,-6c0,0,14,-7,49,-31c0,0,56,-39,113,-39c0,0,88,0,154,66c0,0,66,66,66,161c0,0,0,92,-59,171c0,0,-59,80,-163,123c0,0,-81,34,-221,39l194,393H663L605,885H301L234,750c0,0,198,-29,313,-147c0,0,100,-102,100,-239c0,0,0,-80,-33,-148c0,0,-32,-68,-81,-116c0,0,-50,-47,-110,-77c0,0,-86,-40,-176,-40Z" 
id="f0_p"
transform="scale(0.001,-0.001)" />

<path d="M197,0V27c0,0,71,2,92,13c0,0,21,10,29,29c0,0,9,18,9,109V725c0,0,0,110,-8,141c0,0,-5,24,-19,35c0,0,-14,11,-33,11c0,0,-28,0,-77,-23l-11,23l246,121h25V178c0,0,0,-85,7,-106c0,0,7,-21,29,-32c0,0,23,-11,91,-13V0Z" 
id="f0_l"
transform="scale(0.001,-0.001)" />

<path d="M452,373V875L97,373ZM452,0V267H23v95l470,671h82V373H711V267H575V0Z" 
id="f0_o"
transform="scale(0.001,-0.001)" />

<path d="M286,72c0,0,57,0,149,75V407c0,0,-113,-45,-145,-64c0,0,-59,-32,-85,-68c0,0,-25,-36,-25,-78c0,0,0,-54,32,-89c0,0,32,-36,74,-36ZM217,-13c0,0,-71,0,-116,48c0,0,-46,48,-46,127c0,0,0,50,22,87c0,0,31,50,106,95c0,0,76,45,252,109v26c0,0,0,102,-32,140c0,0,-32,38,-94,38c0,0,-47,0,-74,-25c0,0,-28,-25,-28,-58l1,-43c0,0,0,-34,-17,-53c0,0,-18,-18,-47,-18c0,0,-28,0,-45,19c0,0,-18,19,-18,53c0,0,0,64,66,117c0,0,65,54,184,54c0,0,91,0,149,-31c0,0,44,-23,65,-72c0,0,13,-32,13,-131V238c0,0,0,-98,4,-120c0,0,4,-22,12,-29c0,0,9,-8,20,-8c0,0,12,0,21,5c0,0,16,10,61,55V99C676,99,592,-12,516,-12c0,0,-37,0,-58,24c0,0,-22,26,-23,86C435,98,330,17,303,5c0,0,-40,-18,-86,-18Z" 
id="f0_1x"
transform="scale(0.001,-0.001)" />

<path d="M474,-21L174,817c0,0,-34,94,-42,112c0,0,-15,28,-41,42c0,0,-26,14,-70,14v27H395V985H377c0,0,-40,0,-60,-18c0,0,-21,-18,-21,-44c0,0,0,-26,33,-120L528,235L696,718l-30,85l-24,68c0,0,-16,37,-35,66c0,0,-10,14,-24,24c0,0,-19,13,-38,19c0,0,-14,5,-44,5v27H894V985H867c0,0,-41,0,-61,-18c0,0,-19,-18,-19,-49c0,0,0,-38,33,-133L1015,235l193,557c0,0,32,93,32,129c0,0,0,17,-10,32c0,0,-11,15,-28,21c0,0,-28,11,-74,11v27h302V985c0,0,-39,0,-64,-15c0,0,-25,-14,-47,-53c0,0,-15,-26,-47,-124L990,-21H960L729,624L501,-21Z" 
id="f0_1n"
transform="scale(0.001,-0.001)" />

<path d="M17,0V26c0,0,52,0,77,17c0,0,19,12,26,38c0,0,4,13,4,73V419c0,0,0,119,-5,142c0,0,-4,23,-17,33c0,0,-13,11,-33,11c0,0,-23,0,-52,-11l-7,26l207,83h31V549c0,0,86,154,176,154c0,0,41,0,68,-25c0,0,27,-25,27,-58c0,0,0,-29,-20,-49c0,0,-19,-20,-46,-20c0,0,-26,0,-58,25c0,0,-33,26,-48,26c0,0,-14,0,-29,-15c0,0,-34,-30,-70,-101V159c0,0,0,-56,15,-85c0,0,9,-20,34,-34c0,0,24,-14,71,-14V0Z" 
id="f0_2e"
transform="scale(0.001,-0.001)" />

<path d="M255,-10c0,0,-35,0,-68,18c0,0,-32,19,-48,55c0,0,-16,35,-16,109V632H15v24c0,0,41,16,84,56c0,0,43,39,77,92c0,0,17,29,48,104h23V683H407V632H247V188c0,0,0,-66,19,-90c0,0,19,-23,49,-23c0,0,24,0,47,16c0,0,23,15,36,45h29c0,0,-26,-73,-74,-110c0,0,-47,-36,-98,-36Z" 
id="f0_2g"
transform="scale(0.001,-0.001)" />

<path d="M479,469c0,0,-4,66,-16,93c0,0,-18,42,-55,65c0,0,-37,24,-78,24c0,0,-62,0,-111,-48c0,0,-48,-48,-57,-134ZM355,-20c0,0,-123,0,-211,95c0,0,-87,96,-87,258c0,0,0,175,90,273c0,0,89,98,225,98c0,0,115,0,189,-76c0,0,74,-75,74,-202H162c0,0,0,-152,74,-239c0,0,75,-86,175,-86c0,0,67,0,117,36c0,0,50,37,83,127l24,-15c0,0,-16,-102,-91,-186c0,0,-76,-83,-189,-83Z" 
id="f0_21"
transform="scale(0.001,-0.001)" />

<path d="M20,0V26c0,0,45,0,71,15c0,0,15,7,24,28c0,0,9,21,9,85V773c0,0,0,117,-5,144c0,0,-6,27,-17,37c0,0,-12,9,-31,9c0,0,-16,0,-51,-12L10,978l204,83h34V561c0,0,83,91,131,116c0,0,49,26,97,26c0,0,58,0,100,-32c0,0,42,-32,62,-101c0,0,14,-47,14,-174V154c0,0,0,-65,11,-89c0,0,7,-18,25,-28c0,0,18,-11,66,-11V0H418V26h15c0,0,48,0,67,15c0,0,18,15,26,43c0,0,2,12,2,70V396c0,0,0,112,-12,147c0,0,-11,35,-36,53c0,0,-26,17,-61,17c0,0,-37,0,-76,-19c0,0,-40,-20,-95,-79V154c0,0,0,-70,8,-87c0,0,8,-17,29,-29c0,0,22,-12,74,-12V0Z" 
id="f0_24"
transform="scale(0.001,-0.001)" />

<path d="M63,0V26H93c0,0,30,0,54,15c0,0,25,15,34,41c0,0,10,25,10,99V630H58v53H191v45c0,0,0,102,33,173c0,0,32,71,100,114c0,0,68,44,152,44c0,0,79,0,145,-51c0,0,43,-33,43,-75c0,0,0,-22,-19,-42c0,0,-20,-20,-42,-20c0,0,-17,0,-36,12c0,0,-19,13,-47,53c0,0,-28,41,-51,55c0,0,-23,14,-51,14c0,0,-35,0,-58,-18c0,0,-24,-18,-35,-57c0,0,-10,-38,-10,-197V683H491V630H315V181c0,0,0,-96,21,-122c0,0,27,-33,73,-33h62V0Z" 
id="f0_22"
transform="scale(0.001,-0.001)" />

<path d="M406,32c0,0,72,0,119,60c0,0,47,59,47,205c0,0,0,181,-78,286c0,0,-53,71,-135,71c0,0,-40,0,-79,-23c0,0,-40,-24,-65,-83c0,0,-24,-58,-24,-151c0,0,0,-149,59,-257c0,0,59,-108,156,-108ZM374,-20c0,0,-154,0,-245,122c0,0,-77,104,-77,233c0,0,0,94,46,187c0,0,47,92,123,137c0,0,76,44,161,44c0,0,155,0,249,-118c0,0,80,-100,80,-231c0,0,0,-91,-44,-185C667,169,623,75,546,27c0,0,-77,-47,-172,-47Z" 
id="f0_2b"
transform="scale(0.001,-0.001)" />

<path d="M23,0V26c0,0,47,0,66,10c0,0,19,11,28,33c0,0,10,22,10,85V416c0,0,0,112,-7,145c0,0,-5,25,-16,34c0,0,-11,10,-31,10c0,0,-21,0,-50,-11L12,620l207,83h32V557c0,0,75,75,88,86c0,0,34,29,72,44c0,0,39,16,77,16c0,0,64,0,110,-37c0,0,47,-38,62,-109c0,0,77,90,130,118c0,0,53,28,109,28c0,0,54,0,96,-28c0,0,42,-28,67,-91c0,0,16,-43,16,-136V154c0,0,0,-64,10,-88c0,0,8,-16,28,-28c0,0,20,-12,65,-12V0H844V26h14c0,0,44,0,69,18c0,0,17,12,24,38c0,0,3,13,3,72V448c0,0,0,83,-20,117c0,0,-29,48,-93,48c0,0,-39,0,-79,-20c0,0,-40,-19,-97,-73l-1,-8l2,-32V154c0,0,0,-70,8,-87c0,0,7,-17,29,-29c0,0,21,-12,73,-12V0H431V26c0,0,57,0,78,14c0,0,21,13,29,40c0,0,4,13,4,74V448c0,0,0,83,-25,120c0,0,-33,48,-91,48c0,0,-40,0,-80,-22c0,0,-61,-33,-95,-74V154c0,0,0,-67,10,-87c0,0,9,-20,27,-30c0,0,18,-11,74,-11V0Z" 
id="f0_29"
transform="scale(0.001,-0.001)" />

<path d="M292,-20c0,0,-57,0,-100,33c0,0,-42,33,-58,85c0,0,-17,52,-17,148V551c0,0,0,49,-10,68c0,0,-11,18,-31,29c0,0,-19,9,-68,9c-2,0,-4,0,-6,0v26H242V226c0,0,0,-95,33,-125c0,0,33,-30,80,-30c0,0,32,0,73,21c0,0,40,20,96,76V555c0,0,0,59,-21,80c0,0,-22,21,-89,22v26H647V269c0,0,0,-119,6,-145c0,0,6,-27,18,-37c0,0,12,-11,29,-11c0,0,23,0,52,13L763,63L558,-20H524V124C524,124,436,29,390,4c0,0,-47,-24,-98,-24Z" 
id="f0_2h"
transform="scale(0.001,-0.001)" />

<path d="M58,0V26c0,0,47,0,64,10c0,0,18,10,28,32c0,0,9,23,9,86V775c0,0,0,116,-5,142c0,0,-5,27,-17,37c0,0,-11,9,-29,9c0,0,-20,0,-49,-12L46,978l204,83h34V154c0,0,0,-64,9,-85c0,0,9,-21,29,-32c0,0,19,-11,72,-11V0Z" 
id="f0_28"
transform="scale(0.001,-0.001)" />

<path d="M336,-20L117,554c0,0,-21,55,-42,74c0,0,-21,19,-66,29v26H296V657c0,0,-40,-3,-52,-14c0,0,-13,-12,-13,-33c0,0,0,-23,13,-56L390,162L537,481L498,581c0,0,-18,46,-47,63c0,0,-17,11,-61,13v26H716V657c0,0,-54,-2,-77,-20c0,0,-15,-12,-15,-39c0,0,0,-15,6,-30L785,177L929,554c0,0,15,40,15,65c0,0,0,14,-15,25c0,0,-14,12,-57,13v26h216V657c0,0,-65,-10,-95,-89L764,-20H733L563,415L363,-20Z" 
id="f0_2j"
transform="scale(0.001,-0.001)" />

<path d="M411,-239c0,0,134,0,198,48c0,0,64,47,64,100c0,0,0,39,-38,55c0,0,-39,16,-154,19c0,0,-167,5,-258,17c0,0,-35,-37,-53,-70c0,0,-17,-32,-17,-60c0,0,0,-36,43,-62c0,0,74,-47,215,-47ZM380,257c0,0,56,0,93,43c0,0,36,42,36,133c0,0,0,118,-51,185c0,0,-38,49,-98,49c0,0,-55,0,-92,-44c0,0,-37,-44,-37,-135c0,0,0,-117,50,-182c0,0,39,-49,99,-49ZM345,-328c0,0,-144,0,-243,64c0,0,-56,38,-56,78c0,0,0,18,8,36c0,0,13,27,52,76c0,0,5,7,76,80c0,0,-39,23,-55,41c0,0,-16,19,-16,42c0,0,0,26,22,61c0,0,21,35,98,100c0,0,-63,30,-97,85c0,0,-33,55,-33,121c0,0,0,101,76,174c0,0,77,73,196,73c0,0,98,0,170,-48H688c0,0,32,0,37,-2c0,0,6,-2,8,-6c0,0,4,-7,4,-24c0,0,0,-20,-4,-27c0,0,-2,-4,-7,-6c0,0,-6,-2,-38,-2H599c0,0,41,-54,41,-137c0,0,0,-96,-73,-163c0,0,-73,-68,-196,-68c0,0,-51,0,-104,15c0,0,-33,-28,-44,-49c0,0,-12,-22,-12,-37c0,0,0,-12,13,-24c0,0,12,-12,48,-17c0,0,21,-4,104,-6c0,0,154,-4,199,-11c0,0,70,-10,111,-51c0,0,42,-41,42,-102c0,0,0,-84,-79,-158c0,0,-117,-108,-304,-108Z" 
id="f0_23"
transform="scale(0.001,-0.001)" />

<path d="M342,-20c0,0,-116,0,-203,97c0,0,-86,98,-86,264c0,0,0,161,96,261c0,0,95,101,230,101c0,0,100,0,165,-53c0,0,65,-54,65,-111c0,0,0,-29,-18,-46c0,0,-18,-18,-51,-18c0,0,-44,0,-66,29c0,0,-13,15,-17,59c0,0,-4,45,-30,68c0,0,-26,22,-73,22c0,0,-74,0,-120,-55c0,0,-60,-73,-60,-193c0,0,0,-122,60,-216c0,0,60,-93,162,-93c0,0,73,0,131,49c0,0,41,35,80,126l22,-10C629,261,601,125,521,52c0,0,-81,-72,-179,-72Z" 
id="f0_1z"
transform="scale(0.001,-0.001)" />

<path d="M399,62c0,0,68,0,131,68V481c0,0,-5,51,-27,93c0,0,-22,42,-59,63c0,0,-37,21,-72,21c0,0,-65,0,-117,-59c0,0,-67,-77,-67,-226c0,0,0,-151,65,-231c0,0,66,-80,146,-80ZM330,-20c0,0,-112,0,-196,93c0,0,-83,94,-83,240c0,0,0,147,92,269c0,0,93,122,238,122c0,0,90,0,149,-58V773c0,0,0,117,-6,144c0,0,-5,27,-17,37c0,0,-12,9,-30,9c0,0,-20,0,-52,-12l-9,27l204,83h33V270c0,0,0,-120,6,-146c0,0,5,-27,18,-37c0,0,12,-11,28,-11c0,0,21,0,54,13l9,-26L564,-20H530V78C530,78,480,25,432,2c0,0,-47,-22,-102,-22Z" 
id="f0_20"
transform="scale(0.001,-0.001)" />

<path d="M398,24c0,0,74,0,120,58c0,0,61,76,61,214c0,0,0,156,-69,240c0,0,-47,59,-113,59c0,0,-36,0,-71,-18c0,0,-27,-14,-88,-81V242c0,0,0,-83,6,-109c0,0,11,-43,51,-76c0,0,41,-33,103,-33ZM-4,-326v27H15c5,0,42,0,69,16c0,0,14,8,22,26c0,0,7,19,7,94V481c0,0,0,67,-6,85c0,0,-5,18,-18,27c0,0,-13,9,-36,9c0,0,-18,0,-45,-10L0,615l209,85h29V540c0,0,53,91,106,127c0,0,53,36,112,36c0,0,103,0,172,-80c0,0,84,-99,84,-257c0,0,0,-176,-102,-292c0,0,-83,-94,-210,-94c0,0,-55,0,-95,16c0,0,-30,10,-67,44V-167c0,0,0,-71,8,-90c0,0,9,-20,30,-31c0,0,21,-11,77,-11v-27Z" 
id="f0_2c"
transform="scale(0.001,-0.001)" />

<path d="M213,-20c0,0,-34,0,-58,24c0,0,-24,24,-24,58c0,0,0,34,24,58c0,0,24,25,58,25c0,0,35,0,59,-25c0,0,24,-24,24,-58c0,0,0,-34,-24,-58c0,0,-25,-24,-59,-24Zm3,559c0,0,-35,0,-59,24c0,0,-24,24,-24,58c0,0,0,35,24,59c0,0,24,24,59,24c0,0,34,0,58,-24c0,0,24,-24,24,-59c0,0,0,-34,-24,-58c0,0,-24,-24,-58,-24Z" 
id="f0_u"
transform="scale(0.001,-0.001)" />

<path d="M25,0V26c0,0,27,4,47,19c0,0,29,22,96,111L311,346L182,535c0,0,-55,81,-86,102c0,0,-30,20,-75,20v26H341V657c0,0,-30,0,-42,-10c0,0,-13,-11,-13,-28c0,0,0,-19,27,-56c0,0,8,-12,25,-37l48,-78l56,77c0,0,55,74,55,94c0,0,0,16,0,27c0,0,0,11,0,11v26H674V657c0,0,-37,-2,-64,-20c0,0,-37,-26,-100,-111L416,402L587,156c0,0,63,-91,89,-109c0,0,27,-18,70,-21V0H423V26c0,0,34,0,53,15c0,0,14,11,14,28c0,0,0,17,-48,87L341,302L232,157c0,0,-50,-69,-50,-82c0,0,0,-18,17,-32c0,0,17,-15,50,-17V0Z" 
id="f0_2k"
transform="scale(0.001,-0.001)" />

<path d="M145,-328c0,0,-44,0,-73,25c0,0,-28,25,-28,58c0,0,0,31,21,50c0,0,20,19,56,19c0,0,25,0,67,-16c0,0,30,-11,38,-11c0,0,22,0,49,23c0,0,26,23,53,89L376,28L131,542c0,0,-11,24,-36,58c0,0,-19,27,-30,36c0,0,-18,12,-56,21v26H328V657H312c0,0,-33,0,-50,-15c0,0,-17,-14,-17,-36c0,0,0,-30,25,-81L437,179L589,557c0,0,12,31,12,62c0,0,0,13,-5,20c0,0,-6,8,-19,13c0,0,-12,5,-44,5v26H754V657c0,0,-27,-3,-42,-12c0,0,-15,-9,-33,-34c0,0,-7,-10,-25,-58L376,-128c0,0,-40,-99,-105,-150c0,0,-66,-50,-126,-50Z" 
id="f0_2l"
transform="scale(0.001,-0.001)" />

<path d="M412,-328c0,0,-195,96,-303,284C109,-44,0,142,0,365c0,0,0,232,114,422c0,0,114,191,298,273v-31c0,0,-92,-51,-151,-139c0,0,-59,-88,-88,-223c0,0,-29,-136,-29,-282c0,0,0,-167,27,-301c0,0,26,-133,82,-221c0,0,55,-89,159,-159v-32Z" 
id="f1_c"
transform="scale(0.001,-0.001)" />

<path d="M34,-328v32c0,0,92,50,151,138c0,0,59,88,88,222c0,0,29,135,29,283c0,0,0,165,-27,300c0,0,-26,134,-82,222c0,0,-56,89,-159,160v31c0,0,194,-96,303,-284c0,0,108,-187,108,-410c0,0,0,-232,-114,-422c0,0,-114,-191,-297,-272Z" 
id="f1_d"
transform="scale(0.001,-0.001)" />

<path d="M405,24c0,0,65,0,116,62c0,0,51,61,51,174c0,0,0,128,-50,221c0,0,-51,93,-144,93c0,0,-29,0,-61,-12c0,0,-33,-12,-96,-51c0,0,-14,-101,-14,-163c0,0,0,-72,27,-155c0,0,26,-84,79,-134c0,0,38,-35,92,-35ZM384,-17c0,0,-104,0,-177,68C207,51,66,185,66,397c0,0,0,136,54,258c0,0,54,122,156,217c0,0,101,95,193,128c0,0,93,33,172,33h44v-28c0,0,-99,-10,-161,-39c0,0,-62,-29,-123,-90c0,0,-61,-60,-101,-135c0,0,-39,-74,-66,-176c0,0,107,73,215,73c0,0,104,0,180,-83c0,0,76,-84,76,-215c0,0,0,-126,-77,-231c0,0,-92,-126,-244,-126Z" 
id="f0_q"
transform="scale(0.001,-0.001)" />

<path d="M-36,0l10,26c0,0,57,2,76,11c0,0,30,13,44,34c0,0,20,31,48,127L315,809c0,0,22,74,22,116c0,0,0,20,-10,33c0,0,-10,14,-29,21c0,0,-19,7,-75,7l9,26h789L947,757H919c0,0,8,46,8,76c0,0,0,49,-27,78c0,0,-28,29,-70,41c0,0,-30,7,-133,7H489L375,556H511c0,0,90,0,134,28c0,0,44,28,91,118h29L659,334H629c0,0,11,45,11,74c0,0,0,46,-30,71c0,0,-30,25,-112,25H360L270,185c0,0,-24,-76,-24,-100c0,0,0,-26,20,-40c0,0,21,-14,101,-19L358,0Z" 
id="f2_16"
transform="scale(0.001,-0.001)" />

<path d="M187,318c0,0,111,12,181,43c0,0,92,41,138,98c0,0,46,57,46,108c0,0,0,32,-20,51c0,0,-20,20,-56,20c0,0,-77,0,-163,-81c0,0,-85,-81,-126,-239ZM268,-17c0,0,-110,0,-165,68c0,0,-55,69,-55,151c0,0,0,111,69,228c0,0,68,116,172,180c0,0,104,65,213,65c0,0,79,0,118,-32c0,0,38,-32,38,-76c0,0,0,-62,-50,-119c0,0,-65,-73,-191,-119c0,0,-84,-30,-235,-47c0,0,-5,-38,-5,-62c0,0,0,-67,47,-114c0,0,47,-46,114,-46c0,0,54,0,104,22c0,0,50,22,148,97l15,-21C605,158,428,-17,268,-17Z" 
id="f2_21"
transform="scale(0.001,-0.001)" />

<path d="M518,-21c0,0,-124,0,-220,50c0,0,-95,52,-145,146c0,0,-50,94,-50,202c0,0,0,166,88,322c0,0,89,157,244,246c0,0,155,89,312,89c0,0,74,0,166,-34c0,0,40,-15,58,-15c0,0,18,0,31,7c0,0,14,8,45,42h28L999,707H972l-3,82c0,0,-4,45,-17,80c0,0,-14,35,-40,61c0,0,-27,26,-68,40c0,0,-41,15,-91,15c0,0,-134,0,-234,-73c0,0,-127,-94,-199,-264c0,0,-60,-140,-60,-284c0,0,0,-147,86,-234c0,0,86,-88,223,-88c0,0,104,0,185,46c0,0,81,47,151,143h35C940,231,858,100,757,39c0,0,-100,-60,-239,-60Z" 
id="f2_13"
transform="scale(0.001,-0.001)" />

<path d="M714,-21L378,830L198,200c0,0,-20,-72,-20,-111c0,0,0,-28,19,-43c0,0,18,-14,86,-20L276,0H-46l11,26c0,0,59,2,79,10c0,0,30,12,45,32c0,0,22,31,49,117L342,903c0,0,-29,46,-62,63c0,0,-33,17,-104,20l9,26H438L746,229L913,813c0,0,21,73,21,113c0,0,0,28,-19,43c0,0,-19,16,-72,16c0,0,-9,0,-19,1l8,26h325l-9,-26c0,0,-1,0,-2,0c-9,0,-51,-1,-73,-11c0,0,-35,-16,-52,-40c0,0,-24,-35,-49,-123L733,-21Z" 
id="f2_1e"
transform="scale(0.001,-0.001)" />

<path d="M0,-123V1415H525v-72H72V-123Z" 
id="f1_4r"
transform="scale(0.001,-0.001)" />

<path d="M478,-123V1343H26v72H550V-123Z" 
id="f1_57"
transform="scale(0.001,-0.001)" />

<path d="M0,-123V1415H72V-51H525v-72Z" 
id="f1_4t"
transform="scale(0.001,-0.001)" />

<path d="M26,-123v72H478V1415h72V-123Z" 
id="f1_59"
transform="scale(0.001,-0.001)" />

<path d="M397,34c0,0,67,0,126,75c0,0,58,74,58,216c0,0,0,131,-58,201c0,0,-59,70,-133,70c0,0,-39,0,-79,-20c0,0,-29,-14,-75,-59V109c0,0,37,-37,78,-56c0,0,40,-19,83,-19ZM358,-20c0,0,-59,0,-121,21c0,0,-61,22,-126,65V773c0,0,0,117,-5,144c0,0,-6,27,-18,37c0,0,-12,9,-29,9c0,0,-21,0,-53,-12l-9,27l205,83h34V564c0,0,98,139,213,139c0,0,105,0,183,-90c0,0,78,-90,78,-245c0,0,0,-182,-121,-293c0,0,-103,-95,-231,-95Z" 
id="f0_1y"
transform="scale(0.001,-0.001)" />

<path d="M293,20c0,0,105,0,197,156c0,0,92,156,92,317c0,0,0,69,-34,106c0,0,-33,37,-87,37c0,0,-110,0,-202,-157c0,0,-92,-157,-92,-312c0,0,0,-71,36,-109c0,0,36,-38,90,-38ZM276,-17c0,0,-102,0,-167,65c0,0,-64,65,-64,168c0,0,0,110,63,220c0,0,63,111,168,175c0,0,106,64,204,64c0,0,99,0,162,-65c0,0,64,-65,64,-169c0,0,0,-111,-59,-221C647,220,588,111,482,46c0,0,-106,-63,-206,-63Z" 
id="f2_2b"
transform="scale(0.001,-0.001)" />

<path d="M-39,0l10,26c0,0,58,2,77,11c0,0,30,13,44,34c0,0,20,31,48,128L314,811c0,0,21,75,21,114c0,0,0,20,-9,33c0,0,-9,14,-29,21c0,0,-20,7,-77,7l9,26H626l-8,-26c0,0,-1,0,-2,0c-9,0,-51,-1,-72,-11c0,0,-35,-15,-51,-39c0,0,-23,-33,-50,-124L372,560H843l72,251c0,0,21,74,21,114c0,0,0,19,-9,33c0,0,-10,14,-29,21c0,0,-20,7,-76,7l7,26h405l-9,-26h-2c-9,0,-52,-1,-74,-11c0,0,-36,-16,-53,-40c0,0,-25,-35,-50,-124L867,186c0,0,-22,-71,-22,-101c0,0,0,-27,19,-40c0,0,20,-14,95,-19L950,0H563l10,26c0,0,58,2,78,11c0,0,29,13,43,34c0,0,19,30,48,128l88,309H357L266,186c0,0,-22,-70,-22,-101c0,0,0,-27,19,-40c0,0,20,-14,94,-19L351,0Z" 
id="f2_18"
transform="scale(0.001,-0.001)" />

<path d="M122,-17c0,0,-27,0,-45,19C77,2,59,21,59,46c0,0,0,27,25,111L291,859c0,0,25,86,25,98c0,0,0,18,-14,30c0,0,-14,12,-44,12c0,0,-18,0,-53,-6v27l257,42L200,170c0,0,-19,-67,-19,-82c0,0,0,-11,6,-18c0,0,7,-8,16,-8c0,0,13,0,28,13c0,0,35,31,73,98l22,-23C326,150,259,50,202,11c0,0,-42,-28,-80,-28Z" 
id="f2_28"
transform="scale(0.001,-0.001)" />

<path d="M11,-21L94,353h25c0,0,-5,-54,-5,-90c0,0,0,-102,65,-167c0,0,66,-64,171,-64c0,0,98,0,149,60c0,0,51,60,51,138c0,0,0,51,-23,93c0,0,-36,62,-188,217c0,0,-74,75,-95,111c0,0,-35,61,-35,127c0,0,0,106,80,181c0,0,79,75,203,75c0,0,42,0,79,-8c0,0,24,-4,85,-30c0,0,43,-17,48,-19c0,0,10,-2,23,-2c0,0,22,0,37,11c0,0,16,12,37,48h27L751,699H726c0,0,3,45,3,72c0,0,0,90,-60,148c0,0,-60,57,-158,57c0,0,-77,0,-126,-46c0,0,-49,-45,-49,-105c0,0,0,-52,31,-99c0,0,31,-47,143,-154c0,0,112,-107,145,-167c0,0,33,-60,33,-128c0,0,0,-77,-41,-149C647,128,606,57,530,17c0,0,-76,-38,-167,-38c0,0,-45,0,-83,8c0,0,-39,8,-125,39c0,0,-29,11,-48,11c0,0,-44,0,-69,-58Z" 
id="f2_1j"
transform="scale(0.001,-0.001)" />

<path d="M467,25c0,0,68,0,133,34c0,0,65,33,136,115c0,0,89,102,149,260c0,0,61,158,61,296c0,0,0,101,-55,179c0,0,-54,78,-164,78c0,0,-74,0,-146,-37c0,0,-71,-37,-141,-121c0,0,-70,-84,-126,-219c0,0,-69,-167,-69,-316c0,0,0,-105,55,-187c0,0,54,-82,167,-82ZM441,-21c0,0,-117,0,-196,50c0,0,-79,52,-116,137c0,0,-38,85,-38,165c0,0,0,141,68,280c0,0,68,138,163,231c0,0,95,93,202,143c0,0,108,49,229,49c0,0,100,0,178,-43c0,0,77,-44,121,-129c0,0,44,-85,44,-177c0,0,0,-163,-94,-341c0,0,-94,-179,-246,-273c0,0,-153,-92,-315,-92Z" 
id="f2_1f"
transform="scale(0.001,-0.001)" />

<path d="M328,-20c0,0,-34,0,-58,24c0,0,-25,24,-25,58c0,0,0,35,25,59c0,0,24,24,58,24c0,0,34,0,59,-24c0,0,24,-24,24,-59c0,0,0,-34,-25,-58c0,0,-24,-24,-58,-24ZM308,238c0,0,5,94,23,155c0,0,18,62,76,172c0,0,44,84,58,129c0,0,13,46,13,92c0,0,0,95,-50,150c0,0,-50,56,-123,56c0,0,-65,0,-102,-30c0,0,-38,-31,-38,-67c0,0,0,-27,23,-67c0,0,22,-41,22,-62c0,0,0,-26,-17,-45c0,0,-17,-18,-42,-18c0,0,-31,0,-57,31c0,0,-26,31,-26,86c0,0,0,85,73,150c0,0,72,64,196,64c0,0,153,0,225,-89c0,0,54,-66,54,-146c0,0,0,-54,-24,-112c0,0,-25,-57,-92,-135C500,552,391,430,367,378c0,0,-24,-51,-29,-140Z" 
id="f0_z"
transform="scale(0.001,-0.001)" />

<path d="M0,-302V1034H328V970H119V-238H328v-64Z" 
id="f1_1r"
transform="scale(0.001,-0.001)" />

<path d="M56,-302v64H265V970H56v64H384V-302Z" 
id="f1_1t"
transform="scale(0.001,-0.001)" />

<path d="M0,356v74H784V356Z" 
id="f1_h"
transform="scale(0.001,-0.001)" />

<path d="M911,-16L244,799V175c0,0,0,-93,21,-116c0,0,28,-32,86,-32h36V0H36V27H71c0,0,65,0,92,39c0,0,16,24,16,109V879c0,0,-44,52,-67,68c0,0,-23,17,-67,31c0,0,-21,7,-64,7v27H253L873,253V837c0,0,0,93,-21,116c0,0,-28,32,-87,32H730v27h351V985h-36c0,0,-64,0,-91,-39c0,0,-16,-24,-16,-109V-16Z" 
id="f0_1e"
transform="scale(0.001,-0.001)" />

<path d="M275,-20L578,891H299c0,0,-84,0,-120,-20c0,0,-63,-35,-101,-106l-21,8l97,239H696V983L359,-20Z" 
id="f0_r"
transform="scale(0.001,-0.001)" />

<path d="M968,-20c0,0,42,100,87,170c0,0,45,70,144,184H56v73H1199c0,0,-106,122,-148,189c0,0,-43,67,-83,166h60c0,0,87,-108,217,-218c0,0,130,-110,206,-154V349c0,0,-99,-56,-217,-159c0,0,-117,-102,-206,-210Z" 
id="f3_34"
transform="scale(0.001,-0.001)" />

<path d="M-13,-17L32,225H60c0,0,4,-114,47,-161c0,0,42,-47,117,-47c0,0,57,0,90,31c0,0,33,32,33,78c0,0,0,30,-12,55c0,0,-21,45,-87,124c0,0,-67,79,-86,119c0,0,-19,39,-19,79c0,0,0,72,52,122c0,0,53,50,136,50c0,0,24,0,43,-4c0,0,11,-2,49,-17c0,0,39,-15,51,-15c0,0,32,0,54,36h28L510,446H483c0,0,-4,100,-42,146c0,0,-39,46,-97,46c0,0,-46,0,-73,-26c0,0,-28,-25,-28,-61c0,0,0,-25,11,-47c0,0,11,-22,48,-63c0,0,97,-106,125,-159c0,0,29,-54,29,-102c0,0,0,-77,-65,-138c0,0,-65,-59,-164,-59c0,0,-54,0,-124,25c0,0,-25,9,-38,9c0,0,-34,0,-51,-34Z" 
id="f2_2f"
transform="scale(0.001,-0.001)" />

<path d="M289,23c0,0,39,0,79,22c0,0,40,22,78,64c0,0,39,43,69,98c0,0,31,56,55,131c0,0,24,75,24,149c0,0,0,60,-27,91c0,0,-27,32,-64,32c0,0,-81,0,-160,-92c0,0,-78,-93,-114,-217L165,78c0,0,46,-55,124,-55ZM-167,-326l7,27c0,0,70,3,94,24c0,0,24,21,51,116L172,494c0,0,17,61,17,76c0,0,0,20,-12,31c0,0,-11,11,-35,11c0,0,-22,0,-60,-5v30l254,38L286,503c0,0,81,96,145,134c0,0,64,38,130,38c0,0,67,0,114,-53c0,0,47,-52,47,-137c0,0,0,-164,-134,-333C588,152,455,-17,278,-17c0,0,-37,0,-66,8c0,0,-28,9,-64,28L93,-172c0,0,-17,-57,-17,-75c0,0,0,-16,9,-28c0,0,9,-11,28,-18c0,0,19,-6,77,-6l-7,-27Z" 
id="f2_2c"
transform="scale(0.001,-0.001)" />

<path d="M252,70c0,0,90,0,212,168c0,0,123,168,123,294c0,0,0,47,-30,76c0,0,-30,30,-77,30c0,0,-103,0,-214,-156C266,482,155,327,155,185c0,0,0,-56,28,-85c0,0,29,-30,69,-30ZM185,-17c0,0,-63,0,-109,50C76,33,29,83,29,169c0,0,0,111,77,237c0,0,77,126,203,205c0,0,99,64,182,64c0,0,44,0,75,-17c0,0,32,-16,62,-54l71,247c0,0,11,40,18,64c0,0,9,31,9,50c0,0,0,16,-11,27c0,0,-16,13,-40,13c0,0,-17,0,-57,-6v27l255,42L615,170c0,0,-21,-73,-21,-95c0,0,0,-7,4,-13c0,0,4,-6,8,-6c0,0,7,0,16,9c0,0,16,16,56,88l25,-16c0,0,-43,-73,-88,-114c0,0,-44,-40,-83,-40c0,0,-20,0,-35,17c0,0,-16,18,-16,51c0,0,0,42,22,114l29,94C532,259,413,91,315,27c0,0,-68,-44,-130,-44Z" 
id="f2_20"
transform="scale(0.001,-0.001)" />

<path d="M435,92c0,0,86,0,147,69c0,0,60,68,60,186c0,0,0,114,-60,179c0,0,-60,66,-152,66c0,0,-91,0,-154,-66c0,0,-64,-65,-64,-171c0,0,0,-70,30,-133c0,0,29,-64,82,-97c0,0,52,-33,111,-33Zm3,-110c0,0,-168,0,-274,123C164,105,58,228,58,512c0,0,0,317,117,461c0,0,102,125,275,125c0,0,129,0,212,-72c0,0,82,-72,99,-200L627,815c0,0,-18,79,-51,115c0,0,-54,58,-134,58c0,0,-64,0,-113,-36c0,0,-63,-46,-99,-135c0,0,-37,-89,-38,-253c0,0,48,74,118,110c0,0,70,36,147,36c0,0,135,0,229,-99c0,0,94,-99,94,-256c0,0,0,-103,-44,-191C736,164,691,75,614,28c0,0,-78,-46,-176,-46Z" 
id="f4_q"
transform="scale(0.001,-0.001)" />


</defs>
</svg>