<?xml version="1.0" encoding="UTF-8" standalone="no"?>
<!DOCTYPE svg PUBLIC "-//W3C//DTD SVG 1.1//EN"
"http://www.w3.org/Graphics/SVG/1.1/DTD/svg11.dtd">
<svg viewBox="0 0 909 1286" version="1.1" xmlns="http://www.w3.org/2000/svg" xmlns:xlink="http://www.w3.org/1999/xlink">
<defs>
<clipPath id="c0_1"><path d="M117,468.7V447.8H300.3v20.9Z" /></clipPath>
<clipPath id="c1_1"><path d="M707.7,990.5V963h5.1v27.5Z" /></clipPath>
<style type="text/css"><![CDATA[
.g0_1{
fill: none;
stroke: #FFFFFF;
stroke-width: 0.77152777;
stroke-linecap: round;
stroke-linejoin: round;
}
.g1_1{
fill: #1F1A17;
}
]]></style>
</defs>
<path d="M542.7,525l7.5,9.7l5.1,9.5l4.4,9.5l2,7.7l1.1,8.5l1,7l-1,7.4l-2.1,5.9l-2.1,5.7l-3.3,5.6l-3.1,4.9l-3,4.9l-7.5,6.7l-7.2,4.6L524,629.3l-8.5,5.9L505,641.9l-14.7,8.5l-8.2,5.9l-7.4,5.6l-6.2,6.7l-6.4,7.7L458,683l-4.4,7.7l-3.1,7.7l-2,6.7l-3.1,-12.6l-2.1,-11.3L441,669.7V659.1l1,-8.7l2.4,-8.5l3,-4.9l2.1,-3.9l4.1,-3.8l4.4,-3.6l16.7,-12.6l16.7,-9.5L506,594.9l14.9,-8.5l6.2,-4.9l5.3,-6.7l4.2,-6.7l4.1,-7.7l2,-7.7l2.3,-8.5v-9.5L542.7,525" class="g0_1" />
<g fill="#000000" >
<use xlink:href="#f0_1o" transform="matrix(18,0,0,18,241.6,257.9)" />
<use xlink:href="#f0_19" transform="matrix(18,0,0,18,260,257.9)" />
<use xlink:href="#f0_19" transform="matrix(18,0,0,18,267.6,257.9)" />
<use xlink:href="#f0_13" transform="matrix(18,0,0,18,282.6,257.9)" />
<use xlink:href="#f0_12" transform="matrix(18,0,0,18,302.5,257.9)" />
<use xlink:href="#f0_1j" transform="matrix(18,0,0,18,322.3,257.9)" />
<use xlink:href="#f0_15" transform="matrix(18,0,0,18,340.7,257.9)" />
<use xlink:href="#f0_h" transform="matrix(18,0,0,18,365.6,257.9)" />
<use xlink:href="#f0_12" transform="matrix(18,0,0,18,382.2,257.9)" />
<use xlink:href="#f0_1f" transform="matrix(18,0,0,18,402,257.9)" />
<use xlink:href="#f0_11" transform="matrix(18,0,0,18,423.4,257.9)" />
<use xlink:href="#f0_1i" transform="matrix(18,0,0,18,443.3,257.9)" />
<use xlink:href="#f0_14" transform="matrix(18,0,0,18,463.1,257.9)" />
<use xlink:href="#f0_h" transform="matrix(18,0,0,18,490.3,257.9)" />
<use xlink:href="#f0_1d" transform="matrix(18,0,0,18,506.4,257.9)" />
<use xlink:href="#f0_11" transform="matrix(18,0,0,18,529.4,257.9)" />
<use xlink:href="#f0_1i" transform="matrix(18,0,0,18,549.2,257.9)" />
<use xlink:href="#f0_13" transform="matrix(18,0,0,18,569.1,257.9)" />
<use xlink:href="#f0_18" transform="matrix(18,0,0,18,588.9,257.9)" />
<use xlink:href="#f0_h" transform="matrix(18,0,0,18,615.7,257.9)" />
<use xlink:href="#f0_m" transform="matrix(18,0,0,18,631.9,257.9)" />
<use xlink:href="#f0_k" transform="matrix(18,0,0,18,647.2,257.9)" />
<use xlink:href="#f0_l" transform="matrix(18,0,0,18,662.5,257.9)" />
<use xlink:href="#f0_s" transform="matrix(18,0,0,18,677.7,257.9)" />
<use xlink:href="#f0_14" transform="matrix(12,0,0,12,84.3,321)" />
<use xlink:href="#f0_1x" transform="matrix(12,0,0,12,97.5,321)" />
<use xlink:href="#f0_2g" transform="matrix(12,0,0,12,107.8,321)" />
<use xlink:href="#f0_21" transform="matrix(12,0,0,12,114,321)" />
<use xlink:href="#f0_u" transform="matrix(12,0,0,12,124.3,321)" />
<use xlink:href="#f0_l" transform="matrix(12,0,0,12,135.3,321)" />
<use xlink:href="#f0_n" transform="matrix(12,0,0,12,145.6,321)" />
<use xlink:href="#f0_i" transform="matrix(12,0,0,12,155.9,321)" />
<use xlink:href="#f0_k" transform="matrix(12,0,0,12,161,321)" />
<use xlink:href="#f0_n" transform="matrix(12,0,0,12,171.3,321)" />
<use xlink:href="#f0_i" transform="matrix(12,0,0,12,181.5,321)" />
<use xlink:href="#f0_m" transform="matrix(12,0,0,12,186.6,321)" />
<use xlink:href="#f0_k" transform="matrix(12,0,0,12,196.9,321)" />
<use xlink:href="#f0_l" transform="matrix(12,0,0,12,207.2,321)" />
<use xlink:href="#f0_s" transform="matrix(12,0,0,12,217.4,321)" />
<use xlink:href="#f0_13" transform="matrix(13.9,0,0,13.9,349.4,291.6)" />
<use xlink:href="#f0_1f" transform="matrix(13.9,0,0,13.9,364.7,291.6)" />
<use xlink:href="#f0_14" transform="matrix(13.9,0,0,13.9,381.3,291.6)" />
<use xlink:href="#f0_15" transform="matrix(13.9,0,0,13.9,396.6,291.6)" />
<use xlink:href="#f0_c" transform="matrix(13.9,0,0,13.9,417.9,291.6)" />
<use xlink:href="#f0_p" transform="matrix(13.9,0,0,13.9,431.8,291.6)" />
<use xlink:href="#f0_q" transform="matrix(13.9,0,0,13.9,443.6,291.6)" />
<use xlink:href="#f0_j" transform="matrix(13.9,0,0,13.9,455.5,291.6)" />
<use xlink:href="#f0_m" transform="matrix(13.9,0,0,13.9,461.4,291.6)" />
<use xlink:href="#f0_d" transform="matrix(13.9,0,0,13.9,480.4,291.6)" />
<use xlink:href="#f0_1j" transform="matrix(13.9,0,0,13.9,494.7,291.6)" />
<use xlink:href="#f0_15" transform="matrix(13.9,0,0,13.9,508.9,291.6)" />
<use xlink:href="#f0_1k" transform="matrix(13.9,0,0,13.9,523.1,291.6)" />
<use xlink:href="#f0_h" transform="matrix(13.9,0,0,13.9,542.5,291.6)" />
<use xlink:href="#f0_m" transform="matrix(13.9,0,0,13.9,556.8,291.6)" />
<use xlink:href="#f0_13" transform="matrix(13.9,0,0,13.9,346.2,321)" />
<use xlink:href="#f1_24" transform="matrix(13.9,0,0,13.9,361.6,321)" />
<use xlink:href="#f1_21" transform="matrix(13.9,0,0,13.9,374.6,321)" />
<use xlink:href="#f1_29" transform="matrix(13.9,0,0,13.9,386.4,321)" />
<use xlink:href="#f1_25" transform="matrix(13.9,0,0,13.9,405.3,321)" />
<use xlink:href="#f1_2f" transform="matrix(13.9,0,0,13.9,411.2,321)" />
<use xlink:href="#f1_2g" transform="matrix(13.9,0,0,13.9,423,321)" />
<use xlink:href="#f1_2e" transform="matrix(13.9,0,0,13.9,430.1,321)" />
<use xlink:href="#f1_2l" transform="matrix(13.9,0,0,13.9,438.4,321)" />
<use xlink:href="#f0_h" transform="matrix(13.9,0,0,13.9,458.7,321)" />
<use xlink:href="#f0_1j" transform="matrix(13.9,0,0,13.9,474.9,321)" />
<use xlink:href="#f1_2b" transform="matrix(13.9,0,0,13.9,489.1,321)" />
<use xlink:href="#f1_28" transform="matrix(13.9,0,0,13.9,502.1,321)" />
<use xlink:href="#f1_2h" transform="matrix(13.9,0,0,13.9,508,321)" />
<use xlink:href="#f1_2g" transform="matrix(13.9,0,0,13.9,521,321)" />
<use xlink:href="#f1_25" transform="matrix(13.9,0,0,13.9,528,321)" />
<use xlink:href="#f1_2b" transform="matrix(13.9,0,0,13.9,533.9,321)" />
<use xlink:href="#f1_2a" transform="matrix(13.9,0,0,13.9,546.9,321)" />
<use xlink:href="#f1_2f" transform="matrix(13.9,0,0,13.9,559.9,321)" />
<use xlink:href="#f2_l" transform="matrix(12,0,0,12,64.9,394.7)" />
<use xlink:href="#f2_i" transform="matrix(12,0,0,12,74.1,394.7)" />
<use xlink:href="#f2_1n" transform="matrix(12,0,0,12,117,394.7)" />
<use xlink:href="#f2_2e" transform="matrix(12,0,0,12,132.7,394.7)" />
<use xlink:href="#f2_25" transform="matrix(12,0,0,12,138.6,394.7)" />
<use xlink:href="#f2_2g" transform="matrix(12,0,0,12,143,394.7)" />
<use xlink:href="#f2_21" transform="matrix(12,0,0,12,148.2,394.7)" />
<use xlink:href="#f2_2g" transform="matrix(12,0,0,12,159.2,394.7)" />
<use xlink:href="#f2_24" transform="matrix(12,0,0,12,164.7,394.7)" />
<use xlink:href="#f2_21" transform="matrix(12,0,0,12,173.2,394.7)" />
<use xlink:href="#f2_19" transform="matrix(12,0,0,12,183.8,394.7)" />
<use xlink:href="#f2_1l" transform="matrix(12,0,0,12,190.1,394.7)" />
<use xlink:href="#f2_1g" transform="matrix(12,0,0,12,202.9,394.7)" />
<use xlink:href="#f2_11" transform="matrix(12,0,0,12,211,394.7)" />
<use xlink:href="#f2_13" transform="matrix(12,0,0,12,223.5,394.7)" />
<use xlink:href="#f2_2a" transform="matrix(12,0,0,12,238.9,394.7)" />
<use xlink:href="#f2_1x" transform="matrix(12,0,0,12,247.4,394.7)" />
<use xlink:href="#f2_29" transform="matrix(12,0,0,12,255.1,394.7)" />
<use xlink:href="#f2_21" transform="matrix(12,0,0,12,268.3,394.7)" />
<use xlink:href="#f2_2b" transform="matrix(12,0,0,12,279.7,394.7)" />
<use xlink:href="#f2_22" transform="matrix(12,0,0,12,288.9,394.7)" />
<use xlink:href="#f2_2g" transform="matrix(12,0,0,12,297.7,394.7)" />
<use xlink:href="#f2_24" transform="matrix(12,0,0,12,302.8,394.7)" />
<use xlink:href="#f2_21" transform="matrix(12,0,0,12,311.3,394.7)" />
<use xlink:href="#f2_22" transform="matrix(12,0,0,12,322.3,394.7)" />
<use xlink:href="#f2_2b" transform="matrix(12,0,0,12,327.5,394.7)" />
<use xlink:href="#f2_28" transform="matrix(12,0,0,12,336.6,394.7)" />
<use xlink:href="#f2_28" transform="matrix(12,0,0,12,340.7,394.7)" />
<use xlink:href="#f2_2b" transform="matrix(12,0,0,12,345.1,394.7)" />
<use xlink:href="#f2_2j" transform="matrix(12,0,0,12,354.3,394.7)" />
<use xlink:href="#f2_25" transform="matrix(12,0,0,12,367.1,394.7)" />
<use xlink:href="#f2_2a" transform="matrix(12,0,0,12,371.2,394.7)" />
<use xlink:href="#f2_23" transform="matrix(12,0,0,12,380,394.7)" />
<use xlink:href="#f2_u" transform="matrix(12,0,0,12,392.1,394.7)" />
</g>
<g clip-path="url(#c0_1)">
<g fill="#1F1A17" >
<use xlink:href="#f2_13" transform="matrix(12,0,0,12,118.8,464.3)" />
<use xlink:href="#f2_18" transform="matrix(12,0,0,12,130.9,464.3)" />
<use xlink:href="#f2_4z" transform="matrix(12,0,0,12,153.3,464.3)" />
<use xlink:href="#f2_13" transform="matrix(12,0,0,12,176.4,464.3)" />
<use xlink:href="#f2_13" transform="matrix(12,0,0,12,216.4,464.3)" />
<use xlink:href="#f2_18" transform="matrix(12,0,0,12,228.5,464.3)" />
<use xlink:href="#f2_13" transform="matrix(12,0,0,12,269.5,464.3)" />
<use xlink:href="#f2_18" transform="matrix(12,0,0,12,281.7,464.3)" />
</g>
</g>
<g fill="#1F1A17" >
<use xlink:href="#f2_n" transform="matrix(6,0,0,6,144.1,468)" />
<use xlink:href="#f2_n" transform="matrix(6,0,0,6,294.8,468)" />
<use xlink:href="#f2_4z" transform="matrix(12,0,0,12,192.9,464.3)" />
<use xlink:href="#f2_4z" transform="matrix(12,0,0,12,246.4,464.3)" />
<use xlink:href="#f2_13" transform="matrix(12,0,0,12,176,420)" />
<use xlink:href="#f2_18" transform="matrix(12,0,0,12,188.1,420)" />
<use xlink:href="#f2_n" transform="matrix(6,0,0,6,201.3,423.6)" />
</g>
<path d="M181.6,447.6h1.5V424.1h-1.5v23.5Z" class="g1_1" />
<path d="M182,491.4h1.8V468.2H182v23.2Z" class="g1_1" />
<g fill="#1F1A17" >
<use xlink:href="#f2_13" transform="matrix(12,0,0,12,177.1,508.3)" />
<use xlink:href="#f2_18" transform="matrix(12,0,0,12,194,508.3)" />
<use xlink:href="#f2_m" transform="matrix(6,0,0,6,189.2,512)" />
<use xlink:href="#f2_p" transform="matrix(6,0,0,6,207.5,512)" />
</g>
<path d="M222.4,491.4h1.5V468.2h-1.5v23.2Z" class="g1_1" />
<g fill="#1F1A17" >
<use xlink:href="#f2_1f" transform="matrix(12,0,0,12,218.2,507.2)" />
<use xlink:href="#f2_18" transform="matrix(12,0,0,12,231.4,507.2)" />
</g>
<g fill="#000000" >
<use xlink:href="#f2_11" transform="matrix(12,0,0,12,64.9,534)" />
<use xlink:href="#f2_2a" transform="matrix(12,0,0,12,77.4,534)" />
<use xlink:href="#f2_2f" transform="matrix(12,0,0,12,85.8,534)" />
<use xlink:href="#f2_i" transform="matrix(12,0,0,12,92.4,534)" />
</g>
<g fill="#1F1A17" >
<use xlink:href="#f2_13" transform="matrix(12,0,0,12,118.4,603.7)" />
<use xlink:href="#f2_18" transform="matrix(12,0,0,12,130.9,603.7)" />
<use xlink:href="#f2_4z" transform="matrix(12,0,0,12,153.3,603.7)" />
<use xlink:href="#f2_13" transform="matrix(12,0,0,12,176,603.7)" />
<use xlink:href="#f2_13" transform="matrix(12,0,0,12,215.9,603.7)" />
<use xlink:href="#f2_18" transform="matrix(12,0,0,12,228,603.7)" />
<use xlink:href="#f2_13" transform="matrix(12,0,0,12,268.7,603.7)" />
<use xlink:href="#f2_18" transform="matrix(12,0,0,12,281.2,603.7)" />
<use xlink:href="#f2_n" transform="matrix(6,0,0,6,144.1,607.3)" />
<use xlink:href="#f2_n" transform="matrix(6,0,0,6,294.4,607.3)" />
<use xlink:href="#f2_4z" transform="matrix(12,0,0,12,192.9,603.7)" />
<use xlink:href="#f2_4z" transform="matrix(12,0,0,12,245.7,603.7)" />
<use xlink:href="#f2_13" transform="matrix(12,0,0,12,175.6,559.3)" />
<use xlink:href="#f2_18" transform="matrix(12,0,0,12,188.1,559.3)" />
<use xlink:href="#f2_n" transform="matrix(6,0,0,6,201.3,563)" />
</g>
<path d="M181.1,586.8H183V563.3h-1.9v23.5Z" class="g1_1" />
<path d="M181.9,630.4h1.4V607.3h-1.4v23.1Z" class="g1_1" />
<g fill="#1F1A17" >
<use xlink:href="#f2_13" transform="matrix(12,0,0,12,177.1,647.7)" />
<use xlink:href="#f2_18" transform="matrix(12,0,0,12,189.2,647.7)" />
<use xlink:href="#f2_4z" transform="matrix(12,0,0,12,207.2,647.7)" />
<use xlink:href="#f2_13" transform="matrix(12,0,0,12,225.5,647.7)" />
<use xlink:href="#f2_18" transform="matrix(12,0,0,12,237.6,647.7)" />
<use xlink:href="#f2_m" transform="matrix(6,0,0,6,202.4,651.3)" />
<use xlink:href="#f2_n" transform="matrix(6,0,0,6,250.8,651.3)" />
</g>
<path d="M221.8,586.4h1.5V563.3h-1.5v23.1Z" class="g1_1" />
<g fill="#1F1A17" >
<use xlink:href="#f2_1f" transform="matrix(12,0,0,12,216.3,560.4)" />
<use xlink:href="#f2_18" transform="matrix(12,0,0,12,229.5,560.4)" />
<use xlink:href="#f2_l" transform="matrix(10.8,0,0,11,271.3,589)" />
<use xlink:href="#f2_m" transform="matrix(10.8,0,0,11,219.3,619.4)" />
<use xlink:href="#f2_n" transform="matrix(10.8,0,0,11,187,586.8)" />
<use xlink:href="#f2_o" transform="matrix(10.8,0,0,11,167.9,657.6)" />
<use xlink:href="#f2_p" transform="matrix(10.8,0,0,11,226.6,662.7)" />
<use xlink:href="#f2_n" transform="matrix(12,0,0,12,342.5,604)" />
<use xlink:href="#f2_g" transform="matrix(12,0,0,12,351.6,604)" />
<use xlink:href="#f2_n" transform="matrix(12,0,0,12,356,604)" />
<use xlink:href="#f2_h" transform="matrix(12,0,0,12,365.2,604)" />
<use xlink:href="#f2_20" transform="matrix(12,0,0,12,371.4,604)" />
<use xlink:href="#f2_25" transform="matrix(12,0,0,12,380.6,604)" />
<use xlink:href="#f2_29" transform="matrix(12,0,0,12,385.7,604)" />
<use xlink:href="#f2_21" transform="matrix(12,0,0,12,400,604)" />
<use xlink:href="#f2_2g" transform="matrix(12,0,0,12,408.1,604)" />
<use xlink:href="#f2_24" transform="matrix(12,0,0,12,413.2,604)" />
<use xlink:href="#f2_2l" transform="matrix(12,0,0,12,422.4,604)" />
<use xlink:href="#f2_28" transform="matrix(12,0,0,12,431.5,604)" />
<use xlink:href="#f2_2c" transform="matrix(12,0,0,12,436.6,604)" />
<use xlink:href="#f2_21" transform="matrix(12,0,0,12,445.8,604)" />
<use xlink:href="#f2_2a" transform="matrix(12,0,0,12,453.9,604)" />
<use xlink:href="#f2_2g" transform="matrix(12,0,0,12,463,604)" />
<use xlink:href="#f2_1x" transform="matrix(12,0,0,12,468.2,604)" />
<use xlink:href="#f2_2a" transform="matrix(12,0,0,12,476.2,604)" />
<use xlink:href="#f2_h" transform="matrix(12,0,0,12,485.4,604)" />
<use xlink:href="#f2_m" transform="matrix(12,0,0,12,491.6,604)" />
<use xlink:href="#f2_h" transform="matrix(12,0,0,12,500.8,604)" />
<use xlink:href="#f2_2b" transform="matrix(12,0,0,12,506.6,604)" />
<use xlink:href="#f2_28" transform="matrix(12,0,0,12,515.8,604)" />
</g>
<g fill="#000000" >
<use xlink:href="#f2_m" transform="matrix(12,0,0,12,64.9,737.9)" />
<use xlink:href="#f2_i" transform="matrix(12,0,0,12,74.1,737.9)" />
<use xlink:href="#f2_1f" transform="matrix(12,0,0,12,117,737.9)" />
<use xlink:href="#f2_2h" transform="matrix(12,0,0,12,129.8,737.9)" />
<use xlink:href="#f2_2g" transform="matrix(12,0,0,12,139,737.9)" />
<use xlink:href="#f2_2b" transform="matrix(12,0,0,12,147.8,737.9)" />
<use xlink:href="#f2_22" transform="matrix(12,0,0,12,157,737.9)" />
<use xlink:href="#f2_1z" transform="matrix(12,0,0,12,165.8,737.9)" />
<use xlink:href="#f2_24" transform="matrix(12,0,0,12,173.5,737.9)" />
<use xlink:href="#f2_28" transform="matrix(12,0,0,12,182.3,737.9)" />
<use xlink:href="#f2_2b" transform="matrix(12,0,0,12,186.4,737.9)" />
<use xlink:href="#f2_2e" transform="matrix(12,0,0,12,195.5,737.9)" />
<use xlink:href="#f2_2b" transform="matrix(12,0,0,12,201.8,737.9)" />
<use xlink:href="#f2_1y" transform="matrix(12,0,0,12,210.9,737.9)" />
<use xlink:href="#f2_21" transform="matrix(12,0,0,12,219.8,737.9)" />
<use xlink:href="#f2_2a" transform="matrix(12,0,0,12,227.5,737.9)" />
<use xlink:href="#f2_2m" transform="matrix(12,0,0,12,236.3,737.9)" />
<use xlink:href="#f2_21" transform="matrix(12,0,0,12,244,737.9)" />
<use xlink:href="#f2_2a" transform="matrix(12,0,0,12,251.7,737.9)" />
<use xlink:href="#f2_21" transform="matrix(12,0,0,12,260.5,737.9)" />
<use xlink:href="#f2_1x" transform="matrix(12,0,0,12,271.6,737.9)" />
<use xlink:href="#f2_2a" transform="matrix(12,0,0,12,279.3,737.9)" />
<use xlink:href="#f2_20" transform="matrix(12,0,0,12,287.7,737.9)" />
<use xlink:href="#f2_1y" transform="matrix(12,0,0,12,300.2,737.9)" />
<use xlink:href="#f2_21" transform="matrix(12,0,0,12,309,737.9)" />
<use xlink:href="#f2_2a" transform="matrix(12,0,0,12,316.8,737.9)" />
<use xlink:href="#f2_2m" transform="matrix(12,0,0,12,325.2,737.9)" />
<use xlink:href="#f2_2l" transform="matrix(12,0,0,12,333.3,737.9)" />
<use xlink:href="#f2_28" transform="matrix(12,0,0,12,341.4,737.9)" />
<use xlink:href="#f2_1z" transform="matrix(12,0,0,12,349.1,737.9)" />
<use xlink:href="#f2_24" transform="matrix(12,0,0,12,356.8,737.9)" />
<use xlink:href="#f2_28" transform="matrix(12,0,0,12,365.6,737.9)" />
<use xlink:href="#f2_2b" transform="matrix(12,0,0,12,369.7,737.9)" />
<use xlink:href="#f2_2e" transform="matrix(12,0,0,12,379.2,737.9)" />
<use xlink:href="#f2_25" transform="matrix(12,0,0,12,385.1,737.9)" />
<use xlink:href="#f2_20" transform="matrix(12,0,0,12,389.2,737.9)" />
<use xlink:href="#f2_21" transform="matrix(12,0,0,12,398.3,737.9)" />
<use xlink:href="#f2_g" transform="matrix(12,0,0,12,406,737.9)" />
<use xlink:href="#f2_2j" transform="matrix(12,0,0,12,414.1,737.9)" />
<use xlink:href="#f2_24" transform="matrix(12,0,0,12,427,737.9)" />
<use xlink:href="#f2_25" transform="matrix(12,0,0,12,435.8,737.9)" />
<use xlink:href="#f2_1z" transform="matrix(12,0,0,12,439.8,737.9)" />
<use xlink:href="#f2_24" transform="matrix(12,0,0,12,447.9,737.9)" />
<use xlink:href="#f2_2b" transform="matrix(12,0,0,12,459.7,737.9)" />
<use xlink:href="#f2_2a" transform="matrix(12,0,0,12,468.9,737.9)" />
<use xlink:href="#f2_21" transform="matrix(12,0,0,12,477.3,737.9)" />
<use xlink:href="#f2_23" transform="matrix(12,0,0,12,488.7,737.9)" />
<use xlink:href="#f2_21" transform="matrix(12,0,0,12,497.9,737.9)" />
<use xlink:href="#f2_2g" transform="matrix(12,0,0,12,505.6,737.9)" />
<use xlink:href="#f2_2f" transform="matrix(12,0,0,12,510.7,737.9)" />
<use xlink:href="#f2_21" transform="matrix(12,0,0,12,521,737.9)" />
<use xlink:href="#f2_1x" transform="matrix(12,0,0,12,529.1,737.9)" />
<use xlink:href="#f2_2f" transform="matrix(12,0,0,12,536.8,737.9)" />
<use xlink:href="#f2_25" transform="matrix(12,0,0,12,543.4,737.9)" />
<use xlink:href="#f2_28" transform="matrix(12,0,0,12,547.9,737.9)" />
<use xlink:href="#f2_2l" transform="matrix(12,0,0,12,551.9,737.9)" />
<use xlink:href="#f2_24" transform="matrix(12,0,0,12,563.7,737.9)" />
<use xlink:href="#f2_2l" transform="matrix(12,0,0,12,572.1,737.9)" />
<use xlink:href="#f2_20" transform="matrix(12,0,0,12,580.6,737.9)" />
<use xlink:href="#f2_2e" transform="matrix(12,0,0,12,589.4,737.9)" />
<use xlink:href="#f2_2b" transform="matrix(12,0,0,12,595.6,737.9)" />
<use xlink:href="#f2_28" transform="matrix(12,0,0,12,604.8,737.9)" />
<use xlink:href="#f2_2l" transform="matrix(12,0,0,12,608.8,737.9)" />
<use xlink:href="#f2_2f" transform="matrix(12,0,0,12,617.3,737.9)" />
<use xlink:href="#f2_21" transform="matrix(12,0,0,12,623.9,737.9)" />
<use xlink:href="#f2_20" transform="matrix(12,0,0,12,632,737.9)" />
<use xlink:href="#f2_1y" transform="matrix(12,0,0,12,644.1,737.9)" />
<use xlink:href="#f2_2l" transform="matrix(12,0,0,12,652.6,737.9)" />
<use xlink:href="#f2_1x" transform="matrix(12,0,0,12,664.3,737.9)" />
<use xlink:href="#f2_2d" transform="matrix(12,0,0,12,672.1,737.9)" />
<use xlink:href="#f2_2h" transform="matrix(12,0,0,12,681.2,737.9)" />
<use xlink:href="#f2_21" transform="matrix(12,0,0,12,690,737.9)" />
<use xlink:href="#f2_2b" transform="matrix(12,0,0,12,697.8,737.9)" />
<use xlink:href="#f2_2h" transform="matrix(12,0,0,12,707.3,737.9)" />
<use xlink:href="#f2_2f" transform="matrix(12,0,0,12,716.1,737.9)" />
<use xlink:href="#f3_1e" transform="matrix(12,0,0,12,725.3,737.9)" />
<use xlink:href="#f3_1x" transform="matrix(12,0,0,12,737,737.9)" />
<use xlink:href="#f3_1f" transform="matrix(12,0,0,12,746.2,737.9)" />
<use xlink:href="#f3_18" transform="matrix(12,0,0,12,759,737.9)" />
<use xlink:href="#f2_1x" transform="matrix(12,0,0,12,775.5,737.9)" />
<use xlink:href="#f2_2a" transform="matrix(12,0,0,12,783.6,737.9)" />
<use xlink:href="#f2_20" transform="matrix(12,0,0,12,792.1,737.9)" />
<use xlink:href="#f2_2j" transform="matrix(12,0,0,12,804.2,737.9)" />
<use xlink:href="#f2_24" transform="matrix(12,0,0,12,817,737.9)" />
<use xlink:href="#f2_2l" transform="matrix(12,0,0,12,825.5,737.9)" />
<use xlink:href="#f2_z" transform="matrix(12,0,0,12,837.3,737.9)" />
<use xlink:href="#f2_11" transform="matrix(12,0,0,12,64.9,766.8)" />
<use xlink:href="#f2_2a" transform="matrix(12,0,0,12,77.4,766.8)" />
<use xlink:href="#f2_2f" transform="matrix(12,0,0,12,85.8,766.8)" />
<use xlink:href="#f2_i" transform="matrix(12,0,0,12,92.4,766.8)" />
<use xlink:href="#f2_12" transform="matrix(12,0,0,12,117,766.8)" />
<use xlink:href="#f2_21" transform="matrix(12,0,0,12,128.7,766.8)" />
<use xlink:href="#f2_2a" transform="matrix(12,0,0,12,136.8,766.8)" />
<use xlink:href="#f2_2m" transform="matrix(12,0,0,12,145.2,766.8)" />
<use xlink:href="#f2_2l" transform="matrix(12,0,0,12,153,766.8)" />
<use xlink:href="#f2_28" transform="matrix(12,0,0,12,161.4,766.8)" />
<use xlink:href="#f2_1z" transform="matrix(12,0,0,12,168.8,766.8)" />
<use xlink:href="#f2_24" transform="matrix(12,0,0,12,176.9,766.8)" />
<use xlink:href="#f2_28" transform="matrix(12,0,0,12,185.3,766.8)" />
<use xlink:href="#f2_2b" transform="matrix(12,0,0,12,189.7,766.8)" />
<use xlink:href="#f2_2e" transform="matrix(12,0,0,12,198.9,766.8)" />
<use xlink:href="#f2_25" transform="matrix(12,0,0,12,204.8,766.8)" />
<use xlink:href="#f2_20" transform="matrix(12,0,0,12,209.2,766.8)" />
<use xlink:href="#f2_21" transform="matrix(12,0,0,12,218,766.8)" />
<use xlink:href="#f2_2j" transform="matrix(12,0,0,12,229.4,766.8)" />
<use xlink:href="#f2_25" transform="matrix(12,0,0,12,242.3,766.8)" />
<use xlink:href="#f2_28" transform="matrix(12,0,0,12,246.3,766.8)" />
<use xlink:href="#f2_28" transform="matrix(12,0,0,12,250.7,766.8)" />
<use xlink:href="#f2_23" transform="matrix(12,0,0,12,257.7,766.8)" />
<use xlink:href="#f2_21" transform="matrix(12,0,0,12,266.9,766.8)" />
<use xlink:href="#f2_2g" transform="matrix(12,0,0,12,274.6,766.8)" />
<use xlink:href="#f2_21" transform="matrix(12,0,0,12,283.4,766.8)" />
<use xlink:href="#f2_1x" transform="matrix(12,0,0,12,291.2,766.8)" />
<use xlink:href="#f2_2f" transform="matrix(12,0,0,12,299.2,766.8)" />
<use xlink:href="#f2_25" transform="matrix(12,0,0,12,305.9,766.8)" />
<use xlink:href="#f2_28" transform="matrix(12,0,0,12,309.9,766.8)" />
<use xlink:href="#f2_2l" transform="matrix(12,0,0,12,314.3,766.8)" />
<use xlink:href="#f2_24" transform="matrix(12,0,0,12,325.7,766.8)" />
<use xlink:href="#f2_2l" transform="matrix(12,0,0,12,334.5,766.8)" />
<use xlink:href="#f2_20" transform="matrix(12,0,0,12,342.6,766.8)" />
<use xlink:href="#f2_2e" transform="matrix(12,0,0,12,351.4,766.8)" />
<use xlink:href="#f2_2b" transform="matrix(12,0,0,12,357.7,766.8)" />
<use xlink:href="#f2_28" transform="matrix(12,0,0,12,366.8,766.8)" />
<use xlink:href="#f2_2l" transform="matrix(12,0,0,12,371.3,766.8)" />
<use xlink:href="#f2_2f" transform="matrix(12,0,0,12,379.3,766.8)" />
<use xlink:href="#f2_21" transform="matrix(12,0,0,12,386,766.8)" />
<use xlink:href="#f2_20" transform="matrix(12,0,0,12,394,766.8)" />
<use xlink:href="#f2_1x" transform="matrix(12,0,0,12,406.2,766.8)" />
<use xlink:href="#f2_2f" transform="matrix(12,0,0,12,414.3,766.8)" />
<use xlink:href="#f2_2g" transform="matrix(12,0,0,12,423.8,766.8)" />
<use xlink:href="#f2_24" transform="matrix(12,0,0,12,429.3,766.8)" />
<use xlink:href="#f2_21" transform="matrix(12,0,0,12,437.8,766.8)" />
<use xlink:href="#f2_24" transform="matrix(12,0,0,12,449.2,766.8)" />
<use xlink:href="#f2_1x" transform="matrix(12,0,0,12,457.6,766.8)" />
<use xlink:href="#f2_28" transform="matrix(12,0,0,12,465.7,766.8)" />
<use xlink:href="#f2_2b" transform="matrix(12,0,0,12,469.8,766.8)" />
<use xlink:href="#f2_23" transform="matrix(12,0,0,12,478.9,766.8)" />
<use xlink:href="#f2_21" transform="matrix(12,0,0,12,488.1,766.8)" />
<use xlink:href="#f2_2a" transform="matrix(12,0,0,12,495.8,766.8)" />
<use xlink:href="#f2_25" transform="matrix(12,0,0,12,507.9,766.8)" />
<use xlink:href="#f2_2f" transform="matrix(12,0,0,12,512,766.8)" />
<use xlink:href="#f2_1x" transform="matrix(12,0,0,12,522.3,766.8)" />
<use xlink:href="#f2_2g" transform="matrix(12,0,0,12,530,766.8)" />
<use xlink:href="#f2_2g" transform="matrix(12,0,0,12,535.1,766.8)" />
<use xlink:href="#f2_1x" transform="matrix(12,0,0,12,540.6,766.8)" />
<use xlink:href="#f2_1z" transform="matrix(12,0,0,12,548.4,766.8)" />
<use xlink:href="#f2_24" transform="matrix(12,0,0,12,556.4,766.8)" />
<use xlink:href="#f2_21" transform="matrix(12,0,0,12,564.9,766.8)" />
<use xlink:href="#f2_20" transform="matrix(12,0,0,12,572.6,766.8)" />
<use xlink:href="#f2_2g" transform="matrix(12,0,0,12,585.1,766.8)" />
<use xlink:href="#f2_2b" transform="matrix(12,0,0,12,590.2,766.8)" />
<use xlink:href="#f2_l" transform="matrix(12,0,0,12,602.7,766.8)" />
<use xlink:href="#f2_3o" transform="matrix(12,0,0,12,611.5,766.8)" />
<use xlink:href="#f2_1z" transform="matrix(12,0,0,12,621.8,766.8)" />
<use xlink:href="#f2_1x" transform="matrix(12,0,0,12,629.5,766.8)" />
<use xlink:href="#f2_2e" transform="matrix(12,0,0,12,637.6,766.8)" />
<use xlink:href="#f2_1y" transform="matrix(12,0,0,12,643.5,766.8)" />
<use xlink:href="#f2_2b" transform="matrix(12,0,0,12,652.3,766.8)" />
<use xlink:href="#f2_2a" transform="matrix(12,0,0,12,661.5,766.8)" />
<use xlink:href="#f2_1x" transform="matrix(12,0,0,12,673.6,766.8)" />
<use xlink:href="#f2_2g" transform="matrix(12,0,0,12,681.3,766.8)" />
<use xlink:href="#f2_2b" transform="matrix(12,0,0,12,686.5,766.8)" />
<use xlink:href="#f2_29" transform="matrix(12,0,0,12,696,766.8)" />
<use xlink:href="#f2_i" transform="matrix(12,0,0,12,709.2,766.8)" />
<use xlink:href="#f2_n" transform="matrix(12,0,0,12,64.9,844.6)" />
<use xlink:href="#f2_i" transform="matrix(12,0,0,12,74.1,844.6)" />
<use xlink:href="#f3_13" transform="matrix(12,0,0,12,117,844.6)" />
<use xlink:href="#f3_1f" transform="matrix(12,0,0,12,128.7,844.6)" />
<use xlink:href="#f2_c" transform="matrix(12,0,0,12,141.9,844.6)" />
<use xlink:href="#f3_23" transform="matrix(12,0,0,12,148.1,844.6)" />
<use xlink:href="#f2_d" transform="matrix(12,0,0,12,156.9,844.6)" />
<use xlink:href="#f2_1x" transform="matrix(12,0,0,12,166.5,844.6)" />
<use xlink:href="#f2_2a" transform="matrix(12,0,0,12,174.2,844.6)" />
<use xlink:href="#f2_20" transform="matrix(12,0,0,12,183,844.6)" />
<use xlink:href="#f3_18" transform="matrix(12,0,0,12,195.4,844.6)" />
<use xlink:href="#f2_m" transform="matrix(7,0,0,7,208.3,850.8)" />
<use xlink:href="#f2_c" transform="matrix(12,0,0,12,213.4,844.6)" />
<use xlink:href="#f3_23" transform="matrix(12,0,0,12,219.3,844.6)" />
<use xlink:href="#f2_d" transform="matrix(12,0,0,12,228.4,844.6)" />
<use xlink:href="#f2_2e" transform="matrix(12,0,0,12,238,844.6)" />
<use xlink:href="#f2_21" transform="matrix(12,0,0,12,243.9,844.6)" />
<use xlink:href="#f2_1x" transform="matrix(12,0,0,12,252,844.6)" />
<use xlink:href="#f2_1z" transform="matrix(12,0,0,12,259.7,844.6)" />
<use xlink:href="#f2_2g" transform="matrix(12,0,0,12,267.4,844.6)" />
<use xlink:href="#f2_2g" transform="matrix(12,0,0,12,275.9,844.6)" />
<use xlink:href="#f2_2b" transform="matrix(12,0,0,12,281.3,844.6)" />
<use xlink:href="#f2_23" transform="matrix(12,0,0,12,294.2,844.6)" />
<use xlink:href="#f2_25" transform="matrix(12,0,0,12,303,844.6)" />
<use xlink:href="#f2_2i" transform="matrix(12,0,0,12,307.1,844.6)" />
<use xlink:href="#f2_21" transform="matrix(12,0,0,12,315.9,844.6)" />
<use xlink:href="#f2_20" transform="matrix(12,0,0,12,327.3,844.6)" />
<use xlink:href="#f2_25" transform="matrix(12,0,0,12,336.1,844.6)" />
<use xlink:href="#f2_22" transform="matrix(12,0,0,12,340.2,844.6)" />
<use xlink:href="#f2_22" transform="matrix(12,0,0,12,345.7,844.6)" />
<use xlink:href="#f2_21" transform="matrix(12,0,0,12,350.8,844.6)" />
<use xlink:href="#f2_2e" transform="matrix(12,0,0,12,358.9,844.6)" />
<use xlink:href="#f2_21" transform="matrix(12,0,0,12,364.8,844.6)" />
<use xlink:href="#f2_2a" transform="matrix(12,0,0,12,372.9,844.6)" />
<use xlink:href="#f2_2g" transform="matrix(12,0,0,12,381.3,844.6)" />
<use xlink:href="#f2_2c" transform="matrix(12,0,0,12,390.1,844.6)" />
<use xlink:href="#f2_2e" transform="matrix(12,0,0,12,399,844.6)" />
<use xlink:href="#f2_2b" transform="matrix(12,0,0,12,405.2,844.6)" />
<use xlink:href="#f2_20" transform="matrix(12,0,0,12,414.3,844.6)" />
<use xlink:href="#f2_2h" transform="matrix(12,0,0,12,423.2,844.6)" />
<use xlink:href="#f2_1z" transform="matrix(12,0,0,12,432.3,844.6)" />
<use xlink:href="#f2_2g" transform="matrix(12,0,0,12,440,844.6)" />
<use xlink:href="#f2_2f" transform="matrix(12,0,0,12,445.5,844.6)" />
<use xlink:href="#f2_25" transform="matrix(12,0,0,12,455.5,844.6)" />
<use xlink:href="#f2_2a" transform="matrix(12,0,0,12,459.5,844.6)" />
<use xlink:href="#f2_2g" transform="matrix(12,0,0,12,471.7,844.6)" />
<use xlink:href="#f2_24" transform="matrix(12,0,0,12,476.8,844.6)" />
<use xlink:href="#f2_21" transform="matrix(12,0,0,12,485.6,844.6)" />
<use xlink:href="#f2_2c" transform="matrix(12,0,0,12,496.7,844.6)" />
<use xlink:href="#f2_2e" transform="matrix(12,0,0,12,505.8,844.6)" />
<use xlink:href="#f2_21" transform="matrix(12,0,0,12,511.7,844.6)" />
<use xlink:href="#f2_2f" transform="matrix(12,0,0,12,519.8,844.6)" />
<use xlink:href="#f2_21" transform="matrix(12,0,0,12,526.4,844.6)" />
<use xlink:href="#f2_2a" transform="matrix(12,0,0,12,534.1,844.6)" />
<use xlink:href="#f2_1z" transform="matrix(12,0,0,12,542.9,844.6)" />
<use xlink:href="#f2_21" transform="matrix(12,0,0,12,550.6,844.6)" />
<use xlink:href="#f2_2b" transform="matrix(12,0,0,12,562.1,844.6)" />
<use xlink:href="#f2_22" transform="matrix(12,0,0,12,571.6,844.6)" />
<use xlink:href="#f2_20" transform="matrix(12,0,0,12,579.7,844.6)" />
<use xlink:href="#f2_25" transform="matrix(12,0,0,12,588.8,844.6)" />
<use xlink:href="#f2_22" transform="matrix(12,0,0,12,592.9,844.6)" />
<use xlink:href="#f2_22" transform="matrix(12,0,0,12,598.4,844.6)" />
<use xlink:href="#f2_21" transform="matrix(12,0,0,12,603.6,844.6)" />
<use xlink:href="#f2_2e" transform="matrix(12,0,0,12,611.3,844.6)" />
<use xlink:href="#f2_21" transform="matrix(12,0,0,12,617.5,844.6)" />
<use xlink:href="#f2_2a" transform="matrix(12,0,0,12,625.2,844.6)" />
<use xlink:href="#f2_2g" transform="matrix(12,0,0,12,634,844.6)" />
<use xlink:href="#f2_1z" transform="matrix(12,0,0,12,642.9,844.6)" />
<use xlink:href="#f2_1x" transform="matrix(12,0,0,12,650.6,844.6)" />
<use xlink:href="#f2_2g" transform="matrix(12,0,0,12,658.3,844.6)" />
<use xlink:href="#f2_1x" transform="matrix(12,0,0,12,663.8,844.6)" />
<use xlink:href="#f2_28" transform="matrix(12,0,0,12,671.5,844.6)" />
<use xlink:href="#f2_2l" transform="matrix(12,0,0,12,675.9,844.6)" />
<use xlink:href="#f2_2f" transform="matrix(12,0,0,12,684,844.6)" />
<use xlink:href="#f2_2g" transform="matrix(12,0,0,12,690.6,844.6)" />
<use xlink:href="#f2_2f" transform="matrix(12,0,0,12,696.1,844.6)" />
<use xlink:href="#f2_i" transform="matrix(12,0,0,12,702.7,844.6)" />
<use xlink:href="#f2_1n" transform="matrix(12,0,0,12,710.8,844.6)" />
<use xlink:href="#f2_24" transform="matrix(12,0,0,12,727.7,844.6)" />
<use xlink:href="#f2_25" transform="matrix(12,0,0,12,736.2,844.6)" />
<use xlink:href="#f2_1z" transform="matrix(12,0,0,12,740.2,844.6)" />
<use xlink:href="#f2_24" transform="matrix(12,0,0,12,748.3,844.6)" />
<use xlink:href="#f2_1x" transform="matrix(12,0,0,12,760.4,844.6)" />
<use xlink:href="#f2_1y" transform="matrix(12,0,0,12,768.1,844.6)" />
<use xlink:href="#f2_25" transform="matrix(12,0,0,12,776.6,844.6)" />
<use xlink:href="#f2_28" transform="matrix(12,0,0,12,781,844.6)" />
<use xlink:href="#f2_25" transform="matrix(12,0,0,12,785.1,844.6)" />
<use xlink:href="#f2_2g" transform="matrix(12,0,0,12,789.5,844.6)" />
<use xlink:href="#f2_2l" transform="matrix(12,0,0,12,794.6,844.6)" />
<use xlink:href="#f2_2b" transform="matrix(12,0,0,12,806,844.6)" />
<use xlink:href="#f2_22" transform="matrix(12,0,0,12,815.2,844.6)" />
<use xlink:href="#f2_2g" transform="matrix(12,0,0,12,824,844.6)" />
<use xlink:href="#f2_24" transform="matrix(12,0,0,12,829.5,844.6)" />
<use xlink:href="#f2_21" transform="matrix(12,0,0,12,838,844.6)" />
<use xlink:href="#f2_1z" transform="matrix(12,0,0,12,117,868.8)" />
<use xlink:href="#f2_1x" transform="matrix(12,0,0,12,125.1,868.8)" />
<use xlink:href="#f2_2g" transform="matrix(12,0,0,12,132.8,868.8)" />
<use xlink:href="#f2_1x" transform="matrix(12,0,0,12,138.3,868.8)" />
<use xlink:href="#f2_28" transform="matrix(12,0,0,12,146,868.8)" />
<use xlink:href="#f2_2l" transform="matrix(12,0,0,12,150.4,868.8)" />
<use xlink:href="#f2_2f" transform="matrix(12,0,0,12,158.5,868.8)" />
<use xlink:href="#f2_2g" transform="matrix(12,0,0,12,165.5,868.8)" />
<use xlink:href="#f2_25" transform="matrix(12,0,0,12,174.3,868.8)" />
<use xlink:href="#f2_2f" transform="matrix(12,0,0,12,178.3,868.8)" />
<use xlink:href="#f2_2f" transform="matrix(12,0,0,12,188.6,868.8)" />
<use xlink:href="#f2_24" transform="matrix(12,0,0,12,195.6,868.8)" />
<use xlink:href="#f2_2b" transform="matrix(12,0,0,12,204.1,868.8)" />
<use xlink:href="#f2_2j" transform="matrix(12,0,0,12,213.6,868.8)" />
<use xlink:href="#f2_2a" transform="matrix(12,0,0,12,226.5,868.8)" />
<use xlink:href="#f2_1y" transform="matrix(12,0,0,12,238.2,868.8)" />
<use xlink:href="#f2_2l" transform="matrix(12,0,0,12,247,868.8)" />
<use xlink:href="#f2_2g" transform="matrix(12,0,0,12,258.8,868.8)" />
<use xlink:href="#f2_24" transform="matrix(12,0,0,12,263.9,868.8)" />
<use xlink:href="#f2_21" transform="matrix(12,0,0,12,272.8,868.8)" />
<use xlink:href="#f2_2f" transform="matrix(12,0,0,12,280.5,868.8)" />
<use xlink:href="#f2_21" transform="matrix(12,0,0,12,287.5,868.8)" />
<use xlink:href="#f2_2e" transform="matrix(12,0,0,12,298.9,868.8)" />
<use xlink:href="#f2_21" transform="matrix(12,0,0,12,304.7,868.8)" />
<use xlink:href="#f2_1x" transform="matrix(12,0,0,12,312.8,868.8)" />
<use xlink:href="#f2_1z" transform="matrix(12,0,0,12,320.5,868.8)" />
<use xlink:href="#f2_2g" transform="matrix(12,0,0,12,328.6,868.8)" />
<use xlink:href="#f2_25" transform="matrix(12,0,0,12,333.8,868.8)" />
<use xlink:href="#f2_2b" transform="matrix(12,0,0,12,338.2,868.8)" />
<use xlink:href="#f2_2a" transform="matrix(12,0,0,12,347.3,868.8)" />
<use xlink:href="#f2_2f" transform="matrix(12,0,0,12,356.2,868.8)" />
<use xlink:href="#f2_z" transform="matrix(12,0,0,12,366.5,868.8)" />
<use xlink:href="#f2_11" transform="matrix(12,0,0,12,64.9,897.7)" />
<use xlink:href="#f2_2a" transform="matrix(12,0,0,12,77.4,897.7)" />
<use xlink:href="#f2_2f" transform="matrix(12,0,0,12,85.8,897.7)" />
<use xlink:href="#f2_i" transform="matrix(12,0,0,12,92.5,897.7)" />
<use xlink:href="#f2_1k" transform="matrix(12,0,0,12,117,897.7)" />
<use xlink:href="#f2_24" transform="matrix(12,0,0,12,128,897.7)" />
<use xlink:href="#f2_25" transform="matrix(12,0,0,12,136.8,897.7)" />
<use xlink:href="#f2_2f" transform="matrix(12,0,0,12,140.9,897.7)" />
<use xlink:href="#f2_1x" transform="matrix(12,0,0,12,150.8,897.7)" />
<use xlink:href="#f2_1y" transform="matrix(12,0,0,12,158.9,897.7)" />
<use xlink:href="#f2_25" transform="matrix(12,0,0,12,167.3,897.7)" />
<use xlink:href="#f2_28" transform="matrix(12,0,0,12,171.4,897.7)" />
<use xlink:href="#f2_25" transform="matrix(12,0,0,12,175.4,897.7)" />
<use xlink:href="#f2_2g" transform="matrix(12,0,0,12,179.8,897.7)" />
<use xlink:href="#f2_2l" transform="matrix(12,0,0,12,185,897.7)" />
<use xlink:href="#f2_25" transform="matrix(12,0,0,12,196.4,897.7)" />
<use xlink:href="#f2_2f" transform="matrix(12,0,0,12,200.8,897.7)" />
<use xlink:href="#f2_27" transform="matrix(12,0,0,12,210.4,897.7)" />
<use xlink:href="#f2_2a" transform="matrix(12,0,0,12,219.5,897.7)" />
<use xlink:href="#f2_2b" transform="matrix(12,0,0,12,228,897.7)" />
<use xlink:href="#f2_2j" transform="matrix(12,0,0,12,237.1,897.7)" />
<use xlink:href="#f2_2a" transform="matrix(12,0,0,12,250,897.7)" />
<use xlink:href="#f2_1x" transform="matrix(12,0,0,12,262.1,897.7)" />
<use xlink:href="#f2_2f" transform="matrix(12,0,0,12,269.8,897.7)" />
<use xlink:href="#f2_1z" transform="matrix(12,0,0,12,280.1,897.7)" />
<use xlink:href="#f2_1x" transform="matrix(12,0,0,12,287.9,897.7)" />
<use xlink:href="#f2_2g" transform="matrix(12,0,0,12,295.6,897.7)" />
<use xlink:href="#f2_1x" transform="matrix(12,0,0,12,300.7,897.7)" />
<use xlink:href="#f2_28" transform="matrix(12,0,0,12,308.8,897.7)" />
<use xlink:href="#f2_2l" transform="matrix(12,0,0,12,312.8,897.7)" />
<use xlink:href="#f2_2g" transform="matrix(12,0,0,12,320.9,897.7)" />
<use xlink:href="#f2_25" transform="matrix(12,0,0,12,326.4,897.7)" />
<use xlink:href="#f2_1z" transform="matrix(12,0,0,12,330.5,897.7)" />
<use xlink:href="#f2_2f" transform="matrix(12,0,0,12,341.5,897.7)" />
<use xlink:href="#f2_21" transform="matrix(12,0,0,12,348.5,897.7)" />
<use xlink:href="#f2_28" transform="matrix(12,0,0,12,356.2,897.7)" />
<use xlink:href="#f2_21" transform="matrix(12,0,0,12,360.3,897.7)" />
<use xlink:href="#f2_1z" transform="matrix(12,0,0,12,368,897.7)" />
<use xlink:href="#f2_2g" transform="matrix(12,0,0,12,376.1,897.7)" />
<use xlink:href="#f2_25" transform="matrix(12,0,0,12,381.2,897.7)" />
<use xlink:href="#f2_2i" transform="matrix(12,0,0,12,385.2,897.7)" />
<use xlink:href="#f2_25" transform="matrix(12,0,0,12,393.7,897.7)" />
<use xlink:href="#f2_2g" transform="matrix(12,0,0,12,398.1,897.7)" />
<use xlink:href="#f2_2l" transform="matrix(12,0,0,12,403.2,897.7)" />
<use xlink:href="#f2_2j" transform="matrix(12,0,0,12,414.6,897.7)" />
<use xlink:href="#f2_24" transform="matrix(12,0,0,12,427.5,897.7)" />
<use xlink:href="#f2_25" transform="matrix(12,0,0,12,435.9,897.7)" />
<use xlink:href="#f2_1z" transform="matrix(12,0,0,12,440,897.7)" />
<use xlink:href="#f2_24" transform="matrix(12,0,0,12,448.1,897.7)" />
<use xlink:href="#f2_25" transform="matrix(12,0,0,12,459.8,897.7)" />
<use xlink:href="#f2_29" transform="matrix(12,0,0,12,463.9,897.7)" />
<use xlink:href="#f2_2c" transform="matrix(12,0,0,12,477.5,897.7)" />
<use xlink:href="#f2_28" transform="matrix(12,0,0,12,486.3,897.7)" />
<use xlink:href="#f2_25" transform="matrix(12,0,0,12,490.3,897.7)" />
<use xlink:href="#f2_21" transform="matrix(12,0,0,12,494.4,897.7)" />
<use xlink:href="#f2_2f" transform="matrix(12,0,0,12,502.5,897.7)" />
<use xlink:href="#f2_2g" transform="matrix(12,0,0,12,512.4,897.7)" />
<use xlink:href="#f2_24" transform="matrix(12,0,0,12,517.5,897.7)" />
<use xlink:href="#f2_1x" transform="matrix(12,0,0,12,526.4,897.7)" />
<use xlink:href="#f2_2g" transform="matrix(12,0,0,12,534.1,897.7)" />
<use xlink:href="#f2_1z" transform="matrix(12,0,0,12,542.9,897.7)" />
<use xlink:href="#f2_1x" transform="matrix(12,0,0,12,550.6,897.7)" />
<use xlink:href="#f2_2g" transform="matrix(12,0,0,12,558.3,897.7)" />
<use xlink:href="#f2_1x" transform="matrix(12,0,0,12,563.5,897.7)" />
<use xlink:href="#f2_28" transform="matrix(12,0,0,12,571.5,897.7)" />
<use xlink:href="#f2_2l" transform="matrix(12,0,0,12,575.6,897.7)" />
<use xlink:href="#f2_2f" transform="matrix(12,0,0,12,583.7,897.7)" />
<use xlink:href="#f2_2g" transform="matrix(12,0,0,12,590.3,897.7)" />
<use xlink:href="#f2_1x" transform="matrix(12,0,0,12,598.7,897.7)" />
<use xlink:href="#f2_28" transform="matrix(12,0,0,12,606.5,897.7)" />
<use xlink:href="#f2_2f" transform="matrix(12,0,0,12,610.5,897.7)" />
<use xlink:href="#f2_2b" transform="matrix(12,0,0,12,617.5,897.7)" />
<use xlink:href="#f2_1z" transform="matrix(12,0,0,12,630,897.7)" />
<use xlink:href="#f2_1x" transform="matrix(12,0,0,12,638.1,897.7)" />
<use xlink:href="#f2_2a" transform="matrix(12,0,0,12,645.8,897.7)" />
<use xlink:href="#f2_2g" transform="matrix(12,0,0,12,657.5,897.7)" />
<use xlink:href="#f2_1x" transform="matrix(12,0,0,12,663,897.7)" />
<use xlink:href="#f2_27" transform="matrix(12,0,0,12,670.8,897.7)" />
<use xlink:href="#f2_21" transform="matrix(12,0,0,12,679.6,897.7)" />
<use xlink:href="#f2_2c" transform="matrix(12,0,0,12,691,897.7)" />
<use xlink:href="#f2_1x" transform="matrix(12,0,0,12,699.8,897.7)" />
<use xlink:href="#f2_2e" transform="matrix(12,0,0,12,707.5,897.7)" />
<use xlink:href="#f2_2g" transform="matrix(12,0,0,12,713.4,897.7)" />
<use xlink:href="#f2_25" transform="matrix(12,0,0,12,721.8,897.7)" />
<use xlink:href="#f2_2a" transform="matrix(12,0,0,12,725.9,897.7)" />
<use xlink:href="#f2_2g" transform="matrix(12,0,0,12,738,897.7)" />
<use xlink:href="#f2_24" transform="matrix(12,0,0,12,743.2,897.7)" />
<use xlink:href="#f2_21" transform="matrix(12,0,0,12,751.6,897.7)" />
<use xlink:href="#f2_2e" transform="matrix(12,0,0,12,761.6,897.7)" />
<use xlink:href="#f2_21" transform="matrix(12,0,0,12,767.5,897.7)" />
<use xlink:href="#f2_1x" transform="matrix(12,0,0,12,775.2,897.7)" />
<use xlink:href="#f2_1z" transform="matrix(12,0,0,12,783.3,897.7)" />
<use xlink:href="#f2_2g" transform="matrix(12,0,0,12,791,897.7)" />
<use xlink:href="#f2_25" transform="matrix(12,0,0,12,796.1,897.7)" />
<use xlink:href="#f2_2b" transform="matrix(12,0,0,12,800.2,897.7)" />
<use xlink:href="#f2_2a" transform="matrix(12,0,0,12,809.7,897.7)" />
<use xlink:href="#f2_i" transform="matrix(12,0,0,12,818.2,897.7)" />
<use xlink:href="#f2_o" transform="matrix(12,0,0,12,64.9,985)" />
<use xlink:href="#f2_i" transform="matrix(12,0,0,12,74.1,985)" />
<use xlink:href="#f2_1n" transform="matrix(12,0,0,12,117,985)" />
<use xlink:href="#f2_2e" transform="matrix(12,0,0,12,132.7,985)" />
<use xlink:href="#f2_25" transform="matrix(12,0,0,12,138.6,985)" />
<use xlink:href="#f2_2g" transform="matrix(12,0,0,12,143.1,985)" />
<use xlink:href="#f2_21" transform="matrix(12,0,0,12,148.2,985)" />
<use xlink:href="#f2_2g" transform="matrix(12,0,0,12,159.2,985)" />
<use xlink:href="#f2_24" transform="matrix(12,0,0,12,164.3,985)" />
<use xlink:href="#f2_21" transform="matrix(12,0,0,12,173.2,985)" />
<use xlink:href="#f2_1z" transform="matrix(12,0,0,12,183.8,985)" />
<use xlink:href="#f2_2b" transform="matrix(12,0,0,12,191.6,985)" />
<use xlink:href="#f2_2b" transform="matrix(12,0,0,12,200.7,985)" />
<use xlink:href="#f2_2e" transform="matrix(12,0,0,12,210.2,985)" />
<use xlink:href="#f2_20" transform="matrix(12,0,0,12,216.1,985)" />
<use xlink:href="#f2_25" transform="matrix(12,0,0,12,224.9,985)" />
<use xlink:href="#f2_2a" transform="matrix(12,0,0,12,229,985)" />
<use xlink:href="#f2_1x" transform="matrix(12,0,0,12,237.4,985)" />
<use xlink:href="#f2_2g" transform="matrix(12,0,0,12,245.5,985)" />
<use xlink:href="#f2_25" transform="matrix(12,0,0,12,250.7,985)" />
<use xlink:href="#f2_2b" transform="matrix(12,0,0,12,254.7,985)" />
<use xlink:href="#f2_2a" transform="matrix(12,0,0,12,263.9,985)" />
<use xlink:href="#f2_2a" transform="matrix(12,0,0,12,275.6,985)" />
<use xlink:href="#f2_2h" transform="matrix(12,0,0,12,284.5,985)" />
<use xlink:href="#f2_29" transform="matrix(12,0,0,12,293.3,985)" />
<use xlink:href="#f2_1y" transform="matrix(12,0,0,12,306.5,985)" />
<use xlink:href="#f2_21" transform="matrix(12,0,0,12,314.9,985)" />
<use xlink:href="#f2_2e" transform="matrix(12,0,0,12,322.7,985)" />
<use xlink:href="#f2_1x" transform="matrix(12,0,0,12,332.2,985)" />
<use xlink:href="#f2_2a" transform="matrix(12,0,0,12,339.9,985)" />
<use xlink:href="#f2_20" transform="matrix(12,0,0,12,348.4,985)" />
<use xlink:href="#f2_2b" transform="matrix(12,0,0,12,360.9,985)" />
<use xlink:href="#f2_2k" transform="matrix(12,0,0,12,370,985)" />
<use xlink:href="#f2_25" transform="matrix(12,0,0,12,378.5,985)" />
<use xlink:href="#f2_20" transform="matrix(12,0,0,12,382.5,985)" />
<use xlink:href="#f2_1x" transform="matrix(12,0,0,12,391.4,985)" />
<use xlink:href="#f2_2g" transform="matrix(12,0,0,12,399.4,985)" />
<use xlink:href="#f2_25" transform="matrix(12,0,0,12,404.6,985)" />
<use xlink:href="#f2_2b" transform="matrix(12,0,0,12,408.6,985)" />
<use xlink:href="#f2_2a" transform="matrix(12,0,0,12,417.8,985)" />
<use xlink:href="#f2_2f" transform="matrix(12,0,0,12,429.6,985)" />
<use xlink:href="#f2_2g" transform="matrix(12,0,0,12,436.2,985)" />
<use xlink:href="#f2_1x" transform="matrix(12,0,0,12,441.3,985)" />
<use xlink:href="#f2_2g" transform="matrix(12,0,0,12,449,985)" />
<use xlink:href="#f2_21" transform="matrix(12,0,0,12,454.2,985)" />
<use xlink:href="#f2_2b" transform="matrix(12,0,0,12,465.6,985)" />
<use xlink:href="#f2_22" transform="matrix(12,0,0,12,474.7,985)" />
<use xlink:href="#f2_1g" transform="matrix(12,0,0,12,483.2,985)" />
<use xlink:href="#f2_28" transform="matrix(12,0,0,12,493.5,985)" />
<use xlink:href="#f2_1x" transform="matrix(12,0,0,12,497.5,985)" />
<use xlink:href="#f2_2g" transform="matrix(12,0,0,12,505.2,985)" />
<use xlink:href="#f2_25" transform="matrix(12,0,0,12,510.4,985)" />
<use xlink:href="#f2_2a" transform="matrix(12,0,0,12,514.4,985)" />
<use xlink:href="#f2_2h" transform="matrix(12,0,0,12,522.9,985)" />
<use xlink:href="#f2_29" transform="matrix(12,0,0,12,532,985)" />
<use xlink:href="#f2_25" transform="matrix(12,0,0,12,548.6,985)" />
<use xlink:href="#f2_2a" transform="matrix(12,0,0,12,552.6,985)" />
<use xlink:href="#f2_2g" transform="matrix(12,0,0,12,564.4,985)" />
<use xlink:href="#f2_24" transform="matrix(12,0,0,12,569.5,985)" />
<use xlink:href="#f2_21" transform="matrix(12,0,0,12,578,985)" />
<use xlink:href="#f2_1z" transform="matrix(12,0,0,12,589,985)" />
<use xlink:href="#f2_2b" transform="matrix(12,0,0,12,597.1,985)" />
<use xlink:href="#f2_29" transform="matrix(12,0,0,12,606.2,985)" />
<use xlink:href="#f2_2c" transform="matrix(12,0,0,12,619.5,985)" />
<use xlink:href="#f2_28" transform="matrix(12,0,0,12,628.3,985)" />
<use xlink:href="#f2_21" transform="matrix(12,0,0,12,632.3,985)" />
<use xlink:href="#f2_2k" transform="matrix(12,0,0,12,640.4,985)" />
<use xlink:href="#f4_c" transform="matrix(11.9,0,0,15.4,682,985.4)" />
</g>
<g clip-path="url(#c1_1)">
<g fill="#000000" >
<use xlink:href="#f4_d" transform="matrix(11.9,0,0,15.4,707.7,985.4)" />
</g>
</g>
<g fill="#000000" >
<use xlink:href="#f2_m" transform="matrix(6.8,0,0,6.8,741,988.7)" />
<use xlink:href="#f2_m" transform="matrix(6.8,0,0,6.8,714.3,990.9)" />
<use xlink:href="#f3_1g" transform="matrix(11.8,0,0,11.8,662.6,983.9)" />
<use xlink:href="#f3_2g" transform="matrix(11.8,0,0,11.8,673.9,983.9)" />
<use xlink:href="#f3_21" transform="matrix(11.8,0,0,11.8,689.3,983.9)" />
<use xlink:href="#f3_2a" transform="matrix(11.8,0,0,11.8,697.4,983.9)" />
<use xlink:href="#f3_13" transform="matrix(11.8,0,0,11.8,723.4,983.9)" />
<use xlink:href="#f3_28" transform="matrix(11.8,0,0,11.8,735.8,983.9)" />
<use xlink:href="#f4_4r" transform="matrix(11.8,0,0,11.8,654.1,983.2)" />
<use xlink:href="#f4_57" transform="matrix(11.8,0,0,11.8,749.1,983.2)" />
<use xlink:href="#f4_4t" transform="matrix(11.8,0,0,11.8,654.1,990.9)" />
<use xlink:href="#f4_59" transform="matrix(11.8,0,0,11.8,749.1,990.9)" />
<use xlink:href="#f2_i" transform="matrix(12,0,0,12,759.7,985)" />
<use xlink:href="#f2_11" transform="matrix(12,0,0,12,64.9,1019.8)" />
<use xlink:href="#f2_2a" transform="matrix(12,0,0,12,77.4,1019.8)" />
<use xlink:href="#f2_2f" transform="matrix(12,0,0,12,85.8,1019.8)" />
<use xlink:href="#f2_i" transform="matrix(12,0,0,12,92.4,1019.8)" />
<use xlink:href="#f2_13" transform="matrix(12,0,0,12,117,1019.8)" />
<use xlink:href="#f2_2b" transform="matrix(12,0,0,12,128.7,1019.8)" />
<use xlink:href="#f2_2b" transform="matrix(12,0,0,12,138.2,1019.8)" />
<use xlink:href="#f2_2e" transform="matrix(12,0,0,12,147.4,1019.8)" />
<use xlink:href="#f2_20" transform="matrix(12,0,0,12,153.3,1019.8)" />
<use xlink:href="#f2_25" transform="matrix(12,0,0,12,162.5,1019.8)" />
<use xlink:href="#f2_2a" transform="matrix(12,0,0,12,166.5,1019.8)" />
<use xlink:href="#f2_1x" transform="matrix(12,0,0,12,175,1019.8)" />
<use xlink:href="#f2_2g" transform="matrix(12,0,0,12,183,1019.8)" />
<use xlink:href="#f2_25" transform="matrix(12,0,0,12,188.2,1019.8)" />
<use xlink:href="#f2_2b" transform="matrix(12,0,0,12,192.2,1019.8)" />
<use xlink:href="#f2_2a" transform="matrix(12,0,0,12,201.4,1019.8)" />
<use xlink:href="#f2_2a" transform="matrix(12,0,0,12,213.5,1019.8)" />
<use xlink:href="#f2_2h" transform="matrix(12,0,0,12,222,1019.8)" />
<use xlink:href="#f2_29" transform="matrix(12,0,0,12,231.1,1019.8)" />
<use xlink:href="#f2_1y" transform="matrix(12,0,0,12,244.4,1019.8)" />
<use xlink:href="#f2_21" transform="matrix(12,0,0,12,252.8,1019.8)" />
<use xlink:href="#f2_2e" transform="matrix(12,0,0,12,260.9,1019.8)" />
<use xlink:href="#f2_x" transform="matrix(12,0,0,12,269.7,1019.8)" />
<use xlink:href="#f2_q" transform="matrix(12,0,0,12,283.3,1019.8)" />
<use xlink:href="#f2_1f" transform="matrix(12,0,0,12,117,1048.4)" />
<use xlink:href="#f2_2k" transform="matrix(12,0,0,12,130.2,1048.4)" />
<use xlink:href="#f2_25" transform="matrix(12,0,0,12,139.4,1048.4)" />
<use xlink:href="#f2_20" transform="matrix(12,0,0,12,144.5,1048.4)" />
<use xlink:href="#f2_1x" transform="matrix(12,0,0,12,153.6,1048.4)" />
<use xlink:href="#f2_2g" transform="matrix(12,0,0,12,161.8,1048.4)" />
<use xlink:href="#f2_25" transform="matrix(12,0,0,12,166.9,1048.4)" />
<use xlink:href="#f2_2b" transform="matrix(12,0,0,12,172,1048.4)" />
<use xlink:href="#f2_2a" transform="matrix(12,0,0,12,181.1,1048.4)" />
<use xlink:href="#f2_2a" transform="matrix(12,0,0,12,192.9,1048.4)" />
<use xlink:href="#f2_2h" transform="matrix(12,0,0,12,202,1048.4)" />
<use xlink:href="#f2_29" transform="matrix(12,0,0,12,211.2,1048.4)" />
<use xlink:href="#f2_1y" transform="matrix(12,0,0,12,225.5,1048.4)" />
<use xlink:href="#f2_21" transform="matrix(12,0,0,12,234.6,1048.4)" />
<use xlink:href="#f2_2e" transform="matrix(12,0,0,12,242.8,1048.4)" />
<use xlink:href="#f2_x" transform="matrix(12,0,0,12,252,1048.4)" />
<use xlink:href="#f2_f" transform="matrix(12,0,0,12,265.6,1048.4)" />
<use xlink:href="#f2_m" transform="matrix(12,0,0,12,275.9,1048.4)" />
<use xlink:href="#f5_l" transform="matrix(8,0,0,8,792.2,1264.2)" />
</g>
<defs>
<path d="M0,0L377,570L35,1093H293L512,766l214,327H983L639,562L1017,0H750L508,370L265,0Z" 
id="f0_1o"
transform="scale(0.001,-0.001)" />

<path d="M105,0V1093H326V0Z" 
id="f0_19"
transform="scale(0.001,-0.001)" />

<path d="M571,-18c0,0,-218,0,-358,148C213,130,72,279,72,537c0,0,0,273,141,425c0,0,141,151,371,151c0,0,201,0,326,-119c0,0,75,-70,112,-202L803,740c0,0,-19,85,-81,135c0,0,-61,49,-149,49c0,0,-122,0,-197,-87c0,0,-76,-88,-76,-283c0,0,0,-208,75,-296c0,0,74,-88,194,-88c0,0,88,0,151,56c0,0,63,56,91,177l214,-68c0,0,-49,-179,-164,-266c0,0,-114,-87,-290,-87Z" 
id="f0_13"
transform="scale(0.001,-0.001)" />

<path d="M537,185c0,0,120,0,152,6c0,0,49,9,80,44c0,0,31,35,31,93c0,0,0,49,-24,84c0,0,-24,34,-69,49c0,0,-45,16,-196,16H332V185ZM477,659c0,0,129,0,161,4c0,0,56,6,89,39c0,0,32,32,32,85c0,0,0,51,-28,82c0,0,-28,32,-83,39c0,0,-33,3,-189,3H332V659ZM111,0V1093H549c0,0,130,0,194,-11c0,0,63,-10,114,-45c0,0,50,-34,84,-91c0,0,33,-57,33,-128c0,0,0,-76,-41,-140c0,0,-41,-64,-112,-96c0,0,100,-30,153,-100c0,0,54,-70,54,-165c0,0,0,-74,-35,-145c0,0,-34,-70,-94,-113C899,59,838,17,750,7C750,7,695,1,484,0Z" 
id="f0_12"
transform="scale(0.001,-0.001)" />

<path d="M506,-19c0,0,-207,0,-318,95C188,76,76,172,55,356l215,20c0,0,19,-108,79,-158c0,0,59,-51,160,-51c0,0,106,0,161,45c0,0,54,45,54,106c0,0,0,38,-23,66c0,0,-23,27,-80,47c0,0,-38,13,-177,48c0,0,-178,44,-249,108c0,0,-101,90,-101,220c0,0,0,84,47,157c0,0,48,73,137,111c0,0,89,38,216,38c0,0,206,0,310,-91c0,0,104,-90,109,-241L692,771c0,0,-14,85,-60,122c0,0,-47,37,-141,37c0,0,-96,0,-151,-40c0,0,-35,-25,-35,-68c0,0,0,-39,33,-66c0,0,42,-35,203,-73c0,0,162,-38,239,-79c0,0,77,-41,121,-111c0,0,44,-71,44,-175c0,0,0,-94,-53,-176C892,142,840,60,745,20c0,0,-96,-39,-239,-39Z" 
id="f0_1j"
transform="scale(0.001,-0.001)" />

<path d="M111,0V1093H922V908H332V666H881V481H332V185H943V0Z" 
id="f0_15"
transform="scale(0.001,-0.001)" />

<path d="M49,291V501H460V291Z" 
id="f0_h"
transform="scale(0.001,-0.001)" />

<path d="M598,170c0,0,132,0,216,95c0,0,85,95,85,286c0,0,0,188,-82,280c0,0,-83,93,-219,93c0,0,-137,0,-220,-94c0,0,-84,-93,-84,-282c0,0,0,-186,86,-282c0,0,86,-96,218,-96Zm0,-188c0,0,-244,0,-388,148C210,130,66,279,66,540c0,0,0,167,50,281c0,0,38,84,102,150c0,0,65,66,142,98c0,0,102,44,235,44c0,0,242,0,387,-150c0,0,145,-150,145,-417c0,0,0,-265,-144,-415C983,131,839,-18,598,-18Z" 
id="f0_1f"
transform="scale(0.001,-0.001)" />

<path d="M692,433L540,838L392,433ZM0,0L425,1093H660L1098,0H858L763,248H325L234,0Z" 
id="f0_11"
transform="scale(0.001,-0.001)" />

<path d="M496,632c0,0,159,0,198,13c0,0,40,13,62,46c0,0,23,33,23,82c0,0,0,55,-30,89c0,0,-29,34,-83,43c0,0,-27,3,-161,3H332V632ZM111,0V1093H577c0,0,175,0,254,-29c0,0,80,-30,128,-105c0,0,48,-75,48,-172c0,0,0,-123,-73,-203c0,0,-72,-80,-216,-101c0,0,72,-42,118,-92c0,0,47,-50,126,-178L1096,0H831L672,238c0,0,-85,128,-117,161c0,0,-31,33,-66,45c0,0,-35,13,-112,13H332V0Z" 
id="f0_1i"
transform="scale(0.001,-0.001)" />

<path d="M496,185c0,0,93,0,134,10c0,0,54,14,89,46c0,0,35,32,58,105c0,0,22,74,22,200c0,0,0,127,-22,195c0,0,-23,68,-63,106c0,0,-40,38,-102,51c0,0,-46,10,-181,10H331V185ZM110,0V1093H514c0,0,136,0,208,-21c0,0,96,-28,165,-100c0,0,68,-73,104,-177c0,0,36,-105,36,-259c0,0,0,-135,-34,-233c0,0,-41,-119,-117,-193c0,0,-57,-56,-155,-87C721,23,648,0,526,0Z" 
id="f0_14"
transform="scale(0.001,-0.001)" />

<path d="M109,0V1093H439L637,347l196,746h331V0H959V861L742,0H529L313,861V0Z" 
id="f0_1d"
transform="scale(0.001,-0.001)" />

<path d="M111,0V1093H332V663H765v430H986V0H765V478H332V0Z" 
id="f0_18"
transform="scale(0.001,-0.001)" />

<path d="M38,0c0,0,12,110,72,209c0,0,59,99,235,262c0,0,142,132,174,179c0,0,43,65,43,129c0,0,0,70,-37,107c0,0,-38,38,-104,38c0,0,-66,0,-104,-40c0,0,-39,-39,-45,-131L63,774c0,0,18,173,117,249c0,0,98,75,246,75c0,0,162,0,254,-87c0,0,92,-88,92,-217c0,0,0,-74,-26,-141c0,0,-26,-67,-84,-140c0,0,-38,-48,-137,-139c0,0,-100,-91,-126,-121c0,0,-26,-30,-43,-58H772V0Z" 
id="f0_m"
transform="scale(0.001,-0.001)" />

<path d="M419,155c0,0,39,0,68,25c0,0,30,24,47,87c0,0,21,80,21,272c0,0,0,193,-19,265c0,0,-19,72,-49,96c0,0,-29,24,-68,24c0,0,-38,0,-67,-24c0,0,-30,-24,-47,-87c0,0,-21,-81,-21,-274c0,0,0,-192,19,-264c0,0,19,-72,49,-96c0,0,29,-24,67,-24Zm0,-173c0,0,-159,0,-257,122c0,0,-97,123,-97,438c0,0,0,308,107,444c0,0,89,112,247,112c0,0,159,0,249,-113c0,0,106,-135,106,-446c0,0,0,-310,-107,-446C667,93,578,-18,419,-18Z" 
id="f0_k"
transform="scale(0.001,-0.001)" />

<path d="M392,0V790C392,790,277,682,121,631V821c0,0,82,27,178,102c0,0,97,75,132,175H601V0Z" 
id="f0_l"
transform="scale(0.001,-0.001)" />

<path d="M424,149c0,0,65,0,107,46c0,0,43,47,43,135c0,0,0,76,-43,123c0,0,-44,47,-110,47c0,0,-78,0,-115,-53c0,0,-38,-53,-38,-115c0,0,0,-87,44,-135c0,0,45,-48,112,-48Zm-6,519c0,0,60,0,96,35c0,0,36,36,36,99c0,0,0,59,-36,94c0,0,-36,36,-94,36c0,0,-61,0,-97,-36c0,0,-36,-36,-36,-95c0,0,0,-63,36,-98c0,0,36,-35,95,-35Zm9,-687c0,0,-149,0,-248,78C179,59,62,151,62,312c0,0,0,89,44,163c0,0,43,74,138,114c0,0,-81,35,-118,95c0,0,-37,60,-37,132c0,0,0,122,85,202c0,0,86,80,244,80c0,0,156,0,242,-80c0,0,86,-80,86,-202c0,0,0,-77,-39,-136c0,0,-40,-59,-111,-91c0,0,91,-36,138,-106c0,0,47,-70,47,-162c0,0,0,-151,-96,-246c0,0,-97,-94,-258,-94Z" 
id="f0_s"
transform="scale(0.001,-0.001)" />

<path d="M380,130c0,0,57,0,108,37c0,0,38,29,50,70c0,0,9,27,9,102v42c0,0,-41,-13,-128,-32c0,0,-87,-19,-114,-36c0,0,-41,-30,-41,-74c0,0,0,-45,33,-77c0,0,33,-32,83,-32ZM318,-17c0,0,-122,0,-193,66c0,0,-70,66,-70,168c0,0,0,67,32,120c0,0,32,53,90,81c0,0,57,28,166,49c0,0,147,27,204,51v21c0,0,0,60,-30,86c0,0,-30,25,-112,25c0,0,-56,0,-87,-22c0,0,-32,-22,-51,-77L76,586c0,0,32,114,111,169c0,0,78,56,232,56c0,0,141,0,209,-34c0,0,69,-33,97,-84c0,0,28,-51,28,-188L750,260c0,0,0,-104,10,-154c0,0,10,-49,38,-106H591c0,0,-9,21,-21,62c0,0,-5,19,-7,25C563,87,509,35,448,8c0,0,-61,-25,-130,-25Z" 
id="f0_1x"
transform="scale(0.001,-0.001)" />

<path d="M324,-17c0,0,-57,0,-102,18c0,0,-45,19,-67,50c0,0,-21,30,-29,81c0,0,-7,37,-7,148V625H23V792h96V949l210,124V792H471V625H329V306c0,0,0,-97,4,-113c0,0,4,-16,18,-26c0,0,15,-11,36,-11c0,0,29,0,84,21L489,14c0,0,-73,-31,-165,-31Z" 
id="f0_2g"
transform="scale(0.001,-0.001)" />

<path d="M580,464c0,0,-2,91,-47,139c0,0,-45,47,-108,47c0,0,-69,0,-113,-50c0,0,-45,-50,-44,-136ZM433,-17c0,0,-207,0,-306,134c0,0,-78,109,-78,274c0,0,0,196,103,308c0,0,103,112,260,112c0,0,176,0,278,-117c0,0,103,-117,98,-358H264c0,0,2,-93,51,-145c0,0,48,-52,120,-52c0,0,49,0,83,27c0,0,33,27,50,86L777,217C777,217,737,102,650,42c0,0,-87,-59,-217,-59Z" 
id="f0_21"
transform="scale(0.001,-0.001)" />

<path d="M150,0V209H359V0Zm0,583V792H359V583Z" 
id="f0_u"
transform="scale(0.001,-0.001)" />

<path d="M417,-18c0,0,-148,0,-246,85c0,0,-98,85,-113,223l203,25c0,0,10,-78,52,-119c0,0,43,-41,103,-41c0,0,65,0,109,50c0,0,44,49,44,132c0,0,0,79,-42,125c0,0,-43,46,-104,46c0,0,-40,0,-95,-15l23,171c0,0,1,0,2,0c15,0,87,2,127,37c0,0,45,39,45,104c0,0,0,55,-33,88c0,0,-33,33,-87,33c0,0,-54,0,-92,-37c0,0,-38,-38,-46,-110L73,812c0,0,20,99,61,159c0,0,41,59,114,93c0,0,72,34,163,34c0,0,154,0,247,-98c0,0,77,-81,77,-183c0,0,0,-144,-157,-229c0,0,94,-20,150,-91c0,0,56,-70,56,-169c0,0,0,-144,-105,-245C679,83,574,-18,417,-18Z" 
id="f0_n"
transform="scale(0.001,-0.001)" />

<path d="M109,0V209H318V0Z" 
id="f0_i"
transform="scale(0.001,-0.001)" />

<path d="M314,-321c0,0,-114,173,-174,358c0,0,-60,185,-60,359c0,0,0,216,74,408c0,0,64,168,163,309H460c0,0,-103,-226,-141,-385c0,0,-38,-159,-38,-336c0,0,0,-123,22,-251c0,0,23,-128,63,-243c0,0,26,-76,92,-219Z" 
id="f0_c"
transform="scale(0.001,-0.001)" />

<path d="M429,-18c0,0,-152,0,-247,81c0,0,-96,81,-115,219l210,21c0,0,9,-71,53,-112c0,0,44,-41,102,-41c0,0,65,0,111,53c0,0,46,53,46,161c0,0,0,100,-46,151c0,0,-45,50,-118,50c0,0,-90,0,-162,-80L93,510l107,569H755V883H359L326,697c0,0,70,35,144,35c0,0,139,0,237,-101c0,0,97,-102,97,-264c0,0,0,-135,-79,-241C725,126,619,-18,429,-18Z" 
id="f0_p"
transform="scale(0.001,-0.001)" />

<path d="M454,155c0,0,58,0,97,46c0,0,39,46,39,150c0,0,0,107,-42,157c0,0,-42,49,-105,49c0,0,-60,0,-102,-47c0,0,-42,-48,-42,-140c0,0,0,-103,47,-159c0,0,47,-56,108,-56ZM444,-18c0,0,-166,0,-273,128C171,110,65,239,65,532c0,0,0,300,111,433c0,0,111,133,288,133c0,0,125,0,206,-69c0,0,82,-70,104,-202L571,805c0,0,-7,62,-39,91c0,0,-31,30,-81,30c0,0,-66,0,-112,-59c0,0,-46,-60,-58,-248c0,0,79,93,195,93c0,0,132,0,225,-100c0,0,94,-101,94,-259c0,0,0,-168,-99,-270C696,83,598,-18,444,-18Z" 
id="f0_q"
transform="scale(0.001,-0.001)" />

<path d="M-1,-18L269,1113H426L153,-18Z" 
id="f0_j"
transform="scale(0.001,-0.001)" />

<path d="M52,-321c0,0,62,133,87,204c0,0,25,71,47,162c0,0,21,93,32,176c0,0,10,83,10,171c0,0,0,177,-38,336c0,0,-38,159,-140,385H193c0,0,112,-161,174,-341c0,0,63,-179,63,-365c0,0,0,-156,-50,-334c0,0,-55,-199,-183,-394Z" 
id="f0_d"
transform="scale(0.001,-0.001)" />

<path d="M359,0V908H34v185H903V908H580V0Z" 
id="f0_1k"
transform="scale(0.001,-0.001)" />

<path d="M109,0V1093H318V691c0,0,101,120,243,120c0,0,72,0,131,-27c0,0,58,-27,87,-69c0,0,30,-42,41,-93c0,0,11,-50,11,-157V0H621V419c0,0,0,124,-12,158c0,0,-12,34,-42,53c0,0,-30,20,-76,20c0,0,-53,0,-94,-25c0,0,-41,-26,-60,-77c0,0,-19,-51,-19,-151V0Z" 
id="f1_24"
transform="scale(0.001,-0.001)" />

<path d="M580,464c0,0,-2,91,-47,139c0,0,-45,47,-108,47c0,0,-69,0,-113,-50c0,0,-45,-50,-44,-136ZM433,-17c0,0,-207,0,-306,134c0,0,-78,109,-78,274c0,0,0,196,103,308c0,0,103,112,260,112c0,0,176,0,278,-117c0,0,103,-117,98,-358H264c0,0,2,-93,51,-145c0,0,48,-52,120,-52c0,0,49,0,83,27c0,0,33,27,50,86L777,217C777,217,737,102,650,42c0,0,-87,-59,-217,-59Z" 
id="f1_21"
transform="scale(0.001,-0.001)" />

<path d="M94,0V792H287V684c0,0,104,127,247,127c0,0,75,0,131,-32c0,0,56,-31,92,-94c0,0,52,63,112,94c0,0,61,32,129,32c0,0,87,0,148,-36c0,0,60,-35,90,-104c0,0,21,-51,21,-164V0H1048V453c0,0,0,118,-21,152c0,0,-30,45,-90,45c0,0,-44,0,-83,-27c0,0,-38,-27,-56,-78c0,0,-17,-52,-17,-164V0H572V434c0,0,0,116,-11,150c0,0,-11,33,-35,50c0,0,-23,16,-64,16c0,0,-48,0,-87,-26c0,0,-38,-26,-55,-75c0,0,-17,-50,-17,-164V0Z" 
id="f1_29"
transform="scale(0.001,-0.001)" />

<path d="M110,0V792H319V0Zm0,900v193H319V900Z" 
id="f1_25"
transform="scale(0.001,-0.001)" />

<path d="M415,-17c0,0,-161,0,-255,65c0,0,-95,65,-124,178l210,32c0,0,14,-61,55,-92c0,0,41,-32,114,-32c0,0,82,0,123,30c0,0,27,21,27,56c0,0,0,24,-15,39c0,0,-15,15,-70,28c0,0,-253,56,-321,102c0,0,-93,64,-93,178c0,0,0,103,81,173c0,0,81,71,252,71c0,0,162,0,241,-54c0,0,79,-53,109,-157L551,564c0,0,-12,47,-48,71c0,0,-35,25,-101,25c0,0,-82,0,-118,-23c0,0,-24,-17,-24,-43c0,0,0,-22,21,-38c0,0,28,-21,195,-59c0,0,168,-38,234,-93c0,0,65,-56,65,-156c0,0,0,-109,-91,-187c0,0,-90,-78,-269,-78Z" 
id="f1_2f"
transform="scale(0.001,-0.001)" />

<path d="M324,-17c0,0,-57,0,-102,18c0,0,-45,19,-67,50c0,0,-21,30,-29,81c0,0,-7,37,-7,148V625H23V792h96V949l210,124V792H471V625H329V306c0,0,0,-97,4,-113c0,0,4,-16,18,-26c0,0,15,-11,36,-11c0,0,29,0,84,21L489,14c0,0,-73,-31,-165,-31Z" 
id="f1_2g"
transform="scale(0.001,-0.001)" />

<path d="M101,0V792H295V679c0,0,50,80,90,106c0,0,40,26,91,26c0,0,72,0,138,-40L549,589c0,0,-53,34,-99,34c0,0,-44,0,-74,-24c0,0,-31,-25,-48,-88c0,0,-18,-64,-18,-266V0Z" 
id="f1_2e"
transform="scale(0.001,-0.001)" />

<path d="M199,-321c0,0,-61,0,-119,13L62,-144c0,0,49,-9,88,-9c0,0,73,0,108,43c0,0,35,42,54,109L11,792H234L423,230L608,792H825L546,30L495,-107c0,0,-27,-70,-52,-106c0,0,-25,-37,-58,-60c0,0,-32,-22,-79,-35c0,0,-48,-13,-107,-13Z" 
id="f1_2l"
transform="scale(0.001,-0.001)" />

<path d="M470,154c0,0,82,0,137,62c0,0,55,63,55,182c0,0,0,116,-55,179c0,0,-55,62,-137,62c0,0,-82,0,-138,-62c0,0,-55,-63,-55,-180c0,0,0,-118,55,-181c0,0,56,-62,138,-62Zm1,-171c0,0,-109,0,-208,49c0,0,-99,49,-150,144c0,0,-51,95,-51,232c0,0,0,104,51,202c0,0,51,98,146,149c0,0,94,52,210,52c0,0,180,0,295,-117c0,0,114,-117,114,-295c0,0,0,-180,-115,-298C763,101,647,-17,471,-17Z" 
id="f1_2b"
transform="scale(0.001,-0.001)" />

<path d="M110,0V1093H319V0Z" 
id="f1_28"
transform="scale(0.001,-0.001)" />

<path d="M369,-17c0,0,-80,0,-143,34c0,0,-64,35,-92,99c0,0,-28,63,-28,175V792H315V429c0,0,0,-167,11,-205c0,0,12,-37,43,-59c0,0,30,-22,77,-22c0,0,54,0,97,29c0,0,42,30,58,73c0,0,15,44,15,213V792H826V0H631V119C631,119,588,55,517,19c0,0,-70,-36,-148,-36Z" 
id="f1_2h"
transform="scale(0.001,-0.001)" />

<path d="M108,0V792H302V676c0,0,104,135,262,135c0,0,69,0,127,-25c0,0,57,-25,87,-64c0,0,29,-39,41,-88c0,0,12,-50,12,-141V0H621V405c0,0,0,128,-13,166c0,0,-14,37,-44,58c0,0,-30,21,-73,21c0,0,-55,0,-98,-30c0,0,-44,-29,-60,-79c0,0,-16,-49,-16,-182V0Z" 
id="f1_2a"
transform="scale(0.001,-0.001)" />

<path d="M197,0V27c0,0,71,2,92,13c0,0,21,10,29,29c0,0,9,18,9,109V725c0,0,0,110,-8,141c0,0,-5,24,-19,35c0,0,-14,11,-33,11c0,0,-28,0,-77,-23l-11,23l246,121h25V178c0,0,0,-85,7,-106c0,0,7,-21,29,-32c0,0,23,-11,91,-13V0Z" 
id="f2_l"
transform="scale(0.001,-0.001)" />

<path d="M191,-20c0,0,-34,0,-58,24c0,0,-24,24,-24,58c0,0,0,35,24,59c0,0,24,24,58,24c0,0,35,0,59,-24c0,0,24,-25,24,-59c0,0,0,-34,-24,-58c0,0,-25,-24,-59,-24Z" 
id="f2_i"
transform="scale(0.001,-0.001)" />

<path d="M474,-21L174,817c0,0,-34,94,-42,112c0,0,-15,28,-41,42c0,0,-26,14,-70,14v27H395V985H377c0,0,-40,0,-60,-18c0,0,-21,-18,-21,-44c0,0,0,-26,33,-120L528,235L696,718l-30,85l-24,68c0,0,-16,37,-35,66c0,0,-10,14,-24,24c0,0,-19,13,-38,19c0,0,-14,5,-44,5v27H894V985H867c0,0,-41,0,-61,-18c0,0,-19,-18,-19,-49c0,0,0,-38,33,-133L1015,235l193,557c0,0,32,93,32,129c0,0,0,17,-10,32c0,0,-11,15,-28,21c0,0,-28,11,-74,11v27h302V985c0,0,-39,0,-64,-15c0,0,-25,-14,-47,-53c0,0,-15,-26,-47,-124L990,-21H960L729,624L501,-21Z" 
id="f2_1n"
transform="scale(0.001,-0.001)" />

<path d="M17,0V26c0,0,52,0,77,17c0,0,19,12,26,38c0,0,4,13,4,73V419c0,0,0,119,-5,142c0,0,-4,23,-17,33c0,0,-13,11,-33,11c0,0,-23,0,-52,-11l-7,26l207,83h31V549c0,0,86,154,176,154c0,0,41,0,68,-25c0,0,27,-25,27,-58c0,0,0,-29,-20,-49c0,0,-19,-20,-46,-20c0,0,-26,0,-58,25c0,0,-33,26,-48,26c0,0,-14,0,-29,-15c0,0,-34,-30,-70,-101V159c0,0,0,-56,15,-85c0,0,9,-20,34,-34c0,0,24,-14,71,-14V0Z" 
id="f2_2e"
transform="scale(0.001,-0.001)" />

<path d="M55,0V26c0,0,50,0,67,10c0,0,17,10,27,32c0,0,10,23,10,86V418c0,0,0,111,-6,144c0,0,-6,24,-17,33c0,0,-11,10,-30,10c0,0,-21,0,-51,-11L45,620l206,83h33V154c0,0,0,-64,9,-85c0,0,9,-22,27,-32c0,0,19,-11,67,-11V0ZM222,909c0,0,-32,0,-54,23c0,0,-22,22,-22,53c0,0,0,32,22,54c0,0,22,22,54,22c0,0,31,0,53,-22c0,0,22,-22,22,-54c0,0,0,-31,-22,-53c0,0,-22,-23,-53,-23Z" 
id="f2_25"
transform="scale(0.001,-0.001)" />

<path d="M255,-10c0,0,-35,0,-68,18c0,0,-32,19,-48,55c0,0,-16,35,-16,109V632H15v24c0,0,41,16,84,56c0,0,43,39,77,92c0,0,17,29,48,104h23V683H407V632H247V188c0,0,0,-66,19,-90c0,0,19,-23,49,-23c0,0,24,0,47,16c0,0,23,15,36,45h29c0,0,-26,-73,-74,-110c0,0,-47,-36,-98,-36Z" 
id="f2_2g"
transform="scale(0.001,-0.001)" />

<path d="M479,469c0,0,-4,66,-16,93c0,0,-18,42,-55,65c0,0,-37,24,-78,24c0,0,-62,0,-111,-48c0,0,-48,-48,-57,-134ZM355,-20c0,0,-123,0,-211,95c0,0,-87,96,-87,258c0,0,0,175,90,273c0,0,89,98,225,98c0,0,115,0,189,-76c0,0,74,-75,74,-202H162c0,0,0,-152,74,-239c0,0,75,-86,175,-86c0,0,67,0,117,36c0,0,50,37,83,127l24,-15c0,0,-16,-102,-91,-186c0,0,-76,-83,-189,-83Z" 
id="f2_21"
transform="scale(0.001,-0.001)" />

<path d="M20,0V26c0,0,45,0,71,15c0,0,15,7,24,28c0,0,9,21,9,85V773c0,0,0,117,-5,144c0,0,-6,27,-17,37c0,0,-12,9,-31,9c0,0,-16,0,-51,-12L10,978l204,83h34V561c0,0,83,91,131,116c0,0,49,26,97,26c0,0,58,0,100,-32c0,0,42,-32,62,-101c0,0,14,-47,14,-174V154c0,0,0,-65,11,-89c0,0,7,-18,25,-28c0,0,18,-11,66,-11V0H418V26h15c0,0,48,0,67,15c0,0,18,15,26,43c0,0,2,12,2,70V396c0,0,0,112,-12,147c0,0,-11,35,-36,53c0,0,-26,17,-61,17c0,0,-37,0,-76,-19c0,0,-40,-20,-95,-79V154c0,0,0,-70,8,-87c0,0,8,-17,29,-29c0,0,22,-12,74,-12V0Z" 
id="f2_24"
transform="scale(0.001,-0.001)" />

<path d="M38,0V27H74c0,0,63,0,91,37c0,0,18,24,18,115V833c0,0,0,77,-10,102c0,0,-7,18,-30,32c0,0,-33,18,-69,18H38v27H470V985H434c0,0,-62,0,-90,-37c0,0,-18,-24,-18,-115V179c0,0,0,-77,9,-102c0,0,8,-18,31,-32c0,0,32,-18,68,-18h36V0Z" 
id="f2_19"
transform="scale(0.001,-0.001)" />

<path d="M551,-22c0,0,-165,0,-251,56c0,0,-86,57,-122,154c0,0,-24,67,-24,250V833c0,0,0,93,-25,123c0,0,-26,29,-83,29H8v27H444V985H405c0,0,-62,0,-89,-40c0,0,-19,-27,-19,-112V392c0,0,0,-59,11,-135c0,0,11,-76,39,-118c0,0,29,-43,82,-70c0,0,53,-28,131,-28c0,0,99,0,178,43c0,0,78,44,107,111c0,0,29,68,29,229V833c0,0,0,95,-21,119c0,0,-29,33,-86,33H729v27h357V985h-38c0,0,-59,0,-91,-50c0,0,-16,-23,-16,-108V417c0,0,0,-152,-30,-236C911,181,881,97,792,37c0,0,-88,-59,-241,-59Z" 
id="f2_1l"
transform="scale(0.001,-0.001)" />

<path d="M435,502c0,0,78,0,134,60c0,0,57,60,57,155c0,0,0,66,-27,122c0,0,-27,56,-76,84c0,0,-50,28,-112,28c0,0,-38,0,-98,-14V517c0,0,39,-8,70,-12c0,0,31,-3,52,-3ZM25,0V27H63c0,0,65,0,92,42c0,0,15,23,15,110V833c0,0,0,96,-20,119c0,0,-29,33,-87,33H25v27H396c0,0,136,0,214,-28c0,0,78,-28,132,-94c0,0,54,-67,54,-158c0,0,0,-124,-82,-202c0,0,-82,-77,-231,-77c0,0,-36,0,-79,5c0,0,-43,5,-91,16V179c0,0,0,-96,21,-119c0,0,28,-33,85,-33h39V0Z" 
id="f2_1g"
transform="scale(0.001,-0.001)" />

<path d="M678,393L506,802L330,393ZM11,0V27c0,0,63,12,82,30c0,0,38,35,84,145l356,832h27L912,193c0,0,43,-101,77,-132c0,0,35,-30,97,-34V0H687V27c0,0,60,3,82,21c0,0,21,17,21,41c0,0,0,33,-30,104L700,338H307L239,179c0,0,-26,-59,-26,-88c0,0,0,-23,22,-41c0,0,22,-17,95,-23V0Z" 
id="f2_11"
transform="scale(0.001,-0.001)" />

<path d="M548,-21c0,0,-251,0,-389,185C159,164,56,303,56,490c0,0,0,152,68,278c0,0,67,127,186,197c0,0,119,69,260,69c0,0,109,0,216,-53c0,0,31,-17,44,-17c0,0,20,0,35,14c0,0,20,21,28,56h26L943,690H919c0,0,-46,155,-131,224c0,0,-86,68,-206,68c0,0,-100,0,-181,-51c0,0,-81,-52,-128,-163c0,0,-46,-112,-46,-279c0,0,0,-137,44,-238c0,0,44,-101,132,-154c0,0,88,-54,201,-54c0,0,99,0,174,42c0,0,75,42,165,167l23,-14C966,238,890,103,789,40c0,0,-102,-61,-241,-61Z" 
id="f2_13"
transform="scale(0.001,-0.001)" />

<path d="M21,0V26H35c0,0,53,0,71,27c0,0,18,27,18,101V408c0,0,0,123,-5,150c0,0,-6,27,-17,37c0,0,-12,10,-31,10c0,0,-21,0,-50,-11L10,620l206,83h32V558c0,0,120,145,229,145c0,0,56,0,96,-28c0,0,40,-28,64,-92c0,0,16,-45,16,-137V154c0,0,0,-65,11,-88c0,0,8,-19,26,-29c0,0,18,-11,68,-11V0H419V26h14c0,0,47,0,66,15c0,0,20,15,27,43c0,0,3,11,3,70V434c0,0,0,93,-24,135c0,0,-24,42,-81,42c0,0,-88,0,-176,-97V154c0,0,0,-69,9,-86c0,0,10,-21,28,-31c0,0,19,-11,75,-11V0Z" 
id="f2_2a"
transform="scale(0.001,-0.001)" />

<path d="M286,72c0,0,57,0,149,75V407c0,0,-113,-45,-145,-64c0,0,-59,-32,-85,-68c0,0,-25,-36,-25,-78c0,0,0,-54,32,-89c0,0,32,-36,74,-36ZM217,-13c0,0,-71,0,-116,48c0,0,-46,48,-46,127c0,0,0,50,22,87c0,0,31,50,106,95c0,0,76,45,252,109v26c0,0,0,102,-32,140c0,0,-32,38,-94,38c0,0,-47,0,-74,-25c0,0,-28,-25,-28,-58l1,-43c0,0,0,-34,-17,-53c0,0,-18,-18,-47,-18c0,0,-28,0,-45,19c0,0,-18,19,-18,53c0,0,0,64,66,117c0,0,65,54,184,54c0,0,91,0,149,-31c0,0,44,-23,65,-72c0,0,13,-32,13,-131V238c0,0,0,-98,4,-120c0,0,4,-22,12,-29c0,0,9,-8,20,-8c0,0,12,0,21,5c0,0,16,10,61,55V99C676,99,592,-12,516,-12c0,0,-37,0,-58,24c0,0,-22,26,-23,86C435,98,330,17,303,5c0,0,-40,-18,-86,-18Z" 
id="f2_1x"
transform="scale(0.001,-0.001)" />

<path d="M23,0V26c0,0,47,0,66,10c0,0,19,11,28,33c0,0,10,22,10,85V416c0,0,0,112,-7,145c0,0,-5,25,-16,34c0,0,-11,10,-31,10c0,0,-21,0,-50,-11L12,620l207,83h32V557c0,0,75,75,88,86c0,0,34,29,72,44c0,0,39,16,77,16c0,0,64,0,110,-37c0,0,47,-38,62,-109c0,0,77,90,130,118c0,0,53,28,109,28c0,0,54,0,96,-28c0,0,42,-28,67,-91c0,0,16,-43,16,-136V154c0,0,0,-64,10,-88c0,0,8,-16,28,-28c0,0,20,-12,65,-12V0H844V26h14c0,0,44,0,69,18c0,0,17,12,24,38c0,0,3,13,3,72V448c0,0,0,83,-20,117c0,0,-29,48,-93,48c0,0,-39,0,-79,-20c0,0,-40,-19,-97,-73l-1,-8l2,-32V154c0,0,0,-70,8,-87c0,0,7,-17,29,-29c0,0,21,-12,73,-12V0H431V26c0,0,57,0,78,14c0,0,21,13,29,40c0,0,4,13,4,74V448c0,0,0,83,-25,120c0,0,-33,48,-91,48c0,0,-40,0,-80,-22c0,0,-61,-33,-95,-74V154c0,0,0,-67,10,-87c0,0,9,-20,27,-30c0,0,18,-11,74,-11V0Z" 
id="f2_29"
transform="scale(0.001,-0.001)" />

<path d="M406,32c0,0,72,0,119,60c0,0,47,59,47,205c0,0,0,181,-78,286c0,0,-53,71,-135,71c0,0,-40,0,-79,-23c0,0,-40,-24,-65,-83c0,0,-24,-58,-24,-151c0,0,0,-149,59,-257c0,0,59,-108,156,-108ZM374,-20c0,0,-154,0,-245,122c0,0,-77,104,-77,233c0,0,0,94,46,187c0,0,47,92,123,137c0,0,76,44,161,44c0,0,155,0,249,-118c0,0,80,-100,80,-231c0,0,0,-91,-44,-185C667,169,623,75,546,27c0,0,-77,-47,-172,-47Z" 
id="f2_2b"
transform="scale(0.001,-0.001)" />

<path d="M63,0V26H93c0,0,30,0,54,15c0,0,25,15,34,41c0,0,10,25,10,99V630H58v53H191v45c0,0,0,102,33,173c0,0,32,71,100,114c0,0,68,44,152,44c0,0,79,0,145,-51c0,0,43,-33,43,-75c0,0,0,-22,-19,-42c0,0,-20,-20,-42,-20c0,0,-17,0,-36,12c0,0,-19,13,-47,53c0,0,-28,41,-51,55c0,0,-23,14,-51,14c0,0,-35,0,-58,-18c0,0,-24,-18,-35,-57c0,0,-10,-38,-10,-197V683H491V630H315V181c0,0,0,-96,21,-122c0,0,27,-33,73,-33h62V0Z" 
id="f2_22"
transform="scale(0.001,-0.001)" />

<path d="M58,0V26c0,0,47,0,64,10c0,0,18,10,28,32c0,0,9,23,9,86V775c0,0,0,116,-5,142c0,0,-5,27,-17,37c0,0,-11,9,-29,9c0,0,-20,0,-49,-12L46,978l204,83h34V154c0,0,0,-64,9,-85c0,0,9,-21,29,-32c0,0,19,-11,72,-11V0Z" 
id="f2_28"
transform="scale(0.001,-0.001)" />

<path d="M336,-20L117,554c0,0,-21,55,-42,74c0,0,-21,19,-66,29v26H296V657c0,0,-40,-3,-52,-14c0,0,-13,-12,-13,-33c0,0,0,-23,13,-56L390,162L537,481L498,581c0,0,-18,46,-47,63c0,0,-17,11,-61,13v26H716V657c0,0,-54,-2,-77,-20c0,0,-15,-12,-15,-39c0,0,0,-15,6,-30L785,177L929,554c0,0,15,40,15,65c0,0,0,14,-15,25c0,0,-14,12,-57,13v26h216V657c0,0,-65,-10,-95,-89L764,-20H733L563,415L363,-20Z" 
id="f2_2j"
transform="scale(0.001,-0.001)" />

<path d="M411,-239c0,0,134,0,198,48c0,0,64,47,64,100c0,0,0,39,-38,55c0,0,-39,16,-154,19c0,0,-167,5,-258,17c0,0,-35,-37,-53,-70c0,0,-17,-32,-17,-60c0,0,0,-36,43,-62c0,0,74,-47,215,-47ZM380,257c0,0,56,0,93,43c0,0,36,42,36,133c0,0,0,118,-51,185c0,0,-38,49,-98,49c0,0,-55,0,-92,-44c0,0,-37,-44,-37,-135c0,0,0,-117,50,-182c0,0,39,-49,99,-49ZM345,-328c0,0,-144,0,-243,64c0,0,-56,38,-56,78c0,0,0,18,8,36c0,0,13,27,52,76c0,0,5,7,76,80c0,0,-39,23,-55,41c0,0,-16,19,-16,42c0,0,0,26,22,61c0,0,21,35,98,100c0,0,-63,30,-97,85c0,0,-33,55,-33,121c0,0,0,101,76,174c0,0,77,73,196,73c0,0,98,0,170,-48H688c0,0,32,0,37,-2c0,0,6,-2,8,-6c0,0,4,-7,4,-24c0,0,0,-20,-4,-27c0,0,-2,-4,-7,-6c0,0,-6,-2,-38,-2H599c0,0,41,-54,41,-137c0,0,0,-96,-73,-163c0,0,-73,-68,-196,-68c0,0,-51,0,-104,15c0,0,-33,-28,-44,-49c0,0,-12,-22,-12,-37c0,0,0,-12,13,-24c0,0,12,-12,48,-17c0,0,21,-4,104,-6c0,0,154,-4,199,-11c0,0,70,-10,111,-51c0,0,42,-41,42,-102c0,0,0,-84,-79,-158c0,0,-117,-108,-304,-108Z" 
id="f2_23"
transform="scale(0.001,-0.001)" />

<path d="M213,-20c0,0,-34,0,-58,24c0,0,-24,24,-24,58c0,0,0,34,24,58c0,0,24,25,58,25c0,0,35,0,59,-25c0,0,24,-24,24,-58c0,0,0,-34,-24,-58c0,0,-25,-24,-59,-24Zm3,559c0,0,-35,0,-59,24c0,0,-24,24,-24,58c0,0,0,35,24,59c0,0,24,24,59,24c0,0,34,0,58,-24c0,0,24,-24,24,-59c0,0,0,-34,-24,-58c0,0,-24,-24,-58,-24Z" 
id="f2_u"
transform="scale(0.001,-0.001)" />

<path d="M26,0V27H62c0,0,63,0,91,37c0,0,18,24,18,115V833c0,0,0,77,-10,102c0,0,-7,18,-30,32c0,0,-33,18,-69,18H26v27H459V985H422c0,0,-35,0,-67,-17c0,0,-23,-12,-32,-36c0,0,-9,-25,-9,-99V542H784V833c0,0,0,77,-10,102c0,0,-8,18,-31,32c0,0,-33,18,-68,18H639v27h432V985h-36c0,0,-36,0,-68,-17c0,0,-24,-12,-32,-36c0,0,-9,-25,-9,-99V179c0,0,0,-77,10,-102c0,0,7,-18,31,-32c0,0,32,-18,68,-18h36V0H639V27h36c0,0,62,0,90,37c0,0,19,24,19,115V487H314V179c0,0,0,-77,9,-102c0,0,8,-18,32,-32c0,0,32,-18,67,-18h37V0Z" 
id="f2_18"
transform="scale(0.001,-0.001)" />

<path d="M-13,338v55H1541V338Z" 
id="f2_4z"
transform="scale(0.001,-0.001)" />

<path d="M238,-17c0,0,-103,0,-139,25C99,8,62,33,62,62c0,0,0,22,17,38c0,0,18,16,42,16c0,0,19,0,38,-6c0,0,13,-3,58,-27c0,0,45,-23,62,-28c0,0,27,-8,59,-8c0,0,76,0,132,59c0,0,56,59,56,140c0,0,0,59,-26,115c0,0,-19,41,-42,63c0,0,-32,30,-88,54c0,0,-56,25,-114,25H232v22c0,0,59,8,118,42c0,0,59,35,86,85c0,0,27,49,27,108c0,0,0,76,-48,124c0,0,-48,47,-120,47c0,0,-116,0,-193,-124L77,819c0,0,44,102,110,158c0,0,66,56,164,56c0,0,122,0,187,-80c0,0,49,-58,49,-126c0,0,0,-110,-139,-228c0,0,93,-36,141,-104c0,0,48,-68,48,-160c0,0,0,-131,-84,-227C553,108,444,-17,238,-17Z" 
id="f2_n"
transform="scale(0.001,-0.001)" />

<path d="M33,0V27c0,0,264,241,371,393c0,0,108,152,108,278c0,0,0,96,-59,158c0,0,-59,62,-141,62c0,0,-75,0,-134,-43c0,0,-59,-44,-88,-128H63c0,0,18,138,95,212c0,0,77,74,193,74c0,0,123,0,205,-80c0,0,83,-79,83,-186c0,0,0,-77,-36,-154c0,0,-55,-121,-179,-256C424,357,238,154,191,112H455c0,0,81,0,114,6c0,0,32,6,58,25c0,0,27,18,46,52h27L630,0Z" 
id="f2_m"
transform="scale(0.001,-0.001)" />

<path d="M247,-17c0,0,-91,0,-132,30c0,0,-42,31,-42,68c0,0,0,21,17,37c0,0,18,16,44,17c0,0,19,0,34,-6c0,0,14,-7,49,-31c0,0,56,-39,113,-39c0,0,88,0,154,66c0,0,66,66,66,161c0,0,0,92,-59,171c0,0,-59,80,-163,123c0,0,-81,34,-221,39l194,393H663L605,885H301L234,750c0,0,198,-29,313,-147c0,0,100,-102,100,-239c0,0,0,-80,-33,-148c0,0,-32,-68,-81,-116c0,0,-50,-47,-110,-77c0,0,-86,-40,-176,-40Z" 
id="f2_p"
transform="scale(0.001,-0.001)" />

<path d="M545,30c0,0,143,0,236,111c0,0,93,111,93,351c0,0,0,259,-103,386c0,0,-82,102,-226,102c0,0,-136,0,-218,-101C327,879,225,754,225,512c0,0,0,-247,106,-380c0,0,81,-102,214,-102Zm2,-51c0,0,-209,0,-351,147C196,126,54,274,54,510c0,0,0,240,164,393c0,0,142,131,341,131c0,0,197,0,341,-149c0,0,145,-149,145,-373c0,0,0,-230,-146,-382C899,130,754,-21,547,-21Z" 
id="f2_1f"
transform="scale(0.001,-0.001)" />

<path d="M312,-20c0,0,-62,0,-143,22c0,0,-25,8,-40,8c0,0,-18,0,-27,-19H77V234h25c0,0,21,-105,80,-158c0,0,59,-53,132,-53c0,0,51,0,84,31c0,0,32,30,32,72c0,0,0,52,-36,87c0,0,-36,35,-144,88c0,0,-109,54,-142,97c0,0,-34,43,-34,107c0,0,0,85,58,141c0,0,58,57,150,57c0,0,40,0,97,-17c0,0,38,-11,51,-11c0,0,12,0,19,5c0,0,7,5,15,23h25V470H464c0,0,-28,110,-72,149c0,0,-45,40,-113,40c0,0,-53,0,-85,-28c0,0,-32,-27,-32,-61c0,0,0,-41,24,-71c0,0,23,-31,94,-65L389,381c0,0,152,-74,152,-194c0,0,0,-94,-71,-151c0,0,-70,-56,-158,-56Z" 
id="f2_2f"
transform="scale(0.001,-0.001)" />

<path d="M452,373V875L97,373ZM452,0V267H23v95l470,671h82V373H711V267H575V0Z" 
id="f2_o"
transform="scale(0.001,-0.001)" />

<path d="M82,-253v33c0,0,77,25,119,78c0,0,42,54,42,114c0,0,0,14,-7,23c0,0,-5,6,-11,6c0,0,-8,0,-35,-14c0,0,-14,-7,-28,-7c0,0,-37,0,-58,21C104,1,82,23,82,61c0,0,0,36,28,62c0,0,28,27,68,27c0,0,49,0,88,-43c0,0,38,-43,38,-113c0,0,0,-77,-53,-143c0,0,-53,-66,-169,-104Z" 
id="f2_g"
transform="scale(0.001,-0.001)" />

<path d="M62,286V399H448V286Z" 
id="f2_h"
transform="scale(0.001,-0.001)" />

<path d="M399,62c0,0,68,0,131,68V481c0,0,-5,51,-27,93c0,0,-22,42,-59,63c0,0,-37,21,-72,21c0,0,-65,0,-117,-59c0,0,-67,-77,-67,-226c0,0,0,-151,65,-231c0,0,66,-80,146,-80ZM330,-20c0,0,-112,0,-196,93c0,0,-83,94,-83,240c0,0,0,147,92,269c0,0,93,122,238,122c0,0,90,0,149,-58V773c0,0,0,117,-6,144c0,0,-5,27,-17,37c0,0,-12,9,-30,9c0,0,-20,0,-52,-12l-9,27l204,83h33V270c0,0,0,-120,6,-146c0,0,5,-27,18,-37c0,0,12,-11,28,-11c0,0,21,0,54,13l9,-26L564,-20H530V78C530,78,480,25,432,2c0,0,-47,-22,-102,-22Z" 
id="f2_20"
transform="scale(0.001,-0.001)" />

<path d="M145,-328c0,0,-44,0,-73,25c0,0,-28,25,-28,58c0,0,0,31,21,50c0,0,20,19,56,19c0,0,25,0,67,-16c0,0,30,-11,38,-11c0,0,22,0,49,23c0,0,26,23,53,89L376,28L131,542c0,0,-11,24,-36,58c0,0,-19,27,-30,36c0,0,-18,12,-56,21v26H328V657H312c0,0,-33,0,-50,-15c0,0,-17,-14,-17,-36c0,0,0,-30,25,-81L437,179L589,557c0,0,12,31,12,62c0,0,0,13,-5,20c0,0,-6,8,-19,13c0,0,-12,5,-44,5v26H754V657c0,0,-27,-3,-42,-12c0,0,-15,-9,-33,-34c0,0,-7,-10,-25,-58L376,-128c0,0,-40,-99,-105,-150c0,0,-66,-50,-126,-50Z" 
id="f2_2l"
transform="scale(0.001,-0.001)" />

<path d="M398,24c0,0,74,0,120,58c0,0,61,76,61,214c0,0,0,156,-69,240c0,0,-47,59,-113,59c0,0,-36,0,-71,-18c0,0,-27,-14,-88,-81V242c0,0,0,-83,6,-109c0,0,11,-43,51,-76c0,0,41,-33,103,-33ZM-4,-326v27H15c5,0,42,0,69,16c0,0,14,8,22,26c0,0,7,19,7,94V481c0,0,0,67,-6,85c0,0,-5,18,-18,27c0,0,-13,9,-36,9c0,0,-18,0,-45,-10L0,615l209,85h29V540c0,0,53,91,106,127c0,0,53,36,112,36c0,0,103,0,172,-80c0,0,84,-99,84,-257c0,0,0,-176,-102,-292c0,0,-83,-94,-210,-94c0,0,-55,0,-95,16c0,0,-30,10,-67,44V-167c0,0,0,-71,8,-90c0,0,9,-20,30,-31c0,0,21,-11,77,-11v-27Z" 
id="f2_2c"
transform="scale(0.001,-0.001)" />

<path d="M292,-20c0,0,-57,0,-100,33c0,0,-42,33,-58,85c0,0,-17,52,-17,148V551c0,0,0,49,-10,68c0,0,-11,18,-31,29c0,0,-19,9,-68,9c-2,0,-4,0,-6,0v26H242V226c0,0,0,-95,33,-125c0,0,33,-30,80,-30c0,0,32,0,73,21c0,0,40,20,96,76V555c0,0,0,59,-21,80c0,0,-22,21,-89,22v26H647V269c0,0,0,-119,6,-145c0,0,6,-27,18,-37c0,0,12,-11,29,-11c0,0,23,0,52,13L763,63L558,-20H524V124C524,124,436,29,390,4c0,0,-47,-24,-98,-24Z" 
id="f2_2h"
transform="scale(0.001,-0.001)" />

<path d="M342,-20c0,0,-116,0,-203,97c0,0,-86,98,-86,264c0,0,0,161,96,261c0,0,95,101,230,101c0,0,100,0,165,-53c0,0,65,-54,65,-111c0,0,0,-29,-18,-46c0,0,-18,-18,-51,-18c0,0,-44,0,-66,29c0,0,-13,15,-17,59c0,0,-4,45,-30,68c0,0,-26,22,-73,22c0,0,-74,0,-120,-55c0,0,-60,-73,-60,-193c0,0,0,-122,60,-216c0,0,60,-93,162,-93c0,0,73,0,131,49c0,0,41,35,80,126l22,-10C629,261,601,125,521,52c0,0,-81,-72,-179,-72Z" 
id="f2_1z"
transform="scale(0.001,-0.001)" />

<path d="M397,34c0,0,67,0,126,75c0,0,58,74,58,216c0,0,0,131,-58,201c0,0,-59,70,-133,70c0,0,-39,0,-79,-20c0,0,-29,-14,-75,-59V109c0,0,37,-37,78,-56c0,0,40,-19,83,-19ZM358,-20c0,0,-59,0,-121,21c0,0,-61,22,-126,65V773c0,0,0,117,-5,144c0,0,-6,27,-18,37c0,0,-12,9,-29,9c0,0,-21,0,-53,-12l-9,27l205,83h34V564c0,0,98,139,213,139c0,0,105,0,183,-90c0,0,78,-90,78,-245c0,0,0,-182,-121,-293c0,0,-103,-95,-231,-95Z" 
id="f2_1y"
transform="scale(0.001,-0.001)" />

<path d="M30,0V27L485,632H260c0,0,-72,0,-94,-10c0,0,-22,-9,-36,-35c0,0,-20,-37,-23,-92H76l5,188H654V656L196,51H445c0,0,79,0,106,13c0,0,28,13,45,46c0,0,12,23,21,100h25L634,0Z" 
id="f2_2m"
transform="scale(0.001,-0.001)" />

<path d="M384,85c0,0,44,0,78,19c0,0,35,19,68,62V487c0,0,0,55,-15,87c0,0,-14,33,-51,55c0,0,-38,22,-85,22c0,0,-84,0,-143,-71c0,0,-60,-70,-60,-214c0,0,0,-138,61,-209c0,0,61,-72,147,-72Zm35,-411v27h15c0,0,41,0,63,12c0,0,15,8,24,30c0,0,9,21,9,83V119C530,119,462,39,411,9c0,0,-50,-29,-105,-29c0,0,-99,0,-177,90c0,0,-78,90,-78,241c0,0,0,174,103,283c0,0,103,109,248,109c0,0,43,0,78,-12c0,0,36,-12,65,-35c0,0,43,20,83,47h25V-174c0,0,0,-66,9,-85c0,0,9,-19,28,-30c0,0,19,-10,74,-10v-27Z" 
id="f2_2d"
transform="scale(0.001,-0.001)" />

<path d="M714,-21L378,830L198,200c0,0,-20,-72,-20,-111c0,0,0,-28,19,-43c0,0,18,-14,86,-20L276,0H-46l11,26c0,0,59,2,79,10c0,0,30,12,45,32c0,0,22,31,49,117L342,903c0,0,-29,46,-62,63c0,0,-33,17,-104,20l9,26H438L746,229L913,813c0,0,21,73,21,113c0,0,0,28,-19,43c0,0,-19,16,-72,16c0,0,-9,0,-19,1l8,26h325l-9,-26c0,0,-1,0,-2,0c-9,0,-51,-1,-73,-11c0,0,-35,-16,-52,-40c0,0,-24,-35,-49,-123L733,-21Z" 
id="f3_1e"
transform="scale(0.001,-0.001)" />

<path d="M251,69c0,0,93,0,201,118c0,0,131,157,126,322c0,0,0,62,-26,90c0,0,-27,28,-74,28c0,0,-52,0,-110,-44c0,0,-83,-62,-148,-185c0,0,-64,-122,-64,-221c0,0,0,-50,28,-79c0,0,29,-29,67,-29ZM183,-17c0,0,-60,0,-103,44C80,27,36,71,36,149c0,0,0,117,77,247c0,0,77,130,195,208c0,0,92,62,174,62c0,0,49,0,82,-22c0,0,32,-22,49,-73l24,77l115,18L609,160L593,92c0,0,-2,-10,-2,-17c0,0,0,-10,5,-19c0,0,4,-6,11,-6c0,0,6,0,17,11c0,0,21,20,55,88l25,-18c0,0,-43,-75,-89,-112c0,0,-45,-36,-84,-36c0,0,-27,0,-42,16c0,0,-15,15,-15,46c0,0,0,36,17,96l16,55C507,196,399,69,309,19c0,0,-64,-36,-126,-36Z" 
id="f3_1x"
transform="scale(0.001,-0.001)" />

<path d="M467,25c0,0,68,0,133,34c0,0,65,33,136,115c0,0,89,102,149,260c0,0,61,158,61,296c0,0,0,101,-55,179c0,0,-54,78,-164,78c0,0,-74,0,-146,-37c0,0,-71,-37,-141,-121c0,0,-70,-84,-126,-219c0,0,-69,-167,-69,-316c0,0,0,-105,55,-187c0,0,54,-82,167,-82ZM441,-21c0,0,-117,0,-196,50c0,0,-79,52,-116,137c0,0,-38,85,-38,165c0,0,0,141,68,280c0,0,68,138,163,231c0,0,95,93,202,143c0,0,108,49,229,49c0,0,100,0,178,-43c0,0,77,-44,121,-129c0,0,44,-85,44,-177c0,0,0,-163,-94,-341c0,0,-94,-179,-246,-273c0,0,-153,-92,-315,-92Z" 
id="f3_1f"
transform="scale(0.001,-0.001)" />

<path d="M-39,0l10,26c0,0,58,2,77,11c0,0,30,13,44,34c0,0,20,31,48,128L314,811c0,0,21,75,21,114c0,0,0,20,-9,33c0,0,-9,14,-29,21c0,0,-20,7,-77,7l9,26H626l-8,-26c0,0,-1,0,-2,0c-9,0,-51,-1,-72,-11c0,0,-35,-15,-51,-39c0,0,-23,-33,-50,-124L372,560H843l72,251c0,0,21,74,21,114c0,0,0,19,-9,33c0,0,-10,14,-29,21c0,0,-20,7,-76,7l7,26h405l-9,-26h-2c-9,0,-52,-1,-74,-11c0,0,-36,-16,-53,-40c0,0,-25,-35,-50,-124L867,186c0,0,-22,-71,-22,-101c0,0,0,-27,19,-40c0,0,20,-14,95,-19L950,0H563l10,26c0,0,58,2,78,11c0,0,29,13,43,34c0,0,19,30,48,128l88,309H357L266,186c0,0,-22,-70,-22,-101c0,0,0,-27,19,-40c0,0,20,-14,94,-19L351,0Z" 
id="f3_18"
transform="scale(0.001,-0.001)" />

<path d="M328,-20c0,0,-34,0,-58,24c0,0,-25,24,-25,58c0,0,0,35,25,59c0,0,24,24,58,24c0,0,34,0,59,-24c0,0,24,-24,24,-59c0,0,0,-34,-25,-58c0,0,-24,-24,-58,-24ZM308,238c0,0,5,94,23,155c0,0,18,62,76,172c0,0,44,84,58,129c0,0,13,46,13,92c0,0,0,95,-50,150c0,0,-50,56,-123,56c0,0,-65,0,-102,-30c0,0,-38,-31,-38,-67c0,0,0,-27,23,-67c0,0,22,-41,22,-62c0,0,0,-26,-17,-45c0,0,-17,-18,-42,-18c0,0,-31,0,-57,31c0,0,-26,31,-26,86c0,0,0,85,73,150c0,0,72,64,196,64c0,0,153,0,225,-89c0,0,54,-66,54,-146c0,0,0,-54,-24,-112c0,0,-25,-57,-92,-135C500,552,391,430,367,378c0,0,-24,-51,-29,-140Z" 
id="f2_z"
transform="scale(0.001,-0.001)" />

<path d="M485,53c0,0,135,0,206,61c0,0,71,60,71,150c0,0,0,59,-32,114c0,0,-33,54,-105,85c0,0,-72,32,-179,32c0,0,-46,0,-79,-2c0,0,-33,-1,-53,-5V73c0,0,86,-20,171,-20ZM455,547c0,0,109,0,164,23c0,0,55,24,84,72c0,0,29,49,29,106c0,0,0,89,-72,151c0,0,-73,63,-212,63c0,0,-74,0,-134,-16V557c0,0,27,-5,63,-8c0,0,35,-2,78,-2ZM24,0V27H63c0,0,63,0,91,41c0,0,17,26,17,111V833c0,0,0,94,-22,119c0,0,-29,33,-86,33H24v27H462c0,0,122,0,196,-18c0,0,112,-27,171,-95c0,0,59,-68,59,-157c0,0,0,-76,-46,-136c0,0,-47,-60,-137,-89c0,0,105,-23,157,-72c0,0,73,-69,73,-168c0,0,0,-75,-48,-145C887,132,839,63,756,32C756,32,673,0,502,0Z" 
id="f2_12"
transform="scale(0.001,-0.001)" />

<path d="M302,639c0,0,69,0,118,49c0,0,48,49,48,118c0,0,0,69,-48,117c0,0,-49,49,-118,49c0,0,-69,0,-118,-49c0,0,-48,-48,-48,-117c0,0,0,-69,48,-118c0,0,49,-49,118,-49Zm0,-63c0,0,-94,0,-162,67c0,0,-67,67,-67,162c0,0,0,95,67,162c0,0,67,67,162,67c0,0,96,0,163,-67c0,0,67,-67,67,-162c0,0,0,-95,-67,-162c0,0,-67,-67,-163,-67Z" 
id="f2_3o"
transform="scale(0.001,-0.001)" />

<path d="M518,-21c0,0,-124,0,-220,50c0,0,-95,52,-145,146c0,0,-50,94,-50,202c0,0,0,166,88,322c0,0,89,157,244,246c0,0,155,89,312,89c0,0,74,0,166,-34c0,0,40,-15,58,-15c0,0,18,0,31,7c0,0,14,8,45,42h28L999,707H972l-3,82c0,0,-4,45,-17,80c0,0,-14,35,-40,61c0,0,-27,26,-68,40c0,0,-41,15,-91,15c0,0,-134,0,-234,-73c0,0,-127,-94,-199,-264c0,0,-60,-140,-60,-284c0,0,0,-147,86,-234c0,0,86,-88,223,-88c0,0,104,0,185,46c0,0,81,47,151,143h35C940,231,858,100,757,39c0,0,-100,-60,-239,-60Z" 
id="f3_13"
transform="scale(0.001,-0.001)" />

<path d="M474,-326c0,0,-112,57,-188,133c0,0,-107,108,-165,254c0,0,-58,147,-58,305c0,0,0,231,114,421c0,0,114,191,297,273v-31c0,0,-92,-51,-151,-139c0,0,-59,-88,-88,-223c0,0,-30,-135,-30,-281c0,0,0,-160,25,-290c0,0,20,-102,47,-164c0,0,28,-62,75,-120c0,0,47,-57,122,-109v-29Z" 
id="f2_c"
transform="scale(0.001,-0.001)" />

<path d="M290,-283c0,0,107,0,183,37c0,0,76,36,76,93c0,0,0,29,-28,55c0,0,-28,27,-109,43c0,0,-44,9,-232,55c0,0,-60,-27,-91,-70c0,0,-31,-43,-31,-85c0,0,0,-49,44,-81c0,0,65,-47,188,-47Zm53,531c0,0,39,0,76,22c0,0,37,22,63,60c0,0,25,38,40,96c0,0,15,59,15,85c0,0,0,60,-33,94c0,0,-33,34,-87,34c0,0,-85,0,-139,-84c0,0,-55,-85,-55,-176c0,0,0,-58,35,-94c0,0,35,-37,85,-37ZM269,-328c0,0,-92,0,-168,21c0,0,-76,22,-108,60c0,0,-33,37,-33,76c0,0,0,32,21,67c0,0,21,35,53,57c0,0,20,14,114,66c0,0,-35,27,-35,59c0,0,0,30,31,63c0,0,30,34,127,74c0,0,-82,16,-130,69c0,0,-48,53,-48,118c0,0,0,106,93,189c0,0,93,84,247,84c0,0,56,0,92,-11c0,0,36,-12,70,-35H796L774,551H650c0,0,14,-40,14,-75c0,0,0,-99,-84,-176c0,0,-84,-77,-231,-85c0,0,-79,-24,-118,-57c0,0,-15,-12,-15,-25c0,0,0,-14,13,-27c0,0,14,-12,68,-25L442,48c0,0,120,-28,159,-66c0,0,38,-39,38,-91c0,0,0,-61,-46,-111c0,0,-45,-51,-132,-80c0,0,-87,-28,-192,-28Z" 
id="f3_23"
transform="scale(0.001,-0.001)" />

<path d="M35,-326v29c0,0,92,51,151,139c0,0,60,87,89,221c0,0,28,136,28,282c0,0,0,159,-24,290c0,0,-19,103,-47,165c0,0,-28,62,-75,119c0,0,-46,57,-122,110v31c0,0,113,-56,188,-132c0,0,107,-109,165,-255c0,0,58,-147,58,-306c0,0,0,-231,-114,-420c0,0,-113,-191,-297,-273Z" 
id="f2_d"
transform="scale(0.001,-0.001)" />

<path d="M376,-20L133,556c0,0,-17,41,-31,58c0,0,-15,18,-39,30c0,0,-12,7,-50,13v26H335V657H314c0,0,-29,0,-44,-14c0,0,-16,-14,-15,-38c0,0,-1,-26,15,-62L429,165L588,557c0,0,17,42,17,64c0,0,0,10,-6,17c0,0,-8,11,-21,15c0,0,-13,4,-52,4v26H750V657c0,0,-39,-3,-54,-16c0,0,-26,-23,-47,-76L409,-20Z" 
id="f2_2i"
transform="scale(0.001,-0.001)" />

<path d="M253,0V27h36c0,0,64,0,91,39c0,0,16,24,16,109V948H274c0,0,-71,0,-100,-10c0,0,-39,-14,-67,-54c0,0,-27,-41,-33,-109H46l12,237H883L894,775H865c0,0,-8,62,-22,89c0,0,-23,43,-61,64c0,0,-39,20,-101,20H539V175c0,0,0,-93,20,-116c0,0,28,-32,87,-32h36V0Z" 
id="f2_1k"
transform="scale(0.001,-0.001)" />

<path d="M13,0V26c0,0,52,0,78,13c0,0,16,8,24,25c0,0,11,25,11,86V773c0,0,0,118,-5,145c0,0,-5,26,-17,36c0,0,-12,10,-32,10c0,0,-15,0,-47,-13L13,978l203,83h34V381L424,540c0,0,55,50,64,64c0,0,6,9,6,18c0,0,0,15,-12,26c0,0,-13,11,-41,12v23H738V660c0,0,-61,-2,-102,-19c0,0,-40,-17,-89,-62L372,418L547,196c0,0,73,-92,98,-117c0,0,36,-35,63,-45c0,0,18,-8,65,-8V0H441V26c0,0,28,1,38,9c0,0,10,8,10,22c0,0,0,17,-29,56L250,381V154c0,0,0,-67,10,-88c0,0,9,-21,26,-30c0,0,17,-9,75,-10V0Z" 
id="f2_27"
transform="scale(0.001,-0.001)" />

<path d="M25,0V26c0,0,27,4,47,19c0,0,29,22,96,111L311,346L182,535c0,0,-55,81,-86,102c0,0,-30,20,-75,20v26H341V657c0,0,-30,0,-42,-10c0,0,-13,-11,-13,-28c0,0,0,-19,27,-56c0,0,8,-12,25,-37l48,-78l56,77c0,0,55,74,55,94c0,0,0,16,0,27c0,0,0,11,0,11v26H674V657c0,0,-37,-2,-64,-20c0,0,-37,-26,-100,-111L416,402L587,156c0,0,63,-91,89,-109c0,0,27,-18,70,-21V0H423V26c0,0,34,0,53,15c0,0,14,11,14,28c0,0,0,17,-48,87L341,302L232,157c0,0,-50,-69,-50,-82c0,0,0,-18,17,-32c0,0,17,-15,50,-17V0Z" 
id="f2_2k"
transform="scale(0.001,-0.001)" />

<path d="M412,-328c0,0,-195,96,-303,284C109,-44,0,142,0,365c0,0,0,232,114,422c0,0,114,191,298,273v-31c0,0,-92,-51,-151,-139c0,0,-59,-88,-88,-223c0,0,-29,-136,-29,-282c0,0,0,-167,27,-301c0,0,26,-133,82,-221c0,0,55,-89,159,-159v-32Z" 
id="f4_c"
transform="scale(0.001,-0.001)" />

<path d="M34,-328v32c0,0,92,50,151,138c0,0,59,88,88,222c0,0,29,135,29,283c0,0,0,165,-27,300c0,0,-26,134,-82,222c0,0,-56,89,-159,160v31c0,0,194,-96,303,-284c0,0,108,-187,108,-410c0,0,0,-232,-114,-422c0,0,-114,-191,-297,-272Z" 
id="f4_d"
transform="scale(0.001,-0.001)" />

<path d="M512,518c0,0,82,0,149,34c0,0,67,33,105,101c0,0,38,67,38,140c0,0,0,75,-47,119c0,0,-47,44,-142,44c0,0,-52,0,-125,-12L376,541c0,0,85,-23,136,-23ZM-35,0l8,26c0,0,78,0,109,28c0,0,31,27,67,151L312,782c0,0,30,104,30,139c0,0,0,26,-21,44c0,0,-21,17,-94,21l9,26H636c0,0,157,0,235,-68c0,0,78,-67,78,-164c0,0,0,-77,-50,-150c0,0,-49,-72,-147,-117c0,0,-97,-46,-210,-46c0,0,-71,0,-179,27L280,203c0,0,-28,-92,-28,-121c0,0,0,-22,20,-37c0,0,20,-14,96,-19L361,0Z" 
id="f3_1g"
transform="scale(0.001,-0.001)" />

<path d="M133,-17c0,0,-31,0,-50,20C83,3,63,23,63,55c0,0,0,40,25,123L228,609H104l8,30c0,0,82,23,139,67c0,0,57,44,128,154h33L351,657H456L443,609H337L203,171c0,0,-25,-75,-25,-97c0,0,0,-12,5,-19c0,0,5,-6,13,-6c0,0,16,0,44,25c0,0,15,15,71,92l24,-19C335,147,270,48,213,9c0,0,-40,-26,-80,-26Z" 
id="f3_2g"
transform="scale(0.001,-0.001)" />

<path d="M187,318c0,0,111,12,181,43c0,0,92,41,138,98c0,0,46,57,46,108c0,0,0,32,-20,51c0,0,-20,20,-56,20c0,0,-77,0,-163,-81c0,0,-85,-81,-126,-239ZM268,-17c0,0,-110,0,-165,68c0,0,-55,69,-55,151c0,0,0,111,69,228c0,0,68,116,172,180c0,0,104,65,213,65c0,0,79,0,118,-32c0,0,38,-32,38,-76c0,0,0,-62,-50,-119c0,0,-65,-73,-191,-119c0,0,-84,-30,-235,-47c0,0,-5,-38,-5,-62c0,0,0,-67,47,-114c0,0,47,-46,114,-46c0,0,54,0,104,22c0,0,50,22,148,97l15,-21C605,158,428,-17,268,-17Z" 
id="f3_21"
transform="scale(0.001,-0.001)" />

<path d="M504,-17c0,0,-27,0,-42,17c0,0,-16,16,-16,44c0,0,0,36,29,123l98,300c0,0,18,56,18,87c0,0,0,15,-10,24c0,0,-11,10,-26,10c0,0,-23,0,-54,-18c0,0,-60,-34,-124,-111c0,0,-65,-77,-137,-197c0,0,-38,-63,-63,-139L141,0H29L163,467c0,0,24,85,24,102c0,0,0,16,-13,28c0,0,-13,13,-32,13c0,0,-9,0,-30,-3L84,602l-7,27l257,46L238,340c0,0,149,205,228,270c0,0,79,65,152,65c0,0,40,0,66,-27c0,0,26,-27,26,-70c0,0,0,-44,-25,-118L584,149c0,0,-17,-54,-17,-66c0,0,0,-10,5,-17c0,0,5,-7,11,-7c0,0,8,0,20,9c0,0,35,31,77,95l23,-14C703,149,637,51,578,10c0,0,-42,-27,-74,-27Z" 
id="f3_2a"
transform="scale(0.001,-0.001)" />

<path d="M122,-17c0,0,-27,0,-45,19C77,2,59,21,59,46c0,0,0,27,25,111L291,859c0,0,25,86,25,98c0,0,0,18,-14,30c0,0,-14,12,-44,12c0,0,-18,0,-53,-6v27l257,42L200,170c0,0,-19,-67,-19,-82c0,0,0,-11,6,-18c0,0,7,-8,16,-8c0,0,13,0,28,13c0,0,35,31,73,98l22,-23C326,150,259,50,202,11c0,0,-42,-28,-80,-28Z" 
id="f3_28"
transform="scale(0.001,-0.001)" />

<path d="M0,-123V1415H525v-72H72V-123Z" 
id="f4_4r"
transform="scale(0.001,-0.001)" />

<path d="M478,-123V1343H26v72H550V-123Z" 
id="f4_57"
transform="scale(0.001,-0.001)" />

<path d="M0,-123V1415H72V-51H525v-72Z" 
id="f4_4t"
transform="scale(0.001,-0.001)" />

<path d="M26,-123v72H478V1415h72V-123Z" 
id="f4_59"
transform="scale(0.001,-0.001)" />

<path d="M27,354v62H831V354Zm0,243v62H831V597Z" 
id="f2_x"
transform="scale(0.001,-0.001)" />

<path d="M405,24c0,0,65,0,116,62c0,0,51,61,51,174c0,0,0,128,-50,221c0,0,-51,93,-144,93c0,0,-29,0,-61,-12c0,0,-33,-12,-96,-51c0,0,-14,-101,-14,-163c0,0,0,-72,27,-155c0,0,26,-84,79,-134c0,0,38,-35,92,-35ZM384,-17c0,0,-104,0,-177,68C207,51,66,185,66,397c0,0,0,136,54,258c0,0,54,122,156,217c0,0,101,95,193,128c0,0,93,33,172,33h44v-28c0,0,-99,-10,-161,-39c0,0,-62,-29,-123,-90c0,0,-61,-60,-101,-135c0,0,-39,-74,-66,-176c0,0,107,73,215,73c0,0,104,0,180,-83c0,0,76,-84,76,-215c0,0,0,-126,-77,-231c0,0,-92,-126,-244,-126Z" 
id="f2_q"
transform="scale(0.001,-0.001)" />

<path d="M399,105V477H27v62H399V909h60V539H831V477H459V105Z" 
id="f2_f"
transform="scale(0.001,-0.001)" />

<path d="M435,0V856c0,0,-48,-47,-127,-93c0,0,-79,-46,-142,-69V824c0,0,113,52,197,128c0,0,85,75,120,146h86V0Z" 
id="f5_l"
transform="scale(0.001,-0.001)" />


</defs>
</svg>