<?xml version="1.0" encoding="UTF-8" standalone="no"?>
<!DOCTYPE svg PUBLIC "-//W3C//DTD SVG 1.1//EN"
"http://www.w3.org/Graphics/SVG/1.1/DTD/svg11.dtd">
<svg viewBox="0 0 909 1286" version="1.1" xmlns="http://www.w3.org/2000/svg" xmlns:xlink="http://www.w3.org/1999/xlink">
<defs>
<clipPath id="c0_92"><path d="M80.1,299.4V271.1H215.3v28.3Z" /></clipPath>
<clipPath id="c1_92"><path d="M81.2,714.1V663.8H457.5v50.3Z" /></clipPath>
<style type="text/css"><![CDATA[
.g0_92{
fill: #D9D9D9;
}
.g1_92{
fill: none;
stroke: #000000;
stroke-width: 0.7638889;
stroke-linecap: butt;
stroke-linejoin: miter;
}
.g2_92{
}
]]></style>
</defs>
<image preserveAspectRatio="none" x="747" y="1196" width="96" height="59" xlink:href="img/1.png" />
<image preserveAspectRatio="none" x="336" y="41" width="259" height="51" xlink:href="img/2.png" />
<image preserveAspectRatio="none" x="342" y="50" width="247" height="27" xlink:href="img/3.png" />
<image preserveAspectRatio="none" x="341" y="45" width="239" height="42" xlink:href="img/4.png" />
<g fill="#FFFFFF" >
<use xlink:href="#f0_j" transform="matrix(11.5,0,0,11.5,355.1,70.1)" />
<use xlink:href="#f0_i" transform="matrix(11.5,0,0,11.5,364.3,70.1)" />
<use xlink:href="#f0_2n" transform="matrix(11.5,0,0,11.5,374.1,70.1)" />
<use xlink:href="#f0_t" transform="matrix(11.5,0,0,11.5,382.6,70.1)" />
<use xlink:href="#f0_oj" transform="matrix(11.5,0,0,11.5,391,70.1)" />
<use xlink:href="#f0_3e" transform="matrix(11.5,0,0,11.5,396.5,70.1)" />
<use xlink:href="#f0_1c" transform="matrix(11.5,0,0,11.5,406.1,70.1)" />
<use xlink:href="#f0_1c" transform="matrix(11.5,0,0,11.5,410.8,70.1)" />
<use xlink:href="#f0_oj" transform="matrix(11.5,0,0,11.5,415.6,70.1)" />
<use xlink:href="#f0_rz" transform="matrix(11.5,0,0,11.5,421.1,70.1)" />
<use xlink:href="#f0_rx" transform="matrix(11.5,0,0,11.5,429.9,70.1)" />
<use xlink:href="#f0_ry" transform="matrix(11.5,0,0,11.5,438.7,70.1)" />
<use xlink:href="#f0_s3" transform="matrix(11.5,0,0,11.5,447.5,70.1)" />
<use xlink:href="#f0_t" transform="matrix(11.5,0,0,11.5,460.4,70.1)" />
<use xlink:href="#f0_3e" transform="matrix(11.5,0,0,11.5,468.8,70.1)" />
<use xlink:href="#f0_5" transform="matrix(11.5,0,0,11.5,478.3,70.1)" />
<use xlink:href="#f0_1x" transform="matrix(11.5,0,0,11.5,489,70.1)" />
<use xlink:href="#f0_1c" transform="matrix(11.5,0,0,11.5,504.4,70.1)" />
<use xlink:href="#f0_1y" transform="matrix(11.5,0,0,11.5,509.1,70.1)" />
<use xlink:href="#f0_5" transform="matrix(11.5,0,0,11.5,520.8,70.1)" />
<use xlink:href="#f0_2t" transform="matrix(11.5,0,0,11.5,531.5,70.1)" />
<use xlink:href="#f0_1c" transform="matrix(11.5,0,0,11.5,540.2,70.1)" />
<use xlink:href="#f0_24" transform="matrix(11.5,0,0,11.5,545,70.1)" />
<use xlink:href="#f0_1y" transform="matrix(11.5,0,0,11.5,556.7,70.1)" />
</g>
<image preserveAspectRatio="none" x="554" y="45" width="36" height="42" xlink:href="img/5.png" />
<g fill="#FFFFFF" >
<use xlink:href="#f1_l" transform="matrix(11,0,0,11,770.3,1227.6)" />
<use xlink:href="#f1_o" transform="matrix(11,0,0,11,779.1,1227.6)" />
<use xlink:href="#f1_j" transform="matrix(11,0,0,11,792.3,1227.6)" />
<use xlink:href="#f1_l" transform="matrix(11,0,0,11,802.9,1227.6)" />
<use xlink:href="#f1_o" transform="matrix(11,0,0,11,811.7,1227.6)" />
</g>
<path fill-rule="evenodd" d="M52.8,1193.5H856.9v-.8H52.8v.8Z" class="g0_92" />
<path d="M37.9,99.4L873,98.5" class="g1_92" />
<g fill="#000000" >
<use xlink:href="#f2_1j" transform="matrix(12,0,0,12,55,144.1)" />
<use xlink:href="#f2_2g" transform="matrix(12,0,0,12,65.3,144.1)" />
<use xlink:href="#f2_2h" transform="matrix(12,0,0,12,71.5,144.1)" />
<use xlink:href="#f2_20" transform="matrix(12,0,0,12,81.7,144.1)" />
<use xlink:href="#f2_21" transform="matrix(12,0,0,12,92,144.1)" />
<use xlink:href="#f2_2a" transform="matrix(12,0,0,12,100.1,144.1)" />
<use xlink:href="#f2_2g" transform="matrix(12,0,0,12,110.3,144.1)" />
<use xlink:href="#f2_2f" transform="matrix(12,0,0,12,116.5,144.1)" />
<use xlink:href="#f2_29" transform="matrix(12,0,0,12,128.2,144.1)" />
<use xlink:href="#f2_1x" transform="matrix(12,0,0,12,143.3,144.1)" />
<use xlink:href="#f2_2l" transform="matrix(12,0,0,12,152.4,144.1)" />
<use xlink:href="#f2_22" transform="matrix(12,0,0,12,166.4,144.1)" />
<use xlink:href="#f2_25" transform="matrix(12,0,0,12,172.2,144.1)" />
<use xlink:href="#f2_2a" transform="matrix(12,0,0,12,177.3,144.1)" />
<use xlink:href="#f2_20" transform="matrix(12,0,0,12,187.6,144.1)" />
<use xlink:href="#f2_2f" transform="matrix(12,0,0,12,202.3,144.1)" />
<use xlink:href="#f2_1x" transform="matrix(12,0,0,12,209.2,144.1)" />
<use xlink:href="#f2_29" transform="matrix(12,0,0,12,218.4,144.1)" />
<use xlink:href="#f2_21" transform="matrix(12,0,0,12,233.4,144.1)" />
<use xlink:href="#f2_j" transform="matrix(12,0,0,12,241.5,144.1)" />
<use xlink:href="#f2_2f" transform="matrix(12,0,0,12,246.6,144.1)" />
<use xlink:href="#f2_25" transform="matrix(12,0,0,12,253.6,144.1)" />
<use xlink:href="#f2_29" transform="matrix(12,0,0,12,259.1,144.1)" />
<use xlink:href="#f2_25" transform="matrix(12,0,0,12,274.1,144.1)" />
<use xlink:href="#f2_28" transform="matrix(12,0,0,12,279.2,144.1)" />
<use xlink:href="#f2_1x" transform="matrix(12,0,0,12,284,144.1)" />
<use xlink:href="#f2_2e" transform="matrix(12,0,0,12,293.5,144.1)" />
<use xlink:href="#f2_2d" transform="matrix(12,0,0,12,306,144.1)" />
<use xlink:href="#f2_2h" transform="matrix(12,0,0,12,316.2,144.1)" />
<use xlink:href="#f2_21" transform="matrix(12,0,0,12,326.5,144.1)" />
<use xlink:href="#f2_2f" transform="matrix(12,0,0,12,334.5,144.1)" />
<use xlink:href="#f2_2g" transform="matrix(12,0,0,12,341.5,144.1)" />
<use xlink:href="#f2_25" transform="matrix(12,0,0,12,347.7,144.1)" />
<use xlink:href="#f2_2b" transform="matrix(12,0,0,12,352.8,144.1)" />
<use xlink:href="#f2_2a" transform="matrix(12,0,0,12,362,144.1)" />
<use xlink:href="#f2_25" transform="matrix(12,0,0,12,377,144.1)" />
<use xlink:href="#f2_2a" transform="matrix(12,0,0,12,382.1,144.1)" />
<use xlink:href="#f2_13" transform="matrix(12,0,0,12,397.1,144.1)" />
<use xlink:href="#f2_1g" transform="matrix(12,0,0,12,410.4,144.1)" />
<use xlink:href="#f2_1y" transform="matrix(12,0,0,12,425.7,144.1)" />
<use xlink:href="#f2_2b" transform="matrix(12,0,0,12,436,144.1)" />
<use xlink:href="#f2_1x" transform="matrix(12,0,0,12,445.2,144.1)" />
<use xlink:href="#f2_2e" transform="matrix(12,0,0,12,454.3,144.1)" />
<use xlink:href="#f2_20" transform="matrix(12,0,0,12,462,144.1)" />
<use xlink:href="#f2_2c" transform="matrix(12,0,0,12,477,144.1)" />
<use xlink:href="#f2_1x" transform="matrix(12,0,0,12,487.3,144.1)" />
<use xlink:href="#f2_2g" transform="matrix(12,0,0,12,496.4,144.1)" />
<use xlink:href="#f2_2g" transform="matrix(12,0,0,12,502.6,144.1)" />
<use xlink:href="#f2_21" transform="matrix(12,0,0,12,508.9,144.1)" />
<use xlink:href="#f2_2e" transform="matrix(12,0,0,12,516.9,144.1)" />
<use xlink:href="#f2_2a" transform="matrix(12,0,0,12,524.6,144.1)" />
<use xlink:href="#f2_21" transform="matrix(12,0,0,12,539.6,144.1)" />
<use xlink:href="#f2_2k" transform="matrix(12,0,0,12,547.7,144.1)" />
<use xlink:href="#f2_21" transform="matrix(12,0,0,12,556.5,144.1)" />
<use xlink:href="#f2_2e" transform="matrix(12,0,0,12,564.9,144.1)" />
<use xlink:href="#f2_1z" transform="matrix(12,0,0,12,573,144.1)" />
<use xlink:href="#f2_25" transform="matrix(12,0,0,12,581,144.1)" />
<use xlink:href="#f2_2f" transform="matrix(12,0,0,12,586.1,144.1)" />
<use xlink:href="#f2_21" transform="matrix(12,0,0,12,593.1,144.1)" />
<use xlink:href="#f2_2f" transform="matrix(12,0,0,12,606,144.1)" />
<use xlink:href="#f2_24" transform="matrix(12,0,0,12,612.9,144.1)" />
<use xlink:href="#f2_21" transform="matrix(12,0,0,12,623.2,144.1)" />
<use xlink:href="#f2_21" transform="matrix(12,0,0,12,631.2,144.1)" />
<use xlink:href="#f2_2g" transform="matrix(12,0,0,12,639.3,144.1)" />
<use xlink:href="#f2_u" transform="matrix(12,0,0,12,645.5,144.1)" />
<use xlink:href="#f2_c" transform="matrix(12,0,0,12,55,168.3)" />
<use xlink:href="#f2_1x" transform="matrix(12,0,0,12,61.3,168.3)" />
<use xlink:href="#f2_d" transform="matrix(12,0,0,12,70.4,168.3)" />
<use xlink:href="#f2_13" transform="matrix(12,0,0,12,81.4,168.3)" />
<use xlink:href="#f2_24" transform="matrix(12,0,0,12,94.6,168.3)" />
<use xlink:href="#f2_1x" transform="matrix(12,0,0,12,104.8,168.3)" />
<use xlink:href="#f2_2c" transform="matrix(12,0,0,12,113.6,168.3)" />
<use xlink:href="#f2_2g" transform="matrix(12,0,0,12,123.9,168.3)" />
<use xlink:href="#f2_21" transform="matrix(12,0,0,12,130.1,168.3)" />
<use xlink:href="#f2_2e" transform="matrix(12,0,0,12,138.2,168.3)" />
<use xlink:href="#f2_u" transform="matrix(12,0,0,12,145.9,168.3)" />
<use xlink:href="#f2_11" transform="matrix(12,0,0,12,156.8,168.3)" />
<use xlink:href="#f2_28" transform="matrix(12,0,0,12,170.1,168.3)" />
<use xlink:href="#f2_20" transform="matrix(12,0,0,12,174.8,168.3)" />
<use xlink:href="#f2_21" transform="matrix(12,0,0,12,185.1,168.3)" />
<use xlink:href="#f2_24" transform="matrix(12,0,0,12,193.1,168.3)" />
<use xlink:href="#f2_2l" transform="matrix(12,0,0,12,203.4,168.3)" />
<use xlink:href="#f2_20" transform="matrix(12,0,0,12,212.5,168.3)" />
<use xlink:href="#f2_21" transform="matrix(12,0,0,12,222.8,168.3)" />
<use xlink:href="#f2_g" transform="matrix(12,0,0,12,230.9,168.3)" />
<use xlink:href="#f2_1b" transform="matrix(12,0,0,12,240,168.3)" />
<use xlink:href="#f2_21" transform="matrix(12,0,0,12,254.7,168.3)" />
<use xlink:href="#f2_2g" transform="matrix(12,0,0,12,262.7,168.3)" />
<use xlink:href="#f2_2b" transform="matrix(12,0,0,12,268.9,168.3)" />
<use xlink:href="#f2_2a" transform="matrix(12,0,0,12,278.1,168.3)" />
<use xlink:href="#f2_21" transform="matrix(12,0,0,12,288.3,168.3)" />
<use xlink:href="#f2_a" transform="matrix(12,0,0,12,300.8,168.3)" />
<use xlink:href="#f2_13" transform="matrix(12,0,0,12,320.9,168.3)" />
<use xlink:href="#f2_1x" transform="matrix(12,0,0,12,334.2,168.3)" />
<use xlink:href="#f2_2e" transform="matrix(12,0,0,12,343.3,168.3)" />
<use xlink:href="#f2_1y" transform="matrix(12,0,0,12,351,168.3)" />
<use xlink:href="#f2_2b" transform="matrix(12,0,0,12,361.3,168.3)" />
<use xlink:href="#f2_2k" transform="matrix(12,0,0,12,370.4,168.3)" />
<use xlink:href="#f2_2l" transform="matrix(12,0,0,12,379.2,168.3)" />
<use xlink:href="#f2_28" transform="matrix(12,0,0,12,388.7,168.3)" />
<use xlink:href="#f2_25" transform="matrix(12,0,0,12,393.5,168.3)" />
<use xlink:href="#f2_1z" transform="matrix(12,0,0,12,398.6,168.3)" />
<use xlink:href="#f2_11" transform="matrix(12,0,0,12,411.5,168.3)" />
<use xlink:href="#f2_1z" transform="matrix(12,0,0,12,424.7,168.3)" />
<use xlink:href="#f2_25" transform="matrix(12,0,0,12,432.7,168.3)" />
<use xlink:href="#f2_20" transform="matrix(12,0,0,12,437.8,168.3)" />
<use xlink:href="#f2_g" transform="matrix(12,0,0,12,448.1,168.3)" />
<use xlink:href="#f2_1j" transform="matrix(12,0,0,12,457.6,168.3)" />
<use xlink:href="#f2_21" transform="matrix(12,0,0,12,467.8,168.3)" />
<use xlink:href="#f2_1z" transform="matrix(12,0,0,12,475.9,168.3)" />
<use xlink:href="#f2_2g" transform="matrix(12,0,0,12,484,168.3)" />
<use xlink:href="#f2_25" transform="matrix(12,0,0,12,490.2,168.3)" />
<use xlink:href="#f2_2b" transform="matrix(12,0,0,12,495.3,168.3)" />
<use xlink:href="#f2_2a" transform="matrix(12,0,0,12,504.1,168.3)" />
<use xlink:href="#f2_h" transform="matrix(12,0,0,12,515,168.3)" />
<use xlink:href="#f2_12" transform="matrix(12,0,0,12,520.9,168.3)" />
<use xlink:href="#f2_g" transform="matrix(12,0,0,12,533.3,168.3)" />
<use xlink:href="#f2_1h" transform="matrix(12,0,0,12,542.4,168.3)" />
<use xlink:href="#f2_i" transform="matrix(12,0,0,12,556.7,168.3)" />
<use xlink:href="#f2_p" transform="matrix(12,0,0,12,561.5,168.3)" />
<use xlink:href="#f2_c" transform="matrix(12,0,0,12,570.3,168.3)" />
<use xlink:href="#f2_1x" transform="matrix(12,0,0,12,576.5,168.3)" />
<use xlink:href="#f2_d" transform="matrix(12,0,0,12,585.7,168.3)" />
<use xlink:href="#f2_c" transform="matrix(12,0,0,12,591.9,168.3)" />
<use xlink:href="#f2_25" transform="matrix(12,0,0,12,598.1,168.3)" />
<use xlink:href="#f2_25" transform="matrix(12,0,0,12,602.9,168.3)" />
<use xlink:href="#f2_25" transform="matrix(12,0,0,12,608,168.3)" />
<use xlink:href="#f2_d" transform="matrix(12,0,0,12,613.1,168.3)" />
<use xlink:href="#f2_1f" transform="matrix(12,0,0,12,440.9,192.5)" />
<use xlink:href="#f2_1i" transform="matrix(12,0,0,12,455.2,192.5)" />
<use xlink:href="#f2_c" transform="matrix(12,0,0,12,55,216.8)" />
<use xlink:href="#f2_1x" transform="matrix(12,0,0,12,61.3,216.8)" />
<use xlink:href="#f2_d" transform="matrix(12,0,0,12,70.4,216.8)" />
<use xlink:href="#f2_13" transform="matrix(12,0,0,12,81.4,216.8)" />
<use xlink:href="#f2_24" transform="matrix(12,0,0,12,94.6,216.8)" />
<use xlink:href="#f2_1x" transform="matrix(12,0,0,12,104.8,216.8)" />
<use xlink:href="#f2_2c" transform="matrix(12,0,0,12,113.6,216.8)" />
<use xlink:href="#f2_2g" transform="matrix(12,0,0,12,123.9,216.8)" />
<use xlink:href="#f2_21" transform="matrix(12,0,0,12,130.1,216.8)" />
<use xlink:href="#f2_2e" transform="matrix(12,0,0,12,138.2,216.8)" />
<use xlink:href="#f2_u" transform="matrix(12,0,0,12,145.9,216.8)" />
<use xlink:href="#f2_11" transform="matrix(12,0,0,12,156.8,216.8)" />
<use xlink:href="#f2_28" transform="matrix(12,0,0,12,170.2,216.8)" />
<use xlink:href="#f2_20" transform="matrix(12,0,0,12,175,216.8)" />
<use xlink:href="#f2_21" transform="matrix(12,0,0,12,185.2,216.8)" />
<use xlink:href="#f2_24" transform="matrix(12,0,0,12,193.3,216.8)" />
<use xlink:href="#f2_2l" transform="matrix(12,0,0,12,203.5,216.8)" />
<use xlink:href="#f2_20" transform="matrix(12,0,0,12,212.7,216.8)" />
<use xlink:href="#f2_21" transform="matrix(12,0,0,12,223,216.8)" />
<use xlink:href="#f2_g" transform="matrix(12,0,0,12,231,216.8)" />
<use xlink:href="#f2_1b" transform="matrix(12,0,0,12,240.2,216.8)" />
<use xlink:href="#f2_21" transform="matrix(12,0,0,12,254.8,216.8)" />
<use xlink:href="#f2_2g" transform="matrix(12,0,0,12,262.9,216.8)" />
<use xlink:href="#f2_2b" transform="matrix(12,0,0,12,269.1,216.8)" />
<use xlink:href="#f2_2a" transform="matrix(12,0,0,12,278.3,216.8)" />
<use xlink:href="#f2_21" transform="matrix(12,0,0,12,288.5,216.8)" />
<use xlink:href="#f2_a" transform="matrix(12,0,0,12,301,216.8)" />
<use xlink:href="#f2_13" transform="matrix(12,0,0,12,321.1,216.8)" />
<use xlink:href="#f2_1x" transform="matrix(12,0,0,12,334.3,216.8)" />
<use xlink:href="#f2_2e" transform="matrix(12,0,0,12,343.5,216.8)" />
<use xlink:href="#f2_1y" transform="matrix(12,0,0,12,351.2,216.8)" />
<use xlink:href="#f2_2b" transform="matrix(12,0,0,12,361.4,216.8)" />
<use xlink:href="#f2_2k" transform="matrix(12,0,0,12,370.6,216.8)" />
<use xlink:href="#f2_2l" transform="matrix(12,0,0,12,379.4,216.8)" />
<use xlink:href="#f2_28" transform="matrix(12,0,0,12,388.9,216.8)" />
<use xlink:href="#f2_25" transform="matrix(12,0,0,12,393.7,216.8)" />
<use xlink:href="#f2_1z" transform="matrix(12,0,0,12,398.8,216.8)" />
<use xlink:href="#f2_11" transform="matrix(12,0,0,12,411.6,216.8)" />
<use xlink:href="#f2_1z" transform="matrix(12,0,0,12,424.9,216.8)" />
<use xlink:href="#f2_25" transform="matrix(12,0,0,12,432.9,216.8)" />
<use xlink:href="#f2_20" transform="matrix(12,0,0,12,438,216.8)" />
<use xlink:href="#f2_g" transform="matrix(12,0,0,12,448.3,216.8)" />
<use xlink:href="#f2_1j" transform="matrix(12,0,0,12,457.8,216.8)" />
<use xlink:href="#f2_21" transform="matrix(12,0,0,12,468,216.8)" />
<use xlink:href="#f2_1z" transform="matrix(12,0,0,12,476.1,216.8)" />
<use xlink:href="#f2_2g" transform="matrix(12,0,0,12,484.1,216.8)" />
<use xlink:href="#f2_25" transform="matrix(12,0,0,12,490.4,216.8)" />
<use xlink:href="#f2_2b" transform="matrix(12,0,0,12,495.5,216.8)" />
<use xlink:href="#f2_2a" transform="matrix(12,0,0,12,504.3,216.8)" />
<use xlink:href="#f2_h" transform="matrix(12,0,0,12,515,216.8)" />
<use xlink:href="#f2_11" transform="matrix(12,0,0,12,521.2,216.8)" />
<use xlink:href="#f2_g" transform="matrix(12,0,0,12,534.5,216.8)" />
<use xlink:href="#f2_1h" transform="matrix(12,0,0,12,543.6,216.8)" />
<use xlink:href="#f2_i" transform="matrix(12,0,0,12,557.8,216.8)" />
<use xlink:href="#f2_l" transform="matrix(12,0,0,12,562.6,216.8)" />
<use xlink:href="#f2_p" transform="matrix(12,0,0,12,571.8,216.8)" />
<use xlink:href="#f2_c" transform="matrix(12,0,0,12,585.3,216.8)" />
<use xlink:href="#f2_25" transform="matrix(12,0,0,12,591.5,216.8)" />
<use xlink:href="#f2_2i" transform="matrix(12,0,0,12,596.6,216.8)" />
<use xlink:href="#f2_d" transform="matrix(12,0,0,12,605.5,216.8)" />
<use xlink:href="#f2_c" transform="matrix(12,0,0,12,55,241)" />
<use xlink:href="#f2_1y" transform="matrix(12,0,0,12,61.3,241)" />
<use xlink:href="#f2_d" transform="matrix(12,0,0,12,71.5,241)" />
<use xlink:href="#f2_13" transform="matrix(12,0,0,12,82.5,241)" />
<use xlink:href="#f2_24" transform="matrix(12,0,0,12,95.7,241)" />
<use xlink:href="#f2_1x" transform="matrix(12,0,0,12,105.6,241)" />
<use xlink:href="#f2_2c" transform="matrix(12,0,0,12,114.7,241)" />
<use xlink:href="#f2_2g" transform="matrix(12,0,0,12,125,241)" />
<use xlink:href="#f2_21" transform="matrix(12,0,0,12,131.2,241)" />
<use xlink:href="#f2_2e" transform="matrix(12,0,0,12,139.3,241)" />
<use xlink:href="#f2_u" transform="matrix(12,0,0,12,147,241)" />
<use xlink:href="#f2_11" transform="matrix(12,0,0,12,157.9,241)" />
<use xlink:href="#f2_28" transform="matrix(12,0,0,12,171.2,241)" />
<use xlink:href="#f2_20" transform="matrix(12,0,0,12,175.9,241)" />
<use xlink:href="#f2_21" transform="matrix(12,0,0,12,186.1,241)" />
<use xlink:href="#f2_24" transform="matrix(12,0,0,12,194.2,241)" />
<use xlink:href="#f2_2l" transform="matrix(12,0,0,12,204.5,241)" />
<use xlink:href="#f2_20" transform="matrix(12,0,0,12,213.6,241)" />
<use xlink:href="#f2_21" transform="matrix(12,0,0,12,223.9,241)" />
<use xlink:href="#f2_g" transform="matrix(12,0,0,12,231.9,241)" />
<use xlink:href="#f2_1b" transform="matrix(12,0,0,12,241.1,241)" />
<use xlink:href="#f2_21" transform="matrix(12,0,0,12,255.7,241)" />
<use xlink:href="#f2_2g" transform="matrix(12,0,0,12,263.8,241)" />
<use xlink:href="#f2_2b" transform="matrix(12,0,0,12,270,241)" />
<use xlink:href="#f2_2a" transform="matrix(12,0,0,12,279.2,241)" />
<use xlink:href="#f2_21" transform="matrix(12,0,0,12,289.4,241)" />
<use xlink:href="#f2_a" transform="matrix(12,0,0,12,301.9,241)" />
<use xlink:href="#f2_13" transform="matrix(12,0,0,12,322,241)" />
<use xlink:href="#f2_1x" transform="matrix(12,0,0,12,335.2,241)" />
<use xlink:href="#f2_2e" transform="matrix(12,0,0,12,344.4,241)" />
<use xlink:href="#f2_1y" transform="matrix(12,0,0,12,352.1,241)" />
<use xlink:href="#f2_2b" transform="matrix(12,0,0,12,362.3,241)" />
<use xlink:href="#f2_2k" transform="matrix(12,0,0,12,371.5,241)" />
<use xlink:href="#f2_2l" transform="matrix(12,0,0,12,380.3,241)" />
<use xlink:href="#f2_28" transform="matrix(12,0,0,12,389.8,241)" />
<use xlink:href="#f2_25" transform="matrix(12,0,0,12,394.6,241)" />
<use xlink:href="#f2_1z" transform="matrix(12,0,0,12,399.7,241)" />
<use xlink:href="#f2_11" transform="matrix(12,0,0,12,412.5,241)" />
<use xlink:href="#f2_1z" transform="matrix(12,0,0,12,425.8,241)" />
<use xlink:href="#f2_25" transform="matrix(12,0,0,12,433.8,241)" />
<use xlink:href="#f2_20" transform="matrix(12,0,0,12,438.9,241)" />
<use xlink:href="#f2_g" transform="matrix(12,0,0,12,449.2,241)" />
<use xlink:href="#f2_1j" transform="matrix(12,0,0,12,458.7,241)" />
<use xlink:href="#f2_21" transform="matrix(12,0,0,12,468.9,241)" />
<use xlink:href="#f2_1z" transform="matrix(12,0,0,12,477,241)" />
<use xlink:href="#f2_2g" transform="matrix(12,0,0,12,485,241)" />
<use xlink:href="#f2_25" transform="matrix(12,0,0,12,491.3,241)" />
<use xlink:href="#f2_2b" transform="matrix(12,0,0,12,496.4,241)" />
<use xlink:href="#f2_2a" transform="matrix(12,0,0,12,505.2,241)" />
<use xlink:href="#f2_h" transform="matrix(12,0,0,12,516.1,241)" />
<use xlink:href="#f2_12" transform="matrix(12,0,0,12,522,241)" />
<use xlink:href="#f2_g" transform="matrix(12,0,0,12,534.4,241)" />
<use xlink:href="#f2_1h" transform="matrix(12,0,0,12,543.5,241)" />
<use xlink:href="#f2_i" transform="matrix(12,0,0,12,557.8,241)" />
<use xlink:href="#f2_q" transform="matrix(12,0,0,12,562.6,241)" />
<use xlink:href="#f2_c" transform="matrix(12,0,0,12,576.1,241)" />
<use xlink:href="#f2_25" transform="matrix(12,0,0,12,582.4,241)" />
<use xlink:href="#f2_d" transform="matrix(12,0,0,12,587.1,241)" />
<use xlink:href="#f2_c" transform="matrix(12,0,0,12,55,265.2)" />
<use xlink:href="#f2_1z" transform="matrix(12,0,0,12,61.3,265.2)" />
<use xlink:href="#f2_d" transform="matrix(12,0,0,12,69.3,265.2)" />
<use xlink:href="#f2_13" transform="matrix(12,0,0,12,80.3,265.2)" />
<use xlink:href="#f2_24" transform="matrix(12,0,0,12,93.5,265.2)" />
<use xlink:href="#f2_1x" transform="matrix(12,0,0,12,103.7,265.2)" />
<use xlink:href="#f2_2c" transform="matrix(12,0,0,12,112.9,265.2)" />
<use xlink:href="#f2_2g" transform="matrix(12,0,0,12,122.8,265.2)" />
<use xlink:href="#f2_21" transform="matrix(12,0,0,12,129,265.2)" />
<use xlink:href="#f2_2e" transform="matrix(12,0,0,12,137.1,265.2)" />
<use xlink:href="#f2_u" transform="matrix(12,0,0,12,144.8,265.2)" />
<use xlink:href="#f2_11" transform="matrix(12,0,0,12,155.8,265.2)" />
<use xlink:href="#f2_28" transform="matrix(12,0,0,12,169,265.2)" />
<use xlink:href="#f2_20" transform="matrix(12,0,0,12,173.7,265.2)" />
<use xlink:href="#f2_21" transform="matrix(12,0,0,12,184,265.2)" />
<use xlink:href="#f2_24" transform="matrix(12,0,0,12,192,265.2)" />
<use xlink:href="#f2_2l" transform="matrix(12,0,0,12,202.3,265.2)" />
<use xlink:href="#f2_20" transform="matrix(12,0,0,12,211.5,265.2)" />
<use xlink:href="#f2_21" transform="matrix(12,0,0,12,221.7,265.2)" />
<use xlink:href="#f2_g" transform="matrix(12,0,0,12,229.8,265.2)" />
<use xlink:href="#f2_1b" transform="matrix(12,0,0,12,239.3,265.2)" />
<use xlink:href="#f2_21" transform="matrix(12,0,0,12,253.9,265.2)" />
<use xlink:href="#f2_2g" transform="matrix(12,0,0,12,261.6,265.2)" />
<use xlink:href="#f2_2b" transform="matrix(12,0,0,12,267.8,265.2)" />
<use xlink:href="#f2_2a" transform="matrix(12,0,0,12,277,265.2)" />
<use xlink:href="#f2_21" transform="matrix(12,0,0,12,287.2,265.2)" />
<use xlink:href="#f2_a" transform="matrix(12,0,0,12,299.7,265.2)" />
<use xlink:href="#f2_13" transform="matrix(12,0,0,12,319.8,265.2)" />
<use xlink:href="#f2_1x" transform="matrix(12,0,0,12,333.1,265.2)" />
<use xlink:href="#f2_2e" transform="matrix(12,0,0,12,342.2,265.2)" />
<use xlink:href="#f2_1y" transform="matrix(12,0,0,12,349.9,265.2)" />
<use xlink:href="#f2_2b" transform="matrix(12,0,0,12,360.2,265.2)" />
<use xlink:href="#f2_2k" transform="matrix(12,0,0,12,369.3,265.2)" />
<use xlink:href="#f2_2l" transform="matrix(12,0,0,12,378.1,265.2)" />
<use xlink:href="#f2_28" transform="matrix(12,0,0,12,387.6,265.2)" />
<use xlink:href="#f2_25" transform="matrix(12,0,0,12,392.4,265.2)" />
<use xlink:href="#f2_1z" transform="matrix(12,0,0,12,397.5,265.2)" />
<use xlink:href="#f2_11" transform="matrix(12,0,0,12,410.4,265.2)" />
<use xlink:href="#f2_1z" transform="matrix(12,0,0,12,423.9,265.2)" />
<use xlink:href="#f2_25" transform="matrix(12,0,0,12,432,265.2)" />
<use xlink:href="#f2_20" transform="matrix(12,0,0,12,437.1,265.2)" />
<use xlink:href="#f2_g" transform="matrix(12,0,0,12,447.4,265.2)" />
<use xlink:href="#f2_1j" transform="matrix(12,0,0,12,456.8,265.2)" />
<use xlink:href="#f2_21" transform="matrix(12,0,0,12,467.1,265.2)" />
<use xlink:href="#f2_1z" transform="matrix(12,0,0,12,475.2,265.2)" />
<use xlink:href="#f2_2g" transform="matrix(12,0,0,12,483.2,265.2)" />
<use xlink:href="#f2_25" transform="matrix(12,0,0,12,489.4,265.2)" />
<use xlink:href="#f2_2b" transform="matrix(12,0,0,12,494.5,265.2)" />
<use xlink:href="#f2_2a" transform="matrix(12,0,0,12,503.4,265.2)" />
<use xlink:href="#f2_h" transform="matrix(12,0,0,12,514.3,265.2)" />
<use xlink:href="#f2_12" transform="matrix(12,0,0,12,520.1,265.2)" />
<use xlink:href="#f2_g" transform="matrix(12,0,0,12,532.6,265.2)" />
<use xlink:href="#f2_1h" transform="matrix(12,0,0,12,541.7,265.2)" />
<use xlink:href="#f2_i" transform="matrix(12,0,0,12,556,265.2)" />
<use xlink:href="#f2_p" transform="matrix(12,0,0,12,560.8,265.2)" />
<use xlink:href="#f2_c" transform="matrix(12,0,0,12,569.6,265.2)" />
<use xlink:href="#f2_1x" transform="matrix(12,0,0,12,575.8,265.2)" />
<use xlink:href="#f2_d" transform="matrix(12,0,0,12,584.9,265.2)" />
<use xlink:href="#f2_c" transform="matrix(12,0,0,12,591.2,265.2)" />
<use xlink:href="#f2_25" transform="matrix(12,0,0,12,597.4,265.2)" />
<use xlink:href="#f2_d" transform="matrix(12,0,0,12,602.1,265.2)" />
<use xlink:href="#f3_c" transform="matrix(12,0,0,12,55,290.1)" />
<use xlink:href="#f3_1x" transform="matrix(12,0,0,12,61.3,290.1)" />
<use xlink:href="#f3_d" transform="matrix(12,0,0,12,69.3,290.1)" />
</g>
<g clip-path="url(#c0_92)">
<g fill="#000000" >
<use xlink:href="#f3_n" transform="matrix(7.4,0,0,7,148.4,295.2)" />
<use xlink:href="#f3_11" transform="matrix(12.8,0,0,12.1,82.9,290.5)" />
<use xlink:href="#f3_13" transform="matrix(12.8,0,0,12.1,122.3,290.5)" />
<use xlink:href="#f3_18" transform="matrix(12.8,0,0,12.1,134.6,290.5)" />
<use xlink:href="#f3_13" transform="matrix(12.8,0,0,12.1,172,290.5)" />
<use xlink:href="#f3_18" transform="matrix(12.8,0,0,12.1,184.2,290.5)" />
<use xlink:href="#f3_1f" transform="matrix(12.8,0,0,12.1,197.3,290.5)" />
<use xlink:href="#f4_4g" transform="matrix(12.8,0,0,12.1,100.2,290.5)" />
<use xlink:href="#f4_h" transform="matrix(12.8,0,0,12.1,158.6,290.5)" />
</g>
</g>
<g fill="#000000" >
<use xlink:href="#f3_c" transform="matrix(12,0,0,12,55,470.5)" />
<use xlink:href="#f3_1y" transform="matrix(12,0,0,12,61.3,470.5)" />
<use xlink:href="#f3_d" transform="matrix(12,0,0,12,70.1,470.5)" />
<use xlink:href="#f3_c" transform="matrix(12,0,0,12,81,470.5)" />
<use xlink:href="#f3_25" transform="matrix(12,0,0,12,87.2,470.5)" />
<use xlink:href="#f3_d" transform="matrix(12,0,0,12,91.6,470.5)" />
<use xlink:href="#f3_19" transform="matrix(12,0,0,12,102.6,470.5)" />
<use xlink:href="#f3_2b" transform="matrix(12,0,0,12,108.8,470.5)" />
<use xlink:href="#f3_20" transform="matrix(12,0,0,12,118.3,470.5)" />
<use xlink:href="#f3_2b" transform="matrix(12,0,0,12,127.1,470.5)" />
<use xlink:href="#f3_22" transform="matrix(12,0,0,12,136.6,470.5)" />
<use xlink:href="#f3_2b" transform="matrix(12,0,0,12,142.1,470.5)" />
<use xlink:href="#f3_2e" transform="matrix(12,0,0,12,151.7,470.5)" />
<use xlink:href="#f3_29" transform="matrix(12,0,0,12,157.9,470.5)" />
<use xlink:href="#f3_2g" transform="matrix(12,0,0,12,176.2,470.5)" />
<use xlink:href="#f3_21" transform="matrix(12,0,0,12,181.7,470.5)" />
<use xlink:href="#f3_2f" transform="matrix(12,0,0,12,189.7,470.5)" />
<use xlink:href="#f3_2g" transform="matrix(12,0,0,12,196.7,470.5)" />
<use xlink:href="#f3_c" transform="matrix(12,0,0,12,55,494.8)" />
<use xlink:href="#f3_25" transform="matrix(12,0,0,12,61.6,494.8)" />
<use xlink:href="#f3_25" transform="matrix(12,0,0,12,66.4,494.8)" />
<use xlink:href="#f3_d" transform="matrix(12,0,0,12,70.8,494.8)" />
<use xlink:href="#f3_1k" transform="matrix(12,0,0,12,81.8,494.8)" />
<use xlink:href="#f3_2b" transform="matrix(12,0,0,12,93.2,494.8)" />
<use xlink:href="#f3_28" transform="matrix(12,0,0,12,102.7,494.8)" />
<use xlink:href="#f3_28" transform="matrix(12,0,0,12,107.4,494.8)" />
<use xlink:href="#f3_21" transform="matrix(12,0,0,12,112.2,494.8)" />
<use xlink:href="#f3_2a" transform="matrix(12,0,0,12,120.6,494.8)" />
<use xlink:href="#f3_b" transform="matrix(12,0,0,12,129.8,494.8)" />
<use xlink:href="#f3_2f" transform="matrix(12,0,0,12,133.1,494.8)" />
<use xlink:href="#f3_2g" transform="matrix(12,0,0,12,144.8,494.8)" />
<use xlink:href="#f3_21" transform="matrix(12,0,0,12,150.3,494.8)" />
<use xlink:href="#f3_2f" transform="matrix(12,0,0,12,158.3,494.8)" />
<use xlink:href="#f3_2g" transform="matrix(12,0,0,12,164.9,494.8)" />
<use xlink:href="#f3_c" transform="matrix(12,0,0,12,175.2,494.8)" />
<use xlink:href="#f3_1k" transform="matrix(12,0,0,12,181,494.8)" />
<use xlink:href="#f3_2b" transform="matrix(12,0,0,12,192,494.8)" />
<use xlink:href="#f3_28" transform="matrix(12,0,0,12,201.6,494.8)" />
<use xlink:href="#f3_28" transform="matrix(12,0,0,12,206.3,494.8)" />
<use xlink:href="#f3_21" transform="matrix(12,0,0,12,211.1,494.8)" />
<use xlink:href="#f3_2a" transform="matrix(12,0,0,12,219.5,494.8)" />
<use xlink:href="#f3_b" transform="matrix(12,0,0,12,228.7,494.8)" />
<use xlink:href="#f3_2f" transform="matrix(12,0,0,12,232,494.8)" />
<use xlink:href="#f3_2e" transform="matrix(12,0,0,12,243.7,494.8)" />
<use xlink:href="#f3_21" transform="matrix(12,0,0,12,249.9,494.8)" />
<use xlink:href="#f3_1x" transform="matrix(12,0,0,12,258,494.8)" />
<use xlink:href="#f3_23" transform="matrix(12,0,0,12,266,494.8)" />
<use xlink:href="#f3_21" transform="matrix(12,0,0,12,275.2,494.8)" />
<use xlink:href="#f3_2a" transform="matrix(12,0,0,12,283.3,494.8)" />
<use xlink:href="#f3_2g" transform="matrix(12,0,0,12,292.1,494.8)" />
<use xlink:href="#f3_d" transform="matrix(12,0,0,12,297.5,494.8)" />
<use xlink:href="#f3_1f" transform="matrix(12,0,0,12,55,578)" />
<use xlink:href="#f3_1i" transform="matrix(12,0,0,12,68.2,578)" />
<use xlink:href="#f3_c" transform="matrix(12,0,0,12,55,683.6)" />
<use xlink:href="#f3_1y" transform="matrix(12,0,0,12,61.3,683.6)" />
<use xlink:href="#f3_d" transform="matrix(12,0,0,12,70.1,683.6)" />
</g>
<g clip-path="url(#c1_92)">
<g fill="#000000" >
<use xlink:href="#f3_2a" transform="matrix(5.4,0,0,5.2,142.8,702.9)" />
<use xlink:href="#f3_n" transform="matrix(7.4,0,0,7.2,277.8,688.3)" />
<use xlink:href="#f3_q" transform="matrix(7.4,0,0,7.2,370.7,688.3)" />
<use xlink:href="#f3_p" transform="matrix(7.4,0,0,7.2,391.5,688.3)" />
<use xlink:href="#f3_n" transform="matrix(7.4,0,0,7.2,448.8,688.3)" />
<use xlink:href="#f3_1e" transform="matrix(7.4,0,0,7.2,89.6,694.4)" />
<use xlink:href="#f3_2h" transform="matrix(7.4,0,0,7.2,97.1,694.4)" />
<use xlink:href="#f3_1z" transform="matrix(7.4,0,0,7.2,102.4,694.4)" />
<use xlink:href="#f3_28" transform="matrix(7.4,0,0,7.2,107.1,694.4)" />
<use xlink:href="#f3_21" transform="matrix(7.4,0,0,7.2,109.8,694.4)" />
<use xlink:href="#f3_2b" transform="matrix(7.4,0,0,7.2,114.5,694.4)" />
<use xlink:href="#f3_2c" transform="matrix(7.4,0,0,7.2,119.8,694.4)" />
<use xlink:href="#f3_24" transform="matrix(7.4,0,0,7.2,125.1,694.4)" />
<use xlink:href="#f3_25" transform="matrix(7.4,0,0,7.2,130.4,694.4)" />
<use xlink:href="#f3_28" transform="matrix(7.4,0,0,7.2,133.3,694.4)" />
<use xlink:href="#f3_25" transform="matrix(7.4,0,0,7.2,136.1,694.4)" />
<use xlink:href="#f3_1z" transform="matrix(7.4,0,0,7.2,139.1,694.4)" />
<use xlink:href="#f3_11" transform="matrix(7.4,0,0,7.2,89.3,707.7)" />
<use xlink:href="#f3_20" transform="matrix(7.4,0,0,7.2,96.7,707.7)" />
<use xlink:href="#f3_20" transform="matrix(7.4,0,0,7.2,102,707.7)" />
<use xlink:href="#f3_25" transform="matrix(7.4,0,0,7.2,107.3,707.7)" />
<use xlink:href="#f3_2g" transform="matrix(7.4,0,0,7.2,110.3,707.7)" />
<use xlink:href="#f3_25" transform="matrix(7.4,0,0,7.2,113.3,707.7)" />
<use xlink:href="#f3_2b" transform="matrix(7.4,0,0,7.2,116.2,707.7)" />
<use xlink:href="#f3_2a" transform="matrix(7.4,0,0,7.2,121.5,707.7)" />
<use xlink:href="#f3_1i" transform="matrix(7.4,0,0,7.2,129.7,707.7)" />
<use xlink:href="#f3_2k" transform="matrix(7.4,0,0,7.2,136.9,707.7)" />
<use xlink:href="#f5_1e" transform="matrix(12.7,0,0,12.4,101.9,683.5)" />
<use xlink:href="#f5_11" transform="matrix(12.7,0,0,12.4,114.2,683.5)" />
<use xlink:href="#f5_1i" transform="matrix(12.7,0,0,12.4,125.3,683.5)" />
<use xlink:href="#f5_18" transform="matrix(12.7,0,0,12.4,180.8,683.5)" />
<use xlink:href="#f5_13" transform="matrix(12.7,0,0,12.4,193.9,683.5)" />
<use xlink:href="#f5_18" transform="matrix(12.7,0,0,12.4,206.2,683.5)" />
<use xlink:href="#f5_1f" transform="matrix(12.7,0,0,12.4,219.4,683.5)" />
<use xlink:href="#f5_13" transform="matrix(12.7,0,0,12.4,251.2,683.5)" />
<use xlink:href="#f5_18" transform="matrix(12.7,0,0,12.4,263.5,683.5)" />
<use xlink:href="#f5_13" transform="matrix(12.7,0,0,12.4,301.1,683.5)" />
<use xlink:href="#f5_18" transform="matrix(12.7,0,0,12.4,313.4,683.5)" />
<use xlink:href="#f5_1f" transform="matrix(12.7,0,0,12.4,326.6,683.5)" />
<use xlink:href="#f5_13" transform="matrix(12.7,0,0,12.4,358.4,683.5)" />
<use xlink:href="#f5_18" transform="matrix(12.7,0,0,12.4,377.1,683.5)" />
<use xlink:href="#f5_13" transform="matrix(12.7,0,0,12.4,396.7,683.5)" />
<use xlink:href="#f5_1f" transform="matrix(12.7,0,0,12.4,409,683.5)" />
<use xlink:href="#f5_13" transform="matrix(12.7,0,0,12.4,422.1,683.5)" />
<use xlink:href="#f5_18" transform="matrix(12.7,0,0,12.4,434.4,683.5)" />
<use xlink:href="#f4_4o" transform="matrix(7.4,0,0,7.2,83.8,695.2)" />
<use xlink:href="#f4_54" transform="matrix(7.4,0,0,7.2,149.6,695.2)" />
<use xlink:href="#f4_4p" transform="matrix(7.4,0,0,7.2,83.8,703.5)" />
<use xlink:href="#f4_55" transform="matrix(7.4,0,0,7.2,149.6,703.5)" />
<use xlink:href="#f4_4q" transform="matrix(7.4,0,0,7.2,83.8,710.2)" />
<use xlink:href="#f4_56" transform="matrix(7.4,0,0,7.2,149.6,710.2)" />
<use xlink:href="#f4_4g" transform="matrix(12.7,0,0,12.4,157.7,683.5)" />
<use xlink:href="#f4_y" transform="matrix(12.7,0,0,12.4,237.3,683.5)" />
<use xlink:href="#f4_h" transform="matrix(12.7,0,0,12.4,288,683.5)" />
<use xlink:href="#f4_y" transform="matrix(12.7,0,0,12.4,344.6,683.5)" />
</g>
</g>
<g fill="#000000" >
<use xlink:href="#f3_c" transform="matrix(12,0,0,12,55,734.6)" />
<use xlink:href="#f3_1z" transform="matrix(12,0,0,12,61.3,734.6)" />
<use xlink:href="#f3_d" transform="matrix(12,0,0,12,69.3,734.6)" />
<use xlink:href="#f3_14" transform="matrix(12,0,0,12,80.3,734.6)" />
<use xlink:href="#f3_2h" transform="matrix(12,0,0,12,93.5,734.6)" />
<use xlink:href="#f3_21" transform="matrix(12,0,0,12,102.7,734.6)" />
<use xlink:href="#f3_2g" transform="matrix(12,0,0,12,115.1,734.6)" />
<use xlink:href="#f3_2b" transform="matrix(12,0,0,12,120.2,734.6)" />
<use xlink:href="#f3_2c" transform="matrix(12,0,0,12,134.2,734.6)" />
<use xlink:href="#f3_2e" transform="matrix(12,0,0,12,143.3,734.6)" />
<use xlink:href="#f3_21" transform="matrix(12,0,0,12,149.5,734.6)" />
<use xlink:href="#f3_2f" transform="matrix(12,0,0,12,157.6,734.6)" />
<use xlink:href="#f3_21" transform="matrix(12,0,0,12,164.6,734.6)" />
<use xlink:href="#f3_2a" transform="matrix(12,0,0,12,172.6,734.6)" />
<use xlink:href="#f3_1z" transform="matrix(12,0,0,12,181.4,734.6)" />
<use xlink:href="#f3_21" transform="matrix(12,0,0,12,189.5,734.6)" />
<use xlink:href="#f3_2b" transform="matrix(12,0,0,12,202.3,734.6)" />
<use xlink:href="#f3_22" transform="matrix(12,0,0,12,211.8,734.6)" />
<use xlink:href="#f3_13" transform="matrix(12,0,0,12,222.1,734.6)" />
<use xlink:href="#f3_28" transform="matrix(12,0,0,12,234.5,734.6)" />
<use xlink:href="#f3_1x" transform="matrix(12,0,0,12,244.1,734.6)" />
<use xlink:href="#f3_2f" transform="matrix(12,0,0,12,252.1,734.6)" />
<use xlink:href="#f3_1x" transform="matrix(12,0,0,12,263.8,734.6)" />
<use xlink:href="#f6_4y" transform="matrix(12,0,0,12,276.9,734.6)" />
<use xlink:href="#f3_19" transform="matrix(12,0,0,12,290.9,734.6)" />
<use xlink:href="#f3_23" transform="matrix(12,0,0,12,301.8,734.6)" />
<use xlink:href="#f3_2e" transform="matrix(12,0,0,12,310.6,734.6)" />
<use xlink:href="#f3_2b" transform="matrix(12,0,0,12,316.5,734.6)" />
<use xlink:href="#f3_2h" transform="matrix(12,0,0,12,326,734.6)" />
<use xlink:href="#f3_2c" transform="matrix(12,0,0,12,335.2,734.6)" />
<use xlink:href="#f3_2j" transform="matrix(12,0,0,12,349.1,734.6)" />
<use xlink:href="#f3_24" transform="matrix(12,0,0,12,362.3,734.6)" />
<use xlink:href="#f3_25" transform="matrix(12,0,0,12,371.5,734.6)" />
<use xlink:href="#f3_1z" transform="matrix(12,0,0,12,375.9,734.6)" />
<use xlink:href="#f3_24" transform="matrix(12,0,0,12,384.3,734.6)" />
<use xlink:href="#f3_25" transform="matrix(12,0,0,12,398.2,734.6)" />
<use xlink:href="#f3_2a" transform="matrix(12,0,0,12,403,734.6)" />
<use xlink:href="#f3_1z" transform="matrix(12,0,0,12,412.1,734.6)" />
<use xlink:href="#f3_2e" transform="matrix(12,0,0,12,420.2,734.6)" />
<use xlink:href="#f3_21" transform="matrix(12,0,0,12,426.4,734.6)" />
<use xlink:href="#f3_1x" transform="matrix(12,0,0,12,434.5,734.6)" />
<use xlink:href="#f3_2f" transform="matrix(12,0,0,12,442.5,734.6)" />
<use xlink:href="#f3_21" transform="matrix(12,0,0,12,449.5,734.6)" />
<use xlink:href="#f3_2f" transform="matrix(12,0,0,12,457.6,734.6)" />
<use xlink:href="#f3_2g" transform="matrix(12,0,0,12,469.3,734.6)" />
<use xlink:href="#f3_24" transform="matrix(12,0,0,12,474.8,734.6)" />
<use xlink:href="#f3_21" transform="matrix(12,0,0,12,483.6,734.6)" />
<use xlink:href="#f3_1b" transform="matrix(12,0,0,12,496.8,734.6)" />
<use xlink:href="#f3_1x" transform="matrix(12,0,0,12,509.6,734.6)" />
<use xlink:href="#f3_1m" transform="matrix(12,0,0,12,522.4,734.6)" />
<use xlink:href="#f3_1x" transform="matrix(12,0,0,12,535.6,734.6)" />
<use xlink:href="#f3_28" transform="matrix(12,0,0,12,544,734.6)" />
<use xlink:href="#f3_2h" transform="matrix(12,0,0,12,548.8,734.6)" />
<use xlink:href="#f3_21" transform="matrix(12,0,0,12,558,734.6)" />
<use xlink:href="#f3_2b" transform="matrix(12,0,0,12,570.8,734.6)" />
<use xlink:href="#f3_22" transform="matrix(12,0,0,12,580.3,734.6)" />
<use xlink:href="#f3_13" transform="matrix(12,0,0,12,590.5,734.6)" />
<use xlink:href="#f3_28" transform="matrix(12,0,0,12,603,734.6)" />
<use xlink:href="#f6_4y" transform="matrix(12,0,0,12,612.5,734.6)" />
<use xlink:href="#f3_13" transform="matrix(12,0,0,12,626.5,734.6)" />
<use xlink:href="#f3_18" transform="matrix(12,0,0,12,638.6,734.6)" />
<use xlink:href="#f3_m" transform="matrix(7.9,0,0,7.9,651.8,736.1)" />
<use xlink:href="#f6_4y" transform="matrix(12,0,0,12,662.8,734.6)" />
<use xlink:href="#f3_13" transform="matrix(12,0,0,12,676.8,734.6)" />
<use xlink:href="#f3_1f" transform="matrix(12,0,0,12,688.9,734.6)" />
<use xlink:href="#f3_1f" transform="matrix(12,0,0,12,702.1,734.6)" />
<use xlink:href="#f3_18" transform="matrix(12,0,0,12,715.3,734.6)" />
<use xlink:href="#f3_i" transform="matrix(12,0,0,12,728.5,734.6)" />
<use xlink:href="#f3_c" transform="matrix(12,0,0,12,55,758.8)" />
<use xlink:href="#f3_20" transform="matrix(12,0,0,12,61.3,758.8)" />
<use xlink:href="#f3_d" transform="matrix(12,0,0,12,70.4,758.8)" />
<use xlink:href="#f3_13" transform="matrix(12,0,0,12,81.4,758.8)" />
<use xlink:href="#f3_18" transform="matrix(12,0,0,12,93.5,758.8)" />
<use xlink:href="#f3_n" transform="matrix(7.9,0,0,7.9,106.7,760.3)" />
<use xlink:href="#f6_4y" transform="matrix(12,0,0,12,117.4,758.8)" />
<use xlink:href="#f3_13" transform="matrix(12,0,0,12,131.3,758.8)" />
<use xlink:href="#f3_18" transform="matrix(12,0,0,12,143.4,758.8)" />
<use xlink:href="#f3_x" transform="matrix(12,0,0,12,161.4,758.8)" />
<use xlink:href="#f3_13" transform="matrix(12,0,0,12,176.4,758.8)" />
<use xlink:href="#f3_18" transform="matrix(12,0,0,12,188.5,758.8)" />
<use xlink:href="#f6_4y" transform="matrix(12,0,0,12,206.1,758.8)" />
<use xlink:href="#f3_13" transform="matrix(12,0,0,12,220.1,758.8)" />
<use xlink:href="#f3_18" transform="matrix(12,0,0,12,232.2,758.8)" />
<use xlink:href="#f3_m" transform="matrix(7.9,0,0,7.9,245.4,760.3)" />
<use xlink:href="#f6_4y" transform="matrix(12,0,0,12,256.4,758.8)" />
<use xlink:href="#f3_13" transform="matrix(12,0,0,12,270,758.8)" />
<use xlink:href="#f3_18" transform="matrix(12,0,0,12,282.1,758.8)" />
<use xlink:href="#f3_m" transform="matrix(7.9,0,0,7.9,295.3,760.3)" />
<use xlink:href="#f6_4y" transform="matrix(12,0,0,12,306.3,758.8)" />
<use xlink:href="#f3_13" transform="matrix(12,0,0,12,319.8,758.8)" />
<use xlink:href="#f3_18" transform="matrix(12,0,0,12,331.9,758.8)" />
<use xlink:href="#f3_1f" transform="matrix(12,0,0,12,345.2,758.8)" />
<use xlink:href="#f3_c" transform="matrix(12,0,0,12,55,783)" />
<use xlink:href="#f3_21" transform="matrix(12,0,0,12,61.3,783)" />
<use xlink:href="#f3_d" transform="matrix(12,0,0,12,69.3,783)" />
</g>
<image preserveAspectRatio="none" x="55" y="303" width="232" height="147" xlink:href="img/6.png" />
<image preserveAspectRatio="none" x="55" y="502" width="405" height="55" xlink:href="img/7.png" />
<image preserveAspectRatio="none" x="55" y="585" width="213" height="76" xlink:href="img/8.png" />
<image preserveAspectRatio="none" x="55" y="790" width="343" height="143" xlink:href="img/9.png" />
<path fill-rule="evenodd" d="M37.4,38.1h.7v-.7h-.7v.7Z" class="g2_92" />
<path fill-rule="evenodd" d="M37.4,38.1h.7v-.7h-.7v.7Z" class="g2_92" />
<path fill-rule="evenodd" d="M38.1,38.1H871.5v-.7H38.1v.7Z" class="g2_92" />
<path fill-rule="evenodd" d="M871.5,38.1h.8v-.7h-.8v.7Z" class="g2_92" />
<path fill-rule="evenodd" d="M871.5,38.1h.8v-.7h-.8v.7Z" class="g2_92" />
<path fill-rule="evenodd" d="M37.4,1248.5h.7V38.1h-.7V1248.5Z" class="g2_92" />
<path fill-rule="evenodd" d="M872.3,1248.5h.7V38.1h-.7V1248.5Z" class="g2_92" />
<path fill-rule="evenodd" d="M871.5,1248.5h.8V38.1h-.8V1248.5Z" class="g2_92" />
<path fill-rule="evenodd" d="M37.4,1249.2h.7v-.7h-.7v.7Z" class="g2_92" />
<path fill-rule="evenodd" d="M37.4,1249.2h.7v-.7h-.7v.7Z" class="g2_92" />
<path fill-rule="evenodd" d="M38.1,1249.9H871.5v-.7H38.1v.7Z" class="g2_92" />
<path fill-rule="evenodd" d="M38.1,1249.2H871.5v-.7H38.1v.7Z" class="g2_92" />
<path fill-rule="evenodd" d="M872.3,1249.9h.7v-1.4h-.7v1.4Z" class="g2_92" />
<path fill-rule="evenodd" d="M871.5,1249.9H873v-.7h-1.5v.7Z" class="g2_92" />
<path fill-rule="evenodd" d="M871.5,1249.2h.8v-.7h-.8v.7Z" class="g2_92" />
<path fill-rule="evenodd" d="M871.5,1249.2h.8v-.7h-.8v.7Z" class="g2_92" />
<defs>
<path d="M489,-15c0,0,-99,0,-179,30c0,0,-80,30,-136,91c0,0,-56,61,-85,152c0,0,-30,91,-30,212c0,0,0,123,32,218c0,0,33,96,92,161c0,0,59,65,142,98c0,0,82,34,181,34c0,0,40,0,78,-7c0,0,37,-7,69,-18c0,0,31,-11,57,-25c0,0,25,-14,35,-24c0,0,10,-10,14,-17c0,0,4,-7,6,-17c0,0,2,-11,3,-25c0,0,2,-14,2,-35c0,0,0,-22,-2,-38c0,0,-1,-15,-5,-25c0,0,-4,-10,-9,-14c0,0,-5,-5,-12,-5c0,0,-11,0,-28,13c0,0,-18,13,-45,29c0,0,-27,16,-65,29c0,0,-37,13,-89,13c0,0,-58,0,-103,-23c0,0,-45,-23,-77,-67c0,0,-31,-44,-48,-106c0,0,-16,-61,-16,-139c0,0,0,-85,17,-147c0,0,18,-62,50,-103c0,0,33,-40,79,-60c0,0,45,-19,103,-19c0,0,52,0,90,12c0,0,38,12,65,27c0,0,27,15,45,27c0,0,17,12,27,12c0,0,8,0,12,-3c0,0,4,-3,7,-12c0,0,3,-9,5,-25c0,0,1,-16,1,-43c0,0,0,-18,-1,-31c0,0,-1,-14,-3,-23c0,0,-2,-9,-6,-16c0,0,-4,-7,-12,-15c0,0,-8,-9,-32,-22c0,0,-23,-14,-57,-26C661,13,627,1,583,-6c0,0,-43,-9,-94,-9Z" 
id="f0_j"
transform="scale(0.001,-0.001)" />

<path d="M440,150c0,0,41,0,68,8c0,0,28,9,49,26c0,0,20,16,32,41c0,0,11,25,11,58c0,0,0,33,-11,60c0,0,-11,26,-33,44c0,0,-21,18,-55,28c0,0,-33,9,-87,9H298V150ZM407,567c0,0,42,0,68,10c0,0,25,10,42,28c0,0,16,17,24,41c0,0,9,24,9,50c0,0,0,29,-9,52c0,0,-9,23,-27,39c0,0,-18,15,-45,23c0,0,-27,8,-72,8H298V567ZM164,0c0,0,-25,0,-42,15c0,0,-16,14,-16,47V903c0,0,0,33,16,48c0,0,17,14,42,14H406c0,0,88,0,150,-15c0,0,61,-15,103,-45c0,0,42,-30,65,-77c0,0,22,-46,22,-108c0,0,0,-36,-9,-67c0,0,-9,-31,-26,-56c0,0,-17,-25,-42,-45c0,0,-25,-19,-57,-31c0,0,41,-7,76,-26c0,0,34,-19,60,-48c0,0,26,-30,41,-69c0,0,15,-40,15,-89c0,0,0,-51,-14,-93c0,0,-15,-42,-40,-74c0,0,-25,-32,-59,-55c0,0,-35,-23,-77,-38C614,29,573,14,525,7C525,7,478,0,420,0Z" 
id="f0_i"
transform="scale(0.001,-0.001)" />

<path d="M320,-17c0,0,-50,0,-93,9c0,0,-43,8,-76,19c0,0,-32,11,-54,24C97,35,75,48,65,58c0,0,-10,9,-14,28c0,0,-4,18,-4,52c0,0,0,23,1,39c0,0,2,15,5,25c0,0,4,10,9,14c0,0,6,4,13,4c0,0,11,0,30,-12c0,0,19,-13,49,-28c0,0,30,-15,71,-27c0,0,42,-12,96,-12c0,0,36,0,64,8c0,0,29,9,49,25c0,0,19,15,30,38c0,0,10,23,10,52c0,0,0,33,-18,56c0,0,-18,24,-46,42c0,0,-29,18,-66,34c0,0,-36,16,-75,34c0,0,-39,18,-76,41c0,0,-36,23,-65,54c0,0,-29,32,-47,75c0,0,-17,44,-17,104c0,0,0,70,25,122c0,0,26,53,70,88c0,0,43,34,103,51c0,0,59,18,125,18c0,0,35,0,69,-6c0,0,34,-5,64,-14c0,0,30,-9,53,-20c0,0,23,-11,31,-18c0,0,7,-8,10,-13c0,0,3,-5,4,-14c0,0,2,-8,3,-21c0,0,1,-13,1,-33c0,0,0,-21,-1,-36c0,0,-1,-15,-4,-25c0,0,-3,-9,-7,-14c0,0,-5,-4,-14,-4c0,0,-8,0,-26,10c0,0,-18,10,-44,23c0,0,-26,12,-60,22c0,0,-34,10,-75,10c0,0,-32,0,-56,-8c0,0,-24,-8,-40,-21c0,0,-16,-14,-24,-34c0,0,-8,-19,-8,-41c0,0,0,-32,18,-56c0,0,17,-23,46,-42c0,0,30,-18,67,-34c0,0,38,-16,76,-34c0,0,39,-18,76,-41c0,0,38,-22,67,-54c0,0,29,-32,47,-75c0,0,18,-43,18,-101c0,0,0,-76,-29,-133c0,0,-28,-58,-77,-96C572,60,524,21,459,2c0,0,-65,-19,-139,-19Z" 
id="f0_2n"
transform="scale(0.001,-0.001)" />

<path d="M164,0c0,0,-25,0,-42,15c0,0,-16,14,-16,47V903c0,0,0,33,16,48c0,0,17,14,42,14H645c0,0,7,0,12,-4c0,0,5,-3,9,-13c0,0,4,-9,6,-24c0,0,2,-14,2,-36c0,0,0,-21,-2,-36c0,0,-2,-14,-6,-23c0,0,-4,-9,-9,-13c0,0,-5,-4,-12,-4H301V576H593c0,0,6,0,12,-4c0,0,6,-4,9,-13c0,0,4,-8,6,-23c0,0,2,-14,2,-35c0,0,0,-22,-2,-36c0,0,-2,-14,-6,-23c0,0,-3,-8,-9,-12c0,0,-6,-4,-12,-4H301V154H649c0,0,6,0,12,-5c0,0,5,-4,9,-13c0,0,4,-9,6,-23c0,0,2,-15,2,-36c0,0,0,-22,-2,-36c0,0,-2,-15,-6,-24c0,0,-4,-9,-9,-13c0,0,-6,-4,-12,-4Z" 
id="f0_t"
transform="scale(0.001,-0.001)" />

<path d="M79,297c0,0,-19,0,-27,18c0,0,-8,17,-8,60c0,0,0,41,8,59c0,0,8,17,27,17H389c0,0,9,0,15,-4c0,0,7,-4,11,-13c0,0,5,-9,7,-23c0,0,1,-15,1,-36c0,0,0,-43,-8,-61c0,0,-8,-17,-26,-17Z" 
id="f0_oj"
transform="scale(0.001,-0.001)" />

<path d="M121,-4c0,0,-39,0,-60,2C61,-2,39,0,32,8c0,0,-8,8,-3,24c0,0,4,15,18,41L279,495L64,892c0,0,-14,26,-19,42c0,0,-5,17,4,24c0,0,9,8,32,10c0,0,23,2,65,2c0,0,35,0,56,-2c0,0,20,-1,32,-4c0,0,12,-4,17,-10c0,0,5,-6,9,-15L431,620L595,939c0,0,5,9,10,15c0,0,5,6,16,10c0,0,10,3,29,4c0,0,19,2,53,2c0,0,37,0,59,-2c0,0,22,-2,30,-10c0,0,8,-8,4,-24c0,0,-4,-16,-17,-42L564,497L793,73c0,0,14,-26,18,-41c0,0,4,-16,-5,-24c0,0,-9,-8,-32,-10c0,0,-24,-2,-65,-2c0,0,-36,0,-56,2c0,0,-20,1,-31,3c0,0,-12,4,-17,10c0,0,-5,6,-9,15L414,374L233,26c0,0,-4,-9,-9,-15c0,0,-6,-6,-17,-10c0,0,-12,-2,-32,-3c0,0,-21,-2,-54,-2Z" 
id="f0_3e"
transform="scale(0.001,-0.001)" />

<path d="M204,-4c0,0,-28,0,-47,2c0,0,-19,2,-31,5c0,0,-11,4,-16,10c0,0,-4,6,-4,13V939c0,0,0,7,4,13c0,0,5,6,17,10c0,0,11,3,30,6c0,0,19,2,47,2c0,0,29,0,48,-2c0,0,18,-3,29,-6c0,0,11,-4,16,-10c0,0,5,-6,5,-13V26c0,0,0,-7,-5,-13c0,0,-5,-6,-16,-10c0,0,-11,-3,-29,-5c0,0,-19,-2,-48,-2Z" 
id="f0_1c"
transform="scale(0.001,-0.001)" />

<path d="M127,0c0,0,-16,0,-28,3C99,3,87,6,80,15c0,0,-8,8,-11,25c0,0,-3,16,-3,42c0,0,0,25,2,42c0,0,2,18,8,32c0,0,6,14,15,27c0,0,9,13,24,29L282,390c0,0,50,53,81,95c0,0,30,43,47,79c0,0,17,35,24,65c0,0,6,30,6,57c0,0,0,24,-8,46c0,0,-8,22,-23,39c0,0,-15,16,-38,25c0,0,-23,10,-55,10c0,0,-44,0,-78,-12c0,0,-33,-11,-59,-25c0,0,-26,-13,-43,-25c0,0,-17,-12,-27,-12c0,0,-7,0,-11,5c0,0,-5,4,-8,15c0,0,-3,10,-5,28c0,0,-2,17,-2,42c0,0,0,18,1,29c0,0,1,12,4,20c0,0,2,9,6,15c0,0,3,6,13,15c0,0,9,9,34,23c0,0,25,14,61,27c0,0,37,14,81,23c0,0,44,9,92,9c0,0,75,0,131,-19c0,0,57,-19,94,-53c0,0,37,-34,55,-81c0,0,19,-47,19,-100c0,0,0,-47,-9,-93c0,0,-9,-45,-37,-98c0,0,-29,-52,-80,-116c0,0,-52,-64,-136,-148L299,159H679c0,0,8,0,14,-4c0,0,6,-5,11,-14c0,0,4,-9,7,-25c0,0,2,-15,2,-36c0,0,0,-22,-2,-37c0,0,-2,-15,-6,-25c0,0,-3,-10,-9,-14c0,0,-6,-4,-14,-4Z" 
id="f0_rz"
transform="scale(0.001,-0.001)" />

<path d="M385,138c0,0,29,0,52,9c0,0,22,10,39,28c0,0,17,19,28,47c0,0,11,29,19,66c0,0,7,37,9,84c0,0,3,47,3,104c0,0,0,69,-4,122c0,0,-4,52,-11,91c0,0,-8,39,-20,66c0,0,-12,27,-28,43c0,0,-16,16,-37,22c0,0,-21,7,-47,7c0,0,-44,0,-73,-21c0,0,-28,-21,-45,-64c0,0,-17,-42,-24,-106c0,0,-6,-63,-6,-148c0,0,0,-103,8,-171c0,0,8,-67,26,-107c0,0,17,-40,45,-56c0,0,27,-16,66,-16ZM378,-17c0,0,-99,0,-164,33c0,0,-65,34,-103,98c0,0,-38,64,-54,156c0,0,-15,92,-15,209c0,0,0,115,19,208c0,0,19,94,61,160c0,0,42,65,110,101c0,0,68,35,165,35c0,0,99,0,164,-34c0,0,65,-34,103,-98c0,0,39,-64,53,-156c0,0,15,-92,15,-209c0,0,0,-115,-18,-209c0,0,-19,-93,-61,-159C653,118,611,53,543,17c0,0,-67,-34,-165,-34Z" 
id="f0_rx"
transform="scale(0.001,-0.001)" />

<path d="M142,0c0,0,-6,0,-12,4c0,0,-5,3,-9,12c0,0,-4,9,-6,23c0,0,-3,15,-3,36c0,0,0,21,2,36c0,0,2,14,6,23c0,0,4,9,10,13c0,0,5,5,12,5H322V779L166,693c0,0,-17,-8,-28,-10c0,0,-1,0,-3,0c-4,0,-10,1,-14,5c0,0,-6,6,-8,22c0,0,-2,15,-2,44c0,0,0,18,0,29c0,0,1,12,4,20c0,0,3,8,8,14c0,0,5,5,14,11L345,962c0,0,4,3,9,5c0,0,6,2,15,3c0,0,9,1,23,2c0,0,15,0,38,0c0,0,28,0,46,-1c0,0,17,-1,26,-4c0,0,9,-3,12,-7c0,0,3,-4,3,-11V152H675c0,0,7,0,12,-5c0,0,6,-4,10,-13c0,0,4,-9,6,-23c0,0,2,-15,2,-36c0,0,0,-21,-2,-36c0,0,-3,-14,-7,-23c0,0,-4,-9,-9,-12c0,0,-5,-4,-12,-4Z" 
id="f0_ry"
transform="scale(0.001,-0.001)" />

<path d="M398,134c0,0,34,0,60,12c0,0,25,13,43,36c0,0,17,23,26,54c0,0,9,31,9,68c0,0,0,38,-7,66c0,0,-7,29,-22,49c0,0,-15,20,-39,30c0,0,-25,10,-60,10c0,0,-21,0,-41,-4c0,0,-20,-4,-40,-10c0,0,-19,-7,-37,-16c0,0,-18,-10,-33,-20c0,0,0,-80,9,-133c0,0,9,-54,26,-85c0,0,18,-31,44,-44c0,0,27,-13,62,-13ZM387,-16c0,0,-67,0,-117,15c0,0,-50,14,-86,43c0,0,-37,29,-60,70c0,0,-23,41,-37,92c0,0,-14,52,-19,112c0,0,-5,61,-5,129c0,0,0,56,5,118c0,0,6,62,22,122c0,0,16,59,45,114c0,0,29,54,75,94c0,0,46,41,111,65c0,0,65,24,155,24c0,0,28,0,57,-4c0,0,29,-3,53,-8c0,0,25,-5,42,-12c0,0,17,-7,23,-12c0,0,5,-5,8,-11c0,0,3,-5,5,-13c0,0,2,-7,3,-17c0,0,1,-11,1,-25c0,0,0,-24,-1,-39c0,0,-2,-15,-5,-24c0,0,-3,-8,-8,-12c0,0,-5,-4,-12,-4c0,0,-9,0,-24,5c0,0,-14,5,-34,11c0,0,-20,6,-47,10c0,0,-27,5,-63,5c0,0,-61,0,-102,-23c0,0,-42,-22,-68,-60c0,0,-26,-39,-38,-90c0,0,-12,-50,-13,-107c0,0,16,10,38,21c0,0,21,10,46,18c0,0,25,7,54,12c0,0,29,5,62,5c0,0,73,0,125,-20c0,0,52,-20,86,-58c0,0,33,-37,48,-90c0,0,16,-53,16,-118c0,0,0,-73,-22,-135c0,0,-23,-62,-66,-108C640,79,597,34,533,9c0,0,-63,-25,-146,-25Z" 
id="f0_s3"
transform="scale(0.001,-0.001)" />

<path d="M589,371L453,782h-1L317,371ZM106,-4c0,0,-35,0,-54,2C52,-2,32,0,25,8c0,0,-7,9,-5,24c0,0,2,16,11,42L329,931c0,0,4,13,10,21c0,0,6,7,19,12c0,0,13,4,36,5c0,0,23,1,61,1c0,0,44,0,71,-1c0,0,26,-1,40,-5c0,0,15,-5,21,-13c0,0,6,-8,11,-22L896,73c0,0,9,-27,11,-43c0,0,3,-15,-6,-23c0,0,-8,-7,-29,-9c0,0,-21,-2,-57,-2c0,0,-38,0,-59,1c0,0,-22,1,-33,4c0,0,-11,3,-16,9c0,0,-4,6,-7,16L635,220H272L211,31c0,0,-2,-11,-7,-18c0,0,-5,-7,-16,-11c0,0,-11,-3,-31,-4c0,0,-19,-2,-51,-2Z" 
id="f0_5"
transform="scale(0.001,-0.001)" />

<path d="M198,-4c0,0,-27,0,-45,2c0,0,-18,2,-28,5c0,0,-11,4,-15,10c0,0,-4,6,-4,13V887c0,0,0,38,20,58c0,0,20,20,53,20H308c0,0,34,0,59,-6c0,0,24,-5,42,-18c0,0,18,-13,30,-35c0,0,12,-21,21,-52L669,279h3L889,852c0,0,9,32,21,53c0,0,11,22,27,35c0,0,15,14,36,19c0,0,21,6,48,6h132c0,0,21,0,35,-5c0,0,15,-5,24,-15c0,0,9,-11,14,-25c0,0,5,-15,5,-33V26c0,0,0,-7,-4,-13c0,0,-4,-6,-15,-10c0,0,-11,-3,-29,-5c0,0,-18,-2,-45,-2c0,0,-27,0,-45,2c0,0,-18,2,-28,5c0,0,-11,4,-15,10c0,0,-5,6,-5,13V813h-1L764,27c0,0,-3,-10,-10,-16c0,0,-6,-6,-18,-10c0,0,-12,-3,-29,-4c0,0,-18,-1,-44,-1c0,0,-25,0,-43,2c0,0,-18,2,-29,5c0,0,-12,4,-19,10c0,0,-6,6,-9,14L293,813h-2V26c0,0,0,-7,-4,-13c0,0,-4,-6,-15,-10c0,0,-11,-3,-29,-5c0,0,-17,-2,-45,-2Z" 
id="f0_1x"
transform="scale(0.001,-0.001)" />

<path d="M193,-4c0,0,-26,0,-43,2c0,0,-18,2,-27,6c0,0,-10,4,-14,10c0,0,-3,6,-3,13V895c0,0,0,35,20,53c0,0,21,17,50,17H282c0,0,28,0,47,-5c0,0,20,-5,35,-16c0,0,15,-11,29,-31c0,0,13,-20,27,-49L608,511c0,0,17,-32,33,-63c0,0,16,-31,31,-62c0,0,14,-31,29,-60c0,0,14,-30,27,-60h1c0,0,-2,52,-3,109c0,0,-1,57,-1,108V936c0,0,0,7,4,13c0,0,5,6,15,11c0,0,10,4,28,6c0,0,17,2,44,2c0,0,25,0,42,-2c0,0,17,-2,27,-6c0,0,9,-5,13,-11c0,0,4,-6,4,-13V68c0,0,0,-17,-6,-30c0,0,-6,-14,-17,-23C879,15,869,6,856,2c0,0,-14,-3,-28,-3H744c0,0,-26,0,-45,4c0,0,-19,5,-35,19c0,0,-16,14,-31,38c0,0,-15,23,-34,60L359,572c0,0,-21,40,-43,86c0,0,-21,47,-38,91h-2c0,0,3,-54,5,-107c0,0,2,-53,2,-110V27c0,0,0,-7,-5,-13c0,0,-4,-6,-14,-10c0,0,-10,-4,-27,-6c0,0,-17,-2,-44,-2Z" 
id="f0_1y"
transform="scale(0.001,-0.001)" />

<path d="M378,-4c0,0,-28,0,-47,2c0,0,-19,2,-31,5c0,0,-11,4,-16,10c0,0,-4,6,-4,13V805H38c0,0,-8,0,-13,4c0,0,-5,5,-9,14c0,0,-3,9,-5,25c0,0,-2,15,-2,37c0,0,0,22,2,38c0,0,2,15,5,25c0,0,4,9,9,13c0,0,5,4,13,4H718c0,0,7,0,12,-4c0,0,6,-4,10,-13c0,0,3,-10,5,-25c0,0,2,-16,2,-38c0,0,0,-22,-2,-37c0,0,-2,-16,-5,-25c0,0,-4,-9,-10,-14c0,0,-5,-4,-12,-4H476V26c0,0,0,-7,-5,-13c0,0,-5,-6,-16,-10c0,0,-11,-3,-30,-5c0,0,-19,-2,-47,-2Z" 
id="f0_2t"
transform="scale(0.001,-0.001)" />

<path d="M514,145c0,0,72,0,121,27c0,0,48,26,78,73c0,0,30,46,42,107c0,0,13,62,13,131c0,0,0,76,-12,139c0,0,-12,62,-41,106c0,0,-29,45,-76,69c0,0,-48,24,-120,24c0,0,-72,0,-120,-27c0,0,-49,-27,-79,-73c0,0,-29,-45,-42,-106c0,0,-12,-61,-12,-129c0,0,0,-79,12,-142c0,0,12,-63,40,-108c0,0,28,-44,76,-68c0,0,48,-23,120,-23ZM508,-17c0,0,-113,0,-196,29c0,0,-84,29,-140,90c0,0,-56,60,-84,154c0,0,-28,93,-28,221c0,0,0,117,29,210c0,0,30,94,89,160c0,0,59,65,146,101c0,0,87,35,202,35c0,0,110,0,194,-29c0,0,84,-30,140,-90c0,0,56,-60,85,-153c0,0,29,-92,29,-217c0,0,0,-120,-30,-215c0,0,-30,-95,-89,-161C855,118,796,52,709,17c0,0,-87,-34,-201,-34Z" 
id="f0_24"
transform="scale(0.001,-0.001)" />

<path d="M299,0V777H162l36,173H508V0Z" 
id="f1_l"
transform="scale(0.001,-0.001)" />

<path d="M441,402V711h-3L193,402ZM441,0V227H19V404L457,952H650V402h90V227H650V0Z" 
id="f1_o"
transform="scale(0.001,-0.001)" />

<path d="M44,-281L425,1053H537L156,-281Z" 
id="f1_j"
transform="scale(0.001,-0.001)" />

<path d="M410,-14c0,0,-86,0,-175,14C235,0,145,14,81,38V307h66L181,146c0,0,31,-37,94,-62c0,0,64,-24,132,-24c0,0,214,0,214,177c0,0,0,55,-41,93c0,0,-41,38,-128,68c0,0,-128,42,-185,68c0,0,-56,27,-95,63c0,0,-38,36,-62,87c0,0,-23,51,-23,125c0,0,0,132,90,201c0,0,90,69,263,69c0,0,125,0,278,-32V741H651L618,878c0,0,-76,56,-178,56c0,0,-92,0,-141,-34c0,0,-49,-34,-49,-104c0,0,0,-50,41,-86c0,0,41,-35,128,-63c0,0,171,-56,235,-97c0,0,64,-41,97,-103c0,0,34,-61,34,-143c0,0,0,-318,-375,-318Z" 
id="f2_1j"
transform="scale(0.001,-0.001)" />

<path d="M327,-14c0,0,-101,0,-156,45c0,0,-55,45,-55,131V624H25v48l108,29l87,159H332V701H480V624H332V176c0,0,0,-49,20,-73c0,0,20,-25,53,-25c0,0,40,0,97,12V26c0,0,-22,-15,-76,-27c0,0,-55,-13,-99,-13Z" 
id="f2_2g"
transform="scale(0.001,-0.001)" />

<path d="M287,-18c0,0,-194,0,-194,206V634L23,652v49H309V217c0,0,0,-63,26,-98c0,0,27,-35,76,-35c0,0,57,0,113,25V634l-64,18v49H740V67L809,49V0H536L526,61L475,35c0,0,-104,-53,-188,-53Z" 
id="f2_2h"
transform="scale(0.001,-0.001)" />

<path d="M416,68c0,0,60,0,124,32V628c0,0,-58,15,-118,15c0,0,-67,0,-104,-73c0,0,-38,-73,-38,-216c0,0,0,-139,36,-212c0,0,35,-74,100,-74ZM369,-14c0,0,-155,0,-231,88c0,0,-76,90,-76,274c0,0,0,182,82,277c0,0,81,95,236,95c0,0,82,0,165,-20c0,0,-5,24,-5,115V992l-72,18v50H756V67L833,49V0H562L547,40C547,40,505,13,483,4c0,0,-23,-7,-51,-12c0,0,-28,-6,-63,-6Z" 
id="f2_20"
transform="scale(0.001,-0.001)" />

<path d="M434,423c0,0,0,101,-7,142c0,0,-6,40,-22,60c0,0,-16,19,-45,19c0,0,-44,0,-66,-48c0,0,-22,-49,-22,-173ZM389,-14c0,0,-172,0,-254,89c0,0,-83,90,-83,279c0,0,0,184,79,274c0,0,79,91,238,91c0,0,142,0,206,-76c0,0,64,-76,64,-237V345H271V333c0,0,0,-111,18,-158c0,0,18,-47,58,-72c0,0,40,-25,110,-25c0,0,66,0,166,22V42C623,42,582,18,517,1c0,0,-66,-15,-128,-15Z" 
id="f2_21"
transform="scale(0.001,-0.001)" />

<path d="M41,0V49l69,18V634L41,652v49H313l11,-61l50,26c0,0,105,54,188,54c0,0,194,0,194,-207V67L827,49V0H478V49l63,18V484c0,0,0,63,-27,98c0,0,-26,35,-75,35c0,0,-57,0,-114,-25V67L389,49V0Z" 
id="f2_2a"
transform="scale(0.001,-0.001)" />

<path d="M276,-14c0,0,-57,0,-125,13C151,-1,83,10,48,23V214H97l28,-98c0,0,26,-26,69,-44c0,0,42,-17,86,-17c0,0,65,0,97,28c0,0,32,28,32,71c0,0,0,41,-31,65c0,0,-30,25,-133,57c0,0,-108,34,-154,92c0,0,-45,58,-45,143c0,0,0,95,71,152c0,0,71,57,183,57c0,0,77,0,207,-22V518H457l-24,82c0,0,-21,22,-60,35c0,0,-40,14,-75,14c0,0,-53,0,-79,-22c0,0,-26,-22,-26,-59c0,0,0,-40,32,-65c0,0,32,-26,132,-55c0,0,109,-34,155,-89c0,0,45,-55,45,-137c0,0,0,-117,-72,-177c0,0,-72,-59,-209,-59Z" 
id="f2_2f"
transform="scale(0.001,-0.001)" />

<path d="M41,0V49l69,18V634L41,652v49H313l11,-61l50,26c0,0,105,54,188,54c0,0,125,0,167,-91c0,0,153,91,258,91c0,0,189,0,189,-207V67l71,-17V0H898V50l63,17V484c0,0,0,63,-24,98c0,0,-25,35,-74,35c0,0,-55,0,-119,-31c0,0,7,-32,7,-73V67L821,50V0H473V50l63,17V484c0,0,0,63,-25,98c0,0,-24,35,-73,35c0,0,-49,0,-113,-29V67L389,49V0Z" 
id="f2_29"
transform="scale(0.001,-0.001)" />

<path d="M345,75c0,0,50,0,110,26V351l-63,-2c0,0,-72,-3,-100,-38c0,0,-28,-35,-28,-113c0,0,0,-63,22,-93c0,0,23,-30,59,-30ZM266,-14c0,0,-217,0,-217,208c0,0,0,79,32,126c0,0,32,48,93,71c0,0,60,22,190,25l91,2V521c0,0,0,126,-104,126c0,0,-62,0,-140,-39L183,521H134V691c0,0,112,17,165,21c0,0,53,5,108,5c0,0,264,0,264,-194V67L741,49V0H483L466,54C466,54,408,14,361,0c0,0,-47,-14,-95,-14Z" 
id="f2_1x"
transform="scale(0.001,-0.001)" />

<path d="M159,-329c0,0,-61,0,-123,14v180H81l32,-94c0,0,21,-17,55,-17c0,0,28,0,50,13c0,0,21,14,40,39c0,0,20,25,37,62c0,0,17,37,50,110L64,634L15,652v49H374V652L290,632L455,244L602,634l-82,18v49H749V652L698,637L421,-44c0,0,-47,-121,-83,-176c0,0,-36,-55,-80,-82c0,0,-43,-27,-99,-27Z" 
id="f2_2l"
transform="scale(0.001,-0.001)" />

<path d="M41,0V49l76,18V624H11v51l106,29v75c0,0,0,144,73,220c0,0,73,77,210,77c0,0,74,0,124,-15V894H476l-22,81c0,0,-18,17,-47,17c0,0,-74,0,-74,-189V701H475V624H333V67L447,49V0Z" 
id="f2_22"
transform="scale(0.001,-0.001)" />

<path d="M34,0V49l76,18V634L38,652v49H325V67L402,49V0ZM217,831c0,0,-48,0,-81,33c0,0,-34,33,-34,82c0,0,0,48,34,81c0,0,34,33,81,33c0,0,48,0,81,-33c0,0,33,-33,33,-81c0,0,0,-47,-33,-81c0,0,-32,-34,-81,-34Z" 
id="f2_25"
transform="scale(0.001,-0.001)" />

<path d="M-14,-14L336,1006H440L90,-14Z" 
id="f2_j"
transform="scale(0.001,-0.001)" />

<path d="M30,0V49l76,18V992l-72,18v50H322V67L398,49V0Z" 
id="f2_28"
transform="scale(0.001,-0.001)" />

<path d="M41,0V49l91,18V634L41,652v49H336l8,-145c0,0,80,89,144,128c0,0,64,40,117,40h40V468H604l-45,94c0,0,-47,0,-106,-21c0,0,-60,-20,-105,-48V67L460,49V0Z" 
id="f2_2e"
transform="scale(0.001,-0.001)" />

<path d="M430,68c0,0,29,0,60,8c0,0,32,8,54,21V630c0,0,-51,12,-114,12c0,0,-76,0,-112,-75c0,0,-37,-75,-37,-233c0,0,0,-134,35,-200c0,0,35,-66,114,-66Zm11,-393v50l103,18V-97c0,0,0,70,7,141c0,0,-73,-58,-182,-58c0,0,-156,0,-231,91c0,0,-75,92,-75,277c0,0,0,179,84,272c0,0,84,94,248,94c0,0,53,0,208,-18l89,33h67V-257l77,-18v-50Z" 
id="f2_2d"
transform="scale(0.001,-0.001)" />

<path d="M379,60c0,0,59,0,84,64c0,0,24,65,24,231c0,0,0,164,-24,227c0,0,-24,63,-84,63c0,0,-57,0,-80,-60c0,0,-22,-61,-22,-230c0,0,0,-173,23,-234c0,0,22,-61,79,-61Zm-2,-74c0,0,-161,0,-240,91c0,0,-79,91,-79,277c0,0,0,186,80,276c0,0,81,90,245,90c0,0,167,0,245,-93c0,0,78,-93,78,-273c0,0,0,-188,-81,-278c0,0,-81,-90,-248,-90Z" 
id="f2_2b"
transform="scale(0.001,-0.001)" />

<path d="M608,-14c0,0,-251,0,-392,133C216,119,75,252,75,488c0,0,0,257,134,390c0,0,135,133,398,133c0,0,174,0,361,-50l4,-240H905L884,866c0,0,-98,67,-229,67c0,0,-173,0,-253,-108c0,0,-80,-108,-80,-334c0,0,0,-209,84,-319c0,0,83,-109,243,-109c0,0,84,0,147,22c0,0,63,22,99,53l24,164h68L982,48C982,48,915,22,808,4C808,4,700,-14,608,-14Z" 
id="f2_13"
transform="scale(0.001,-0.001)" />

<path d="M452,474c0,0,104,0,151,52c0,0,47,53,47,178c0,0,0,119,-45,167c0,0,-44,47,-156,47H390V474ZM36,0V54L154,74V926L26,945v55H467c0,0,213,0,318,-71c0,0,105,-71,105,-224c0,0,0,-313,-366,-313H390V74L557,54V0Z" 
id="f2_1g"
transform="scale(0.001,-0.001)" />

<path d="M424,64c0,0,74,0,109,71c0,0,36,72,36,236c0,0,0,137,-34,201c0,0,-34,65,-111,65c0,0,-29,0,-62,-7c0,0,-34,-6,-55,-19V76c0,0,47,-12,117,-12Zm21,-78c0,0,-121,0,-354,50V994l-72,18v48H307V802c0,0,0,-69,-8,-141c0,0,30,25,86,42c0,0,57,17,110,17c0,0,153,0,223,-84c0,0,70,-83,70,-266c0,0,0,-180,-90,-283C698,87,608,-14,445,-14Z" 
id="f2_1y"
transform="scale(0.001,-0.001)" />

<path d="M438,65c0,0,131,0,131,293c0,0,0,279,-130,279c0,0,-69,0,-127,-29V80c0,0,60,-15,126,-15ZM20,-325v50l76,18V634L19,652v49H304l1,-36c0,0,80,55,194,55c0,0,146,0,218,-86c0,0,71,-86,71,-271c0,0,0,-183,-83,-280c0,0,-83,-97,-238,-97c0,0,-79,0,-160,19c0,0,5,-48,5,-109V-257l103,-18v-50Z" 
id="f2_2c"
transform="scale(0.001,-0.001)" />

<path d="M6,0V49L69,61L292,323L91,634L23,652v49H398V652L319,632L421,475L557,634l-71,18v49H725V652L663,637L466,406L689,65L756,49V0H381V49l79,17L337,254L175,65L245,49V0Z" 
id="f2_2k"
transform="scale(0.001,-0.001)" />

<path d="M425,-14c0,0,-187,0,-280,90c0,0,-93,90,-93,276c0,0,0,115,42,198c0,0,43,82,121,126c0,0,78,44,182,44c0,0,104,0,227,-26V486H571L539,609c0,0,-25,19,-50,26c0,0,-24,7,-65,7c0,0,-44,0,-79,-35c0,0,-36,-35,-56,-98c0,0,-20,-64,-20,-153c0,0,0,-150,47,-214c0,0,47,-64,148,-64c0,0,103,0,176,21V42C640,42,606,15,547,0c0,0,-59,-14,-122,-14Z" 
id="f2_1z"
transform="scale(0.001,-0.001)" />

<path d="M41,0V49l69,18V992l-72,18v50H325V756c0,0,0,-49,-4,-116l51,26c0,0,106,54,190,54c0,0,194,0,194,-207V67L827,49V0H478V49l63,18V484c0,0,0,63,-27,98c0,0,-26,35,-75,35c0,0,-57,0,-114,-25V67L389,49V0Z" 
id="f2_24"
transform="scale(0.001,-0.001)" />

<path d="M248,-20c0,0,-52,0,-87,34c0,0,-36,36,-36,88c0,0,0,52,36,88c0,0,35,36,87,36c0,0,52,0,88,-36c0,0,36,-36,36,-88c0,0,0,-51,-36,-87c0,0,-35,-35,-88,-35Zm0,488c0,0,-52,0,-87,36c0,0,-36,36,-36,88c0,0,0,52,35,88c0,0,35,36,88,36c0,0,53,0,89,-36c0,0,35,-37,35,-88c0,0,0,-51,-36,-87c0,0,-35,-37,-88,-37Z" 
id="f2_u"
transform="scale(0.001,-0.001)" />

<path d="M460,-325c0,0,-148,79,-231,172c0,0,-84,93,-123,217c0,0,-39,126,-39,305c0,0,0,178,39,303c0,0,39,125,123,218c0,0,83,92,231,170V975c0,0,-68,-52,-109,-133c0,0,-41,-81,-61,-189c0,0,-19,-109,-19,-285c0,0,0,-177,19,-285c0,0,19,-107,60,-189c0,0,42,-82,110,-134v-85Z" 
id="f2_c"
transform="scale(0.001,-0.001)" />

<path d="M49,-325v85c0,0,68,53,110,135c0,0,41,82,60,190c0,0,19,109,19,283c0,0,0,177,-19,285c0,0,-20,108,-61,189c0,0,-41,81,-109,133v85c0,0,149,-80,232,-172c0,0,83,-92,122,-217c0,0,39,-125,39,-302c0,0,0,-178,-39,-304c0,0,-39,-125,-122,-218c0,0,-83,-93,-232,-172Z" 
id="f2_d"
transform="scale(0.001,-0.001)" />

<path d="M639,416L478,858L313,416ZM647,0V54L762,74L667,333H283L191,74L319,54V0H15V54L90,74l355,935H662L1016,74l76,-20V0Z" 
id="f2_11"
transform="scale(0.001,-0.001)" />

<path d="M20,-236v69c0,0,47,14,81,37c0,0,33,24,52,52c0,0,18,28,18,53c0,0,0,17,-11,28c0,0,-12,12,-45,30c0,0,-57,30,-57,93c0,0,0,48,34,74c0,0,33,25,85,25c0,0,63,0,105,-41c0,0,42,-41,42,-105c0,0,0,-115,-78,-195c0,0,-77,-81,-226,-120Z" 
id="f2_g"
transform="scale(0.001,-0.001)" />

<path d="M850,0L476,482L389,407V74L533,54V0H26V54L154,74V926L26,945v55H518V945L389,926V519L845,926l-92,19v55h343V945L974,926L643,634L1083,74l93,-20V0Z" 
id="f2_1b"
transform="scale(0.001,-0.001)" />

<path d="M492,65c0,0,156,0,253,89L389,485c0,0,-50,-34,-73,-86c0,0,-22,-51,-22,-125c0,0,0,-107,53,-158c0,0,53,-51,145,-51Zm1,565c0,0,57,30,78,71c0,0,21,41,21,111c0,0,0,130,-84,130c0,0,-51,0,-73,-33c0,0,-22,-32,-22,-97c0,0,0,-47,16,-89c0,0,16,-41,64,-93ZM492,-14c0,0,-205,0,-304,69C188,55,88,126,88,266c0,0,0,71,26,125c0,0,26,53,72,91c0,0,46,39,135,74c0,0,-94,108,-94,240c0,0,0,104,73,162c0,0,73,58,208,58c0,0,131,0,200,-55c0,0,70,-55,70,-161c0,0,0,-56,-22,-98c0,0,-23,-42,-65,-73c0,0,-42,-32,-130,-67L844,306c0,0,39,98,44,229l-82,19v48h355V554l-82,-19l-20,-68c0,0,-45,-154,-112,-253L1112,66l86,-19V0H912L823,82c0,0,-131,-96,-331,-96Z" 
id="f2_a"
transform="scale(0.001,-0.001)" />

<path d="M56,294V424H453V294Z" 
id="f2_h"
transform="scale(0.001,-0.001)" />

<path d="M559,77c0,0,87,0,129,53c0,0,42,53,42,162c0,0,0,99,-49,147c0,0,-50,49,-163,49H389V82c0,0,108,-5,170,-5ZM499,570c0,0,80,0,118,42c0,0,38,42,38,141c0,0,0,88,-38,126c0,0,-37,39,-124,39H389V570ZM561,-3L221,0H25V54L154,74V926L25,945v55H511c0,0,199,0,294,-53c0,0,95,-53,95,-173c0,0,0,-89,-56,-154c0,0,-56,-65,-150,-85c0,0,139,-14,211,-76c0,0,71,-61,71,-167c0,0,0,-146,-107,-221C869,71,762,-3,561,-3Z" 
id="f2_12"
transform="scale(0.001,-0.001)" />

<path d="M595,60c0,0,141,0,206,102c0,0,65,102,65,340c0,0,0,236,-65,335c0,0,-65,100,-206,100c0,0,-142,0,-207,-100c0,0,-66,-99,-66,-335c0,0,0,-239,66,-340c0,0,65,-102,207,-102ZM945,-246c0,0,-54,0,-96,10c0,0,-43,10,-79,31c0,0,-36,21,-71,56c0,0,-34,35,-113,135c0,0,-249,2,-380,132C206,118,75,250,75,501c0,0,0,510,520,510c0,0,256,0,387,-129c0,0,132,-130,132,-381c0,0,0,-370,-279,-477l37,-44c0,0,110,-138,188,-138c0,0,39,0,61,6v-64c0,0,-15,-7,-73,-19c0,0,-57,-11,-103,-11Z" 
id="f2_1h"
transform="scale(0.001,-0.001)" />

<path d="M191,-20c0,0,-51,0,-88,34c0,0,-36,36,-36,88c0,0,0,52,36,88c0,0,36,36,88,36c0,0,51,0,88,-36c0,0,36,-36,36,-88c0,0,0,-51,-36,-87c0,0,-36,-35,-88,-35Z" 
id="f2_i"
transform="scale(0.001,-0.001)" />

<path d="M346,-14c0,0,-139,0,-276,29L61,258h69L169,96c0,0,29,-16,71,-26c0,0,43,-10,77,-10c0,0,172,0,172,230c0,0,0,120,-44,174c0,0,-44,53,-139,53c0,0,-53,0,-97,-19L186,488H111v512H633V834H194V571c0,0,91,21,164,21c0,0,178,0,264,-74c0,0,86,-73,86,-220c0,0,0,-151,-94,-232c0,0,-93,-80,-268,-80Z" 
id="f2_p"
transform="scale(0.001,-0.001)" />

<path d="M595,60c0,0,141,0,206,102c0,0,65,102,65,340c0,0,0,236,-65,335c0,0,-65,100,-206,100c0,0,-142,0,-207,-100c0,0,-66,-99,-66,-335c0,0,0,-239,66,-340c0,0,65,-102,207,-102Zm0,-74c0,0,-253,0,-387,130C208,116,75,246,75,501c0,0,0,510,520,510c0,0,256,0,387,-129c0,0,132,-130,132,-381c0,0,0,-254,-133,-385C981,116,848,-14,595,-14Z" 
id="f2_1f"
transform="scale(0.001,-0.001)" />

<path d="M498,506c0,0,115,0,164,47c0,0,48,48,48,166c0,0,0,112,-46,156c0,0,-46,43,-169,43H390V506ZM793,0L514,423H390V74L518,54V0H36V54L154,74V926L26,945v55H504c0,0,221,0,330,-68c0,0,109,-68,109,-212c0,0,0,-215,-201,-276L1009,74L1117,54V0Z" 
id="f2_1i"
transform="scale(0.001,-0.001)" />

<path d="M122,0V64L295,82V837L123,780v64l282,165H511V82L685,64V0Z" 
id="f2_l"
transform="scale(0.001,-0.001)" />

<path d="M342,-14L49,634L0,652v49H359V652L275,632L455,233L617,634l-82,18v49H764V652L713,637L433,-14Z" 
id="f2_2i"
transform="scale(0.001,-0.001)" />

<path d="M404,60c0,0,54,0,75,59c0,0,21,59,21,177c0,0,0,106,-29,162c0,0,-29,57,-87,57c0,0,-55,0,-112,-17v-4c0,0,0,-434,132,-434Zm3,-74c0,0,-172,0,-263,130c0,0,-92,130,-92,378c0,0,0,161,48,278c0,0,48,117,135,178c0,0,87,61,199,61c0,0,117,0,225,-32V751H594L562,896c0,0,-52,39,-113,39c0,0,-75,0,-121,-95c0,0,-47,-96,-55,-267c0,0,81,35,161,35c0,0,137,0,211,-77c0,0,74,-77,74,-220c0,0,0,-158,-81,-242c0,0,-81,-83,-231,-83Z" 
id="f2_q"
transform="scale(0.001,-0.001)" />

<path d="M460,-325c0,0,-148,79,-231,172c0,0,-84,93,-123,217c0,0,-39,126,-39,304c0,0,0,178,39,303c0,0,39,125,122,217c0,0,82,93,232,172V997c0,0,-91,-52,-145,-134c0,0,-54,-81,-79,-190c0,0,-25,-109,-25,-305c0,0,0,-194,26,-309c0,0,26,-114,82,-193c0,0,56,-79,141,-128v-63Z" 
id="f3_c"
transform="scale(0.001,-0.001)" />

<path d="M284,67c0,0,51,0,88,12c0,0,37,12,74,30V358l-98,-3c0,0,-100,-4,-135,-39c0,0,-35,-35,-35,-117c0,0,0,-132,106,-132ZM233,-14c0,0,-179,0,-179,208c0,0,0,70,27,116c0,0,27,46,87,70c0,0,60,24,173,27l105,3V519c0,0,0,72,-26,107c0,0,-27,34,-82,34c0,0,-75,0,-137,-35L176,538H134V691c0,0,121,26,213,26c0,0,115,0,169,-47c0,0,54,-47,54,-144V52L657,33V0H465L451,70c0,0,-85,-84,-218,-84Z" 
id="f3_1x"
transform="scale(0.001,-0.001)" />

<path d="M49,-325v63c0,0,85,49,140,128c0,0,56,79,83,194c0,0,26,115,26,308c0,0,0,196,-25,305c0,0,-25,109,-79,190c0,0,-54,82,-145,134v63c0,0,149,-80,232,-172c0,0,83,-92,122,-217c0,0,39,-125,39,-303c0,0,0,-177,-39,-303c0,0,-39,-125,-122,-217c0,0,-83,-93,-232,-173Z" 
id="f3_d"
transform="scale(0.001,-0.001)" />

<path d="M350,-14c0,0,-142,0,-269,31L73,228h49L156,87c0,0,29,-16,82,-28c0,0,54,-12,100,-12c0,0,117,0,173,54c0,0,56,53,56,178c0,0,0,99,-52,150c0,0,-51,51,-159,56l-107,6v61l107,7c0,0,84,5,124,52c0,0,41,48,41,145c0,0,0,101,-44,147c0,0,-44,45,-139,45c0,0,-40,0,-83,-10c0,0,-43,-11,-76,-29L153,786H104V979c0,0,74,19,127,26c0,0,54,6,107,6c0,0,321,0,321,-246c0,0,0,-104,-57,-165c0,0,-57,-62,-162,-77c0,0,136,-16,200,-78c0,0,64,-62,64,-173c0,0,0,-135,-92,-211c0,0,-93,-75,-262,-75Z" 
id="f3_n"
transform="scale(0.001,-0.001)" />

<path d="M681,416L504,902L333,416ZM669,0V40L803,60L704,348H310L210,60L344,40V0H15V40L128,60l341,949H611L965,60L1092,40V0Z" 
id="f3_11"
transform="scale(0.001,-0.001)" />

<path d="M577,-14c0,0,-243,0,-379,132C198,118,63,250,63,488c0,0,0,258,130,391c0,0,131,132,387,132c0,0,156,0,335,-38l5,-218H871L848,884c0,0,-52,32,-121,50c0,0,-69,17,-141,17c0,0,-191,0,-279,-112c0,0,-88,-113,-88,-349c0,0,0,-217,92,-332c0,0,92,-115,268,-115c0,0,85,0,160,20c0,0,76,21,120,55l27,149h49L930,32c0,0,-164,-46,-353,-46Z" 
id="f3_13"
transform="scale(0.001,-0.001)" />

<path d="M44,0V40L172,60V941L44,960v40H445V960L316,941V549H787V941L659,960v40h400V960L930,941V60L1059,40V0H659V40L787,60V481H316V60L445,40V0Z" 
id="f3_18"
transform="scale(0.001,-0.001)" />

<path d="M551,45c0,0,171,0,252,108c0,0,82,108,82,349c0,0,0,239,-81,344c0,0,-81,105,-253,105c0,0,-172,0,-252,-105c0,0,-80,-105,-80,-344c0,0,0,-241,80,-349c0,0,81,-108,252,-108Zm0,-59c0,0,-238,0,-363,129C188,115,63,245,63,501c0,0,0,510,488,510c0,0,242,0,366,-129c0,0,124,-130,124,-381c0,0,0,-255,-126,-385C915,116,790,-14,551,-14Z" 
id="f3_1f"
transform="scale(0.001,-0.001)" />

<path d="M945,-20c0,0,47,75,125,153H57v74H1147l108,91c0,0,23,19,95,72c0,0,-134,103,-203,166H57v72H1070c0,0,-78,78,-125,154h85c0,0,88,-107,217,-217c0,0,130,-110,206,-154V349c0,0,-101,-58,-219,-162c0,0,-118,-103,-204,-207Z" 
id="f4_4g"
transform="scale(0.001,-0.001)" />

<path d="M0,356v74H784V356Z" 
id="f4_h"
transform="scale(0.001,-0.001)" />

<path d="M376,50c0,0,103,0,149,80c0,0,46,81,46,240c0,0,0,137,-47,204c0,0,-48,67,-148,67c0,0,-44,0,-87,-7c0,0,-44,-8,-63,-17V62c0,0,63,-12,150,-12Zm3,-64c0,0,-64,0,-141,14c0,0,-78,14,-136,37v971L0,1026v34H226V809c0,0,0,-40,-4,-148c0,0,74,59,188,59c0,0,143,0,219,-87c0,0,77,-87,77,-263c0,0,0,-189,-84,-287c0,0,-84,-97,-243,-97Z" 
id="f3_1y"
transform="scale(0.001,-0.001)" />

<path d="M32,0V33L151,52V649L52,668v33H275V52L395,33V0ZM201,850c0,0,-32,0,-56,24c0,0,-24,24,-24,56c0,0,0,34,24,58c0,0,24,24,56,24c0,0,34,0,58,-24c0,0,24,-24,24,-58c0,0,0,-32,-24,-56c0,0,-24,-24,-58,-24Z" 
id="f3_25"
transform="scale(0.001,-0.001)" />

<path d="M55,0V40L184,60V941L55,960v40H455V960L327,941V60L455,40V0Z" 
id="f3_19"
transform="scale(0.001,-0.001)" />

<path d="M377,45c0,0,99,0,147,73c0,0,47,73,47,237c0,0,0,161,-47,233c0,0,-47,72,-147,72c0,0,-97,0,-141,-69c0,0,-44,-69,-44,-236c0,0,0,-169,45,-240c0,0,44,-70,140,-70Zm0,-59c0,0,-158,0,-238,94c0,0,-81,95,-81,274c0,0,0,178,81,272c0,0,80,94,244,94c0,0,160,0,241,-92c0,0,82,-92,82,-274c0,0,0,-368,-329,-368Z" 
id="f3_2b"
transform="scale(0.001,-0.001)" />

<path d="M383,64c0,0,85,0,152,28V645c0,0,-67,13,-152,13c0,0,-194,0,-194,-314c0,0,0,-141,48,-211c0,0,48,-69,146,-69ZM342,-14c0,0,-287,0,-287,358c0,0,0,184,82,280c0,0,81,96,239,96c0,0,81,0,163,-18c0,0,-4,25,-4,124v182l-118,18v34H659V52L745,33V0H548l-9,52c0,0,-84,-66,-197,-66Z" 
id="f3_20"
transform="scale(0.001,-0.001)" />

<path d="M64,0V34L168,59V639H47v36l121,29v49c0,0,0,155,61,239c0,0,62,84,173,84c0,0,58,0,107,-15V908H472l-33,92c0,0,-26,16,-62,16c0,0,-47,0,-66,-42c0,0,-19,-42,-19,-157V701H478V639H292V59L443,34V0Z" 
id="f3_22"
transform="scale(0.001,-0.001)" />

<path d="M31,0V33l88,19V649L31,668v33H235l7,-87c0,0,44,37,121,71c0,0,76,35,121,35h11V530H463l-43,82c0,0,-37,0,-88,-10c0,0,-52,-10,-89,-26V52L363,33V0Z" 
id="f3_2e"
transform="scale(0.001,-0.001)" />

<path d="M431,0V33L535,52V499c0,0,0,62,-32,96c0,0,-32,33,-95,33c0,0,-66,0,-163,-22V52L350,33V0H32V33l89,19V649L32,668v33H237l6,-57c0,0,56,32,119,54c0,0,62,22,110,22c0,0,52,0,95,-20c0,0,44,-19,66,-62c0,0,57,32,134,57c0,0,77,25,128,25c0,0,179,0,179,-207V52l90,-19V0H846V33L950,52V499c0,0,0,129,-119,129c0,0,-19,0,-45,-3c0,0,-26,-3,-52,-7c0,0,-25,-4,-49,-8c0,0,-23,-5,-39,-8c0,0,13,-41,13,-89V52L764,33V0Z" 
id="f3_29"
transform="scale(0.001,-0.001)" />

<path d="M249,-14c0,0,-71,0,-107,42c0,0,-35,42,-35,119V639H15v33l93,29l76,159h47V701H391V639H231V161c0,0,0,-48,22,-73c0,0,22,-24,57,-24c0,0,44,0,106,12V26C416,26,389,8,340,-2c0,0,-49,-12,-91,-12Z" 
id="f3_2g"
transform="scale(0.001,-0.001)" />

<path d="M495,413c0,0,0,133,-34,190c0,0,-34,57,-105,57c0,0,-78,0,-119,-63c0,0,-42,-62,-42,-184ZM374,-14c0,0,-163,0,-239,87c0,0,-75,88,-75,283c0,0,0,183,77,273c0,0,76,91,219,91c0,0,269,0,269,-306V353H194V340c0,0,0,-103,23,-160c0,0,22,-57,70,-87c0,0,47,-29,124,-29c0,0,40,0,96,6c0,0,55,7,91,15V43C598,43,562,20,500,3c0,0,-61,-17,-126,-17Z" 
id="f3_21"
transform="scale(0.001,-0.001)" />

<path d="M278,-14c0,0,-52,0,-115,11c0,0,-63,10,-99,23V193H98L134,95c0,0,56,-50,146,-50c0,0,144,0,144,123c0,0,0,91,-114,130l-66,21c0,0,-75,25,-110,50c0,0,-34,26,-53,63c0,0,-18,36,-18,89c0,0,0,92,63,145c0,0,63,54,170,54c0,0,77,0,193,-23V544H454l-32,81c0,0,-39,35,-124,35c0,0,-61,0,-92,-30c0,0,-32,-30,-32,-80c0,0,0,-43,29,-72c0,0,28,-29,86,-48c0,0,110,-38,144,-55c0,0,33,-17,57,-42c0,0,23,-25,36,-57c0,0,13,-32,13,-79c0,0,0,-104,-66,-158c0,0,-66,-53,-195,-53Z" 
id="f3_2f"
transform="scale(0.001,-0.001)" />

<path d="M235,0V40L394,60V936H356c0,0,-189,0,-258,-15L78,766H28v234H908V766H857L837,921c0,0,-22,5,-98,9c0,0,-75,4,-165,4H538V60L697,40V0Z" 
id="f3_1k"
transform="scale(0.001,-0.001)" />

<path d="M31,0V33L150,52v956L31,1026v34H274V52L394,33V0Z" 
id="f3_28"
transform="scale(0.001,-0.001)" />

<path d="M439,0V33l93,19V500c0,0,0,62,-30,97c0,0,-31,36,-94,36c0,0,-67,0,-165,-22V52L338,33V0H35V33l84,19V649L35,668v33H235l7,-57c0,0,57,33,122,54c0,0,65,22,108,22c0,0,91,0,137,-53c0,0,47,-53,47,-154V52L741,33V0Z" 
id="f3_2a"
transform="scale(0.001,-0.001)" />

<path d="M110,641L64,1000H211L165,641Z" 
id="f3_b"
transform="scale(0.001,-0.001)" />

<path d="M359,-270c0,0,124,0,192,46c0,0,67,47,67,129c0,0,0,43,-26,67c0,0,-26,24,-79,24H242c0,0,-32,-27,-51,-69c0,0,-20,-41,-20,-77c0,0,0,-64,46,-92c0,0,46,-28,142,-28Zm11,561c0,0,81,0,115,47c0,0,34,47,34,141c0,0,0,100,-35,142c0,0,-35,42,-113,42c0,0,-78,0,-114,-43c0,0,-37,-42,-37,-141c0,0,0,-98,36,-143c0,0,36,-45,114,-45ZM359,-329c0,0,-143,0,-218,44c0,0,-75,43,-75,125c0,0,0,39,27,78c0,0,26,38,98,89c0,0,-43,14,-72,48c0,0,-29,35,-29,74L208,262c0,0,-118,55,-118,217c0,0,0,115,73,178c0,0,73,63,211,63c0,0,28,0,71,-6c0,0,44,-6,67,-13l165,83l26,-32L599,644c0,0,50,-56,50,-165c0,0,0,-120,-72,-182c0,0,-73,-62,-208,-62c0,0,-62,0,-114,11L208,148c0,0,2,-13,29,-24c0,0,27,-12,67,-12H512c0,0,113,0,168,-49c0,0,55,-49,55,-134c0,0,0,-79,-44,-137c0,0,-43,-58,-128,-90c0,0,-84,-31,-204,-31Z" 
id="f3_23"
transform="scale(0.001,-0.001)" />

<path d="M448,506c0,0,134,0,190,49c0,0,57,50,57,168c0,0,0,114,-56,162c0,0,-56,48,-195,48H316V506ZM777,0L496,438H316V60L468,40V0H54V40L172,60V941L44,960v40H476c0,0,188,0,277,-63c0,0,90,-64,90,-204c0,0,0,-100,-54,-173c0,0,-55,-73,-151,-101L909,60L1017,40V0Z" 
id="f3_1i"
transform="scale(0.001,-0.001)" />

<path d="M410,45c0,0,90,0,130,58c0,0,40,59,40,193c0,0,0,122,-38,177c0,0,-38,54,-122,54c0,0,-102,0,-217,-37c0,0,0,-227,51,-336c0,0,52,-109,156,-109Zm3,-59c0,0,-169,0,-258,131c0,0,-89,131,-89,377c0,0,0,161,47,278c0,0,47,117,131,178c0,0,85,61,196,61c0,0,109,0,217,-26V813H608L582,915c0,0,-25,13,-67,23c0,0,-41,10,-75,10c0,0,-109,0,-170,-105c0,0,-60,-106,-66,-308c0,0,121,63,244,63c0,0,132,0,201,-74c0,0,69,-74,69,-214c0,0,0,-156,-78,-240c0,0,-79,-84,-227,-84Z" 
id="f3_q"
transform="scale(0.001,-0.001)" />

<path d="M350,-14c0,0,-142,0,-253,31L89,228h49L172,87c0,0,32,-18,78,-29c0,0,46,-11,88,-11c0,0,118,0,173,56c0,0,56,55,56,187c0,0,0,93,-24,140c0,0,-24,47,-76,70c0,0,-52,22,-140,22c0,0,-68,0,-133,-18H122v496H630V886H189V567c0,0,81,18,173,18c0,0,173,0,258,-71c0,0,84,-71,84,-216c0,0,0,-151,-92,-232c0,0,-91,-80,-262,-80Z" 
id="f3_p"
transform="scale(0.001,-0.001)" />

<path d="M868,0L251,900V60L385,40V0H44V40L172,60V941L44,960v40H347L862,259V941L727,960v40h341V960L940,941V0Z" 
id="f3_1e"
transform="scale(0.001,-0.001)" />

<path d="M289,-14c0,0,-179,0,-179,205V649L20,668v33H233V200c0,0,0,-128,120,-128c0,0,92,0,173,23V649L420,668v33H649V52L738,33V0H533l-6,57C527,57,474,28,405,7c0,0,-69,-21,-116,-21Z" 
id="f3_2h"
transform="scale(0.001,-0.001)" />

<path d="M399,-14c0,0,-341,0,-341,370c0,0,0,175,87,269c0,0,87,95,249,95c0,0,101,0,220,-23V501H573L541,625c0,0,-62,35,-149,35c0,0,-200,0,-200,-304c0,0,0,-158,61,-225c0,0,61,-67,189,-67c0,0,109,0,189,24V43C631,43,595,16,530,1c0,0,-64,-15,-131,-15Z" 
id="f3_1z"
transform="scale(0.001,-0.001)" />

<path d="M382,45c0,0,188,0,188,314c0,0,0,143,-47,213c0,0,-46,69,-141,69c0,0,-87,0,-146,-24V58c0,0,67,-13,146,-13ZM25,-325v35l88,18V649L34,668v33H231l1,-41c0,0,31,27,84,43c0,0,53,17,107,17c0,0,134,0,208,-94c0,0,73,-93,73,-267c0,0,0,-178,-80,-276c0,0,-80,-97,-232,-97c0,0,-84,0,-160,16c0,0,4,-53,4,-84V-272l123,-18v-35Z" 
id="f3_2c"
transform="scale(0.001,-0.001)" />

<path d="M442,0V33l93,19V504c0,0,0,129,-124,129c0,0,-70,0,-168,-22V52L338,33V0H31V33l88,19v956L15,1026v34H243V756c0,0,0,-77,-5,-112c0,0,54,31,122,53c0,0,68,23,115,23c0,0,91,0,137,-53c0,0,47,-53,47,-154V52L744,33V0Z" 
id="f3_24"
transform="scale(0.001,-0.001)" />

<path d="M13,0V34L95,46L325,350L122,649L40,668v33H357V668L264,648L399,446L554,649l-96,19v33H710V668L630,652L433,397L663,50L745,34V0H427V34l94,17L359,299L169,50L266,34V0Z" 
id="f3_2k"
transform="scale(0.001,-0.001)" />

<path d="M712,0L354,900L205,60L336,40L329,0H-10l7,40L127,60L283,941L157,960l8,40H454L752,250L873,941L742,960l7,40h341l-8,-40L951,941L785,0Z" 
id="f5_1e"
transform="scale(0.001,-0.001)" />

<path d="M631,416L539,902L283,416ZM576,0l8,40L691,60L643,348H249L96,60L197,40L189,0H-83l8,40L7,60l509,949H659L845,60L938,40L930,0Z" 
id="f5_11"
transform="scale(0.001,-0.001)" />

<path d="M460,506c0,0,135,0,209,64c0,0,73,65,73,183c0,0,0,180,-213,180H419L343,506ZM671,0L487,438H331L264,60L398,40L390,0H-7L0,40L120,60L276,941L151,960l7,40H555c0,0,163,0,249,-62c0,0,86,-62,86,-180c0,0,0,-236,-261,-299L798,60L908,40L900,0Z" 
id="f5_1i"
transform="scale(0.001,-0.001)" />

<path d="M-15,0l6,40L121,60L275,941L151,960l6,40H558l-6,-40L419,941L350,549H821l68,392L765,960l6,40h401l-6,-40L1033,941L879,60L1003,40L996,0H596l6,40L735,60l74,421H338L264,60L388,40L382,0Z" 
id="f5_18"
transform="scale(0.001,-0.001)" />

<path d="M521,-14c0,0,-205,0,-320,107C201,93,85,200,85,390c0,0,0,185,77,326c0,0,77,142,220,219c0,0,142,76,324,76c0,0,158,0,327,-38L1000,755H951V884c0,0,-46,32,-112,50c0,0,-65,17,-137,17c0,0,-135,0,-242,-72c0,0,-107,-72,-166,-203c0,0,-60,-132,-60,-301c0,0,0,-160,78,-244c0,0,78,-84,222,-84c0,0,85,0,166,25c0,0,82,26,133,65l53,149h49L889,52C889,52,803,20,705,3c0,0,-99,-17,-184,-17Z" 
id="f5_13"
transform="scale(0.001,-0.001)" />

<path d="M500,49c0,0,111,0,205,75c0,0,95,75,154,216c0,0,59,140,59,280c0,0,0,150,-76,240c0,0,-77,91,-202,91c0,0,-111,0,-204,-75c0,0,-93,-76,-151,-217c0,0,-59,-141,-59,-284c0,0,0,-147,75,-237c0,0,75,-89,199,-89Zm-5,-63c0,0,-121,0,-216,50c0,0,-96,50,-149,142c0,0,-53,91,-53,205c0,0,0,180,74,326c0,0,75,145,204,224c0,0,129,78,295,78c0,0,120,0,216,-50c0,0,96,-51,149,-142c0,0,53,-91,53,-206c0,0,0,-177,-75,-325C993,288,918,140,789,63c0,0,-129,-77,-294,-77Z" 
id="f5_1f"
transform="scale(0.001,-0.001)" />

<path d="M62,-123V268c0,0,0,230,56,452c0,0,47,190,134,334c0,0,87,144,204,242c0,0,85,73,194,119l18,-16c0,0,-211,-145,-335,-339c0,0,-98,-156,-149,-374c0,0,-50,-218,-50,-403V-123Z" 
id="f4_4o"
transform="scale(0.001,-0.001)" />

<path d="M617,-123V283c0,0,0,236,-63,459c0,0,-63,223,-188,392c0,0,-108,146,-282,265l17,16c0,0,180,-76,320,-248c0,0,139,-172,204,-417c0,0,64,-245,64,-482V-123Z" 
id="f4_54"
transform="scale(0.001,-0.001)" />

<path d="M62,-123V1415h72V-123Z" 
id="f4_4p"
transform="scale(0.001,-0.001)" />

<path d="M617,-123V1415h72V-123Z" 
id="f4_55"
transform="scale(0.001,-0.001)" />

<path d="M650,-123c0,0,-180,75,-319,246c0,0,-140,172,-205,418c0,0,-64,245,-64,481v393h72V1007c0,0,0,-236,63,-459c0,0,63,-223,189,-391c0,0,108,-145,282,-265l-18,-15Z" 
id="f4_4q"
transform="scale(0.001,-0.001)" />

<path d="M101,-123l-17,15c0,0,210,144,334,339c0,0,99,156,149,373c0,0,50,218,50,403v408h72V1022c0,0,0,-230,-56,-451c0,0,-48,-191,-134,-335C499,236,412,92,295,-5c0,0,-84,-73,-194,-118Z" 
id="f4_56"
transform="scale(0.001,-0.001)" />

<path d="M45,0V81L673,391L45,704v80L795,412V374L45,0Z" 
id="f4_y"
transform="scale(0.001,-0.001)" />

<path d="M529,65c0,0,183,0,270,108c0,0,87,108,87,334c0,0,0,210,-113,318c0,0,-113,108,-322,108H316V71c0,0,90,-6,213,-6Zm0,-67L172,0H44V40L172,60V941L44,960v40H498c0,0,277,0,411,-123c0,0,133,-124,133,-371c0,0,0,-251,-129,-380C913,126,785,-2,529,-2Z" 
id="f3_14"
transform="scale(0.001,-0.001)" />

<path d="M-12,338v55H777V338Z" 
id="f6_4y"
transform="scale(0.001,-0.001)" />

<path d="M327,-14L84,649L1,668v33H335V668L219,648L385,174L554,632h63L786,171L944,649L830,668v33h267V668l-78,-16L784,-14H726L553,448L382,-14Z" 
id="f3_2j"
transform="scale(0.001,-0.001)" />

<path d="M843,0L451,506L316,398V60L460,40V0H44V40L172,60V941L44,960v40H445V960L316,941V470L795,941l-99,19v40h313V960L894,941L552,607L979,60L1088,40V0Z" 
id="f3_1b"
transform="scale(0.001,-0.001)" />

<path d="M536,-22L130,941L17,960v40H421V960L287,941L590,205L892,941L761,960v40h325V960L976,941L574,-22Z" 
id="f3_1m"
transform="scale(0.001,-0.001)" />

<path d="M67,0V109L206,235c0,0,133,118,196,190c0,0,63,72,90,149c0,0,27,77,27,177c0,0,0,97,-44,148c0,0,-44,50,-144,50c0,0,-39,0,-81,-10c0,0,-42,-11,-74,-29L150,787H101V980c0,0,135,32,230,32c0,0,164,0,247,-68c0,0,82,-69,82,-193c0,0,0,-84,-32,-158c0,0,-33,-75,-100,-148c0,0,-67,-74,-222,-206c0,0,-67,-57,-141,-125H680V0Z" 
id="f3_m"
transform="scale(0.001,-0.001)" />

<path d="M191,-20c0,0,-39,0,-65,25c0,0,-25,27,-25,64c0,0,0,38,26,64c0,0,26,26,64,26c0,0,38,0,64,-26c0,0,26,-26,26,-64c0,0,0,-37,-25,-64c0,0,-26,-25,-65,-25Z" 
id="f3_i"
transform="scale(0.001,-0.001)" />

<path d="M76,316v76H787V316Zm0,306v76H787V622Z" 
id="f3_x"
transform="scale(0.001,-0.001)" />


</defs>
</svg>