<?xml version="1.0" encoding="UTF-8" standalone="no"?>
<!DOCTYPE svg PUBLIC "-//W3C//DTD SVG 1.1//EN"
"http://www.w3.org/Graphics/SVG/1.1/DTD/svg11.dtd">
<svg viewBox="0 0 909 1286" version="1.1" xmlns="http://www.w3.org/2000/svg" xmlns:xlink="http://www.w3.org/1999/xlink">
<defs>
<clipPath id="c0_108"><path d="M55.2,868.8V839h297v29.8Z" /></clipPath>
<style type="text/css"><![CDATA[
.g0_108{
fill: #D9D9D9;
}
.g1_108{
fill: none;
stroke: #000000;
stroke-width: 0.7638889;
stroke-linecap: butt;
stroke-linejoin: miter;
}
.g2_108{
}
]]></style>
</defs>
<image preserveAspectRatio="none" x="747" y="1196" width="96" height="59" xlink:href="img/1.png" />
<image preserveAspectRatio="none" x="336" y="41" width="259" height="51" xlink:href="img/2.png" />
<image preserveAspectRatio="none" x="342" y="50" width="247" height="27" xlink:href="img/3.png" />
<image preserveAspectRatio="none" x="341" y="45" width="239" height="42" xlink:href="img/4.png" />
<g fill="#FFFFFF" >
<use xlink:href="#f0_j" transform="matrix(11.5,0,0,11.5,355.1,70.1)" />
<use xlink:href="#f0_i" transform="matrix(11.5,0,0,11.5,364.3,70.1)" />
<use xlink:href="#f0_2n" transform="matrix(11.5,0,0,11.5,374.1,70.1)" />
<use xlink:href="#f0_t" transform="matrix(11.5,0,0,11.5,382.6,70.1)" />
<use xlink:href="#f0_oj" transform="matrix(11.5,0,0,11.5,391,70.1)" />
<use xlink:href="#f0_3e" transform="matrix(11.5,0,0,11.5,396.5,70.1)" />
<use xlink:href="#f0_1c" transform="matrix(11.5,0,0,11.5,406.1,70.1)" />
<use xlink:href="#f0_1c" transform="matrix(11.5,0,0,11.5,410.8,70.1)" />
<use xlink:href="#f0_oj" transform="matrix(11.5,0,0,11.5,415.6,70.1)" />
<use xlink:href="#f0_rz" transform="matrix(11.5,0,0,11.5,421.1,70.1)" />
<use xlink:href="#f0_rx" transform="matrix(11.5,0,0,11.5,429.9,70.1)" />
<use xlink:href="#f0_ry" transform="matrix(11.5,0,0,11.5,438.7,70.1)" />
<use xlink:href="#f0_s1" transform="matrix(11.5,0,0,11.5,447.5,70.1)" />
<use xlink:href="#f0_t" transform="matrix(11.5,0,0,11.5,460.4,70.1)" />
<use xlink:href="#f0_3e" transform="matrix(11.5,0,0,11.5,468.8,70.1)" />
<use xlink:href="#f0_5" transform="matrix(11.5,0,0,11.5,478.3,70.1)" />
<use xlink:href="#f0_1x" transform="matrix(11.5,0,0,11.5,489,70.1)" />
<use xlink:href="#f0_1c" transform="matrix(11.5,0,0,11.5,504.4,70.1)" />
<use xlink:href="#f0_1y" transform="matrix(11.5,0,0,11.5,509.1,70.1)" />
<use xlink:href="#f0_5" transform="matrix(11.5,0,0,11.5,520.8,70.1)" />
<use xlink:href="#f0_2t" transform="matrix(11.5,0,0,11.5,531.5,70.1)" />
<use xlink:href="#f0_1c" transform="matrix(11.5,0,0,11.5,540.2,70.1)" />
<use xlink:href="#f0_24" transform="matrix(11.5,0,0,11.5,545,70.1)" />
<use xlink:href="#f0_1y" transform="matrix(11.5,0,0,11.5,556.7,70.1)" />
</g>
<image preserveAspectRatio="none" x="554" y="45" width="36" height="42" xlink:href="img/5.png" />
<g fill="#FFFFFF" >
<use xlink:href="#f1_o" transform="matrix(11,0,0,11,770.3,1227.6)" />
<use xlink:href="#f1_j" transform="matrix(11,0,0,11,783.5,1227.6)" />
<use xlink:href="#f1_l" transform="matrix(11,0,0,11,794.1,1227.6)" />
<use xlink:href="#f1_l" transform="matrix(11,0,0,11,802.9,1227.6)" />
</g>
<path fill-rule="evenodd" d="M52.8,1193.5H856.9v-.8H52.8v.8Z" class="g0_108" />
<path d="M37.9,99.4L873,98.5" class="g1_108" />
<g fill="#000000" >
<use xlink:href="#f2_c" transform="matrix(12,0,0,12,55,144.1)" />
<use xlink:href="#f2_25" transform="matrix(12,0,0,12,61.6,144.1)" />
<use xlink:href="#f2_25" transform="matrix(12,0,0,12,66.4,144.1)" />
<use xlink:href="#f2_d" transform="matrix(12,0,0,12,70.8,144.1)" />
<use xlink:href="#f2_1o" transform="matrix(12,0,0,12,81.7,144.1)" />
<use xlink:href="#f2_21" transform="matrix(12,0,0,12,95,144.1)" />
<use xlink:href="#f2_16" transform="matrix(12,0,0,12,103.4,144.1)" />
<use xlink:href="#f2_o" transform="matrix(7.9,0,0,7.9,113.3,145.6)" />
<use xlink:href="#f2_f" transform="matrix(12,0,0,12,124.3,144.1)" />
<use xlink:href="#f2_1f" transform="matrix(12,0,0,12,139.4,144.1)" />
<use xlink:href="#f2_m" transform="matrix(7.9,0,0,7.9,152.6,145.6)" />
<use xlink:href="#f2_16" transform="matrix(12,0,0,12,158.8,144.1)" />
<use xlink:href="#f2_m" transform="matrix(7.9,0,0,7.9,168.7,145.6)" />
<use xlink:href="#f3_8r" transform="matrix(12,0,0,12,179.7,144.1)" />
<use xlink:href="#f3_1o" transform="matrix(12,0,0,12,202.8,144.1)" />
<use xlink:href="#f3_21" transform="matrix(12,0,0,12,216.1,144.1)" />
<use xlink:href="#f3_16" transform="matrix(12,0,0,12,224.1,144.1)" />
<use xlink:href="#f2_q" transform="matrix(7.9,0,0,7.9,234,145.6)" />
<use xlink:href="#f2_f" transform="matrix(12,0,0,12,245,144.1)" />
<use xlink:href="#f2_1f" transform="matrix(12,0,0,12,260.1,144.1)" />
<use xlink:href="#f2_m" transform="matrix(7.9,0,0,7.9,272.9,145.6)" />
<use xlink:href="#f2_i" transform="matrix(12,0,0,12,279.1,144.1)" />
<use xlink:href="#f4_l" transform="matrix(12,0,0,12,55,210.2)" />
<use xlink:href="#f4_p" transform="matrix(12,0,0,12,64.2,210.2)" />
<use xlink:href="#f4_i" transform="matrix(12,0,0,12,73.4,210.2)" />
<use xlink:href="#f2_14" transform="matrix(12,0,0,12,82.9,210.2)" />
<use xlink:href="#f2_2e" transform="matrix(12,0,0,12,96.1,210.2)" />
<use xlink:href="#f2_1x" transform="matrix(12,0,0,12,102.3,210.2)" />
<use xlink:href="#f2_2j" transform="matrix(12,0,0,12,110.4,210.2)" />
<use xlink:href="#f2_2g" transform="matrix(12,0,0,12,128,210.2)" />
<use xlink:href="#f2_24" transform="matrix(12,0,0,12,133.5,210.2)" />
<use xlink:href="#f2_21" transform="matrix(12,0,0,12,142.3,210.2)" />
<use xlink:href="#f2_2f" transform="matrix(12,0,0,12,155.1,210.2)" />
<use xlink:href="#f2_2g" transform="matrix(12,0,0,12,161.7,210.2)" />
<use xlink:href="#f2_2e" transform="matrix(12,0,0,12,167.2,210.2)" />
<use xlink:href="#f2_2h" transform="matrix(12,0,0,12,173.4,210.2)" />
<use xlink:href="#f2_1z" transform="matrix(12,0,0,12,182.5,210.2)" />
<use xlink:href="#f2_2g" transform="matrix(12,0,0,12,190.2,210.2)" />
<use xlink:href="#f2_2h" transform="matrix(12,0,0,12,195.7,210.2)" />
<use xlink:href="#f2_2e" transform="matrix(12,0,0,12,204.9,210.2)" />
<use xlink:href="#f2_21" transform="matrix(12,0,0,12,211.1,210.2)" />
<use xlink:href="#f2_2f" transform="matrix(12,0,0,12,219.2,210.2)" />
<use xlink:href="#f2_2b" transform="matrix(12,0,0,12,230.5,210.2)" />
<use xlink:href="#f2_22" transform="matrix(12,0,0,12,240.1,210.2)" />
<use xlink:href="#f2_2g" transform="matrix(12,0,0,12,250.3,210.2)" />
<use xlink:href="#f2_24" transform="matrix(12,0,0,12,255.8,210.2)" />
<use xlink:href="#f2_21" transform="matrix(12,0,0,12,264.6,210.2)" />
<use xlink:href="#f2_22" transform="matrix(12,0,0,12,277.7,210.2)" />
<use xlink:href="#f2_2b" transform="matrix(12,0,0,12,283.2,210.2)" />
<use xlink:href="#f2_28" transform="matrix(12,0,0,12,293.1,210.2)" />
<use xlink:href="#f2_28" transform="matrix(12,0,0,12,297.8,210.2)" />
<use xlink:href="#f2_2b" transform="matrix(12,0,0,12,302.2,210.2)" />
<use xlink:href="#f2_2j" transform="matrix(12,0,0,12,311.7,210.2)" />
<use xlink:href="#f2_25" transform="matrix(12,0,0,12,325.3,210.2)" />
<use xlink:href="#f2_2a" transform="matrix(12,0,0,12,330.1,210.2)" />
<use xlink:href="#f2_23" transform="matrix(12,0,0,12,339.2,210.2)" />
<use xlink:href="#f2_u" transform="matrix(12,0,0,12,353.1,210.2)" />
<use xlink:href="#f2_c" transform="matrix(12,0,0,12,55,231.4)" />
<use xlink:href="#f2_25" transform="matrix(12,0,0,12,61.6,231.4)" />
<use xlink:href="#f2_d" transform="matrix(12,0,0,12,66,231.4)" />
<use xlink:href="#f2_1o" transform="matrix(12,0,0,12,77,231.4)" />
<use xlink:href="#f2_21" transform="matrix(12,0,0,12,90.2,231.4)" />
<use xlink:href="#f2_16" transform="matrix(12,0,0,12,98.2,231.4)" />
<use xlink:href="#f2_m" transform="matrix(7.9,0,0,7.9,108.2,232.9)" />
<use xlink:href="#f2_c" transform="matrix(12,0,0,12,55,252.3)" />
<use xlink:href="#f2_25" transform="matrix(12,0,0,12,61.6,252.3)" />
<use xlink:href="#f2_25" transform="matrix(12,0,0,12,66.4,252.3)" />
<use xlink:href="#f2_d" transform="matrix(12,0,0,12,70.8,252.3)" />
<use xlink:href="#f2_12" transform="matrix(12,0,0,12,81.7,252.3)" />
<use xlink:href="#f2_2e" transform="matrix(12,0,0,12,93.8,252.3)" />
<use xlink:href="#f2_16" transform="matrix(12,0,0,12,100.1,252.3)" />
<use xlink:href="#f2_n" transform="matrix(7.9,0,0,7.9,110,253.8)" />
<use xlink:href="#f4_1j" transform="matrix(12,0,0,12,55,274)" />
<use xlink:href="#f4_2b" transform="matrix(12,0,0,12,65.3,274)" />
<use xlink:href="#f4_28" transform="matrix(12,0,0,12,74.5,274)" />
<use xlink:href="#f4_2h" transform="matrix(12,0,0,12,79.2,274)" />
<use xlink:href="#f4_2g" transform="matrix(12,0,0,12,89.5,274)" />
<use xlink:href="#f4_25" transform="matrix(12,0,0,12,95.7,274)" />
<use xlink:href="#f4_2b" transform="matrix(12,0,0,12,100.8,274)" />
<use xlink:href="#f4_2a" transform="matrix(12,0,0,12,109.9,274)" />
<use xlink:href="#f4_u" transform="matrix(12,0,0,12,120.2,274)" />
<use xlink:href="#f4_l" transform="matrix(12,0,0,12,55,519.7)" />
<use xlink:href="#f4_q" transform="matrix(12,0,0,12,64.2,519.7)" />
<use xlink:href="#f4_i" transform="matrix(12,0,0,12,73.4,519.7)" />
<use xlink:href="#f2_1n" transform="matrix(12,0,0,12,82.9,519.7)" />
<use xlink:href="#f2_2e" transform="matrix(12,0,0,12,99.8,519.7)" />
<use xlink:href="#f2_25" transform="matrix(12,0,0,12,106.4,519.7)" />
<use xlink:href="#f2_2g" transform="matrix(12,0,0,12,110.8,519.7)" />
<use xlink:href="#f2_21" transform="matrix(12,0,0,12,116.2,519.7)" />
<use xlink:href="#f2_2g" transform="matrix(12,0,0,12,128.7,519.7)" />
<use xlink:href="#f2_24" transform="matrix(12,0,0,12,134.2,519.7)" />
<use xlink:href="#f2_21" transform="matrix(12,0,0,12,143,519.7)" />
<use xlink:href="#f2_21" transform="matrix(12,0,0,12,155.8,519.7)" />
<use xlink:href="#f2_2d" transform="matrix(12,0,0,12,163.9,519.7)" />
<use xlink:href="#f2_2h" transform="matrix(12,0,0,12,173,519.7)" />
<use xlink:href="#f2_1x" transform="matrix(12,0,0,12,182.2,519.7)" />
<use xlink:href="#f2_2g" transform="matrix(12,0,0,12,190.3,519.7)" />
<use xlink:href="#f2_25" transform="matrix(12,0,0,12,195.7,519.7)" />
<use xlink:href="#f2_2b" transform="matrix(12,0,0,12,200.1,519.7)" />
<use xlink:href="#f2_2a" transform="matrix(12,0,0,12,209.7,519.7)" />
<use xlink:href="#f2_2f" transform="matrix(12,0,0,12,218.5,519.7)" />
<use xlink:href="#f2_25" transform="matrix(12,0,0,12,230.5,519.7)" />
<use xlink:href="#f2_2a" transform="matrix(12,0,0,12,235.3,519.7)" />
<use xlink:href="#f2_2i" transform="matrix(12,0,0,12,244.5,519.7)" />
<use xlink:href="#f2_2b" transform="matrix(12,0,0,12,253.3,519.7)" />
<use xlink:href="#f2_28" transform="matrix(12,0,0,12,263.2,519.7)" />
<use xlink:href="#f2_2i" transform="matrix(12,0,0,12,267.9,519.7)" />
<use xlink:href="#f2_21" transform="matrix(12,0,0,12,277.1,519.7)" />
<use xlink:href="#f2_20" transform="matrix(12,0,0,12,285.2,519.7)" />
<use xlink:href="#f2_25" transform="matrix(12,0,0,12,299.4,519.7)" />
<use xlink:href="#f2_2a" transform="matrix(12,0,0,12,304.2,519.7)" />
<use xlink:href="#f2_2g" transform="matrix(12,0,0,12,317.8,519.7)" />
<use xlink:href="#f2_24" transform="matrix(12,0,0,12,323.2,519.7)" />
<use xlink:href="#f2_21" transform="matrix(12,0,0,12,332,519.7)" />
<use xlink:href="#f2_22" transform="matrix(12,0,0,12,345.2,519.7)" />
<use xlink:href="#f2_2b" transform="matrix(12,0,0,12,350.7,519.7)" />
<use xlink:href="#f2_28" transform="matrix(12,0,0,12,360.6,519.7)" />
<use xlink:href="#f2_28" transform="matrix(12,0,0,12,365.4,519.7)" />
<use xlink:href="#f2_2b" transform="matrix(12,0,0,12,369.8,519.7)" />
<use xlink:href="#f2_2j" transform="matrix(12,0,0,12,379.3,519.7)" />
<use xlink:href="#f2_25" transform="matrix(12,0,0,12,392.8,519.7)" />
<use xlink:href="#f2_2a" transform="matrix(12,0,0,12,397.6,519.7)" />
<use xlink:href="#f2_23" transform="matrix(12,0,0,12,406.8,519.7)" />
<use xlink:href="#f2_2e" transform="matrix(12,0,0,12,420.7,519.7)" />
<use xlink:href="#f2_21" transform="matrix(12,0,0,12,426.9,519.7)" />
<use xlink:href="#f2_1x" transform="matrix(12,0,0,12,435,519.7)" />
<use xlink:href="#f2_1z" transform="matrix(12,0,0,12,443,519.7)" />
<use xlink:href="#f2_2g" transform="matrix(12,0,0,12,451.1,519.7)" />
<use xlink:href="#f2_25" transform="matrix(12,0,0,12,456.6,519.7)" />
<use xlink:href="#f2_2b" transform="matrix(12,0,0,12,461,519.7)" />
<use xlink:href="#f2_2a" transform="matrix(12,0,0,12,470.5,519.7)" />
<use xlink:href="#f2_2f" transform="matrix(12,0,0,12,479.7,519.7)" />
<use xlink:href="#f2_u" transform="matrix(12,0,0,12,491.4,519.7)" />
<use xlink:href="#f2_c" transform="matrix(12,0,0,12,55,540.6)" />
<use xlink:href="#f2_25" transform="matrix(12,0,0,12,61.6,540.6)" />
<use xlink:href="#f2_d" transform="matrix(12,0,0,12,66,540.6)" />
<use xlink:href="#f2_1i" transform="matrix(12,0,0,12,77,540.6)" />
<use xlink:href="#f2_21" transform="matrix(12,0,0,12,89.1,540.6)" />
<use xlink:href="#f2_25" transform="matrix(12,0,0,12,97.5,540.6)" />
<use xlink:href="#f2_29" transform="matrix(12,0,0,12,102.3,540.6)" />
<use xlink:href="#f2_21" transform="matrix(12,0,0,12,116.2,540.6)" />
<use xlink:href="#f2_2e" transform="matrix(12,0,0,12,124.3,540.6)" />
<use xlink:href="#f3_4y" transform="matrix(12,0,0,12,135.3,540.6)" />
<use xlink:href="#f2_1k" transform="matrix(12,0,0,12,149.3,540.6)" />
<use xlink:href="#f2_25" transform="matrix(12,0,0,12,160.7,540.6)" />
<use xlink:href="#f2_21" transform="matrix(12,0,0,12,165.1,540.6)" />
<use xlink:href="#f2_29" transform="matrix(12,0,0,12,173.5,540.6)" />
<use xlink:href="#f2_1x" transform="matrix(12,0,0,12,187.4,540.6)" />
<use xlink:href="#f2_2a" transform="matrix(12,0,0,12,195.8,540.6)" />
<use xlink:href="#f2_2a" transform="matrix(12,0,0,12,205,540.6)" />
<use xlink:href="#f2_2e" transform="matrix(12,0,0,12,218.5,540.6)" />
<use xlink:href="#f2_21" transform="matrix(12,0,0,12,224.7,540.6)" />
<use xlink:href="#f2_1x" transform="matrix(12,0,0,12,232.8,540.6)" />
<use xlink:href="#f2_1z" transform="matrix(12,0,0,12,240.9,540.6)" />
<use xlink:href="#f2_2g" transform="matrix(12,0,0,12,248.9,540.6)" />
<use xlink:href="#f2_25" transform="matrix(12,0,0,12,254.8,540.6)" />
<use xlink:href="#f2_2b" transform="matrix(12,0,0,12,259.2,540.6)" />
<use xlink:href="#f2_2a" transform="matrix(12,0,0,12,268.7,540.6)" />
<use xlink:href="#f2_c" transform="matrix(12,0,0,12,55,561.9)" />
<use xlink:href="#f2_25" transform="matrix(12,0,0,12,61.6,561.9)" />
<use xlink:href="#f2_25" transform="matrix(12,0,0,12,66.4,561.9)" />
<use xlink:href="#f2_d" transform="matrix(12,0,0,12,70.8,561.9)" />
<use xlink:href="#f2_1n" transform="matrix(12,0,0,12,82.1,561.9)" />
<use xlink:href="#f2_25" transform="matrix(12,0,0,12,99.3,561.9)" />
<use xlink:href="#f2_28" transform="matrix(12,0,0,12,104.4,561.9)" />
<use xlink:href="#f2_28" transform="matrix(12,0,0,12,109.2,561.9)" />
<use xlink:href="#f2_25" transform="matrix(12,0,0,12,114.3,561.9)" />
<use xlink:href="#f2_1x" transform="matrix(12,0,0,12,119.1,561.9)" />
<use xlink:href="#f2_29" transform="matrix(12,0,0,12,127.6,561.9)" />
<use xlink:href="#f2_2f" transform="matrix(12,0,0,12,141.5,561.9)" />
<use xlink:href="#f2_2b" transform="matrix(12,0,0,12,148.5,561.9)" />
<use xlink:href="#f2_2a" transform="matrix(12,0,0,12,158.3,561.9)" />
<use xlink:href="#f2_2f" transform="matrix(12,0,0,12,171.9,561.9)" />
<use xlink:href="#f2_2l" transform="matrix(12,0,0,12,179.2,561.9)" />
<use xlink:href="#f2_2a" transform="matrix(12,0,0,12,188,561.9)" />
<use xlink:href="#f2_2g" transform="matrix(12,0,0,12,196.8,561.9)" />
<use xlink:href="#f2_24" transform="matrix(12,0,0,12,202.7,561.9)" />
<use xlink:href="#f2_21" transform="matrix(12,0,0,12,211.5,561.9)" />
<use xlink:href="#f2_2f" transform="matrix(12,0,0,12,219.5,561.9)" />
<use xlink:href="#f2_25" transform="matrix(12,0,0,12,226.8,561.9)" />
<use xlink:href="#f2_2f" transform="matrix(12,0,0,12,231.6,561.9)" />
<use xlink:href="#f4_1j" transform="matrix(12,0,0,12,55,583.2)" />
<use xlink:href="#f4_2b" transform="matrix(12,0,0,12,65.3,583.2)" />
<use xlink:href="#f4_28" transform="matrix(12,0,0,12,74.5,583.2)" />
<use xlink:href="#f4_2h" transform="matrix(12,0,0,12,79.2,583.2)" />
<use xlink:href="#f4_2g" transform="matrix(12,0,0,12,89.5,583.2)" />
<use xlink:href="#f4_25" transform="matrix(12,0,0,12,95.7,583.2)" />
<use xlink:href="#f4_2b" transform="matrix(12,0,0,12,100.8,583.2)" />
<use xlink:href="#f4_2a" transform="matrix(12,0,0,12,109.9,583.2)" />
<use xlink:href="#f4_u" transform="matrix(12,0,0,12,120.2,583.2)" />
<use xlink:href="#f4_1i" transform="matrix(12,0,0,12,55,616.2)" />
<use xlink:href="#f4_21" transform="matrix(12,0,0,12,68.3,616.2)" />
<use xlink:href="#f4_25" transform="matrix(12,0,0,12,76.3,616.2)" />
<use xlink:href="#f4_29" transform="matrix(12,0,0,12,81.4,616.2)" />
<use xlink:href="#f4_21" transform="matrix(12,0,0,12,96.5,616.2)" />
<use xlink:href="#f4_2e" transform="matrix(12,0,0,12,104.9,616.2)" />
<use xlink:href="#f4_h" transform="matrix(12,0,0,12,112.6,616.2)" />
<use xlink:href="#f4_1k" transform="matrix(12,0,0,12,118.8,616.2)" />
<use xlink:href="#f4_25" transform="matrix(12,0,0,12,130.9,616.2)" />
<use xlink:href="#f4_21" transform="matrix(12,0,0,12,136,616.2)" />
<use xlink:href="#f4_29" transform="matrix(12,0,0,12,144.5,616.2)" />
<use xlink:href="#f4_1x" transform="matrix(12,0,0,12,159.5,616.2)" />
<use xlink:href="#f4_2a" transform="matrix(12,0,0,12,168.7,616.2)" />
<use xlink:href="#f4_2a" transform="matrix(12,0,0,12,178.9,616.2)" />
<use xlink:href="#f4_2e" transform="matrix(12,0,0,12,193.9,616.2)" />
<use xlink:href="#f4_21" transform="matrix(12,0,0,12,201.6,616.2)" />
<use xlink:href="#f4_1x" transform="matrix(12,0,0,12,209.7,616.2)" />
<use xlink:href="#f4_1z" transform="matrix(12,0,0,12,219.2,616.2)" />
<use xlink:href="#f4_2g" transform="matrix(12,0,0,12,227.3,616.2)" />
<use xlink:href="#f4_25" transform="matrix(12,0,0,12,233.5,616.2)" />
<use xlink:href="#f4_2b" transform="matrix(12,0,0,12,238.6,616.2)" />
<use xlink:href="#f4_2a" transform="matrix(12,0,0,12,247.8,616.2)" />
<use xlink:href="#f4_1n" transform="matrix(12,0,0,12,55,733.5)" />
<use xlink:href="#f4_25" transform="matrix(12,0,0,12,73.4,733.5)" />
<use xlink:href="#f4_28" transform="matrix(12,0,0,12,78.5,733.5)" />
<use xlink:href="#f4_28" transform="matrix(12,0,0,12,83.6,733.5)" />
<use xlink:href="#f4_25" transform="matrix(12,0,0,12,88.4,733.5)" />
<use xlink:href="#f4_1x" transform="matrix(12,0,0,12,93.5,733.5)" />
<use xlink:href="#f4_29" transform="matrix(12,0,0,12,102.6,733.5)" />
<use xlink:href="#f4_2f" transform="matrix(12,0,0,12,118.1,733.5)" />
<use xlink:href="#f4_2b" transform="matrix(12,0,0,12,125,733.5)" />
<use xlink:href="#f4_2a" transform="matrix(12,0,0,12,134.2,733.5)" />
<use xlink:href="#f4_2f" transform="matrix(12,0,0,12,149.2,733.5)" />
<use xlink:href="#f4_2l" transform="matrix(12,0,0,12,156.2,733.5)" />
<use xlink:href="#f4_2a" transform="matrix(12,0,0,12,165.3,733.5)" />
<use xlink:href="#f4_2g" transform="matrix(12,0,0,12,175.6,733.5)" />
<use xlink:href="#f4_24" transform="matrix(12,0,0,12,181.8,733.5)" />
<use xlink:href="#f4_21" transform="matrix(12,0,0,12,192,733.5)" />
<use xlink:href="#f4_2f" transform="matrix(12,0,0,12,200.1,733.5)" />
<use xlink:href="#f4_25" transform="matrix(12,0,0,12,207.1,733.5)" />
<use xlink:href="#f4_2f" transform="matrix(12,0,0,12,212.2,733.5)" />
<use xlink:href="#f4_l" transform="matrix(12,0,0,12,55,836.2)" />
<use xlink:href="#f4_r" transform="matrix(12,0,0,12,64.2,836.2)" />
<use xlink:href="#f4_i" transform="matrix(12,0,0,12,73.4,836.2)" />
<use xlink:href="#f2_1n" transform="matrix(12,0,0,12,82.9,836.2)" />
<use xlink:href="#f2_2e" transform="matrix(12,0,0,12,99.8,836.2)" />
<use xlink:href="#f2_25" transform="matrix(12,0,0,12,106.4,836.2)" />
<use xlink:href="#f2_2g" transform="matrix(12,0,0,12,110.8,836.2)" />
<use xlink:href="#f2_21" transform="matrix(12,0,0,12,116.2,836.2)" />
<use xlink:href="#f2_2g" transform="matrix(12,0,0,12,128.7,836.2)" />
<use xlink:href="#f2_24" transform="matrix(12,0,0,12,134.2,836.2)" />
<use xlink:href="#f2_21" transform="matrix(12,0,0,12,143,836.2)" />
<use xlink:href="#f2_29" transform="matrix(12,0,0,12,156.2,836.2)" />
<use xlink:href="#f2_21" transform="matrix(12,0,0,12,169.7,836.2)" />
<use xlink:href="#f2_1z" transform="matrix(12,0,0,12,177.8,836.2)" />
<use xlink:href="#f2_24" transform="matrix(12,0,0,12,186.2,836.2)" />
<use xlink:href="#f2_1x" transform="matrix(12,0,0,12,195,836.2)" />
<use xlink:href="#f2_2a" transform="matrix(12,0,0,12,203.4,836.2)" />
<use xlink:href="#f2_25" transform="matrix(12,0,0,12,212.6,836.2)" />
<use xlink:href="#f2_2f" transform="matrix(12,0,0,12,217.4,836.2)" />
<use xlink:href="#f2_29" transform="matrix(12,0,0,12,225,836.2)" />
<use xlink:href="#f2_2b" transform="matrix(12,0,0,12,243.4,836.2)" />
<use xlink:href="#f2_22" transform="matrix(12,0,0,12,253.2,836.2)" />
<use xlink:href="#f2_2g" transform="matrix(12,0,0,12,263.5,836.2)" />
<use xlink:href="#f2_24" transform="matrix(12,0,0,12,269,836.2)" />
<use xlink:href="#f2_21" transform="matrix(12,0,0,12,277.8,836.2)" />
<use xlink:href="#f2_22" transform="matrix(12,0,0,12,290.6,836.2)" />
<use xlink:href="#f2_2b" transform="matrix(12,0,0,12,296.1,836.2)" />
<use xlink:href="#f2_28" transform="matrix(12,0,0,12,306,836.2)" />
<use xlink:href="#f2_28" transform="matrix(12,0,0,12,310.7,836.2)" />
<use xlink:href="#f2_2b" transform="matrix(12,0,0,12,315.1,836.2)" />
<use xlink:href="#f2_2j" transform="matrix(12,0,0,12,324.6,836.2)" />
<use xlink:href="#f2_25" transform="matrix(12,0,0,12,338.2,836.2)" />
<use xlink:href="#f2_2a" transform="matrix(12,0,0,12,343,836.2)" />
<use xlink:href="#f2_23" transform="matrix(12,0,0,12,352.1,836.2)" />
<use xlink:href="#f2_2e" transform="matrix(12,0,0,12,366,836.2)" />
<use xlink:href="#f2_21" transform="matrix(12,0,0,12,372.3,836.2)" />
<use xlink:href="#f2_1x" transform="matrix(12,0,0,12,380.3,836.2)" />
<use xlink:href="#f2_1z" transform="matrix(12,0,0,12,388.4,836.2)" />
<use xlink:href="#f2_2g" transform="matrix(12,0,0,12,396.5,836.2)" />
<use xlink:href="#f2_25" transform="matrix(12,0,0,12,402.3,836.2)" />
<use xlink:href="#f2_2b" transform="matrix(12,0,0,12,406.7,836.2)" />
<use xlink:href="#f2_2a" transform="matrix(12,0,0,12,416.2,836.2)" />
<use xlink:href="#f2_u" transform="matrix(12,0,0,12,429.8,836.2)" />
</g>
<g clip-path="url(#c0_108)">
<g fill="#000000" >
<use xlink:href="#f2_n" transform="matrix(7.5,0,0,7,83.7,864.6)" />
<use xlink:href="#f2_m" transform="matrix(7.5,0,0,7,115.7,864.6)" />
<use xlink:href="#f2_n" transform="matrix(7.5,0,0,7,239.5,864.6)" />
<use xlink:href="#f2_m" transform="matrix(7.5,0,0,7,271.5,864.6)" />
<use xlink:href="#f2_m" transform="matrix(7.5,0,0,7,328.8,864.6)" />
<use xlink:href="#f5_18" transform="matrix(7.5,0,0,7,172.6,851.7)" />
<use xlink:href="#f5_12" transform="matrix(7.5,0,0,7,180.1,851.7)" />
<use xlink:href="#f5_2e" transform="matrix(7.5,0,0,7,186.5,851.7)" />
<use xlink:href="#f5_13" transform="matrix(12.9,0,0,12.1,57.4,860)" />
<use xlink:href="#f5_18" transform="matrix(12.9,0,0,12.1,69.6,860)" />
<use xlink:href="#f5_13" transform="matrix(12.9,0,0,12.1,89,860)" />
<use xlink:href="#f5_18" transform="matrix(12.9,0,0,12.1,101.2,860)" />
<use xlink:href="#f5_1f" transform="matrix(12.9,0,0,12.1,121.3,860)" />
<use xlink:href="#f5_18" transform="matrix(12.9,0,0,12.1,134.3,860)" />
<use xlink:href="#f5_13" transform="matrix(12.9,0,0,12.1,213.1,860)" />
<use xlink:href="#f5_18" transform="matrix(12.9,0,0,12.1,225.4,860)" />
<use xlink:href="#f5_13" transform="matrix(12.9,0,0,12.1,244.7,860)" />
<use xlink:href="#f5_18" transform="matrix(12.9,0,0,12.1,257,860)" />
<use xlink:href="#f5_12" transform="matrix(12.9,0,0,12.1,278.2,860)" />
<use xlink:href="#f5_2e" transform="matrix(12.9,0,0,12.1,289.3,860)" />
<use xlink:href="#f5_18" transform="matrix(12.9,0,0,12.1,314.2,860)" />
<use xlink:href="#f5_1f" transform="matrix(12.9,0,0,12.1,334.3,860)" />
<use xlink:href="#f6_3k" transform="matrix(12.9,0,0,12.1,155.1,860)" />
<use xlink:href="#f6_3k" transform="matrix(12.9,0,0,12.1,173.5,860)" />
<use xlink:href="#f6_3k" transform="matrix(12.9,0,0,12.1,188.1,860)" />
<use xlink:href="#f6_34" transform="matrix(12.9,0,0,12.1,191.9,860)" />
<use xlink:href="#f6_f" transform="matrix(12.9,0,0,12.1,300.4,860)" />
</g>
</g>
<g fill="#000000" >
<use xlink:href="#f4_1j" transform="matrix(12,0,0,12,55,886.5)" />
<use xlink:href="#f4_2b" transform="matrix(12,0,0,12,65.3,886.5)" />
<use xlink:href="#f4_28" transform="matrix(12,0,0,12,74.5,886.5)" />
<use xlink:href="#f4_2h" transform="matrix(12,0,0,12,79.2,886.5)" />
<use xlink:href="#f4_2g" transform="matrix(12,0,0,12,89.5,886.5)" />
<use xlink:href="#f4_25" transform="matrix(12,0,0,12,95.7,886.5)" />
<use xlink:href="#f4_2b" transform="matrix(12,0,0,12,100.8,886.5)" />
<use xlink:href="#f4_2a" transform="matrix(12,0,0,12,109.9,886.5)" />
<use xlink:href="#f4_u" transform="matrix(12,0,0,12,120.2,886.5)" />
<use xlink:href="#f4_18" transform="matrix(12,0,0,12,55,919.5)" />
<use xlink:href="#f4_12" transform="matrix(12,0,0,12,69.3,919.5)" />
<use xlink:href="#f4_2e" transform="matrix(12,0,0,12,81.8,919.5)" />
<use xlink:href="#f3_8r" transform="matrix(12,0,0,12,94.3,919.5)" />
<use xlink:href="#f4_18" transform="matrix(12,0,0,12,117.4,919.5)" />
<use xlink:href="#f4_f" transform="matrix(7.9,0,0,7.9,131.7,912.5)" />
<use xlink:href="#f4_f" transform="matrix(12,0,0,12,143.4,919.5)" />
<use xlink:href="#f4_12" transform="matrix(12,0,0,12,158.1,919.5)" />
<use xlink:href="#f4_2e" transform="matrix(12,0,0,12,170.5,919.5)" />
</g>
<image preserveAspectRatio="none" x="55" y="290" width="421" height="167" xlink:href="img/6.png" />
<image preserveAspectRatio="none" x="60" y="620" width="440" height="97" xlink:href="img/7.png" />
<image preserveAspectRatio="none" x="55" y="738" width="456" height="48" xlink:href="img/8.png" />
<path fill-rule="evenodd" d="M37.4,38.1h.7v-.7h-.7v.7Z" class="g2_108" />
<path fill-rule="evenodd" d="M37.4,38.1h.7v-.7h-.7v.7Z" class="g2_108" />
<path fill-rule="evenodd" d="M38.1,38.1H871.5v-.7H38.1v.7Z" class="g2_108" />
<path fill-rule="evenodd" d="M871.5,38.1h.8v-.7h-.8v.7Z" class="g2_108" />
<path fill-rule="evenodd" d="M871.5,38.1h.8v-.7h-.8v.7Z" class="g2_108" />
<path fill-rule="evenodd" d="M37.4,1248.5h.7V38.1h-.7V1248.5Z" class="g2_108" />
<path fill-rule="evenodd" d="M872.3,1248.5h.7V38.1h-.7V1248.5Z" class="g2_108" />
<path fill-rule="evenodd" d="M871.5,1248.5h.8V38.1h-.8V1248.5Z" class="g2_108" />
<path fill-rule="evenodd" d="M37.4,1249.2h.7v-.7h-.7v.7Z" class="g2_108" />
<path fill-rule="evenodd" d="M37.4,1249.2h.7v-.7h-.7v.7Z" class="g2_108" />
<path fill-rule="evenodd" d="M38.1,1249.9H871.5v-.7H38.1v.7Z" class="g2_108" />
<path fill-rule="evenodd" d="M38.1,1249.2H871.5v-.7H38.1v.7Z" class="g2_108" />
<path fill-rule="evenodd" d="M872.3,1249.9h.7v-1.4h-.7v1.4Z" class="g2_108" />
<path fill-rule="evenodd" d="M871.5,1249.9H873v-.7h-1.5v.7Z" class="g2_108" />
<path fill-rule="evenodd" d="M871.5,1249.2h.8v-.7h-.8v.7Z" class="g2_108" />
<path fill-rule="evenodd" d="M871.5,1249.2h.8v-.7h-.8v.7Z" class="g2_108" />
<defs>
<path d="M489,-15c0,0,-99,0,-179,30c0,0,-80,30,-136,91c0,0,-56,61,-85,152c0,0,-30,91,-30,212c0,0,0,123,32,218c0,0,33,96,92,161c0,0,59,65,142,98c0,0,82,34,181,34c0,0,40,0,78,-7c0,0,37,-7,69,-18c0,0,31,-11,57,-25c0,0,25,-14,35,-24c0,0,10,-10,14,-17c0,0,4,-7,6,-17c0,0,2,-11,3,-25c0,0,2,-14,2,-35c0,0,0,-22,-2,-38c0,0,-1,-15,-5,-25c0,0,-4,-10,-9,-14c0,0,-5,-5,-12,-5c0,0,-11,0,-28,13c0,0,-18,13,-45,29c0,0,-27,16,-65,29c0,0,-37,13,-89,13c0,0,-58,0,-103,-23c0,0,-45,-23,-77,-67c0,0,-31,-44,-48,-106c0,0,-16,-61,-16,-139c0,0,0,-85,17,-147c0,0,18,-62,50,-103c0,0,33,-40,79,-60c0,0,45,-19,103,-19c0,0,52,0,90,12c0,0,38,12,65,27c0,0,27,15,45,27c0,0,17,12,27,12c0,0,8,0,12,-3c0,0,4,-3,7,-12c0,0,3,-9,5,-25c0,0,1,-16,1,-43c0,0,0,-18,-1,-31c0,0,-1,-14,-3,-23c0,0,-2,-9,-6,-16c0,0,-4,-7,-12,-15c0,0,-8,-9,-32,-22c0,0,-23,-14,-57,-26C661,13,627,1,583,-6c0,0,-43,-9,-94,-9Z" 
id="f0_j"
transform="scale(0.001,-0.001)" />

<path d="M440,150c0,0,41,0,68,8c0,0,28,9,49,26c0,0,20,16,32,41c0,0,11,25,11,58c0,0,0,33,-11,60c0,0,-11,26,-33,44c0,0,-21,18,-55,28c0,0,-33,9,-87,9H298V150ZM407,567c0,0,42,0,68,10c0,0,25,10,42,28c0,0,16,17,24,41c0,0,9,24,9,50c0,0,0,29,-9,52c0,0,-9,23,-27,39c0,0,-18,15,-45,23c0,0,-27,8,-72,8H298V567ZM164,0c0,0,-25,0,-42,15c0,0,-16,14,-16,47V903c0,0,0,33,16,48c0,0,17,14,42,14H406c0,0,88,0,150,-15c0,0,61,-15,103,-45c0,0,42,-30,65,-77c0,0,22,-46,22,-108c0,0,0,-36,-9,-67c0,0,-9,-31,-26,-56c0,0,-17,-25,-42,-45c0,0,-25,-19,-57,-31c0,0,41,-7,76,-26c0,0,34,-19,60,-48c0,0,26,-30,41,-69c0,0,15,-40,15,-89c0,0,0,-51,-14,-93c0,0,-15,-42,-40,-74c0,0,-25,-32,-59,-55c0,0,-35,-23,-77,-38C614,29,573,14,525,7C525,7,478,0,420,0Z" 
id="f0_i"
transform="scale(0.001,-0.001)" />

<path d="M320,-17c0,0,-50,0,-93,9c0,0,-43,8,-76,19c0,0,-32,11,-54,24C97,35,75,48,65,58c0,0,-10,9,-14,28c0,0,-4,18,-4,52c0,0,0,23,1,39c0,0,2,15,5,25c0,0,4,10,9,14c0,0,6,4,13,4c0,0,11,0,30,-12c0,0,19,-13,49,-28c0,0,30,-15,71,-27c0,0,42,-12,96,-12c0,0,36,0,64,8c0,0,29,9,49,25c0,0,19,15,30,38c0,0,10,23,10,52c0,0,0,33,-18,56c0,0,-18,24,-46,42c0,0,-29,18,-66,34c0,0,-36,16,-75,34c0,0,-39,18,-76,41c0,0,-36,23,-65,54c0,0,-29,32,-47,75c0,0,-17,44,-17,104c0,0,0,70,25,122c0,0,26,53,70,88c0,0,43,34,103,51c0,0,59,18,125,18c0,0,35,0,69,-6c0,0,34,-5,64,-14c0,0,30,-9,53,-20c0,0,23,-11,31,-18c0,0,7,-8,10,-13c0,0,3,-5,4,-14c0,0,2,-8,3,-21c0,0,1,-13,1,-33c0,0,0,-21,-1,-36c0,0,-1,-15,-4,-25c0,0,-3,-9,-7,-14c0,0,-5,-4,-14,-4c0,0,-8,0,-26,10c0,0,-18,10,-44,23c0,0,-26,12,-60,22c0,0,-34,10,-75,10c0,0,-32,0,-56,-8c0,0,-24,-8,-40,-21c0,0,-16,-14,-24,-34c0,0,-8,-19,-8,-41c0,0,0,-32,18,-56c0,0,17,-23,46,-42c0,0,30,-18,67,-34c0,0,38,-16,76,-34c0,0,39,-18,76,-41c0,0,38,-22,67,-54c0,0,29,-32,47,-75c0,0,18,-43,18,-101c0,0,0,-76,-29,-133c0,0,-28,-58,-77,-96C572,60,524,21,459,2c0,0,-65,-19,-139,-19Z" 
id="f0_2n"
transform="scale(0.001,-0.001)" />

<path d="M164,0c0,0,-25,0,-42,15c0,0,-16,14,-16,47V903c0,0,0,33,16,48c0,0,17,14,42,14H645c0,0,7,0,12,-4c0,0,5,-3,9,-13c0,0,4,-9,6,-24c0,0,2,-14,2,-36c0,0,0,-21,-2,-36c0,0,-2,-14,-6,-23c0,0,-4,-9,-9,-13c0,0,-5,-4,-12,-4H301V576H593c0,0,6,0,12,-4c0,0,6,-4,9,-13c0,0,4,-8,6,-23c0,0,2,-14,2,-35c0,0,0,-22,-2,-36c0,0,-2,-14,-6,-23c0,0,-3,-8,-9,-12c0,0,-6,-4,-12,-4H301V154H649c0,0,6,0,12,-5c0,0,5,-4,9,-13c0,0,4,-9,6,-23c0,0,2,-15,2,-36c0,0,0,-22,-2,-36c0,0,-2,-15,-6,-24c0,0,-4,-9,-9,-13c0,0,-6,-4,-12,-4Z" 
id="f0_t"
transform="scale(0.001,-0.001)" />

<path d="M79,297c0,0,-19,0,-27,18c0,0,-8,17,-8,60c0,0,0,41,8,59c0,0,8,17,27,17H389c0,0,9,0,15,-4c0,0,7,-4,11,-13c0,0,5,-9,7,-23c0,0,1,-15,1,-36c0,0,0,-43,-8,-61c0,0,-8,-17,-26,-17Z" 
id="f0_oj"
transform="scale(0.001,-0.001)" />

<path d="M121,-4c0,0,-39,0,-60,2C61,-2,39,0,32,8c0,0,-8,8,-3,24c0,0,4,15,18,41L279,495L64,892c0,0,-14,26,-19,42c0,0,-5,17,4,24c0,0,9,8,32,10c0,0,23,2,65,2c0,0,35,0,56,-2c0,0,20,-1,32,-4c0,0,12,-4,17,-10c0,0,5,-6,9,-15L431,620L595,939c0,0,5,9,10,15c0,0,5,6,16,10c0,0,10,3,29,4c0,0,19,2,53,2c0,0,37,0,59,-2c0,0,22,-2,30,-10c0,0,8,-8,4,-24c0,0,-4,-16,-17,-42L564,497L793,73c0,0,14,-26,18,-41c0,0,4,-16,-5,-24c0,0,-9,-8,-32,-10c0,0,-24,-2,-65,-2c0,0,-36,0,-56,2c0,0,-20,1,-31,3c0,0,-12,4,-17,10c0,0,-5,6,-9,15L414,374L233,26c0,0,-4,-9,-9,-15c0,0,-6,-6,-17,-10c0,0,-12,-2,-32,-3c0,0,-21,-2,-54,-2Z" 
id="f0_3e"
transform="scale(0.001,-0.001)" />

<path d="M204,-4c0,0,-28,0,-47,2c0,0,-19,2,-31,5c0,0,-11,4,-16,10c0,0,-4,6,-4,13V939c0,0,0,7,4,13c0,0,5,6,17,10c0,0,11,3,30,6c0,0,19,2,47,2c0,0,29,0,48,-2c0,0,18,-3,29,-6c0,0,11,-4,16,-10c0,0,5,-6,5,-13V26c0,0,0,-7,-5,-13c0,0,-5,-6,-16,-10c0,0,-11,-3,-29,-5c0,0,-19,-2,-48,-2Z" 
id="f0_1c"
transform="scale(0.001,-0.001)" />

<path d="M127,0c0,0,-16,0,-28,3C99,3,87,6,80,15c0,0,-8,8,-11,25c0,0,-3,16,-3,42c0,0,0,25,2,42c0,0,2,18,8,32c0,0,6,14,15,27c0,0,9,13,24,29L282,390c0,0,50,53,81,95c0,0,30,43,47,79c0,0,17,35,24,65c0,0,6,30,6,57c0,0,0,24,-8,46c0,0,-8,22,-23,39c0,0,-15,16,-38,25c0,0,-23,10,-55,10c0,0,-44,0,-78,-12c0,0,-33,-11,-59,-25c0,0,-26,-13,-43,-25c0,0,-17,-12,-27,-12c0,0,-7,0,-11,5c0,0,-5,4,-8,15c0,0,-3,10,-5,28c0,0,-2,17,-2,42c0,0,0,18,1,29c0,0,1,12,4,20c0,0,2,9,6,15c0,0,3,6,13,15c0,0,9,9,34,23c0,0,25,14,61,27c0,0,37,14,81,23c0,0,44,9,92,9c0,0,75,0,131,-19c0,0,57,-19,94,-53c0,0,37,-34,55,-81c0,0,19,-47,19,-100c0,0,0,-47,-9,-93c0,0,-9,-45,-37,-98c0,0,-29,-52,-80,-116c0,0,-52,-64,-136,-148L299,159H679c0,0,8,0,14,-4c0,0,6,-5,11,-14c0,0,4,-9,7,-25c0,0,2,-15,2,-36c0,0,0,-22,-2,-37c0,0,-2,-15,-6,-25c0,0,-3,-10,-9,-14c0,0,-6,-4,-14,-4Z" 
id="f0_rz"
transform="scale(0.001,-0.001)" />

<path d="M385,138c0,0,29,0,52,9c0,0,22,10,39,28c0,0,17,19,28,47c0,0,11,29,19,66c0,0,7,37,9,84c0,0,3,47,3,104c0,0,0,69,-4,122c0,0,-4,52,-11,91c0,0,-8,39,-20,66c0,0,-12,27,-28,43c0,0,-16,16,-37,22c0,0,-21,7,-47,7c0,0,-44,0,-73,-21c0,0,-28,-21,-45,-64c0,0,-17,-42,-24,-106c0,0,-6,-63,-6,-148c0,0,0,-103,8,-171c0,0,8,-67,26,-107c0,0,17,-40,45,-56c0,0,27,-16,66,-16ZM378,-17c0,0,-99,0,-164,33c0,0,-65,34,-103,98c0,0,-38,64,-54,156c0,0,-15,92,-15,209c0,0,0,115,19,208c0,0,19,94,61,160c0,0,42,65,110,101c0,0,68,35,165,35c0,0,99,0,164,-34c0,0,65,-34,103,-98c0,0,39,-64,53,-156c0,0,15,-92,15,-209c0,0,0,-115,-18,-209c0,0,-19,-93,-61,-159C653,118,611,53,543,17c0,0,-67,-34,-165,-34Z" 
id="f0_rx"
transform="scale(0.001,-0.001)" />

<path d="M142,0c0,0,-6,0,-12,4c0,0,-5,3,-9,12c0,0,-4,9,-6,23c0,0,-3,15,-3,36c0,0,0,21,2,36c0,0,2,14,6,23c0,0,4,9,10,13c0,0,5,5,12,5H322V779L166,693c0,0,-17,-8,-28,-10c0,0,-1,0,-3,0c-4,0,-10,1,-14,5c0,0,-6,6,-8,22c0,0,-2,15,-2,44c0,0,0,18,0,29c0,0,1,12,4,20c0,0,3,8,8,14c0,0,5,5,14,11L345,962c0,0,4,3,9,5c0,0,6,2,15,3c0,0,9,1,23,2c0,0,15,0,38,0c0,0,28,0,46,-1c0,0,17,-1,26,-4c0,0,9,-3,12,-7c0,0,3,-4,3,-11V152H675c0,0,7,0,12,-5c0,0,6,-4,10,-13c0,0,4,-9,6,-23c0,0,2,-15,2,-36c0,0,0,-21,-2,-36c0,0,-3,-14,-7,-23c0,0,-4,-9,-9,-12c0,0,-5,-4,-12,-4Z" 
id="f0_ry"
transform="scale(0.001,-0.001)" />

<path d="M439,356V801h-1L183,356ZM532,-4c0,0,-27,0,-45,2c0,0,-18,2,-29,5c0,0,-11,3,-15,9c0,0,-4,5,-4,13V199H70c0,0,-11,0,-19,3c0,0,-8,3,-14,12c0,0,-5,9,-8,27c0,0,-3,17,-3,46c0,0,0,24,2,42c0,0,1,17,3,31c0,0,3,15,8,27c0,0,5,13,12,27L351,944c0,0,4,7,13,11c0,0,9,5,25,9c0,0,16,3,40,4c0,0,25,2,60,2c0,0,38,0,65,-2c0,0,27,-2,43,-6c0,0,16,-4,23,-10c0,0,8,-6,8,-14V356h85c0,0,12,0,21,-18c0,0,8,-19,8,-61c0,0,0,-38,-8,-58c0,0,-7,-20,-21,-20H628V25c0,0,0,-8,-5,-13c0,0,-4,-6,-15,-9c0,0,-12,-3,-29,-5c0,0,-18,-2,-47,-2Z" 
id="f0_s1"
transform="scale(0.001,-0.001)" />

<path d="M589,371L453,782h-1L317,371ZM106,-4c0,0,-35,0,-54,2C52,-2,32,0,25,8c0,0,-7,9,-5,24c0,0,2,16,11,42L329,931c0,0,4,13,10,21c0,0,6,7,19,12c0,0,13,4,36,5c0,0,23,1,61,1c0,0,44,0,71,-1c0,0,26,-1,40,-5c0,0,15,-5,21,-13c0,0,6,-8,11,-22L896,73c0,0,9,-27,11,-43c0,0,3,-15,-6,-23c0,0,-8,-7,-29,-9c0,0,-21,-2,-57,-2c0,0,-38,0,-59,1c0,0,-22,1,-33,4c0,0,-11,3,-16,9c0,0,-4,6,-7,16L635,220H272L211,31c0,0,-2,-11,-7,-18c0,0,-5,-7,-16,-11c0,0,-11,-3,-31,-4c0,0,-19,-2,-51,-2Z" 
id="f0_5"
transform="scale(0.001,-0.001)" />

<path d="M198,-4c0,0,-27,0,-45,2c0,0,-18,2,-28,5c0,0,-11,4,-15,10c0,0,-4,6,-4,13V887c0,0,0,38,20,58c0,0,20,20,53,20H308c0,0,34,0,59,-6c0,0,24,-5,42,-18c0,0,18,-13,30,-35c0,0,12,-21,21,-52L669,279h3L889,852c0,0,9,32,21,53c0,0,11,22,27,35c0,0,15,14,36,19c0,0,21,6,48,6h132c0,0,21,0,35,-5c0,0,15,-5,24,-15c0,0,9,-11,14,-25c0,0,5,-15,5,-33V26c0,0,0,-7,-4,-13c0,0,-4,-6,-15,-10c0,0,-11,-3,-29,-5c0,0,-18,-2,-45,-2c0,0,-27,0,-45,2c0,0,-18,2,-28,5c0,0,-11,4,-15,10c0,0,-5,6,-5,13V813h-1L764,27c0,0,-3,-10,-10,-16c0,0,-6,-6,-18,-10c0,0,-12,-3,-29,-4c0,0,-18,-1,-44,-1c0,0,-25,0,-43,2c0,0,-18,2,-29,5c0,0,-12,4,-19,10c0,0,-6,6,-9,14L293,813h-2V26c0,0,0,-7,-4,-13c0,0,-4,-6,-15,-10c0,0,-11,-3,-29,-5c0,0,-17,-2,-45,-2Z" 
id="f0_1x"
transform="scale(0.001,-0.001)" />

<path d="M193,-4c0,0,-26,0,-43,2c0,0,-18,2,-27,6c0,0,-10,4,-14,10c0,0,-3,6,-3,13V895c0,0,0,35,20,53c0,0,21,17,50,17H282c0,0,28,0,47,-5c0,0,20,-5,35,-16c0,0,15,-11,29,-31c0,0,13,-20,27,-49L608,511c0,0,17,-32,33,-63c0,0,16,-31,31,-62c0,0,14,-31,29,-60c0,0,14,-30,27,-60h1c0,0,-2,52,-3,109c0,0,-1,57,-1,108V936c0,0,0,7,4,13c0,0,5,6,15,11c0,0,10,4,28,6c0,0,17,2,44,2c0,0,25,0,42,-2c0,0,17,-2,27,-6c0,0,9,-5,13,-11c0,0,4,-6,4,-13V68c0,0,0,-17,-6,-30c0,0,-6,-14,-17,-23C879,15,869,6,856,2c0,0,-14,-3,-28,-3H744c0,0,-26,0,-45,4c0,0,-19,5,-35,19c0,0,-16,14,-31,38c0,0,-15,23,-34,60L359,572c0,0,-21,40,-43,86c0,0,-21,47,-38,91h-2c0,0,3,-54,5,-107c0,0,2,-53,2,-110V27c0,0,0,-7,-5,-13c0,0,-4,-6,-14,-10c0,0,-10,-4,-27,-6c0,0,-17,-2,-44,-2Z" 
id="f0_1y"
transform="scale(0.001,-0.001)" />

<path d="M378,-4c0,0,-28,0,-47,2c0,0,-19,2,-31,5c0,0,-11,4,-16,10c0,0,-4,6,-4,13V805H38c0,0,-8,0,-13,4c0,0,-5,5,-9,14c0,0,-3,9,-5,25c0,0,-2,15,-2,37c0,0,0,22,2,38c0,0,2,15,5,25c0,0,4,9,9,13c0,0,5,4,13,4H718c0,0,7,0,12,-4c0,0,6,-4,10,-13c0,0,3,-10,5,-25c0,0,2,-16,2,-38c0,0,0,-22,-2,-37c0,0,-2,-16,-5,-25c0,0,-4,-9,-10,-14c0,0,-5,-4,-12,-4H476V26c0,0,0,-7,-5,-13c0,0,-5,-6,-16,-10c0,0,-11,-3,-30,-5c0,0,-19,-2,-47,-2Z" 
id="f0_2t"
transform="scale(0.001,-0.001)" />

<path d="M514,145c0,0,72,0,121,27c0,0,48,26,78,73c0,0,30,46,42,107c0,0,13,62,13,131c0,0,0,76,-12,139c0,0,-12,62,-41,106c0,0,-29,45,-76,69c0,0,-48,24,-120,24c0,0,-72,0,-120,-27c0,0,-49,-27,-79,-73c0,0,-29,-45,-42,-106c0,0,-12,-61,-12,-129c0,0,0,-79,12,-142c0,0,12,-63,40,-108c0,0,28,-44,76,-68c0,0,48,-23,120,-23ZM508,-17c0,0,-113,0,-196,29c0,0,-84,29,-140,90c0,0,-56,60,-84,154c0,0,-28,93,-28,221c0,0,0,117,29,210c0,0,30,94,89,160c0,0,59,65,146,101c0,0,87,35,202,35c0,0,110,0,194,-29c0,0,84,-30,140,-90c0,0,56,-60,85,-153c0,0,29,-92,29,-217c0,0,0,-120,-30,-215c0,0,-30,-95,-89,-161C855,118,796,52,709,17c0,0,-87,-34,-201,-34Z" 
id="f0_24"
transform="scale(0.001,-0.001)" />

<path d="M441,402V711h-3L193,402ZM441,0V227H19V404L457,952H650V402h90V227H650V0Z" 
id="f1_o"
transform="scale(0.001,-0.001)" />

<path d="M44,-281L425,1053H537L156,-281Z" 
id="f1_j"
transform="scale(0.001,-0.001)" />

<path d="M299,0V777H162l36,173H508V0Z" 
id="f1_l"
transform="scale(0.001,-0.001)" />

<path d="M460,-325c0,0,-148,79,-231,172c0,0,-84,93,-123,217c0,0,-39,126,-39,304c0,0,0,178,39,303c0,0,39,125,122,217c0,0,82,93,232,172V997c0,0,-91,-52,-145,-134c0,0,-54,-81,-79,-190c0,0,-25,-109,-25,-305c0,0,0,-194,26,-309c0,0,26,-114,82,-193c0,0,56,-79,141,-128v-63Z" 
id="f2_c"
transform="scale(0.001,-0.001)" />

<path d="M32,0V33L151,52V649L52,668v33H275V52L395,33V0ZM201,850c0,0,-32,0,-56,24c0,0,-24,24,-24,56c0,0,0,34,24,58c0,0,24,24,56,24c0,0,34,0,58,-24c0,0,24,-24,24,-58c0,0,0,-32,-24,-56c0,0,-24,-24,-58,-24Z" 
id="f2_25"
transform="scale(0.001,-0.001)" />

<path d="M49,-325v63c0,0,85,49,140,128c0,0,56,79,83,194c0,0,26,115,26,308c0,0,0,196,-25,305c0,0,-25,109,-79,190c0,0,-54,82,-145,134v63c0,0,149,-80,232,-172c0,0,83,-92,122,-217c0,0,39,-125,39,-303c0,0,0,-177,-39,-303c0,0,-39,-125,-122,-217c0,0,-83,-93,-232,-173Z" 
id="f2_d"
transform="scale(0.001,-0.001)" />

<path d="M663,0V40L790,60L527,448L236,60L360,40V0H34V40L144,60L484,512L194,941L81,960v40H494V960L367,941L574,633L806,941L683,960v40h327V960L900,941L618,567L962,60L1076,40V0Z" 
id="f2_1o"
transform="scale(0.001,-0.001)" />

<path d="M495,413c0,0,0,133,-34,190c0,0,-34,57,-105,57c0,0,-78,0,-119,-63c0,0,-42,-62,-42,-184ZM374,-14c0,0,-163,0,-239,87c0,0,-75,88,-75,283c0,0,0,183,77,273c0,0,76,91,219,91c0,0,269,0,269,-306V353H194V340c0,0,0,-103,23,-160c0,0,22,-57,70,-87c0,0,47,-29,124,-29c0,0,40,0,96,6c0,0,55,7,91,15V43C598,43,562,20,500,3c0,0,-61,-17,-126,-17Z" 
id="f2_21"
transform="scale(0.001,-0.001)" />

<path d="M54,0V40L172,60V941L44,960v40H794V760H745L721,922c0,0,-83,11,-241,11H316V516H611l23,120h46V328H634L611,449H316V60L483,40V0Z" 
id="f2_16"
transform="scale(0.001,-0.001)" />

<path d="M476,327V830h-4L114,327ZM476,0V220H30v99l488,686h86V327H740V220H604V0Z" 
id="f2_o"
transform="scale(0.001,-0.001)" />

<path d="M392,152V469H76v77H392V863h77V546H787V469H469V152Z" 
id="f2_f"
transform="scale(0.001,-0.001)" />

<path d="M551,45c0,0,171,0,252,108c0,0,82,108,82,349c0,0,0,239,-81,344c0,0,-81,105,-253,105c0,0,-172,0,-252,-105c0,0,-80,-105,-80,-344c0,0,0,-241,80,-349c0,0,81,-108,252,-108Zm0,-59c0,0,-238,0,-363,129C188,115,63,245,63,501c0,0,0,510,488,510c0,0,242,0,366,-129c0,0,124,-130,124,-381c0,0,0,-255,-126,-385C915,116,790,-14,551,-14Z" 
id="f2_1f"
transform="scale(0.001,-0.001)" />

<path d="M67,0V109L206,235c0,0,133,118,196,190c0,0,63,72,90,149c0,0,27,77,27,177c0,0,0,97,-44,148c0,0,-44,50,-144,50c0,0,-39,0,-81,-10c0,0,-42,-11,-74,-29L150,787H101V980c0,0,135,32,230,32c0,0,164,0,247,-68c0,0,82,-69,82,-193c0,0,0,-84,-32,-158c0,0,-33,-75,-100,-148c0,0,-67,-74,-222,-206c0,0,-67,-57,-141,-125H680V0Z" 
id="f2_m"
transform="scale(0.001,-0.001)" />

<path d="M1102,116c0,0,70,150,148,231H59v75H1250c0,0,-57,73,-80,108c0,0,-22,35,-66,123h57c0,0,99,-108,171,-164c0,0,72,-57,137,-84V371c0,0,-74,-36,-144,-91c0,0,-69,-56,-165,-164Z" 
id="f3_8r"
transform="scale(0.001,-0.001)" />

<path d="M12,0V27c0,0,38,4,66,16c0,0,46,19,88,52c0,0,41,33,95,101L496,496L300,789c0,0,-81,119,-138,156c0,0,-57,37,-130,40v27H499V985c0,0,-59,-3,-81,-20c0,0,-22,-17,-22,-38c0,0,0,-28,35,-81L588,613L767,841c0,0,31,41,38,56c0,0,7,15,7,31c0,0,0,15,-9,27c0,0,-11,16,-28,22c0,0,-17,7,-71,8v27h359V985c0,0,-42,-3,-69,-14c0,0,-40,-17,-74,-46c0,0,-34,-29,-95,-108L624,560L842,236c0,0,90,-134,134,-169c0,0,43,-36,111,-40V0H652V27c0,0,43,1,64,9c0,0,16,7,26,21c0,0,10,14,10,28c0,0,0,17,-7,35c0,0,-5,12,-41,66L532,443L320,173c0,0,-33,-44,-40,-58c0,0,-7,-15,-7,-30c0,0,0,-24,21,-40c0,0,20,-15,76,-18V0Z" 
id="f3_1o"
transform="scale(0.001,-0.001)" />

<path d="M479,469c0,0,-4,66,-16,93c0,0,-18,42,-55,65c0,0,-37,24,-78,24c0,0,-62,0,-111,-48c0,0,-48,-48,-57,-134ZM355,-20c0,0,-123,0,-211,95c0,0,-87,96,-87,258c0,0,0,175,90,273c0,0,89,98,225,98c0,0,115,0,189,-76c0,0,74,-75,74,-202H162c0,0,0,-152,74,-239c0,0,75,-86,175,-86c0,0,67,0,117,36c0,0,50,37,83,127l24,-15c0,0,-16,-102,-91,-186c0,0,-76,-83,-189,-83Z" 
id="f3_21"
transform="scale(0.001,-0.001)" />

<path d="M24,0V27H60c0,0,63,0,91,37c0,0,18,24,18,115V833c0,0,0,77,-10,102c0,0,-7,18,-30,32c0,0,-32,18,-69,18H24v27H776L787,790H761c0,0,-20,71,-45,104c0,0,-26,33,-64,48c0,0,-37,15,-117,15H312V558H497c0,0,63,0,93,28c0,0,29,28,39,111h27V355H629c0,0,-1,59,-16,87c0,0,-14,27,-40,41c0,0,-26,14,-76,14H312V179c0,0,0,-77,10,-102c0,0,7,-18,31,-32c0,0,33,-18,69,-18h37V0Z" 
id="f3_16"
transform="scale(0.001,-0.001)" />

<path d="M410,45c0,0,90,0,130,58c0,0,40,59,40,193c0,0,0,122,-38,177c0,0,-38,54,-122,54c0,0,-102,0,-217,-37c0,0,0,-227,51,-336c0,0,52,-109,156,-109Zm3,-59c0,0,-169,0,-258,131c0,0,-89,131,-89,377c0,0,0,161,47,278c0,0,47,117,131,178c0,0,85,61,196,61c0,0,109,0,217,-26V813H608L582,915c0,0,-25,13,-67,23c0,0,-41,10,-75,10c0,0,-109,0,-170,-105c0,0,-60,-106,-66,-308c0,0,121,63,244,63c0,0,132,0,201,-74c0,0,69,-74,69,-214c0,0,0,-156,-78,-240c0,0,-79,-84,-227,-84Z" 
id="f2_q"
transform="scale(0.001,-0.001)" />

<path d="M191,-20c0,0,-39,0,-65,25c0,0,-25,27,-25,64c0,0,0,38,26,64c0,0,26,26,64,26c0,0,38,0,64,-26c0,0,26,-26,26,-64c0,0,0,-37,-25,-64c0,0,-26,-25,-65,-25Z" 
id="f2_i"
transform="scale(0.001,-0.001)" />

<path d="M122,0V64L295,82V837L123,780v64l282,165H511V82L685,64V0Z" 
id="f4_l"
transform="scale(0.001,-0.001)" />

<path d="M346,-14c0,0,-139,0,-276,29L61,258h69L169,96c0,0,29,-16,71,-26c0,0,43,-10,77,-10c0,0,172,0,172,230c0,0,0,120,-44,174c0,0,-44,53,-139,53c0,0,-53,0,-97,-19L186,488H111v512H633V834H194V571c0,0,91,21,164,21c0,0,178,0,264,-74c0,0,86,-73,86,-220c0,0,0,-151,-94,-232c0,0,-93,-80,-268,-80Z" 
id="f4_p"
transform="scale(0.001,-0.001)" />

<path d="M191,-20c0,0,-51,0,-88,34c0,0,-36,36,-36,88c0,0,0,52,36,88c0,0,36,36,88,36c0,0,51,0,88,-36c0,0,36,-36,36,-88c0,0,0,-51,-36,-87c0,0,-36,-35,-88,-35Z" 
id="f4_i"
transform="scale(0.001,-0.001)" />

<path d="M529,65c0,0,183,0,270,108c0,0,87,108,87,334c0,0,0,210,-113,318c0,0,-113,108,-322,108H316V71c0,0,90,-6,213,-6Zm0,-67L172,0H44V40L172,60V941L44,960v40H498c0,0,277,0,411,-123c0,0,133,-124,133,-371c0,0,0,-251,-129,-380C913,126,785,-2,529,-2Z" 
id="f2_14"
transform="scale(0.001,-0.001)" />

<path d="M31,0V33l88,19V649L31,668v33H235l7,-87c0,0,44,37,121,71c0,0,76,35,121,35h11V530H463l-43,82c0,0,-37,0,-88,-10c0,0,-52,-10,-89,-26V52L363,33V0Z" 
id="f2_2e"
transform="scale(0.001,-0.001)" />

<path d="M284,67c0,0,51,0,88,12c0,0,37,12,74,30V358l-98,-3c0,0,-100,-4,-135,-39c0,0,-35,-35,-35,-117c0,0,0,-132,106,-132ZM233,-14c0,0,-179,0,-179,208c0,0,0,70,27,116c0,0,27,46,87,70c0,0,60,24,173,27l105,3V519c0,0,0,72,-26,107c0,0,-27,34,-82,34c0,0,-75,0,-137,-35L176,538H134V691c0,0,121,26,213,26c0,0,115,0,169,-47c0,0,54,-47,54,-144V52L657,33V0H465L451,70c0,0,-85,-84,-218,-84Z" 
id="f2_1x"
transform="scale(0.001,-0.001)" />

<path d="M327,-14L84,649L1,668v33H335V668L219,648L385,174L554,632h63L786,171L944,649L830,668v33h267V668l-78,-16L784,-14H726L553,448L382,-14Z" 
id="f2_2j"
transform="scale(0.001,-0.001)" />

<path d="M249,-14c0,0,-71,0,-107,42c0,0,-35,42,-35,119V639H15v33l93,29l76,159h47V701H391V639H231V161c0,0,0,-48,22,-73c0,0,22,-24,57,-24c0,0,44,0,106,12V26C416,26,389,8,340,-2c0,0,-49,-12,-91,-12Z" 
id="f2_2g"
transform="scale(0.001,-0.001)" />

<path d="M442,0V33l93,19V504c0,0,0,129,-124,129c0,0,-70,0,-168,-22V52L338,33V0H31V33l88,19v956L15,1026v34H243V756c0,0,0,-77,-5,-112c0,0,54,31,122,53c0,0,68,23,115,23c0,0,91,0,137,-53c0,0,47,-53,47,-154V52L744,33V0Z" 
id="f2_24"
transform="scale(0.001,-0.001)" />

<path d="M278,-14c0,0,-52,0,-115,11c0,0,-63,10,-99,23V193H98L134,95c0,0,56,-50,146,-50c0,0,144,0,144,123c0,0,0,91,-114,130l-66,21c0,0,-75,25,-110,50c0,0,-34,26,-53,63c0,0,-18,36,-18,89c0,0,0,92,63,145c0,0,63,54,170,54c0,0,77,0,193,-23V544H454l-32,81c0,0,-39,35,-124,35c0,0,-61,0,-92,-30c0,0,-32,-30,-32,-80c0,0,0,-43,29,-72c0,0,28,-29,86,-48c0,0,110,-38,144,-55c0,0,33,-17,57,-42c0,0,23,-25,36,-57c0,0,13,-32,13,-79c0,0,0,-104,-66,-158c0,0,-66,-53,-195,-53Z" 
id="f2_2f"
transform="scale(0.001,-0.001)" />

<path d="M289,-14c0,0,-179,0,-179,205V649L20,668v33H233V200c0,0,0,-128,120,-128c0,0,92,0,173,23V649L420,668v33H649V52L738,33V0H533l-6,57C527,57,474,28,405,7c0,0,-69,-21,-116,-21Z" 
id="f2_2h"
transform="scale(0.001,-0.001)" />

<path d="M399,-14c0,0,-341,0,-341,370c0,0,0,175,87,269c0,0,87,95,249,95c0,0,101,0,220,-23V501H573L541,625c0,0,-62,35,-149,35c0,0,-200,0,-200,-304c0,0,0,-158,61,-225c0,0,61,-67,189,-67c0,0,109,0,189,24V43C631,43,595,16,530,1c0,0,-64,-15,-131,-15Z" 
id="f2_1z"
transform="scale(0.001,-0.001)" />

<path d="M377,45c0,0,99,0,147,73c0,0,47,73,47,237c0,0,0,161,-47,233c0,0,-47,72,-147,72c0,0,-97,0,-141,-69c0,0,-44,-69,-44,-236c0,0,0,-169,45,-240c0,0,44,-70,140,-70Zm0,-59c0,0,-158,0,-238,94c0,0,-81,95,-81,274c0,0,0,178,81,272c0,0,80,94,244,94c0,0,160,0,241,-92c0,0,82,-92,82,-274c0,0,0,-368,-329,-368Z" 
id="f2_2b"
transform="scale(0.001,-0.001)" />

<path d="M64,0V34L168,59V639H47v36l121,29v49c0,0,0,155,61,239c0,0,62,84,173,84c0,0,58,0,107,-15V908H472l-33,92c0,0,-26,16,-62,16c0,0,-47,0,-66,-42c0,0,-19,-42,-19,-157V701H478V639H292V59L443,34V0Z" 
id="f2_22"
transform="scale(0.001,-0.001)" />

<path d="M31,0V33L150,52v956L31,1026v34H274V52L394,33V0Z" 
id="f2_28"
transform="scale(0.001,-0.001)" />

<path d="M439,0V33l93,19V500c0,0,0,62,-30,97c0,0,-31,36,-94,36c0,0,-67,0,-165,-22V52L338,33V0H35V33l84,19V649L35,668v33H235l7,-57c0,0,57,33,122,54c0,0,65,22,108,22c0,0,91,0,137,-53c0,0,47,-53,47,-154V52L741,33V0Z" 
id="f2_2a"
transform="scale(0.001,-0.001)" />

<path d="M359,-270c0,0,124,0,192,46c0,0,67,47,67,129c0,0,0,43,-26,67c0,0,-26,24,-79,24H242c0,0,-32,-27,-51,-69c0,0,-20,-41,-20,-77c0,0,0,-64,46,-92c0,0,46,-28,142,-28Zm11,561c0,0,81,0,115,47c0,0,34,47,34,141c0,0,0,100,-35,142c0,0,-35,42,-113,42c0,0,-78,0,-114,-43c0,0,-37,-42,-37,-141c0,0,0,-98,36,-143c0,0,36,-45,114,-45ZM359,-329c0,0,-143,0,-218,44c0,0,-75,43,-75,125c0,0,0,39,27,78c0,0,26,38,98,89c0,0,-43,14,-72,48c0,0,-29,35,-29,74L208,262c0,0,-118,55,-118,217c0,0,0,115,73,178c0,0,73,63,211,63c0,0,28,0,71,-6c0,0,44,-6,67,-13l165,83l26,-32L599,644c0,0,50,-56,50,-165c0,0,0,-120,-72,-182c0,0,-73,-62,-208,-62c0,0,-62,0,-114,11L208,148c0,0,2,-13,29,-24c0,0,27,-12,67,-12H512c0,0,113,0,168,-49c0,0,55,-49,55,-134c0,0,0,-79,-44,-137c0,0,-43,-58,-128,-90c0,0,-84,-31,-204,-31Z" 
id="f2_23"
transform="scale(0.001,-0.001)" />

<path d="M211,-20c0,0,-39,0,-64,25c0,0,-26,27,-26,64c0,0,0,38,26,64c0,0,26,26,64,26c0,0,37,0,64,-25c0,0,26,-26,26,-65c0,0,0,-37,-26,-64c0,0,-26,-25,-64,-25Zm0,556c0,0,-38,0,-64,26c0,0,-26,26,-26,64c0,0,0,37,26,64c0,0,25,27,64,27c0,0,38,0,64,-27c0,0,26,-27,26,-64c0,0,0,-38,-26,-64c0,0,-27,-26,-64,-26Z" 
id="f2_u"
transform="scale(0.001,-0.001)" />

<path d="M536,63c0,0,127,0,191,54c0,0,63,54,63,168c0,0,0,105,-70,154c0,0,-70,49,-225,49H316V67c0,0,103,-4,220,-4ZM480,555c0,0,121,0,178,48c0,0,57,48,57,155c0,0,0,91,-58,133c0,0,-57,42,-186,42H316V555ZM554,-4L235,0H44V40L172,60V941L44,960v40H501c0,0,191,0,279,-56c0,0,88,-56,88,-179c0,0,0,-88,-55,-149c0,0,-54,-62,-151,-83c0,0,135,-14,209,-79c0,0,73,-65,73,-166c0,0,0,-144,-99,-219C845,69,745,-4,554,-4Z" 
id="f2_12"
transform="scale(0.001,-0.001)" />

<path d="M350,-14c0,0,-142,0,-269,31L73,228h49L156,87c0,0,29,-16,82,-28c0,0,54,-12,100,-12c0,0,117,0,173,54c0,0,56,53,56,178c0,0,0,99,-52,150c0,0,-51,51,-159,56l-107,6v61l107,7c0,0,84,5,124,52c0,0,41,48,41,145c0,0,0,101,-44,147c0,0,-44,45,-139,45c0,0,-40,0,-83,-10c0,0,-43,-11,-76,-29L153,786H104V979c0,0,74,19,127,26c0,0,54,6,107,6c0,0,321,0,321,-246c0,0,0,-104,-57,-165c0,0,-57,-62,-162,-77c0,0,136,-16,200,-78c0,0,64,-62,64,-173c0,0,0,-135,-92,-211c0,0,-93,-75,-262,-75Z" 
id="f2_n"
transform="scale(0.001,-0.001)" />

<path d="M410,-14c0,0,-86,0,-175,14C235,0,145,14,81,38V307h66L181,146c0,0,31,-37,94,-62c0,0,64,-24,132,-24c0,0,214,0,214,177c0,0,0,55,-41,93c0,0,-41,38,-128,68c0,0,-128,42,-185,68c0,0,-56,27,-95,63c0,0,-38,36,-62,87c0,0,-23,51,-23,125c0,0,0,132,90,201c0,0,90,69,263,69c0,0,125,0,278,-32V741H651L618,878c0,0,-76,56,-178,56c0,0,-92,0,-141,-34c0,0,-49,-34,-49,-104c0,0,0,-50,41,-86c0,0,41,-35,128,-63c0,0,171,-56,235,-97c0,0,64,-41,97,-103c0,0,34,-61,34,-143c0,0,0,-318,-375,-318Z" 
id="f4_1j"
transform="scale(0.001,-0.001)" />

<path d="M379,60c0,0,59,0,84,64c0,0,24,65,24,231c0,0,0,164,-24,227c0,0,-24,63,-84,63c0,0,-57,0,-80,-60c0,0,-22,-61,-22,-230c0,0,0,-173,23,-234c0,0,22,-61,79,-61Zm-2,-74c0,0,-161,0,-240,91c0,0,-79,91,-79,277c0,0,0,186,80,276c0,0,81,90,245,90c0,0,167,0,245,-93c0,0,78,-93,78,-273c0,0,0,-188,-81,-278c0,0,-81,-90,-248,-90Z" 
id="f4_2b"
transform="scale(0.001,-0.001)" />

<path d="M30,0V49l76,18V992l-72,18v50H322V67L398,49V0Z" 
id="f4_28"
transform="scale(0.001,-0.001)" />

<path d="M287,-18c0,0,-194,0,-194,206V634L23,652v49H309V217c0,0,0,-63,26,-98c0,0,27,-35,76,-35c0,0,57,0,113,25V634l-64,18v49H740V67L809,49V0H536L526,61L475,35c0,0,-104,-53,-188,-53Z" 
id="f4_2h"
transform="scale(0.001,-0.001)" />

<path d="M327,-14c0,0,-101,0,-156,45c0,0,-55,45,-55,131V624H25v48l108,29l87,159H332V701H480V624H332V176c0,0,0,-49,20,-73c0,0,20,-25,53,-25c0,0,40,0,97,12V26c0,0,-22,-15,-76,-27c0,0,-55,-13,-99,-13Z" 
id="f4_2g"
transform="scale(0.001,-0.001)" />

<path d="M34,0V49l76,18V634L38,652v49H325V67L402,49V0ZM217,831c0,0,-48,0,-81,33c0,0,-34,33,-34,82c0,0,0,48,34,81c0,0,34,33,81,33c0,0,48,0,81,-33c0,0,33,-33,33,-81c0,0,0,-47,-33,-81c0,0,-32,-34,-81,-34Z" 
id="f4_25"
transform="scale(0.001,-0.001)" />

<path d="M41,0V49l69,18V634L41,652v49H313l11,-61l50,26c0,0,105,54,188,54c0,0,194,0,194,-207V67L827,49V0H478V49l63,18V484c0,0,0,63,-27,98c0,0,-26,35,-75,35c0,0,-57,0,-114,-25V67L389,49V0Z" 
id="f4_2a"
transform="scale(0.001,-0.001)" />

<path d="M248,-20c0,0,-52,0,-87,34c0,0,-36,36,-36,88c0,0,0,52,36,88c0,0,35,36,87,36c0,0,52,0,88,-36c0,0,36,-36,36,-88c0,0,0,-51,-36,-87c0,0,-35,-35,-88,-35Zm0,488c0,0,-52,0,-87,36c0,0,-36,36,-36,88c0,0,0,52,35,88c0,0,35,36,88,36c0,0,53,0,89,-36c0,0,35,-37,35,-88c0,0,0,-51,-36,-87c0,0,-35,-37,-88,-37Z" 
id="f4_u"
transform="scale(0.001,-0.001)" />

<path d="M404,60c0,0,54,0,75,59c0,0,21,59,21,177c0,0,0,106,-29,162c0,0,-29,57,-87,57c0,0,-55,0,-112,-17v-4c0,0,0,-434,132,-434Zm3,-74c0,0,-172,0,-263,130c0,0,-92,130,-92,378c0,0,0,161,48,278c0,0,48,117,135,178c0,0,87,61,199,61c0,0,117,0,225,-32V751H594L562,896c0,0,-52,39,-113,39c0,0,-75,0,-121,-95c0,0,-47,-96,-55,-267c0,0,81,35,161,35c0,0,137,0,211,-77c0,0,74,-77,74,-220c0,0,0,-158,-81,-242c0,0,-81,-83,-231,-83Z" 
id="f4_q"
transform="scale(0.001,-0.001)" />

<path d="M420,-22L89,941L1,960v40H383V960L236,941L474,236L744,930h33L1037,236l227,705l-156,19v40h331V960l-87,-19L1025,-22H985L726,666L460,-22Z" 
id="f2_1n"
transform="scale(0.001,-0.001)" />

<path d="M383,64c0,0,44,0,87,7c0,0,43,7,65,17V645c0,0,-67,13,-152,13c0,0,-194,0,-194,-309c0,0,0,-143,48,-214c0,0,47,-71,146,-71Zm56,-389v35l96,18V-77c0,0,0,73,7,124c0,0,-79,-61,-200,-61c0,0,-287,0,-287,362c0,0,0,180,81,276c0,0,81,96,237,96c0,0,84,0,166,-18l67,33h53V-272l77,-18v-35Z" 
id="f2_2d"
transform="scale(0.001,-0.001)" />

<path d="M360,-14L72,649L0,668v33H327V668L216,648L420,164L615,649L504,668v33H764V668L697,652L416,-14Z" 
id="f2_2i"
transform="scale(0.001,-0.001)" />

<path d="M383,64c0,0,85,0,152,28V645c0,0,-67,13,-152,13c0,0,-194,0,-194,-314c0,0,0,-141,48,-211c0,0,48,-69,146,-69ZM342,-14c0,0,-287,0,-287,358c0,0,0,184,82,280c0,0,81,96,239,96c0,0,81,0,163,-18c0,0,-4,25,-4,124v182l-118,18v34H659V52L745,33V0H548l-9,52c0,0,-84,-66,-197,-66Z" 
id="f2_20"
transform="scale(0.001,-0.001)" />

<path d="M448,506c0,0,134,0,190,49c0,0,57,50,57,168c0,0,0,114,-56,162c0,0,-56,48,-195,48H316V506ZM777,0L496,438H316V60L468,40V0H54V40L172,60V941L44,960v40H476c0,0,188,0,277,-63c0,0,90,-64,90,-204c0,0,0,-100,-54,-173c0,0,-55,-73,-151,-101L909,60L1017,40V0Z" 
id="f2_1i"
transform="scale(0.001,-0.001)" />

<path d="M431,0V33L535,52V499c0,0,0,62,-32,96c0,0,-32,33,-95,33c0,0,-66,0,-163,-22V52L350,33V0H32V33l89,19V649L32,668v33H237l6,-57c0,0,56,32,119,54c0,0,62,22,110,22c0,0,52,0,95,-20c0,0,44,-19,66,-62c0,0,57,32,134,57c0,0,77,25,128,25c0,0,179,0,179,-207V52l90,-19V0H846V33L950,52V499c0,0,0,129,-119,129c0,0,-19,0,-45,-3c0,0,-26,-3,-52,-7c0,0,-25,-4,-49,-8c0,0,-23,-5,-39,-8c0,0,13,-41,13,-89V52L764,33V0Z" 
id="f2_29"
transform="scale(0.001,-0.001)" />

<path d="M-12,338v55H777V338Z" 
id="f3_4y"
transform="scale(0.001,-0.001)" />

<path d="M235,0V40L394,60V936H356c0,0,-189,0,-258,-15L78,766H28v234H908V766H857L837,921c0,0,-22,5,-98,9c0,0,-75,4,-165,4H538V60L697,40V0Z" 
id="f2_1k"
transform="scale(0.001,-0.001)" />

<path d="M148,-329c0,0,-58,0,-114,13v151H69l24,-71c0,0,23,-17,64,-17c0,0,39,0,72,22c0,0,33,23,60,67c0,0,27,44,68,157L90,649L19,668v33H344V668L233,648L423,158L606,649L497,668v33H758V668L685,652L411,-43c0,0,-48,-124,-84,-177c0,0,-36,-54,-79,-82c0,0,-44,-27,-100,-27Z" 
id="f2_2l"
transform="scale(0.001,-0.001)" />

<path d="M498,506c0,0,115,0,164,47c0,0,48,48,48,166c0,0,0,112,-46,156c0,0,-46,43,-169,43H390V506ZM793,0L514,423H390V74L518,54V0H36V54L154,74V926L26,945v55H504c0,0,221,0,330,-68c0,0,109,-68,109,-212c0,0,0,-215,-201,-276L1009,74L1117,54V0Z" 
id="f4_1i"
transform="scale(0.001,-0.001)" />

<path d="M434,423c0,0,0,101,-7,142c0,0,-6,40,-22,60c0,0,-16,19,-45,19c0,0,-44,0,-66,-48c0,0,-22,-49,-22,-173ZM389,-14c0,0,-172,0,-254,89c0,0,-83,90,-83,279c0,0,0,184,79,274c0,0,79,91,238,91c0,0,142,0,206,-76c0,0,64,-76,64,-237V345H271V333c0,0,0,-111,18,-158c0,0,18,-47,58,-72c0,0,40,-25,110,-25c0,0,66,0,166,22V42C623,42,582,18,517,1c0,0,-66,-15,-128,-15Z" 
id="f4_21"
transform="scale(0.001,-0.001)" />

<path d="M41,0V49l69,18V634L41,652v49H313l11,-61l50,26c0,0,105,54,188,54c0,0,125,0,167,-91c0,0,153,91,258,91c0,0,189,0,189,-207V67l71,-17V0H898V50l63,17V484c0,0,0,63,-24,98c0,0,-25,35,-74,35c0,0,-55,0,-119,-31c0,0,7,-32,7,-73V67L821,50V0H473V50l63,17V484c0,0,0,63,-25,98c0,0,-24,35,-73,35c0,0,-49,0,-113,-29V67L389,49V0Z" 
id="f4_29"
transform="scale(0.001,-0.001)" />

<path d="M41,0V49l91,18V634L41,652v49H336l8,-145c0,0,80,89,144,128c0,0,64,40,117,40h40V468H604l-45,94c0,0,-47,0,-106,-21c0,0,-60,-20,-105,-48V67L460,49V0Z" 
id="f4_2e"
transform="scale(0.001,-0.001)" />

<path d="M56,294V424H453V294Z" 
id="f4_h"
transform="scale(0.001,-0.001)" />

<path d="M231,0V54L390,74V921H352c0,0,-171,0,-240,-15L92,721H24v279H996V721H927L907,906c0,0,-62,14,-245,14H626V74L785,54V0Z" 
id="f4_1k"
transform="scale(0.001,-0.001)" />

<path d="M345,75c0,0,50,0,110,26V351l-63,-2c0,0,-72,-3,-100,-38c0,0,-28,-35,-28,-113c0,0,0,-63,22,-93c0,0,23,-30,59,-30ZM266,-14c0,0,-217,0,-217,208c0,0,0,79,32,126c0,0,32,48,93,71c0,0,60,22,190,25l91,2V521c0,0,0,126,-104,126c0,0,-62,0,-140,-39L183,521H134V691c0,0,112,17,165,21c0,0,53,5,108,5c0,0,264,0,264,-194V67L741,49V0H483L466,54C466,54,408,14,361,0c0,0,-47,-14,-95,-14Z" 
id="f4_1x"
transform="scale(0.001,-0.001)" />

<path d="M425,-14c0,0,-187,0,-280,90c0,0,-93,90,-93,276c0,0,0,115,42,198c0,0,43,82,121,126c0,0,78,44,182,44c0,0,104,0,227,-26V486H571L539,609c0,0,-25,19,-50,26c0,0,-24,7,-65,7c0,0,-44,0,-79,-35c0,0,-36,-35,-56,-98c0,0,-20,-64,-20,-153c0,0,0,-150,47,-214c0,0,47,-64,148,-64c0,0,103,0,176,21V42C640,42,606,15,547,0c0,0,-59,-14,-122,-14Z" 
id="f4_1z"
transform="scale(0.001,-0.001)" />

<path d="M440,-22L109,926L22,945v55H471V945L354,926L567,330L801,915h93L1129,332l177,594l-126,19v55h324V945l-87,-19L1120,-22h-92L779,594L532,-22Z" 
id="f4_1n"
transform="scale(0.001,-0.001)" />

<path d="M276,-14c0,0,-57,0,-125,13C151,-1,83,10,48,23V214H97l28,-98c0,0,26,-26,69,-44c0,0,42,-17,86,-17c0,0,65,0,97,28c0,0,32,28,32,71c0,0,0,41,-31,65c0,0,-30,25,-133,57c0,0,-108,34,-154,92c0,0,-45,58,-45,143c0,0,0,95,71,152c0,0,71,57,183,57c0,0,77,0,207,-22V518H457l-24,82c0,0,-21,22,-60,35c0,0,-40,14,-75,14c0,0,-53,0,-79,-22c0,0,-26,-22,-26,-59c0,0,0,-40,32,-65c0,0,32,-26,132,-55c0,0,109,-34,155,-89c0,0,45,-55,45,-137c0,0,0,-117,-72,-177c0,0,-72,-59,-209,-59Z" 
id="f4_2f"
transform="scale(0.001,-0.001)" />

<path d="M159,-329c0,0,-61,0,-123,14v180H81l32,-94c0,0,21,-17,55,-17c0,0,28,0,50,13c0,0,21,14,40,39c0,0,20,25,37,62c0,0,17,37,50,110L64,634L15,652v49H374V652L290,632L455,244L602,634l-82,18v49H749V652L698,637L421,-44c0,0,-47,-121,-83,-176c0,0,-36,-55,-80,-82c0,0,-43,-27,-99,-27Z" 
id="f4_2l"
transform="scale(0.001,-0.001)" />

<path d="M41,0V49l69,18V992l-72,18v50H325V756c0,0,0,-49,-4,-116l51,26c0,0,106,54,190,54c0,0,194,0,194,-207V67L827,49V0H478V49l63,18V484c0,0,0,63,-27,98c0,0,-26,35,-75,35c0,0,-57,0,-114,-25V67L389,49V0Z" 
id="f4_24"
transform="scale(0.001,-0.001)" />

<path d="M160,0L581,834H186L152,715H87v285H727V941L338,0Z" 
id="f4_r"
transform="scale(0.001,-0.001)" />

<path d="M-15,0l6,40L121,60L275,941L151,960l6,40H558l-6,-40L419,941L350,549H821l68,392L765,960l6,40h401l-6,-40L1033,941L879,60L1003,40L996,0H596l6,40L735,60l74,421H338L264,60L388,40L382,0Z" 
id="f5_18"
transform="scale(0.001,-0.001)" />

<path d="M459,63c0,0,143,0,210,55c0,0,67,56,67,185c0,0,0,101,-66,146c0,0,-66,46,-190,46H341L266,67c0,0,114,-4,193,-4Zm18,499c0,0,144,0,206,49c0,0,61,48,61,170c0,0,0,77,-48,115c0,0,-48,37,-160,37H419L353,562ZM459,-4L173,0H14l8,40l99,20L277,941L151,960l8,40H570c0,0,330,0,330,-210c0,0,0,-105,-66,-174c0,0,-66,-69,-184,-85c0,0,115,-9,179,-69c0,0,63,-59,63,-157c0,0,0,-160,-108,-235C784,70,675,-4,459,-4Z" 
id="f5_12"
transform="scale(0.001,-0.001)" />

<path d="M62,0L176,649L88,668l6,33H301L278,543c0,0,55,84,124,130c0,0,69,47,138,47c0,0,37,0,59,-6L566,530H534l-28,95c0,0,-60,0,-124,-46c0,0,-63,-45,-116,-120L186,0Z" 
id="f5_2e"
transform="scale(0.001,-0.001)" />

<path d="M521,-14c0,0,-205,0,-320,107C201,93,85,200,85,390c0,0,0,185,77,326c0,0,77,142,220,219c0,0,142,76,324,76c0,0,158,0,327,-38L1000,755H951V884c0,0,-46,32,-112,50c0,0,-65,17,-137,17c0,0,-135,0,-242,-72c0,0,-107,-72,-166,-203c0,0,-60,-132,-60,-301c0,0,0,-160,78,-244c0,0,78,-84,222,-84c0,0,85,0,166,25c0,0,82,26,133,65l53,149h49L889,52C889,52,803,20,705,3c0,0,-99,-17,-184,-17Z" 
id="f5_13"
transform="scale(0.001,-0.001)" />

<path d="M500,49c0,0,111,0,205,75c0,0,95,75,154,216c0,0,59,140,59,280c0,0,0,150,-76,240c0,0,-77,91,-202,91c0,0,-111,0,-204,-75c0,0,-93,-76,-151,-217c0,0,-59,-141,-59,-284c0,0,0,-147,75,-237c0,0,75,-89,199,-89Zm-5,-63c0,0,-121,0,-216,50c0,0,-96,50,-149,142c0,0,-53,91,-53,205c0,0,0,180,74,326c0,0,75,145,204,224c0,0,129,78,295,78c0,0,120,0,216,-50c0,0,96,-51,149,-142c0,0,53,-91,53,-206c0,0,0,-177,-75,-325C993,288,918,140,789,63c0,0,-129,-77,-294,-77Z" 
id="f5_1f"
transform="scale(0.001,-0.001)" />

<path d="M0,334v73H1700V334Z" 
id="f6_3k"
transform="scale(0.001,-0.001)" />

<path d="M968,-20c0,0,42,100,87,170c0,0,45,70,144,184H56v73H1199c0,0,-106,122,-148,189c0,0,-43,67,-83,166h60c0,0,87,-108,217,-218c0,0,130,-110,206,-154V349c0,0,-99,-56,-217,-159c0,0,-117,-102,-206,-210Z" 
id="f6_34"
transform="scale(0.001,-0.001)" />

<path d="M355,0V355H0v72H355V784h72V427H782V355H427V0Z" 
id="f6_f"
transform="scale(0.001,-0.001)" />

<path d="M26,0V55L154,74V926L26,946v54H518V946L389,926V555H798V926L670,946v54h493V946L1034,926V74L1163,55V0H670V55L798,74V473H389V74L518,55V0Z" 
id="f4_18"
transform="scale(0.001,-0.001)" />

<path d="M559,77c0,0,87,0,129,53c0,0,42,53,42,162c0,0,0,99,-49,147c0,0,-50,49,-163,49H389V82c0,0,108,-5,170,-5ZM499,570c0,0,80,0,118,42c0,0,38,42,38,141c0,0,0,88,-38,126c0,0,-37,39,-124,39H389V570ZM561,-3L221,0H25V54L154,74V926L25,945v55H511c0,0,199,0,294,-53c0,0,95,-53,95,-173c0,0,0,-89,-56,-154c0,0,-56,-65,-150,-85c0,0,139,-14,211,-76c0,0,71,-61,71,-167c0,0,0,-146,-107,-221C869,71,762,-3,561,-3Z" 
id="f4_12"
transform="scale(0.001,-0.001)" />

<path d="M382,151V454H81V560H382V863H489V560H791V454H489V151Z" 
id="f4_f"
transform="scale(0.001,-0.001)" />


</defs>
</svg>