<?xml version="1.0" encoding="UTF-8" standalone="no"?>
<!DOCTYPE svg PUBLIC "-//W3C//DTD SVG 1.1//EN"
"http://www.w3.org/Graphics/SVG/1.1/DTD/svg11.dtd">
<svg viewBox="0 0 909 1286" version="1.1" xmlns="http://www.w3.org/2000/svg" xmlns:xlink="http://www.w3.org/1999/xlink">
<defs>
<clipPath id="c0_109"><path d="M191.9,736.8v-25h26.5v25Z" /></clipPath>
<clipPath id="c1_109"><path d="M55.2,1044.1v-29.8H303.4v29.8Z" /></clipPath>
<style type="text/css"><![CDATA[
.g0_109{
fill: #D9D9D9;
}
.g1_109{
fill: none;
stroke: #000000;
stroke-width: 0.7638889;
stroke-linecap: butt;
stroke-linejoin: miter;
}
.g2_109{
}
]]></style>
</defs>
<image preserveAspectRatio="none" x="747" y="1196" width="96" height="59" xlink:href="img/1.png" />
<image preserveAspectRatio="none" x="336" y="41" width="259" height="51" xlink:href="img/2.png" />
<image preserveAspectRatio="none" x="342" y="50" width="247" height="27" xlink:href="img/3.png" />
<image preserveAspectRatio="none" x="341" y="45" width="239" height="42" xlink:href="img/4.png" />
<g fill="#FFFFFF" >
<use xlink:href="#f0_j" transform="matrix(11.5,0,0,11.5,355.1,70.1)" />
<use xlink:href="#f0_i" transform="matrix(11.5,0,0,11.5,364.3,70.1)" />
<use xlink:href="#f0_2n" transform="matrix(11.5,0,0,11.5,374.1,70.1)" />
<use xlink:href="#f0_t" transform="matrix(11.5,0,0,11.5,382.6,70.1)" />
<use xlink:href="#f0_oj" transform="matrix(11.5,0,0,11.5,391,70.1)" />
<use xlink:href="#f0_3e" transform="matrix(11.5,0,0,11.5,396.5,70.1)" />
<use xlink:href="#f0_1c" transform="matrix(11.5,0,0,11.5,406.1,70.1)" />
<use xlink:href="#f0_1c" transform="matrix(11.5,0,0,11.5,410.8,70.1)" />
<use xlink:href="#f0_oj" transform="matrix(11.5,0,0,11.5,415.6,70.1)" />
<use xlink:href="#f0_rz" transform="matrix(11.5,0,0,11.5,421.1,70.1)" />
<use xlink:href="#f0_rx" transform="matrix(11.5,0,0,11.5,429.9,70.1)" />
<use xlink:href="#f0_ry" transform="matrix(11.5,0,0,11.5,438.7,70.1)" />
<use xlink:href="#f0_s1" transform="matrix(11.5,0,0,11.5,447.5,70.1)" />
<use xlink:href="#f0_t" transform="matrix(11.5,0,0,11.5,460.4,70.1)" />
<use xlink:href="#f0_3e" transform="matrix(11.5,0,0,11.5,468.8,70.1)" />
<use xlink:href="#f0_5" transform="matrix(11.5,0,0,11.5,478.3,70.1)" />
<use xlink:href="#f0_1x" transform="matrix(11.5,0,0,11.5,489,70.1)" />
<use xlink:href="#f0_1c" transform="matrix(11.5,0,0,11.5,504.4,70.1)" />
<use xlink:href="#f0_1y" transform="matrix(11.5,0,0,11.5,509.1,70.1)" />
<use xlink:href="#f0_5" transform="matrix(11.5,0,0,11.5,520.8,70.1)" />
<use xlink:href="#f0_2t" transform="matrix(11.5,0,0,11.5,531.5,70.1)" />
<use xlink:href="#f0_1c" transform="matrix(11.5,0,0,11.5,540.2,70.1)" />
<use xlink:href="#f0_24" transform="matrix(11.5,0,0,11.5,545,70.1)" />
<use xlink:href="#f0_1y" transform="matrix(11.5,0,0,11.5,556.7,70.1)" />
</g>
<image preserveAspectRatio="none" x="554" y="45" width="36" height="42" xlink:href="img/5.png" />
<g fill="#FFFFFF" >
<use xlink:href="#f1_p" transform="matrix(11,0,0,11,770.3,1227.6)" />
<use xlink:href="#f1_j" transform="matrix(11,0,0,11,783.5,1227.6)" />
<use xlink:href="#f1_l" transform="matrix(11,0,0,11,794.1,1227.6)" />
<use xlink:href="#f1_l" transform="matrix(11,0,0,11,802.9,1227.6)" />
</g>
<path fill-rule="evenodd" d="M52.8,1193.5H856.9v-.8H52.8v.8Z" class="g0_109" />
<path d="M37.9,99.4L873,98.5" class="g1_109" />
<g fill="#000000" >
<use xlink:href="#f2_l" transform="matrix(12,0,0,12,55,557.5)" />
<use xlink:href="#f2_s" transform="matrix(12,0,0,12,64.2,557.5)" />
<use xlink:href="#f2_i" transform="matrix(12,0,0,12,73.4,557.5)" />
<use xlink:href="#f3_1n" transform="matrix(12,0,0,12,82.9,557.5)" />
<use xlink:href="#f3_2e" transform="matrix(12,0,0,12,99.8,557.5)" />
<use xlink:href="#f3_25" transform="matrix(12,0,0,12,106.4,557.5)" />
<use xlink:href="#f3_2g" transform="matrix(12,0,0,12,110.8,557.5)" />
<use xlink:href="#f3_21" transform="matrix(12,0,0,12,116.2,557.5)" />
<use xlink:href="#f3_2g" transform="matrix(12,0,0,12,128.7,557.5)" />
<use xlink:href="#f3_24" transform="matrix(12,0,0,12,134.2,557.5)" />
<use xlink:href="#f3_21" transform="matrix(12,0,0,12,143,557.5)" />
<use xlink:href="#f3_2a" transform="matrix(12,0,0,12,155.8,557.5)" />
<use xlink:href="#f3_1x" transform="matrix(12,0,0,12,164.6,557.5)" />
<use xlink:href="#f3_29" transform="matrix(12,0,0,12,173,557.5)" />
<use xlink:href="#f3_21" transform="matrix(12,0,0,12,186.9,557.5)" />
<use xlink:href="#f3_2b" transform="matrix(12,0,0,12,199.8,557.5)" />
<use xlink:href="#f3_22" transform="matrix(12,0,0,12,209.3,557.5)" />
<use xlink:href="#f3_29" transform="matrix(12,0,0,12,219.9,557.5)" />
<use xlink:href="#f3_2b" transform="matrix(12,0,0,12,233.5,557.5)" />
<use xlink:href="#f3_2a" transform="matrix(12,0,0,12,243.3,557.5)" />
<use xlink:href="#f3_2b" transform="matrix(12,0,0,12,252.1,557.5)" />
<use xlink:href="#f3_29" transform="matrix(12,0,0,12,262,557.5)" />
<use xlink:href="#f3_21" transform="matrix(12,0,0,12,275.6,557.5)" />
<use xlink:href="#f3_2e" transform="matrix(12,0,0,12,283.7,557.5)" />
<use xlink:href="#f3_2f" transform="matrix(12,0,0,12,289.9,557.5)" />
<use xlink:href="#f3_2h" transform="matrix(12,0,0,12,301.6,557.5)" />
<use xlink:href="#f3_2f" transform="matrix(12,0,0,12,310.8,557.5)" />
<use xlink:href="#f3_21" transform="matrix(12,0,0,12,317.7,557.5)" />
<use xlink:href="#f3_20" transform="matrix(12,0,0,12,325.8,557.5)" />
<use xlink:href="#f3_22" transform="matrix(12,0,0,12,340.1,557.5)" />
<use xlink:href="#f3_2b" transform="matrix(12,0,0,12,345.6,557.5)" />
<use xlink:href="#f3_2e" transform="matrix(12,0,0,12,355.1,557.5)" />
<use xlink:href="#f3_23" transform="matrix(12,0,0,12,366,557.5)" />
<use xlink:href="#f3_21" transform="matrix(12,0,0,12,375.2,557.5)" />
<use xlink:href="#f3_2g" transform="matrix(12,0,0,12,382.9,557.5)" />
<use xlink:href="#f3_2g" transform="matrix(12,0,0,12,388,557.5)" />
<use xlink:href="#f3_25" transform="matrix(12,0,0,12,393.5,557.5)" />
<use xlink:href="#f3_2a" transform="matrix(12,0,0,12,398.3,557.5)" />
<use xlink:href="#f3_23" transform="matrix(12,0,0,12,407.1,557.5)" />
<use xlink:href="#f3_2g" transform="matrix(12,0,0,12,421,557.5)" />
<use xlink:href="#f3_24" transform="matrix(12,0,0,12,426.1,557.5)" />
<use xlink:href="#f3_21" transform="matrix(12,0,0,12,434.9,557.5)" />
<use xlink:href="#f3_22" transform="matrix(12,0,0,12,448.1,557.5)" />
<use xlink:href="#f3_2b" transform="matrix(12,0,0,12,453.6,557.5)" />
<use xlink:href="#f3_28" transform="matrix(12,0,0,12,463.5,557.5)" />
<use xlink:href="#f3_28" transform="matrix(12,0,0,12,468.3,557.5)" />
<use xlink:href="#f3_2b" transform="matrix(12,0,0,12,472.7,557.5)" />
<use xlink:href="#f3_2j" transform="matrix(12,0,0,12,482.2,557.5)" />
<use xlink:href="#f3_25" transform="matrix(12,0,0,12,495.7,557.5)" />
<use xlink:href="#f3_2a" transform="matrix(12,0,0,12,500.5,557.5)" />
<use xlink:href="#f3_23" transform="matrix(12,0,0,12,509.7,557.5)" />
<use xlink:href="#f3_2c" transform="matrix(12,0,0,12,523.6,557.5)" />
<use xlink:href="#f3_2b" transform="matrix(12,0,0,12,532.7,557.5)" />
<use xlink:href="#f3_28" transform="matrix(12,0,0,12,542.3,557.5)" />
<use xlink:href="#f3_2l" transform="matrix(12,0,0,12,547,557.5)" />
<use xlink:href="#f3_29" transform="matrix(12,0,0,12,556.2,557.5)" />
<use xlink:href="#f3_21" transform="matrix(12,0,0,12,570.1,557.5)" />
<use xlink:href="#f3_2e" transform="matrix(12,0,0,12,578.2,557.5)" />
<use xlink:href="#f3_2f" transform="matrix(12,0,0,12,584.8,557.5)" />
<use xlink:href="#f3_u" transform="matrix(12,0,0,12,596.5,557.5)" />
<use xlink:href="#f3_c" transform="matrix(12,0,0,12,55,578.4)" />
<use xlink:href="#f3_25" transform="matrix(12,0,0,12,61.6,578.4)" />
<use xlink:href="#f3_d" transform="matrix(12,0,0,12,66,578.4)" />
<use xlink:href="#f3_12" transform="matrix(12,0,0,12,77,578.4)" />
<use xlink:href="#f3_1x" transform="matrix(12,0,0,12,89.1,578.4)" />
<use xlink:href="#f3_27" transform="matrix(12,0,0,12,97.1,578.4)" />
<use xlink:href="#f3_21" transform="matrix(12,0,0,12,106.3,578.4)" />
<use xlink:href="#f3_28" transform="matrix(12,0,0,12,114.7,578.4)" />
<use xlink:href="#f3_25" transform="matrix(12,0,0,12,119.5,578.4)" />
<use xlink:href="#f3_2g" transform="matrix(12,0,0,12,123.9,578.4)" />
<use xlink:href="#f3_21" transform="matrix(12,0,0,12,129.4,578.4)" />
<use xlink:href="#f3_c" transform="matrix(12,0,0,12,55,599.7)" />
<use xlink:href="#f3_25" transform="matrix(12,0,0,12,61.6,599.7)" />
<use xlink:href="#f3_25" transform="matrix(12,0,0,12,66.4,599.7)" />
<use xlink:href="#f3_d" transform="matrix(12,0,0,12,70.8,599.7)" />
<use xlink:href="#f3_1e" transform="matrix(12,0,0,12,81.7,599.7)" />
<use xlink:href="#f3_21" transform="matrix(12,0,0,12,95,599.7)" />
<use xlink:href="#f3_2b" transform="matrix(12,0,0,12,103,599.7)" />
<use xlink:href="#f3_2c" transform="matrix(12,0,0,12,112.5,599.7)" />
<use xlink:href="#f3_2e" transform="matrix(12,0,0,12,121.7,599.7)" />
<use xlink:href="#f3_21" transform="matrix(12,0,0,12,127.9,599.7)" />
<use xlink:href="#f3_2a" transform="matrix(12,0,0,12,136,599.7)" />
<use xlink:href="#f3_21" transform="matrix(12,0,0,12,144.8,599.7)" />
<use xlink:href="#f2_1j" transform="matrix(12,0,0,12,55,620.9)" />
<use xlink:href="#f2_2b" transform="matrix(12,0,0,12,65.3,620.9)" />
<use xlink:href="#f2_28" transform="matrix(12,0,0,12,74.5,620.9)" />
<use xlink:href="#f2_2h" transform="matrix(12,0,0,12,79.2,620.9)" />
<use xlink:href="#f2_2g" transform="matrix(12,0,0,12,89.5,620.9)" />
<use xlink:href="#f2_25" transform="matrix(12,0,0,12,95.7,620.9)" />
<use xlink:href="#f2_2b" transform="matrix(12,0,0,12,100.8,620.9)" />
<use xlink:href="#f2_2a" transform="matrix(12,0,0,12,109.9,620.9)" />
<use xlink:href="#f2_u" transform="matrix(12,0,0,12,120.2,620.9)" />
<use xlink:href="#f3_c" transform="matrix(12,0,0,12,55,653.9)" />
<use xlink:href="#f3_25" transform="matrix(12,0,0,12,61.6,653.9)" />
<use xlink:href="#f3_d" transform="matrix(12,0,0,12,66,653.9)" />
<use xlink:href="#f3_1g" transform="matrix(12,0,0,12,77,653.9)" />
<use xlink:href="#f3_24" transform="matrix(12,0,0,12,87.2,653.9)" />
<use xlink:href="#f3_21" transform="matrix(12,0,0,12,96,653.9)" />
<use xlink:href="#f3_2a" transform="matrix(12,0,0,12,104.4,653.9)" />
<use xlink:href="#f3_2b" transform="matrix(12,0,0,12,113.2,653.9)" />
<use xlink:href="#f3_28" transform="matrix(12,0,0,12,123.1,653.9)" />
<use xlink:href="#f3_a" transform="matrix(12,0,0,12,132.3,653.9)" />
<use xlink:href="#f3_16" transform="matrix(12,0,0,12,151,653.9)" />
<use xlink:href="#f3_2b" transform="matrix(12,0,0,12,160.9,653.9)" />
<use xlink:href="#f3_2e" transform="matrix(12,0,0,12,170.4,653.9)" />
<use xlink:href="#f3_29" transform="matrix(12,0,0,12,177,653.9)" />
<use xlink:href="#f3_1x" transform="matrix(12,0,0,12,190.5,653.9)" />
<use xlink:href="#f3_28" transform="matrix(12,0,0,12,198.9,653.9)" />
<use xlink:href="#f3_20" transform="matrix(12,0,0,12,203.7,653.9)" />
<use xlink:href="#f3_21" transform="matrix(12,0,0,12,212.9,653.9)" />
<use xlink:href="#f3_24" transform="matrix(12,0,0,12,221.3,653.9)" />
<use xlink:href="#f3_2l" transform="matrix(12,0,0,12,230.5,653.9)" />
<use xlink:href="#f3_20" transform="matrix(12,0,0,12,239.2,653.9)" />
<use xlink:href="#f3_21" transform="matrix(12,0,0,12,248.4,653.9)" />
<use xlink:href="#f3_c" transform="matrix(12,0,0,12,59.8,675.2)" />
<use xlink:href="#f3_25" transform="matrix(12,0,0,12,66,675.2)" />
<use xlink:href="#f3_25" transform="matrix(12,0,0,12,70.8,675.2)" />
<use xlink:href="#f3_d" transform="matrix(12,0,0,12,75.6,675.2)" />
<use xlink:href="#f3_m" transform="matrix(12,0,0,12,86.5,675.2)" />
<use xlink:href="#f4_4y" transform="matrix(12,0,0,12,95.7,675.2)" />
<use xlink:href="#f3_13" transform="matrix(12,0,0,12,104.9,675.2)" />
<use xlink:href="#f3_24" transform="matrix(12,0,0,12,117,675.2)" />
<use xlink:href="#f3_28" transform="matrix(12,0,0,12,126.2,675.2)" />
<use xlink:href="#f3_2b" transform="matrix(12,0,0,12,130.6,675.2)" />
<use xlink:href="#f3_2e" transform="matrix(12,0,0,12,140.1,675.2)" />
<use xlink:href="#f3_2b" transform="matrix(12,0,0,12,146.3,675.2)" />
<use xlink:href="#f4_4y" transform="matrix(12,0,0,12,155.9,675.2)" />
<use xlink:href="#f3_l" transform="matrix(12,0,0,12,165.1,675.2)" />
<use xlink:href="#f3_g" transform="matrix(12,0,0,12,174.2,675.2)" />
<use xlink:href="#f3_n" transform="matrix(12,0,0,12,179,675.2)" />
<use xlink:href="#f4_4y" transform="matrix(12,0,0,12,188.2,675.2)" />
<use xlink:href="#f3_1y" transform="matrix(12,0,0,12,197.3,675.2)" />
<use xlink:href="#f3_2h" transform="matrix(12,0,0,12,206.1,675.2)" />
<use xlink:href="#f3_2g" transform="matrix(12,0,0,12,215.3,675.2)" />
<use xlink:href="#f3_1x" transform="matrix(12,0,0,12,220.8,675.2)" />
<use xlink:href="#f3_20" transform="matrix(12,0,0,12,228.9,675.2)" />
<use xlink:href="#f3_25" transform="matrix(12,0,0,12,238,675.2)" />
<use xlink:href="#f3_21" transform="matrix(12,0,0,12,242.8,675.2)" />
<use xlink:href="#f3_2a" transform="matrix(12,0,0,12,251.2,675.2)" />
<use xlink:href="#f3_21" transform="matrix(12,0,0,12,260,675.2)" />
<use xlink:href="#f3_c" transform="matrix(12,0,0,12,272.8,675.2)" />
<use xlink:href="#f3_2b" transform="matrix(12,0,0,12,279,675.2)" />
<use xlink:href="#f3_2e" transform="matrix(12,0,0,12,288.6,675.2)" />
<use xlink:href="#f3_13" transform="matrix(12,0,0,12,299.2,675.2)" />
<use xlink:href="#f3_24" transform="matrix(12,0,0,12,311.3,675.2)" />
<use xlink:href="#f3_28" transform="matrix(12,0,0,12,320.4,675.2)" />
<use xlink:href="#f3_2b" transform="matrix(12,0,0,12,324.8,675.2)" />
<use xlink:href="#f3_2e" transform="matrix(12,0,0,12,334.3,675.2)" />
<use xlink:href="#f3_2b" transform="matrix(12,0,0,12,340.6,675.2)" />
<use xlink:href="#f3_2c" transform="matrix(12,0,0,12,350.1,675.2)" />
<use xlink:href="#f3_2e" transform="matrix(12,0,0,12,359.2,675.2)" />
<use xlink:href="#f3_21" transform="matrix(12,0,0,12,365.5,675.2)" />
<use xlink:href="#f3_2a" transform="matrix(12,0,0,12,373.5,675.2)" />
<use xlink:href="#f3_21" transform="matrix(12,0,0,12,382.3,675.2)" />
<use xlink:href="#f3_d" transform="matrix(12,0,0,12,390.4,675.2)" />
<use xlink:href="#f2_l" transform="matrix(12,0,0,12,55,732.1)" />
<use xlink:href="#f2_t" transform="matrix(12,0,0,12,64.2,732.1)" />
<use xlink:href="#f3_c" transform="matrix(12,0,0,12,78.1,732.1)" />
<use xlink:href="#f3_1x" transform="matrix(12,0,0,12,84.4,732.1)" />
<use xlink:href="#f3_d" transform="matrix(12,0,0,12,92.4,732.1)" />
<use xlink:href="#f3_13" transform="matrix(12,0,0,12,103.1,732.1)" />
<use xlink:href="#f3_1x" transform="matrix(12,0,0,12,115.2,732.1)" />
<use xlink:href="#f3_28" transform="matrix(12,0,0,12,123.6,732.1)" />
<use xlink:href="#f3_1z" transform="matrix(12,0,0,12,128,732.1)" />
<use xlink:href="#f3_2h" transform="matrix(12,0,0,12,136.1,732.1)" />
<use xlink:href="#f3_28" transform="matrix(12,0,0,12,145.6,732.1)" />
<use xlink:href="#f3_1x" transform="matrix(12,0,0,12,150.3,732.1)" />
<use xlink:href="#f3_2g" transform="matrix(12,0,0,12,158.4,732.1)" />
<use xlink:href="#f3_21" transform="matrix(12,0,0,12,163.9,732.1)" />
<use xlink:href="#f5_14" transform="matrix(12,0,0,12,176.8,732.1)" />
<use xlink:href="#f3_2e" transform="matrix(7.9,0,0,7.9,188.2,733.5)" />
</g>
<g clip-path="url(#c0_109)">
<g fill="#000000" >
<use xlink:href="#f3_2b" transform="matrix(6.9,0,0,6.9,208.9,724.5)" />
<use xlink:href="#f3_17" transform="matrix(12,0,0,12,194.4,732.5)" />
</g>
</g>
<g fill="#000000" >
<use xlink:href="#f3_22" transform="matrix(12,0,0,12,217.5,732.1)" />
<use xlink:href="#f3_2b" transform="matrix(12,0,0,12,223,732.1)" />
<use xlink:href="#f3_2e" transform="matrix(12,0,0,12,232.5,732.1)" />
<use xlink:href="#f3_2g" transform="matrix(12,0,0,12,243.5,732.1)" />
<use xlink:href="#f3_24" transform="matrix(12,0,0,12,249,732.1)" />
<use xlink:href="#f3_21" transform="matrix(12,0,0,12,257.8,732.1)" />
<use xlink:href="#f3_2e" transform="matrix(12,0,0,12,270.6,732.1)" />
<use xlink:href="#f3_21" transform="matrix(12,0,0,12,276.8,732.1)" />
<use xlink:href="#f3_1x" transform="matrix(12,0,0,12,284.9,732.1)" />
<use xlink:href="#f3_1z" transform="matrix(12,0,0,12,292.9,732.1)" />
<use xlink:href="#f3_2g" transform="matrix(12,0,0,12,301,732.1)" />
<use xlink:href="#f3_25" transform="matrix(12,0,0,12,306.5,732.1)" />
<use xlink:href="#f3_2b" transform="matrix(12,0,0,12,310.9,732.1)" />
<use xlink:href="#f3_2a" transform="matrix(12,0,0,12,320.4,732.1)" />
<use xlink:href="#f3_1d" transform="matrix(12,0,0,12,55,754.8)" />
<use xlink:href="#f3_23" transform="matrix(12,0,0,12,71.2,754.8)" />
<use xlink:href="#f3_c" transform="matrix(12,0,0,12,85.1,754.8)" />
<use xlink:href="#f3_2f" transform="matrix(12,0,0,12,91.3,754.8)" />
<use xlink:href="#f3_d" transform="matrix(12,0,0,12,98.3,754.8)" />
<use xlink:href="#f3_f" transform="matrix(12,0,0,12,109.2,754.8)" />
<use xlink:href="#f3_13" transform="matrix(12,0,0,12,124.2,754.8)" />
<use xlink:href="#f3_2h" transform="matrix(12,0,0,12,136.3,754.8)" />
<use xlink:href="#f3_m" transform="matrix(7.9,0,0,7.9,145.6,747.8)" />
<use xlink:href="#f3_f" transform="matrix(7.9,0,0,7.9,151.9,747.8)" />
<use xlink:href="#f3_c" transform="matrix(12,0,0,12,163.2,754.8)" />
<use xlink:href="#f3_1x" transform="matrix(12,0,0,12,169.5,754.8)" />
<use xlink:href="#f3_2d" transform="matrix(12,0,0,12,177.5,754.8)" />
<use xlink:href="#f3_d" transform="matrix(12,0,0,12,186.7,754.8)" />
<use xlink:href="#f5_34" transform="matrix(12,0,0,12,197.3,754.8)" />
<use xlink:href="#f3_1d" transform="matrix(12,0,0,12,220.1,754.8)" />
<use xlink:href="#f3_23" transform="matrix(12,0,0,12,236.2,754.8)" />
<use xlink:href="#f3_m" transform="matrix(7.9,0,0,7.9,245.4,747.8)" />
<use xlink:href="#f3_f" transform="matrix(7.9,0,0,7.9,251.6,747.8)" />
<use xlink:href="#f3_c" transform="matrix(12,0,0,12,263,754.8)" />
<use xlink:href="#f3_1x" transform="matrix(12,0,0,12,269.2,754.8)" />
<use xlink:href="#f3_2d" transform="matrix(12,0,0,12,277.3,754.8)" />
<use xlink:href="#f3_d" transform="matrix(12,0,0,12,286.5,754.8)" />
<use xlink:href="#f3_f" transform="matrix(12,0,0,12,297.1,754.8)" />
<use xlink:href="#f3_13" transform="matrix(12,0,0,12,312.1,754.8)" />
<use xlink:href="#f3_2h" transform="matrix(12,0,0,12,324.2,754.8)" />
<use xlink:href="#f3_c" transform="matrix(12,0,0,12,338.1,754.8)" />
<use xlink:href="#f3_2f" transform="matrix(12,0,0,12,344.3,754.8)" />
<use xlink:href="#f3_d" transform="matrix(12,0,0,12,351.3,754.8)" />
<use xlink:href="#f3_17" transform="matrix(12,0,0,12,55,776.1)" />
<use xlink:href="#f3_25" transform="matrix(12,0,0,12,68.6,776.1)" />
<use xlink:href="#f3_2i" transform="matrix(12,0,0,12,73.4,776.1)" />
<use xlink:href="#f3_21" transform="matrix(12,0,0,12,82.2,776.1)" />
<use xlink:href="#f3_2a" transform="matrix(12,0,0,12,90.6,776.1)" />
<use xlink:href="#f3_u" transform="matrix(12,0,0,12,104.1,776.1)" />
<use xlink:href="#f3_15" transform="matrix(12,0,0,12,114,776.1)" />
<use xlink:href="#f3_2b" transform="matrix(7.9,0,0,7.9,125.4,769.1)" />
<use xlink:href="#f3_1z" transform="matrix(12,0,0,12,136.1,776.1)" />
<use xlink:href="#f3_21" transform="matrix(12,0,0,12,144.1,776.1)" />
<use xlink:href="#f3_28" transform="matrix(12,0,0,12,152.6,776.1)" />
<use xlink:href="#f3_28" transform="matrix(12,0,0,12,157.3,776.1)" />
<use xlink:href="#f3_x" transform="matrix(12,0,0,12,166.8,776.1)" />
<use xlink:href="#f3_f" transform="matrix(12,0,0,12,181.8,776.1)" />
<use xlink:href="#f3_m" transform="matrix(12,0,0,12,196.9,776.1)" />
<use xlink:href="#f3_i" transform="matrix(12,0,0,12,206,776.1)" />
<use xlink:href="#f3_r" transform="matrix(12,0,0,12,210.8,776.1)" />
<use xlink:href="#f3_l" transform="matrix(12,0,0,12,219.9,776.1)" />
<use xlink:href="#f3_1m" transform="matrix(12,0,0,12,233.9,776.1)" />
<use xlink:href="#f3_g" transform="matrix(12,0,0,12,246.7,776.1)" />
<use xlink:href="#f3_l" transform="matrix(12,0,0,12,256.2,776.1)" />
<use xlink:href="#f3_16" transform="matrix(12,0,0,12,269.7,776.1)" />
<use xlink:href="#f3_x" transform="matrix(12,0,0,12,284.4,776.1)" />
<use xlink:href="#f3_t" transform="matrix(12,0,0,12,299.4,776.1)" />
<use xlink:href="#f3_q" transform="matrix(12,0,0,12,308.6,776.1)" />
<use xlink:href="#f3_p" transform="matrix(12,0,0,12,317.7,776.1)" />
<use xlink:href="#f3_k" transform="matrix(12,0,0,12,326.9,776.1)" />
<use xlink:href="#f3_k" transform="matrix(12,0,0,12,336.1,776.1)" />
<use xlink:href="#f3_13" transform="matrix(12,0,0,12,350,776.1)" />
<use xlink:href="#f3_29" transform="matrix(12,0,0,12,366.8,776.1)" />
<use xlink:href="#f3_2b" transform="matrix(12,0,0,12,380.4,776.1)" />
<use xlink:href="#f3_28" transform="matrix(12,0,0,12,389.9,776.1)" />
<use xlink:href="#f4_4y" transform="matrix(7.9,0,0,7.9,394.7,769.1)" />
<use xlink:href="#f3_l" transform="matrix(7.9,0,0,7.9,400.9,769.1)" />
<use xlink:href="#f3_c" transform="matrix(12,0,0,12,55,797)" />
<use xlink:href="#f3_1y" transform="matrix(12,0,0,12,61.3,797)" />
<use xlink:href="#f3_d" transform="matrix(12,0,0,12,70.1,797)" />
<use xlink:href="#f3_1e" transform="matrix(12,0,0,12,81,797)" />
<use xlink:href="#f3_1x" transform="matrix(12,0,0,12,94.3,797)" />
<use xlink:href="#f3_29" transform="matrix(12,0,0,12,102.6,797)" />
<use xlink:href="#f3_21" transform="matrix(12,0,0,12,116.2,797)" />
<use xlink:href="#f3_2g" transform="matrix(12,0,0,12,129,797)" />
<use xlink:href="#f3_24" transform="matrix(12,0,0,12,134.5,797)" />
<use xlink:href="#f3_21" transform="matrix(12,0,0,12,143.3,797)" />
<use xlink:href="#f3_2g" transform="matrix(12,0,0,12,156.1,797)" />
<use xlink:href="#f3_2l" transform="matrix(12,0,0,12,161.6,797)" />
<use xlink:href="#f3_2c" transform="matrix(12,0,0,12,170,797)" />
<use xlink:href="#f3_21" transform="matrix(12,0,0,12,179.2,797)" />
<use xlink:href="#f3_2b" transform="matrix(12,0,0,12,192,797)" />
<use xlink:href="#f3_22" transform="matrix(12,0,0,12,201.5,797)" />
<use xlink:href="#f3_1z" transform="matrix(12,0,0,12,211.8,797)" />
<use xlink:href="#f3_21" transform="matrix(12,0,0,12,219.8,797)" />
<use xlink:href="#f3_28" transform="matrix(12,0,0,12,228.3,797)" />
<use xlink:href="#f3_28" transform="matrix(12,0,0,12,233.3,797)" />
<use xlink:href="#f3_2j" transform="matrix(12,0,0,12,242.9,797)" />
<use xlink:href="#f3_24" transform="matrix(12,0,0,12,256.4,797)" />
<use xlink:href="#f3_25" transform="matrix(12,0,0,12,265.6,797)" />
<use xlink:href="#f3_1z" transform="matrix(12,0,0,12,270.4,797)" />
<use xlink:href="#f3_24" transform="matrix(12,0,0,12,278.8,797)" />
<use xlink:href="#f3_2j" transform="matrix(12,0,0,12,292.3,797)" />
<use xlink:href="#f3_1x" transform="matrix(12,0,0,12,305.6,797)" />
<use xlink:href="#f3_2f" transform="matrix(12,0,0,12,313.6,797)" />
<use xlink:href="#f3_2h" transform="matrix(12,0,0,12,325.3,797)" />
<use xlink:href="#f3_2f" transform="matrix(12,0,0,12,334.5,797)" />
<use xlink:href="#f3_21" transform="matrix(12,0,0,12,341.5,797)" />
<use xlink:href="#f3_20" transform="matrix(12,0,0,12,349.5,797)" />
<use xlink:href="#f3_25" transform="matrix(12,0,0,12,363.8,797)" />
<use xlink:href="#f3_2a" transform="matrix(12,0,0,12,368.6,797)" />
<use xlink:href="#f3_11" transform="matrix(12,0,0,12,382.5,797)" />
<use xlink:href="#f3_2c" transform="matrix(12,0,0,12,395.3,797)" />
<use xlink:href="#f3_2b" transform="matrix(12,0,0,12,404.5,797)" />
<use xlink:href="#f3_28" transform="matrix(12,0,0,12,414.4,797)" />
<use xlink:href="#f3_28" transform="matrix(12,0,0,12,419.1,797)" />
<use xlink:href="#f3_2b" transform="matrix(12,0,0,12,424.2,797)" />
<use xlink:href="#f3_2f" transform="matrix(12,0,0,12,438.2,797)" />
<use xlink:href="#f3_2c" transform="matrix(12,0,0,12,445.2,797)" />
<use xlink:href="#f3_1x" transform="matrix(12,0,0,12,454.3,797)" />
<use xlink:href="#f3_1z" transform="matrix(12,0,0,12,462.4,797)" />
<use xlink:href="#f3_21" transform="matrix(12,0,0,12,470.5,797)" />
<use xlink:href="#f3_2c" transform="matrix(12,0,0,12,483.3,797)" />
<use xlink:href="#f3_2e" transform="matrix(12,0,0,12,492.4,797)" />
<use xlink:href="#f3_2b" transform="matrix(12,0,0,12,498.6,797)" />
<use xlink:href="#f3_23" transform="matrix(12,0,0,12,508.2,797)" />
<use xlink:href="#f3_2e" transform="matrix(12,0,0,12,517,797)" />
<use xlink:href="#f3_1x" transform="matrix(12,0,0,12,523.2,797)" />
<use xlink:href="#f3_29" transform="matrix(12,0,0,12,531.2,797)" />
<use xlink:href="#f3_29" transform="matrix(12,0,0,12,545.2,797)" />
<use xlink:href="#f3_21" transform="matrix(12,0,0,12,559.1,797)" />
<use xlink:href="#f3_22" transform="matrix(12,0,0,12,572.9,797)" />
<use xlink:href="#f3_2b" transform="matrix(12,0,0,12,578.4,797)" />
<use xlink:href="#f3_2e" transform="matrix(12,0,0,12,588,797)" />
<use xlink:href="#f3_2c" transform="matrix(12,0,0,12,599,797)" />
<use xlink:href="#f3_2e" transform="matrix(12,0,0,12,608.1,797)" />
<use xlink:href="#f3_2b" transform="matrix(12,0,0,12,614,797)" />
<use xlink:href="#f3_2i" transform="matrix(12,0,0,12,623.5,797)" />
<use xlink:href="#f3_25" transform="matrix(12,0,0,12,632.7,797)" />
<use xlink:href="#f3_20" transform="matrix(12,0,0,12,637.1,797)" />
<use xlink:href="#f3_25" transform="matrix(12,0,0,12,646.6,797)" />
<use xlink:href="#f3_2a" transform="matrix(12,0,0,12,651.4,797)" />
<use xlink:href="#f3_23" transform="matrix(12,0,0,12,660.5,797)" />
<use xlink:href="#f3_21" transform="matrix(12,0,0,12,674.5,797)" />
<use xlink:href="#f3_28" transform="matrix(12,0,0,12,682.9,797)" />
<use xlink:href="#f3_21" transform="matrix(12,0,0,12,687.6,797)" />
<use xlink:href="#f3_1z" transform="matrix(12,0,0,12,695.7,797)" />
<use xlink:href="#f3_2g" transform="matrix(12,0,0,12,703.8,797)" />
<use xlink:href="#f3_2e" transform="matrix(12,0,0,12,709.3,797)" />
<use xlink:href="#f3_25" transform="matrix(12,0,0,12,715.8,797)" />
<use xlink:href="#f3_1z" transform="matrix(12,0,0,12,720.2,797)" />
<use xlink:href="#f3_1x" transform="matrix(12,0,0,12,728.3,797)" />
<use xlink:href="#f3_28" transform="matrix(12,0,0,12,736.7,797)" />
<use xlink:href="#f3_2c" transform="matrix(12,0,0,12,745.9,797)" />
<use xlink:href="#f3_2b" transform="matrix(12,0,0,12,755,797)" />
<use xlink:href="#f3_2j" transform="matrix(12,0,0,12,764.5,797)" />
<use xlink:href="#f3_21" transform="matrix(12,0,0,12,777.8,797)" />
<use xlink:href="#f3_2e" transform="matrix(12,0,0,12,785.8,797)" />
<use xlink:href="#f3_i" transform="matrix(12,0,0,12,792,797)" />
<use xlink:href="#f2_1j" transform="matrix(12,0,0,12,55,818.6)" />
<use xlink:href="#f2_2b" transform="matrix(12,0,0,12,65.3,818.6)" />
<use xlink:href="#f2_28" transform="matrix(12,0,0,12,74.5,818.6)" />
<use xlink:href="#f2_2h" transform="matrix(12,0,0,12,79.2,818.6)" />
<use xlink:href="#f2_2g" transform="matrix(12,0,0,12,89.5,818.6)" />
<use xlink:href="#f2_25" transform="matrix(12,0,0,12,95.7,818.6)" />
<use xlink:href="#f2_2b" transform="matrix(12,0,0,12,100.8,818.6)" />
<use xlink:href="#f2_2a" transform="matrix(12,0,0,12,109.9,818.6)" />
<use xlink:href="#f2_u" transform="matrix(12,0,0,12,120.2,818.6)" />
<use xlink:href="#f3_c" transform="matrix(12,0,0,12,55,851.2)" />
<use xlink:href="#f3_1x" transform="matrix(12,0,0,12,61.3,851.2)" />
<use xlink:href="#f3_d" transform="matrix(12,0,0,12,69.3,851.2)" />
<use xlink:href="#f3_17" transform="matrix(12,0,0,12,80.3,851.2)" />
<use xlink:href="#f3_25" transform="matrix(12,0,0,12,93.5,851.2)" />
<use xlink:href="#f3_2i" transform="matrix(12,0,0,12,98.2,851.2)" />
<use xlink:href="#f3_21" transform="matrix(12,0,0,12,107,851.2)" />
<use xlink:href="#f3_2a" transform="matrix(12,0,0,12,115.5,851.2)" />
<use xlink:href="#f3_15" transform="matrix(12,0,0,12,129,851.2)" />
<use xlink:href="#f3_2b" transform="matrix(7.9,0,0,7.9,140.5,844.3)" />
<use xlink:href="#f3_13" transform="matrix(12,0,0,12,146.4,851.2)" />
<use xlink:href="#f3_21" transform="matrix(12,0,0,12,158.5,851.2)" />
<use xlink:href="#f3_28" transform="matrix(12,0,0,12,166.9,851.2)" />
<use xlink:href="#f3_28" transform="matrix(12,0,0,12,172,851.2)" />
<use xlink:href="#f3_x" transform="matrix(12,0,0,12,181.5,851.2)" />
<use xlink:href="#f3_f" transform="matrix(12,0,0,12,196.6,851.2)" />
<use xlink:href="#f3_m" transform="matrix(12,0,0,12,206.8,851.2)" />
<use xlink:href="#f3_i" transform="matrix(12,0,0,12,216,851.2)" />
<use xlink:href="#f3_r" transform="matrix(12,0,0,12,220.7,851.2)" />
<use xlink:href="#f3_l" transform="matrix(12,0,0,12,229.9,851.2)" />
<use xlink:href="#f3_1m" transform="matrix(12,0,0,12,239.1,851.2)" />
<use xlink:href="#f3_a" transform="matrix(12,0,0,12,257,851.2)" />
<use xlink:href="#f3_16" transform="matrix(12,0,0,12,275.7,851.2)" />
<use xlink:href="#f3_x" transform="matrix(12,0,0,12,290.3,851.2)" />
<use xlink:href="#f3_t" transform="matrix(12,0,0,12,305.4,851.2)" />
<use xlink:href="#f3_q" transform="matrix(12,0,0,12,314.5,851.2)" />
<use xlink:href="#f3_p" transform="matrix(12,0,0,12,323.7,851.2)" />
<use xlink:href="#f3_k" transform="matrix(12,0,0,12,332.9,851.2)" />
<use xlink:href="#f3_k" transform="matrix(12,0,0,12,342,851.2)" />
<use xlink:href="#f3_13" transform="matrix(12,0,0,12,351.2,851.2)" />
<use xlink:href="#f3_29" transform="matrix(12,0,0,12,368.4,851.2)" />
<use xlink:href="#f3_2b" transform="matrix(12,0,0,12,382,851.2)" />
<use xlink:href="#f3_28" transform="matrix(12,0,0,12,391.9,851.2)" />
<use xlink:href="#f3_h" transform="matrix(7.9,0,0,7.9,396.9,844.3)" />
<use xlink:href="#f3_l" transform="matrix(7.9,0,0,7.9,400.6,844.3)" />
<use xlink:href="#f3_2a" transform="matrix(12,0,0,12,411.6,851.2)" />
<use xlink:href="#f3_x" transform="matrix(12,0,0,12,425.1,851.2)" />
<use xlink:href="#f3_m" transform="matrix(12,0,0,12,440.1,851.2)" />
<use xlink:href="#f3_c" transform="matrix(12,0,0,12,454,851.2)" />
<use xlink:href="#f3_22" transform="matrix(12,0,0,12,460.2,851.2)" />
<use xlink:href="#f3_2e" transform="matrix(12,0,0,12,465.7,851.2)" />
<use xlink:href="#f3_2b" transform="matrix(12,0,0,12,472,851.2)" />
<use xlink:href="#f3_29" transform="matrix(12,0,0,12,481.5,851.2)" />
<use xlink:href="#f3_2g" transform="matrix(12,0,0,12,499.8,851.2)" />
<use xlink:href="#f3_24" transform="matrix(12,0,0,12,505.3,851.2)" />
<use xlink:href="#f3_21" transform="matrix(12,0,0,12,514.1,851.2)" />
<use xlink:href="#f3_23" transform="matrix(12,0,0,12,526.9,851.2)" />
<use xlink:href="#f3_25" transform="matrix(12,0,0,12,536.4,851.2)" />
<use xlink:href="#f3_2i" transform="matrix(12,0,0,12,541.2,851.2)" />
<use xlink:href="#f3_21" transform="matrix(12,0,0,12,550,851.2)" />
<use xlink:href="#f3_2a" transform="matrix(12,0,0,12,558.4,851.2)" />
<use xlink:href="#f3_2e" transform="matrix(12,0,0,12,571.9,851.2)" />
<use xlink:href="#f3_21" transform="matrix(12,0,0,12,578.1,851.2)" />
<use xlink:href="#f3_1x" transform="matrix(12,0,0,12,586.2,851.2)" />
<use xlink:href="#f3_1z" transform="matrix(12,0,0,12,594.3,851.2)" />
<use xlink:href="#f3_2g" transform="matrix(12,0,0,12,602.3,851.2)" />
<use xlink:href="#f3_25" transform="matrix(12,0,0,12,608.2,851.2)" />
<use xlink:href="#f3_2b" transform="matrix(12,0,0,12,612.6,851.2)" />
<use xlink:href="#f3_2a" transform="matrix(12,0,0,12,622.1,851.2)" />
<use xlink:href="#f3_d" transform="matrix(12,0,0,12,630.9,851.2)" />
<use xlink:href="#f4_e4" transform="matrix(12,0,0,12,59.8,872.5)" />
<use xlink:href="#f4_2e" transform="matrix(12,0,0,12,71.6,872.5)" />
<use xlink:href="#f4_17" transform="matrix(12,0,0,12,77.8,872.5)" />
<use xlink:href="#f3_1f" transform="matrix(7.9,0,0,7.9,91,865.5)" />
<use xlink:href="#f3_x" transform="matrix(12,0,0,12,104.5,872.5)" />
<use xlink:href="#f4_4y" transform="matrix(12,0,0,12,119.6,872.5)" />
<use xlink:href="#f3_2a" transform="matrix(12,0,0,12,133.1,872.5)" />
<use xlink:href="#f3_2k" transform="matrix(12,0,0,12,146.7,872.5)" />
<use xlink:href="#f3_16" transform="matrix(12,0,0,12,160.2,872.5)" />
<use xlink:href="#f3_2k" transform="matrix(12,0,0,12,174.9,872.5)" />
<use xlink:href="#f3_15" transform="matrix(12,0,0,12,188.4,872.5)" />
<use xlink:href="#f3_2b" transform="matrix(12,0,0,12,199.8,872.5)" />
<use xlink:href="#f3_13" transform="matrix(12,0,0,12,209.3,872.5)" />
<use xlink:href="#f3_21" transform="matrix(12,0,0,12,221.4,872.5)" />
<use xlink:href="#f3_28" transform="matrix(12,0,0,12,229.8,872.5)" />
<use xlink:href="#f3_28" transform="matrix(12,0,0,12,234.6,872.5)" />
<use xlink:href="#f4_e4" transform="matrix(12,0,0,12,59.8,893.5)" />
<use xlink:href="#f4_2e" transform="matrix(12,0,0,12,71.6,893.5)" />
<use xlink:href="#f4_17" transform="matrix(12,0,0,12,77.8,893.5)" />
<use xlink:href="#f3_1f" transform="matrix(7.9,0,0,7.9,91,886.5)" />
<use xlink:href="#f3_x" transform="matrix(12,0,0,12,102.7,893.5)" />
<use xlink:href="#f4_4y" transform="matrix(12,0,0,12,117.7,893.5)" />
<use xlink:href="#f3_m" transform="matrix(12,0,0,12,131.7,893.5)" />
<use xlink:href="#f3_2k" transform="matrix(12,0,0,12,145.2,893.5)" />
<use xlink:href="#f3_t" transform="matrix(12,0,0,12,158.8,893.5)" />
<use xlink:href="#f3_q" transform="matrix(12,0,0,12,167.9,893.5)" />
<use xlink:href="#f3_p" transform="matrix(12,0,0,12,177.1,893.5)" />
<use xlink:href="#f3_k" transform="matrix(12,0,0,12,186.3,893.5)" />
<use xlink:href="#f3_k" transform="matrix(12,0,0,12,195.4,893.5)" />
<use xlink:href="#f3_13" transform="matrix(12,0,0,12,209.3,893.5)" />
<use xlink:href="#f3_29" transform="matrix(12,0,0,12,226.2,893.5)" />
<use xlink:href="#f3_2b" transform="matrix(12,0,0,12,239.8,893.5)" />
<use xlink:href="#f3_28" transform="matrix(12,0,0,12,249.6,893.5)" />
<use xlink:href="#f3_h" transform="matrix(12,0,0,12,254.2,893.5)" />
<use xlink:href="#f3_l" transform="matrix(12,0,0,12,260.4,893.5)" />
<use xlink:href="#f3_2k" transform="matrix(12,0,0,12,274.4,893.5)" />
<use xlink:href="#f3_m" transform="matrix(12,0,0,12,287.9,893.5)" />
<use xlink:href="#f3_i" transform="matrix(12,0,0,12,297.1,893.5)" />
<use xlink:href="#f3_r" transform="matrix(12,0,0,12,301.8,893.5)" />
<use xlink:href="#f3_l" transform="matrix(12,0,0,12,311,893.5)" />
<use xlink:href="#f3_1m" transform="matrix(12,0,0,12,320.2,893.5)" />
<use xlink:href="#f3_x" transform="matrix(12,0,0,12,59.8,914.7)" />
<use xlink:href="#f3_h" transform="matrix(12,0,0,12,74.8,914.7)" />
<use xlink:href="#f3_p" transform="matrix(12,0,0,12,85.5,914.7)" />
<use xlink:href="#f3_m" transform="matrix(12,0,0,12,94.6,914.7)" />
<use xlink:href="#f3_n" transform="matrix(12,0,0,12,103.8,914.7)" />
<use xlink:href="#f3_k" transform="matrix(12,0,0,12,113,914.7)" />
<use xlink:href="#f3_n" transform="matrix(12,0,0,12,122.1,914.7)" />
<use xlink:href="#f3_k" transform="matrix(12,0,0,12,131.3,914.7)" />
<use xlink:href="#f3_1a" transform="matrix(12,0,0,12,145.2,914.7)" />
<use xlink:href="#f3_j" transform="matrix(12,0,0,12,156.9,914.7)" />
<use xlink:href="#f3_29" transform="matrix(12,0,0,12,166.4,914.7)" />
<use xlink:href="#f3_2b" transform="matrix(12,0,0,12,180,914.7)" />
<use xlink:href="#f3_28" transform="matrix(12,0,0,12,189.9,914.7)" />
<use xlink:href="#f3_2b" transform="matrix(12,0,0,12,199,914.7)" />
<use xlink:href="#f3_2e" transform="matrix(12,0,0,12,208.6,914.7)" />
<use xlink:href="#f3_h" transform="matrix(12,0,0,12,219.3,914.7)" />
<use xlink:href="#f3_p" transform="matrix(12,0,0,12,230.3,914.7)" />
<use xlink:href="#f3_m" transform="matrix(12,0,0,12,239.5,914.7)" />
<use xlink:href="#f3_n" transform="matrix(12,0,0,12,248.7,914.7)" />
<use xlink:href="#f3_i" transform="matrix(12,0,0,12,257.5,914.7)" />
<use xlink:href="#f3_k" transform="matrix(12,0,0,12,262.2,914.7)" />
<use xlink:href="#f3_n" transform="matrix(12,0,0,12,271.4,914.7)" />
<use xlink:href="#f3_k" transform="matrix(12,0,0,12,280.6,914.7)" />
<use xlink:href="#f3_27" transform="matrix(12,0,0,12,294.5,914.7)" />
<use xlink:href="#f3_1a" transform="matrix(12,0,0,12,303.6,914.7)" />
<use xlink:href="#f3_j" transform="matrix(12,0,0,12,315.4,914.7)" />
<use xlink:href="#f3_29" transform="matrix(12,0,0,12,324.9,914.7)" />
<use xlink:href="#f3_2b" transform="matrix(12,0,0,12,338.4,914.7)" />
<use xlink:href="#f3_28" transform="matrix(12,0,0,12,348.3,914.7)" />
<use xlink:href="#f3_c" transform="matrix(12,0,0,12,59.8,935.6)" />
<use xlink:href="#f3_1y" transform="matrix(12,0,0,12,66,935.6)" />
<use xlink:href="#f3_d" transform="matrix(12,0,0,12,74.8,935.6)" />
<use xlink:href="#f3_18" transform="matrix(12,0,0,12,85.8,935.6)" />
<use xlink:href="#f3_2l" transform="matrix(12,0,0,12,99,935.6)" />
<use xlink:href="#f3_20" transform="matrix(12,0,0,12,107.4,935.6)" />
<use xlink:href="#f3_2e" transform="matrix(12,0,0,12,116.6,935.6)" />
<use xlink:href="#f3_2b" transform="matrix(12,0,0,12,122.8,935.6)" />
<use xlink:href="#f3_23" transform="matrix(12,0,0,12,132.3,935.6)" />
<use xlink:href="#f3_21" transform="matrix(12,0,0,12,141.5,935.6)" />
<use xlink:href="#f3_2a" transform="matrix(12,0,0,12,149.5,935.6)" />
<use xlink:href="#f4_4y" transform="matrix(12,0,0,12,163.2,935.6)" />
<use xlink:href="#f3_2b" transform="matrix(12,0,0,12,177.2,935.6)" />
<use xlink:href="#f3_2k" transform="matrix(12,0,0,12,186.7,935.6)" />
<use xlink:href="#f3_2l" transform="matrix(12,0,0,12,195.9,935.6)" />
<use xlink:href="#f3_23" transform="matrix(12,0,0,12,204.3,935.6)" />
<use xlink:href="#f3_21" transform="matrix(12,0,0,12,213.5,935.6)" />
<use xlink:href="#f3_2a" transform="matrix(12,0,0,12,221.9,935.6)" />
<use xlink:href="#f3_22" transform="matrix(12,0,0,12,235.8,935.6)" />
<use xlink:href="#f3_2h" transform="matrix(12,0,0,12,241.7,935.6)" />
<use xlink:href="#f3_21" transform="matrix(12,0,0,12,250.8,935.6)" />
<use xlink:href="#f3_28" transform="matrix(12,0,0,12,259.2,935.6)" />
<use xlink:href="#f3_13" transform="matrix(12,0,0,12,268.4,935.6)" />
<use xlink:href="#f3_21" transform="matrix(12,0,0,12,280.8,935.6)" />
<use xlink:href="#f3_28" transform="matrix(12,0,0,12,289.2,935.6)" />
<use xlink:href="#f3_28" transform="matrix(12,0,0,12,294,935.6)" />
<use xlink:href="#f3_j" transform="matrix(12,0,0,12,303.5,935.6)" />
<use xlink:href="#f3_16" transform="matrix(12,0,0,12,313.4,935.6)" />
<use xlink:href="#f3_2h" transform="matrix(12,0,0,12,323.3,935.6)" />
<use xlink:href="#f3_21" transform="matrix(12,0,0,12,332.5,935.6)" />
<use xlink:href="#f3_28" transform="matrix(12,0,0,12,340.9,935.6)" />
<use xlink:href="#f3_1z" transform="matrix(12,0,0,12,350.4,935.6)" />
<use xlink:href="#f3_21" transform="matrix(12,0,0,12,358.5,935.6)" />
<use xlink:href="#f3_28" transform="matrix(12,0,0,12,366.9,935.6)" />
<use xlink:href="#f3_28" transform="matrix(12,0,0,12,372,935.6)" />
<use xlink:href="#f3_i" transform="matrix(12,0,0,12,376.4,935.6)" />
<use xlink:href="#f2_m" transform="matrix(12,0,0,12,55,990.3)" />
<use xlink:href="#f2_k" transform="matrix(12,0,0,12,64.2,990.3)" />
<use xlink:href="#f2_i" transform="matrix(12,0,0,12,73.4,990.3)" />
<use xlink:href="#f3_1k" transform="matrix(12,0,0,12,82.9,990.3)" />
<use xlink:href="#f3_24" transform="matrix(12,0,0,12,94.3,990.3)" />
<use xlink:href="#f3_21" transform="matrix(12,0,0,12,103.1,990.3)" />
<use xlink:href="#f3_22" transform="matrix(12,0,0,12,115.9,990.3)" />
<use xlink:href="#f3_2b" transform="matrix(12,0,0,12,121.4,990.3)" />
<use xlink:href="#f3_28" transform="matrix(12,0,0,12,131.2,990.3)" />
<use xlink:href="#f3_28" transform="matrix(12,0,0,12,136,990.3)" />
<use xlink:href="#f3_2b" transform="matrix(12,0,0,12,140.4,990.3)" />
<use xlink:href="#f3_2j" transform="matrix(12,0,0,12,149.9,990.3)" />
<use xlink:href="#f3_25" transform="matrix(12,0,0,12,163.5,990.3)" />
<use xlink:href="#f3_2a" transform="matrix(12,0,0,12,168.2,990.3)" />
<use xlink:href="#f3_23" transform="matrix(12,0,0,12,177.4,990.3)" />
<use xlink:href="#f3_20" transform="matrix(12,0,0,12,191.3,990.3)" />
<use xlink:href="#f3_1x" transform="matrix(12,0,0,12,200.5,990.3)" />
<use xlink:href="#f3_2g" transform="matrix(12,0,0,12,208.6,990.3)" />
<use xlink:href="#f3_1x" transform="matrix(12,0,0,12,214,990.3)" />
<use xlink:href="#f3_2j" transform="matrix(12,0,0,12,226.9,990.3)" />
<use xlink:href="#f3_21" transform="matrix(12,0,0,12,240.1,990.3)" />
<use xlink:href="#f3_2e" transform="matrix(12,0,0,12,248.1,990.3)" />
<use xlink:href="#f3_21" transform="matrix(12,0,0,12,254.3,990.3)" />
<use xlink:href="#f3_2b" transform="matrix(12,0,0,12,266.4,990.3)" />
<use xlink:href="#f3_1y" transform="matrix(12,0,0,12,276,990.3)" />
<use xlink:href="#f3_2g" transform="matrix(12,0,0,12,284.8,990.3)" />
<use xlink:href="#f3_1x" transform="matrix(12,0,0,12,290.2,990.3)" />
<use xlink:href="#f3_25" transform="matrix(12,0,0,12,298.3,990.3)" />
<use xlink:href="#f3_2a" transform="matrix(12,0,0,12,303.1,990.3)" />
<use xlink:href="#f3_21" transform="matrix(12,0,0,12,312.2,990.3)" />
<use xlink:href="#f3_20" transform="matrix(12,0,0,12,320.3,990.3)" />
<use xlink:href="#f3_20" transform="matrix(12,0,0,12,334.2,990.3)" />
<use xlink:href="#f3_2h" transform="matrix(12,0,0,12,343.4,990.3)" />
<use xlink:href="#f3_2e" transform="matrix(12,0,0,12,352.5,990.3)" />
<use xlink:href="#f3_25" transform="matrix(12,0,0,12,359.1,990.3)" />
<use xlink:href="#f3_2a" transform="matrix(12,0,0,12,363.9,990.3)" />
<use xlink:href="#f3_23" transform="matrix(12,0,0,12,372.7,990.3)" />
<use xlink:href="#f3_2g" transform="matrix(12,0,0,12,386.6,990.3)" />
<use xlink:href="#f3_24" transform="matrix(12,0,0,12,392.1,990.3)" />
<use xlink:href="#f3_21" transform="matrix(12,0,0,12,400.9,990.3)" />
<use xlink:href="#f3_22" transform="matrix(12,0,0,12,413.7,990.3)" />
<use xlink:href="#f3_25" transform="matrix(12,0,0,12,419.6,990.3)" />
<use xlink:href="#f3_2e" transform="matrix(12,0,0,12,424.7,990.3)" />
<use xlink:href="#f3_2f" transform="matrix(12,0,0,12,430.9,990.3)" />
<use xlink:href="#f3_2g" transform="matrix(12,0,0,12,437.9,990.3)" />
<use xlink:href="#f3_2b" transform="matrix(12,0,0,12,447.4,990.3)" />
<use xlink:href="#f3_2e" transform="matrix(12,0,0,12,456.9,990.3)" />
<use xlink:href="#f3_20" transform="matrix(12,0,0,12,463.2,990.3)" />
<use xlink:href="#f3_21" transform="matrix(12,0,0,12,472.3,990.3)" />
<use xlink:href="#f3_2e" transform="matrix(12,0,0,12,480.4,990.3)" />
<use xlink:href="#f3_2g" transform="matrix(12,0,0,12,490.7,990.3)" />
<use xlink:href="#f3_24" transform="matrix(12,0,0,12,496.1,990.3)" />
<use xlink:href="#f3_21" transform="matrix(12,0,0,12,504.9,990.3)" />
<use xlink:href="#f3_2e" transform="matrix(12,0,0,12,513,990.3)" />
<use xlink:href="#f3_29" transform="matrix(12,0,0,12,519.6,990.3)" />
<use xlink:href="#f3_1x" transform="matrix(12,0,0,12,533.2,990.3)" />
<use xlink:href="#f3_28" transform="matrix(12,0,0,12,541.6,990.3)" />
<use xlink:href="#f3_20" transform="matrix(12,0,0,12,551.7,990.3)" />
<use xlink:href="#f3_21" transform="matrix(12,0,0,12,560.8,990.3)" />
<use xlink:href="#f3_1z" transform="matrix(12,0,0,12,568.9,990.3)" />
<use xlink:href="#f3_2b" transform="matrix(12,0,0,12,577,990.3)" />
<use xlink:href="#f3_29" transform="matrix(12,0,0,12,586.9,990.3)" />
<use xlink:href="#f3_2c" transform="matrix(12,0,0,12,600.4,990.3)" />
<use xlink:href="#f3_2b" transform="matrix(12,0,0,12,609.6,990.3)" />
<use xlink:href="#f3_2f" transform="matrix(12,0,0,12,619.1,990.3)" />
<use xlink:href="#f3_25" transform="matrix(12,0,0,12,626.4,990.3)" />
<use xlink:href="#f3_2g" transform="matrix(12,0,0,12,630.8,990.3)" />
<use xlink:href="#f3_25" transform="matrix(12,0,0,12,636.7,990.3)" />
<use xlink:href="#f3_2b" transform="matrix(12,0,0,12,641.1,990.3)" />
<use xlink:href="#f3_2a" transform="matrix(12,0,0,12,650.6,990.3)" />
<use xlink:href="#f3_2b" transform="matrix(12,0,0,12,664.1,990.3)" />
<use xlink:href="#f3_22" transform="matrix(12,0,0,12,673.7,990.3)" />
<use xlink:href="#f3_1j" transform="matrix(12,0,0,12,683.9,990.3)" />
<use xlink:href="#f3_1f" transform="matrix(12,0,0,12,694.1,990.3)" />
<use xlink:href="#f3_m" transform="matrix(7.9,0,0,7.9,707.6,991.7)" />
<use xlink:href="#f3_13" transform="matrix(12,0,0,12,713.8,990.3)" />
<use xlink:href="#f3_28" transform="matrix(12,0,0,12,726.3,990.3)" />
<use xlink:href="#f3_m" transform="matrix(7.9,0,0,7.9,730.7,991.7)" />
<use xlink:href="#f3_1x" transform="matrix(12,0,0,12,741.7,990.3)" />
<use xlink:href="#f3_2g" transform="matrix(12,0,0,12,749.8,990.3)" />
<use xlink:href="#f3_1x" transform="matrix(12,0,0,12,760,990.3)" />
<use xlink:href="#f3_1z" transform="matrix(12,0,0,12,772.8,990.3)" />
<use xlink:href="#f3_2b" transform="matrix(12,0,0,12,780.5,990.3)" />
<use xlink:href="#f3_2a" transform="matrix(12,0,0,12,790,990.3)" />
<use xlink:href="#f3_2f" transform="matrix(12,0,0,12,798.8,990.3)" />
<use xlink:href="#f3_2g" transform="matrix(12,0,0,12,805.8,990.3)" />
<use xlink:href="#f3_1x" transform="matrix(12,0,0,12,811.3,990.3)" />
<use xlink:href="#f3_2a" transform="matrix(12,0,0,12,819.3,990.3)" />
<use xlink:href="#f3_2g" transform="matrix(12,0,0,12,828.1,990.3)" />
<use xlink:href="#f3_2i" transform="matrix(12,0,0,12,55,1011.2)" />
<use xlink:href="#f3_2b" transform="matrix(12,0,0,12,63.8,1011.2)" />
<use xlink:href="#f3_28" transform="matrix(12,0,0,12,73.7,1011.2)" />
<use xlink:href="#f3_2h" transform="matrix(12,0,0,12,78.1,1011.2)" />
<use xlink:href="#f3_29" transform="matrix(12,0,0,12,87.6,1011.2)" />
<use xlink:href="#f3_21" transform="matrix(12,0,0,12,101.6,1011.2)" />
<use xlink:href="#f3_u" transform="matrix(12,0,0,12,114.4,1011.2)" />
</g>
<g clip-path="url(#c1_109)">
<g fill="#000000" >
<use xlink:href="#f3_m" transform="matrix(7.5,0,0,7,80,1039.9)" />
<use xlink:href="#f3_m" transform="matrix(7.5,0,0,7,102.9,1039.9)" />
<use xlink:href="#f3_m" transform="matrix(7.5,0,0,7,202,1039.9)" />
<use xlink:href="#f3_m" transform="matrix(7.5,0,0,7,267.9,1039.9)" />
<use xlink:href="#f3_c" transform="matrix(13,0,0,12.1,110.1,1035.2)" />
<use xlink:href="#f3_d" transform="matrix(13,0,0,12.1,128.1,1035.2)" />
<use xlink:href="#f3_c" transform="matrix(13,0,0,12.1,209.2,1035.2)" />
<use xlink:href="#f3_d" transform="matrix(13,0,0,12.1,227.3,1035.2)" />
<use xlink:href="#f3_c" transform="matrix(13,0,0,12.1,275,1035.2)" />
<use xlink:href="#f3_d" transform="matrix(13,0,0,12.1,293.1,1035.2)" />
<use xlink:href="#f6_1j" transform="matrix(13,0,0,12.1,58.2,1035.2)" />
<use xlink:href="#f6_1f" transform="matrix(13,0,0,12.1,67.4,1035.2)" />
<use xlink:href="#f6_13" transform="matrix(13,0,0,12.1,85.4,1035.2)" />
<use xlink:href="#f6_28" transform="matrix(13,0,0,12.1,97.8,1035.2)" />
<use xlink:href="#f6_23" transform="matrix(13,0,0,12.1,117.4,1035.2)" />
<use xlink:href="#f6_1j" transform="matrix(13,0,0,12.1,180.2,1035.2)" />
<use xlink:href="#f6_1f" transform="matrix(13,0,0,12.1,189.4,1035.2)" />
<use xlink:href="#f6_23" transform="matrix(13,0,0,12.1,216.6,1035.2)" />
<use xlink:href="#f6_13" transform="matrix(13,0,0,12.1,250.4,1035.2)" />
<use xlink:href="#f6_28" transform="matrix(13,0,0,12.1,262.7,1035.2)" />
<use xlink:href="#f6_23" transform="matrix(13,0,0,12.1,282.4,1035.2)" />
<use xlink:href="#f5_3k" transform="matrix(13,0,0,12.1,137.4,1035.2)" />
<use xlink:href="#f5_3k" transform="matrix(13,0,0,12.1,155.9,1035.2)" />
<use xlink:href="#f5_34" transform="matrix(13,0,0,12.1,160.1,1035.2)" />
<use xlink:href="#f5_f" transform="matrix(13,0,0,12.1,237,1035.2)" />
</g>
</g>
<g fill="#000000" >
<use xlink:href="#f3_15" transform="matrix(12,0,0,12,55,1061.8)" />
<use xlink:href="#f3_2k" transform="matrix(12,0,0,12,66.4,1061.8)" />
<use xlink:href="#f3_2c" transform="matrix(12,0,0,12,75.2,1061.8)" />
<use xlink:href="#f3_21" transform="matrix(12,0,0,12,84.4,1061.8)" />
<use xlink:href="#f3_2e" transform="matrix(12,0,0,12,92.4,1061.8)" />
<use xlink:href="#f3_25" transform="matrix(12,0,0,12,99,1061.8)" />
<use xlink:href="#f3_29" transform="matrix(12,0,0,12,103.8,1061.8)" />
<use xlink:href="#f3_21" transform="matrix(12,0,0,12,117.7,1061.8)" />
<use xlink:href="#f3_2a" transform="matrix(12,0,0,12,126.1,1061.8)" />
<use xlink:href="#f3_2g" transform="matrix(12,0,0,12,134.9,1061.8)" />
<use xlink:href="#f3_1k" transform="matrix(12,0,0,12,194,1061.8)" />
<use xlink:href="#f3_25" transform="matrix(12,0,0,12,205.4,1061.8)" />
<use xlink:href="#f3_29" transform="matrix(12,0,0,12,210.2,1061.8)" />
<use xlink:href="#f3_21" transform="matrix(12,0,0,12,224.1,1061.8)" />
<use xlink:href="#f3_j" transform="matrix(12,0,0,12,232.2,1061.8)" />
<use xlink:href="#f3_2f" transform="matrix(12,0,0,12,237.6,1061.8)" />
<use xlink:href="#f4_4y" transform="matrix(7.9,0,0,7.9,244.7,1054.8)" />
<use xlink:href="#f3_l" transform="matrix(7.9,0,0,7.9,250.9,1054.8)" />
<use xlink:href="#f3_1k" transform="matrix(12,0,0,12,310.7,1061.8)" />
<use xlink:href="#f3_2b" transform="matrix(12,0,0,12,322,1061.8)" />
<use xlink:href="#f3_2g" transform="matrix(12,0,0,12,331.2,1061.8)" />
<use xlink:href="#f3_1x" transform="matrix(12,0,0,12,336.7,1061.8)" />
<use xlink:href="#f3_28" transform="matrix(12,0,0,12,344.7,1061.8)" />
<use xlink:href="#f3_2c" transform="matrix(12,0,0,12,353.9,1061.8)" />
<use xlink:href="#f3_2e" transform="matrix(12,0,0,12,363.1,1061.8)" />
<use xlink:href="#f3_21" transform="matrix(12,0,0,12,369.3,1061.8)" />
<use xlink:href="#f3_2f" transform="matrix(12,0,0,12,377.3,1061.8)" />
<use xlink:href="#f3_2f" transform="matrix(12,0,0,12,384.3,1061.8)" />
<use xlink:href="#f3_2h" transform="matrix(12,0,0,12,391.3,1061.8)" />
<use xlink:href="#f3_2e" transform="matrix(12,0,0,12,400.4,1061.8)" />
<use xlink:href="#f3_21" transform="matrix(12,0,0,12,406.6,1061.8)" />
<use xlink:href="#f3_j" transform="matrix(12,0,0,12,414.7,1061.8)" />
<use xlink:href="#f3_1x" transform="matrix(12,0,0,12,419.8,1061.8)" />
<use xlink:href="#f3_2g" transform="matrix(12,0,0,12,428,1061.8)" />
<use xlink:href="#f3_29" transform="matrix(12,0,0,12,433.4,1061.8)" />
</g>
<path fill-rule="evenodd" d="M46.2,1044.9h.7v-.7h-.7v.7Z" class="g2_109" />
<path fill-rule="evenodd" d="M46.2,1044.9h.7v-.7h-.7v.7Z" class="g2_109" />
<path fill-rule="evenodd" d="M46.9,1044.9H185.2v-.7H46.9v.7Z" class="g2_109" />
<path fill-rule="evenodd" d="M185.2,1044.9h.8v-.7h-.8v.7Z" class="g2_109" />
<path fill-rule="evenodd" d="M186,1044.9H302.2v-.7H186v.7Z" class="g2_109" />
<path fill-rule="evenodd" d="M302.2,1044.9h.8v-.7h-.8v.7Z" class="g2_109" />
<path fill-rule="evenodd" d="M303,1044.9H494.8v-.7H303v.7Z" class="g2_109" />
<path fill-rule="evenodd" d="M494.8,1044.9h.8v-.7h-.8v.7Z" class="g2_109" />
<path fill-rule="evenodd" d="M494.8,1044.9h.8v-.7h-.8v.7Z" class="g2_109" />
<path fill-rule="evenodd" d="M46.2,1066.2h.7v-21.3h-.7v21.3Z" class="g2_109" />
<path fill-rule="evenodd" d="M185.2,1066.2h.8v-21.3h-.8v21.3Z" class="g2_109" />
<path fill-rule="evenodd" d="M302.2,1066.2h.8v-21.3h-.8v21.3Z" class="g2_109" />
<path fill-rule="evenodd" d="M494.8,1066.2h.8v-21.3h-.8v21.3Z" class="g2_109" />
<g fill="#000000" >
<use xlink:href="#f3_l" transform="matrix(12,0,0,12,55,1083.8)" />
<use xlink:href="#f3_k" transform="matrix(12,0,0,12,194,1083.8)" />
<use xlink:href="#f3_k" transform="matrix(12,0,0,12,310.7,1083.8)" />
<use xlink:href="#f3_i" transform="matrix(12,0,0,12,319.8,1083.8)" />
<use xlink:href="#f3_o" transform="matrix(12,0,0,12,324.6,1083.8)" />
</g>
<path fill-rule="evenodd" d="M46.2,1066.9h.7v-.7h-.7v.7Z" class="g2_109" />
<path fill-rule="evenodd" d="M46.9,1066.9H185.2v-.7H46.9v.7Z" class="g2_109" />
<path fill-rule="evenodd" d="M185.2,1066.9h.8v-.7h-.8v.7Z" class="g2_109" />
<path fill-rule="evenodd" d="M186,1066.9H302.2v-.7H186v.7Z" class="g2_109" />
<path fill-rule="evenodd" d="M302.2,1066.9h.8v-.7h-.8v.7Z" class="g2_109" />
<path fill-rule="evenodd" d="M303,1066.9H494.8v-.7H303v.7Z" class="g2_109" />
<path fill-rule="evenodd" d="M494.8,1066.9h.8v-.7h-.8v.7Z" class="g2_109" />
<path fill-rule="evenodd" d="M46.2,1087.8h.7v-20.9h-.7v20.9Z" class="g2_109" />
<path fill-rule="evenodd" d="M185.2,1087.8h.8v-20.9h-.8v20.9Z" class="g2_109" />
<path fill-rule="evenodd" d="M302.2,1087.8h.8v-20.9h-.8v20.9Z" class="g2_109" />
<path fill-rule="evenodd" d="M494.8,1087.8h.8v-20.9h-.8v20.9Z" class="g2_109" />
<g fill="#000000" >
<use xlink:href="#f3_m" transform="matrix(12,0,0,12,55,1105.4)" />
<use xlink:href="#f3_l" transform="matrix(12,0,0,12,194,1105.4)" />
<use xlink:href="#f3_k" transform="matrix(12,0,0,12,203.2,1105.4)" />
<use xlink:href="#f3_k" transform="matrix(12,0,0,12,212.4,1105.4)" />
<use xlink:href="#f3_k" transform="matrix(12,0,0,12,310.7,1105.4)" />
<use xlink:href="#f3_i" transform="matrix(12,0,0,12,319.8,1105.4)" />
<use xlink:href="#f3_r" transform="matrix(12,0,0,12,324.6,1105.4)" />
</g>
<path fill-rule="evenodd" d="M46.2,1088.6h.7v-.8h-.7v.8Z" class="g2_109" />
<path fill-rule="evenodd" d="M46.9,1088.6H185.2v-.8H46.9v.8Z" class="g2_109" />
<path fill-rule="evenodd" d="M185.2,1088.6h.8v-.8h-.8v.8Z" class="g2_109" />
<path fill-rule="evenodd" d="M186,1088.6H302.2v-.8H186v.8Z" class="g2_109" />
<path fill-rule="evenodd" d="M302.2,1088.6h.8v-.8h-.8v.8Z" class="g2_109" />
<path fill-rule="evenodd" d="M303,1088.6H494.8v-.8H303v.8Z" class="g2_109" />
<path fill-rule="evenodd" d="M494.8,1088.6h.8v-.8h-.8v.8Z" class="g2_109" />
<path fill-rule="evenodd" d="M46.2,1109.8h.7v-21.2h-.7v21.2Z" class="g2_109" />
<path fill-rule="evenodd" d="M46.2,1110.6h.7v-.8h-.7v.8Z" class="g2_109" />
<path fill-rule="evenodd" d="M46.2,1110.6h.7v-.8h-.7v.8Z" class="g2_109" />
<path fill-rule="evenodd" d="M46.9,1110.6H185.2v-.8H46.9v.8Z" class="g2_109" />
<path fill-rule="evenodd" d="M185.2,1109.8h.8v-21.2h-.8v21.2Z" class="g2_109" />
<path fill-rule="evenodd" d="M185.2,1110.6h.8v-.8h-.8v.8Z" class="g2_109" />
<path fill-rule="evenodd" d="M186,1110.6H302.2v-.8H186v.8Z" class="g2_109" />
<path fill-rule="evenodd" d="M302.2,1109.8h.8v-21.2h-.8v21.2Z" class="g2_109" />
<path fill-rule="evenodd" d="M302.2,1110.6h.8v-.8h-.8v.8Z" class="g2_109" />
<path fill-rule="evenodd" d="M303,1110.6H494.8v-.8H303v.8Z" class="g2_109" />
<path fill-rule="evenodd" d="M494.8,1109.8h.8v-21.2h-.8v21.2Z" class="g2_109" />
<path fill-rule="evenodd" d="M494.8,1110.6h.8v-.8h-.8v.8Z" class="g2_109" />
<path fill-rule="evenodd" d="M494.8,1110.6h.8v-.8h-.8v.8Z" class="g2_109" />
<g fill="#000000" >
<use xlink:href="#f3_13" transform="matrix(12,0,0,12,55,1148.3)" />
<use xlink:href="#f3_1x" transform="matrix(12,0,0,12,67.1,1148.3)" />
<use xlink:href="#f3_28" transform="matrix(12,0,0,12,75.6,1148.3)" />
<use xlink:href="#f3_1z" transform="matrix(12,0,0,12,80.3,1148.3)" />
<use xlink:href="#f3_2h" transform="matrix(12,0,0,12,88.4,1148.3)" />
<use xlink:href="#f3_28" transform="matrix(12,0,0,12,97.9,1148.3)" />
<use xlink:href="#f3_1x" transform="matrix(12,0,0,12,102.7,1148.3)" />
<use xlink:href="#f3_2g" transform="matrix(12,0,0,12,110.7,1148.3)" />
<use xlink:href="#f3_21" transform="matrix(12,0,0,12,116.2,1148.3)" />
<use xlink:href="#f3_2g" transform="matrix(12,0,0,12,128.7,1148.3)" />
<use xlink:href="#f3_24" transform="matrix(12,0,0,12,134.2,1148.3)" />
<use xlink:href="#f3_21" transform="matrix(12,0,0,12,143,1148.3)" />
<use xlink:href="#f3_2e" transform="matrix(12,0,0,12,155.8,1148.3)" />
<use xlink:href="#f3_1x" transform="matrix(12,0,0,12,162,1148.3)" />
<use xlink:href="#f3_2g" transform="matrix(12,0,0,12,170.1,1148.3)" />
<use xlink:href="#f3_21" transform="matrix(12,0,0,12,175.5,1148.3)" />
<use xlink:href="#f3_1z" transform="matrix(12,0,0,12,188,1148.3)" />
<use xlink:href="#f3_2b" transform="matrix(12,0,0,12,195.7,1148.3)" />
<use xlink:href="#f3_2a" transform="matrix(12,0,0,12,205.2,1148.3)" />
<use xlink:href="#f3_2f" transform="matrix(12,0,0,12,214,1148.3)" />
<use xlink:href="#f3_2g" transform="matrix(12,0,0,12,221,1148.3)" />
<use xlink:href="#f3_1x" transform="matrix(12,0,0,12,226.5,1148.3)" />
<use xlink:href="#f3_2a" transform="matrix(12,0,0,12,234.5,1148.3)" />
<use xlink:href="#f3_2g" transform="matrix(12,0,0,12,243.3,1148.3)" />
<use xlink:href="#f3_i" transform="matrix(12,0,0,12,248.8,1148.3)" />
<use xlink:href="#f3_c" transform="matrix(12,0,0,12,55,1169.6)" />
<use xlink:href="#f3_17" transform="matrix(12,0,0,12,61.3,1169.6)" />
<use xlink:href="#f3_25" transform="matrix(12,0,0,12,74.8,1169.6)" />
<use xlink:href="#f3_2i" transform="matrix(12,0,0,12,79.6,1169.6)" />
<use xlink:href="#f3_21" transform="matrix(12,0,0,12,88.4,1169.6)" />
<use xlink:href="#f3_2a" transform="matrix(12,0,0,12,96.8,1169.6)" />
<use xlink:href="#f3_u" transform="matrix(12,0,0,12,110.3,1169.6)" />
<use xlink:href="#f3_28" transform="matrix(12,0,0,12,120.6,1169.6)" />
<use xlink:href="#f3_2b" transform="matrix(12,0,0,12,125,1169.6)" />
<use xlink:href="#f3_23" transform="matrix(12,0,0,12,134.5,1169.6)" />
<use xlink:href="#f3_o" transform="matrix(12,0,0,12,148.4,1169.6)" />
<use xlink:href="#f3_x" transform="matrix(12,0,0,12,162.3,1169.6)" />
<use xlink:href="#f3_k" transform="matrix(12,0,0,12,177,1169.6)" />
<use xlink:href="#f3_i" transform="matrix(12,0,0,12,186.1,1169.6)" />
<use xlink:href="#f3_q" transform="matrix(12,0,0,12,190.9,1169.6)" />
<use xlink:href="#f3_k" transform="matrix(12,0,0,12,200.1,1169.6)" />
<use xlink:href="#f3_m" transform="matrix(12,0,0,12,209.2,1169.6)" />
<use xlink:href="#f3_l" transform="matrix(12,0,0,12,218.4,1169.6)" />
<use xlink:href="#f3_g" transform="matrix(12,0,0,12,227.2,1169.6)" />
<use xlink:href="#f3_28" transform="matrix(12,0,0,12,236.7,1169.6)" />
<use xlink:href="#f3_2b" transform="matrix(12,0,0,12,241.1,1169.6)" />
<use xlink:href="#f3_23" transform="matrix(12,0,0,12,250.6,1169.6)" />
<use xlink:href="#f3_m" transform="matrix(12,0,0,12,264.5,1169.6)" />
<use xlink:href="#f3_x" transform="matrix(12,0,0,12,278.4,1169.6)" />
<use xlink:href="#f3_k" transform="matrix(12,0,0,12,293.1,1169.6)" />
<use xlink:href="#f3_i" transform="matrix(12,0,0,12,302.2,1169.6)" />
<use xlink:href="#f3_n" transform="matrix(12,0,0,12,307,1169.6)" />
<use xlink:href="#f3_k" transform="matrix(12,0,0,12,316.2,1169.6)" />
<use xlink:href="#f3_l" transform="matrix(12,0,0,12,325.3,1169.6)" />
<use xlink:href="#f3_k" transform="matrix(12,0,0,12,334.5,1169.6)" />
<use xlink:href="#f3_d" transform="matrix(12,0,0,12,343.3,1169.6)" />
</g>
<image preserveAspectRatio="none" x="62" y="127" width="448" height="287" xlink:href="img/6.png" />
<image preserveAspectRatio="none" x="62" y="414" width="517" height="93" xlink:href="img/7.png" />
<path fill-rule="evenodd" d="M37.4,38.1h.7v-.7h-.7v.7Z" class="g2_109" />
<path fill-rule="evenodd" d="M37.4,38.1h.7v-.7h-.7v.7Z" class="g2_109" />
<path fill-rule="evenodd" d="M38.1,38.1H871.5v-.7H38.1v.7Z" class="g2_109" />
<path fill-rule="evenodd" d="M871.5,38.1h.8v-.7h-.8v.7Z" class="g2_109" />
<path fill-rule="evenodd" d="M871.5,38.1h.8v-.7h-.8v.7Z" class="g2_109" />
<path fill-rule="evenodd" d="M37.4,1248.5h.7V38.1h-.7V1248.5Z" class="g2_109" />
<path fill-rule="evenodd" d="M872.3,1248.5h.7V38.1h-.7V1248.5Z" class="g2_109" />
<path fill-rule="evenodd" d="M871.5,1248.5h.8V38.1h-.8V1248.5Z" class="g2_109" />
<path fill-rule="evenodd" d="M37.4,1249.2h.7v-.7h-.7v.7Z" class="g2_109" />
<path fill-rule="evenodd" d="M37.4,1249.2h.7v-.7h-.7v.7Z" class="g2_109" />
<path fill-rule="evenodd" d="M38.1,1249.9H871.5v-.7H38.1v.7Z" class="g2_109" />
<path fill-rule="evenodd" d="M38.1,1249.2H871.5v-.7H38.1v.7Z" class="g2_109" />
<path fill-rule="evenodd" d="M872.3,1249.9h.7v-1.4h-.7v1.4Z" class="g2_109" />
<path fill-rule="evenodd" d="M871.5,1249.9H873v-.7h-1.5v.7Z" class="g2_109" />
<path fill-rule="evenodd" d="M871.5,1249.2h.8v-.7h-.8v.7Z" class="g2_109" />
<path fill-rule="evenodd" d="M871.5,1249.2h.8v-.7h-.8v.7Z" class="g2_109" />
<defs>
<path d="M489,-15c0,0,-99,0,-179,30c0,0,-80,30,-136,91c0,0,-56,61,-85,152c0,0,-30,91,-30,212c0,0,0,123,32,218c0,0,33,96,92,161c0,0,59,65,142,98c0,0,82,34,181,34c0,0,40,0,78,-7c0,0,37,-7,69,-18c0,0,31,-11,57,-25c0,0,25,-14,35,-24c0,0,10,-10,14,-17c0,0,4,-7,6,-17c0,0,2,-11,3,-25c0,0,2,-14,2,-35c0,0,0,-22,-2,-38c0,0,-1,-15,-5,-25c0,0,-4,-10,-9,-14c0,0,-5,-5,-12,-5c0,0,-11,0,-28,13c0,0,-18,13,-45,29c0,0,-27,16,-65,29c0,0,-37,13,-89,13c0,0,-58,0,-103,-23c0,0,-45,-23,-77,-67c0,0,-31,-44,-48,-106c0,0,-16,-61,-16,-139c0,0,0,-85,17,-147c0,0,18,-62,50,-103c0,0,33,-40,79,-60c0,0,45,-19,103,-19c0,0,52,0,90,12c0,0,38,12,65,27c0,0,27,15,45,27c0,0,17,12,27,12c0,0,8,0,12,-3c0,0,4,-3,7,-12c0,0,3,-9,5,-25c0,0,1,-16,1,-43c0,0,0,-18,-1,-31c0,0,-1,-14,-3,-23c0,0,-2,-9,-6,-16c0,0,-4,-7,-12,-15c0,0,-8,-9,-32,-22c0,0,-23,-14,-57,-26C661,13,627,1,583,-6c0,0,-43,-9,-94,-9Z" 
id="f0_j"
transform="scale(0.001,-0.001)" />

<path d="M440,150c0,0,41,0,68,8c0,0,28,9,49,26c0,0,20,16,32,41c0,0,11,25,11,58c0,0,0,33,-11,60c0,0,-11,26,-33,44c0,0,-21,18,-55,28c0,0,-33,9,-87,9H298V150ZM407,567c0,0,42,0,68,10c0,0,25,10,42,28c0,0,16,17,24,41c0,0,9,24,9,50c0,0,0,29,-9,52c0,0,-9,23,-27,39c0,0,-18,15,-45,23c0,0,-27,8,-72,8H298V567ZM164,0c0,0,-25,0,-42,15c0,0,-16,14,-16,47V903c0,0,0,33,16,48c0,0,17,14,42,14H406c0,0,88,0,150,-15c0,0,61,-15,103,-45c0,0,42,-30,65,-77c0,0,22,-46,22,-108c0,0,0,-36,-9,-67c0,0,-9,-31,-26,-56c0,0,-17,-25,-42,-45c0,0,-25,-19,-57,-31c0,0,41,-7,76,-26c0,0,34,-19,60,-48c0,0,26,-30,41,-69c0,0,15,-40,15,-89c0,0,0,-51,-14,-93c0,0,-15,-42,-40,-74c0,0,-25,-32,-59,-55c0,0,-35,-23,-77,-38C614,29,573,14,525,7C525,7,478,0,420,0Z" 
id="f0_i"
transform="scale(0.001,-0.001)" />

<path d="M320,-17c0,0,-50,0,-93,9c0,0,-43,8,-76,19c0,0,-32,11,-54,24C97,35,75,48,65,58c0,0,-10,9,-14,28c0,0,-4,18,-4,52c0,0,0,23,1,39c0,0,2,15,5,25c0,0,4,10,9,14c0,0,6,4,13,4c0,0,11,0,30,-12c0,0,19,-13,49,-28c0,0,30,-15,71,-27c0,0,42,-12,96,-12c0,0,36,0,64,8c0,0,29,9,49,25c0,0,19,15,30,38c0,0,10,23,10,52c0,0,0,33,-18,56c0,0,-18,24,-46,42c0,0,-29,18,-66,34c0,0,-36,16,-75,34c0,0,-39,18,-76,41c0,0,-36,23,-65,54c0,0,-29,32,-47,75c0,0,-17,44,-17,104c0,0,0,70,25,122c0,0,26,53,70,88c0,0,43,34,103,51c0,0,59,18,125,18c0,0,35,0,69,-6c0,0,34,-5,64,-14c0,0,30,-9,53,-20c0,0,23,-11,31,-18c0,0,7,-8,10,-13c0,0,3,-5,4,-14c0,0,2,-8,3,-21c0,0,1,-13,1,-33c0,0,0,-21,-1,-36c0,0,-1,-15,-4,-25c0,0,-3,-9,-7,-14c0,0,-5,-4,-14,-4c0,0,-8,0,-26,10c0,0,-18,10,-44,23c0,0,-26,12,-60,22c0,0,-34,10,-75,10c0,0,-32,0,-56,-8c0,0,-24,-8,-40,-21c0,0,-16,-14,-24,-34c0,0,-8,-19,-8,-41c0,0,0,-32,18,-56c0,0,17,-23,46,-42c0,0,30,-18,67,-34c0,0,38,-16,76,-34c0,0,39,-18,76,-41c0,0,38,-22,67,-54c0,0,29,-32,47,-75c0,0,18,-43,18,-101c0,0,0,-76,-29,-133c0,0,-28,-58,-77,-96C572,60,524,21,459,2c0,0,-65,-19,-139,-19Z" 
id="f0_2n"
transform="scale(0.001,-0.001)" />

<path d="M164,0c0,0,-25,0,-42,15c0,0,-16,14,-16,47V903c0,0,0,33,16,48c0,0,17,14,42,14H645c0,0,7,0,12,-4c0,0,5,-3,9,-13c0,0,4,-9,6,-24c0,0,2,-14,2,-36c0,0,0,-21,-2,-36c0,0,-2,-14,-6,-23c0,0,-4,-9,-9,-13c0,0,-5,-4,-12,-4H301V576H593c0,0,6,0,12,-4c0,0,6,-4,9,-13c0,0,4,-8,6,-23c0,0,2,-14,2,-35c0,0,0,-22,-2,-36c0,0,-2,-14,-6,-23c0,0,-3,-8,-9,-12c0,0,-6,-4,-12,-4H301V154H649c0,0,6,0,12,-5c0,0,5,-4,9,-13c0,0,4,-9,6,-23c0,0,2,-15,2,-36c0,0,0,-22,-2,-36c0,0,-2,-15,-6,-24c0,0,-4,-9,-9,-13c0,0,-6,-4,-12,-4Z" 
id="f0_t"
transform="scale(0.001,-0.001)" />

<path d="M79,297c0,0,-19,0,-27,18c0,0,-8,17,-8,60c0,0,0,41,8,59c0,0,8,17,27,17H389c0,0,9,0,15,-4c0,0,7,-4,11,-13c0,0,5,-9,7,-23c0,0,1,-15,1,-36c0,0,0,-43,-8,-61c0,0,-8,-17,-26,-17Z" 
id="f0_oj"
transform="scale(0.001,-0.001)" />

<path d="M121,-4c0,0,-39,0,-60,2C61,-2,39,0,32,8c0,0,-8,8,-3,24c0,0,4,15,18,41L279,495L64,892c0,0,-14,26,-19,42c0,0,-5,17,4,24c0,0,9,8,32,10c0,0,23,2,65,2c0,0,35,0,56,-2c0,0,20,-1,32,-4c0,0,12,-4,17,-10c0,0,5,-6,9,-15L431,620L595,939c0,0,5,9,10,15c0,0,5,6,16,10c0,0,10,3,29,4c0,0,19,2,53,2c0,0,37,0,59,-2c0,0,22,-2,30,-10c0,0,8,-8,4,-24c0,0,-4,-16,-17,-42L564,497L793,73c0,0,14,-26,18,-41c0,0,4,-16,-5,-24c0,0,-9,-8,-32,-10c0,0,-24,-2,-65,-2c0,0,-36,0,-56,2c0,0,-20,1,-31,3c0,0,-12,4,-17,10c0,0,-5,6,-9,15L414,374L233,26c0,0,-4,-9,-9,-15c0,0,-6,-6,-17,-10c0,0,-12,-2,-32,-3c0,0,-21,-2,-54,-2Z" 
id="f0_3e"
transform="scale(0.001,-0.001)" />

<path d="M204,-4c0,0,-28,0,-47,2c0,0,-19,2,-31,5c0,0,-11,4,-16,10c0,0,-4,6,-4,13V939c0,0,0,7,4,13c0,0,5,6,17,10c0,0,11,3,30,6c0,0,19,2,47,2c0,0,29,0,48,-2c0,0,18,-3,29,-6c0,0,11,-4,16,-10c0,0,5,-6,5,-13V26c0,0,0,-7,-5,-13c0,0,-5,-6,-16,-10c0,0,-11,-3,-29,-5c0,0,-19,-2,-48,-2Z" 
id="f0_1c"
transform="scale(0.001,-0.001)" />

<path d="M127,0c0,0,-16,0,-28,3C99,3,87,6,80,15c0,0,-8,8,-11,25c0,0,-3,16,-3,42c0,0,0,25,2,42c0,0,2,18,8,32c0,0,6,14,15,27c0,0,9,13,24,29L282,390c0,0,50,53,81,95c0,0,30,43,47,79c0,0,17,35,24,65c0,0,6,30,6,57c0,0,0,24,-8,46c0,0,-8,22,-23,39c0,0,-15,16,-38,25c0,0,-23,10,-55,10c0,0,-44,0,-78,-12c0,0,-33,-11,-59,-25c0,0,-26,-13,-43,-25c0,0,-17,-12,-27,-12c0,0,-7,0,-11,5c0,0,-5,4,-8,15c0,0,-3,10,-5,28c0,0,-2,17,-2,42c0,0,0,18,1,29c0,0,1,12,4,20c0,0,2,9,6,15c0,0,3,6,13,15c0,0,9,9,34,23c0,0,25,14,61,27c0,0,37,14,81,23c0,0,44,9,92,9c0,0,75,0,131,-19c0,0,57,-19,94,-53c0,0,37,-34,55,-81c0,0,19,-47,19,-100c0,0,0,-47,-9,-93c0,0,-9,-45,-37,-98c0,0,-29,-52,-80,-116c0,0,-52,-64,-136,-148L299,159H679c0,0,8,0,14,-4c0,0,6,-5,11,-14c0,0,4,-9,7,-25c0,0,2,-15,2,-36c0,0,0,-22,-2,-37c0,0,-2,-15,-6,-25c0,0,-3,-10,-9,-14c0,0,-6,-4,-14,-4Z" 
id="f0_rz"
transform="scale(0.001,-0.001)" />

<path d="M385,138c0,0,29,0,52,9c0,0,22,10,39,28c0,0,17,19,28,47c0,0,11,29,19,66c0,0,7,37,9,84c0,0,3,47,3,104c0,0,0,69,-4,122c0,0,-4,52,-11,91c0,0,-8,39,-20,66c0,0,-12,27,-28,43c0,0,-16,16,-37,22c0,0,-21,7,-47,7c0,0,-44,0,-73,-21c0,0,-28,-21,-45,-64c0,0,-17,-42,-24,-106c0,0,-6,-63,-6,-148c0,0,0,-103,8,-171c0,0,8,-67,26,-107c0,0,17,-40,45,-56c0,0,27,-16,66,-16ZM378,-17c0,0,-99,0,-164,33c0,0,-65,34,-103,98c0,0,-38,64,-54,156c0,0,-15,92,-15,209c0,0,0,115,19,208c0,0,19,94,61,160c0,0,42,65,110,101c0,0,68,35,165,35c0,0,99,0,164,-34c0,0,65,-34,103,-98c0,0,39,-64,53,-156c0,0,15,-92,15,-209c0,0,0,-115,-18,-209c0,0,-19,-93,-61,-159C653,118,611,53,543,17c0,0,-67,-34,-165,-34Z" 
id="f0_rx"
transform="scale(0.001,-0.001)" />

<path d="M142,0c0,0,-6,0,-12,4c0,0,-5,3,-9,12c0,0,-4,9,-6,23c0,0,-3,15,-3,36c0,0,0,21,2,36c0,0,2,14,6,23c0,0,4,9,10,13c0,0,5,5,12,5H322V779L166,693c0,0,-17,-8,-28,-10c0,0,-1,0,-3,0c-4,0,-10,1,-14,5c0,0,-6,6,-8,22c0,0,-2,15,-2,44c0,0,0,18,0,29c0,0,1,12,4,20c0,0,3,8,8,14c0,0,5,5,14,11L345,962c0,0,4,3,9,5c0,0,6,2,15,3c0,0,9,1,23,2c0,0,15,0,38,0c0,0,28,0,46,-1c0,0,17,-1,26,-4c0,0,9,-3,12,-7c0,0,3,-4,3,-11V152H675c0,0,7,0,12,-5c0,0,6,-4,10,-13c0,0,4,-9,6,-23c0,0,2,-15,2,-36c0,0,0,-21,-2,-36c0,0,-3,-14,-7,-23c0,0,-4,-9,-9,-12c0,0,-5,-4,-12,-4Z" 
id="f0_ry"
transform="scale(0.001,-0.001)" />

<path d="M439,356V801h-1L183,356ZM532,-4c0,0,-27,0,-45,2c0,0,-18,2,-29,5c0,0,-11,3,-15,9c0,0,-4,5,-4,13V199H70c0,0,-11,0,-19,3c0,0,-8,3,-14,12c0,0,-5,9,-8,27c0,0,-3,17,-3,46c0,0,0,24,2,42c0,0,1,17,3,31c0,0,3,15,8,27c0,0,5,13,12,27L351,944c0,0,4,7,13,11c0,0,9,5,25,9c0,0,16,3,40,4c0,0,25,2,60,2c0,0,38,0,65,-2c0,0,27,-2,43,-6c0,0,16,-4,23,-10c0,0,8,-6,8,-14V356h85c0,0,12,0,21,-18c0,0,8,-19,8,-61c0,0,0,-38,-8,-58c0,0,-7,-20,-21,-20H628V25c0,0,0,-8,-5,-13c0,0,-4,-6,-15,-9c0,0,-12,-3,-29,-5c0,0,-18,-2,-47,-2Z" 
id="f0_s1"
transform="scale(0.001,-0.001)" />

<path d="M589,371L453,782h-1L317,371ZM106,-4c0,0,-35,0,-54,2C52,-2,32,0,25,8c0,0,-7,9,-5,24c0,0,2,16,11,42L329,931c0,0,4,13,10,21c0,0,6,7,19,12c0,0,13,4,36,5c0,0,23,1,61,1c0,0,44,0,71,-1c0,0,26,-1,40,-5c0,0,15,-5,21,-13c0,0,6,-8,11,-22L896,73c0,0,9,-27,11,-43c0,0,3,-15,-6,-23c0,0,-8,-7,-29,-9c0,0,-21,-2,-57,-2c0,0,-38,0,-59,1c0,0,-22,1,-33,4c0,0,-11,3,-16,9c0,0,-4,6,-7,16L635,220H272L211,31c0,0,-2,-11,-7,-18c0,0,-5,-7,-16,-11c0,0,-11,-3,-31,-4c0,0,-19,-2,-51,-2Z" 
id="f0_5"
transform="scale(0.001,-0.001)" />

<path d="M198,-4c0,0,-27,0,-45,2c0,0,-18,2,-28,5c0,0,-11,4,-15,10c0,0,-4,6,-4,13V887c0,0,0,38,20,58c0,0,20,20,53,20H308c0,0,34,0,59,-6c0,0,24,-5,42,-18c0,0,18,-13,30,-35c0,0,12,-21,21,-52L669,279h3L889,852c0,0,9,32,21,53c0,0,11,22,27,35c0,0,15,14,36,19c0,0,21,6,48,6h132c0,0,21,0,35,-5c0,0,15,-5,24,-15c0,0,9,-11,14,-25c0,0,5,-15,5,-33V26c0,0,0,-7,-4,-13c0,0,-4,-6,-15,-10c0,0,-11,-3,-29,-5c0,0,-18,-2,-45,-2c0,0,-27,0,-45,2c0,0,-18,2,-28,5c0,0,-11,4,-15,10c0,0,-5,6,-5,13V813h-1L764,27c0,0,-3,-10,-10,-16c0,0,-6,-6,-18,-10c0,0,-12,-3,-29,-4c0,0,-18,-1,-44,-1c0,0,-25,0,-43,2c0,0,-18,2,-29,5c0,0,-12,4,-19,10c0,0,-6,6,-9,14L293,813h-2V26c0,0,0,-7,-4,-13c0,0,-4,-6,-15,-10c0,0,-11,-3,-29,-5c0,0,-17,-2,-45,-2Z" 
id="f0_1x"
transform="scale(0.001,-0.001)" />

<path d="M193,-4c0,0,-26,0,-43,2c0,0,-18,2,-27,6c0,0,-10,4,-14,10c0,0,-3,6,-3,13V895c0,0,0,35,20,53c0,0,21,17,50,17H282c0,0,28,0,47,-5c0,0,20,-5,35,-16c0,0,15,-11,29,-31c0,0,13,-20,27,-49L608,511c0,0,17,-32,33,-63c0,0,16,-31,31,-62c0,0,14,-31,29,-60c0,0,14,-30,27,-60h1c0,0,-2,52,-3,109c0,0,-1,57,-1,108V936c0,0,0,7,4,13c0,0,5,6,15,11c0,0,10,4,28,6c0,0,17,2,44,2c0,0,25,0,42,-2c0,0,17,-2,27,-6c0,0,9,-5,13,-11c0,0,4,-6,4,-13V68c0,0,0,-17,-6,-30c0,0,-6,-14,-17,-23C879,15,869,6,856,2c0,0,-14,-3,-28,-3H744c0,0,-26,0,-45,4c0,0,-19,5,-35,19c0,0,-16,14,-31,38c0,0,-15,23,-34,60L359,572c0,0,-21,40,-43,86c0,0,-21,47,-38,91h-2c0,0,3,-54,5,-107c0,0,2,-53,2,-110V27c0,0,0,-7,-5,-13c0,0,-4,-6,-14,-10c0,0,-10,-4,-27,-6c0,0,-17,-2,-44,-2Z" 
id="f0_1y"
transform="scale(0.001,-0.001)" />

<path d="M378,-4c0,0,-28,0,-47,2c0,0,-19,2,-31,5c0,0,-11,4,-16,10c0,0,-4,6,-4,13V805H38c0,0,-8,0,-13,4c0,0,-5,5,-9,14c0,0,-3,9,-5,25c0,0,-2,15,-2,37c0,0,0,22,2,38c0,0,2,15,5,25c0,0,4,9,9,13c0,0,5,4,13,4H718c0,0,7,0,12,-4c0,0,6,-4,10,-13c0,0,3,-10,5,-25c0,0,2,-16,2,-38c0,0,0,-22,-2,-37c0,0,-2,-16,-5,-25c0,0,-4,-9,-10,-14c0,0,-5,-4,-12,-4H476V26c0,0,0,-7,-5,-13c0,0,-5,-6,-16,-10c0,0,-11,-3,-30,-5c0,0,-19,-2,-47,-2Z" 
id="f0_2t"
transform="scale(0.001,-0.001)" />

<path d="M514,145c0,0,72,0,121,27c0,0,48,26,78,73c0,0,30,46,42,107c0,0,13,62,13,131c0,0,0,76,-12,139c0,0,-12,62,-41,106c0,0,-29,45,-76,69c0,0,-48,24,-120,24c0,0,-72,0,-120,-27c0,0,-49,-27,-79,-73c0,0,-29,-45,-42,-106c0,0,-12,-61,-12,-129c0,0,0,-79,12,-142c0,0,12,-63,40,-108c0,0,28,-44,76,-68c0,0,48,-23,120,-23ZM508,-17c0,0,-113,0,-196,29c0,0,-84,29,-140,90c0,0,-56,60,-84,154c0,0,-28,93,-28,221c0,0,0,117,29,210c0,0,30,94,89,160c0,0,59,65,146,101c0,0,87,35,202,35c0,0,110,0,194,-29c0,0,84,-30,140,-90c0,0,56,-60,85,-153c0,0,29,-92,29,-217c0,0,0,-120,-30,-215c0,0,-30,-95,-89,-161C855,118,796,52,709,17c0,0,-87,-34,-201,-34Z" 
id="f0_24"
transform="scale(0.001,-0.001)" />

<path d="M340,-13c0,0,-73,0,-129,20C211,7,155,27,86,74l22,217c0,0,156,-103,245,-103c0,0,64,0,112,45c0,0,47,46,47,107c0,0,0,68,-47,113c0,0,-48,46,-121,46c0,0,-85,0,-184,-42l48,495H681V777H393L382,665c0,0,163,0,251,-95c0,0,88,-95,88,-224c0,0,0,-146,-113,-253C608,93,494,-13,340,-13Z" 
id="f1_p"
transform="scale(0.001,-0.001)" />

<path d="M44,-281L425,1053H537L156,-281Z" 
id="f1_j"
transform="scale(0.001,-0.001)" />

<path d="M299,0V777H162l36,173H508V0Z" 
id="f1_l"
transform="scale(0.001,-0.001)" />

<path d="M122,0V64L295,82V837L123,780v64l282,165H511V82L685,64V0Z" 
id="f2_l"
transform="scale(0.001,-0.001)" />

<path d="M377,60c0,0,65,0,94,49c0,0,30,49,30,160c0,0,0,115,-30,168c0,0,-29,52,-94,52c0,0,-61,0,-88,-51c0,0,-26,-51,-26,-169c0,0,0,-115,27,-162c0,0,27,-47,87,-47Zm2,509c0,0,51,0,75,43c0,0,24,43,24,143c0,0,0,98,-24,142c0,0,-25,45,-75,45c0,0,-48,0,-71,-45c0,0,-22,-44,-22,-142c0,0,0,-102,22,-144c0,0,22,-42,71,-42ZM377,-14c0,0,-326,0,-326,284c0,0,0,95,46,162c0,0,46,68,128,98c0,0,-72,28,-112,85c0,0,-39,58,-39,141c0,0,0,123,81,191c0,0,81,69,228,69c0,0,145,0,226,-70c0,0,81,-70,81,-192c0,0,0,-82,-40,-140c0,0,-41,-58,-114,-84c0,0,86,-32,132,-99c0,0,45,-67,45,-161c0,0,0,-142,-82,-213c0,0,-81,-71,-254,-71Z" 
id="f2_s"
transform="scale(0.001,-0.001)" />

<path d="M191,-20c0,0,-51,0,-88,34c0,0,-36,36,-36,88c0,0,0,52,36,88c0,0,36,36,88,36c0,0,51,0,88,-36c0,0,36,-36,36,-88c0,0,0,-51,-36,-87c0,0,-36,-35,-88,-35Z" 
id="f2_i"
transform="scale(0.001,-0.001)" />

<path d="M420,-22L89,941L1,960v40H383V960L236,941L474,236L744,930h33L1037,236l227,705l-156,19v40h331V960l-87,-19L1025,-22H985L726,666L460,-22Z" 
id="f3_1n"
transform="scale(0.001,-0.001)" />

<path d="M31,0V33l88,19V649L31,668v33H235l7,-87c0,0,44,37,121,71c0,0,76,35,121,35h11V530H463l-43,82c0,0,-37,0,-88,-10c0,0,-52,-10,-89,-26V52L363,33V0Z" 
id="f3_2e"
transform="scale(0.001,-0.001)" />

<path d="M32,0V33L151,52V649L52,668v33H275V52L395,33V0ZM201,850c0,0,-32,0,-56,24c0,0,-24,24,-24,56c0,0,0,34,24,58c0,0,24,24,56,24c0,0,34,0,58,-24c0,0,24,-24,24,-58c0,0,0,-32,-24,-56c0,0,-24,-24,-58,-24Z" 
id="f3_25"
transform="scale(0.001,-0.001)" />

<path d="M249,-14c0,0,-71,0,-107,42c0,0,-35,42,-35,119V639H15v33l93,29l76,159h47V701H391V639H231V161c0,0,0,-48,22,-73c0,0,22,-24,57,-24c0,0,44,0,106,12V26C416,26,389,8,340,-2c0,0,-49,-12,-91,-12Z" 
id="f3_2g"
transform="scale(0.001,-0.001)" />

<path d="M495,413c0,0,0,133,-34,190c0,0,-34,57,-105,57c0,0,-78,0,-119,-63c0,0,-42,-62,-42,-184ZM374,-14c0,0,-163,0,-239,87c0,0,-75,88,-75,283c0,0,0,183,77,273c0,0,76,91,219,91c0,0,269,0,269,-306V353H194V340c0,0,0,-103,23,-160c0,0,22,-57,70,-87c0,0,47,-29,124,-29c0,0,40,0,96,6c0,0,55,7,91,15V43C598,43,562,20,500,3c0,0,-61,-17,-126,-17Z" 
id="f3_21"
transform="scale(0.001,-0.001)" />

<path d="M442,0V33l93,19V504c0,0,0,129,-124,129c0,0,-70,0,-168,-22V52L338,33V0H31V33l88,19v956L15,1026v34H243V756c0,0,0,-77,-5,-112c0,0,54,31,122,53c0,0,68,23,115,23c0,0,91,0,137,-53c0,0,47,-53,47,-154V52L744,33V0Z" 
id="f3_24"
transform="scale(0.001,-0.001)" />

<path d="M439,0V33l93,19V500c0,0,0,62,-30,97c0,0,-31,36,-94,36c0,0,-67,0,-165,-22V52L338,33V0H35V33l84,19V649L35,668v33H235l7,-57c0,0,57,33,122,54c0,0,65,22,108,22c0,0,91,0,137,-53c0,0,47,-53,47,-154V52L741,33V0Z" 
id="f3_2a"
transform="scale(0.001,-0.001)" />

<path d="M284,67c0,0,51,0,88,12c0,0,37,12,74,30V358l-98,-3c0,0,-100,-4,-135,-39c0,0,-35,-35,-35,-117c0,0,0,-132,106,-132ZM233,-14c0,0,-179,0,-179,208c0,0,0,70,27,116c0,0,27,46,87,70c0,0,60,24,173,27l105,3V519c0,0,0,72,-26,107c0,0,-27,34,-82,34c0,0,-75,0,-137,-35L176,538H134V691c0,0,121,26,213,26c0,0,115,0,169,-47c0,0,54,-47,54,-144V52L657,33V0H465L451,70c0,0,-85,-84,-218,-84Z" 
id="f3_1x"
transform="scale(0.001,-0.001)" />

<path d="M431,0V33L535,52V499c0,0,0,62,-32,96c0,0,-32,33,-95,33c0,0,-66,0,-163,-22V52L350,33V0H32V33l89,19V649L32,668v33H237l6,-57c0,0,56,32,119,54c0,0,62,22,110,22c0,0,52,0,95,-20c0,0,44,-19,66,-62c0,0,57,32,134,57c0,0,77,25,128,25c0,0,179,0,179,-207V52l90,-19V0H846V33L950,52V499c0,0,0,129,-119,129c0,0,-19,0,-45,-3c0,0,-26,-3,-52,-7c0,0,-25,-4,-49,-8c0,0,-23,-5,-39,-8c0,0,13,-41,13,-89V52L764,33V0Z" 
id="f3_29"
transform="scale(0.001,-0.001)" />

<path d="M377,45c0,0,99,0,147,73c0,0,47,73,47,237c0,0,0,161,-47,233c0,0,-47,72,-147,72c0,0,-97,0,-141,-69c0,0,-44,-69,-44,-236c0,0,0,-169,45,-240c0,0,44,-70,140,-70Zm0,-59c0,0,-158,0,-238,94c0,0,-81,95,-81,274c0,0,0,178,81,272c0,0,80,94,244,94c0,0,160,0,241,-92c0,0,82,-92,82,-274c0,0,0,-368,-329,-368Z" 
id="f3_2b"
transform="scale(0.001,-0.001)" />

<path d="M64,0V34L168,59V639H47v36l121,29v49c0,0,0,155,61,239c0,0,62,84,173,84c0,0,58,0,107,-15V908H472l-33,92c0,0,-26,16,-62,16c0,0,-47,0,-66,-42c0,0,-19,-42,-19,-157V701H478V639H292V59L443,34V0Z" 
id="f3_22"
transform="scale(0.001,-0.001)" />

<path d="M278,-14c0,0,-52,0,-115,11c0,0,-63,10,-99,23V193H98L134,95c0,0,56,-50,146,-50c0,0,144,0,144,123c0,0,0,91,-114,130l-66,21c0,0,-75,25,-110,50c0,0,-34,26,-53,63c0,0,-18,36,-18,89c0,0,0,92,63,145c0,0,63,54,170,54c0,0,77,0,193,-23V544H454l-32,81c0,0,-39,35,-124,35c0,0,-61,0,-92,-30c0,0,-32,-30,-32,-80c0,0,0,-43,29,-72c0,0,28,-29,86,-48c0,0,110,-38,144,-55c0,0,33,-17,57,-42c0,0,23,-25,36,-57c0,0,13,-32,13,-79c0,0,0,-104,-66,-158c0,0,-66,-53,-195,-53Z" 
id="f3_2f"
transform="scale(0.001,-0.001)" />

<path d="M289,-14c0,0,-179,0,-179,205V649L20,668v33H233V200c0,0,0,-128,120,-128c0,0,92,0,173,23V649L420,668v33H649V52L738,33V0H533l-6,57C527,57,474,28,405,7c0,0,-69,-21,-116,-21Z" 
id="f3_2h"
transform="scale(0.001,-0.001)" />

<path d="M383,64c0,0,85,0,152,28V645c0,0,-67,13,-152,13c0,0,-194,0,-194,-314c0,0,0,-141,48,-211c0,0,48,-69,146,-69ZM342,-14c0,0,-287,0,-287,358c0,0,0,184,82,280c0,0,81,96,239,96c0,0,81,0,163,-18c0,0,-4,25,-4,124v182l-118,18v34H659V52L745,33V0H548l-9,52c0,0,-84,-66,-197,-66Z" 
id="f3_20"
transform="scale(0.001,-0.001)" />

<path d="M359,-270c0,0,124,0,192,46c0,0,67,47,67,129c0,0,0,43,-26,67c0,0,-26,24,-79,24H242c0,0,-32,-27,-51,-69c0,0,-20,-41,-20,-77c0,0,0,-64,46,-92c0,0,46,-28,142,-28Zm11,561c0,0,81,0,115,47c0,0,34,47,34,141c0,0,0,100,-35,142c0,0,-35,42,-113,42c0,0,-78,0,-114,-43c0,0,-37,-42,-37,-141c0,0,0,-98,36,-143c0,0,36,-45,114,-45ZM359,-329c0,0,-143,0,-218,44c0,0,-75,43,-75,125c0,0,0,39,27,78c0,0,26,38,98,89c0,0,-43,14,-72,48c0,0,-29,35,-29,74L208,262c0,0,-118,55,-118,217c0,0,0,115,73,178c0,0,73,63,211,63c0,0,28,0,71,-6c0,0,44,-6,67,-13l165,83l26,-32L599,644c0,0,50,-56,50,-165c0,0,0,-120,-72,-182c0,0,-73,-62,-208,-62c0,0,-62,0,-114,11L208,148c0,0,2,-13,29,-24c0,0,27,-12,67,-12H512c0,0,113,0,168,-49c0,0,55,-49,55,-134c0,0,0,-79,-44,-137c0,0,-43,-58,-128,-90c0,0,-84,-31,-204,-31Z" 
id="f3_23"
transform="scale(0.001,-0.001)" />

<path d="M31,0V33L150,52v956L31,1026v34H274V52L394,33V0Z" 
id="f3_28"
transform="scale(0.001,-0.001)" />

<path d="M327,-14L84,649L1,668v33H335V668L219,648L385,174L554,632h63L786,171L944,649L830,668v33h267V668l-78,-16L784,-14H726L553,448L382,-14Z" 
id="f3_2j"
transform="scale(0.001,-0.001)" />

<path d="M382,45c0,0,188,0,188,314c0,0,0,143,-47,213c0,0,-46,69,-141,69c0,0,-87,0,-146,-24V58c0,0,67,-13,146,-13ZM25,-325v35l88,18V649L34,668v33H231l1,-41c0,0,31,27,84,43c0,0,53,17,107,17c0,0,134,0,208,-94c0,0,73,-93,73,-267c0,0,0,-178,-80,-276c0,0,-80,-97,-232,-97c0,0,-84,0,-160,16c0,0,4,-53,4,-84V-272l123,-18v-35Z" 
id="f3_2c"
transform="scale(0.001,-0.001)" />

<path d="M148,-329c0,0,-58,0,-114,13v151H69l24,-71c0,0,23,-17,64,-17c0,0,39,0,72,22c0,0,33,23,60,67c0,0,27,44,68,157L90,649L19,668v33H344V668L233,648L423,158L606,649L497,668v33H758V668L685,652L411,-43c0,0,-48,-124,-84,-177c0,0,-36,-54,-79,-82c0,0,-44,-27,-100,-27Z" 
id="f3_2l"
transform="scale(0.001,-0.001)" />

<path d="M211,-20c0,0,-39,0,-64,25c0,0,-26,27,-26,64c0,0,0,38,26,64c0,0,26,26,64,26c0,0,37,0,64,-25c0,0,26,-26,26,-65c0,0,0,-37,-26,-64c0,0,-26,-25,-64,-25Zm0,556c0,0,-38,0,-64,26c0,0,-26,26,-26,64c0,0,0,37,26,64c0,0,25,27,64,27c0,0,38,0,64,-27c0,0,26,-27,26,-64c0,0,0,-38,-26,-64c0,0,-27,-26,-64,-26Z" 
id="f3_u"
transform="scale(0.001,-0.001)" />

<path d="M460,-325c0,0,-148,79,-231,172c0,0,-84,93,-123,217c0,0,-39,126,-39,304c0,0,0,178,39,303c0,0,39,125,122,217c0,0,82,93,232,172V997c0,0,-91,-52,-145,-134c0,0,-54,-81,-79,-190c0,0,-25,-109,-25,-305c0,0,0,-194,26,-309c0,0,26,-114,82,-193c0,0,56,-79,141,-128v-63Z" 
id="f3_c"
transform="scale(0.001,-0.001)" />

<path d="M49,-325v63c0,0,85,49,140,128c0,0,56,79,83,194c0,0,26,115,26,308c0,0,0,196,-25,305c0,0,-25,109,-79,190c0,0,-54,82,-145,134v63c0,0,149,-80,232,-172c0,0,83,-92,122,-217c0,0,39,-125,39,-303c0,0,0,-177,-39,-303c0,0,-39,-125,-122,-217c0,0,-83,-93,-232,-173Z" 
id="f3_d"
transform="scale(0.001,-0.001)" />

<path d="M536,63c0,0,127,0,191,54c0,0,63,54,63,168c0,0,0,105,-70,154c0,0,-70,49,-225,49H316V67c0,0,103,-4,220,-4ZM480,555c0,0,121,0,178,48c0,0,57,48,57,155c0,0,0,91,-58,133c0,0,-57,42,-186,42H316V555ZM554,-4L235,0H44V40L172,60V941L44,960v40H501c0,0,191,0,279,-56c0,0,88,-56,88,-179c0,0,0,-88,-55,-149c0,0,-54,-62,-151,-83c0,0,135,-14,209,-79c0,0,73,-65,73,-166c0,0,0,-144,-99,-219C845,69,745,-4,554,-4Z" 
id="f3_12"
transform="scale(0.001,-0.001)" />

<path d="M477,0V33l64,19L348,354L257,254V52L331,33V0H44V33l89,19v956L29,1026v34H257V338L544,647l-73,20v34H718V667L631,650L431,446L688,50L764,33V0Z" 
id="f3_27"
transform="scale(0.001,-0.001)" />

<path d="M868,0L251,900V60L385,40V0H44V40L172,60V941L44,960v40H347L862,259V941L727,960v40h341V960L940,941V0Z" 
id="f3_1e"
transform="scale(0.001,-0.001)" />

<path d="M410,-14c0,0,-86,0,-175,14C235,0,145,14,81,38V307h66L181,146c0,0,31,-37,94,-62c0,0,64,-24,132,-24c0,0,214,0,214,177c0,0,0,55,-41,93c0,0,-41,38,-128,68c0,0,-128,42,-185,68c0,0,-56,27,-95,63c0,0,-38,36,-62,87c0,0,-23,51,-23,125c0,0,0,132,90,201c0,0,90,69,263,69c0,0,125,0,278,-32V741H651L618,878c0,0,-76,56,-178,56c0,0,-92,0,-141,-34c0,0,-49,-34,-49,-104c0,0,0,-50,41,-86c0,0,41,-35,128,-63c0,0,171,-56,235,-97c0,0,64,-41,97,-103c0,0,34,-61,34,-143c0,0,0,-318,-375,-318Z" 
id="f2_1j"
transform="scale(0.001,-0.001)" />

<path d="M379,60c0,0,59,0,84,64c0,0,24,65,24,231c0,0,0,164,-24,227c0,0,-24,63,-84,63c0,0,-57,0,-80,-60c0,0,-22,-61,-22,-230c0,0,0,-173,23,-234c0,0,22,-61,79,-61Zm-2,-74c0,0,-161,0,-240,91c0,0,-79,91,-79,277c0,0,0,186,80,276c0,0,81,90,245,90c0,0,167,0,245,-93c0,0,78,-93,78,-273c0,0,0,-188,-81,-278c0,0,-81,-90,-248,-90Z" 
id="f2_2b"
transform="scale(0.001,-0.001)" />

<path d="M30,0V49l76,18V992l-72,18v50H322V67L398,49V0Z" 
id="f2_28"
transform="scale(0.001,-0.001)" />

<path d="M287,-18c0,0,-194,0,-194,206V634L23,652v49H309V217c0,0,0,-63,26,-98c0,0,27,-35,76,-35c0,0,57,0,113,25V634l-64,18v49H740V67L809,49V0H536L526,61L475,35c0,0,-104,-53,-188,-53Z" 
id="f2_2h"
transform="scale(0.001,-0.001)" />

<path d="M327,-14c0,0,-101,0,-156,45c0,0,-55,45,-55,131V624H25v48l108,29l87,159H332V701H480V624H332V176c0,0,0,-49,20,-73c0,0,20,-25,53,-25c0,0,40,0,97,12V26c0,0,-22,-15,-76,-27c0,0,-55,-13,-99,-13Z" 
id="f2_2g"
transform="scale(0.001,-0.001)" />

<path d="M34,0V49l76,18V634L38,652v49H325V67L402,49V0ZM217,831c0,0,-48,0,-81,33c0,0,-34,33,-34,82c0,0,0,48,34,81c0,0,34,33,81,33c0,0,48,0,81,-33c0,0,33,-33,33,-81c0,0,0,-47,-33,-81c0,0,-32,-34,-81,-34Z" 
id="f2_25"
transform="scale(0.001,-0.001)" />

<path d="M41,0V49l69,18V634L41,652v49H313l11,-61l50,26c0,0,105,54,188,54c0,0,194,0,194,-207V67L827,49V0H478V49l63,18V484c0,0,0,63,-27,98c0,0,-26,35,-75,35c0,0,-57,0,-114,-25V67L389,49V0Z" 
id="f2_2a"
transform="scale(0.001,-0.001)" />

<path d="M248,-20c0,0,-52,0,-87,34c0,0,-36,36,-36,88c0,0,0,52,36,88c0,0,35,36,87,36c0,0,52,0,88,-36c0,0,36,-36,36,-88c0,0,0,-51,-36,-87c0,0,-35,-35,-88,-35Zm0,488c0,0,-52,0,-87,36c0,0,-36,36,-36,88c0,0,0,52,35,88c0,0,35,36,88,36c0,0,53,0,89,-36c0,0,35,-37,35,-88c0,0,0,-51,-36,-87c0,0,-35,-37,-88,-37Z" 
id="f2_u"
transform="scale(0.001,-0.001)" />

<path d="M394,460c0,0,126,0,186,57c0,0,60,57,60,187c0,0,0,123,-57,176c0,0,-58,53,-194,53H316V460ZM54,0V40L172,60V941L44,960v40H421c0,0,368,0,368,-295c0,0,0,-153,-93,-233c0,0,-93,-80,-267,-80H316V60L475,40V0Z" 
id="f3_1g"
transform="scale(0.001,-0.001)" />

<path d="M449,50c0,0,162,0,276,114L353,504c0,0,-78,-33,-114,-91c0,0,-35,-57,-35,-139c0,0,0,-108,63,-166c0,0,63,-58,182,-58ZM439,605c0,0,72,27,104,53c0,0,31,25,47,63c0,0,16,37,16,92c0,0,0,143,-135,143c0,0,-79,0,-113,-36c0,0,-34,-35,-34,-107c0,0,0,-121,115,-208ZM429,-14c0,0,-185,0,-278,71c0,0,-93,72,-93,209c0,0,0,72,27,124c0,0,27,52,73,89c0,0,46,37,146,75c0,0,-112,109,-112,244c0,0,0,107,71,162c0,0,72,56,208,56c0,0,130,0,198,-53c0,0,69,-53,69,-155c0,0,0,-58,-25,-101c0,0,-25,-42,-71,-75c0,0,-45,-32,-152,-74L805,272c0,0,72,147,77,271L776,563v39h341V563L1013,543c0,0,-57,-198,-145,-329L1038,59L1161,40V0H904L777,116C777,116,699,46,614,16c0,0,-84,-30,-185,-30Z" 
id="f3_a"
transform="scale(0.001,-0.001)" />

<path d="M54,0V40L172,60V941L44,960v40H794V760H745L721,922c0,0,-83,11,-241,11H316V516H611l23,120h46V328H634L611,449H316V60L483,40V0Z" 
id="f3_16"
transform="scale(0.001,-0.001)" />

<path d="M67,0V109L206,235c0,0,133,118,196,190c0,0,63,72,90,149c0,0,27,77,27,177c0,0,0,97,-44,148c0,0,-44,50,-144,50c0,0,-39,0,-81,-10c0,0,-42,-11,-74,-29L150,787H101V980c0,0,135,32,230,32c0,0,164,0,247,-68c0,0,82,-69,82,-193c0,0,0,-84,-32,-158c0,0,-33,-75,-100,-148c0,0,-67,-74,-222,-206c0,0,-67,-57,-141,-125H680V0Z" 
id="f3_m"
transform="scale(0.001,-0.001)" />

<path d="M-12,338v55H777V338Z" 
id="f4_4y"
transform="scale(0.001,-0.001)" />

<path d="M577,-14c0,0,-243,0,-379,132C198,118,63,250,63,488c0,0,0,258,130,391c0,0,131,132,387,132c0,0,156,0,335,-38l5,-218H871L848,884c0,0,-52,32,-121,50c0,0,-69,17,-141,17c0,0,-191,0,-279,-112c0,0,-88,-113,-88,-349c0,0,0,-217,92,-332c0,0,92,-115,268,-115c0,0,85,0,160,20c0,0,76,21,120,55l27,149h49L930,32c0,0,-164,-46,-353,-46Z" 
id="f3_13"
transform="scale(0.001,-0.001)" />

<path d="M134,0V40L339,60V876L137,804v39l292,166h39V60L672,40V0Z" 
id="f3_l"
transform="scale(0.001,-0.001)" />

<path d="M58,-234v58c0,0,131,42,131,125c0,0,0,15,-11,27c0,0,-11,12,-38,25C140,1,89,27,89,75c0,0,0,40,25,61c0,0,26,21,65,21c0,0,48,0,77,-34c0,0,30,-34,30,-86c0,0,0,-101,-60,-170c0,0,-59,-69,-168,-101Z" 
id="f3_g"
transform="scale(0.001,-0.001)" />

<path d="M350,-14c0,0,-142,0,-269,31L73,228h49L156,87c0,0,29,-16,82,-28c0,0,54,-12,100,-12c0,0,117,0,173,54c0,0,56,53,56,178c0,0,0,99,-52,150c0,0,-51,51,-159,56l-107,6v61l107,7c0,0,84,5,124,52c0,0,41,48,41,145c0,0,0,101,-44,147c0,0,-44,45,-139,45c0,0,-40,0,-83,-10c0,0,-43,-11,-76,-29L153,786H104V979c0,0,74,19,127,26c0,0,54,6,107,6c0,0,321,0,321,-246c0,0,0,-104,-57,-165c0,0,-57,-62,-162,-77c0,0,136,-16,200,-78c0,0,64,-62,64,-173c0,0,0,-135,-92,-211c0,0,-93,-75,-262,-75Z" 
id="f3_n"
transform="scale(0.001,-0.001)" />

<path d="M376,50c0,0,103,0,149,80c0,0,46,81,46,240c0,0,0,137,-47,204c0,0,-48,67,-148,67c0,0,-44,0,-87,-7c0,0,-44,-8,-63,-17V62c0,0,63,-12,150,-12Zm3,-64c0,0,-64,0,-141,14c0,0,-78,14,-136,37v971L0,1026v34H226V809c0,0,0,-40,-4,-148c0,0,74,59,188,59c0,0,143,0,219,-87c0,0,77,-87,77,-263c0,0,0,-189,-84,-287c0,0,-84,-97,-243,-97Z" 
id="f3_1y"
transform="scale(0.001,-0.001)" />

<path d="M377,478c0,0,57,0,112,14v10c0,0,0,216,-25,325c0,0,-26,110,-91,110c0,0,-112,0,-112,-245c0,0,0,-214,116,-214ZM312,-14c0,0,-124,0,-232,31V245h65L177,99c0,0,26,-18,62,-29c0,0,36,-10,70,-10c0,0,80,0,126,91c0,0,45,92,52,265c0,0,-77,-28,-154,-28c0,0,-135,0,-213,81c0,0,-78,80,-78,226c0,0,0,152,87,234c0,0,87,82,242,82c0,0,176,0,257,-123c0,0,81,-123,81,-385c0,0,0,-169,-48,-284C661,219,614,103,525,44c0,0,-89,-58,-213,-58Z" 
id="f2_t"
transform="scale(0.001,-0.001)" />

<path d="M399,-14c0,0,-341,0,-341,370c0,0,0,175,87,269c0,0,87,95,249,95c0,0,101,0,220,-23V501H573L541,625c0,0,-62,35,-149,35c0,0,-200,0,-200,-304c0,0,0,-158,61,-225c0,0,61,-67,189,-67c0,0,109,0,189,24V43C631,43,595,16,530,1c0,0,-64,-15,-131,-15Z" 
id="f3_1z"
transform="scale(0.001,-0.001)" />

<path d="M719,62L422,783L93,62ZM0,0L469,1034L896,0Z" 
id="f5_14"
transform="scale(0.001,-0.001)" />

<path d="M577,-14c0,0,-243,0,-379,131C198,117,63,248,63,488c0,0,0,263,131,393c0,0,132,130,386,130c0,0,182,0,352,-45V751H882L862,875c0,0,-52,37,-124,57c0,0,-72,19,-152,19c0,0,-191,0,-279,-113c0,0,-88,-114,-88,-348c0,0,0,-220,91,-333c0,0,91,-114,269,-114c0,0,63,0,131,15c0,0,69,15,105,36V377L686,397v40h370V397L958,377V52C958,52,871,24,778,5c0,0,-93,-19,-201,-19Z" 
id="f3_17"
transform="scale(0.001,-0.001)" />

<path d="M617,0L251,860V60L385,40V0H44V40L172,60V941L44,960v40H347L672,239l355,761h287V960L1185,941V60L1314,40V0H908V40l134,20V859L643,0Z" 
id="f3_1d"
transform="scale(0.001,-0.001)" />

<path d="M392,152V469H76v77H392V863h77V546H787V469H469V152Z" 
id="f3_f"
transform="scale(0.001,-0.001)" />

<path d="M383,64c0,0,44,0,87,7c0,0,43,7,65,17V645c0,0,-67,13,-152,13c0,0,-194,0,-194,-309c0,0,0,-143,48,-214c0,0,47,-71,146,-71Zm56,-389v35l96,18V-77c0,0,0,73,7,124c0,0,-79,-61,-200,-61c0,0,-287,0,-287,362c0,0,0,180,81,276c0,0,81,96,237,96c0,0,84,0,166,-18l67,33h53V-272l77,-18v-35Z" 
id="f3_2d"
transform="scale(0.001,-0.001)" />

<path d="M968,-20c0,0,42,100,87,170c0,0,45,70,144,184H56v73H1199c0,0,-106,122,-148,189c0,0,-43,67,-83,166h60c0,0,87,-108,217,-218c0,0,130,-110,206,-154V349c0,0,-99,-56,-217,-159c0,0,-117,-102,-206,-210Z" 
id="f5_34"
transform="scale(0.001,-0.001)" />

<path d="M360,-14L72,649L0,668v33H327V668L216,648L420,164L615,649L504,668v33H764V668L697,652L416,-14Z" 
id="f3_2i"
transform="scale(0.001,-0.001)" />

<path d="M44,0V40L172,60V941L44,960v40H794V760H745L721,922c0,0,-83,11,-241,11H316V543H586l23,119h48V354H609L586,475H316V67H513c0,0,193,0,252,12l43,185h49L843,0Z" 
id="f3_15"
transform="scale(0.001,-0.001)" />

<path d="M76,316v76H787V316Zm0,306v76H787V622Z" 
id="f3_x"
transform="scale(0.001,-0.001)" />

<path d="M191,-20c0,0,-39,0,-65,25c0,0,-25,27,-25,64c0,0,0,38,26,64c0,0,26,26,64,26c0,0,38,0,64,-26c0,0,26,-26,26,-64c0,0,0,-37,-25,-64c0,0,-26,-25,-65,-25Z" 
id="f3_i"
transform="scale(0.001,-0.001)" />

<path d="M178,0L615,886H176L150,764H101v236H720V943L274,0Z" 
id="f3_r"
transform="scale(0.001,-0.001)" />

<path d="M536,-22L130,941L17,960v40H421V960L287,941L590,205L892,941L761,960v40h325V960L976,941L574,-22Z" 
id="f3_1m"
transform="scale(0.001,-0.001)" />

<path d="M370,468c0,0,96,0,194,40c0,0,0,229,-45,336c0,0,-45,107,-146,107c0,0,-187,0,-187,-259c0,0,0,-115,45,-169c0,0,45,-55,139,-55ZM312,-14c0,0,-122,0,-223,25V184h48L163,76c0,0,24,-11,65,-20c0,0,40,-9,81,-9c0,0,119,0,183,105c0,0,65,104,71,307c0,0,-113,-62,-230,-62c0,0,-132,0,-208,79c0,0,-76,78,-76,219c0,0,0,151,85,233c0,0,84,83,237,83c0,0,171,0,251,-123c0,0,79,-123,79,-385c0,0,0,-252,-102,-385C599,118,497,-14,312,-14Z" 
id="f3_t"
transform="scale(0.001,-0.001)" />

<path d="M410,45c0,0,90,0,130,58c0,0,40,59,40,193c0,0,0,122,-38,177c0,0,-38,54,-122,54c0,0,-102,0,-217,-37c0,0,0,-227,51,-336c0,0,52,-109,156,-109Zm3,-59c0,0,-169,0,-258,131c0,0,-89,131,-89,377c0,0,0,161,47,278c0,0,47,117,131,178c0,0,85,61,196,61c0,0,109,0,217,-26V813H608L582,915c0,0,-25,13,-67,23c0,0,-41,10,-75,10c0,0,-109,0,-170,-105c0,0,-60,-106,-66,-308c0,0,121,63,244,63c0,0,132,0,201,-74c0,0,69,-74,69,-214c0,0,0,-156,-78,-240c0,0,-79,-84,-227,-84Z" 
id="f3_q"
transform="scale(0.001,-0.001)" />

<path d="M350,-14c0,0,-142,0,-253,31L89,228h49L172,87c0,0,32,-18,78,-29c0,0,46,-11,88,-11c0,0,118,0,173,56c0,0,56,55,56,187c0,0,0,93,-24,140c0,0,-24,47,-76,70c0,0,-52,22,-140,22c0,0,-68,0,-133,-18H122v496H630V886H189V567c0,0,81,18,173,18c0,0,173,0,258,-71c0,0,84,-71,84,-216c0,0,0,-151,-92,-232c0,0,-91,-80,-262,-80Z" 
id="f3_p"
transform="scale(0.001,-0.001)" />

<path d="M377,45c0,0,99,0,145,108c0,0,46,109,46,352c0,0,0,240,-45,345c0,0,-46,106,-146,106c0,0,-97,0,-139,-100c0,0,-43,-99,-43,-351c0,0,0,-254,44,-357c0,0,43,-103,138,-103Zm0,-59c0,0,-158,0,-238,132c0,0,-81,133,-81,386c0,0,0,249,81,380c0,0,80,132,244,132c0,0,159,0,241,-130c0,0,82,-130,82,-382c0,0,0,-518,-329,-518Z" 
id="f3_k"
transform="scale(0.001,-0.001)" />

<path d="M681,416L504,902L333,416ZM669,0V40L803,60L704,348H310L210,60L344,40V0H15V40L128,60l341,949H611L965,60L1092,40V0Z" 
id="f3_11"
transform="scale(0.001,-0.001)" />

<path d="M57,302V417H454V302Z" 
id="f3_h"
transform="scale(0.001,-0.001)" />

<path d="M765,64L463,808L137,64ZM37,0L490,1034h26L944,0Z" 
id="f4_e4"
transform="scale(0.001,-0.001)" />

<path d="M17,0V26c0,0,52,0,77,17c0,0,19,12,26,38c0,0,4,13,4,73V419c0,0,0,119,-5,142c0,0,-4,23,-17,33c0,0,-13,11,-33,11c0,0,-23,0,-52,-11l-7,26l207,83h31V549c0,0,86,154,176,154c0,0,41,0,68,-25c0,0,27,-25,27,-58c0,0,0,-29,-20,-49c0,0,-19,-20,-46,-20c0,0,-26,0,-58,25c0,0,-33,26,-48,26c0,0,-14,0,-29,-15c0,0,-34,-30,-70,-101V159c0,0,0,-56,15,-85c0,0,9,-20,34,-34c0,0,24,-14,71,-14V0Z" 
id="f4_2e"
transform="scale(0.001,-0.001)" />

<path d="M613,-21c0,0,-293,0,-445,186C168,165,54,306,54,490c0,0,0,134,64,256c0,0,76,145,209,224c0,0,111,64,262,64c0,0,55,0,100,-9c0,0,45,-9,128,-39c0,0,42,-16,56,-16c0,0,14,0,24,13c0,0,10,13,12,51h28L963,715H937c0,0,-40,119,-102,179c0,0,-91,88,-232,88c0,0,-193,0,-294,-153c0,0,-84,-129,-84,-307c0,0,0,-144,56,-263c0,0,56,-120,146,-175c0,0,91,-56,186,-56c0,0,56,0,109,15c0,0,52,14,100,41V376c0,0,0,77,-11,101c0,0,-12,23,-36,36c0,0,-24,12,-86,12v27h392V525h-18c0,0,-58,0,-80,-39c0,0,-15,-28,-15,-110V67C968,67,882,21,799,0c0,0,-84,-21,-186,-21Z" 
id="f4_17"
transform="scale(0.001,-0.001)" />

<path d="M551,45c0,0,171,0,252,108c0,0,82,108,82,349c0,0,0,239,-81,344c0,0,-81,105,-253,105c0,0,-172,0,-252,-105c0,0,-80,-105,-80,-344c0,0,0,-241,80,-349c0,0,81,-108,252,-108Zm0,-59c0,0,-238,0,-363,129C188,115,63,245,63,501c0,0,0,510,488,510c0,0,242,0,366,-129c0,0,124,-130,124,-381c0,0,0,-255,-126,-385C915,116,790,-14,551,-14Z" 
id="f3_1f"
transform="scale(0.001,-0.001)" />

<path d="M13,0V34L95,46L325,350L122,649L40,668v33H357V668L264,648L399,446L554,649l-96,19v33H710V668L630,652L433,397L663,50L745,34V0H427V34l94,17L359,299L169,50L266,34V0Z" 
id="f3_2k"
transform="scale(0.001,-0.001)" />

<path d="M186,-14c0,0,-95,0,-154,22V190H81L104,86c0,0,14,-17,40,-26c0,0,26,-10,57,-10c0,0,105,0,105,141V941L178,960v40H562V960L449,941V322c0,0,0,-100,-30,-175c0,0,-31,-74,-93,-118c0,0,-63,-43,-140,-43Z" 
id="f3_1a"
transform="scale(0.001,-0.001)" />

<path d="M0,-14L351,1007h73L75,-14Z" 
id="f3_j"
transform="scale(0.001,-0.001)" />

<path d="M44,0V40L172,60V941L44,960v40H445V960L316,941V549H787V941L659,960v40h400V960L930,941V60L1059,40V0H659V40L787,60V481H316V60L445,40V0Z" 
id="f3_18"
transform="scale(0.001,-0.001)" />

<path d="M64,0V141c0,0,64,68,119,123c0,0,119,118,174,185c0,0,56,68,81,140c0,0,26,72,26,165c0,0,0,81,-40,131c0,0,-39,50,-105,50c0,0,-46,0,-74,-10c0,0,-27,-10,-50,-29L163,751H98V979c0,0,59,13,116,23c0,0,58,9,125,9c0,0,165,0,252,-68c0,0,88,-68,88,-193c0,0,0,-78,-26,-142c0,0,-26,-64,-83,-124c0,0,-56,-61,-224,-197c0,0,-64,-52,-139,-119H698V0Z" 
id="f2_m"
transform="scale(0.001,-0.001)" />

<path d="M379,60c0,0,55,0,82,103c0,0,26,104,26,342c0,0,0,233,-26,335c0,0,-26,102,-82,102c0,0,-55,0,-79,-99c0,0,-23,-99,-23,-338c0,0,0,-244,24,-345c0,0,24,-100,78,-100Zm-2,-74c0,0,-158,0,-238,132c0,0,-81,133,-81,386c0,0,0,249,81,380c0,0,80,132,244,132c0,0,159,0,241,-130c0,0,82,-130,82,-382c0,0,0,-518,-329,-518Z" 
id="f2_k"
transform="scale(0.001,-0.001)" />

<path d="M235,0V40L394,60V936H356c0,0,-189,0,-258,-15L78,766H28v234H908V766H857L837,921c0,0,-22,5,-98,9c0,0,-75,4,-165,4H538V60L697,40V0Z" 
id="f3_1k"
transform="scale(0.001,-0.001)" />

<path d="M410,-14c0,0,-80,0,-162,14c0,0,-81,14,-144,38V270h48L178,134c0,0,28,-35,95,-62c0,0,68,-27,134,-27c0,0,104,0,163,53c0,0,58,54,58,148c0,0,0,54,-23,89c0,0,-22,35,-59,59c0,0,-37,24,-84,41c0,0,-47,17,-97,34c0,0,-49,17,-96,38c0,0,-47,21,-84,53c0,0,-37,32,-60,79c0,0,-23,48,-23,117c0,0,0,119,90,187c0,0,89,68,248,68c0,0,121,0,263,-32V771H654L628,893c0,0,-76,55,-188,55c0,0,-100,0,-156,-40c0,0,-56,-41,-56,-112c0,0,0,-49,22,-81c0,0,23,-32,60,-55c0,0,37,-22,84,-39c0,0,48,-16,97,-34c0,0,50,-17,97,-39c0,0,48,-22,85,-56c0,0,36,-34,59,-83c0,0,23,-49,23,-120c0,0,0,-145,-89,-224c0,0,-89,-79,-256,-79Z" 
id="f3_1j"
transform="scale(0.001,-0.001)" />

<path d="M311,-14c0,0,-94,0,-169,18C142,4,67,23,18,55L57,277h48l1,-143c0,0,25,-37,84,-63c0,0,59,-26,126,-26c0,0,122,0,188,58c0,0,66,58,66,162c0,0,0,40,-18,70c0,0,-18,30,-48,54c0,0,-30,23,-67,44c0,0,-38,20,-77,40c0,0,-40,21,-78,44c0,0,-37,24,-67,55c0,0,-30,31,-48,71c0,0,-18,40,-18,94c0,0,0,133,90,204c0,0,91,70,259,70c0,0,128,0,241,-28L703,774H654l-4,128c0,0,-23,20,-66,33c0,0,-42,13,-98,13c0,0,-99,0,-153,-48c0,0,-53,-48,-53,-136c0,0,0,-47,33,-85c0,0,34,-39,100,-73c0,0,102,-53,146,-80c0,0,45,-28,75,-59c0,0,31,-31,49,-72c0,0,18,-40,18,-92c0,0,0,-154,-100,-236c0,0,-100,-81,-290,-81Z" 
id="f6_1j"
transform="scale(0.001,-0.001)" />

<path d="M500,49c0,0,111,0,205,75c0,0,95,75,154,216c0,0,59,140,59,280c0,0,0,150,-76,240c0,0,-77,91,-202,91c0,0,-111,0,-204,-75c0,0,-93,-76,-151,-217c0,0,-59,-141,-59,-284c0,0,0,-147,75,-237c0,0,75,-89,199,-89Zm-5,-63c0,0,-121,0,-216,50c0,0,-96,50,-149,142c0,0,-53,91,-53,205c0,0,0,180,74,326c0,0,75,145,204,224c0,0,129,78,295,78c0,0,120,0,216,-50c0,0,96,-51,149,-142c0,0,53,-91,53,-206c0,0,0,-177,-75,-325C993,288,918,140,789,63c0,0,-129,-77,-294,-77Z" 
id="f6_1f"
transform="scale(0.001,-0.001)" />

<path d="M521,-14c0,0,-205,0,-320,107C201,93,85,200,85,390c0,0,0,185,77,326c0,0,77,142,220,219c0,0,142,76,324,76c0,0,158,0,327,-38L1000,755H951V884c0,0,-46,32,-112,50c0,0,-65,17,-137,17c0,0,-135,0,-242,-72c0,0,-107,-72,-166,-203c0,0,-60,-132,-60,-301c0,0,0,-160,78,-244c0,0,78,-84,222,-84c0,0,85,0,166,25c0,0,82,26,133,65l53,149h49L889,52C889,52,803,20,705,3c0,0,-99,-17,-184,-17Z" 
id="f6_13"
transform="scale(0.001,-0.001)" />

<path d="M81,0L258,1008l-96,18l6,34H391L214,52L331,33L325,0Z" 
id="f6_28"
transform="scale(0.001,-0.001)" />

<path d="M312,78c0,0,42,0,93,28c0,0,51,27,99,76l82,460c0,0,-18,5,-32,9c0,0,-14,3,-28,6c0,0,-14,2,-29,3c0,0,-16,1,-36,1c0,0,-75,0,-139,-56c0,0,-64,-56,-100,-150c0,0,-37,-95,-37,-202c0,0,0,-80,33,-127c0,0,33,-48,94,-48ZM249,-325c0,0,-65,0,-136,16c0,0,-70,15,-112,37l13,170H48l27,-93c0,0,60,-59,173,-59c0,0,91,0,145,47c0,0,54,48,72,152l29,175c0,0,-54,-59,-120,-97c0,0,-66,-37,-119,-37c0,0,-95,0,-149,66c0,0,-55,67,-55,182c0,0,0,131,58,243c0,0,57,112,154,177c0,0,97,66,211,66c0,0,45,0,117,-9c0,0,72,-9,128,-22L594,-25c0,0,-28,-158,-108,-229c0,0,-80,-71,-237,-71Z" 
id="f6_23"
transform="scale(0.001,-0.001)" />

<path d="M0,334v73H1700V334Z" 
id="f5_3k"
transform="scale(0.001,-0.001)" />

<path d="M355,0V355H0v72H355V784h72V427H782V355H427V0Z" 
id="f5_f"
transform="scale(0.001,-0.001)" />

<path d="M476,327V830h-4L114,327ZM476,0V220H30v99l488,686h86V327H740V220H604V0Z" 
id="f3_o"
transform="scale(0.001,-0.001)" />


</defs>
</svg>