<?xml version="1.0" encoding="UTF-8" standalone="no"?>
<!DOCTYPE svg PUBLIC "-//W3C//DTD SVG 1.1//EN"
"http://www.w3.org/Graphics/SVG/1.1/DTD/svg11.dtd">
<svg viewBox="0 0 909 1286" version="1.1" xmlns="http://www.w3.org/2000/svg" xmlns:xlink="http://www.w3.org/1999/xlink">
<defs>
</defs>
<g fill="#000000" >
<use xlink:href="#f0_b" transform="matrix(12,0,0,12,449,1140.7)" />
<use xlink:href="#f0_9" transform="matrix(12,0,0,12,86.4,1140.7)" />
<use xlink:href="#f0_a" transform="matrix(12,0,0,12,96.5,1140.7)" />
<use xlink:href="#f1_8" transform="matrix(12,0,0,12,106.7,1140.7)" />
<use xlink:href="#f0_5" transform="matrix(12,0,0,12,111.4,1140.7)" />
<use xlink:href="#f1_8" transform="matrix(12,0,0,12,121.6,1140.7)" />
<use xlink:href="#f0_f" transform="matrix(12,0,0,12,126.3,1140.7)" />
<use xlink:href="#f0_i" transform="matrix(12,0,0,12,766.5,1140.7)" />
<use xlink:href="#f0_3" transform="matrix(12,0,0,12,780.1,1140.7)" />
<use xlink:href="#f0_l" transform="matrix(12,0,0,12,784.8,1140.7)" />
<use xlink:href="#f0_3" transform="matrix(12,0,0,12,797.8,1140.7)" />
<use xlink:href="#f0_h" transform="matrix(12,0,0,12,802.5,1140.7)" />
<use xlink:href="#f0_3" transform="matrix(12,0,0,12,817.5,1140.7)" />
<use xlink:href="#f1_q" transform="matrix(12,0,0,12,129.7,164.7)" />
<use xlink:href="#f1_1p" transform="matrix(12,0,0,12,141.9,164.7)" />
<use xlink:href="#f1_1s" transform="matrix(12,0,0,12,151.1,164.7)" />
<use xlink:href="#f1_1u" transform="matrix(12,0,0,12,165.7,164.7)" />
<use xlink:href="#f1_1i" transform="matrix(12,0,0,12,172.9,164.7)" />
<use xlink:href="#f1_1f" transform="matrix(12,0,0,12,184.1,164.7)" />
<use xlink:href="#f1_1g" transform="matrix(12,0,0,12,199.8,164.7)" />
<use xlink:href="#f1_1j" transform="matrix(12,0,0,12,205.9,164.7)" />
<use xlink:href="#f1_1s" transform="matrix(12,0,0,12,211.7,164.7)" />
<use xlink:href="#f1_1t" transform="matrix(12,0,0,12,219.8,164.7)" />
<use xlink:href="#f1_1u" transform="matrix(12,0,0,12,228.3,164.7)" />
<use xlink:href="#f1_1p" transform="matrix(12,0,0,12,242,164.7)" />
<use xlink:href="#f1_1s" transform="matrix(12,0,0,12,251.2,164.7)" />
<use xlink:href="#f1_1e" transform="matrix(12,0,0,12,259.3,164.7)" />
<use xlink:href="#f1_1f" transform="matrix(12,0,0,12,269.9,164.7)" />
<use xlink:href="#f1_1s" transform="matrix(12,0,0,12,279,164.7)" />
<use xlink:href="#f1_1u" transform="matrix(12,0,0,12,293.7,164.7)" />
<use xlink:href="#f1_1i" transform="matrix(12,0,0,12,300.9,164.7)" />
<use xlink:href="#f1_1f" transform="matrix(12,0,0,12,312,164.7)" />
<use xlink:href="#f1_1s" transform="matrix(12,0,0,12,321.2,164.7)" />
<use xlink:href="#f1_1n" transform="matrix(12,0,0,12,329.3,164.7)" />
<use xlink:href="#f1_1b" transform="matrix(12,0,0,12,345.7,164.7)" />
<use xlink:href="#f1_1m" transform="matrix(12,0,0,12,355.9,164.7)" />
<use xlink:href="#f1_1e" transform="matrix(12,0,0,12,368.2,164.7)" />
<use xlink:href="#f1_1f" transform="matrix(12,0,0,12,378.8,164.7)" />
<use xlink:href="#f1_1d" transform="matrix(12,0,0,12,388,164.7)" />
<use xlink:href="#f1_1p" transform="matrix(12,0,0,12,396.1,164.7)" />
<use xlink:href="#f1_1n" transform="matrix(12,0,0,12,405.3,164.7)" />
<use xlink:href="#f1_1q" transform="matrix(12,0,0,12,421.6,164.7)" />
<use xlink:href="#f1_1p" transform="matrix(12,0,0,12,432.2,164.7)" />
<use xlink:href="#f1_1t" transform="matrix(12,0,0,12,441.3,164.7)" />
<use xlink:href="#f1_1j" transform="matrix(12,0,0,12,449.8,164.7)" />
<use xlink:href="#f1_1u" transform="matrix(12,0,0,12,455.6,164.7)" />
<use xlink:href="#f1_1j" transform="matrix(12,0,0,12,462.8,164.7)" />
<use xlink:href="#f1_1p" transform="matrix(12,0,0,12,468.6,164.7)" />
<use xlink:href="#f1_1o" transform="matrix(12,0,0,12,477.7,164.7)" />
<use xlink:href="#f1_1s" transform="matrix(12,0,0,12,495.4,164.7)" />
<use xlink:href="#f1_1f" transform="matrix(12,0,0,12,503.6,164.7)" />
<use xlink:href="#f1_1b" transform="matrix(12,0,0,12,512.7,164.7)" />
<use xlink:href="#f1_1d" transform="matrix(12,0,0,12,523,164.7)" />
<use xlink:href="#f1_1u" transform="matrix(12,0,0,12,531.1,164.7)" />
<use xlink:href="#f1_1j" transform="matrix(12,0,0,12,538.3,164.7)" />
<use xlink:href="#f1_1p" transform="matrix(12,0,0,12,544,164.7)" />
<use xlink:href="#f1_1o" transform="matrix(12,0,0,12,553.2,164.7)" />
<use xlink:href="#f1_5" transform="matrix(12,0,0,12,564.4,164.7)" />
<use xlink:href="#f1_1u" transform="matrix(12,0,0,12,576,164.7)" />
<use xlink:href="#f1_1i" transform="matrix(12,0,0,12,583.2,164.7)" />
<use xlink:href="#f1_1f" transform="matrix(12,0,0,12,594.3,164.7)" />
<use xlink:href="#f1_1g" transform="matrix(12,0,0,12,610.1,164.7)" />
<use xlink:href="#f1_1p" transform="matrix(12,0,0,12,616.2,164.7)" />
<use xlink:href="#f1_1m" transform="matrix(12,0,0,12,625.4,164.7)" />
<use xlink:href="#f1_1m" transform="matrix(12,0,0,12,631.1,164.7)" />
<use xlink:href="#f1_1p" transform="matrix(12,0,0,12,636.9,164.7)" />
<use xlink:href="#f1_1x" transform="matrix(12,0,0,12,646.1,164.7)" />
<use xlink:href="#f1_1j" transform="matrix(12,0,0,12,660.4,164.7)" />
<use xlink:href="#f1_1o" transform="matrix(12,0,0,12,666.2,164.7)" />
<use xlink:href="#f1_1h" transform="matrix(12,0,0,12,677.3,164.7)" />
<use xlink:href="#f1_1e" transform="matrix(12,0,0,12,693.7,164.7)" />
<use xlink:href="#f1_1b" transform="matrix(12,0,0,12,704.3,164.7)" />
<use xlink:href="#f1_1u" transform="matrix(12,0,0,12,714.5,164.7)" />
<use xlink:href="#f1_1b" transform="matrix(12,0,0,12,721.7,164.7)" />
<use xlink:href="#f1_1x" transform="matrix(12,0,0,12,738.4,164.7)" />
<use xlink:href="#f1_1f" transform="matrix(12,0,0,12,752.7,164.7)" />
<use xlink:href="#f1_1s" transform="matrix(12,0,0,12,761.9,164.7)" />
<use xlink:href="#f1_1f" transform="matrix(12,0,0,12,770,164.7)" />
<use xlink:href="#f1_1p" transform="matrix(12,0,0,12,129.7,189.2)" />
<use xlink:href="#f1_1c" transform="matrix(12,0,0,12,138.9,189.2)" />
<use xlink:href="#f1_1u" transform="matrix(12,0,0,12,149.1,189.2)" />
<use xlink:href="#f1_1b" transform="matrix(12,0,0,12,156.3,189.2)" />
<use xlink:href="#f1_1j" transform="matrix(12,0,0,12,166.5,189.2)" />
<use xlink:href="#f1_1o" transform="matrix(12,0,0,12,172.3,189.2)" />
<use xlink:href="#f1_1f" transform="matrix(12,0,0,12,183.4,189.2)" />
<use xlink:href="#f1_1e" transform="matrix(12,0,0,12,192.6,189.2)" />
<use xlink:href="#f1_j" transform="matrix(12,0,0,12,208.3,189.2)" />
<use xlink:href="#f1_n" transform="matrix(12,0,0,12,129.7,223)" />
<use xlink:href="#f2_5" transform="matrix(9.6,0,0,9.6,142.9,229.2)" />
<use xlink:href="#f1_s" transform="matrix(12,0,0,12,151.1,223)" />
<use xlink:href="#f2_8" transform="matrix(9.6,0,0,9.6,166.3,229.2)" />
<use xlink:href="#f1_n" transform="matrix(12,0,0,12,174.6,223)" />
<use xlink:href="#f1_1m" transform="matrix(12,0,0,12,187.8,223)" />
<use xlink:href="#f1_3" transform="matrix(12,0,0,12,193.6,223)" />
<use xlink:href="#f1_1h" transform="matrix(12,0,0,12,199.7,223)" />
<use xlink:href="#f1_4" transform="matrix(12,0,0,12,209.5,223)" />
<use xlink:href="#f3_2" transform="matrix(11,0,0,11,221.3,223)" />
<use xlink:href="#f1_n" transform="matrix(12,0,0,12,243.6,223)" />
<use xlink:href="#f2_5" transform="matrix(9.6,0,0,9.6,256.8,229.2)" />
<use xlink:href="#f1_s" transform="matrix(12,0,0,12,265,223)" />
<use xlink:href="#f2_7" transform="matrix(9.6,0,0,9.6,280.2,229.2)" />
<use xlink:href="#f1_3" transform="matrix(12,0,0,12,288.5,223)" />
<use xlink:href="#f1_1h" transform="matrix(12,0,0,12,294.6,223)" />
<use xlink:href="#f1_4" transform="matrix(12,0,0,12,304.4,223)" />
<use xlink:href="#f4_3" transform="matrix(12,0,0,12,316.3,223)" />
<use xlink:href="#f1_s" transform="matrix(12,0,0,12,340.2,223)" />
<use xlink:href="#f1_n" transform="matrix(12,0,0,12,355.5,223)" />
<use xlink:href="#f1_1m" transform="matrix(12,0,0,12,368.8,223)" />
<use xlink:href="#f1_3" transform="matrix(12,0,0,12,374.5,223)" />
<use xlink:href="#f1_1h" transform="matrix(12,0,0,12,380.6,223)" />
<use xlink:href="#f1_4" transform="matrix(12,0,0,12,390.5,223)" />
<use xlink:href="#f1_12" transform="matrix(12,0,0,12,129.7,257)" />
<use xlink:href="#f1_1j" transform="matrix(12,0,0,12,141.9,257)" />
<use xlink:href="#f1_1n" transform="matrix(12,0,0,12,147.7,257)" />
<use xlink:href="#f1_1f" transform="matrix(12,0,0,12,164,257)" />
<use xlink:href="#f1_8" transform="matrix(12,0,0,12,178.3,257)" />
<use xlink:href="#f1_1t" transform="matrix(12,0,0,12,188.5,257)" />
<use xlink:href="#f1_1f" transform="matrix(12,0,0,12,197,257)" />
<use xlink:href="#f1_1d" transform="matrix(12,0,0,12,206.2,257)" />
<use xlink:href="#f1_12" transform="matrix(12,0,0,12,259.4,257)" />
<use xlink:href="#f1_1p" transform="matrix(12,0,0,12,271.6,257)" />
<use xlink:href="#f1_1u" transform="matrix(12,0,0,12,280.8,257)" />
<use xlink:href="#f1_1b" transform="matrix(12,0,0,12,288,257)" />
<use xlink:href="#f1_1m" transform="matrix(12,0,0,12,298.2,257)" />
<use xlink:href="#f1_1q" transform="matrix(12,0,0,12,309.1,257)" />
<use xlink:href="#f1_1s" transform="matrix(12,0,0,12,319.6,257)" />
<use xlink:href="#f1_1f" transform="matrix(12,0,0,12,327.8,257)" />
<use xlink:href="#f1_1t" transform="matrix(12,0,0,12,336.9,257)" />
<use xlink:href="#f1_1t" transform="matrix(12,0,0,12,345.4,257)" />
<use xlink:href="#f1_1v" transform="matrix(12,0,0,12,353.9,257)" />
<use xlink:href="#f1_1s" transform="matrix(12,0,0,12,365.1,257)" />
<use xlink:href="#f1_1f" transform="matrix(12,0,0,12,373.2,257)" />
<use xlink:href="#f1_8" transform="matrix(12,0,0,12,387.5,257)" />
<use xlink:href="#f1_1b" transform="matrix(12,0,0,12,397.7,257)" />
<use xlink:href="#f1_1u" transform="matrix(12,0,0,12,407.9,257)" />
<use xlink:href="#f1_1n" transform="matrix(12,0,0,12,415.1,257)" />
<use xlink:href="#f1_9" transform="matrix(12,0,0,12,173,290.9)" />
<use xlink:href="#f1_9" transform="matrix(12,0,0,12,302.9,290.9)" />
<use xlink:href="#f1_7" transform="matrix(12,0,0,12,313.1,290.9)" />
<use xlink:href="#f1_c" transform="matrix(12,0,0,12,318.1,290.9)" />
<use xlink:href="#f1_9" transform="matrix(12,0,0,12,328.2,290.9)" />
<use xlink:href="#f1_c" transform="matrix(12,0,0,12,173,324.8)" />
<use xlink:href="#f1_9" transform="matrix(12,0,0,12,183.4,324.8)" />
<use xlink:href="#f1_9" transform="matrix(12,0,0,12,193.7,324.8)" />
<use xlink:href="#f1_9" transform="matrix(12,0,0,12,302.9,324.8)" />
<use xlink:href="#f1_7" transform="matrix(12,0,0,12,313.1,324.8)" />
<use xlink:href="#f1_e" transform="matrix(12,0,0,12,318.1,324.8)" />
<use xlink:href="#f1_9" transform="matrix(12,0,0,12,328.2,324.8)" />
<use xlink:href="#f1_n" transform="matrix(12,0,0,12,129.7,358.8)" />
<use xlink:href="#f1_1b" transform="matrix(12,0,0,12,142.9,358.8)" />
<use xlink:href="#f1_1m" transform="matrix(12,0,0,12,153.1,358.8)" />
<use xlink:href="#f1_1d" transform="matrix(12,0,0,12,158.9,358.8)" />
<use xlink:href="#f1_1v" transform="matrix(12,0,0,12,167,358.8)" />
<use xlink:href="#f1_1m" transform="matrix(12,0,0,12,178.2,358.8)" />
<use xlink:href="#f1_1b" transform="matrix(12,0,0,12,184,358.8)" />
<use xlink:href="#f1_1u" transform="matrix(12,0,0,12,194.2,358.8)" />
<use xlink:href="#f1_1f" transform="matrix(12,0,0,12,201.3,358.8)" />
<use xlink:href="#f1_1u" transform="matrix(12,0,0,12,216,358.8)" />
<use xlink:href="#f1_1i" transform="matrix(12,0,0,12,223.2,358.8)" />
<use xlink:href="#f1_1f" transform="matrix(12,0,0,12,234.3,358.8)" />
<use xlink:href="#f1_1s" transform="matrix(12,0,0,12,248.9,358.8)" />
<use xlink:href="#f1_1b" transform="matrix(12,0,0,12,257.1,358.8)" />
<use xlink:href="#f1_1u" transform="matrix(12,0,0,12,267.3,358.8)" />
<use xlink:href="#f1_1f" transform="matrix(12,0,0,12,274.4,358.8)" />
<use xlink:href="#f1_1d" transform="matrix(12,0,0,12,289.1,358.8)" />
<use xlink:href="#f1_1p" transform="matrix(12,0,0,12,297.2,358.8)" />
<use xlink:href="#f1_1o" transform="matrix(12,0,0,12,306.4,358.8)" />
<use xlink:href="#f1_1t" transform="matrix(12,0,0,12,317.5,358.8)" />
<use xlink:href="#f1_1u" transform="matrix(12,0,0,12,326,358.8)" />
<use xlink:href="#f1_1b" transform="matrix(12,0,0,12,333.2,358.8)" />
<use xlink:href="#f1_1o" transform="matrix(12,0,0,12,343.4,358.8)" />
<use xlink:href="#f1_1u" transform="matrix(12,0,0,12,354.5,358.8)" />
<use xlink:href="#f1_7" transform="matrix(12,0,0,12,361.7,358.8)" />
<use xlink:href="#f1_3" transform="matrix(12,0,0,12,129.7,392.6)" />
<use xlink:href="#f1_r" transform="matrix(12,0,0,12,135.8,392.6)" />
<use xlink:href="#f1_1j" transform="matrix(12,0,0,12,150.1,392.6)" />
<use xlink:href="#f1_1w" transform="matrix(12,0,0,12,155.9,392.6)" />
<use xlink:href="#f1_1f" transform="matrix(12,0,0,12,165.8,392.6)" />
<use xlink:href="#f1_1o" transform="matrix(12,0,0,12,175,392.6)" />
<use xlink:href="#f1_j" transform="matrix(12,0,0,12,192,392.6)" />
<use xlink:href="#f1_1m" transform="matrix(12,0,0,12,202.9,392.6)" />
<use xlink:href="#f1_1p" transform="matrix(12,0,0,12,208.7,392.6)" />
<use xlink:href="#f1_1h" transform="matrix(12,0,0,12,217.9,392.6)" />
<use xlink:href="#f1_b" transform="matrix(12,0,0,12,233.6,392.6)" />
<use xlink:href="#f4_6" transform="matrix(12,0,0,12,243.9,392.6)" />
<use xlink:href="#f1_9" transform="matrix(12,0,0,12,262.1,392.6)" />
<use xlink:href="#f1_7" transform="matrix(12,0,0,12,272.3,392.6)" />
<use xlink:href="#f1_c" transform="matrix(12,0,0,12,277.4,392.6)" />
<use xlink:href="#f1_9" transform="matrix(12,0,0,12,287.6,392.6)" />
<use xlink:href="#f1_a" transform="matrix(12,0,0,12,297.8,392.6)" />
<use xlink:href="#f1_1m" transform="matrix(12,0,0,12,313.8,392.6)" />
<use xlink:href="#f1_1p" transform="matrix(12,0,0,12,319.6,392.6)" />
<use xlink:href="#f1_1h" transform="matrix(12,0,0,12,328.7,392.6)" />
<use xlink:href="#f1_c" transform="matrix(12,0,0,12,344.4,392.6)" />
<use xlink:href="#f4_6" transform="matrix(12,0,0,12,354.6,392.6)" />
<use xlink:href="#f1_9" transform="matrix(12,0,0,12,372.9,392.6)" />
<use xlink:href="#f1_7" transform="matrix(12,0,0,12,383.1,392.6)" />
<use xlink:href="#f1_d" transform="matrix(12,0,0,12,388.2,392.6)" />
<use xlink:href="#f1_g" transform="matrix(12,0,0,12,398.4,392.6)" />
<use xlink:href="#f1_g" transform="matrix(12,0,0,12,408.6,392.6)" />
<use xlink:href="#f1_a" transform="matrix(12,0,0,12,418.8,392.6)" />
<use xlink:href="#f1_1m" transform="matrix(12,0,0,12,434.8,392.6)" />
<use xlink:href="#f1_1p" transform="matrix(12,0,0,12,440.5,392.6)" />
<use xlink:href="#f1_1h" transform="matrix(12,0,0,12,449.7,392.6)" />
<use xlink:href="#f1_d" transform="matrix(12,0,0,12,465.4,392.6)" />
<use xlink:href="#f4_6" transform="matrix(12,0,0,12,475.6,392.6)" />
<use xlink:href="#f1_9" transform="matrix(12,0,0,12,493.9,392.6)" />
<use xlink:href="#f1_7" transform="matrix(12,0,0,12,504.1,392.6)" />
<use xlink:href="#f1_f" transform="matrix(12,0,0,12,509.1,392.6)" />
<use xlink:href="#f1_9" transform="matrix(12,0,0,12,519.3,392.6)" />
<use xlink:href="#f1_b" transform="matrix(12,0,0,12,529.5,392.6)" />
<use xlink:href="#f1_a" transform="matrix(12,0,0,12,539.6,392.6)" />
<use xlink:href="#f1_4" transform="matrix(12,0,0,12,549.8,392.6)" />
<use xlink:href="#f0_5" transform="matrix(12,0,0,12,86.4,465.4)" />
<use xlink:href="#f0_8" transform="matrix(12,0,0,12,96.4,465.4)" />
<use xlink:href="#f0_3" transform="matrix(12,0,0,12,106.5,465.4)" />
<use xlink:href="#f5_26" transform="matrix(16,0,0,16,129.7,465.4)" />
<use xlink:href="#f5_1w" transform="matrix(16,0,0,16,134.9,465.4)" />
<use xlink:href="#f5_t" transform="matrix(16,0,0,16,145.1,465.4)" />
<use xlink:href="#f5_1w" transform="matrix(16,0,0,16,152.1,465.4)" />
<use xlink:href="#f5_1e" transform="matrix(16,0,0,16,171.9,465.4)" />
<use xlink:href="#f5_1o" transform="matrix(16,0,0,16,182.2,465.4)" />
<use xlink:href="#f5_25" transform="matrix(16,0,0,16,192.2,465.4)" />
<use xlink:href="#f5_2b" transform="matrix(16,0,0,16,196.6,465.4)" />
<use xlink:href="#f5_16" transform="matrix(16,0,0,16,196.8,465.4)" />
<use xlink:href="#f5_17" transform="matrix(16,0,0,16,206.8,465.4)" />
<use xlink:href="#f5_25" transform="matrix(16,0,0,16,221.5,465.4)" />
<use xlink:href="#f5_2b" transform="matrix(16,0,0,16,225.9,465.4)" />
<use xlink:href="#f5_1e" transform="matrix(16,0,0,16,235.9,465.4)" />
<use xlink:href="#f5_26" transform="matrix(16,0,0,16,246.2,465.4)" />
<use xlink:href="#f5_1x" transform="matrix(16,0,0,16,251.5,465.4)" />
<use xlink:href="#f5_1t" transform="matrix(16,0,0,16,259.1,465.4)" />
<use xlink:href="#f5_25" transform="matrix(16,0,0,16,271.6,465.4)" />
<use xlink:href="#f5_26" transform="matrix(16,0,0,16,276,465.4)" />
<use xlink:href="#f5_22" transform="matrix(16,0,0,16,281.3,465.4)" />
<use xlink:href="#f5_1m" transform="matrix(16,0,0,16,291.9,465.4)" />
<use xlink:href="#f5_17" transform="matrix(16,0,0,16,311.7,465.4)" />
<use xlink:href="#f5_27" transform="matrix(16,0,0,16,326.5,465.4)" />
<use xlink:href="#f5_26" transform="matrix(16,0,0,16,331.8,465.4)" />
<use xlink:href="#f5_1d" transform="matrix(16,0,0,16,337,465.4)" />
<use xlink:href="#f5_15" transform="matrix(16,0,0,16,350.2,465.4)" />
<use xlink:href="#f5_1r" transform="matrix(16,0,0,16,370.5,465.4)" />
<use xlink:href="#f1_3" transform="matrix(12,0,0,12,129.7,506.6)" />
<use xlink:href="#f1_1j" transform="matrix(12,0,0,12,135.4,506.6)" />
<use xlink:href="#f1_4" transform="matrix(12,0,0,12,140.7,506.6)" />
<use xlink:href="#f5_1e" transform="matrix(16,0,0,16,173,506.6)" />
<use xlink:href="#f5_2b" transform="matrix(16,0,0,16,183.4,506.6)" />
<use xlink:href="#f5_q" transform="matrix(16,0,0,16,183.8,506.6)" />
<use xlink:href="#f5_1g" transform="matrix(16,0,0,16,189.5,506.6)" />
<use xlink:href="#f5_27" transform="matrix(16,0,0,16,199.5,506.6)" />
<use xlink:href="#f5_17" transform="matrix(16,0,0,16,204.9,506.6)" />
<use xlink:href="#f5_1x" transform="matrix(16,0,0,16,219.9,506.6)" />
<use xlink:href="#f5_n" transform="matrix(16,0,0,16,227.7,506.6)" />
<use xlink:href="#f5_25" transform="matrix(16,0,0,16,236.2,506.6)" />
<use xlink:href="#f1_3" transform="matrix(12,0,0,12,129.7,547.8)" />
<use xlink:href="#f1_1j" transform="matrix(12,0,0,12,135.5,547.8)" />
<use xlink:href="#f1_1j" transform="matrix(12,0,0,12,141,547.8)" />
<use xlink:href="#f1_4" transform="matrix(12,0,0,12,146.5,547.8)" />
<use xlink:href="#f5_1d" transform="matrix(16,0,0,16,173,547.8)" />
<use xlink:href="#f5_27" transform="matrix(16,0,0,16,186.2,547.8)" />
<use xlink:href="#f5_1g" transform="matrix(16,0,0,16,191.5,547.8)" />
<use xlink:href="#f5_25" transform="matrix(16,0,0,16,201.5,547.8)" />
<use xlink:href="#f5_26" transform="matrix(16,0,0,16,215.9,547.8)" />
<use xlink:href="#f5_20" transform="matrix(16,0,0,16,221.2,547.8)" />
<use xlink:href="#f5_1t" transform="matrix(16,0,0,16,232.7,547.8)" />
<use xlink:href="#f5_20" transform="matrix(16,0,0,16,245.3,547.8)" />
<use xlink:href="#f1_3" transform="matrix(12,0,0,12,129.7,589.1)" />
<use xlink:href="#f1_1j" transform="matrix(12,0,0,12,135.6,589.1)" />
<use xlink:href="#f1_1j" transform="matrix(12,0,0,12,141.1,589.1)" />
<use xlink:href="#f1_1j" transform="matrix(12,0,0,12,146.6,589.1)" />
<use xlink:href="#f1_4" transform="matrix(12,0,0,12,152.2,589.1)" />
<use xlink:href="#f5_1s" transform="matrix(16,0,0,16,173,589.1)" />
<use xlink:href="#f5_2h" transform="matrix(16,0,0,16,184.6,589.1)" />
<use xlink:href="#f5_25" transform="matrix(16,0,0,16,184.8,589.1)" />
<use xlink:href="#f5_12" transform="matrix(16,0,0,16,189.3,589.1)" />
<use xlink:href="#f5_26" transform="matrix(16,0,0,16,199.1,589.1)" />
<use xlink:href="#f5_1w" transform="matrix(16,0,0,16,204.4,589.1)" />
<use xlink:href="#f5_1v" transform="matrix(16,0,0,16,214.5,589.1)" />
<use xlink:href="#f5_1w" transform="matrix(16,0,0,16,225.7,589.1)" />
<use xlink:href="#f5_1u" transform="matrix(16,0,0,16,244.9,589.1)" />
<use xlink:href="#f5_29" transform="matrix(16,0,0,16,256.4,589.1)" />
<use xlink:href="#f5_20" transform="matrix(16,0,0,16,256.6,589.1)" />
<use xlink:href="#f5_1u" transform="matrix(16,0,0,16,268.1,589.1)" />
<use xlink:href="#f5_2b" transform="matrix(16,0,0,16,279.6,589.1)" />
<use xlink:href="#f5_16" transform="matrix(16,0,0,16,279.8,589.1)" />
<use xlink:href="#f5_1g" transform="matrix(16,0,0,16,280.1,589.1)" />
<use xlink:href="#f1_o" transform="matrix(12,0,0,12,129.7,630.4)" />
<use xlink:href="#f1_1f" transform="matrix(12,0,0,12,143.9,630.4)" />
<use xlink:href="#f1_1g" transform="matrix(12,0,0,12,153,630.4)" />
<use xlink:href="#f1_1j" transform="matrix(12,0,0,12,159.1,630.4)" />
<use xlink:href="#f1_1o" transform="matrix(12,0,0,12,164.8,630.4)" />
<use xlink:href="#f1_1f" transform="matrix(12,0,0,12,175.9,630.4)" />
<use xlink:href="#f1_1u" transform="matrix(12,0,0,12,190.1,630.4)" />
<use xlink:href="#f1_1i" transform="matrix(12,0,0,12,197.2,630.4)" />
<use xlink:href="#f1_1f" transform="matrix(12,0,0,12,208.3,630.4)" />
<use xlink:href="#f1_1g" transform="matrix(12,0,0,12,222.5,630.4)" />
<use xlink:href="#f1_1p" transform="matrix(12,0,0,12,228.6,630.4)" />
<use xlink:href="#f1_1m" transform="matrix(12,0,0,12,237.7,630.4)" />
<use xlink:href="#f1_1m" transform="matrix(12,0,0,12,243.4,630.4)" />
<use xlink:href="#f1_1p" transform="matrix(12,0,0,12,249.2,630.4)" />
<use xlink:href="#f1_1x" transform="matrix(12,0,0,12,258.3,630.4)" />
<use xlink:href="#f1_1j" transform="matrix(12,0,0,12,272.5,630.4)" />
<use xlink:href="#f1_1o" transform="matrix(12,0,0,12,278.2,630.4)" />
<use xlink:href="#f1_1h" transform="matrix(12,0,0,12,289.3,630.4)" />
<use xlink:href="#f1_1u" transform="matrix(12,0,0,12,304.2,630.4)" />
<use xlink:href="#f1_1f" transform="matrix(12,0,0,12,311.3,630.4)" />
<use xlink:href="#f1_1s" transform="matrix(12,0,0,12,320.4,630.4)" />
<use xlink:href="#f1_1n" transform="matrix(12,0,0,12,328.5,630.4)" />
<use xlink:href="#f1_1t" transform="matrix(12,0,0,12,344.8,630.4)" />
<use xlink:href="#f1_j" transform="matrix(12,0,0,12,358.3,630.4)" />
<use xlink:href="#f1_3" transform="matrix(12,0,0,12,129.7,666.8)" />
<use xlink:href="#f1_1j" transform="matrix(12,0,0,12,135.4,666.8)" />
<use xlink:href="#f1_4" transform="matrix(12,0,0,12,140.7,666.8)" />
<use xlink:href="#f1_z" transform="matrix(12,0,0,12,173,666.8)" />
<use xlink:href="#f1_1f" transform="matrix(12,0,0,12,185.2,666.8)" />
<use xlink:href="#f1_1q" transform="matrix(12,0,0,12,194.4,666.8)" />
<use xlink:href="#f1_1u" transform="matrix(12,0,0,12,204.9,666.8)" />
<use xlink:href="#f1_1j" transform="matrix(12,0,0,12,212.1,666.8)" />
<use xlink:href="#f1_20" transform="matrix(12,0,0,12,217.9,666.8)" />
<use xlink:href="#f1_1b" transform="matrix(12,0,0,12,226.7,666.8)" />
<use xlink:href="#f1_1u" transform="matrix(12,0,0,12,237,666.8)" />
<use xlink:href="#f1_1j" transform="matrix(12,0,0,12,244.2,666.8)" />
<use xlink:href="#f1_1p" transform="matrix(12,0,0,12,250,666.8)" />
<use xlink:href="#f1_1o" transform="matrix(12,0,0,12,259.1,666.8)" />
<use xlink:href="#f1_3" transform="matrix(12,0,0,12,129.7,700.6)" />
<use xlink:href="#f1_1j" transform="matrix(12,0,0,12,135.5,700.6)" />
<use xlink:href="#f1_1j" transform="matrix(12,0,0,12,141,700.6)" />
<use xlink:href="#f1_4" transform="matrix(12,0,0,12,146.5,700.6)" />
<use xlink:href="#f1_18" transform="matrix(12,0,0,12,173,700.6)" />
<use xlink:href="#f1_1f" transform="matrix(12,0,0,12,184.1,700.6)" />
<use xlink:href="#f1_1u" transform="matrix(12,0,0,12,193.3,700.6)" />
<use xlink:href="#f1_1b" transform="matrix(12,0,0,12,200.5,700.6)" />
<use xlink:href="#f1_1q" transform="matrix(12,0,0,12,216.1,700.6)" />
<use xlink:href="#f1_1p" transform="matrix(12,0,0,12,226.6,700.6)" />
<use xlink:href="#f1_1u" transform="matrix(12,0,0,12,235.8,700.6)" />
<use xlink:href="#f1_1f" transform="matrix(12,0,0,12,242.9,700.6)" />
<use xlink:href="#f1_1o" transform="matrix(12,0,0,12,252.1,700.6)" />
<use xlink:href="#f1_1u" transform="matrix(12,0,0,12,263.2,700.6)" />
<use xlink:href="#f1_1j" transform="matrix(12,0,0,12,270.4,700.6)" />
<use xlink:href="#f1_1b" transform="matrix(12,0,0,12,276.2,700.6)" />
<use xlink:href="#f1_1m" transform="matrix(12,0,0,12,286.4,700.6)" />
<use xlink:href="#f1_3" transform="matrix(12,0,0,12,129.7,739.4)" />
<use xlink:href="#f1_1j" transform="matrix(12,0,0,12,135.6,739.4)" />
<use xlink:href="#f1_1j" transform="matrix(12,0,0,12,141.1,739.4)" />
<use xlink:href="#f1_1j" transform="matrix(12,0,0,12,146.6,739.4)" />
<use xlink:href="#f1_4" transform="matrix(12,0,0,12,152.2,739.4)" />
<use xlink:href="#f1_m" transform="matrix(12,0,0,12,173,739.4)" />
<use xlink:href="#f1_1s" transform="matrix(12,0,0,12,186.2,739.4)" />
<use xlink:href="#f1_1p" transform="matrix(12,0,0,12,194.3,739.4)" />
<use xlink:href="#f1_1x" transform="matrix(12,0,0,12,203.5,739.4)" />
<use xlink:href="#f1_1o" transform="matrix(12,0,0,12,217.7,739.4)" />
<use xlink:href="#f1_1j" transform="matrix(12,0,0,12,228.9,739.4)" />
<use xlink:href="#f1_1b" transform="matrix(12,0,0,12,234.6,739.4)" />
<use xlink:href="#f1_1o" transform="matrix(12,0,0,12,244.8,739.4)" />
<use xlink:href="#f1_1n" transform="matrix(12,0,0,12,261.1,739.4)" />
<use xlink:href="#f1_1p" transform="matrix(12,0,0,12,277.4,739.4)" />
<use xlink:href="#f1_1w" transform="matrix(12,0,0,12,286.6,739.4)" />
<use xlink:href="#f1_1f" transform="matrix(12,0,0,12,296.4,739.4)" />
<use xlink:href="#f1_1n" transform="matrix(12,0,0,12,305.6,739.4)" />
<use xlink:href="#f1_1f" transform="matrix(12,0,0,12,321.9,739.4)" />
<use xlink:href="#f1_1o" transform="matrix(12,0,0,12,331.1,739.4)" />
<use xlink:href="#f1_1u" transform="matrix(12,0,0,12,342.2,739.4)" />
<use xlink:href="#f0_5" transform="matrix(12,0,0,12,86.4,814.6)" />
<use xlink:href="#f0_9" transform="matrix(12,0,0,12,96.4,814.6)" />
<use xlink:href="#f0_3" transform="matrix(12,0,0,12,106.5,814.6)" />
<use xlink:href="#f5_11" transform="matrix(16,0,0,16,129.7,814.6)" />
<use xlink:href="#f5_1w" transform="matrix(16,0,0,16,138.2,814.6)" />
<use xlink:href="#f5_17" transform="matrix(16,0,0,16,148.3,814.6)" />
<use xlink:href="#f5_25" transform="matrix(16,0,0,16,163.1,814.6)" />
<use xlink:href="#f5_2b" transform="matrix(16,0,0,16,167.5,814.6)" />
<use xlink:href="#f5_23" transform="matrix(16,0,0,16,176.7,814.6)" />
<use xlink:href="#f5_1u" transform="matrix(16,0,0,16,189.5,814.6)" />
<use xlink:href="#f5_1n" transform="matrix(16,0,0,16,201,814.6)" />
<use xlink:href="#f5_2g" transform="matrix(16,0,0,16,213.2,814.6)" />
<use xlink:href="#f5_1w" transform="matrix(16,0,0,16,213.4,814.6)" />
<use xlink:href="#f5_1o" transform="matrix(16,0,0,16,232.6,814.6)" />
<use xlink:href="#f5_2b" transform="matrix(16,0,0,16,242.5,814.6)" />
<use xlink:href="#f5_1w" transform="matrix(16,0,0,16,242.8,814.6)" />
<use xlink:href="#f5_2b" transform="matrix(16,0,0,16,252.9,814.6)" />
<use xlink:href="#f5_20" transform="matrix(16,0,0,16,262.2,814.6)" />
<use xlink:href="#f5_25" transform="matrix(16,0,0,16,273.6,814.6)" />
<use xlink:href="#f5_1z" transform="matrix(16,0,0,16,278,814.6)" />
<use xlink:href="#f5_2b" transform="matrix(16,0,0,16,291.8,814.6)" />
<use xlink:href="#f5_26" transform="matrix(16,0,0,16,301.1,814.6)" />
<use xlink:href="#f5_23" transform="matrix(16,0,0,16,306.4,814.6)" />
<use xlink:href="#f5_g" transform="matrix(16,0,0,16,319.1,814.6)" />
<use xlink:href="#f5_25" transform="matrix(16,0,0,16,333.3,814.6)" />
<use xlink:href="#f5_p" transform="matrix(16,0,0,16,337.7,814.6)" />
<use xlink:href="#f5_1m" transform="matrix(16,0,0,16,343.3,814.6)" />
<use xlink:href="#f5_25" transform="matrix(16,0,0,16,353.4,814.6)" />
<use xlink:href="#f5_2b" transform="matrix(16,0,0,16,357.8,814.6)" />
<use xlink:href="#f5_16" transform="matrix(16,0,0,16,358.1,814.6)" />
<use xlink:href="#f5_17" transform="matrix(16,0,0,16,367.4,814.6)" />
<use xlink:href="#f5_25" transform="matrix(16,0,0,16,382.1,814.6)" />
<use xlink:href="#f5_2b" transform="matrix(16,0,0,16,386.5,814.6)" />
<use xlink:href="#f5_26" transform="matrix(16,0,0,16,395.8,814.6)" />
<use xlink:href="#f5_1z" transform="matrix(16,0,0,16,401.1,814.6)" />
<use xlink:href="#f5_26" transform="matrix(16,0,0,16,414.9,814.6)" />
<use xlink:href="#f5_19" transform="matrix(16,0,0,16,420.2,814.6)" />
<use xlink:href="#f5_15" transform="matrix(16,0,0,16,435.7,814.6)" />
<use xlink:href="#f5_1r" transform="matrix(16,0,0,16,455.3,814.6)" />
<use xlink:href="#f1_3" transform="matrix(12,0,0,12,129.7,855.8)" />
<use xlink:href="#f1_1j" transform="matrix(12,0,0,12,135.4,855.8)" />
<use xlink:href="#f1_4" transform="matrix(12,0,0,12,140.7,855.8)" />
<use xlink:href="#f5_20" transform="matrix(16,0,0,16,173,855.8)" />
<use xlink:href="#f5_25" transform="matrix(16,0,0,16,184.4,855.8)" />
<use xlink:href="#f5_f" transform="matrix(16,0,0,16,188.8,855.8)" />
<use xlink:href="#f5_1e" transform="matrix(16,0,0,16,194.8,855.8)" />
<use xlink:href="#f5_1e" transform="matrix(16,0,0,16,214.5,855.8)" />
<use xlink:href="#f5_2h" transform="matrix(16,0,0,16,224.8,855.8)" />
<use xlink:href="#f5_25" transform="matrix(16,0,0,16,225,855.8)" />
<use xlink:href="#f5_20" transform="matrix(16,0,0,16,229.4,855.8)" />
<use xlink:href="#f5_d" transform="matrix(16,0,0,16,240.8,855.8)" />
<use xlink:href="#f5_1n" transform="matrix(16,0,0,16,248.9,855.8)" />
<use xlink:href="#f5_25" transform="matrix(16,0,0,16,261.1,855.8)" />
<use xlink:href="#f5_1e" transform="matrix(16,0,0,16,274.9,855.8)" />
<use xlink:href="#f5_26" transform="matrix(16,0,0,16,285.2,855.8)" />
<use xlink:href="#f5_1x" transform="matrix(16,0,0,16,290.5,855.8)" />
<use xlink:href="#f5_f" transform="matrix(16,0,0,16,298.1,855.8)" />
<use xlink:href="#f5_17" transform="matrix(16,0,0,16,304,855.8)" />
<use xlink:href="#f5_1x" transform="matrix(16,0,0,16,318.8,855.8)" />
<use xlink:href="#f5_n" transform="matrix(16,0,0,16,326.4,855.8)" />
<use xlink:href="#f5_25" transform="matrix(16,0,0,16,334.8,855.8)" />
<use xlink:href="#f1_3" transform="matrix(12,0,0,12,129.7,897.1)" />
<use xlink:href="#f1_1j" transform="matrix(12,0,0,12,135.5,897.1)" />
<use xlink:href="#f1_1j" transform="matrix(12,0,0,12,141,897.1)" />
<use xlink:href="#f1_4" transform="matrix(12,0,0,12,146.5,897.1)" />
<use xlink:href="#f5_17" transform="matrix(16,0,0,16,173,897.1)" />
<use xlink:href="#f5_2h" transform="matrix(16,0,0,16,183,897.1)" />
<use xlink:href="#f5_25" transform="matrix(16,0,0,16,188,897.1)" />
<use xlink:href="#f5_2b" transform="matrix(16,0,0,16,192.4,897.1)" />
<use xlink:href="#f5_1u" transform="matrix(16,0,0,16,192.7,897.1)" />
<use xlink:href="#f5_2c" transform="matrix(16,0,0,16,204.2,897.1)" />
<use xlink:href="#f5_1g" transform="matrix(16,0,0,16,204.4,897.1)" />
<use xlink:href="#f5_25" transform="matrix(16,0,0,16,214.2,897.1)" />
<use xlink:href="#f5_2b" transform="matrix(16,0,0,16,218.6,897.1)" />
<use xlink:href="#f5_1a" transform="matrix(16,0,0,16,218.9,897.1)" />
<use xlink:href="#f5_2h" transform="matrix(16,0,0,16,229.7,897.1)" />
<use xlink:href="#f5_25" transform="matrix(16,0,0,16,229.9,897.1)" />
<use xlink:href="#f5_1j" transform="matrix(16,0,0,16,234.3,897.1)" />
<use xlink:href="#f5_27" transform="matrix(16,0,0,16,249.1,897.1)" />
<use xlink:href="#f1_3" transform="matrix(12,0,0,12,129.7,938.4)" />
<use xlink:href="#f1_1j" transform="matrix(12,0,0,12,135.6,938.4)" />
<use xlink:href="#f1_1j" transform="matrix(12,0,0,12,141.1,938.4)" />
<use xlink:href="#f1_1j" transform="matrix(12,0,0,12,146.6,938.4)" />
<use xlink:href="#f1_4" transform="matrix(12,0,0,12,152.2,938.4)" />
<use xlink:href="#f5_1y" transform="matrix(16,0,0,16,173,938.4)" />
<use xlink:href="#f5_25" transform="matrix(16,0,0,16,181.1,938.4)" />
<use xlink:href="#f5_25" transform="matrix(16,0,0,16,185.5,938.4)" />
<use xlink:href="#f5_1a" transform="matrix(16,0,0,16,189.9,938.4)" />
<use xlink:href="#f5_q" transform="matrix(16,0,0,16,209.7,938.4)" />
<use xlink:href="#f5_1z" transform="matrix(16,0,0,16,215.3,938.4)" />
<use xlink:href="#f5_20" transform="matrix(16,0,0,16,229.2,938.4)" />
<use xlink:href="#f5_1w" transform="matrix(16,0,0,16,240.6,938.4)" />
<use xlink:href="#f5_1e" transform="matrix(16,0,0,16,259.7,938.4)" />
<use xlink:href="#f5_2h" transform="matrix(16,0,0,16,270,938.4)" />
<use xlink:href="#f5_17" transform="matrix(16,0,0,16,270.3,938.4)" />
<use xlink:href="#f5_2h" transform="matrix(16,0,0,16,280.2,938.4)" />
<use xlink:href="#f5_1u" transform="matrix(16,0,0,16,285.3,938.4)" />
<use xlink:href="#f1_15" transform="matrix(12,0,0,12,129.7,974.8)" />
<use xlink:href="#f1_1s" transform="matrix(12,0,0,12,147.7,974.8)" />
<use xlink:href="#f1_1j" transform="matrix(12,0,0,12,155.8,974.8)" />
<use xlink:href="#f1_1u" transform="matrix(12,0,0,12,161.6,974.8)" />
<use xlink:href="#f1_1f" transform="matrix(12,0,0,12,168.8,974.8)" />
<use xlink:href="#f1_1u" transform="matrix(12,0,0,12,183.3,974.8)" />
<use xlink:href="#f1_1i" transform="matrix(12,0,0,12,190.5,974.8)" />
<use xlink:href="#f1_1f" transform="matrix(12,0,0,12,201.6,974.8)" />
<use xlink:href="#f1_1q" transform="matrix(12,0,0,12,216.1,974.8)" />
<use xlink:href="#f1_1s" transform="matrix(12,0,0,12,226.6,974.8)" />
<use xlink:href="#f1_1j" transform="matrix(12,0,0,12,234.8,974.8)" />
<use xlink:href="#f1_1o" transform="matrix(12,0,0,12,240.6,974.8)" />
<use xlink:href="#f1_1d" transform="matrix(12,0,0,12,251.7,974.8)" />
<use xlink:href="#f1_1j" transform="matrix(12,0,0,12,259.9,974.8)" />
<use xlink:href="#f1_1q" transform="matrix(12,0,0,12,265.6,974.8)" />
<use xlink:href="#f1_1m" transform="matrix(12,0,0,12,276.2,974.8)" />
<use xlink:href="#f1_1f" transform="matrix(12,0,0,12,282,974.8)" />
<use xlink:href="#f1_1c" transform="matrix(12,0,0,12,296.5,974.8)" />
<use xlink:href="#f1_1f" transform="matrix(12,0,0,12,306.7,974.8)" />
<use xlink:href="#f1_1i" transform="matrix(12,0,0,12,315.9,974.8)" />
<use xlink:href="#f1_1j" transform="matrix(12,0,0,12,327,974.8)" />
<use xlink:href="#f1_1o" transform="matrix(12,0,0,12,332.8,974.8)" />
<use xlink:href="#f1_1e" transform="matrix(12,0,0,12,344,974.8)" />
<use xlink:href="#f1_1u" transform="matrix(12,0,0,12,359.8,974.8)" />
<use xlink:href="#f1_1i" transform="matrix(12,0,0,12,367,974.8)" />
<use xlink:href="#f1_1f" transform="matrix(12,0,0,12,378.1,974.8)" />
<use xlink:href="#f1_1g" transform="matrix(12,0,0,12,392.6,974.8)" />
<use xlink:href="#f1_1p" transform="matrix(12,0,0,12,398.7,974.8)" />
<use xlink:href="#f1_1m" transform="matrix(12,0,0,12,407.9,974.8)" />
<use xlink:href="#f1_1m" transform="matrix(12,0,0,12,413.7,974.8)" />
<use xlink:href="#f1_1p" transform="matrix(12,0,0,12,419.5,974.8)" />
<use xlink:href="#f1_1x" transform="matrix(12,0,0,12,428.7,974.8)" />
<use xlink:href="#f1_1j" transform="matrix(12,0,0,12,443,974.8)" />
<use xlink:href="#f1_1o" transform="matrix(12,0,0,12,448.8,974.8)" />
<use xlink:href="#f1_1h" transform="matrix(12,0,0,12,459.9,974.8)" />
<use xlink:href="#f1_j" transform="matrix(12,0,0,12,475.1,974.8)" />
<use xlink:href="#f1_3" transform="matrix(12,0,0,12,129.7,1008.6)" />
<use xlink:href="#f1_1j" transform="matrix(12,0,0,12,135.4,1008.6)" />
<use xlink:href="#f1_4" transform="matrix(12,0,0,12,140.7,1008.6)" />
<use xlink:href="#f1_14" transform="matrix(12,0,0,12,173,1008.6)" />
<use xlink:href="#f1_1b" transform="matrix(12,0,0,12,186.2,1008.6)" />
<use xlink:href="#f1_1q" transform="matrix(12,0,0,12,196.5,1008.6)" />
<use xlink:href="#f1_1p" transform="matrix(12,0,0,12,207,1008.6)" />
<use xlink:href="#f1_1v" transform="matrix(12,0,0,12,216.2,1008.6)" />
<use xlink:href="#f1_1s" transform="matrix(12,0,0,12,227.4,1008.6)" />
<use xlink:href="#f1_1q" transform="matrix(12,0,0,12,241.5,1008.6)" />
<use xlink:href="#f1_1i" transform="matrix(12,0,0,12,252,1008.6)" />
<use xlink:href="#f1_1b" transform="matrix(12,0,0,12,263.2,1008.6)" />
<use xlink:href="#f1_1t" transform="matrix(12,0,0,12,273.4,1008.6)" />
<use xlink:href="#f1_1f" transform="matrix(12,0,0,12,281.9,1008.6)" />
<use xlink:href="#f1_1s" transform="matrix(12,0,0,12,297,1008.6)" />
<use xlink:href="#f1_1f" transform="matrix(12,0,0,12,305.2,1008.6)" />
<use xlink:href="#f1_1g" transform="matrix(12,0,0,12,314.3,1008.6)" />
<use xlink:href="#f1_1j" transform="matrix(12,0,0,12,320.5,1008.6)" />
<use xlink:href="#f1_1o" transform="matrix(12,0,0,12,326.3,1008.6)" />
<use xlink:href="#f1_1j" transform="matrix(12,0,0,12,337.4,1008.6)" />
<use xlink:href="#f1_1o" transform="matrix(12,0,0,12,343.2,1008.6)" />
<use xlink:href="#f1_1h" transform="matrix(12,0,0,12,354.4,1008.6)" />
<use xlink:href="#f1_3" transform="matrix(12,0,0,12,129.7,1042.6)" />
<use xlink:href="#f1_1j" transform="matrix(12,0,0,12,135.5,1042.6)" />
<use xlink:href="#f1_1j" transform="matrix(12,0,0,12,141,1042.6)" />
<use xlink:href="#f1_4" transform="matrix(12,0,0,12,146.5,1042.6)" />
<use xlink:href="#f1_n" transform="matrix(12,0,0,12,173,1042.6)" />
<use xlink:href="#f1_1i" transform="matrix(12,0,0,12,186.3,1042.6)" />
<use xlink:href="#f1_1s" transform="matrix(12,0,0,12,197.6,1042.6)" />
<use xlink:href="#f1_1p" transform="matrix(12,0,0,12,205.8,1042.6)" />
<use xlink:href="#f1_1n" transform="matrix(12,0,0,12,215,1042.6)" />
<use xlink:href="#f1_1b" transform="matrix(12,0,0,12,231.5,1042.6)" />
<use xlink:href="#f1_1u" transform="matrix(12,0,0,12,241.8,1042.6)" />
<use xlink:href="#f1_1p" transform="matrix(12,0,0,12,249,1042.6)" />
<use xlink:href="#f1_1h" transform="matrix(12,0,0,12,258.3,1042.6)" />
<use xlink:href="#f1_1s" transform="matrix(12,0,0,12,268.2,1042.6)" />
<use xlink:href="#f1_1b" transform="matrix(12,0,0,12,276.5,1042.6)" />
<use xlink:href="#f1_1q" transform="matrix(12,0,0,12,286.8,1042.6)" />
<use xlink:href="#f1_1i" transform="matrix(12,0,0,12,297.4,1042.6)" />
<use xlink:href="#f1_1z" transform="matrix(12,0,0,12,308.6,1042.6)" />
<use xlink:href="#f1_3" transform="matrix(12,0,0,12,129.7,1076.4)" />
<use xlink:href="#f1_1j" transform="matrix(12,0,0,12,135.6,1076.4)" />
<use xlink:href="#f1_1j" transform="matrix(12,0,0,12,141.1,1076.4)" />
<use xlink:href="#f1_1j" transform="matrix(12,0,0,12,146.6,1076.4)" />
<use xlink:href="#f1_4" transform="matrix(12,0,0,12,152.2,1076.4)" />
<use xlink:href="#f1_q" transform="matrix(12,0,0,12,173,1076.4)" />
<use xlink:href="#f1_1s" transform="matrix(12,0,0,12,185.2,1076.4)" />
<use xlink:href="#f1_1p" transform="matrix(12,0,0,12,193.3,1076.4)" />
<use xlink:href="#f1_1u" transform="matrix(12,0,0,12,202.4,1076.4)" />
<use xlink:href="#f1_1i" transform="matrix(12,0,0,12,209.6,1076.4)" />
<use xlink:href="#f1_1g" transform="matrix(12,0,0,12,225.8,1076.4)" />
<use xlink:href="#f1_1m" transform="matrix(12,0,0,12,231.9,1076.4)" />
<use xlink:href="#f1_1p" transform="matrix(12,0,0,12,237.7,1076.4)" />
<use xlink:href="#f1_1b" transform="matrix(12,0,0,12,246.8,1076.4)" />
<use xlink:href="#f1_1u" transform="matrix(12,0,0,12,257,1076.4)" />
<use xlink:href="#f1_1b" transform="matrix(12,0,0,12,264.2,1076.4)" />
<use xlink:href="#f1_1u" transform="matrix(12,0,0,12,274.3,1076.4)" />
<use xlink:href="#f1_1j" transform="matrix(12,0,0,12,281.5,1076.4)" />
<use xlink:href="#f1_1p" transform="matrix(12,0,0,12,287.3,1076.4)" />
<use xlink:href="#f1_1o" transform="matrix(12,0,0,12,296.4,1076.4)" />
<use xlink:href="#f1_1q" transform="matrix(12,0,0,12,312.6,1076.4)" />
<use xlink:href="#f1_1s" transform="matrix(12,0,0,12,323.1,1076.4)" />
<use xlink:href="#f1_1p" transform="matrix(12,0,0,12,331.3,1076.4)" />
<use xlink:href="#f1_1d" transform="matrix(12,0,0,12,340.4,1076.4)" />
<use xlink:href="#f1_1f" transform="matrix(12,0,0,12,348.5,1076.4)" />
<use xlink:href="#f1_1t" transform="matrix(12,0,0,12,357.7,1076.4)" />
<use xlink:href="#f1_1t" transform="matrix(12,0,0,12,366.1,1076.4)" />
</g>
<defs>
<path d="M897,-59C827,-59,773,-39,736,2c-36,39,-56,99,-56,178c0,43,6,92,18,150c19,86,45,176,81,270c52,130,119,277,206,442l385,687H616c-72,-1,-121,-21,-150,-59c-28,-41,-60,-135,-96,-280H237l104,769h61c55,-22,121,-31,195,-31H1641V1992C1502,1710,1407,1502,1357,1369c-49,-136,-89,-272,-116,-408C1212,823,1189,629,1167,382C1157,235,1141,138,1123,90C1106,43,1077,6,1039,-19C999,-45,952,-59,897,-59Z" 
id="f0_b"
transform="scale(4.8828125E-4,-4.8828125E-4)" />

<path d="M798,-59C611,-59,460,-10,347,87C235,183,177,303,177,440c0,92,25,163,75,218c49,54,110,80,185,81c67,-1,121,-22,163,-65c45,-41,65,-93,65,-155c0,-44,-10,-84,-29,-114C616,371,578,341,521,310C480,286,458,263,458,241c0,-35,22,-67,66,-93C586,108,659,89,742,89c3,0,7,0,10,0c1,0,3,0,5,0c106,0,191,47,254,137c66,92,98,249,98,474c0,188,-30,325,-93,411c-61,87,-141,130,-237,131c-44,-1,-91,-11,-143,-27c-52,-17,-107,-43,-167,-77c0,-81,-11,-134,-31,-163C420,947,394,932,359,932c-1,0,-3,0,-5,0c-2,0,-5,0,-7,0c-29,0,-51,7,-67,23c-19,17,-28,38,-28,64c0,38,29,98,89,177l73,977c217,-48,411,-74,584,-74c5,0,10,0,15,0c7,0,13,0,20,0c127,0,233,14,318,41c35,11,56,17,62,19c14,-2,22,-12,22,-31c0,-69,-26,-140,-78,-215c-52,-77,-119,-133,-204,-171c-79,-37,-179,-57,-301,-57c-4,0,-9,0,-13,0c-6,0,-12,0,-19,0c-91,0,-194,11,-307,31L481,1303c77,34,147,58,214,75c66,17,128,26,187,26c192,0,359,-66,495,-194c137,-130,204,-302,204,-516c0,-223,-70,-405,-215,-544C1222,9,1033,-59,798,-59Z" 
id="f0_9"
transform="scale(4.8828125E-4,-4.8828125E-4)" />

<path d="M932,89c2,0,3,0,5,0c1,0,2,0,4,0c77,0,142,39,193,119c53,79,78,217,78,408c0,185,-23,313,-72,385c-48,70,-112,107,-190,108C874,1108,805,1065,743,982C681,897,651,778,651,622c0,-179,33,-321,98,-423C795,127,856,89,932,89Zm9,-148C717,-59,538,21,406,183C254,373,177,633,177,963c0,372,93,675,278,904c165,203,368,306,611,306c156,0,280,-40,375,-117c94,-78,140,-166,140,-267c0,-75,-21,-136,-67,-182c-44,-47,-101,-70,-168,-70c-60,0,-108,18,-148,60c-40,39,-60,90,-60,151c0,44,14,87,37,131c15,25,23,46,23,63c0,23,-11,43,-34,59c-23,16,-55,23,-101,25C932,2024,834,1954,768,1813C686,1639,648,1403,651,1100c66,72,136,125,208,160c71,36,146,55,224,55c148,0,280,-53,397,-157c118,-104,176,-260,176,-467c0,-227,-66,-408,-198,-544C1326,8,1153,-59,941,-59Z" 
id="f0_a"
transform="scale(4.8828125E-4,-4.8828125E-4)" />

<path d="M8,0L681,2261H880L205,0Z" 
id="f1_8"
transform="scale(4.8828125E-4,-4.8828125E-4)" />

<path d="M354,0V148H581c3,0,6,0,9,0c52,0,91,12,113,35c24,25,36,66,36,124V1688c0,31,-9,57,-30,74c-20,16,-49,26,-90,27H296v148c161,9,295,28,404,58c110,29,221,74,334,133h119V261c0,-36,10,-65,31,-85c18,-19,45,-28,77,-28c2,0,5,0,7,0h284V0Z" 
id="f0_5"
transform="scale(4.8828125E-4,-4.8828125E-4)" />

<path d="M118,0V148H319c3,0,6,0,9,0c41,0,72,11,95,34c25,23,35,55,35,95V2006c0,37,-10,64,-35,81c-24,17,-67,26,-128,27H118v147H2099l44,-797H2011c-33,184,-74,319,-123,403c-47,81,-111,144,-191,185c-78,41,-181,61,-310,62H1071c-49,-1,-84,-10,-107,-29c-21,-18,-32,-44,-32,-76V1242h107c2,0,5,0,8,0c120,0,213,35,281,104c68,69,108,182,120,339h133V620H1448c-9,173,-49,295,-117,367c-68,70,-173,105,-310,107H932V258c0,-36,11,-62,32,-78c32,-21,75,-32,131,-32c4,0,7,0,11,0h277c2,0,4,0,7,0c186,0,338,58,456,176c120,116,195,295,224,533h133L2173,0Z" 
id="f0_f"
transform="scale(4.8828125E-4,-4.8828125E-4)" />

<path d="M1291,1153c92,0,174,20,246,62c75,39,128,90,160,149c32,58,48,155,48,286c0,180,-49,307,-147,383c-70,52,-192,80,-365,81c-98,-1,-160,-9,-188,-26c-26,-16,-40,-45,-40,-85V1153h275c4,0,7,0,11,0ZM193,0V148H394c3,0,6,0,9,0c41,0,74,11,95,32c23,22,34,54,34,95V1989c0,37,-11,67,-35,90c-23,23,-52,34,-86,35H193v147H1506c223,0,402,-61,538,-182c136,-120,203,-267,203,-441c0,-135,-39,-251,-117,-349c-78,-100,-184,-172,-317,-218c-127,-43,-254,-66,-380,-66c-4,0,-8,0,-12,0H1005V275c0,-41,13,-73,35,-95c23,-21,50,-32,84,-32c2,0,4,0,7,0h259V0Z" 
id="f0_i"
transform="scale(4.8828125E-4,-4.8828125E-4)" />

<path d="M420,-59c-70,0,-131,26,-182,74C188,66,162,127,162,200c0,70,26,130,76,182c51,49,112,75,182,76c72,-1,133,-27,185,-76c50,-52,75,-112,75,-182C680,127,655,66,605,15C553,-33,492,-59,420,-59Z" 
id="f0_3"
transform="scale(4.8828125E-4,-4.8828125E-4)" />

<path d="M532,0V148H781c2,0,4,0,7,0c33,0,61,11,81,31c23,20,32,47,32,82V1995c0,40,-9,69,-32,89c-21,18,-55,29,-101,30C513,2113,342,1876,252,1404H118l44,857H2114l45,-857H2026c-34,182,-75,324,-127,426c-50,101,-110,174,-176,219c-65,43,-137,64,-217,65c-45,-1,-79,-10,-100,-29c-20,-19,-31,-45,-31,-81V261c0,-33,11,-61,32,-82c20,-20,43,-31,71,-31c2,0,4,0,5,0h262V0Z" 
id="f0_l"
transform="scale(4.8828125E-4,-4.8828125E-4)" />

<path d="M1296,89c3,0,6,0,9,0c1,0,3,0,5,0c185,0,333,79,444,235c113,157,168,432,168,825c0,272,-24,477,-72,614c-49,138,-121,240,-215,309c-95,65,-207,101,-332,101c-124,0,-232,-36,-324,-101C888,2003,814,1894,761,1745C707,1593,680,1389,680,1128c0,-275,24,-485,75,-624C805,361,877,257,972,189C1066,122,1173,89,1296,89Zm-2,-148C1077,-59,880,-7,707,95C535,199,397,338,298,515C197,691,148,894,148,1128c0,345,110,629,329,855c220,225,492,336,814,338c214,-2,411,-52,591,-156c181,-104,321,-246,422,-425c101,-179,150,-380,150,-605C2454,793,2344,509,2122,281C1899,53,1624,-59,1294,-59Z" 
id="f0_h"
transform="scale(4.8828125E-4,-4.8828125E-4)" />

<path d="M177,0V118H405c46,0,78,9,98,29c20,18,29,49,29,91V2030c0,40,-9,69,-31,86c-20,17,-55,26,-107,27H177v118H2011l29,-782H1922c-46,266,-112,441,-196,522c-96,95,-232,141,-409,142H958c-35,-1,-60,-9,-76,-25c-16,-17,-25,-42,-25,-74V1242h196c2,0,4,0,6,0c107,0,192,37,255,109c64,71,99,183,105,334h104V651H1419c-7,168,-42,290,-105,362c-63,73,-150,110,-261,110H857V258c0,-52,14,-88,37,-110c24,-21,67,-30,127,-30h235V0Z" 
id="f1_q"
transform="scale(4.8828125E-4,-4.8828125E-4)" />

<path d="M784,60c117,0,215,53,287,157c75,105,112,280,112,522c0,224,-36,384,-110,485c-74,101,-172,149,-294,151C665,1373,570,1322,495,1216C422,1111,385,947,385,721C385,490,422,322,495,217C567,113,660,60,774,60c2,0,4,0,5,0c2,0,3,0,5,0ZM770,-43C585,-43,426,24,298,167C168,307,104,490,104,717c0,224,66,407,194,548c131,141,290,212,481,214c194,-2,356,-72,488,-211c131,-140,197,-324,197,-551c0,-158,-29,-292,-89,-402C1317,203,1233,116,1123,52C1014,-11,897,-43,770,-43Z" 
id="f1_1p"
transform="scale(4.8828125E-4,-4.8828125E-4)" />

<path d="M104,0V118H241c48,0,83,9,107,27c25,18,37,41,37,69v903c0,67,-14,117,-43,150c-27,32,-67,48,-120,48H104v120l503,29V889c55,193,120,339,197,440c78,98,172,148,287,150c76,-2,139,-26,185,-73c46,-49,70,-115,70,-194c0,-66,-15,-117,-46,-153c-29,-36,-66,-54,-111,-54c-1,0,-3,0,-5,0c-2,0,-4,0,-5,0c-42,0,-76,17,-102,46c-29,31,-43,73,-43,127c0,34,6,66,16,98c10,24,15,41,15,47c0,15,-9,21,-28,23c-39,-2,-85,-26,-137,-73C830,1202,776,1108,738,987C680,799,651,649,651,536V226c0,-35,12,-63,38,-81c26,-18,67,-27,128,-27h188V0Z" 
id="f1_1s"
transform="scale(4.8828125E-4,-4.8828125E-4)" />

<path d="M706,-14C587,-14,493,17,426,81C359,147,325,231,325,338v962H73v101c118,18,207,67,268,144c90,113,139,273,146,481H591V1435h459V1300H591V368c0,-82,20,-143,57,-186c36,-43,84,-64,140,-64c69,0,129,33,176,99c49,66,78,176,86,330h103C1147,356,1103,214,1022,122C941,31,836,-14,706,-14Z" 
id="f1_1u"
transform="scale(4.8828125E-4,-4.8828125E-4)" />

<path d="M104,0V118h87c60,0,102,10,127,33c24,23,36,58,36,107V1962c0,59,-15,105,-48,136c-33,29,-80,44,-141,45H60v118l560,31V1186c75,96,156,169,242,218c85,49,175,73,270,75c92,-2,174,-25,246,-66c57,-36,104,-98,144,-183c41,-87,59,-190,59,-307V243c0,-44,12,-76,34,-96c21,-20,55,-29,99,-29h119V0H1065V118h82c65,0,109,9,133,30c23,22,35,52,35,95V923c0,117,-27,209,-82,278c-57,66,-128,99,-215,99c-68,0,-130,-20,-188,-56C772,1205,723,1147,681,1071C642,995,620,914,620,828V258c0,-52,13,-88,32,-108c20,-23,55,-32,103,-32H872V0Z" 
id="f1_1i"
transform="scale(4.8828125E-4,-4.8828125E-4)" />

<path d="M1060,798c40,0,71,12,92,38c20,24,31,67,31,130c0,113,-36,209,-109,288c-73,80,-159,119,-258,121C704,1373,611,1326,535,1230C457,1134,417,990,414,798ZM816,-43C623,-43,461,24,330,163C199,303,133,480,133,698c0,231,66,420,195,564c132,144,292,215,483,217c141,-2,263,-38,364,-110c102,-73,180,-179,231,-313c36,-97,56,-217,58,-361H414C420,478,461,325,539,238C627,139,739,89,874,89c2,0,4,0,6,0c1,0,3,0,4,0c201,0,363,114,486,340l94,-44C1314,98,1098,-43,816,-43Z" 
id="f1_1f"
transform="scale(4.8828125E-4,-4.8828125E-4)" />

<path d="M73,0V118H194c55,0,93,9,113,27c23,17,34,46,34,86V1300H89v135H341v102c0,254,53,448,160,582c107,133,238,200,396,202c119,-2,211,-29,275,-86c67,-58,99,-133,99,-223c0,-61,-15,-108,-46,-144c-30,-35,-68,-50,-117,-50c-43,0,-78,12,-106,40c-27,27,-41,62,-41,104c0,47,17,85,49,117c27,23,40,42,40,55c0,17,-11,31,-34,46c-23,14,-57,22,-102,23c-87,-1,-159,-40,-219,-116c-59,-76,-88,-189,-88,-339V1435H961V1300H607V257c0,-49,10,-83,33,-101c29,-26,72,-38,127,-38H961V0Z" 
id="f1_1g"
transform="scale(4.8828125E-4,-4.8828125E-4)" />

<path d="M89,0V118H248c47,0,80,9,103,32c22,20,34,52,34,93v875c0,54,-17,97,-49,124c-33,28,-81,43,-145,44H73v118l578,31V218c0,-33,9,-58,26,-70c26,-21,56,-30,95,-30H946V0ZM474,1922c-43,0,-81,17,-113,47c-33,31,-51,71,-51,115c0,41,18,79,52,113c34,32,73,49,118,50c46,-1,85,-18,119,-50c35,-34,52,-72,52,-116c0,-44,-17,-81,-51,-112c-32,-30,-70,-47,-114,-47c-2,0,-4,0,-6,0c-2,0,-4,0,-6,0Z" 
id="f1_1j"
transform="scale(4.8828125E-4,-4.8828125E-4)" />

<path d="M784,-43C642,-43,509,2,387,96L275,-28H193L162,532H266C332,353,406,229,489,160C571,93,672,60,791,60c3,0,5,0,8,0c3,0,7,0,10,0c110,0,193,24,253,71c61,49,91,113,91,190c0,43,-12,79,-33,113c-23,32,-54,56,-92,73c-40,16,-142,40,-307,72C564,611,454,643,391,678C328,712,280,759,244,820c-35,60,-51,126,-51,198c0,106,35,204,105,293c90,111,217,166,380,168c126,-2,240,-52,346,-154l100,110h63l40,-518H1123c-44,160,-105,278,-180,350c-77,71,-170,106,-280,108c-96,-2,-171,-27,-226,-79c-55,-51,-83,-115,-83,-187c0,-67,26,-122,75,-163C480,900,579,866,726,842c172,-29,284,-54,336,-74c81,-30,143,-76,188,-139c44,-62,65,-140,65,-229C1315,275,1267,170,1166,84C1066,-1,938,-43,784,-43Z" 
id="f1_1t"
transform="scale(4.8828125E-4,-4.8828125E-4)" />

<path d="M781,118c111,0,206,52,284,159c79,105,118,261,118,466c0,192,-42,343,-127,455c-72,98,-162,146,-271,146c-108,0,-195,-45,-259,-136C461,1118,429,966,429,752c0,-234,32,-398,98,-492C593,165,677,118,781,118ZM726,-14C565,-14,429,52,316,188C205,324,148,504,148,729c0,241,72,434,216,579c113,113,243,169,389,171c90,-2,171,-26,243,-72c72,-47,135,-118,187,-211v808c0,42,-16,75,-48,101c-32,25,-82,37,-150,38H888v118l560,31V330c0,-76,17,-131,48,-163c32,-34,79,-49,140,-49h109V0H1227l-44,292C1126,188,1059,112,982,61C906,9,820,-14,726,-14Z" 
id="f1_1e"
transform="scale(4.8828125E-4,-4.8828125E-4)" />

<path d="M133,0V118H249c44,0,78,9,101,30c23,19,35,45,35,78v926c0,50,-14,89,-40,113c-26,26,-76,43,-152,50v120l414,29c21,-104,36,-202,44,-294c75,112,151,191,227,239c75,45,159,68,250,70c97,-2,178,-29,241,-80c63,-53,111,-139,145,-255c67,110,142,194,225,251c84,55,172,82,270,84c130,-2,228,-41,290,-119c84,-104,126,-237,126,-399V241c0,-44,12,-73,33,-88c32,-23,78,-35,139,-35h78V0H1907V118h76c64,0,110,9,136,30c26,22,40,52,40,93V963c0,106,-26,189,-75,249c-51,58,-116,88,-199,88c-61,0,-116,-18,-166,-52c-51,-35,-90,-85,-119,-148c-42,-92,-63,-171,-63,-234V241c0,-42,12,-74,37,-93c24,-21,61,-30,110,-30h105V0H1021V118h87c55,0,96,9,123,30c28,22,40,48,40,80V897c0,139,-23,243,-70,307c-48,64,-112,96,-193,96c-104,0,-183,-37,-240,-111C691,1083,651,959,651,820V241c0,-44,11,-74,30,-90c31,-23,78,-33,141,-33h79V0Z" 
id="f1_1n"
transform="scale(4.8828125E-4,-4.8828125E-4)" />

<path d="M652,60c2,0,4,0,6,0c2,0,4,0,6,0c119,0,224,45,311,137c90,92,134,208,134,348V753C846,717,660,658,550,576C469,513,429,426,429,313c0,-81,22,-143,63,-188C533,82,586,60,652,60ZM597,-43C451,-43,339,-13,263,49C186,112,148,193,148,292c0,148,87,270,263,368c174,98,408,163,698,197v226c0,80,-30,147,-93,205c-61,56,-139,85,-234,87c-87,-2,-163,-20,-227,-58c-45,-29,-68,-57,-68,-83c0,-16,13,-41,34,-74c27,-43,41,-81,41,-112c0,-49,-15,-87,-44,-116C489,903,453,888,407,888c-2,0,-4,0,-7,0c-2,0,-4,0,-6,0c-48,0,-88,16,-121,50c-33,35,-51,80,-51,135c0,100,58,192,172,278c115,84,264,126,451,128c173,-2,304,-40,394,-113c90,-77,136,-168,136,-275V295c0,-72,11,-124,32,-156c22,-34,48,-50,81,-50c2,0,3,0,5,0c1,0,3,0,5,0c38,0,78,15,118,44l54,-76C1595,-10,1513,-43,1421,-43c-70,0,-130,16,-177,51c-48,35,-91,99,-126,189C1022,99,937,35,863,3C788,-28,701,-43,597,-43Z" 
id="f1_1b"
transform="scale(4.8828125E-4,-4.8828125E-4)" />

<path d="M89,0V118H238c51,0,86,10,110,33c25,22,37,54,37,95V1983c0,49,-14,87,-40,112c-36,30,-81,47,-133,48H89v118l562,31V214c0,-29,7,-51,24,-66c26,-21,57,-30,93,-30H917V0Z" 
id="f1_1m"
transform="scale(4.8828125E-4,-4.8828125E-4)" />

<path d="M778,-43C579,-43,417,20,292,153C167,284,104,460,104,678c0,254,69,450,205,590c137,139,298,209,482,211c139,-2,254,-40,344,-115c92,-78,136,-162,136,-255c0,-56,-17,-102,-52,-139c-32,-35,-72,-53,-117,-53c-1,0,-3,0,-5,0c-2,0,-4,0,-6,0c-43,0,-81,16,-112,46c-30,30,-47,68,-47,113c0,42,17,85,49,126c17,19,24,34,24,46c0,28,-18,57,-56,84c-40,28,-92,41,-158,43C671,1373,579,1329,518,1238C429,1105,385,930,385,715C385,509,425,351,504,246C583,142,683,89,805,89c1,0,3,0,5,0c1,0,2,0,3,0c170,0,295,114,377,340l112,-30C1222,102,1047,-43,778,-43Z" 
id="f1_1d"
transform="scale(4.8828125E-4,-4.8828125E-4)" />

<path d="M1006,89c105,0,187,42,242,128c75,111,112,278,112,495c0,226,-34,388,-101,486c-66,98,-151,146,-257,146c-110,0,-203,-55,-281,-165C645,1069,607,911,607,704C607,493,643,338,717,238C790,139,883,89,996,89c1,0,3,0,5,0c2,0,3,0,5,0ZM89,-590v117H193c48,0,87,10,110,29c25,19,38,45,38,75V1121c0,68,-17,117,-51,147c-33,28,-101,44,-201,47v120l463,29c22,-103,36,-201,39,-294c71,112,144,190,220,237c78,46,162,70,252,72c98,-2,191,-32,280,-93c89,-61,159,-150,215,-268c55,-119,83,-252,83,-398c0,-237,-67,-431,-202,-579C1326,17,1193,-43,1037,-43c-88,0,-169,21,-241,67C726,69,662,138,607,229V-343c0,-44,10,-76,30,-93c28,-24,67,-37,115,-37H857V-590Z" 
id="f1_1q"
transform="scale(4.8828125E-4,-4.8828125E-4)" />

<path d="M118,0V118h99c50,0,89,9,115,30c24,19,38,45,38,75v909c0,58,-16,106,-48,136c-30,31,-76,47,-134,47H118v120l473,29c20,-89,35,-191,45,-307c62,105,137,186,223,239c87,54,184,81,293,83c93,-2,173,-21,235,-58c63,-38,115,-98,153,-179c38,-81,57,-173,57,-273V263c0,-54,12,-90,35,-112c23,-23,62,-33,116,-33h101V0H1079V118h71c68,0,115,9,141,32c26,21,40,53,40,96V863c0,133,-20,234,-60,300c-55,91,-137,137,-249,137c-110,0,-202,-47,-275,-139C672,1066,636,946,636,796V263c0,-54,12,-92,36,-112c23,-23,63,-33,116,-33H888V0Z" 
id="f1_1o"
transform="scale(4.8828125E-4,-4.8828125E-4)" />

<path d="M234,-502l-57,72c208,145,310,274,310,385c0,14,-1,26,-7,34C474,-4,466,0,455,0L422,-5c-19,-5,-35,-5,-46,-5C332,-10,292,6,258,43c-33,35,-52,79,-52,131c0,49,19,92,52,127c34,35,78,53,132,53c65,0,120,-26,165,-77C599,223,620,153,620,64C620,-132,492,-320,234,-502Z" 
id="f1_5"
transform="scale(4.8828125E-4,-4.8828125E-4)" />

<path d="M730,-43L232,1224c-15,35,-35,58,-55,70c-20,11,-55,18,-104,21v120H697V1315H614c-40,0,-70,-7,-87,-18c-17,-12,-26,-27,-26,-46c0,-21,5,-44,15,-65L836,373l278,768c-34,84,-66,136,-96,152c-30,15,-81,22,-156,22v120h687V1315h-58c-52,0,-88,-7,-108,-19c-22,-13,-31,-31,-31,-51c0,-20,5,-38,14,-59L1693,373l260,722c18,45,25,83,25,117c0,30,-12,53,-39,73c-26,15,-77,27,-150,30v120h558V1315c-69,-10,-123,-32,-158,-61c-35,-32,-65,-78,-90,-139L1681,-43h-91L1189,955L825,-43Z" 
id="f1_1x"
transform="scale(4.8828125E-4,-4.8828125E-4)" />

<path d="M801,-502c175,0,308,29,397,86c88,58,133,121,133,191c0,41,-14,79,-42,116c-27,35,-71,63,-132,81C1097,-10,1008,0,892,0C704,0,570,-25,490,-77C411,-129,370,-190,370,-262c0,-69,30,-122,90,-162c79,-52,194,-78,341,-78Zm4,1108c87,0,160,34,217,100c58,67,87,163,87,290c0,115,-30,208,-88,277c-60,67,-133,100,-223,102c-91,-2,-164,-35,-222,-99c-58,-66,-89,-158,-89,-274c0,-127,31,-224,89,-293C633,640,704,606,793,606c2,0,4,0,6,1c2,-1,4,-1,6,-1ZM764,-606c-220,0,-384,40,-491,121c-82,61,-125,132,-125,211c0,58,26,113,80,163c53,49,143,88,269,111C396,24,319,60,269,108c-51,49,-76,110,-76,182c0,66,21,124,64,174c41,49,114,91,220,129C387,639,319,695,275,762c-44,68,-69,144,-69,233c0,136,57,250,165,343c109,94,252,139,427,141c71,-2,140,-12,206,-31c67,-18,131,-47,194,-87c105,97,201,145,290,147c52,-2,96,-17,131,-47c36,-31,51,-69,51,-110c0,-37,-11,-66,-35,-91c-22,-21,-48,-33,-76,-33c-2,0,-4,0,-5,0c-1,0,-3,0,-4,0c-57,0,-96,35,-115,104c-10,29,-25,42,-45,44c-35,-2,-75,-24,-119,-70c46,-61,77,-115,93,-159c17,-46,26,-93,26,-144c0,-91,-21,-171,-64,-240C1283,694,1212,633,1112,581C1016,529,923,503,836,503c-3,0,-5,0,-8,0H662C544,501,466,489,426,464C390,437,370,399,370,350c0,-43,15,-75,47,-96c31,-22,92,-32,177,-32l378,15c189,-2,327,-34,411,-96c84,-65,125,-151,125,-261c0,-122,-47,-226,-145,-308C1230,-547,1030,-606,764,-606Z" 
id="f1_1h"
transform="scale(4.8828125E-4,-4.8828125E-4)" />

<path d="M952,89c102,0,183,47,244,139c80,117,119,285,119,504c0,214,-33,370,-103,467c-71,97,-156,145,-262,145c-114,0,-207,-50,-281,-149C597,1094,562,929,562,700C562,480,597,324,668,229C738,136,830,89,942,89c2,0,3,0,5,0c2,0,3,0,5,0ZM325,-14L266,0c21,116,30,238,30,365V1983c0,49,-16,87,-50,118c-34,27,-81,41,-142,42H44v118l518,31V1228c60,83,127,145,199,187c73,41,153,62,238,64c168,-2,309,-67,425,-199c116,-131,173,-304,173,-518c0,-233,-62,-421,-187,-563C1285,55,1131,-14,946,-14C859,-14,779,2,707,37C637,72,564,131,487,215C431,121,377,44,325,-14Z" 
id="f1_1c"
transform="scale(4.8828125E-4,-4.8828125E-4)" />

<path d="M445,-43c-52,0,-98,16,-136,52C270,44,252,87,252,139c0,52,18,95,55,131c38,36,84,54,138,55c53,-1,99,-19,136,-55c36,-35,55,-79,55,-129C636,89,617,44,581,9C544,-27,498,-43,445,-43Zm6,1152c-2,0,-4,0,-6,0c-2,0,-5,0,-7,0c-50,0,-94,18,-131,54c-37,35,-55,79,-55,131c0,49,18,92,55,128c38,37,84,55,136,57c54,-2,101,-20,138,-55c36,-37,55,-80,55,-130c0,-53,-17,-98,-55,-133c-36,-34,-78,-52,-130,-52Z" 
id="f1_j"
transform="scale(4.8828125E-4,-4.8828125E-4)" />

<path d="M1259,-43C1071,-43,898,2,741,96C584,189,457,324,364,501C269,678,222,872,222,1083c0,225,48,434,146,631c96,196,220,344,371,443c153,98,317,148,491,148c98,0,192,-16,284,-48c90,-33,191,-89,298,-170l95,218h119l44,-915H1951c-66,255,-151,445,-252,569c-127,151,-277,227,-452,229c-190,-2,-344,-86,-463,-254C666,1763,607,1479,607,1076C607,735,674,477,811,299C929,148,1092,73,1303,73c185,0,339,58,463,176c125,118,206,296,245,535h103C2082,516,1991,312,1836,170C1684,26,1493,-43,1259,-43Z" 
id="f1_n"
transform="scale(4.8828125E-4,-4.8828125E-4)" />

<path d="M148,0V81L597,590c252,270,402,440,451,512c73,97,127,194,159,287c34,93,49,179,49,255c0,125,-34,224,-104,298c-69,72,-165,108,-290,110C723,2050,608,2017,521,1949C434,1881,388,1810,388,1736c0,-28,8,-48,20,-58c12,-16,40,-28,81,-37c105,-25,157,-87,157,-183c0,-54,-17,-98,-52,-132c-33,-34,-77,-50,-129,-50c-2,0,-4,0,-7,0c-1,0,-3,0,-4,0c-61,0,-114,29,-161,84c-47,56,-71,133,-71,227c0,103,27,197,79,283c53,84,134,153,243,209c108,54,224,81,348,83c122,-2,237,-28,342,-81c107,-54,185,-124,239,-209c53,-88,79,-181,79,-283c0,-72,-12,-144,-39,-214c-26,-75,-66,-142,-118,-205C1308,1060,1218,967,1124,891L720,550C617,461,542,390,495,330c-45,-60,174,-90,655,-90c12,0,24,0,36,0c2,0,5,0,8,0c72,0,124,20,155,58c32,40,69,150,112,330h110L1517,0Z" 
id="f2_5"
transform="scale(4.8828125E-4,-4.8828125E-4)" />

<path d="M148,0V118H332c32,0,58,6,76,20c20,13,34,32,43,56c4,15,7,58,7,130V1951c0,84,-9,137,-27,159c-18,21,-60,32,-124,33H148v118h961V2143H932c-61,-1,-102,-12,-121,-33c-18,-22,-27,-75,-27,-159V1256H1818v695c0,87,-9,141,-27,160c-19,22,-62,31,-130,32H1493v118h976V2143H2290c-44,-1,-75,-6,-93,-18c-18,-11,-34,-30,-44,-56c-6,-19,-10,-65,-10,-136V312c0,-80,7,-127,20,-142c28,-36,77,-52,149,-52h157V0H1493V118h168c68,0,113,16,137,53c14,18,20,70,20,153v785H784V312c0,-80,6,-129,17,-144c26,-34,70,-50,131,-50h177V0Z" 
id="f1_s"
transform="scale(4.8828125E-4,-4.8828125E-4)" />

<path d="M796,-36C620,-36,478,11,368,110C258,208,203,325,203,463c0,81,17,145,52,189c35,45,80,68,136,69c52,-1,96,-20,132,-55c33,-35,50,-82,50,-137c0,-45,-9,-78,-28,-101C527,403,493,383,443,368C396,350,370,330,370,310c0,-33,17,-69,46,-107c32,-40,77,-70,140,-93C617,84,689,73,770,73c159,0,278,48,362,147c83,96,124,255,124,477c0,198,-41,345,-125,438c-84,93,-191,139,-323,141c-58,-2,-117,-16,-177,-40C571,1208,513,1170,452,1120c-6,-72,-20,-119,-41,-144C392,955,368,943,338,943c-1,0,-3,0,-5,0c-2,0,-4,-1,-6,-1c-20,0,-35,8,-47,21c-14,13,-22,33,-22,61c0,42,22,87,63,131c12,11,23,24,27,35l35,449c14,176,22,350,22,523c249,-61,453,-92,613,-92c4,0,8,0,12,0c7,0,15,0,23,0c67,0,130,6,191,17c67,11,117,26,149,44c17,8,29,11,34,12c9,-1,14,-9,14,-22c0,-37,-22,-84,-66,-141c-44,-58,-105,-104,-183,-137c-74,-34,-158,-51,-254,-51c-4,0,-8,0,-12,0c-4,0,-9,0,-13,0c-113,0,-247,20,-403,55L464,1268c77,38,149,67,217,87c69,20,135,29,197,31c196,-2,360,-68,492,-199c135,-131,201,-295,201,-486c0,-217,-72,-392,-216,-531C1212,31,1025,-36,796,-36Z" 
id="f2_8"
transform="scale(4.8828125E-4,-4.8828125E-4)" />

<path d="M993,-606C830,-460,706,-338,622,-236C486,-72,382,99,312,280C241,461,206,651,206,848c0,194,34,377,100,553c65,174,163,342,290,501c88,109,221,243,397,403l41,-84C886,2067,776,1930,704,1806C634,1681,581,1540,544,1383C506,1225,487,1043,487,839c0,-200,20,-378,58,-532C585,151,642,8,715,-118c73,-130,179,-266,319,-408l-41,-80Z" 
id="f1_3"
transform="scale(4.8828125E-4,-4.8828125E-4)" />

<path d="M70,-606l-41,80c141,142,246,278,321,406C423,8,480,151,518,307c40,154,58,332,58,530c0,206,-18,388,-55,546c-38,157,-93,298,-165,423C287,1930,177,2069,29,2221l41,84C249,2143,379,2012,461,1913C590,1754,689,1586,756,1409C823,1230,857,1043,857,848C857,654,825,471,759,301C695,128,597,-39,466,-204C373,-320,241,-454,70,-606Z" 
id="f1_4"
transform="scale(4.8828125E-4,-4.8828125E-4)" />

<path d="M1974,-48c58,135,119,251,180,347c63,95,161,220,297,378H113V822H2451c-146,165,-248,295,-306,385c-58,92,-115,205,-171,341h122c121,-147,269,-297,448,-445C2721,952,2863,848,2967,790V706C2831,629,2683,521,2521,382C2359,241,2218,98,2096,-48Z" 
id="f3_2"
transform="scale(4.8828125E-4,-4.8828125E-4)" />

<path d="M1016,646V1694L275,646ZM703,0V112H860c3,-1,7,-1,10,-1c49,0,85,11,108,33c26,19,38,52,38,96V536H148V652L1176,2107h100V646h350V536H1276V214c0,-31,10,-52,33,-69c30,-23,66,-34,105,-34c3,0,6,0,8,1h130V0Z" 
id="f2_7"
transform="scale(4.8828125E-4,-4.8828125E-4)" />

<path d="M1479,0V842H651v179h828v841h177V1021h828V842H1656V0Z" 
id="f4_3"
transform="scale(4.8828125E-4,-4.8828125E-4)" />

<path d="M532,0V118H784c33,0,59,7,76,26c18,16,28,38,28,67V2026c0,38,-13,67,-35,87c-25,20,-63,29,-115,30C590,2142,468,2075,368,1937C287,1824,228,1647,193,1404H73l52,857H1975l51,-857H1907c-69,492,-249,738,-541,739c-60,-1,-99,-10,-121,-32c-21,-19,-33,-53,-33,-97V223c0,-37,12,-63,32,-79c19,-19,55,-26,102,-26h222V0Z" 
id="f1_12"
transform="scale(4.8828125E-4,-4.8828125E-4)" />

<path d="M788,-14C663,-14,556,28,471,115C383,200,341,345,341,550v622c0,53,-22,95,-66,124c-31,19,-92,30,-186,35v117l518,16V523c0,-117,27,-205,84,-268c56,-62,128,-93,217,-93c108,0,201,44,279,136c76,92,115,206,115,344v530c0,49,-17,85,-52,113c-35,26,-103,41,-200,46v117l518,16V286c0,-55,13,-97,42,-126c29,-29,71,-42,123,-42h85V0L1331,-14l-29,312C1216,193,1132,115,1048,63C963,11,877,-14,788,-14Z" 
id="f1_1v"
transform="scale(4.8828125E-4,-4.8828125E-4)" />

<path d="M883,60c132,0,233,61,304,183c86,147,128,412,128,800c0,402,-39,670,-119,807c-81,136,-188,203,-321,205C739,2053,634,1989,558,1859C483,1729,443,1462,443,1056C443,655,483,391,562,258C639,127,743,60,874,60c2,0,3,0,4,0c2,0,4,0,5,0ZM880,-43C686,-43,523,34,391,193C229,390,148,677,148,1053c0,356,78,640,231,851c124,168,286,253,489,255c200,-2,365,-80,496,-234c165,-191,248,-480,248,-866c0,-361,-72,-634,-216,-822C1254,47,1082,-43,880,-43Z" 
id="f1_9"
transform="scale(4.8828125E-4,-4.8828125E-4)" />

<path d="M443,-43c-52,0,-98,16,-136,52C270,44,252,89,252,141c0,50,18,93,55,129c38,36,84,54,138,55c53,-1,99,-19,136,-55c36,-36,55,-79,55,-129C636,89,617,44,581,9C544,-27,497,-43,443,-43Z" 
id="f1_7"
transform="scale(4.8828125E-4,-4.8828125E-4)" />

<path d="M848,-43C713,-43,597,-22,500,21C400,66,328,125,280,202c-48,76,-74,162,-74,258c0,76,20,137,57,182c38,44,84,67,142,67c52,0,93,-17,125,-51c31,-33,46,-77,46,-134c0,-37,-8,-69,-24,-93C535,405,506,382,464,361C422,338,399,316,399,295c0,-29,17,-63,47,-99c29,-39,75,-68,135,-89C640,84,717,73,807,73c157,0,275,39,351,118c75,76,113,202,113,374c0,179,-32,307,-96,385c-66,75,-161,113,-287,115c-34,-2,-77,-5,-129,-9c-32,-4,-59,-7,-77,-7c-4,0,-8,0,-11,1c-3,-1,-5,-1,-8,-1c-25,0,-46,8,-61,20c-17,14,-26,33,-26,54c0,23,9,41,24,53c16,14,42,20,77,22l85,-8l74,-7c3,-1,5,-1,8,-1c126,0,221,34,284,98c67,63,99,164,99,300c0,165,-31,284,-95,354c-63,70,-156,106,-283,106c-114,0,-204,-22,-273,-62C507,1939,474,1902,474,1868c0,-22,19,-51,61,-88c58,-52,85,-102,85,-156c0,-43,-13,-76,-46,-104c-29,-27,-66,-41,-111,-41c-3,0,-5,0,-8,0c-2,0,-4,0,-6,0c-49,0,-88,18,-119,55c-32,38,-49,92,-49,162c0,107,38,202,116,286c112,116,271,175,477,177c192,-2,347,-52,461,-155c115,-102,173,-227,173,-377c0,-108,-31,-203,-93,-281c-63,-79,-170,-148,-321,-208c144,-36,255,-96,334,-179C1531,853,1581,721,1581,567c0,-177,-61,-321,-185,-426C1256,17,1074,-43,848,-43Z" 
id="f1_c"
transform="scale(4.8828125E-4,-4.8828125E-4)" />

<path d="M802,-43C626,-43,483,5,373,105C263,205,206,324,206,463c0,82,19,147,54,192c35,45,79,68,134,69c54,-1,98,-20,132,-55c35,-36,50,-85,50,-142c0,-44,-8,-79,-26,-104C533,399,501,377,454,362C408,344,385,324,385,303c0,-34,15,-71,46,-110c30,-40,78,-72,140,-97C631,72,697,59,772,59c4,0,9,0,13,1c3,0,5,0,7,0c154,0,273,48,355,145c83,96,124,255,124,475c0,198,-43,345,-128,437c-86,93,-196,139,-329,139c-59,0,-120,-11,-181,-34c-60,-21,-120,-55,-181,-98c-7,-71,-21,-120,-41,-143C391,956,367,946,338,946c-22,0,-40,6,-52,21c-14,14,-20,34,-20,60c0,44,21,87,62,131c13,14,20,25,26,35l36,452c13,176,21,347,21,514c254,-69,463,-104,625,-104c4,0,7,0,11,0c6,0,12,0,19,0c69,0,134,7,196,21c69,16,119,32,151,52c19,9,31,14,35,15c11,-1,16,-7,16,-22c0,-37,-23,-84,-69,-143c-46,-58,-109,-105,-188,-139c-76,-33,-162,-50,-261,-50c-4,0,-8,0,-13,0c-4,0,-8,0,-12,0c-115,0,-253,20,-412,58L463,1273c78,38,151,67,220,87c70,18,136,29,197,30c199,-1,365,-68,500,-200c134,-133,201,-296,201,-490c0,-219,-72,-397,-217,-535C1221,24,1033,-43,802,-43Z" 
id="f1_e"
transform="scale(4.8828125E-4,-4.8828125E-4)" />

<path d="M1959,-59c-42,135,-83,267,-126,392C1757,206,1668,113,1563,50C1459,-11,1341,-43,1207,-43C1019,-43,845,3,684,101C523,199,396,336,303,515C209,692,162,892,162,1118c0,225,47,427,141,605c93,178,221,320,383,425c163,104,327,157,492,157c95,0,185,-16,270,-48c87,-33,184,-92,292,-178l138,226h117l45,-915H1922c-75,262,-164,453,-266,572c-130,149,-278,224,-446,226c-128,-2,-244,-38,-347,-112C761,2001,683,1890,628,1742C574,1593,547,1384,547,1117c0,-263,27,-468,82,-614C684,354,759,246,856,177C952,107,1065,73,1193,73c176,0,312,49,408,150c96,101,144,229,144,388V825c0,34,-14,60,-40,78c-26,18,-67,27,-125,29H1390v118h961V932H2224c-55,-2,-94,-12,-119,-32c-23,-20,-35,-49,-35,-86V-59Z" 
id="f1_r"
transform="scale(4.8828125E-4,-4.8828125E-4)" />

<path d="M799,-43L241,1207c-19,44,-44,75,-74,93c-29,18,-74,29,-138,31v104H739V1331c-94,-5,-155,-13,-181,-28c-26,-14,-40,-35,-40,-62c0,-25,5,-48,14,-69L909,325l359,819c5,14,8,28,8,45c0,74,-75,120,-226,142v104h591V1331c-60,-8,-109,-25,-144,-51c-35,-27,-62,-64,-81,-108L883,-43Z" 
id="f1_1w"
transform="scale(4.8828125E-4,-4.8828125E-4)" />

<path d="M148,0V84L591,594c248,269,396,440,446,512c72,98,124,194,156,287c34,92,49,178,49,255c0,126,-35,225,-104,298c-69,72,-165,107,-285,109C715,2053,602,2020,515,1953C428,1884,385,1812,385,1736c0,-26,6,-46,18,-58c14,-16,40,-28,80,-37c102,-26,153,-87,153,-185c0,-55,-17,-99,-52,-133c-33,-34,-75,-52,-126,-52c-2,0,-4,0,-6,0c-1,0,-3,0,-4,0c-60,0,-112,29,-156,86c-48,58,-70,133,-70,226c0,104,27,197,81,284c53,84,132,154,241,209c108,54,224,81,348,83c124,-2,239,-28,344,-81c105,-54,185,-122,237,-208c53,-86,79,-179,79,-280c0,-70,-12,-142,-39,-213c-26,-72,-65,-139,-117,-202C1309,1065,1219,972,1126,897L721,558C620,472,545,400,500,341c-48,-61,183,-90,689,-90c78,0,131,19,163,59c34,38,70,147,112,326h104L1519,0Z" 
id="f1_b"
transform="scale(4.8828125E-4,-4.8828125E-4)" />

<path d="M651,576V753H2484V576Zm0,547v177H2484V1123Z" 
id="f4_6"
transform="scale(4.8828125E-4,-4.8828125E-4)" />

<path d="M414,0V118H660c52,0,92,12,116,36c25,25,37,57,37,100V1684c0,29,-11,53,-34,73c-23,21,-53,31,-90,32H354v118c158,20,286,49,382,84c98,35,184,81,259,137h70V215c0,-29,9,-50,30,-65c31,-23,68,-32,110,-32h303V0Z" 
id="f1_a"
transform="scale(4.8828125E-4,-4.8828125E-4)" />

<path d="M1021,665V1702L275,665ZM709,0V118H866c54,0,92,10,116,33c26,22,39,54,39,98V547H148V684L1184,2128h102V665h355V547H1286V222c0,-29,13,-52,34,-69c34,-23,72,-35,115,-35h133V0Z" 
id="f1_d"
transform="scale(4.8828125E-4,-4.8828125E-4)" />

<path d="M892,-43c-52,0,-93,16,-124,51C739,41,724,96,724,173c0,65,12,148,37,249c23,101,79,250,163,449c115,266,213,477,297,629l215,391H590c-63,0,-109,-21,-139,-64C420,1784,382,1658,341,1448H237l104,725c101,-31,212,-45,330,-45h970v-70C1500,1810,1395,1601,1325,1432C1254,1260,1201,1097,1166,943C1129,787,1105,605,1094,399C1083,228,1073,121,1063,81c-9,-40,-27,-72,-56,-92C976,-33,938,-43,892,-43Z" 
id="f1_g"
transform="scale(4.8828125E-4,-4.8828125E-4)" />

<path d="M945,60c120,0,216,45,288,136c75,90,113,226,113,409c0,193,-35,332,-104,417c-67,87,-163,130,-286,131C828,1152,723,1105,640,1013C559,920,518,788,518,622C518,438,558,299,637,203C715,108,814,60,934,60c2,0,4,0,6,0c2,0,4,0,5,0ZM932,-43C790,-43,665,-7,553,67C443,141,353,258,283,417C212,576,177,762,177,975c0,227,45,435,130,623c86,186,196,325,329,420c134,92,273,139,420,141c149,-2,276,-43,380,-124c87,-69,132,-148,132,-240c0,-64,-19,-116,-57,-154c-37,-41,-81,-60,-136,-60c-49,0,-90,17,-125,52c-35,32,-52,74,-52,121c0,30,9,66,30,107c19,35,28,64,28,85c0,28,-14,52,-41,72c-37,23,-87,35,-153,37c-98,-2,-188,-32,-271,-95C709,1898,640,1791,584,1639C527,1488,498,1317,498,1129c0,-27,2,-69,5,-124c79,104,163,181,252,226c87,46,183,69,287,69c170,0,313,-58,428,-172c114,-115,171,-260,171,-436c0,-212,-67,-388,-205,-527C1302,24,1132,-43,932,-43Z" 
id="f1_f"
transform="scale(4.8828125E-4,-4.8828125E-4)" />

<path d="M946,695v882L315,695ZM636,0V133H785c4,0,7,0,10,0c54,0,91,12,109,37c28,29,42,76,42,140V532H162V706L1213,2173h147V695h310V532H1360V263c0,-45,13,-77,36,-98c25,-21,60,-32,107,-32c3,0,6,0,10,0h84V0Z" 
id="f0_8"
transform="scale(4.8828125E-4,-4.8828125E-4)" />

<path d="M455,0L275,110l6,1354H-4l-90,177H293c-62,69,-94,153,-94,249c0,30,7,67,24,108c14,40,37,78,67,116c29,39,69,71,121,97c50,24,112,38,183,38c103,-3,220,-34,350,-96c132,-66,246,-142,344,-230V1812c-99,82,-205,150,-312,203c-110,51,-204,78,-285,78C591,2090,512,2056,452,1991c-62,-64,-93,-133,-93,-203c0,-69,9,-117,28,-147H648l90,-177H455V0Z" 
id="f5_26"
transform="scale(4.8828125E-4,-4.8828125E-4)" />

<path d="M1118,0L937,110l6,755H539c-16,0,-30,0,-42,-2c-16,-3,-25,-14,-25,-27V671c-4,-43,-21,-66,-48,-66c-2,0,-4,0,-5,0c-1,0,-2,0,-2,0c-14,0,-32,17,-56,50c-25,29,-52,65,-81,106c-26,44,-49,82,-69,117c-22,34,-32,59,-32,72c0,32,14,57,43,72c27,12,82,18,163,18H943v424H-5l-90,177H1259l90,-177H1118V0Z" 
id="f5_1w"
transform="scale(4.8828125E-4,-4.8828125E-4)" />

<path d="M497,445c-17,0,-40,15,-69,45c-34,29,-69,63,-106,104c-36,39,-67,77,-91,113c-29,32,-45,54,-45,66c0,15,8,31,19,46c10,14,23,21,39,23H377v622H6l-91,177H920l91,-177H558V842h609V666H558V523c0,-54,-20,-78,-61,-78Z" 
id="f5_t"
transform="scale(4.8828125E-4,-4.8828125E-4)" />

<path d="M614,710c1,0,2,0,3,0c55,0,115,16,177,49c62,26,114,54,158,83v622H455V952C458,790,511,710,614,710ZM1129,0L946,110l10,513C935,610,900,596,851,582C801,564,753,555,707,555c-32,0,-71,10,-117,33c-46,23,-93,54,-142,92c-46,38,-86,81,-118,130c-35,47,-52,98,-52,149v505H-4l-90,177H1270l91,-177H1129V0Z" 
id="f5_1e"
transform="scale(4.8828125E-4,-4.8828125E-4)" />

<path d="M1146,-170C1082,-48,1014,90,941,246C899,230,856,222,813,222c-7,0,-14,1,-22,1C666,223,536,289,400,414C336,475,284,547,244,629c-44,78,-65,165,-65,260c-2,98,33,180,105,246c74,61,211,93,414,95H911v234H-5l-90,177H1250l90,-177H1089V1106c-3,-35,-23,-53,-61,-53c-142,0,-269,-5,-380,-13C541,1028,472,1011,442,990C377,940,345,863,345,764c0,-96,38,-179,115,-249C532,438,626,399,743,397c38,0,71,5,102,16c-43,56,-66,114,-69,171c0,21,8,42,23,64c12,15,32,23,63,23c13,0,35,-5,64,-13c27,-10,56,-24,88,-44c33,-18,60,-40,81,-64c22,-26,33,-52,33,-81c0,-26,-5,-55,-17,-89c-14,-36,-40,-64,-77,-85c29,-51,63,-115,101,-194c37,-80,73,-149,115,-212l-104,-59Z" 
id="f5_1o"
transform="scale(4.8828125E-4,-4.8828125E-4)" />

<path d="M431,0L249,110l6,1354H21l-89,177H570l90,-177H431V0Z" 
id="f5_25"
transform="scale(4.8828125E-4,-4.8828125E-4)" />

<path d="M-274,1578c-47,80,-99,161,-157,245c-57,82,-103,139,-135,168c-47,58,-104,90,-171,94c-15,-1,-40,-4,-69,-12c-29,-12,-58,-23,-88,-32c-14,20,-38,63,-74,130c-38,63,-58,104,-61,124c3,9,11,17,23,24c12,6,25,9,40,12c37,3,67,7,92,7c1,0,2,0,3,0c88,0,189,-60,305,-179c70,-78,142,-174,214,-292c75,-121,124,-203,147,-251l-69,-38Z" 
id="f5_2b"
transform="scale(4.8828125E-4,-4.8828125E-4)" />

<path d="M-77,1864l-203,203l200,200L122,2064L-77,1864Z" 
id="f5_16"
transform="scale(4.8828125E-4,-4.8828125E-4)" />

<path d="M510,588c121,2,265,74,433,216C889,886,834,944,778,979c-54,34,-126,51,-213,52c-59,-1,-117,-21,-171,-61C342,927,315,865,313,781c0,-58,20,-103,61,-138c34,-36,80,-55,136,-55ZM1118,0L933,110l13,460C892,532,839,500,787,472C735,446,677,432,613,432C493,434,391,480,309,570C225,655,180,762,179,888c0,20,6,49,17,85c9,34,24,69,48,104c25,37,62,69,110,96c45,23,103,35,176,35c40,0,83,-4,127,-9c44,-9,84,-29,119,-61c23,-17,46,-40,72,-67c26,-29,55,-72,85,-124h8v517H0l-89,177H1923l92,-177H1118V924c100,94,194,142,286,144c29,0,63,-8,101,-21c38,-20,75,-49,110,-88c35,-39,66,-90,90,-152c23,-63,34,-139,34,-226c0,-124,-52,-266,-158,-427L1422,299c54,74,100,149,135,230c32,76,49,146,49,207c0,49,-14,87,-43,117c-28,24,-64,36,-110,38c-40,-2,-87,-19,-147,-51C1247,804,1184,758,1118,701V0Z" 
id="f5_17"
transform="scale(4.8828125E-4,-4.8828125E-4)" />

<path d="M883,-22C668,208,478,423,313,626C255,700,218,755,202,791c-16,36,-23,60,-23,75c0,28,7,52,26,77c18,20,36,30,59,32c11,-2,25,-5,43,-9c17,-13,35,-25,54,-36c44,-30,76,-47,94,-48c2,-1,3,-1,4,-1c14,0,23,20,27,62c7,44,9,155,9,333c0,67,-5,130,-15,188H-2l-90,177H947l90,-177H677V924c0,-49,-11,-93,-35,-131C620,750,596,720,568,703C500,655,468,625,472,611c0,-8,18,-29,52,-64c34,-35,73,-79,122,-134C753,301,860,191,966,79L883,-22Z" 
id="f5_1x"
transform="scale(4.8828125E-4,-4.8828125E-4)" />

<path d="M619,1134c6,62,9,125,9,186c0,52,-8,99,-21,144c-17,39,-54,61,-114,64c-41,-3,-73,-22,-97,-55c-26,-34,-38,-70,-38,-112c1,-64,30,-116,90,-156c50,-42,108,-65,171,-71ZM1418,0L1234,113l5,573H776V526c-3,-36,-21,-54,-56,-54c-10,0,-32,14,-65,41c-36,23,-73,51,-111,84c-40,36,-75,69,-104,101c-32,32,-49,57,-49,75c0,15,8,31,22,46c10,14,24,21,41,23H597l8,180c-89,28,-162,58,-217,89c-60,32,-102,62,-133,94c-53,68,-78,132,-76,196c-2,61,17,119,55,176c35,56,99,85,189,88c2,0,4,0,6,0c89,0,170,-35,239,-104c71,-73,108,-200,108,-377V842h463v622H1005l-94,177h644l89,-177H1418V0Z" 
id="f5_1t"
transform="scale(4.8828125E-4,-4.8828125E-4)" />

<path d="M588,611c41,0,80,8,116,23c37,11,72,24,103,44c64,40,113,83,145,127L457,1315V811C458,683,503,616,588,611ZM996,892v572H438L996,892ZM1173,0L990,108l11,503C956,576,906,547,849,521C791,492,732,477,674,477c-67,0,-147,38,-240,117c-43,35,-78,78,-107,127c-32,46,-49,96,-49,153v590H2l-90,177H1314l90,-177H1173V0Z" 
id="f5_22"
transform="scale(4.8828125E-4,-4.8828125E-4)" />

<path d="M1118,0L933,113l13,885H620c-1,0,-3,0,-5,0C435,998,345,912,345,743c-1,-72,25,-155,77,-248C471,400,558,277,684,127L584,46C434,234,328,391,269,518C206,643,177,753,179,851c0,58,10,108,32,154c21,40,47,75,79,101c69,46,141,69,214,69H941v289H-2l-90,177H1257l92,-177H1118V0Z" 
id="f5_1m"
transform="scale(4.8828125E-4,-4.8828125E-4)" />

<path d="M464,0L283,110l6,1354H0l-89,177H328c-27,174,-74,299,-143,377c-73,74,-154,110,-239,112c-127,-5,-189,-103,-188,-295l-64,-25c-9,14,-23,40,-41,78c-17,37,-25,72,-28,106c3,96,34,174,95,230c56,52,130,80,217,81c240,0,399,-220,479,-664H654l92,-177H464V0Z" 
id="f5_27"
transform="scale(4.8828125E-4,-4.8828125E-4)" />

<path d="M1496,0L1311,112l6,886H866C937,927,993,862,1033,799c35,-61,52,-128,52,-203c-2,-89,-32,-154,-92,-197C937,354,878,331,817,331c-2,0,-4,0,-6,1c-2,-1,-5,-1,-7,-1c-77,0,-144,23,-205,68C536,440,478,495,426,565C327,706,238,865,163,1042l103,43C327,937,393,813,463,713c38,-55,85,-99,142,-134c53,-40,101,-58,145,-58c55,0,95,17,121,52c26,34,40,76,40,128c0,42,-11,83,-31,124c-21,37,-50,73,-84,107c-75,73,-151,131,-231,177l26,66h726v289H-11l-92,177H1635l91,-177H1496V0Z" 
id="f5_1d"
transform="scale(4.8828125E-4,-4.8828125E-4)" />

<path d="M1349,-364l-157,140c39,39,59,72,62,104c0,25,-26,55,-79,90L373,480c-63,44,-95,113,-95,206v778H-4l-90,177H1306l90,-177H1108V662c0,-86,-35,-129,-102,-129c-2,0,-4,0,-7,0c-5,0,-10,0,-15,0c-65,0,-136,9,-212,28L665,718c68,-8,126,-9,175,-9c4,0,8,0,12,0c50,0,75,20,75,59v696H455V665c0,-26,6,-51,17,-72c6,-25,14,-40,23,-48L1291,26c67,-43,112,-78,134,-104c17,-29,26,-59,26,-86c-1,-44,-36,-110,-102,-200Z" 
id="f5_15"
transform="scale(4.8828125E-4,-4.8828125E-4)" />

<path d="M454,-10L251,194L451,394L654,189L454,-10Zm0,827L251,1021l200,200L654,1018L454,817Z" 
id="f5_1r"
transform="scale(4.8828125E-4,-4.8828125E-4)" />

<path d="M706,555c-32,0,-72,10,-118,33c-46,23,-93,54,-140,92c-46,38,-86,81,-120,130c-33,47,-50,98,-50,149v505H-7l-91,177H761l92,-177H455V953C457,791,511,710,614,710c1,0,2,0,3,0c52,0,115,17,185,52c66,32,138,74,214,124V666C904,594,802,556,706,555Z" 
id="f5_q"
transform="scale(4.8828125E-4,-4.8828125E-4)" />

<path d="M759,134c-4,0,-8,0,-12,0C591,134,458,196,351,313C238,425,180,552,179,694c0,76,18,136,53,178c35,40,86,69,151,87c121,33,242,63,366,91c24,3,42,18,55,44c10,24,15,79,15,166c-2,110,-5,179,-9,204H-5l-90,177H1216l92,-177H988c5,-83,7,-204,8,-364c0,-75,-6,-125,-20,-153C959,920,933,903,897,892C804,865,678,834,521,804C406,782,348,709,345,584c0,-40,9,-77,28,-112c15,-34,36,-66,62,-93c56,-58,120,-89,191,-89c1,0,3,0,5,0c2,0,4,0,6,0c145,0,322,55,530,164l78,-170c-55,-33,-125,-66,-212,-98C951,153,858,134,759,134Z" 
id="f5_1g"
transform="scale(4.8828125E-4,-4.8828125E-4)" />

<path d="M619,634c140,0,211,76,211,234v596H457V801c1,-57,23,-100,61,-127c38,-28,72,-40,101,-40ZM709,500c-32,0,-72,10,-118,33c-46,23,-94,54,-143,93c-45,37,-84,80,-118,129c-35,49,-52,98,-52,148v561H-4l-90,177H1135l90,-177H1008V759C1007,681,976,620,918,574C863,524,793,500,709,500Z" 
id="f5_n"
transform="scale(4.8828125E-4,-4.8828125E-4)" />

<path d="M585,544c73,0,158,30,252,93c96,55,181,127,255,219c-45,47,-107,94,-181,139c-77,42,-156,67,-242,70C564,1062,483,1036,428,985C373,932,345,874,345,811C351,633,431,544,585,544ZM1274,0L1089,110l13,501C967,478,817,413,649,411c-1,0,-3,0,-4,0c-97,0,-196,46,-295,133c-51,40,-90,90,-122,151c-34,55,-49,118,-49,187c-2,90,29,171,93,246c35,35,79,64,134,85c55,18,123,28,199,29c9,-1,19,-1,29,-1c11,0,21,0,32,1c23,-1,46,-3,70,-6c52,-9,100,-28,144,-55c46,-28,86,-63,119,-105c34,-43,64,-84,90,-126h6v514H-2l-90,177H1413l92,-177H1274V0Z" 
id="f5_20"
transform="scale(4.8828125E-4,-4.8828125E-4)" />

<path d="M577,534c4,0,9,0,14,1c3,0,6,0,9,0c50,0,105,12,168,35L498,1013C468,996,435,964,403,918C365,871,345,817,345,758c3,-84,31,-142,83,-176c45,-32,95,-48,149,-48Zm279,83c97,51,148,121,152,208c-1,98,-29,168,-79,211c-49,38,-101,58,-154,58c-48,0,-84,-3,-110,-8c-26,-6,-52,-15,-80,-24L856,617ZM1296,0L1112,110l11,498h-8c-17,-23,-38,-46,-61,-69c-24,-24,-53,-49,-85,-70C906,423,820,400,709,400c-4,0,-7,0,-11,0C544,402,419,452,324,553C229,651,180,756,179,869c0,40,9,81,29,124c20,41,47,81,87,118c79,76,200,117,362,119c105,0,194,-25,266,-72c70,-55,133,-124,189,-209h6v515H-8l-92,177H1436l90,-177H1296V0Z" 
id="f5_1s"
transform="scale(4.8828125E-4,-4.8828125E-4)" />

<path d="M-943,-10l-138,122l807,560V519L-943,-10Z" 
id="f5_2h"
transform="scale(4.8828125E-4,-4.8828125E-4)" />

<path d="M882,112c-75,0,-150,19,-225,59C588,206,523,254,463,315C341,440,248,579,183,733l106,51C387,594,475,460,556,380C632,304,721,267,818,267c2,0,3,0,5,0c85,0,150,29,198,89c47,53,73,116,74,188c-1,84,-33,150,-94,197c-28,20,-61,41,-104,60c-44,15,-90,29,-142,41C668,821,609,809,577,809c-4,0,-7,0,-10,1c-3,-1,-6,-1,-9,-1c-18,0,-35,8,-49,21c-8,12,-25,36,-51,74c-27,39,-44,68,-47,88c0,16,8,30,23,39c12,6,26,9,41,9c25,0,61,-3,112,-6c52,-6,93,-15,122,-26c177,34,264,100,261,194c0,58,-18,112,-52,161c-30,44,-64,78,-99,101H-23l-92,177H1390l93,-177H981c52,-65,93,-129,124,-188c32,-64,48,-124,48,-179c0,-26,-19,-58,-62,-96C1051,961,985,930,897,911v-7C1147,801,1274,662,1276,484C1271,356,1227,261,1143,202C1060,141,973,112,882,112Z" 
id="f5_12"
transform="scale(4.8828125E-4,-4.8828125E-4)" />

<path d="M591,611c97,2,184,28,263,78c78,46,151,99,220,164v611H622c70,-127,108,-234,113,-323c-3,-70,-35,-128,-99,-172C574,923,492,882,391,849c0,-67,17,-122,51,-165c33,-48,82,-73,149,-73ZM1251,0L1068,110l11,518C1033,585,981,548,923,521C865,492,808,477,755,477C588,478,458,533,368,642C277,741,214,859,182,993c117,23,211,58,281,107c69,43,104,96,104,157c0,32,-11,69,-32,107c-20,39,-37,71,-54,100H0l-89,177H1392l91,-177H1251V0Z" 
id="f5_1v"
transform="scale(4.8828125E-4,-4.8828125E-4)" />

<path d="M1105,842v622H553V842ZM1285,0L1098,110l7,556H553V523c0,-52,-19,-78,-56,-78c-1,0,-2,0,-4,0c0,0,-1,-1,-2,-1c-15,0,-37,16,-65,46c-33,29,-70,63,-107,104c-38,39,-70,77,-96,113c-29,32,-44,54,-44,66c0,15,6,31,17,46c10,14,24,21,42,23H374v622H2l-90,177H1425l91,-177H1285V0Z" 
id="f5_1u"
transform="scale(4.8828125E-4,-4.8828125E-4)" />

<path d="M440,-668C241,-453,95,-305,-1,-222c-94,73,-181,110,-260,110c-2,0,-4,0,-5,0c-2,0,-4,0,-5,0c-37,0,-73,-17,-108,-52c-39,-37,-58,-92,-62,-165c5,-81,43,-122,115,-124c43,2,87,16,138,41c48,22,85,43,111,65L15,-499c-38,-24,-80,-44,-122,-58c-40,-12,-85,-18,-137,-18c-6,0,-12,0,-18,0c-35,5,-72,17,-108,38c-35,17,-69,41,-101,74c-67,64,-101,132,-104,204c3,103,34,179,93,229c60,48,125,73,196,73c32,0,65,-6,101,-20c38,-15,82,-42,134,-85C49,-141,237,-318,510,-590l-70,-78Z" 
id="f5_29"
transform="scale(4.8828125E-4,-4.8828125E-4)" />

<path d="M1143,118c172,0,322,44,452,133c84,58,148,140,193,249c61,142,90,342,90,597c0,374,-66,649,-197,825c-112,147,-282,220,-508,221H918c-46,-1,-79,-10,-101,-29c-23,-21,-33,-48,-33,-87V229c0,-36,12,-64,38,-82c26,-20,67,-29,128,-29ZM104,0V118H315c53,0,91,7,111,26c22,16,32,44,32,81V2040c0,30,-10,56,-33,74c-22,19,-54,28,-93,29H104v118H1274c174,0,321,-30,443,-92c151,-77,280,-207,385,-386c107,-182,159,-396,159,-642c0,-204,-30,-388,-95,-550C2119,466,2044,356,1945,263C1846,168,1723,98,1581,52C1474,17,1331,0,1152,0Z" 
id="f1_o"
transform="scale(4.8828125E-4,-4.8828125E-4)" />

<path d="M1102,1138c188,0,325,40,409,118c87,79,130,211,130,392c0,127,-20,225,-58,294c-38,67,-95,119,-170,151c-75,32,-198,49,-370,50c-113,-1,-184,-12,-215,-32c-29,-21,-44,-58,-44,-108V1138h307c3,0,7,0,11,0ZM104,0V118H328c45,0,78,7,98,26c22,16,32,42,32,73V2014c0,44,-12,78,-39,97c-26,22,-77,31,-150,32H104v118H1219c252,0,445,-58,578,-171c133,-115,198,-264,198,-448c0,-184,-61,-327,-183,-423C1646,1088,1441,1021,1197,1021c-3,0,-6,0,-8,0H784V251c0,-46,10,-78,30,-97c29,-24,68,-36,115,-36h254V0Z" 
id="f1_z"
transform="scale(4.8828125E-4,-4.8828125E-4)" />

<path d="M148,0V95l908,1236H657c-83,-2,-147,-14,-186,-35c-42,-23,-77,-60,-107,-112C335,1132,307,1042,281,917H177l32,518H1375v-89L461,104H911c2,0,4,0,7,0c100,0,180,32,240,96c61,64,110,185,144,362h102L1370,0Z" 
id="f1_20"
transform="scale(4.8828125E-4,-4.8828125E-4)" />

<path d="M118,0V105L1416,2143H958c-125,-1,-223,-15,-293,-44C571,2058,495,1988,435,1885C376,1783,335,1647,310,1479H193l47,782H1774V2143L483,118H966c139,0,252,21,340,68c89,45,161,112,214,202c55,90,106,241,150,454h119L1743,0Z" 
id="f1_18"
transform="scale(4.8828125E-4,-4.8828125E-4)" />

<path d="M1262,118c179,0,313,39,399,119c85,79,128,203,128,373c0,152,-44,275,-133,365c-88,88,-212,133,-368,134H828V240c0,-41,12,-72,35,-92c25,-21,67,-30,129,-30Zm0,1109c128,0,231,38,307,113c78,76,116,202,116,377c0,107,-18,191,-55,252c-37,60,-92,104,-162,132c-70,27,-192,41,-368,42c-122,-1,-199,-10,-228,-27c-29,-18,-44,-49,-44,-92V1227h426c3,0,5,0,8,0ZM148,0V118H338c56,0,99,9,125,27c27,17,40,38,40,63V2014c0,42,-13,74,-39,96c-26,21,-64,32,-114,33H148v118H1325c230,0,409,-50,531,-153c122,-102,184,-229,184,-382c0,-128,-43,-238,-127,-327c-86,-90,-213,-160,-384,-210c214,-48,376,-118,483,-214c107,-98,161,-219,161,-365c0,-113,-31,-213,-91,-300C2021,223,1920,150,1778,90C1636,29,1476,0,1296,0Z" 
id="f1_m"
transform="scale(4.8828125E-4,-4.8828125E-4)" />

<path d="M869,-320C790,-214,712,-118,639,-33C564,49,513,96,486,112c-34,4,-70,12,-109,22c-39,8,-67,16,-84,22c-24,20,-47,50,-68,92c-23,42,-36,85,-36,132c0,14,13,34,36,55c19,20,47,33,84,34c33,-1,70,-23,108,-63c41,-41,69,-78,83,-108c6,-1,12,-1,18,-1c60,0,127,21,203,64c41,19,73,48,99,87c26,33,40,75,40,126c0,48,-9,81,-24,98c-17,14,-37,20,-63,20C739,689,698,678,651,660C602,640,555,629,509,629c-45,0,-87,19,-129,55c-39,34,-76,74,-107,123c-64,110,-94,207,-94,291c0,57,14,97,41,124c26,20,69,31,130,31H730v211H-8l-92,177H1056l90,-177H897V1135c0,-27,-20,-40,-60,-40H443c-50,0,-84,-9,-99,-26c-22,-18,-31,-39,-31,-65c0,-52,15,-101,46,-144c28,-47,64,-73,109,-75c42,0,88,11,137,31c46,20,90,29,131,32c34,0,68,-12,100,-35c32,-25,59,-57,84,-96c50,-81,76,-149,78,-201C996,405,955,321,874,263C798,202,704,162,597,141L958,-239l-89,-81Z" 
id="f5_11"
transform="scale(4.8828125E-4,-4.8828125E-4)" />

<path d="M972,819c44,0,94,12,148,38c55,21,102,47,142,80v527H680V924c33,-21,76,-44,130,-67c52,-26,107,-38,162,-38ZM837,0C591,280,419,483,321,610C225,735,177,820,179,866c0,28,9,52,27,77c17,20,37,30,58,32c11,-2,26,-5,45,-9c16,-13,35,-25,53,-36c46,-30,78,-47,96,-48c1,-1,2,-1,3,-1c14,0,25,20,29,62c7,45,10,155,10,333c0,67,-3,130,-13,188H-1l-91,177H1581l90,-177H1441V0L1256,110l12,591c-95,-36,-174,-56,-238,-58c-2,0,-4,0,-6,0c-27,0,-74,10,-139,32c-34,13,-71,29,-106,54c-36,23,-72,50,-105,84C657,793,636,770,611,744C582,717,555,695,532,680C464,645,434,620,438,608c4,-15,62,-78,173,-188C717,307,822,196,924,87L837,0Z" 
id="f5_23"
transform="scale(4.8828125E-4,-4.8828125E-4)" />

<path d="M636,1069c58,62,85,141,85,239c-4,145,-56,218,-154,220c-51,-3,-93,-23,-130,-58c-41,-35,-61,-81,-61,-135c6,-64,33,-117,79,-163c26,-23,54,-41,84,-57c31,-20,63,-33,97,-46ZM1387,0L1202,110l10,484C1167,548,1109,510,1037,477C966,440,895,422,827,422c-124,1,-225,26,-301,73C448,536,390,579,350,623C248,717,196,776,196,799c-3,8,41,32,134,72c89,35,163,78,225,127c-252,82,-378,197,-376,343c0,69,23,139,72,211c48,74,120,110,215,113c24,-1,61,-6,107,-15c47,-15,95,-38,145,-69c50,-33,95,-75,127,-123c35,-54,53,-118,55,-196C898,1144,859,1045,778,964C695,880,593,807,472,746c11,-69,35,-118,73,-146c37,-29,89,-42,158,-42c95,1,189,33,282,97c91,60,164,124,222,194v615H1022l-96,177h600l90,-177H1387V0Z" 
id="f5_1n"
transform="scale(4.8828125E-4,-4.8828125E-4)" />

<path d="M-222,1523c-40,66,-86,155,-136,263c-54,108,-81,206,-84,296c3,74,29,136,78,190c49,49,105,75,169,78c49,0,97,-19,143,-58C-7,2250,31,2171,63,2053L6,2037c-25,58,-49,99,-75,123c-26,22,-55,32,-87,32c-42,-1,-77,-23,-106,-62c-27,-40,-44,-87,-47,-142c1,-31,7,-66,18,-106c11,-39,25,-79,37,-122c32,-82,61,-154,85,-214l-53,-23Z" 
id="f5_2g"
transform="scale(4.8828125E-4,-4.8828125E-4)" />

<path d="M843,-22C665,92,509,223,377,374C318,449,270,526,235,603c-38,80,-56,159,-56,237c0,80,27,162,81,248c29,38,64,70,107,96c41,23,88,35,145,35c90,-4,160,-32,209,-79c60,-60,115,-121,162,-182c98,136,196,203,293,203c1,0,2,0,3,0c43,-3,84,-14,124,-35c41,-21,72,-43,92,-63v401H0l-89,177H1711l93,-177H1574V0L1389,112l12,838c-44,34,-90,52,-138,54c-30,-2,-58,-5,-84,-12c-27,-10,-55,-29,-84,-59c-26,-25,-55,-64,-85,-113C978,772,941,710,903,636L762,739c25,49,51,94,74,132c-26,44,-61,82,-106,117c-44,34,-87,51,-125,54c-53,0,-107,-21,-160,-63C388,932,359,859,358,759c0,-52,6,-104,19,-152c16,-51,42,-104,81,-159C535,335,689,209,921,72L843,-22Z" 
id="f5_1z"
transform="scale(4.8828125E-4,-4.8828125E-4)" />

<path d="M510,299c42,49,63,106,64,173c-1,35,-13,66,-33,87c-22,19,-43,29,-63,29c-29,0,-56,-10,-84,-29C362,538,345,506,345,463c0,-44,19,-81,55,-110c34,-32,71,-50,110,-54Zm520,-455c-97,3,-177,27,-245,74C717,-36,683,20,683,86c0,35,5,64,15,88c-23,-6,-56,-9,-100,-9c-8,0,-17,0,-27,0c-2,0,-5,0,-8,0c-112,0,-203,31,-271,92C217,313,179,383,179,471c0,73,24,134,75,181c49,46,119,69,207,71c58,-2,109,-25,153,-71c41,-49,63,-108,64,-180c0,-43,-9,-81,-30,-113C631,322,613,298,591,284v-6c9,0,17,-1,26,-1c58,0,111,10,159,29c44,36,93,59,148,70c25,-22,51,-43,77,-64c23,-28,35,-45,36,-51c0,-12,-12,-18,-36,-20c-14,0,-31,-3,-48,-9C935,220,918,208,901,197C862,167,843,128,843,86c0,-40,11,-74,34,-102c23,-30,55,-46,98,-47c61,0,133,33,217,100c82,67,154,160,215,284c-21,-6,-43,-8,-66,-8c-41,0,-86,8,-136,23c-36,14,-76,31,-116,55c-41,23,-79,47,-117,75C900,527,837,602,785,692c-53,86,-79,180,-79,286c-2,98,33,180,108,247c74,60,214,92,419,95h154v144H-5l-90,177H1751l90,-177H1566V1196c-2,-36,-23,-55,-61,-55c-147,0,-266,-4,-359,-12c-92,-12,-153,-29,-182,-50C900,1028,868,953,868,853C868,750,904,665,979,596c72,-73,170,-109,297,-109c38,0,75,5,108,17c-46,55,-70,112,-72,168c0,23,8,43,22,63c12,17,33,26,64,26c14,0,35,-6,64,-14c28,-11,58,-24,89,-43c32,-21,61,-42,82,-67c23,-26,32,-53,32,-81c0,-27,-4,-56,-17,-90c-13,-37,-38,-64,-74,-86c62,-119,142,-250,238,-390L1708,-69c-23,47,-49,97,-79,152c-32,53,-57,85,-72,94c-8,-12,-23,-35,-48,-69C1483,73,1448,34,1401,-7c-47,-39,-101,-75,-162,-104c-63,-27,-133,-42,-209,-45Z" 
id="f5_g"
transform="scale(4.8828125E-4,-4.8828125E-4)" />

<path d="M426,536c-3,0,-5,0,-7,0c-13,0,-31,16,-58,51c-25,29,-51,64,-80,107c-27,42,-50,82,-70,117c-22,35,-32,60,-32,72c0,34,14,57,43,73c27,11,82,17,161,19h621V799H541c-35,-1,-54,-11,-55,-31V602c-3,-43,-24,-66,-60,-66ZM-2,1464l-90,177H747l89,-177Z" 
id="f5_p"
transform="scale(4.8828125E-4,-4.8828125E-4)" />

<path d="M1186,649c117,2,258,72,423,210c-54,81,-107,140,-161,177c-53,33,-123,50,-209,52c-60,-2,-115,-22,-166,-61C1021,984,993,921,990,840c0,-58,20,-102,61,-136c34,-36,78,-55,135,-55ZM1004,212c3,0,6,0,9,0c122,2,232,34,333,98c101,55,186,113,260,171V631c-52,-38,-103,-72,-152,-99c-50,-28,-106,-40,-171,-40c-117,1,-218,46,-299,136C900,713,857,819,854,944c0,20,8,49,20,86c8,32,23,67,46,104c26,35,61,67,108,96c45,23,103,33,174,33c40,0,81,-4,126,-12c42,-9,81,-27,117,-58c22,-15,45,-36,71,-65c24,-30,52,-71,84,-124h6v460H629c10,-182,14,-349,16,-500C645,814,576,692,435,594C495,501,576,417,680,341c49,-38,102,-69,157,-90c54,-25,109,-39,167,-39ZM1783,0L1604,115l8,169C1409,128,1221,52,1047,52c-4,0,-7,0,-10,0C830,52,614,197,385,487C310,594,257,686,228,761c-34,73,-49,113,-49,122c0,18,7,37,26,54c15,16,27,26,36,29c11,0,31,-5,62,-14c29,-12,68,-29,119,-49c16,26,27,64,35,111c6,49,9,101,9,156c0,112,-3,210,-11,294H-8l-92,177H1922l92,-177H1783V0Z" 
id="f5_19"
transform="scale(4.8828125E-4,-4.8828125E-4)" />

<path d="M585,611c41,0,80,8,116,23c37,11,69,24,100,44c65,40,113,83,146,127L455,1315V811C457,683,501,616,585,611ZM669,477c-67,0,-146,38,-237,117c-42,35,-78,78,-105,127c-32,46,-49,96,-49,153v590H-4l-90,177H796l90,-177H438L999,880l46,55V663C988,603,924,558,849,527C776,493,715,477,669,477Z" 
id="f5_f"
transform="scale(4.8828125E-4,-4.8828125E-4)" />

<path d="M840,0C593,280,420,483,322,610C225,735,177,820,179,866c0,28,9,52,27,77c17,20,37,30,58,32c11,-2,26,-5,45,-9c16,-13,35,-25,53,-36c46,-30,78,-47,96,-48c1,-1,2,-1,3,-1c14,0,25,20,29,62c7,45,10,155,10,333c0,67,-3,130,-13,188H-1l-91,177H1082l91,-177H681V924c34,-21,78,-44,130,-67c54,-26,107,-38,164,-38c56,0,113,14,166,41c57,26,109,55,158,92V741C1184,675,1096,643,1035,643c-1,0,-2,0,-4,0c-1,0,-3,0,-5,0c-26,0,-73,10,-140,32c-35,13,-70,29,-107,54c-35,23,-70,50,-105,84C657,793,636,770,611,744C582,717,555,695,532,680C464,645,434,620,438,608c4,-15,63,-78,175,-188C718,307,823,196,927,87L840,0Z" 
id="f5_d"
transform="scale(4.8828125E-4,-4.8828125E-4)" />

<path d="M-303,1509c-64,69,-139,133,-225,191c-84,58,-152,101,-203,132c-50,40,-91,59,-122,59c-14,0,-35,-4,-66,-15c-29,-12,-52,-23,-72,-32c-22,47,-47,104,-74,170c-26,64,-42,104,-45,119c2,21,19,32,52,32c51,0,95,-11,135,-31c39,-23,79,-53,117,-88c63,-48,144,-113,243,-193c100,-85,196,-183,289,-299h37c-14,43,-37,114,-72,212c-35,98,-70,176,-109,235c-23,42,-52,72,-88,97c-35,21,-89,30,-162,32c-19,108,-31,188,-35,240c1,30,13,45,38,45c24,0,58,-12,99,-33c43,-25,87,-70,132,-132c30,-36,58,-84,82,-143c25,-63,49,-129,72,-197c24,-72,47,-136,66,-197c19,-63,33,-115,42,-153l17,-38l-148,-13Z" 
id="f5_2c"
transform="scale(4.8828125E-4,-4.8828125E-4)" />

<path d="M1196,0L1014,112l7,1352H567V665C564,585,530,545,464,544c-15,0,-39,15,-71,50c-34,29,-69,63,-104,103C214,776,179,836,180,875c0,22,6,39,22,51c9,12,20,20,30,20H371c2,-1,3,-1,4,-1c8,0,13,11,13,31v488H-4l-90,177H1335l92,-177H1196V0Z" 
id="f5_1a"
transform="scale(4.8828125E-4,-4.8828125E-4)" />

<path d="M614,710c1,0,2,0,3,0c55,0,110,16,168,49c61,26,110,54,144,83v622H455V952C458,790,511,710,614,710ZM1108,0L923,112l12,511C865,578,788,555,706,553c-2,0,-4,0,-6,0c-31,0,-69,12,-112,34c-46,24,-93,55,-140,91c-46,37,-86,81,-120,130c-33,48,-50,98,-50,150v506H-4l-90,177H1920l92,-177H1108V941c56,44,117,84,181,119c69,29,129,45,179,48c29,-2,63,-8,101,-22c40,-20,76,-50,112,-88c35,-40,65,-89,90,-152c24,-64,35,-139,35,-226c0,-120,-52,-262,-158,-423L1488,342c55,74,99,150,135,229c33,77,48,146,48,208c0,49,-13,87,-41,116c-29,23,-66,37,-111,37c-42,-3,-104,-23,-187,-64C1253,825,1176,773,1108,715V0Z" 
id="f5_1j"
transform="scale(4.8828125E-4,-4.8828125E-4)" />

<path d="M869,-320C790,-214,712,-118,639,-33C564,49,513,96,486,112c-34,4,-70,12,-109,22c-39,8,-67,16,-84,22c-24,20,-47,50,-68,92c-23,42,-36,85,-36,132c0,14,13,34,36,55c19,20,47,33,84,34c33,-1,70,-23,108,-63c41,-41,69,-78,83,-108c6,-1,12,-1,18,-1c60,0,127,21,203,64c41,19,73,48,99,87c26,33,40,75,40,126c0,48,-9,81,-24,98c-17,14,-37,20,-63,20C739,689,698,678,651,660C602,640,555,629,509,629c-45,0,-87,19,-129,55c-39,34,-76,74,-107,123c-64,110,-94,207,-94,291c0,57,14,97,41,124c26,20,69,31,130,31H730v211H-5l-90,177H1054l92,-177H897V1135c0,-27,-20,-40,-60,-40H443c-50,0,-84,-9,-99,-26c-22,-18,-31,-39,-31,-65c0,-52,15,-101,46,-144c28,-47,64,-73,109,-75c42,0,88,11,137,31c46,20,90,29,131,32c19,0,39,-3,62,-9c21,-6,38,-17,47,-32c2,0,4,0,7,0c58,0,126,18,204,56c82,40,165,92,249,155V813c-35,-34,-77,-61,-124,-84c-49,-23,-104,-34,-162,-34c-41,0,-73,5,-98,15l-6,-3c23,-27,41,-56,58,-84c15,-32,22,-67,22,-107C993,405,953,321,872,263C794,202,703,162,597,141L958,-239l-89,-81Z" 
id="f5_1y"
transform="scale(4.8828125E-4,-4.8828125E-4)" />

<path d="M929,-43L296,1956c-24,76,-53,125,-84,151c-32,24,-82,35,-152,36v118H813V2143H759c-79,-1,-131,-7,-154,-18c-21,-14,-34,-32,-34,-56c0,-19,10,-48,23,-84l11,-29L1057,526l410,1326c-46,143,-81,229,-107,253c-26,25,-78,37,-155,38H1065v118h961V2143H1925c-86,-1,-142,-7,-168,-19c-26,-14,-38,-34,-38,-60c0,-23,3,-41,9,-58L2195,526l379,1281c17,48,25,95,25,141c0,66,-17,115,-48,148c-32,31,-79,46,-143,47h-72v118h709V2143c-60,-9,-107,-24,-144,-45c-35,-22,-67,-52,-93,-92c-24,-41,-52,-107,-79,-199L2180,-43H2066L1545,1607L1033,-43Z" 
id="f1_15"
transform="scale(4.8828125E-4,-4.8828125E-4)" />

<path d="M1140,-43L313,1975c-27,63,-61,106,-99,132c-37,24,-89,35,-153,36H-14v118H932V2143H767c-67,-1,-113,-9,-138,-24c-24,-17,-36,-38,-36,-63c0,-23,9,-52,27,-91l13,-31L1250,429l545,1436c11,26,15,62,15,101c0,55,-15,100,-48,130c-33,31,-77,46,-133,47H1479v118h813V2143h-68c-48,-1,-97,-24,-148,-68c-50,-48,-94,-124,-137,-234L1222,-43Z" 
id="f1_14"
transform="scale(4.8828125E-4,-4.8828125E-4)" />

<path d="M316,-606c-73,0,-131,22,-175,65c-45,42,-68,96,-68,159c0,45,14,85,43,116c28,30,63,45,104,45c38,0,70,-13,96,-39c26,-26,38,-58,38,-93c0,-13,-1,-28,-6,-48c-3,-15,-6,-27,-6,-33c0,-26,17,-39,48,-39c33,0,71,13,114,37c41,24,81,64,118,118c36,55,102,175,195,361L267,1199c-18,35,-41,61,-70,80c-27,17,-69,29,-124,36v120H755V1315H691c-60,0,-100,-7,-121,-21c-22,-15,-34,-35,-34,-60c0,-13,3,-24,8,-35L943,361l308,692c23,47,34,93,34,140c0,35,-15,63,-44,83c-31,20,-89,32,-176,39v120h591V1315c-116,-10,-195,-58,-237,-139L871,-49C775,-265,684,-412,597,-489C510,-566,416,-606,316,-606Z" 
id="f1_1z"
transform="scale(4.8828125E-4,-4.8828125E-4)" />


</defs>
</svg>