<?xml version="1.0" encoding="UTF-8" standalone="no"?>
<!DOCTYPE svg PUBLIC "-//W3C//DTD SVG 1.1//EN"
"http://www.w3.org/Graphics/SVG/1.1/DTD/svg11.dtd">
<svg viewBox="0 0 909 1286" version="1.1" xmlns="http://www.w3.org/2000/svg" xmlns:xlink="http://www.w3.org/1999/xlink">
<defs>
</defs>
<g fill="#000000" >
<use xlink:href="#f0_6" transform="matrix(12,0,0,12,443.8,1140.7)" />
<use xlink:href="#f0_b" transform="matrix(12,0,0,12,454.6,1140.7)" />
<use xlink:href="#f0_a" transform="matrix(12,0,0,12,86.5,1140.7)" />
<use xlink:href="#f0_b" transform="matrix(12,0,0,12,96.8,1140.7)" />
<use xlink:href="#f0_4" transform="matrix(12,0,0,12,107.1,1140.7)" />
<use xlink:href="#f0_6" transform="matrix(12,0,0,12,111.9,1140.7)" />
<use xlink:href="#f0_4" transform="matrix(12,0,0,12,122.2,1140.7)" />
<use xlink:href="#f0_k" transform="matrix(12,0,0,12,127,1140.7)" />
<use xlink:href="#f1_4" transform="matrix(12,0,0,12,129.7,162.2)" />
<use xlink:href="#f1_1c" transform="matrix(12,0,0,12,135.5,162.2)" />
<use xlink:href="#f1_5" transform="matrix(12,0,0,12,145.3,162.2)" />
<use xlink:href="#f1_n" transform="matrix(12,0,0,12,173,162.2)" />
<use xlink:href="#f1_1c" transform="matrix(12,0,0,12,187.6,162.2)" />
<use xlink:href="#f1_1m" transform="matrix(12,0,0,12,199.1,162.2)" />
<use xlink:href="#f1_1e" transform="matrix(12,0,0,12,206.1,162.2)" />
<use xlink:href="#f1_1v" transform="matrix(12,0,0,12,215.5,162.2)" />
<use xlink:href="#f1_1m" transform="matrix(12,0,0,12,228,162.2)" />
<use xlink:href="#f1_1c" transform="matrix(12,0,0,12,235,162.2)" />
<use xlink:href="#f1_1u" transform="matrix(12,0,0,12,246.5,162.2)" />
<use xlink:href="#f1_1g" transform="matrix(12,0,0,12,255,162.2)" />
<use xlink:href="#f1_1u" transform="matrix(12,0,0,12,275.9,162.2)" />
<use xlink:href="#f1_1j" transform="matrix(12,0,0,12,284.4,162.2)" />
<use xlink:href="#f1_1g" transform="matrix(12,0,0,12,296.8,162.2)" />
<use xlink:href="#f1_1d" transform="matrix(12,0,0,12,317.7,162.2)" />
<use xlink:href="#f1_1p" transform="matrix(12,0,0,12,329.2,162.2)" />
<use xlink:href="#f1_1k" transform="matrix(12,0,0,12,339.7,162.2)" />
<use xlink:href="#f1_1m" transform="matrix(12,0,0,12,346.7,162.2)" />
<use xlink:href="#f1_1k" transform="matrix(12,0,0,12,353.8,162.2)" />
<use xlink:href="#f1_1o" transform="matrix(12,0,0,12,360.9,162.2)" />
<use xlink:href="#f1_1i" transform="matrix(12,0,0,12,373.3,162.2)" />
<use xlink:href="#f1_1q" transform="matrix(12,0,0,12,394.9,162.2)" />
<use xlink:href="#f1_1p" transform="matrix(12,0,0,12,406.7,162.2)" />
<use xlink:href="#f1_1k" transform="matrix(12,0,0,12,417.2,162.2)" />
<use xlink:href="#f1_1o" transform="matrix(12,0,0,12,424.3,162.2)" />
<use xlink:href="#f1_1u" transform="matrix(12,0,0,12,436.7,162.2)" />
<use xlink:href="#f1_1p" transform="matrix(12,0,0,12,455.6,162.2)" />
<use xlink:href="#f1_1h" transform="matrix(12,0,0,12,466.1,162.2)" />
<use xlink:href="#f1_1t" transform="matrix(12,0,0,12,483.9,162.2)" />
<use xlink:href="#f1_1p" transform="matrix(12,0,0,12,493.7,162.2)" />
<use xlink:href="#f1_1m" transform="matrix(12,0,0,12,504.2,162.2)" />
<use xlink:href="#f1_1v" transform="matrix(12,0,0,12,511.2,162.2)" />
<use xlink:href="#f1_1u" transform="matrix(12,0,0,12,523.7,162.2)" />
<use xlink:href="#f1_1k" transform="matrix(12,0,0,12,532.1,162.2)" />
<use xlink:href="#f1_1p" transform="matrix(12,0,0,12,539.2,162.2)" />
<use xlink:href="#f1_1o" transform="matrix(12,0,0,12,549.6,162.2)" />
<use xlink:href="#f1_1x" transform="matrix(12,0,0,12,572.5,162.2)" />
<use xlink:href="#f1_1j" transform="matrix(12,0,0,12,588.1,162.2)" />
<use xlink:href="#f1_1g" transform="matrix(12,0,0,12,600.5,162.2)" />
<use xlink:href="#f1_1o" transform="matrix(12,0,0,12,611,162.2)" />
<use xlink:href="#f1_b" transform="matrix(12,0,0,12,633.9,162.2)" />
<use xlink:href="#f1_1i" transform="matrix(12,0,0,12,655.8,162.2)" />
<use xlink:href="#f1_1p" transform="matrix(12,0,0,12,677.5,162.2)" />
<use xlink:href="#f1_1h" transform="matrix(12,0,0,12,687.9,162.2)" />
<use xlink:href="#f1_y" transform="matrix(12,0,0,12,705.8,162.2)" />
<use xlink:href="#f1_1c" transform="matrix(12,0,0,12,722,162.2)" />
<use xlink:href="#f2_4" transform="matrix(9.6,0,0,9.6,733.6,168.4)" />
<use xlink:href="#f1_12" transform="matrix(12,0,0,12,742.7,162.2)" />
<use xlink:href="#f1_z" transform="matrix(12,0,0,12,755.5,162.2)" />
<use xlink:href="#f2_6" transform="matrix(9.6,0,0,9.6,771.1,168.4)" />
<use xlink:href="#f1_4" transform="matrix(12,0,0,12,173,188)" />
<use xlink:href="#f1_x" transform="matrix(12,0,0,12,179.2,188)" />
<use xlink:href="#f3_5" transform="matrix(12,0,0,12,196.6,188)" />
<use xlink:href="#f1_a" transform="matrix(12,0,0,12,215,188)" />
<use xlink:href="#f1_d" transform="matrix(12,0,0,12,225.2,188)" />
<use xlink:href="#f1_b" transform="matrix(12,0,0,12,235.4,188)" />
<use xlink:href="#f1_1i" transform="matrix(12,0,0,12,253.4,188)" />
<use xlink:href="#f1_1n" transform="matrix(12,0,0,12,270.9,188)" />
<use xlink:href="#f1_1p" transform="matrix(12,0,0,12,287.3,188)" />
<use xlink:href="#f1_1m" transform="matrix(12,0,0,12,296.5,188)" />
<use xlink:href="#f4_4" transform="matrix(9.6,0,0,9.6,302.4,181.8)" />
<use xlink:href="#f2_3" transform="matrix(9.6,0,0,9.6,317.1,181.8)" />
<use xlink:href="#f1_5" transform="matrix(12,0,0,12,325.3,188)" />
<use xlink:href="#f1_1x" transform="matrix(12,0,0,12,339.2,188)" />
<use xlink:href="#f1_1c" transform="matrix(12,0,0,12,353.6,188)" />
<use xlink:href="#f1_1t" transform="matrix(12,0,0,12,363.8,188)" />
<use xlink:href="#f1_1f" transform="matrix(12,0,0,12,380.1,188)" />
<use xlink:href="#f1_1k" transform="matrix(12,0,0,12,390.7,188)" />
<use xlink:href="#f1_1t" transform="matrix(12,0,0,12,396.5,188)" />
<use xlink:href="#f1_1t" transform="matrix(12,0,0,12,405,188)" />
<use xlink:href="#f1_1p" transform="matrix(12,0,0,12,413.6,188)" />
<use xlink:href="#f1_1m" transform="matrix(12,0,0,12,422.8,188)" />
<use xlink:href="#f1_1w" transform="matrix(12,0,0,12,428.6,188)" />
<use xlink:href="#f1_1g" transform="matrix(12,0,0,12,438.6,188)" />
<use xlink:href="#f1_1f" transform="matrix(12,0,0,12,447.8,188)" />
<use xlink:href="#f1_1k" transform="matrix(12,0,0,12,466.1,188)" />
<use xlink:href="#f1_1o" transform="matrix(12,0,0,12,471.9,188)" />
<use xlink:href="#f1_e" transform="matrix(12,0,0,12,490.9,188)" />
<use xlink:href="#f1_9" transform="matrix(12,0,0,12,501.1,188)" />
<use xlink:href="#f1_1i" transform="matrix(12,0,0,12,519.1,188)" />
<use xlink:href="#f1_1p" transform="matrix(12,0,0,12,536.8,188)" />
<use xlink:href="#f1_1h" transform="matrix(12,0,0,12,546,188)" />
<use xlink:href="#f1_1x" transform="matrix(12,0,0,12,559.9,188)" />
<use xlink:href="#f1_1c" transform="matrix(12,0,0,12,574.3,188)" />
<use xlink:href="#f1_1u" transform="matrix(12,0,0,12,584.5,188)" />
<use xlink:href="#f1_1g" transform="matrix(12,0,0,12,591.8,188)" />
<use xlink:href="#f1_1s" transform="matrix(12,0,0,12,601,188)" />
<use xlink:href="#f1_6" transform="matrix(12,0,0,12,609.2,188)" />
<use xlink:href="#f1_1c" transform="matrix(12,0,0,12,622,188)" />
<use xlink:href="#f1_1t" transform="matrix(12,0,0,12,632.3,188)" />
<use xlink:href="#f1_1t" transform="matrix(12,0,0,12,640.8,188)" />
<use xlink:href="#f1_1v" transform="matrix(12,0,0,12,649.4,188)" />
<use xlink:href="#f1_1n" transform="matrix(12,0,0,12,660.6,188)" />
<use xlink:href="#f1_1k" transform="matrix(12,0,0,12,677,188)" />
<use xlink:href="#f1_1o" transform="matrix(12,0,0,12,682.8,188)" />
<use xlink:href="#f1_1i" transform="matrix(12,0,0,12,694,188)" />
<use xlink:href="#f1_y" transform="matrix(12,0,0,12,711.7,188)" />
<use xlink:href="#f1_1c" transform="matrix(12,0,0,12,726.7,188)" />
<use xlink:href="#f2_4" transform="matrix(9.6,0,0,9.6,736.9,194)" />
<use xlink:href="#f1_12" transform="matrix(12,0,0,12,745.2,188)" />
<use xlink:href="#f1_z" transform="matrix(12,0,0,12,756.8,188)" />
<use xlink:href="#f2_6" transform="matrix(9.6,0,0,9.6,771.1,194)" />
<use xlink:href="#f1_1v" transform="matrix(12,0,0,12,173,213.6)" />
<use xlink:href="#f1_1o" transform="matrix(12,0,0,12,184.2,213.6)" />
<use xlink:href="#f1_1f" transform="matrix(12,0,0,12,195.3,213.6)" />
<use xlink:href="#f1_1g" transform="matrix(12,0,0,12,205.9,213.6)" />
<use xlink:href="#f1_1s" transform="matrix(12,0,0,12,215.1,213.6)" />
<use xlink:href="#f1_1i" transform="matrix(12,0,0,12,223.2,213.6)" />
<use xlink:href="#f1_1p" transform="matrix(12,0,0,12,233.1,213.6)" />
<use xlink:href="#f1_1g" transform="matrix(12,0,0,12,242.2,213.6)" />
<use xlink:href="#f1_1t" transform="matrix(12,0,0,12,251.4,213.6)" />
<use xlink:href="#f1_1e" transform="matrix(12,0,0,12,265.2,213.6)" />
<use xlink:href="#f1_1p" transform="matrix(12,0,0,12,273.3,213.6)" />
<use xlink:href="#f1_1n" transform="matrix(12,0,0,12,282.5,213.6)" />
<use xlink:href="#f1_1q" transform="matrix(12,0,0,12,298.9,213.6)" />
<use xlink:href="#f1_1m" transform="matrix(12,0,0,12,309.4,213.6)" />
<use xlink:href="#f1_1g" transform="matrix(12,0,0,12,315.2,213.6)" />
<use xlink:href="#f1_1u" transform="matrix(12,0,0,12,324.4,213.6)" />
<use xlink:href="#f1_1g" transform="matrix(12,0,0,12,331.5,213.6)" />
<use xlink:href="#f1_1k" transform="matrix(12,0,0,12,346,213.6)" />
<use xlink:href="#f1_1p" transform="matrix(12,0,0,12,351.8,213.6)" />
<use xlink:href="#f1_1o" transform="matrix(12,0,0,12,361,213.6)" />
<use xlink:href="#f1_1k" transform="matrix(12,0,0,12,372.1,213.6)" />
<use xlink:href="#f1_20" transform="matrix(12,0,0,12,377.9,213.6)" />
<use xlink:href="#f1_1c" transform="matrix(12,0,0,12,386.7,213.6)" />
<use xlink:href="#f1_1u" transform="matrix(12,0,0,12,396.9,213.6)" />
<use xlink:href="#f1_1k" transform="matrix(12,0,0,12,404.1,213.6)" />
<use xlink:href="#f1_1p" transform="matrix(12,0,0,12,409.9,213.6)" />
<use xlink:href="#f1_1o" transform="matrix(12,0,0,12,419.1,213.6)" />
<use xlink:href="#f1_8" transform="matrix(12,0,0,12,430.2,213.6)" />
<use xlink:href="#f1_4" transform="matrix(12,0,0,12,173,252.2)" />
<use xlink:href="#f1_v" transform="matrix(12,0,0,12,179.1,252.2)" />
<use xlink:href="#f2_b" transform="matrix(9.6,0,0,9.6,193.4,258.4)" />
<use xlink:href="#f1_1h" transform="matrix(12,0,0,12,206.5,252.2)" />
<use xlink:href="#f1_1p" transform="matrix(12,0,0,12,212.5,252.2)" />
<use xlink:href="#f1_1s" transform="matrix(12,0,0,12,221.6,252.2)" />
<use xlink:href="#f1_1x" transform="matrix(12,0,0,12,234.7,252.2)" />
<use xlink:href="#f1_1c" transform="matrix(12,0,0,12,249,252.2)" />
<use xlink:href="#f1_1u" transform="matrix(12,0,0,12,259.1,252.2)" />
<use xlink:href="#f1_1g" transform="matrix(12,0,0,12,266.2,252.2)" />
<use xlink:href="#f1_1s" transform="matrix(12,0,0,12,275.3,252.2)" />
<use xlink:href="#f3_5" transform="matrix(12,0,0,12,283.4,252.2)" />
<use xlink:href="#f1_9" transform="matrix(12,0,0,12,301.7,252.2)" />
<use xlink:href="#f1_8" transform="matrix(12,0,0,12,311.8,252.2)" />
<use xlink:href="#f1_e" transform="matrix(12,0,0,12,316.8,252.2)" />
<use xlink:href="#f1_b" transform="matrix(12,0,0,12,327,252.2)" />
<use xlink:href="#f1_v" transform="matrix(12,0,0,12,342.1,252.2)" />
<use xlink:href="#f1_1l" transform="matrix(12,0,0,12,361.4,252.2)" />
<use xlink:href="#f1_1i" transform="matrix(12,0,0,12,372.2,252.2)" />
<use xlink:href="#f1_1n" transform="matrix(12,0,0,12,387,252.2)" />
<use xlink:href="#f1_1p" transform="matrix(12,0,0,12,403.3,252.2)" />
<use xlink:href="#f1_1m" transform="matrix(12,0,0,12,412.4,252.2)" />
<use xlink:href="#f4_4" transform="matrix(9.6,0,0,9.6,418.1,246.2)" />
<use xlink:href="#f2_3" transform="matrix(9.6,0,0,9.6,432.7,246.2)" />
<use xlink:href="#f1_5" transform="matrix(12,0,0,12,440.8,252.2)" />
<use xlink:href="#f1_4" transform="matrix(12,0,0,12,129.7,290.9)" />
<use xlink:href="#f1_1d" transform="matrix(12,0,0,12,135.5,290.9)" />
<use xlink:href="#f1_5" transform="matrix(12,0,0,12,145.3,290.9)" />
<use xlink:href="#f1_o" transform="matrix(12,0,0,12,173,290.9)" />
<use xlink:href="#f1_1g" transform="matrix(12,0,0,12,187.3,290.9)" />
<use xlink:href="#f1_1h" transform="matrix(12,0,0,12,196.4,290.9)" />
<use xlink:href="#f1_1k" transform="matrix(12,0,0,12,202.5,290.9)" />
<use xlink:href="#f1_1o" transform="matrix(12,0,0,12,208.2,290.9)" />
<use xlink:href="#f1_1g" transform="matrix(12,0,0,12,219.3,290.9)" />
<use xlink:href="#f1_1u" transform="matrix(12,0,0,12,233.5,290.9)" />
<use xlink:href="#f1_1j" transform="matrix(12,0,0,12,240.6,290.9)" />
<use xlink:href="#f1_1g" transform="matrix(12,0,0,12,251.7,290.9)" />
<use xlink:href="#f1_1h" transform="matrix(12,0,0,12,265.8,290.9)" />
<use xlink:href="#f1_1p" transform="matrix(12,0,0,12,271.9,290.9)" />
<use xlink:href="#f1_1m" transform="matrix(12,0,0,12,281,290.9)" />
<use xlink:href="#f1_1m" transform="matrix(12,0,0,12,286.8,290.9)" />
<use xlink:href="#f1_1p" transform="matrix(12,0,0,12,292.5,290.9)" />
<use xlink:href="#f1_1x" transform="matrix(12,0,0,12,301.6,290.9)" />
<use xlink:href="#f1_1k" transform="matrix(12,0,0,12,315.8,290.9)" />
<use xlink:href="#f1_1o" transform="matrix(12,0,0,12,321.6,290.9)" />
<use xlink:href="#f1_1i" transform="matrix(12,0,0,12,332.7,290.9)" />
<use xlink:href="#f1_1u" transform="matrix(12,0,0,12,347.5,290.9)" />
<use xlink:href="#f1_1g" transform="matrix(12,0,0,12,354.7,290.9)" />
<use xlink:href="#f1_1s" transform="matrix(12,0,0,12,363.8,290.9)" />
<use xlink:href="#f1_1n" transform="matrix(12,0,0,12,371.8,290.9)" />
<use xlink:href="#f1_1t" transform="matrix(12,0,0,12,388.2,290.9)" />
<use xlink:href="#f1_j" transform="matrix(12,0,0,12,401.6,290.9)" />
<use xlink:href="#f1_4" transform="matrix(12,0,0,12,173,329.6)" />
<use xlink:href="#f1_1k" transform="matrix(12,0,0,12,178.7,329.6)" />
<use xlink:href="#f1_5" transform="matrix(12,0,0,12,184,329.6)" />
<use xlink:href="#f1_n" transform="matrix(12,0,0,12,216.3,329.6)" />
<use xlink:href="#f1_1p" transform="matrix(12,0,0,12,229.6,329.6)" />
<use xlink:href="#f1_1m" transform="matrix(12,0,0,12,238.7,329.6)" />
<use xlink:href="#f1_1m" transform="matrix(12,0,0,12,244.5,329.6)" />
<use xlink:href="#f1_1k" transform="matrix(12,0,0,12,250.3,329.6)" />
<use xlink:href="#f1_1i" transform="matrix(12,0,0,12,256.1,329.6)" />
<use xlink:href="#f1_1c" transform="matrix(12,0,0,12,265.9,329.6)" />
<use xlink:href="#f1_1u" transform="matrix(12,0,0,12,276.1,329.6)" />
<use xlink:href="#f1_1k" transform="matrix(12,0,0,12,283.3,329.6)" />
<use xlink:href="#f1_1w" transform="matrix(12,0,0,12,289.1,329.6)" />
<use xlink:href="#f1_1g" transform="matrix(12,0,0,12,298.9,329.6)" />
<use xlink:href="#f1_1q" transform="matrix(12,0,0,12,313.4,329.6)" />
<use xlink:href="#f1_1s" transform="matrix(12,0,0,12,323.9,329.6)" />
<use xlink:href="#f1_1p" transform="matrix(12,0,0,12,332,329.6)" />
<use xlink:href="#f1_1q" transform="matrix(12,0,0,12,341.2,329.6)" />
<use xlink:href="#f1_1g" transform="matrix(12,0,0,12,351.7,329.6)" />
<use xlink:href="#f1_1s" transform="matrix(12,0,0,12,360.9,329.6)" />
<use xlink:href="#f1_1u" transform="matrix(12,0,0,12,369,329.6)" />
<use xlink:href="#f1_1k" transform="matrix(12,0,0,12,376.2,329.6)" />
<use xlink:href="#f1_1g" transform="matrix(12,0,0,12,382,329.6)" />
<use xlink:href="#f1_1t" transform="matrix(12,0,0,12,391.2,329.6)" />
<use xlink:href="#f1_4" transform="matrix(12,0,0,12,476.2,329.6)" />
<use xlink:href="#f1_1k" transform="matrix(12,0,0,12,482,329.6)" />
<use xlink:href="#f1_1k" transform="matrix(12,0,0,12,487.5,329.6)" />
<use xlink:href="#f1_5" transform="matrix(12,0,0,12,493,329.6)" />
<use xlink:href="#f1_t" transform="matrix(12,0,0,12,519.5,329.6)" />
<use xlink:href="#f1_1f" transform="matrix(12,0,0,12,526.9,329.6)" />
<use xlink:href="#f1_1g" transform="matrix(12,0,0,12,537.5,329.6)" />
<use xlink:href="#f1_1c" transform="matrix(12,0,0,12,546.7,329.6)" />
<use xlink:href="#f1_1m" transform="matrix(12,0,0,12,556.9,329.6)" />
<use xlink:href="#f1_1t" transform="matrix(12,0,0,12,568.4,329.6)" />
<use xlink:href="#f1_1p" transform="matrix(12,0,0,12,576.9,329.6)" />
<use xlink:href="#f1_1m" transform="matrix(12,0,0,12,586,329.6)" />
<use xlink:href="#f1_1v" transform="matrix(12,0,0,12,591.8,329.6)" />
<use xlink:href="#f1_1u" transform="matrix(12,0,0,12,603,329.6)" />
<use xlink:href="#f1_1k" transform="matrix(12,0,0,12,610.2,329.6)" />
<use xlink:href="#f1_1p" transform="matrix(12,0,0,12,616,329.6)" />
<use xlink:href="#f1_1o" transform="matrix(12,0,0,12,625.1,329.6)" />
<use xlink:href="#f0_h" transform="matrix(12,0,0,12,439.6,368.2)" />
<use xlink:href="#f0_j" transform="matrix(12,0,0,12,454.4,368.2)" />
<use xlink:href="#f1_4" transform="matrix(12,0,0,12,129.7,406.8)" />
<use xlink:href="#f1_1c" transform="matrix(12,0,0,12,135.5,406.8)" />
<use xlink:href="#f1_5" transform="matrix(12,0,0,12,145.3,406.8)" />
<use xlink:href="#f1_16" transform="matrix(12,0,0,12,173,406.8)" />
<use xlink:href="#f1_1j" transform="matrix(12,0,0,12,191,406.8)" />
<use xlink:href="#f1_1g" transform="matrix(12,0,0,12,202.1,406.8)" />
<use xlink:href="#f1_1o" transform="matrix(12,0,0,12,211.2,406.8)" />
<use xlink:href="#f1_b" transform="matrix(12,0,0,12,227.4,406.8)" />
<use xlink:href="#f1_8" transform="matrix(12,0,0,12,237.6,406.8)" />
<use xlink:href="#f1_e" transform="matrix(12,0,0,12,242.6,406.8)" />
<use xlink:href="#f1_f" transform="matrix(12,0,0,12,252.8,406.8)" />
<use xlink:href="#f1_1i" transform="matrix(12,0,0,12,268,406.8)" />
<use xlink:href="#f1_1p" transform="matrix(12,0,0,12,282.9,406.8)" />
<use xlink:href="#f1_1h" transform="matrix(12,0,0,12,292,406.8)" />
<use xlink:href="#f1_1t" transform="matrix(12,0,0,12,303.2,406.8)" />
<use xlink:href="#f1_1v" transform="matrix(12,0,0,12,311.6,406.8)" />
<use xlink:href="#f1_1m" transform="matrix(12,0,0,12,322.7,406.8)" />
<use xlink:href="#f1_1q" transform="matrix(12,0,0,12,328.5,406.8)" />
<use xlink:href="#f1_1j" transform="matrix(12,0,0,12,339,406.8)" />
<use xlink:href="#f1_1v" transform="matrix(12,0,0,12,350.1,406.8)" />
<use xlink:href="#f1_1s" transform="matrix(12,0,0,12,361.2,406.8)" />
<use xlink:href="#f1_1x" transform="matrix(12,0,0,12,374.3,406.8)" />
<use xlink:href="#f1_1c" transform="matrix(12,0,0,12,388.6,406.8)" />
<use xlink:href="#f1_1t" transform="matrix(12,0,0,12,398.7,406.8)" />
<use xlink:href="#f1_1f" transform="matrix(12,0,0,12,412.2,406.8)" />
<use xlink:href="#f1_1k" transform="matrix(12,0,0,12,422.7,406.8)" />
<use xlink:href="#f1_1t" transform="matrix(12,0,0,12,428.5,406.8)" />
<use xlink:href="#f1_1t" transform="matrix(12,0,0,12,436.9,406.8)" />
<use xlink:href="#f1_1p" transform="matrix(12,0,0,12,445.3,406.8)" />
<use xlink:href="#f1_1m" transform="matrix(12,0,0,12,454.5,406.8)" />
<use xlink:href="#f1_1w" transform="matrix(12,0,0,12,460.2,406.8)" />
<use xlink:href="#f1_1g" transform="matrix(12,0,0,12,470,406.8)" />
<use xlink:href="#f1_1f" transform="matrix(12,0,0,12,479.1,406.8)" />
<use xlink:href="#f1_1k" transform="matrix(12,0,0,12,494.7,406.8)" />
<use xlink:href="#f1_1o" transform="matrix(12,0,0,12,500.4,406.8)" />
<use xlink:href="#f1_a" transform="matrix(12,0,0,12,516.6,406.8)" />
<use xlink:href="#f1_9" transform="matrix(12,0,0,12,526.8,406.8)" />
<use xlink:href="#f1_9" transform="matrix(12,0,0,12,537,406.8)" />
<use xlink:href="#f1_1i" transform="matrix(12,0,0,12,552.2,406.8)" />
<use xlink:href="#f1_1p" transform="matrix(12,0,0,12,567.1,406.8)" />
<use xlink:href="#f1_1h" transform="matrix(12,0,0,12,576.2,406.8)" />
<use xlink:href="#f1_n" transform="matrix(12,0,0,12,587.3,406.8)" />
<use xlink:href="#f1_12" transform="matrix(12,0,0,12,600.5,406.8)" />
<use xlink:href="#f2_4" transform="matrix(9.6,0,0,9.6,612,413)" />
<use xlink:href="#f1_6" transform="matrix(12,0,0,12,620.2,406.8)" />
<use xlink:href="#f1_1u" transform="matrix(12,0,0,12,630.3,406.8)" />
<use xlink:href="#f1_1j" transform="matrix(12,0,0,12,637.5,406.8)" />
<use xlink:href="#f1_1g" transform="matrix(12,0,0,12,648.6,406.8)" />
<use xlink:href="#f1_1h" transform="matrix(12,0,0,12,662.7,406.8)" />
<use xlink:href="#f1_1s" transform="matrix(12,0,0,12,668.8,406.8)" />
<use xlink:href="#f1_1g" transform="matrix(12,0,0,12,676.9,406.8)" />
<use xlink:href="#f1_1g" transform="matrix(12,0,0,12,686,406.8)" />
<use xlink:href="#f1_20" transform="matrix(12,0,0,12,695.2,406.8)" />
<use xlink:href="#f1_1k" transform="matrix(12,0,0,12,703.9,406.8)" />
<use xlink:href="#f1_1o" transform="matrix(12,0,0,12,709.7,406.8)" />
<use xlink:href="#f1_1i" transform="matrix(12,0,0,12,720.8,406.8)" />
<use xlink:href="#f1_1q" transform="matrix(12,0,0,12,735.6,406.8)" />
<use xlink:href="#f1_1p" transform="matrix(12,0,0,12,746.1,406.8)" />
<use xlink:href="#f1_1k" transform="matrix(12,0,0,12,755.3,406.8)" />
<use xlink:href="#f1_1o" transform="matrix(12,0,0,12,761,406.8)" />
<use xlink:href="#f1_1u" transform="matrix(12,0,0,12,772.1,406.8)" />
<use xlink:href="#f1_1m" transform="matrix(12,0,0,12,173,432.5)" />
<use xlink:href="#f1_1p" transform="matrix(12,0,0,12,178.8,432.5)" />
<use xlink:href="#f1_1x" transform="matrix(12,0,0,12,188,432.5)" />
<use xlink:href="#f1_1g" transform="matrix(12,0,0,12,202.3,432.5)" />
<use xlink:href="#f1_1s" transform="matrix(12,0,0,12,211.4,432.5)" />
<use xlink:href="#f1_1g" transform="matrix(12,0,0,12,219.6,432.5)" />
<use xlink:href="#f1_1f" transform="matrix(12,0,0,12,228.7,432.5)" />
<use xlink:href="#f1_1d" transform="matrix(12,0,0,12,244.5,432.5)" />
<use xlink:href="#f1_1z" transform="matrix(12,0,0,12,254.8,432.5)" />
<use xlink:href="#f1_9" transform="matrix(12,0,0,12,269.9,432.5)" />
<use xlink:href="#f1_8" transform="matrix(12,0,0,12,280.1,432.5)" />
<use xlink:href="#f1_c" transform="matrix(12,0,0,12,285.2,432.5)" />
<use xlink:href="#f1_h" transform="matrix(12,0,0,12,295.4,432.5)" />
<use xlink:href="#f1_c" transform="matrix(12,0,0,12,305.6,432.5)" />
<use xlink:href="#f1_v" transform="matrix(12,0,0,12,321.1,432.5)" />
<use xlink:href="#f1_8" transform="matrix(12,0,0,12,335.4,432.5)" />
<use xlink:href="#f1_n" transform="matrix(12,0,0,12,345.7,432.5)" />
<use xlink:href="#f1_1c" transform="matrix(12,0,0,12,358.9,432.5)" />
<use xlink:href="#f1_1m" transform="matrix(12,0,0,12,369.2,432.5)" />
<use xlink:href="#f1_1e" transform="matrix(12,0,0,12,374.9,432.5)" />
<use xlink:href="#f1_1v" transform="matrix(12,0,0,12,383.1,432.5)" />
<use xlink:href="#f1_1m" transform="matrix(12,0,0,12,394.2,432.5)" />
<use xlink:href="#f1_1c" transform="matrix(12,0,0,12,400,432.5)" />
<use xlink:href="#f1_1u" transform="matrix(12,0,0,12,410.2,432.5)" />
<use xlink:href="#f1_1g" transform="matrix(12,0,0,12,417.4,432.5)" />
<use xlink:href="#f1_1u" transform="matrix(12,0,0,12,431.8,432.5)" />
<use xlink:href="#f1_1j" transform="matrix(12,0,0,12,439,432.5)" />
<use xlink:href="#f1_1g" transform="matrix(12,0,0,12,450.1,432.5)" />
<use xlink:href="#f1_1h" transform="matrix(12,0,0,12,464.5,432.5)" />
<use xlink:href="#f1_1p" transform="matrix(12,0,0,12,470.7,432.5)" />
<use xlink:href="#f1_1s" transform="matrix(12,0,0,12,479.8,432.5)" />
<use xlink:href="#f1_1n" transform="matrix(12,0,0,12,488,432.5)" />
<use xlink:href="#f1_1v" transform="matrix(12,0,0,12,504.3,432.5)" />
<use xlink:href="#f1_1m" transform="matrix(12,0,0,12,515.5,432.5)" />
<use xlink:href="#f1_1c" transform="matrix(12,0,0,12,521.2,432.5)" />
<use xlink:href="#f1_1p" transform="matrix(12,0,0,12,536.7,432.5)" />
<use xlink:href="#f1_1h" transform="matrix(12,0,0,12,545.9,432.5)" />
<use xlink:href="#f1_1t" transform="matrix(12,0,0,12,557.2,432.5)" />
<use xlink:href="#f1_1v" transform="matrix(12,0,0,12,565.7,432.5)" />
<use xlink:href="#f1_1m" transform="matrix(12,0,0,12,576.9,432.5)" />
<use xlink:href="#f1_1q" transform="matrix(12,0,0,12,582.7,432.5)" />
<use xlink:href="#f1_1j" transform="matrix(12,0,0,12,593.2,432.5)" />
<use xlink:href="#f1_1v" transform="matrix(12,0,0,12,604.4,432.5)" />
<use xlink:href="#f1_1s" transform="matrix(12,0,0,12,615.5,432.5)" />
<use xlink:href="#f1_4" transform="matrix(12,0,0,12,628.9,432.5)" />
<use xlink:href="#f1_12" transform="matrix(12,0,0,12,635,432.5)" />
<use xlink:href="#f2_g" transform="matrix(9.6,0,0,9.6,646.6,438.6)" />
<use xlink:href="#f1_5" transform="matrix(12,0,0,12,654.5,432.5)" />
<use xlink:href="#f1_8" transform="matrix(12,0,0,12,660.7,432.5)" />
<use xlink:href="#f1_4" transform="matrix(12,0,0,12,173,471.2)" />
<use xlink:href="#f1_v" transform="matrix(12,0,0,12,179.1,471.2)" />
<use xlink:href="#f2_e" transform="matrix(9.6,0,0,9.6,193.4,477.2)" />
<use xlink:href="#f1_1h" transform="matrix(12,0,0,12,203.7,471.2)" />
<use xlink:href="#f1_1p" transform="matrix(12,0,0,12,209.9,471.2)" />
<use xlink:href="#f1_1s" transform="matrix(12,0,0,12,219,471.2)" />
<use xlink:href="#f1_n" transform="matrix(12,0,0,12,232.6,471.2)" />
<use xlink:href="#f1_12" transform="matrix(12,0,0,12,245.8,471.2)" />
<use xlink:href="#f2_4" transform="matrix(9.6,0,0,9.6,257.4,477.2)" />
<use xlink:href="#f3_5" transform="matrix(12,0,0,12,265.5,471.2)" />
<use xlink:href="#f1_c" transform="matrix(12,0,0,12,283.9,471.2)" />
<use xlink:href="#f1_8" transform="matrix(12,0,0,12,294.1,471.2)" />
<use xlink:href="#f1_h" transform="matrix(12,0,0,12,299.2,471.2)" />
<use xlink:href="#f1_c" transform="matrix(12,0,0,12,309.4,471.2)" />
<use xlink:href="#f1_v" transform="matrix(12,0,0,12,325,471.2)" />
<use xlink:href="#f1_1l" transform="matrix(12,0,0,12,344.6,471.2)" />
<use xlink:href="#f1_1i" transform="matrix(12,0,0,12,355.5,471.2)" />
<use xlink:href="#f1_1n" transform="matrix(12,0,0,12,370.7,471.2)" />
<use xlink:href="#f1_1p" transform="matrix(12,0,0,12,387.1,471.2)" />
<use xlink:href="#f1_1m" transform="matrix(12,0,0,12,396.2,471.2)" />
<use xlink:href="#f4_4" transform="matrix(9.6,0,0,9.6,402,465)" />
<use xlink:href="#f2_3" transform="matrix(9.6,0,0,9.6,416.6,465)" />
<use xlink:href="#f1_l" transform="matrix(12,0,0,12,435.6,471.2)" />
<use xlink:href="#f1_1u" transform="matrix(12,0,0,12,448.9,471.2)" />
<use xlink:href="#f1_1p" transform="matrix(12,0,0,12,456,471.2)" />
<use xlink:href="#f1_1n" transform="matrix(12,0,0,12,465.2,471.2)" />
<use xlink:href="#f1_1k" transform="matrix(12,0,0,12,481.6,471.2)" />
<use xlink:href="#f1_1e" transform="matrix(12,0,0,12,487.4,471.2)" />
<use xlink:href="#f1_1n" transform="matrix(12,0,0,12,500.9,471.2)" />
<use xlink:href="#f1_1c" transform="matrix(12,0,0,12,517.2,471.2)" />
<use xlink:href="#f1_1t" transform="matrix(12,0,0,12,527.5,471.2)" />
<use xlink:href="#f1_1t" transform="matrix(12,0,0,12,535.9,471.2)" />
<use xlink:href="#f1_1p" transform="matrix(12,0,0,12,549.8,471.2)" />
<use xlink:href="#f1_1h" transform="matrix(12,0,0,12,559,471.2)" />
<use xlink:href="#f1_12" transform="matrix(12,0,0,12,570.5,471.2)" />
<use xlink:href="#f1_1v" transform="matrix(12,0,0,12,582.1,471.2)" />
<use xlink:href="#f1_1m" transform="matrix(12,0,0,12,593.3,471.2)" />
<use xlink:href="#f1_1q" transform="matrix(12,0,0,12,599,471.2)" />
<use xlink:href="#f1_1j" transform="matrix(12,0,0,12,609.6,471.2)" />
<use xlink:href="#f1_1v" transform="matrix(12,0,0,12,620.7,471.2)" />
<use xlink:href="#f1_1s" transform="matrix(12,0,0,12,631.9,471.2)" />
<use xlink:href="#f3_5" transform="matrix(12,0,0,12,640.1,471.2)" />
<use xlink:href="#f1_c" transform="matrix(12,0,0,12,658.4,471.2)" />
<use xlink:href="#f1_b" transform="matrix(12,0,0,12,668.6,471.2)" />
<use xlink:href="#f1_1i" transform="matrix(12,0,0,12,684.2,471.2)" />
<use xlink:href="#f1_1n" transform="matrix(12,0,0,12,699.5,471.2)" />
<use xlink:href="#f1_1p" transform="matrix(12,0,0,12,715.8,471.2)" />
<use xlink:href="#f1_1m" transform="matrix(12,0,0,12,725,471.2)" />
<use xlink:href="#f4_4" transform="matrix(9.6,0,0,9.6,730.7,465)" />
<use xlink:href="#f2_3" transform="matrix(9.6,0,0,9.6,745.4,465)" />
<use xlink:href="#f1_5" transform="matrix(12,0,0,12,753.6,471.2)" />
<use xlink:href="#f1_4" transform="matrix(12,0,0,12,129.7,509.8)" />
<use xlink:href="#f1_1d" transform="matrix(12,0,0,12,135.5,509.8)" />
<use xlink:href="#f1_5" transform="matrix(12,0,0,12,145.3,509.8)" />
<use xlink:href="#f1_m" transform="matrix(12,0,0,12,173,509.8)" />
<use xlink:href="#f1_1m" transform="matrix(12,0,0,12,185.9,509.8)" />
<use xlink:href="#f1_1p" transform="matrix(12,0,0,12,191.3,509.8)" />
<use xlink:href="#f1_1p" transform="matrix(12,0,0,12,200.1,509.8)" />
<use xlink:href="#f1_1f" transform="matrix(12,0,0,12,208.9,509.8)" />
<use xlink:href="#f1_1e" transform="matrix(12,0,0,12,223.9,509.8)" />
<use xlink:href="#f1_1g" transform="matrix(12,0,0,12,231.6,509.8)" />
<use xlink:href="#f1_1m" transform="matrix(12,0,0,12,240.4,509.8)" />
<use xlink:href="#f1_1m" transform="matrix(12,0,0,12,245.8,509.8)" />
<use xlink:href="#f1_1t" transform="matrix(12,0,0,12,251.2,509.8)" />
<use xlink:href="#f1_1c" transform="matrix(12,0,0,12,264.1,509.8)" />
<use xlink:href="#f1_1s" transform="matrix(12,0,0,12,273.9,509.8)" />
<use xlink:href="#f1_1g" transform="matrix(12,0,0,12,281.7,509.8)" />
<use xlink:href="#f1_1k" transform="matrix(12,0,0,12,295.2,509.8)" />
<use xlink:href="#f1_1t" transform="matrix(12,0,0,12,300.6,509.8)" />
<use xlink:href="#f1_1p" transform="matrix(12,0,0,12,308.7,509.8)" />
<use xlink:href="#f1_1u" transform="matrix(12,0,0,12,317.5,509.8)" />
<use xlink:href="#f1_1p" transform="matrix(12,0,0,12,324.4,509.8)" />
<use xlink:href="#f1_1o" transform="matrix(12,0,0,12,333.2,509.8)" />
<use xlink:href="#f1_1k" transform="matrix(12,0,0,12,343.9,509.8)" />
<use xlink:href="#f1_1e" transform="matrix(12,0,0,12,349.4,509.8)" />
<use xlink:href="#f1_1x" transform="matrix(12,0,0,12,361.8,509.8)" />
<use xlink:href="#f1_1k" transform="matrix(12,0,0,12,375.8,509.8)" />
<use xlink:href="#f1_1u" transform="matrix(12,0,0,12,381.2,509.8)" />
<use xlink:href="#f1_1j" transform="matrix(12,0,0,12,388,509.8)" />
<use xlink:href="#f1_9" transform="matrix(12,0,0,12,403.5,509.8)" />
<use xlink:href="#f1_8" transform="matrix(12,0,0,12,413.3,509.8)" />
<use xlink:href="#f1_i" transform="matrix(12,0,0,12,418.1,509.8)" />
<use xlink:href="#f1_3" transform="matrix(12,0,0,12,427.9,509.8)" />
<use xlink:href="#f1_1t" transform="matrix(12,0,0,12,447.6,509.8)" />
<use xlink:href="#f1_1p" transform="matrix(12,0,0,12,455.7,509.8)" />
<use xlink:href="#f1_1f" transform="matrix(12,0,0,12,464.5,509.8)" />
<use xlink:href="#f1_1k" transform="matrix(12,0,0,12,474.7,509.8)" />
<use xlink:href="#f1_1v" transform="matrix(12,0,0,12,480.1,509.8)" />
<use xlink:href="#f1_1n" transform="matrix(12,0,0,12,490.9,509.8)" />
<use xlink:href="#f1_1e" transform="matrix(12,0,0,12,511.6,509.8)" />
<use xlink:href="#f1_1j" transform="matrix(12,0,0,12,519.4,509.8)" />
<use xlink:href="#f1_1m" transform="matrix(12,0,0,12,530.2,509.8)" />
<use xlink:href="#f1_1p" transform="matrix(12,0,0,12,535.6,509.8)" />
<use xlink:href="#f1_1s" transform="matrix(12,0,0,12,544.4,509.8)" />
<use xlink:href="#f1_1k" transform="matrix(12,0,0,12,552.1,509.8)" />
<use xlink:href="#f1_1f" transform="matrix(12,0,0,12,557.5,509.8)" />
<use xlink:href="#f1_1g" transform="matrix(12,0,0,12,567.7,509.8)" />
<use xlink:href="#f1_1t" transform="matrix(12,0,0,12,581.3,509.8)" />
<use xlink:href="#f1_1p" transform="matrix(12,0,0,12,589.4,509.8)" />
<use xlink:href="#f1_1m" transform="matrix(12,0,0,12,598.2,509.8)" />
<use xlink:href="#f1_1v" transform="matrix(12,0,0,12,603.6,509.8)" />
<use xlink:href="#f1_1u" transform="matrix(12,0,0,12,614.4,509.8)" />
<use xlink:href="#f1_1k" transform="matrix(12,0,0,12,621.2,509.8)" />
<use xlink:href="#f1_1p" transform="matrix(12,0,0,12,626.6,509.8)" />
<use xlink:href="#f1_1o" transform="matrix(12,0,0,12,635.4,509.8)" />
<use xlink:href="#f1_8" transform="matrix(12,0,0,12,646.2,509.8)" />
<use xlink:href="#f1_16" transform="matrix(12,0,0,12,660.4,509.8)" />
<use xlink:href="#f1_1j" transform="matrix(12,0,0,12,678,509.8)" />
<use xlink:href="#f1_1c" transform="matrix(12,0,0,12,688.8,509.8)" />
<use xlink:href="#f1_1u" transform="matrix(12,0,0,12,698.6,509.8)" />
<use xlink:href="#f1_1j" transform="matrix(12,0,0,12,710.2,509.8)" />
<use xlink:href="#f1_1c" transform="matrix(12,0,0,12,721,509.8)" />
<use xlink:href="#f1_1q" transform="matrix(12,0,0,12,730.8,509.8)" />
<use xlink:href="#f1_1q" transform="matrix(12,0,0,12,741,509.8)" />
<use xlink:href="#f1_1g" transform="matrix(12,0,0,12,751.2,509.8)" />
<use xlink:href="#f1_1o" transform="matrix(12,0,0,12,760,509.8)" />
<use xlink:href="#f1_1t" transform="matrix(12,0,0,12,770.8,509.8)" />
<use xlink:href="#f1_1k" transform="matrix(12,0,0,12,173,535.4)" />
<use xlink:href="#f1_1h" transform="matrix(12,0,0,12,178.8,535.4)" />
<use xlink:href="#f1_1x" transform="matrix(12,0,0,12,190.4,535.4)" />
<use xlink:href="#f1_1g" transform="matrix(12,0,0,12,204.7,535.4)" />
<use xlink:href="#f1_1q" transform="matrix(12,0,0,12,219.3,535.4)" />
<use xlink:href="#f1_1m" transform="matrix(12,0,0,12,229.8,535.4)" />
<use xlink:href="#f1_1c" transform="matrix(12,0,0,12,235.6,535.4)" />
<use xlink:href="#f1_1e" transform="matrix(12,0,0,12,245.8,535.4)" />
<use xlink:href="#f1_1g" transform="matrix(12,0,0,12,254,535.4)" />
<use xlink:href="#f1_1d" transform="matrix(12,0,0,12,268.6,535.4)" />
<use xlink:href="#f1_1m" transform="matrix(12,0,0,12,278.8,535.4)" />
<use xlink:href="#f1_1p" transform="matrix(12,0,0,12,284.6,535.4)" />
<use xlink:href="#f1_1p" transform="matrix(12,0,0,12,293.8,535.4)" />
<use xlink:href="#f1_1f" transform="matrix(12,0,0,12,303,535.4)" />
<use xlink:href="#f1_1e" transform="matrix(12,0,0,12,318.9,535.4)" />
<use xlink:href="#f1_1g" transform="matrix(12,0,0,12,327.1,535.4)" />
<use xlink:href="#f1_1m" transform="matrix(12,0,0,12,336.3,535.4)" />
<use xlink:href="#f1_1m" transform="matrix(12,0,0,12,342,535.4)" />
<use xlink:href="#f1_1t" transform="matrix(12,0,0,12,347.8,535.4)" />
<use xlink:href="#f1_1k" transform="matrix(12,0,0,12,361.7,535.4)" />
<use xlink:href="#f1_1o" transform="matrix(12,0,0,12,367.5,535.4)" />
<use xlink:href="#f1_1c" transform="matrix(12,0,0,12,384.1,535.4)" />
<use xlink:href="#f1_1t" transform="matrix(12,0,0,12,399.7,535.4)" />
<use xlink:href="#f1_1p" transform="matrix(12,0,0,12,408.2,535.4)" />
<use xlink:href="#f1_1m" transform="matrix(12,0,0,12,417.4,535.4)" />
<use xlink:href="#f1_1v" transform="matrix(12,0,0,12,423.2,535.4)" />
<use xlink:href="#f1_1u" transform="matrix(12,0,0,12,434.4,535.4)" />
<use xlink:href="#f1_1k" transform="matrix(12,0,0,12,441.5,535.4)" />
<use xlink:href="#f1_1p" transform="matrix(12,0,0,12,447.3,535.4)" />
<use xlink:href="#f1_1o" transform="matrix(12,0,0,12,456.5,535.4)" />
<use xlink:href="#f1_1e" transform="matrix(12,0,0,12,473.1,535.4)" />
<use xlink:href="#f1_1p" transform="matrix(12,0,0,12,481.2,535.4)" />
<use xlink:href="#f1_1o" transform="matrix(12,0,0,12,490.4,535.4)" />
<use xlink:href="#f1_1u" transform="matrix(12,0,0,12,501.6,535.4)" />
<use xlink:href="#f1_1c" transform="matrix(12,0,0,12,508.8,535.4)" />
<use xlink:href="#f1_1k" transform="matrix(12,0,0,12,519,535.4)" />
<use xlink:href="#f1_1o" transform="matrix(12,0,0,12,524.8,535.4)" />
<use xlink:href="#f1_1k" transform="matrix(12,0,0,12,535.9,535.4)" />
<use xlink:href="#f1_1o" transform="matrix(12,0,0,12,541.7,535.4)" />
<use xlink:href="#f1_1i" transform="matrix(12,0,0,12,552.9,535.4)" />
<use xlink:href="#f1_k" transform="matrix(12,0,0,12,568.2,535.4)" />
<use xlink:href="#f1_4" transform="matrix(12,0,0,12,173,574.2)" />
<use xlink:href="#f1_1k" transform="matrix(12,0,0,12,178.7,574.2)" />
<use xlink:href="#f1_5" transform="matrix(12,0,0,12,184,574.2)" />
<use xlink:href="#f1_a" transform="matrix(12,0,0,12,216.3,574.2)" />
<use xlink:href="#f1_8" transform="matrix(12,0,0,12,226.5,574.2)" />
<use xlink:href="#f1_b" transform="matrix(12,0,0,12,231.6,574.2)" />
<use xlink:href="#f1_3" transform="matrix(12,0,0,12,241.8,574.2)" />
<use xlink:href="#f1_1t" transform="matrix(12,0,0,12,262.2,574.2)" />
<use xlink:href="#f1_1p" transform="matrix(12,0,0,12,270.7,574.2)" />
<use xlink:href="#f1_1f" transform="matrix(12,0,0,12,279.9,574.2)" />
<use xlink:href="#f1_1k" transform="matrix(12,0,0,12,290.4,574.2)" />
<use xlink:href="#f1_1v" transform="matrix(12,0,0,12,296.2,574.2)" />
<use xlink:href="#f1_1n" transform="matrix(12,0,0,12,307.3,574.2)" />
<use xlink:href="#f1_1e" transform="matrix(12,0,0,12,328.8,574.2)" />
<use xlink:href="#f1_1j" transform="matrix(12,0,0,12,336.9,574.2)" />
<use xlink:href="#f1_1m" transform="matrix(12,0,0,12,348.1,574.2)" />
<use xlink:href="#f1_1p" transform="matrix(12,0,0,12,353.8,574.2)" />
<use xlink:href="#f1_1s" transform="matrix(12,0,0,12,363,574.2)" />
<use xlink:href="#f1_1k" transform="matrix(12,0,0,12,371.1,574.2)" />
<use xlink:href="#f1_1f" transform="matrix(12,0,0,12,376.9,574.2)" />
<use xlink:href="#f1_1g" transform="matrix(12,0,0,12,387.4,574.2)" />
<use xlink:href="#f1_1t" transform="matrix(12,0,0,12,401.7,574.2)" />
<use xlink:href="#f1_1p" transform="matrix(12,0,0,12,410.2,574.2)" />
<use xlink:href="#f1_1m" transform="matrix(12,0,0,12,419.3,574.2)" />
<use xlink:href="#f1_1v" transform="matrix(12,0,0,12,425.1,574.2)" />
<use xlink:href="#f1_1u" transform="matrix(12,0,0,12,436.3,574.2)" />
<use xlink:href="#f1_1k" transform="matrix(12,0,0,12,443.4,574.2)" />
<use xlink:href="#f1_1p" transform="matrix(12,0,0,12,449.2,574.2)" />
<use xlink:href="#f1_1o" transform="matrix(12,0,0,12,458.4,574.2)" />
<use xlink:href="#f1_4" transform="matrix(12,0,0,12,173,612.8)" />
<use xlink:href="#f1_1k" transform="matrix(12,0,0,12,178.9,612.8)" />
<use xlink:href="#f1_1k" transform="matrix(12,0,0,12,184.3,612.8)" />
<use xlink:href="#f1_5" transform="matrix(12,0,0,12,189.8,612.8)" />
<use xlink:href="#f1_9" transform="matrix(12,0,0,12,216.3,612.8)" />
<use xlink:href="#f1_8" transform="matrix(12,0,0,12,226.6,612.8)" />
<use xlink:href="#f1_d" transform="matrix(12,0,0,12,231.7,612.8)" />
<use xlink:href="#f1_3" transform="matrix(12,0,0,12,241.9,612.8)" />
<use xlink:href="#f1_1t" transform="matrix(12,0,0,12,262.3,612.8)" />
<use xlink:href="#f1_1p" transform="matrix(12,0,0,12,270.7,612.8)" />
<use xlink:href="#f1_1f" transform="matrix(12,0,0,12,279.9,612.8)" />
<use xlink:href="#f1_1k" transform="matrix(12,0,0,12,290.4,612.8)" />
<use xlink:href="#f1_1v" transform="matrix(12,0,0,12,296.2,612.8)" />
<use xlink:href="#f1_1n" transform="matrix(12,0,0,12,307.4,612.8)" />
<use xlink:href="#f1_1e" transform="matrix(12,0,0,12,328.8,612.8)" />
<use xlink:href="#f1_1j" transform="matrix(12,0,0,12,336.9,612.8)" />
<use xlink:href="#f1_1m" transform="matrix(12,0,0,12,348.1,612.8)" />
<use xlink:href="#f1_1p" transform="matrix(12,0,0,12,353.9,612.8)" />
<use xlink:href="#f1_1s" transform="matrix(12,0,0,12,363,612.8)" />
<use xlink:href="#f1_1k" transform="matrix(12,0,0,12,371.2,612.8)" />
<use xlink:href="#f1_1f" transform="matrix(12,0,0,12,376.9,612.8)" />
<use xlink:href="#f1_1g" transform="matrix(12,0,0,12,387.5,612.8)" />
<use xlink:href="#f1_1t" transform="matrix(12,0,0,12,401.7,612.8)" />
<use xlink:href="#f1_1p" transform="matrix(12,0,0,12,410.2,612.8)" />
<use xlink:href="#f1_1m" transform="matrix(12,0,0,12,419.4,612.8)" />
<use xlink:href="#f1_1v" transform="matrix(12,0,0,12,425.1,612.8)" />
<use xlink:href="#f1_1u" transform="matrix(12,0,0,12,436.3,612.8)" />
<use xlink:href="#f1_1k" transform="matrix(12,0,0,12,443.5,612.8)" />
<use xlink:href="#f1_1p" transform="matrix(12,0,0,12,449.2,612.8)" />
<use xlink:href="#f1_1o" transform="matrix(12,0,0,12,458.4,612.8)" />
</g>
<defs>
<path d="M354,0V148H581c3,0,6,0,9,0c52,0,91,12,113,35c24,25,36,66,36,124V1688c0,31,-9,57,-30,74c-20,16,-49,26,-90,27H296v148c161,9,295,28,404,58c110,29,221,74,334,133h119V261c0,-36,10,-65,31,-85c18,-19,45,-28,77,-28c2,0,5,0,7,0h284V0Z" 
id="f0_6"
transform="scale(4.8828125E-4,-4.8828125E-4)" />

<path d="M932,89c2,0,3,0,5,0c1,0,2,0,4,0c77,0,142,39,193,119c53,79,78,217,78,408c0,185,-23,313,-72,385c-48,70,-112,107,-190,108C874,1108,805,1065,743,982C681,897,651,778,651,622c0,-179,33,-321,98,-423C795,127,856,89,932,89Zm9,-148C717,-59,538,21,406,183C254,373,177,633,177,963c0,372,93,675,278,904c165,203,368,306,611,306c156,0,280,-40,375,-117c94,-78,140,-166,140,-267c0,-75,-21,-136,-67,-182c-44,-47,-101,-70,-168,-70c-60,0,-108,18,-148,60c-40,39,-60,90,-60,151c0,44,14,87,37,131c15,25,23,46,23,63c0,23,-11,43,-34,59c-23,16,-55,23,-101,25C932,2024,834,1954,768,1813C686,1639,648,1403,651,1100c66,72,136,125,208,160c71,36,146,55,224,55c148,0,280,-53,397,-157c118,-104,176,-260,176,-467c0,-227,-66,-408,-198,-544C1326,8,1153,-59,941,-59Z" 
id="f0_b"
transform="scale(4.8828125E-4,-4.8828125E-4)" />

<path d="M798,-59C611,-59,460,-10,347,87C235,183,177,303,177,440c0,92,25,163,75,218c49,54,110,80,185,81c67,-1,121,-22,163,-65c45,-41,65,-93,65,-155c0,-44,-10,-84,-29,-114C616,371,578,341,521,310C480,286,458,263,458,241c0,-35,22,-67,66,-93C586,108,659,89,742,89c3,0,7,0,10,0c1,0,3,0,5,0c106,0,191,47,254,137c66,92,98,249,98,474c0,188,-30,325,-93,411c-61,87,-141,130,-237,131c-44,-1,-91,-11,-143,-27c-52,-17,-107,-43,-167,-77c0,-81,-11,-134,-31,-163C420,947,394,932,359,932c-1,0,-3,0,-5,0c-2,0,-5,0,-7,0c-29,0,-51,7,-67,23c-19,17,-28,38,-28,64c0,38,29,98,89,177l73,977c217,-48,411,-74,584,-74c5,0,10,0,15,0c7,0,13,0,20,0c127,0,233,14,318,41c35,11,56,17,62,19c14,-2,22,-12,22,-31c0,-69,-26,-140,-78,-215c-52,-77,-119,-133,-204,-171c-79,-37,-179,-57,-301,-57c-4,0,-9,0,-13,0c-6,0,-12,0,-19,0c-91,0,-194,11,-307,31L481,1303c77,34,147,58,214,75c66,17,128,26,187,26c192,0,359,-66,495,-194c137,-130,204,-302,204,-516c0,-223,-70,-405,-215,-544C1222,9,1033,-59,798,-59Z" 
id="f0_a"
transform="scale(4.8828125E-4,-4.8828125E-4)" />

<path d="M-51,0L631,2261H924L241,0Z" 
id="f0_4"
transform="scale(4.8828125E-4,-4.8828125E-4)" />

<path d="M1077,-59C840,-59,625,23,431,191L252,-28H148V798H281C412,325,680,89,1082,89c2,0,3,0,4,0c3,0,7,0,10,0c162,0,287,38,378,114c92,77,138,173,138,289c0,79,-20,147,-61,203c-40,54,-103,98,-187,133c-47,17,-162,46,-343,87C775,969,597,1027,490,1086c-108,58,-187,130,-236,217c-51,84,-77,190,-77,313c0,208,71,376,210,508c140,131,328,195,563,197c226,-2,433,-78,621,-233l143,204h89l15,-784H1685c-70,220,-172,386,-304,498c-131,110,-276,167,-435,167c-135,0,-246,-39,-330,-114C530,1983,487,1894,487,1791c0,-63,17,-121,51,-173c33,-50,85,-95,159,-131c73,-37,201,-77,386,-117c217,-48,367,-90,451,-125c134,-59,235,-139,302,-234c68,-97,101,-215,101,-351c0,-209,-73,-374,-217,-497C1546,14,1332,-59,1077,-59Z" 
id="f0_k"
transform="scale(4.8828125E-4,-4.8828125E-4)" />

<path d="M993,-606C830,-460,706,-338,622,-236C486,-72,382,99,312,280C241,461,206,651,206,848c0,194,34,377,100,553c65,174,163,342,290,501c88,109,221,243,397,403l41,-84C886,2067,776,1930,704,1806C634,1681,581,1540,544,1383C506,1225,487,1043,487,839c0,-200,20,-378,58,-532C585,151,642,8,715,-118c73,-130,179,-266,319,-408l-41,-80Z" 
id="f1_4"
transform="scale(4.8828125E-4,-4.8828125E-4)" />

<path d="M652,60c2,0,4,0,6,0c2,0,4,0,6,0c119,0,224,45,311,137c90,92,134,208,134,348V753C846,717,660,658,550,576C469,513,429,426,429,313c0,-81,22,-143,63,-188C533,82,586,60,652,60ZM597,-43C451,-43,339,-13,263,49C186,112,148,193,148,292c0,148,87,270,263,368c174,98,408,163,698,197v226c0,80,-30,147,-93,205c-61,56,-139,85,-234,87c-87,-2,-163,-20,-227,-58c-45,-29,-68,-57,-68,-83c0,-16,13,-41,34,-74c27,-43,41,-81,41,-112c0,-49,-15,-87,-44,-116C489,903,453,888,407,888c-2,0,-4,0,-7,0c-2,0,-4,0,-6,0c-48,0,-88,16,-121,50c-33,35,-51,80,-51,135c0,100,58,192,172,278c115,84,264,126,451,128c173,-2,304,-40,394,-113c90,-77,136,-168,136,-275V295c0,-72,11,-124,32,-156c22,-34,48,-50,81,-50c2,0,3,0,5,0c1,0,3,0,5,0c38,0,78,15,118,44l54,-76C1595,-10,1513,-43,1421,-43c-70,0,-130,16,-177,51c-48,35,-91,99,-126,189C1022,99,937,35,863,3C788,-28,701,-43,597,-43Z" 
id="f1_1c"
transform="scale(4.8828125E-4,-4.8828125E-4)" />

<path d="M70,-606l-41,80c141,142,246,278,321,406C423,8,480,151,518,307c40,154,58,332,58,530c0,206,-18,388,-55,546c-38,157,-93,298,-165,423C287,1930,177,2069,29,2221l41,84C249,2143,379,2012,461,1913C590,1754,689,1586,756,1409C823,1230,857,1043,857,848C857,654,825,471,759,301C695,128,597,-39,466,-204C373,-320,241,-454,70,-606Z" 
id="f1_5"
transform="scale(4.8828125E-4,-4.8828125E-4)" />

<path d="M1259,-43C1071,-43,898,2,741,96C584,189,457,324,364,501C269,678,222,872,222,1083c0,225,48,434,146,631c96,196,220,344,371,443c153,98,317,148,491,148c98,0,192,-16,284,-48c90,-33,191,-89,298,-170l95,218h119l44,-915H1951c-66,255,-151,445,-252,569c-127,151,-277,227,-452,229c-190,-2,-344,-86,-463,-254C666,1763,607,1479,607,1076C607,735,674,477,811,299C929,148,1092,73,1303,73c185,0,339,58,463,176c125,118,206,296,245,535h103C2082,516,1991,312,1836,170C1684,26,1493,-43,1259,-43Z" 
id="f1_n"
transform="scale(4.8828125E-4,-4.8828125E-4)" />

<path d="M89,0V118H238c51,0,86,10,110,33c25,22,37,54,37,95V1983c0,49,-14,87,-40,112c-36,30,-81,47,-133,48H89v118l562,31V214c0,-29,7,-51,24,-66c26,-21,57,-30,93,-30H917V0Z" 
id="f1_1m"
transform="scale(4.8828125E-4,-4.8828125E-4)" />

<path d="M778,-43C579,-43,417,20,292,153C167,284,104,460,104,678c0,254,69,450,205,590c137,139,298,209,482,211c139,-2,254,-40,344,-115c92,-78,136,-162,136,-255c0,-56,-17,-102,-52,-139c-32,-35,-72,-53,-117,-53c-1,0,-3,0,-5,0c-2,0,-4,0,-6,0c-43,0,-81,16,-112,46c-30,30,-47,68,-47,113c0,42,17,85,49,126c17,19,24,34,24,46c0,28,-18,57,-56,84c-40,28,-92,41,-158,43C671,1373,579,1329,518,1238C429,1105,385,930,385,715C385,509,425,351,504,246C583,142,683,89,805,89c1,0,3,0,5,0c1,0,2,0,3,0c170,0,295,114,377,340l112,-30C1222,102,1047,-43,778,-43Z" 
id="f1_1e"
transform="scale(4.8828125E-4,-4.8828125E-4)" />

<path d="M788,-14C663,-14,556,28,471,115C383,200,341,345,341,550v622c0,53,-22,95,-66,124c-31,19,-92,30,-186,35v117l518,16V523c0,-117,27,-205,84,-268c56,-62,128,-93,217,-93c108,0,201,44,279,136c76,92,115,206,115,344v530c0,49,-17,85,-52,113c-35,26,-103,41,-200,46v117l518,16V286c0,-55,13,-97,42,-126c29,-29,71,-42,123,-42h85V0L1331,-14l-29,312C1216,193,1132,115,1048,63C963,11,877,-14,788,-14Z" 
id="f1_1v"
transform="scale(4.8828125E-4,-4.8828125E-4)" />

<path d="M706,-14C587,-14,493,17,426,81C359,147,325,231,325,338v962H73v101c118,18,207,67,268,144c90,113,139,273,146,481H591V1435h459V1300H591V368c0,-82,20,-143,57,-186c36,-43,84,-64,140,-64c69,0,129,33,176,99c49,66,78,176,86,330h103C1147,356,1103,214,1022,122C941,31,836,-14,706,-14Z" 
id="f1_1u"
transform="scale(4.8828125E-4,-4.8828125E-4)" />

<path d="M1060,798c40,0,71,12,92,38c20,24,31,67,31,130c0,113,-36,209,-109,288c-73,80,-159,119,-258,121C704,1373,611,1326,535,1230C457,1134,417,990,414,798ZM816,-43C623,-43,461,24,330,163C199,303,133,480,133,698c0,231,66,420,195,564c132,144,292,215,483,217c141,-2,263,-38,364,-110c102,-73,180,-179,231,-313c36,-97,56,-217,58,-361H414C420,478,461,325,539,238C627,139,739,89,874,89c2,0,4,0,6,0c1,0,3,0,4,0c201,0,363,114,486,340l94,-44C1314,98,1098,-43,816,-43Z" 
id="f1_1g"
transform="scale(4.8828125E-4,-4.8828125E-4)" />

<path d="M104,0V118h87c60,0,102,10,127,33c24,23,36,58,36,107V1962c0,59,-15,105,-48,136c-33,29,-80,44,-141,45H60v118l560,31V1186c75,96,156,169,242,218c85,49,175,73,270,75c92,-2,174,-25,246,-66c57,-36,104,-98,144,-183c41,-87,59,-190,59,-307V243c0,-44,12,-76,34,-96c21,-20,55,-29,99,-29h119V0H1065V118h82c65,0,109,9,133,30c23,22,35,52,35,95V923c0,117,-27,209,-82,278c-57,66,-128,99,-215,99c-68,0,-130,-20,-188,-56C772,1205,723,1147,681,1071C642,995,620,914,620,828V258c0,-52,13,-88,32,-108c20,-23,55,-32,103,-32H872V0Z" 
id="f1_1j"
transform="scale(4.8828125E-4,-4.8828125E-4)" />

<path d="M952,89c102,0,183,47,244,139c80,117,119,285,119,504c0,214,-33,370,-103,467c-71,97,-156,145,-262,145c-114,0,-207,-50,-281,-149C597,1094,562,929,562,700C562,480,597,324,668,229C738,136,830,89,942,89c2,0,3,0,5,0c2,0,3,0,5,0ZM325,-14L266,0c21,116,30,238,30,365V1983c0,49,-16,87,-50,118c-34,27,-81,41,-142,42H44v118l518,31V1228c60,83,127,145,199,187c73,41,153,62,238,64c168,-2,309,-67,425,-199c116,-131,173,-304,173,-518c0,-233,-62,-421,-187,-563C1285,55,1131,-14,946,-14C859,-14,779,2,707,37C637,72,564,131,487,215C431,121,377,44,325,-14Z" 
id="f1_1d"
transform="scale(4.8828125E-4,-4.8828125E-4)" />

<path d="M784,60c117,0,215,53,287,157c75,105,112,280,112,522c0,224,-36,384,-110,485c-74,101,-172,149,-294,151C665,1373,570,1322,495,1216C422,1111,385,947,385,721C385,490,422,322,495,217C567,113,660,60,774,60c2,0,4,0,5,0c2,0,3,0,5,0ZM770,-43C585,-43,426,24,298,167C168,307,104,490,104,717c0,224,66,407,194,548c131,141,290,212,481,214c194,-2,356,-72,488,-211c131,-140,197,-324,197,-551c0,-158,-29,-292,-89,-402C1317,203,1233,116,1123,52C1014,-11,897,-43,770,-43Z" 
id="f1_1p"
transform="scale(4.8828125E-4,-4.8828125E-4)" />

<path d="M89,0V118H248c47,0,80,9,103,32c22,20,34,52,34,93v875c0,54,-17,97,-49,124c-33,28,-81,43,-145,44H73v118l578,31V218c0,-33,9,-58,26,-70c26,-21,56,-30,95,-30H946V0ZM474,1922c-43,0,-81,17,-113,47c-33,31,-51,71,-51,115c0,41,18,79,52,113c34,32,73,49,118,50c46,-1,85,-18,119,-50c35,-34,52,-72,52,-116c0,-44,-17,-81,-51,-112c-32,-30,-70,-47,-114,-47c-2,0,-4,0,-6,0c-2,0,-4,0,-6,0Z" 
id="f1_1k"
transform="scale(4.8828125E-4,-4.8828125E-4)" />

<path d="M118,0V118h99c50,0,89,9,115,30c24,19,38,45,38,75v909c0,58,-16,106,-48,136c-30,31,-76,47,-134,47H118v120l473,29c20,-89,35,-191,45,-307c62,105,137,186,223,239c87,54,184,81,293,83c93,-2,173,-21,235,-58c63,-38,115,-98,153,-179c38,-81,57,-173,57,-273V263c0,-54,12,-90,35,-112c23,-23,62,-33,116,-33h101V0H1079V118h71c68,0,115,9,141,32c26,21,40,53,40,96V863c0,133,-20,234,-60,300c-55,91,-137,137,-249,137c-110,0,-202,-47,-275,-139C672,1066,636,946,636,796V263c0,-54,12,-92,36,-112c23,-23,63,-33,116,-33H888V0Z" 
id="f1_1o"
transform="scale(4.8828125E-4,-4.8828125E-4)" />

<path d="M801,-502c175,0,308,29,397,86c88,58,133,121,133,191c0,41,-14,79,-42,116c-27,35,-71,63,-132,81C1097,-10,1008,0,892,0C704,0,570,-25,490,-77C411,-129,370,-190,370,-262c0,-69,30,-122,90,-162c79,-52,194,-78,341,-78Zm4,1108c87,0,160,34,217,100c58,67,87,163,87,290c0,115,-30,208,-88,277c-60,67,-133,100,-223,102c-91,-2,-164,-35,-222,-99c-58,-66,-89,-158,-89,-274c0,-127,31,-224,89,-293C633,640,704,606,793,606c2,0,4,0,6,1c2,-1,4,-1,6,-1ZM764,-606c-220,0,-384,40,-491,121c-82,61,-125,132,-125,211c0,58,26,113,80,163c53,49,143,88,269,111C396,24,319,60,269,108c-51,49,-76,110,-76,182c0,66,21,124,64,174c41,49,114,91,220,129C387,639,319,695,275,762c-44,68,-69,144,-69,233c0,136,57,250,165,343c109,94,252,139,427,141c71,-2,140,-12,206,-31c67,-18,131,-47,194,-87c105,97,201,145,290,147c52,-2,96,-17,131,-47c36,-31,51,-69,51,-110c0,-37,-11,-66,-35,-91c-22,-21,-48,-33,-76,-33c-2,0,-4,0,-5,0c-1,0,-3,0,-4,0c-57,0,-96,35,-115,104c-10,29,-25,42,-45,44c-35,-2,-75,-24,-119,-70c46,-61,77,-115,93,-159c17,-46,26,-93,26,-144c0,-91,-21,-171,-64,-240C1283,694,1212,633,1112,581C1016,529,923,503,836,503c-3,0,-5,0,-8,0H662C544,501,466,489,426,464C390,437,370,399,370,350c0,-43,15,-75,47,-96c31,-22,92,-32,177,-32l378,15c189,-2,327,-34,411,-96c84,-65,125,-151,125,-261c0,-122,-47,-226,-145,-308C1230,-547,1030,-606,764,-606Z" 
id="f1_1i"
transform="scale(4.8828125E-4,-4.8828125E-4)" />

<path d="M1006,89c105,0,187,42,242,128c75,111,112,278,112,495c0,226,-34,388,-101,486c-66,98,-151,146,-257,146c-110,0,-203,-55,-281,-165C645,1069,607,911,607,704C607,493,643,338,717,238C790,139,883,89,996,89c1,0,3,0,5,0c2,0,3,0,5,0ZM89,-590v117H193c48,0,87,10,110,29c25,19,38,45,38,75V1121c0,68,-17,117,-51,147c-33,28,-101,44,-201,47v120l463,29c22,-103,36,-201,39,-294c71,112,144,190,220,237c78,46,162,70,252,72c98,-2,191,-32,280,-93c89,-61,159,-150,215,-268c55,-119,83,-252,83,-398c0,-237,-67,-431,-202,-579C1326,17,1193,-43,1037,-43c-88,0,-169,21,-241,67C726,69,662,138,607,229V-343c0,-44,10,-76,30,-93c28,-24,67,-37,115,-37H857V-590Z" 
id="f1_1q"
transform="scale(4.8828125E-4,-4.8828125E-4)" />

<path d="M73,0V118H194c55,0,93,9,113,27c23,17,34,46,34,86V1300H89v135H341v102c0,254,53,448,160,582c107,133,238,200,396,202c119,-2,211,-29,275,-86c67,-58,99,-133,99,-223c0,-61,-15,-108,-46,-144c-30,-35,-68,-50,-117,-50c-43,0,-78,12,-106,40c-27,27,-41,62,-41,104c0,47,17,85,49,117c27,23,40,42,40,55c0,17,-11,31,-34,46c-23,14,-57,22,-102,23c-87,-1,-159,-40,-219,-116c-59,-76,-88,-189,-88,-339V1435H961V1300H607V257c0,-49,10,-83,33,-101c29,-26,72,-38,127,-38H961V0Z" 
id="f1_1h"
transform="scale(4.8828125E-4,-4.8828125E-4)" />

<path d="M784,-43C642,-43,509,2,387,96L275,-28H193L162,532H266C332,353,406,229,489,160C571,93,672,60,791,60c3,0,5,0,8,0c3,0,7,0,10,0c110,0,193,24,253,71c61,49,91,113,91,190c0,43,-12,79,-33,113c-23,32,-54,56,-92,73c-40,16,-142,40,-307,72C564,611,454,643,391,678C328,712,280,759,244,820c-35,60,-51,126,-51,198c0,106,35,204,105,293c90,111,217,166,380,168c126,-2,240,-52,346,-154l100,110h63l40,-518H1123c-44,160,-105,278,-180,350c-77,71,-170,106,-280,108c-96,-2,-171,-27,-226,-79c-55,-51,-83,-115,-83,-187c0,-67,26,-122,75,-163C480,900,579,866,726,842c172,-29,284,-54,336,-74c81,-30,143,-76,188,-139c44,-62,65,-140,65,-229C1315,275,1267,170,1166,84C1066,-1,938,-43,784,-43Z" 
id="f1_1t"
transform="scale(4.8828125E-4,-4.8828125E-4)" />

<path d="M730,-43L232,1224c-15,35,-35,58,-55,70c-20,11,-55,18,-104,21v120H697V1315H614c-40,0,-70,-7,-87,-18c-17,-12,-26,-27,-26,-46c0,-21,5,-44,15,-65L836,373l278,768c-34,84,-66,136,-96,152c-30,15,-81,22,-156,22v120h687V1315h-58c-52,0,-88,-7,-108,-19c-22,-13,-31,-31,-31,-51c0,-20,5,-38,14,-59L1693,373l260,722c18,45,25,83,25,117c0,30,-12,53,-39,73c-26,15,-77,27,-150,30v120h558V1315c-69,-10,-123,-32,-158,-61c-35,-32,-65,-78,-90,-139L1681,-43h-91L1189,955L825,-43Z" 
id="f1_1x"
transform="scale(4.8828125E-4,-4.8828125E-4)" />

<path d="M148,0V84L591,594c248,269,396,440,446,512c72,98,124,194,156,287c34,92,49,178,49,255c0,126,-35,225,-104,298c-69,72,-165,107,-285,109C715,2053,602,2020,515,1953C428,1884,385,1812,385,1736c0,-26,6,-46,18,-58c14,-16,40,-28,80,-37c102,-26,153,-87,153,-185c0,-55,-17,-99,-52,-133c-33,-34,-75,-52,-126,-52c-2,0,-4,0,-6,0c-1,0,-3,0,-4,0c-60,0,-112,29,-156,86c-48,58,-70,133,-70,226c0,104,27,197,81,284c53,84,132,154,241,209c108,54,224,81,348,83c124,-2,239,-28,344,-81c105,-54,185,-122,237,-208c53,-86,79,-179,79,-280c0,-70,-12,-142,-39,-213c-26,-72,-65,-139,-117,-202C1309,1065,1219,972,1126,897L721,558C620,472,545,400,500,341c-48,-61,183,-90,689,-90c78,0,131,19,163,59c34,38,70,147,112,326h104L1519,0Z" 
id="f1_b"
transform="scale(4.8828125E-4,-4.8828125E-4)" />

<path d="M133,0V118c108,3,195,38,260,107c64,65,94,149,94,247V2018l-13,17c-36,46,-66,76,-92,87c-32,14,-76,20,-131,21H133v118H680L2040,460V1762c0,129,-28,227,-87,291c-54,57,-133,87,-239,90v118h784V2143c-80,-1,-139,-12,-177,-33c-40,-25,-74,-64,-104,-124c-29,-59,-44,-124,-44,-192V0H2027L620,1867V492c0,-127,34,-219,98,-280c64,-61,165,-93,303,-94V0Z" 
id="f1_y"
transform="scale(4.8828125E-4,-4.8828125E-4)" />

<path d="M148,0V81L597,590c252,270,402,440,451,512c73,97,127,194,159,287c34,93,49,179,49,255c0,125,-34,224,-104,298c-69,72,-165,108,-290,110C723,2050,608,2017,521,1949C434,1881,388,1810,388,1736c0,-28,8,-48,20,-58c12,-16,40,-28,81,-37c105,-25,157,-87,157,-183c0,-54,-17,-98,-52,-132c-33,-34,-77,-50,-129,-50c-2,0,-4,0,-7,0c-1,0,-3,0,-4,0c-61,0,-114,29,-161,84c-47,56,-71,133,-71,227c0,103,27,197,79,283c53,84,134,153,243,209c108,54,224,81,348,83c122,-2,237,-28,342,-81c107,-54,185,-124,239,-209c53,-88,79,-181,79,-283c0,-72,-12,-144,-39,-214c-26,-75,-66,-142,-118,-205C1308,1060,1218,967,1124,891L720,550C617,461,542,390,495,330c-45,-60,174,-90,655,-90c12,0,24,0,36,0c2,0,5,0,8,0c72,0,124,20,155,58c32,40,69,150,112,330h110L1517,0Z" 
id="f2_4"
transform="scale(4.8828125E-4,-4.8828125E-4)" />

<path d="M1073,-43C836,-43,629,29,455,177L281,-28H177V842H281C324,603,422,416,571,280C721,141,891,73,1079,73c152,0,278,45,374,133c96,87,144,194,144,323c0,70,-17,133,-52,188c-36,53,-92,99,-170,137c-76,37,-228,83,-454,136c-247,58,-417,125,-508,199C286,1291,222,1439,222,1630c0,197,65,358,194,486c129,125,293,189,495,189c96,0,189,-18,276,-50c86,-35,177,-92,269,-171l141,208h103V1464H1597c-63,250,-158,434,-282,550c-123,114,-267,172,-427,174C753,2186,643,2147,558,2067C472,1988,429,1890,429,1777c0,-72,17,-136,49,-190c32,-55,80,-97,145,-131c65,-34,185,-72,362,-110c251,-57,427,-115,529,-170c102,-58,179,-128,229,-212c51,-87,75,-186,75,-299c0,-205,-69,-375,-208,-509C1471,21,1291,-43,1073,-43Z" 
id="f1_12"
transform="scale(4.8828125E-4,-4.8828125E-4)" />

<path d="M1207,73c131,0,246,35,345,106c100,69,179,180,237,331c60,153,89,352,89,599c0,269,-28,480,-84,631c-55,151,-133,264,-236,338c-100,72,-215,108,-342,110c-198,-2,-359,-83,-483,-246C610,1777,547,1509,547,1140C547,736,611,457,738,304C863,150,1021,73,1207,73Zm-6,-116C1021,-43,849,3,691,102C532,200,403,342,307,527C212,709,162,914,162,1140c0,220,47,418,141,596c93,177,221,316,383,418c162,101,330,151,506,151c191,0,371,-50,537,-149c165,-100,297,-240,392,-419c94,-179,140,-380,140,-602c0,-226,-46,-428,-142,-608C2026,347,1894,206,1729,107C1563,5,1387,-43,1201,-43Z" 
id="f1_z"
transform="scale(4.8828125E-4,-4.8828125E-4)" />

<path d="M1016,646V1694L275,646ZM703,0V112H860c3,-1,7,-1,10,-1c49,0,85,11,108,33c26,19,38,52,38,96V536H148V652L1176,2107h100V646h350V536H1276V214c0,-31,10,-52,33,-69c30,-23,66,-34,105,-34c3,0,6,0,8,1h130V0Z" 
id="f2_6"
transform="scale(4.8828125E-4,-4.8828125E-4)" />

<path d="M60,0V118c137,7,230,38,281,88c49,51,73,141,73,272V2032c0,38,-11,66,-35,84c-23,17,-67,26,-130,27H60v118H801L1485,475l625,1786h773V2143H2695c-66,-1,-110,-10,-133,-29c-23,-21,-34,-53,-34,-100V229c0,-36,14,-64,42,-82c27,-20,73,-29,140,-29h173V0H1849V118h191c56,0,97,9,123,30c26,22,40,48,40,81V2147L1451,0h-85L547,2137V497c0,-98,12,-172,35,-220c25,-49,58,-86,102,-112c45,-26,117,-41,217,-47V0Z" 
id="f1_x"
transform="scale(4.8828125E-4,-4.8828125E-4)" />

<path d="M651,576V753H2484V576Zm0,547v177H2484V1123Z" 
id="f3_5"
transform="scale(4.8828125E-4,-4.8828125E-4)" />

<path d="M414,0V118H660c52,0,92,12,116,36c25,25,37,57,37,100V1684c0,29,-11,53,-34,73c-23,21,-53,31,-90,32H354v118c158,20,286,49,382,84c98,35,184,81,259,137h70V215c0,-29,9,-50,30,-65c31,-23,68,-32,110,-32h303V0Z" 
id="f1_a"
transform="scale(4.8828125E-4,-4.8828125E-4)" />

<path d="M1021,665V1702L275,665ZM709,0V118H866c54,0,92,10,116,33c26,22,39,54,39,98V547H148V684L1184,2128h102V665h355V547H1286V222c0,-29,13,-52,34,-69c34,-23,72,-35,115,-35h133V0Z" 
id="f1_d"
transform="scale(4.8828125E-4,-4.8828125E-4)" />

<path d="M133,0V118H249c44,0,78,9,101,30c23,19,35,45,35,78v926c0,50,-14,89,-40,113c-26,26,-76,43,-152,50v120l414,29c21,-104,36,-202,44,-294c75,112,151,191,227,239c75,45,159,68,250,70c97,-2,178,-29,241,-80c63,-53,111,-139,145,-255c67,110,142,194,225,251c84,55,172,82,270,84c130,-2,228,-41,290,-119c84,-104,126,-237,126,-399V241c0,-44,12,-73,33,-88c32,-23,78,-35,139,-35h78V0H1907V118h76c64,0,110,9,136,30c26,22,40,52,40,93V963c0,106,-26,189,-75,249c-51,58,-116,88,-199,88c-61,0,-116,-18,-166,-52c-51,-35,-90,-85,-119,-148c-42,-92,-63,-171,-63,-234V241c0,-42,12,-74,37,-93c24,-21,61,-30,110,-30h105V0H1021V118h87c55,0,96,9,123,30c28,22,40,48,40,80V897c0,139,-23,243,-70,307c-48,64,-112,96,-193,96c-104,0,-183,-37,-240,-111C691,1083,651,959,651,820V241c0,-44,11,-74,30,-90c31,-23,78,-33,141,-33h79V0Z" 
id="f1_1n"
transform="scale(4.8828125E-4,-4.8828125E-4)" />

<path d="M646,831v185H2477V831Z" 
id="f4_4"
transform="scale(4.8828125E-4,-4.8828125E-4)" />

<path d="M406,0V112H658c4,-1,7,-1,10,-1c49,0,84,11,107,36c26,24,38,58,38,99V1668c0,28,-11,54,-34,75c-24,20,-53,29,-90,31H351v111c159,20,288,48,387,83c99,35,188,81,263,139h72V208c0,-31,9,-52,30,-66c29,-20,63,-31,102,-31c3,0,5,0,8,1h303V0Z" 
id="f2_3"
transform="scale(4.8828125E-4,-4.8828125E-4)" />

<path d="M781,118c111,0,206,52,284,159c79,105,118,261,118,466c0,192,-42,343,-127,455c-72,98,-162,146,-271,146c-108,0,-195,-45,-259,-136C461,1118,429,966,429,752c0,-234,32,-398,98,-492C593,165,677,118,781,118ZM726,-14C565,-14,429,52,316,188C205,324,148,504,148,729c0,241,72,434,216,579c113,113,243,169,389,171c90,-2,171,-26,243,-72c72,-47,135,-118,187,-211v808c0,42,-16,75,-48,101c-32,25,-82,37,-150,38H888v118l560,31V330c0,-76,17,-131,48,-163c32,-34,79,-49,140,-49h109V0H1227l-44,292C1126,188,1059,112,982,61C906,9,820,-14,726,-14Z" 
id="f1_1f"
transform="scale(4.8828125E-4,-4.8828125E-4)" />

<path d="M799,-43L241,1207c-19,44,-44,75,-74,93c-29,18,-74,29,-138,31v104H739V1331c-94,-5,-155,-13,-181,-28c-26,-14,-40,-35,-40,-62c0,-25,5,-48,14,-69L909,325l359,819c5,14,8,28,8,45c0,74,-75,120,-226,142v104h591V1331c-60,-8,-109,-25,-144,-51c-35,-27,-62,-64,-81,-108L883,-43Z" 
id="f1_1w"
transform="scale(4.8828125E-4,-4.8828125E-4)" />

<path d="M802,-43C626,-43,483,5,373,105C263,205,206,324,206,463c0,82,19,147,54,192c35,45,79,68,134,69c54,-1,98,-20,132,-55c35,-36,50,-85,50,-142c0,-44,-8,-79,-26,-104C533,399,501,377,454,362C408,344,385,324,385,303c0,-34,15,-71,46,-110c30,-40,78,-72,140,-97C631,72,697,59,772,59c4,0,9,0,13,1c3,0,5,0,7,0c154,0,273,48,355,145c83,96,124,255,124,475c0,198,-43,345,-128,437c-86,93,-196,139,-329,139c-59,0,-120,-11,-181,-34c-60,-21,-120,-55,-181,-98c-7,-71,-21,-120,-41,-143C391,956,367,946,338,946c-22,0,-40,6,-52,21c-14,14,-20,34,-20,60c0,44,21,87,62,131c13,14,20,25,26,35l36,452c13,176,21,347,21,514c254,-69,463,-104,625,-104c4,0,7,0,11,0c6,0,12,0,19,0c69,0,134,7,196,21c69,16,119,32,151,52c19,9,31,14,35,15c11,-1,16,-7,16,-22c0,-37,-23,-84,-69,-143c-46,-58,-109,-105,-188,-139c-76,-33,-162,-50,-261,-50c-4,0,-8,0,-13,0c-4,0,-8,0,-12,0c-115,0,-253,20,-412,58L463,1273c78,38,151,67,220,87c70,18,136,29,197,30c199,-1,365,-68,500,-200c134,-133,201,-296,201,-490c0,-219,-72,-397,-217,-535C1221,24,1033,-43,802,-43Z" 
id="f1_e"
transform="scale(4.8828125E-4,-4.8828125E-4)" />

<path d="M883,60c132,0,233,61,304,183c86,147,128,412,128,800c0,402,-39,670,-119,807c-81,136,-188,203,-321,205C739,2053,634,1989,558,1859C483,1729,443,1462,443,1056C443,655,483,391,562,258C639,127,743,60,874,60c2,0,3,0,4,0c2,0,4,0,5,0ZM880,-43C686,-43,523,34,391,193C229,390,148,677,148,1053c0,356,78,640,231,851c124,168,286,253,489,255c200,-2,365,-80,496,-234c165,-191,248,-480,248,-866c0,-361,-72,-634,-216,-822C1254,47,1082,-43,880,-43Z" 
id="f1_9"
transform="scale(4.8828125E-4,-4.8828125E-4)" />

<path d="M104,0V118H241c48,0,83,9,107,27c25,18,37,41,37,69v903c0,67,-14,117,-43,150c-27,32,-67,48,-120,48H104v120l503,29V889c55,193,120,339,197,440c78,98,172,148,287,150c76,-2,139,-26,185,-73c46,-49,70,-115,70,-194c0,-66,-15,-117,-46,-153c-29,-36,-66,-54,-111,-54c-1,0,-3,0,-5,0c-2,0,-4,0,-5,0c-42,0,-76,17,-102,46c-29,31,-43,73,-43,127c0,34,6,66,16,98c10,24,15,41,15,47c0,15,-9,21,-28,23c-39,-2,-85,-26,-137,-73C830,1202,776,1108,738,987C680,799,651,649,651,536V226c0,-35,12,-63,38,-81c26,-18,67,-27,128,-27h188V0Z" 
id="f1_1s"
transform="scale(4.8828125E-4,-4.8828125E-4)" />

<path d="M234,-502l-57,72c208,145,310,274,310,385c0,14,-1,26,-7,34C474,-4,466,0,455,0L422,-5c-19,-5,-35,-5,-46,-5C332,-10,292,6,258,43c-33,35,-52,79,-52,131c0,49,19,92,52,127c34,35,78,53,132,53c65,0,120,-26,165,-77C599,223,620,153,620,64C620,-132,492,-320,234,-502Z" 
id="f1_6"
transform="scale(4.8828125E-4,-4.8828125E-4)" />

<path d="M148,0V95l908,1236H657c-83,-2,-147,-14,-186,-35c-42,-23,-77,-60,-107,-112C335,1132,307,1042,281,917H177l32,518H1375v-89L461,104H911c2,0,4,0,7,0c100,0,180,32,240,96c61,64,110,185,144,362h102L1370,0Z" 
id="f1_20"
transform="scale(4.8828125E-4,-4.8828125E-4)" />

<path d="M443,-43c-52,0,-98,16,-136,52C270,44,252,89,252,141c0,50,18,93,55,129c38,36,84,54,138,55c53,-1,99,-19,136,-55c36,-36,55,-79,55,-129C636,89,617,44,581,9C544,-27,497,-43,443,-43Z" 
id="f1_8"
transform="scale(4.8828125E-4,-4.8828125E-4)" />

<path d="M104,0V118H306c52,0,90,9,116,30c24,22,36,48,36,83V2030c0,36,-13,63,-41,83c-27,20,-76,29,-142,30H104v118H1138V2143H924c-44,-1,-79,-12,-104,-36c-24,-25,-36,-55,-36,-90V995l822,878c58,52,85,101,85,150c0,35,-15,62,-49,87c-33,21,-87,32,-162,33h-61v118h932V2143h-73c-63,-1,-131,-19,-208,-55c-75,-36,-145,-88,-209,-152L1344,1384L2090,289c43,-63,87,-107,133,-133c46,-26,99,-38,162,-38h84V0H1435V118h116c87,0,143,6,171,21c29,14,43,31,43,54c0,18,-2,38,-3,58l-622,915L784,785V231c0,-35,10,-61,29,-77c32,-24,70,-36,111,-36h214V0Z" 
id="f1_v"
transform="scale(4.8828125E-4,-4.8828125E-4)" />

<path d="M941,73c104,0,188,46,251,141c81,116,120,284,120,503c0,213,-35,369,-105,467c-69,96,-157,145,-263,147C830,1329,736,1279,663,1179C591,1079,555,914,555,684C555,466,590,309,662,215C733,121,827,73,941,73ZM315,-36L258,0c26,116,38,238,38,367V1983c0,49,-15,87,-47,116c-34,28,-78,43,-136,44H55v112l500,18V1213c59,81,125,142,198,185c74,40,153,61,239,61c168,0,308,-66,424,-199c115,-131,173,-304,173,-517c0,-234,-63,-424,-186,-566C1277,34,1123,-36,938,-36c-87,0,-166,17,-238,53C628,52,556,113,480,202C423,102,367,23,315,-36Z" 
id="f2_b"
transform="scale(4.8828125E-4,-4.8828125E-4)" />

<path d="M89,0V118H222c55,0,97,9,123,32c26,20,40,49,40,85V1997c0,44,-15,78,-44,101c-43,29,-101,44,-174,45H89v118l562,31V723l463,403c44,38,65,72,65,101c0,23,-12,41,-39,56c-38,19,-103,29,-194,32v120h754V1315c-149,-7,-262,-44,-342,-108L1021,914L1560,180c33,-42,88,-62,166,-62h77V0H1021V118h76c60,0,98,4,118,15c19,9,29,23,29,37c0,13,-5,27,-16,42L831,749L651,590V215c0,-30,9,-53,29,-67c29,-21,69,-30,119,-30H901V0Z" 
id="f1_1l"
transform="scale(4.8828125E-4,-4.8828125E-4)" />

<path d="M1143,118c172,0,322,44,452,133c84,58,148,140,193,249c61,142,90,342,90,597c0,374,-66,649,-197,825c-112,147,-282,220,-508,221H918c-46,-1,-79,-10,-101,-29c-23,-21,-33,-48,-33,-87V229c0,-36,12,-64,38,-82c26,-20,67,-29,128,-29ZM104,0V118H315c53,0,91,7,111,26c22,16,32,44,32,81V2040c0,30,-10,56,-33,74c-22,19,-54,28,-93,29H104v118H1274c174,0,321,-30,443,-92c151,-77,280,-207,385,-386c107,-182,159,-396,159,-642c0,-204,-30,-388,-95,-550C2119,466,2044,356,1945,263C1846,168,1723,98,1581,52C1474,17,1331,0,1152,0Z" 
id="f1_o"
transform="scale(4.8828125E-4,-4.8828125E-4)" />

<path d="M445,-43c-52,0,-98,16,-136,52C270,44,252,87,252,139c0,52,18,95,55,131c38,36,84,54,138,55c53,-1,99,-19,136,-55c36,-35,55,-79,55,-129C636,89,617,44,581,9C544,-27,498,-43,445,-43Zm6,1152c-2,0,-4,0,-6,0c-2,0,-5,0,-7,0c-50,0,-94,18,-131,54c-37,35,-55,79,-55,131c0,49,18,92,55,128c38,37,84,55,136,57c54,-2,101,-20,138,-55c36,-37,55,-80,55,-130c0,-53,-17,-98,-55,-133c-36,-34,-78,-52,-130,-52Z" 
id="f1_j"
transform="scale(4.8828125E-4,-4.8828125E-4)" />

<path d="M104,0V118H296c69,0,112,9,133,30c20,20,29,64,29,133V1988c0,64,-9,104,-27,120c-28,23,-80,34,-154,35H104v118H1138V2143H963c-78,-1,-129,-10,-149,-30c-20,-20,-30,-63,-30,-125V281c0,-69,9,-111,26,-128c24,-23,68,-35,131,-35h197V0Z" 
id="f1_t"
transform="scale(4.8828125E-4,-4.8828125E-4)" />

<path d="M1296,89c3,0,6,0,9,0c1,0,3,0,5,0c185,0,333,79,444,235c113,157,168,432,168,825c0,272,-24,477,-72,614c-49,138,-121,240,-215,309c-95,65,-207,101,-332,101c-124,0,-232,-36,-324,-101C888,2003,814,1894,761,1745C707,1593,680,1389,680,1128c0,-275,24,-485,75,-624C805,361,877,257,972,189C1066,122,1173,89,1296,89Zm-2,-148C1077,-59,880,-7,707,95C535,199,397,338,298,515C197,691,148,894,148,1128c0,345,110,629,329,855c220,225,492,336,814,338c214,-2,411,-52,591,-156c181,-104,321,-246,422,-425c101,-179,150,-380,150,-605C2454,793,2344,509,2122,281C1899,53,1624,-59,1294,-59Z" 
id="f0_h"
transform="scale(4.8828125E-4,-4.8828125E-4)" />

<path d="M1158,1242c164,0,294,43,388,128c73,65,110,175,110,330c0,143,-35,248,-107,314c-73,65,-197,99,-374,100c-93,-1,-154,-12,-177,-32c-25,-21,-37,-67,-37,-139V1242h188c3,0,6,0,9,0ZM1957,-14c-95,0,-173,17,-231,57c-56,40,-100,98,-131,174c-18,43,-43,144,-76,306c-37,187,-71,314,-101,378c-29,66,-67,113,-116,146c-48,30,-106,45,-176,47H961V269c0,-37,11,-64,32,-83c28,-24,61,-38,98,-38c2,0,4,0,6,0h205V0H177V148H351c3,0,5,0,8,0c41,0,73,12,95,35c23,23,33,57,33,100V1978c0,46,-9,80,-30,103c-22,21,-52,32,-90,33H177v147H1341c190,0,344,-26,463,-75c119,-49,208,-116,266,-201c60,-86,89,-179,89,-283c0,-168,-75,-303,-223,-403c-112,-80,-286,-132,-520,-153c121,-20,216,-52,281,-95c66,-43,124,-107,175,-189c61,-110,110,-242,146,-393c25,-99,46,-160,64,-183c19,-23,40,-35,63,-35c66,0,104,88,116,267h135C2385,325,2344,189,2269,108C2195,24,2092,-14,1957,-14Z" 
id="f0_j"
transform="scale(4.8828125E-4,-4.8828125E-4)" />

<path d="M929,-43L296,1956c-24,76,-53,125,-84,151c-32,24,-82,35,-152,36v118H813V2143H759c-79,-1,-131,-7,-154,-18c-21,-14,-34,-32,-34,-56c0,-19,10,-48,23,-84l11,-29L1057,526l410,1326c-46,143,-81,229,-107,253c-26,25,-78,37,-155,38H1065v118h961V2143H1925c-86,-1,-142,-7,-168,-19c-26,-14,-38,-34,-38,-60c0,-23,3,-41,9,-58L2195,526l379,1281c17,48,25,95,25,141c0,66,-17,115,-48,148c-32,31,-79,46,-143,47h-72v118h709V2143c-60,-9,-107,-24,-144,-45c-35,-22,-67,-52,-93,-92c-24,-41,-52,-107,-79,-199L2180,-43H2066L1545,1607L1033,-43Z" 
id="f1_16"
transform="scale(4.8828125E-4,-4.8828125E-4)" />

<path d="M945,60c120,0,216,45,288,136c75,90,113,226,113,409c0,193,-35,332,-104,417c-67,87,-163,130,-286,131C828,1152,723,1105,640,1013C559,920,518,788,518,622C518,438,558,299,637,203C715,108,814,60,934,60c2,0,4,0,6,0c2,0,4,0,5,0ZM932,-43C790,-43,665,-7,553,67C443,141,353,258,283,417C212,576,177,762,177,975c0,227,45,435,130,623c86,186,196,325,329,420c134,92,273,139,420,141c149,-2,276,-43,380,-124c87,-69,132,-148,132,-240c0,-64,-19,-116,-57,-154c-37,-41,-81,-60,-136,-60c-49,0,-90,17,-125,52c-35,32,-52,74,-52,121c0,30,9,66,30,107c19,35,28,64,28,85c0,28,-14,52,-41,72c-37,23,-87,35,-153,37c-98,-2,-188,-32,-271,-95C709,1898,640,1791,584,1639C527,1488,498,1317,498,1129c0,-27,2,-69,5,-124c79,104,163,181,252,226c87,46,183,69,287,69c170,0,313,-58,428,-172c114,-115,171,-260,171,-436c0,-212,-67,-388,-205,-527C1302,24,1132,-43,932,-43Z" 
id="f1_f"
transform="scale(4.8828125E-4,-4.8828125E-4)" />

<path d="M316,-606c-73,0,-131,22,-175,65c-45,42,-68,96,-68,159c0,45,14,85,43,116c28,30,63,45,104,45c38,0,70,-13,96,-39c26,-26,38,-58,38,-93c0,-13,-1,-28,-6,-48c-3,-15,-6,-27,-6,-33c0,-26,17,-39,48,-39c33,0,71,13,114,37c41,24,81,64,118,118c36,55,102,175,195,361L267,1199c-18,35,-41,61,-70,80c-27,17,-69,29,-124,36v120H755V1315H691c-60,0,-100,-7,-121,-21c-22,-15,-34,-35,-34,-60c0,-13,3,-24,8,-35L943,361l308,692c23,47,34,93,34,140c0,35,-15,63,-44,83c-31,20,-89,32,-176,39v120h591V1315c-116,-10,-195,-58,-237,-139L871,-49C775,-265,684,-412,597,-489C510,-566,416,-606,316,-606Z" 
id="f1_1z"
transform="scale(4.8828125E-4,-4.8828125E-4)" />

<path d="M848,-43C713,-43,597,-22,500,21C400,66,328,125,280,202c-48,76,-74,162,-74,258c0,76,20,137,57,182c38,44,84,67,142,67c52,0,93,-17,125,-51c31,-33,46,-77,46,-134c0,-37,-8,-69,-24,-93C535,405,506,382,464,361C422,338,399,316,399,295c0,-29,17,-63,47,-99c29,-39,75,-68,135,-89C640,84,717,73,807,73c157,0,275,39,351,118c75,76,113,202,113,374c0,179,-32,307,-96,385c-66,75,-161,113,-287,115c-34,-2,-77,-5,-129,-9c-32,-4,-59,-7,-77,-7c-4,0,-8,0,-11,1c-3,-1,-5,-1,-8,-1c-25,0,-46,8,-61,20c-17,14,-26,33,-26,54c0,23,9,41,24,53c16,14,42,20,77,22l85,-8l74,-7c3,-1,5,-1,8,-1c126,0,221,34,284,98c67,63,99,164,99,300c0,165,-31,284,-95,354c-63,70,-156,106,-283,106c-114,0,-204,-22,-273,-62C507,1939,474,1902,474,1868c0,-22,19,-51,61,-88c58,-52,85,-102,85,-156c0,-43,-13,-76,-46,-104c-29,-27,-66,-41,-111,-41c-3,0,-5,0,-8,0c-2,0,-4,0,-6,0c-49,0,-88,18,-119,55c-32,38,-49,92,-49,162c0,107,38,202,116,286c112,116,271,175,477,177c192,-2,347,-52,461,-155c115,-102,173,-227,173,-377c0,-108,-31,-203,-93,-281c-63,-79,-170,-148,-321,-208c144,-36,255,-96,334,-179C1531,853,1581,721,1581,567c0,-177,-61,-321,-185,-426C1256,17,1074,-43,848,-43Z" 
id="f1_c"
transform="scale(4.8828125E-4,-4.8828125E-4)" />

<path d="M920,60c167,0,295,39,388,119c93,79,140,186,140,321c0,119,-39,209,-119,272c-79,61,-252,140,-519,239C662,949,558,880,501,802C443,726,414,629,414,519C414,373,457,260,542,179C626,99,746,60,902,60c3,0,6,0,9,0c3,0,6,0,9,0Zm154,1182c102,60,170,119,205,180c35,58,52,136,52,234c0,127,-35,225,-107,295c-71,67,-173,102,-307,104c-130,-2,-233,-34,-306,-98C539,1891,503,1807,503,1705c0,-102,32,-185,97,-246c65,-60,222,-133,474,-217ZM914,-43C691,-43,515,8,387,115C257,222,193,354,193,513c0,120,38,223,113,314c74,88,204,165,389,227C429,1167,296,1344,296,1586c0,156,60,290,179,402c121,113,274,169,458,171c127,-2,237,-23,330,-67c95,-45,167,-104,216,-179c49,-75,73,-155,73,-235c0,-193,-120,-352,-360,-477c162,-61,279,-141,354,-234c73,-96,110,-211,110,-345c0,-165,-53,-307,-159,-429C1361,34,1167,-43,914,-43Z" 
id="f1_h"
transform="scale(4.8828125E-4,-4.8828125E-4)" />

<path d="M73,0V112c77,4,136,19,178,45c68,40,129,95,184,162L718,675L296,1216c-47,60,-120,92,-223,96v110H776V1312c-111,-4,-168,-23,-168,-53c0,-17,9,-35,29,-55L882,880l233,296c19,19,28,39,28,60c0,40,-61,64,-182,76v110h591V1312c-143,-23,-252,-81,-328,-171L949,793L1389,218c29,-41,61,-68,93,-84c29,-15,73,-23,128,-23c5,0,10,0,16,1V0H888V112h56c6,-1,12,-1,18,-1c52,0,90,6,115,16c17,7,25,17,25,30c0,11,-10,29,-29,57L785,588L556,299C523,255,507,222,507,197c0,-26,11,-46,34,-58c32,-18,85,-27,162,-27V0Z" 
id="f2_g"
transform="scale(4.8828125E-4,-4.8828125E-4)" />

<path d="M37,0V112H171c4,-1,9,-1,13,-1c53,0,91,9,112,27c25,16,37,45,37,85V1294H93v128H333v112c0,244,54,432,159,562c107,130,237,194,394,196c116,-2,208,-29,272,-84c66,-55,98,-126,98,-213c0,-58,-14,-104,-46,-136c-31,-33,-72,-49,-119,-49c-43,0,-78,13,-106,39c-27,26,-42,59,-42,100c0,45,16,83,50,112c28,23,41,41,41,53c0,16,-10,31,-33,45c-23,14,-57,20,-104,21c-86,-1,-158,-40,-217,-113c-58,-76,-89,-186,-89,-334V1422H943V1294H591V249c0,-47,12,-81,32,-101c29,-24,69,-37,118,-37c3,0,6,0,9,1H943V0Z" 
id="f2_e"
transform="scale(4.8828125E-4,-4.8828125E-4)" />

<path d="M1442,857L1042,1875L634,857ZM-28,0V118c86,0,155,18,205,56c49,37,95,109,138,216l768,1915h106L2000,241c33,-84,102,-123,205,-123h71V0H1375V118h70c95,0,162,9,199,30c27,12,40,35,40,64c0,17,-2,34,-10,55L1488,739H587L478,469C451,396,437,338,437,296c0,-50,23,-91,69,-126c47,-36,114,-52,201,-52h77V0Z" 
id="f1_l"
transform="scale(4.8828125E-4,-4.8828125E-4)" />

<path d="M1262,118c179,0,313,39,399,119c85,79,128,203,128,373c0,152,-44,275,-133,365c-88,88,-212,133,-368,134H828V240c0,-41,12,-72,35,-92c25,-21,67,-30,129,-30Zm0,1109c128,0,231,38,307,113c78,76,116,202,116,377c0,107,-18,191,-55,252c-37,60,-92,104,-162,132c-70,27,-192,41,-368,42c-122,-1,-199,-10,-228,-27c-29,-18,-44,-49,-44,-92V1227h426c3,0,5,0,8,0ZM148,0V118H338c56,0,99,9,125,27c27,17,40,38,40,63V2014c0,42,-13,74,-39,96c-26,21,-64,32,-114,33H148v118H1325c230,0,409,-50,531,-153c122,-102,184,-229,184,-382c0,-128,-43,-238,-127,-327c-86,-90,-213,-160,-384,-210c214,-48,376,-118,483,-214c107,-98,161,-219,161,-365c0,-113,-31,-213,-91,-300C2021,223,1920,150,1778,90C1636,29,1476,0,1296,0Z" 
id="f1_m"
transform="scale(4.8828125E-4,-4.8828125E-4)" />

<path d="M892,961c2,0,4,0,6,0c2,0,4,0,6,0c120,0,220,47,301,139c84,92,126,222,126,390c0,171,-43,308,-130,412c-86,101,-188,151,-309,153C775,2053,677,2006,602,1911C526,1815,487,1673,487,1482c0,-177,39,-307,115,-393C676,1004,774,961,892,961ZM761,-43C602,-43,477,-10,387,58C296,127,252,209,252,306c0,62,18,114,54,152c36,39,81,58,136,60c50,-2,93,-18,128,-52c35,-35,50,-75,50,-121c0,-35,-13,-73,-46,-113C556,205,547,183,547,165c0,-29,18,-55,53,-75C632,70,684,59,754,59c5,0,10,0,14,1c3,0,6,0,9,0c106,0,200,29,280,87c84,59,153,156,205,291c50,136,76,311,76,526l-3,138C1268,1001,1189,924,1098,874C1008,822,906,798,794,798C639,798,497,849,368,956C241,1063,177,1221,177,1430c0,200,71,373,211,515c141,140,307,212,501,214c216,-2,396,-89,538,-265c142,-175,214,-421,214,-737c0,-265,-40,-486,-119,-667C1442,310,1335,174,1205,87C1074,-1,924,-43,761,-43Z" 
id="f1_i"
transform="scale(4.8828125E-4,-4.8828125E-4)" />

<path d="M2004,44c65,0,121,35,162,103c45,67,66,191,66,369c0,196,-20,329,-63,399c-41,69,-97,104,-165,106c-67,-2,-123,-36,-166,-104c-41,-68,-64,-194,-64,-379c0,-193,21,-323,64,-391C1880,79,1932,44,1996,44c1,0,2,0,4,0c1,0,3,0,4,0Zm-1,-87c-130,0,-238,49,-324,151c-84,101,-127,243,-127,424c0,172,43,313,130,418c86,106,191,158,316,159c135,-1,245,-53,329,-156c85,-104,127,-247,127,-430c0,-178,-43,-317,-127,-416C2241,5,2133,-43,2003,-43ZM614,1094c67,0,120,35,164,102c44,69,65,191,65,372c0,195,-21,326,-64,397c-41,68,-96,104,-165,105c-67,-1,-122,-35,-165,-104c-43,-67,-64,-194,-64,-377c0,-193,21,-324,63,-391c42,-69,94,-104,157,-104c2,0,3,0,5,0c1,0,2,0,4,0ZM460,0L2037,2128h125L585,0ZM617,1005c-2,0,-4,0,-6,0c-2,0,-4,0,-5,0c-126,0,-231,52,-316,153c-85,101,-128,241,-128,423c0,173,44,313,130,419c85,105,191,157,318,159c134,-2,243,-54,328,-156c84,-104,127,-248,127,-431c0,-177,-43,-318,-128,-417C852,1056,746,1005,617,1005Z" 
id="f1_3"
transform="scale(4.8828125E-4,-4.8828125E-4)" />

<path d="M636,-43C582,-43,536,-27,500,9C463,46,443,90,443,145c0,51,20,92,57,127c36,35,82,52,136,53c53,-1,99,-18,136,-53c38,-37,56,-79,56,-127C828,92,810,46,772,11C735,-27,689,-43,636,-43ZM576,665c0,119,8,213,20,284c14,69,29,124,49,165c20,39,72,113,154,221c64,83,112,162,138,236c26,73,39,155,39,246c0,119,-33,215,-101,290c-65,73,-148,110,-244,110c-83,0,-153,-22,-208,-64c-55,-43,-82,-86,-82,-130c0,-26,18,-54,58,-84c59,-48,88,-100,88,-155c0,-50,-15,-91,-47,-123c-29,-33,-68,-49,-113,-49c-2,0,-4,0,-6,0c-2,0,-4,0,-5,0c-55,0,-100,23,-139,67c-38,47,-59,107,-59,183c0,116,55,223,160,318c107,93,241,139,403,141c167,-2,304,-54,413,-158c108,-104,162,-230,162,-379c0,-96,-17,-183,-54,-259c-27,-60,-97,-141,-207,-245C849,1146,762,1047,730,982C700,917,683,811,680,665Z" 
id="f1_k"
transform="scale(4.8828125E-4,-4.8828125E-4)" />


</defs>
</svg>