<?xml version="1.0" encoding="UTF-8" standalone="no"?>
<!DOCTYPE svg PUBLIC "-//W3C//DTD SVG 1.1//EN"
"http://www.w3.org/Graphics/SVG/1.1/DTD/svg11.dtd">
<svg viewBox="0 0 909 1286" version="1.1" xmlns="http://www.w3.org/2000/svg" xmlns:xlink="http://www.w3.org/1999/xlink">
<defs>
<clipPath id="c0_10"><path d="M352.7,117.1V100.2h16.9v16.9Z" /></clipPath>
<clipPath id="c1_10"><path d="M444,116V95.5h15.4V116Z" /></clipPath>
<clipPath id="c2_10"><path d="M157.3,147.9V131h16.9v16.9Z" /></clipPath>
<clipPath id="c3_10"><path d="M158.8,202.5V182h15.4v20.5Z" /></clipPath>
<clipPath id="c4_10"><path d="M268,399.4V378.5h45.9v20.9Z" /></clipPath>
<clipPath id="c5_10"><path d="M279.4,424.7V404.2h34.5v20.5Z" /></clipPath>
<clipPath id="c6_10"><path d="M266.2,460.3V439.4h44.4v20.9Z" /></clipPath>
<clipPath id="c7_10"><path d="M277.2,485.6V465.1h33.4v20.5Z" /></clipPath>
<clipPath id="c8_10"><path d="M160.6,530V517.9H312.8V530Z" /></clipPath>
<clipPath id="c9_10"><path d="M146.7,527V506.1H312.8V527Z" /></clipPath>
<clipPath id="c10_10"><path d="M147.8,553.1V532.2h165v20.9Z" /></clipPath>
<clipPath id="c11_10"><path d="M244.6,525.9V503.6h68.2v22.3Z" /></clipPath>
<clipPath id="c12_10"><path d="M244.6,542.8V520.4h68.2v22.4Z" /></clipPath>
<clipPath id="c13_10"><path d="M244.6,557.5V535.1h68.2v22.4Z" /></clipPath>
<clipPath id="c14_10"><path d="M315.7,621.6V600.7h82.1v20.9Z" /></clipPath>
<clipPath id="c15_10"><path d="M207.9,647.7V626.8H397.8v20.9Z" /></clipPath>
<clipPath id="c16_10"><path d="M159.5,670V649.5h45.8V670Z" /></clipPath>
<clipPath id="c17_10"><path d="M305.1,620.5V598.2h92.7v22.3Z" /></clipPath>
<clipPath id="c18_10"><path d="M305.1,637.4V615h92.7v22.4Z" /></clipPath>
<clipPath id="c19_10"><path d="M305.1,651.3V629h92.7v22.3Z" /></clipPath>
<clipPath id="c20_10"><path d="M155.8,741.9V721H390.9v20.9Z" /></clipPath>
<clipPath id="c21_10"><path d="M298.8,714.8V692.4h92.1v22.4Z" /></clipPath>
<clipPath id="c22_10"><path d="M298.8,731.6V709.3h92.1v22.3Z" /></clipPath>
<clipPath id="c23_10"><path d="M298.8,745.9V723.6h92.1v22.3Z" /></clipPath>
<clipPath id="c24_10"><path d="M246.4,816.7V795.8H434.5v20.9Z" /></clipPath>
<clipPath id="c25_10"><path d="M343.6,789.6V767.2h90.9v22.4Z" /></clipPath>
<clipPath id="c26_10"><path d="M343.6,806.4V784.1h90.9v22.3Z" /></clipPath>
<clipPath id="c27_10"><path d="M343.6,820.7V798.4h90.9v22.3Z" /></clipPath>
<clipPath id="c28_10"><path d="M243.5,884.9V864.4h45.8v20.5Z" /></clipPath>
<clipPath id="c29_10"><path d="M387.2,871V850.1h24.2V871Z" /></clipPath>
<clipPath id="c30_10"><path d="M184.8,859.2V838H368.9v21.2Z" /></clipPath>
<clipPath id="c31_10"><path d="M119.9,870.6V848.2H411.4v22.4Z" /></clipPath>
<style type="text/css"><![CDATA[
.g0_10{
fill: none;
stroke: #FFFFFF;
stroke-width: 0.77152777;
stroke-linecap: round;
stroke-linejoin: round;
}
.g1_10{
fill: none;
stroke: #FFFFFF;
stroke-width: 0.36666667;
stroke-linecap: butt;
stroke-linejoin: miter;
stroke-miterlimit: 2;
}
.g2_10{
fill: none;
stroke: #000000;
stroke-width: 0.9029167;
stroke-linecap: round;
stroke-linejoin: round;
}
.g3_10{
fill: none;
stroke: #000000;
stroke-width: 0.9059723;
stroke-linecap: round;
stroke-linejoin: round;
}
.g4_10{
fill: none;
stroke: #000000;
stroke-width: 0.9090278;
stroke-linecap: round;
stroke-linejoin: round;
}
.g5_10{
fill: none;
stroke: #000000;
stroke-width: 0.36666667;
stroke-linecap: butt;
stroke-linejoin: miter;
stroke-miterlimit: 2;
}
]]></style>
</defs>
<path d="M512.4,486.7l6.2,9.7l5.4,8.5l4.1,8.7l2,8.5l1.1,7.7l1.2,6.7l-1.2,6.7l-2.1,6.7l-2,4.9l-3.1,5.6l-3.1,4.9l-3.4,3.9l-7.1,6.6l-6.5,4.7l-11.5,6.9l-10.3,6.7l-11.6,5.6L459,606.4l-6.4,3.9l-6.2,4.9l-5.4,4.6l-5.1,5.9l-4.1,6.7l-3.4,7.4l-1,9.8l-1,10.5l-6.2,-10.5l-5.4,-10.5l-3.1,-10.6l-1,-10.5v-4.9l1,-4.9l1.1,-4.6l2,-3.9l2.1,-4.8l3.3,-3.9l3.1,-3.6l4.1,-3.8l17,-11.6l16.7,-9.5l14.6,-8.8L489.3,546l6.4,-4.6l5.2,-6.7L505,528l3.3,-7.7l2.1,-8.7l2,-7.7V486.7" class="g0_10" />
<path d="M454.6,618.8l4.4,3.8l3.1,3.9l2,3.8l2.1,4.9l2.3,5.7l1,5.6l1,5.9v7.7l5.2,-8.7l4.1,-7.7l3.4,-7.7l2,-7.5l1,-7.7v-6.7l-1,-7.7l-2,-6.7l-28.6,19.1" class="g1_10" />
<g fill="#000000" >
<use xlink:href="#f0_c" transform="matrix(12,0,0,12,117,111.6)" />
<use xlink:href="#f0_1z" transform="matrix(12,0,0,12,122.9,111.6)" />
<use xlink:href="#f0_d" transform="matrix(12,0,0,12,130.9,111.6)" />
<use xlink:href="#f0_1n" transform="matrix(12,0,0,12,143.5,111.6)" />
<use xlink:href="#f0_2e" transform="matrix(12,0,0,12,159.6,111.6)" />
<use xlink:href="#f0_25" transform="matrix(12,0,0,12,165.5,111.6)" />
<use xlink:href="#f0_2g" transform="matrix(12,0,0,12,169.9,111.6)" />
<use xlink:href="#f0_21" transform="matrix(12,0,0,12,175,111.6)" />
<use xlink:href="#f0_2b" transform="matrix(12,0,0,12,186.1,111.6)" />
<use xlink:href="#f0_2a" transform="matrix(12,0,0,12,195.6,111.6)" />
<use xlink:href="#f0_21" transform="matrix(12,0,0,12,204.1,111.6)" />
<use xlink:href="#f0_20" transform="matrix(12,0,0,12,215.5,111.6)" />
<use xlink:href="#f0_25" transform="matrix(12,0,0,12,224.6,111.6)" />
<use xlink:href="#f0_22" transform="matrix(12,0,0,12,228.7,111.6)" />
<use xlink:href="#f0_22" transform="matrix(12,0,0,12,233.8,111.6)" />
<use xlink:href="#f0_21" transform="matrix(12,0,0,12,239,111.6)" />
<use xlink:href="#f0_2e" transform="matrix(12,0,0,12,247.1,111.6)" />
<use xlink:href="#f0_21" transform="matrix(12,0,0,12,252.9,111.6)" />
<use xlink:href="#f0_2a" transform="matrix(12,0,0,12,261,111.6)" />
<use xlink:href="#f0_1z" transform="matrix(12,0,0,12,269.5,111.6)" />
<use xlink:href="#f0_21" transform="matrix(12,0,0,12,277.6,111.6)" />
<use xlink:href="#f0_1y" transform="matrix(12,0,0,12,289,111.6)" />
<use xlink:href="#f0_21" transform="matrix(12,0,0,12,297.4,111.6)" />
<use xlink:href="#f0_2g" transform="matrix(12,0,0,12,305.5,111.6)" />
<use xlink:href="#f0_2j" transform="matrix(12,0,0,12,310.6,111.6)" />
<use xlink:href="#f0_21" transform="matrix(12,0,0,12,323.8,111.6)" />
<use xlink:href="#f0_21" transform="matrix(12,0,0,12,331.6,111.6)" />
<use xlink:href="#f0_2a" transform="matrix(12,0,0,12,339.6,111.6)" />
</g>
<g clip-path="url(#c0_10)">
<g fill="#000000" >
<use xlink:href="#f1_1x" transform="matrix(12.3,0,-3.3,12.3,352.7,112.7)" />
</g>
</g>
<g fill="#000000" >
<use xlink:href="#f0_h" transform="matrix(12,0,0,12,369.2,111.6)" />
<use xlink:href="#f0_24" transform="matrix(12,0,0,12,375.1,111.6)" />
<use xlink:href="#f0_21" transform="matrix(12,0,0,12,383.9,111.6)" />
<use xlink:href="#f0_28" transform="matrix(12,0,0,12,391.7,111.6)" />
<use xlink:href="#f0_25" transform="matrix(12,0,0,12,396.1,111.6)" />
<use xlink:href="#f0_2k" transform="matrix(12,0,0,12,400.1,111.6)" />
<use xlink:href="#f0_1x" transform="matrix(12,0,0,12,412.3,111.6)" />
<use xlink:href="#f0_2a" transform="matrix(12,0,0,12,420.3,111.6)" />
<use xlink:href="#f0_20" transform="matrix(12,0,0,12,428.8,111.6)" />
</g>
<g clip-path="url(#c1_10)">
<g fill="#000000" >
<use xlink:href="#f1_1y" transform="matrix(11.9,0,-3.2,11.9,444,112)" />
</g>
</g>
<g fill="#000000" >
<use xlink:href="#f0_h" transform="matrix(12,0,0,12,459.4,111.6)" />
<use xlink:href="#f0_2c" transform="matrix(12,0,0,12,465.3,111.6)" />
<use xlink:href="#f0_28" transform="matrix(12,0,0,12,474.5,111.6)" />
<use xlink:href="#f0_21" transform="matrix(12,0,0,12,478.5,111.6)" />
<use xlink:href="#f0_1x" transform="matrix(12,0,0,12,486.6,111.6)" />
<use xlink:href="#f0_2g" transform="matrix(12,0,0,12,494.3,111.6)" />
<use xlink:href="#f0_21" transform="matrix(12,0,0,12,499.8,111.6)" />
<use xlink:href="#f0_20" transform="matrix(12,0,0,12,507.5,111.6)" />
<use xlink:href="#f0_2f" transform="matrix(12,0,0,12,520,111.6)" />
<use xlink:href="#f0_2g" transform="matrix(12,0,0,12,527,111.6)" />
<use xlink:href="#f0_2e" transform="matrix(12,0,0,12,532.1,111.6)" />
<use xlink:href="#f0_2h" transform="matrix(12,0,0,12,538,111.6)" />
<use xlink:href="#f0_1z" transform="matrix(12,0,0,12,547.2,111.6)" />
<use xlink:href="#f0_2g" transform="matrix(12,0,0,12,554.9,111.6)" />
<use xlink:href="#f0_2h" transform="matrix(12,0,0,12,560.4,111.6)" />
<use xlink:href="#f0_2e" transform="matrix(12,0,0,12,569.2,111.6)" />
<use xlink:href="#f0_21" transform="matrix(12,0,0,12,575.5,111.6)" />
<use xlink:href="#f0_2f" transform="matrix(12,0,0,12,583.2,111.6)" />
<use xlink:href="#f0_2b" transform="matrix(12,0,0,12,593.1,111.6)" />
<use xlink:href="#f0_22" transform="matrix(12,0,0,12,602.3,111.6)" />
<use xlink:href="#f0_2c" transform="matrix(12,0,0,12,611.1,111.6)" />
<use xlink:href="#f0_2e" transform="matrix(12,0,0,12,620.3,111.6)" />
<use xlink:href="#f0_2b" transform="matrix(12,0,0,12,626.2,111.6)" />
<use xlink:href="#f0_2g" transform="matrix(12,0,0,12,635.7,111.6)" />
<use xlink:href="#f0_21" transform="matrix(12,0,0,12,640.8,111.6)" />
<use xlink:href="#f0_25" transform="matrix(12,0,0,12,648.9,111.6)" />
<use xlink:href="#f0_2a" transform="matrix(12,0,0,12,653,111.6)" />
<use xlink:href="#f0_2f" transform="matrix(12,0,0,12,661.8,111.6)" />
<use xlink:href="#f0_i" transform="matrix(12,0,0,12,668.4,111.6)" />
<use xlink:href="#f0_11" transform="matrix(12,0,0,12,64.9,142.4)" />
<use xlink:href="#f0_2a" transform="matrix(12,0,0,12,77.4,142.4)" />
<use xlink:href="#f0_2f" transform="matrix(12,0,0,12,85.8,142.4)" />
<use xlink:href="#f0_i" transform="matrix(12,0,0,12,92.4,142.4)" />
</g>
<g clip-path="url(#c2_10)">
<g fill="#000000" >
<use xlink:href="#f1_1x" transform="matrix(12.3,0,-3.3,12.3,157.3,143.5)" />
</g>
</g>
<g fill="#000000" >
<use xlink:href="#f0_h" transform="matrix(12,0,0,12,174.2,142.4)" />
<use xlink:href="#f0_24" transform="matrix(12,0,0,12,180.1,142.4)" />
<use xlink:href="#f0_21" transform="matrix(12,0,0,12,188.9,142.4)" />
<use xlink:href="#f0_28" transform="matrix(12,0,0,12,196.6,142.4)" />
<use xlink:href="#f0_25" transform="matrix(12,0,0,12,200.6,142.4)" />
<use xlink:href="#f0_2k" transform="matrix(12,0,0,12,204.7,142.4)" />
<use xlink:href="#f0_u" transform="matrix(12,0,0,12,216.8,142.4)" />
<use xlink:href="#f0_19" transform="matrix(12,0,0,12,224.9,142.4)" />
<use xlink:href="#f0_2g" transform="matrix(12,0,0,12,231.2,142.4)" />
<use xlink:href="#f0_24" transform="matrix(12,0,0,12,239.2,142.4)" />
<use xlink:href="#f0_1x" transform="matrix(12,0,0,12,247.7,142.4)" />
<use xlink:href="#f0_2f" transform="matrix(12,0,0,12,255.8,142.4)" />
<use xlink:href="#f0_1x" transform="matrix(12,0,0,12,265.7,142.4)" />
<use xlink:href="#f0_2c" transform="matrix(12,0,0,12,277.1,142.4)" />
<use xlink:href="#f0_2b" transform="matrix(12,0,0,12,285.9,142.4)" />
<use xlink:href="#f0_28" transform="matrix(12,0,0,12,295.1,142.4)" />
<use xlink:href="#f0_2l" transform="matrix(12,0,0,12,299.5,142.4)" />
<use xlink:href="#f0_2c" transform="matrix(12,0,0,12,307.6,142.4)" />
<use xlink:href="#f0_21" transform="matrix(12,0,0,12,316.4,142.4)" />
<use xlink:href="#f0_2c" transform="matrix(12,0,0,12,324.1,142.4)" />
<use xlink:href="#f0_2g" transform="matrix(12,0,0,12,333.3,142.4)" />
<use xlink:href="#f0_25" transform="matrix(12,0,0,12,338.4,142.4)" />
<use xlink:href="#f0_20" transform="matrix(12,0,0,12,342.5,142.4)" />
<use xlink:href="#f0_21" transform="matrix(12,0,0,12,351.3,142.4)" />
<use xlink:href="#f0_1z" transform="matrix(12,0,0,12,362.7,142.4)" />
<use xlink:href="#f0_24" transform="matrix(12,0,0,12,370.4,142.4)" />
<use xlink:href="#f0_1x" transform="matrix(12,0,0,12,378.9,142.4)" />
<use xlink:href="#f0_25" transform="matrix(12,0,0,12,386.9,142.4)" />
<use xlink:href="#f0_2a" transform="matrix(12,0,0,12,391,142.4)" />
<use xlink:href="#f0_2j" transform="matrix(12,0,0,12,402.4,142.4)" />
<use xlink:href="#f0_24" transform="matrix(12,0,0,12,415.6,142.4)" />
<use xlink:href="#f0_25" transform="matrix(12,0,0,12,424.1,142.4)" />
<use xlink:href="#f0_1z" transform="matrix(12,0,0,12,428.1,142.4)" />
<use xlink:href="#f0_24" transform="matrix(12,0,0,12,436.2,142.4)" />
<use xlink:href="#f0_22" transform="matrix(12,0,0,12,448,142.4)" />
<use xlink:href="#f0_2b" transform="matrix(12,0,0,12,453.1,142.4)" />
<use xlink:href="#f0_2e" transform="matrix(12,0,0,12,462.6,142.4)" />
<use xlink:href="#f0_29" transform="matrix(12,0,0,12,468.5,142.4)" />
<use xlink:href="#f0_2f" transform="matrix(12,0,0,12,481.7,142.4)" />
<use xlink:href="#f0_1x" transform="matrix(12,0,0,12,492,142.4)" />
<use xlink:href="#f0_28" transform="matrix(12,0,0,12,499.8,142.4)" />
<use xlink:href="#f0_28" transform="matrix(12,0,0,12,503.8,142.4)" />
<use xlink:href="#f0_2c" transform="matrix(12,0,0,12,511.5,142.4)" />
<use xlink:href="#f0_2b" transform="matrix(12,0,0,12,520.4,142.4)" />
<use xlink:href="#f0_2f" transform="matrix(12,0,0,12,529.5,142.4)" />
<use xlink:href="#f0_2f" transform="matrix(12,0,0,12,536.1,142.4)" />
<use xlink:href="#f0_25" transform="matrix(12,0,0,12,543.1,142.4)" />
<use xlink:href="#f0_1y" transform="matrix(12,0,0,12,547.2,142.4)" />
<use xlink:href="#f0_28" transform="matrix(12,0,0,12,555.6,142.4)" />
<use xlink:href="#f0_21" transform="matrix(12,0,0,12,559.7,142.4)" />
<use xlink:href="#f0_24" transform="matrix(12,0,0,12,570.7,142.4)" />
<use xlink:href="#f0_2l" transform="matrix(12,0,0,12,579.2,142.4)" />
<use xlink:href="#f0_20" transform="matrix(12,0,0,12,587.6,142.4)" />
<use xlink:href="#f0_2e" transform="matrix(12,0,0,12,596.4,142.4)" />
<use xlink:href="#f0_2b" transform="matrix(12,0,0,12,602.3,142.4)" />
<use xlink:href="#f0_23" transform="matrix(12,0,0,12,611.5,142.4)" />
<use xlink:href="#f0_21" transform="matrix(12,0,0,12,620.6,142.4)" />
<use xlink:href="#f0_2a" transform="matrix(12,0,0,12,628.4,142.4)" />
<use xlink:href="#f0_1y" transform="matrix(12,0,0,12,640.1,142.4)" />
<use xlink:href="#f0_2b" transform="matrix(12,0,0,12,648.9,142.4)" />
<use xlink:href="#f0_2a" transform="matrix(12,0,0,12,658.1,142.4)" />
<use xlink:href="#f0_20" transform="matrix(12,0,0,12,666.6,142.4)" />
<use xlink:href="#f0_2f" transform="matrix(12,0,0,12,675.4,142.4)" />
<use xlink:href="#f0_2g" transform="matrix(12,0,0,12,685.7,142.4)" />
<use xlink:href="#f0_2j" transform="matrix(12,0,0,12,690.8,142.4)" />
<use xlink:href="#f0_25" transform="matrix(12,0,0,12,703.7,142.4)" />
<use xlink:href="#f0_2f" transform="matrix(12,0,0,12,708.1,142.4)" />
<use xlink:href="#f0_2g" transform="matrix(12,0,0,12,714.7,142.4)" />
<use xlink:href="#f0_25" transform="matrix(12,0,0,12,719.8,142.4)" />
<use xlink:href="#f0_2a" transform="matrix(12,0,0,12,724.2,142.4)" />
<use xlink:href="#f0_23" transform="matrix(12,0,0,12,732.7,142.4)" />
<use xlink:href="#f0_25" transform="matrix(12,0,0,12,744.8,142.4)" />
<use xlink:href="#f0_2g" transform="matrix(12,0,0,12,749.2,142.4)" />
<use xlink:href="#f0_25" transform="matrix(12,0,0,12,757.3,142.4)" />
<use xlink:href="#f0_2a" transform="matrix(12,0,0,12,761.4,142.4)" />
<use xlink:href="#f0_2g" transform="matrix(12,0,0,12,770.2,142.4)" />
<use xlink:href="#f0_2b" transform="matrix(12,0,0,12,775.3,142.4)" />
<use xlink:href="#f0_1x" transform="matrix(12,0,0,12,787.8,142.4)" />
<use xlink:href="#f0_2e" transform="matrix(12,0,0,12,799.2,142.4)" />
<use xlink:href="#f0_25" transform="matrix(12,0,0,12,805.1,142.4)" />
<use xlink:href="#f0_23" transform="matrix(12,0,0,12,809.1,142.4)" />
<use xlink:href="#f0_24" transform="matrix(12,0,0,12,818.3,142.4)" />
<use xlink:href="#f0_2g" transform="matrix(12,0,0,12,826.8,142.4)" />
<use xlink:href="#f0_24" transform="matrix(12,0,0,12,155.8,167)" />
<use xlink:href="#f0_1x" transform="matrix(12,0,0,12,164.3,167)" />
<use xlink:href="#f0_2a" transform="matrix(12,0,0,12,172,167)" />
<use xlink:href="#f0_20" transform="matrix(12,0,0,12,180.8,167)" />
<use xlink:href="#f0_21" transform="matrix(12,0,0,12,189.6,167)" />
<use xlink:href="#f0_20" transform="matrix(12,0,0,12,197.4,167)" />
<use xlink:href="#f0_2f" transform="matrix(12,0,0,12,209.5,167)" />
<use xlink:href="#f0_1z" transform="matrix(12,0,0,12,216.5,167)" />
<use xlink:href="#f0_2e" transform="matrix(12,0,0,12,224.2,167)" />
<use xlink:href="#f0_21" transform="matrix(12,0,0,12,230.1,167)" />
<use xlink:href="#f0_2j" transform="matrix(12,0,0,12,237.8,167)" />
<use xlink:href="#f0_i" transform="matrix(12,0,0,12,249.5,167)" />
<use xlink:href="#f0_c" transform="matrix(12,0,0,12,257.6,167)" />
<use xlink:href="#f0_24" transform="matrix(12,0,0,12,263.5,167)" />
<use xlink:href="#f0_21" transform="matrix(12,0,0,12,272,167)" />
<use xlink:href="#f0_28" transform="matrix(12,0,0,12,279.7,167)" />
<use xlink:href="#f0_25" transform="matrix(12,0,0,12,284.1,167)" />
<use xlink:href="#f0_2k" transform="matrix(12,0,0,12,288.1,167)" />
<use xlink:href="#f0_d" transform="matrix(12,0,0,12,296.6,167)" />
</g>
<g clip-path="url(#c3_10)">
<g fill="#000000" >
<use xlink:href="#f1_1y" transform="matrix(11.9,0,-3.2,11.9,158.8,198.5)" />
</g>
</g>
<g fill="#000000" >
<use xlink:href="#f0_h" transform="matrix(12,0,0,12,174.2,198.1)" />
<use xlink:href="#f0_2c" transform="matrix(12,0,0,12,180.1,198.1)" />
<use xlink:href="#f0_28" transform="matrix(12,0,0,12,189.2,198.1)" />
<use xlink:href="#f0_21" transform="matrix(12,0,0,12,193.3,198.1)" />
<use xlink:href="#f0_1x" transform="matrix(12,0,0,12,201,198.1)" />
<use xlink:href="#f0_2g" transform="matrix(12,0,0,12,209.1,198.1)" />
<use xlink:href="#f0_21" transform="matrix(12,0,0,12,214.2,198.1)" />
<use xlink:href="#f0_20" transform="matrix(12,0,0,12,221.9,198.1)" />
<use xlink:href="#f0_u" transform="matrix(12,0,0,12,234.4,198.1)" />
<use xlink:href="#f0_19" transform="matrix(12,0,0,12,242.5,198.1)" />
<use xlink:href="#f0_2g" transform="matrix(12,0,0,12,248.4,198.1)" />
<use xlink:href="#f0_24" transform="matrix(12,0,0,12,257.2,198.1)" />
<use xlink:href="#f0_1x" transform="matrix(12,0,0,12,265.7,198.1)" />
<use xlink:href="#f0_2f" transform="matrix(12,0,0,12,273.4,198.1)" />
<use xlink:href="#f0_2c" transform="matrix(12,0,0,12,283.7,198.1)" />
<use xlink:href="#f0_21" transform="matrix(12,0,0,12,292.5,198.1)" />
<use xlink:href="#f0_2c" transform="matrix(12,0,0,12,300.6,198.1)" />
<use xlink:href="#f0_2g" transform="matrix(12,0,0,12,309.4,198.1)" />
<use xlink:href="#f0_25" transform="matrix(12,0,0,12,314.5,198.1)" />
<use xlink:href="#f0_20" transform="matrix(12,0,0,12,318.9,198.1)" />
<use xlink:href="#f0_21" transform="matrix(12,0,0,12,327.8,198.1)" />
<use xlink:href="#f0_1z" transform="matrix(12,0,0,12,339.2,198.1)" />
<use xlink:href="#f0_24" transform="matrix(12,0,0,12,346.9,198.1)" />
<use xlink:href="#f0_1x" transform="matrix(12,0,0,12,355.3,198.1)" />
<use xlink:href="#f0_25" transform="matrix(12,0,0,12,363.4,198.1)" />
<use xlink:href="#f0_2a" transform="matrix(12,0,0,12,367.5,198.1)" />
<use xlink:href="#f0_2j" transform="matrix(12,0,0,12,379.2,198.1)" />
<use xlink:href="#f0_24" transform="matrix(12,0,0,12,392.1,198.1)" />
<use xlink:href="#f0_25" transform="matrix(12,0,0,12,400.5,198.1)" />
<use xlink:href="#f0_1z" transform="matrix(12,0,0,12,404.9,198.1)" />
<use xlink:href="#f0_24" transform="matrix(12,0,0,12,412.7,198.1)" />
<use xlink:href="#f0_1x" transform="matrix(12,0,0,12,424.8,198.1)" />
<use xlink:href="#f0_2e" transform="matrix(12,0,0,12,432.5,198.1)" />
<use xlink:href="#f0_21" transform="matrix(12,0,0,12,438.4,198.1)" />
<use xlink:href="#f0_2f" transform="matrix(12,0,0,12,449.8,198.1)" />
<use xlink:href="#f0_2g" transform="matrix(12,0,0,12,456.4,198.1)" />
<use xlink:href="#f0_2e" transform="matrix(12,0,0,12,461.9,198.1)" />
<use xlink:href="#f0_21" transform="matrix(12,0,0,12,467.8,198.1)" />
<use xlink:href="#f0_2g" transform="matrix(12,0,0,12,475.5,198.1)" />
<use xlink:href="#f0_1z" transform="matrix(12,0,0,12,481,198.1)" />
<use xlink:href="#f0_24" transform="matrix(12,0,0,12,488.7,198.1)" />
<use xlink:href="#f0_21" transform="matrix(12,0,0,12,497.2,198.1)" />
<use xlink:href="#f0_20" transform="matrix(12,0,0,12,505.3,198.1)" />
<use xlink:href="#f0_2b" transform="matrix(12,0,0,12,517.4,198.1)" />
<use xlink:href="#f0_2h" transform="matrix(12,0,0,12,526.9,198.1)" />
<use xlink:href="#f0_2g" transform="matrix(12,0,0,12,535.7,198.1)" />
<use xlink:href="#f0_2g" transform="matrix(12,0,0,12,544.2,198.1)" />
<use xlink:href="#f0_2b" transform="matrix(12,0,0,12,549.3,198.1)" />
<use xlink:href="#f0_2a" transform="matrix(12,0,0,12,562.2,198.1)" />
<use xlink:href="#f0_21" transform="matrix(12,0,0,12,570.6,198.1)" />
<use xlink:href="#f0_1x" transform="matrix(12,0,0,12,578.3,198.1)" />
<use xlink:href="#f0_2e" transform="matrix(12,0,0,12,586.4,198.1)" />
<use xlink:href="#f0_28" transform="matrix(12,0,0,12,592.3,198.1)" />
<use xlink:href="#f0_2l" transform="matrix(12,0,0,12,596.4,198.1)" />
<use xlink:href="#f0_29" transform="matrix(12,0,0,12,608.1,198.1)" />
<use xlink:href="#f0_1x" transform="matrix(12,0,0,12,621.3,198.1)" />
<use xlink:href="#f0_2k" transform="matrix(12,0,0,12,629.4,198.1)" />
<use xlink:href="#f0_25" transform="matrix(12,0,0,12,637.9,198.1)" />
<use xlink:href="#f0_29" transform="matrix(12,0,0,12,641.9,198.1)" />
<use xlink:href="#f0_2h" transform="matrix(12,0,0,12,655.5,198.1)" />
<use xlink:href="#f0_29" transform="matrix(12,0,0,12,664.3,198.1)" />
<use xlink:href="#f0_21" transform="matrix(12,0,0,12,681.2,198.1)" />
<use xlink:href="#f0_2k" transform="matrix(12,0,0,12,688.9,198.1)" />
<use xlink:href="#f0_2g" transform="matrix(12,0,0,12,697.4,198.1)" />
<use xlink:href="#f0_21" transform="matrix(12,0,0,12,702.9,198.1)" />
<use xlink:href="#f0_2a" transform="matrix(12,0,0,12,710.6,198.1)" />
<use xlink:href="#f0_2f" transform="matrix(12,0,0,12,719.1,198.1)" />
<use xlink:href="#f0_25" transform="matrix(12,0,0,12,726,198.1)" />
<use xlink:href="#f0_2b" transform="matrix(12,0,0,12,730.1,198.1)" />
<use xlink:href="#f0_2a" transform="matrix(12,0,0,12,739.3,198.1)" />
<use xlink:href="#f0_1x" transform="matrix(12,0,0,12,751,198.1)" />
<use xlink:href="#f0_2a" transform="matrix(12,0,0,12,758.7,198.1)" />
<use xlink:href="#f0_20" transform="matrix(12,0,0,12,767.6,198.1)" />
<use xlink:href="#f0_2g" transform="matrix(12,0,0,12,779.7,198.1)" />
<use xlink:href="#f0_24" transform="matrix(12,0,0,12,785.2,198.1)" />
<use xlink:href="#f0_21" transform="matrix(12,0,0,12,793.6,198.1)" />
<use xlink:href="#f0_2a" transform="matrix(12,0,0,12,801.4,198.1)" />
<use xlink:href="#f0_28" transform="matrix(12,0,0,12,813.5,198.1)" />
<use xlink:href="#f0_1x" transform="matrix(12,0,0,12,817.5,198.1)" />
<use xlink:href="#f0_25" transform="matrix(12,0,0,12,825.6,198.1)" />
<use xlink:href="#f0_20" transform="matrix(12,0,0,12,829.7,198.1)" />
<use xlink:href="#f0_2f" transform="matrix(12,0,0,12,155.8,224.5)" />
<use xlink:href="#f0_25" transform="matrix(12,0,0,12,162.5,224.5)" />
<use xlink:href="#f0_20" transform="matrix(12,0,0,12,166.9,224.5)" />
<use xlink:href="#f0_21" transform="matrix(12,0,0,12,175.7,224.5)" />
<use xlink:href="#f0_1y" transform="matrix(12,0,0,12,187.1,224.5)" />
<use xlink:href="#f0_2l" transform="matrix(12,0,0,12,195.9,224.5)" />
<use xlink:href="#f0_2f" transform="matrix(12,0,0,12,207.7,224.5)" />
<use xlink:href="#f0_25" transform="matrix(12,0,0,12,214.3,224.5)" />
<use xlink:href="#f0_20" transform="matrix(12,0,0,12,218.3,224.5)" />
<use xlink:href="#f0_21" transform="matrix(12,0,0,12,227.5,224.5)" />
<use xlink:href="#f0_2j" transform="matrix(12,0,0,12,238.5,224.5)" />
<use xlink:href="#f0_24" transform="matrix(12,0,0,12,251.4,224.5)" />
<use xlink:href="#f0_25" transform="matrix(12,0,0,12,260.2,224.5)" />
<use xlink:href="#f0_1z" transform="matrix(12,0,0,12,264.3,224.5)" />
<use xlink:href="#f0_24" transform="matrix(12,0,0,12,272.3,224.5)" />
<use xlink:href="#f0_1x" transform="matrix(12,0,0,12,284.5,224.5)" />
<use xlink:href="#f0_2e" transform="matrix(12,0,0,12,292.2,224.5)" />
<use xlink:href="#f0_21" transform="matrix(12,0,0,12,298.1,224.5)" />
<use xlink:href="#f0_24" transform="matrix(12,0,0,12,309.5,224.5)" />
<use xlink:href="#f0_21" transform="matrix(12,0,0,12,318.3,224.5)" />
<use xlink:href="#f0_28" transform="matrix(12,0,0,12,326,224.5)" />
<use xlink:href="#f0_20" transform="matrix(12,0,0,12,330.4,224.5)" />
<use xlink:href="#f0_1y" transform="matrix(12,0,0,12,342.9,224.5)" />
<use xlink:href="#f0_2l" transform="matrix(12,0,0,12,351.4,224.5)" />
<use xlink:href="#f0_25" transform="matrix(12,0,0,12,362.8,224.5)" />
<use xlink:href="#f0_2a" transform="matrix(12,0,0,12,366.8,224.5)" />
<use xlink:href="#f0_2g" transform="matrix(12,0,0,12,375.6,224.5)" />
<use xlink:href="#f0_21" transform="matrix(12,0,0,12,380.8,224.5)" />
<use xlink:href="#f0_2e" transform="matrix(12,0,0,12,388.9,224.5)" />
<use xlink:href="#f0_29" transform="matrix(12,0,0,12,394.7,224.5)" />
<use xlink:href="#f0_2b" transform="matrix(12,0,0,12,408.3,224.5)" />
<use xlink:href="#f0_28" transform="matrix(12,0,0,12,417.5,224.5)" />
<use xlink:href="#f0_21" transform="matrix(12,0,0,12,421.9,224.5)" />
<use xlink:href="#f0_1z" transform="matrix(12,0,0,12,429.6,224.5)" />
<use xlink:href="#f0_2h" transform="matrix(12,0,0,12,437.3,224.5)" />
<use xlink:href="#f0_28" transform="matrix(12,0,0,12,446.5,224.5)" />
<use xlink:href="#f0_1x" transform="matrix(12,0,0,12,450.6,224.5)" />
<use xlink:href="#f0_2e" transform="matrix(12,0,0,12,458.6,224.5)" />
<use xlink:href="#f0_24" transform="matrix(12,0,0,12,468.2,224.5)" />
<use xlink:href="#f0_2l" transform="matrix(12,0,0,12,476.7,224.5)" />
<use xlink:href="#f0_20" transform="matrix(12,0,0,12,485.1,224.5)" />
<use xlink:href="#f0_2e" transform="matrix(12,0,0,12,493.9,224.5)" />
<use xlink:href="#f0_2b" transform="matrix(12,0,0,12,499.8,224.5)" />
<use xlink:href="#f0_23" transform="matrix(12,0,0,12,509.3,224.5)" />
<use xlink:href="#f0_21" transform="matrix(12,0,0,12,518.2,224.5)" />
<use xlink:href="#f0_2a" transform="matrix(12,0,0,12,526.2,224.5)" />
<use xlink:href="#f0_1y" transform="matrix(12,0,0,12,538.4,224.5)" />
<use xlink:href="#f0_2b" transform="matrix(12,0,0,12,546.8,224.5)" />
<use xlink:href="#f0_2a" transform="matrix(12,0,0,12,556.4,224.5)" />
<use xlink:href="#f0_20" transform="matrix(12,0,0,12,564.8,224.5)" />
<use xlink:href="#f0_2f" transform="matrix(12,0,0,12,574,224.5)" />
<use xlink:href="#f0_i" transform="matrix(12,0,0,12,580.6,224.5)" />
<use xlink:href="#f0_m" transform="matrix(12,0,0,12,64.9,306.7)" />
<use xlink:href="#f0_k" transform="matrix(12,0,0,12,74.1,306.7)" />
<use xlink:href="#f0_i" transform="matrix(12,0,0,12,83.2,306.7)" />
<use xlink:href="#f0_11" transform="matrix(12,0,0,12,117,306.7)" />
<use xlink:href="#f0_22" transform="matrix(12,0,0,12,133.1,306.7)" />
<use xlink:href="#f0_25" transform="matrix(12,0,0,12,138.7,306.7)" />
<use xlink:href="#f0_2e" transform="matrix(12,0,0,12,143.1,306.7)" />
<use xlink:href="#f0_2f" transform="matrix(12,0,0,12,149,306.7)" />
<use xlink:href="#f0_2g" transform="matrix(12,0,0,12,155.9,306.7)" />
<use xlink:href="#f0_2b" transform="matrix(12,0,0,12,164.8,306.7)" />
<use xlink:href="#f0_2e" transform="matrix(12,0,0,12,174.3,306.7)" />
<use xlink:href="#f0_20" transform="matrix(12,0,0,12,180.5,306.7)" />
<use xlink:href="#f0_21" transform="matrix(12,0,0,12,189.3,306.7)" />
<use xlink:href="#f0_2e" transform="matrix(12,0,0,12,197.4,306.7)" />
<use xlink:href="#f0_2e" transform="matrix(12,0,0,12,207,306.7)" />
<use xlink:href="#f0_21" transform="matrix(12,0,0,12,212.8,306.7)" />
<use xlink:href="#f0_1x" transform="matrix(12,0,0,12,220.9,306.7)" />
<use xlink:href="#f0_1z" transform="matrix(12,0,0,12,229,306.7)" />
<use xlink:href="#f0_2g" transform="matrix(12,0,0,12,236.7,306.7)" />
<use xlink:href="#f0_25" transform="matrix(12,0,0,12,242.2,306.7)" />
<use xlink:href="#f0_2b" transform="matrix(12,0,0,12,246.6,306.7)" />
<use xlink:href="#f0_2a" transform="matrix(12,0,0,12,255.8,306.7)" />
<use xlink:href="#f0_25" transform="matrix(12,0,0,12,268.3,306.7)" />
<use xlink:href="#f0_2f" transform="matrix(12,0,0,12,272.4,306.7)" />
<use xlink:href="#f0_p" transform="matrix(12,0,0,12,283,306.7)" />
<use xlink:href="#f0_k" transform="matrix(12,0,0,12,291.9,306.7)" />
<use xlink:href="#f0_9" transform="matrix(12,0,0,12,301,306.7)" />
<use xlink:href="#f0_1z" transform="matrix(12,0,0,12,319.7,306.7)" />
<use xlink:href="#f0_2b" transform="matrix(12,0,0,12,327.8,306.7)" />
<use xlink:href="#f0_29" transform="matrix(12,0,0,12,337.3,306.7)" />
<use xlink:href="#f0_2c" transform="matrix(12,0,0,12,350.6,306.7)" />
<use xlink:href="#f0_28" transform="matrix(12,0,0,12,359.7,306.7)" />
<use xlink:href="#f0_21" transform="matrix(12,0,0,12,364.1,306.7)" />
<use xlink:href="#f0_2g" transform="matrix(12,0,0,12,371.9,306.7)" />
<use xlink:href="#f0_21" transform="matrix(12,0,0,12,377.4,306.7)" />
<use xlink:href="#f0_20" transform="matrix(12,0,0,12,385.4,306.7)" />
<use xlink:href="#f0_25" transform="matrix(12,0,0,12,397.6,306.7)" />
<use xlink:href="#f0_2a" transform="matrix(12,0,0,12,402,306.7)" />
<use xlink:href="#f0_o" transform="matrix(12,0,0,12,414.1,306.7)" />
<use xlink:href="#f0_k" transform="matrix(12,0,0,12,423.3,306.7)" />
<use xlink:href="#f0_29" transform="matrix(12,0,0,12,435.8,306.7)" />
<use xlink:href="#f0_25" transform="matrix(12,0,0,12,449.3,306.7)" />
<use xlink:href="#f0_2a" transform="matrix(12,0,0,12,453.8,306.7)" />
<use xlink:href="#f0_2h" transform="matrix(12,0,0,12,462.2,306.7)" />
<use xlink:href="#f0_2g" transform="matrix(12,0,0,12,471.4,306.7)" />
<use xlink:href="#f0_21" transform="matrix(12,0,0,12,476.9,306.7)" />
<use xlink:href="#f0_2f" transform="matrix(12,0,0,12,484.6,306.7)" />
<use xlink:href="#f0_1x" transform="matrix(12,0,0,12,495.3,306.7)" />
<use xlink:href="#f0_2g" transform="matrix(12,0,0,12,503,306.7)" />
<use xlink:href="#f0_n" transform="matrix(12,0,0,12,511.8,306.7)" />
<use xlink:href="#f0_k" transform="matrix(12,0,0,12,520.6,306.7)" />
<use xlink:href="#f0_k" transform="matrix(12,0,0,12,529.8,306.7)" />
<use xlink:href="#f0_1b" transform="matrix(12,0,0,12,542.3,306.7)" />
<use xlink:href="#f0_1x" transform="matrix(12,0,0,12,558.8,306.7)" />
<use xlink:href="#f0_2a" transform="matrix(12,0,0,12,566.5,306.7)" />
<use xlink:href="#f0_20" transform="matrix(12,0,0,12,575.3,306.7)" />
<use xlink:href="#f0_25" transform="matrix(12,0,0,12,588.2,306.7)" />
<use xlink:href="#f0_2a" transform="matrix(12,0,0,12,592.2,306.7)" />
<use xlink:href="#f0_m" transform="matrix(12,0,0,12,604.4,306.7)" />
<use xlink:href="#f0_k" transform="matrix(12,0,0,12,613.2,306.7)" />
<use xlink:href="#f0_29" transform="matrix(12,0,0,12,626,306.7)" />
<use xlink:href="#f0_25" transform="matrix(12,0,0,12,639.2,306.7)" />
<use xlink:href="#f0_2a" transform="matrix(12,0,0,12,643.7,306.7)" />
<use xlink:href="#f0_2h" transform="matrix(12,0,0,12,652.5,306.7)" />
<use xlink:href="#f0_2g" transform="matrix(12,0,0,12,661.3,306.7)" />
<use xlink:href="#f0_21" transform="matrix(12,0,0,12,666.8,306.7)" />
<use xlink:href="#f0_2f" transform="matrix(12,0,0,12,674.9,306.7)" />
<use xlink:href="#f0_1x" transform="matrix(12,0,0,12,685.2,306.7)" />
<use xlink:href="#f0_2g" transform="matrix(12,0,0,12,693.3,306.7)" />
<use xlink:href="#f0_n" transform="matrix(12,0,0,12,702.1,306.7)" />
<use xlink:href="#f0_m" transform="matrix(12,0,0,12,711.2,306.7)" />
<use xlink:href="#f0_k" transform="matrix(12,0,0,12,720.1,306.7)" />
<use xlink:href="#f0_1b" transform="matrix(12,0,0,12,732.5,306.7)" />
<use xlink:href="#f0_i" transform="matrix(12,0,0,12,745,306.7)" />
<use xlink:href="#f0_13" transform="matrix(12,0,0,12,753.5,306.7)" />
<use xlink:href="#f0_1x" transform="matrix(12,0,0,12,765.6,306.7)" />
<use xlink:href="#f0_28" transform="matrix(12,0,0,12,773.3,306.7)" />
<use xlink:href="#f0_1z" transform="matrix(12,0,0,12,777.7,306.7)" />
<use xlink:href="#f0_2h" transform="matrix(12,0,0,12,785.8,306.7)" />
<use xlink:href="#f0_28" transform="matrix(12,0,0,12,794.6,306.7)" />
<use xlink:href="#f0_1x" transform="matrix(12,0,0,12,799,306.7)" />
<use xlink:href="#f0_2g" transform="matrix(12,0,0,12,807.1,306.7)" />
<use xlink:href="#f0_21" transform="matrix(12,0,0,12,812.2,306.7)" />
<use xlink:href="#f0_2g" transform="matrix(12,0,0,12,822.8,306.7)" />
<use xlink:href="#f0_24" transform="matrix(12,0,0,12,828,306.7)" />
<use xlink:href="#f0_21" transform="matrix(12,0,0,12,836.8,306.7)" />
<use xlink:href="#f0_1x" transform="matrix(12,0,0,12,117,331.2)" />
<use xlink:href="#f0_1z" transform="matrix(12,0,0,12,124.7,331.2)" />
<use xlink:href="#f0_2g" transform="matrix(12,0,0,12,132.4,331.2)" />
<use xlink:href="#f0_25" transform="matrix(12,0,0,12,137.5,331.2)" />
<use xlink:href="#f0_2i" transform="matrix(12,0,0,12,141.6,331.2)" />
<use xlink:href="#f0_1x" transform="matrix(12,0,0,12,150,331.2)" />
<use xlink:href="#f0_2g" transform="matrix(12,0,0,12,157.8,331.2)" />
<use xlink:href="#f0_25" transform="matrix(12,0,0,12,162.9,331.2)" />
<use xlink:href="#f0_2b" transform="matrix(12,0,0,12,166.9,331.2)" />
<use xlink:href="#f0_2a" transform="matrix(12,0,0,12,176.1,331.2)" />
<use xlink:href="#f0_21" transform="matrix(12,0,0,12,187.9,331.2)" />
<use xlink:href="#f0_2a" transform="matrix(12,0,0,12,195.6,331.2)" />
<use xlink:href="#f0_21" transform="matrix(12,0,0,12,204,331.2)" />
<use xlink:href="#f0_2e" transform="matrix(12,0,0,12,211.8,331.2)" />
<use xlink:href="#f0_23" transform="matrix(12,0,0,12,217.6,331.2)" />
<use xlink:href="#f0_2l" transform="matrix(12,0,0,12,226.5,331.2)" />
<use xlink:href="#f0_2b" transform="matrix(12,0,0,12,237.9,331.2)" />
<use xlink:href="#f0_22" transform="matrix(12,0,0,12,247,331.2)" />
<use xlink:href="#f0_2g" transform="matrix(12,0,0,12,255.5,331.2)" />
<use xlink:href="#f0_24" transform="matrix(12,0,0,12,260.6,331.2)" />
<use xlink:href="#f0_21" transform="matrix(12,0,0,12,269.1,331.2)" />
<use xlink:href="#f0_2e" transform="matrix(12,0,0,12,280.1,331.2)" />
<use xlink:href="#f0_21" transform="matrix(12,0,0,12,286,331.2)" />
<use xlink:href="#f0_1x" transform="matrix(12,0,0,12,293.7,331.2)" />
<use xlink:href="#f0_1z" transform="matrix(12,0,0,12,301.4,331.2)" />
<use xlink:href="#f0_2g" transform="matrix(12,0,0,12,309.1,331.2)" />
<use xlink:href="#f0_25" transform="matrix(12,0,0,12,314.3,331.2)" />
<use xlink:href="#f0_2b" transform="matrix(12,0,0,12,318.3,331.2)" />
<use xlink:href="#f0_2a" transform="matrix(12,0,0,12,327.5,331.2)" />
<use xlink:href="#f0_i" transform="matrix(12,0,0,12,335.9,331.2)" />
<use xlink:href="#f0_c" transform="matrix(12,0,0,12,117,359.8)" />
<use xlink:href="#f0_17" transform="matrix(12,0,0,12,123.2,359.8)" />
<use xlink:href="#f0_25" transform="matrix(12,0,0,12,136.4,359.8)" />
<use xlink:href="#f0_2i" transform="matrix(12,0,0,12,140.8,359.8)" />
<use xlink:href="#f0_21" transform="matrix(12,0,0,12,149.6,359.8)" />
<use xlink:href="#f0_2a" transform="matrix(12,0,0,12,157.7,359.8)" />
<use xlink:href="#f0_u" transform="matrix(12,0,0,12,166.5,359.8)" />
<use xlink:href="#f0_28" transform="matrix(12,0,0,12,175.4,359.8)" />
<use xlink:href="#f0_2b" transform="matrix(12,0,0,12,179.8,359.8)" />
<use xlink:href="#f0_23" transform="matrix(12,0,0,12,189.3,359.8)" />
<use xlink:href="#f0_m" transform="matrix(12,0,0,12,202.2,359.8)" />
<use xlink:href="#f0_x" transform="matrix(12,0,0,12,215,359.8)" />
<use xlink:href="#f0_k" transform="matrix(12,0,0,12,229,359.8)" />
<use xlink:href="#f0_i" transform="matrix(12,0,0,12,238.1,359.8)" />
<use xlink:href="#f0_n" transform="matrix(12,0,0,12,242.9,359.8)" />
<use xlink:href="#f0_k" transform="matrix(12,0,0,12,252.1,359.8)" />
<use xlink:href="#f0_l" transform="matrix(12,0,0,12,261.2,359.8)" />
<use xlink:href="#f0_k" transform="matrix(12,0,0,12,270.4,359.8)" />
<use xlink:href="#f0_g" transform="matrix(12,0,0,12,279.6,359.8)" />
<use xlink:href="#f0_28" transform="matrix(12,0,0,12,288,359.8)" />
<use xlink:href="#f0_2b" transform="matrix(12,0,0,12,292.4,359.8)" />
<use xlink:href="#f0_23" transform="matrix(12,0,0,12,302,359.8)" />
<use xlink:href="#f0_o" transform="matrix(12,0,0,12,314.8,359.8)" />
<use xlink:href="#f0_x" transform="matrix(12,0,0,12,327.7,359.8)" />
<use xlink:href="#f0_k" transform="matrix(12,0,0,12,341.6,359.8)" />
<use xlink:href="#f0_i" transform="matrix(12,0,0,12,350.8,359.8)" />
<use xlink:href="#f0_q" transform="matrix(12,0,0,12,355.6,359.8)" />
<use xlink:href="#f0_k" transform="matrix(12,0,0,12,364.7,359.8)" />
<use xlink:href="#f0_m" transform="matrix(12,0,0,12,373.9,359.8)" />
<use xlink:href="#f0_l" transform="matrix(12,0,0,12,383.1,359.8)" />
<use xlink:href="#f0_g" transform="matrix(12,0,0,12,392.2,359.8)" />
<use xlink:href="#f0_1i" transform="matrix(12,0,0,12,400.7,359.8)" />
<use xlink:href="#f0_x" transform="matrix(12,0,0,12,416.5,359.8)" />
<use xlink:href="#f0_s" transform="matrix(12,0,0,12,430.4,359.8)" />
<use xlink:href="#f0_i" transform="matrix(12,0,0,12,439.6,359.8)" />
<use xlink:href="#f0_n" transform="matrix(12,0,0,12,444.4,359.8)" />
<use xlink:href="#f0_l" transform="matrix(12,0,0,12,453.5,359.8)" />
<use xlink:href="#f0_o" transform="matrix(12,0,0,12,462.7,359.8)" />
<use xlink:href="#f0_1a" transform="matrix(12,0,0,12,475.6,359.8)" />
<use xlink:href="#f0_1b" transform="matrix(12,0,0,12,482.5,359.8)" />
<use xlink:href="#f0_4y" transform="matrix(7,0,0,7,495,353.6)" />
<use xlink:href="#f0_l" transform="matrix(7,0,0,7,500.5,353.6)" />
<use xlink:href="#f0_29" transform="matrix(12,0,0,12,509.3,359.8)" />
<use xlink:href="#f0_2b" transform="matrix(12,0,0,12,522.9,359.8)" />
<use xlink:href="#f0_28" transform="matrix(12,0,0,12,532.4,359.8)" />
<use xlink:href="#f0_4y" transform="matrix(7,0,0,7,536.8,353.6)" />
<use xlink:href="#f0_l" transform="matrix(7,0,0,7,542.3,353.6)" />
<use xlink:href="#f0_d" transform="matrix(12,0,0,12,547.4,359.8)" />
<use xlink:href="#f0_11" transform="matrix(12,0,0,12,64.9,409)" />
<use xlink:href="#f0_2a" transform="matrix(12,0,0,12,77.4,409)" />
<use xlink:href="#f0_2f" transform="matrix(12,0,0,12,85.8,409)" />
<use xlink:href="#f0_i" transform="matrix(12,0,0,12,92.4,409)" />
</g>
<path d="M267.3,402h42.1" class="g2_10" />
<g fill="#000000" >
<use xlink:href="#f0_m" transform="matrix(6.9,0,0,6.9,127.6,411.2)" />
<use xlink:href="#f0_m" transform="matrix(6.9,0,0,6.9,244.9,411.2)" />
</g>
<g clip-path="url(#c4_10)">
<g fill="#000000" >
<use xlink:href="#f0_k" transform="matrix(11.9,0,0,11.9,268,395)" />
<use xlink:href="#f0_i" transform="matrix(11.9,0,0,11.9,277.2,395)" />
<use xlink:href="#f0_q" transform="matrix(11.9,0,0,11.9,281.9,395)" />
<use xlink:href="#f0_t" transform="matrix(11.9,0,0,11.9,291.1,395)" />
<use xlink:href="#f0_n" transform="matrix(11.9,0,0,11.9,300.3,395)" />
</g>
</g>
<g fill="#000000" >
<use xlink:href="#f0_n" transform="matrix(11.9,0,0,11.9,149.2,406.4)" />
<use xlink:href="#f0_m" transform="matrix(11.9,0,0,11.9,158.4,406.4)" />
<use xlink:href="#f0_k" transform="matrix(11.9,0,0,11.9,167.5,406.4)" />
</g>
<g clip-path="url(#c5_10)">
<g fill="#000000" >
<use xlink:href="#f0_m" transform="matrix(11.9,0,0,11.9,279.4,420.7)" />
<use xlink:href="#f0_k" transform="matrix(11.9,0,0,11.9,288.6,420.7)" />
</g>
</g>
<g fill="#000000" >
<use xlink:href="#f2_1k" transform="matrix(11.9,0,0,11.9,118.4,406.4)" />
<use xlink:href="#f2_1b" transform="matrix(11.9,0,0,11.9,179.6,406.4)" />
<use xlink:href="#f2_1b" transform="matrix(11.9,0,0,11.9,231.7,406.4)" />
<use xlink:href="#f3_x" transform="matrix(11.9,0,0,11.9,137.5,406.4)" />
<use xlink:href="#f3_x" transform="matrix(11.9,0,0,11.9,254.5,406.4)" />
</g>
<path d="M265.2,462.7h42" class="g3_10" />
<g fill="#000000" >
<use xlink:href="#f0_l" transform="matrix(6.9,0,0,6.9,126.5,472)" />
<use xlink:href="#f0_l" transform="matrix(6.9,0,0,6.9,243.5,472)" />
</g>
<g clip-path="url(#c6_10)">
<g fill="#000000" >
<use xlink:href="#f0_k" transform="matrix(12,0,0,12,266.2,455.9)" />
<use xlink:href="#f0_i" transform="matrix(12,0,0,12,275,455.9)" />
<use xlink:href="#f0_q" transform="matrix(12,0,0,12,279.8,455.9)" />
<use xlink:href="#f0_t" transform="matrix(12,0,0,12,288.9,455.9)" />
<use xlink:href="#f0_n" transform="matrix(12,0,0,12,298.1,455.9)" />
</g>
</g>
<g fill="#000000" >
<use xlink:href="#f0_n" transform="matrix(12,0,0,12,147.4,467.3)" />
<use xlink:href="#f0_k" transform="matrix(12,0,0,12,156.6,467.3)" />
<use xlink:href="#f0_k" transform="matrix(12,0,0,12,165.7,467.3)" />
</g>
<g clip-path="url(#c7_10)">
<g fill="#000000" >
<use xlink:href="#f0_o" transform="matrix(12,0,0,12,277.2,481.6)" />
<use xlink:href="#f0_k" transform="matrix(12,0,0,12,286.4,481.6)" />
</g>
</g>
<g fill="#000000" >
<use xlink:href="#f2_1k" transform="matrix(12,0,0,12,118.4,467.3)" />
<use xlink:href="#f2_1b" transform="matrix(12,0,0,12,177.8,467.3)" />
<use xlink:href="#f2_1b" transform="matrix(12,0,0,12,231.3,467.3)" />
<use xlink:href="#f3_x" transform="matrix(12,0,0,12,135.3,467.3)" />
<use xlink:href="#f3_x" transform="matrix(12,0,0,12,252.3,467.3)" />
</g>
<path d="M145.8,529.8h22.9m16.1,0h57m12.5,0h45.4" class="g4_10" />
<g clip-path="url(#c8_10)">
<g fill="#000000" >
<use xlink:href="#f0_m" transform="matrix(7,0,0,7,160.6,527.4)" />
<use xlink:href="#f0_m" transform="matrix(7,0,0,7,263.6,527.4)" />
<use xlink:href="#f0_l" transform="matrix(7,0,0,7,292.6,527.4)" />
</g>
</g>
<g fill="#000000" >
<use xlink:href="#f0_l" transform="matrix(7,0,0,7,160.6,553.4)" />
<use xlink:href="#f0_l" transform="matrix(7,0,0,7,268.8,553.4)" />
<use xlink:href="#f0_m" transform="matrix(7,0,0,7,285.6,553.4)" />
<use xlink:href="#f0_28" transform="matrix(12,0,0,12.1,119.5,534.4)" />
<use xlink:href="#f0_2b" transform="matrix(12,0,0,12.1,124.3,534.4)" />
<use xlink:href="#f0_23" transform="matrix(12,0,0,12.1,133.5,534.4)" />
<use xlink:href="#f0_m" transform="matrix(12,0,0,12.1,185.9,548.7)" />
<use xlink:href="#f0_i" transform="matrix(12,0,0,12.1,195.1,548.7)" />
<use xlink:href="#f0_n" transform="matrix(12,0,0,12.1,199.8,548.7)" />
<use xlink:href="#f0_k" transform="matrix(12,0,0,12.1,209,548.7)" />
<use xlink:href="#f0_n" transform="matrix(12,0,0,12.1,218.2,548.7)" />
<use xlink:href="#f2_1x" transform="matrix(7,0,0,7,215.6,527.4)" />
<use xlink:href="#f2_15" transform="matrix(12,0,0,12.1,204.6,522.6)" />
</g>
<g clip-path="url(#c9_10)">
<g fill="#000000" >
<use xlink:href="#f2_1b" transform="matrix(12,0,0,12.1,147.4,522.6)" />
<use xlink:href="#f2_1k" transform="matrix(12,0,0,12.1,254.1,522.6)" />
<use xlink:href="#f2_1k" transform="matrix(12,0,0,12.1,284.5,522.6)" />
</g>
</g>
<g clip-path="url(#c10_10)">
<g fill="#000000" >
<use xlink:href="#f2_1b" transform="matrix(12,0,0,12.1,148.5,548.7)" />
<use xlink:href="#f2_1i" transform="matrix(12,0,0,12.1,229.5,548.7)" />
<use xlink:href="#f2_1k" transform="matrix(12,0,0,12.1,260.7,548.7)" />
<use xlink:href="#f2_1k" transform="matrix(12,0,0,12.1,276.5,548.7)" />
</g>
</g>
<g clip-path="url(#c11_10)">
<g fill="#000000" >
<use xlink:href="#f3_4o" transform="matrix(12,0,0,12.1,244.6,521.9)" />
<use xlink:href="#f3_54" transform="matrix(12,0,0,12.1,302.5,521.9)" />
</g>
</g>
<g fill="#000000" >
<use xlink:href="#f3_h" transform="matrix(12,0,0,12.1,273.2,522.6)" />
<use xlink:href="#f3_x" transform="matrix(12,0,0,12.1,172,534.4)" />
</g>
<g clip-path="url(#c12_10)">
<g fill="#000000" >
<use xlink:href="#f3_4p" transform="matrix(12,0,0,12.1,244.6,538.8)" />
<use xlink:href="#f3_55" transform="matrix(12,0,0,12.1,302.5,538.8)" />
</g>
</g>
<g clip-path="url(#c13_10)">
<g fill="#000000" >
<use xlink:href="#f3_4q" transform="matrix(12,0,0,12.1,244.6,553.4)" />
<use xlink:href="#f3_56" transform="matrix(12,0,0,12.1,302.5,553.4)" />
</g>
</g>
<path d="M147.2,603h42.1m-42.1,44.2h42.1" class="g5_10" />
<path d="M145.8,624.2h44.9m16,0h95.9m12.4,0h70.4" class="g3_10" />
<g fill="#000000" >
<use xlink:href="#f0_k" transform="matrix(12,0,0,12,148.1,596.3)" />
<use xlink:href="#f0_i" transform="matrix(12,0,0,12,157.3,596.3)" />
<use xlink:href="#f0_q" transform="matrix(12,0,0,12,161.7,596.3)" />
<use xlink:href="#f0_t" transform="matrix(12,0,0,12,170.9,596.3)" />
<use xlink:href="#f0_n" transform="matrix(12,0,0,12,180,596.3)" />
</g>
<g clip-path="url(#c14_10)">
<g fill="#000000" >
<use xlink:href="#f0_n" transform="matrix(12,0,0,12,315.7,617.2)" />
<use xlink:href="#f0_m" transform="matrix(12,0,0,12,324.9,617.2)" />
<use xlink:href="#f0_k" transform="matrix(12,0,0,12,334,617.2)" />
<use xlink:href="#f0_n" transform="matrix(12,0,0,12,357.5,617.2)" />
<use xlink:href="#f0_k" transform="matrix(12,0,0,12,366.7,617.2)" />
<use xlink:href="#f0_k" transform="matrix(12,0,0,12,375.8,617.2)" />
</g>
</g>
<g fill="#000000" >
<use xlink:href="#f0_m" transform="matrix(12,0,0,12,159.5,621.6)" />
<use xlink:href="#f0_k" transform="matrix(12,0,0,12,168.7,621.6)" />
<use xlink:href="#f0_28" transform="matrix(12,0,0,12,119.5,629)" />
<use xlink:href="#f0_2b" transform="matrix(12,0,0,12,124.3,629)" />
<use xlink:href="#f0_23" transform="matrix(12,0,0,12,133.5,629)" />
<use xlink:href="#f0_k" transform="matrix(12,0,0,12,148.1,640.7)" />
<use xlink:href="#f0_i" transform="matrix(12,0,0,12,157.3,640.7)" />
<use xlink:href="#f0_q" transform="matrix(12,0,0,12,161.7,640.7)" />
<use xlink:href="#f0_t" transform="matrix(12,0,0,12,170.9,640.7)" />
<use xlink:href="#f0_n" transform="matrix(12,0,0,12,180,640.7)" />
</g>
<g clip-path="url(#c15_10)">
<g fill="#000000" >
<use xlink:href="#f0_m" transform="matrix(12,0,0,12,207.9,643.3)" />
<use xlink:href="#f0_i" transform="matrix(12,0,0,12,217.1,643.3)" />
<use xlink:href="#f0_n" transform="matrix(12,0,0,12,221.5,643.3)" />
<use xlink:href="#f0_k" transform="matrix(12,0,0,12,230.6,643.3)" />
<use xlink:href="#f0_n" transform="matrix(12,0,0,12,239.8,643.3)" />
<use xlink:href="#f0_s" transform="matrix(12,0,0,12,260.7,643.3)" />
<use xlink:href="#f0_i" transform="matrix(12,0,0,12,269.9,643.3)" />
<use xlink:href="#f0_n" transform="matrix(12,0,0,12,274.6,643.3)" />
<use xlink:href="#f0_l" transform="matrix(12,0,0,12,283.8,643.3)" />
<use xlink:href="#f0_o" transform="matrix(12,0,0,12,293,643.3)" />
<use xlink:href="#f0_n" transform="matrix(12,0,0,12,316.4,643.3)" />
<use xlink:href="#f0_m" transform="matrix(12,0,0,12,325.6,643.3)" />
<use xlink:href="#f0_k" transform="matrix(12,0,0,12,334.8,643.3)" />
<use xlink:href="#f0_n" transform="matrix(12,0,0,12,356.4,643.3)" />
<use xlink:href="#f0_k" transform="matrix(12,0,0,12,365.6,643.3)" />
<use xlink:href="#f0_k" transform="matrix(12,0,0,12,374.7,643.3)" />
</g>
</g>
<g clip-path="url(#c16_10)">
<g fill="#000000" >
<use xlink:href="#f0_o" transform="matrix(12,0,0,12,159.5,666)" />
<use xlink:href="#f0_k" transform="matrix(12,0,0,12,168.7,666)" />
</g>
</g>
<g fill="#000000" >
<use xlink:href="#f2_15" transform="matrix(12,0,0,12,244.9,617.2)" />
<use xlink:href="#f2_1x" transform="matrix(12,0,0,12,255.9,617.2)" />
</g>
<g clip-path="url(#c17_10)">
<g fill="#000000" >
<use xlink:href="#f3_4o" transform="matrix(12,0,0,12,305.1,616.5)" />
<use xlink:href="#f3_54" transform="matrix(12,0,0,12,388.3,616.5)" />
</g>
</g>
<g fill="#000000" >
<use xlink:href="#f3_h" transform="matrix(12,0,0,12,345.4,617.2)" />
<use xlink:href="#f3_x" transform="matrix(12,0,0,12,194,629)" />
</g>
<g clip-path="url(#c18_10)">
<g fill="#000000" >
<use xlink:href="#f3_4p" transform="matrix(12,0,0,12,305.1,633.4)" />
<use xlink:href="#f3_55" transform="matrix(12,0,0,12,388.3,633.4)" />
</g>
</g>
<g fill="#000000" >
<use xlink:href="#f3_3a" transform="matrix(12,0,0,12,249.7,643.3)" />
<use xlink:href="#f3_3a" transform="matrix(12,0,0,12,345,643.3)" />
</g>
<g clip-path="url(#c19_10)">
<g fill="#000000" >
<use xlink:href="#f3_4q" transform="matrix(12,0,0,12,305.1,647.3)" />
<use xlink:href="#f3_56" transform="matrix(12,0,0,12,388.3,647.3)" />
</g>
</g>
<path d="M154.8,718.6h20.1m25.1,0h96.1m12.4,0h68.9" class="g4_10" />
<g fill="#000000" >
<use xlink:href="#f0_o" transform="matrix(12,0,0,12.1,155.8,711.5)" />
<use xlink:href="#f0_k" transform="matrix(12,0,0,12.1,165.4,711.5)" />
<use xlink:href="#f0_m" transform="matrix(12,0,0,12.1,334,711.5)" />
<use xlink:href="#f0_k" transform="matrix(12,0,0,12.1,343.2,711.5)" />
<use xlink:href="#f0_28" transform="matrix(12,0,0,12.1,119.5,723.2)" />
<use xlink:href="#f0_2b" transform="matrix(12,0,0,12.1,124.3,723.2)" />
<use xlink:href="#f0_23" transform="matrix(12,0,0,12.1,133.5,723.2)" />
</g>
<g clip-path="url(#c20_10)">
<g fill="#000000" >
<use xlink:href="#f0_m" transform="matrix(12,0,0,12.1,155.8,737.5)" />
<use xlink:href="#f0_k" transform="matrix(12,0,0,12.1,165.4,737.5)" />
<use xlink:href="#f0_m" transform="matrix(12,0,0,12.1,201.3,737.5)" />
<use xlink:href="#f0_i" transform="matrix(12,0,0,12.1,210.4,737.5)" />
<use xlink:href="#f0_n" transform="matrix(12,0,0,12.1,214.9,737.5)" />
<use xlink:href="#f0_k" transform="matrix(12,0,0,12.1,224,737.5)" />
<use xlink:href="#f0_n" transform="matrix(12,0,0,12.1,233.2,737.5)" />
<use xlink:href="#f0_s" transform="matrix(12,0,0,12.1,254.1,737.5)" />
<use xlink:href="#f0_i" transform="matrix(12,0,0,12.1,263.3,737.5)" />
<use xlink:href="#f0_n" transform="matrix(12,0,0,12.1,268,737.5)" />
<use xlink:href="#f0_l" transform="matrix(12,0,0,12.1,277.2,737.5)" />
<use xlink:href="#f0_o" transform="matrix(12,0,0,12.1,286.3,737.5)" />
<use xlink:href="#f0_n" transform="matrix(12,0,0,12.1,309.1,737.5)" />
<use xlink:href="#f0_m" transform="matrix(12,0,0,12.1,318.2,737.5)" />
<use xlink:href="#f0_k" transform="matrix(12,0,0,12.1,327.4,737.5)" />
<use xlink:href="#f0_n" transform="matrix(12,0,0,12.1,349.4,737.5)" />
<use xlink:href="#f0_k" transform="matrix(12,0,0,12.1,358.6,737.5)" />
<use xlink:href="#f0_k" transform="matrix(12,0,0,12.1,367.7,737.5)" />
</g>
</g>
<g fill="#000000" >
<use xlink:href="#f2_15" transform="matrix(12,0,0,12.1,238,711.5)" />
<use xlink:href="#f2_1x" transform="matrix(12,0,0,12.1,249.3,711.5)" />
</g>
<g clip-path="url(#c21_10)">
<g fill="#000000" >
<use xlink:href="#f3_4o" transform="matrix(12,0,0,12.1,298.8,710.7)" />
<use xlink:href="#f3_54" transform="matrix(12,0,0,12.1,380.2,710.7)" />
</g>
</g>
<g fill="#000000" >
<use xlink:href="#f3_4o" transform="matrix(12,0,0,12.1,144.8,712.9)" />
<use xlink:href="#f3_54" transform="matrix(12,0,0,12.1,177.5,712.9)" />
<use xlink:href="#f3_x" transform="matrix(12,0,0,12.1,187,723.2)" />
</g>
<g clip-path="url(#c22_10)">
<g fill="#000000" >
<use xlink:href="#f3_4p" transform="matrix(12,0,0,12.1,298.8,727.6)" />
<use xlink:href="#f3_55" transform="matrix(12,0,0,12.1,380.2,727.6)" />
</g>
</g>
<g fill="#000000" >
<use xlink:href="#f3_4p" transform="matrix(12,0,0,12.1,144.8,728.3)" />
<use xlink:href="#f3_55" transform="matrix(12,0,0,12.1,177.5,728.3)" />
<use xlink:href="#f3_3a" transform="matrix(12,0,0,12.1,243.1,737.5)" />
<use xlink:href="#f3_3a" transform="matrix(12,0,0,12.1,337.7,737.5)" />
<use xlink:href="#f3_4q" transform="matrix(12,0,0,12.1,144.8,739.7)" />
<use xlink:href="#f3_56" transform="matrix(12,0,0,12.1,177.5,739.7)" />
</g>
<g clip-path="url(#c23_10)">
<g fill="#000000" >
<use xlink:href="#f3_4q" transform="matrix(12,0,0,12.1,298.8,741.9)" />
<use xlink:href="#f3_56" transform="matrix(12,0,0,12.1,380.2,741.9)" />
</g>
</g>
<path d="M245.1,793.4H341m12.4,0h68.7" class="g4_10" />
<g fill="#000000" >
<use xlink:href="#f0_m" transform="matrix(12,0,0,12.1,378.8,786.3)" />
<use xlink:href="#f0_k" transform="matrix(12,0,0,12.1,387.9,786.3)" />
<use xlink:href="#f0_l" transform="matrix(12,0,0,12.1,117.7,798)" />
<use xlink:href="#f0_i" transform="matrix(12,0,0,12.1,126.9,798)" />
<use xlink:href="#f0_q" transform="matrix(12,0,0,12.1,131.6,798)" />
<use xlink:href="#f0_k" transform="matrix(12,0,0,12.1,140.8,798)" />
<use xlink:href="#f0_m" transform="matrix(12,0,0,12.1,150,798)" />
<use xlink:href="#f0_l" transform="matrix(12,0,0,12.1,159.1,798)" />
<use xlink:href="#f0_l" transform="matrix(12,0,0,12.1,179.6,798)" />
<use xlink:href="#f0_i" transform="matrix(12,0,0,12.1,188.8,798)" />
<use xlink:href="#f0_n" transform="matrix(12,0,0,12.1,193.2,798)" />
<use xlink:href="#f0_k" transform="matrix(12,0,0,12.1,202.4,798)" />
<use xlink:href="#f0_l" transform="matrix(12,0,0,12.1,211.6,798)" />
<use xlink:href="#f0_k" transform="matrix(12,0,0,12.1,220.7,798)" />
</g>
<g clip-path="url(#c24_10)">
<g fill="#000000" >
<use xlink:href="#f0_m" transform="matrix(12,0,0,12.1,246.4,812.3)" />
<use xlink:href="#f0_i" transform="matrix(12,0,0,12.1,255.6,812.3)" />
<use xlink:href="#f0_n" transform="matrix(12,0,0,12.1,260,812.3)" />
<use xlink:href="#f0_k" transform="matrix(12,0,0,12.1,269.2,812.3)" />
<use xlink:href="#f0_n" transform="matrix(12,0,0,12.1,278.3,812.3)" />
<use xlink:href="#f0_s" transform="matrix(12,0,0,12.1,299.2,812.3)" />
<use xlink:href="#f0_i" transform="matrix(12,0,0,12.1,308.4,812.3)" />
<use xlink:href="#f0_n" transform="matrix(12,0,0,12.1,312.8,812.3)" />
<use xlink:href="#f0_l" transform="matrix(12,0,0,12.1,322,812.3)" />
<use xlink:href="#f0_o" transform="matrix(12,0,0,12.1,331.1,812.3)" />
<use xlink:href="#f0_n" transform="matrix(12,0,0,12.1,353.9,812.3)" />
<use xlink:href="#f0_m" transform="matrix(12,0,0,12.1,363,812.3)" />
<use xlink:href="#f0_k" transform="matrix(12,0,0,12.1,372.2,812.3)" />
<use xlink:href="#f0_n" transform="matrix(12,0,0,12.1,394.2,812.3)" />
<use xlink:href="#f0_k" transform="matrix(12,0,0,12.1,403.4,812.3)" />
<use xlink:href="#f0_k" transform="matrix(12,0,0,12.1,412.5,812.3)" />
</g>
</g>
<g fill="#000000" >
<use xlink:href="#f2_15" transform="matrix(12,0,0,12.1,283.1,786.3)" />
<use xlink:href="#f2_1x" transform="matrix(12,0,0,12.1,294.4,786.3)" />
</g>
<g clip-path="url(#c25_10)">
<g fill="#000000" >
<use xlink:href="#f3_4o" transform="matrix(12,0,0,12.1,343.6,785.5)" />
<use xlink:href="#f3_54" transform="matrix(12,0,0,12.1,424.6,785.5)" />
</g>
</g>
<g fill="#000000" >
<use xlink:href="#f3_h" transform="matrix(12,0,0,12.1,169,798)" />
<use xlink:href="#f3_x" transform="matrix(12,0,0,12.1,232.1,798)" />
</g>
<g clip-path="url(#c26_10)">
<g fill="#000000" >
<use xlink:href="#f3_4p" transform="matrix(12,0,0,12.1,343.6,802.4)" />
<use xlink:href="#f3_55" transform="matrix(12,0,0,12.1,424.6,802.4)" />
</g>
</g>
<g fill="#000000" >
<use xlink:href="#f3_3a" transform="matrix(12,0,0,12.1,288.2,812.3)" />
<use xlink:href="#f3_3a" transform="matrix(12,0,0,12.1,382.4,812.3)" />
</g>
<g clip-path="url(#c27_10)">
<g fill="#000000" >
<use xlink:href="#f3_4q" transform="matrix(12,0,0,12.1,343.6,816.7)" />
<use xlink:href="#f3_56" transform="matrix(12,0,0,12.1,424.6,816.7)" />
</g>
</g>
<path d="M132.6,862.2H371.7" class="g2_10" />
<g fill="#000000" >
<use xlink:href="#f0_k" transform="matrix(11.9,0,0,11.9,133.5,855.2)" />
<use xlink:href="#f0_i" transform="matrix(11.9,0,0,11.9,142.6,855.2)" />
<use xlink:href="#f0_n" transform="matrix(11.9,0,0,11.9,147,855.2)" />
<use xlink:href="#f0_k" transform="matrix(11.9,0,0,11.9,156.2,855.2)" />
<use xlink:href="#f0_l" transform="matrix(11.9,0,0,11.9,165.3,855.2)" />
<use xlink:href="#f0_k" transform="matrix(11.9,0,0,11.9,174.5,855.2)" />
<use xlink:href="#f0_m" transform="matrix(11.9,0,0,11.9,196.9,855.2)" />
<use xlink:href="#f0_i" transform="matrix(11.9,0,0,11.9,206,855.2)" />
<use xlink:href="#f0_n" transform="matrix(11.9,0,0,11.9,210.8,855.2)" />
<use xlink:href="#f0_k" transform="matrix(11.9,0,0,11.9,219.9,855.2)" />
<use xlink:href="#f0_n" transform="matrix(11.9,0,0,11.9,229.1,855.2)" />
<use xlink:href="#f0_s" transform="matrix(11.9,0,0,11.9,250,855.2)" />
<use xlink:href="#f0_i" transform="matrix(11.9,0,0,11.9,259.1,855.2)" />
<use xlink:href="#f0_n" transform="matrix(11.9,0,0,11.9,263.5,855.2)" />
<use xlink:href="#f0_l" transform="matrix(11.9,0,0,11.9,272.7,855.2)" />
<use xlink:href="#f0_o" transform="matrix(11.9,0,0,11.9,281.9,855.2)" />
<use xlink:href="#f0_n" transform="matrix(11.9,0,0,11.9,303.5,855.2)" />
<use xlink:href="#f0_m" transform="matrix(11.9,0,0,11.9,312.6,855.2)" />
<use xlink:href="#f0_k" transform="matrix(11.9,0,0,11.9,321.8,855.2)" />
<use xlink:href="#f0_n" transform="matrix(11.9,0,0,11.9,343.4,855.2)" />
<use xlink:href="#f0_k" transform="matrix(11.9,0,0,11.9,352.6,855.2)" />
<use xlink:href="#f0_k" transform="matrix(11.9,0,0,11.9,361.7,855.2)" />
</g>
<g clip-path="url(#c28_10)">
<g fill="#000000" >
<use xlink:href="#f0_m" transform="matrix(11.9,0,0,11.9,243.5,880.9)" />
<use xlink:href="#f0_k" transform="matrix(11.9,0,0,11.9,252.6,880.9)" />
</g>
</g>
<g clip-path="url(#c29_10)">
<g fill="#000000" >
<use xlink:href="#f2_15" transform="matrix(11.9,0,0,11.9,387.9,866.6)" />
<use xlink:href="#f2_1x" transform="matrix(11.9,0,0,11.9,399.3,866.6)" />
</g>
</g>
<g clip-path="url(#c30_10)">
<g fill="#000000" >
<use xlink:href="#f3_3a" transform="matrix(11.9,0,0,11.9,184.8,855.2)" />
<use xlink:href="#f3_3a" transform="matrix(11.9,0,0,11.9,238.7,855.2)" />
<use xlink:href="#f3_3a" transform="matrix(11.9,0,0,11.9,292.2,855.2)" />
<use xlink:href="#f3_3a" transform="matrix(11.9,0,0,11.9,332.2,855.2)" />
</g>
</g>
<g clip-path="url(#c31_10)">
<g fill="#000000" >
<use xlink:href="#f3_x" transform="matrix(11.9,0,0,11.9,119.9,866.6)" />
<use xlink:href="#f3_x" transform="matrix(11.9,0,0,11.9,374.7,866.6)" />
</g>
</g>
<g fill="#000000" >
<use xlink:href="#f4_x" transform="matrix(11.9,0,0,11.9,122.4,912.8)" />
<use xlink:href="#f0_m" transform="matrix(11.9,0,0,11.9,132.4,912.8)" />
<use xlink:href="#f0_r" transform="matrix(11.9,0,0,11.9,141.4,912.8)" />
<use xlink:href="#f0_r" transform="matrix(11.9,0,0,11.9,150.5,912.8)" />
<use xlink:href="#f0_q" transform="matrix(11.9,0,0,11.9,159.6,912.8)" />
<use xlink:href="#f0_o" transform="matrix(11.9,0,0,11.9,168.7,912.8)" />
<use xlink:href="#f2_1a" transform="matrix(11.9,0,0,11.9,180.8,912.8)" />
<use xlink:href="#f4_x" transform="matrix(11.9,0,0,11.9,120,944.4)" />
<use xlink:href="#f0_m" transform="matrix(11.9,0,0,11.9,130,944.4)" />
<use xlink:href="#f0_r" transform="matrix(11.9,0,0,11.9,139,944.4)" />
<use xlink:href="#f0_i" transform="matrix(11.9,0,0,11.9,148.1,944.4)" />
<use xlink:href="#f0_r" transform="matrix(11.9,0,0,11.9,152.6,944.4)" />
<use xlink:href="#f0_q" transform="matrix(11.9,0,0,11.9,161.7,944.4)" />
<use xlink:href="#f2_1b" transform="matrix(11.9,0,0,11.9,173.8,944.4)" />
<use xlink:href="#f2_1a" transform="matrix(11.9,0,0,11.9,185.9,944.4)" />
<use xlink:href="#f5_l" transform="matrix(8,0,0,8,785.4,1264.3)" />
<use xlink:href="#f5_k" transform="matrix(8,0,0,8,792.2,1264.3)" />
</g>
<defs>
<path d="M474,-326c0,0,-112,57,-188,133c0,0,-107,108,-165,254c0,0,-58,147,-58,305c0,0,0,231,114,421c0,0,114,191,297,273v-31c0,0,-92,-51,-151,-139c0,0,-59,-88,-88,-223c0,0,-30,-135,-30,-281c0,0,0,-160,25,-290c0,0,20,-102,47,-164c0,0,28,-62,75,-120c0,0,47,-57,122,-109v-29Z" 
id="f0_c"
transform="scale(0.001,-0.001)" />

<path d="M342,-20c0,0,-116,0,-203,97c0,0,-86,98,-86,264c0,0,0,161,96,261c0,0,95,101,230,101c0,0,100,0,165,-53c0,0,65,-54,65,-111c0,0,0,-29,-18,-46c0,0,-18,-18,-51,-18c0,0,-44,0,-66,29c0,0,-13,15,-17,59c0,0,-4,45,-30,68c0,0,-26,22,-73,22c0,0,-74,0,-120,-55c0,0,-60,-73,-60,-193c0,0,0,-122,60,-216c0,0,60,-93,162,-93c0,0,73,0,131,49c0,0,41,35,80,126l22,-10C629,261,601,125,521,52c0,0,-81,-72,-179,-72Z" 
id="f0_1z"
transform="scale(0.001,-0.001)" />

<path d="M35,-326v29c0,0,92,51,151,139c0,0,60,87,89,221c0,0,28,136,28,282c0,0,0,159,-24,290c0,0,-19,103,-47,165c0,0,-28,62,-75,119c0,0,-46,57,-122,110v31c0,0,113,-56,188,-132c0,0,107,-109,165,-255c0,0,58,-147,58,-306c0,0,0,-231,-114,-420c0,0,-113,-191,-297,-273Z" 
id="f0_d"
transform="scale(0.001,-0.001)" />

<path d="M474,-21L174,817c0,0,-34,94,-42,112c0,0,-15,28,-41,42c0,0,-26,14,-70,14v27H395V985H377c0,0,-40,0,-60,-18c0,0,-21,-18,-21,-44c0,0,0,-26,33,-120L528,235L696,718l-30,85l-24,68c0,0,-16,37,-35,66c0,0,-10,14,-24,24c0,0,-19,13,-38,19c0,0,-14,5,-44,5v27H894V985H867c0,0,-41,0,-61,-18c0,0,-19,-18,-19,-49c0,0,0,-38,33,-133L1015,235l193,557c0,0,32,93,32,129c0,0,0,17,-10,32c0,0,-11,15,-28,21c0,0,-28,11,-74,11v27h302V985c0,0,-39,0,-64,-15c0,0,-25,-14,-47,-53c0,0,-15,-26,-47,-124L990,-21H960L729,624L501,-21Z" 
id="f0_1n"
transform="scale(0.001,-0.001)" />

<path d="M17,0V26c0,0,52,0,77,17c0,0,19,12,26,38c0,0,4,13,4,73V419c0,0,0,119,-5,142c0,0,-4,23,-17,33c0,0,-13,11,-33,11c0,0,-23,0,-52,-11l-7,26l207,83h31V549c0,0,86,154,176,154c0,0,41,0,68,-25c0,0,27,-25,27,-58c0,0,0,-29,-20,-49c0,0,-19,-20,-46,-20c0,0,-26,0,-58,25c0,0,-33,26,-48,26c0,0,-14,0,-29,-15c0,0,-34,-30,-70,-101V159c0,0,0,-56,15,-85c0,0,9,-20,34,-34c0,0,24,-14,71,-14V0Z" 
id="f0_2e"
transform="scale(0.001,-0.001)" />

<path d="M55,0V26c0,0,50,0,67,10c0,0,17,10,27,32c0,0,10,23,10,86V418c0,0,0,111,-6,144c0,0,-6,24,-17,33c0,0,-11,10,-30,10c0,0,-21,0,-51,-11L45,620l206,83h33V154c0,0,0,-64,9,-85c0,0,9,-22,27,-32c0,0,19,-11,67,-11V0ZM222,909c0,0,-32,0,-54,23c0,0,-22,22,-22,53c0,0,0,32,22,54c0,0,22,22,54,22c0,0,31,0,53,-22c0,0,22,-22,22,-54c0,0,0,-31,-22,-53c0,0,-22,-23,-53,-23Z" 
id="f0_25"
transform="scale(0.001,-0.001)" />

<path d="M255,-10c0,0,-35,0,-68,18c0,0,-32,19,-48,55c0,0,-16,35,-16,109V632H15v24c0,0,41,16,84,56c0,0,43,39,77,92c0,0,17,29,48,104h23V683H407V632H247V188c0,0,0,-66,19,-90c0,0,19,-23,49,-23c0,0,24,0,47,16c0,0,23,15,36,45h29c0,0,-26,-73,-74,-110c0,0,-47,-36,-98,-36Z" 
id="f0_2g"
transform="scale(0.001,-0.001)" />

<path d="M479,469c0,0,-4,66,-16,93c0,0,-18,42,-55,65c0,0,-37,24,-78,24c0,0,-62,0,-111,-48c0,0,-48,-48,-57,-134ZM355,-20c0,0,-123,0,-211,95c0,0,-87,96,-87,258c0,0,0,175,90,273c0,0,89,98,225,98c0,0,115,0,189,-76c0,0,74,-75,74,-202H162c0,0,0,-152,74,-239c0,0,75,-86,175,-86c0,0,67,0,117,36c0,0,50,37,83,127l24,-15c0,0,-16,-102,-91,-186c0,0,-76,-83,-189,-83Z" 
id="f0_21"
transform="scale(0.001,-0.001)" />

<path d="M406,32c0,0,72,0,119,60c0,0,47,59,47,205c0,0,0,181,-78,286c0,0,-53,71,-135,71c0,0,-40,0,-79,-23c0,0,-40,-24,-65,-83c0,0,-24,-58,-24,-151c0,0,0,-149,59,-257c0,0,59,-108,156,-108ZM374,-20c0,0,-154,0,-245,122c0,0,-77,104,-77,233c0,0,0,94,46,187c0,0,47,92,123,137c0,0,76,44,161,44c0,0,155,0,249,-118c0,0,80,-100,80,-231c0,0,0,-91,-44,-185C667,169,623,75,546,27c0,0,-77,-47,-172,-47Z" 
id="f0_2b"
transform="scale(0.001,-0.001)" />

<path d="M21,0V26H35c0,0,53,0,71,27c0,0,18,27,18,101V408c0,0,0,123,-5,150c0,0,-6,27,-17,37c0,0,-12,10,-31,10c0,0,-21,0,-50,-11L10,620l206,83h32V558c0,0,120,145,229,145c0,0,56,0,96,-28c0,0,40,-28,64,-92c0,0,16,-45,16,-137V154c0,0,0,-65,11,-88c0,0,8,-19,26,-29c0,0,18,-11,68,-11V0H419V26h14c0,0,47,0,66,15c0,0,20,15,27,43c0,0,3,11,3,70V434c0,0,0,93,-24,135c0,0,-24,42,-81,42c0,0,-88,0,-176,-97V154c0,0,0,-69,9,-86c0,0,10,-21,28,-31c0,0,19,-11,75,-11V0Z" 
id="f0_2a"
transform="scale(0.001,-0.001)" />

<path d="M399,62c0,0,68,0,131,68V481c0,0,-5,51,-27,93c0,0,-22,42,-59,63c0,0,-37,21,-72,21c0,0,-65,0,-117,-59c0,0,-67,-77,-67,-226c0,0,0,-151,65,-231c0,0,66,-80,146,-80ZM330,-20c0,0,-112,0,-196,93c0,0,-83,94,-83,240c0,0,0,147,92,269c0,0,93,122,238,122c0,0,90,0,149,-58V773c0,0,0,117,-6,144c0,0,-5,27,-17,37c0,0,-12,9,-30,9c0,0,-20,0,-52,-12l-9,27l204,83h33V270c0,0,0,-120,6,-146c0,0,5,-27,18,-37c0,0,12,-11,28,-11c0,0,21,0,54,13l9,-26L564,-20H530V78C530,78,480,25,432,2c0,0,-47,-22,-102,-22Z" 
id="f0_20"
transform="scale(0.001,-0.001)" />

<path d="M63,0V26H93c0,0,30,0,54,15c0,0,25,15,34,41c0,0,10,25,10,99V630H58v53H191v45c0,0,0,102,33,173c0,0,32,71,100,114c0,0,68,44,152,44c0,0,79,0,145,-51c0,0,43,-33,43,-75c0,0,0,-22,-19,-42c0,0,-20,-20,-42,-20c0,0,-17,0,-36,12c0,0,-19,13,-47,53c0,0,-28,41,-51,55c0,0,-23,14,-51,14c0,0,-35,0,-58,-18c0,0,-24,-18,-35,-57c0,0,-10,-38,-10,-197V683H491V630H315V181c0,0,0,-96,21,-122c0,0,27,-33,73,-33h62V0Z" 
id="f0_22"
transform="scale(0.001,-0.001)" />

<path d="M397,34c0,0,67,0,126,75c0,0,58,74,58,216c0,0,0,131,-58,201c0,0,-59,70,-133,70c0,0,-39,0,-79,-20c0,0,-29,-14,-75,-59V109c0,0,37,-37,78,-56c0,0,40,-19,83,-19ZM358,-20c0,0,-59,0,-121,21c0,0,-61,22,-126,65V773c0,0,0,117,-5,144c0,0,-6,27,-18,37c0,0,-12,9,-29,9c0,0,-21,0,-53,-12l-9,27l205,83h34V564c0,0,98,139,213,139c0,0,105,0,183,-90c0,0,78,-90,78,-245c0,0,0,-182,-121,-293c0,0,-103,-95,-231,-95Z" 
id="f0_1y"
transform="scale(0.001,-0.001)" />

<path d="M336,-20L117,554c0,0,-21,55,-42,74c0,0,-21,19,-66,29v26H296V657c0,0,-40,-3,-52,-14c0,0,-13,-12,-13,-33c0,0,0,-23,13,-56L390,162L537,481L498,581c0,0,-18,46,-47,63c0,0,-17,11,-61,13v26H716V657c0,0,-54,-2,-77,-20c0,0,-15,-12,-15,-39c0,0,0,-15,6,-30L785,177L929,554c0,0,15,40,15,65c0,0,0,14,-15,25c0,0,-14,12,-57,13v26h216V657c0,0,-65,-10,-95,-89L764,-20H733L563,415L363,-20Z" 
id="f0_2j"
transform="scale(0.001,-0.001)" />

<path d="M316,27c0,0,57,0,105,53c0,0,65,72,125,295c0,0,-40,153,-104,214c0,0,-63,61,-129,61c0,0,-73,0,-122,-80c0,0,-48,-80,-48,-255c0,0,0,-104,20,-163c0,0,21,-60,64,-92c0,0,42,-33,89,-33Zm4,-49c0,0,-165,0,-243,108C77,86,0,196,0,336c0,0,0,164,91,265c0,0,91,102,213,102c0,0,85,0,150,-52c0,0,65,-51,118,-192l65,224H760L662,344c0,0,-9,-32,-30,-100c0,0,29,-115,43,-137c0,0,27,-41,68,-41c0,0,30,0,55,24c0,0,26,25,34,77h30C862,167,852,60,817,19c0,0,-35,-40,-81,-40c0,0,-42,0,-77,34c0,0,-35,36,-62,154c0,0,-33,-65,-65,-99C532,68,488,22,437,0c0,0,-52,-22,-117,-22Z" 
id="f1_1x"
transform="scale(0.001,-0.001)" />

<path d="M62,286V399H448V286Z" 
id="f0_h"
transform="scale(0.001,-0.001)" />

<path d="M20,0V26c0,0,45,0,71,15c0,0,15,7,24,28c0,0,9,21,9,85V773c0,0,0,117,-5,144c0,0,-6,27,-17,37c0,0,-12,9,-31,9c0,0,-16,0,-51,-12L10,978l204,83h34V561c0,0,83,91,131,116c0,0,49,26,97,26c0,0,58,0,100,-32c0,0,42,-32,62,-101c0,0,14,-47,14,-174V154c0,0,0,-65,11,-89c0,0,7,-18,25,-28c0,0,18,-11,66,-11V0H418V26h15c0,0,48,0,67,15c0,0,18,15,26,43c0,0,2,12,2,70V396c0,0,0,112,-12,147c0,0,-11,35,-36,53c0,0,-26,17,-61,17c0,0,-37,0,-76,-19c0,0,-40,-20,-95,-79V154c0,0,0,-70,8,-87c0,0,8,-17,29,-29c0,0,22,-12,74,-12V0Z" 
id="f0_24"
transform="scale(0.001,-0.001)" />

<path d="M58,0V26c0,0,47,0,64,10c0,0,18,10,28,32c0,0,9,23,9,86V775c0,0,0,116,-5,142c0,0,-5,27,-17,37c0,0,-11,9,-29,9c0,0,-20,0,-49,-12L46,978l204,83h34V154c0,0,0,-64,9,-85c0,0,9,-21,29,-32c0,0,19,-11,72,-11V0Z" 
id="f0_28"
transform="scale(0.001,-0.001)" />

<path d="M25,0V26c0,0,27,4,47,19c0,0,29,22,96,111L311,346L182,535c0,0,-55,81,-86,102c0,0,-30,20,-75,20v26H341V657c0,0,-30,0,-42,-10c0,0,-13,-11,-13,-28c0,0,0,-19,27,-56c0,0,8,-12,25,-37l48,-78l56,77c0,0,55,74,55,94c0,0,0,16,0,27c0,0,0,11,0,11v26H674V657c0,0,-37,-2,-64,-20c0,0,-37,-26,-100,-111L416,402L587,156c0,0,63,-91,89,-109c0,0,27,-18,70,-21V0H423V26c0,0,34,0,53,15c0,0,14,11,14,28c0,0,0,17,-48,87L341,302L232,157c0,0,-50,-69,-50,-82c0,0,0,-18,17,-32c0,0,17,-15,50,-17V0Z" 
id="f0_2k"
transform="scale(0.001,-0.001)" />

<path d="M286,72c0,0,57,0,149,75V407c0,0,-113,-45,-145,-64c0,0,-59,-32,-85,-68c0,0,-25,-36,-25,-78c0,0,0,-54,32,-89c0,0,32,-36,74,-36ZM217,-13c0,0,-71,0,-116,48c0,0,-46,48,-46,127c0,0,0,50,22,87c0,0,31,50,106,95c0,0,76,45,252,109v26c0,0,0,102,-32,140c0,0,-32,38,-94,38c0,0,-47,0,-74,-25c0,0,-28,-25,-28,-58l1,-43c0,0,0,-34,-17,-53c0,0,-18,-18,-47,-18c0,0,-28,0,-45,19c0,0,-18,19,-18,53c0,0,0,64,66,117c0,0,65,54,184,54c0,0,91,0,149,-31c0,0,44,-23,65,-72c0,0,13,-32,13,-131V238c0,0,0,-98,4,-120c0,0,4,-22,12,-29c0,0,9,-8,20,-8c0,0,12,0,21,5c0,0,16,10,61,55V99C676,99,592,-12,516,-12c0,0,-37,0,-58,24c0,0,-22,26,-23,86C435,98,330,17,303,5c0,0,-40,-18,-86,-18Z" 
id="f0_1x"
transform="scale(0.001,-0.001)" />

<path d="M363,28c0,0,75,0,126,63c0,0,51,62,51,197c0,0,0,85,-24,149c0,0,-24,63,-86,139c0,0,-51,-17,-89,-17c0,0,-44,0,-63,14c0,0,-18,13,-18,29c0,0,0,14,14,25c0,0,14,11,46,11c0,0,36,0,110,-19c0,0,53,104,53,196c0,0,0,94,-47,146c0,0,-46,51,-115,51c0,0,-86,0,-134,-73c0,0,-31,-49,-31,-156V118c0,0,72,-51,126,-73c0,0,40,-17,81,-17ZM0,-328c0,0,20,92,24,126c0,0,10,104,10,152V712c0,0,0,133,26,198c0,0,27,64,96,108c0,0,69,43,165,43c0,0,133,0,213,-72c0,0,80,-71,80,-170c0,0,0,-63,-33,-120c0,0,-32,-57,-100,-99c0,0,200,-95,200,-297c0,0,0,-89,-42,-167C639,136,598,59,524,18c0,0,-73,-39,-150,-39c0,0,-50,0,-99,17c0,0,-49,16,-119,63V-66c0,0,0,-121,-30,-262Z" 
id="f1_1y"
transform="scale(0.001,-0.001)" />

<path d="M398,24c0,0,74,0,120,58c0,0,61,76,61,214c0,0,0,156,-69,240c0,0,-47,59,-113,59c0,0,-36,0,-71,-18c0,0,-27,-14,-88,-81V242c0,0,0,-83,6,-109c0,0,11,-43,51,-76c0,0,41,-33,103,-33ZM-4,-326v27H15c5,0,42,0,69,16c0,0,14,8,22,26c0,0,7,19,7,94V481c0,0,0,67,-6,85c0,0,-5,18,-18,27c0,0,-13,9,-36,9c0,0,-18,0,-45,-10L0,615l209,85h29V540c0,0,53,91,106,127c0,0,53,36,112,36c0,0,103,0,172,-80c0,0,84,-99,84,-257c0,0,0,-176,-102,-292c0,0,-83,-94,-210,-94c0,0,-55,0,-95,16c0,0,-30,10,-67,44V-167c0,0,0,-71,8,-90c0,0,9,-20,30,-31c0,0,21,-11,77,-11v-27Z" 
id="f0_2c"
transform="scale(0.001,-0.001)" />

<path d="M312,-20c0,0,-62,0,-143,22c0,0,-25,8,-40,8c0,0,-18,0,-27,-19H77V234h25c0,0,21,-105,80,-158c0,0,59,-53,132,-53c0,0,51,0,84,31c0,0,32,30,32,72c0,0,0,52,-36,87c0,0,-36,35,-144,88c0,0,-109,54,-142,97c0,0,-34,43,-34,107c0,0,0,85,58,141c0,0,58,57,150,57c0,0,40,0,97,-17c0,0,38,-11,51,-11c0,0,12,0,19,5c0,0,7,5,15,23h25V470H464c0,0,-28,110,-72,149c0,0,-45,40,-113,40c0,0,-53,0,-85,-28c0,0,-32,-27,-32,-61c0,0,0,-41,24,-71c0,0,23,-31,94,-65L389,381c0,0,152,-74,152,-194c0,0,0,-94,-71,-151c0,0,-70,-56,-158,-56Z" 
id="f0_2f"
transform="scale(0.001,-0.001)" />

<path d="M292,-20c0,0,-57,0,-100,33c0,0,-42,33,-58,85c0,0,-17,52,-17,148V551c0,0,0,49,-10,68c0,0,-11,18,-31,29c0,0,-19,9,-68,9c-2,0,-4,0,-6,0v26H242V226c0,0,0,-95,33,-125c0,0,33,-30,80,-30c0,0,32,0,73,21c0,0,40,20,96,76V555c0,0,0,59,-21,80c0,0,-22,21,-89,22v26H647V269c0,0,0,-119,6,-145c0,0,6,-27,18,-37c0,0,12,-11,29,-11c0,0,23,0,52,13L763,63L558,-20H524V124C524,124,436,29,390,4c0,0,-47,-24,-98,-24Z" 
id="f0_2h"
transform="scale(0.001,-0.001)" />

<path d="M191,-20c0,0,-34,0,-58,24c0,0,-24,24,-24,58c0,0,0,35,24,59c0,0,24,24,58,24c0,0,35,0,59,-24c0,0,24,-25,24,-59c0,0,0,-34,-24,-58c0,0,-25,-24,-59,-24Z" 
id="f0_i"
transform="scale(0.001,-0.001)" />

<path d="M678,393L506,802L330,393ZM11,0V27c0,0,63,12,82,30c0,0,38,35,84,145l356,832h27L912,193c0,0,43,-101,77,-132c0,0,35,-30,97,-34V0H687V27c0,0,60,3,82,21c0,0,21,17,21,41c0,0,0,33,-30,104L700,338H307L239,179c0,0,-26,-59,-26,-88c0,0,0,-23,22,-41c0,0,22,-17,95,-23V0Z" 
id="f0_11"
transform="scale(0.001,-0.001)" />

<path d="M213,-20c0,0,-34,0,-58,24c0,0,-24,24,-24,58c0,0,0,34,24,58c0,0,24,25,58,25c0,0,35,0,59,-25c0,0,24,-24,24,-58c0,0,0,-34,-24,-58c0,0,-25,-24,-59,-24Zm3,559c0,0,-35,0,-59,24c0,0,-24,24,-24,58c0,0,0,35,24,59c0,0,24,24,59,24c0,0,34,0,58,-24c0,0,24,-24,24,-59c0,0,0,-34,-24,-58c0,0,-24,-24,-58,-24Z" 
id="f0_u"
transform="scale(0.001,-0.001)" />

<path d="M38,0V27H74c0,0,63,0,91,37c0,0,18,24,18,115V833c0,0,0,77,-10,102c0,0,-7,18,-30,32c0,0,-33,18,-69,18H38v27H470V985H434c0,0,-62,0,-90,-37c0,0,-18,-24,-18,-115V179c0,0,0,-77,9,-102c0,0,8,-18,31,-32c0,0,32,-18,68,-18h36V0Z" 
id="f0_19"
transform="scale(0.001,-0.001)" />

<path d="M145,-328c0,0,-44,0,-73,25c0,0,-28,25,-28,58c0,0,0,31,21,50c0,0,20,19,56,19c0,0,25,0,67,-16c0,0,30,-11,38,-11c0,0,22,0,49,23c0,0,26,23,53,89L376,28L131,542c0,0,-11,24,-36,58c0,0,-19,27,-30,36c0,0,-18,12,-56,21v26H328V657H312c0,0,-33,0,-50,-15c0,0,-17,-14,-17,-36c0,0,0,-30,25,-81L437,179L589,557c0,0,12,31,12,62c0,0,0,13,-5,20c0,0,-6,8,-19,13c0,0,-12,5,-44,5v26H754V657c0,0,-27,-3,-42,-12c0,0,-15,-9,-33,-34c0,0,-7,-10,-25,-58L376,-128c0,0,-40,-99,-105,-150c0,0,-66,-50,-126,-50Z" 
id="f0_2l"
transform="scale(0.001,-0.001)" />

<path d="M23,0V26c0,0,47,0,66,10c0,0,19,11,28,33c0,0,10,22,10,85V416c0,0,0,112,-7,145c0,0,-5,25,-16,34c0,0,-11,10,-31,10c0,0,-21,0,-50,-11L12,620l207,83h32V557c0,0,75,75,88,86c0,0,34,29,72,44c0,0,39,16,77,16c0,0,64,0,110,-37c0,0,47,-38,62,-109c0,0,77,90,130,118c0,0,53,28,109,28c0,0,54,0,96,-28c0,0,42,-28,67,-91c0,0,16,-43,16,-136V154c0,0,0,-64,10,-88c0,0,8,-16,28,-28c0,0,20,-12,65,-12V0H844V26h14c0,0,44,0,69,18c0,0,17,12,24,38c0,0,3,13,3,72V448c0,0,0,83,-20,117c0,0,-29,48,-93,48c0,0,-39,0,-79,-20c0,0,-40,-19,-97,-73l-1,-8l2,-32V154c0,0,0,-70,8,-87c0,0,7,-17,29,-29c0,0,21,-12,73,-12V0H431V26c0,0,57,0,78,14c0,0,21,13,29,40c0,0,4,13,4,74V448c0,0,0,83,-25,120c0,0,-33,48,-91,48c0,0,-40,0,-80,-22c0,0,-61,-33,-95,-74V154c0,0,0,-67,10,-87c0,0,9,-20,27,-30c0,0,18,-11,74,-11V0Z" 
id="f0_29"
transform="scale(0.001,-0.001)" />

<path d="M411,-239c0,0,134,0,198,48c0,0,64,47,64,100c0,0,0,39,-38,55c0,0,-39,16,-154,19c0,0,-167,5,-258,17c0,0,-35,-37,-53,-70c0,0,-17,-32,-17,-60c0,0,0,-36,43,-62c0,0,74,-47,215,-47ZM380,257c0,0,56,0,93,43c0,0,36,42,36,133c0,0,0,118,-51,185c0,0,-38,49,-98,49c0,0,-55,0,-92,-44c0,0,-37,-44,-37,-135c0,0,0,-117,50,-182c0,0,39,-49,99,-49ZM345,-328c0,0,-144,0,-243,64c0,0,-56,38,-56,78c0,0,0,18,8,36c0,0,13,27,52,76c0,0,5,7,76,80c0,0,-39,23,-55,41c0,0,-16,19,-16,42c0,0,0,26,22,61c0,0,21,35,98,100c0,0,-63,30,-97,85c0,0,-33,55,-33,121c0,0,0,101,76,174c0,0,77,73,196,73c0,0,98,0,170,-48H688c0,0,32,0,37,-2c0,0,6,-2,8,-6c0,0,4,-7,4,-24c0,0,0,-20,-4,-27c0,0,-2,-4,-7,-6c0,0,-6,-2,-38,-2H599c0,0,41,-54,41,-137c0,0,0,-96,-73,-163c0,0,-73,-68,-196,-68c0,0,-51,0,-104,15c0,0,-33,-28,-44,-49c0,0,-12,-22,-12,-37c0,0,0,-12,13,-24c0,0,12,-12,48,-17c0,0,21,-4,104,-6c0,0,154,-4,199,-11c0,0,70,-10,111,-51c0,0,42,-41,42,-102c0,0,0,-84,-79,-158c0,0,-117,-108,-304,-108Z" 
id="f0_23"
transform="scale(0.001,-0.001)" />

<path d="M33,0V27c0,0,264,241,371,393c0,0,108,152,108,278c0,0,0,96,-59,158c0,0,-59,62,-141,62c0,0,-75,0,-134,-43c0,0,-59,-44,-88,-128H63c0,0,18,138,95,212c0,0,77,74,193,74c0,0,123,0,205,-80c0,0,83,-79,83,-186c0,0,0,-77,-36,-154c0,0,-55,-121,-179,-256C424,357,238,154,191,112H455c0,0,81,0,114,6c0,0,32,6,58,25c0,0,27,18,46,52h27L630,0Z" 
id="f0_m"
transform="scale(0.001,-0.001)" />

<path d="M379,29c0,0,41,0,84,37c0,0,43,36,65,121c0,0,34,128,34,362c0,0,0,173,-35,288c0,0,-27,86,-69,122c0,0,-31,25,-74,25c0,0,-51,0,-90,-46c0,0,-54,-62,-73,-195c0,0,-20,-132,-20,-261c0,0,0,-209,52,-341c0,0,42,-112,126,-112Zm-2,-46c0,0,-145,0,-241,170c0,0,-81,144,-81,347c0,0,0,173,52,298c0,0,52,125,139,186c0,0,67,49,139,49c0,0,116,0,208,-119c0,0,116,-147,116,-398c0,0,0,-176,-51,-299C658,217,608,94,529,38c0,0,-79,-55,-152,-55Z" 
id="f0_k"
transform="scale(0.001,-0.001)" />

<path d="M247,-17c0,0,-91,0,-132,30c0,0,-42,31,-42,68c0,0,0,21,17,37c0,0,18,16,44,17c0,0,19,0,34,-6c0,0,14,-7,49,-31c0,0,56,-39,113,-39c0,0,88,0,154,66c0,0,66,66,66,161c0,0,0,92,-59,171c0,0,-59,80,-163,123c0,0,-81,34,-221,39l194,393H663L605,885H301L234,750c0,0,198,-29,313,-147c0,0,100,-102,100,-239c0,0,0,-80,-33,-148c0,0,-32,-68,-81,-116c0,0,-50,-47,-110,-77c0,0,-86,-40,-176,-40Z" 
id="f0_p"
transform="scale(0.001,-0.001)" />

<path d="M1005,0c0,0,34,0,61,41c0,0,36,55,36,187c0,0,0,141,-36,196c0,0,-25,39,-61,39c0,0,-36,0,-62,-41c0,0,-34,-52,-34,-197c0,0,0,-134,35,-187c0,0,25,-38,61,-38Zm2,-41c0,0,-55,0,-106,34c0,0,-51,32,-80,94c0,0,-30,63,-30,142c0,0,0,79,29,144c0,0,30,64,81,97c0,0,51,32,104,32c0,0,53,0,105,-34c0,0,53,-33,82,-98c0,0,28,-64,28,-141c0,0,0,-132,-63,-201c0,0,-64,-69,-150,-69ZM267,524c0,0,36,0,61,39c0,0,38,57,38,192c0,0,0,142,-37,199c0,0,-24,38,-60,38c0,0,-38,0,-67,-44c0,0,-30,-45,-30,-189c0,0,0,-103,17,-158c0,0,12,-41,39,-63c0,0,16,-14,39,-14Zm3,-37c0,0,-59,0,-108,32c0,0,-49,33,-79,97c0,0,-29,64,-29,143c0,0,0,78,30,144c0,0,30,66,81,99c0,0,52,32,107,32c0,0,101,0,156,-83c0,0,56,-84,56,-192c0,0,0,-130,-63,-201c0,0,-62,-71,-151,-71ZM235,-41L972,1034h67L301,-41Z" 
id="f0_9"
transform="scale(0.001,-0.001)" />

<path d="M452,373V875L97,373ZM452,0V267H23v95l470,671h82V373H711V267H575V0Z" 
id="f0_o"
transform="scale(0.001,-0.001)" />

<path d="M238,-17c0,0,-103,0,-139,25C99,8,62,33,62,62c0,0,0,22,17,38c0,0,18,16,42,16c0,0,19,0,38,-6c0,0,13,-3,58,-27c0,0,45,-23,62,-28c0,0,27,-8,59,-8c0,0,76,0,132,59c0,0,56,59,56,140c0,0,0,59,-26,115c0,0,-19,41,-42,63c0,0,-32,30,-88,54c0,0,-56,25,-114,25H232v22c0,0,59,8,118,42c0,0,59,35,86,85c0,0,27,49,27,108c0,0,0,76,-48,124c0,0,-48,47,-120,47c0,0,-116,0,-193,-124L77,819c0,0,44,102,110,158c0,0,66,56,164,56c0,0,122,0,187,-80c0,0,49,-58,49,-126c0,0,0,-110,-139,-228c0,0,93,-36,141,-104c0,0,48,-68,48,-160c0,0,0,-131,-84,-227C553,108,444,-17,238,-17Z" 
id="f0_n"
transform="scale(0.001,-0.001)" />

<path d="M25,0V27H61c0,0,63,0,91,37c0,0,18,24,18,115V833c0,0,0,77,-10,102c0,0,-7,18,-30,32c0,0,-33,18,-69,18H25v27H456V985H421c0,0,-35,0,-67,-18c0,0,-23,-11,-32,-35c0,0,-9,-24,-9,-99V523c0,0,15,15,102,95c0,0,222,203,268,271c0,0,20,30,20,52c0,0,0,18,-15,31c0,0,-16,13,-53,13H611v27H983V985c0,0,-33,-1,-60,-9c0,0,-26,-9,-65,-32c0,0,-39,-24,-96,-76c0,0,-16,-15,-151,-153L456,561L829,190c0,0,92,-92,157,-125c0,0,65,-33,130,-38V0H634V27c0,0,43,0,62,15c0,0,19,15,19,32c0,0,0,18,-7,33c0,0,-7,14,-46,53L313,506V179c0,0,0,-77,10,-102c0,0,7,-18,31,-32c0,0,32,-18,67,-18h35V0Z" 
id="f0_1b"
transform="scale(0.001,-0.001)" />

<path d="M548,-21c0,0,-251,0,-389,185C159,164,56,303,56,490c0,0,0,152,68,278c0,0,67,127,186,197c0,0,119,69,260,69c0,0,109,0,216,-53c0,0,31,-17,44,-17c0,0,20,0,35,14c0,0,20,21,28,56h26L943,690H919c0,0,-46,155,-131,224c0,0,-86,68,-206,68c0,0,-100,0,-181,-51c0,0,-81,-52,-128,-163c0,0,-46,-112,-46,-279c0,0,0,-137,44,-238c0,0,44,-101,132,-154c0,0,88,-54,201,-54c0,0,99,0,174,42c0,0,75,42,165,167l23,-14C966,238,890,103,789,40c0,0,-102,-61,-241,-61Z" 
id="f0_13"
transform="scale(0.001,-0.001)" />

<path d="M376,-20L133,556c0,0,-17,41,-31,58c0,0,-15,18,-39,30c0,0,-12,7,-50,13v26H335V657H314c0,0,-29,0,-44,-14c0,0,-16,-14,-15,-38c0,0,-1,-26,15,-62L429,165L588,557c0,0,17,42,17,64c0,0,0,10,-6,17c0,0,-8,11,-21,15c0,0,-13,4,-52,4v26H750V657c0,0,-39,-3,-54,-16c0,0,-26,-23,-47,-76L409,-20Z" 
id="f0_2i"
transform="scale(0.001,-0.001)" />

<path d="M613,-21c0,0,-293,0,-445,186C168,165,54,306,54,490c0,0,0,134,64,256c0,0,76,145,209,224c0,0,111,64,262,64c0,0,55,0,100,-9c0,0,45,-9,128,-39c0,0,42,-16,56,-16c0,0,14,0,24,13c0,0,10,13,12,51h28L963,715H937c0,0,-40,119,-102,179c0,0,-91,88,-232,88c0,0,-193,0,-294,-153c0,0,-84,-129,-84,-307c0,0,0,-144,56,-263c0,0,56,-120,146,-175c0,0,91,-56,186,-56c0,0,56,0,109,15c0,0,52,14,100,41V376c0,0,0,77,-11,101c0,0,-12,23,-36,36c0,0,-24,12,-86,12v27h392V525h-18c0,0,-58,0,-80,-39c0,0,-15,-28,-15,-110V67C968,67,882,21,799,0c0,0,-84,-21,-186,-21Z" 
id="f0_17"
transform="scale(0.001,-0.001)" />

<path d="M27,354v62H831V354Zm0,243v62H831V597Z" 
id="f0_x"
transform="scale(0.001,-0.001)" />

<path d="M197,0V27c0,0,71,2,92,13c0,0,21,10,29,29c0,0,9,18,9,109V725c0,0,0,110,-8,141c0,0,-5,24,-19,35c0,0,-14,11,-33,11c0,0,-28,0,-77,-23l-11,23l246,121h25V178c0,0,0,-85,7,-106c0,0,7,-21,29,-32c0,0,23,-11,91,-13V0Z" 
id="f0_l"
transform="scale(0.001,-0.001)" />

<path d="M82,-253v33c0,0,77,25,119,78c0,0,42,54,42,114c0,0,0,14,-7,23c0,0,-5,6,-11,6c0,0,-8,0,-35,-14c0,0,-14,-7,-28,-7c0,0,-37,0,-58,21C104,1,82,23,82,61c0,0,0,36,28,62c0,0,28,27,68,27c0,0,49,0,88,-43c0,0,38,-43,38,-113c0,0,0,-77,-53,-143c0,0,-53,-66,-169,-104Z" 
id="f0_g"
transform="scale(0.001,-0.001)" />

<path d="M405,24c0,0,65,0,116,62c0,0,51,61,51,174c0,0,0,128,-50,221c0,0,-51,93,-144,93c0,0,-29,0,-61,-12c0,0,-33,-12,-96,-51c0,0,-14,-101,-14,-163c0,0,0,-72,27,-155c0,0,26,-84,79,-134c0,0,38,-35,92,-35ZM384,-17c0,0,-104,0,-177,68C207,51,66,185,66,397c0,0,0,136,54,258c0,0,54,122,156,217c0,0,101,95,193,128c0,0,93,33,172,33h44v-28c0,0,-99,-10,-161,-39c0,0,-62,-29,-123,-90c0,0,-61,-60,-101,-135c0,0,-39,-74,-66,-176c0,0,107,73,215,73c0,0,104,0,180,-83c0,0,76,-84,76,-215c0,0,0,-126,-77,-231c0,0,-92,-126,-244,-126Z" 
id="f0_q"
transform="scale(0.001,-0.001)" />

<path d="M356,519c0,0,145,0,218,63c0,0,74,63,74,160c0,0,0,95,-60,154c0,0,-59,59,-157,59c0,0,-43,0,-117,-13V520c0,0,14,0,25,0c0,0,10,-1,17,-1ZM26,0V27H64c0,0,64,0,92,42c0,0,15,23,15,110V833c0,0,0,96,-21,119c0,0,-29,33,-86,33H26v27H395c0,0,161,0,238,-24c0,0,76,-23,129,-86c0,0,54,-63,54,-151c0,0,0,-93,-61,-162c0,0,-61,-68,-189,-97L775,202c0,0,72,-100,123,-133c0,0,52,-33,134,-42V0H762L419,473c0,0,-38,-1,-61,-1c0,0,-10,0,-21,0c0,0,-11,0,-23,1V179c0,0,0,-96,21,-119c0,0,28,-33,84,-33h40V0Z" 
id="f0_1i"
transform="scale(0.001,-0.001)" />

<path d="M394,23c0,0,80,0,129,45c0,0,48,45,48,110c0,0,0,54,-28,97c0,0,-53,79,-214,206c0,0,-62,-52,-92,-114c0,0,-30,-61,-30,-133c0,0,0,-96,53,-154c0,0,52,-57,134,-57Zm17,566c0,0,90,81,114,128c0,0,24,46,24,105c0,0,0,79,-44,123c0,0,-44,45,-121,45c0,0,-76,0,-124,-45c0,0,-48,-44,-48,-103c0,0,0,-38,20,-77c0,0,20,-39,56,-74L411,589ZM382,-17c0,0,-144,0,-225,90c0,0,-64,72,-64,158c0,0,0,67,45,133c0,0,45,66,156,146c0,0,-121,98,-156,158c0,0,-34,59,-34,124c0,0,0,98,76,169c0,0,76,72,202,72c0,0,123,0,198,-67c0,0,74,-66,74,-151c0,0,0,-57,-40,-116c0,0,-40,-59,-168,-139c0,0,132,-101,174,-159c0,0,57,-76,57,-161c0,0,0,-106,-82,-182c0,0,-81,-75,-213,-75Z" 
id="f0_s"
transform="scale(0.001,-0.001)" />

<path d="M182,-21c0,0,-70,0,-110,33C72,12,31,47,31,92c0,0,0,37,19,56c0,0,25,23,58,23c0,0,24,0,43,-16c0,0,19,-15,48,-84c0,0,17,-41,44,-41c0,0,20,0,38,25c0,0,17,25,17,87V833c0,0,0,77,-9,102c0,0,-8,18,-31,32c0,0,-32,18,-68,18H154v27H586V985H549c0,0,-62,0,-90,-37c0,0,-18,-24,-18,-115V339c0,0,0,-115,-25,-185c0,0,-25,-71,-86,-124c0,0,-61,-51,-148,-51Z" 
id="f0_1a"
transform="scale(0.001,-0.001)" />

<path d="M-12,338v55H777V338Z" 
id="f0_4y"
transform="scale(0.001,-0.001)" />

<path d="M379,437c0,0,34,0,81,16c0,0,47,17,83,47c0,0,14,97,14,155c0,0,0,72,-25,156c0,0,-25,83,-70,128c0,0,-45,45,-103,45c0,0,-66,0,-116,-60c0,0,-50,-59,-50,-177c0,0,0,-157,66,-246c0,0,49,-64,120,-64ZM80,-20V7c0,0,97,1,181,45c0,0,83,44,161,153c0,0,78,109,109,240c0,0,-117,-75,-212,-75c0,0,-107,0,-183,82c0,0,-76,82,-76,219c0,0,0,132,76,236c0,0,92,126,240,126c0,0,124,0,213,-103c0,0,109,-128,109,-315c0,0,0,-169,-82,-314C616,301,533,155,385,59c0,0,-120,-79,-262,-79Z" 
id="f0_t"
transform="scale(0.001,-0.001)" />

<path d="M108,0l8,26h19c0,0,58,0,90,19c0,0,21,13,39,46c0,0,17,34,49,142L517,951H461c0,0,-88,0,-143,-22c0,0,-54,-22,-87,-65c0,0,-33,-42,-54,-121H149l71,269H988L905,743H877c0,0,14,59,14,105c0,0,0,55,-33,82c0,0,-24,21,-127,21H646L446,238c0,0,-38,-123,-38,-151c0,0,0,-27,24,-44c0,0,24,-17,84,-17h35L542,0Z" 
id="f2_1k"
transform="scale(0.001,-0.001)" />

<path d="M-40,0l10,26c0,0,57,2,77,11c0,0,30,13,44,34c0,0,20,31,48,128L313,811c0,0,20,71,20,113c0,0,0,30,-19,46c0,0,-19,16,-74,16H225l9,26H614l-8,-26h-1c-9,0,-48,-1,-69,-11c0,0,-32,-16,-47,-40c0,0,-15,-25,-44,-124L369,549L729,821c0,0,72,54,94,86c0,0,14,20,14,36c0,0,0,13,-14,26c0,0,-14,13,-42,17l7,26h325l-7,-26c0,0,-53,-9,-89,-24c0,0,-36,-15,-74,-41c0,0,-11,-7,-146,-112L485,573L738,188c0,0,67,-104,111,-133c0,0,44,-29,116,-29L956,0H524l7,26c0,0,52,6,73,25c0,0,21,20,21,44c0,0,0,23,-7,44c0,0,-6,15,-44,74L367,533L267,185c0,0,-25,-75,-25,-100c0,0,0,-26,21,-40c0,0,21,-14,103,-19L354,0Z" 
id="f2_1b"
transform="scale(0.001,-0.001)" />

<path d="M0,214v74H784V214ZM0,494v72H784V494Z" 
id="f3_x"
transform="scale(0.001,-0.001)" />

<path d="M251,69c0,0,93,0,201,118c0,0,131,157,126,322c0,0,0,62,-26,90c0,0,-27,28,-74,28c0,0,-52,0,-110,-44c0,0,-83,-62,-148,-185c0,0,-64,-122,-64,-221c0,0,0,-50,28,-79c0,0,29,-29,67,-29ZM183,-17c0,0,-60,0,-103,44C80,27,36,71,36,149c0,0,0,117,77,247c0,0,77,130,195,208c0,0,92,62,174,62c0,0,49,0,82,-22c0,0,32,-22,49,-73l24,77l115,18L609,160L593,92c0,0,-2,-10,-2,-17c0,0,0,-10,5,-19c0,0,4,-6,11,-6c0,0,6,0,17,11c0,0,21,20,55,88l25,-18c0,0,-43,-75,-89,-112c0,0,-45,-36,-84,-36c0,0,-27,0,-42,16c0,0,-15,15,-15,46c0,0,0,36,17,96l16,55C507,196,399,69,309,19c0,0,-64,-36,-126,-36Z" 
id="f2_1x"
transform="scale(0.001,-0.001)" />

<path d="M-33,0l9,26c0,0,58,2,78,11c0,0,30,13,43,34c0,0,20,31,48,130L318,812c0,0,21,74,21,113c0,0,0,28,-20,45c0,0,-20,16,-77,16H226l9,26H966L904,769H878c0,0,5,34,5,57c0,0,0,39,-20,66c0,0,-25,34,-74,52c0,0,-36,13,-166,13H488L374,557h99c0,0,102,0,148,31c0,0,46,31,79,115h26L623,336H593c0,0,13,46,13,79c0,0,0,32,-13,52c0,0,-13,19,-36,28c0,0,-23,10,-95,10H361L263,156c0,0,-14,-43,-14,-66c0,0,0,-17,19,-30c0,0,13,-9,65,-9h93c0,0,145,0,233,51c0,0,87,52,157,180h27L747,0Z" 
id="f2_15"
transform="scale(0.001,-0.001)" />

<path d="M453,539c0,0,129,0,204,71c0,0,75,72,75,178c0,0,0,83,-48,127c0,0,-48,44,-144,44c0,0,-24,0,-58,-6L367,545c0,0,48,-6,86,-6ZM-34,0l8,26c0,0,54,3,74,12c0,0,30,12,45,34c0,0,24,36,50,125L316,809c0,0,18,61,18,95c0,0,0,35,-28,58c0,0,-27,24,-78,24q-1,0,-2,0l9,26H566c0,0,167,0,240,-63c0,0,73,-62,73,-164c0,0,0,-98,-74,-179c0,0,-75,-81,-204,-102L698,207c0,0,36,-110,72,-143c0,0,36,-33,116,-38L877,0H635L473,492c0,0,-1,0,-2,0c-12,0,-63,0,-117,11L265,184c0,0,-18,-56,-18,-94c0,0,0,-29,22,-46c0,0,16,-12,90,-18L352,0Z" 
id="f2_1i"
transform="scale(0.001,-0.001)" />

<path d="M62,-123V268c0,0,0,230,56,452c0,0,47,190,134,334c0,0,87,144,204,242c0,0,85,73,194,119l18,-16c0,0,-211,-145,-335,-339c0,0,-98,-156,-149,-374c0,0,-50,-218,-50,-403V-123Z" 
id="f3_4o"
transform="scale(0.001,-0.001)" />

<path d="M617,-123V283c0,0,0,236,-63,459c0,0,-63,223,-188,392c0,0,-108,146,-282,265l17,16c0,0,180,-76,320,-248c0,0,139,-172,204,-417c0,0,64,-245,64,-482V-123Z" 
id="f3_54"
transform="scale(0.001,-0.001)" />

<path d="M0,356v74H784V356Z" 
id="f3_h"
transform="scale(0.001,-0.001)" />

<path d="M62,-123V1415h72V-123Z" 
id="f3_4p"
transform="scale(0.001,-0.001)" />

<path d="M617,-123V1415h72V-123Z" 
id="f3_55"
transform="scale(0.001,-0.001)" />

<path d="M650,-123c0,0,-180,75,-319,246c0,0,-140,172,-205,418c0,0,-64,245,-64,481v393h72V1007c0,0,0,-236,63,-459c0,0,63,-223,189,-391c0,0,108,-145,282,-265l-18,-15Z" 
id="f3_4q"
transform="scale(0.001,-0.001)" />

<path d="M101,-123l-17,15c0,0,210,144,334,339c0,0,99,156,149,373c0,0,50,218,50,403v408h72V1022c0,0,0,-230,-56,-451c0,0,-48,-191,-134,-335C499,236,412,92,295,-5c0,0,-84,-73,-194,-118Z" 
id="f3_56"
transform="scale(0.001,-0.001)" />

<path d="M52,62L0,114L278,390L0,667l52,52L330,442L608,719l51,-51L382,390L659,114L608,62L330,338L52,62Z" 
id="f3_3a"
transform="scale(0.001,-0.001)" />

<path d="M0,214v74H784V214ZM0,494v72H784V494Z" 
id="f4_x"
transform="scale(0.001,-0.001)" />

<path d="M275,-20L578,891H299c0,0,-84,0,-120,-20c0,0,-63,-35,-101,-106l-21,8l97,239H696V983L359,-20Z" 
id="f0_r"
transform="scale(0.001,-0.001)" />

<path d="M125,-21c0,0,-86,0,-130,38c0,0,-46,40,-46,97c0,0,0,44,28,74c0,0,27,30,66,30c0,0,34,0,55,-20c0,0,21,-20,21,-49c0,0,0,-24,-19,-46C100,103,75,75,75,64c0,0,0,-15,14,-28c0,0,15,-13,39,-13c0,0,34,0,71,17c0,0,37,16,69,50c0,0,33,33,57,80c0,0,24,47,49,128l37,129L519,811c0,0,25,85,25,106c0,0,0,28,-23,46c0,0,-22,18,-95,23l9,26H825l-8,-26c0,0,-77,-1,-109,-32c0,0,-31,-30,-65,-163L518,344c0,0,-36,-119,-73,-182C445,162,396,78,312,28c0,0,-83,-49,-187,-49Z" 
id="f2_1a"
transform="scale(0.001,-0.001)" />

<path d="M435,0V856c0,0,-48,-47,-127,-93c0,0,-79,-46,-142,-69V824c0,0,113,52,197,128c0,0,85,75,120,146h86V0Z" 
id="f5_l"
transform="scale(0.001,-0.001)" />

<path d="M420,92c0,0,92,0,155,89c0,0,64,89,64,358c0,0,0,270,-63,359c0,0,-63,89,-158,89c0,0,-92,0,-147,-79c0,0,-70,-100,-70,-369c0,0,0,-269,63,-358c0,0,63,-89,156,-89Zm0,-110c0,0,-158,0,-248,112C172,94,64,231,64,539c0,0,0,194,39,313c0,0,40,118,119,182c0,0,79,64,198,64c0,0,88,0,155,-35c0,0,66,-36,109,-103c0,0,43,-66,68,-162c0,0,24,-96,24,-259c0,0,0,-192,-39,-311C737,228,697,110,619,46c0,0,-79,-64,-199,-64Z" 
id="f5_k"
transform="scale(0.001,-0.001)" />


</defs>
</svg>