<?xml version="1.0" encoding="UTF-8" standalone="no"?>
<!DOCTYPE svg PUBLIC "-//W3C//DTD SVG 1.1//EN"
"http://www.w3.org/Graphics/SVG/1.1/DTD/svg11.dtd">
<svg viewBox="0 0 909 1286" version="1.1" xmlns="http://www.w3.org/2000/svg" xmlns:xlink="http://www.w3.org/1999/xlink">
<defs>
<clipPath id="c0_101"><path d="M55.2,282.9V126.8H234.5V282.9Z" /></clipPath>
<clipPath id="c1_101"><path d="M55.2,512.1V306h180V512.1Z" /></clipPath>
<clipPath id="c2_101"><path d="M123.8,541.4V512.3h62.4v29.1Z" /></clipPath>
<clipPath id="c3_101"><path d="M55.2,803.9V564.8H316.3V803.9Z" /></clipPath>
<clipPath id="c4_101"><path d="M55.2,1011.4V873.2H191.5v138.2Z" /></clipPath>
<clipPath id="c5_101"><path d="M55.2,1129.1v-48.7H191.5v48.7Z" /></clipPath>
<clipPath id="c6_101"><path d="M55.2,1158.8v-29.1H96.8v29.1Z" /></clipPath>
<style type="text/css"><![CDATA[
.g0_101{
fill: #D9D9D9;
}
.g1_101{
fill: none;
stroke: #000000;
stroke-width: 0.7638889;
stroke-linecap: butt;
stroke-linejoin: miter;
}
.g2_101{
fill: none;
stroke: #000000;
stroke-width: 0.91064274;
stroke-linecap: butt;
stroke-linejoin: round;
}
.g3_101{
fill: none;
stroke: #000000;
stroke-width: 0.9066266;
stroke-linecap: butt;
stroke-linejoin: round;
}
.g4_101{
fill: none;
stroke: #000000;
stroke-width: 0.9097342;
stroke-linecap: butt;
stroke-linejoin: round;
}
.g5_101{
fill: none;
stroke: #000000;
stroke-width: 0.90767753;
stroke-linecap: butt;
stroke-linejoin: round;
}
.g6_101{
}
]]></style>
</defs>
<image preserveAspectRatio="none" x="747" y="1196" width="96" height="59" xlink:href="img/1.png" />
<image preserveAspectRatio="none" x="336" y="41" width="259" height="51" xlink:href="img/2.png" />
<image preserveAspectRatio="none" x="342" y="50" width="247" height="27" xlink:href="img/3.png" />
<image preserveAspectRatio="none" x="341" y="45" width="239" height="42" xlink:href="img/4.png" />
<g fill="#FFFFFF" >
<use xlink:href="#f0_j" transform="matrix(11.5,0,0,11.5,355.1,70.1)" />
<use xlink:href="#f0_i" transform="matrix(11.5,0,0,11.5,364.3,70.1)" />
<use xlink:href="#f0_2n" transform="matrix(11.5,0,0,11.5,374.1,70.1)" />
<use xlink:href="#f0_t" transform="matrix(11.5,0,0,11.5,382.6,70.1)" />
<use xlink:href="#f0_oj" transform="matrix(11.5,0,0,11.5,391,70.1)" />
<use xlink:href="#f0_3e" transform="matrix(11.5,0,0,11.5,396.5,70.1)" />
<use xlink:href="#f0_1c" transform="matrix(11.5,0,0,11.5,406.1,70.1)" />
<use xlink:href="#f0_1c" transform="matrix(11.5,0,0,11.5,410.8,70.1)" />
<use xlink:href="#f0_oj" transform="matrix(11.5,0,0,11.5,415.6,70.1)" />
<use xlink:href="#f0_rz" transform="matrix(11.5,0,0,11.5,421.1,70.1)" />
<use xlink:href="#f0_rx" transform="matrix(11.5,0,0,11.5,429.9,70.1)" />
<use xlink:href="#f0_ry" transform="matrix(11.5,0,0,11.5,438.7,70.1)" />
<use xlink:href="#f0_s2" transform="matrix(11.5,0,0,11.5,447.5,70.1)" />
<use xlink:href="#f0_t" transform="matrix(11.5,0,0,11.5,460.4,70.1)" />
<use xlink:href="#f0_3e" transform="matrix(11.5,0,0,11.5,468.8,70.1)" />
<use xlink:href="#f0_5" transform="matrix(11.5,0,0,11.5,478.3,70.1)" />
<use xlink:href="#f0_1x" transform="matrix(11.5,0,0,11.5,489,70.1)" />
<use xlink:href="#f0_1c" transform="matrix(11.5,0,0,11.5,504.4,70.1)" />
<use xlink:href="#f0_1y" transform="matrix(11.5,0,0,11.5,509.1,70.1)" />
<use xlink:href="#f0_5" transform="matrix(11.5,0,0,11.5,520.8,70.1)" />
<use xlink:href="#f0_2t" transform="matrix(11.5,0,0,11.5,531.5,70.1)" />
<use xlink:href="#f0_1c" transform="matrix(11.5,0,0,11.5,540.2,70.1)" />
<use xlink:href="#f0_24" transform="matrix(11.5,0,0,11.5,545,70.1)" />
<use xlink:href="#f0_1y" transform="matrix(11.5,0,0,11.5,556.7,70.1)" />
</g>
<image preserveAspectRatio="none" x="554" y="45" width="36" height="42" xlink:href="img/5.png" />
<g fill="#FFFFFF" >
<use xlink:href="#f1_t" transform="matrix(11,0,0,11,770.3,1227.6)" />
<use xlink:href="#f1_j" transform="matrix(11,0,0,11,783.5,1227.6)" />
<use xlink:href="#f1_l" transform="matrix(11,0,0,11,794.1,1227.6)" />
<use xlink:href="#f1_m" transform="matrix(11,0,0,11,802.9,1227.6)" />
</g>
<path fill-rule="evenodd" d="M52.8,1193.5H856.9v-.8H52.8v.8Z" class="g0_101" />
<path d="M37.9,99.4L873,98.5" class="g1_101" />
<path d="M121.1,152.5h42.3m29.2,0h36.9M121.4,201.8h42.3m29.2,0h33.4M125.4,255.1h42.3m-83.3,-25v48.1m124,-48.1v48.1M84,230.5H208.9M84,277.8H208.9" class="g2_101" />
<g clip-path="url(#c0_101)">
<g fill="#000000" >
<use xlink:href="#f2_l" transform="matrix(7.1,0,0,7,96,161.8)" />
<use xlink:href="#f2_l" transform="matrix(7.1,0,0,7,96.3,211.1)" />
<use xlink:href="#f2_l" transform="matrix(7.1,0,0,7,100.3,264.3)" />
<use xlink:href="#f2_m" transform="matrix(12.2,0,0,12.2,122.2,145.5)" />
<use xlink:href="#f2_i" transform="matrix(12.2,0,0,12.2,131.4,145.5)" />
<use xlink:href="#f2_n" transform="matrix(12.2,0,0,12.2,136,145.5)" />
<use xlink:href="#f2_k" transform="matrix(12.2,0,0,12.2,145.1,145.5)" />
<use xlink:href="#f2_n" transform="matrix(12.2,0,0,12.2,154.3,145.5)" />
<use xlink:href="#f2_c" transform="matrix(12.2,0,0,12.2,57.6,157.1)" />
<use xlink:href="#f2_d" transform="matrix(12.2,0,0,12.2,73.1,157.1)" />
<use xlink:href="#f2_28" transform="matrix(12.2,0,0,12.2,166.2,157.1)" />
<use xlink:href="#f2_2b" transform="matrix(12.2,0,0,12.2,171.1,157.1)" />
<use xlink:href="#f2_23" transform="matrix(12.2,0,0,12.2,180.3,157.1)" />
<use xlink:href="#f2_m" transform="matrix(12.2,0,0,12.2,122.5,194.8)" />
<use xlink:href="#f2_i" transform="matrix(12.2,0,0,12.2,131.7,194.8)" />
<use xlink:href="#f2_n" transform="matrix(12.2,0,0,12.2,136.3,194.8)" />
<use xlink:href="#f2_k" transform="matrix(12.2,0,0,12.2,145.4,194.8)" />
<use xlink:href="#f2_n" transform="matrix(12.2,0,0,12.2,154.6,194.8)" />
<use xlink:href="#f2_k" transform="matrix(12.2,0,0,12.2,193.7,194.8)" />
<use xlink:href="#f2_i" transform="matrix(12.2,0,0,12.2,202.9,194.8)" />
<use xlink:href="#f2_q" transform="matrix(12.2,0,0,12.2,207.5,194.8)" />
<use xlink:href="#f2_k" transform="matrix(12.2,0,0,12.2,216.6,194.8)" />
<use xlink:href="#f2_28" transform="matrix(12.2,0,0,12.2,166.6,206.4)" />
<use xlink:href="#f2_2b" transform="matrix(12.2,0,0,12.2,171.4,206.4)" />
<use xlink:href="#f2_23" transform="matrix(12.2,0,0,12.2,180.6,206.4)" />
<use xlink:href="#f2_n" transform="matrix(12.2,0,0,12.2,133.4,220.7)" />
<use xlink:href="#f2_k" transform="matrix(12.2,0,0,12.2,142.5,220.7)" />
<use xlink:href="#f2_k" transform="matrix(12.2,0,0,12.2,193.7,220.7)" />
<use xlink:href="#f2_i" transform="matrix(12.2,0,0,12.2,202.8,220.7)" />
<use xlink:href="#f2_n" transform="matrix(12.2,0,0,12.2,207.4,220.7)" />
<use xlink:href="#f2_k" transform="matrix(12.2,0,0,12.2,216.6,220.7)" />
<use xlink:href="#f2_m" transform="matrix(12.2,0,0,12.2,126.6,248.1)" />
<use xlink:href="#f2_i" transform="matrix(12.2,0,0,12.2,135.7,248.1)" />
<use xlink:href="#f2_n" transform="matrix(12.2,0,0,12.2,140.3,248.1)" />
<use xlink:href="#f2_k" transform="matrix(12.2,0,0,12.2,149.4,248.1)" />
<use xlink:href="#f2_n" transform="matrix(12.2,0,0,12.2,158.6,248.1)" />
<use xlink:href="#f2_28" transform="matrix(12.2,0,0,12.2,170.6,259.6)" />
<use xlink:href="#f2_2b" transform="matrix(12.2,0,0,12.2,175.4,259.6)" />
<use xlink:href="#f2_23" transform="matrix(12.2,0,0,12.2,184.6,259.6)" />
<use xlink:href="#f2_m" transform="matrix(12.2,0,0,12.2,196.6,259.6)" />
<use xlink:href="#f2_n" transform="matrix(12.2,0,0,12.2,137.4,273.9)" />
<use xlink:href="#f2_k" transform="matrix(12.2,0,0,12.2,146.6,273.9)" />
<use xlink:href="#f3_1x" transform="matrix(12.2,0,0,12.2,206.5,145.5)" />
<use xlink:href="#f3_19" transform="matrix(12.2,0,0,12.2,64.8,157.1)" />
<use xlink:href="#f3_1b" transform="matrix(12.2,0,0,12.2,84,157.1)" />
<use xlink:href="#f3_2g" transform="matrix(12.2,0,0,12.2,139.1,171.4)" />
<use xlink:href="#f3_1x" transform="matrix(12.2,0,0,12.2,193.7,171.4)" />
<use xlink:href="#f3_2k" transform="matrix(12.2,0,0,12.2,220.3,171.4)" />
<use xlink:href="#f3_1b" transform="matrix(12.2,0,0,12.2,84.2,206.4)" />
<use xlink:href="#f3_1b" transform="matrix(12.2,0,0,12.2,88.3,259.6)" />
<use xlink:href="#f4_x" transform="matrix(12.2,0,0,12.2,106.5,157.1)" />
<use xlink:href="#f4_h" transform="matrix(12.2,0,0,12.2,206.3,171.4)" />
<use xlink:href="#f4_x" transform="matrix(12.2,0,0,12.2,106.8,206.4)" />
<use xlink:href="#f4_x" transform="matrix(12.2,0,0,12.2,110.8,259.6)" />
</g>
</g>
<g fill="#000000" >
<use xlink:href="#f5_13" transform="matrix(12,0,0,12,55,301.5)" />
<use xlink:href="#f5_1x" transform="matrix(12,0,0,12,68.3,301.5)" />
<use xlink:href="#f5_2f" transform="matrix(12,0,0,12,77.4,301.5)" />
<use xlink:href="#f5_21" transform="matrix(12,0,0,12,84.4,301.5)" />
<use xlink:href="#f5_m" transform="matrix(12,0,0,12,97.2,301.5)" />
</g>
<path d="M123.1,332.6h42.1m29.1,0H231M123.1,382h42.1m29.1,0h33.3M123.1,431.3h42.1m-38.1,53.4h42.1m-84.9,-25v48.2M221.7,459.7v48.2M83.9,460.1H222.2M83.9,507.5H222.2" class="g3_101" />
<g clip-path="url(#c1_101)">
<g fill="#000000" >
<use xlink:href="#f2_m" transform="matrix(7,0,0,7.1,97.2,341.9)" />
<use xlink:href="#f2_m" transform="matrix(7,0,0,7.1,97.2,391.3)" />
<use xlink:href="#f2_m" transform="matrix(7,0,0,7.1,97.2,440.7)" />
<use xlink:href="#f2_m" transform="matrix(7,0,0,7.1,101.2,494)" />
<use xlink:href="#f2_m" transform="matrix(12.2,0,0,12.2,124.2,325.7)" />
<use xlink:href="#f2_i" transform="matrix(12.2,0,0,12.2,133.3,325.7)" />
<use xlink:href="#f2_n" transform="matrix(12.2,0,0,12.2,137.9,325.7)" />
<use xlink:href="#f2_k" transform="matrix(12.2,0,0,12.2,147,325.7)" />
<use xlink:href="#f2_n" transform="matrix(12.2,0,0,12.2,156.1,325.7)" />
<use xlink:href="#f2_28" transform="matrix(12.2,0,0,12.2,168.1,337.2)" />
<use xlink:href="#f2_2b" transform="matrix(12.2,0,0,12.2,172.9,337.2)" />
<use xlink:href="#f2_23" transform="matrix(12.2,0,0,12.2,182,337.2)" />
<use xlink:href="#f2_m" transform="matrix(12.2,0,0,12.2,124.2,375)" />
<use xlink:href="#f2_i" transform="matrix(12.2,0,0,12.2,133.3,375)" />
<use xlink:href="#f2_n" transform="matrix(12.2,0,0,12.2,137.9,375)" />
<use xlink:href="#f2_k" transform="matrix(12.2,0,0,12.2,147,375)" />
<use xlink:href="#f2_n" transform="matrix(12.2,0,0,12.2,156.1,375)" />
<use xlink:href="#f2_k" transform="matrix(12.2,0,0,12.2,195.1,375)" />
<use xlink:href="#f2_i" transform="matrix(12.2,0,0,12.2,204.2,375)" />
<use xlink:href="#f2_q" transform="matrix(12.2,0,0,12.2,208.8,375)" />
<use xlink:href="#f2_k" transform="matrix(12.2,0,0,12.2,217.9,375)" />
<use xlink:href="#f2_28" transform="matrix(12.2,0,0,12.2,168.1,386.6)" />
<use xlink:href="#f2_2b" transform="matrix(12.2,0,0,12.2,172.9,386.6)" />
<use xlink:href="#f2_23" transform="matrix(12.2,0,0,12.2,182,386.6)" />
<use xlink:href="#f2_q" transform="matrix(12.2,0,0,12.2,135.2,400.9)" />
<use xlink:href="#f2_k" transform="matrix(12.2,0,0,12.2,144.3,400.9)" />
<use xlink:href="#f2_k" transform="matrix(12.2,0,0,12.2,195.3,400.9)" />
<use xlink:href="#f2_i" transform="matrix(12.2,0,0,12.2,204.4,400.9)" />
<use xlink:href="#f2_l" transform="matrix(12.2,0,0,12.2,209,400.9)" />
<use xlink:href="#f2_p" transform="matrix(12.2,0,0,12.2,218.1,400.9)" />
<use xlink:href="#f2_m" transform="matrix(12.2,0,0,12.2,124.2,424.4)" />
<use xlink:href="#f2_i" transform="matrix(12.2,0,0,12.2,133.3,424.4)" />
<use xlink:href="#f2_n" transform="matrix(12.2,0,0,12.2,137.9,424.4)" />
<use xlink:href="#f2_k" transform="matrix(12.2,0,0,12.2,147,424.4)" />
<use xlink:href="#f2_n" transform="matrix(12.2,0,0,12.2,156.1,424.4)" />
<use xlink:href="#f2_m" transform="matrix(12.2,0,0,12.2,180.3,436)" />
<use xlink:href="#f2_28" transform="matrix(12.2,0,0,12.2,191.4,436)" />
<use xlink:href="#f2_2b" transform="matrix(12.2,0,0,12.2,196.3,436)" />
<use xlink:href="#f2_23" transform="matrix(12.2,0,0,12.2,205.4,436)" />
<use xlink:href="#f2_m" transform="matrix(12.2,0,0,12.2,217.3,436)" />
<use xlink:href="#f2_q" transform="matrix(12.2,0,0,12.2,135.2,450.3)" />
<use xlink:href="#f2_k" transform="matrix(12.2,0,0,12.2,144.3,450.3)" />
<use xlink:href="#f2_m" transform="matrix(12.2,0,0,12.2,128.2,477.8)" />
<use xlink:href="#f2_i" transform="matrix(12.2,0,0,12.2,137.3,477.8)" />
<use xlink:href="#f2_n" transform="matrix(12.2,0,0,12.2,141.9,477.8)" />
<use xlink:href="#f2_k" transform="matrix(12.2,0,0,12.2,151,477.8)" />
<use xlink:href="#f2_n" transform="matrix(12.2,0,0,12.2,160.1,477.8)" />
<use xlink:href="#f2_28" transform="matrix(12.2,0,0,12.2,184,489.3)" />
<use xlink:href="#f2_2b" transform="matrix(12.2,0,0,12.2,188.9,489.3)" />
<use xlink:href="#f2_23" transform="matrix(12.2,0,0,12.2,198,489.3)" />
<use xlink:href="#f2_m" transform="matrix(12.2,0,0,12.2,209.9,489.3)" />
<use xlink:href="#f2_n" transform="matrix(12.2,0,0,12.2,139,503.6)" />
<use xlink:href="#f2_k" transform="matrix(12.2,0,0,12.2,148.1,503.6)" />
<use xlink:href="#f3_1x" transform="matrix(12.2,0,0,12.2,208.1,325.7)" />
<use xlink:href="#f3_1b" transform="matrix(12.2,0,0,12.2,84.2,337.2)" />
<use xlink:href="#f3_2g" transform="matrix(12.2,0,0,12.2,141,351.5)" />
<use xlink:href="#f3_1x" transform="matrix(12.2,0,0,12.2,195.4,351.5)" />
<use xlink:href="#f3_2k" transform="matrix(12.2,0,0,12.2,221.9,351.5)" />
<use xlink:href="#f3_1b" transform="matrix(12.2,0,0,12.2,84.2,386.6)" />
<use xlink:href="#f3_1b" transform="matrix(12.2,0,0,12.2,84.2,436)" />
<use xlink:href="#f3_1b" transform="matrix(12.2,0,0,12.2,88.1,489.3)" />
<use xlink:href="#f4_x" transform="matrix(12.2,0,0,12.2,108.6,337.2)" />
<use xlink:href="#f4_h" transform="matrix(12.2,0,0,12.2,207.9,351.5)" />
<use xlink:href="#f4_x" transform="matrix(12.2,0,0,12.2,108.6,386.6)" />
<use xlink:href="#f4_x" transform="matrix(12.2,0,0,12.2,108.6,436)" />
<use xlink:href="#f4_3a" transform="matrix(12.2,0,0,12.2,167.8,436)" />
<use xlink:href="#f4_x" transform="matrix(12.2,0,0,12.2,112.5,489.3)" />
<use xlink:href="#f4_3a" transform="matrix(12.2,0,0,12.2,171.8,489.3)" />
</g>
</g>
<g clip-path="url(#c2_101)">
<g fill="#000000" >
<use xlink:href="#f2_l" transform="matrix(7.4,0,0,7.2,139.1,537.1)" />
<use xlink:href="#f2_m" transform="matrix(7.4,0,0,7.2,177.4,537.1)" />
<use xlink:href="#f3_1b" transform="matrix(12.7,0,0,12.4,127.1,532.2)" />
<use xlink:href="#f3_1b" transform="matrix(12.7,0,0,12.4,164.4,532.2)" />
<use xlink:href="#f4_x" transform="matrix(12.7,0,0,12.4,149.6,532.2)" />
</g>
</g>
<g fill="#000000" >
<use xlink:href="#f2_25" transform="matrix(12,0,0,12,191.1,532.2)" />
<use xlink:href="#f2_2g" transform="matrix(12,0,0,12,195.5,532.2)" />
<use xlink:href="#f2_29" transform="matrix(12,0,0,12,205.7,532.2)" />
<use xlink:href="#f2_21" transform="matrix(12,0,0,12,219.3,532.2)" />
<use xlink:href="#f2_1x" transform="matrix(12,0,0,12,227.7,532.2)" />
<use xlink:href="#f2_2a" transform="matrix(12,0,0,12,236.1,532.2)" />
<use xlink:href="#f2_2f" transform="matrix(12,0,0,12,244.9,532.2)" />
<use xlink:href="#f2_25" transform="matrix(12,0,0,12,257,532.2)" />
<use xlink:href="#f2_2g" transform="matrix(12,0,0,12,261.4,532.2)" />
<use xlink:href="#f2_22" transform="matrix(12,0,0,12,271.6,532.2)" />
<use xlink:href="#f2_2b" transform="matrix(12,0,0,12,277.1,532.2)" />
<use xlink:href="#f2_28" transform="matrix(12,0,0,12,287,532.2)" />
<use xlink:href="#f2_28" transform="matrix(12,0,0,12,291.8,532.2)" />
<use xlink:href="#f2_2b" transform="matrix(12,0,0,12,296.2,532.2)" />
<use xlink:href="#f2_2j" transform="matrix(12,0,0,12,305.7,532.2)" />
<use xlink:href="#f2_2f" transform="matrix(12,0,0,12,319.3,532.2)" />
<use xlink:href="#f2_1g" transform="matrix(12,0,0,12,331,532.2)" />
<use xlink:href="#f2_2f" transform="matrix(12,0,0,12,341.2,532.2)" />
<use xlink:href="#f2_21" transform="matrix(12,0,0,12,348.2,532.2)" />
<use xlink:href="#f2_2h" transform="matrix(12,0,0,12,356.3,532.2)" />
<use xlink:href="#f2_20" transform="matrix(12,0,0,12,365.4,532.2)" />
<use xlink:href="#f2_2b" transform="matrix(12,0,0,12,374.6,532.2)" />
<use xlink:href="#f2_22" transform="matrix(12,0,0,12,388.9,532.2)" />
<use xlink:href="#f2_25" transform="matrix(12,0,0,12,394.7,532.2)" />
<use xlink:href="#f2_2e" transform="matrix(12,0,0,12,399.1,532.2)" />
<use xlink:href="#f2_2f" transform="matrix(12,0,0,12,405.7,532.2)" />
<use xlink:href="#f2_2g" transform="matrix(12,0,0,12,412.7,532.2)" />
<use xlink:href="#f2_2b" transform="matrix(12,0,0,12,422.5,532.2)" />
<use xlink:href="#f2_2e" transform="matrix(12,0,0,12,432.1,532.2)" />
<use xlink:href="#f2_20" transform="matrix(12,0,0,12,438.3,532.2)" />
<use xlink:href="#f2_21" transform="matrix(12,0,0,12,447.4,532.2)" />
<use xlink:href="#f2_2e" transform="matrix(12,0,0,12,455.5,532.2)" />
<use xlink:href="#f2_2e" transform="matrix(12,0,0,12,466.1,532.2)" />
<use xlink:href="#f2_21" transform="matrix(12,0,0,12,472.3,532.2)" />
<use xlink:href="#f2_1x" transform="matrix(12,0,0,12,480.4,532.2)" />
<use xlink:href="#f2_1z" transform="matrix(12,0,0,12,488.1,532.2)" />
<use xlink:href="#f2_2g" transform="matrix(12,0,0,12,496.2,532.2)" />
<use xlink:href="#f2_25" transform="matrix(12,0,0,12,501.7,532.2)" />
<use xlink:href="#f2_2b" transform="matrix(12,0,0,12,506.1,532.2)" />
<use xlink:href="#f2_2a" transform="matrix(12,0,0,12,515.6,532.2)" />
<use xlink:href="#f2_i" transform="matrix(12,0,0,12,524.4,532.2)" />
</g>
<path d="M213.7,590.9h24.6m-15.4,50.8h81M201.3,694.3h33.3m-33.3,49.4h29.2m-43,28.3v28.6M286.8,772v28.6M187,772.5H287.2M187,800.2H287.2" class="g4_101" />
<g clip-path="url(#c3_101)">
<g fill="#000000" >
<use xlink:href="#f2_n" transform="matrix(7.1,0,0,7.1,250.2,784.1)" />
<use xlink:href="#f2_c" transform="matrix(12.2,0,0,12.2,57.6,595.4)" />
<use xlink:href="#f2_d" transform="matrix(12.2,0,0,12.2,79.1,595.4)" />
<use xlink:href="#f2_1x" transform="matrix(12.2,0,0,12.2,89.1,595.4)" />
<use xlink:href="#f2_2i" transform="matrix(12.2,0,0,12.2,97.1,595.4)" />
<use xlink:href="#f2_21" transform="matrix(12.2,0,0,12.2,105.9,595.4)" />
<use xlink:href="#f2_2e" transform="matrix(12.2,0,0,12.2,113.9,595.4)" />
<use xlink:href="#f2_1x" transform="matrix(12.2,0,0,12.2,120,595.4)" />
<use xlink:href="#f2_23" transform="matrix(12.2,0,0,12.2,128,595.4)" />
<use xlink:href="#f2_21" transform="matrix(12.2,0,0,12.2,137.1,595.4)" />
<use xlink:href="#f2_2e" transform="matrix(12.2,0,0,12.2,149.7,595.4)" />
<use xlink:href="#f2_1x" transform="matrix(12.2,0,0,12.2,155.8,595.4)" />
<use xlink:href="#f2_2g" transform="matrix(12.2,0,0,12.2,163.8,595.4)" />
<use xlink:href="#f2_21" transform="matrix(12.2,0,0,12.2,168.9,595.4)" />
<use xlink:href="#f2_k" transform="matrix(12.2,0,0,12.2,223.8,634.7)" />
<use xlink:href="#f2_i" transform="matrix(12.2,0,0,12.2,232.9,634.7)" />
<use xlink:href="#f2_l" transform="matrix(12.2,0,0,12.2,237.5,634.7)" />
<use xlink:href="#f2_p" transform="matrix(12.2,0,0,12.2,246.7,634.7)" />
<use xlink:href="#f2_k" transform="matrix(12.2,0,0,12.2,271.3,634.7)" />
<use xlink:href="#f2_i" transform="matrix(12.2,0,0,12.2,280.4,634.7)" />
<use xlink:href="#f2_n" transform="matrix(12.2,0,0,12.2,285,634.7)" />
<use xlink:href="#f2_k" transform="matrix(12.2,0,0,12.2,294.2,634.7)" />
<use xlink:href="#f2_q" transform="matrix(12.2,0,0,12.2,237.5,660.6)" />
<use xlink:href="#f2_k" transform="matrix(12.2,0,0,12.2,246.7,660.6)" />
<use xlink:href="#f2_n" transform="matrix(12.2,0,0,12.2,271.3,660.6)" />
<use xlink:href="#f2_k" transform="matrix(12.2,0,0,12.2,280.4,660.6)" />
<use xlink:href="#f2_k" transform="matrix(12.2,0,0,12.2,202.2,687.3)" />
<use xlink:href="#f2_i" transform="matrix(12.2,0,0,12.2,211.4,687.3)" />
<use xlink:href="#f2_l" transform="matrix(12.2,0,0,12.2,216,687.3)" />
<use xlink:href="#f2_p" transform="matrix(12.2,0,0,12.2,225.1,687.3)" />
<use xlink:href="#f2_n" transform="matrix(12.2,0,0,12.2,208.8,713.2)" />
<use xlink:href="#f2_k" transform="matrix(12.2,0,0,12.2,217.9,713.2)" />
<use xlink:href="#f2_l" transform="matrix(12.2,0,0,12.2,211.4,736.7)" />
<use xlink:href="#f2_m" transform="matrix(12.2,0,0,12.2,202.5,762.6)" />
<use xlink:href="#f2_k" transform="matrix(12.2,0,0,12.2,211.7,762.6)" />
<use xlink:href="#f2_k" transform="matrix(12.2,0,0,12.2,220.8,762.6)" />
<use xlink:href="#f2_p" transform="matrix(12.2,0,0,12.2,204.5,792.3)" />
<use xlink:href="#f2_l" transform="matrix(12.2,0,0,12.2,225.7,792.3)" />
<use xlink:href="#f2_k" transform="matrix(12.2,0,0,12.2,234.8,792.3)" />
<use xlink:href="#f2_2f" transform="matrix(12.2,0,0,12.2,260.6,792.3)" />
<use xlink:href="#f2_21" transform="matrix(12.2,0,0,12.2,267.8,792.3)" />
<use xlink:href="#f2_1z" transform="matrix(12.2,0,0,12.2,275.8,792.3)" />
<use xlink:href="#f3_1i" transform="matrix(12.2,0,0,12.2,225.9,583.9)" />
<use xlink:href="#f3_19" transform="matrix(12.2,0,0,12.2,64.8,595.4)" />
<use xlink:href="#f3_19" transform="matrix(12.2,0,0,12.2,70.8,595.4)" />
<use xlink:href="#f3_2g" transform="matrix(12.2,0,0,12.2,228.7,609.8)" />
<use xlink:href="#f4_h" transform="matrix(7.1,0,0,7.1,244.4,784.1)" />
<use xlink:href="#f4_14" transform="matrix(12.2,0,0,12.2,214.8,583.9)" />
<use xlink:href="#f4_x" transform="matrix(12.2,0,0,12.2,186.5,595.4)" />
<use xlink:href="#f4_h" transform="matrix(12.2,0,0,12.2,200.8,595.4)" />
<use xlink:href="#f4_14" transform="matrix(12.2,0,0,12.2,217.5,609.8)" />
<use xlink:href="#f4_h" transform="matrix(12.2,0,0,12.2,258.4,634.7)" />
<use xlink:href="#f4_4o" transform="matrix(12.2,0,0,12.2,213.1,636.1)" />
<use xlink:href="#f4_54" transform="matrix(12.2,0,0,12.2,306.6,636.1)" />
<use xlink:href="#f4_x" transform="matrix(12.2,0,0,12.2,186.8,646.2)" />
<use xlink:href="#f4_h" transform="matrix(12.2,0,0,12.2,201.1,646.2)" />
<use xlink:href="#f4_4p" transform="matrix(12.2,0,0,12.2,213.1,651.1)" />
<use xlink:href="#f4_55" transform="matrix(12.2,0,0,12.2,306.6,651.1)" />
<use xlink:href="#f4_h" transform="matrix(12.2,0,0,12.2,258.7,660.6)" />
<use xlink:href="#f4_4q" transform="matrix(12.2,0,0,12.2,213.1,662.7)" />
<use xlink:href="#f4_56" transform="matrix(12.2,0,0,12.2,306.6,662.7)" />
<use xlink:href="#f4_x" transform="matrix(12.2,0,0,12.2,186.8,698.9)" />
<use xlink:href="#f4_x" transform="matrix(12.2,0,0,12.2,186.8,748.2)" />
<use xlink:href="#f4_x" transform="matrix(12.2,0,0,12.2,190.8,792.3)" />
<use xlink:href="#f4_3a" transform="matrix(12.2,0,0,12.2,215.1,792.3)" />
</g>
</g>
<g fill="#000000" >
<use xlink:href="#f2_1f" transform="matrix(12,0,0,12,442,845.4)" />
<use xlink:href="#f2_1i" transform="matrix(12,0,0,12,455.2,845.4)" />
<use xlink:href="#f2_c" transform="matrix(12,0,0,12,55,868.1)" />
<use xlink:href="#f2_1x" transform="matrix(12,0,0,12,61.3,868.1)" />
<use xlink:href="#f2_d" transform="matrix(12,0,0,12,69.3,868.1)" />
<use xlink:href="#f2_c" transform="matrix(12,0,0,12,80.3,868.1)" />
<use xlink:href="#f2_19" transform="matrix(12,0,0,12,86.1,868.1)" />
<use xlink:href="#f2_d" transform="matrix(12,0,0,12,92.4,868.1)" />
</g>
<path d="M129,880.8v21.7m16,-21.7v21.7m12.4,-21.7v21.7m16.1,-21.7v21.7M131,915.3V937m25.5,-21.7V937m12.4,-21.7V937m16,-21.7V937m-44.4,12.8v21.8m16,-21.8v21.8m12.4,-21.8v21.8m16,-21.8v21.8M58.7,980.7v26.8m57.5,-26.8v26.8m-58,-26.3h58.5M58.2,1007h58.5" class="g5_101" />
<g clip-path="url(#c4_101)">
<g fill="#000000" >
<use xlink:href="#f2_m" transform="matrix(7,0,0,7,147,885.2)" />
<use xlink:href="#f2_l" transform="matrix(7,0,0,7,86.1,900.9)" />
<use xlink:href="#f2_m" transform="matrix(7,0,0,7,158.5,919.7)" />
<use xlink:href="#f2_m" transform="matrix(7,0,0,7,87.3,935.5)" />
<use xlink:href="#f2_m" transform="matrix(7,0,0,7,158.5,954.2)" />
<use xlink:href="#f2_m" transform="matrix(7,0,0,7,87.3,970)" />
<use xlink:href="#f2_m" transform="matrix(7,0,0,7,67.4,1003.5)" />
<use xlink:href="#f2_l" transform="matrix(7,0,0,7,107,1003.5)" />
<use xlink:href="#f2_m" transform="matrix(12.1,0,0,12.2,133.2,930.8)" />
<use xlink:href="#f2_o" transform="matrix(12.1,0,0,12.2,113,965.3)" />
<use xlink:href="#f2_o" transform="matrix(12.1,0,0,12.2,93.2,998.8)" />
<use xlink:href="#f3_2e" transform="matrix(12.1,0,0,12.2,58,896.2)" />
<use xlink:href="#f3_1x" transform="matrix(12.1,0,0,12.2,65.2,896.2)" />
<use xlink:href="#f3_2g" transform="matrix(12.1,0,0,12.2,74.4,896.2)" />
<use xlink:href="#f3_21" transform="matrix(12.1,0,0,12.2,79.5,896.2)" />
<use xlink:href="#f3_1b" transform="matrix(12.1,0,0,12.2,111.6,896.2)" />
<use xlink:href="#f3_11" transform="matrix(12.1,0,0,12.2,132.7,896.2)" />
<use xlink:href="#f3_12" transform="matrix(12.1,0,0,12.2,160.3,896.2)" />
<use xlink:href="#f3_2e" transform="matrix(12.1,0,0,12.2,58,930.8)" />
<use xlink:href="#f3_1x" transform="matrix(12.1,0,0,12.2,65.2,930.8)" />
<use xlink:href="#f3_2g" transform="matrix(12.1,0,0,12.2,74.4,930.8)" />
<use xlink:href="#f3_21" transform="matrix(12.1,0,0,12.2,79.5,930.8)" />
<use xlink:href="#f3_1b" transform="matrix(12.1,0,0,12.2,113.6,930.8)" />
<use xlink:href="#f3_11" transform="matrix(12.1,0,0,12.2,144.2,930.8)" />
<use xlink:href="#f3_12" transform="matrix(12.1,0,0,12.2,171.7,930.8)" />
<use xlink:href="#f3_2e" transform="matrix(12.1,0,0,12.2,58,965.3)" />
<use xlink:href="#f3_1x" transform="matrix(12.1,0,0,12.2,65.2,965.3)" />
<use xlink:href="#f3_2g" transform="matrix(12.1,0,0,12.2,74.4,965.3)" />
<use xlink:href="#f3_21" transform="matrix(12.1,0,0,12.2,79.5,965.3)" />
<use xlink:href="#f3_1b" transform="matrix(12.1,0,0,12.2,123.1,965.3)" />
<use xlink:href="#f3_11" transform="matrix(12.1,0,0,12.2,144.2,965.3)" />
<use xlink:href="#f3_12" transform="matrix(12.1,0,0,12.2,171.8,965.3)" />
<use xlink:href="#f3_2e" transform="matrix(12.1,0,0,12.2,62,998.8)" />
<use xlink:href="#f3_2e" transform="matrix(12.1,0,0,12.2,102.7,998.8)" />
<use xlink:href="#f4_x" transform="matrix(12.1,0,0,12.2,96.7,896.2)" />
<use xlink:href="#f4_x" transform="matrix(12.1,0,0,12.2,98.6,930.8)" />
<use xlink:href="#f4_x" transform="matrix(12.1,0,0,12.2,98.6,965.3)" />
<use xlink:href="#f4_x" transform="matrix(12.1,0,0,12.2,78.8,998.8)" />
</g>
</g>
<g fill="#000000" >
<use xlink:href="#f2_c" transform="matrix(12,0,0,12,55,1053.4)" />
<use xlink:href="#f2_19" transform="matrix(12,0,0,12,61.3,1053.4)" />
<use xlink:href="#f2_19" transform="matrix(12,0,0,12,67.5,1053.4)" />
<use xlink:href="#f2_d" transform="matrix(12,0,0,12,73.7,1053.4)" />
<use xlink:href="#f2_1j" transform="matrix(12,0,0,12,84.3,1053.4)" />
<use xlink:href="#f2_21" transform="matrix(12,0,0,12,94.5,1053.4)" />
<use xlink:href="#f2_1z" transform="matrix(12,0,0,12,102.6,1053.4)" />
<use xlink:href="#f2_2b" transform="matrix(12,0,0,12,110.3,1053.4)" />
<use xlink:href="#f2_2a" transform="matrix(12,0,0,12,119.8,1053.4)" />
<use xlink:href="#f2_20" transform="matrix(12,0,0,12,128.6,1053.4)" />
<use xlink:href="#f2_2b" transform="matrix(12,0,0,12,142.5,1053.4)" />
<use xlink:href="#f2_2e" transform="matrix(12,0,0,12,151.7,1053.4)" />
<use xlink:href="#f2_20" transform="matrix(12,0,0,12,157.9,1053.4)" />
<use xlink:href="#f2_21" transform="matrix(12,0,0,12,167.1,1053.4)" />
<use xlink:href="#f2_2e" transform="matrix(12,0,0,12,175.2,1053.4)" />
<use xlink:href="#f2_c" transform="matrix(12,0,0,12,55,1076.1)" />
<use xlink:href="#f2_1y" transform="matrix(12,0,0,12,61.3,1076.1)" />
<use xlink:href="#f2_d" transform="matrix(12,0,0,12,70.1,1076.1)" />
<use xlink:href="#f2_16" transform="matrix(12,0,0,12,81,1076.1)" />
<use xlink:href="#f2_2b" transform="matrix(12,0,0,12,90.9,1076.1)" />
<use xlink:href="#f2_2e" transform="matrix(12,0,0,12,100.4,1076.1)" />
<use xlink:href="#f2_p" transform="matrix(12,0,0,12,111.4,1076.1)" />
<use xlink:href="#f2_k" transform="matrix(12,0,0,12,120.6,1076.1)" />
<use xlink:href="#f2_9" transform="matrix(12,0,0,12,129.4,1076.1)" />
<use xlink:href="#f2_13" transform="matrix(12,0,0,12,144.7,1076.1)" />
<use xlink:href="#f2_2b" transform="matrix(12,0,0,12,156.8,1076.1)" />
<use xlink:href="#f2_29" transform="matrix(12,0,0,12,166.4,1076.1)" />
<use xlink:href="#f2_2c" transform="matrix(12,0,0,12,179.9,1076.1)" />
<use xlink:href="#f2_28" transform="matrix(12,0,0,12,189.4,1076.1)" />
<use xlink:href="#f2_21" transform="matrix(12,0,0,12,194.2,1076.1)" />
<use xlink:href="#f2_2g" transform="matrix(12,0,0,12,202.3,1076.1)" />
<use xlink:href="#f2_25" transform="matrix(12,0,0,12,207.8,1076.1)" />
<use xlink:href="#f2_2b" transform="matrix(12,0,0,12,212.2,1076.1)" />
<use xlink:href="#f2_2a" transform="matrix(12,0,0,12,221.7,1076.1)" />
<use xlink:href="#f2_2b" transform="matrix(12,0,0,12,235.2,1076.1)" />
<use xlink:href="#f2_22" transform="matrix(12,0,0,12,245.1,1076.1)" />
<use xlink:href="#f2_2e" transform="matrix(12,0,0,12,255.3,1076.1)" />
<use xlink:href="#f2_21" transform="matrix(12,0,0,12,261.6,1076.1)" />
<use xlink:href="#f2_1x" transform="matrix(12,0,0,12,269.6,1076.1)" />
<use xlink:href="#f2_1z" transform="matrix(12,0,0,12,277.7,1076.1)" />
<use xlink:href="#f2_2g" transform="matrix(12,0,0,12,285.8,1076.1)" />
<use xlink:href="#f2_25" transform="matrix(12,0,0,12,291.2,1076.1)" />
<use xlink:href="#f2_2b" transform="matrix(12,0,0,12,295.6,1076.1)" />
<use xlink:href="#f2_2a" transform="matrix(12,0,0,12,305.2,1076.1)" />
</g>
<path d="M91.6,1106.3h42.6m29.3,0h23.1" class="g5_101" />
<g clip-path="url(#c5_101)">
<g fill="#000000" >
<use xlink:href="#f2_k" transform="matrix(7.3,0,0,7.1,178.6,1103.8)" />
<use xlink:href="#f2_m" transform="matrix(12.7,0,0,12.4,92.8,1099.2)" />
<use xlink:href="#f2_i" transform="matrix(12.7,0,0,12.4,102,1099.2)" />
<use xlink:href="#f2_n" transform="matrix(12.7,0,0,12.4,106.6,1099.2)" />
<use xlink:href="#f2_k" transform="matrix(12.7,0,0,12.4,115.8,1099.2)" />
<use xlink:href="#f2_n" transform="matrix(12.7,0,0,12.4,125,1099.2)" />
<use xlink:href="#f2_28" transform="matrix(12.7,0,0,12.4,137.1,1110.9)" />
<use xlink:href="#f2_2b" transform="matrix(12.7,0,0,12.4,141.9,1110.9)" />
<use xlink:href="#f2_23" transform="matrix(12.7,0,0,12.4,151.1,1110.9)" />
<use xlink:href="#f3_1e" transform="matrix(12.7,0,0,12.4,165.5,1099)" />
<use xlink:href="#f3_1b" transform="matrix(12.7,0,0,12.4,58.5,1110.9)" />
<use xlink:href="#f3_2g" transform="matrix(12.7,0,0,12.4,109.8,1125.5)" />
<use xlink:href="#f3_1e" transform="matrix(12.7,0,0,12.4,168.6,1125.5)" />
<use xlink:href="#f4_x" transform="matrix(12.7,0,0,12.4,77,1110.9)" />
</g>
</g>
<g clip-path="url(#c6_101)">
<g fill="#000000" >
<use xlink:href="#f2_k" transform="matrix(7.4,0,0,7.2,71.6,1154.6)" />
<use xlink:href="#f3_1e" transform="matrix(12.7,0,0,12.5,58.7,1149.7)" />
<use xlink:href="#f4_x" transform="matrix(12.7,0,0,12.5,82.7,1149.7)" />
</g>
</g>
<g fill="#000000" >
<use xlink:href="#f2_25" transform="matrix(12,0,0,12,96.1,1149.8)" />
<use xlink:href="#f2_2a" transform="matrix(12,0,0,12,100.9,1149.8)" />
<use xlink:href="#f2_25" transform="matrix(12,0,0,12,110.4,1149.8)" />
<use xlink:href="#f2_2g" transform="matrix(12,0,0,12,114.8,1149.8)" />
<use xlink:href="#f2_25" transform="matrix(12,0,0,12,120.6,1149.8)" />
<use xlink:href="#f2_1x" transform="matrix(12,0,0,12,125.4,1149.8)" />
<use xlink:href="#f2_28" transform="matrix(12,0,0,12,133.8,1149.8)" />
<use xlink:href="#f2_1x" transform="matrix(12,0,0,12,143,1149.8)" />
<use xlink:href="#f2_29" transform="matrix(12,0,0,12,151.4,1149.8)" />
<use xlink:href="#f2_2b" transform="matrix(12,0,0,12,164.9,1149.8)" />
<use xlink:href="#f2_2h" transform="matrix(12,0,0,12,174.5,1149.8)" />
<use xlink:href="#f2_2a" transform="matrix(12,0,0,12,184,1149.8)" />
<use xlink:href="#f2_2g" transform="matrix(12,0,0,12,192.8,1149.8)" />
<use xlink:href="#f2_2b" transform="matrix(12,0,0,12,203,1149.8)" />
<use xlink:href="#f2_22" transform="matrix(12,0,0,12,212.5,1149.8)" />
<use xlink:href="#f2_2g" transform="matrix(12,0,0,12,222.8,1149.8)" />
<use xlink:href="#f2_24" transform="matrix(12,0,0,12,228.3,1149.8)" />
<use xlink:href="#f2_21" transform="matrix(12,0,0,12,237.1,1149.8)" />
<use xlink:href="#f2_2f" transform="matrix(12,0,0,12,249.9,1149.8)" />
<use xlink:href="#f2_2h" transform="matrix(12,0,0,12,256.8,1149.8)" />
<use xlink:href="#f2_1y" transform="matrix(12,0,0,12,266,1149.8)" />
<use xlink:href="#f2_2f" transform="matrix(12,0,0,12,274.8,1149.8)" />
<use xlink:href="#f2_2g" transform="matrix(12,0,0,12,281.8,1149.8)" />
<use xlink:href="#f2_1x" transform="matrix(12,0,0,12,287.2,1149.8)" />
<use xlink:href="#f2_2a" transform="matrix(12,0,0,12,295.3,1149.8)" />
<use xlink:href="#f2_1z" transform="matrix(12,0,0,12,304.1,1149.8)" />
<use xlink:href="#f2_21" transform="matrix(12,0,0,12,312.5,1149.8)" />
<use xlink:href="#f2_1e" transform="matrix(12,0,0,12,55,1177.7)" />
<use xlink:href="#f2_x" transform="matrix(12,0,0,12,73,1177.7)" />
<use xlink:href="#f2_1x" transform="matrix(12,0,0,12,88,1177.7)" />
<use xlink:href="#f2_29" transform="matrix(12,0,0,12,96.1,1177.7)" />
<use xlink:href="#f2_2b" transform="matrix(12,0,0,12,109.6,1177.7)" />
<use xlink:href="#f2_2h" transform="matrix(12,0,0,12,119.1,1177.7)" />
<use xlink:href="#f2_2a" transform="matrix(12,0,0,12,128.3,1177.7)" />
<use xlink:href="#f2_2g" transform="matrix(12,0,0,12,137.1,1177.7)" />
<use xlink:href="#f2_28" transform="matrix(12,0,0,12,147.7,1177.7)" />
<use xlink:href="#f2_21" transform="matrix(12,0,0,12,152.1,1177.7)" />
<use xlink:href="#f2_22" transform="matrix(12,0,0,12,160.5,1177.7)" />
<use xlink:href="#f2_2g" transform="matrix(12,0,0,12,166,1177.7)" />
<use xlink:href="#f2_1x" transform="matrix(12,0,0,12,176.3,1177.7)" />
<use xlink:href="#f2_22" transform="matrix(12,0,0,12,184.7,1177.7)" />
<use xlink:href="#f2_2g" transform="matrix(12,0,0,12,190.2,1177.7)" />
<use xlink:href="#f2_21" transform="matrix(12,0,0,12,195.7,1177.7)" />
<use xlink:href="#f2_2e" transform="matrix(12,0,0,12,203.7,1177.7)" />
<use xlink:href="#f2_2g" transform="matrix(12,0,0,12,214.3,1177.7)" />
<use xlink:href="#f2_28" transform="matrix(12,0,0,12,224.2,1177.7)" />
<use xlink:href="#f2_25" transform="matrix(12,0,0,12,229,1177.7)" />
<use xlink:href="#f2_29" transform="matrix(12,0,0,12,234.1,1177.7)" />
<use xlink:href="#f2_21" transform="matrix(12,0,0,12,248,1177.7)" />
</g>
<path fill-rule="evenodd" d="M37.4,38.1h.7v-.7h-.7v.7Z" class="g6_101" />
<path fill-rule="evenodd" d="M37.4,38.1h.7v-.7h-.7v.7Z" class="g6_101" />
<path fill-rule="evenodd" d="M38.1,38.1H871.5v-.7H38.1v.7Z" class="g6_101" />
<path fill-rule="evenodd" d="M871.5,38.1h.8v-.7h-.8v.7Z" class="g6_101" />
<path fill-rule="evenodd" d="M871.5,38.1h.8v-.7h-.8v.7Z" class="g6_101" />
<path fill-rule="evenodd" d="M37.4,1248.5h.7V38.1h-.7V1248.5Z" class="g6_101" />
<path fill-rule="evenodd" d="M872.3,1248.5h.7V38.1h-.7V1248.5Z" class="g6_101" />
<path fill-rule="evenodd" d="M871.5,1248.5h.8V38.1h-.8V1248.5Z" class="g6_101" />
<path fill-rule="evenodd" d="M37.4,1249.2h.7v-.7h-.7v.7Z" class="g6_101" />
<path fill-rule="evenodd" d="M37.4,1249.2h.7v-.7h-.7v.7Z" class="g6_101" />
<path fill-rule="evenodd" d="M38.1,1249.9H871.5v-.7H38.1v.7Z" class="g6_101" />
<path fill-rule="evenodd" d="M38.1,1249.2H871.5v-.7H38.1v.7Z" class="g6_101" />
<path fill-rule="evenodd" d="M872.3,1249.9h.7v-1.4h-.7v1.4Z" class="g6_101" />
<path fill-rule="evenodd" d="M871.5,1249.9H873v-.7h-1.5v.7Z" class="g6_101" />
<path fill-rule="evenodd" d="M871.5,1249.2h.8v-.7h-.8v.7Z" class="g6_101" />
<path fill-rule="evenodd" d="M871.5,1249.2h.8v-.7h-.8v.7Z" class="g6_101" />
<defs>
<path d="M489,-15c0,0,-99,0,-179,30c0,0,-80,30,-136,91c0,0,-56,61,-85,152c0,0,-30,91,-30,212c0,0,0,123,32,218c0,0,33,96,92,161c0,0,59,65,142,98c0,0,82,34,181,34c0,0,40,0,78,-7c0,0,37,-7,69,-18c0,0,31,-11,57,-25c0,0,25,-14,35,-24c0,0,10,-10,14,-17c0,0,4,-7,6,-17c0,0,2,-11,3,-25c0,0,2,-14,2,-35c0,0,0,-22,-2,-38c0,0,-1,-15,-5,-25c0,0,-4,-10,-9,-14c0,0,-5,-5,-12,-5c0,0,-11,0,-28,13c0,0,-18,13,-45,29c0,0,-27,16,-65,29c0,0,-37,13,-89,13c0,0,-58,0,-103,-23c0,0,-45,-23,-77,-67c0,0,-31,-44,-48,-106c0,0,-16,-61,-16,-139c0,0,0,-85,17,-147c0,0,18,-62,50,-103c0,0,33,-40,79,-60c0,0,45,-19,103,-19c0,0,52,0,90,12c0,0,38,12,65,27c0,0,27,15,45,27c0,0,17,12,27,12c0,0,8,0,12,-3c0,0,4,-3,7,-12c0,0,3,-9,5,-25c0,0,1,-16,1,-43c0,0,0,-18,-1,-31c0,0,-1,-14,-3,-23c0,0,-2,-9,-6,-16c0,0,-4,-7,-12,-15c0,0,-8,-9,-32,-22c0,0,-23,-14,-57,-26C661,13,627,1,583,-6c0,0,-43,-9,-94,-9Z" 
id="f0_j"
transform="scale(0.001,-0.001)" />

<path d="M440,150c0,0,41,0,68,8c0,0,28,9,49,26c0,0,20,16,32,41c0,0,11,25,11,58c0,0,0,33,-11,60c0,0,-11,26,-33,44c0,0,-21,18,-55,28c0,0,-33,9,-87,9H298V150ZM407,567c0,0,42,0,68,10c0,0,25,10,42,28c0,0,16,17,24,41c0,0,9,24,9,50c0,0,0,29,-9,52c0,0,-9,23,-27,39c0,0,-18,15,-45,23c0,0,-27,8,-72,8H298V567ZM164,0c0,0,-25,0,-42,15c0,0,-16,14,-16,47V903c0,0,0,33,16,48c0,0,17,14,42,14H406c0,0,88,0,150,-15c0,0,61,-15,103,-45c0,0,42,-30,65,-77c0,0,22,-46,22,-108c0,0,0,-36,-9,-67c0,0,-9,-31,-26,-56c0,0,-17,-25,-42,-45c0,0,-25,-19,-57,-31c0,0,41,-7,76,-26c0,0,34,-19,60,-48c0,0,26,-30,41,-69c0,0,15,-40,15,-89c0,0,0,-51,-14,-93c0,0,-15,-42,-40,-74c0,0,-25,-32,-59,-55c0,0,-35,-23,-77,-38C614,29,573,14,525,7C525,7,478,0,420,0Z" 
id="f0_i"
transform="scale(0.001,-0.001)" />

<path d="M320,-17c0,0,-50,0,-93,9c0,0,-43,8,-76,19c0,0,-32,11,-54,24C97,35,75,48,65,58c0,0,-10,9,-14,28c0,0,-4,18,-4,52c0,0,0,23,1,39c0,0,2,15,5,25c0,0,4,10,9,14c0,0,6,4,13,4c0,0,11,0,30,-12c0,0,19,-13,49,-28c0,0,30,-15,71,-27c0,0,42,-12,96,-12c0,0,36,0,64,8c0,0,29,9,49,25c0,0,19,15,30,38c0,0,10,23,10,52c0,0,0,33,-18,56c0,0,-18,24,-46,42c0,0,-29,18,-66,34c0,0,-36,16,-75,34c0,0,-39,18,-76,41c0,0,-36,23,-65,54c0,0,-29,32,-47,75c0,0,-17,44,-17,104c0,0,0,70,25,122c0,0,26,53,70,88c0,0,43,34,103,51c0,0,59,18,125,18c0,0,35,0,69,-6c0,0,34,-5,64,-14c0,0,30,-9,53,-20c0,0,23,-11,31,-18c0,0,7,-8,10,-13c0,0,3,-5,4,-14c0,0,2,-8,3,-21c0,0,1,-13,1,-33c0,0,0,-21,-1,-36c0,0,-1,-15,-4,-25c0,0,-3,-9,-7,-14c0,0,-5,-4,-14,-4c0,0,-8,0,-26,10c0,0,-18,10,-44,23c0,0,-26,12,-60,22c0,0,-34,10,-75,10c0,0,-32,0,-56,-8c0,0,-24,-8,-40,-21c0,0,-16,-14,-24,-34c0,0,-8,-19,-8,-41c0,0,0,-32,18,-56c0,0,17,-23,46,-42c0,0,30,-18,67,-34c0,0,38,-16,76,-34c0,0,39,-18,76,-41c0,0,38,-22,67,-54c0,0,29,-32,47,-75c0,0,18,-43,18,-101c0,0,0,-76,-29,-133c0,0,-28,-58,-77,-96C572,60,524,21,459,2c0,0,-65,-19,-139,-19Z" 
id="f0_2n"
transform="scale(0.001,-0.001)" />

<path d="M164,0c0,0,-25,0,-42,15c0,0,-16,14,-16,47V903c0,0,0,33,16,48c0,0,17,14,42,14H645c0,0,7,0,12,-4c0,0,5,-3,9,-13c0,0,4,-9,6,-24c0,0,2,-14,2,-36c0,0,0,-21,-2,-36c0,0,-2,-14,-6,-23c0,0,-4,-9,-9,-13c0,0,-5,-4,-12,-4H301V576H593c0,0,6,0,12,-4c0,0,6,-4,9,-13c0,0,4,-8,6,-23c0,0,2,-14,2,-35c0,0,0,-22,-2,-36c0,0,-2,-14,-6,-23c0,0,-3,-8,-9,-12c0,0,-6,-4,-12,-4H301V154H649c0,0,6,0,12,-5c0,0,5,-4,9,-13c0,0,4,-9,6,-23c0,0,2,-15,2,-36c0,0,0,-22,-2,-36c0,0,-2,-15,-6,-24c0,0,-4,-9,-9,-13c0,0,-6,-4,-12,-4Z" 
id="f0_t"
transform="scale(0.001,-0.001)" />

<path d="M79,297c0,0,-19,0,-27,18c0,0,-8,17,-8,60c0,0,0,41,8,59c0,0,8,17,27,17H389c0,0,9,0,15,-4c0,0,7,-4,11,-13c0,0,5,-9,7,-23c0,0,1,-15,1,-36c0,0,0,-43,-8,-61c0,0,-8,-17,-26,-17Z" 
id="f0_oj"
transform="scale(0.001,-0.001)" />

<path d="M121,-4c0,0,-39,0,-60,2C61,-2,39,0,32,8c0,0,-8,8,-3,24c0,0,4,15,18,41L279,495L64,892c0,0,-14,26,-19,42c0,0,-5,17,4,24c0,0,9,8,32,10c0,0,23,2,65,2c0,0,35,0,56,-2c0,0,20,-1,32,-4c0,0,12,-4,17,-10c0,0,5,-6,9,-15L431,620L595,939c0,0,5,9,10,15c0,0,5,6,16,10c0,0,10,3,29,4c0,0,19,2,53,2c0,0,37,0,59,-2c0,0,22,-2,30,-10c0,0,8,-8,4,-24c0,0,-4,-16,-17,-42L564,497L793,73c0,0,14,-26,18,-41c0,0,4,-16,-5,-24c0,0,-9,-8,-32,-10c0,0,-24,-2,-65,-2c0,0,-36,0,-56,2c0,0,-20,1,-31,3c0,0,-12,4,-17,10c0,0,-5,6,-9,15L414,374L233,26c0,0,-4,-9,-9,-15c0,0,-6,-6,-17,-10c0,0,-12,-2,-32,-3c0,0,-21,-2,-54,-2Z" 
id="f0_3e"
transform="scale(0.001,-0.001)" />

<path d="M204,-4c0,0,-28,0,-47,2c0,0,-19,2,-31,5c0,0,-11,4,-16,10c0,0,-4,6,-4,13V939c0,0,0,7,4,13c0,0,5,6,17,10c0,0,11,3,30,6c0,0,19,2,47,2c0,0,29,0,48,-2c0,0,18,-3,29,-6c0,0,11,-4,16,-10c0,0,5,-6,5,-13V26c0,0,0,-7,-5,-13c0,0,-5,-6,-16,-10c0,0,-11,-3,-29,-5c0,0,-19,-2,-48,-2Z" 
id="f0_1c"
transform="scale(0.001,-0.001)" />

<path d="M127,0c0,0,-16,0,-28,3C99,3,87,6,80,15c0,0,-8,8,-11,25c0,0,-3,16,-3,42c0,0,0,25,2,42c0,0,2,18,8,32c0,0,6,14,15,27c0,0,9,13,24,29L282,390c0,0,50,53,81,95c0,0,30,43,47,79c0,0,17,35,24,65c0,0,6,30,6,57c0,0,0,24,-8,46c0,0,-8,22,-23,39c0,0,-15,16,-38,25c0,0,-23,10,-55,10c0,0,-44,0,-78,-12c0,0,-33,-11,-59,-25c0,0,-26,-13,-43,-25c0,0,-17,-12,-27,-12c0,0,-7,0,-11,5c0,0,-5,4,-8,15c0,0,-3,10,-5,28c0,0,-2,17,-2,42c0,0,0,18,1,29c0,0,1,12,4,20c0,0,2,9,6,15c0,0,3,6,13,15c0,0,9,9,34,23c0,0,25,14,61,27c0,0,37,14,81,23c0,0,44,9,92,9c0,0,75,0,131,-19c0,0,57,-19,94,-53c0,0,37,-34,55,-81c0,0,19,-47,19,-100c0,0,0,-47,-9,-93c0,0,-9,-45,-37,-98c0,0,-29,-52,-80,-116c0,0,-52,-64,-136,-148L299,159H679c0,0,8,0,14,-4c0,0,6,-5,11,-14c0,0,4,-9,7,-25c0,0,2,-15,2,-36c0,0,0,-22,-2,-37c0,0,-2,-15,-6,-25c0,0,-3,-10,-9,-14c0,0,-6,-4,-14,-4Z" 
id="f0_rz"
transform="scale(0.001,-0.001)" />

<path d="M385,138c0,0,29,0,52,9c0,0,22,10,39,28c0,0,17,19,28,47c0,0,11,29,19,66c0,0,7,37,9,84c0,0,3,47,3,104c0,0,0,69,-4,122c0,0,-4,52,-11,91c0,0,-8,39,-20,66c0,0,-12,27,-28,43c0,0,-16,16,-37,22c0,0,-21,7,-47,7c0,0,-44,0,-73,-21c0,0,-28,-21,-45,-64c0,0,-17,-42,-24,-106c0,0,-6,-63,-6,-148c0,0,0,-103,8,-171c0,0,8,-67,26,-107c0,0,17,-40,45,-56c0,0,27,-16,66,-16ZM378,-17c0,0,-99,0,-164,33c0,0,-65,34,-103,98c0,0,-38,64,-54,156c0,0,-15,92,-15,209c0,0,0,115,19,208c0,0,19,94,61,160c0,0,42,65,110,101c0,0,68,35,165,35c0,0,99,0,164,-34c0,0,65,-34,103,-98c0,0,39,-64,53,-156c0,0,15,-92,15,-209c0,0,0,-115,-18,-209c0,0,-19,-93,-61,-159C653,118,611,53,543,17c0,0,-67,-34,-165,-34Z" 
id="f0_rx"
transform="scale(0.001,-0.001)" />

<path d="M142,0c0,0,-6,0,-12,4c0,0,-5,3,-9,12c0,0,-4,9,-6,23c0,0,-3,15,-3,36c0,0,0,21,2,36c0,0,2,14,6,23c0,0,4,9,10,13c0,0,5,5,12,5H322V779L166,693c0,0,-17,-8,-28,-10c0,0,-1,0,-3,0c-4,0,-10,1,-14,5c0,0,-6,6,-8,22c0,0,-2,15,-2,44c0,0,0,18,0,29c0,0,1,12,4,20c0,0,3,8,8,14c0,0,5,5,14,11L345,962c0,0,4,3,9,5c0,0,6,2,15,3c0,0,9,1,23,2c0,0,15,0,38,0c0,0,28,0,46,-1c0,0,17,-1,26,-4c0,0,9,-3,12,-7c0,0,3,-4,3,-11V152H675c0,0,7,0,12,-5c0,0,6,-4,10,-13c0,0,4,-9,6,-23c0,0,2,-15,2,-36c0,0,0,-21,-2,-36c0,0,-3,-14,-7,-23c0,0,-4,-9,-9,-12c0,0,-5,-4,-12,-4Z" 
id="f0_ry"
transform="scale(0.001,-0.001)" />

<path d="M326,-17c0,0,-45,0,-85,6c0,0,-41,5,-73,13c0,0,-32,8,-52,17c0,0,-21,8,-27,14c0,0,-6,6,-9,12c0,0,-3,7,-5,16c0,0,-2,10,-3,24c0,0,-1,14,-1,33c0,0,0,21,2,36c0,0,1,14,5,23c0,0,3,9,8,13c0,0,4,4,10,4c0,0,7,0,23,-9c0,0,15,-8,40,-19c0,0,25,-10,61,-19c0,0,36,-8,86,-8c0,0,43,0,78,9c0,0,36,9,60,29c0,0,25,19,38,49c0,0,14,30,14,72c0,0,0,36,-11,64c0,0,-12,28,-35,47c0,0,-24,19,-62,29c0,0,-38,10,-93,10c0,0,-43,0,-78,-5c0,0,-36,-4,-67,-4c0,0,-22,0,-31,11c0,0,-9,11,-9,40V909c0,0,0,30,11,43c0,0,12,13,37,13H615c0,0,6,0,12,-4c0,0,6,-5,10,-15c0,0,5,-9,6,-25c0,0,2,-16,2,-39c0,0,0,-45,-7,-65c0,0,-8,-20,-23,-20H272V590c0,0,26,3,52,4c0,0,25,0,54,0c0,0,78,0,139,-18c0,0,61,-18,102,-53c0,0,42,-36,63,-88c0,0,22,-53,22,-122c0,0,0,-79,-27,-140c0,0,-27,-62,-77,-104C600,69,550,27,481,5c0,0,-70,-22,-155,-22Z" 
id="f0_s2"
transform="scale(0.001,-0.001)" />

<path d="M589,371L453,782h-1L317,371ZM106,-4c0,0,-35,0,-54,2C52,-2,32,0,25,8c0,0,-7,9,-5,24c0,0,2,16,11,42L329,931c0,0,4,13,10,21c0,0,6,7,19,12c0,0,13,4,36,5c0,0,23,1,61,1c0,0,44,0,71,-1c0,0,26,-1,40,-5c0,0,15,-5,21,-13c0,0,6,-8,11,-22L896,73c0,0,9,-27,11,-43c0,0,3,-15,-6,-23c0,0,-8,-7,-29,-9c0,0,-21,-2,-57,-2c0,0,-38,0,-59,1c0,0,-22,1,-33,4c0,0,-11,3,-16,9c0,0,-4,6,-7,16L635,220H272L211,31c0,0,-2,-11,-7,-18c0,0,-5,-7,-16,-11c0,0,-11,-3,-31,-4c0,0,-19,-2,-51,-2Z" 
id="f0_5"
transform="scale(0.001,-0.001)" />

<path d="M198,-4c0,0,-27,0,-45,2c0,0,-18,2,-28,5c0,0,-11,4,-15,10c0,0,-4,6,-4,13V887c0,0,0,38,20,58c0,0,20,20,53,20H308c0,0,34,0,59,-6c0,0,24,-5,42,-18c0,0,18,-13,30,-35c0,0,12,-21,21,-52L669,279h3L889,852c0,0,9,32,21,53c0,0,11,22,27,35c0,0,15,14,36,19c0,0,21,6,48,6h132c0,0,21,0,35,-5c0,0,15,-5,24,-15c0,0,9,-11,14,-25c0,0,5,-15,5,-33V26c0,0,0,-7,-4,-13c0,0,-4,-6,-15,-10c0,0,-11,-3,-29,-5c0,0,-18,-2,-45,-2c0,0,-27,0,-45,2c0,0,-18,2,-28,5c0,0,-11,4,-15,10c0,0,-5,6,-5,13V813h-1L764,27c0,0,-3,-10,-10,-16c0,0,-6,-6,-18,-10c0,0,-12,-3,-29,-4c0,0,-18,-1,-44,-1c0,0,-25,0,-43,2c0,0,-18,2,-29,5c0,0,-12,4,-19,10c0,0,-6,6,-9,14L293,813h-2V26c0,0,0,-7,-4,-13c0,0,-4,-6,-15,-10c0,0,-11,-3,-29,-5c0,0,-17,-2,-45,-2Z" 
id="f0_1x"
transform="scale(0.001,-0.001)" />

<path d="M193,-4c0,0,-26,0,-43,2c0,0,-18,2,-27,6c0,0,-10,4,-14,10c0,0,-3,6,-3,13V895c0,0,0,35,20,53c0,0,21,17,50,17H282c0,0,28,0,47,-5c0,0,20,-5,35,-16c0,0,15,-11,29,-31c0,0,13,-20,27,-49L608,511c0,0,17,-32,33,-63c0,0,16,-31,31,-62c0,0,14,-31,29,-60c0,0,14,-30,27,-60h1c0,0,-2,52,-3,109c0,0,-1,57,-1,108V936c0,0,0,7,4,13c0,0,5,6,15,11c0,0,10,4,28,6c0,0,17,2,44,2c0,0,25,0,42,-2c0,0,17,-2,27,-6c0,0,9,-5,13,-11c0,0,4,-6,4,-13V68c0,0,0,-17,-6,-30c0,0,-6,-14,-17,-23C879,15,869,6,856,2c0,0,-14,-3,-28,-3H744c0,0,-26,0,-45,4c0,0,-19,5,-35,19c0,0,-16,14,-31,38c0,0,-15,23,-34,60L359,572c0,0,-21,40,-43,86c0,0,-21,47,-38,91h-2c0,0,3,-54,5,-107c0,0,2,-53,2,-110V27c0,0,0,-7,-5,-13c0,0,-4,-6,-14,-10c0,0,-10,-4,-27,-6c0,0,-17,-2,-44,-2Z" 
id="f0_1y"
transform="scale(0.001,-0.001)" />

<path d="M378,-4c0,0,-28,0,-47,2c0,0,-19,2,-31,5c0,0,-11,4,-16,10c0,0,-4,6,-4,13V805H38c0,0,-8,0,-13,4c0,0,-5,5,-9,14c0,0,-3,9,-5,25c0,0,-2,15,-2,37c0,0,0,22,2,38c0,0,2,15,5,25c0,0,4,9,9,13c0,0,5,4,13,4H718c0,0,7,0,12,-4c0,0,6,-4,10,-13c0,0,3,-10,5,-25c0,0,2,-16,2,-38c0,0,0,-22,-2,-37c0,0,-2,-16,-5,-25c0,0,-4,-9,-10,-14c0,0,-5,-4,-12,-4H476V26c0,0,0,-7,-5,-13c0,0,-5,-6,-16,-10c0,0,-11,-3,-30,-5c0,0,-19,-2,-47,-2Z" 
id="f0_2t"
transform="scale(0.001,-0.001)" />

<path d="M514,145c0,0,72,0,121,27c0,0,48,26,78,73c0,0,30,46,42,107c0,0,13,62,13,131c0,0,0,76,-12,139c0,0,-12,62,-41,106c0,0,-29,45,-76,69c0,0,-48,24,-120,24c0,0,-72,0,-120,-27c0,0,-49,-27,-79,-73c0,0,-29,-45,-42,-106c0,0,-12,-61,-12,-129c0,0,0,-79,12,-142c0,0,12,-63,40,-108c0,0,28,-44,76,-68c0,0,48,-23,120,-23ZM508,-17c0,0,-113,0,-196,29c0,0,-84,29,-140,90c0,0,-56,60,-84,154c0,0,-28,93,-28,221c0,0,0,117,29,210c0,0,30,94,89,160c0,0,59,65,146,101c0,0,87,35,202,35c0,0,110,0,194,-29c0,0,84,-30,140,-90c0,0,56,-60,85,-153c0,0,29,-92,29,-217c0,0,0,-120,-30,-215c0,0,-30,-95,-89,-161C855,118,796,52,709,17c0,0,-87,-34,-201,-34Z" 
id="f0_24"
transform="scale(0.001,-0.001)" />

<path d="M407,475c0,0,61,0,105,44c0,0,44,43,44,103c0,0,0,64,-43,108c0,0,-44,43,-109,43c0,0,-57,0,-99,-44c0,0,-42,-45,-42,-107c0,0,0,-62,42,-104c0,0,42,-43,102,-43ZM195,0L430,323c0,0,-67,-8,-85,-8c0,0,-126,0,-212,92c0,0,-87,92,-87,227c0,0,0,141,107,237c0,0,106,96,264,96c0,0,151,0,246,-97c0,0,95,-96,95,-250c0,0,0,-112,-56,-223c0,0,-55,-112,-94,-168L448,0Z" 
id="f1_t"
transform="scale(0.001,-0.001)" />

<path d="M44,-281L425,1053H537L156,-281Z" 
id="f1_j"
transform="scale(0.001,-0.001)" />

<path d="M299,0V777H162l36,173H508V0Z" 
id="f1_l"
transform="scale(0.001,-0.001)" />

<path d="M75,0L400,413c0,0,71,91,101,149c0,0,30,58,30,109c0,0,0,55,-36,91c0,0,-36,36,-91,36c0,0,-63,0,-91,-45c0,0,-28,-46,-34,-142H67c0,0,0,173,102,268c0,0,102,95,253,95c0,0,140,0,229,-82c0,0,89,-82,89,-209c0,0,0,-125,-104,-276L580,324c0,0,-34,-50,-85,-114L468,178H740V0Z" 
id="f1_m"
transform="scale(0.001,-0.001)" />

<path d="M134,0V40L339,60V876L137,804v39l292,166h39V60L672,40V0Z" 
id="f2_l"
transform="scale(0.001,-0.001)" />

<path d="M67,0V109L206,235c0,0,133,118,196,190c0,0,63,72,90,149c0,0,27,77,27,177c0,0,0,97,-44,148c0,0,-44,50,-144,50c0,0,-39,0,-81,-10c0,0,-42,-11,-74,-29L150,787H101V980c0,0,135,32,230,32c0,0,164,0,247,-68c0,0,82,-69,82,-193c0,0,0,-84,-32,-158c0,0,-33,-75,-100,-148c0,0,-67,-74,-222,-206c0,0,-67,-57,-141,-125H680V0Z" 
id="f2_m"
transform="scale(0.001,-0.001)" />

<path d="M191,-20c0,0,-39,0,-65,25c0,0,-25,27,-25,64c0,0,0,38,26,64c0,0,26,26,64,26c0,0,38,0,64,-26c0,0,26,-26,26,-64c0,0,0,-37,-25,-64c0,0,-26,-25,-65,-25Z" 
id="f2_i"
transform="scale(0.001,-0.001)" />

<path d="M350,-14c0,0,-142,0,-269,31L73,228h49L156,87c0,0,29,-16,82,-28c0,0,54,-12,100,-12c0,0,117,0,173,54c0,0,56,53,56,178c0,0,0,99,-52,150c0,0,-51,51,-159,56l-107,6v61l107,7c0,0,84,5,124,52c0,0,41,48,41,145c0,0,0,101,-44,147c0,0,-44,45,-139,45c0,0,-40,0,-83,-10c0,0,-43,-11,-76,-29L153,786H104V979c0,0,74,19,127,26c0,0,54,6,107,6c0,0,321,0,321,-246c0,0,0,-104,-57,-165c0,0,-57,-62,-162,-77c0,0,136,-16,200,-78c0,0,64,-62,64,-173c0,0,0,-135,-92,-211c0,0,-93,-75,-262,-75Z" 
id="f2_n"
transform="scale(0.001,-0.001)" />

<path d="M377,45c0,0,99,0,145,108c0,0,46,109,46,352c0,0,0,240,-45,345c0,0,-46,106,-146,106c0,0,-97,0,-139,-100c0,0,-43,-99,-43,-351c0,0,0,-254,44,-357c0,0,43,-103,138,-103Zm0,-59c0,0,-158,0,-238,132c0,0,-81,133,-81,386c0,0,0,249,81,380c0,0,80,132,244,132c0,0,159,0,241,-130c0,0,82,-130,82,-382c0,0,0,-518,-329,-518Z" 
id="f2_k"
transform="scale(0.001,-0.001)" />

<path d="M460,-325c0,0,-148,79,-231,172c0,0,-84,93,-123,217c0,0,-39,126,-39,304c0,0,0,178,39,303c0,0,39,125,122,217c0,0,82,93,232,172V997c0,0,-91,-52,-145,-134c0,0,-54,-81,-79,-190c0,0,-25,-109,-25,-305c0,0,0,-194,26,-309c0,0,26,-114,82,-193c0,0,56,-79,141,-128v-63Z" 
id="f2_c"
transform="scale(0.001,-0.001)" />

<path d="M49,-325v63c0,0,85,49,140,128c0,0,56,79,83,194c0,0,26,115,26,308c0,0,0,196,-25,305c0,0,-25,109,-79,190c0,0,-54,82,-145,134v63c0,0,149,-80,232,-172c0,0,83,-92,122,-217c0,0,39,-125,39,-303c0,0,0,-177,-39,-303c0,0,-39,-125,-122,-217c0,0,-83,-93,-232,-173Z" 
id="f2_d"
transform="scale(0.001,-0.001)" />

<path d="M31,0V33L150,52v956L31,1026v34H274V52L394,33V0Z" 
id="f2_28"
transform="scale(0.001,-0.001)" />

<path d="M377,45c0,0,99,0,147,73c0,0,47,73,47,237c0,0,0,161,-47,233c0,0,-47,72,-147,72c0,0,-97,0,-141,-69c0,0,-44,-69,-44,-236c0,0,0,-169,45,-240c0,0,44,-70,140,-70Zm0,-59c0,0,-158,0,-238,94c0,0,-81,95,-81,274c0,0,0,178,81,272c0,0,80,94,244,94c0,0,160,0,241,-92c0,0,82,-92,82,-274c0,0,0,-368,-329,-368Z" 
id="f2_2b"
transform="scale(0.001,-0.001)" />

<path d="M359,-270c0,0,124,0,192,46c0,0,67,47,67,129c0,0,0,43,-26,67c0,0,-26,24,-79,24H242c0,0,-32,-27,-51,-69c0,0,-20,-41,-20,-77c0,0,0,-64,46,-92c0,0,46,-28,142,-28Zm11,561c0,0,81,0,115,47c0,0,34,47,34,141c0,0,0,100,-35,142c0,0,-35,42,-113,42c0,0,-78,0,-114,-43c0,0,-37,-42,-37,-141c0,0,0,-98,36,-143c0,0,36,-45,114,-45ZM359,-329c0,0,-143,0,-218,44c0,0,-75,43,-75,125c0,0,0,39,27,78c0,0,26,38,98,89c0,0,-43,14,-72,48c0,0,-29,35,-29,74L208,262c0,0,-118,55,-118,217c0,0,0,115,73,178c0,0,73,63,211,63c0,0,28,0,71,-6c0,0,44,-6,67,-13l165,83l26,-32L599,644c0,0,50,-56,50,-165c0,0,0,-120,-72,-182c0,0,-73,-62,-208,-62c0,0,-62,0,-114,11L208,148c0,0,2,-13,29,-24c0,0,27,-12,67,-12H512c0,0,113,0,168,-49c0,0,55,-49,55,-134c0,0,0,-79,-44,-137c0,0,-43,-58,-128,-90c0,0,-84,-31,-204,-31Z" 
id="f2_23"
transform="scale(0.001,-0.001)" />

<path d="M410,45c0,0,90,0,130,58c0,0,40,59,40,193c0,0,0,122,-38,177c0,0,-38,54,-122,54c0,0,-102,0,-217,-37c0,0,0,-227,51,-336c0,0,52,-109,156,-109Zm3,-59c0,0,-169,0,-258,131c0,0,-89,131,-89,377c0,0,0,161,47,278c0,0,47,117,131,178c0,0,85,61,196,61c0,0,109,0,217,-26V813H608L582,915c0,0,-25,13,-67,23c0,0,-41,10,-75,10c0,0,-109,0,-170,-105c0,0,-60,-106,-66,-308c0,0,121,63,244,63c0,0,132,0,201,-74c0,0,69,-74,69,-214c0,0,0,-156,-78,-240c0,0,-79,-84,-227,-84Z" 
id="f2_q"
transform="scale(0.001,-0.001)" />

<path d="M301,78c0,0,85,0,185,104l81,442c0,0,-29,20,-55,28c0,0,-25,8,-62,8c0,0,-75,0,-137,-56c0,0,-62,-56,-98,-152c0,0,-36,-95,-36,-199c0,0,0,-79,33,-127c0,0,33,-48,89,-48ZM245,-14c0,0,-90,0,-145,66c0,0,-54,66,-54,182c0,0,0,131,57,244c0,0,57,114,152,178c0,0,96,64,208,64c0,0,90,0,170,-33l33,26h40L589,52L673,33L667,0H454l22,117C476,117,350,-14,245,-14Z" 
id="f3_1x"
transform="scale(0.001,-0.001)" />

<path d="M-5,0L0,40L131,60L286,941L162,960l6,40H568l-6,-40L430,941L275,60L399,40L393,0Z" 
id="f3_19"
transform="scale(0.001,-0.001)" />

<path d="M743,0L436,512L330,424L264,60L404,40L397,0H-17l8,40L120,60L276,941L151,960l7,40H559l-8,-40L420,941L347,525L853,941l-89,19l7,40h314l-8,-40L961,941L546,602L880,60L979,40L972,0Z" 
id="f3_1b"
transform="scale(0.001,-0.001)" />

<path d="M200,-14c0,0,-59,0,-93,35c0,0,-34,36,-34,100c0,0,0,22,4,51c0,0,4,30,82,467H67l6,33l99,29L275,860h47L295,701H455L443,639H283L210,230c0,0,-13,-69,-13,-99c0,0,0,-34,17,-51c0,0,17,-16,43,-16c0,0,54,0,113,21L386,50c0,0,-92,-64,-186,-64Z" 
id="f3_2g"
transform="scale(0.001,-0.001)" />

<path d="M-6,0c0,0,-12,10,-12,32c0,0,0,21,23,51c0,0,23,31,79,82L287,354L159,649L79,668l6,33H270L378,434l93,88c0,0,47,46,67,72c0,0,19,26,19,44c0,0,0,8,-6,13c0,0,-7,6,-38,17l6,33H651c0,0,16,-12,16,-32c0,0,0,-44,-103,-142L404,377L548,49L634,33L628,0H437L313,298L185,176c0,0,-41,-40,-60,-65c0,0,-19,-26,-19,-48c0,0,0,-21,31,-29L131,0Z" 
id="f3_2k"
transform="scale(0.001,-0.001)" />

<path d="M0,214v74H784V214ZM0,494v72H784V494Z" 
id="f4_x"
transform="scale(0.001,-0.001)" />

<path d="M0,356v74H784V356Z" 
id="f4_h"
transform="scale(0.001,-0.001)" />

<path d="M608,-14c0,0,-251,0,-392,133C216,119,75,252,75,488c0,0,0,257,134,390c0,0,135,133,398,133c0,0,174,0,361,-50l4,-240H905L884,866c0,0,-98,67,-229,67c0,0,-173,0,-253,-108c0,0,-80,-108,-80,-334c0,0,0,-209,84,-319c0,0,83,-109,243,-109c0,0,84,0,147,22c0,0,63,22,99,53l24,164h68L982,48C982,48,915,22,808,4C808,4,700,-14,608,-14Z" 
id="f5_13"
transform="scale(0.001,-0.001)" />

<path d="M345,75c0,0,50,0,110,26V351l-63,-2c0,0,-72,-3,-100,-38c0,0,-28,-35,-28,-113c0,0,0,-63,22,-93c0,0,23,-30,59,-30ZM266,-14c0,0,-217,0,-217,208c0,0,0,79,32,126c0,0,32,48,93,71c0,0,60,22,190,25l91,2V521c0,0,0,126,-104,126c0,0,-62,0,-140,-39L183,521H134V691c0,0,112,17,165,21c0,0,53,5,108,5c0,0,264,0,264,-194V67L741,49V0H483L466,54C466,54,408,14,361,0c0,0,-47,-14,-95,-14Z" 
id="f5_1x"
transform="scale(0.001,-0.001)" />

<path d="M276,-14c0,0,-57,0,-125,13C151,-1,83,10,48,23V214H97l28,-98c0,0,26,-26,69,-44c0,0,42,-17,86,-17c0,0,65,0,97,28c0,0,32,28,32,71c0,0,0,41,-31,65c0,0,-30,25,-133,57c0,0,-108,34,-154,92c0,0,-45,58,-45,143c0,0,0,95,71,152c0,0,71,57,183,57c0,0,77,0,207,-22V518H457l-24,82c0,0,-21,22,-60,35c0,0,-40,14,-75,14c0,0,-53,0,-79,-22c0,0,-26,-22,-26,-59c0,0,0,-40,32,-65c0,0,32,-26,132,-55c0,0,109,-34,155,-89c0,0,45,-55,45,-137c0,0,0,-117,-72,-177c0,0,-72,-59,-209,-59Z" 
id="f5_2f"
transform="scale(0.001,-0.001)" />

<path d="M434,423c0,0,0,101,-7,142c0,0,-6,40,-22,60c0,0,-16,19,-45,19c0,0,-44,0,-66,-48c0,0,-22,-49,-22,-173ZM389,-14c0,0,-172,0,-254,89c0,0,-83,90,-83,279c0,0,0,184,79,274c0,0,79,91,238,91c0,0,142,0,206,-76c0,0,64,-76,64,-237V345H271V333c0,0,0,-111,18,-158c0,0,18,-47,58,-72c0,0,40,-25,110,-25c0,0,66,0,166,22V42C623,42,582,18,517,1c0,0,-66,-15,-128,-15Z" 
id="f5_21"
transform="scale(0.001,-0.001)" />

<path d="M64,0V141c0,0,64,68,119,123c0,0,119,118,174,185c0,0,56,68,81,140c0,0,26,72,26,165c0,0,0,81,-40,131c0,0,-39,50,-105,50c0,0,-46,0,-74,-10c0,0,-27,-10,-50,-29L163,751H98V979c0,0,59,13,116,23c0,0,58,9,125,9c0,0,165,0,252,-68c0,0,88,-68,88,-193c0,0,0,-78,-26,-142c0,0,-26,-64,-83,-124c0,0,-56,-61,-224,-197c0,0,-64,-52,-139,-119H698V0Z" 
id="f5_m"
transform="scale(0.001,-0.001)" />

<path d="M350,-14c0,0,-142,0,-253,31L89,228h49L172,87c0,0,32,-18,78,-29c0,0,46,-11,88,-11c0,0,118,0,173,56c0,0,56,55,56,187c0,0,0,93,-24,140c0,0,-24,47,-76,70c0,0,-52,22,-140,22c0,0,-68,0,-133,-18H122v496H630V886H189V567c0,0,81,18,173,18c0,0,173,0,258,-71c0,0,84,-71,84,-216c0,0,0,-151,-92,-232c0,0,-91,-80,-262,-80Z" 
id="f2_p"
transform="scale(0.001,-0.001)" />

<path d="M52,62L0,114L278,390L0,667l52,52L330,442L608,719l51,-51L382,390L659,114L608,62L330,338L52,62Z" 
id="f4_3a"
transform="scale(0.001,-0.001)" />

<path d="M32,0V33L151,52V649L52,668v33H275V52L395,33V0ZM201,850c0,0,-32,0,-56,24c0,0,-24,24,-24,56c0,0,0,34,24,58c0,0,24,24,56,24c0,0,34,0,58,-24c0,0,24,-24,24,-58c0,0,0,-32,-24,-56c0,0,-24,-24,-58,-24Z" 
id="f2_25"
transform="scale(0.001,-0.001)" />

<path d="M249,-14c0,0,-71,0,-107,42c0,0,-35,42,-35,119V639H15v33l93,29l76,159h47V701H391V639H231V161c0,0,0,-48,22,-73c0,0,22,-24,57,-24c0,0,44,0,106,12V26C416,26,389,8,340,-2c0,0,-49,-12,-91,-12Z" 
id="f2_2g"
transform="scale(0.001,-0.001)" />

<path d="M431,0V33L535,52V499c0,0,0,62,-32,96c0,0,-32,33,-95,33c0,0,-66,0,-163,-22V52L350,33V0H32V33l89,19V649L32,668v33H237l6,-57c0,0,56,32,119,54c0,0,62,22,110,22c0,0,52,0,95,-20c0,0,44,-19,66,-62c0,0,57,32,134,57c0,0,77,25,128,25c0,0,179,0,179,-207V52l90,-19V0H846V33L950,52V499c0,0,0,129,-119,129c0,0,-19,0,-45,-3c0,0,-26,-3,-52,-7c0,0,-25,-4,-49,-8c0,0,-23,-5,-39,-8c0,0,13,-41,13,-89V52L764,33V0Z" 
id="f2_29"
transform="scale(0.001,-0.001)" />

<path d="M495,413c0,0,0,133,-34,190c0,0,-34,57,-105,57c0,0,-78,0,-119,-63c0,0,-42,-62,-42,-184ZM374,-14c0,0,-163,0,-239,87c0,0,-75,88,-75,283c0,0,0,183,77,273c0,0,76,91,219,91c0,0,269,0,269,-306V353H194V340c0,0,0,-103,23,-160c0,0,22,-57,70,-87c0,0,47,-29,124,-29c0,0,40,0,96,6c0,0,55,7,91,15V43C598,43,562,20,500,3c0,0,-61,-17,-126,-17Z" 
id="f2_21"
transform="scale(0.001,-0.001)" />

<path d="M284,67c0,0,51,0,88,12c0,0,37,12,74,30V358l-98,-3c0,0,-100,-4,-135,-39c0,0,-35,-35,-35,-117c0,0,0,-132,106,-132ZM233,-14c0,0,-179,0,-179,208c0,0,0,70,27,116c0,0,27,46,87,70c0,0,60,24,173,27l105,3V519c0,0,0,72,-26,107c0,0,-27,34,-82,34c0,0,-75,0,-137,-35L176,538H134V691c0,0,121,26,213,26c0,0,115,0,169,-47c0,0,54,-47,54,-144V52L657,33V0H465L451,70c0,0,-85,-84,-218,-84Z" 
id="f2_1x"
transform="scale(0.001,-0.001)" />

<path d="M439,0V33l93,19V500c0,0,0,62,-30,97c0,0,-31,36,-94,36c0,0,-67,0,-165,-22V52L338,33V0H35V33l84,19V649L35,668v33H235l7,-57c0,0,57,33,122,54c0,0,65,22,108,22c0,0,91,0,137,-53c0,0,47,-53,47,-154V52L741,33V0Z" 
id="f2_2a"
transform="scale(0.001,-0.001)" />

<path d="M278,-14c0,0,-52,0,-115,11c0,0,-63,10,-99,23V193H98L134,95c0,0,56,-50,146,-50c0,0,144,0,144,123c0,0,0,91,-114,130l-66,21c0,0,-75,25,-110,50c0,0,-34,26,-53,63c0,0,-18,36,-18,89c0,0,0,92,63,145c0,0,63,54,170,54c0,0,77,0,193,-23V544H454l-32,81c0,0,-39,35,-124,35c0,0,-61,0,-92,-30c0,0,-32,-30,-32,-80c0,0,0,-43,29,-72c0,0,28,-29,86,-48c0,0,110,-38,144,-55c0,0,33,-17,57,-42c0,0,23,-25,36,-57c0,0,13,-32,13,-79c0,0,0,-104,-66,-158c0,0,-66,-53,-195,-53Z" 
id="f2_2f"
transform="scale(0.001,-0.001)" />

<path d="M64,0V34L168,59V639H47v36l121,29v49c0,0,0,155,61,239c0,0,62,84,173,84c0,0,58,0,107,-15V908H472l-33,92c0,0,-26,16,-62,16c0,0,-47,0,-66,-42c0,0,-19,-42,-19,-157V701H478V639H292V59L443,34V0Z" 
id="f2_22"
transform="scale(0.001,-0.001)" />

<path d="M327,-14L84,649L1,668v33H335V668L219,648L385,174L554,632h63L786,171L944,649L830,668v33h267V668l-78,-16L784,-14H726L553,448L382,-14Z" 
id="f2_2j"
transform="scale(0.001,-0.001)" />

<path d="M394,460c0,0,126,0,186,57c0,0,60,57,60,187c0,0,0,123,-57,176c0,0,-58,53,-194,53H316V460ZM54,0V40L172,60V941L44,960v40H421c0,0,368,0,368,-295c0,0,0,-153,-93,-233c0,0,-93,-80,-267,-80H316V60L475,40V0Z" 
id="f2_1g"
transform="scale(0.001,-0.001)" />

<path d="M289,-14c0,0,-179,0,-179,205V649L20,668v33H233V200c0,0,0,-128,120,-128c0,0,92,0,173,23V649L420,668v33H649V52L738,33V0H533l-6,57C527,57,474,28,405,7c0,0,-69,-21,-116,-21Z" 
id="f2_2h"
transform="scale(0.001,-0.001)" />

<path d="M383,64c0,0,85,0,152,28V645c0,0,-67,13,-152,13c0,0,-194,0,-194,-314c0,0,0,-141,48,-211c0,0,48,-69,146,-69ZM342,-14c0,0,-287,0,-287,358c0,0,0,184,82,280c0,0,81,96,239,96c0,0,81,0,163,-18c0,0,-4,25,-4,124v182l-118,18v34H659V52L745,33V0H548l-9,52c0,0,-84,-66,-197,-66Z" 
id="f2_20"
transform="scale(0.001,-0.001)" />

<path d="M31,0V33l88,19V649L31,668v33H235l7,-87c0,0,44,37,121,71c0,0,76,35,121,35h11V530H463l-43,82c0,0,-37,0,-88,-10c0,0,-52,-10,-89,-26V52L363,33V0Z" 
id="f2_2e"
transform="scale(0.001,-0.001)" />

<path d="M399,-14c0,0,-341,0,-341,370c0,0,0,175,87,269c0,0,87,95,249,95c0,0,101,0,220,-23V501H573L541,625c0,0,-62,35,-149,35c0,0,-200,0,-200,-304c0,0,0,-158,61,-225c0,0,61,-67,189,-67c0,0,109,0,189,24V43C631,43,595,16,530,1c0,0,-64,-15,-131,-15Z" 
id="f2_1z"
transform="scale(0.001,-0.001)" />

<path d="M360,-14L72,649L0,668v33H327V668L216,648L420,164L615,649L504,668v33H764V668L697,652L416,-14Z" 
id="f2_2i"
transform="scale(0.001,-0.001)" />

<path d="M460,506c0,0,135,0,209,64c0,0,73,65,73,183c0,0,0,180,-213,180H419L343,506ZM671,0L487,438H331L264,60L398,40L390,0H-7L0,40L120,60L276,941L151,960l7,40H555c0,0,163,0,249,-62c0,0,86,-62,86,-180c0,0,0,-236,-261,-299L798,60L908,40L900,0Z" 
id="f3_1i"
transform="scale(0.001,-0.001)" />

<path d="M719,62L422,783L93,62ZM0,0L469,1034L896,0Z" 
id="f4_14"
transform="scale(0.001,-0.001)" />

<path d="M62,-123V268c0,0,0,230,56,452c0,0,47,190,134,334c0,0,87,144,204,242c0,0,85,73,194,119l18,-16c0,0,-211,-145,-335,-339c0,0,-98,-156,-149,-374c0,0,-50,-218,-50,-403V-123Z" 
id="f4_4o"
transform="scale(0.001,-0.001)" />

<path d="M617,-123V283c0,0,0,236,-63,459c0,0,-63,223,-188,392c0,0,-108,146,-282,265l17,16c0,0,180,-76,320,-248c0,0,139,-172,204,-417c0,0,64,-245,64,-482V-123Z" 
id="f4_54"
transform="scale(0.001,-0.001)" />

<path d="M62,-123V1415h72V-123Z" 
id="f4_4p"
transform="scale(0.001,-0.001)" />

<path d="M617,-123V1415h72V-123Z" 
id="f4_55"
transform="scale(0.001,-0.001)" />

<path d="M650,-123c0,0,-180,75,-319,246c0,0,-140,172,-205,418c0,0,-64,245,-64,481v393h72V1007c0,0,0,-236,63,-459c0,0,63,-223,189,-391c0,0,108,-145,282,-265l-18,-15Z" 
id="f4_4q"
transform="scale(0.001,-0.001)" />

<path d="M101,-123l-17,15c0,0,210,144,334,339c0,0,99,156,149,373c0,0,50,218,50,403v408h72V1022c0,0,0,-230,-56,-451c0,0,-48,-191,-134,-335C499,236,412,92,295,-5c0,0,-84,-73,-194,-118Z" 
id="f4_56"
transform="scale(0.001,-0.001)" />

<path d="M551,45c0,0,171,0,252,108c0,0,82,108,82,349c0,0,0,239,-81,344c0,0,-81,105,-253,105c0,0,-172,0,-252,-105c0,0,-80,-105,-80,-344c0,0,0,-241,80,-349c0,0,81,-108,252,-108Zm0,-59c0,0,-238,0,-363,129C188,115,63,245,63,501c0,0,0,510,488,510c0,0,242,0,366,-129c0,0,124,-130,124,-381c0,0,0,-255,-126,-385C915,116,790,-14,551,-14Z" 
id="f2_1f"
transform="scale(0.001,-0.001)" />

<path d="M448,506c0,0,134,0,190,49c0,0,57,50,57,168c0,0,0,114,-56,162c0,0,-56,48,-195,48H316V506ZM777,0L496,438H316V60L468,40V0H54V40L172,60V941L44,960v40H476c0,0,188,0,277,-63c0,0,90,-64,90,-204c0,0,0,-100,-54,-173c0,0,-55,-73,-151,-101L909,60L1017,40V0Z" 
id="f2_1i"
transform="scale(0.001,-0.001)" />

<path d="M55,0V40L184,60V941L55,960v40H455V960L327,941V60L455,40V0Z" 
id="f2_19"
transform="scale(0.001,-0.001)" />

<path d="M476,327V830h-4L114,327ZM476,0V220H30v99l488,686h86V327H740V220H604V0Z" 
id="f2_o"
transform="scale(0.001,-0.001)" />

<path d="M62,0L176,649L88,668l6,33H301L278,543c0,0,55,84,124,130c0,0,69,47,138,47c0,0,37,0,59,-6L566,530H534l-28,95c0,0,-60,0,-124,-46c0,0,-63,-45,-116,-120L186,0Z" 
id="f3_2e"
transform="scale(0.001,-0.001)" />

<path d="M188,355c0,0,148,11,236,69c0,0,89,58,89,143c0,0,0,41,-23,68c0,0,-22,27,-66,27c0,0,-52,0,-101,-43c0,0,-49,-42,-85,-114c0,0,-36,-71,-50,-150ZM298,-14c0,0,-120,0,-186,67c0,0,-65,67,-65,193c0,0,0,125,53,232c0,0,52,108,145,175c0,0,94,67,196,67c0,0,92,0,147,-42c0,0,56,-43,56,-111c0,0,0,-102,-126,-173c0,0,-125,-72,-336,-86l-3,-54c0,0,0,-95,40,-143c0,0,40,-47,118,-47c0,0,67,0,124,22c0,0,57,23,106,52l22,-32c0,0,-69,-58,-146,-89c0,0,-76,-31,-145,-31Z" 
id="f3_21"
transform="scale(0.001,-0.001)" />

<path d="M631,416L539,902L283,416ZM576,0l8,40L691,60L643,348H249L96,60L197,40L189,0H-83l8,40L7,60l509,949H659L845,60L938,40L930,0Z" 
id="f3_11"
transform="scale(0.001,-0.001)" />

<path d="M459,63c0,0,143,0,210,55c0,0,67,56,67,185c0,0,0,101,-66,146c0,0,-66,46,-190,46H341L266,67c0,0,114,-4,193,-4Zm18,499c0,0,144,0,206,49c0,0,61,48,61,170c0,0,0,77,-48,115c0,0,-48,37,-160,37H419L353,562ZM459,-4L173,0H14l8,40l99,20L277,941L151,960l8,40H570c0,0,330,0,330,-210c0,0,0,-105,-66,-174c0,0,-66,-69,-184,-85c0,0,115,-9,179,-69c0,0,63,-59,63,-157c0,0,0,-160,-108,-235C784,70,675,-4,459,-4Z" 
id="f3_12"
transform="scale(0.001,-0.001)" />

<path d="M410,-14c0,0,-80,0,-162,14c0,0,-81,14,-144,38V270h48L178,134c0,0,28,-35,95,-62c0,0,68,-27,134,-27c0,0,104,0,163,53c0,0,58,54,58,148c0,0,0,54,-23,89c0,0,-22,35,-59,59c0,0,-37,24,-84,41c0,0,-47,17,-97,34c0,0,-49,17,-96,38c0,0,-47,21,-84,53c0,0,-37,32,-60,79c0,0,-23,48,-23,117c0,0,0,119,90,187c0,0,89,68,248,68c0,0,121,0,263,-32V771H654L628,893c0,0,-76,55,-188,55c0,0,-100,0,-156,-40c0,0,-56,-41,-56,-112c0,0,0,-49,22,-81c0,0,23,-32,60,-55c0,0,37,-22,84,-39c0,0,48,-16,97,-34c0,0,50,-17,97,-39c0,0,48,-22,85,-56c0,0,36,-34,59,-83c0,0,23,-49,23,-120c0,0,0,-145,-89,-224c0,0,-89,-79,-256,-79Z" 
id="f2_1j"
transform="scale(0.001,-0.001)" />

<path d="M376,50c0,0,103,0,149,80c0,0,46,81,46,240c0,0,0,137,-47,204c0,0,-48,67,-148,67c0,0,-44,0,-87,-7c0,0,-44,-8,-63,-17V62c0,0,63,-12,150,-12Zm3,-64c0,0,-64,0,-141,14c0,0,-78,14,-136,37v971L0,1026v34H226V809c0,0,0,-40,-4,-148c0,0,74,59,188,59c0,0,143,0,219,-87c0,0,77,-87,77,-263c0,0,0,-189,-84,-287c0,0,-84,-97,-243,-97Z" 
id="f2_1y"
transform="scale(0.001,-0.001)" />

<path d="M54,0V40L172,60V941L44,960v40H794V760H745L721,922c0,0,-83,11,-241,11H316V516H611l23,120h46V328H634L611,449H316V60L483,40V0Z" 
id="f2_16"
transform="scale(0.001,-0.001)" />

<path d="M975,35c0,0,67,0,98,54c0,0,32,53,32,170c0,0,0,114,-31,166c0,0,-31,53,-99,53c0,0,-65,0,-94,-50c0,0,-30,-49,-30,-169c0,0,0,-123,30,-173c0,0,30,-51,94,-51Zm0,-54c0,0,-120,0,-180,70c0,0,-60,71,-60,208c0,0,0,133,60,203c0,0,61,71,184,71c0,0,119,0,180,-69c0,0,61,-68,61,-205c0,0,0,-278,-245,-278ZM292,518c0,0,67,0,98,54c0,0,31,53,31,170c0,0,0,114,-30,166c0,0,-31,53,-99,53c0,0,-65,0,-95,-50c0,0,-29,-49,-29,-169c0,0,0,-123,30,-173c0,0,30,-51,94,-51Zm0,-55c0,0,-120,0,-180,71c0,0,-60,72,-60,208c0,0,0,274,244,274c0,0,119,0,180,-69c0,0,62,-69,62,-205c0,0,0,-279,-246,-279ZM246,-14L953,1016h83L328,-14Z" 
id="f2_9"
transform="scale(0.001,-0.001)" />

<path d="M577,-14c0,0,-243,0,-379,132C198,118,63,250,63,488c0,0,0,258,130,391c0,0,131,132,387,132c0,0,156,0,335,-38l5,-218H871L848,884c0,0,-52,32,-121,50c0,0,-69,17,-141,17c0,0,-191,0,-279,-112c0,0,-88,-113,-88,-349c0,0,0,-217,92,-332c0,0,92,-115,268,-115c0,0,85,0,160,20c0,0,76,21,120,55l27,149h49L930,32c0,0,-164,-46,-353,-46Z" 
id="f2_13"
transform="scale(0.001,-0.001)" />

<path d="M382,45c0,0,188,0,188,314c0,0,0,143,-47,213c0,0,-46,69,-141,69c0,0,-87,0,-146,-24V58c0,0,67,-13,146,-13ZM25,-325v35l88,18V649L34,668v33H231l1,-41c0,0,31,27,84,43c0,0,53,17,107,17c0,0,134,0,208,-94c0,0,73,-93,73,-267c0,0,0,-178,-80,-276c0,0,-80,-97,-232,-97c0,0,-84,0,-160,16c0,0,4,-53,4,-84V-272l123,-18v-35Z" 
id="f2_2c"
transform="scale(0.001,-0.001)" />

<path d="M712,0L354,900L205,60L336,40L329,0H-10l7,40L127,60L283,941L157,960l8,40H454L752,250L873,941L742,960l7,40h341l-8,-40L951,941L785,0Z" 
id="f3_1e"
transform="scale(0.001,-0.001)" />

<path d="M442,0V33l93,19V504c0,0,0,129,-124,129c0,0,-70,0,-168,-22V52L338,33V0H31V33l88,19v956L15,1026v34H243V756c0,0,0,-77,-5,-112c0,0,54,31,122,53c0,0,68,23,115,23c0,0,91,0,137,-53c0,0,47,-53,47,-154V52L744,33V0Z" 
id="f2_24"
transform="scale(0.001,-0.001)" />

<path d="M868,0L251,900V60L385,40V0H44V40L172,60V941L44,960v40H347L862,259V941L727,960v40h341V960L940,941V0Z" 
id="f2_1e"
transform="scale(0.001,-0.001)" />

<path d="M76,316v76H787V316Zm0,306v76H787V622Z" 
id="f2_x"
transform="scale(0.001,-0.001)" />


</defs>
</svg>