<?xml version="1.0" encoding="UTF-8" standalone="no"?>
<!DOCTYPE svg PUBLIC "-//W3C//DTD SVG 1.1//EN"
"http://www.w3.org/Graphics/SVG/1.1/DTD/svg11.dtd">
<svg viewBox="0 0 909 1286" version="1.1" xmlns="http://www.w3.org/2000/svg" xmlns:xlink="http://www.w3.org/1999/xlink">
<defs>
<clipPath id="c0_45"><path d="M173,232.6V194.8H705.8v37.8Z" /></clipPath>
<clipPath id="c1_45"><path d="M249,231.2V212.9H705.8v18.3Z" /></clipPath>
<clipPath id="c2_45"><path d="M312.1,216.3V194.8H497.4v21.5Z" /></clipPath>
<clipPath id="c3_45"><path d="M175.2,227.4V205.5H705.8v21.9Z" /></clipPath>
<clipPath id="c4_45"><path d="M173,1080.5v-37.8H705.8v37.8Z" /></clipPath>
<clipPath id="c5_45"><path d="M249,1079v-18.2H705.8V1079Z" /></clipPath>
<clipPath id="c6_45"><path d="M312.1,1064.1v-21.4H497.4v21.4Z" /></clipPath>
<clipPath id="c7_45"><path d="M175.2,1075.3v-21.9H705.8v21.9Z" /></clipPath>
</defs>
<g fill="#000000" >
<use xlink:href="#f0_6" transform="matrix(12,0,0,12,443.8,1140.7)" />
<use xlink:href="#f0_9" transform="matrix(12,0,0,12,454.6,1140.7)" />
<use xlink:href="#f0_a" transform="matrix(12,0,0,12,86.5,1140.7)" />
<use xlink:href="#f0_b" transform="matrix(12,0,0,12,96.8,1140.7)" />
<use xlink:href="#f0_4" transform="matrix(12,0,0,12,107.1,1140.7)" />
<use xlink:href="#f0_6" transform="matrix(12,0,0,12,111.9,1140.7)" />
<use xlink:href="#f0_4" transform="matrix(12,0,0,12,122.2,1140.7)" />
<use xlink:href="#f0_k" transform="matrix(12,0,0,12,127,1140.7)" />
<use xlink:href="#f1_4" transform="matrix(12,0,0,12,129.7,168)" />
<use xlink:href="#f1_1d" transform="matrix(12,0,0,12,135.5,168)" />
<use xlink:href="#f1_5" transform="matrix(12,0,0,12,145.3,168)" />
<use xlink:href="#f2_22" transform="matrix(16,0,0,16,173,168)" />
<use xlink:href="#f2_1t" transform="matrix(16,0,0,16,178.3,168)" />
<use xlink:href="#f2_r" transform="matrix(16,0,0,16,188.5,168)" />
<use xlink:href="#f2_1t" transform="matrix(16,0,0,16,195.5,168)" />
<use xlink:href="#f2_z" transform="matrix(16,0,0,16,215.5,168)" />
<use xlink:href="#f2_22" transform="matrix(16,0,0,16,230.4,168)" />
<use xlink:href="#f2_1q" transform="matrix(16,0,0,16,235.7,168)" />
<use xlink:href="#f2_22" transform="matrix(16,0,0,16,248.3,168)" />
<use xlink:href="#f2_14" transform="matrix(16,0,0,16,253.6,168)" />
<use xlink:href="#f2_2c" transform="matrix(16,0,0,16,263.5,168)" />
<use xlink:href="#f2_1s" transform="matrix(16,0,0,16,268.7,168)" />
<use xlink:href="#f2_21" transform="matrix(16,0,0,16,279.9,168)" />
<use xlink:href="#f2_14" transform="matrix(16,0,0,16,294.2,168)" />
<use xlink:href="#f2_23" transform="matrix(16,0,0,16,309,168)" />
<use xlink:href="#f2_22" transform="matrix(16,0,0,16,324.2,168)" />
<use xlink:href="#f2_14" transform="matrix(16,0,0,16,329.5,168)" />
<use xlink:href="#f2_2c" transform="matrix(16,0,0,16,339.5,168)" />
<use xlink:href="#f2_1s" transform="matrix(16,0,0,16,344.6,168)" />
<use xlink:href="#f2_21" transform="matrix(16,0,0,16,355.8,168)" />
<use xlink:href="#f2_7" transform="matrix(16,0,0,16,360.3,168)" />
<use xlink:href="#f2_22" transform="matrix(16,0,0,16,371.1,168)" />
<use xlink:href="#f2_1w" transform="matrix(16,0,0,16,376.4,168)" />
<use xlink:href="#f2_22" transform="matrix(16,0,0,16,387.8,168)" />
<use xlink:href="#f2_1m" transform="matrix(16,0,0,16,393.1,168)" />
<use xlink:href="#f2_22" transform="matrix(16,0,0,16,415.2,168)" />
<use xlink:href="#f2_1v" transform="matrix(16,0,0,16,420.5,168)" />
<use xlink:href="#f2_22" transform="matrix(16,0,0,16,434.4,168)" />
<use xlink:href="#f2_16" transform="matrix(16,0,0,16,439.7,168)" />
<use xlink:href="#f2_12" transform="matrix(16,0,0,16,455.2,168)" />
<use xlink:href="#f2_1o" transform="matrix(16,0,0,16,475.7,168)" />
</g>
<g clip-path="url(#c0_45)">
<g fill="#000000" >
<use xlink:href="#f3_1mh" transform="matrix(10.9,0,0,10.9,476.4,223.5)" />
<use xlink:href="#f4_3" transform="matrix(10.9,0,0,10.9,574.6,223.5)" />
<use xlink:href="#f4_3" transform="matrix(10.9,0,0,10.9,609.6,223.5)" />
<use xlink:href="#f5_n" transform="matrix(8.9,0,0,8.9,213.5,227.7)" />
<use xlink:href="#f5_n" transform="matrix(8.9,0,0,8.9,524.2,227.7)" />
<use xlink:href="#f5_m" transform="matrix(8.9,0,0,8.9,658.9,227.7)" />
<use xlink:href="#f5_m" transform="matrix(9.9,0,0,9.9,373.4,218.3)" />
<use xlink:href="#f5_o" transform="matrix(9.9,0,0,9.9,406.2,218.3)" />
</g>
</g>
<g clip-path="url(#c1_45)">
<g fill="#000000" >
<use xlink:href="#f5_m" transform="matrix(9.9,0,0,9.9,249,227.9)" />
<use xlink:href="#f5_m" transform="matrix(9.9,0,0,9.9,559.7,227.9)" />
<use xlink:href="#f5_n" transform="matrix(9.9,0,0,9.9,694.2,227.9)" />
</g>
</g>
<g clip-path="url(#c0_45)">
<g fill="#000000" >
<use xlink:href="#f5_1f" transform="matrix(10.9,0,0,10.9,596.1,223.5)" />
</g>
</g>
<g clip-path="url(#c2_45)">
<g fill="#000000" >
<use xlink:href="#f5_13" transform="matrix(11.9,0,0,11.9,312.1,212.4)" />
<use xlink:href="#f5_2b" transform="matrix(11.9,0,0,11.9,325.2,212.4)" />
<use xlink:href="#f5_2a" transform="matrix(11.9,0,0,11.9,334.4,212.4)" />
<use xlink:href="#f5_1z" transform="matrix(11.9,0,0,11.9,345.6,212.4)" />
<use xlink:href="#f5_i" transform="matrix(11.9,0,0,11.9,353.5,212.4)" />
<use xlink:href="#f5_18" transform="matrix(11.9,0,0,11.9,358.8,212.4)" />
<use xlink:href="#f5_1j" transform="matrix(11.9,0,0,11.9,381.3,212.4)" />
<use xlink:href="#f5_1f" transform="matrix(11.9,0,0,11.9,392.7,212.4)" />
<use xlink:href="#f5_j" transform="matrix(11.9,0,0,11.9,420.3,212.4)" />
<use xlink:href="#f5_o" transform="matrix(11.9,0,0,11.9,429.8,212.4)" />
<use xlink:href="#f5_l" transform="matrix(11.9,0,0,11.9,440.1,212.4)" />
<use xlink:href="#f5_n" transform="matrix(11.9,0,0,11.9,450.4,212.4)" />
<use xlink:href="#f5_1b" transform="matrix(11.9,0,0,11.9,460.7,212.4)" />
</g>
</g>
<g clip-path="url(#c3_45)">
<g fill="#000000" >
<use xlink:href="#f5_m" transform="matrix(11.9,0,0,11.9,175.2,223.5)" />
<use xlink:href="#f5_13" transform="matrix(11.9,0,0,11.9,185.5,223.5)" />
<use xlink:href="#f5_18" transform="matrix(11.9,0,0,11.9,198.7,223.5)" />
<use xlink:href="#f5_13" transform="matrix(11.9,0,0,11.9,220.9,223.5)" />
<use xlink:href="#f5_18" transform="matrix(11.9,0,0,11.9,234.1,223.5)" />
<use xlink:href="#f5_1f" transform="matrix(11.9,0,0,11.9,257.5,223.5)" />
<use xlink:href="#f5_18" transform="matrix(11.9,0,0,11.9,271.9,223.5)" />
<use xlink:href="#f5_13" transform="matrix(11.9,0,0,11.9,496.2,223.5)" />
<use xlink:href="#f5_18" transform="matrix(11.9,0,0,11.9,509.4,223.5)" />
<use xlink:href="#f5_13" transform="matrix(11.9,0,0,11.9,531.6,223.5)" />
<use xlink:href="#f5_18" transform="matrix(11.9,0,0,11.9,544.8,223.5)" />
<use xlink:href="#f5_13" transform="matrix(11.9,0,0,11.9,630.7,223.5)" />
<use xlink:href="#f5_18" transform="matrix(11.9,0,0,11.9,643.9,223.5)" />
<use xlink:href="#f5_13" transform="matrix(11.9,0,0,11.9,666.4,223.5)" />
<use xlink:href="#f5_18" transform="matrix(11.9,0,0,11.9,679.6,223.5)" />
</g>
</g>
<g fill="#000000" >
<use xlink:href="#f6_9" transform="matrix(16,0,0,16,409.4,270.8)" />
<use xlink:href="#f6_g" transform="matrix(16,0,0,16,425,270.8)" />
<use xlink:href="#f6_n" transform="matrix(16,0,0,16,438.4,270.8)" />
<use xlink:href="#f6_r" transform="matrix(16,0,0,16,450.7,270.8)" />
<use xlink:href="#f1_4" transform="matrix(12,0,0,12,129.7,312.8)" />
<use xlink:href="#f1_1c" transform="matrix(12,0,0,12,135.5,312.8)" />
<use xlink:href="#f1_5" transform="matrix(12,0,0,12,145.3,312.8)" />
<use xlink:href="#f2_22" transform="matrix(16,0,0,16,173,312.8)" />
<use xlink:href="#f2_1t" transform="matrix(16,0,0,16,178.3,312.8)" />
<use xlink:href="#f2_r" transform="matrix(16,0,0,16,188.4,312.8)" />
<use xlink:href="#f2_1t" transform="matrix(16,0,0,16,195.4,312.8)" />
<use xlink:href="#f2_z" transform="matrix(16,0,0,16,215,312.8)" />
<use xlink:href="#f2_22" transform="matrix(16,0,0,16,229.9,312.8)" />
<use xlink:href="#f2_1q" transform="matrix(16,0,0,16,235.2,312.8)" />
<use xlink:href="#f2_22" transform="matrix(16,0,0,16,247.7,312.8)" />
<use xlink:href="#f2_14" transform="matrix(16,0,0,16,253,312.8)" />
<use xlink:href="#f2_2c" transform="matrix(16,0,0,16,263,312.8)" />
<use xlink:href="#f2_1s" transform="matrix(16,0,0,16,268.1,312.8)" />
<use xlink:href="#f2_21" transform="matrix(16,0,0,16,279.3,312.8)" />
<use xlink:href="#f2_z" transform="matrix(16,0,0,16,283.7,312.8)" />
<use xlink:href="#f2_21" transform="matrix(16,0,0,16,298.6,312.8)" />
<use xlink:href="#f2_27" transform="matrix(16,0,0,16,303,312.8)" />
<use xlink:href="#f2_13" transform="matrix(16,0,0,16,303.2,312.8)" />
<use xlink:href="#f2_14" transform="matrix(16,0,0,16,313,312.8)" />
<use xlink:href="#f2_27" transform="matrix(16,0,0,16,322.9,312.8)" />
<use xlink:href="#f2_1z" transform="matrix(16,0,0,16,337.5,312.8)" />
<use xlink:href="#f2_1r" transform="matrix(16,0,0,16,350.2,312.8)" />
<use xlink:href="#f2_23" transform="matrix(16,0,0,16,361.7,312.8)" />
<use xlink:href="#f2_14" transform="matrix(16,0,0,16,367,312.8)" />
<use xlink:href="#f2_1u" transform="matrix(16,0,0,16,381.8,312.8)" />
<use xlink:href="#f2_k" transform="matrix(16,0,0,16,389.4,312.8)" />
<use xlink:href="#f2_21" transform="matrix(16,0,0,16,397.9,312.8)" />
<use xlink:href="#f2_21" transform="matrix(16,0,0,16,402.3,312.8)" />
<use xlink:href="#f2_27" transform="matrix(16,0,0,16,406.7,312.8)" />
<use xlink:href="#f2_13" transform="matrix(16,0,0,16,406.9,312.8)" />
<use xlink:href="#f2_14" transform="matrix(16,0,0,16,416.7,312.8)" />
<use xlink:href="#f2_21" transform="matrix(16,0,0,16,431.5,312.8)" />
<use xlink:href="#f2_27" transform="matrix(16,0,0,16,435.9,312.8)" />
<use xlink:href="#f2_22" transform="matrix(16,0,0,16,445.6,312.8)" />
<use xlink:href="#f2_1v" transform="matrix(16,0,0,16,450.9,312.8)" />
<use xlink:href="#f2_22" transform="matrix(16,0,0,16,464.7,312.8)" />
<use xlink:href="#f2_16" transform="matrix(16,0,0,16,470,312.8)" />
<use xlink:href="#f2_12" transform="matrix(16,0,0,16,485.5,312.8)" />
<use xlink:href="#f2_1o" transform="matrix(16,0,0,16,505.6,312.8)" />
<use xlink:href="#f1_4" transform="matrix(12,0,0,12,173,354.9)" />
<use xlink:href="#f1_1k" transform="matrix(12,0,0,12,178.7,354.9)" />
<use xlink:href="#f1_5" transform="matrix(12,0,0,12,184,354.9)" />
<use xlink:href="#f2_1g" transform="matrix(16,0,0,16,216.3,354.9)" />
<use xlink:href="#f2_23" transform="matrix(16,0,0,16,231.1,354.9)" />
<use xlink:href="#f2_1t" transform="matrix(16,0,0,16,236.4,354.9)" />
<use xlink:href="#f2_21" transform="matrix(16,0,0,16,246.5,354.9)" />
<use xlink:href="#f2_29" transform="matrix(16,0,0,16,250.9,354.9)" />
<use xlink:href="#f2_1v" transform="matrix(16,0,0,16,251.2,354.9)" />
<use xlink:href="#f2_14" transform="matrix(16,0,0,16,273.9,354.9)" />
<use xlink:href="#f2_27" transform="matrix(16,0,0,16,283.8,354.9)" />
<use xlink:href="#f2_1z" transform="matrix(16,0,0,16,297.7,354.9)" />
<use xlink:href="#f2_21" transform="matrix(16,0,0,16,310.4,354.9)" />
<use xlink:href="#f2_1k" transform="matrix(16,0,0,16,314.8,354.9)" />
<use xlink:href="#f1_n" transform="matrix(12,0,0,12,335.8,354.9)" />
<use xlink:href="#f1_12" transform="matrix(12,0,0,12,349,354.9)" />
<use xlink:href="#f7_4" transform="matrix(9.6,0,0,9.6,360.6,360.9)" />
<use xlink:href="#f2_1r" transform="matrix(16,0,0,16,375.5,354.9)" />
<use xlink:href="#f2_27" transform="matrix(16,0,0,16,387,354.9)" />
<use xlink:href="#f2_13" transform="matrix(16,0,0,16,387.3,354.9)" />
<use xlink:href="#f2_1p" transform="matrix(16,0,0,16,396.4,354.9)" />
<use xlink:href="#f2_2c" transform="matrix(16,0,0,16,408,354.9)" />
<use xlink:href="#f2_21" transform="matrix(16,0,0,16,408.3,354.9)" />
<use xlink:href="#f2_27" transform="matrix(16,0,0,16,412.7,354.9)" />
<use xlink:href="#f2_1r" transform="matrix(16,0,0,16,412.9,354.9)" />
<use xlink:href="#f2_23" transform="matrix(16,0,0,16,424.4,354.9)" />
<use xlink:href="#f2_1t" transform="matrix(16,0,0,16,429.7,354.9)" />
<use xlink:href="#f1_4" transform="matrix(12,0,0,12,173,396.9)" />
<use xlink:href="#f1_1k" transform="matrix(12,0,0,12,178.9,396.9)" />
<use xlink:href="#f1_1k" transform="matrix(12,0,0,12,184.3,396.9)" />
<use xlink:href="#f1_5" transform="matrix(12,0,0,12,189.8,396.9)" />
<use xlink:href="#f2_1a" transform="matrix(16,0,0,16,216.3,396.9)" />
<use xlink:href="#f2_1v" transform="matrix(16,0,0,16,229.5,396.9)" />
<use xlink:href="#f2_23" transform="matrix(16,0,0,16,243.3,396.9)" />
<use xlink:href="#f2_1s" transform="matrix(16,0,0,16,248.6,396.9)" />
<use xlink:href="#f1_y" transform="matrix(12,0,0,12,268.6,396.9)" />
<use xlink:href="#f1_1c" transform="matrix(12,0,0,12,283.5,396.9)" />
<use xlink:href="#f1_z" transform="matrix(12,0,0,12,293.7,396.9)" />
<use xlink:href="#f1_s" transform="matrix(12,0,0,12,308,396.9)" />
<use xlink:href="#f2_14" transform="matrix(16,0,0,16,330.2,396.9)" />
<use xlink:href="#f2_23" transform="matrix(16,0,0,16,344.9,396.9)" />
<use xlink:href="#f2_11" transform="matrix(16,0,0,16,359,396.9)" />
<use xlink:href="#f2_1b" transform="matrix(16,0,0,16,368.9,396.9)" />
<use xlink:href="#f2_22" transform="matrix(16,0,0,16,379.2,396.9)" />
<use xlink:href="#f2_b" transform="matrix(16,0,0,16,384.5,396.9)" />
<use xlink:href="#f2_1k" transform="matrix(16,0,0,16,392.6,396.9)" />
<use xlink:href="#f2_22" transform="matrix(16,0,0,16,404.8,396.9)" />
<use xlink:href="#f2_1j" transform="matrix(16,0,0,16,410.1,396.9)" />
<use xlink:href="#f2_1r" transform="matrix(16,0,0,16,429,396.9)" />
<use xlink:href="#f2_27" transform="matrix(16,0,0,16,440.5,396.9)" />
<use xlink:href="#f2_13" transform="matrix(16,0,0,16,440.8,396.9)" />
<use xlink:href="#f2_i" transform="matrix(16,0,0,16,449.9,396.9)" />
<use xlink:href="#f2_1v" transform="matrix(16,0,0,16,459.5,396.9)" />
<use xlink:href="#f2_21" transform="matrix(16,0,0,16,473.3,396.9)" />
<use xlink:href="#f2_27" transform="matrix(16,0,0,16,477.8,396.9)" />
<use xlink:href="#f2_1u" transform="matrix(16,0,0,16,478,396.9)" />
<use xlink:href="#f2_21" transform="matrix(16,0,0,16,485.6,396.9)" />
<use xlink:href="#f2_27" transform="matrix(16,0,0,16,490,396.9)" />
<use xlink:href="#f2_1g" transform="matrix(16,0,0,16,490.3,396.9)" />
<use xlink:href="#f2_21" transform="matrix(16,0,0,16,505.1,396.9)" />
<use xlink:href="#f2_1r" transform="matrix(16,0,0,16,509.5,396.9)" />
<use xlink:href="#f2_2b" transform="matrix(16,0,0,16,521,396.9)" />
<use xlink:href="#f2_14" transform="matrix(16,0,0,16,530.1,396.9)" />
<use xlink:href="#f2_27" transform="matrix(16,0,0,16,540,396.9)" />
<use xlink:href="#f2_1z" transform="matrix(16,0,0,16,553.9,396.9)" />
<use xlink:href="#f2_21" transform="matrix(16,0,0,16,566.7,396.9)" />
<use xlink:href="#f2_1k" transform="matrix(16,0,0,16,571.1,396.9)" />
<use xlink:href="#f2_1g" transform="matrix(16,0,0,16,592.1,396.9)" />
<use xlink:href="#f2_23" transform="matrix(16,0,0,16,606.9,396.9)" />
<use xlink:href="#f2_1t" transform="matrix(16,0,0,16,612.2,396.9)" />
<use xlink:href="#f2_21" transform="matrix(16,0,0,16,622.3,396.9)" />
<use xlink:href="#f2_29" transform="matrix(16,0,0,16,626.7,396.9)" />
<use xlink:href="#f2_1v" transform="matrix(16,0,0,16,627,396.9)" />
<use xlink:href="#f2_14" transform="matrix(16,0,0,16,649.6,396.9)" />
<use xlink:href="#f2_21" transform="matrix(16,0,0,16,664.4,396.9)" />
<use xlink:href="#f2_11" transform="matrix(16,0,0,16,677.7,396.9)" />
<use xlink:href="#f2_1b" transform="matrix(16,0,0,16,687.5,396.9)" />
<use xlink:href="#f2_18" transform="matrix(16,0,0,16,697.8,396.9)" />
<use xlink:href="#f2_21" transform="matrix(16,0,0,16,711,396.9)" />
<use xlink:href="#f2_1u" transform="matrix(16,0,0,16,715.4,396.9)" />
<use xlink:href="#f1_4" transform="matrix(12,0,0,12,173,438.9)" />
<use xlink:href="#f1_1k" transform="matrix(12,0,0,12,178.9,438.9)" />
<use xlink:href="#f1_1k" transform="matrix(12,0,0,12,184.5,438.9)" />
<use xlink:href="#f1_1k" transform="matrix(12,0,0,12,190,438.9)" />
<use xlink:href="#f1_5" transform="matrix(12,0,0,12,195.5,438.9)" />
<use xlink:href="#f1_s" transform="matrix(12,0,0,12,216.3,438.9)" />
<use xlink:href="#f1_t" transform="matrix(12,0,0,12,231.6,438.9)" />
<use xlink:href="#f2_14" transform="matrix(16,0,0,16,246.1,438.9)" />
<use xlink:href="#f2_27" transform="matrix(16,0,0,16,256.1,438.9)" />
<use xlink:href="#f2_1z" transform="matrix(16,0,0,16,270.3,438.9)" />
<use xlink:href="#f2_21" transform="matrix(16,0,0,16,283,438.9)" />
<use xlink:href="#f2_1k" transform="matrix(16,0,0,16,287.5,438.9)" />
<use xlink:href="#f2_12" transform="matrix(16,0,0,16,308.8,438.9)" />
<use xlink:href="#f2_22" transform="matrix(16,0,0,16,319.4,438.9)" />
<use xlink:href="#f2_1t" transform="matrix(16,0,0,16,324.7,438.9)" />
<use xlink:href="#f2_1z" transform="matrix(16,0,0,16,334.8,438.9)" />
<use xlink:href="#f2_21" transform="matrix(16,0,0,16,347.6,438.9)" />
<use xlink:href="#f2_27" transform="matrix(16,0,0,16,352,438.9)" />
<use xlink:href="#f2_1v" transform="matrix(16,0,0,16,352.2,438.9)" />
<use xlink:href="#f2_14" transform="matrix(16,0,0,16,375.2,438.9)" />
<use xlink:href="#f2_23" transform="matrix(16,0,0,16,390,438.9)" />
<use xlink:href="#f2_z" transform="matrix(16,0,0,16,404.4,438.9)" />
<use xlink:href="#f2_22" transform="matrix(16,0,0,16,419.3,438.9)" />
<use xlink:href="#f2_1q" transform="matrix(16,0,0,16,424.5,438.9)" />
<use xlink:href="#f2_22" transform="matrix(16,0,0,16,437.1,438.9)" />
<use xlink:href="#f2_14" transform="matrix(16,0,0,16,442.4,438.9)" />
<use xlink:href="#f2_2c" transform="matrix(16,0,0,16,452.3,438.9)" />
<use xlink:href="#f2_1s" transform="matrix(16,0,0,16,457.4,438.9)" />
<use xlink:href="#f2_21" transform="matrix(16,0,0,16,468.6,438.9)" />
<use xlink:href="#f1_4" transform="matrix(12,0,0,12,129.7,480.9)" />
<use xlink:href="#f1_1d" transform="matrix(12,0,0,12,135.5,480.9)" />
<use xlink:href="#f1_5" transform="matrix(12,0,0,12,145.3,480.9)" />
<use xlink:href="#f2_22" transform="matrix(16,0,0,16,173,480.9)" />
<use xlink:href="#f2_1t" transform="matrix(16,0,0,16,178.3,480.9)" />
<use xlink:href="#f2_r" transform="matrix(16,0,0,16,188.4,480.9)" />
<use xlink:href="#f2_1t" transform="matrix(16,0,0,16,195.4,480.9)" />
<use xlink:href="#f2_1r" transform="matrix(16,0,0,16,214.7,480.9)" />
<use xlink:href="#f2_27" transform="matrix(16,0,0,16,226.2,480.9)" />
<use xlink:href="#f2_13" transform="matrix(16,0,0,16,226.5,480.9)" />
<use xlink:href="#f2_1b" transform="matrix(16,0,0,16,235.9,480.9)" />
<use xlink:href="#f2_20" transform="matrix(16,0,0,16,246.2,480.9)" />
<use xlink:href="#f2_18" transform="matrix(16,0,0,16,255.8,480.9)" />
<use xlink:href="#f2_21" transform="matrix(16,0,0,16,268.9,480.9)" />
<use xlink:href="#f2_1t" transform="matrix(16,0,0,16,273.3,480.9)" />
<use xlink:href="#f2_14" transform="matrix(16,0,0,16,292.6,480.9)" />
<use xlink:href="#f2_23" transform="matrix(16,0,0,16,307.4,480.9)" />
<use xlink:href="#f2_22" transform="matrix(16,0,0,16,312.7,480.9)" />
<use xlink:href="#f2_1a" transform="matrix(16,0,0,16,317.9,480.9)" />
<use xlink:href="#f2_12" transform="matrix(16,0,0,16,331.1,480.9)" />
<use xlink:href="#f2_1o" transform="matrix(16,0,0,16,350.9,480.9)" />
<use xlink:href="#f1_4" transform="matrix(12,0,0,12,173,522.9)" />
<use xlink:href="#f1_1k" transform="matrix(12,0,0,12,178.7,522.9)" />
<use xlink:href="#f1_5" transform="matrix(12,0,0,12,184,522.9)" />
<use xlink:href="#f2_12" transform="matrix(16,0,0,16,216.3,522.9)" />
<use xlink:href="#f2_1k" transform="matrix(16,0,0,16,227,522.9)" />
<use xlink:href="#f2_28" transform="matrix(16,0,0,16,239.2,522.9)" />
<use xlink:href="#f2_1t" transform="matrix(16,0,0,16,239.4,522.9)" />
<use xlink:href="#f2_21" transform="matrix(16,0,0,16,249.5,522.9)" />
<use xlink:href="#f2_29" transform="matrix(16,0,0,16,253.9,522.9)" />
<use xlink:href="#f2_1v" transform="matrix(16,0,0,16,254.2,522.9)" />
<use xlink:href="#f2_z" transform="matrix(16,0,0,16,276.4,522.9)" />
<use xlink:href="#f2_21" transform="matrix(16,0,0,16,291.3,522.9)" />
<use xlink:href="#f2_28" transform="matrix(16,0,0,16,295.7,522.9)" />
<use xlink:href="#f2_1u" transform="matrix(16,0,0,16,295.9,522.9)" />
<use xlink:href="#f2_1f" transform="matrix(16,0,0,16,311.9,522.9)" />
<use xlink:href="#f2_21" transform="matrix(16,0,0,16,324.2,522.9)" />
<use xlink:href="#f2_10" transform="matrix(16,0,0,16,328.6,522.9)" />
<use xlink:href="#f2_12" transform="matrix(16,0,0,16,337,522.9)" />
<use xlink:href="#f2_22" transform="matrix(16,0,0,16,347.7,522.9)" />
<use xlink:href="#f2_1k" transform="matrix(16,0,0,16,352.9,522.9)" />
<use xlink:href="#f2_1v" transform="matrix(16,0,0,16,365.1,522.9)" />
<use xlink:href="#f2_10" transform="matrix(16,0,0,16,387.4,522.9)" />
<use xlink:href="#f2_2b" transform="matrix(16,0,0,16,395.8,522.9)" />
<use xlink:href="#f2_1k" transform="matrix(16,0,0,16,396.1,522.9)" />
<use xlink:href="#f2_1u" transform="matrix(16,0,0,16,408.3,522.9)" />
<use xlink:href="#f1_4" transform="matrix(12,0,0,12,173,564.9)" />
<use xlink:href="#f1_1k" transform="matrix(12,0,0,12,178.9,564.9)" />
<use xlink:href="#f1_1k" transform="matrix(12,0,0,12,184.3,564.9)" />
<use xlink:href="#f1_5" transform="matrix(12,0,0,12,189.8,564.9)" />
<use xlink:href="#f2_1b" transform="matrix(16,0,0,16,216.3,564.9)" />
<use xlink:href="#f2_2c" transform="matrix(16,0,0,16,226.6,564.9)" />
<use xlink:href="#f2_21" transform="matrix(16,0,0,16,226.9,564.9)" />
<use xlink:href="#f2_27" transform="matrix(16,0,0,16,231.3,564.9)" />
<use xlink:href="#f2_1b" transform="matrix(16,0,0,16,231.5,564.9)" />
<use xlink:href="#f2_28" transform="matrix(16,0,0,16,241.8,564.9)" />
<use xlink:href="#f2_1t" transform="matrix(16,0,0,16,242.1,564.9)" />
<use xlink:href="#f2_21" transform="matrix(16,0,0,16,252.2,564.9)" />
<use xlink:href="#f2_29" transform="matrix(16,0,0,16,256.6,564.9)" />
<use xlink:href="#f2_1v" transform="matrix(16,0,0,16,256.8,564.9)" />
<use xlink:href="#f2_z" transform="matrix(16,0,0,16,278.9,564.9)" />
<use xlink:href="#f2_21" transform="matrix(16,0,0,16,293.7,564.9)" />
<use xlink:href="#f2_28" transform="matrix(16,0,0,16,298.1,564.9)" />
<use xlink:href="#f2_1u" transform="matrix(16,0,0,16,298.4,564.9)" />
<use xlink:href="#f1_1u" transform="matrix(12,0,0,12,312.2,564.9)" />
<use xlink:href="#f2_7" transform="matrix(16,0,0,16,319.4,564.9)" />
<use xlink:href="#f2_q" transform="matrix(16,0,0,16,330.2,564.9)" />
<use xlink:href="#f2_1s" transform="matrix(16,0,0,16,337,564.9)" />
<use xlink:href="#f2_24" transform="matrix(16,0,0,16,348.2,564.9)" />
<use xlink:href="#f2_22" transform="matrix(16,0,0,16,348.4,564.9)" />
<use xlink:href="#f2_1d" transform="matrix(16,0,0,16,353.7,564.9)" />
<use xlink:href="#f2_1v" transform="matrix(16,0,0,16,363.5,564.9)" />
<use xlink:href="#f2_12" transform="matrix(16,0,0,16,385.6,564.9)" />
<use xlink:href="#f2_27" transform="matrix(16,0,0,16,396.3,564.9)" />
<use xlink:href="#f2_1i" transform="matrix(16,0,0,16,396.5,564.9)" />
<use xlink:href="#f2_14" transform="matrix(16,0,0,16,406.1,564.9)" />
<use xlink:href="#f2_21" transform="matrix(16,0,0,16,420.8,564.9)" />
<use xlink:href="#f2_27" transform="matrix(16,0,0,16,425.2,564.9)" />
<use xlink:href="#f2_20" transform="matrix(16,0,0,16,425.5,564.9)" />
<use xlink:href="#f2_21" transform="matrix(16,0,0,16,435.1,564.9)" />
<use xlink:href="#f2_29" transform="matrix(16,0,0,16,439.5,564.9)" />
<use xlink:href="#f2_1v" transform="matrix(16,0,0,16,439.8,564.9)" />
<use xlink:href="#f1_4" transform="matrix(12,0,0,12,129.7,606.9)" />
<use xlink:href="#f1_1c" transform="matrix(12,0,0,12,135.5,606.9)" />
<use xlink:href="#f1_5" transform="matrix(12,0,0,12,145.3,606.9)" />
<use xlink:href="#f1_16" transform="matrix(12,0,0,12,173,606.9)" />
<use xlink:href="#f1_1s" transform="matrix(12,0,0,12,191.1,606.9)" />
<use xlink:href="#f1_1k" transform="matrix(12,0,0,12,199.2,606.9)" />
<use xlink:href="#f1_1u" transform="matrix(12,0,0,12,205,606.9)" />
<use xlink:href="#f1_1g" transform="matrix(12,0,0,12,212.2,606.9)" />
<use xlink:href="#f1_1u" transform="matrix(12,0,0,12,226.5,606.9)" />
<use xlink:href="#f1_1j" transform="matrix(12,0,0,12,233.7,606.9)" />
<use xlink:href="#f1_1g" transform="matrix(12,0,0,12,244.8,606.9)" />
<use xlink:href="#f1_1q" transform="matrix(12,0,0,12,259.1,606.9)" />
<use xlink:href="#f1_1s" transform="matrix(12,0,0,12,269.7,606.9)" />
<use xlink:href="#f1_1p" transform="matrix(12,0,0,12,277.8,606.9)" />
<use xlink:href="#f1_1f" transform="matrix(12,0,0,12,287,606.9)" />
<use xlink:href="#f1_1v" transform="matrix(12,0,0,12,297.6,606.9)" />
<use xlink:href="#f1_1e" transform="matrix(12,0,0,12,308.8,606.9)" />
<use xlink:href="#f1_1u" transform="matrix(12,0,0,12,316.9,606.9)" />
<use xlink:href="#f1_4" transform="matrix(12,0,0,12,324.1,606.9)" />
<use xlink:href="#f1_1t" transform="matrix(12,0,0,12,330.2,606.9)" />
<use xlink:href="#f1_5" transform="matrix(12,0,0,12,338.7,606.9)" />
<use xlink:href="#f1_1k" transform="matrix(12,0,0,12,350,606.9)" />
<use xlink:href="#f1_1o" transform="matrix(12,0,0,12,355.8,606.9)" />
<use xlink:href="#f1_1g" transform="matrix(12,0,0,12,372.1,606.9)" />
<use xlink:href="#f1_1c" transform="matrix(12,0,0,12,381.3,606.9)" />
<use xlink:href="#f1_1e" transform="matrix(12,0,0,12,391.5,606.9)" />
<use xlink:href="#f1_1j" transform="matrix(12,0,0,12,399.6,606.9)" />
<use xlink:href="#f1_1p" transform="matrix(12,0,0,12,416.1,606.9)" />
<use xlink:href="#f1_1h" transform="matrix(12,0,0,12,425.2,606.9)" />
<use xlink:href="#f1_1u" transform="matrix(12,0,0,12,436.5,606.9)" />
<use xlink:href="#f1_1j" transform="matrix(12,0,0,12,443.7,606.9)" />
<use xlink:href="#f1_1g" transform="matrix(12,0,0,12,454.9,606.9)" />
<use xlink:href="#f1_1h" transform="matrix(12,0,0,12,469.2,606.9)" />
<use xlink:href="#f1_1p" transform="matrix(12,0,0,12,475.3,606.9)" />
<use xlink:href="#f1_1m" transform="matrix(12,0,0,12,484.5,606.9)" />
<use xlink:href="#f1_1m" transform="matrix(12,0,0,12,490.3,606.9)" />
<use xlink:href="#f1_1p" transform="matrix(12,0,0,12,496.1,606.9)" />
<use xlink:href="#f1_1x" transform="matrix(12,0,0,12,505.3,606.9)" />
<use xlink:href="#f1_1k" transform="matrix(12,0,0,12,519.6,606.9)" />
<use xlink:href="#f1_1o" transform="matrix(12,0,0,12,525.4,606.9)" />
<use xlink:href="#f1_1i" transform="matrix(12,0,0,12,536.5,606.9)" />
<use xlink:href="#f1_1s" transform="matrix(12,0,0,12,551.5,606.9)" />
<use xlink:href="#f1_1g" transform="matrix(12,0,0,12,559.7,606.9)" />
<use xlink:href="#f1_1c" transform="matrix(12,0,0,12,568.9,606.9)" />
<use xlink:href="#f1_1e" transform="matrix(12,0,0,12,579.1,606.9)" />
<use xlink:href="#f1_1u" transform="matrix(12,0,0,12,587.2,606.9)" />
<use xlink:href="#f1_1k" transform="matrix(12,0,0,12,594.4,606.9)" />
<use xlink:href="#f1_1p" transform="matrix(12,0,0,12,600.2,606.9)" />
<use xlink:href="#f1_1o" transform="matrix(12,0,0,12,609.4,606.9)" />
<use xlink:href="#f1_1t" transform="matrix(12,0,0,12,620.6,606.9)" />
<use xlink:href="#f1_j" transform="matrix(12,0,0,12,634.2,606.9)" />
<use xlink:href="#f1_4" transform="matrix(12,0,0,12,173,654)" />
<use xlink:href="#f1_1k" transform="matrix(12,0,0,12,178.7,654)" />
<use xlink:href="#f1_5" transform="matrix(12,0,0,12,184,654)" />
</g>
<image preserveAspectRatio="none" x="216" y="633" width="263" height="32" xlink:href="img/1.png" />
<g fill="#000000" >
<use xlink:href="#f1_4" transform="matrix(12,0,0,12,173,774.1)" />
<use xlink:href="#f1_1k" transform="matrix(12,0,0,12,178.9,774.1)" />
<use xlink:href="#f1_1k" transform="matrix(12,0,0,12,184.3,774.1)" />
<use xlink:href="#f1_5" transform="matrix(12,0,0,12,189.8,774.1)" />
</g>
<image preserveAspectRatio="none" x="216" y="701" width="214" height="110" xlink:href="img/2.png" />
<g fill="#000000" >
<use xlink:href="#f1_4" transform="matrix(12,0,0,12,173,935.3)" />
<use xlink:href="#f1_1k" transform="matrix(12,0,0,12,178.9,935.3)" />
<use xlink:href="#f1_1k" transform="matrix(12,0,0,12,184.5,935.3)" />
<use xlink:href="#f1_1k" transform="matrix(12,0,0,12,190,935.3)" />
<use xlink:href="#f1_5" transform="matrix(12,0,0,12,195.5,935.3)" />
</g>
<image preserveAspectRatio="none" x="216" y="862" width="308" height="110" xlink:href="img/3.png" />
<g fill="#000000" >
<use xlink:href="#f1_4" transform="matrix(12,0,0,12,129.7,1018.8)" />
<use xlink:href="#f1_1d" transform="matrix(12,0,0,12,135.5,1018.8)" />
<use xlink:href="#f1_5" transform="matrix(12,0,0,12,145.3,1018.8)" />
<use xlink:href="#f1_16" transform="matrix(12,0,0,12,173,1018.8)" />
<use xlink:href="#f1_1s" transform="matrix(12,0,0,12,191,1018.8)" />
<use xlink:href="#f1_1k" transform="matrix(12,0,0,12,199.2,1018.8)" />
<use xlink:href="#f1_1u" transform="matrix(12,0,0,12,205,1018.8)" />
<use xlink:href="#f1_1g" transform="matrix(12,0,0,12,212.1,1018.8)" />
<use xlink:href="#f1_1u" transform="matrix(12,0,0,12,226.5,1018.8)" />
<use xlink:href="#f1_1j" transform="matrix(12,0,0,12,233.7,1018.8)" />
<use xlink:href="#f1_1g" transform="matrix(12,0,0,12,244.9,1018.8)" />
<use xlink:href="#f1_1n" transform="matrix(12,0,0,12,259.3,1018.8)" />
<use xlink:href="#f1_1g" transform="matrix(12,0,0,12,275.7,1018.8)" />
<use xlink:href="#f1_1e" transform="matrix(12,0,0,12,284.8,1018.8)" />
<use xlink:href="#f1_1j" transform="matrix(12,0,0,12,293,1018.8)" />
<use xlink:href="#f1_1c" transform="matrix(12,0,0,12,304.1,1018.8)" />
<use xlink:href="#f1_1o" transform="matrix(12,0,0,12,314.3,1018.8)" />
<use xlink:href="#f1_1k" transform="matrix(12,0,0,12,325.5,1018.8)" />
<use xlink:href="#f1_1t" transform="matrix(12,0,0,12,331.3,1018.8)" />
<use xlink:href="#f1_1n" transform="matrix(12,0,0,12,339.8,1018.8)" />
<use xlink:href="#f1_1p" transform="matrix(12,0,0,12,361.4,1018.8)" />
<use xlink:href="#f1_1h" transform="matrix(12,0,0,12,370.5,1018.8)" />
<use xlink:href="#f1_1u" transform="matrix(12,0,0,12,381.9,1018.8)" />
<use xlink:href="#f1_1j" transform="matrix(12,0,0,12,389.1,1018.8)" />
<use xlink:href="#f1_1g" transform="matrix(12,0,0,12,400.2,1018.8)" />
<use xlink:href="#f1_1h" transform="matrix(12,0,0,12,414.6,1018.8)" />
<use xlink:href="#f1_1p" transform="matrix(12,0,0,12,420.8,1018.8)" />
<use xlink:href="#f1_1m" transform="matrix(12,0,0,12,430,1018.8)" />
<use xlink:href="#f1_1m" transform="matrix(12,0,0,12,435.7,1018.8)" />
<use xlink:href="#f1_1p" transform="matrix(12,0,0,12,441.5,1018.8)" />
<use xlink:href="#f1_1x" transform="matrix(12,0,0,12,450.7,1018.8)" />
<use xlink:href="#f1_1k" transform="matrix(12,0,0,12,465,1018.8)" />
<use xlink:href="#f1_1o" transform="matrix(12,0,0,12,470.8,1018.8)" />
<use xlink:href="#f1_1i" transform="matrix(12,0,0,12,481.9,1018.8)" />
<use xlink:href="#f1_1s" transform="matrix(12,0,0,12,497,1018.8)" />
<use xlink:href="#f1_1g" transform="matrix(12,0,0,12,505.2,1018.8)" />
<use xlink:href="#f1_1c" transform="matrix(12,0,0,12,514.3,1018.8)" />
<use xlink:href="#f1_1e" transform="matrix(12,0,0,12,524.6,1018.8)" />
<use xlink:href="#f1_1u" transform="matrix(12,0,0,12,532.7,1018.8)" />
<use xlink:href="#f1_1k" transform="matrix(12,0,0,12,539.9,1018.8)" />
<use xlink:href="#f1_1p" transform="matrix(12,0,0,12,545.7,1018.8)" />
<use xlink:href="#f1_1o" transform="matrix(12,0,0,12,554.8,1018.8)" />
<use xlink:href="#f1_j" transform="matrix(12,0,0,12,571.2,1018.8)" />
</g>
<g clip-path="url(#c4_45)">
<g fill="#000000" >
<use xlink:href="#f3_1mh" transform="matrix(10.9,0,0,10.9,476.4,1071.4)" />
<use xlink:href="#f4_3" transform="matrix(10.9,0,0,10.9,574.6,1071.4)" />
<use xlink:href="#f4_3" transform="matrix(10.9,0,0,10.9,609.6,1071.4)" />
<use xlink:href="#f5_n" transform="matrix(8.9,0,0,8.9,213.5,1075.6)" />
<use xlink:href="#f5_n" transform="matrix(8.9,0,0,8.9,524.2,1075.6)" />
<use xlink:href="#f5_m" transform="matrix(8.9,0,0,8.9,658.9,1075.6)" />
<use xlink:href="#f5_m" transform="matrix(9.9,0,0,9.9,373.4,1066.1)" />
<use xlink:href="#f5_o" transform="matrix(9.9,0,0,9.9,406.2,1066.1)" />
</g>
</g>
<g clip-path="url(#c5_45)">
<g fill="#000000" >
<use xlink:href="#f5_m" transform="matrix(9.9,0,0,9.9,249,1075.7)" />
<use xlink:href="#f5_m" transform="matrix(9.9,0,0,9.9,559.7,1075.7)" />
<use xlink:href="#f5_n" transform="matrix(9.9,0,0,9.9,694.2,1075.7)" />
</g>
</g>
<g clip-path="url(#c4_45)">
<g fill="#000000" >
<use xlink:href="#f5_1f" transform="matrix(10.9,0,0,10.9,596.1,1071.4)" />
</g>
</g>
<g clip-path="url(#c6_45)">
<g fill="#000000" >
<use xlink:href="#f5_13" transform="matrix(11.9,0,0,11.9,312.1,1060.2)" />
<use xlink:href="#f5_2b" transform="matrix(11.9,0,0,11.9,325.2,1060.2)" />
<use xlink:href="#f5_2a" transform="matrix(11.9,0,0,11.9,334.4,1060.2)" />
<use xlink:href="#f5_1z" transform="matrix(11.9,0,0,11.9,345.6,1060.2)" />
<use xlink:href="#f5_i" transform="matrix(11.9,0,0,11.9,353.5,1060.2)" />
<use xlink:href="#f5_18" transform="matrix(11.9,0,0,11.9,358.8,1060.2)" />
<use xlink:href="#f5_1j" transform="matrix(11.9,0,0,11.9,381.3,1060.2)" />
<use xlink:href="#f5_1f" transform="matrix(11.9,0,0,11.9,392.7,1060.2)" />
<use xlink:href="#f5_j" transform="matrix(11.9,0,0,11.9,420.3,1060.2)" />
<use xlink:href="#f5_o" transform="matrix(11.9,0,0,11.9,429.8,1060.2)" />
<use xlink:href="#f5_l" transform="matrix(11.9,0,0,11.9,440.1,1060.2)" />
<use xlink:href="#f5_n" transform="matrix(11.9,0,0,11.9,450.4,1060.2)" />
<use xlink:href="#f5_1b" transform="matrix(11.9,0,0,11.9,460.7,1060.2)" />
</g>
</g>
<g clip-path="url(#c7_45)">
<g fill="#000000" >
<use xlink:href="#f5_m" transform="matrix(11.9,0,0,11.9,175.2,1071.4)" />
<use xlink:href="#f5_13" transform="matrix(11.9,0,0,11.9,185.5,1071.4)" />
<use xlink:href="#f5_18" transform="matrix(11.9,0,0,11.9,198.7,1071.4)" />
<use xlink:href="#f5_13" transform="matrix(11.9,0,0,11.9,220.9,1071.4)" />
<use xlink:href="#f5_18" transform="matrix(11.9,0,0,11.9,234.1,1071.4)" />
<use xlink:href="#f5_1f" transform="matrix(11.9,0,0,11.9,257.5,1071.4)" />
<use xlink:href="#f5_18" transform="matrix(11.9,0,0,11.9,271.9,1071.4)" />
<use xlink:href="#f5_13" transform="matrix(11.9,0,0,11.9,496.2,1071.4)" />
<use xlink:href="#f5_18" transform="matrix(11.9,0,0,11.9,509.4,1071.4)" />
<use xlink:href="#f5_13" transform="matrix(11.9,0,0,11.9,531.6,1071.4)" />
<use xlink:href="#f5_18" transform="matrix(11.9,0,0,11.9,544.8,1071.4)" />
<use xlink:href="#f5_13" transform="matrix(11.9,0,0,11.9,630.7,1071.4)" />
<use xlink:href="#f5_18" transform="matrix(11.9,0,0,11.9,643.9,1071.4)" />
<use xlink:href="#f5_13" transform="matrix(11.9,0,0,11.9,666.4,1071.4)" />
<use xlink:href="#f5_18" transform="matrix(11.9,0,0,11.9,679.6,1071.4)" />
</g>
</g>
<defs>
<path d="M354,0V148H581c3,0,6,0,9,0c52,0,91,12,113,35c24,25,36,66,36,124V1688c0,31,-9,57,-30,74c-20,16,-49,26,-90,27H296v148c161,9,295,28,404,58c110,29,221,74,334,133h119V261c0,-36,10,-65,31,-85c18,-19,45,-28,77,-28c2,0,5,0,7,0h284V0Z" 
id="f0_6"
transform="scale(4.8828125E-4,-4.8828125E-4)" />

<path d="M946,695v882L315,695ZM636,0V133H785c4,0,7,0,10,0c54,0,91,12,109,37c28,29,42,76,42,140V532H162V706L1213,2173h147V695h310V532H1360V263c0,-45,13,-77,36,-98c25,-21,60,-32,107,-32c3,0,6,0,10,0h84V0Z" 
id="f0_9"
transform="scale(4.8828125E-4,-4.8828125E-4)" />

<path d="M798,-59C611,-59,460,-10,347,87C235,183,177,303,177,440c0,92,25,163,75,218c49,54,110,80,185,81c67,-1,121,-22,163,-65c45,-41,65,-93,65,-155c0,-44,-10,-84,-29,-114C616,371,578,341,521,310C480,286,458,263,458,241c0,-35,22,-67,66,-93C586,108,659,89,742,89c3,0,7,0,10,0c1,0,3,0,5,0c106,0,191,47,254,137c66,92,98,249,98,474c0,188,-30,325,-93,411c-61,87,-141,130,-237,131c-44,-1,-91,-11,-143,-27c-52,-17,-107,-43,-167,-77c0,-81,-11,-134,-31,-163C420,947,394,932,359,932c-1,0,-3,0,-5,0c-2,0,-5,0,-7,0c-29,0,-51,7,-67,23c-19,17,-28,38,-28,64c0,38,29,98,89,177l73,977c217,-48,411,-74,584,-74c5,0,10,0,15,0c7,0,13,0,20,0c127,0,233,14,318,41c35,11,56,17,62,19c14,-2,22,-12,22,-31c0,-69,-26,-140,-78,-215c-52,-77,-119,-133,-204,-171c-79,-37,-179,-57,-301,-57c-4,0,-9,0,-13,0c-6,0,-12,0,-19,0c-91,0,-194,11,-307,31L481,1303c77,34,147,58,214,75c66,17,128,26,187,26c192,0,359,-66,495,-194c137,-130,204,-302,204,-516c0,-223,-70,-405,-215,-544C1222,9,1033,-59,798,-59Z" 
id="f0_a"
transform="scale(4.8828125E-4,-4.8828125E-4)" />

<path d="M932,89c2,0,3,0,5,0c1,0,2,0,4,0c77,0,142,39,193,119c53,79,78,217,78,408c0,185,-23,313,-72,385c-48,70,-112,107,-190,108C874,1108,805,1065,743,982C681,897,651,778,651,622c0,-179,33,-321,98,-423C795,127,856,89,932,89Zm9,-148C717,-59,538,21,406,183C254,373,177,633,177,963c0,372,93,675,278,904c165,203,368,306,611,306c156,0,280,-40,375,-117c94,-78,140,-166,140,-267c0,-75,-21,-136,-67,-182c-44,-47,-101,-70,-168,-70c-60,0,-108,18,-148,60c-40,39,-60,90,-60,151c0,44,14,87,37,131c15,25,23,46,23,63c0,23,-11,43,-34,59c-23,16,-55,23,-101,25C932,2024,834,1954,768,1813C686,1639,648,1403,651,1100c66,72,136,125,208,160c71,36,146,55,224,55c148,0,280,-53,397,-157c118,-104,176,-260,176,-467c0,-227,-66,-408,-198,-544C1326,8,1153,-59,941,-59Z" 
id="f0_b"
transform="scale(4.8828125E-4,-4.8828125E-4)" />

<path d="M-51,0L631,2261H924L241,0Z" 
id="f0_4"
transform="scale(4.8828125E-4,-4.8828125E-4)" />

<path d="M1077,-59C840,-59,625,23,431,191L252,-28H148V798H281C412,325,680,89,1082,89c2,0,3,0,4,0c3,0,7,0,10,0c162,0,287,38,378,114c92,77,138,173,138,289c0,79,-20,147,-61,203c-40,54,-103,98,-187,133c-47,17,-162,46,-343,87C775,969,597,1027,490,1086c-108,58,-187,130,-236,217c-51,84,-77,190,-77,313c0,208,71,376,210,508c140,131,328,195,563,197c226,-2,433,-78,621,-233l143,204h89l15,-784H1685c-70,220,-172,386,-304,498c-131,110,-276,167,-435,167c-135,0,-246,-39,-330,-114C530,1983,487,1894,487,1791c0,-63,17,-121,51,-173c33,-50,85,-95,159,-131c73,-37,201,-77,386,-117c217,-48,367,-90,451,-125c134,-59,235,-139,302,-234c68,-97,101,-215,101,-351c0,-209,-73,-374,-217,-497C1546,14,1332,-59,1077,-59Z" 
id="f0_k"
transform="scale(4.8828125E-4,-4.8828125E-4)" />

<path d="M993,-606C830,-460,706,-338,622,-236C486,-72,382,99,312,280C241,461,206,651,206,848c0,194,34,377,100,553c65,174,163,342,290,501c88,109,221,243,397,403l41,-84C886,2067,776,1930,704,1806C634,1681,581,1540,544,1383C506,1225,487,1043,487,839c0,-200,20,-378,58,-532C585,151,642,8,715,-118c73,-130,179,-266,319,-408l-41,-80Z" 
id="f1_4"
transform="scale(4.8828125E-4,-4.8828125E-4)" />

<path d="M952,89c102,0,183,47,244,139c80,117,119,285,119,504c0,214,-33,370,-103,467c-71,97,-156,145,-262,145c-114,0,-207,-50,-281,-149C597,1094,562,929,562,700C562,480,597,324,668,229C738,136,830,89,942,89c2,0,3,0,5,0c2,0,3,0,5,0ZM325,-14L266,0c21,116,30,238,30,365V1983c0,49,-16,87,-50,118c-34,27,-81,41,-142,42H44v118l518,31V1228c60,83,127,145,199,187c73,41,153,62,238,64c168,-2,309,-67,425,-199c116,-131,173,-304,173,-518c0,-233,-62,-421,-187,-563C1285,55,1131,-14,946,-14C859,-14,779,2,707,37C637,72,564,131,487,215C431,121,377,44,325,-14Z" 
id="f1_1d"
transform="scale(4.8828125E-4,-4.8828125E-4)" />

<path d="M70,-606l-41,80c141,142,246,278,321,406C423,8,480,151,518,307c40,154,58,332,58,530c0,206,-18,388,-55,546c-38,157,-93,298,-165,423C287,1930,177,2069,29,2221l41,84C249,2143,379,2012,461,1913C590,1754,689,1586,756,1409C823,1230,857,1043,857,848C857,654,825,471,759,301C695,128,597,-39,466,-204C373,-320,241,-454,70,-606Z" 
id="f1_5"
transform="scale(4.8828125E-4,-4.8828125E-4)" />

<path d="M455,0L275,110l6,1354H-4l-90,177H293c-62,69,-94,153,-94,249c0,30,7,67,24,108c14,40,37,78,67,116c29,39,69,71,121,97c50,24,112,38,183,38c103,-3,220,-34,350,-96c132,-66,246,-142,344,-230V1812c-99,82,-205,150,-312,203c-110,51,-204,78,-285,78C591,2090,512,2056,452,1991c-62,-64,-93,-133,-93,-203c0,-69,9,-117,28,-147H648l90,-177H455V0Z" 
id="f2_22"
transform="scale(4.8828125E-4,-4.8828125E-4)" />

<path d="M1118,0L937,110l6,755H539c-16,0,-30,0,-42,-2c-16,-3,-25,-14,-25,-27V671c-4,-43,-21,-66,-48,-66c-2,0,-4,0,-5,0c-1,0,-2,0,-2,0c-14,0,-32,17,-56,50c-25,29,-52,65,-81,106c-26,44,-49,82,-69,117c-22,34,-32,59,-32,72c0,32,14,57,43,72c27,12,82,18,163,18H943v424H-5l-90,177H1259l90,-177H1118V0Z" 
id="f2_1t"
transform="scale(4.8828125E-4,-4.8828125E-4)" />

<path d="M497,445c-17,0,-40,15,-69,45c-34,29,-69,63,-106,104c-36,39,-67,77,-91,113c-29,32,-45,54,-45,66c0,15,8,31,19,46c10,14,23,21,39,23H377v622H6l-91,177H920l91,-177H558V842h609V666H558V523c0,-54,-20,-78,-61,-78Z" 
id="f2_r"
transform="scale(4.8828125E-4,-4.8828125E-4)" />

<path d="M1707,0L1522,110l12,610c-38,-16,-75,-23,-110,-25c-37,-6,-66,-9,-87,-9c-26,0,-63,8,-110,24c-46,17,-92,39,-135,68l-4,-6c29,-52,44,-106,46,-159C1132,498,1092,408,1018,344C944,276,848,243,730,243c-2,0,-5,0,-7,0C474,246,263,445,90,839l83,49C305,576,469,420,665,420c3,0,6,0,9,0c2,0,4,0,6,0c89,0,157,32,209,96c52,57,78,126,78,205c-1,58,-17,107,-44,147c-31,40,-69,64,-116,78C772,930,724,914,668,895C613,866,573,854,545,854c-4,0,-15,8,-30,24c-15,13,-32,26,-49,43c-35,38,-53,66,-57,83c0,33,17,50,51,52c3,-1,5,-1,8,-1c14,0,29,3,47,7c23,3,46,6,69,9c53,9,91,14,116,14c26,0,59,21,99,67c43,43,66,101,67,176c0,64,-17,114,-52,152c-35,31,-78,46,-130,48c-36,-2,-73,-8,-110,-20c-36,-12,-71,-31,-105,-50c-66,-48,-107,-72,-124,-74q-1,0,-2,0c-16,0,-30,14,-44,38c-21,42,-41,86,-59,133c58,32,118,58,177,78c58,22,112,31,159,32c38,-1,86,-13,144,-38c61,-26,120,-66,175,-119c55,-54,93,-99,113,-139c17,-43,25,-87,25,-133c0,-47,-14,-90,-40,-133c-29,-43,-64,-73,-105,-95C1021,898,1147,845,1262,845c3,0,6,0,9,0c2,0,4,0,6,0c40,0,85,14,138,41c58,23,94,46,113,69v509H1149l-93,177h790l91,-177H1707V0Z" 
id="f2_z"
transform="scale(4.8828125E-4,-4.8828125E-4)" />

<path d="M619,1134c6,62,9,125,9,186c0,52,-8,99,-21,144c-17,39,-54,61,-114,64c-41,-3,-73,-22,-97,-55c-26,-34,-38,-70,-38,-112c1,-64,30,-116,90,-156c50,-42,108,-65,171,-71ZM1418,0L1234,113l5,573H776V526c-3,-36,-21,-54,-56,-54c-10,0,-32,14,-65,41c-36,23,-73,51,-111,84c-40,36,-75,69,-104,101c-32,32,-49,57,-49,75c0,15,8,31,22,46c10,14,24,21,41,23H597l8,180c-89,28,-162,58,-217,89c-60,32,-102,62,-133,94c-53,68,-78,132,-76,196c-2,61,17,119,55,176c35,56,99,85,189,88c2,0,4,0,6,0c89,0,170,-35,239,-104c71,-73,108,-200,108,-377V842h463v622H1005l-94,177h644l89,-177H1418V0Z" 
id="f2_1q"
transform="scale(4.8828125E-4,-4.8828125E-4)" />

<path d="M510,588c121,2,265,74,433,216C889,886,834,944,778,979c-54,34,-126,51,-213,52c-59,-1,-117,-21,-171,-61C342,927,315,865,313,781c0,-58,20,-103,61,-138c34,-36,80,-55,136,-55ZM1118,0L933,110l13,460C892,532,839,500,787,472C735,446,677,432,613,432C493,434,391,480,309,570C225,655,180,762,179,888c0,20,6,49,17,85c9,34,24,69,48,104c25,37,62,69,110,96c45,23,103,35,176,35c40,0,83,-4,127,-9c44,-9,84,-29,119,-61c23,-17,46,-40,72,-67c26,-29,55,-72,85,-124h8v517H0l-89,177H1923l92,-177H1118V924c100,94,194,142,286,144c29,0,63,-8,101,-21c38,-20,75,-49,110,-88c35,-39,66,-90,90,-152c23,-63,34,-139,34,-226c0,-124,-52,-266,-158,-427L1422,299c54,74,100,149,135,230c32,76,49,146,49,207c0,49,-14,87,-43,117c-28,24,-64,36,-110,38c-40,-2,-87,-19,-147,-51C1247,804,1184,758,1118,701V0Z" 
id="f2_14"
transform="scale(4.8828125E-4,-4.8828125E-4)" />

<path d="M-943,-10l-138,122l807,560V519L-943,-10Z" 
id="f2_2c"
transform="scale(4.8828125E-4,-4.8828125E-4)" />

<path d="M591,611c97,2,184,28,263,78c78,46,151,99,220,164v611H622c70,-127,108,-234,113,-323c-3,-70,-35,-128,-99,-172C574,923,492,882,391,849c0,-67,17,-122,51,-165c33,-48,82,-73,149,-73ZM1251,0L1068,110l11,518C1033,585,981,548,923,521C865,492,808,477,755,477C588,478,458,533,368,642C277,741,214,859,182,993c117,23,211,58,281,107c69,43,104,96,104,157c0,32,-11,69,-32,107c-20,39,-37,71,-54,100H0l-89,177H1392l91,-177H1251V0Z" 
id="f2_1s"
transform="scale(4.8828125E-4,-4.8828125E-4)" />

<path d="M431,0L249,110l6,1354H21l-89,177H570l90,-177H431V0Z" 
id="f2_21"
transform="scale(4.8828125E-4,-4.8828125E-4)" />

<path d="M464,0L283,110l6,1354H0l-89,177H328c-27,174,-74,299,-143,377c-73,74,-154,110,-239,112c-127,-5,-189,-103,-188,-295l-64,-25c-9,14,-23,40,-41,78c-17,37,-25,72,-28,106c3,96,34,174,95,230c56,52,130,80,217,81c240,0,399,-220,479,-664H654l92,-177H464V0Z" 
id="f2_23"
transform="scale(4.8828125E-4,-4.8828125E-4)" />

<path d="M189,755V866h984V755Z" 
id="f2_7"
transform="scale(4.8828125E-4,-4.8828125E-4)" />

<path d="M585,544c73,0,158,30,252,93c96,55,181,127,255,219c-45,47,-107,94,-181,139c-77,42,-156,67,-242,70C564,1062,483,1036,428,985C373,932,345,874,345,811C351,633,431,544,585,544ZM1274,0L1089,110l13,501C967,478,817,413,649,411c-1,0,-3,0,-4,0c-97,0,-196,46,-295,133c-51,40,-90,90,-122,151c-34,55,-49,118,-49,187c-2,90,29,171,93,246c35,35,79,64,134,85c55,18,123,28,199,29c9,-1,19,-1,29,-1c11,0,21,0,32,1c23,-1,46,-3,70,-6c52,-9,100,-28,144,-55c46,-28,86,-63,119,-105c34,-43,64,-84,90,-126h6v514H-2l-90,177H1413l92,-177H1274V0Z" 
id="f2_1w"
transform="scale(4.8828125E-4,-4.8828125E-4)" />

<path d="M419,1208c71,8,123,33,155,72c25,38,37,75,37,113c-4,84,-47,129,-128,135c-45,-2,-77,-15,-100,-41c-24,-31,-38,-65,-38,-100c0,-24,6,-52,17,-82c11,-32,29,-66,57,-97ZM1373,0L1189,113l12,478C1126,521,1057,471,995,443C935,415,874,400,811,400c-3,0,-6,0,-9,0C694,402,585,442,480,519c-49,39,-89,81,-119,130c-33,46,-49,98,-49,153c0,38,12,80,33,122c26,42,69,77,130,104c-46,31,-87,61,-124,90c-38,28,-68,57,-94,89c-52,56,-78,133,-78,229c0,70,24,130,73,180c46,45,102,68,171,69c87,-3,158,-29,211,-76c50,-52,78,-119,79,-205c0,-69,-19,-124,-61,-168c-42,-50,-100,-81,-177,-93c11,-14,29,-28,55,-41c26,-16,58,-23,95,-23c40,0,93,1,159,6c47,0,84,-3,113,-9c46,-68,70,-117,72,-147c0,-12,-2,-20,-6,-25c-7,-6,-17,-9,-34,-9c-3,0,-7,0,-11,0c-73,3,-139,8,-200,14C654,909,599,894,555,863C507,831,483,776,483,701c3,-58,26,-104,72,-137c45,-34,91,-52,139,-52c2,0,4,0,6,0c2,0,3,0,5,0c74,0,153,29,236,84c87,53,171,127,254,220v648H961l-95,177h648l90,-177H1373V0Z" 
id="f2_1m"
transform="scale(4.8828125E-4,-4.8828125E-4)" />

<path d="M843,-22C665,92,509,223,377,374C318,449,270,526,235,603c-38,80,-56,159,-56,237c0,80,27,162,81,248c29,38,64,70,107,96c41,23,88,35,145,35c90,-4,160,-32,209,-79c60,-60,115,-121,162,-182c98,136,196,203,293,203c1,0,2,0,3,0c43,-3,84,-14,124,-35c41,-21,72,-43,92,-63v401H0l-89,177H1711l93,-177H1574V0L1389,112l12,838c-44,34,-90,52,-138,54c-30,-2,-58,-5,-84,-12c-27,-10,-55,-29,-84,-59c-26,-25,-55,-64,-85,-113C978,772,941,710,903,636L762,739c25,49,51,94,74,132c-26,44,-61,82,-106,117c-44,34,-87,51,-125,54c-53,0,-107,-21,-160,-63C388,932,359,859,358,759c0,-52,6,-104,19,-152c16,-51,42,-104,81,-159C535,335,689,209,921,72L843,-22Z" 
id="f2_1v"
transform="scale(4.8828125E-4,-4.8828125E-4)" />

<path d="M1186,649c117,2,258,72,423,210c-54,81,-107,140,-161,177c-53,33,-123,50,-209,52c-60,-2,-115,-22,-166,-61C1021,984,993,921,990,840c0,-58,20,-102,61,-136c34,-36,78,-55,135,-55ZM1004,212c3,0,6,0,9,0c122,2,232,34,333,98c101,55,186,113,260,171V631c-52,-38,-103,-72,-152,-99c-50,-28,-106,-40,-171,-40c-117,1,-218,46,-299,136C900,713,857,819,854,944c0,20,8,49,20,86c8,32,23,67,46,104c26,35,61,67,108,96c45,23,103,33,174,33c40,0,81,-4,126,-12c42,-9,81,-27,117,-58c22,-15,45,-36,71,-65c24,-30,52,-71,84,-124h6v460H629c10,-182,14,-349,16,-500C645,814,576,692,435,594C495,501,576,417,680,341c49,-38,102,-69,157,-90c54,-25,109,-39,167,-39ZM1783,0L1604,115l8,169C1409,128,1221,52,1047,52c-4,0,-7,0,-10,0C830,52,614,197,385,487C310,594,257,686,228,761c-34,73,-49,113,-49,122c0,18,7,37,26,54c15,16,27,26,36,29c11,0,31,-5,62,-14c29,-12,68,-29,119,-49c16,26,27,64,35,111c6,49,9,101,9,156c0,112,-3,210,-11,294H-8l-92,177H1922l92,-177H1783V0Z" 
id="f2_16"
transform="scale(4.8828125E-4,-4.8828125E-4)" />

<path d="M1349,-364l-157,140c39,39,59,72,62,104c0,25,-26,55,-79,90L373,480c-63,44,-95,113,-95,206v778H-4l-90,177H1306l90,-177H1108V662c0,-86,-35,-129,-102,-129c-2,0,-4,0,-7,0c-5,0,-10,0,-15,0c-65,0,-136,9,-212,28L665,718c68,-8,126,-9,175,-9c4,0,8,0,12,0c50,0,75,20,75,59v696H455V665c0,-26,6,-51,17,-72c6,-25,14,-40,23,-48L1291,26c67,-43,112,-78,134,-104c17,-29,26,-59,26,-86c-1,-44,-36,-110,-102,-200Z" 
id="f2_12"
transform="scale(4.8828125E-4,-4.8828125E-4)" />

<path d="M454,-10L251,194L451,394L654,189L454,-10Zm0,827L251,1021l200,200L654,1018L454,817Z" 
id="f2_1o"
transform="scale(4.8828125E-4,-4.8828125E-4)" />

<path d="M961,74c0,0,46,97,89,147H312v65h738c0,0,-43,50,-89,146h54c0,0,94,-111,201,-165V240c0,0,-107,-55,-201,-166Z" 
id="f3_1mh"
transform="scale(0.001,-0.001)" />

<path d="M651,846v179H2490V846Z" 
id="f4_3"
transform="scale(4.8828125E-4,-4.8828125E-4)" />

<path d="M387,-21c0,0,-8,0,-16,1c0,0,-114,6,-210,63c0,0,-96,58,-96,193c0,0,0,46,27,83c0,0,28,37,76,37c0,0,37,0,68,-24c0,0,30,-24,30,-64c0,0,0,-31,-7,-45c0,0,-7,-15,-23,-27c0,0,-5,-5,-13,-9c0,0,-7,-5,-15,-9c0,0,-3,-2,-5,-3c0,0,-2,-2,-6,-3c0,0,-7,-5,-13,-10c0,0,-5,-6,-8,-15c0,0,-1,-1,-2,-4c0,0,-1,-2,1,-5c0,0,0,-2,0,-4c0,0,0,-2,1,-4c0,0,3,-15,18,-28c0,0,14,-13,32,-22c0,0,10,-6,19,-11c0,0,10,-4,18,-7c0,0,8,-4,15,-6c0,0,8,-2,14,-4c0,0,23,-4,45,-6c0,0,22,-1,46,-1c0,0,113,0,163,69c0,0,49,69,49,173c0,0,0,95,-40,170c0,0,-36,68,-134,68c-5,0,-10,-1,-16,-1l-73,-1c0,0,-3,-2,-5,-2h-6c0,0,-3,-1,-5,-1h-5c0,0,-7,0,-12,1c0,0,-5,2,-11,3c0,0,-8,2,-14,8c0,0,-6,7,-9,15c0,0,-2,1,-2,3c0,0,0,2,0,4c0,0,0,30,18,37c0,0,15,5,35,5c2,0,4,0,7,0h13c0,0,4,-2,7,-2h7c0,0,3,0,7,0c0,0,4,-1,9,-1c0,0,5,0,15,0c16,0,44,0,72,4c0,0,42,5,74,42c0,0,23,26,35,60c0,0,11,33,14,68c0,0,0,11,1,22c0,0,1,10,1,21c0,0,0,89,-40,143c0,0,-40,54,-136,54c0,0,-14,0,-31,-1c0,0,-16,-2,-33,-5c0,0,-31,-6,-60,-20c0,0,-29,-14,-44,-38c0,0,-2,0,-3,-4c0,0,-2,-4,-3,-7c0,0,0,-3,-1,-6c0,0,-1,-3,-1,-4c0,0,0,-5,2,-8c0,0,1,-3,3,-6c0,0,1,-2,3,-4c0,0,1,-2,3,-4l12,-7c0,0,17,-13,30,-33c0,0,13,-19,13,-41c0,0,0,-38,-23,-66c0,0,-23,-28,-64,-28c0,0,-46,0,-73,32c0,0,-26,33,-26,76c0,0,0,20,6,46c0,0,7,27,23,55c0,0,29,53,97,97c0,0,68,45,188,45c0,0,123,0,217,-66c0,0,95,-66,95,-200c0,0,0,-99,-63,-164c0,0,-64,-64,-155,-85v-2c0,0,113,-18,180,-90c0,0,66,-72,66,-188c0,0,0,-151,-108,-227c0,0,-108,-75,-249,-75Z" 
id="f5_n"
transform="scale(0.001,-0.001)" />

<path d="M53,-5V37L70,60L217,241L437,480c0,0,64,67,111,147c0,0,47,81,47,180c0,0,0,96,-57,148c0,0,-58,52,-153,52c0,0,-12,0,-26,-1c0,0,-14,-2,-26,-5c0,0,-58,-12,-107,-51c0,0,-48,-39,-50,-101c0,0,0,-4,2,-9c0,0,3,-4,4,-7c0,0,5,-2,9,-5c0,0,5,-3,8,-6c0,0,12,-5,25,-10c0,0,13,-5,24,-13c0,0,21,-12,32,-35c0,0,11,-23,11,-49c0,0,0,-41,-31,-64c0,0,-31,-23,-70,-23c0,0,-46,0,-71,34c0,0,-25,34,-35,77c0,0,-3,14,-4,28c0,0,-2,13,-2,26c0,0,0,35,9,65c0,0,10,31,26,60c0,0,20,35,54,65c0,0,33,30,68,50c0,0,7,3,12,5c0,0,5,2,11,5c0,0,22,10,45,17c0,0,24,6,48,9c0,0,20,4,39,5c0,0,19,2,36,2h17c0,0,119,-7,219,-84c0,0,100,-77,100,-207c0,0,0,-111,-54,-187c0,0,-54,-77,-135,-144L343,266L261,187L210,135H569c0,0,3,0,7,0c16,0,60,1,77,11c0,0,20,13,31,65c0,0,2,6,3,13c0,0,2,7,3,15l17,85h64L744,-5c0,0,-80,1,-160,4c0,0,-80,1,-161,1c0,0,-46,0,-93,0c0,0,-46,-1,-92,-1c0,0,-46,-1,-92,-2c0,0,-47,-1,-93,-2Z" 
id="f5_m"
transform="scale(0.001,-0.001)" />

<path d="M473,350V827L131,350ZM313,0V66c0,0,15,-2,30,-2h61c0,0,14,2,28,5c0,0,14,3,24,12c0,0,11,12,14,28c0,0,3,16,3,33c0,0,0,5,0,8c0,0,0,4,0,7c0,0,0,3,0,7c0,0,0,4,0,7v98H42v82l523,727h63c0,0,-2,-20,-4,-38c0,0,-1,-18,-3,-36c0,0,-1,-18,-2,-36c0,0,-1,-17,-1,-36l-3,-84V350H805V267H615c0,0,0,-10,0,-20c0,0,0,-10,0,-19c0,0,0,-10,0,-19c0,0,0,-10,0,-20c0,0,0,-4,0,-9c0,0,0,-4,0,-9c0,0,0,-8,0,-14c0,0,-1,-6,0,-13c0,0,0,-17,3,-34c0,0,3,-17,14,-31c0,0,17,-9,37,-12c0,0,20,-3,40,-3h42c0,0,4,1,7,1c2,0,4,-1,5,-2c0,0,1,-2,-1,-16c0,0,0,-4,0,-10c0,0,0,-5,0,-11V0Z" 
id="f5_o"
transform="scale(0.001,-0.001)" />

<path d="M596,45c0,0,169,0,238,119c0,0,69,119,84,263c0,0,3,30,4,61c0,0,2,32,2,62v2c0,0,0,39,-3,97c0,0,-3,57,-17,118c0,0,-23,108,-92,199c0,0,-68,90,-220,90c0,0,-169,0,-238,-119c0,0,-69,-120,-84,-263c0,0,-3,-31,-4,-62c0,0,-2,-31,-2,-62c0,0,0,-41,3,-98c0,0,3,-58,17,-119c0,0,23,-108,92,-198c0,0,68,-90,220,-90Zm0,-66c0,0,-239,0,-383,174C213,153,68,329,68,550c0,0,0,44,9,93c0,0,8,48,25,98c0,0,49,144,170,264c0,0,122,119,320,119c0,0,239,0,383,-176c0,0,144,-176,145,-397q0,1,0,1v-2q0,1,0,1c0,-4,-1,-48,-9,-93c0,0,-8,-48,-25,-99c0,0,-49,-143,-170,-262C916,97,794,-21,596,-21Z" 
id="f5_1f"
transform="scale(0.001,-0.001)" />

<path d="M582,-21c0,0,-231,0,-372,161C210,140,68,303,68,524c0,0,0,113,31,217c0,0,31,104,104,191c0,0,73,90,166,141c0,0,94,51,211,51h13c0,0,7,0,13,-1c0,0,71,-3,136,-29c0,0,66,-26,115,-75v1l62,97h57L997,676l-65,-3c0,0,-2,6,-4,13c0,0,-2,6,-4,14c0,0,-9,27,-18,56c0,0,-8,28,-19,55c0,0,-4,11,-8,20c0,0,-4,9,-8,19c0,0,-16,35,-33,64c0,0,-18,29,-47,56c0,0,-4,5,-9,8c0,0,-5,4,-9,9c0,0,-41,35,-90,52c0,0,-48,17,-101,17c0,0,-90,0,-159,-51c0,0,-69,-50,-102,-133c0,0,-14,-32,-23,-64c0,0,-8,-32,-14,-62c0,0,-11,-54,-14,-109c0,0,-3,-55,-3,-114c0,0,0,-11,0,-22c0,0,0,-12,0,-23c0,0,6,-161,73,-297c0,0,68,-136,265,-136c0,0,159,0,240,98c0,0,82,99,105,244l70,-11c0,0,-26,-186,-136,-292C884,84,773,-21,582,-21Z" 
id="f5_13"
transform="scale(0.001,-0.001)" />

<path d="M376,34c0,0,90,0,127,64c0,0,37,64,47,142c0,0,3,28,5,54c0,0,1,27,1,52c0,0,0,35,0,65c0,0,-1,31,-6,61c0,0,-3,22,-7,42c0,0,-5,21,-14,44c0,0,-20,49,-54,80c0,0,-35,31,-91,31v2c0,0,-86,-2,-123,-66c0,0,-37,-64,-46,-142c0,0,-4,-30,-6,-61c0,0,-1,-30,-1,-56c0,0,0,-26,2,-58c0,0,2,-33,8,-66c0,0,13,-70,49,-129c0,0,35,-59,109,-59Zm1,-55c0,0,-156,0,-240,111c0,0,-85,112,-85,257c0,0,0,63,11,112c0,0,10,50,38,96c0,0,7,15,17,29c0,0,10,14,22,29c0,0,43,53,104,85c0,0,60,32,130,32c0,0,164,0,251,-116c0,0,87,-116,87,-268c0,0,0,-153,-87,-261C625,85,538,-21,377,-21Z" 
id="f5_2b"
transform="scale(0.001,-0.001)" />

<path d="M41,0V53h70c0,0,2,2,5,2h4c0,0,10,0,18,2c0,0,8,3,16,7c0,0,5,3,8,9c0,0,3,5,3,11c0,0,1,3,1,5c0,0,0,3,0,6V522c0,0,0,2,0,4c0,0,0,3,0,6c0,0,0,19,-1,38c0,0,0,18,-6,36c0,0,-5,11,-13,13c0,0,-9,3,-18,4h-3c0,0,-2,0,-3,1c0,0,-2,1,-3,1l-78,4v65l263,15V579h3c0,0,26,44,55,73c0,0,29,29,58,46c0,0,32,19,63,25c0,0,30,7,58,7c0,0,20,0,45,-4c0,0,25,-5,51,-16c0,0,38,-15,74,-47c0,0,35,-32,53,-85c0,0,9,-25,15,-59c0,0,5,-35,5,-87V105c0,0,0,-4,0,-7c0,0,0,-3,1,-5c0,0,0,-3,0,-6c0,0,0,-3,0,-6c0,0,2,-9,9,-15c0,0,7,-6,14,-8c0,0,2,-1,3,-1h2c0,0,8,0,16,-1c0,0,8,-1,16,-1c0,0,8,0,16,-1c0,0,8,-1,18,-1h27V0H520V53c0,0,9,-1,19,-1h19c0,0,4,0,9,1c0,0,5,0,9,0c0,0,6,0,11,1c0,0,4,1,9,1c0,0,3,0,8,1c0,0,4,1,7,1c0,0,6,1,13,3c0,0,6,3,9,7c0,0,1,2,3,4c0,0,1,2,3,5v2c0,0,1,0,2,1c0,0,1,2,1,4c0,0,1,6,1,11c0,0,0,5,0,11V438c0,0,0,30,-1,49c0,0,-2,20,-3,36c0,0,-2,4,-3,8c0,0,0,4,0,8c0,0,-6,46,-48,74c0,0,-43,27,-92,27c0,0,-48,0,-91,-29c0,0,-42,-29,-66,-72c0,0,-6,-10,-11,-21c0,0,-4,-11,-7,-21c0,0,-11,-33,-13,-65c0,0,-1,-33,-1,-70V108c0,0,1,-4,1,-8c0,0,0,-4,0,-7c0,0,0,-1,0,-3c0,0,0,-1,2,-3c0,0,0,-1,0,-3c0,0,0,-1,0,-3c0,0,1,-15,17,-21c0,0,15,-5,33,-7h71V0Z" 
id="f5_2a"
transform="scale(0.001,-0.001)" />

<path d="M363,-22c0,0,-143,0,-227,108c0,0,-84,108,-84,243c0,0,0,168,86,285c0,0,87,116,267,116c0,0,50,0,90,-13c0,0,40,-14,78,-46c0,0,24,-20,42,-49c0,0,18,-29,18,-63c0,0,0,-42,-21,-76c0,0,-21,-34,-70,-34c0,0,-38,0,-65,22c0,0,-26,23,-26,62c0,0,0,16,4,26c0,0,3,9,10,19c0,0,3,4,6,10c0,0,4,5,7,9c0,0,2,2,3,4c0,0,2,3,3,6h1c0,0,1,1,1,3c0,0,3,3,4,6c0,0,2,3,2,4c0,0,0,16,-15,26c0,0,-14,11,-32,16c0,0,-13,4,-24,6c0,0,-12,1,-18,1c0,0,-85,0,-129,-64c0,0,-43,-64,-57,-142c0,0,-5,-26,-7,-50c0,0,-2,-25,-2,-48c0,0,0,-12,0,-23c0,0,1,-12,1,-24c0,0,6,-93,51,-172c0,0,44,-79,157,-79c0,0,70,0,113,46c0,0,43,46,66,107v2l55,-23c0,0,-25,-69,-68,-127C583,72,541,14,467,-5c0,0,-12,-3,-26,-7c0,0,-15,-4,-29,-5c0,0,-13,-3,-26,-4c0,0,-12,-1,-23,-1Z" 
id="f5_1z"
transform="scale(0.001,-0.001)" />

<path d="M211,-21c0,0,-38,0,-68,26c0,0,-30,28,-30,66v1c0,0,0,38,29,66c0,0,29,27,68,27c0,0,38,0,66,-28c0,0,28,-28,28,-66c0,0,0,-37,-28,-65c0,0,-28,-27,-65,-27Z" 
id="f5_i"
transform="scale(0.001,-0.001)" />

<path d="M45,0V69c0,0,13,0,33,0c0,0,20,1,40,4c0,0,37,5,66,15c0,0,30,10,30,30V985c0,0,0,26,-28,35c0,0,-28,10,-62,11H58c0,0,-7,0,-13,2v70H552v-69c0,0,-11,-1,-28,-2c0,0,-18,-1,-36,-1c0,0,-22,-1,-41,-2c0,0,-19,-1,-28,-2c0,0,-14,-2,-25,-13c0,0,-10,-12,-12,-26c0,0,-1,-1,-1,-3c0,0,0,-3,0,-4V609H891V993c0,0,0,11,-9,20c0,0,-8,9,-20,12c0,0,-11,3,-31,5c0,0,-20,1,-40,1c0,0,-9,2,-17,2H723v70h505v-69c0,0,-10,-1,-20,-1h-21c0,0,-24,0,-48,-1c0,0,-24,-1,-48,-5c0,0,-18,-4,-26,-10c0,0,-8,-7,-8,-26V119c0,0,0,-17,13,-27c0,0,13,-11,32,-16c0,0,19,-4,40,-6c0,0,21,-1,42,-1h21c0,0,10,0,20,-2V0H720V69h78c0,0,33,1,61,10c0,0,29,10,30,43l2,408H381V115c0,0,0,-16,12,-27c0,0,12,-12,27,-15c0,0,10,-1,27,-3c0,0,18,-1,36,-1c0,0,20,-2,38,-2h28V0Z" 
id="f5_18"
transform="scale(0.001,-0.001)" />

<path d="M527,-22c0,0,-15,0,-39,3c0,0,-24,2,-48,6c0,0,-28,5,-53,10c0,0,-25,5,-40,11c0,0,-8,3,-15,7c0,0,-7,4,-14,7c0,0,-29,15,-57,32c0,0,-27,18,-50,39L144,-9H87L78,419l66,4c0,0,0,-3,0,-5c0,0,1,-2,1,-5c0,0,0,-2,1,-4c0,0,1,-2,1,-5c0,0,29,-149,123,-254c0,0,95,-106,257,-106c0,0,50,0,96,11c0,0,46,11,84,44c0,0,34,28,55,65c0,0,20,38,20,81c0,0,0,12,-1,26c0,0,-2,15,-5,29c0,0,-6,24,-17,48c0,0,-10,23,-26,39c0,0,-24,26,-52,39c0,0,-29,13,-64,22L463,489c0,0,-12,2,-24,5c0,0,-11,3,-24,6c0,0,-58,14,-111,32c0,0,-54,18,-104,56c0,0,-52,40,-76,97c0,0,-23,58,-23,122c0,0,0,154,93,236c0,0,93,82,241,82c0,0,83,0,152,-25c0,0,68,-26,129,-82l62,98h55L851,717H785c0,0,-29,128,-114,234c0,0,-84,105,-231,105c0,0,-43,0,-85,-10c0,0,-42,-10,-77,-39c0,0,-29,-24,-46,-59c0,0,-17,-36,-17,-74c0,0,0,-84,55,-124c0,0,55,-41,126,-59L645,627c0,0,62,-17,107,-41c0,0,45,-24,85,-77c0,0,35,-46,50,-97c0,0,14,-51,14,-109c0,0,0,-75,-31,-142c0,0,-31,-66,-91,-112C779,49,745,23,703,8c0,0,-43,-14,-89,-22c0,0,-21,-5,-43,-6c0,0,-23,-2,-44,-2Z" 
id="f5_1j"
transform="scale(0.001,-0.001)" />

<path d="M-34,-22L373,1126h88L49,-22Z" 
id="f5_j"
transform="scale(0.001,-0.001)" />

<path d="M163,0V69h72c0,0,3,0,7,0c22,0,91,1,114,14c0,0,27,15,27,68V808c0,0,0,51,-12,71c0,0,-12,20,-84,20H153v65c0,0,4,-1,11,-1c1,0,3,0,5,1c0,0,8,0,16,0c0,0,82,6,160,32c0,0,78,26,141,80l49,2V185c0,0,0,-78,18,-98c0,0,18,-20,93,-20l112,2V0Z" 
id="f5_l"
transform="scale(0.001,-0.001)" />

<path d="M46,0V69c0,0,21,-1,45,-1c6,0,13,0,19,0c0,0,32,1,63,5c0,0,15,6,27,15c0,0,11,8,13,25c0,0,1,12,1,24c0,0,0,11,0,22V946c0,0,0,4,0,10c0,0,0,6,0,12c0,0,0,7,-1,13c0,0,0,6,-2,12c0,0,-9,23,-22,28c0,0,-13,6,-34,9h-5c0,0,-24,3,-51,3H46v70H549v-69c0,0,-34,-1,-67,-2c0,0,-33,-1,-65,-5c0,0,-6,-4,-11,-7c0,0,-5,-4,-12,-7c0,0,-10,-17,-12,-35c0,0,-1,-19,-1,-37c0,0,0,-3,0,-6c0,0,0,-3,0,-6V490L772,886c0,0,4,5,11,12c0,0,7,8,13,15c0,0,8,10,15,19c0,0,7,9,11,18c0,0,6,9,9,18c0,0,3,10,3,17c0,0,0,17,-13,29c0,0,-14,11,-29,14h-5c0,0,-8,0,-15,1c0,0,-8,1,-16,1c0,0,-15,1,-30,2c0,0,-15,1,-31,1v70h471v-69c0,0,-84,-4,-146,-37c0,0,-62,-33,-118,-90c0,0,-3,-1,-5,-3c0,0,-1,-3,-5,-6L676,684L1041,156c0,0,1,-5,3,-8c0,0,3,-3,4,-6c0,0,6,-8,13,-16c0,0,6,-8,13,-16c0,0,11,-15,26,-24c0,0,16,-10,32,-13c0,0,13,-1,24,-2c0,0,11,-1,24,-2c0,0,12,0,23,-1c0,0,12,-1,24,-1V0H708V69c0,0,4,-2,10,-2h35c0,0,23,0,47,3c0,0,24,2,45,8c0,0,5,1,9,5c0,0,5,3,8,6c0,0,3,3,3,6c0,0,0,4,0,7c0,0,0,13,-6,23c0,0,-6,11,-12,22c0,0,-5,4,-8,9c0,0,-3,4,-6,7L559,565L381,380V212c0,0,0,-6,0,-11c0,0,0,-5,0,-12c0,0,0,-21,0,-42c0,0,0,-20,3,-42c0,0,1,-3,4,-6c0,0,2,-4,5,-9c0,0,1,-1,2,-3c0,0,1,-1,2,-3c0,0,4,-1,6,-3c0,0,2,-2,5,-3c0,0,2,-2,5,-2c0,0,3,-1,4,-3c0,0,3,0,7,0c0,0,4,-1,7,-1c0,0,3,0,7,-1c0,0,4,-1,7,-1L549,69V0Z" 
id="f5_1b"
transform="scale(0.001,-0.001)" />

<path d="M1795,-22L1511,177l15,451c-35,-11,-72,-17,-111,-17c-6,0,-20,5,-43,12c-24,6,-52,16,-81,26c-61,19,-108,39,-142,60l-6,-5c24,-62,35,-120,35,-175C1176,423,1134,333,1051,261C970,183,857,144,713,142C587,144,461,203,336,321C214,431,105,576,14,758l113,69C269,533,428,388,603,388c94,0,172,25,233,75c59,47,90,108,93,182c-3,90,-23,165,-63,223C773,813,662,768,530,736c-37,43,-72,89,-108,139c-39,52,-58,84,-58,97c-2,13,23,27,74,41c286,53,428,153,428,302c-1,75,-42,112,-122,112c-1,0,-3,0,-5,0c-4,0,-9,1,-14,1c-36,0,-91,-10,-164,-30c-86,-23,-179,-55,-278,-98L139,1571c63,26,136,50,217,73c82,21,145,32,189,35c69,-1,138,-17,205,-50c64,-32,124,-74,180,-127c57,-52,103,-107,138,-167c32,-59,49,-119,49,-175c0,-39,-11,-74,-29,-109c-20,-38,-57,-75,-109,-111c83,-75,162,-114,236,-114c1,0,3,0,4,1c3,-1,5,-1,8,-1c69,0,133,20,192,59c66,32,100,70,101,114v385H1317l-150,257h779l152,-257H1795V-22Z" 
id="f6_9"
transform="scale(4.8828125E-4,-4.8828125E-4)" />

<path d="M594,938c42,29,78,70,112,125c29,54,46,116,47,190c0,58,-14,99,-38,124c-27,21,-63,32,-107,32c-56,-3,-101,-25,-134,-66c-36,-41,-54,-93,-54,-156c0,-98,58,-180,174,-249ZM1517,-22L1233,174l15,242C1178,356,1106,306,1033,263C960,220,885,199,808,199c-2,0,-5,0,-7,0c-2,0,-4,0,-6,0c-50,0,-110,18,-184,52C535,283,460,332,387,394C322,455,267,516,217,576c-52,55,-78,89,-78,102c0,13,41,32,127,61c76,29,153,69,227,121C261,990,145,1128,145,1276c2,107,37,194,107,262c69,66,154,100,257,103c61,0,120,-17,177,-49c57,-35,108,-81,154,-134C940,1343,990,1224,993,1098C996,912,837,735,516,565C493,461,535,411,643,411c81,2,182,40,301,113c118,72,217,160,298,261v599H1045L882,1641h788l154,-257H1517V-22Z" 
id="f6_g"
transform="scale(4.8828125E-4,-4.8828125E-4)" />

<path d="M560,501c33,0,73,11,118,29c48,17,97,38,150,63c110,56,205,114,286,171v37C984,912,840,969,684,972C603,969,536,941,484,886C428,827,400,753,400,668C405,558,455,503,553,501c2,0,5,0,7,0ZM1384,-22L1100,176l17,287C964,347,825,287,703,287c-2,0,-3,0,-5,0c-2,0,-5,0,-8,0c-66,0,-129,18,-190,52C434,370,374,413,321,466C206,578,147,697,145,823c0,115,46,210,139,288c92,76,209,117,355,119c44,0,88,-5,133,-12c44,-8,79,-22,105,-40c61,-44,137,-118,232,-222v428H3l-150,257H1532l153,-257H1384V-22Z" 
id="f6_n"
transform="scale(4.8828125E-4,-4.8828125E-4)" />

<path d="M490,-22L202,177l21,1207H3l-150,257H706L859,1384H490V-22Z" 
id="f6_r"
transform="scale(4.8828125E-4,-4.8828125E-4)" />

<path d="M652,60c2,0,4,0,6,0c2,0,4,0,6,0c119,0,224,45,311,137c90,92,134,208,134,348V753C846,717,660,658,550,576C469,513,429,426,429,313c0,-81,22,-143,63,-188C533,82,586,60,652,60ZM597,-43C451,-43,339,-13,263,49C186,112,148,193,148,292c0,148,87,270,263,368c174,98,408,163,698,197v226c0,80,-30,147,-93,205c-61,56,-139,85,-234,87c-87,-2,-163,-20,-227,-58c-45,-29,-68,-57,-68,-83c0,-16,13,-41,34,-74c27,-43,41,-81,41,-112c0,-49,-15,-87,-44,-116C489,903,453,888,407,888c-2,0,-4,0,-7,0c-2,0,-4,0,-6,0c-48,0,-88,16,-121,50c-33,35,-51,80,-51,135c0,100,58,192,172,278c115,84,264,126,451,128c173,-2,304,-40,394,-113c90,-77,136,-168,136,-275V295c0,-72,11,-124,32,-156c22,-34,48,-50,81,-50c2,0,3,0,5,0c1,0,3,0,5,0c38,0,78,15,118,44l54,-76C1595,-10,1513,-43,1421,-43c-70,0,-130,16,-177,51c-48,35,-91,99,-126,189C1022,99,937,35,863,3C788,-28,701,-43,597,-43Z" 
id="f1_1c"
transform="scale(4.8828125E-4,-4.8828125E-4)" />

<path d="M-274,1578c-47,80,-99,161,-157,245c-57,82,-103,139,-135,168c-47,58,-104,90,-171,94c-15,-1,-40,-4,-69,-12c-29,-12,-58,-23,-88,-32c-14,20,-38,63,-74,130c-38,63,-58,104,-61,124c3,9,11,17,23,24c12,6,25,9,40,12c37,3,67,7,92,7c1,0,2,0,3,0c88,0,189,-60,305,-179c70,-78,142,-174,214,-292c75,-121,124,-203,147,-251l-69,-38Z" 
id="f2_27"
transform="scale(4.8828125E-4,-4.8828125E-4)" />

<path d="M-77,1864l-203,203l200,200L122,2064L-77,1864Z" 
id="f2_13"
transform="scale(4.8828125E-4,-4.8828125E-4)" />

<path d="M972,819c44,0,94,12,148,38c55,21,102,47,142,80v527H680V924c33,-21,76,-44,130,-67c52,-26,107,-38,162,-38ZM837,0C591,280,419,483,321,610C225,735,177,820,179,866c0,28,9,52,27,77c17,20,37,30,58,32c11,-2,26,-5,45,-9c16,-13,35,-25,53,-36c46,-30,78,-47,96,-48c1,-1,2,-1,3,-1c14,0,25,20,29,62c7,45,10,155,10,333c0,67,-3,130,-13,188H-1l-91,177H1581l90,-177H1441V0L1256,110l12,591c-95,-36,-174,-56,-238,-58c-2,0,-4,0,-6,0c-27,0,-74,10,-139,32c-34,13,-71,29,-106,54c-36,23,-72,50,-105,84C657,793,636,770,611,744C582,717,555,695,532,680C464,645,434,620,438,608c4,-15,62,-78,173,-188C717,307,822,196,924,87L837,0Z" 
id="f2_1z"
transform="scale(4.8828125E-4,-4.8828125E-4)" />

<path d="M1105,842v622H553V842ZM1285,0L1098,110l7,556H553V523c0,-52,-19,-78,-56,-78c-1,0,-2,0,-4,0c0,0,-1,-1,-2,-1c-15,0,-37,16,-65,46c-33,29,-70,63,-107,104c-38,39,-70,77,-96,113c-29,32,-44,54,-44,66c0,15,6,31,17,46c10,14,24,21,42,23H374v622H2l-90,177H1425l91,-177H1285V0Z" 
id="f2_1r"
transform="scale(4.8828125E-4,-4.8828125E-4)" />

<path d="M883,-22C668,208,478,423,313,626C255,700,218,755,202,791c-16,36,-23,60,-23,75c0,28,7,52,26,77c18,20,36,30,59,32c11,-2,25,-5,43,-9c17,-13,35,-25,54,-36c44,-30,76,-47,94,-48c2,-1,3,-1,4,-1c14,0,23,20,27,62c7,44,9,155,9,333c0,67,-5,130,-15,188H-2l-90,177H947l90,-177H677V924c0,-49,-11,-93,-35,-131C620,750,596,720,568,703C500,655,468,625,472,611c0,-8,18,-29,52,-64c34,-35,73,-79,122,-134C753,301,860,191,966,79L883,-22Z" 
id="f2_1u"
transform="scale(4.8828125E-4,-4.8828125E-4)" />

<path d="M619,634c140,0,211,76,211,234v596H457V801c1,-57,23,-100,61,-127c38,-28,72,-40,101,-40ZM709,500c-32,0,-72,10,-118,33c-46,23,-94,54,-143,93c-45,37,-84,80,-118,129c-35,49,-52,98,-52,148v561H-4l-90,177H1135l90,-177H1008V759C1007,681,976,620,918,574C863,524,793,500,709,500Z" 
id="f2_k"
transform="scale(4.8828125E-4,-4.8828125E-4)" />

<path d="M89,0V118H248c47,0,80,9,103,32c22,20,34,52,34,93v875c0,54,-17,97,-49,124c-33,28,-81,43,-145,44H73v118l578,31V218c0,-33,9,-58,26,-70c26,-21,56,-30,95,-30H946V0ZM474,1922c-43,0,-81,17,-113,47c-33,31,-51,71,-51,115c0,41,18,79,52,113c34,32,73,49,118,50c46,-1,85,-18,119,-50c35,-34,52,-72,52,-116c0,-44,-17,-81,-51,-112c-32,-30,-70,-47,-114,-47c-2,0,-4,0,-6,0c-2,0,-4,0,-6,0Z" 
id="f1_1k"
transform="scale(4.8828125E-4,-4.8828125E-4)" />

<path d="M614,710c1,0,2,0,3,0c55,0,110,16,168,49c61,26,110,54,144,83v622H455V952C458,790,511,710,614,710ZM1108,0L923,112l12,511C865,578,788,555,706,553c-2,0,-4,0,-6,0c-31,0,-69,12,-112,34c-46,24,-93,55,-140,91c-46,37,-86,81,-120,130c-33,48,-50,98,-50,150v506H-4l-90,177H1920l92,-177H1108V941c56,44,117,84,181,119c69,29,129,45,179,48c29,-2,63,-8,101,-22c40,-20,76,-50,112,-88c35,-40,65,-89,90,-152c24,-64,35,-139,35,-226c0,-120,-52,-262,-158,-423L1488,342c55,74,99,150,135,229c33,77,48,146,48,208c0,49,-13,87,-41,116c-29,23,-66,37,-111,37c-42,-3,-104,-23,-187,-64C1253,825,1176,773,1108,715V0Z" 
id="f2_1g"
transform="scale(4.8828125E-4,-4.8828125E-4)" />

<path d="M-205,1797c-115,3,-216,42,-301,122c-84,72,-150,154,-197,246l75,38c120,-166,238,-250,354,-250c89,1,160,36,215,102c57,63,93,122,112,176L215,2099C183,2015,127,1945,47,1888c-80,-61,-164,-91,-252,-91Z" 
id="f2_29"
transform="scale(4.8828125E-4,-4.8828125E-4)" />

<path d="M636,1069c58,62,85,141,85,239c-4,145,-56,218,-154,220c-51,-3,-93,-23,-130,-58c-41,-35,-61,-81,-61,-135c6,-64,33,-117,79,-163c26,-23,54,-41,84,-57c31,-20,63,-33,97,-46ZM1387,0L1202,110l10,484C1167,548,1109,510,1037,477C966,440,895,422,827,422c-124,1,-225,26,-301,73C448,536,390,579,350,623C248,717,196,776,196,799c-3,8,41,32,134,72c89,35,163,78,225,127c-252,82,-378,197,-376,343c0,69,23,139,72,211c48,74,120,110,215,113c24,-1,61,-6,107,-15c47,-15,95,-38,145,-69c50,-33,95,-75,127,-123c35,-54,53,-118,55,-196C898,1144,859,1045,778,964C695,880,593,807,472,746c11,-69,35,-118,73,-146c37,-29,89,-42,158,-42c95,1,189,33,282,97c91,60,164,124,222,194v615H1022l-96,177h600l90,-177H1387V0Z" 
id="f2_1k"
transform="scale(4.8828125E-4,-4.8828125E-4)" />

<path d="M1259,-43C1071,-43,898,2,741,96C584,189,457,324,364,501C269,678,222,872,222,1083c0,225,48,434,146,631c96,196,220,344,371,443c153,98,317,148,491,148c98,0,192,-16,284,-48c90,-33,191,-89,298,-170l95,218h119l44,-915H1951c-66,255,-151,445,-252,569c-127,151,-277,227,-452,229c-190,-2,-344,-86,-463,-254C666,1763,607,1479,607,1076C607,735,674,477,811,299C929,148,1092,73,1303,73c185,0,339,58,463,176c125,118,206,296,245,535h103C2082,516,1991,312,1836,170C1684,26,1493,-43,1259,-43Z" 
id="f1_n"
transform="scale(4.8828125E-4,-4.8828125E-4)" />

<path d="M1073,-43C836,-43,629,29,455,177L281,-28H177V842H281C324,603,422,416,571,280C721,141,891,73,1079,73c152,0,278,45,374,133c96,87,144,194,144,323c0,70,-17,133,-52,188c-36,53,-92,99,-170,137c-76,37,-228,83,-454,136c-247,58,-417,125,-508,199C286,1291,222,1439,222,1630c0,197,65,358,194,486c129,125,293,189,495,189c96,0,189,-18,276,-50c86,-35,177,-92,269,-171l141,208h103V1464H1597c-63,250,-158,434,-282,550c-123,114,-267,172,-427,174C753,2186,643,2147,558,2067C472,1988,429,1890,429,1777c0,-72,17,-136,49,-190c32,-55,80,-97,145,-131c65,-34,185,-72,362,-110c251,-57,427,-115,529,-170c102,-58,179,-128,229,-212c51,-87,75,-186,75,-299c0,-205,-69,-375,-208,-509C1471,21,1291,-43,1073,-43Z" 
id="f1_12"
transform="scale(4.8828125E-4,-4.8828125E-4)" />

<path d="M148,0V81L597,590c252,270,402,440,451,512c73,97,127,194,159,287c34,93,49,179,49,255c0,125,-34,224,-104,298c-69,72,-165,108,-290,110C723,2050,608,2017,521,1949C434,1881,388,1810,388,1736c0,-28,8,-48,20,-58c12,-16,40,-28,81,-37c105,-25,157,-87,157,-183c0,-54,-17,-98,-52,-132c-33,-34,-77,-50,-129,-50c-2,0,-4,0,-7,0c-1,0,-3,0,-4,0c-61,0,-114,29,-161,84c-47,56,-71,133,-71,227c0,103,27,197,79,283c53,84,134,153,243,209c108,54,224,81,348,83c122,-2,237,-28,342,-81c107,-54,185,-124,239,-209c53,-88,79,-181,79,-283c0,-72,-12,-144,-39,-214c-26,-75,-66,-142,-118,-205C1308,1060,1218,967,1124,891L720,550C617,461,542,390,495,330c-45,-60,174,-90,655,-90c12,0,24,0,36,0c2,0,5,0,8,0c72,0,124,20,155,58c32,40,69,150,112,330h110L1517,0Z" 
id="f7_4"
transform="scale(4.8828125E-4,-4.8828125E-4)" />

<path d="M577,534c4,0,9,0,14,1c3,0,6,0,9,0c50,0,105,12,168,35L498,1013C468,996,435,964,403,918C365,871,345,817,345,758c3,-84,31,-142,83,-176c45,-32,95,-48,149,-48Zm279,83c97,51,148,121,152,208c-1,98,-29,168,-79,211c-49,38,-101,58,-154,58c-48,0,-84,-3,-110,-8c-26,-6,-52,-15,-80,-24L856,617ZM1296,0L1112,110l11,498h-8c-17,-23,-38,-46,-61,-69c-24,-24,-53,-49,-85,-70C906,423,820,400,709,400c-4,0,-7,0,-11,0C544,402,419,452,324,553C229,651,180,756,179,869c0,40,9,81,29,124c20,41,47,81,87,118c79,76,200,117,362,119c105,0,194,-25,266,-72c70,-55,133,-124,189,-209h6v515H-8l-92,177H1436l90,-177H1296V0Z" 
id="f2_1p"
transform="scale(4.8828125E-4,-4.8828125E-4)" />

<path d="M1496,0L1311,112l6,886H866C937,927,993,862,1033,799c35,-61,52,-128,52,-203c-2,-89,-32,-154,-92,-197C937,354,878,331,817,331c-2,0,-4,0,-6,1c-2,-1,-5,-1,-7,-1c-77,0,-144,23,-205,68C536,440,478,495,426,565C327,706,238,865,163,1042l103,43C327,937,393,813,463,713c38,-55,85,-99,142,-134c53,-40,101,-58,145,-58c55,0,95,17,121,52c26,34,40,76,40,128c0,42,-11,83,-31,124c-21,37,-50,73,-84,107c-75,73,-151,131,-231,177l26,66h726v289H-11l-92,177H1635l91,-177H1496V0Z" 
id="f2_1a"
transform="scale(4.8828125E-4,-4.8828125E-4)" />

<path d="M133,0V118c108,3,195,38,260,107c64,65,94,149,94,247V2018l-13,17c-36,46,-66,76,-92,87c-32,14,-76,20,-131,21H133v118H680L2040,460V1762c0,129,-28,227,-87,291c-54,57,-133,87,-239,90v118h784V2143c-80,-1,-139,-12,-177,-33c-40,-25,-74,-64,-104,-124c-29,-59,-44,-124,-44,-192V0H2027L620,1867V492c0,-127,34,-219,98,-280c64,-61,165,-93,303,-94V0Z" 
id="f1_y"
transform="scale(4.8828125E-4,-4.8828125E-4)" />

<path d="M1207,73c131,0,246,35,345,106c100,69,179,180,237,331c60,153,89,352,89,599c0,269,-28,480,-84,631c-55,151,-133,264,-236,338c-100,72,-215,108,-342,110c-198,-2,-359,-83,-483,-246C610,1777,547,1509,547,1140C547,736,611,457,738,304C863,150,1021,73,1207,73Zm-6,-116C1021,-43,849,3,691,102C532,200,403,342,307,527C212,709,162,914,162,1140c0,220,47,418,141,596c93,177,221,316,383,418c162,101,330,151,506,151c191,0,371,-50,537,-149c165,-100,297,-240,392,-419c94,-179,140,-380,140,-602c0,-226,-46,-428,-142,-608C2026,347,1894,206,1729,107C1563,5,1387,-43,1201,-43Z" 
id="f1_z"
transform="scale(4.8828125E-4,-4.8828125E-4)" />

<path d="M148,0V118H332c32,0,58,6,76,20c20,13,34,32,43,56c4,15,7,58,7,130V1951c0,84,-9,137,-27,159c-18,21,-60,32,-124,33H148v118h961V2143H932c-61,-1,-102,-12,-121,-33c-18,-22,-27,-75,-27,-159V1256H1818v695c0,87,-9,141,-27,160c-19,22,-62,31,-130,32H1493v118h976V2143H2290c-44,-1,-75,-6,-93,-18c-18,-11,-34,-30,-44,-56c-6,-19,-10,-65,-10,-136V312c0,-80,7,-127,20,-142c28,-36,77,-52,149,-52h157V0H1493V118h168c68,0,113,16,137,53c14,18,20,70,20,153v785H784V312c0,-80,6,-129,17,-144c26,-34,70,-50,131,-50h177V0Z" 
id="f1_s"
transform="scale(4.8828125E-4,-4.8828125E-4)" />

<path d="M882,112c-75,0,-150,19,-225,59C588,206,523,254,463,315C341,440,248,579,183,733l106,51C387,594,475,460,556,380C632,304,721,267,818,267c2,0,3,0,5,0c85,0,150,29,198,89c47,53,73,116,74,188c-1,84,-33,150,-94,197c-28,20,-61,41,-104,60c-44,15,-90,29,-142,41C668,821,609,809,577,809c-4,0,-7,0,-10,1c-3,-1,-6,-1,-9,-1c-18,0,-35,8,-49,21c-8,12,-25,36,-51,74c-27,39,-44,68,-47,88c0,16,8,30,23,39c12,6,26,9,41,9c25,0,61,-3,112,-6c52,-6,93,-15,122,-26c177,34,264,100,261,194c0,58,-18,112,-52,161c-30,44,-64,78,-99,101H-23l-92,177H1390l93,-177H981c52,-65,93,-129,124,-188c32,-64,48,-124,48,-179c0,-26,-19,-58,-62,-96C1051,961,985,930,897,911v-7C1147,801,1274,662,1276,484C1271,356,1227,261,1143,202C1060,141,973,112,882,112Z" 
id="f2_11"
transform="scale(4.8828125E-4,-4.8828125E-4)" />

<path d="M614,710c1,0,2,0,3,0c55,0,115,16,177,49c62,26,114,54,158,83v622H455V952C458,790,511,710,614,710ZM1129,0L946,110l10,513C935,610,900,596,851,582C801,564,753,555,707,555c-32,0,-71,10,-117,33c-46,23,-93,54,-142,92c-46,38,-86,81,-118,130c-35,47,-52,98,-52,149v505H-4l-90,177H1270l91,-177H1129V0Z" 
id="f2_1b"
transform="scale(4.8828125E-4,-4.8828125E-4)" />

<path d="M840,0C593,280,420,483,322,610C225,735,177,820,179,866c0,28,9,52,27,77c17,20,37,30,58,32c11,-2,26,-5,45,-9c16,-13,35,-25,53,-36c46,-30,78,-47,96,-48c1,-1,2,-1,3,-1c14,0,25,20,29,62c7,45,10,155,10,333c0,67,-3,130,-13,188H-1l-91,177H1082l91,-177H681V924c34,-21,78,-44,130,-67c54,-26,107,-38,164,-38c56,0,113,14,166,41c57,26,109,55,158,92V741C1184,675,1096,643,1035,643c-1,0,-2,0,-4,0c-1,0,-3,0,-5,0c-26,0,-73,10,-140,32c-35,13,-70,29,-107,54c-35,23,-70,50,-105,84C657,793,636,770,611,744C582,717,555,695,532,680C464,645,434,620,438,608c4,-15,63,-78,175,-188C718,307,823,196,927,87L840,0Z" 
id="f2_b"
transform="scale(4.8828125E-4,-4.8828125E-4)" />

<path d="M1118,0L933,113l13,885H620c-1,0,-3,0,-5,0C435,998,345,912,345,743c-1,-72,25,-155,77,-248C471,400,558,277,684,127L584,46C434,234,328,391,269,518C206,643,177,753,179,851c0,58,10,108,32,154c21,40,47,75,79,101c69,46,141,69,214,69H941v289H-2l-90,177H1257l92,-177H1118V0Z" 
id="f2_1j"
transform="scale(4.8828125E-4,-4.8828125E-4)" />

<path d="M503,602c3,0,5,0,7,0c121,1,265,66,433,196C889,883,834,943,778,978c-54,35,-126,52,-213,53c-59,-1,-117,-21,-171,-62C342,924,315,862,313,778c0,-54,20,-95,61,-127c33,-32,76,-49,129,-49ZM1118,0L933,112l13,469C892,542,839,509,787,483C735,455,677,443,613,443C493,445,391,489,309,578C225,663,180,768,179,891c0,21,6,49,17,85c9,34,24,67,48,104c25,34,62,66,110,95c45,21,103,33,176,33c40,0,83,-4,127,-13c43,-9,82,-28,119,-58c23,-16,46,-39,72,-69c26,-31,55,-73,85,-128h8v524H81L-8,1641H1259l90,-177H1118V906c83,50,153,75,213,75c2,0,4,0,6,0c24,0,50,-2,75,-3c26,-5,56,-15,91,-35V761c-49,27,-99,43,-145,43c-44,0,-87,-10,-124,-28c-38,-21,-77,-46,-116,-75V0Z" 
id="f2_i"
transform="scale(4.8828125E-4,-4.8828125E-4)" />

<path d="M-222,1523c-40,66,-86,155,-136,263c-54,108,-81,206,-84,296c3,74,29,136,78,190c49,49,105,75,169,78c49,0,97,-19,143,-58C-7,2250,31,2171,63,2053L6,2037c-25,58,-49,99,-75,123c-26,22,-55,32,-87,32c-42,-1,-77,-23,-106,-62c-27,-40,-44,-87,-47,-142c1,-31,7,-66,18,-106c11,-39,25,-79,37,-122c32,-82,61,-154,85,-214l-53,-23Z" 
id="f2_2b"
transform="scale(4.8828125E-4,-4.8828125E-4)" />

<path d="M1496,0L1311,108l12,439C1208,440,1091,388,967,388C814,390,698,432,619,518C539,597,500,683,500,773c0,43,7,81,21,112c12,29,29,56,50,81H277l-91,175h981l93,-166c-13,-1,-27,-1,-43,-1c-37,0,-80,1,-128,2c-93,0,-162,-1,-204,-4c-42,-8,-74,-17,-97,-31C756,924,730,895,707,851C680,804,666,753,666,700C669,568,732,503,854,501c2,0,3,0,5,0c19,0,40,7,68,18c28,10,61,26,100,48c79,44,175,117,290,221v676H3l-89,177H1635l91,-177H1496V0Z" 
id="f2_18"
transform="scale(4.8828125E-4,-4.8828125E-4)" />

<path d="M104,0V118H296c69,0,112,9,133,30c20,20,29,64,29,133V1988c0,64,-9,104,-27,120c-28,23,-80,34,-154,35H104v118H1138V2143H963c-78,-1,-129,-10,-149,-30c-20,-20,-30,-63,-30,-125V281c0,-69,9,-111,26,-128c24,-23,68,-35,131,-35h197V0Z" 
id="f1_t"
transform="scale(4.8828125E-4,-4.8828125E-4)" />

<path d="M1016,-158C825,-111,651,-33,495,73C420,125,361,185,316,251c-47,64,-72,132,-72,209c0,55,11,105,33,150c18,42,41,78,68,105C237,837,180,941,179,1025c0,67,18,122,53,165c37,41,96,63,177,63H851v211H-7l-88,177H1326l90,-177H1030V1138c0,-41,-17,-63,-54,-63c-2,0,-3,1,-4,1H443c-30,-2,-58,-13,-84,-34c-31,-23,-46,-54,-46,-90c0,-29,11,-58,34,-87c20,-31,41,-58,66,-78c30,23,59,41,90,56c30,13,61,22,90,29c59,10,113,14,159,16c84,-3,171,-42,259,-115c40,-35,74,-76,101,-119c25,-44,37,-90,37,-138c0,-65,-17,-122,-54,-168C1056,299,988,261,895,231L796,391c127,25,191,86,192,185c-1,53,-21,96,-61,128c-38,31,-79,46,-126,46C688,747,597,709,533,633C463,556,429,483,429,409c0,-74,52,-158,158,-249C688,66,839,-14,1039,-85l-23,-73Z" 
id="f2_20"
transform="scale(4.8828125E-4,-4.8828125E-4)" />

<path d="M-303,1509c-64,69,-139,133,-225,191c-84,58,-152,101,-203,132c-50,40,-91,59,-122,59c-14,0,-35,-4,-66,-15c-29,-12,-52,-23,-72,-32c-22,47,-47,104,-74,170c-26,64,-42,104,-45,119c2,21,19,32,52,32c51,0,95,-11,135,-31c39,-23,79,-53,117,-88c63,-48,144,-113,243,-193c100,-85,196,-183,289,-299h37c-14,43,-37,114,-72,212c-35,98,-70,176,-109,235c-23,42,-52,72,-88,97c-35,21,-89,30,-162,32c-19,108,-31,188,-35,240c1,30,13,45,38,45c24,0,58,-12,99,-33c43,-25,87,-70,132,-132c30,-36,58,-84,82,-143c25,-63,49,-129,72,-197c24,-72,47,-136,66,-197c19,-63,33,-115,42,-153l17,-38l-148,-13Z" 
id="f2_28"
transform="scale(4.8828125E-4,-4.8828125E-4)" />

<path d="M1057,67C885,69,724,127,574,244C426,351,295,489,180,652l87,65C402,526,524,399,637,335C742,273,857,243,981,243c6,0,12,0,18,0c4,0,8,0,12,0c50,0,95,9,133,24c42,16,75,36,103,61c53,52,81,107,81,169c-3,81,-32,122,-84,122c-65,-3,-139,-11,-230,-25C924,578,859,567,820,567c-5,0,-10,-1,-15,-1c-44,0,-85,13,-122,37c-44,28,-93,80,-147,158c-59,88,-90,169,-91,241c0,60,21,116,64,167c41,46,96,70,166,73h420v222H5l-90,177H1592l90,-177H1274V1131c0,-17,-6,-33,-15,-43c-10,-16,-24,-23,-41,-23c-2,0,-3,0,-5,0H758C655,1059,607,1013,611,924c0,-81,14,-131,38,-152c25,-21,52,-32,83,-32c4,0,8,1,12,1c17,0,41,5,76,14c34,4,71,9,109,17c85,13,154,21,206,24c63,-3,121,-29,171,-78C1409,611,1461,513,1464,428C1462,316,1424,229,1346,165C1268,99,1172,67,1057,67Z" 
id="f2_1f"
transform="scale(4.8828125E-4,-4.8828125E-4)" />

<path d="M869,-320C790,-214,712,-118,639,-33C564,49,513,96,486,112c-34,4,-70,12,-109,22c-39,8,-67,16,-84,22c-24,20,-47,50,-68,92c-23,42,-36,85,-36,132c0,14,13,34,36,55c19,20,47,33,84,34c33,-1,70,-23,108,-63c41,-41,69,-78,83,-108c6,-1,12,-1,18,-1c60,0,127,21,203,64c41,19,73,48,99,87c26,33,40,75,40,126c0,48,-9,81,-24,98c-17,14,-37,20,-63,20C739,689,698,678,651,660C602,640,555,629,509,629c-45,0,-87,19,-129,55c-39,34,-76,74,-107,123c-64,110,-94,207,-94,291c0,57,14,97,41,124c26,20,69,31,130,31H730v211H-8l-92,177H1056l90,-177H897V1135c0,-27,-20,-40,-60,-40H443c-50,0,-84,-9,-99,-26c-22,-18,-31,-39,-31,-65c0,-52,15,-101,46,-144c28,-47,64,-73,109,-75c42,0,88,11,137,31c46,20,90,29,131,32c34,0,68,-12,100,-35c32,-25,59,-57,84,-96c50,-81,76,-149,78,-201C996,405,955,321,874,263C798,202,704,162,597,141L958,-239l-89,-81Z" 
id="f2_10"
transform="scale(4.8828125E-4,-4.8828125E-4)" />

<path d="M706,-14C587,-14,493,17,426,81C359,147,325,231,325,338v962H73v101c118,18,207,67,268,144c90,113,139,273,146,481H591V1435h459V1300H591V368c0,-82,20,-143,57,-186c36,-43,84,-64,140,-64c69,0,129,33,176,99c49,66,78,176,86,330h103C1147,356,1103,214,1022,122C941,31,836,-14,706,-14Z" 
id="f1_1u"
transform="scale(4.8828125E-4,-4.8828125E-4)" />

<path d="M577,534c4,0,9,0,14,1c3,0,6,0,9,0c48,0,105,12,168,35L498,1013C468,996,435,964,403,918C365,871,345,817,345,758c3,-84,31,-142,83,-176c45,-32,95,-48,149,-48Zm279,83c97,51,148,121,152,208c-1,98,-29,168,-79,211c-49,38,-101,58,-159,58c-46,0,-84,-3,-113,-8c-26,-6,-52,-15,-79,-24L856,617ZM706,400c-3,0,-5,0,-8,0C544,402,419,452,324,553C229,651,180,756,179,869c0,40,9,81,29,124c20,41,47,81,87,118c79,76,200,117,362,119c87,0,162,-17,225,-51c61,-35,113,-76,155,-123c84,-106,126,-194,126,-268C1161,668,1115,574,1025,507C938,437,832,400,706,400ZM-8,1464l-92,177H1054l90,-177Z" 
id="f2_q"
transform="scale(4.8828125E-4,-4.8828125E-4)" />

<path d="M-217,-599c-282,4,-558,142,-833,412l59,80c141,-129,262,-217,361,-265c101,-46,215,-69,341,-69c84,2,151,29,201,83c52,49,77,98,75,147c2,27,-9,55,-30,79c-23,25,-60,43,-107,52c-29,-31,-61,-60,-95,-87c-34,-26,-60,-41,-75,-41c-6,0,-15,7,-30,23c-17,12,-34,27,-51,47c-40,41,-59,73,-62,98c3,15,22,32,62,52c40,20,87,31,142,31C-150,40,-62,8,9,-54c74,-64,110,-144,112,-237c0,-70,-26,-137,-78,-201c-56,-69,-143,-104,-260,-107Z" 
id="f2_24"
transform="scale(4.8828125E-4,-4.8828125E-4)" />

<path d="M759,134c-4,0,-8,0,-12,0C591,134,458,196,351,313C238,425,180,552,179,694c0,76,18,136,53,178c35,40,86,69,151,87c121,33,242,63,366,91c24,3,42,18,55,44c10,24,15,79,15,166c-2,110,-5,179,-9,204H-5l-90,177H1216l92,-177H988c5,-83,7,-204,8,-364c0,-75,-6,-125,-20,-153C959,920,933,903,897,892C804,865,678,834,521,804C406,782,348,709,345,584c0,-40,9,-77,28,-112c15,-34,36,-66,62,-93c56,-58,120,-89,191,-89c1,0,3,0,5,0c2,0,4,0,6,0c145,0,322,55,530,164l78,-170c-55,-33,-125,-66,-212,-98C951,153,858,134,759,134Z" 
id="f2_1d"
transform="scale(4.8828125E-4,-4.8828125E-4)" />

<path d="M843,-22C665,92,510,223,379,374C319,449,270,526,235,603c-38,80,-56,159,-56,237c0,80,26,162,81,248c29,38,64,70,107,96c39,23,88,35,143,35c89,-4,158,-32,208,-79c60,-60,113,-121,162,-182c98,137,196,205,292,205c47,-2,93,-16,140,-43c42,-31,80,-64,115,-104V872c-63,87,-121,130,-171,132c-31,-2,-58,-5,-84,-12c-26,-10,-54,-28,-83,-57c-26,-27,-53,-66,-84,-115C973,773,938,710,898,637L759,739c25,51,49,94,72,133c-24,43,-59,81,-104,116c-44,34,-85,51,-124,54c-53,0,-106,-21,-158,-63C388,932,359,859,358,759c0,-52,7,-104,21,-152c14,-51,41,-104,81,-159C535,335,689,209,923,72L843,-22ZM2,1464l-90,177H1239l90,-177Z" 
id="f2_1i"
transform="scale(4.8828125E-4,-4.8828125E-4)" />

<path d="M929,-43L296,1956c-24,76,-53,125,-84,151c-32,24,-82,35,-152,36v118H813V2143H759c-79,-1,-131,-7,-154,-18c-21,-14,-34,-32,-34,-56c0,-19,10,-48,23,-84l11,-29L1057,526l410,1326c-46,143,-81,229,-107,253c-26,25,-78,37,-155,38H1065v118h961V2143H1925c-86,-1,-142,-7,-168,-19c-26,-14,-38,-34,-38,-60c0,-23,3,-41,9,-58L2195,526l379,1281c17,48,25,95,25,141c0,66,-17,115,-48,148c-32,31,-79,46,-143,47h-72v118h709V2143c-60,-9,-107,-24,-144,-45c-35,-22,-67,-52,-93,-92c-24,-41,-52,-107,-79,-199L2180,-43H2066L1545,1607L1033,-43Z" 
id="f1_16"
transform="scale(4.8828125E-4,-4.8828125E-4)" />

<path d="M104,0V118H241c48,0,83,9,107,27c25,18,37,41,37,69v903c0,67,-14,117,-43,150c-27,32,-67,48,-120,48H104v120l503,29V889c55,193,120,339,197,440c78,98,172,148,287,150c76,-2,139,-26,185,-73c46,-49,70,-115,70,-194c0,-66,-15,-117,-46,-153c-29,-36,-66,-54,-111,-54c-1,0,-3,0,-5,0c-2,0,-4,0,-5,0c-42,0,-76,17,-102,46c-29,31,-43,73,-43,127c0,34,6,66,16,98c10,24,15,41,15,47c0,15,-9,21,-28,23c-39,-2,-85,-26,-137,-73C830,1202,776,1108,738,987C680,799,651,649,651,536V226c0,-35,12,-63,38,-81c26,-18,67,-27,128,-27h188V0Z" 
id="f1_1s"
transform="scale(4.8828125E-4,-4.8828125E-4)" />

<path d="M1060,798c40,0,71,12,92,38c20,24,31,67,31,130c0,113,-36,209,-109,288c-73,80,-159,119,-258,121C704,1373,611,1326,535,1230C457,1134,417,990,414,798ZM816,-43C623,-43,461,24,330,163C199,303,133,480,133,698c0,231,66,420,195,564c132,144,292,215,483,217c141,-2,263,-38,364,-110c102,-73,180,-179,231,-313c36,-97,56,-217,58,-361H414C420,478,461,325,539,238C627,139,739,89,874,89c2,0,4,0,6,0c1,0,3,0,4,0c201,0,363,114,486,340l94,-44C1314,98,1098,-43,816,-43Z" 
id="f1_1g"
transform="scale(4.8828125E-4,-4.8828125E-4)" />

<path d="M104,0V118h87c60,0,102,10,127,33c24,23,36,58,36,107V1962c0,59,-15,105,-48,136c-33,29,-80,44,-141,45H60v118l560,31V1186c75,96,156,169,242,218c85,49,175,73,270,75c92,-2,174,-25,246,-66c57,-36,104,-98,144,-183c41,-87,59,-190,59,-307V243c0,-44,12,-76,34,-96c21,-20,55,-29,99,-29h119V0H1065V118h82c65,0,109,9,133,30c23,22,35,52,35,95V923c0,117,-27,209,-82,278c-57,66,-128,99,-215,99c-68,0,-130,-20,-188,-56C772,1205,723,1147,681,1071C642,995,620,914,620,828V258c0,-52,13,-88,32,-108c20,-23,55,-32,103,-32H872V0Z" 
id="f1_1j"
transform="scale(4.8828125E-4,-4.8828125E-4)" />

<path d="M1006,89c105,0,187,42,242,128c75,111,112,278,112,495c0,226,-34,388,-101,486c-66,98,-151,146,-257,146c-110,0,-203,-55,-281,-165C645,1069,607,911,607,704C607,493,643,338,717,238C790,139,883,89,996,89c1,0,3,0,5,0c2,0,3,0,5,0ZM89,-590v117H193c48,0,87,10,110,29c25,19,38,45,38,75V1121c0,68,-17,117,-51,147c-33,28,-101,44,-201,47v120l463,29c22,-103,36,-201,39,-294c71,112,144,190,220,237c78,46,162,70,252,72c98,-2,191,-32,280,-93c89,-61,159,-150,215,-268c55,-119,83,-252,83,-398c0,-237,-67,-431,-202,-579C1326,17,1193,-43,1037,-43c-88,0,-169,21,-241,67C726,69,662,138,607,229V-343c0,-44,10,-76,30,-93c28,-24,67,-37,115,-37H857V-590Z" 
id="f1_1q"
transform="scale(4.8828125E-4,-4.8828125E-4)" />

<path d="M784,60c117,0,215,53,287,157c75,105,112,280,112,522c0,224,-36,384,-110,485c-74,101,-172,149,-294,151C665,1373,570,1322,495,1216C422,1111,385,947,385,721C385,490,422,322,495,217C567,113,660,60,774,60c2,0,4,0,5,0c2,0,3,0,5,0ZM770,-43C585,-43,426,24,298,167C168,307,104,490,104,717c0,224,66,407,194,548c131,141,290,212,481,214c194,-2,356,-72,488,-211c131,-140,197,-324,197,-551c0,-158,-29,-292,-89,-402C1317,203,1233,116,1123,52C1014,-11,897,-43,770,-43Z" 
id="f1_1p"
transform="scale(4.8828125E-4,-4.8828125E-4)" />

<path d="M781,118c111,0,206,52,284,159c79,105,118,261,118,466c0,192,-42,343,-127,455c-72,98,-162,146,-271,146c-108,0,-195,-45,-259,-136C461,1118,429,966,429,752c0,-234,32,-398,98,-492C593,165,677,118,781,118ZM726,-14C565,-14,429,52,316,188C205,324,148,504,148,729c0,241,72,434,216,579c113,113,243,169,389,171c90,-2,171,-26,243,-72c72,-47,135,-118,187,-211v808c0,42,-16,75,-48,101c-32,25,-82,37,-150,38H888v118l560,31V330c0,-76,17,-131,48,-163c32,-34,79,-49,140,-49h109V0H1227l-44,292C1126,188,1059,112,982,61C906,9,820,-14,726,-14Z" 
id="f1_1f"
transform="scale(4.8828125E-4,-4.8828125E-4)" />

<path d="M788,-14C663,-14,556,28,471,115C383,200,341,345,341,550v622c0,53,-22,95,-66,124c-31,19,-92,30,-186,35v117l518,16V523c0,-117,27,-205,84,-268c56,-62,128,-93,217,-93c108,0,201,44,279,136c76,92,115,206,115,344v530c0,49,-17,85,-52,113c-35,26,-103,41,-200,46v117l518,16V286c0,-55,13,-97,42,-126c29,-29,71,-42,123,-42h85V0L1331,-14l-29,312C1216,193,1132,115,1048,63C963,11,877,-14,788,-14Z" 
id="f1_1v"
transform="scale(4.8828125E-4,-4.8828125E-4)" />

<path d="M778,-43C579,-43,417,20,292,153C167,284,104,460,104,678c0,254,69,450,205,590c137,139,298,209,482,211c139,-2,254,-40,344,-115c92,-78,136,-162,136,-255c0,-56,-17,-102,-52,-139c-32,-35,-72,-53,-117,-53c-1,0,-3,0,-5,0c-2,0,-4,0,-6,0c-43,0,-81,16,-112,46c-30,30,-47,68,-47,113c0,42,17,85,49,126c17,19,24,34,24,46c0,28,-18,57,-56,84c-40,28,-92,41,-158,43C671,1373,579,1329,518,1238C429,1105,385,930,385,715C385,509,425,351,504,246C583,142,683,89,805,89c1,0,3,0,5,0c1,0,2,0,3,0c170,0,295,114,377,340l112,-30C1222,102,1047,-43,778,-43Z" 
id="f1_1e"
transform="scale(4.8828125E-4,-4.8828125E-4)" />

<path d="M784,-43C642,-43,509,2,387,96L275,-28H193L162,532H266C332,353,406,229,489,160C571,93,672,60,791,60c3,0,5,0,8,0c3,0,7,0,10,0c110,0,193,24,253,71c61,49,91,113,91,190c0,43,-12,79,-33,113c-23,32,-54,56,-92,73c-40,16,-142,40,-307,72C564,611,454,643,391,678C328,712,280,759,244,820c-35,60,-51,126,-51,198c0,106,35,204,105,293c90,111,217,166,380,168c126,-2,240,-52,346,-154l100,110h63l40,-518H1123c-44,160,-105,278,-180,350c-77,71,-170,106,-280,108c-96,-2,-171,-27,-226,-79c-55,-51,-83,-115,-83,-187c0,-67,26,-122,75,-163C480,900,579,866,726,842c172,-29,284,-54,336,-74c81,-30,143,-76,188,-139c44,-62,65,-140,65,-229C1315,275,1267,170,1166,84C1066,-1,938,-43,784,-43Z" 
id="f1_1t"
transform="scale(4.8828125E-4,-4.8828125E-4)" />

<path d="M118,0V118h99c50,0,89,9,115,30c24,19,38,45,38,75v909c0,58,-16,106,-48,136c-30,31,-76,47,-134,47H118v120l473,29c20,-89,35,-191,45,-307c62,105,137,186,223,239c87,54,184,81,293,83c93,-2,173,-21,235,-58c63,-38,115,-98,153,-179c38,-81,57,-173,57,-273V263c0,-54,12,-90,35,-112c23,-23,62,-33,116,-33h101V0H1079V118h71c68,0,115,9,141,32c26,21,40,53,40,96V863c0,133,-20,234,-60,300c-55,91,-137,137,-249,137c-110,0,-202,-47,-275,-139C672,1066,636,946,636,796V263c0,-54,12,-92,36,-112c23,-23,63,-33,116,-33H888V0Z" 
id="f1_1o"
transform="scale(4.8828125E-4,-4.8828125E-4)" />

<path d="M73,0V118H194c55,0,93,9,113,27c23,17,34,46,34,86V1300H89v135H341v102c0,254,53,448,160,582c107,133,238,200,396,202c119,-2,211,-29,275,-86c67,-58,99,-133,99,-223c0,-61,-15,-108,-46,-144c-30,-35,-68,-50,-117,-50c-43,0,-78,12,-106,40c-27,27,-41,62,-41,104c0,47,17,85,49,117c27,23,40,42,40,55c0,17,-11,31,-34,46c-23,14,-57,22,-102,23c-87,-1,-159,-40,-219,-116c-59,-76,-88,-189,-88,-339V1435H961V1300H607V257c0,-49,10,-83,33,-101c29,-26,72,-38,127,-38H961V0Z" 
id="f1_1h"
transform="scale(4.8828125E-4,-4.8828125E-4)" />

<path d="M89,0V118H238c51,0,86,10,110,33c25,22,37,54,37,95V1983c0,49,-14,87,-40,112c-36,30,-81,47,-133,48H89v118l562,31V214c0,-29,7,-51,24,-66c26,-21,57,-30,93,-30H917V0Z" 
id="f1_1m"
transform="scale(4.8828125E-4,-4.8828125E-4)" />

<path d="M730,-43L232,1224c-15,35,-35,58,-55,70c-20,11,-55,18,-104,21v120H697V1315H614c-40,0,-70,-7,-87,-18c-17,-12,-26,-27,-26,-46c0,-21,5,-44,15,-65L836,373l278,768c-34,84,-66,136,-96,152c-30,15,-81,22,-156,22v120h687V1315h-58c-52,0,-88,-7,-108,-19c-22,-13,-31,-31,-31,-51c0,-20,5,-38,14,-59L1693,373l260,722c18,45,25,83,25,117c0,30,-12,53,-39,73c-26,15,-77,27,-150,30v120h558V1315c-69,-10,-123,-32,-158,-61c-35,-32,-65,-78,-90,-139L1681,-43h-91L1189,955L825,-43Z" 
id="f1_1x"
transform="scale(4.8828125E-4,-4.8828125E-4)" />

<path d="M801,-502c175,0,308,29,397,86c88,58,133,121,133,191c0,41,-14,79,-42,116c-27,35,-71,63,-132,81C1097,-10,1008,0,892,0C704,0,570,-25,490,-77C411,-129,370,-190,370,-262c0,-69,30,-122,90,-162c79,-52,194,-78,341,-78Zm4,1108c87,0,160,34,217,100c58,67,87,163,87,290c0,115,-30,208,-88,277c-60,67,-133,100,-223,102c-91,-2,-164,-35,-222,-99c-58,-66,-89,-158,-89,-274c0,-127,31,-224,89,-293C633,640,704,606,793,606c2,0,4,0,6,1c2,-1,4,-1,6,-1ZM764,-606c-220,0,-384,40,-491,121c-82,61,-125,132,-125,211c0,58,26,113,80,163c53,49,143,88,269,111C396,24,319,60,269,108c-51,49,-76,110,-76,182c0,66,21,124,64,174c41,49,114,91,220,129C387,639,319,695,275,762c-44,68,-69,144,-69,233c0,136,57,250,165,343c109,94,252,139,427,141c71,-2,140,-12,206,-31c67,-18,131,-47,194,-87c105,97,201,145,290,147c52,-2,96,-17,131,-47c36,-31,51,-69,51,-110c0,-37,-11,-66,-35,-91c-22,-21,-48,-33,-76,-33c-2,0,-4,0,-5,0c-1,0,-3,0,-4,0c-57,0,-96,35,-115,104c-10,29,-25,42,-45,44c-35,-2,-75,-24,-119,-70c46,-61,77,-115,93,-159c17,-46,26,-93,26,-144c0,-91,-21,-171,-64,-240C1283,694,1212,633,1112,581C1016,529,923,503,836,503c-3,0,-5,0,-8,0H662C544,501,466,489,426,464C390,437,370,399,370,350c0,-43,15,-75,47,-96c31,-22,92,-32,177,-32l378,15c189,-2,327,-34,411,-96c84,-65,125,-151,125,-261c0,-122,-47,-226,-145,-308C1230,-547,1030,-606,764,-606Z" 
id="f1_1i"
transform="scale(4.8828125E-4,-4.8828125E-4)" />

<path d="M445,-43c-52,0,-98,16,-136,52C270,44,252,87,252,139c0,52,18,95,55,131c38,36,84,54,138,55c53,-1,99,-19,136,-55c36,-35,55,-79,55,-129C636,89,617,44,581,9C544,-27,498,-43,445,-43Zm6,1152c-2,0,-4,0,-6,0c-2,0,-5,0,-7,0c-50,0,-94,18,-131,54c-37,35,-55,79,-55,131c0,49,18,92,55,128c38,37,84,55,136,57c54,-2,101,-20,138,-55c36,-37,55,-80,55,-130c0,-53,-17,-98,-55,-133c-36,-34,-78,-52,-130,-52Z" 
id="f1_j"
transform="scale(4.8828125E-4,-4.8828125E-4)" />

<path d="M133,0V118H249c44,0,78,9,101,30c23,19,35,45,35,78v926c0,50,-14,89,-40,113c-26,26,-76,43,-152,50v120l414,29c21,-104,36,-202,44,-294c75,112,151,191,227,239c75,45,159,68,250,70c97,-2,178,-29,241,-80c63,-53,111,-139,145,-255c67,110,142,194,225,251c84,55,172,82,270,84c130,-2,228,-41,290,-119c84,-104,126,-237,126,-399V241c0,-44,12,-73,33,-88c32,-23,78,-35,139,-35h78V0H1907V118h76c64,0,110,9,136,30c26,22,40,52,40,93V963c0,106,-26,189,-75,249c-51,58,-116,88,-199,88c-61,0,-116,-18,-166,-52c-51,-35,-90,-85,-119,-148c-42,-92,-63,-171,-63,-234V241c0,-42,12,-74,37,-93c24,-21,61,-30,110,-30h105V0H1021V118h87c55,0,96,9,123,30c28,22,40,48,40,80V897c0,139,-23,243,-70,307c-48,64,-112,96,-193,96c-104,0,-183,-37,-240,-111C691,1083,651,959,651,820V241c0,-44,11,-74,30,-90c31,-23,78,-33,141,-33h79V0Z" 
id="f1_1n"
transform="scale(4.8828125E-4,-4.8828125E-4)" />


</defs>
</svg>