<?xml version="1.0" encoding="UTF-8" standalone="no"?>
<!DOCTYPE svg PUBLIC "-//W3C//DTD SVG 1.1//EN"
"http://www.w3.org/Graphics/SVG/1.1/DTD/svg11.dtd">
<svg viewBox="0 0 909 1286" version="1.1" xmlns="http://www.w3.org/2000/svg" xmlns:xlink="http://www.w3.org/1999/xlink">
<defs>
</defs>
<g fill="#000000" >
<use xlink:href="#f0_6" transform="matrix(12,0,0,12,443.8,1140.7)" />
<use xlink:href="#f0_8" transform="matrix(12,0,0,12,454.7,1140.7)" />
<use xlink:href="#f0_a" transform="matrix(12,0,0,12,86.4,1140.7)" />
<use xlink:href="#f0_b" transform="matrix(12,0,0,12,96.7,1140.7)" />
<use xlink:href="#f0_4" transform="matrix(12,0,0,12,107,1140.7)" />
<use xlink:href="#f0_6" transform="matrix(12,0,0,12,111.8,1140.7)" />
<use xlink:href="#f0_4" transform="matrix(12,0,0,12,122.1,1140.7)" />
<use xlink:href="#f0_k" transform="matrix(12,0,0,12,126.9,1140.7)" />
<use xlink:href="#f0_i" transform="matrix(12,0,0,12,766.5,1140.7)" />
<use xlink:href="#f0_3" transform="matrix(12,0,0,12,780.1,1140.7)" />
<use xlink:href="#f0_l" transform="matrix(12,0,0,12,784.9,1140.7)" />
<use xlink:href="#f0_3" transform="matrix(12,0,0,12,797.8,1140.7)" />
<use xlink:href="#f0_h" transform="matrix(12,0,0,12,802.5,1140.7)" />
<use xlink:href="#f0_3" transform="matrix(12,0,0,12,817.5,1140.7)" />
<use xlink:href="#f1_4" transform="matrix(12,0,0,12,129.7,168)" />
<use xlink:href="#f1_1c" transform="matrix(12,0,0,12,135.4,168)" />
<use xlink:href="#f1_5" transform="matrix(12,0,0,12,145.3,168)" />
<use xlink:href="#f1_l" transform="matrix(12,0,0,12,173,168)" />
<use xlink:href="#f1_1e" transform="matrix(12,0,0,12,186.3,168)" />
<use xlink:href="#f1_1e" transform="matrix(12,0,0,12,194.4,168)" />
<use xlink:href="#f1_1p" transform="matrix(12,0,0,12,202.5,168)" />
<use xlink:href="#f1_1v" transform="matrix(12,0,0,12,211.7,168)" />
<use xlink:href="#f1_1o" transform="matrix(12,0,0,12,222.9,168)" />
<use xlink:href="#f1_1u" transform="matrix(12,0,0,12,234.1,168)" />
<use xlink:href="#f1_1h" transform="matrix(12,0,0,12,246.4,168)" />
<use xlink:href="#f1_1p" transform="matrix(12,0,0,12,252.5,168)" />
<use xlink:href="#f1_1s" transform="matrix(12,0,0,12,261.7,168)" />
<use xlink:href="#f1_1u" transform="matrix(12,0,0,12,275,168)" />
<use xlink:href="#f1_1j" transform="matrix(12,0,0,12,282.2,168)" />
<use xlink:href="#f1_1g" transform="matrix(12,0,0,12,293.4,168)" />
<use xlink:href="#f1_1h" transform="matrix(12,0,0,12,307.7,168)" />
<use xlink:href="#f1_1p" transform="matrix(12,0,0,12,313.8,168)" />
<use xlink:href="#f1_1m" transform="matrix(12,0,0,12,323,168)" />
<use xlink:href="#f1_1m" transform="matrix(12,0,0,12,328.8,168)" />
<use xlink:href="#f1_1p" transform="matrix(12,0,0,12,334.6,168)" />
<use xlink:href="#f1_1x" transform="matrix(12,0,0,12,343.8,168)" />
<use xlink:href="#f1_1k" transform="matrix(12,0,0,12,358.1,168)" />
<use xlink:href="#f1_1o" transform="matrix(12,0,0,12,363.9,168)" />
<use xlink:href="#f1_1i" transform="matrix(12,0,0,12,375.1,168)" />
<use xlink:href="#f1_j" transform="matrix(12,0,0,12,390.1,168)" />
<use xlink:href="#f1_4" transform="matrix(12,0,0,12,173,204.2)" />
<use xlink:href="#f1_1k" transform="matrix(12,0,0,12,178.7,204.2)" />
<use xlink:href="#f1_5" transform="matrix(12,0,0,12,184,204.2)" />
<use xlink:href="#f1_s" transform="matrix(12,0,0,12,216.3,204.2)" />
<use xlink:href="#f2_4" transform="matrix(9.6,0,0,9.6,231.6,210.4)" />
<use xlink:href="#f1_13" transform="matrix(12,0,0,12,245.1,204.2)" />
<use xlink:href="#f1_1g" transform="matrix(12,0,0,12,257.3,204.2)" />
<use xlink:href="#f1_1k" transform="matrix(12,0,0,12,271.8,204.2)" />
<use xlink:href="#f1_1t" transform="matrix(12,0,0,12,277.6,204.2)" />
<use xlink:href="#f1_1n" transform="matrix(12,0,0,12,291.4,204.2)" />
<use xlink:href="#f1_1p" transform="matrix(12,0,0,12,307.8,204.2)" />
<use xlink:href="#f1_1s" transform="matrix(12,0,0,12,316.9,204.2)" />
<use xlink:href="#f1_1g" transform="matrix(12,0,0,12,325.1,204.2)" />
<use xlink:href="#f1_1c" transform="matrix(12,0,0,12,339.6,204.2)" />
<use xlink:href="#f1_1e" transform="matrix(12,0,0,12,349.8,204.2)" />
<use xlink:href="#f1_1k" transform="matrix(12,0,0,12,357.9,204.2)" />
<use xlink:href="#f1_1f" transform="matrix(12,0,0,12,363.7,204.2)" />
<use xlink:href="#f1_1k" transform="matrix(12,0,0,12,374.3,204.2)" />
<use xlink:href="#f1_1e" transform="matrix(12,0,0,12,380.1,204.2)" />
<use xlink:href="#f1_1u" transform="matrix(12,0,0,12,393.5,204.2)" />
<use xlink:href="#f1_1j" transform="matrix(12,0,0,12,400.7,204.2)" />
<use xlink:href="#f1_1c" transform="matrix(12,0,0,12,411.8,204.2)" />
<use xlink:href="#f1_1o" transform="matrix(12,0,0,12,422.1,204.2)" />
<use xlink:href="#f1_s" transform="matrix(12,0,0,12,438.6,204.2)" />
<use xlink:href="#f2_4" transform="matrix(9.6,0,0,9.6,453.9,210.4)" />
<use xlink:href="#f1_12" transform="matrix(12,0,0,12,462,204.2)" />
<use xlink:href="#f1_8" transform="matrix(12,0,0,12,473.5,204.2)" />
<use xlink:href="#f1_4" transform="matrix(12,0,0,12,173,237.8)" />
<use xlink:href="#f1_1k" transform="matrix(12,0,0,12,178.8,237.8)" />
<use xlink:href="#f1_1k" transform="matrix(12,0,0,12,184.3,237.8)" />
<use xlink:href="#f1_5" transform="matrix(12,0,0,12,189.8,237.8)" />
<use xlink:href="#f1_10" transform="matrix(12,0,0,12,216.3,237.8)" />
<use xlink:href="#f1_n" transform="matrix(12,0,0,12,228.5,237.8)" />
<use xlink:href="#f1_1m" transform="matrix(12,0,0,12,241.7,237.8)" />
<use xlink:href="#f2_7" transform="matrix(9.6,0,0,9.6,247.6,243.8)" />
<use xlink:href="#f1_1k" transform="matrix(12,0,0,12,261.6,237.8)" />
<use xlink:href="#f1_1t" transform="matrix(12,0,0,12,267.4,237.8)" />
<use xlink:href="#f1_1n" transform="matrix(12,0,0,12,281.7,237.8)" />
<use xlink:href="#f1_1p" transform="matrix(12,0,0,12,298.1,237.8)" />
<use xlink:href="#f1_1s" transform="matrix(12,0,0,12,307.2,237.8)" />
<use xlink:href="#f1_1g" transform="matrix(12,0,0,12,315.4,237.8)" />
<use xlink:href="#f1_1e" transform="matrix(12,0,0,12,330.4,237.8)" />
<use xlink:href="#f1_1p" transform="matrix(12,0,0,12,338.5,237.8)" />
<use xlink:href="#f1_1w" transform="matrix(12,0,0,12,347.7,237.8)" />
<use xlink:href="#f1_1c" transform="matrix(12,0,0,12,357.6,237.8)" />
<use xlink:href="#f1_1m" transform="matrix(12,0,0,12,367.8,237.8)" />
<use xlink:href="#f1_1g" transform="matrix(12,0,0,12,373.6,237.8)" />
<use xlink:href="#f1_1o" transform="matrix(12,0,0,12,382.8,237.8)" />
<use xlink:href="#f1_1u" transform="matrix(12,0,0,12,393.9,237.8)" />
<use xlink:href="#f1_1u" transform="matrix(12,0,0,12,406.9,237.8)" />
<use xlink:href="#f1_1j" transform="matrix(12,0,0,12,414.1,237.8)" />
<use xlink:href="#f1_1c" transform="matrix(12,0,0,12,425.3,237.8)" />
<use xlink:href="#f1_1o" transform="matrix(12,0,0,12,435.5,237.8)" />
<use xlink:href="#f1_10" transform="matrix(12,0,0,12,452.5,237.8)" />
<use xlink:href="#f1_n" transform="matrix(12,0,0,12,464.7,237.8)" />
<use xlink:href="#f1_1m" transform="matrix(12,0,0,12,478,237.8)" />
<use xlink:href="#f2_5" transform="matrix(9.6,0,0,9.6,483.8,243.8)" />
<use xlink:href="#f1_8" transform="matrix(12,0,0,12,491.9,237.8)" />
<use xlink:href="#f1_4" transform="matrix(12,0,0,12,173,271.2)" />
<use xlink:href="#f1_1k" transform="matrix(12,0,0,12,178.9,271.2)" />
<use xlink:href="#f1_1k" transform="matrix(12,0,0,12,184.4,271.2)" />
<use xlink:href="#f1_1k" transform="matrix(12,0,0,12,190,271.2)" />
<use xlink:href="#f1_5" transform="matrix(12,0,0,12,195.5,271.2)" />
<use xlink:href="#f1_m" transform="matrix(12,0,0,12,216.3,271.2)" />
<use xlink:href="#f1_1p" transform="matrix(12,0,0,12,229.5,271.2)" />
<use xlink:href="#f1_1k" transform="matrix(12,0,0,12,238.7,271.2)" />
<use xlink:href="#f1_1m" transform="matrix(12,0,0,12,244.4,271.2)" />
<use xlink:href="#f1_1k" transform="matrix(12,0,0,12,250.1,271.2)" />
<use xlink:href="#f1_1o" transform="matrix(12,0,0,12,255.9,271.2)" />
<use xlink:href="#f1_1i" transform="matrix(12,0,0,12,267,271.2)" />
<use xlink:href="#f1_1q" transform="matrix(12,0,0,12,281.9,271.2)" />
<use xlink:href="#f1_1p" transform="matrix(12,0,0,12,292.4,271.2)" />
<use xlink:href="#f1_1k" transform="matrix(12,0,0,12,301.6,271.2)" />
<use xlink:href="#f1_1o" transform="matrix(12,0,0,12,307.3,271.2)" />
<use xlink:href="#f1_1u" transform="matrix(12,0,0,12,318.4,271.2)" />
<use xlink:href="#f1_1t" transform="matrix(12,0,0,12,325.6,271.2)" />
<use xlink:href="#f1_1p" transform="matrix(12,0,0,12,339.1,271.2)" />
<use xlink:href="#f1_1h" transform="matrix(12,0,0,12,348.2,271.2)" />
<use xlink:href="#f1_1k" transform="matrix(12,0,0,12,359.4,271.2)" />
<use xlink:href="#f1_1o" transform="matrix(12,0,0,12,365.1,271.2)" />
<use xlink:href="#f1_1u" transform="matrix(12,0,0,12,376.2,271.2)" />
<use xlink:href="#f1_1g" transform="matrix(12,0,0,12,383.4,271.2)" />
<use xlink:href="#f1_1s" transform="matrix(12,0,0,12,392.5,271.2)" />
<use xlink:href="#f1_1j" transform="matrix(12,0,0,12,400.6,271.2)" />
<use xlink:href="#f1_1c" transform="matrix(12,0,0,12,411.7,271.2)" />
<use xlink:href="#f1_1m" transform="matrix(12,0,0,12,421.9,271.2)" />
<use xlink:href="#f1_1p" transform="matrix(12,0,0,12,427.6,271.2)" />
<use xlink:href="#f1_1i" transform="matrix(12,0,0,12,436.8,271.2)" />
<use xlink:href="#f1_1g" transform="matrix(12,0,0,12,446.6,271.2)" />
<use xlink:href="#f1_1o" transform="matrix(12,0,0,12,455.8,271.2)" />
<use xlink:href="#f1_1t" transform="matrix(12,0,0,12,466.9,271.2)" />
<use xlink:href="#f1_1c" transform="matrix(12,0,0,12,480.4,271.2)" />
<use xlink:href="#f1_1s" transform="matrix(12,0,0,12,490.6,271.2)" />
<use xlink:href="#f1_1g" transform="matrix(12,0,0,12,498.7,271.2)" />
<use xlink:href="#f1_1m" transform="matrix(12,0,0,12,512.9,271.2)" />
<use xlink:href="#f1_1k" transform="matrix(12,0,0,12,518.6,271.2)" />
<use xlink:href="#f1_1u" transform="matrix(12,0,0,12,524.3,271.2)" />
<use xlink:href="#f1_1u" transform="matrix(12,0,0,12,531.5,271.2)" />
<use xlink:href="#f1_1m" transform="matrix(12,0,0,12,538.6,271.2)" />
<use xlink:href="#f1_1g" transform="matrix(12,0,0,12,544.4,271.2)" />
<use xlink:href="#f1_1j" transform="matrix(12,0,0,12,558.6,271.2)" />
<use xlink:href="#f1_1k" transform="matrix(12,0,0,12,569.7,271.2)" />
<use xlink:href="#f1_1i" transform="matrix(12,0,0,12,575.4,271.2)" />
<use xlink:href="#f1_1j" transform="matrix(12,0,0,12,585.3,271.2)" />
<use xlink:href="#f1_1g" transform="matrix(12,0,0,12,596.4,271.2)" />
<use xlink:href="#f1_1s" transform="matrix(12,0,0,12,605.5,271.2)" />
<use xlink:href="#f1_1c" transform="matrix(12,0,0,12,618.7,271.2)" />
<use xlink:href="#f1_1t" transform="matrix(12,0,0,12,628.9,271.2)" />
<use xlink:href="#f1_1e" transform="matrix(12,0,0,12,642.4,271.2)" />
<use xlink:href="#f1_1p" transform="matrix(12,0,0,12,650.5,271.2)" />
<use xlink:href="#f1_1n" transform="matrix(12,0,0,12,659.6,271.2)" />
<use xlink:href="#f1_1q" transform="matrix(12,0,0,12,675.9,271.2)" />
<use xlink:href="#f1_1c" transform="matrix(12,0,0,12,686.4,271.2)" />
<use xlink:href="#f1_1s" transform="matrix(12,0,0,12,696.6,271.2)" />
<use xlink:href="#f1_1g" transform="matrix(12,0,0,12,704.7,271.2)" />
<use xlink:href="#f1_1u" transform="matrix(12,0,0,12,718.9,271.2)" />
<use xlink:href="#f1_1p" transform="matrix(12,0,0,12,726.1,271.2)" />
<use xlink:href="#f1_1q" transform="matrix(12,0,0,12,740.3,271.2)" />
<use xlink:href="#f1_1v" transform="matrix(12,0,0,12,750.8,271.2)" />
<use xlink:href="#f1_1s" transform="matrix(12,0,0,12,761.9,271.2)" />
<use xlink:href="#f1_1g" transform="matrix(12,0,0,12,770,271.2)" />
<use xlink:href="#f1_1j" transform="matrix(12,0,0,12,216.3,296.8)" />
<use xlink:href="#f1_1c" transform="matrix(12,0,0,12,227.5,296.8)" />
<use xlink:href="#f1_1m" transform="matrix(12,0,0,12,237.7,296.8)" />
<use xlink:href="#f1_1p" transform="matrix(12,0,0,12,243.5,296.8)" />
<use xlink:href="#f1_1i" transform="matrix(12,0,0,12,252.7,296.8)" />
<use xlink:href="#f1_1g" transform="matrix(12,0,0,12,262.6,296.8)" />
<use xlink:href="#f1_1o" transform="matrix(12,0,0,12,271.7,296.8)" />
<use xlink:href="#f1_1t" transform="matrix(12,0,0,12,282.9,296.8)" />
<use xlink:href="#f1_8" transform="matrix(12,0,0,12,291.4,296.8)" />
<use xlink:href="#f1_4" transform="matrix(12,0,0,12,129.7,330.3)" />
<use xlink:href="#f1_1d" transform="matrix(12,0,0,12,135.4,330.3)" />
<use xlink:href="#f1_5" transform="matrix(12,0,0,12,145.3,330.3)" />
<use xlink:href="#f1_o" transform="matrix(12,0,0,12,173,330.3)" />
<use xlink:href="#f1_1s" transform="matrix(12,0,0,12,187.2,330.3)" />
<use xlink:href="#f1_1c" transform="matrix(12,0,0,12,195.2,330.3)" />
<use xlink:href="#f1_1x" transform="matrix(12,0,0,12,205.4,330.3)" />
<use xlink:href="#f1_1u" transform="matrix(12,0,0,12,224.6,330.3)" />
<use xlink:href="#f1_1j" transform="matrix(12,0,0,12,231.7,330.3)" />
<use xlink:href="#f1_1g" transform="matrix(12,0,0,12,242.8,330.3)" />
<use xlink:href="#f1_1t" transform="matrix(12,0,0,12,256.9,330.3)" />
<use xlink:href="#f1_1u" transform="matrix(12,0,0,12,265.3,330.3)" />
<use xlink:href="#f1_1s" transform="matrix(12,0,0,12,272.4,330.3)" />
<use xlink:href="#f1_1v" transform="matrix(12,0,0,12,280.4,330.3)" />
<use xlink:href="#f1_1e" transform="matrix(12,0,0,12,291.5,330.3)" />
<use xlink:href="#f1_1u" transform="matrix(12,0,0,12,299.5,330.3)" />
<use xlink:href="#f1_1v" transform="matrix(12,0,0,12,306.6,330.3)" />
<use xlink:href="#f1_1s" transform="matrix(12,0,0,12,317.7,330.3)" />
<use xlink:href="#f1_1g" transform="matrix(12,0,0,12,325.7,330.3)" />
<use xlink:href="#f1_1t" transform="matrix(12,0,0,12,334.8,330.3)" />
<use xlink:href="#f1_1p" transform="matrix(12,0,0,12,348.2,330.3)" />
<use xlink:href="#f1_1h" transform="matrix(12,0,0,12,357.3,330.3)" />
<use xlink:href="#f1_j" transform="matrix(12,0,0,12,368.4,330.3)" />
<use xlink:href="#f1_4" transform="matrix(12,0,0,12,173,363.8)" />
<use xlink:href="#f1_1k" transform="matrix(12,0,0,12,178.7,363.8)" />
<use xlink:href="#f1_5" transform="matrix(12,0,0,12,184,363.8)" />
<use xlink:href="#f1_s" transform="matrix(12,0,0,12,216.3,363.8)" />
<use xlink:href="#f1_n" transform="matrix(12,0,0,12,231.4,363.8)" />
<use xlink:href="#f1_1m" transform="matrix(12,0,0,12,244.5,363.8)" />
<use xlink:href="#f1_z" transform="matrix(12,0,0,12,250.1,363.8)" />
<use xlink:href="#f2_6" transform="matrix(9.6,0,0,9.6,264.3,369.8)" />
<use xlink:href="#f1_4" transform="matrix(12,0,0,12,346.2,363.8)" />
<use xlink:href="#f1_1k" transform="matrix(12,0,0,12,352.1,363.8)" />
<use xlink:href="#f1_1k" transform="matrix(12,0,0,12,357.7,363.8)" />
<use xlink:href="#f1_5" transform="matrix(12,0,0,12,363.3,363.8)" />
<use xlink:href="#f1_17" transform="matrix(12,0,0,12,389.8,363.8)" />
<use xlink:href="#f1_1g" transform="matrix(12,0,0,12,402.4,363.8)" />
<use xlink:href="#f1_z" transform="matrix(12,0,0,12,411.4,363.8)" />
<use xlink:href="#f1_q" transform="matrix(12,0,0,12,425.5,363.8)" />
<use xlink:href="#f2_6" transform="matrix(9.6,0,0,9.6,437.5,369.8)" />
<use xlink:href="#f0_h" transform="matrix(12,0,0,12,439.6,397.2)" />
<use xlink:href="#f0_j" transform="matrix(12,0,0,12,454.4,397.2)" />
<use xlink:href="#f1_4" transform="matrix(12,0,0,12,129.7,430.6)" />
<use xlink:href="#f1_1k" transform="matrix(12,0,0,12,135.4,430.6)" />
<use xlink:href="#f1_5" transform="matrix(12,0,0,12,140.7,430.6)" />
<use xlink:href="#f1_l" transform="matrix(12,0,0,12,173,430.6)" />
<use xlink:href="#f1_1s" transform="matrix(12,0,0,12,187.1,430.6)" />
<use xlink:href="#f1_1s" transform="matrix(12,0,0,12,196.1,430.6)" />
<use xlink:href="#f1_1c" transform="matrix(12,0,0,12,205.1,430.6)" />
<use xlink:href="#f1_1o" transform="matrix(12,0,0,12,216.2,430.6)" />
<use xlink:href="#f1_1i" transform="matrix(12,0,0,12,228.2,430.6)" />
<use xlink:href="#f1_1g" transform="matrix(12,0,0,12,239,430.6)" />
<use xlink:href="#f1_1u" transform="matrix(12,0,0,12,257.6,430.6)" />
<use xlink:href="#f1_1j" transform="matrix(12,0,0,12,265.6,430.6)" />
<use xlink:href="#f1_1g" transform="matrix(12,0,0,12,277.7,430.6)" />
<use xlink:href="#f1_1h" transform="matrix(12,0,0,12,296.3,430.6)" />
<use xlink:href="#f1_1p" transform="matrix(12,0,0,12,303.3,430.6)" />
<use xlink:href="#f1_1m" transform="matrix(12,0,0,12,313.3,430.6)" />
<use xlink:href="#f1_1m" transform="matrix(12,0,0,12,320,430.6)" />
<use xlink:href="#f1_1p" transform="matrix(12,0,0,12,326.7,430.6)" />
<use xlink:href="#f1_1x" transform="matrix(12,0,0,12,336.7,430.6)" />
<use xlink:href="#f1_1k" transform="matrix(12,0,0,12,351.9,430.6)" />
<use xlink:href="#f1_1o" transform="matrix(12,0,0,12,358.5,430.6)" />
<use xlink:href="#f1_1i" transform="matrix(12,0,0,12,370.6,430.6)" />
<use xlink:href="#f1_1k" transform="matrix(12,0,0,12,389.9,430.6)" />
<use xlink:href="#f1_1o" transform="matrix(12,0,0,12,396.5,430.6)" />
<use xlink:href="#f1_1u" transform="matrix(12,0,0,12,417.1,430.6)" />
<use xlink:href="#f1_1j" transform="matrix(12,0,0,12,425.2,430.6)" />
<use xlink:href="#f1_1g" transform="matrix(12,0,0,12,437.2,430.6)" />
<use xlink:href="#f1_1k" transform="matrix(12,0,0,12,455.8,430.6)" />
<use xlink:href="#f1_1o" transform="matrix(12,0,0,12,462.4,430.6)" />
<use xlink:href="#f1_1e" transform="matrix(12,0,0,12,474.5,430.6)" />
<use xlink:href="#f1_1s" transform="matrix(12,0,0,12,483.5,430.6)" />
<use xlink:href="#f1_1g" transform="matrix(12,0,0,12,492.5,430.6)" />
<use xlink:href="#f1_1c" transform="matrix(12,0,0,12,502.5,430.6)" />
<use xlink:href="#f1_1t" transform="matrix(12,0,0,12,513.6,430.6)" />
<use xlink:href="#f1_1k" transform="matrix(12,0,0,12,523,430.6)" />
<use xlink:href="#f1_1o" transform="matrix(12,0,0,12,529.7,430.6)" />
<use xlink:href="#f1_1i" transform="matrix(12,0,0,12,541.7,430.6)" />
<use xlink:href="#f1_1p" transform="matrix(12,0,0,12,561,430.6)" />
<use xlink:href="#f1_1s" transform="matrix(12,0,0,12,571,430.6)" />
<use xlink:href="#f1_1f" transform="matrix(12,0,0,12,580,430.6)" />
<use xlink:href="#f1_1g" transform="matrix(12,0,0,12,591.5,430.6)" />
<use xlink:href="#f1_1s" transform="matrix(12,0,0,12,601.5,430.6)" />
<use xlink:href="#f1_1p" transform="matrix(12,0,0,12,619.1,430.6)" />
<use xlink:href="#f1_1h" transform="matrix(12,0,0,12,629.1,430.6)" />
<use xlink:href="#f1_1u" transform="matrix(12,0,0,12,644.7,430.6)" />
<use xlink:href="#f1_1j" transform="matrix(12,0,0,12,652.7,430.6)" />
<use xlink:href="#f1_1g" transform="matrix(12,0,0,12,664.8,430.6)" />
<use xlink:href="#f1_1k" transform="matrix(12,0,0,12,674.8,430.6)" />
<use xlink:href="#f1_1s" transform="matrix(12,0,0,12,681.5,430.6)" />
<use xlink:href="#f1_1s" transform="matrix(12,0,0,12,699,430.6)" />
<use xlink:href="#f1_1g" transform="matrix(12,0,0,12,708,430.6)" />
<use xlink:href="#f1_1f" transform="matrix(12,0,0,12,718.1,430.6)" />
<use xlink:href="#f1_1v" transform="matrix(12,0,0,12,729.5,430.6)" />
<use xlink:href="#f1_1e" transform="matrix(12,0,0,12,741.5,430.6)" />
<use xlink:href="#f1_1k" transform="matrix(12,0,0,12,750.6,430.6)" />
<use xlink:href="#f1_1o" transform="matrix(12,0,0,12,757.2,430.6)" />
<use xlink:href="#f1_1i" transform="matrix(12,0,0,12,769.2,430.6)" />
<use xlink:href="#f1_1e" transform="matrix(12,0,0,12,173,456.4)" />
<use xlink:href="#f1_1j" transform="matrix(12,0,0,12,181.5,456.4)" />
<use xlink:href="#f1_1c" transform="matrix(12,0,0,12,192.9,456.4)" />
<use xlink:href="#f1_1s" transform="matrix(12,0,0,12,203.5,456.4)" />
<use xlink:href="#f1_1c" transform="matrix(12,0,0,12,212,456.4)" />
<use xlink:href="#f1_1e" transform="matrix(12,0,0,12,222.5,456.4)" />
<use xlink:href="#f1_1u" transform="matrix(12,0,0,12,231,456.4)" />
<use xlink:href="#f1_1g" transform="matrix(12,0,0,12,238.5,456.4)" />
<use xlink:href="#f1_1s" transform="matrix(12,0,0,12,248,456.4)" />
<use xlink:href="#f1_j" transform="matrix(12,0,0,12,261.9,456.4)" />
<use xlink:href="#f1_s" transform="matrix(12,0,0,12,173,489.8)" />
<use xlink:href="#f2_5" transform="matrix(9.6,0,0,9.6,188.1,496)" />
<use xlink:href="#f1_10" transform="matrix(12,0,0,12,196,489.8)" />
<use xlink:href="#f1_z" transform="matrix(12,0,0,12,207.9,489.8)" />
<use xlink:href="#f2_5" transform="matrix(9.6,0,0,9.6,221.9,496)" />
<use xlink:href="#f1_6" transform="matrix(12,0,0,12,229.7,489.8)" />
<use xlink:href="#f1_s" transform="matrix(12,0,0,12,259.6,489.8)" />
<use xlink:href="#f2_5" transform="matrix(9.6,0,0,9.6,274.7,496)" />
<use xlink:href="#f1_10" transform="matrix(12,0,0,12,282.6,489.8)" />
<use xlink:href="#f1_z" transform="matrix(12,0,0,12,294.5,489.8)" />
<use xlink:href="#f2_6" transform="matrix(9.6,0,0,9.6,308.6,496)" />
<use xlink:href="#f1_6" transform="matrix(12,0,0,12,316.4,489.8)" />
<use xlink:href="#f1_s" transform="matrix(12,0,0,12,346.2,489.8)" />
<use xlink:href="#f2_5" transform="matrix(9.6,0,0,9.6,361.4,496)" />
<use xlink:href="#f1_10" transform="matrix(12,0,0,12,369.4,489.8)" />
<use xlink:href="#f1_z" transform="matrix(12,0,0,12,381.3,489.8)" />
<use xlink:href="#f2_4" transform="matrix(9.6,0,0,9.6,395.4,496)" />
<use xlink:href="#f1_4" transform="matrix(12,0,0,12,129.7,523.2)" />
<use xlink:href="#f1_1k" transform="matrix(12,0,0,12,135.5,523.2)" />
<use xlink:href="#f1_1k" transform="matrix(12,0,0,12,141,523.2)" />
<use xlink:href="#f1_5" transform="matrix(12,0,0,12,146.5,523.2)" />
<use xlink:href="#f1_z" transform="matrix(12,0,0,12,173,523.2)" />
<use xlink:href="#f1_1v" transform="matrix(12,0,0,12,187.3,523.2)" />
<use xlink:href="#f1_1u" transform="matrix(12,0,0,12,198.5,523.2)" />
<use xlink:href="#f1_1p" transform="matrix(12,0,0,12,211,523.2)" />
<use xlink:href="#f1_1h" transform="matrix(12,0,0,12,220.2,523.2)" />
<use xlink:href="#f1_s" transform="matrix(12,0,0,12,231.6,523.2)" />
<use xlink:href="#f1_1g" transform="matrix(12,0,0,12,246.9,523.2)" />
<use xlink:href="#f1_1c" transform="matrix(12,0,0,12,261.5,523.2)" />
<use xlink:href="#f1_1o" transform="matrix(12,0,0,12,271.7,523.2)" />
<use xlink:href="#f1_1f" transform="matrix(12,0,0,12,282.8,523.2)" />
<use xlink:href="#f1_17" transform="matrix(12,0,0,12,298.7,523.2)" />
<use xlink:href="#f1_1g" transform="matrix(12,0,0,12,311.6,523.2)" />
<use xlink:href="#f1_6" transform="matrix(12,0,0,12,320.8,523.2)" />
<use xlink:href="#f1_1x" transform="matrix(12,0,0,12,331.3,523.2)" />
<use xlink:href="#f1_1j" transform="matrix(12,0,0,12,345.5,523.2)" />
<use xlink:href="#f1_1k" transform="matrix(12,0,0,12,356.7,523.2)" />
<use xlink:href="#f1_1e" transform="matrix(12,0,0,12,362.5,523.2)" />
<use xlink:href="#f1_1j" transform="matrix(12,0,0,12,370.6,523.2)" />
<use xlink:href="#f1_1p" transform="matrix(12,0,0,12,387.1,523.2)" />
<use xlink:href="#f1_1o" transform="matrix(12,0,0,12,396.3,523.2)" />
<use xlink:href="#f1_1g" transform="matrix(12,0,0,12,407.5,523.2)" />
<use xlink:href="#f1_1e" transform="matrix(12,0,0,12,422,523.2)" />
<use xlink:href="#f1_1c" transform="matrix(12,0,0,12,430.1,523.2)" />
<use xlink:href="#f1_1o" transform="matrix(12,0,0,12,440.3,523.2)" />
<use xlink:href="#f1_1g" transform="matrix(12,0,0,12,456.8,523.2)" />
<use xlink:href="#f1_1c" transform="matrix(12,0,0,12,466,523.2)" />
<use xlink:href="#f1_1t" transform="matrix(12,0,0,12,476.2,523.2)" />
<use xlink:href="#f1_1k" transform="matrix(12,0,0,12,484.7,523.2)" />
<use xlink:href="#f1_1m" transform="matrix(12,0,0,12,490.5,523.2)" />
<use xlink:href="#f1_1z" transform="matrix(12,0,0,12,496.3,523.2)" />
<use xlink:href="#f1_1h" transform="matrix(12,0,0,12,511.5,523.2)" />
<use xlink:href="#f1_1p" transform="matrix(12,0,0,12,517.6,523.2)" />
<use xlink:href="#f1_1s" transform="matrix(12,0,0,12,526.8,523.2)" />
<use xlink:href="#f1_1n" transform="matrix(12,0,0,12,535,523.2)" />
<use xlink:href="#f1_1e" transform="matrix(12,0,0,12,556.7,523.2)" />
<use xlink:href="#f1_1p" transform="matrix(12,0,0,12,564.8,523.2)" />
<use xlink:href="#f1_1n" transform="matrix(12,0,0,12,574,523.2)" />
<use xlink:href="#f1_1q" transform="matrix(12,0,0,12,590.4,523.2)" />
<use xlink:href="#f1_1p" transform="matrix(12,0,0,12,600.9,523.2)" />
<use xlink:href="#f1_1v" transform="matrix(12,0,0,12,610.1,523.2)" />
<use xlink:href="#f1_1o" transform="matrix(12,0,0,12,621.2,523.2)" />
<use xlink:href="#f1_1f" transform="matrix(12,0,0,12,632.4,523.2)" />
<use xlink:href="#f1_1c" transform="matrix(12,0,0,12,648.3,523.2)" />
<use xlink:href="#f1_1o" transform="matrix(12,0,0,12,658.5,523.2)" />
<use xlink:href="#f1_1f" transform="matrix(12,0,0,12,669.7,523.2)" />
<use xlink:href="#f1_1x" transform="matrix(12,0,0,12,685.6,523.2)" />
<use xlink:href="#f1_1j" transform="matrix(12,0,0,12,699.9,523.2)" />
<use xlink:href="#f1_1z" transform="matrix(12,0,0,12,711,523.2)" />
<use xlink:href="#f1_k" transform="matrix(12,0,0,12,726.2,523.2)" />
<use xlink:href="#f1_4" transform="matrix(12,0,0,12,129.7,556.8)" />
<use xlink:href="#f1_1k" transform="matrix(12,0,0,12,135.5,556.8)" />
<use xlink:href="#f1_1k" transform="matrix(12,0,0,12,141,556.8)" />
<use xlink:href="#f1_1k" transform="matrix(12,0,0,12,146.4,556.8)" />
<use xlink:href="#f1_5" transform="matrix(12,0,0,12,151.9,556.8)" />
<use xlink:href="#f1_16" transform="matrix(12,0,0,12,172.7,556.8)" />
<use xlink:href="#f1_1s" transform="matrix(12,0,0,12,190.4,556.8)" />
<use xlink:href="#f1_1k" transform="matrix(12,0,0,12,198.2,556.8)" />
<use xlink:href="#f1_1u" transform="matrix(12,0,0,12,203.6,556.8)" />
<use xlink:href="#f1_1g" transform="matrix(12,0,0,12,210.5,556.8)" />
<use xlink:href="#f1_1u" transform="matrix(12,0,0,12,224.1,556.8)" />
<use xlink:href="#f1_1j" transform="matrix(12,0,0,12,231,556.8)" />
<use xlink:href="#f1_1g" transform="matrix(12,0,0,12,241.8,556.8)" />
<use xlink:href="#f1_1e" transform="matrix(12,0,0,12,255.5,556.8)" />
<use xlink:href="#f1_1p" transform="matrix(12,0,0,12,263.3,556.8)" />
<use xlink:href="#f1_1o" transform="matrix(12,0,0,12,272.1,556.8)" />
<use xlink:href="#f1_1f" transform="matrix(12,0,0,12,283,556.8)" />
<use xlink:href="#f1_1k" transform="matrix(12,0,0,12,293.2,556.8)" />
<use xlink:href="#f1_1u" transform="matrix(12,0,0,12,298.7,556.8)" />
<use xlink:href="#f1_1k" transform="matrix(12,0,0,12,305.5,556.8)" />
<use xlink:href="#f1_1p" transform="matrix(12,0,0,12,311,556.8)" />
<use xlink:href="#f1_1o" transform="matrix(12,0,0,12,319.8,556.8)" />
<use xlink:href="#f1_1t" transform="matrix(12,0,0,12,330.7,556.8)" />
<use xlink:href="#f1_1u" transform="matrix(12,0,0,12,343.6,556.8)" />
<use xlink:href="#f1_1p" transform="matrix(12,0,0,12,350.5,556.8)" />
<use xlink:href="#f1_1n" transform="matrix(12,0,0,12,364.1,556.8)" />
<use xlink:href="#f1_1c" transform="matrix(12,0,0,12,380.2,556.8)" />
<use xlink:href="#f1_1y" transform="matrix(12,0,0,12,390.1,556.8)" />
<use xlink:href="#f1_1k" transform="matrix(12,0,0,12,399.6,556.8)" />
<use xlink:href="#f1_1n" transform="matrix(12,0,0,12,405.1,556.8)" />
<use xlink:href="#f1_1k" transform="matrix(12,0,0,12,421.1,556.8)" />
<use xlink:href="#f1_20" transform="matrix(12,0,0,12,426.6,556.8)" />
<use xlink:href="#f1_1g" transform="matrix(12,0,0,12,435.1,556.8)" />
<use xlink:href="#f1_1u" transform="matrix(12,0,0,12,448.7,556.8)" />
<use xlink:href="#f1_1j" transform="matrix(12,0,0,12,455.6,556.8)" />
<use xlink:href="#f1_1g" transform="matrix(12,0,0,12,466.4,556.8)" />
<use xlink:href="#f1_1z" transform="matrix(12,0,0,12,480,556.8)" />
<use xlink:href="#f1_1k" transform="matrix(12,0,0,12,489.6,556.8)" />
<use xlink:href="#f1_1g" transform="matrix(12,0,0,12,495.1,556.8)" />
<use xlink:href="#f1_1m" transform="matrix(12,0,0,12,503.9,556.8)" />
<use xlink:href="#f1_1f" transform="matrix(12,0,0,12,509.4,556.8)" />
<use xlink:href="#f1_1p" transform="matrix(12,0,0,12,524.4,556.8)" />
<use xlink:href="#f1_1h" transform="matrix(12,0,0,12,533.2,556.8)" />
<use xlink:href="#f1_1c" transform="matrix(12,0,0,12,543.8,556.8)" />
<use xlink:href="#f1_1n" transform="matrix(12,0,0,12,553.7,556.8)" />
<use xlink:href="#f1_1n" transform="matrix(12,0,0,12,569.7,556.8)" />
<use xlink:href="#f1_1p" transform="matrix(12,0,0,12,585.8,556.8)" />
<use xlink:href="#f1_1o" transform="matrix(12,0,0,12,594.6,556.8)" />
<use xlink:href="#f1_1k" transform="matrix(12,0,0,12,605.4,556.8)" />
<use xlink:href="#f1_1c" transform="matrix(12,0,0,12,610.9,556.8)" />
<use xlink:href="#f1_1k" transform="matrix(12,0,0,12,625.6,556.8)" />
<use xlink:href="#f1_1o" transform="matrix(12,0,0,12,631,556.8)" />
<use xlink:href="#f1_s" transform="matrix(12,0,0,12,646.6,556.8)" />
<use xlink:href="#f1_1c" transform="matrix(12,0,0,12,661.6,556.8)" />
<use xlink:href="#f1_1d" transform="matrix(12,0,0,12,671.5,556.8)" />
<use xlink:href="#f1_1g" transform="matrix(12,0,0,12,681.4,556.8)" />
<use xlink:href="#f1_1s" transform="matrix(12,0,0,12,690.2,556.8)" />
<use xlink:href="#f1_21" transform="matrix(12,0,0,12,698,556.8)" />
<use xlink:href="#f1_1t" transform="matrix(12,0,0,12,701.4,556.8)" />
<use xlink:href="#f1_1q" transform="matrix(12,0,0,12,714.3,556.8)" />
<use xlink:href="#f1_1s" transform="matrix(12,0,0,12,724.6,556.8)" />
<use xlink:href="#f1_1p" transform="matrix(12,0,0,12,732.4,556.8)" />
<use xlink:href="#f1_1e" transform="matrix(12,0,0,12,741.2,556.8)" />
<use xlink:href="#f1_1g" transform="matrix(12,0,0,12,749,556.8)" />
<use xlink:href="#f1_1t" transform="matrix(12,0,0,12,757.8,556.8)" />
<use xlink:href="#f1_1t" transform="matrix(12,0,0,12,766,556.8)" />
<use xlink:href="#f1_8" transform="matrix(12,0,0,12,774.1,556.8)" />
<use xlink:href="#f1_4" transform="matrix(12,0,0,12,129.7,590.2)" />
<use xlink:href="#f1_1k" transform="matrix(12,0,0,12,135.7,590.2)" />
<use xlink:href="#f1_1w" transform="matrix(12,0,0,12,141.3,590.2)" />
<use xlink:href="#f1_5" transform="matrix(12,0,0,12,151.1,590.2)" />
<use xlink:href="#f1_16" transform="matrix(12,0,0,12,173.1,590.2)" />
<use xlink:href="#f1_1s" transform="matrix(12,0,0,12,191,590.2)" />
<use xlink:href="#f1_1k" transform="matrix(12,0,0,12,199.1,590.2)" />
<use xlink:href="#f1_1u" transform="matrix(12,0,0,12,204.9,590.2)" />
<use xlink:href="#f1_1g" transform="matrix(12,0,0,12,212.1,590.2)" />
<use xlink:href="#f1_1u" transform="matrix(12,0,0,12,226.5,590.2)" />
<use xlink:href="#f1_1x" transform="matrix(12,0,0,12,233.6,590.2)" />
<use xlink:href="#f1_1p" transform="matrix(12,0,0,12,247.9,590.2)" />
<use xlink:href="#f1_1v" transform="matrix(12,0,0,12,262.3,590.2)" />
<use xlink:href="#f1_1t" transform="matrix(12,0,0,12,273.4,590.2)" />
<use xlink:href="#f1_1g" transform="matrix(12,0,0,12,281.9,590.2)" />
<use xlink:href="#f1_1t" transform="matrix(12,0,0,12,291.1,590.2)" />
<use xlink:href="#f1_1p" transform="matrix(12,0,0,12,304.7,590.2)" />
<use xlink:href="#f1_1h" transform="matrix(12,0,0,12,313.9,590.2)" />
<use xlink:href="#f1_n" transform="matrix(12,0,0,12,325.2,590.2)" />
<use xlink:href="#f1_1j" transform="matrix(12,0,0,12,338.5,590.2)" />
<use xlink:href="#f1_1m" transform="matrix(12,0,0,12,349.6,590.2)" />
<use xlink:href="#f1_1p" transform="matrix(12,0,0,12,355.4,590.2)" />
<use xlink:href="#f1_1s" transform="matrix(12,0,0,12,364.6,590.2)" />
<use xlink:href="#f1_1k" transform="matrix(12,0,0,12,372.7,590.2)" />
<use xlink:href="#f1_1o" transform="matrix(12,0,0,12,378.5,590.2)" />
<use xlink:href="#f1_1g" transform="matrix(12,0,0,12,389.7,590.2)" />
<use xlink:href="#f1_1i" transform="matrix(12,0,0,12,404,590.2)" />
<use xlink:href="#f1_1c" transform="matrix(12,0,0,12,413.9,590.2)" />
<use xlink:href="#f1_1t" transform="matrix(12,0,0,12,424.1,590.2)" />
<use xlink:href="#f1_8" transform="matrix(12,0,0,12,432.6,590.2)" />
<use xlink:href="#f1_4" transform="matrix(12,0,0,12,129.7,623.6)" />
<use xlink:href="#f1_1w" transform="matrix(12,0,0,12,135.6,623.6)" />
<use xlink:href="#f1_5" transform="matrix(12,0,0,12,145.3,623.6)" />
<use xlink:href="#f1_s" transform="matrix(12,0,0,12,173,623.6)" />
<use xlink:href="#f1_1p" transform="matrix(12,0,0,12,188.3,623.6)" />
<use xlink:href="#f1_1x" transform="matrix(12,0,0,12,197.5,623.6)" />
<use xlink:href="#f1_1e" transform="matrix(12,0,0,12,217.1,623.6)" />
<use xlink:href="#f1_1c" transform="matrix(12,0,0,12,225.2,623.6)" />
<use xlink:href="#f1_1o" transform="matrix(12,0,0,12,235.4,623.6)" />
<use xlink:href="#f1_1z" transform="matrix(12,0,0,12,251.8,623.6)" />
<use xlink:href="#f1_1p" transform="matrix(12,0,0,12,261.7,623.6)" />
<use xlink:href="#f1_1v" transform="matrix(12,0,0,12,270.9,623.6)" />
<use xlink:href="#f1_1f" transform="matrix(12,0,0,12,287.3,623.6)" />
<use xlink:href="#f1_1g" transform="matrix(12,0,0,12,297.9,623.6)" />
<use xlink:href="#f1_1u" transform="matrix(12,0,0,12,307.1,623.6)" />
<use xlink:href="#f1_1g" transform="matrix(12,0,0,12,314.2,623.6)" />
<use xlink:href="#f1_1e" transform="matrix(12,0,0,12,323.4,623.6)" />
<use xlink:href="#f1_1u" transform="matrix(12,0,0,12,331.5,623.6)" />
<use xlink:href="#f1_1u" transform="matrix(12,0,0,12,344,623.6)" />
<use xlink:href="#f1_1j" transform="matrix(12,0,0,12,351.2,623.6)" />
<use xlink:href="#f1_1g" transform="matrix(12,0,0,12,362.3,623.6)" />
<use xlink:href="#f1_1q" transform="matrix(12,0,0,12,376.8,623.6)" />
<use xlink:href="#f1_1s" transform="matrix(12,0,0,12,387.3,623.6)" />
<use xlink:href="#f1_1g" transform="matrix(12,0,0,12,395.5,623.6)" />
<use xlink:href="#f1_1t" transform="matrix(12,0,0,12,404.6,623.6)" />
<use xlink:href="#f1_1g" transform="matrix(12,0,0,12,413.1,623.6)" />
<use xlink:href="#f1_1o" transform="matrix(12,0,0,12,422.3,623.6)" />
<use xlink:href="#f1_1e" transform="matrix(12,0,0,12,433.5,623.6)" />
<use xlink:href="#f1_1g" transform="matrix(12,0,0,12,441.6,623.6)" />
<use xlink:href="#f1_1p" transform="matrix(12,0,0,12,456,623.6)" />
<use xlink:href="#f1_1h" transform="matrix(12,0,0,12,465.2,623.6)" />
<use xlink:href="#f1_12" transform="matrix(12,0,0,12,476.6,623.6)" />
<use xlink:href="#f1_z" transform="matrix(12,0,0,12,488.2,623.6)" />
<use xlink:href="#f2_4" transform="matrix(9.6,0,0,9.6,502.6,629.8)" />
<use xlink:href="#f1_1i" transform="matrix(12,0,0,12,516,623.6)" />
<use xlink:href="#f1_1c" transform="matrix(12,0,0,12,525.9,623.6)" />
<use xlink:href="#f1_1t" transform="matrix(12,0,0,12,536.1,623.6)" />
<use xlink:href="#f1_k" transform="matrix(12,0,0,12,549.9,623.6)" />
<use xlink:href="#f0_7" transform="matrix(12,0,0,12,86.4,696.3)" />
<use xlink:href="#f0_a" transform="matrix(12,0,0,12,96.4,696.3)" />
<use xlink:href="#f0_3" transform="matrix(12,0,0,12,106.5,696.3)" />
<use xlink:href="#f1_4" transform="matrix(12,0,0,12,129.7,696.3)" />
<use xlink:href="#f1_1c" transform="matrix(12,0,0,12,135.4,696.3)" />
<use xlink:href="#f1_5" transform="matrix(12,0,0,12,145.3,696.3)" />
<use xlink:href="#f3_22" transform="matrix(16,0,0,16,173,696.3)" />
<use xlink:href="#f3_1t" transform="matrix(16,0,0,16,178.3,696.3)" />
<use xlink:href="#f3_r" transform="matrix(16,0,0,16,188.4,696.3)" />
<use xlink:href="#f3_1t" transform="matrix(16,0,0,16,195.4,696.3)" />
<use xlink:href="#f3_1r" transform="matrix(16,0,0,16,214.6,696.3)" />
<use xlink:href="#f3_27" transform="matrix(16,0,0,16,226.1,696.3)" />
<use xlink:href="#f3_13" transform="matrix(16,0,0,16,226.3,696.3)" />
<use xlink:href="#f3_1b" transform="matrix(16,0,0,16,235.7,696.3)" />
<use xlink:href="#f3_2c" transform="matrix(16,0,0,16,246,696.3)" />
<use xlink:href="#f3_l" transform="matrix(16,0,0,16,246.3,696.3)" />
<use xlink:href="#f3_1s" transform="matrix(16,0,0,16,252.1,696.3)" />
<use xlink:href="#f3_27" transform="matrix(16,0,0,16,263.3,696.3)" />
<use xlink:href="#f3_14" transform="matrix(16,0,0,16,263.6,696.3)" />
<use xlink:href="#f3_14" transform="matrix(16,0,0,16,287.5,696.3)" />
<use xlink:href="#f3_27" transform="matrix(16,0,0,16,297.4,696.3)" />
<use xlink:href="#f3_11" transform="matrix(16,0,0,16,311.6,696.3)" />
<use xlink:href="#f3_l" transform="matrix(16,0,0,16,321.5,696.3)" />
<use xlink:href="#f3_1b" transform="matrix(16,0,0,16,327.4,696.3)" />
<use xlink:href="#f3_21" transform="matrix(16,0,0,16,337.6,696.3)" />
<use xlink:href="#f3_1l" transform="matrix(16,0,0,16,342,696.3)" />
<use xlink:href="#f3_22" transform="matrix(16,0,0,16,361.1,696.3)" />
<use xlink:href="#f3_1v" transform="matrix(16,0,0,16,366.4,696.3)" />
<use xlink:href="#f3_22" transform="matrix(16,0,0,16,380.2,696.3)" />
<use xlink:href="#f3_16" transform="matrix(16,0,0,16,385.5,696.3)" />
<use xlink:href="#f3_12" transform="matrix(16,0,0,16,400.9,696.3)" />
<use xlink:href="#f3_1o" transform="matrix(16,0,0,16,420.7,696.3)" />
<use xlink:href="#f1_4" transform="matrix(12,0,0,12,173,743.4)" />
<use xlink:href="#f1_1k" transform="matrix(12,0,0,12,178.7,743.4)" />
<use xlink:href="#f1_5" transform="matrix(12,0,0,12,184,743.4)" />
</g>
<image preserveAspectRatio="none" x="216" y="722" width="263" height="32" xlink:href="img/1.png" />
<g fill="#000000" >
<use xlink:href="#f1_4" transform="matrix(12,0,0,12,173,863.5)" />
<use xlink:href="#f1_1k" transform="matrix(12,0,0,12,178.8,863.5)" />
<use xlink:href="#f1_1k" transform="matrix(12,0,0,12,184.3,863.5)" />
<use xlink:href="#f1_5" transform="matrix(12,0,0,12,189.8,863.5)" />
</g>
<image preserveAspectRatio="none" x="216" y="790" width="214" height="110" xlink:href="img/2.png" />
<g fill="#000000" >
<use xlink:href="#f1_4" transform="matrix(12,0,0,12,173,1024.7)" />
<use xlink:href="#f1_1k" transform="matrix(12,0,0,12,178.9,1024.7)" />
<use xlink:href="#f1_1k" transform="matrix(12,0,0,12,184.4,1024.7)" />
<use xlink:href="#f1_1k" transform="matrix(12,0,0,12,190,1024.7)" />
<use xlink:href="#f1_5" transform="matrix(12,0,0,12,195.5,1024.7)" />
</g>
<image preserveAspectRatio="none" x="216" y="952" width="308" height="109" xlink:href="img/3.png" />
<defs>
<path d="M354,0V148H581c3,0,6,0,9,0c52,0,91,12,113,35c24,25,36,66,36,124V1688c0,31,-9,57,-30,74c-20,16,-49,26,-90,27H296v148c161,9,295,28,404,58c110,29,221,74,334,133h119V261c0,-36,10,-65,31,-85c18,-19,45,-28,77,-28c2,0,5,0,7,0h284V0Z" 
id="f0_6"
transform="scale(4.8828125E-4,-4.8828125E-4)" />

<path d="M865,-59C655,-59,493,-10,379,89C264,188,206,315,206,469c0,93,25,165,71,220c47,52,106,79,178,79c66,0,119,-21,162,-64c43,-42,63,-96,63,-157C680,461,640,394,561,344C527,321,506,306,500,295c-8,-9,-13,-22,-13,-37c0,-38,23,-72,69,-102C623,111,695,89,776,89c3,0,5,0,8,0c2,0,4,0,6,0c107,0,192,39,253,116c65,78,95,200,95,365c0,162,-29,283,-87,362c-58,76,-133,116,-223,118c-21,-2,-50,-3,-85,-8c-34,-6,-60,-8,-78,-8c-28,0,-49,8,-65,23c-15,14,-24,35,-24,64c0,29,9,51,26,68c17,13,44,23,79,23c14,0,34,-2,60,-7c27,-5,49,-8,67,-8c4,0,7,1,11,1c2,0,4,0,6,0c89,0,157,32,208,95c50,62,76,166,76,314c0,145,-29,252,-87,318c-56,66,-137,99,-241,101c-72,-2,-126,-14,-162,-37c-38,-24,-57,-47,-57,-73c0,-15,3,-26,8,-34c6,-6,20,-20,44,-39c51,-39,84,-72,101,-100c17,-29,24,-61,24,-98c0,-61,-19,-113,-62,-152c-41,-39,-93,-58,-154,-58c-2,0,-4,0,-7,0c-2,0,-3,0,-5,0c-64,0,-118,24,-161,71c-46,49,-69,112,-69,191c0,110,41,211,125,301c107,116,263,175,468,175c139,0,258,-25,357,-72c100,-48,178,-112,230,-193c50,-81,76,-168,76,-264c0,-106,-32,-199,-98,-283c-66,-82,-176,-154,-328,-215c166,-46,290,-121,374,-222c84,-102,127,-223,127,-363c0,-187,-66,-336,-197,-449C1283,-2,1100,-59,865,-59Z" 
id="f0_8"
transform="scale(4.8828125E-4,-4.8828125E-4)" />

<path d="M798,-59C611,-59,460,-10,347,87C235,183,177,303,177,440c0,92,25,163,75,218c49,54,110,80,185,81c67,-1,121,-22,163,-65c45,-41,65,-93,65,-155c0,-44,-10,-84,-29,-114C616,371,578,341,521,310C480,286,458,263,458,241c0,-35,22,-67,66,-93C586,108,659,89,742,89c3,0,7,0,10,0c1,0,3,0,5,0c106,0,191,47,254,137c66,92,98,249,98,474c0,188,-30,325,-93,411c-61,87,-141,130,-237,131c-44,-1,-91,-11,-143,-27c-52,-17,-107,-43,-167,-77c0,-81,-11,-134,-31,-163C420,947,394,932,359,932c-1,0,-3,0,-5,0c-2,0,-5,0,-7,0c-29,0,-51,7,-67,23c-19,17,-28,38,-28,64c0,38,29,98,89,177l73,977c217,-48,411,-74,584,-74c5,0,10,0,15,0c7,0,13,0,20,0c127,0,233,14,318,41c35,11,56,17,62,19c14,-2,22,-12,22,-31c0,-69,-26,-140,-78,-215c-52,-77,-119,-133,-204,-171c-79,-37,-179,-57,-301,-57c-4,0,-9,0,-13,0c-6,0,-12,0,-19,0c-91,0,-194,11,-307,31L481,1303c77,34,147,58,214,75c66,17,128,26,187,26c192,0,359,-66,495,-194c137,-130,204,-302,204,-516c0,-223,-70,-405,-215,-544C1222,9,1033,-59,798,-59Z" 
id="f0_a"
transform="scale(4.8828125E-4,-4.8828125E-4)" />

<path d="M932,89c2,0,3,0,5,0c1,0,2,0,4,0c77,0,142,39,193,119c53,79,78,217,78,408c0,185,-23,313,-72,385c-48,70,-112,107,-190,108C874,1108,805,1065,743,982C681,897,651,778,651,622c0,-179,33,-321,98,-423C795,127,856,89,932,89Zm9,-148C717,-59,538,21,406,183C254,373,177,633,177,963c0,372,93,675,278,904c165,203,368,306,611,306c156,0,280,-40,375,-117c94,-78,140,-166,140,-267c0,-75,-21,-136,-67,-182c-44,-47,-101,-70,-168,-70c-60,0,-108,18,-148,60c-40,39,-60,90,-60,151c0,44,14,87,37,131c15,25,23,46,23,63c0,23,-11,43,-34,59c-23,16,-55,23,-101,25C932,2024,834,1954,768,1813C686,1639,648,1403,651,1100c66,72,136,125,208,160c71,36,146,55,224,55c148,0,280,-53,397,-157c118,-104,176,-260,176,-467c0,-227,-66,-408,-198,-544C1326,8,1153,-59,941,-59Z" 
id="f0_b"
transform="scale(4.8828125E-4,-4.8828125E-4)" />

<path d="M-51,0L631,2261H924L241,0Z" 
id="f0_4"
transform="scale(4.8828125E-4,-4.8828125E-4)" />

<path d="M1077,-59C840,-59,625,23,431,191L252,-28H148V798H281C412,325,680,89,1082,89c2,0,3,0,4,0c3,0,7,0,10,0c162,0,287,38,378,114c92,77,138,173,138,289c0,79,-20,147,-61,203c-40,54,-103,98,-187,133c-47,17,-162,46,-343,87C775,969,597,1027,490,1086c-108,58,-187,130,-236,217c-51,84,-77,190,-77,313c0,208,71,376,210,508c140,131,328,195,563,197c226,-2,433,-78,621,-233l143,204h89l15,-784H1685c-70,220,-172,386,-304,498c-131,110,-276,167,-435,167c-135,0,-246,-39,-330,-114C530,1983,487,1894,487,1791c0,-63,17,-121,51,-173c33,-50,85,-95,159,-131c73,-37,201,-77,386,-117c217,-48,367,-90,451,-125c134,-59,235,-139,302,-234c68,-97,101,-215,101,-351c0,-209,-73,-374,-217,-497C1546,14,1332,-59,1077,-59Z" 
id="f0_k"
transform="scale(4.8828125E-4,-4.8828125E-4)" />

<path d="M1291,1153c92,0,174,20,246,62c75,39,128,90,160,149c32,58,48,155,48,286c0,180,-49,307,-147,383c-70,52,-192,80,-365,81c-98,-1,-160,-9,-188,-26c-26,-16,-40,-45,-40,-85V1153h275c4,0,7,0,11,0ZM193,0V148H394c3,0,6,0,9,0c41,0,74,11,95,32c23,22,34,54,34,95V1989c0,37,-11,67,-35,90c-23,23,-52,34,-86,35H193v147H1506c223,0,402,-61,538,-182c136,-120,203,-267,203,-441c0,-135,-39,-251,-117,-349c-78,-100,-184,-172,-317,-218c-127,-43,-254,-66,-380,-66c-4,0,-8,0,-12,0H1005V275c0,-41,13,-73,35,-95c23,-21,50,-32,84,-32c2,0,4,0,7,0h259V0Z" 
id="f0_i"
transform="scale(4.8828125E-4,-4.8828125E-4)" />

<path d="M420,-59c-70,0,-131,26,-182,74C188,66,162,127,162,200c0,70,26,130,76,182c51,49,112,75,182,76c72,-1,133,-27,185,-76c50,-52,75,-112,75,-182C680,127,655,66,605,15C553,-33,492,-59,420,-59Z" 
id="f0_3"
transform="scale(4.8828125E-4,-4.8828125E-4)" />

<path d="M532,0V148H781c2,0,4,0,7,0c33,0,61,11,81,31c23,20,32,47,32,82V1995c0,40,-9,69,-32,89c-21,18,-55,29,-101,30C513,2113,342,1876,252,1404H118l44,857H2114l45,-857H2026c-34,182,-75,324,-127,426c-50,101,-110,174,-176,219c-65,43,-137,64,-217,65c-45,-1,-79,-10,-100,-29c-20,-19,-31,-45,-31,-81V261c0,-33,11,-61,32,-82c20,-20,43,-31,71,-31c2,0,4,0,5,0h262V0Z" 
id="f0_l"
transform="scale(4.8828125E-4,-4.8828125E-4)" />

<path d="M1296,89c3,0,6,0,9,0c1,0,3,0,5,0c185,0,333,79,444,235c113,157,168,432,168,825c0,272,-24,477,-72,614c-49,138,-121,240,-215,309c-95,65,-207,101,-332,101c-124,0,-232,-36,-324,-101C888,2003,814,1894,761,1745C707,1593,680,1389,680,1128c0,-275,24,-485,75,-624C805,361,877,257,972,189C1066,122,1173,89,1296,89Zm-2,-148C1077,-59,880,-7,707,95C535,199,397,338,298,515C197,691,148,894,148,1128c0,345,110,629,329,855c220,225,492,336,814,338c214,-2,411,-52,591,-156c181,-104,321,-246,422,-425c101,-179,150,-380,150,-605C2454,793,2344,509,2122,281C1899,53,1624,-59,1294,-59Z" 
id="f0_h"
transform="scale(4.8828125E-4,-4.8828125E-4)" />

<path d="M993,-606C830,-460,706,-338,622,-236C486,-72,382,99,312,280C241,461,206,651,206,848c0,194,34,377,100,553c65,174,163,342,290,501c88,109,221,243,397,403l41,-84C886,2067,776,1930,704,1806C634,1681,581,1540,544,1383C506,1225,487,1043,487,839c0,-200,20,-378,58,-532C585,151,642,8,715,-118c73,-130,179,-266,319,-408l-41,-80Z" 
id="f1_4"
transform="scale(4.8828125E-4,-4.8828125E-4)" />

<path d="M652,60c2,0,4,0,6,0c2,0,4,0,6,0c119,0,224,45,311,137c90,92,134,208,134,348V753C846,717,660,658,550,576C469,513,429,426,429,313c0,-81,22,-143,63,-188C533,82,586,60,652,60ZM597,-43C451,-43,339,-13,263,49C186,112,148,193,148,292c0,148,87,270,263,368c174,98,408,163,698,197v226c0,80,-30,147,-93,205c-61,56,-139,85,-234,87c-87,-2,-163,-20,-227,-58c-45,-29,-68,-57,-68,-83c0,-16,13,-41,34,-74c27,-43,41,-81,41,-112c0,-49,-15,-87,-44,-116C489,903,453,888,407,888c-2,0,-4,0,-7,0c-2,0,-4,0,-6,0c-48,0,-88,16,-121,50c-33,35,-51,80,-51,135c0,100,58,192,172,278c115,84,264,126,451,128c173,-2,304,-40,394,-113c90,-77,136,-168,136,-275V295c0,-72,11,-124,32,-156c22,-34,48,-50,81,-50c2,0,3,0,5,0c1,0,3,0,5,0c38,0,78,15,118,44l54,-76C1595,-10,1513,-43,1421,-43c-70,0,-130,16,-177,51c-48,35,-91,99,-126,189C1022,99,937,35,863,3C788,-28,701,-43,597,-43Z" 
id="f1_1c"
transform="scale(4.8828125E-4,-4.8828125E-4)" />

<path d="M70,-606l-41,80c141,142,246,278,321,406C423,8,480,151,518,307c40,154,58,332,58,530c0,206,-18,388,-55,546c-38,157,-93,298,-165,423C287,1930,177,2069,29,2221l41,84C249,2143,379,2012,461,1913C590,1754,689,1586,756,1409C823,1230,857,1043,857,848C857,654,825,471,759,301C695,128,597,-39,466,-204C373,-320,241,-454,70,-606Z" 
id="f1_5"
transform="scale(4.8828125E-4,-4.8828125E-4)" />

<path d="M1442,857L1042,1875L634,857ZM-28,0V118c86,0,155,18,205,56c49,37,95,109,138,216l768,1915h106L2000,241c33,-84,102,-123,205,-123h71V0H1375V118h70c95,0,162,9,199,30c27,12,40,35,40,64c0,17,-2,34,-10,55L1488,739H587L478,469C451,396,437,338,437,296c0,-50,23,-91,69,-126c47,-36,114,-52,201,-52h77V0Z" 
id="f1_l"
transform="scale(4.8828125E-4,-4.8828125E-4)" />

<path d="M778,-43C579,-43,417,20,292,153C167,284,104,460,104,678c0,254,69,450,205,590c137,139,298,209,482,211c139,-2,254,-40,344,-115c92,-78,136,-162,136,-255c0,-56,-17,-102,-52,-139c-32,-35,-72,-53,-117,-53c-1,0,-3,0,-5,0c-2,0,-4,0,-6,0c-43,0,-81,16,-112,46c-30,30,-47,68,-47,113c0,42,17,85,49,126c17,19,24,34,24,46c0,28,-18,57,-56,84c-40,28,-92,41,-158,43C671,1373,579,1329,518,1238C429,1105,385,930,385,715C385,509,425,351,504,246C583,142,683,89,805,89c1,0,3,0,5,0c1,0,2,0,3,0c170,0,295,114,377,340l112,-30C1222,102,1047,-43,778,-43Z" 
id="f1_1e"
transform="scale(4.8828125E-4,-4.8828125E-4)" />

<path d="M784,60c117,0,215,53,287,157c75,105,112,280,112,522c0,224,-36,384,-110,485c-74,101,-172,149,-294,151C665,1373,570,1322,495,1216C422,1111,385,947,385,721C385,490,422,322,495,217C567,113,660,60,774,60c2,0,4,0,5,0c2,0,3,0,5,0ZM770,-43C585,-43,426,24,298,167C168,307,104,490,104,717c0,224,66,407,194,548c131,141,290,212,481,214c194,-2,356,-72,488,-211c131,-140,197,-324,197,-551c0,-158,-29,-292,-89,-402C1317,203,1233,116,1123,52C1014,-11,897,-43,770,-43Z" 
id="f1_1p"
transform="scale(4.8828125E-4,-4.8828125E-4)" />

<path d="M788,-14C663,-14,556,28,471,115C383,200,341,345,341,550v622c0,53,-22,95,-66,124c-31,19,-92,30,-186,35v117l518,16V523c0,-117,27,-205,84,-268c56,-62,128,-93,217,-93c108,0,201,44,279,136c76,92,115,206,115,344v530c0,49,-17,85,-52,113c-35,26,-103,41,-200,46v117l518,16V286c0,-55,13,-97,42,-126c29,-29,71,-42,123,-42h85V0L1331,-14l-29,312C1216,193,1132,115,1048,63C963,11,877,-14,788,-14Z" 
id="f1_1v"
transform="scale(4.8828125E-4,-4.8828125E-4)" />

<path d="M118,0V118h99c50,0,89,9,115,30c24,19,38,45,38,75v909c0,58,-16,106,-48,136c-30,31,-76,47,-134,47H118v120l473,29c20,-89,35,-191,45,-307c62,105,137,186,223,239c87,54,184,81,293,83c93,-2,173,-21,235,-58c63,-38,115,-98,153,-179c38,-81,57,-173,57,-273V263c0,-54,12,-90,35,-112c23,-23,62,-33,116,-33h101V0H1079V118h71c68,0,115,9,141,32c26,21,40,53,40,96V863c0,133,-20,234,-60,300c-55,91,-137,137,-249,137c-110,0,-202,-47,-275,-139C672,1066,636,946,636,796V263c0,-54,12,-92,36,-112c23,-23,63,-33,116,-33H888V0Z" 
id="f1_1o"
transform="scale(4.8828125E-4,-4.8828125E-4)" />

<path d="M706,-14C587,-14,493,17,426,81C359,147,325,231,325,338v962H73v101c118,18,207,67,268,144c90,113,139,273,146,481H591V1435h459V1300H591V368c0,-82,20,-143,57,-186c36,-43,84,-64,140,-64c69,0,129,33,176,99c49,66,78,176,86,330h103C1147,356,1103,214,1022,122C941,31,836,-14,706,-14Z" 
id="f1_1u"
transform="scale(4.8828125E-4,-4.8828125E-4)" />

<path d="M73,0V118H194c55,0,93,9,113,27c23,17,34,46,34,86V1300H89v135H341v102c0,254,53,448,160,582c107,133,238,200,396,202c119,-2,211,-29,275,-86c67,-58,99,-133,99,-223c0,-61,-15,-108,-46,-144c-30,-35,-68,-50,-117,-50c-43,0,-78,12,-106,40c-27,27,-41,62,-41,104c0,47,17,85,49,117c27,23,40,42,40,55c0,17,-11,31,-34,46c-23,14,-57,22,-102,23c-87,-1,-159,-40,-219,-116c-59,-76,-88,-189,-88,-339V1435H961V1300H607V257c0,-49,10,-83,33,-101c29,-26,72,-38,127,-38H961V0Z" 
id="f1_1h"
transform="scale(4.8828125E-4,-4.8828125E-4)" />

<path d="M104,0V118H241c48,0,83,9,107,27c25,18,37,41,37,69v903c0,67,-14,117,-43,150c-27,32,-67,48,-120,48H104v120l503,29V889c55,193,120,339,197,440c78,98,172,148,287,150c76,-2,139,-26,185,-73c46,-49,70,-115,70,-194c0,-66,-15,-117,-46,-153c-29,-36,-66,-54,-111,-54c-1,0,-3,0,-5,0c-2,0,-4,0,-5,0c-42,0,-76,17,-102,46c-29,31,-43,73,-43,127c0,34,6,66,16,98c10,24,15,41,15,47c0,15,-9,21,-28,23c-39,-2,-85,-26,-137,-73C830,1202,776,1108,738,987C680,799,651,649,651,536V226c0,-35,12,-63,38,-81c26,-18,67,-27,128,-27h188V0Z" 
id="f1_1s"
transform="scale(4.8828125E-4,-4.8828125E-4)" />

<path d="M104,0V118h87c60,0,102,10,127,33c24,23,36,58,36,107V1962c0,59,-15,105,-48,136c-33,29,-80,44,-141,45H60v118l560,31V1186c75,96,156,169,242,218c85,49,175,73,270,75c92,-2,174,-25,246,-66c57,-36,104,-98,144,-183c41,-87,59,-190,59,-307V243c0,-44,12,-76,34,-96c21,-20,55,-29,99,-29h119V0H1065V118h82c65,0,109,9,133,30c23,22,35,52,35,95V923c0,117,-27,209,-82,278c-57,66,-128,99,-215,99c-68,0,-130,-20,-188,-56C772,1205,723,1147,681,1071C642,995,620,914,620,828V258c0,-52,13,-88,32,-108c20,-23,55,-32,103,-32H872V0Z" 
id="f1_1j"
transform="scale(4.8828125E-4,-4.8828125E-4)" />

<path d="M1060,798c40,0,71,12,92,38c20,24,31,67,31,130c0,113,-36,209,-109,288c-73,80,-159,119,-258,121C704,1373,611,1326,535,1230C457,1134,417,990,414,798ZM816,-43C623,-43,461,24,330,163C199,303,133,480,133,698c0,231,66,420,195,564c132,144,292,215,483,217c141,-2,263,-38,364,-110c102,-73,180,-179,231,-313c36,-97,56,-217,58,-361H414C420,478,461,325,539,238C627,139,739,89,874,89c2,0,4,0,6,0c1,0,3,0,4,0c201,0,363,114,486,340l94,-44C1314,98,1098,-43,816,-43Z" 
id="f1_1g"
transform="scale(4.8828125E-4,-4.8828125E-4)" />

<path d="M89,0V118H238c51,0,86,10,110,33c25,22,37,54,37,95V1983c0,49,-14,87,-40,112c-36,30,-81,47,-133,48H89v118l562,31V214c0,-29,7,-51,24,-66c26,-21,57,-30,93,-30H917V0Z" 
id="f1_1m"
transform="scale(4.8828125E-4,-4.8828125E-4)" />

<path d="M730,-43L232,1224c-15,35,-35,58,-55,70c-20,11,-55,18,-104,21v120H697V1315H614c-40,0,-70,-7,-87,-18c-17,-12,-26,-27,-26,-46c0,-21,5,-44,15,-65L836,373l278,768c-34,84,-66,136,-96,152c-30,15,-81,22,-156,22v120h687V1315h-58c-52,0,-88,-7,-108,-19c-22,-13,-31,-31,-31,-51c0,-20,5,-38,14,-59L1693,373l260,722c18,45,25,83,25,117c0,30,-12,53,-39,73c-26,15,-77,27,-150,30v120h558V1315c-69,-10,-123,-32,-158,-61c-35,-32,-65,-78,-90,-139L1681,-43h-91L1189,955L825,-43Z" 
id="f1_1x"
transform="scale(4.8828125E-4,-4.8828125E-4)" />

<path d="M89,0V118H248c47,0,80,9,103,32c22,20,34,52,34,93v875c0,54,-17,97,-49,124c-33,28,-81,43,-145,44H73v118l578,31V218c0,-33,9,-58,26,-70c26,-21,56,-30,95,-30H946V0ZM474,1922c-43,0,-81,17,-113,47c-33,31,-51,71,-51,115c0,41,18,79,52,113c34,32,73,49,118,50c46,-1,85,-18,119,-50c35,-34,52,-72,52,-116c0,-44,-17,-81,-51,-112c-32,-30,-70,-47,-114,-47c-2,0,-4,0,-6,0c-2,0,-4,0,-6,0Z" 
id="f1_1k"
transform="scale(4.8828125E-4,-4.8828125E-4)" />

<path d="M801,-502c175,0,308,29,397,86c88,58,133,121,133,191c0,41,-14,79,-42,116c-27,35,-71,63,-132,81C1097,-10,1008,0,892,0C704,0,570,-25,490,-77C411,-129,370,-190,370,-262c0,-69,30,-122,90,-162c79,-52,194,-78,341,-78Zm4,1108c87,0,160,34,217,100c58,67,87,163,87,290c0,115,-30,208,-88,277c-60,67,-133,100,-223,102c-91,-2,-164,-35,-222,-99c-58,-66,-89,-158,-89,-274c0,-127,31,-224,89,-293C633,640,704,606,793,606c2,0,4,0,6,1c2,-1,4,-1,6,-1ZM764,-606c-220,0,-384,40,-491,121c-82,61,-125,132,-125,211c0,58,26,113,80,163c53,49,143,88,269,111C396,24,319,60,269,108c-51,49,-76,110,-76,182c0,66,21,124,64,174c41,49,114,91,220,129C387,639,319,695,275,762c-44,68,-69,144,-69,233c0,136,57,250,165,343c109,94,252,139,427,141c71,-2,140,-12,206,-31c67,-18,131,-47,194,-87c105,97,201,145,290,147c52,-2,96,-17,131,-47c36,-31,51,-69,51,-110c0,-37,-11,-66,-35,-91c-22,-21,-48,-33,-76,-33c-2,0,-4,0,-5,0c-1,0,-3,0,-4,0c-57,0,-96,35,-115,104c-10,29,-25,42,-45,44c-35,-2,-75,-24,-119,-70c46,-61,77,-115,93,-159c17,-46,26,-93,26,-144c0,-91,-21,-171,-64,-240C1283,694,1212,633,1112,581C1016,529,923,503,836,503c-3,0,-5,0,-8,0H662C544,501,466,489,426,464C390,437,370,399,370,350c0,-43,15,-75,47,-96c31,-22,92,-32,177,-32l378,15c189,-2,327,-34,411,-96c84,-65,125,-151,125,-261c0,-122,-47,-226,-145,-308C1230,-547,1030,-606,764,-606Z" 
id="f1_1i"
transform="scale(4.8828125E-4,-4.8828125E-4)" />

<path d="M445,-43c-52,0,-98,16,-136,52C270,44,252,87,252,139c0,52,18,95,55,131c38,36,84,54,138,55c53,-1,99,-19,136,-55c36,-35,55,-79,55,-129C636,89,617,44,581,9C544,-27,498,-43,445,-43Zm6,1152c-2,0,-4,0,-6,0c-2,0,-5,0,-7,0c-50,0,-94,18,-131,54c-37,35,-55,79,-55,131c0,49,18,92,55,128c38,37,84,55,136,57c54,-2,101,-20,138,-55c36,-37,55,-80,55,-130c0,-53,-17,-98,-55,-133c-36,-34,-78,-52,-130,-52Z" 
id="f1_j"
transform="scale(4.8828125E-4,-4.8828125E-4)" />

<path d="M148,0V118H332c32,0,58,6,76,20c20,13,34,32,43,56c4,15,7,58,7,130V1951c0,84,-9,137,-27,159c-18,21,-60,32,-124,33H148v118h961V2143H932c-61,-1,-102,-12,-121,-33c-18,-22,-27,-75,-27,-159V1256H1818v695c0,87,-9,141,-27,160c-19,22,-62,31,-130,32H1493v118h976V2143H2290c-44,-1,-75,-6,-93,-18c-18,-11,-34,-30,-44,-56c-6,-19,-10,-65,-10,-136V312c0,-80,7,-127,20,-142c28,-36,77,-52,149,-52h157V0H1493V118h168c68,0,113,16,137,53c14,18,20,70,20,153v785H784V312c0,-80,6,-129,17,-144c26,-34,70,-50,131,-50h177V0Z" 
id="f1_s"
transform="scale(4.8828125E-4,-4.8828125E-4)" />

<path d="M148,0V81L597,590c252,270,402,440,451,512c73,97,127,194,159,287c34,93,49,179,49,255c0,125,-34,224,-104,298c-69,72,-165,108,-290,110C723,2050,608,2017,521,1949C434,1881,388,1810,388,1736c0,-28,8,-48,20,-58c12,-16,40,-28,81,-37c105,-25,157,-87,157,-183c0,-54,-17,-98,-52,-132c-33,-34,-77,-50,-129,-50c-2,0,-4,0,-7,0c-1,0,-3,0,-4,0c-61,0,-114,29,-161,84c-47,56,-71,133,-71,227c0,103,27,197,79,283c53,84,134,153,243,209c108,54,224,81,348,83c122,-2,237,-28,342,-81c107,-54,185,-124,239,-209c53,-88,79,-181,79,-283c0,-72,-12,-144,-39,-214c-26,-75,-66,-142,-118,-205C1308,1060,1218,967,1124,891L720,550C617,461,542,390,495,330c-45,-60,174,-90,655,-90c12,0,24,0,36,0c2,0,5,0,8,0c72,0,124,20,155,58c32,40,69,150,112,330h110L1517,0Z" 
id="f2_4"
transform="scale(4.8828125E-4,-4.8828125E-4)" />

<path d="M532,0V118H784c33,0,59,7,76,26c18,16,28,38,28,67V2026c0,38,-13,67,-35,87c-25,20,-63,29,-115,30C590,2142,468,2075,368,1937C287,1824,228,1647,193,1404H73l52,857H1975l51,-857H1907c-69,492,-249,738,-541,739c-60,-1,-99,-10,-121,-32c-21,-19,-33,-53,-33,-97V223c0,-37,12,-63,32,-79c19,-19,55,-26,102,-26h222V0Z" 
id="f1_13"
transform="scale(4.8828125E-4,-4.8828125E-4)" />

<path d="M784,-43C642,-43,509,2,387,96L275,-28H193L162,532H266C332,353,406,229,489,160C571,93,672,60,791,60c3,0,5,0,8,0c3,0,7,0,10,0c110,0,193,24,253,71c61,49,91,113,91,190c0,43,-12,79,-33,113c-23,32,-54,56,-92,73c-40,16,-142,40,-307,72C564,611,454,643,391,678C328,712,280,759,244,820c-35,60,-51,126,-51,198c0,106,35,204,105,293c90,111,217,166,380,168c126,-2,240,-52,346,-154l100,110h63l40,-518H1123c-44,160,-105,278,-180,350c-77,71,-170,106,-280,108c-96,-2,-171,-27,-226,-79c-55,-51,-83,-115,-83,-187c0,-67,26,-122,75,-163C480,900,579,866,726,842c172,-29,284,-54,336,-74c81,-30,143,-76,188,-139c44,-62,65,-140,65,-229C1315,275,1267,170,1166,84C1066,-1,938,-43,784,-43Z" 
id="f1_1t"
transform="scale(4.8828125E-4,-4.8828125E-4)" />

<path d="M133,0V118H249c44,0,78,9,101,30c23,19,35,45,35,78v926c0,50,-14,89,-40,113c-26,26,-76,43,-152,50v120l414,29c21,-104,36,-202,44,-294c75,112,151,191,227,239c75,45,159,68,250,70c97,-2,178,-29,241,-80c63,-53,111,-139,145,-255c67,110,142,194,225,251c84,55,172,82,270,84c130,-2,228,-41,290,-119c84,-104,126,-237,126,-399V241c0,-44,12,-73,33,-88c32,-23,78,-35,139,-35h78V0H1907V118h76c64,0,110,9,136,30c26,22,40,52,40,93V963c0,106,-26,189,-75,249c-51,58,-116,88,-199,88c-61,0,-116,-18,-166,-52c-51,-35,-90,-85,-119,-148c-42,-92,-63,-171,-63,-234V241c0,-42,12,-74,37,-93c24,-21,61,-30,110,-30h105V0H1021V118h87c55,0,96,9,123,30c28,22,40,48,40,80V897c0,139,-23,243,-70,307c-48,64,-112,96,-193,96c-104,0,-183,-37,-240,-111C691,1083,651,959,651,820V241c0,-44,11,-74,30,-90c31,-23,78,-33,141,-33h79V0Z" 
id="f1_1n"
transform="scale(4.8828125E-4,-4.8828125E-4)" />

<path d="M781,118c111,0,206,52,284,159c79,105,118,261,118,466c0,192,-42,343,-127,455c-72,98,-162,146,-271,146c-108,0,-195,-45,-259,-136C461,1118,429,966,429,752c0,-234,32,-398,98,-492C593,165,677,118,781,118ZM726,-14C565,-14,429,52,316,188C205,324,148,504,148,729c0,241,72,434,216,579c113,113,243,169,389,171c90,-2,171,-26,243,-72c72,-47,135,-118,187,-211v808c0,42,-16,75,-48,101c-32,25,-82,37,-150,38H888v118l560,31V330c0,-76,17,-131,48,-163c32,-34,79,-49,140,-49h109V0H1227l-44,292C1126,188,1059,112,982,61C906,9,820,-14,726,-14Z" 
id="f1_1f"
transform="scale(4.8828125E-4,-4.8828125E-4)" />

<path d="M1073,-43C836,-43,629,29,455,177L281,-28H177V842H281C324,603,422,416,571,280C721,141,891,73,1079,73c152,0,278,45,374,133c96,87,144,194,144,323c0,70,-17,133,-52,188c-36,53,-92,99,-170,137c-76,37,-228,83,-454,136c-247,58,-417,125,-508,199C286,1291,222,1439,222,1630c0,197,65,358,194,486c129,125,293,189,495,189c96,0,189,-18,276,-50c86,-35,177,-92,269,-171l141,208h103V1464H1597c-63,250,-158,434,-282,550c-123,114,-267,172,-427,174C753,2186,643,2147,558,2067C472,1988,429,1890,429,1777c0,-72,17,-136,49,-190c32,-55,80,-97,145,-131c65,-34,185,-72,362,-110c251,-57,427,-115,529,-170c102,-58,179,-128,229,-212c51,-87,75,-186,75,-299c0,-205,-69,-375,-208,-509C1471,21,1291,-43,1073,-43Z" 
id="f1_12"
transform="scale(4.8828125E-4,-4.8828125E-4)" />

<path d="M443,-43c-52,0,-98,16,-136,52C270,44,252,89,252,141c0,50,18,93,55,129c38,36,84,54,138,55c53,-1,99,-19,136,-55c36,-36,55,-79,55,-129C636,89,617,44,581,9C544,-27,497,-43,443,-43Z" 
id="f1_8"
transform="scale(4.8828125E-4,-4.8828125E-4)" />

<path d="M1102,1138c188,0,325,40,409,118c87,79,130,211,130,392c0,127,-20,225,-58,294c-38,67,-95,119,-170,151c-75,32,-198,49,-370,50c-113,-1,-184,-12,-215,-32c-29,-21,-44,-58,-44,-108V1138h307c3,0,7,0,11,0ZM104,0V118H328c45,0,78,7,98,26c22,16,32,42,32,73V2014c0,44,-12,78,-39,97c-26,22,-77,31,-150,32H104v118H1219c252,0,445,-58,578,-171c133,-115,198,-264,198,-448c0,-184,-61,-327,-183,-423C1646,1088,1441,1021,1197,1021c-3,0,-6,0,-8,0H784V251c0,-46,10,-78,30,-97c29,-24,68,-36,115,-36h254V0Z" 
id="f1_10"
transform="scale(4.8828125E-4,-4.8828125E-4)" />

<path d="M1259,-43C1071,-43,898,2,741,96C584,189,457,324,364,501C269,678,222,872,222,1083c0,225,48,434,146,631c96,196,220,344,371,443c153,98,317,148,491,148c98,0,192,-16,284,-48c90,-33,191,-89,298,-170l95,218h119l44,-915H1951c-66,255,-151,445,-252,569c-127,151,-277,227,-452,229c-190,-2,-344,-86,-463,-254C666,1763,607,1479,607,1076C607,735,674,477,811,299C929,148,1092,73,1303,73c185,0,339,58,463,176c125,118,206,296,245,535h103C2082,516,1991,312,1836,170C1684,26,1493,-43,1259,-43Z" 
id="f1_n"
transform="scale(4.8828125E-4,-4.8828125E-4)" />

<path d="M796,-36C620,-36,478,11,368,110C258,208,203,325,203,463c0,81,17,145,52,189c35,45,80,68,136,69c52,-1,96,-20,132,-55c33,-35,50,-82,50,-137c0,-45,-9,-78,-28,-101C527,403,493,383,443,368C396,350,370,330,370,310c0,-33,17,-69,46,-107c32,-40,77,-70,140,-93C617,84,689,73,770,73c159,0,278,48,362,147c83,96,124,255,124,477c0,198,-41,345,-125,438c-84,93,-191,139,-323,141c-58,-2,-117,-16,-177,-40C571,1208,513,1170,452,1120c-6,-72,-20,-119,-41,-144C392,955,368,943,338,943c-1,0,-3,0,-5,0c-2,0,-4,-1,-6,-1c-20,0,-35,8,-47,21c-14,13,-22,33,-22,61c0,42,22,87,63,131c12,11,23,24,27,35l35,449c14,176,22,350,22,523c249,-61,453,-92,613,-92c4,0,8,0,12,0c7,0,15,0,23,0c67,0,130,6,191,17c67,11,117,26,149,44c17,8,29,11,34,12c9,-1,14,-9,14,-22c0,-37,-22,-84,-66,-141c-44,-58,-105,-104,-183,-137c-74,-34,-158,-51,-254,-51c-4,0,-8,0,-12,0c-4,0,-9,0,-13,0c-113,0,-247,20,-403,55L464,1268c77,38,149,67,217,87c69,20,135,29,197,31c196,-2,360,-68,492,-199c135,-131,201,-295,201,-486c0,-217,-72,-392,-216,-531C1212,31,1025,-36,796,-36Z" 
id="f2_7"
transform="scale(4.8828125E-4,-4.8828125E-4)" />

<path d="M799,-43L241,1207c-19,44,-44,75,-74,93c-29,18,-74,29,-138,31v104H739V1331c-94,-5,-155,-13,-181,-28c-26,-14,-40,-35,-40,-62c0,-25,5,-48,14,-69L909,325l359,819c5,14,8,28,8,45c0,74,-75,120,-226,142v104h591V1331c-60,-8,-109,-25,-144,-51c-35,-27,-62,-64,-81,-108L883,-43Z" 
id="f1_1w"
transform="scale(4.8828125E-4,-4.8828125E-4)" />

<path d="M840,-36C707,-36,590,-14,493,29C396,73,324,134,277,211c-49,75,-74,162,-74,260c0,76,20,136,57,181c36,45,84,68,140,69c52,-1,95,-18,126,-52c32,-35,47,-81,47,-137c0,-39,-9,-71,-28,-95C527,411,493,387,445,367C396,342,370,319,370,299c0,-32,17,-65,47,-103c31,-37,78,-68,138,-89C614,83,692,73,784,73c160,0,279,39,357,118c78,78,115,203,115,379c0,180,-31,308,-95,386c-63,77,-157,115,-283,115c-33,0,-74,-5,-125,-11c-41,-6,-69,-7,-88,-7c-28,0,-52,6,-68,20c-16,13,-24,32,-24,55c0,21,8,38,24,53c16,12,42,18,77,20l82,-9l75,-9c3,-1,6,-1,9,-1c124,0,219,33,281,98c66,66,98,165,98,304c0,168,-32,288,-96,359c-66,71,-162,107,-292,109c-118,-2,-212,-23,-283,-63C480,1946,443,1910,443,1876c0,-24,23,-53,69,-90c66,-52,98,-105,98,-160c0,-43,-16,-78,-45,-106c-29,-27,-66,-41,-110,-41c-3,0,-5,0,-7,0c-2,0,-4,0,-6,0c-48,0,-86,18,-118,56c-31,39,-47,92,-47,162c0,107,39,202,116,288c111,117,267,175,473,177c191,-2,346,-52,460,-153c115,-104,171,-229,171,-379c0,-108,-30,-203,-93,-281c-61,-79,-166,-148,-318,-208c142,-36,254,-98,332,-178C1520,857,1571,726,1571,570c0,-176,-62,-316,-185,-423C1247,23,1065,-36,840,-36Z" 
id="f2_5"
transform="scale(4.8828125E-4,-4.8828125E-4)" />

<path d="M1262,118c179,0,313,39,399,119c85,79,128,203,128,373c0,152,-44,275,-133,365c-88,88,-212,133,-368,134H828V240c0,-41,12,-72,35,-92c25,-21,67,-30,129,-30Zm0,1109c128,0,231,38,307,113c78,76,116,202,116,377c0,107,-18,191,-55,252c-37,60,-92,104,-162,132c-70,27,-192,41,-368,42c-122,-1,-199,-10,-228,-27c-29,-18,-44,-49,-44,-92V1227h426c3,0,5,0,8,0ZM148,0V118H338c56,0,99,9,125,27c27,17,40,38,40,63V2014c0,42,-13,74,-39,96c-26,21,-64,32,-114,33H148v118H1325c230,0,409,-50,531,-153c122,-102,184,-229,184,-382c0,-128,-43,-238,-127,-327c-86,-90,-213,-160,-384,-210c214,-48,376,-118,483,-214c107,-98,161,-219,161,-365c0,-113,-31,-213,-91,-300C2021,223,1920,150,1778,90C1636,29,1476,0,1296,0Z" 
id="f1_m"
transform="scale(4.8828125E-4,-4.8828125E-4)" />

<path d="M1006,89c105,0,187,42,242,128c75,111,112,278,112,495c0,226,-34,388,-101,486c-66,98,-151,146,-257,146c-110,0,-203,-55,-281,-165C645,1069,607,911,607,704C607,493,643,338,717,238C790,139,883,89,996,89c1,0,3,0,5,0c2,0,3,0,5,0ZM89,-590v117H193c48,0,87,10,110,29c25,19,38,45,38,75V1121c0,68,-17,117,-51,147c-33,28,-101,44,-201,47v120l463,29c22,-103,36,-201,39,-294c71,112,144,190,220,237c78,46,162,70,252,72c98,-2,191,-32,280,-93c89,-61,159,-150,215,-268c55,-119,83,-252,83,-398c0,-237,-67,-431,-202,-579C1326,17,1193,-43,1037,-43c-88,0,-169,21,-241,67C726,69,662,138,607,229V-343c0,-44,10,-76,30,-93c28,-24,67,-37,115,-37H857V-590Z" 
id="f1_1q"
transform="scale(4.8828125E-4,-4.8828125E-4)" />

<path d="M952,89c102,0,183,47,244,139c80,117,119,285,119,504c0,214,-33,370,-103,467c-71,97,-156,145,-262,145c-114,0,-207,-50,-281,-149C597,1094,562,929,562,700C562,480,597,324,668,229C738,136,830,89,942,89c2,0,3,0,5,0c2,0,3,0,5,0ZM325,-14L266,0c21,116,30,238,30,365V1983c0,49,-16,87,-50,118c-34,27,-81,41,-142,42H44v118l518,31V1228c60,83,127,145,199,187c73,41,153,62,238,64c168,-2,309,-67,425,-199c116,-131,173,-304,173,-518c0,-233,-62,-421,-187,-563C1285,55,1131,-14,946,-14C859,-14,779,2,707,37C637,72,564,131,487,215C431,121,377,44,325,-14Z" 
id="f1_1d"
transform="scale(4.8828125E-4,-4.8828125E-4)" />

<path d="M1143,118c172,0,322,44,452,133c84,58,148,140,193,249c61,142,90,342,90,597c0,374,-66,649,-197,825c-112,147,-282,220,-508,221H918c-46,-1,-79,-10,-101,-29c-23,-21,-33,-48,-33,-87V229c0,-36,12,-64,38,-82c26,-20,67,-29,128,-29ZM104,0V118H315c53,0,91,7,111,26c22,16,32,44,32,81V2040c0,30,-10,56,-33,74c-22,19,-54,28,-93,29H104v118H1274c174,0,321,-30,443,-92c151,-77,280,-207,385,-386c107,-182,159,-396,159,-642c0,-204,-30,-388,-95,-550C2119,466,2044,356,1945,263C1846,168,1723,98,1581,52C1474,17,1331,0,1152,0Z" 
id="f1_o"
transform="scale(4.8828125E-4,-4.8828125E-4)" />

<path d="M1207,73c131,0,246,35,345,106c100,69,179,180,237,331c60,153,89,352,89,599c0,269,-28,480,-84,631c-55,151,-133,264,-236,338c-100,72,-215,108,-342,110c-198,-2,-359,-83,-483,-246C610,1777,547,1509,547,1140C547,736,611,457,738,304C863,150,1021,73,1207,73Zm-6,-116C1021,-43,849,3,691,102C532,200,403,342,307,527C212,709,162,914,162,1140c0,220,47,418,141,596c93,177,221,316,383,418c162,101,330,151,506,151c191,0,371,-50,537,-149c165,-100,297,-240,392,-419c94,-179,140,-380,140,-602c0,-226,-46,-428,-142,-608C2026,347,1894,206,1729,107C1563,5,1387,-43,1201,-43Z" 
id="f1_z"
transform="scale(4.8828125E-4,-4.8828125E-4)" />

<path d="M1016,646V1694L275,646ZM703,0V112H860c3,-1,7,-1,10,-1c49,0,85,11,108,33c26,19,38,52,38,96V536H148V652L1176,2107h100V646h350V536H1276V214c0,-31,10,-52,33,-69c30,-23,66,-34,105,-34c3,0,6,0,8,1h130V0Z" 
id="f2_6"
transform="scale(4.8828125E-4,-4.8828125E-4)" />

<path d="M60,0V118c90,3,171,26,241,70c72,44,141,116,209,217l471,692L371,1977c-50,69,-93,115,-131,134c-38,20,-98,31,-180,32v118H990V2143H878c-82,-1,-135,-7,-161,-19c-26,-14,-40,-31,-40,-51c0,-17,14,-46,44,-87l436,-629l339,498c44,64,64,116,64,157c0,40,-17,69,-54,93c-36,23,-105,37,-204,38v118h812V2143c-91,-1,-161,-16,-213,-45c-71,-42,-136,-106,-196,-193L1245,1228L1957,202c21,-31,46,-51,75,-64c31,-13,82,-20,156,-20V0H1286V118h130c63,0,107,7,130,21c23,14,35,32,35,57c0,22,-15,56,-46,102L1069,969L735,478C681,400,654,332,654,273c0,-50,15,-90,47,-116c32,-27,75,-39,133,-39h83V0Z" 
id="f1_17"
transform="scale(4.8828125E-4,-4.8828125E-4)" />

<path d="M177,0V118H405c46,0,78,9,98,29c20,18,29,49,29,91V2030c0,40,-9,69,-31,86c-20,17,-55,26,-107,27H177v118H2011l29,-782H1922c-46,266,-112,441,-196,522c-96,95,-232,141,-409,142H958c-35,-1,-60,-9,-76,-25c-16,-17,-25,-42,-25,-74V1242h196c2,0,4,0,6,0c107,0,192,37,255,109c64,71,99,183,105,334h104V651H1419c-7,168,-42,290,-105,362c-63,73,-150,110,-261,110H857V258c0,-52,14,-88,37,-110c24,-21,67,-30,127,-30h235V0Z" 
id="f1_q"
transform="scale(4.8828125E-4,-4.8828125E-4)" />

<path d="M1158,1242c164,0,294,43,388,128c73,65,110,175,110,330c0,143,-35,248,-107,314c-73,65,-197,99,-374,100c-93,-1,-154,-12,-177,-32c-25,-21,-37,-67,-37,-139V1242h188c3,0,6,0,9,0ZM1957,-14c-95,0,-173,17,-231,57c-56,40,-100,98,-131,174c-18,43,-43,144,-76,306c-37,187,-71,314,-101,378c-29,66,-67,113,-116,146c-48,30,-106,45,-176,47H961V269c0,-37,11,-64,32,-83c28,-24,61,-38,98,-38c2,0,4,0,6,0h205V0H177V148H351c3,0,5,0,8,0c41,0,73,12,95,35c23,23,33,57,33,100V1978c0,46,-9,80,-30,103c-22,21,-52,32,-90,33H177v147H1341c190,0,344,-26,463,-75c119,-49,208,-116,266,-201c60,-86,89,-179,89,-283c0,-168,-75,-303,-223,-403c-112,-80,-286,-132,-520,-153c121,-20,216,-52,281,-95c66,-43,124,-107,175,-189c61,-110,110,-242,146,-393c25,-99,46,-160,64,-183c19,-23,40,-35,63,-35c66,0,104,88,116,267h135C2385,325,2344,189,2269,108C2195,24,2092,-14,1957,-14Z" 
id="f0_j"
transform="scale(4.8828125E-4,-4.8828125E-4)" />

<path d="M234,-502l-57,72c208,145,310,274,310,385c0,14,-1,26,-7,34C474,-4,466,0,455,0L422,-5c-19,-5,-35,-5,-46,-5C332,-10,292,6,258,43c-33,35,-52,79,-52,131c0,49,19,92,52,127c34,35,78,53,132,53c65,0,120,-26,165,-77C599,223,620,153,620,64C620,-132,492,-320,234,-502Z" 
id="f1_6"
transform="scale(4.8828125E-4,-4.8828125E-4)" />

<path d="M316,-606c-73,0,-131,22,-175,65c-45,42,-68,96,-68,159c0,45,14,85,43,116c28,30,63,45,104,45c38,0,70,-13,96,-39c26,-26,38,-58,38,-93c0,-13,-1,-28,-6,-48c-3,-15,-6,-27,-6,-33c0,-26,17,-39,48,-39c33,0,71,13,114,37c41,24,81,64,118,118c36,55,102,175,195,361L267,1199c-18,35,-41,61,-70,80c-27,17,-69,29,-124,36v120H755V1315H691c-60,0,-100,-7,-121,-21c-22,-15,-34,-35,-34,-60c0,-13,3,-24,8,-35L943,361l308,692c23,47,34,93,34,140c0,35,-15,63,-44,83c-31,20,-89,32,-176,39v120h591V1315c-116,-10,-195,-58,-237,-139L871,-49C775,-265,684,-412,597,-489C510,-566,416,-606,316,-606Z" 
id="f1_1z"
transform="scale(4.8828125E-4,-4.8828125E-4)" />

<path d="M636,-43C582,-43,536,-27,500,9C463,46,443,90,443,145c0,51,20,92,57,127c36,35,82,52,136,53c53,-1,99,-18,136,-53c38,-37,56,-79,56,-127C828,92,810,46,772,11C735,-27,689,-43,636,-43ZM576,665c0,119,8,213,20,284c14,69,29,124,49,165c20,39,72,113,154,221c64,83,112,162,138,236c26,73,39,155,39,246c0,119,-33,215,-101,290c-65,73,-148,110,-244,110c-83,0,-153,-22,-208,-64c-55,-43,-82,-86,-82,-130c0,-26,18,-54,58,-84c59,-48,88,-100,88,-155c0,-50,-15,-91,-47,-123c-29,-33,-68,-49,-113,-49c-2,0,-4,0,-6,0c-2,0,-4,0,-5,0c-55,0,-100,23,-139,67c-38,47,-59,107,-59,183c0,116,55,223,160,318c107,93,241,139,403,141c167,-2,304,-54,413,-158c108,-104,162,-230,162,-379c0,-96,-17,-183,-54,-259c-27,-60,-97,-141,-207,-245C849,1146,762,1047,730,982C700,917,683,811,680,665Z" 
id="f1_k"
transform="scale(4.8828125E-4,-4.8828125E-4)" />

<path d="M929,-43L296,1956c-24,76,-53,125,-84,151c-32,24,-82,35,-152,36v118H813V2143H759c-79,-1,-131,-7,-154,-18c-21,-14,-34,-32,-34,-56c0,-19,10,-48,23,-84l11,-29L1057,526l410,1326c-46,143,-81,229,-107,253c-26,25,-78,37,-155,38H1065v118h961V2143H1925c-86,-1,-142,-7,-168,-19c-26,-14,-38,-34,-38,-60c0,-23,3,-41,9,-58L2195,526l379,1281c17,48,25,95,25,141c0,66,-17,115,-48,148c-32,31,-79,46,-143,47h-72v118h709V2143c-60,-9,-107,-24,-144,-45c-35,-22,-67,-52,-93,-92c-24,-41,-52,-107,-79,-199L2180,-43H2066L1545,1607L1033,-43Z" 
id="f1_16"
transform="scale(4.8828125E-4,-4.8828125E-4)" />

<path d="M73,0V118c78,6,138,21,179,47c70,41,133,96,188,165L727,684L299,1221c-47,59,-122,91,-226,94v120H784V1315c-116,-4,-174,-22,-174,-55c0,-15,9,-35,27,-56L888,882l243,299c18,20,26,40,26,60c0,38,-60,64,-181,74v120h592V1315c-146,-21,-256,-77,-334,-165L949,802L1401,225c29,-40,60,-68,92,-84c33,-16,84,-23,148,-23V0H901V118h58c62,0,106,4,133,16c17,8,25,19,25,31c0,11,-9,31,-29,58L788,603L555,315C523,270,506,235,506,209c0,-29,12,-49,33,-61c32,-21,84,-30,156,-30V0Z" 
id="f1_1y"
transform="scale(4.8828125E-4,-4.8828125E-4)" />

<path d="M148,0V95l908,1236H657c-83,-2,-147,-14,-186,-35c-42,-23,-77,-60,-107,-112C335,1132,307,1042,281,917H177l32,518H1375v-89L461,104H911c2,0,4,0,7,0c100,0,180,32,240,96c61,64,110,185,144,362h102L1370,0Z" 
id="f1_20"
transform="scale(4.8828125E-4,-4.8828125E-4)" />

<path d="M124,1448l-51,69c109,70,187,141,237,212c49,71,75,130,75,182c0,17,-3,29,-9,38c-5,8,-15,13,-28,14l-15,-3c-24,-7,-46,-9,-64,-9c-46,0,-84,15,-116,49c-32,30,-49,70,-49,118c0,50,17,94,50,132c34,37,74,55,118,55c64,0,122,-27,171,-81c50,-56,75,-125,75,-210c0,-103,-31,-201,-90,-292C368,1630,266,1538,124,1448Z" 
id="f1_21"
transform="scale(4.8828125E-4,-4.8828125E-4)" />

<path d="M177,0V136c75,118,222,299,439,545c194,217,319,381,376,489c77,147,117,294,117,445c0,128,-27,226,-85,293c-57,67,-135,101,-233,103c-99,-2,-181,-29,-247,-84C477,1872,443,1815,443,1758c0,-24,8,-42,23,-55c14,-15,50,-30,105,-42c123,-34,184,-103,184,-207c0,-71,-25,-129,-71,-174c-47,-47,-106,-68,-177,-68c-73,0,-134,30,-183,93c-47,64,-72,153,-72,269c0,159,51,291,154,400c129,131,301,199,521,199c196,0,355,-55,474,-164c121,-108,180,-241,180,-400c0,-86,-13,-164,-44,-234c-40,-98,-93,-183,-160,-258C1311,1042,1198,947,1039,833C866,709,749,622,684,568C620,515,562,458,506,399h707c67,0,118,21,154,62c37,43,68,136,94,278h151L1568,0Z" 
id="f0_7"
transform="scale(4.8828125E-4,-4.8828125E-4)" />

<path d="M455,0L275,110l6,1354H-4l-90,177H293c-62,69,-94,153,-94,249c0,30,7,67,24,108c14,40,37,78,67,116c29,39,69,71,121,97c50,24,112,38,183,38c103,-3,220,-34,350,-96c132,-66,246,-142,344,-230V1812c-99,82,-205,150,-312,203c-110,51,-204,78,-285,78C591,2090,512,2056,452,1991c-62,-64,-93,-133,-93,-203c0,-69,9,-117,28,-147H648l90,-177H455V0Z" 
id="f3_22"
transform="scale(4.8828125E-4,-4.8828125E-4)" />

<path d="M1118,0L937,110l6,755H539c-16,0,-30,0,-42,-2c-16,-3,-25,-14,-25,-27V671c-4,-43,-21,-66,-48,-66c-2,0,-4,0,-5,0c-1,0,-2,0,-2,0c-14,0,-32,17,-56,50c-25,29,-52,65,-81,106c-26,44,-49,82,-69,117c-22,34,-32,59,-32,72c0,32,14,57,43,72c27,12,82,18,163,18H943v424H-5l-90,177H1259l90,-177H1118V0Z" 
id="f3_1t"
transform="scale(4.8828125E-4,-4.8828125E-4)" />

<path d="M497,445c-17,0,-40,15,-69,45c-34,29,-69,63,-106,104c-36,39,-67,77,-91,113c-29,32,-45,54,-45,66c0,15,8,31,19,46c10,14,23,21,39,23H377v622H6l-91,177H920l91,-177H558V842h609V666H558V523c0,-54,-20,-78,-61,-78Z" 
id="f3_r"
transform="scale(4.8828125E-4,-4.8828125E-4)" />

<path d="M1105,842v622H553V842ZM1285,0L1098,110l7,556H553V523c0,-52,-19,-78,-56,-78c-1,0,-2,0,-4,0c0,0,-1,-1,-2,-1c-15,0,-37,16,-65,46c-33,29,-70,63,-107,104c-38,39,-70,77,-96,113c-29,32,-44,54,-44,66c0,15,6,31,17,46c10,14,24,21,42,23H374v622H2l-90,177H1425l91,-177H1285V0Z" 
id="f3_1r"
transform="scale(4.8828125E-4,-4.8828125E-4)" />

<path d="M-274,1578c-47,80,-99,161,-157,245c-57,82,-103,139,-135,168c-47,58,-104,90,-171,94c-15,-1,-40,-4,-69,-12c-29,-12,-58,-23,-88,-32c-14,20,-38,63,-74,130c-38,63,-58,104,-61,124c3,9,11,17,23,24c12,6,25,9,40,12c37,3,67,7,92,7c1,0,2,0,3,0c88,0,189,-60,305,-179c70,-78,142,-174,214,-292c75,-121,124,-203,147,-251l-69,-38Z" 
id="f3_27"
transform="scale(4.8828125E-4,-4.8828125E-4)" />

<path d="M-77,1864l-203,203l200,200L122,2064L-77,1864Z" 
id="f3_13"
transform="scale(4.8828125E-4,-4.8828125E-4)" />

<path d="M614,710c1,0,2,0,3,0c55,0,115,16,177,49c62,26,114,54,158,83v622H455V952C458,790,511,710,614,710ZM1129,0L946,110l10,513C935,610,900,596,851,582C801,564,753,555,707,555c-32,0,-71,10,-117,33c-46,23,-93,54,-142,92c-46,38,-86,81,-118,130c-35,47,-52,98,-52,149v505H-4l-90,177H1270l91,-177H1129V0Z" 
id="f3_1b"
transform="scale(4.8828125E-4,-4.8828125E-4)" />

<path d="M-943,-10l-138,122l807,560V519L-943,-10Z" 
id="f3_2c"
transform="scale(4.8828125E-4,-4.8828125E-4)" />

<path d="M576,44C429,237,327,394,266,521C206,645,177,756,179,853c0,56,10,108,32,152c21,42,47,75,78,101c69,46,139,69,212,69H992V998H619c-2,0,-3,0,-5,0C435,998,345,914,345,744c-1,-70,23,-153,74,-246C466,402,550,278,674,127L576,44ZM-2,1464l-90,177H761l90,-177Z" 
id="f3_l"
transform="scale(4.8828125E-4,-4.8828125E-4)" />

<path d="M591,611c97,2,184,28,263,78c78,46,151,99,220,164v611H622c70,-127,108,-234,113,-323c-3,-70,-35,-128,-99,-172C574,923,492,882,391,849c0,-67,17,-122,51,-165c33,-48,82,-73,149,-73ZM1251,0L1068,110l11,518C1033,585,981,548,923,521C865,492,808,477,755,477C588,478,458,533,368,642C277,741,214,859,182,993c117,23,211,58,281,107c69,43,104,96,104,157c0,32,-11,69,-32,107c-20,39,-37,71,-54,100H0l-89,177H1392l91,-177H1251V0Z" 
id="f3_1s"
transform="scale(4.8828125E-4,-4.8828125E-4)" />

<path d="M510,588c121,2,265,74,433,216C889,886,834,944,778,979c-54,34,-126,51,-213,52c-59,-1,-117,-21,-171,-61C342,927,315,865,313,781c0,-58,20,-103,61,-138c34,-36,80,-55,136,-55ZM1118,0L933,110l13,460C892,532,839,500,787,472C735,446,677,432,613,432C493,434,391,480,309,570C225,655,180,762,179,888c0,20,6,49,17,85c9,34,24,69,48,104c25,37,62,69,110,96c45,23,103,35,176,35c40,0,83,-4,127,-9c44,-9,84,-29,119,-61c23,-17,46,-40,72,-67c26,-29,55,-72,85,-124h8v517H0l-89,177H1923l92,-177H1118V924c100,94,194,142,286,144c29,0,63,-8,101,-21c38,-20,75,-49,110,-88c35,-39,66,-90,90,-152c23,-63,34,-139,34,-226c0,-124,-52,-266,-158,-427L1422,299c54,74,100,149,135,230c32,76,49,146,49,207c0,49,-14,87,-43,117c-28,24,-64,36,-110,38c-40,-2,-87,-19,-147,-51C1247,804,1184,758,1118,701V0Z" 
id="f3_14"
transform="scale(4.8828125E-4,-4.8828125E-4)" />

<path d="M882,112c-75,0,-150,19,-225,59C588,206,523,254,463,315C341,440,248,579,183,733l106,51C387,594,475,460,556,380C632,304,721,267,818,267c2,0,3,0,5,0c85,0,150,29,198,89c47,53,73,116,74,188c-1,84,-33,150,-94,197c-28,20,-61,41,-104,60c-44,15,-90,29,-142,41C668,821,609,809,577,809c-4,0,-7,0,-10,1c-3,-1,-6,-1,-9,-1c-18,0,-35,8,-49,21c-8,12,-25,36,-51,74c-27,39,-44,68,-47,88c0,16,8,30,23,39c12,6,26,9,41,9c25,0,61,-3,112,-6c52,-6,93,-15,122,-26c177,34,264,100,261,194c0,58,-18,112,-52,161c-30,44,-64,78,-99,101H-23l-92,177H1390l93,-177H981c52,-65,93,-129,124,-188c32,-64,48,-124,48,-179c0,-26,-19,-58,-62,-96C1051,961,985,930,897,911v-7C1147,801,1274,662,1276,484C1271,356,1227,261,1143,202C1060,141,973,112,882,112Z" 
id="f3_11"
transform="scale(4.8828125E-4,-4.8828125E-4)" />

<path d="M431,0L249,110l6,1354H21l-89,177H570l90,-177H431V0Z" 
id="f3_21"
transform="scale(4.8828125E-4,-4.8828125E-4)" />

<path d="M1146,-170C1082,-48,1014,90,941,246C899,230,856,222,813,222c-7,0,-14,1,-22,1C666,223,536,289,400,414C336,475,284,547,244,629c-44,78,-65,165,-65,260c-2,98,33,180,105,246c74,61,211,93,414,95H911v234H-5l-90,177H1250l90,-177H1089V1106c-3,-35,-23,-53,-61,-53c-142,0,-269,-5,-380,-13C541,1028,472,1011,442,990C377,940,345,863,345,764c0,-96,38,-179,115,-249C532,438,626,399,743,397c38,0,71,5,102,16c-43,56,-66,114,-69,171c0,21,8,42,23,64c12,15,32,23,63,23c13,0,35,-5,64,-13c27,-10,56,-24,88,-44c33,-18,60,-40,81,-64c22,-26,33,-52,33,-81c0,-26,-5,-55,-17,-89c-14,-36,-40,-64,-77,-85c29,-51,63,-115,101,-194c37,-80,73,-149,115,-212l-104,-59Z" 
id="f3_1l"
transform="scale(4.8828125E-4,-4.8828125E-4)" />

<path d="M843,-22C665,92,509,223,377,374C318,449,270,526,235,603c-38,80,-56,159,-56,237c0,80,27,162,81,248c29,38,64,70,107,96c41,23,88,35,145,35c90,-4,160,-32,209,-79c60,-60,115,-121,162,-182c98,136,196,203,293,203c1,0,2,0,3,0c43,-3,84,-14,124,-35c41,-21,72,-43,92,-63v401H0l-89,177H1711l93,-177H1574V0L1389,112l12,838c-44,34,-90,52,-138,54c-30,-2,-58,-5,-84,-12c-27,-10,-55,-29,-84,-59c-26,-25,-55,-64,-85,-113C978,772,941,710,903,636L762,739c25,49,51,94,74,132c-26,44,-61,82,-106,117c-44,34,-87,51,-125,54c-53,0,-107,-21,-160,-63C388,932,359,859,358,759c0,-52,6,-104,19,-152c16,-51,42,-104,81,-159C535,335,689,209,921,72L843,-22Z" 
id="f3_1v"
transform="scale(4.8828125E-4,-4.8828125E-4)" />

<path d="M1186,649c117,2,258,72,423,210c-54,81,-107,140,-161,177c-53,33,-123,50,-209,52c-60,-2,-115,-22,-166,-61C1021,984,993,921,990,840c0,-58,20,-102,61,-136c34,-36,78,-55,135,-55ZM1004,212c3,0,6,0,9,0c122,2,232,34,333,98c101,55,186,113,260,171V631c-52,-38,-103,-72,-152,-99c-50,-28,-106,-40,-171,-40c-117,1,-218,46,-299,136C900,713,857,819,854,944c0,20,8,49,20,86c8,32,23,67,46,104c26,35,61,67,108,96c45,23,103,33,174,33c40,0,81,-4,126,-12c42,-9,81,-27,117,-58c22,-15,45,-36,71,-65c24,-30,52,-71,84,-124h6v460H629c10,-182,14,-349,16,-500C645,814,576,692,435,594C495,501,576,417,680,341c49,-38,102,-69,157,-90c54,-25,109,-39,167,-39ZM1783,0L1604,115l8,169C1409,128,1221,52,1047,52c-4,0,-7,0,-10,0C830,52,614,197,385,487C310,594,257,686,228,761c-34,73,-49,113,-49,122c0,18,7,37,26,54c15,16,27,26,36,29c11,0,31,-5,62,-14c29,-12,68,-29,119,-49c16,26,27,64,35,111c6,49,9,101,9,156c0,112,-3,210,-11,294H-8l-92,177H1922l92,-177H1783V0Z" 
id="f3_16"
transform="scale(4.8828125E-4,-4.8828125E-4)" />

<path d="M1349,-364l-157,140c39,39,59,72,62,104c0,25,-26,55,-79,90L373,480c-63,44,-95,113,-95,206v778H-4l-90,177H1306l90,-177H1108V662c0,-86,-35,-129,-102,-129c-2,0,-4,0,-7,0c-5,0,-10,0,-15,0c-65,0,-136,9,-212,28L665,718c68,-8,126,-9,175,-9c4,0,8,0,12,0c50,0,75,20,75,59v696H455V665c0,-26,6,-51,17,-72c6,-25,14,-40,23,-48L1291,26c67,-43,112,-78,134,-104c17,-29,26,-59,26,-86c-1,-44,-36,-110,-102,-200Z" 
id="f3_12"
transform="scale(4.8828125E-4,-4.8828125E-4)" />

<path d="M454,-10L251,194L451,394L654,189L454,-10Zm0,827L251,1021l200,200L654,1018L454,817Z" 
id="f3_1o"
transform="scale(4.8828125E-4,-4.8828125E-4)" />


</defs>
</svg>