<?xml version="1.0" encoding="UTF-8" standalone="no"?>
<!DOCTYPE svg PUBLIC "-//W3C//DTD SVG 1.1//EN"
"http://www.w3.org/Graphics/SVG/1.1/DTD/svg11.dtd">
<svg viewBox="0 0 909 1286" version="1.1" xmlns="http://www.w3.org/2000/svg" xmlns:xlink="http://www.w3.org/1999/xlink">
<defs>
<clipPath id="c0_14"><path d="M247.9,422.9V403.5h13.9v19.4Z" /></clipPath>
<clipPath id="c1_14"><path d="M278.7,722.5V711.1H592.5v11.4Z" /></clipPath>
<clipPath id="c2_14"><path d="M221.8,722.5V711.8h13.6v10.7Z" /></clipPath>
<clipPath id="c3_14"><path d="M503.1,775.6V754.7H550v20.9Z" /></clipPath>
<clipPath id="c4_14"><path d="M476.7,759.1v-15h8.8v15Z" /></clipPath>
<clipPath id="c5_14"><path d="M225.5,880.1V862.5h12.1v17.6Z" /></clipPath>
<clipPath id="c6_14"><path d="M462.4,880.1V862.5h12.8v17.6Z" /></clipPath>
<clipPath id="c7_14"><path d="M462.4,995.3V975.1H772.9v20.2Z" /></clipPath>
<clipPath id="c8_14"><path d="M557.7,921.2V901H772.9v20.2Z" /></clipPath>
<clipPath id="c9_14"><path d="M692.6,1039.6v-20.1h80.3v20.1Z" /></clipPath>
<clipPath id="c10_14"><path d="M729.7,932.9V912.8h43.2v20.1Z" /></clipPath>
<clipPath id="c11_14"><path d="M705.1,880.1V862.5h12.8v17.6Z" /></clipPath>
<clipPath id="c12_14"><path d="M705.1,995.3V975.1h67.8v20.2Z" /></clipPath>
<clipPath id="c13_14"><path d="M722,1113v-20.2h50.9V1113Z" /></clipPath>
<clipPath id="c14_14"><path d="M722,1160.6V1143h50.9v17.6Z" /></clipPath>
<clipPath id="c15_14"><path d="M533.9,1137.2v-25h239v25Z" /></clipPath>
<style type="text/css"><![CDATA[
.g0_14{
fill: none;
stroke: #FFFFFF;
stroke-width: 0.77152777;
stroke-linecap: round;
stroke-linejoin: round;
}
.g1_14{
fill: #FFFFFF;
}
.g2_14{
fill: #373435;
}
.g3_14{
fill: #FEFEFE;
}
.g4_14{
fill: none;
stroke: #373435;
stroke-width: 0.6966667;
stroke-linecap: round;
stroke-linejoin: round;
}
]]></style>
</defs>
<path d="M542.7,525l7.5,9.7l5.1,9.5l4.4,9.5l2,7.7l1.1,8.5l1,7l-1,7.4l-2.1,5.9l-2.1,5.7l-3.3,5.6l-3.1,4.9l-3,4.9l-7.5,6.7l-7.2,4.6L524,629.3l-8.5,5.9L505,641.9l-14.7,8.5l-8.2,5.9l-7.4,5.6l-6.2,6.7l-6.4,7.7L458,683l-4.4,7.7l-3.1,7.7l-2,6.7l-3.1,-12.6l-2.1,-11.3L441,669.7V659.1l1,-8.7l2.4,-8.5l3,-4.9l2.1,-3.9l4.1,-3.8l4.4,-3.6l16.7,-12.6l16.7,-9.5L506,594.9l14.9,-8.5l6.2,-4.9l5.3,-6.7l4.2,-6.7l4.1,-7.7l2,-7.7l2.3,-8.5v-9.5L542.7,525" class="g0_14" />
<path fill-rule="evenodd" d="M279.7,577.6L310,573.8l1.1,9.8v9.5l-1.1,1l-1,1.8l-2.1,1.8h-2l-2.1,1h-3.3l-2,-1l-2.1,-1.8l-2.1,-2.8l-11.5,9.5l-1,-9.5l11.5,-8.8l-11.5,1l-1.1,-7.7Zm16.7,6v1.7l1.1,2.1l1,1.8l1,1h3.3l1.1,-1l1,-1.8v-4.9l-8.5,1.1Zm2.1,36.2l2,8.7l9.5,-6.6l1.1,-1.1h1l1,-1H298.5Zm-14.7,-7.7l32.7,1l3.1,10.5l-26.3,20.1l-2,-8.5l4.1,-2.8l-3.1,-12.6h-5.4l-3.1,-7.7ZM329,673.5l-2.3,.8l-3,1l-3.1,1l-3.1,-1l-3.4,-1l-3,-.8L309,670.7l-2.1,-2.1l-2,-3.8l-1,-2.9v-6.6l1,-2.9l2,-2.8l1.1,-3.1l3.1,-1.8l2,-1.8l3.4,-1h6.1l3.1,1l3.3,1.8l2.1,1.8l2.1,3.1l2,2.8l1,2.9v6.6l-1,3.9l-1,2.8l-2.1,2.1l-3.1,2.8ZM312.1,664l3.3,2.8l3.1,.8h3.1l3.1,-1.8l2,-2.8l2.3,-2.9v-3.8l-1,-2.8l-2.3,-2.1l-3.1,-1h-4.1l-3.1,1l-2.3,2.8l-2,2.9v3.8l1,3.1Zm31.6,45l18.7,-26l6.4,5.7l-19,25.9L343.7,709Zm20.8,15.2l14.9,-28.9l7.2,4.9L371.9,728l-7.4,-3.8Zm26.2,12.5l7.4,-23.1L392,710.8l3.1,-6.7l19.7,7.7l-2,6.7l-6.2,-2.1l-8.5,23.2l-7.4,-2.9Zm58.8,-1H458l-4.4,-10.5v-2.9l-1,-2v3.9l-1,1l-2.1,10.5Zm-11.6,11.6l9.5,-31.7H458l11.5,31.7h-8.4L459,741.4H447.4l-1,5.9h-8.5ZM494.7,709l2.1,9.5l-2.1,-2.1h-5.4l-3.1,1.1l-2,2.8l-1,3.9l1,2.8l1,3.8l2.1,2.1l3,.7h3.1l2.3,-.7l1.1,-1l2,-1.1l1,-2.8l2.1,9.5l-1,1l-2.1,2.1l-2,.8h-2.1l-2.3,1h-4.1l-2.1,-1l-4.1,-1.8l-2.3,-2.9l-3.1,-3.1l-1,-3.6l-1,-3.8v-3.1l1,-3.6l1,-3.1l2.1,-2.8l2.3,-1.8l2.1,-1l3,-1.8h8.5Zm22.9,10.5l7.4,-4.9l-7.4,-7.7h-1.1v-1l-1,-.8l-1,-1v1l1,.8v2l2.1,11.6Zm-5.2,15.2l-4.1,-33.4l8.2,-4.9l24.2,23.9l-7.2,3.9l-4.4,-4.7l-10.5,5.7l1.3,5.6l-7.5,3.9Zm37.8,-22.1L529.1,689.7l5.4,-4.9l4.1,-4.6l3.1,-2.1l3.3,-1.8h6.2l3.1,1.1l3.1,.7l3.3,3.1l2.1,3.6l1,3.1l1,3.8v3.6l-1,2.1l-1,2.8l-3.1,2.9l-3.4,3.8l-1,1l-5.1,4.7Zm2,-11.3l1.1,-1.1l2,-2.8l1,-3.8v-2.9l-2,-2.8l-3.1,-3.1l-3.1,-.8l-3.1,.8l-3.3,3.1l-1,.8l11.5,12.6Zm28.3,-20.1L555.3,663l11.6,-16.5l5.4,3.9l-6.5,9.7L570,663l6.4,-8.8l5.1,3.9l-6.2,8.7l4.1,3.9l6.5,-9.8l6.1,4.9l-11.5,15.4ZM613.1,618l-3.1,7.7l-13.6,-3.8h-1.3l-1,-1.1l-2.1,-1h-2l2,1l2.1,1.8l1,1l11.6,9.5l-2.1,4.9L590,637h-1l-3.1,-1h-2.1l2.1,1h1l2.1,1l1,1.1l11.5,7.4l-3,7L572.3,637l3,-7.7l16.7,1v1.1h4.4h-1.3l-1,-1.1l-1,-1l-1.1,-.8L579.4,618l3.1,-7.7l30.6,7.7Zm2.1,-21.1l-13.7,-2l-17.7,8.7l1.1,-9.5l8.2,-3.1l2,-.8h1.3l-1.3,-1h-1l-1,-1l-6.2,-4.6l1,-10.6l14.7,14.4l13.6,1.8l-1,7.7Z" class="g1_14" />
<g fill="#000000" >
<use xlink:href="#f0_c" transform="matrix(12,0,0,12,117,102.4)" />
<use xlink:href="#f0_1y" transform="matrix(12,0,0,12,122.9,102.4)" />
<use xlink:href="#f0_d" transform="matrix(12,0,0,12,131.3,102.4)" />
<use xlink:href="#f0_14" transform="matrix(12,0,0,12,155.8,102.4)" />
<use xlink:href="#f0_21" transform="matrix(12,0,0,12,168.7,102.4)" />
<use xlink:href="#f0_22" transform="matrix(12,0,0,12,176.4,102.4)" />
<use xlink:href="#f0_25" transform="matrix(12,0,0,12,181.9,102.4)" />
<use xlink:href="#f0_2a" transform="matrix(12,0,0,12,186,102.4)" />
<use xlink:href="#f0_21" transform="matrix(12,0,0,12,194.4,102.4)" />
<use xlink:href="#f0_22" transform="matrix(12,0,0,12,205.5,102.4)" />
<use xlink:href="#f0_2h" transform="matrix(12,0,0,12,211,102.4)" />
<use xlink:href="#f0_21" transform="matrix(12,0,0,12,219.8,102.4)" />
<use xlink:href="#f0_28" transform="matrix(12,0,0,12,227.5,102.4)" />
<use xlink:href="#f0_1z" transform="matrix(12,0,0,12,234.5,102.4)" />
<use xlink:href="#f0_21" transform="matrix(12,0,0,12,242.6,102.4)" />
<use xlink:href="#f0_28" transform="matrix(12,0,0,12,250.3,102.4)" />
<use xlink:href="#f0_28" transform="matrix(12,0,0,12,254.4,102.4)" />
<use xlink:href="#f0_1x" transform="matrix(12,0,0,12,261.7,102.4)" />
<use xlink:href="#f0_2a" transform="matrix(12,0,0,12,269.8,102.4)" />
<use xlink:href="#f0_20" transform="matrix(12,0,0,12,278.3,102.4)" />
<use xlink:href="#f0_2j" transform="matrix(12,0,0,12,290.4,102.4)" />
<use xlink:href="#f0_2e" transform="matrix(12,0,0,12,303.2,102.4)" />
<use xlink:href="#f0_25" transform="matrix(12,0,0,12,309.5,102.4)" />
<use xlink:href="#f0_2g" transform="matrix(12,0,0,12,313.5,102.4)" />
<use xlink:href="#f0_21" transform="matrix(12,0,0,12,318.7,102.4)" />
<use xlink:href="#f0_25" transform="matrix(12,0,0,12,329.7,102.4)" />
<use xlink:href="#f0_2g" transform="matrix(12,0,0,12,334.1,102.4)" />
<use xlink:href="#f0_2f" transform="matrix(12,0,0,12,339.2,102.4)" />
<use xlink:href="#f0_2g" transform="matrix(12,0,0,12,348.8,102.4)" />
<use xlink:href="#f0_2j" transform="matrix(12,0,0,12,353.9,102.4)" />
<use xlink:href="#f0_2b" transform="matrix(12,0,0,12,367.2,102.4)" />
<use xlink:href="#f0_1x" transform="matrix(12,0,0,12,379.6,102.4)" />
<use xlink:href="#f0_20" transform="matrix(12,0,0,12,387.4,102.4)" />
<use xlink:href="#f0_2i" transform="matrix(12,0,0,12,396.2,102.4)" />
<use xlink:href="#f0_1x" transform="matrix(12,0,0,12,405,102.4)" />
<use xlink:href="#f0_2a" transform="matrix(12,0,0,12,412.7,102.4)" />
<use xlink:href="#f0_2g" transform="matrix(12,0,0,12,421.2,102.4)" />
<use xlink:href="#f0_1x" transform="matrix(12,0,0,12,426.3,102.4)" />
<use xlink:href="#f0_23" transform="matrix(12,0,0,12,434,102.4)" />
<use xlink:href="#f0_21" transform="matrix(12,0,0,12,443.2,102.4)" />
<use xlink:href="#f0_2f" transform="matrix(12,0,0,12,450.9,102.4)" />
<use xlink:href="#f0_i" transform="matrix(12,0,0,12,457.5,102.4)" />
<use xlink:href="#f0_11" transform="matrix(12,0,0,12,64.9,131.4)" />
<use xlink:href="#f0_2a" transform="matrix(12,0,0,12,77.4,131.4)" />
<use xlink:href="#f0_2f" transform="matrix(12,0,0,12,85.8,131.4)" />
<use xlink:href="#f0_i" transform="matrix(12,0,0,12,92.4,131.4)" />
<use xlink:href="#f0_1k" transform="matrix(12,0,0,12,155.8,131.4)" />
<use xlink:href="#f0_24" transform="matrix(12,0,0,12,166.8,131.4)" />
<use xlink:href="#f0_21" transform="matrix(12,0,0,12,175.7,131.4)" />
<use xlink:href="#f0_2f" transform="matrix(12,0,0,12,183.4,131.4)" />
<use xlink:href="#f0_21" transform="matrix(12,0,0,12,190,131.4)" />
<use xlink:href="#f0_1x" transform="matrix(12,0,0,12,201.4,131.4)" />
<use xlink:href="#f0_2e" transform="matrix(12,0,0,12,209.1,131.4)" />
<use xlink:href="#f0_21" transform="matrix(12,0,0,12,215.3,131.4)" />
<use xlink:href="#f0_2i" transform="matrix(12,0,0,12,226.4,131.4)" />
<use xlink:href="#f0_2b" transform="matrix(12,0,0,12,234.8,131.4)" />
<use xlink:href="#f0_28" transform="matrix(12,0,0,12,244,131.4)" />
<use xlink:href="#f0_2g" transform="matrix(12,0,0,12,248.4,131.4)" />
<use xlink:href="#f0_1x" transform="matrix(12,0,0,12,253.5,131.4)" />
<use xlink:href="#f0_25" transform="matrix(12,0,0,12,261.3,131.4)" />
<use xlink:href="#f0_1z" transform="matrix(12,0,0,12,265.7,131.4)" />
<use xlink:href="#f0_1z" transform="matrix(12,0,0,12,276.7,131.4)" />
<use xlink:href="#f0_21" transform="matrix(12,0,0,12,284.8,131.4)" />
<use xlink:href="#f0_28" transform="matrix(12,0,0,12,292.5,131.4)" />
<use xlink:href="#f0_28" transform="matrix(12,0,0,12,296.6,131.4)" />
<use xlink:href="#f0_2f" transform="matrix(12,0,0,12,301,131.4)" />
<use xlink:href="#f0_25" transform="matrix(12,0,0,12,310.9,131.4)" />
<use xlink:href="#f0_2a" transform="matrix(12,0,0,12,315.3,131.4)" />
<use xlink:href="#f0_2j" transform="matrix(12,0,0,12,327.5,131.4)" />
<use xlink:href="#f0_24" transform="matrix(12,0,0,12,340.3,131.4)" />
<use xlink:href="#f0_25" transform="matrix(12,0,0,12,348.8,131.4)" />
<use xlink:href="#f0_1z" transform="matrix(12,0,0,12,353.2,131.4)" />
<use xlink:href="#f0_24" transform="matrix(12,0,0,12,360.9,131.4)" />
<use xlink:href="#f0_2g" transform="matrix(12,0,0,12,372.7,131.4)" />
<use xlink:href="#f0_24" transform="matrix(12,0,0,12,377.8,131.4)" />
<use xlink:href="#f0_21" transform="matrix(12,0,0,12,386.3,131.4)" />
<use xlink:href="#f0_2e" transform="matrix(12,0,0,12,397.7,131.4)" />
<use xlink:href="#f0_21" transform="matrix(12,0,0,12,403.5,131.4)" />
<use xlink:href="#f0_1x" transform="matrix(12,0,0,12,411.6,131.4)" />
<use xlink:href="#f0_1z" transform="matrix(12,0,0,12,419.3,131.4)" />
<use xlink:href="#f0_2g" transform="matrix(12,0,0,12,427.1,131.4)" />
<use xlink:href="#f0_1x" transform="matrix(12,0,0,12,432.6,131.4)" />
<use xlink:href="#f0_2a" transform="matrix(12,0,0,12,440.3,131.4)" />
<use xlink:href="#f0_2g" transform="matrix(12,0,0,12,449.1,131.4)" />
<use xlink:href="#f0_2f" transform="matrix(12,0,0,12,454.2,131.4)" />
<use xlink:href="#f0_1x" transform="matrix(12,0,0,12,464.5,131.4)" />
<use xlink:href="#f0_2e" transform="matrix(12,0,0,12,472.2,131.4)" />
<use xlink:href="#f0_21" transform="matrix(12,0,0,12,478.1,131.4)" />
<use xlink:href="#f0_1z" transform="matrix(12,0,0,12,489.5,131.4)" />
<use xlink:href="#f0_2b" transform="matrix(12,0,0,12,497.2,131.4)" />
<use xlink:href="#f0_2a" transform="matrix(12,0,0,12,506.8,131.4)" />
<use xlink:href="#f0_2g" transform="matrix(12,0,0,12,515.2,131.4)" />
<use xlink:href="#f0_25" transform="matrix(12,0,0,12,520.4,131.4)" />
<use xlink:href="#f0_2a" transform="matrix(12,0,0,12,524.8,131.4)" />
<use xlink:href="#f0_2b" transform="matrix(12,0,0,12,533.2,131.4)" />
<use xlink:href="#f0_2h" transform="matrix(12,0,0,12,542.8,131.4)" />
<use xlink:href="#f0_2f" transform="matrix(12,0,0,12,551.6,131.4)" />
<use xlink:href="#f0_28" transform="matrix(12,0,0,12,558.2,131.4)" />
<use xlink:href="#f0_2l" transform="matrix(12,0,0,12,562.6,131.4)" />
<use xlink:href="#f0_2f" transform="matrix(12,0,0,12,573.6,131.4)" />
<use xlink:href="#f0_2h" transform="matrix(12,0,0,12,580.6,131.4)" />
<use xlink:href="#f0_2c" transform="matrix(12,0,0,12,589.4,131.4)" />
<use xlink:href="#f0_2c" transform="matrix(12,0,0,12,598.3,131.4)" />
<use xlink:href="#f0_28" transform="matrix(12,0,0,12,607.4,131.4)" />
<use xlink:href="#f0_25" transform="matrix(12,0,0,12,611.5,131.4)" />
<use xlink:href="#f0_21" transform="matrix(12,0,0,12,615.5,131.4)" />
<use xlink:href="#f0_20" transform="matrix(12,0,0,12,623.6,131.4)" />
<use xlink:href="#f0_2g" transform="matrix(12,0,0,12,635.7,131.4)" />
<use xlink:href="#f0_2b" transform="matrix(12,0,0,12,641.2,131.4)" />
<use xlink:href="#f0_2g" transform="matrix(12,0,0,12,654.1,131.4)" />
<use xlink:href="#f0_24" transform="matrix(12,0,0,12,659.2,131.4)" />
<use xlink:href="#f0_21" transform="matrix(12,0,0,12,667.7,131.4)" />
<use xlink:href="#f0_21" transform="matrix(12,0,0,12,679.1,131.4)" />
<use xlink:href="#f0_28" transform="matrix(12,0,0,12,686.8,131.4)" />
<use xlink:href="#f0_21" transform="matrix(12,0,0,12,691.2,131.4)" />
<use xlink:href="#f0_1z" transform="matrix(12,0,0,12,698.9,131.4)" />
<use xlink:href="#f0_2g" transform="matrix(12,0,0,12,706.6,131.4)" />
<use xlink:href="#f0_2e" transform="matrix(12,0,0,12,712.1,131.4)" />
<use xlink:href="#f0_2b" transform="matrix(12,0,0,12,718,131.4)" />
<use xlink:href="#f0_20" transform="matrix(12,0,0,12,727.2,131.4)" />
<use xlink:href="#f0_21" transform="matrix(12,0,0,12,736.4,131.4)" />
<use xlink:href="#f0_2f" transform="matrix(12,0,0,12,744.1,131.4)" />
<use xlink:href="#f0_i" transform="matrix(12,0,0,12,750.7,131.4)" />
<use xlink:href="#f0_1k" transform="matrix(12,0,0,12,758.4,131.4)" />
<use xlink:href="#f0_24" transform="matrix(12,0,0,12,769.8,131.4)" />
<use xlink:href="#f0_21" transform="matrix(12,0,0,12,778.2,131.4)" />
<use xlink:href="#f0_2e" transform="matrix(12,0,0,12,785.9,131.4)" />
<use xlink:href="#f0_21" transform="matrix(12,0,0,12,792.2,131.4)" />
<use xlink:href="#f0_1x" transform="matrix(12,0,0,12,803.2,131.4)" />
<use xlink:href="#f0_2e" transform="matrix(12,0,0,12,811.3,131.4)" />
<use xlink:href="#f0_21" transform="matrix(12,0,0,12,817.2,131.4)" />
<use xlink:href="#f0_20" transform="matrix(12,0,0,12,155.8,154.5)" />
<use xlink:href="#f0_21" transform="matrix(12,0,0,12,164.6,154.5)" />
<use xlink:href="#f0_2f" transform="matrix(12,0,0,12,172.4,154.5)" />
<use xlink:href="#f0_25" transform="matrix(12,0,0,12,179,154.5)" />
<use xlink:href="#f0_23" transform="matrix(12,0,0,12,183.4,154.5)" />
<use xlink:href="#f0_2a" transform="matrix(12,0,0,12,192.2,154.5)" />
<use xlink:href="#f0_21" transform="matrix(12,0,0,12,200.7,154.5)" />
<use xlink:href="#f0_20" transform="matrix(12,0,0,12,208.4,154.5)" />
<use xlink:href="#f0_2g" transform="matrix(12,0,0,12,220.5,154.5)" />
<use xlink:href="#f0_2b" transform="matrix(12,0,0,12,226,154.5)" />
<use xlink:href="#f0_1z" transform="matrix(12,0,0,12,238.5,154.5)" />
<use xlink:href="#f0_2b" transform="matrix(12,0,0,12,246.2,154.5)" />
<use xlink:href="#f0_2a" transform="matrix(12,0,0,12,255.4,154.5)" />
<use xlink:href="#f0_2i" transform="matrix(12,0,0,12,263.8,154.5)" />
<use xlink:href="#f0_21" transform="matrix(12,0,0,12,272.6,154.5)" />
<use xlink:href="#f0_2e" transform="matrix(12,0,0,12,280.4,154.5)" />
<use xlink:href="#f0_2g" transform="matrix(12,0,0,12,286.2,154.5)" />
<use xlink:href="#f0_2g" transform="matrix(12,0,0,12,294.3,154.5)" />
<use xlink:href="#f0_24" transform="matrix(12,0,0,12,299.5,154.5)" />
<use xlink:href="#f0_21" transform="matrix(12,0,0,12,308.3,154.5)" />
<use xlink:href="#f0_21" transform="matrix(12,0,0,12,319.3,154.5)" />
<use xlink:href="#f0_2a" transform="matrix(12,0,0,12,327,154.5)" />
<use xlink:href="#f0_21" transform="matrix(12,0,0,12,335.5,154.5)" />
<use xlink:href="#f0_2e" transform="matrix(12,0,0,12,343.2,154.5)" />
<use xlink:href="#f0_23" transform="matrix(12,0,0,12,349.1,154.5)" />
<use xlink:href="#f0_2l" transform="matrix(12,0,0,12,357.9,154.5)" />
<use xlink:href="#f0_22" transform="matrix(12,0,0,12,369.3,154.5)" />
<use xlink:href="#f0_2e" transform="matrix(12,0,0,12,374.5,154.5)" />
<use xlink:href="#f0_2b" transform="matrix(12,0,0,12,380.3,154.5)" />
<use xlink:href="#f0_29" transform="matrix(12,0,0,12,389.9,154.5)" />
<use xlink:href="#f0_2g" transform="matrix(12,0,0,12,406.4,154.5)" />
<use xlink:href="#f0_24" transform="matrix(12,0,0,12,411.5,154.5)" />
<use xlink:href="#f0_21" transform="matrix(12,0,0,12,420,154.5)" />
<use xlink:href="#f0_1z" transform="matrix(12,0,0,12,431,154.5)" />
<use xlink:href="#f0_2b" transform="matrix(12,0,0,12,438.7,154.5)" />
<use xlink:href="#f0_29" transform="matrix(12,0,0,12,447.9,154.5)" />
<use xlink:href="#f0_1y" transform="matrix(12,0,0,12,461.1,154.5)" />
<use xlink:href="#f0_2h" transform="matrix(12,0,0,12,469.6,154.5)" />
<use xlink:href="#f0_2f" transform="matrix(12,0,0,12,478.4,154.5)" />
<use xlink:href="#f0_2g" transform="matrix(12,0,0,12,485,154.5)" />
<use xlink:href="#f0_25" transform="matrix(12,0,0,12,490.5,154.5)" />
<use xlink:href="#f0_2b" transform="matrix(12,0,0,12,494.5,154.5)" />
<use xlink:href="#f0_2a" transform="matrix(12,0,0,12,503.7,154.5)" />
<use xlink:href="#f0_2b" transform="matrix(12,0,0,12,515.5,154.5)" />
<use xlink:href="#f0_22" transform="matrix(12,0,0,12,524.6,154.5)" />
<use xlink:href="#f0_22" transform="matrix(12,0,0,12,533.5,154.5)" />
<use xlink:href="#f0_2h" transform="matrix(12,0,0,12,538.6,154.5)" />
<use xlink:href="#f0_21" transform="matrix(12,0,0,12,547.4,154.5)" />
<use xlink:href="#f0_28" transform="matrix(12,0,0,12,555.2,154.5)" />
<use xlink:href="#f0_20" transform="matrix(12,0,0,12,562.9,154.5)" />
<use xlink:href="#f0_25" transform="matrix(12,0,0,12,571.7,154.5)" />
<use xlink:href="#f0_2e" transform="matrix(12,0,0,12,575.8,154.5)" />
<use xlink:href="#f0_21" transform="matrix(12,0,0,12,581.6,154.5)" />
<use xlink:href="#f0_1z" transform="matrix(12,0,0,12,589.4,154.5)" />
<use xlink:href="#f0_2g" transform="matrix(12,0,0,12,597.1,154.5)" />
<use xlink:href="#f0_28" transform="matrix(12,0,0,12,602.6,154.5)" />
<use xlink:href="#f0_2l" transform="matrix(12,0,0,12,606.6,154.5)" />
<use xlink:href="#f0_25" transform="matrix(12,0,0,12,617.7,154.5)" />
<use xlink:href="#f0_2a" transform="matrix(12,0,0,12,621.7,154.5)" />
<use xlink:href="#f0_2g" transform="matrix(12,0,0,12,630.2,154.5)" />
<use xlink:href="#f0_2b" transform="matrix(12,0,0,12,635.7,154.5)" />
<use xlink:href="#f0_21" transform="matrix(12,0,0,12,648.1,154.5)" />
<use xlink:href="#f0_28" transform="matrix(12,0,0,12,655.9,154.5)" />
<use xlink:href="#f0_21" transform="matrix(12,0,0,12,659.9,154.5)" />
<use xlink:href="#f0_28" transform="matrix(12,0,0,12,667.6,154.5)" />
<use xlink:href="#f0_21" transform="matrix(12,0,0,12,672.1,154.5)" />
<use xlink:href="#f0_1z" transform="matrix(12,0,0,12,679.8,154.5)" />
<use xlink:href="#f0_2g" transform="matrix(12,0,0,12,687.5,154.5)" />
<use xlink:href="#f0_2e" transform="matrix(12,0,0,12,692.6,154.5)" />
<use xlink:href="#f0_25" transform="matrix(12,0,0,12,698.5,154.5)" />
<use xlink:href="#f0_1z" transform="matrix(12,0,0,12,702.6,154.5)" />
<use xlink:href="#f0_1x" transform="matrix(12,0,0,12,710.6,154.5)" />
<use xlink:href="#f0_28" transform="matrix(12,0,0,12,718.4,154.5)" />
<use xlink:href="#f0_21" transform="matrix(12,0,0,12,725.7,154.5)" />
<use xlink:href="#f0_2a" transform="matrix(12,0,0,12,733.4,154.5)" />
<use xlink:href="#f0_21" transform="matrix(12,0,0,12,741.9,154.5)" />
<use xlink:href="#f0_2e" transform="matrix(12,0,0,12,750,154.5)" />
<use xlink:href="#f0_23" transform="matrix(12,0,0,12,755.5,154.5)" />
<use xlink:href="#f0_2l" transform="matrix(12,0,0,12,764.3,154.5)" />
<use xlink:href="#f0_i" transform="matrix(12,0,0,12,771.3,154.5)" />
<use xlink:href="#f0_11" transform="matrix(12,0,0,12,155.8,180.9)" />
<use xlink:href="#f0_20" transform="matrix(12,0,0,12,168.3,180.9)" />
<use xlink:href="#f0_2i" transform="matrix(12,0,0,12,177.1,180.9)" />
<use xlink:href="#f0_1x" transform="matrix(12,0,0,12,185.9,180.9)" />
<use xlink:href="#f0_2a" transform="matrix(12,0,0,12,193.7,180.9)" />
<use xlink:href="#f0_2g" transform="matrix(12,0,0,12,202.1,180.9)" />
<use xlink:href="#f0_1x" transform="matrix(12,0,0,12,207.2,180.9)" />
<use xlink:href="#f0_23" transform="matrix(12,0,0,12,215.3,180.9)" />
<use xlink:href="#f0_21" transform="matrix(12,0,0,12,224.1,180.9)" />
<use xlink:href="#f0_u" transform="matrix(12,0,0,12,235.2,180.9)" />
<use xlink:href="#f0_h" transform="matrix(12,0,0,12,243.6,180.9)" />
<use xlink:href="#f0_c" transform="matrix(12,0,0,12,155.8,202.9)" />
<use xlink:href="#f0_l" transform="matrix(12,0,0,12,162.1,202.9)" />
<use xlink:href="#f0_d" transform="matrix(12,0,0,12,170.9,202.9)" />
<use xlink:href="#f0_16" transform="matrix(12,0,0,12,180.4,202.9)" />
<use xlink:href="#f0_2h" transform="matrix(12,0,0,12,190.3,202.9)" />
<use xlink:href="#f0_21" transform="matrix(12,0,0,12,199.5,202.9)" />
<use xlink:href="#f0_28" transform="matrix(12,0,0,12,207.2,202.9)" />
<use xlink:href="#f0_1z" transform="matrix(12,0,0,12,214.6,202.9)" />
<use xlink:href="#f0_21" transform="matrix(12,0,0,12,222.7,202.9)" />
<use xlink:href="#f0_28" transform="matrix(12,0,0,12,230.8,202.9)" />
<use xlink:href="#f0_28" transform="matrix(12,0,0,12,234.8,202.9)" />
<use xlink:href="#f0_2j" transform="matrix(12,0,0,12,242.9,202.9)" />
<use xlink:href="#f0_2b" transform="matrix(12,0,0,12,255.8,202.9)" />
<use xlink:href="#f0_2e" transform="matrix(12,0,0,12,265.3,202.9)" />
<use xlink:href="#f0_27" transform="matrix(12,0,0,12,271.2,202.9)" />
<use xlink:href="#f0_2f" transform="matrix(12,0,0,12,280.3,202.9)" />
<use xlink:href="#f0_2j" transform="matrix(12,0,0,12,290.6,202.9)" />
<use xlink:href="#f0_25" transform="matrix(12,0,0,12,303.9,202.9)" />
<use xlink:href="#f0_2g" transform="matrix(12,0,0,12,307.9,202.9)" />
<use xlink:href="#f0_24" transform="matrix(12,0,0,12,313.4,202.9)" />
<use xlink:href="#f0_1x" transform="matrix(12,0,0,12,325.5,202.9)" />
<use xlink:href="#f0_2a" transform="matrix(12,0,0,12,333.6,202.9)" />
<use xlink:href="#f0_21" transform="matrix(12,0,0,12,345.4,202.9)" />
<use xlink:href="#f0_22" transform="matrix(12,0,0,12,353.5,202.9)" />
<use xlink:href="#f0_22" transform="matrix(12,0,0,12,358.6,202.9)" />
<use xlink:href="#f0_25" transform="matrix(12,0,0,12,364.1,202.9)" />
<use xlink:href="#f0_1z" transform="matrix(12,0,0,12,368.2,202.9)" />
<use xlink:href="#f0_25" transform="matrix(12,0,0,12,376.3,202.9)" />
<use xlink:href="#f0_21" transform="matrix(12,0,0,12,380.7,202.9)" />
<use xlink:href="#f0_2a" transform="matrix(12,0,0,12,388.4,202.9)" />
<use xlink:href="#f0_1z" transform="matrix(12,0,0,12,397.2,202.9)" />
<use xlink:href="#f0_2l" transform="matrix(12,0,0,12,405,202.9)" />
<use xlink:href="#f0_2b" transform="matrix(12,0,0,12,417.1,202.9)" />
<use xlink:href="#f0_22" transform="matrix(12,0,0,12,426.3,202.9)" />
<use xlink:href="#f0_q" transform="matrix(12,0,0,12,435.5,202.9)" />
<use xlink:href="#f0_k" transform="matrix(12,0,0,12,444.3,202.9)" />
<use xlink:href="#f0_2g" transform="matrix(12,0,0,12,456.8,202.9)" />
<use xlink:href="#f0_2b" transform="matrix(12,0,0,12,462.3,202.9)" />
<use xlink:href="#f0_r" transform="matrix(12,0,0,12,474.7,202.9)" />
<use xlink:href="#f0_k" transform="matrix(12,0,0,12,483.9,202.9)" />
<use xlink:href="#f0_9" transform="matrix(12,0,0,12,496.4,202.9)" />
<use xlink:href="#f0_c" transform="matrix(12,0,0,12,155.8,226.4)" />
<use xlink:href="#f0_m" transform="matrix(12,0,0,12,162.1,226.4)" />
<use xlink:href="#f0_d" transform="matrix(12,0,0,12,170.9,226.4)" />
<use xlink:href="#f0_1k" transform="matrix(12,0,0,12,180.1,226.4)" />
<use xlink:href="#f0_24" transform="matrix(12,0,0,12,191.4,226.4)" />
<use xlink:href="#f0_21" transform="matrix(12,0,0,12,199.9,226.4)" />
<use xlink:href="#f0_2f" transform="matrix(12,0,0,12,208,226.4)" />
<use xlink:href="#f0_21" transform="matrix(12,0,0,12,214.6,226.4)" />
<use xlink:href="#f0_1x" transform="matrix(12,0,0,12,225.6,226.4)" />
<use xlink:href="#f0_2e" transform="matrix(12,0,0,12,233.7,226.4)" />
<use xlink:href="#f0_21" transform="matrix(12,0,0,12,239.6,226.4)" />
<use xlink:href="#f0_2a" transform="matrix(12,0,0,12,251,226.4)" />
<use xlink:href="#f0_2b" transform="matrix(12,0,0,12,259.8,226.4)" />
<use xlink:href="#f0_2b" transform="matrix(12,0,0,12,272.6,226.4)" />
<use xlink:href="#f0_1y" transform="matrix(12,0,0,12,281.8,226.4)" />
<use xlink:href="#f0_26" transform="matrix(12,0,0,12,290.6,226.4)" />
<use xlink:href="#f0_21" transform="matrix(12,0,0,12,294.7,226.4)" />
<use xlink:href="#f0_1z" transform="matrix(12,0,0,12,302.8,226.4)" />
<use xlink:href="#f0_2g" transform="matrix(12,0,0,12,310.5,226.4)" />
<use xlink:href="#f0_25" transform="matrix(12,0,0,12,316,226.4)" />
<use xlink:href="#f0_2b" transform="matrix(12,0,0,12,320,226.4)" />
<use xlink:href="#f0_2a" transform="matrix(12,0,0,12,329.6,226.4)" />
<use xlink:href="#f0_1x" transform="matrix(12,0,0,12,338,226.4)" />
<use xlink:href="#f0_1y" transform="matrix(12,0,0,12,346.1,226.4)" />
<use xlink:href="#f0_28" transform="matrix(12,0,0,12,354.5,226.4)" />
<use xlink:href="#f0_21" transform="matrix(12,0,0,12,359,226.4)" />
<use xlink:href="#f0_1y" transform="matrix(12,0,0,12,370.4,226.4)" />
<use xlink:href="#f0_2l" transform="matrix(12,0,0,12,378.8,226.4)" />
<use xlink:href="#f0_2c" transform="matrix(12,0,0,12,390.2,226.4)" />
<use xlink:href="#f0_2e" transform="matrix(12,0,0,12,399.4,226.4)" />
<use xlink:href="#f0_2b" transform="matrix(12,0,0,12,405.3,226.4)" />
<use xlink:href="#f0_20" transform="matrix(12,0,0,12,414.8,226.4)" />
<use xlink:href="#f0_2h" transform="matrix(12,0,0,12,423.6,226.4)" />
<use xlink:href="#f0_1z" transform="matrix(12,0,0,12,432.8,226.4)" />
<use xlink:href="#f0_2g" transform="matrix(12,0,0,12,440.5,226.4)" />
<use xlink:href="#f0_2f" transform="matrix(12,0,0,12,446,226.4)" />
<use xlink:href="#f0_1x" transform="matrix(12,0,0,12,456.3,226.4)" />
<use xlink:href="#f0_2a" transform="matrix(12,0,0,12,464,226.4)" />
<use xlink:href="#f0_20" transform="matrix(12,0,0,12,472.8,226.4)" />
<use xlink:href="#f0_2g" transform="matrix(12,0,0,12,485.3,226.4)" />
<use xlink:href="#f0_24" transform="matrix(12,0,0,12,490.5,226.4)" />
<use xlink:href="#f0_21" transform="matrix(12,0,0,12,499.3,226.4)" />
<use xlink:href="#f0_2e" transform="matrix(12,0,0,12,507,226.4)" />
<use xlink:href="#f0_21" transform="matrix(12,0,0,12,513.2,226.4)" />
<use xlink:href="#f0_22" transform="matrix(12,0,0,12,520.9,226.4)" />
<use xlink:href="#f0_2b" transform="matrix(12,0,0,12,526.5,226.4)" />
<use xlink:href="#f0_2e" transform="matrix(12,0,0,12,535.6,226.4)" />
<use xlink:href="#f0_21" transform="matrix(12,0,0,12,541.9,226.4)" />
<use xlink:href="#f0_g" transform="matrix(12,0,0,12,549.6,226.4)" />
<use xlink:href="#f0_25" transform="matrix(12,0,0,12,557.7,226.4)" />
<use xlink:href="#f0_2g" transform="matrix(12,0,0,12,562.1,226.4)" />
<use xlink:href="#f0_2f" transform="matrix(12,0,0,12,567.2,226.4)" />
<use xlink:href="#f0_1x" transform="matrix(12,0,0,12,577.1,226.4)" />
<use xlink:href="#f0_2c" transform="matrix(12,0,0,12,588.5,226.4)" />
<use xlink:href="#f0_2b" transform="matrix(12,0,0,12,597.7,226.4)" />
<use xlink:href="#f0_28" transform="matrix(12,0,0,12,606.9,226.4)" />
<use xlink:href="#f0_28" transform="matrix(12,0,0,12,611.3,226.4)" />
<use xlink:href="#f0_2h" transform="matrix(12,0,0,12,615.3,226.4)" />
<use xlink:href="#f0_2g" transform="matrix(12,0,0,12,624.5,226.4)" />
<use xlink:href="#f0_25" transform="matrix(12,0,0,12,629.6,226.4)" />
<use xlink:href="#f0_2b" transform="matrix(12,0,0,12,634.1,226.4)" />
<use xlink:href="#f0_2a" transform="matrix(12,0,0,12,643.2,226.4)" />
<use xlink:href="#f0_22" transform="matrix(12,0,0,12,655.4,226.4)" />
<use xlink:href="#f0_2e" transform="matrix(12,0,0,12,660.9,226.4)" />
<use xlink:href="#f0_21" transform="matrix(12,0,0,12,666.8,226.4)" />
<use xlink:href="#f0_21" transform="matrix(12,0,0,12,674.8,226.4)" />
<use xlink:href="#f0_2f" transform="matrix(12,0,0,12,686.2,226.4)" />
<use xlink:href="#f0_2b" transform="matrix(12,0,0,12,692.9,226.4)" />
<use xlink:href="#f0_2h" transform="matrix(12,0,0,12,702.4,226.4)" />
<use xlink:href="#f0_2e" transform="matrix(12,0,0,12,711.2,226.4)" />
<use xlink:href="#f0_1z" transform="matrix(12,0,0,12,717.4,226.4)" />
<use xlink:href="#f0_21" transform="matrix(12,0,0,12,725.2,226.4)" />
<use xlink:href="#f0_2b" transform="matrix(12,0,0,12,736.2,226.4)" />
<use xlink:href="#f0_22" transform="matrix(12,0,0,12,745.7,226.4)" />
<use xlink:href="#f0_21" transform="matrix(12,0,0,12,754.6,226.4)" />
<use xlink:href="#f0_2a" transform="matrix(12,0,0,12,762.3,226.4)" />
<use xlink:href="#f0_21" transform="matrix(12,0,0,12,771.1,226.4)" />
<use xlink:href="#f0_2e" transform="matrix(12,0,0,12,778.8,226.4)" />
<use xlink:href="#f0_23" transform="matrix(12,0,0,12,784.7,226.4)" />
<use xlink:href="#f0_2l" transform="matrix(12,0,0,12,793.5,226.4)" />
<use xlink:href="#f0_i" transform="matrix(12,0,0,12,800.9,226.4)" />
<use xlink:href="#f0_m" transform="matrix(12,0,0,12,64.9,275.1)" />
<use xlink:href="#f0_p" transform="matrix(12,0,0,12,74.1,275.1)" />
<use xlink:href="#f0_i" transform="matrix(12,0,0,12,83.2,275.1)" />
<use xlink:href="#f0_c" transform="matrix(12,0,0,12,117,275.1)" />
<use xlink:href="#f0_1x" transform="matrix(12,0,0,12,122.5,275.1)" />
<use xlink:href="#f0_d" transform="matrix(12,0,0,12,130.2,275.1)" />
<use xlink:href="#f0_1n" transform="matrix(12,0,0,12,155.8,275.1)" />
<use xlink:href="#f0_2e" transform="matrix(12,0,0,12,171.6,275.1)" />
<use xlink:href="#f0_25" transform="matrix(12,0,0,12,177.5,275.1)" />
<use xlink:href="#f0_2g" transform="matrix(12,0,0,12,181.5,275.1)" />
<use xlink:href="#f0_21" transform="matrix(12,0,0,12,186.7,275.1)" />
<use xlink:href="#f0_2g" transform="matrix(12,0,0,12,197.7,275.1)" />
<use xlink:href="#f0_24" transform="matrix(12,0,0,12,202.8,275.1)" />
<use xlink:href="#f0_21" transform="matrix(12,0,0,12,211.3,275.1)" />
<use xlink:href="#f0_2e" transform="matrix(12,0,0,12,222,275.1)" />
<use xlink:href="#f0_21" transform="matrix(12,0,0,12,227.9,275.1)" />
<use xlink:href="#f0_1x" transform="matrix(12,0,0,12,235.2,275.1)" />
<use xlink:href="#f0_1z" transform="matrix(12,0,0,12,242.9,275.1)" />
<use xlink:href="#f0_2g" transform="matrix(12,0,0,12,250.6,275.1)" />
<use xlink:href="#f0_25" transform="matrix(12,0,0,12,255.8,275.1)" />
<use xlink:href="#f0_2b" transform="matrix(12,0,0,12,259.8,275.1)" />
<use xlink:href="#f0_2a" transform="matrix(12,0,0,12,269,275.1)" />
<use xlink:href="#f0_2f" transform="matrix(12,0,0,12,277.4,275.1)" />
<use xlink:href="#f0_25" transform="matrix(12,0,0,12,287.4,275.1)" />
<use xlink:href="#f0_2a" transform="matrix(12,0,0,12,291.4,275.1)" />
<use xlink:href="#f0_2i" transform="matrix(12,0,0,12,299.9,275.1)" />
<use xlink:href="#f0_2b" transform="matrix(12,0,0,12,308.3,275.1)" />
<use xlink:href="#f0_28" transform="matrix(12,0,0,12,317.5,275.1)" />
<use xlink:href="#f0_2i" transform="matrix(12,0,0,12,321.5,275.1)" />
<use xlink:href="#f0_21" transform="matrix(12,0,0,12,330,275.1)" />
<use xlink:href="#f0_20" transform="matrix(12,0,0,12,337.7,275.1)" />
<use xlink:href="#f0_25" transform="matrix(12,0,0,12,349.8,275.1)" />
<use xlink:href="#f0_2a" transform="matrix(12,0,0,12,353.9,275.1)" />
<use xlink:href="#f0_2g" transform="matrix(12,0,0,12,365.7,275.1)" />
<use xlink:href="#f0_24" transform="matrix(12,0,0,12,370.8,275.1)" />
<use xlink:href="#f0_21" transform="matrix(12,0,0,12,379.2,275.1)" />
<use xlink:href="#f0_22" transform="matrix(12,0,0,12,389.5,275.1)" />
<use xlink:href="#f0_2b" transform="matrix(12,0,0,12,394.7,275.1)" />
<use xlink:href="#f0_28" transform="matrix(12,0,0,12,403.9,275.1)" />
<use xlink:href="#f0_28" transform="matrix(12,0,0,12,407.9,275.1)" />
<use xlink:href="#f0_2b" transform="matrix(12,0,0,12,412,275.1)" />
<use xlink:href="#f0_2j" transform="matrix(12,0,0,12,421.1,275.1)" />
<use xlink:href="#f0_25" transform="matrix(12,0,0,12,434,275.1)" />
<use xlink:href="#f0_2a" transform="matrix(12,0,0,12,438,275.1)" />
<use xlink:href="#f0_23" transform="matrix(12,0,0,12,446.5,275.1)" />
<use xlink:href="#f0_u" transform="matrix(12,0,0,12,458.6,275.1)" />
<use xlink:href="#f0_c" transform="matrix(12,0,0,12,117,299.7)" />
<use xlink:href="#f0_25" transform="matrix(12,0,0,12,122.1,299.7)" />
<use xlink:href="#f0_d" transform="matrix(12,0,0,12,125.8,299.7)" />
<use xlink:href="#f0_18" transform="matrix(12,0,0,12,155.8,299.7)" />
<use xlink:href="#f0_2b" transform="matrix(12,0,0,12,168.7,299.7)" />
<use xlink:href="#f0_22" transform="matrix(12,0,0,12,177.8,299.7)" />
<use xlink:href="#f0_29" transform="matrix(12,0,0,12,183,299.7)" />
<use xlink:href="#f0_1x" transform="matrix(12,0,0,12,196.2,299.7)" />
<use xlink:href="#f0_2a" transform="matrix(12,0,0,12,203.9,299.7)" />
<use xlink:href="#f0_2a" transform="matrix(12,0,0,12,212.4,299.7)" />
<use xlink:href="#f0_1y" transform="matrix(12,0,0,12,224.1,299.7)" />
<use xlink:href="#f0_2e" transform="matrix(12,0,0,12,232.6,299.7)" />
<use xlink:href="#f0_2b" transform="matrix(12,0,0,12,238.5,299.7)" />
<use xlink:href="#f0_29" transform="matrix(12,0,0,12,247.6,299.7)" />
<use xlink:href="#f0_1x" transform="matrix(12,0,0,12,260.9,299.7)" />
<use xlink:href="#f0_29" transform="matrix(12,0,0,12,268.6,299.7)" />
<use xlink:href="#f0_25" transform="matrix(12,0,0,12,281.8,299.7)" />
<use xlink:href="#f0_20" transform="matrix(12,0,0,12,285.8,299.7)" />
<use xlink:href="#f0_21" transform="matrix(12,0,0,12,294.7,299.7)" />
<use xlink:href="#f0_20" transform="matrix(12,0,0,12,305.3,299.7)" />
<use xlink:href="#f0_21" transform="matrix(12,0,0,12,314.5,299.7)" />
<use xlink:href="#f0_23" transform="matrix(12,0,0,12,322.2,299.7)" />
<use xlink:href="#f0_2e" transform="matrix(12,0,0,12,331,299.7)" />
<use xlink:href="#f0_1x" transform="matrix(12,0,0,12,336.9,299.7)" />
<use xlink:href="#f0_20" transform="matrix(12,0,0,12,344.6,299.7)" />
<use xlink:href="#f0_1x" transform="matrix(12,0,0,12,353.4,299.7)" />
<use xlink:href="#f0_2g" transform="matrix(12,0,0,12,361.2,299.7)" />
<use xlink:href="#f0_25" transform="matrix(12,0,0,12,366.3,299.7)" />
<use xlink:href="#f0_2b" transform="matrix(12,0,0,12,370.3,299.7)" />
<use xlink:href="#f0_2a" transform="matrix(12,0,0,12,379.5,299.7)" />
<use xlink:href="#f0_2e" transform="matrix(12,0,0,12,391.3,299.7)" />
<use xlink:href="#f0_21" transform="matrix(12,0,0,12,397.2,299.7)" />
<use xlink:href="#f0_1x" transform="matrix(12,0,0,12,404.9,299.7)" />
<use xlink:href="#f0_1z" transform="matrix(12,0,0,12,412.6,299.7)" />
<use xlink:href="#f0_2g" transform="matrix(12,0,0,12,420.3,299.7)" />
<use xlink:href="#f0_25" transform="matrix(12,0,0,12,425.4,299.7)" />
<use xlink:href="#f0_2b" transform="matrix(12,0,0,12,429.5,299.7)" />
<use xlink:href="#f0_2a" transform="matrix(12,0,0,12,438.7,299.7)" />
<use xlink:href="#f0_c" transform="matrix(12,0,0,12,117,323.9)" />
<use xlink:href="#f0_25" transform="matrix(12,0,0,12,122.1,323.9)" />
<use xlink:href="#f0_25" transform="matrix(12,0,0,12,125.8,323.9)" />
<use xlink:href="#f0_d" transform="matrix(12,0,0,12,129.1,323.9)" />
<use xlink:href="#f0_14" transform="matrix(12,0,0,12,155.8,323.9)" />
<use xlink:href="#f0_25" transform="matrix(12,0,0,12,168.3,323.9)" />
<use xlink:href="#f0_1x" transform="matrix(12,0,0,12,172,323.9)" />
<use xlink:href="#f0_2m" transform="matrix(12,0,0,12,179.4,323.9)" />
<use xlink:href="#f0_2b" transform="matrix(12,0,0,12,187.1,323.9)" />
<use xlink:href="#f0_2g" transform="matrix(12,0,0,12,195.9,323.9)" />
<use xlink:href="#f0_25" transform="matrix(12,0,0,12,200.7,323.9)" />
<use xlink:href="#f0_2f" transform="matrix(12,0,0,12,204.4,323.9)" />
<use xlink:href="#f0_1x" transform="matrix(12,0,0,12,210.6,323.9)" />
<use xlink:href="#f0_2g" transform="matrix(12,0,0,12,218,323.9)" />
<use xlink:href="#f0_25" transform="matrix(12,0,0,12,223.1,323.9)" />
<use xlink:href="#f0_2b" transform="matrix(12,0,0,12,226.8,323.9)" />
<use xlink:href="#f0_2a" transform="matrix(12,0,0,12,235.6,323.9)" />
<use xlink:href="#f0_c" transform="matrix(12,0,0,12,117,348.5)" />
<use xlink:href="#f0_25" transform="matrix(12,0,0,12,122.1,348.5)" />
<use xlink:href="#f0_25" transform="matrix(12,0,0,12,125.4,348.5)" />
<use xlink:href="#f0_25" transform="matrix(12,0,0,12,129.1,348.5)" />
<use xlink:href="#f0_d" transform="matrix(12,0,0,12,132.4,348.5)" />
<use xlink:href="#f0_17" transform="matrix(12,0,0,12,155.8,348.5)" />
<use xlink:href="#f0_1x" transform="matrix(12,0,0,12,168.7,348.5)" />
<use xlink:href="#f0_1y" transform="matrix(12,0,0,12,176.4,348.5)" />
<use xlink:href="#f0_2e" transform="matrix(12,0,0,12,184.8,348.5)" />
<use xlink:href="#f0_25" transform="matrix(12,0,0,12,190.7,348.5)" />
<use xlink:href="#f0_21" transform="matrix(12,0,0,12,194.8,348.5)" />
<use xlink:href="#f0_28" transform="matrix(12,0,0,12,202.5,348.5)" />
<use xlink:href="#f0_2c" transform="matrix(12,0,0,12,209.9,348.5)" />
<use xlink:href="#f0_24" transform="matrix(12,0,0,12,218.7,348.5)" />
<use xlink:href="#f0_2g" transform="matrix(12,0,0,12,227.1,348.5)" />
<use xlink:href="#f0_24" transform="matrix(12,0,0,12,232.3,348.5)" />
<use xlink:href="#f0_1x" transform="matrix(12,0,0,12,240.7,348.5)" />
<use xlink:href="#f0_28" transform="matrix(12,0,0,12,248.4,348.5)" />
<use xlink:href="#f0_1x" transform="matrix(12,0,0,12,252.1,348.5)" />
<use xlink:href="#f0_29" transform="matrix(12,0,0,12,259.8,348.5)" />
<use xlink:href="#f0_25" transform="matrix(12,0,0,12,273.1,348.5)" />
<use xlink:href="#f0_20" transform="matrix(12,0,0,12,277.1,348.5)" />
<use xlink:href="#f0_21" transform="matrix(12,0,0,12,285.9,348.5)" />
<use xlink:href="#f0_2f" transform="matrix(12,0,0,12,297,348.5)" />
<use xlink:href="#f0_2l" transform="matrix(12,0,0,12,303.6,348.5)" />
<use xlink:href="#f0_2a" transform="matrix(12,0,0,12,311.7,348.5)" />
<use xlink:href="#f0_2g" transform="matrix(12,0,0,12,320.1,348.5)" />
<use xlink:href="#f0_24" transform="matrix(12,0,0,12,325.2,348.5)" />
<use xlink:href="#f0_21" transform="matrix(12,0,0,12,333.7,348.5)" />
<use xlink:href="#f0_2f" transform="matrix(12,0,0,12,341.4,348.5)" />
<use xlink:href="#f0_25" transform="matrix(12,0,0,12,348,348.5)" />
<use xlink:href="#f0_2f" transform="matrix(12,0,0,12,352.1,348.5)" />
<use xlink:href="#f0_11" transform="matrix(12,0,0,12,64.9,373)" />
<use xlink:href="#f0_2a" transform="matrix(12,0,0,12,77.4,373)" />
<use xlink:href="#f0_2f" transform="matrix(12,0,0,12,85.8,373)" />
<use xlink:href="#f0_i" transform="matrix(12,0,0,12,92.4,373)" />
<use xlink:href="#f0_c" transform="matrix(12,0,0,12,117,373)" />
<use xlink:href="#f0_25" transform="matrix(12,0,0,12,122.1,373)" />
<use xlink:href="#f0_d" transform="matrix(12,0,0,12,125.8,373)" />
</g>
<g fill="#373435" >
<use xlink:href="#f0_1i" transform="matrix(13.2,0,0,13.2,159.9,456.3)" />
<use xlink:href="#f0_4y" transform="matrix(13.2,0,0,13.2,178.6,456.3)" />
<use xlink:href="#f0_13" transform="matrix(13.2,0,0,13.2,193.6,456.3)" />
<use xlink:href="#f0_18" transform="matrix(13.2,0,0,13.2,206.8,456.3)" />
<use xlink:href="#f0_4y" transform="matrix(13.2,0,0,13.2,231.4,456.3)" />
<use xlink:href="#f0_13" transform="matrix(13.2,0,0,13.2,246.4,456.3)" />
<use xlink:href="#f0_4y" transform="matrix(13.2,0,0,13.2,265.1,456.3)" />
<use xlink:href="#f0_1e" transform="matrix(13.2,0,0,13.2,280.1,456.3)" />
<use xlink:href="#f0_18" transform="matrix(13.2,0,0,13.2,294.8,456.3)" />
<use xlink:href="#f0_f" transform="matrix(13.2,0,0,13.2,329.2,456.3)" />
<use xlink:href="#f0_o" transform="matrix(13.2,0,0,13.2,350.8,456.3)" />
<use xlink:href="#f0_1e" transform="matrix(13.2,0,0,13.2,365.9,456.3)" />
<use xlink:href="#f0_1x" transform="matrix(13.2,0,0,13.2,380.5,456.3)" />
<use xlink:href="#f0_1f" transform="matrix(13.2,0,0,13.2,389.4,456.3)" />
<use xlink:href="#f0_18" transform="matrix(13.2,0,0,13.2,404,456.3)" />
<use xlink:href="#f0_f" transform="matrix(13.2,0,0,13.2,423.5,456.3)" />
<use xlink:href="#f0_12" transform="matrix(13.2,0,0,13.2,440,456.3)" />
<use xlink:href="#f0_2e" transform="matrix(13.2,0,0,13.2,453.5,456.3)" />
<use xlink:href="#f0_m" transform="matrix(6.6,0,0,6.6,221.5,460.3)" />
<use xlink:href="#f0_m" transform="matrix(6.6,0,0,6.6,309.5,460.3)" />
<use xlink:href="#f0_m" transform="matrix(6.6,0,0,6.6,460.1,460.3)" />
<use xlink:href="#f1_2o" transform="matrix(13.2,0,0,13.2,249.7,435.4)" />
<use xlink:href="#f1_2o" transform="matrix(13.2,0,0,13.2,254.8,435.4)" />
</g>
<g clip-path="url(#c0_14)">
<g fill="#373435" >
<use xlink:href="#f0_1f" transform="matrix(13.2,0,0,13.2,247.9,418.1)" />
</g>
</g>
<g fill="#373435" >
<use xlink:href="#f1_2o" transform="matrix(13.2,0,0,13.2,266.6,597.8)" />
<use xlink:href="#f1_2o" transform="matrix(13.2,0,0,13.2,271.7,597.8)" />
<use xlink:href="#f0_1f" transform="matrix(13.2,0,0,13.2,265.1,580.6)" />
</g>
<path d="M295.4,507.6V470.4h.8v37.2h-.8Zm2.6,-.4l-2.2,4l-2.3,-4H298Z" class="g2_14" />
<path d="M358.9,677.1V639.9h.8v37.2h-.8Zm2.6,-.5l-2.2,4.1L357,676.6h4.5Z" class="g2_14" />
<g fill="#373435" >
<use xlink:href="#f0_1i" transform="matrix(13.2,0,0,13.2,172.7,534)" />
<use xlink:href="#f0_4y" transform="matrix(13.2,0,0,13.2,191.4,534)" />
<use xlink:href="#f0_13" transform="matrix(13.2,0,0,13.2,206.4,534)" />
<use xlink:href="#f0_18" transform="matrix(13.2,0,0,13.2,219.7,534)" />
<use xlink:href="#f0_4y" transform="matrix(13.2,0,0,13.2,244.6,534)" />
<use xlink:href="#f0_1e" transform="matrix(13.2,0,0,13.2,259.6,534)" />
<use xlink:href="#f0_18" transform="matrix(13.2,0,0,13.2,274.3,534)" />
<use xlink:href="#f0_f" transform="matrix(13.2,0,0,13.2,298.8,534)" />
<use xlink:href="#f0_1e" transform="matrix(13.2,0,0,13.2,315,534)" />
<use xlink:href="#f0_13" transform="matrix(13.2,0,0,13.2,348.7,534)" />
<use xlink:href="#f0_1f" transform="matrix(13.2,0,0,13.2,362.2,534)" />
<use xlink:href="#f0_f" transform="matrix(13.2,0,0,13.2,386.8,534)" />
<use xlink:href="#f0_m" transform="matrix(13.2,0,0,13.2,403.3,534)" />
<use xlink:href="#f0_1e" transform="matrix(13.2,0,0,13.2,413.2,534)" />
<use xlink:href="#f0_1x" transform="matrix(13.2,0,0,13.2,427.9,534)" />
<use xlink:href="#f0_12" transform="matrix(13.2,0,0,13.2,437,534)" />
<use xlink:href="#f0_2e" transform="matrix(13.2,0,0,13.2,450.2,534)" />
<use xlink:href="#f0_f" transform="matrix(13.2,0,0,13.2,462,534)" />
<use xlink:href="#f0_m" transform="matrix(13.2,0,0,13.2,478.5,534)" />
<use xlink:href="#f0_18" transform="matrix(13.2,0,0,13.2,488.4,534)" />
<use xlink:href="#f0_1f" transform="matrix(13.2,0,0,13.2,508.2,534)" />
<use xlink:href="#f0_m" transform="matrix(6.6,0,0,6.6,234.3,538)" />
<use xlink:href="#f0_m" transform="matrix(6.6,0,0,6.6,288.6,538)" />
<use xlink:href="#f0_m" transform="matrix(6.6,0,0,6.6,338.4,538)" />
<use xlink:href="#f0_n" transform="matrix(6.6,0,0,6.6,376.5,538)" />
<use xlink:href="#f0_m" transform="matrix(6.6,0,0,6.6,503,538)" />
<use xlink:href="#f0_1x" transform="matrix(13.2,0,0,13.2,329.6,534)" />
<use xlink:href="#f0_13" transform="matrix(13.2,0,0,13.2,156.2,619.8)" />
<use xlink:href="#f0_24" transform="matrix(13.2,0,0,13.2,169.4,619.8)" />
<use xlink:href="#f0_4y" transform="matrix(13.2,0,0,13.2,189.6,619.8)" />
<use xlink:href="#f0_13" transform="matrix(13.2,0,0,13.2,205,619.8)" />
<use xlink:href="#f0_18" transform="matrix(13.2,0,0,13.2,218.2,619.8)" />
<use xlink:href="#f0_4y" transform="matrix(13.2,0,0,13.2,245.3,619.8)" />
<use xlink:href="#f0_13" transform="matrix(13.2,0,0,13.2,260.3,619.8)" />
<use xlink:href="#f0_4y" transform="matrix(13.2,0,0,13.2,279,619.8)" />
<use xlink:href="#f0_1e" transform="matrix(13.2,0,0,13.2,299.2,619.8)" />
<use xlink:href="#f0_18" transform="matrix(13.2,0,0,13.2,313.8,619.8)" />
<use xlink:href="#f0_f" transform="matrix(13.2,0,0,13.2,348.3,619.8)" />
<use xlink:href="#f0_o" transform="matrix(13.2,0,0,13.2,364.8,619.8)" />
<use xlink:href="#f0_1e" transform="matrix(13.2,0,0,13.2,375,619.8)" />
<use xlink:href="#f0_1x" transform="matrix(13.2,0,0,13.2,389.3,619.8)" />
<use xlink:href="#f0_1f" transform="matrix(13.2,0,0,13.2,398.5,619.8)" />
<use xlink:href="#f0_18" transform="matrix(13.2,0,0,13.2,412.8,619.8)" />
<use xlink:href="#f0_f" transform="matrix(13.2,0,0,13.2,437.7,619.8)" />
<use xlink:href="#f0_m" transform="matrix(13.2,0,0,13.2,453.8,619.8)" />
<use xlink:href="#f0_1e" transform="matrix(13.2,0,0,13.2,464.1,619.8)" />
<use xlink:href="#f0_1x" transform="matrix(13.2,0,0,13.2,478.4,619.8)" />
<use xlink:href="#f0_12" transform="matrix(13.2,0,0,13.2,487.6,619.8)" />
<use xlink:href="#f0_2e" transform="matrix(13.2,0,0,13.2,500.8,619.8)" />
<use xlink:href="#f0_f" transform="matrix(13.2,0,0,13.2,518,619.8)" />
<use xlink:href="#f0_m" transform="matrix(13.2,0,0,13.2,534.1,619.8)" />
<use xlink:href="#f0_18" transform="matrix(13.2,0,0,13.2,544.4,619.8)" />
<use xlink:href="#f0_1f" transform="matrix(13.2,0,0,13.2,563.8,619.8)" />
<use xlink:href="#f0_n" transform="matrix(6.6,0,0,6.6,179.7,623.8)" />
<use xlink:href="#f0_m" transform="matrix(6.6,0,0,6.6,232.8,623.8)" />
<use xlink:href="#f0_m" transform="matrix(6.6,0,0,6.6,328.5,623.8)" />
<use xlink:href="#f0_m" transform="matrix(6.6,0,0,6.6,559.1,623.8)" />
<use xlink:href="#f0_4y" transform="matrix(13.2,0,0,13.2,230.6,716.6)" />
<use xlink:href="#f0_13" transform="matrix(13.2,0,0,13.2,250.8,716.6)" />
<use xlink:href="#f0_18" transform="matrix(13.2,0,0,13.2,264.3,716.6)" />
<use xlink:href="#f0_4y" transform="matrix(13.2,0,0,13.2,294,716.6)" />
<use xlink:href="#f0_1e" transform="matrix(13.2,0,0,13.2,309.1,716.6)" />
<use xlink:href="#f0_18" transform="matrix(13.2,0,0,13.2,323.7,716.6)" />
<use xlink:href="#f0_f" transform="matrix(13.2,0,0,13.2,353,716.6)" />
<use xlink:href="#f0_1e" transform="matrix(13.2,0,0,13.2,374.7,716.6)" />
<use xlink:href="#f0_1x" transform="matrix(13.2,0,0,13.2,389.3,716.6)" />
<use xlink:href="#f0_13" transform="matrix(13.2,0,0,13.2,403.3,716.6)" />
<use xlink:href="#f0_1f" transform="matrix(13.2,0,0,13.2,416.8,716.6)" />
<use xlink:href="#f0_f" transform="matrix(13.2,0,0,13.2,446.1,716.6)" />
<use xlink:href="#f0_m" transform="matrix(13.2,0,0,13.2,462.6,716.6)" />
<use xlink:href="#f0_1e" transform="matrix(13.2,0,0,13.2,472.9,716.6)" />
<use xlink:href="#f0_1x" transform="matrix(13.2,0,0,13.2,487.5,716.6)" />
<use xlink:href="#f0_12" transform="matrix(13.2,0,0,13.2,496.4,716.6)" />
<use xlink:href="#f0_2e" transform="matrix(13.2,0,0,13.2,509.9,716.6)" />
<use xlink:href="#f0_f" transform="matrix(13.2,0,0,13.2,526.4,716.6)" />
<use xlink:href="#f0_m" transform="matrix(13.2,0,0,13.2,548.1,716.6)" />
<use xlink:href="#f0_18" transform="matrix(13.2,0,0,13.2,558.3,716.6)" />
<use xlink:href="#f0_1f" transform="matrix(13.2,0,0,13.2,577.7,716.6)" />
</g>
<g clip-path="url(#c1_14)">
<g fill="#373435" >
<use xlink:href="#f0_m" transform="matrix(6.6,0,0,6.6,278.7,720.6)" />
<use xlink:href="#f0_m" transform="matrix(6.6,0,0,6.6,338.1,720.6)" />
<use xlink:href="#f0_m" transform="matrix(6.6,0,0,6.6,398.2,720.6)" />
<use xlink:href="#f0_n" transform="matrix(6.6,0,0,6.6,431.2,720.6)" />
<use xlink:href="#f0_m" transform="matrix(6.6,0,0,6.6,572.7,720.6)" />
</g>
</g>
<g fill="#373435" >
<use xlink:href="#f0_13" transform="matrix(13.2,0,0,13.2,193.6,717.3)" />
<use xlink:href="#f0_18" transform="matrix(13.2,0,0,13.2,207.2,717.3)" />
</g>
<g clip-path="url(#c2_14)">
<g fill="#373435" >
<use xlink:href="#f0_n" transform="matrix(6.6,0,0,6.6,221.8,721.4)" />
</g>
</g>
<g fill="#000000" >
<use xlink:href="#f0_c" transform="matrix(12,0,0,12,117,796.9)" />
<use xlink:href="#f0_25" transform="matrix(12,0,0,12,122.1,796.9)" />
<use xlink:href="#f0_25" transform="matrix(12,0,0,12,125.8,796.9)" />
<use xlink:href="#f0_d" transform="matrix(12,0,0,12,129.1,796.9)" />
</g>
<path d="M485.6,751.1h-1.7v-1.5l-.3,-.4v-.3l-.4,-.4h-.3v-.4l-.4,-.3h-.3l-.4,-.4h-1.4v-1.5h1.8l.3,.4h.4l.3,.4l.4,.3l.3,.4l.4,.4l.3,.3l.3,.4v.4l.4,.3v1.1l.3,.8Zm-5.2,5.1v-1.4h.4l.3,-.4h.7l.4,-.4h.3l.4,-.3l.3,-.4l.4,-.4v-.3h.3v-1.5h1.7l-.3,.3v1.2l-.4,.3v.4l-.3,.7l-.3,.4l-.4,.4l-.3,.3h-.4l-.3,.4l-.4,.4h-.3l-.7,.3h-1.1Zm-4.8,-5.1H477v.3l.3,.4v.8h.4v.3l.3,.4v.4h.4l.3,.3h.4l.3,.4h.4l.3,.4h.3v1.4h-.6l-.7,-.3h-.4l-.3,-.4l-.7,-.4h-.4l-.3,-.3l-.4,-.4V754l-.3,-.7l-.4,-.4v-.7l-.3,-.8v-.3Zm4.8,-5.2v1.5h-1l-.3,.4h-.4l-.3,.3l-.4,.4l-.3,.4v.3l-.4,.4v.7l-.3,.4v.4h-1.4v-.8l.3,-.3v-1.1l.4,-.4l.3,-.4v-.3l.4,-.4l.3,-.4l.4,-.3l.7,-.4h.3l.4,-.4h1.3Z" class="g2_14" />
<path d="M548.6,751.1h-1.4l-.3,-.4v-1.1l-.4,-.4v-.3l-.3,-.4l-.3,-.4l-.4,-.3h-.3l-.4,-.4h-1v-1.5h1.4l.3,.4h.4l.3,.4l.7,.3l.3,.4v.4l.4,.3l.3,.4l.4,.4V750l.3,.3v.8Zm-4.8,5.1v-1.4h.3l.4,-.4h.3l.4,-.4h.3l.4,-.3h.3v-.4l.3,-.4v-.3h.4v-1.2l.3,-.3h1.4v.3l-.3,.8v.7l-.4,.4l-.3,.7l-.4,.4v.4l-.3,.3h-.7l-.3,.4l-.4,.4h-.3l-.7,.3h-.7Zm-5.2,-5.1h1.7v1.5h.4v.3l.3,.4v.4h.3l.4,.3h.3l.4,.4h.7l.3,.4h.4v1.4h-1.1l-.7,-.3h-.3l-.4,-.4l-.3,-.4h-.3l-.4,-.3l-.3,-.4l-.4,-.4l-.3,-.7v-.4l-.4,-.3v-.4l-.3,-.8v-.3Zm5.2,-5.2v1.5h-1.4l-.4,.4h-.3l-.4,.3l-.3,.4l-.3,.4v.3l-.4,.4v1.5h-1.7v-.8l.3,-.3v-.8l.4,-.3v-.4l.3,-.4l.4,-.3l.3,-.4l.4,-.4l.3,-.3l.3,-.4h.4l.3,-.4h1.8Z" class="g2_14" />
<path d="M193.6,770.2l-11.8,-7.3l.7,-1.5l11.7,7.4l-.6,1.4Zm12.1,7.4l-12.1,-7.4l.6,-1.4l12.2,7.3l.3,.8l-1,.7Zm.7,-1.5l.3,.4v.4l-.3,-.8Zm-1.1,15.5V776.9h1.4v14.7h-1.4Zm0,14.8V791.6h1.4v14.8l-.3,.3l-1.1,-.3Zm1.4,0v.3h-.3l.3,-.3ZM193.6,813l12.1,-7.4l.7,1.1l-12.2,7.4l-.6,-1.1Zm-11.8,7.3L193.6,813l.6,1.1l-11.7,7.4h-.7v-1.2Zm.7,1.2l-.4,.3l-.3,-.3h.7ZM170.4,813l12.1,7.3l-.7,1.2l-12.1,-7.4l.7,-1.1Zm-11.8,-7.4l11.8,7.4l-.7,1.1l-11.8,-7.4l-.3,-.3l1,-.8Zm-.7,1.1h-.3v-.3l.3,.3ZM159,791.6v14.8h-1.4V791.6H159Zm0,-14.7v14.7h-1.4V776.9l.3,-.8l1.1,.8Zm-1.4,0v-.4l.3,-.4l-.3,.8Zm12.8,-6.7l-11.8,7.4l-.7,-1.5l11.8,-7.3l.7,1.4Zm12.1,-7.3l-12.1,7.3l-.7,-1.4l12.1,-7.4h.7v1.5Zm-.7,-1.5l.3,-.4l.4,.4h-.7Z" class="g2_14" />
<path d="M437.2,770.2l-11.8,-7.3l.7,-1.5l12.1,7.4l-1,1.4Zm12.1,7.4l-12.1,-7.4l1,-1.4l11.8,7.3l.3,.8l-1,.7Zm.7,-1.5l.3,.4v.4l-.3,-.8Zm-1,15.5V776.9h1.3v14.7H449Zm0,14.8V791.6h1.3v14.8l-.3,.3l-1,-.3Zm1.3,0v.3H450l.3,-.3ZM437.2,813l12.1,-7.4l.7,1.1l-11.8,7.4l-1,-1.1Zm-11.8,7.3L437.2,813l1,1.1l-12.1,7.4h-.7v-1.2Zm.7,1.2l-.3,.3l-.4,-.3h.7ZM414,813l12.1,7.3l-.7,1.2l-12.1,-7.4L414,813Zm-11.8,-7.4L414,813l-.7,1.1l-11.8,-7.4l-.3,-.3l1,-.8Zm-.7,1.1h-.3v-.3l.3,.3Zm1.1,-15.1v14.8h-1.4V791.6h1.4Zm0,-14.7v14.7h-1.4V776.9l.3,-.8l1.1,.8Zm-1.4,0v-.4l.3,-.4l-.3,.8ZM414,770.2l-11.8,7.4l-.7,-1.5l11.8,-7.3l.7,1.4Zm12.1,-7.3L414,770.2l-.7,-1.4l12.1,-7.4h.7v1.5Zm-.7,-1.5l.4,-.4l.3,.4h-.7Z" class="g2_14" />
<path d="M183.2,767.7l-21.1,13.2l-.7,-1.1l21.1,-13.2l.7,1.1Z" class="g2_14" />
<path d="M427.1,767.7l-21.4,13.2l-.7,-1.1l21.1,-13.2l1,1.1Z" class="g2_14" />
<path d="M182.5,815.5L161.4,802.3l.7,-1.1l21.1,13.2l-.7,1.1Z" class="g2_14" />
<path d="M426.1,815.5L405,802.3l.7,-1.1l21.4,13.2l-1,1.1Z" class="g2_14" />
<path d="M200.5,802.3V780.2h1.3v22.1h-1.3Z" class="g2_14" />
<path d="M444.1,802.3V780.2h1.4v22.1h-1.4Z" class="g2_14" />
<path d="M229.2,768l-22.8,9.6l-.7,-1.5l23.1,-9.2l.4,1.1Z" class="g2_14" />
<path d="M472.8,768L450,777.6l-.7,-1.5l23.2,-9.2l.3,1.1Z" class="g2_14" />
<g fill="#373435" >
<use xlink:href="#f0_1e" transform="matrix(11.3,0,0,12.1,230.3,771.2)" />
<use xlink:href="#f0_18" transform="matrix(11.3,0,0,12.1,242.7,771.2)" />
<use xlink:href="#f0_m" transform="matrix(5.7,0,0,6,255.6,774.9)" />
<use xlink:href="#f0_1e" transform="matrix(11.3,0,0,12.1,474.1,771.2)" />
</g>
<g clip-path="url(#c3_14)">
<g fill="#373435" >
<use xlink:href="#f0_1e" transform="matrix(11.3,0,0,12.1,503.4,771.2)" />
<use xlink:href="#f0_13" transform="matrix(11.3,0,0,12.1,524.3,771.2)" />
<use xlink:href="#f0_28" transform="matrix(11.3,0,0,12.1,535.7,771.2)" />
</g>
</g>
<path d="M379,794.9H271.4v-1.4H379v1.4Zm-.6,-4.8l6.9,4.1l-6.9,4v-8.1Z" class="g2_14" />
<g fill="#373435" >
<use xlink:href="#f0_1e" transform="matrix(11.3,0,0,12.1,275.7,787.7)" />
<use xlink:href="#f0_1x" transform="matrix(11.3,0,0,12.1,288.2,787.7)" />
<use xlink:href="#f0_1e" transform="matrix(11.3,0,0,12.1,295.5,787.7)" />
<use xlink:href="#f0_1f" transform="matrix(11.3,0,0,12.1,308,787.7)" />
<use xlink:href="#f0_f" transform="matrix(11.3,0,0,12.1,329.6,787.7)" />
<use xlink:href="#f0_18" transform="matrix(11.3,0,0,12.1,343.5,787.7)" />
<use xlink:href="#f0_13" transform="matrix(11.3,0,0,12.1,356,787.7)" />
<use xlink:href="#f0_28" transform="matrix(11.3,0,0,12.1,367.7,787.7)" />
<use xlink:href="#f0_m" transform="matrix(5.7,0,0,6,320.5,791.4)" />
<use xlink:href="#f0_k" transform="matrix(11.3,0,0,12.1,302.5,811.9)" />
<use xlink:href="#f0_h" transform="matrix(11.3,0,0,12.1,315.7,811.9)" />
<use xlink:href="#f0_p" transform="matrix(11.3,0,0,12.1,325.6,811.9)" />
<use xlink:href="#f0_13" transform="matrix(11.3,0,0,12.1,343.2,811.9)" />
<use xlink:href="#f0_2b" transform="matrix(5.7,0,0,6,334,802.8)" />
</g>
<g clip-path="url(#c4_14)">
<g fill="#373435" >
<use xlink:href="#f0_f" transform="matrix(9,0,0,9.6,476.7,755.5)" />
</g>
</g>
<path d="M539.3,750.3h8.6v1.5h-8.6v-1.5Z" class="g2_14" />
<path d="M500.2,762.5H490.1V761h10.1v1.5Z" class="g2_14" />
<path d="M500.2,765.8H490.1v-1.5h10.1v1.5Z" class="g2_14" />
<path d="M500.2,769.1H490.1v-1.4h10.1v1.4Z" class="g2_14" />
<g fill="#000000" >
<use xlink:href="#f0_c" transform="matrix(12,0,0,12,117,845.7)" />
<use xlink:href="#f0_25" transform="matrix(12,0,0,12,122.1,845.7)" />
<use xlink:href="#f0_25" transform="matrix(12,0,0,12,125.4,845.7)" />
<use xlink:href="#f0_25" transform="matrix(12,0,0,12,129.1,845.7)" />
<use xlink:href="#f0_d" transform="matrix(12,0,0,12,132.4,845.7)" />
</g>
<path d="M193.8,904L182,897l.6,-1l11.9,6.6l-.7,1.4Zm12.2,7l-12.2,-7l.7,-1.4l12.2,7l.3,.7l-1,.7Zm.7,-1.4l.3,.3v.4l-.3,-.7Zm-1.1,14.6V910.3H207v13.9h-1.4Zm0,14v-14H207v14l-.3,.7l-1.1,-.7Zm1.4,0v.3l-.3,.4l.3,-.7Zm-13.2,6.2L206,937.5l.7,1.4l-12.2,6.9l-.7,-1.4Zm-11.8,7l11.8,-7l.7,1.4l-11.9,7H182v-1.4Zm.6,1.4H182h.6Zm-12.1,-8.4l12.1,7l-.6,1.4l-12.2,-7l.7,-1.4Zm-11.9,-6.9l11.9,6.9l-.7,1.4l-11.9,-6.9l-.3,-.7l1,-.7Zm-.7,1.4l-.3,-.4v-.3l.3,.7ZM159,924.2v14h-1.4v-14H159Zm0,-13.9v13.9h-1.4V910.3l.3,-.7l1.1,.7Zm-1.4,0v-.4l.3,-.3l-.3,.7ZM170.5,904l-11.9,7l-.7,-1.4l11.9,-7l.7,1.4Zm12.1,-7l-12.1,7l-.7,-1.4L182,896h.6v1Zm-.6,-1l.3,-.4l.3,.4H182Z" class="g2_14" />
<path d="M183.4,901.9l-21.3,12.6l-.7,-1.4l21.2,-12.6l.8,1.4Z" class="g2_14" />
<path d="M182.6,947.2L161.4,934.7l.7,-1.4l21.3,12.5l-.8,1.4Z" class="g2_14" />
<path d="M200.7,934.3V913.8h1.4v20.5h-1.4Z" class="g2_14" />
<path d="M217.8,902.6L230,896l.7,1l-11.8,7l-1.1,-1.4Zm-11.8,7l11.8,-7l1.1,1.4l-12.2,7l-1.1,-.7l.4,-.7Zm-.4,.7v-.4l.4,-.3l-.4,.7Zm0,13.9V910.3H207v13.9h-1.4Zm0,14v-14H207v14l-1,.7l-.4,-.7Zm.4,.7l-.4,-.4v-.3l.4,.7Zm11.8,6.9L206,938.9l.7,-1.4l12.2,6.9l-1.1,1.4Zm12.2,7l-12.2,-7l1.1,-1.4l11.8,7v1.4H230Zm.7,0l-.3,.4l-.4,-.4h.7Zm39.7,-27.9l-39.7,27.9l-.7,-1.4l39.7,-27.5h.7v1Zm0,-1l1,.3l-1,.7v-1ZM230.7,896l39.7,27.9l-.7,1L230,897v-1h.7Zm-.7,0l.4,-.4l.3,.4H230Z" class="g2_14" />
<path fill-rule="evenodd" d="M254.7,910.6h18.5v22.3H254.7V910.6Z" class="g3_14" />
<path d="M273.2,911.3H254.7v-1.4h18.5l.7,.7l-.7,.7Zm0,-1.4h.7v.7l-.7,-.7Zm-.7,23V910.6h1.4v22.3l-.7,.8l-.7,-.8Zm1.4,0v.8h-.7l.7,-.8Zm-19.2,-1h18.5v1.8H254.7l-.7,-.8l.7,-1Zm0,1.8H254v-.8l.7,.8Zm.7,-23.1v22.3H254V910.6l.7,-.7l.7,.7Zm-1.4,0v-.7h.7l-.7,.7Z" class="g3_14" />
<path fill-rule="evenodd" d="M224.4,892.2h13.3v13.9H224.4V892.2Z" class="g3_14" />
<path d="M237.7,892.9H224.4v-1.4h13.3l.7,.7l-.7,.7Zm0,-1.4h.7v.7l-.7,-.7Zm-.7,14.6V892.2h1.4v13.9l-.7,.7l-.7,-.7Zm1.4,0v.7h-.7l.7,-.7Zm-14,-.7h13.3v1.4H224.4l-.7,-.7l.7,-.7Zm0,1.4h-.7v-.7l.7,.7Zm.7,-14.6v13.9h-1.4V892.2l.7,-.7l.7,.7Zm-1.4,0v-.7h.7l-.7,.7Z" class="g3_14" />
<path fill-rule="evenodd" d="M224.4,943.4h13.3v14H224.4v-14Z" class="g3_14" />
<path d="M237.7,944.1H224.4v-1.4h13.3l.7,.7l-.7,.7Zm0,-1.4h.7v.7l-.7,-.7Zm-.7,14.7v-14h1.4v14l-.7,.7l-.7,-.7Zm1.4,0v.7h-.7l.7,-.7Zm-14,-.7h13.3v1.4H224.4l-.7,-.7l.7,-.7Zm0,1.4h-.7v-.7l.7,.7Zm.7,-14.7v14h-1.4v-14l.7,-.7l.7,.7Zm-1.4,0v-.7h.7l-.7,.7Z" class="g3_14" />
<g fill="#373435" >
<use xlink:href="#f0_1e" transform="matrix(11.4,0,0,11.4,249.7,928.5)" />
<use xlink:href="#f0_4y" transform="matrix(11.4,0,0,11.4,266.9,928.5)" />
<use xlink:href="#f0_18" transform="matrix(11.4,0,0,11.4,279.8,928.5)" />
<use xlink:href="#f0_1b" transform="matrix(11.4,0,0,11.4,319,916.8)" />
<use xlink:href="#f0_1f" transform="matrix(11.4,0,0,11.4,331.5,916.8)" />
<use xlink:href="#f0_18" transform="matrix(11.4,0,0,11.4,343.9,916.8)" />
<use xlink:href="#f0_h" transform="matrix(11.4,0,0,11.4,319,939.9)" />
<use xlink:href="#f0_18" transform="matrix(11.4,0,0,11.4,324.9,939.9)" />
<use xlink:href="#f0_1f" transform="matrix(11.4,0,0,11.4,341.3,939.9)" />
<use xlink:href="#f0_m" transform="matrix(5.7,0,0,5.7,337.3,943.6)" />
<use xlink:href="#f0_13" transform="matrix(11.4,0,0,11.4,225.5,906.2)" />
<use xlink:href="#f0_13" transform="matrix(11.4,0,0,11.4,225.5,957.5)" />
</g>
<g clip-path="url(#c5_14)">
<g fill="#373435" >
<use xlink:href="#f0_1f" transform="matrix(11.4,0,0,11.4,225.5,875.7)" />
</g>
</g>
<path d="M228.6,892.2V877.9H230v14.3h-1.4Z" class="g2_14" />
<path d="M232.8,892.2V877.9h1.4v14.3h-1.4Z" class="g2_14" />
<path d="M228.6,975.8V961.5H230v14.3h-1.4Z" class="g2_14" />
<path d="M232.8,975.8V961.5h1.4v14.3h-1.4Z" class="g2_14" />
<g fill="#373435" >
<use xlink:href="#f0_1f" transform="matrix(11.4,0,0,11.4,225.5,990.9)" />
</g>
<path d="M370,922.2H304.5v-1.8H370v1.8Zm-.3,-4.6l6.6,3.8l-6.6,3.9v-7.7Z" class="g2_14" />
<path d="M430.6,904l-11.8,-7l.7,-1l12.2,6.6l-1.1,1.4Zm12.2,7l-12.2,-7l1.1,-1.4l11.8,7l.3,.7l-1,.7Zm.7,-1.4l.3,.3v.4l-.3,-.7Zm-1,14.6V910.3h1.3v13.9h-1.3Zm0,14v-14h1.3v14l-.3,.7l-1,-.7Zm1.3,0v.3l-.3,.4l.3,-.7Zm-13.2,6.2l12.2,-6.9l.7,1.4l-11.8,6.9l-1.1,-1.4Zm-11.8,7l11.8,-7l1.1,1.4l-12.2,7h-.7v-1.4Zm.7,1.4h-.7h.7Zm-12.2,-8.4l12.2,7l-.7,1.4l-12.2,-7l.7,-1.4Zm-11.9,-6.9l11.9,6.9l-.7,1.4l-11.9,-6.9l-.3,-.7l1,-.7Zm-.7,1.4l-.3,-.4v-.3l.3,.7Zm1.1,-14.7v14h-1.4v-14h1.4Zm0,-13.9v13.9h-1.4V910.3l.3,-.7l1.1,.7Zm-1.4,0v-.4l.3,-.3l-.3,.7ZM407.3,904l-11.9,7l-.7,-1.4l11.9,-7l.7,1.4Zm12.2,-7l-12.2,7l-.7,-1.4L418.8,896h.7v1Zm-.7,-1l.3,-.4l.4,.4h-.7Z" class="g2_14" />
<path d="M420.5,901.9l-21.6,12.6l-.7,-1.4l21.3,-12.6l1,1.4Z" class="g2_14" />
<path d="M419.5,947.2L398.2,934.7l.7,-1.4l21.6,12.5l-1,1.4Z" class="g2_14" />
<path d="M437.6,934.3V913.8H439v20.5h-1.4Z" class="g2_14" />
<path d="M455,902.6L466.8,896l.7,1l-11.8,7l-.7,-1.4Zm-12.2,7l12.2,-7l.7,1.4l-12.2,7l-1,-.7l.3,-.7Zm-.3,.7v-.4l.3,-.3l-.3,.7Zm0,13.9V910.3h1.3v13.9h-1.3Zm0,14v-14h1.3v14l-1,.7l-.3,-.7Zm.3,.7l-.3,-.4v-.3l.3,.7Zm12.2,6.9l-12.2,-6.9l.7,-1.4l12.2,6.9l-.7,1.4Zm11.8,7l-11.8,-7l.7,-1.4l11.8,7v1.4h-.7Zm.7,0l-.3,.4l-.4,-.4h.7Zm40.1,-27.9l-40.1,27.9l-.7,-1.4l39.7,-27.5h1.1v1Zm0,-1l.7,.3l-.7,.7v-1ZM467.5,896l40.1,27.9l-1.1,1L466.8,897v-1h.7Zm-.7,0l.4,-.4l.3,.4h-.7Z" class="g2_14" />
<path fill-rule="evenodd" d="M491.5,910.6H510v22.3H491.5V910.6Z" class="g3_14" />
<path d="M510,911.3H491.5v-1.4H510l.7,.7l-.7,.7Zm0,-1.4h.7v.7l-.7,-.7Zm-.7,23V910.6h1.4v22.3l-.7,.8l-.7,-.8Zm1.4,0v.8H510l.7,-.8Zm-19.2,-1H510v1.8H491.5l-.6,-.8l.6,-1Zm0,1.8h-.6v-.8l.6,.8Zm.8,-23.1v22.3h-1.4V910.6l.6,-.7l.8,.7Zm-1.4,0v-.7h.6l-.6,.7Z" class="g3_14" />
<path fill-rule="evenodd" d="M461.2,892.2h13.3v13.9H461.2V892.2Z" class="g3_14" />
<path d="M474.5,892.9H461.2v-1.4h13.3l.7,.7l-.7,.7Zm0,-1.4h.7v.7l-.7,-.7Zm-.7,14.6V892.2h1.4v13.9l-.7,.7l-.7,-.7Zm1.4,0v.7h-.7l.7,-.7Zm-14,-.7h13.3v1.4H461.2l-.6,-.7l.6,-.7Zm0,1.4h-.6v-.7l.6,.7Zm.8,-14.6v13.9h-1.4V892.2l.6,-.7l.8,.7Zm-1.4,0v-.7h.6l-.6,.7Z" class="g3_14" />
<path fill-rule="evenodd" d="M461.2,943.4h13.3v14H461.2v-14Z" class="g3_14" />
<path d="M474.5,944.1H461.2v-1.4h13.3l.7,.7l-.7,.7Zm0,-1.4h.7v.7l-.7,-.7Zm-.7,14.7v-14h1.4v14l-.7,.7l-.7,-.7Zm1.4,0v.7h-.7l.7,-.7Zm-14,-.7h13.3v1.4H461.2l-.6,-.7l.6,-.7Zm0,1.4h-.6v-.7l.6,.7Zm.8,-14.7v14h-1.4v-14l.6,-.7l.8,.7Zm-1.4,0v-.7h.6l-.6,.7Z" class="g3_14" />
<g fill="#373435" >
<use xlink:href="#f0_1e" transform="matrix(11.4,0,0,11.4,492.8,928.5)" />
<use xlink:href="#f0_1b" transform="matrix(11.4,0,0,11.4,514.1,928.5)" />
<use xlink:href="#f0_13" transform="matrix(11.4,0,0,11.4,462.4,906.2)" />
<use xlink:href="#f0_13" transform="matrix(11.4,0,0,11.4,462.4,957.5)" />
</g>
<g clip-path="url(#c6_14)">
<g fill="#373435" >
<use xlink:href="#f0_1f" transform="matrix(11.4,0,0,11.4,462.4,875.7)" />
</g>
</g>
<path d="M465.4,892.2V877.9h1.4v14.3h-1.4Z" class="g2_14" />
<path d="M469.6,892.2V877.9H471v14.3h-1.4Z" class="g2_14" />
<path d="M465.4,975.8V961.5h1.4v14.3h-1.4Z" class="g2_14" />
<path d="M469.6,975.8V961.5H471v14.3h-1.4Z" class="g2_14" />
<g clip-path="url(#c7_14)">
<g fill="#373435" >
<use xlink:href="#f0_1f" transform="matrix(11.4,0,0,11.4,462.4,990.9)" />
</g>
</g>
<path d="M505.1,911h7.3v1.4h-7.3V911Z" class="g2_14" />
<path d="M523.9,916.6v-3.9h-3.1V912h3.1v-3.5h.4V912h3.1v.7h-3.1v3.9h-.4Z" class="g2_14" />
<path d="M509,908.2l1.4,.3l1,.7l.7,1.1l.3,1.4l-.3,1.4l-.7,1l-1,.7l-1.4,.4l-1.4,-.4l-1.1,-.7l-1,-1v-2.8l1,-1.1l1.1,-.7l1.4,-.3Zm15.3,.7l1.4,.3l1,.7l.7,1.1l.4,1.4l-.4,1.4l-.7,1l-1,.7l-1.4,.4l-1.4,-.4l-1.4,-.7l-.7,-1l-.3,-1.4l.3,-1.4l.7,-1.1l1.4,-.7l1.4,-.3Z" class="g4_14" />
<g clip-path="url(#c8_14)">
<g fill="#373435" >
<use xlink:href="#f0_1i" transform="matrix(11.4,0,0,11.4,557.7,916.8)" />
<use xlink:href="#f0_4y" transform="matrix(11.4,0,0,11.4,573.8,916.8)" />
<use xlink:href="#f0_1o" transform="matrix(11.4,0,0,11.4,586.7,916.8)" />
</g>
</g>
<g clip-path="url(#c9_14)">
<g fill="#373435" >
<use xlink:href="#f0_18" transform="matrix(11.4,0,0,11.4,692.6,1035.2)" />
<use xlink:href="#f0_j" transform="matrix(11.4,0,0,11.4,714.2,1035.2)" />
<use xlink:href="#f0_18" transform="matrix(11.4,0,0,11.4,719.4,1035.2)" />
<use xlink:href="#f0_1f" transform="matrix(11.4,0,0,11.4,735.9,1035.2)" />
</g>
</g>
<g fill="#373435" >
<use xlink:href="#f0_f" transform="matrix(5.7,0,0,5.7,705.1,1026.4)" />
<use xlink:href="#f0_m" transform="matrix(5.7,0,0,5.7,731.5,1038.5)" />
</g>
<path d="M608.9,922.2H543.4v-1.8h65.5v1.8Zm-.7,-4.6l7,3.8l-7,3.9v-7.7Z" class="g2_14" />
<path d="M684.5,1067.9v-65.6h1.4v65.6h-1.4Zm4.5,-.4l-3.8,7l-3.9,-7H689Z" class="g2_14" />
<path d="M673.7,904l-12.2,-7l.7,-1l12.2,6.6l-.7,1.4Zm11.8,7l-11.8,-7l.7,-1.4l12.2,7l.3,.7l-1.4,.7Zm1.1,-1.4l.3,.3v.4l-.3,-.7Zm-1.4,14.6V910.3h1.7v13.9h-1.7Zm0,14v-14h1.7v14l-.3,.7l-1.4,-.7Zm1.7,0v.3l-.3,.4l.3,-.7Zm-13.2,6.2l11.8,-6.9l1.1,1.4l-12.2,6.9l-.7,-1.4Zm-12.2,7l12.2,-7l.7,1.4l-12.2,7h-.7v-1.4Zm.7,1.4h-.7h.7Zm-11.8,-8.4l11.8,7l-.7,1.4l-11.9,-7l.8,-1.4Zm-12.2,-6.9l12.2,6.9l-.8,1.4l-12.1,-6.9l-.4,-.7l1.1,-.7Zm-.7,1.4l-.4,-.4v-.3l.4,.7Zm1,-14.7v14h-1.4v-14h1.4Zm0,-13.9v13.9h-1.4V910.3l.4,-.7l1,.7Zm-1.4,0v-.4l.4,-.3l-.4,.7ZM650.4,904l-12.2,7l-.7,-1.4l12.1,-7l.8,1.4Zm11.8,-7l-11.8,7l-.8,-1.4L661.5,896h.7v1Zm-.7,-1l.3,-.4l.4,.4h-.7Z" class="g2_14" />
<path d="M663.2,901.9L642,914.5l-.7,-1.4l21.2,-12.6l.7,1.4Z" class="g2_14" />
<path d="M662.5,947.2L641.3,934.7l.7,-1.4l21.2,12.5l-.7,1.4Z" class="g2_14" />
<path d="M680.3,934.3V913.8H682v20.5h-1.7Z" class="g2_14" />
<path d="M697.7,902.6L709.9,896l.7,1l-12.2,7l-.7,-1.4Zm-12.2,7l12.2,-7l.7,1.4l-11.8,7l-1.4,-.7l.3,-.7Zm-.3,.7v-.4l.3,-.3l-.3,.7Zm0,13.9V910.3h1.7v13.9h-1.7Zm0,14v-14h1.7v14l-1.4,.7l-.3,-.7Zm.3,.7l-.3,-.4v-.3l.3,.7Zm12.2,6.9l-12.2,-6.9l1.1,-1.4l11.8,6.9l-.7,1.4Zm12.2,7l-12.2,-7l.7,-1.4l12.2,7v1.4h-.7Zm.7,0l-.3,.4l-.4,-.4h.7Zm39.7,-27.9l-39.7,27.9l-1.1,-1.4l40.1,-27.5h.7v1Zm0,-1l1,.3l-1,.7v-1ZM710.6,896l39.7,27.9l-.7,1L709.5,897l.4,-1h.7Zm-.7,0l.4,-.4l.3,.4h-.7Z" class="g2_14" />
<path fill-rule="evenodd" d="M734.3,910.6h18.4v22.3H734.3V910.6Z" class="g3_14" />
<path d="M752.7,911.3H734.3v-1.4h18.4l.7,.7l-.7,.7Zm0,-1.4h.7v.7l-.7,-.7Zm-.7,23V910.6h1.4v22.3l-.7,.8l-.7,-.8Zm1.4,0v.8h-.7l.7,-.8Zm-19.1,-1h18.4v1.8H734.3l-.7,-.8l.7,-1Zm0,1.8h-.7v-.8l.7,.8Zm1,-23.1v22.3h-1.7V910.6l.7,-.7l1,.7Zm-1.7,0v-.7h.7l-.7,.7Z" class="g3_14" />
<path fill-rule="evenodd" d="M704,892.2h13.6v13.9H704V892.2Z" class="g3_14" />
<path d="M717.6,892.9H704v-1.4h13.6l.7,.7l-.7,.7Zm0,-1.4h.7v.7l-.7,-.7Zm-.7,14.6V892.2h1.4v13.9l-.7,.7l-.7,-.7Zm1.4,0v.7h-.7l.7,-.7ZM704,905.4h13.6v1.4H704l-.7,-.7l.7,-.7Zm0,1.4h-.7v-.7l.7,.7Zm.7,-14.6v13.9h-1.4V892.2l.7,-.7l.7,.7Zm-1.4,0v-.7h.7l-.7,.7Z" class="g3_14" />
<path fill-rule="evenodd" d="M704,943.4h13.6v14H704v-14Z" class="g3_14" />
<path d="M717.6,944.1H704v-1.4h13.6l.7,.7l-.7,.7Zm0,-1.4h.7v.7l-.7,-.7Zm-.7,14.7v-14h1.4v14l-.7,.7l-.7,-.7Zm1.4,0v.7h-.7l.7,-.7ZM704,956.7h13.6v1.4H704l-.7,-.7l.7,-.7Zm0,1.4h-.7v-.7l.7,.7Zm.7,-14.7v14h-1.4v-14l.7,-.7l.7,.7Zm-1.4,0v-.7h.7l-.7,.7Z" class="g3_14" />
<g clip-path="url(#c10_14)">
<g fill="#373435" >
<use xlink:href="#f0_1e" transform="matrix(11.4,0,0,11.4,729.7,928.5)" />
<use xlink:href="#f0_4y" transform="matrix(11.4,0,0,11.4,746.9,928.5)" />
<use xlink:href="#f0_1i" transform="matrix(11.4,0,0,11.4,759.7,928.5)" />
</g>
</g>
<g fill="#373435" >
<use xlink:href="#f0_13" transform="matrix(11.4,0,0,11.4,705.1,906.2)" />
<use xlink:href="#f0_13" transform="matrix(11.4,0,0,11.4,705.1,957.5)" />
</g>
<g clip-path="url(#c11_14)">
<g fill="#373435" >
<use xlink:href="#f0_1f" transform="matrix(11.4,0,0,11.4,705.1,875.7)" />
</g>
</g>
<path d="M708.1,892.2V877.9h1.4v14.3h-1.4Z" class="g2_14" />
<path d="M712.3,892.2V877.9h1.4v14.3h-1.4Z" class="g2_14" />
<path d="M708.1,975.8V961.5h1.4v14.3h-1.4Z" class="g2_14" />
<path d="M712.3,975.8V961.5h1.4v14.3h-1.4Z" class="g2_14" />
<g clip-path="url(#c12_14)">
<g fill="#373435" >
<use xlink:href="#f0_1f" transform="matrix(11.4,0,0,11.4,705.1,990.9)" />
</g>
</g>
<path d="M687.6,1109l-11.8,-7l.7,-1l11.8,7l-.7,1Zm12.2,7l-12.2,-7l.7,-1l12.2,6.9l.3,.4l-1,.7Zm.7,-1.1h.3v.4l-.3,-.4Zm-1,14.3v-13.9h1.3v13.9h-1.3Zm0,14v-14h1.3v14l-.3,.7l-1,-.7Zm1.3,0v.3l-.3,.4l.3,-.7Zm-13.2,6.3l12.2,-7l.7,1.4l-12.2,7l-.7,-1.4Zm-11.8,6.9l11.8,-6.9l.7,1.4l-11.8,6.9h-.7v-1.4Zm.7,1.4l-.4,.4l-.3,-.4h.7Zm-12.2,-8.3l12.2,6.9l-.7,1.4l-12.2,-6.9l.7,-1.4Zm-11.9,-7l11.9,7l-.7,1.4l-11.8,-7l-.4,-.7l1,-.7Zm-.6,1.4l-.4,-.4v-.3l.4,.7Zm1,-14.7v14h-1.4v-14h1.4Zm0,-13.9v13.9h-1.4v-13.9l.4,-.4l1,.4Zm-1.4,0v-.4h.4l-.4,.4Zm12.9,-6.3l-11.9,7l-.6,-1.1l11.8,-6.9l.7,1Zm12.2,-7l-12.2,7l-.7,-1l12.2,-7h.7v1Zm-.7,-1l.3,-.4l.4,.4h-.7Z" class="g2_14" />
<path d="M677.5,1106.9l-21.6,12.6l-.7,-1.4l21.3,-12.6l1,1.4Z" class="g2_14" />
<path d="M676.5,1152.3l-21.3,-12.6l.7,-1.4l21.6,12.6l-1,1.4Z" class="g2_14" />
<path d="M694.6,1139.7v-20.9H696v20.9h-1.4Z" class="g2_14" />
<path d="M720.3,1106.2l-19.8,9.8l-.7,-1.1l19.9,-9.7l.6,1Z" class="g2_14" />
<g clip-path="url(#c13_14)">
<g fill="#373435" >
<use xlink:href="#f0_13" transform="matrix(11.4,0,0,11.4,722,1108.6)" />
<use xlink:href="#f0_1f" transform="matrix(11.4,0,0,11.4,733.7,1108.6)" />
<use xlink:href="#f0_1f" transform="matrix(11.4,0,0,11.4,746.2,1108.6)" />
<use xlink:href="#f0_18" transform="matrix(11.4,0,0,11.4,759,1108.6)" />
</g>
</g>
<path d="M719.7,1153.7l-19.9,-9.5l.7,-1.4l19.8,9.8l-.6,1.1Z" class="g2_14" />
<g clip-path="url(#c14_14)">
<g fill="#373435" >
<use xlink:href="#f0_13" transform="matrix(11.4,0,0,11.4,722,1158.8)" />
<use xlink:href="#f0_1f" transform="matrix(11.4,0,0,11.4,733.7,1158.8)" />
<use xlink:href="#f0_1f" transform="matrix(11.4,0,0,11.4,746.2,1158.8)" />
<use xlink:href="#f0_18" transform="matrix(11.4,0,0,11.4,759,1158.8)" />
</g>
</g>
<g fill="#373435" >
<use xlink:href="#f0_f" transform="matrix(22.7,0,0,22.8,617.8,1139)" />
</g>
<g clip-path="url(#c15_14)">
<g fill="#373435" >
<use xlink:href="#f0_1i" transform="matrix(14.2,0,0,14.4,533.9,1132)" />
<use xlink:href="#f0_4y" transform="matrix(14.2,0,0,14.4,553.7,1132)" />
<use xlink:href="#f0_1e" transform="matrix(14.2,0,0,14.4,569.8,1132)" />
<use xlink:href="#f0_18" transform="matrix(14.2,0,0,14.4,585.9,1132)" />
</g>
</g>
<g fill="#373435" >
<use xlink:href="#f0_m" transform="matrix(6.8,0,0,7.1,601.7,1136.4)" />
</g>
<g fill="#000000" >
<use xlink:href="#f2_l" transform="matrix(8,0,0,8,785.4,1264.3)" />
<use xlink:href="#f2_o" transform="matrix(8,0,0,8,792.2,1264.3)" />
</g>
<defs>
<path d="M474,-326c0,0,-112,57,-188,133c0,0,-107,108,-165,254c0,0,-58,147,-58,305c0,0,0,231,114,421c0,0,114,191,297,273v-31c0,0,-92,-51,-151,-139c0,0,-59,-88,-88,-223c0,0,-30,-135,-30,-281c0,0,0,-160,25,-290c0,0,20,-102,47,-164c0,0,28,-62,75,-120c0,0,47,-57,122,-109v-29Z" 
id="f0_c"
transform="scale(0.001,-0.001)" />

<path d="M397,34c0,0,67,0,126,75c0,0,58,74,58,216c0,0,0,131,-58,201c0,0,-59,70,-133,70c0,0,-39,0,-79,-20c0,0,-29,-14,-75,-59V109c0,0,37,-37,78,-56c0,0,40,-19,83,-19ZM358,-20c0,0,-59,0,-121,21c0,0,-61,22,-126,65V773c0,0,0,117,-5,144c0,0,-6,27,-18,37c0,0,-12,9,-29,9c0,0,-21,0,-53,-12l-9,27l205,83h34V564c0,0,98,139,213,139c0,0,105,0,183,-90c0,0,78,-90,78,-245c0,0,0,-182,-121,-293c0,0,-103,-95,-231,-95Z" 
id="f0_1y"
transform="scale(0.001,-0.001)" />

<path d="M35,-326v29c0,0,92,51,151,139c0,0,60,87,89,221c0,0,28,136,28,282c0,0,0,159,-24,290c0,0,-19,103,-47,165c0,0,-28,62,-75,119c0,0,-46,57,-122,110v31c0,0,113,-56,188,-132c0,0,107,-109,165,-255c0,0,58,-147,58,-306c0,0,0,-231,-114,-420c0,0,-113,-191,-297,-273Z" 
id="f0_d"
transform="scale(0.001,-0.001)" />

<path d="M473,53c0,0,173,0,287,121c0,0,114,122,114,330c0,0,0,210,-114,330c0,0,-114,121,-293,121c0,0,-67,0,-153,-21V74c0,0,95,-21,159,-21ZM26,0V27H64c0,0,64,0,91,41c0,0,16,25,16,111V833c0,0,0,95,-21,119c0,0,-29,33,-86,33H26v27H438c0,0,226,0,345,-51c0,0,118,-52,190,-172c0,0,72,-120,72,-278c0,0,0,-211,-129,-353C916,158,773,0,478,0Z" 
id="f0_14"
transform="scale(0.001,-0.001)" />

<path d="M479,469c0,0,-4,66,-16,93c0,0,-18,42,-55,65c0,0,-37,24,-78,24c0,0,-62,0,-111,-48c0,0,-48,-48,-57,-134ZM355,-20c0,0,-123,0,-211,95c0,0,-87,96,-87,258c0,0,0,175,90,273c0,0,89,98,225,98c0,0,115,0,189,-76c0,0,74,-75,74,-202H162c0,0,0,-152,74,-239c0,0,75,-86,175,-86c0,0,67,0,117,36c0,0,50,37,83,127l24,-15c0,0,-16,-102,-91,-186c0,0,-76,-83,-189,-83Z" 
id="f0_21"
transform="scale(0.001,-0.001)" />

<path d="M63,0V26H93c0,0,30,0,54,15c0,0,25,15,34,41c0,0,10,25,10,99V630H58v53H191v45c0,0,0,102,33,173c0,0,32,71,100,114c0,0,68,44,152,44c0,0,79,0,145,-51c0,0,43,-33,43,-75c0,0,0,-22,-19,-42c0,0,-20,-20,-42,-20c0,0,-17,0,-36,12c0,0,-19,13,-47,53c0,0,-28,41,-51,55c0,0,-23,14,-51,14c0,0,-35,0,-58,-18c0,0,-24,-18,-35,-57c0,0,-10,-38,-10,-197V683H491V630H315V181c0,0,0,-96,21,-122c0,0,27,-33,73,-33h62V0Z" 
id="f0_22"
transform="scale(0.001,-0.001)" />

<path d="M55,0V26c0,0,50,0,67,10c0,0,17,10,27,32c0,0,10,23,10,86V418c0,0,0,111,-6,144c0,0,-6,24,-17,33c0,0,-11,10,-30,10c0,0,-21,0,-51,-11L45,620l206,83h33V154c0,0,0,-64,9,-85c0,0,9,-22,27,-32c0,0,19,-11,67,-11V0ZM222,909c0,0,-32,0,-54,23c0,0,-22,22,-22,53c0,0,0,32,22,54c0,0,22,22,54,22c0,0,31,0,53,-22c0,0,22,-22,22,-54c0,0,0,-31,-22,-53c0,0,-22,-23,-53,-23Z" 
id="f0_25"
transform="scale(0.001,-0.001)" />

<path d="M21,0V26H35c0,0,53,0,71,27c0,0,18,27,18,101V408c0,0,0,123,-5,150c0,0,-6,27,-17,37c0,0,-12,10,-31,10c0,0,-21,0,-50,-11L10,620l206,83h32V558c0,0,120,145,229,145c0,0,56,0,96,-28c0,0,40,-28,64,-92c0,0,16,-45,16,-137V154c0,0,0,-65,11,-88c0,0,8,-19,26,-29c0,0,18,-11,68,-11V0H419V26h14c0,0,47,0,66,15c0,0,20,15,27,43c0,0,3,11,3,70V434c0,0,0,93,-24,135c0,0,-24,42,-81,42c0,0,-88,0,-176,-97V154c0,0,0,-69,9,-86c0,0,10,-21,28,-31c0,0,19,-11,75,-11V0Z" 
id="f0_2a"
transform="scale(0.001,-0.001)" />

<path d="M292,-20c0,0,-57,0,-100,33c0,0,-42,33,-58,85c0,0,-17,52,-17,148V551c0,0,0,49,-10,68c0,0,-11,18,-31,29c0,0,-19,9,-68,9c-2,0,-4,0,-6,0v26H242V226c0,0,0,-95,33,-125c0,0,33,-30,80,-30c0,0,32,0,73,21c0,0,40,20,96,76V555c0,0,0,59,-21,80c0,0,-22,21,-89,22v26H647V269c0,0,0,-119,6,-145c0,0,6,-27,18,-37c0,0,12,-11,29,-11c0,0,23,0,52,13L763,63L558,-20H524V124C524,124,436,29,390,4c0,0,-47,-24,-98,-24Z" 
id="f0_2h"
transform="scale(0.001,-0.001)" />

<path d="M58,0V26c0,0,47,0,64,10c0,0,18,10,28,32c0,0,9,23,9,86V775c0,0,0,116,-5,142c0,0,-5,27,-17,37c0,0,-11,9,-29,9c0,0,-20,0,-49,-12L46,978l204,83h34V154c0,0,0,-64,9,-85c0,0,9,-21,29,-32c0,0,19,-11,72,-11V0Z" 
id="f0_28"
transform="scale(0.001,-0.001)" />

<path d="M342,-20c0,0,-116,0,-203,97c0,0,-86,98,-86,264c0,0,0,161,96,261c0,0,95,101,230,101c0,0,100,0,165,-53c0,0,65,-54,65,-111c0,0,0,-29,-18,-46c0,0,-18,-18,-51,-18c0,0,-44,0,-66,29c0,0,-13,15,-17,59c0,0,-4,45,-30,68c0,0,-26,22,-73,22c0,0,-74,0,-120,-55c0,0,-60,-73,-60,-193c0,0,0,-122,60,-216c0,0,60,-93,162,-93c0,0,73,0,131,49c0,0,41,35,80,126l22,-10C629,261,601,125,521,52c0,0,-81,-72,-179,-72Z" 
id="f0_1z"
transform="scale(0.001,-0.001)" />

<path d="M286,72c0,0,57,0,149,75V407c0,0,-113,-45,-145,-64c0,0,-59,-32,-85,-68c0,0,-25,-36,-25,-78c0,0,0,-54,32,-89c0,0,32,-36,74,-36ZM217,-13c0,0,-71,0,-116,48c0,0,-46,48,-46,127c0,0,0,50,22,87c0,0,31,50,106,95c0,0,76,45,252,109v26c0,0,0,102,-32,140c0,0,-32,38,-94,38c0,0,-47,0,-74,-25c0,0,-28,-25,-28,-58l1,-43c0,0,0,-34,-17,-53c0,0,-18,-18,-47,-18c0,0,-28,0,-45,19c0,0,-18,19,-18,53c0,0,0,64,66,117c0,0,65,54,184,54c0,0,91,0,149,-31c0,0,44,-23,65,-72c0,0,13,-32,13,-131V238c0,0,0,-98,4,-120c0,0,4,-22,12,-29c0,0,9,-8,20,-8c0,0,12,0,21,5c0,0,16,10,61,55V99C676,99,592,-12,516,-12c0,0,-37,0,-58,24c0,0,-22,26,-23,86C435,98,330,17,303,5c0,0,-40,-18,-86,-18Z" 
id="f0_1x"
transform="scale(0.001,-0.001)" />

<path d="M399,62c0,0,68,0,131,68V481c0,0,-5,51,-27,93c0,0,-22,42,-59,63c0,0,-37,21,-72,21c0,0,-65,0,-117,-59c0,0,-67,-77,-67,-226c0,0,0,-151,65,-231c0,0,66,-80,146,-80ZM330,-20c0,0,-112,0,-196,93c0,0,-83,94,-83,240c0,0,0,147,92,269c0,0,93,122,238,122c0,0,90,0,149,-58V773c0,0,0,117,-6,144c0,0,-5,27,-17,37c0,0,-12,9,-30,9c0,0,-20,0,-52,-12l-9,27l204,83h33V270c0,0,0,-120,6,-146c0,0,5,-27,18,-37c0,0,12,-11,28,-11c0,0,21,0,54,13l9,-26L564,-20H530V78C530,78,480,25,432,2c0,0,-47,-22,-102,-22Z" 
id="f0_20"
transform="scale(0.001,-0.001)" />

<path d="M336,-20L117,554c0,0,-21,55,-42,74c0,0,-21,19,-66,29v26H296V657c0,0,-40,-3,-52,-14c0,0,-13,-12,-13,-33c0,0,0,-23,13,-56L390,162L537,481L498,581c0,0,-18,46,-47,63c0,0,-17,11,-61,13v26H716V657c0,0,-54,-2,-77,-20c0,0,-15,-12,-15,-39c0,0,0,-15,6,-30L785,177L929,554c0,0,15,40,15,65c0,0,0,14,-15,25c0,0,-14,12,-57,13v26h216V657c0,0,-65,-10,-95,-89L764,-20H733L563,415L363,-20Z" 
id="f0_2j"
transform="scale(0.001,-0.001)" />

<path d="M17,0V26c0,0,52,0,77,17c0,0,19,12,26,38c0,0,4,13,4,73V419c0,0,0,119,-5,142c0,0,-4,23,-17,33c0,0,-13,11,-33,11c0,0,-23,0,-52,-11l-7,26l207,83h31V549c0,0,86,154,176,154c0,0,41,0,68,-25c0,0,27,-25,27,-58c0,0,0,-29,-20,-49c0,0,-19,-20,-46,-20c0,0,-26,0,-58,25c0,0,-33,26,-48,26c0,0,-14,0,-29,-15c0,0,-34,-30,-70,-101V159c0,0,0,-56,15,-85c0,0,9,-20,34,-34c0,0,24,-14,71,-14V0Z" 
id="f0_2e"
transform="scale(0.001,-0.001)" />

<path d="M255,-10c0,0,-35,0,-68,18c0,0,-32,19,-48,55c0,0,-16,35,-16,109V632H15v24c0,0,41,16,84,56c0,0,43,39,77,92c0,0,17,29,48,104h23V683H407V632H247V188c0,0,0,-66,19,-90c0,0,19,-23,49,-23c0,0,24,0,47,16c0,0,23,15,36,45h29c0,0,-26,-73,-74,-110c0,0,-47,-36,-98,-36Z" 
id="f0_2g"
transform="scale(0.001,-0.001)" />

<path d="M312,-20c0,0,-62,0,-143,22c0,0,-25,8,-40,8c0,0,-18,0,-27,-19H77V234h25c0,0,21,-105,80,-158c0,0,59,-53,132,-53c0,0,51,0,84,31c0,0,32,30,32,72c0,0,0,52,-36,87c0,0,-36,35,-144,88c0,0,-109,54,-142,97c0,0,-34,43,-34,107c0,0,0,85,58,141c0,0,58,57,150,57c0,0,40,0,97,-17c0,0,38,-11,51,-11c0,0,12,0,19,5c0,0,7,5,15,23h25V470H464c0,0,-28,110,-72,149c0,0,-45,40,-113,40c0,0,-53,0,-85,-28c0,0,-32,-27,-32,-61c0,0,0,-41,24,-71c0,0,23,-31,94,-65L389,381c0,0,152,-74,152,-194c0,0,0,-94,-71,-151c0,0,-70,-56,-158,-56Z" 
id="f0_2f"
transform="scale(0.001,-0.001)" />

<path d="M406,32c0,0,72,0,119,60c0,0,47,59,47,205c0,0,0,181,-78,286c0,0,-53,71,-135,71c0,0,-40,0,-79,-23c0,0,-40,-24,-65,-83c0,0,-24,-58,-24,-151c0,0,0,-149,59,-257c0,0,59,-108,156,-108ZM374,-20c0,0,-154,0,-245,122c0,0,-77,104,-77,233c0,0,0,94,46,187c0,0,47,92,123,137c0,0,76,44,161,44c0,0,155,0,249,-118c0,0,80,-100,80,-231c0,0,0,-91,-44,-185C667,169,623,75,546,27c0,0,-77,-47,-172,-47Z" 
id="f0_2b"
transform="scale(0.001,-0.001)" />

<path d="M376,-20L133,556c0,0,-17,41,-31,58c0,0,-15,18,-39,30c0,0,-12,7,-50,13v26H335V657H314c0,0,-29,0,-44,-14c0,0,-16,-14,-15,-38c0,0,-1,-26,15,-62L429,165L588,557c0,0,17,42,17,64c0,0,0,10,-6,17c0,0,-8,11,-21,15c0,0,-13,4,-52,4v26H750V657c0,0,-39,-3,-54,-16c0,0,-26,-23,-47,-76L409,-20Z" 
id="f0_2i"
transform="scale(0.001,-0.001)" />

<path d="M411,-239c0,0,134,0,198,48c0,0,64,47,64,100c0,0,0,39,-38,55c0,0,-39,16,-154,19c0,0,-167,5,-258,17c0,0,-35,-37,-53,-70c0,0,-17,-32,-17,-60c0,0,0,-36,43,-62c0,0,74,-47,215,-47ZM380,257c0,0,56,0,93,43c0,0,36,42,36,133c0,0,0,118,-51,185c0,0,-38,49,-98,49c0,0,-55,0,-92,-44c0,0,-37,-44,-37,-135c0,0,0,-117,50,-182c0,0,39,-49,99,-49ZM345,-328c0,0,-144,0,-243,64c0,0,-56,38,-56,78c0,0,0,18,8,36c0,0,13,27,52,76c0,0,5,7,76,80c0,0,-39,23,-55,41c0,0,-16,19,-16,42c0,0,0,26,22,61c0,0,21,35,98,100c0,0,-63,30,-97,85c0,0,-33,55,-33,121c0,0,0,101,76,174c0,0,77,73,196,73c0,0,98,0,170,-48H688c0,0,32,0,37,-2c0,0,6,-2,8,-6c0,0,4,-7,4,-24c0,0,0,-20,-4,-27c0,0,-2,-4,-7,-6c0,0,-6,-2,-38,-2H599c0,0,41,-54,41,-137c0,0,0,-96,-73,-163c0,0,-73,-68,-196,-68c0,0,-51,0,-104,15c0,0,-33,-28,-44,-49c0,0,-12,-22,-12,-37c0,0,0,-12,13,-24c0,0,12,-12,48,-17c0,0,21,-4,104,-6c0,0,154,-4,199,-11c0,0,70,-10,111,-51c0,0,42,-41,42,-102c0,0,0,-84,-79,-158c0,0,-117,-108,-304,-108Z" 
id="f0_23"
transform="scale(0.001,-0.001)" />

<path d="M191,-20c0,0,-34,0,-58,24c0,0,-24,24,-24,58c0,0,0,35,24,59c0,0,24,24,58,24c0,0,35,0,59,-24c0,0,24,-25,24,-59c0,0,0,-34,-24,-58c0,0,-25,-24,-59,-24Z" 
id="f0_i"
transform="scale(0.001,-0.001)" />

<path d="M678,393L506,802L330,393ZM11,0V27c0,0,63,12,82,30c0,0,38,35,84,145l356,832h27L912,193c0,0,43,-101,77,-132c0,0,35,-30,97,-34V0H687V27c0,0,60,3,82,21c0,0,21,17,21,41c0,0,0,33,-30,104L700,338H307L239,179c0,0,-26,-59,-26,-88c0,0,0,-23,22,-41c0,0,22,-17,95,-23V0Z" 
id="f0_11"
transform="scale(0.001,-0.001)" />

<path d="M253,0V27h36c0,0,64,0,91,39c0,0,16,24,16,109V948H274c0,0,-71,0,-100,-10c0,0,-39,-14,-67,-54c0,0,-27,-41,-33,-109H46l12,237H883L894,775H865c0,0,-8,62,-22,89c0,0,-23,43,-61,64c0,0,-39,20,-101,20H539V175c0,0,0,-93,20,-116c0,0,28,-32,87,-32h36V0Z" 
id="f0_1k"
transform="scale(0.001,-0.001)" />

<path d="M20,0V26c0,0,45,0,71,15c0,0,15,7,24,28c0,0,9,21,9,85V773c0,0,0,117,-5,144c0,0,-6,27,-17,37c0,0,-12,9,-31,9c0,0,-16,0,-51,-12L10,978l204,83h34V561c0,0,83,91,131,116c0,0,49,26,97,26c0,0,58,0,100,-32c0,0,42,-32,62,-101c0,0,14,-47,14,-174V154c0,0,0,-65,11,-89c0,0,7,-18,25,-28c0,0,18,-11,66,-11V0H418V26h15c0,0,48,0,67,15c0,0,18,15,26,43c0,0,2,12,2,70V396c0,0,0,112,-12,147c0,0,-11,35,-36,53c0,0,-26,17,-61,17c0,0,-37,0,-76,-19c0,0,-40,-20,-95,-79V154c0,0,0,-70,8,-87c0,0,8,-17,29,-29c0,0,22,-12,74,-12V0Z" 
id="f0_24"
transform="scale(0.001,-0.001)" />

<path d="M145,-328c0,0,-44,0,-73,25c0,0,-28,25,-28,58c0,0,0,31,21,50c0,0,20,19,56,19c0,0,25,0,67,-16c0,0,30,-11,38,-11c0,0,22,0,49,23c0,0,26,23,53,89L376,28L131,542c0,0,-11,24,-36,58c0,0,-19,27,-30,36c0,0,-18,12,-56,21v26H328V657H312c0,0,-33,0,-50,-15c0,0,-17,-14,-17,-36c0,0,0,-30,25,-81L437,179L589,557c0,0,12,31,12,62c0,0,0,13,-5,20c0,0,-6,8,-19,13c0,0,-12,5,-44,5v26H754V657c0,0,-27,-3,-42,-12c0,0,-15,-9,-33,-34c0,0,-7,-10,-25,-58L376,-128c0,0,-40,-99,-105,-150c0,0,-66,-50,-126,-50Z" 
id="f0_2l"
transform="scale(0.001,-0.001)" />

<path d="M398,24c0,0,74,0,120,58c0,0,61,76,61,214c0,0,0,156,-69,240c0,0,-47,59,-113,59c0,0,-36,0,-71,-18c0,0,-27,-14,-88,-81V242c0,0,0,-83,6,-109c0,0,11,-43,51,-76c0,0,41,-33,103,-33ZM-4,-326v27H15c5,0,42,0,69,16c0,0,14,8,22,26c0,0,7,19,7,94V481c0,0,0,67,-6,85c0,0,-5,18,-18,27c0,0,-13,9,-36,9c0,0,-18,0,-45,-10L0,615l209,85h29V540c0,0,53,91,106,127c0,0,53,36,112,36c0,0,103,0,172,-80c0,0,84,-99,84,-257c0,0,0,-176,-102,-292c0,0,-83,-94,-210,-94c0,0,-55,0,-95,16c0,0,-30,10,-67,44V-167c0,0,0,-71,8,-90c0,0,9,-20,30,-31c0,0,21,-11,77,-11v-27Z" 
id="f0_2c"
transform="scale(0.001,-0.001)" />

<path d="M23,0V26c0,0,47,0,66,10c0,0,19,11,28,33c0,0,10,22,10,85V416c0,0,0,112,-7,145c0,0,-5,25,-16,34c0,0,-11,10,-31,10c0,0,-21,0,-50,-11L12,620l207,83h32V557c0,0,75,75,88,86c0,0,34,29,72,44c0,0,39,16,77,16c0,0,64,0,110,-37c0,0,47,-38,62,-109c0,0,77,90,130,118c0,0,53,28,109,28c0,0,54,0,96,-28c0,0,42,-28,67,-91c0,0,16,-43,16,-136V154c0,0,0,-64,10,-88c0,0,8,-16,28,-28c0,0,20,-12,65,-12V0H844V26h14c0,0,44,0,69,18c0,0,17,12,24,38c0,0,3,13,3,72V448c0,0,0,83,-20,117c0,0,-29,48,-93,48c0,0,-39,0,-79,-20c0,0,-40,-19,-97,-73l-1,-8l2,-32V154c0,0,0,-70,8,-87c0,0,7,-17,29,-29c0,0,21,-12,73,-12V0H431V26c0,0,57,0,78,14c0,0,21,13,29,40c0,0,4,13,4,74V448c0,0,0,83,-25,120c0,0,-33,48,-91,48c0,0,-40,0,-80,-22c0,0,-61,-33,-95,-74V154c0,0,0,-67,10,-87c0,0,9,-20,27,-30c0,0,18,-11,74,-11V0Z" 
id="f0_29"
transform="scale(0.001,-0.001)" />

<path d="M213,-20c0,0,-34,0,-58,24c0,0,-24,24,-24,58c0,0,0,34,24,58c0,0,24,25,58,25c0,0,35,0,59,-25c0,0,24,-24,24,-58c0,0,0,-34,-24,-58c0,0,-25,-24,-59,-24Zm3,559c0,0,-35,0,-59,24c0,0,-24,24,-24,58c0,0,0,35,24,59c0,0,24,24,59,24c0,0,34,0,58,-24c0,0,24,-24,24,-59c0,0,0,-34,-24,-58c0,0,-24,-24,-58,-24Z" 
id="f0_u"
transform="scale(0.001,-0.001)" />

<path d="M62,286V399H448V286Z" 
id="f0_h"
transform="scale(0.001,-0.001)" />

<path d="M197,0V27c0,0,71,2,92,13c0,0,21,10,29,29c0,0,9,18,9,109V725c0,0,0,110,-8,141c0,0,-5,24,-19,35c0,0,-14,11,-33,11c0,0,-28,0,-77,-23l-11,23l246,121h25V178c0,0,0,-85,7,-106c0,0,7,-21,29,-32c0,0,23,-11,91,-13V0Z" 
id="f0_l"
transform="scale(0.001,-0.001)" />

<path d="M24,0V27H60c0,0,63,0,91,37c0,0,18,24,18,115V833c0,0,0,77,-10,102c0,0,-7,18,-30,32c0,0,-32,18,-69,18H24v27H776L787,790H761c0,0,-20,71,-45,104c0,0,-26,33,-64,48c0,0,-37,15,-117,15H312V558H497c0,0,63,0,93,28c0,0,29,28,39,111h27V355H629c0,0,-1,59,-16,87c0,0,-14,27,-40,41c0,0,-26,14,-76,14H312V179c0,0,0,-77,10,-102c0,0,7,-18,31,-32c0,0,33,-18,69,-18h37V0Z" 
id="f0_16"
transform="scale(0.001,-0.001)" />

<path d="M13,0V26c0,0,52,0,78,13c0,0,16,8,24,25c0,0,11,25,11,86V773c0,0,0,118,-5,145c0,0,-5,26,-17,36c0,0,-12,10,-32,10c0,0,-15,0,-47,-13L13,978l203,83h34V381L424,540c0,0,55,50,64,64c0,0,6,9,6,18c0,0,0,15,-12,26c0,0,-13,11,-41,12v23H738V660c0,0,-61,-2,-102,-19c0,0,-40,-17,-89,-62L372,418L547,196c0,0,73,-92,98,-117c0,0,36,-35,63,-45c0,0,18,-8,65,-8V0H441V26c0,0,28,1,38,9c0,0,10,8,10,22c0,0,0,17,-29,56L250,381V154c0,0,0,-67,10,-88c0,0,9,-21,26,-30c0,0,17,-9,75,-10V0Z" 
id="f0_27"
transform="scale(0.001,-0.001)" />

<path d="M405,24c0,0,65,0,116,62c0,0,51,61,51,174c0,0,0,128,-50,221c0,0,-51,93,-144,93c0,0,-29,0,-61,-12c0,0,-33,-12,-96,-51c0,0,-14,-101,-14,-163c0,0,0,-72,27,-155c0,0,26,-84,79,-134c0,0,38,-35,92,-35ZM384,-17c0,0,-104,0,-177,68C207,51,66,185,66,397c0,0,0,136,54,258c0,0,54,122,156,217c0,0,101,95,193,128c0,0,93,33,172,33h44v-28c0,0,-99,-10,-161,-39c0,0,-62,-29,-123,-90c0,0,-61,-60,-101,-135c0,0,-39,-74,-66,-176c0,0,107,73,215,73c0,0,104,0,180,-83c0,0,76,-84,76,-215c0,0,0,-126,-77,-231c0,0,-92,-126,-244,-126Z" 
id="f0_q"
transform="scale(0.001,-0.001)" />

<path d="M379,29c0,0,41,0,84,37c0,0,43,36,65,121c0,0,34,128,34,362c0,0,0,173,-35,288c0,0,-27,86,-69,122c0,0,-31,25,-74,25c0,0,-51,0,-90,-46c0,0,-54,-62,-73,-195c0,0,-20,-132,-20,-261c0,0,0,-209,52,-341c0,0,42,-112,126,-112Zm-2,-46c0,0,-145,0,-241,170c0,0,-81,144,-81,347c0,0,0,173,52,298c0,0,52,125,139,186c0,0,67,49,139,49c0,0,116,0,208,-119c0,0,116,-147,116,-398c0,0,0,-176,-51,-299C658,217,608,94,529,38c0,0,-79,-55,-152,-55Z" 
id="f0_k"
transform="scale(0.001,-0.001)" />

<path d="M275,-20L578,891H299c0,0,-84,0,-120,-20c0,0,-63,-35,-101,-106l-21,8l97,239H696V983L359,-20Z" 
id="f0_r"
transform="scale(0.001,-0.001)" />

<path d="M1005,0c0,0,34,0,61,41c0,0,36,55,36,187c0,0,0,141,-36,196c0,0,-25,39,-61,39c0,0,-36,0,-62,-41c0,0,-34,-52,-34,-197c0,0,0,-134,35,-187c0,0,25,-38,61,-38Zm2,-41c0,0,-55,0,-106,34c0,0,-51,32,-80,94c0,0,-30,63,-30,142c0,0,0,79,29,144c0,0,30,64,81,97c0,0,51,32,104,32c0,0,53,0,105,-34c0,0,53,-33,82,-98c0,0,28,-64,28,-141c0,0,0,-132,-63,-201c0,0,-64,-69,-150,-69ZM267,524c0,0,36,0,61,39c0,0,38,57,38,192c0,0,0,142,-37,199c0,0,-24,38,-60,38c0,0,-38,0,-67,-44c0,0,-30,-45,-30,-189c0,0,0,-103,17,-158c0,0,12,-41,39,-63c0,0,16,-14,39,-14Zm3,-37c0,0,-59,0,-108,32c0,0,-49,33,-79,97c0,0,-29,64,-29,143c0,0,0,78,30,144c0,0,30,66,81,99c0,0,52,32,107,32c0,0,101,0,156,-83c0,0,56,-84,56,-192c0,0,0,-130,-63,-201c0,0,-62,-71,-151,-71ZM235,-41L972,1034h67L301,-41Z" 
id="f0_9"
transform="scale(0.001,-0.001)" />

<path d="M33,0V27c0,0,264,241,371,393c0,0,108,152,108,278c0,0,0,96,-59,158c0,0,-59,62,-141,62c0,0,-75,0,-134,-43c0,0,-59,-44,-88,-128H63c0,0,18,138,95,212c0,0,77,74,193,74c0,0,123,0,205,-80c0,0,83,-79,83,-186c0,0,0,-77,-36,-154c0,0,-55,-121,-179,-256C424,357,238,154,191,112H455c0,0,81,0,114,6c0,0,32,6,58,25c0,0,27,18,46,52h27L630,0Z" 
id="f0_m"
transform="scale(0.001,-0.001)" />

<path d="M17,-328c0,0,-67,0,-100,24c0,0,-33,25,-33,51c0,0,0,26,18,45c0,0,18,18,43,18c0,0,19,0,40,-9c0,0,12,-6,48,-38c0,0,37,-33,61,-33c0,0,18,0,35,14c0,0,17,14,25,46c0,0,8,33,8,141V416c0,0,0,113,-6,145c0,0,-6,25,-17,34c0,0,-11,10,-31,10c0,0,-21,0,-51,-11L47,620l207,83h32V16c0,0,0,-175,-74,-260c0,0,-75,-84,-195,-84ZM223,908c0,0,-32,0,-54,23c0,0,-22,22,-22,53c0,0,0,32,22,55c0,0,22,22,54,22c0,0,32,0,54,-22c0,0,22,-23,22,-55c0,0,0,-31,-22,-53c0,0,-22,-23,-54,-23Z" 
id="f0_26"
transform="scale(0.001,-0.001)" />

<path d="M82,-253v33c0,0,77,25,119,78c0,0,42,54,42,114c0,0,0,14,-7,23c0,0,-5,6,-11,6c0,0,-8,0,-35,-14c0,0,-14,-7,-28,-7c0,0,-37,0,-58,21C104,1,82,23,82,61c0,0,0,36,28,62c0,0,28,27,68,27c0,0,49,0,88,-43c0,0,38,-43,38,-113c0,0,0,-77,-53,-143c0,0,-53,-66,-169,-104Z" 
id="f0_g"
transform="scale(0.001,-0.001)" />

<path d="M247,-17c0,0,-91,0,-132,30c0,0,-42,31,-42,68c0,0,0,21,17,37c0,0,18,16,44,17c0,0,19,0,34,-6c0,0,14,-7,49,-31c0,0,56,-39,113,-39c0,0,88,0,154,66c0,0,66,66,66,161c0,0,0,92,-59,171c0,0,-59,80,-163,123c0,0,-81,34,-221,39l194,393H663L605,885H301L234,750c0,0,198,-29,313,-147c0,0,100,-102,100,-239c0,0,0,-80,-33,-148c0,0,-32,-68,-81,-116c0,0,-50,-47,-110,-77c0,0,-86,-40,-176,-40Z" 
id="f0_p"
transform="scale(0.001,-0.001)" />

<path d="M474,-21L174,817c0,0,-34,94,-42,112c0,0,-15,28,-41,42c0,0,-26,14,-70,14v27H395V985H377c0,0,-40,0,-60,-18c0,0,-21,-18,-21,-44c0,0,0,-26,33,-120L528,235L696,718l-30,85l-24,68c0,0,-16,37,-35,66c0,0,-10,14,-24,24c0,0,-19,13,-38,19c0,0,-14,5,-44,5v27H894V985H867c0,0,-41,0,-61,-18c0,0,-19,-18,-19,-49c0,0,0,-38,33,-133L1015,235l193,557c0,0,32,93,32,129c0,0,0,17,-10,32c0,0,-11,15,-28,21c0,0,-28,11,-74,11v27h302V985c0,0,-39,0,-64,-15c0,0,-25,-14,-47,-53c0,0,-15,-26,-47,-124L990,-21H960L729,624L501,-21Z" 
id="f0_1n"
transform="scale(0.001,-0.001)" />

<path d="M26,0V27H62c0,0,63,0,91,37c0,0,18,24,18,115V833c0,0,0,77,-10,102c0,0,-7,18,-30,32c0,0,-33,18,-69,18H26v27H459V985H422c0,0,-35,0,-67,-17c0,0,-23,-12,-32,-36c0,0,-9,-25,-9,-99V542H784V833c0,0,0,77,-10,102c0,0,-8,18,-31,32c0,0,-33,18,-68,18H639v27h432V985h-36c0,0,-36,0,-68,-17c0,0,-24,-12,-32,-36c0,0,-9,-25,-9,-99V179c0,0,0,-77,10,-102c0,0,7,-18,31,-32c0,0,32,-18,68,-18h36V0H639V27h36c0,0,62,0,90,37c0,0,19,24,19,115V487H314V179c0,0,0,-77,9,-102c0,0,8,-18,32,-32c0,0,32,-18,67,-18h37V0Z" 
id="f0_18"
transform="scale(0.001,-0.001)" />

<path d="M30,0V27L485,632H260c0,0,-72,0,-94,-10c0,0,-22,-9,-36,-35c0,0,-20,-37,-23,-92H76l5,188H654V656L196,51H445c0,0,79,0,106,13c0,0,28,13,45,46c0,0,12,23,21,100h25L634,0Z" 
id="f0_2m"
transform="scale(0.001,-0.001)" />

<path d="M613,-21c0,0,-293,0,-445,186C168,165,54,306,54,490c0,0,0,134,64,256c0,0,76,145,209,224c0,0,111,64,262,64c0,0,55,0,100,-9c0,0,45,-9,128,-39c0,0,42,-16,56,-16c0,0,14,0,24,13c0,0,10,13,12,51h28L963,715H937c0,0,-40,119,-102,179c0,0,-91,88,-232,88c0,0,-193,0,-294,-153c0,0,-84,-129,-84,-307c0,0,0,-144,56,-263c0,0,56,-120,146,-175c0,0,91,-56,186,-56c0,0,56,0,109,15c0,0,52,14,100,41V376c0,0,0,77,-11,101c0,0,-12,23,-36,36c0,0,-24,12,-86,12v27h392V525h-18c0,0,-58,0,-80,-39c0,0,-15,-28,-15,-110V67C968,67,882,21,799,0c0,0,-84,-21,-186,-21Z" 
id="f0_17"
transform="scale(0.001,-0.001)" />

<path d="M356,519c0,0,145,0,218,63c0,0,74,63,74,160c0,0,0,95,-60,154c0,0,-59,59,-157,59c0,0,-43,0,-117,-13V520c0,0,14,0,25,0c0,0,10,-1,17,-1ZM26,0V27H64c0,0,64,0,92,42c0,0,15,23,15,110V833c0,0,0,96,-21,119c0,0,-29,33,-86,33H26v27H395c0,0,161,0,238,-24c0,0,76,-23,129,-86c0,0,54,-63,54,-151c0,0,0,-93,-61,-162c0,0,-61,-68,-189,-97L775,202c0,0,72,-100,123,-133c0,0,52,-33,134,-42V0H762L419,473c0,0,-38,-1,-61,-1c0,0,-10,0,-21,0c0,0,-11,0,-23,1V179c0,0,0,-96,21,-119c0,0,28,-33,84,-33h40V0Z" 
id="f0_1i"
transform="scale(0.001,-0.001)" />

<path d="M-12,338v55H777V338Z" 
id="f0_4y"
transform="scale(0.001,-0.001)" />

<path d="M548,-21c0,0,-251,0,-389,185C159,164,56,303,56,490c0,0,0,152,68,278c0,0,67,127,186,197c0,0,119,69,260,69c0,0,109,0,216,-53c0,0,31,-17,44,-17c0,0,20,0,35,14c0,0,20,21,28,56h26L943,690H919c0,0,-46,155,-131,224c0,0,-86,68,-206,68c0,0,-100,0,-181,-51c0,0,-81,-52,-128,-163c0,0,-46,-112,-46,-279c0,0,0,-137,44,-238c0,0,44,-101,132,-154c0,0,88,-54,201,-54c0,0,99,0,174,42c0,0,75,42,165,167l23,-14C966,238,890,103,789,40c0,0,-102,-61,-241,-61Z" 
id="f0_13"
transform="scale(0.001,-0.001)" />

<path d="M911,-16L244,799V175c0,0,0,-93,21,-116c0,0,28,-32,86,-32h36V0H36V27H71c0,0,65,0,92,39c0,0,16,24,16,109V879c0,0,-44,52,-67,68c0,0,-23,17,-67,31c0,0,-21,7,-64,7v27H253L873,253V837c0,0,0,93,-21,116c0,0,-28,32,-87,32H730v27h351V985h-36c0,0,-64,0,-91,-39c0,0,-16,-24,-16,-109V-16Z" 
id="f0_1e"
transform="scale(0.001,-0.001)" />

<path d="M399,105V477H27v62H399V909h60V539H831V477H459V105Z" 
id="f0_f"
transform="scale(0.001,-0.001)" />

<path d="M452,373V875L97,373ZM452,0V267H23v95l470,671h82V373H711V267H575V0Z" 
id="f0_o"
transform="scale(0.001,-0.001)" />

<path d="M545,30c0,0,143,0,236,111c0,0,93,111,93,351c0,0,0,259,-103,386c0,0,-82,102,-226,102c0,0,-136,0,-218,-101C327,879,225,754,225,512c0,0,0,-247,106,-380c0,0,81,-102,214,-102Zm2,-51c0,0,-209,0,-351,147C196,126,54,274,54,510c0,0,0,240,164,393c0,0,142,131,341,131c0,0,197,0,341,-149c0,0,145,-149,145,-373c0,0,0,-230,-146,-382C899,130,754,-21,547,-21Z" 
id="f0_1f"
transform="scale(0.001,-0.001)" />

<path d="M485,53c0,0,135,0,206,61c0,0,71,60,71,150c0,0,0,59,-32,114c0,0,-33,54,-105,85c0,0,-72,32,-179,32c0,0,-46,0,-79,-2c0,0,-33,-1,-53,-5V73c0,0,86,-20,171,-20ZM455,547c0,0,109,0,164,23c0,0,55,24,84,72c0,0,29,49,29,106c0,0,0,89,-72,151c0,0,-73,63,-212,63c0,0,-74,0,-134,-16V557c0,0,27,-5,63,-8c0,0,35,-2,78,-2ZM24,0V27H63c0,0,63,0,91,41c0,0,17,26,17,111V833c0,0,0,94,-22,119c0,0,-29,33,-86,33H24v27H462c0,0,122,0,196,-18c0,0,112,-27,171,-95c0,0,59,-68,59,-157c0,0,0,-76,-46,-136c0,0,-47,-60,-137,-89c0,0,105,-23,157,-72c0,0,73,-69,73,-168c0,0,0,-75,-48,-145C887,132,839,63,756,32C756,32,673,0,502,0Z" 
id="f0_12"
transform="scale(0.001,-0.001)" />

<path d="M140,-320V1113H257V-320Z" 
id="f1_2o"
transform="scale(0.001,-0.001)" />

<path d="M238,-17c0,0,-103,0,-139,25C99,8,62,33,62,62c0,0,0,22,17,38c0,0,18,16,42,16c0,0,19,0,38,-6c0,0,13,-3,58,-27c0,0,45,-23,62,-28c0,0,27,-8,59,-8c0,0,76,0,132,59c0,0,56,59,56,140c0,0,0,59,-26,115c0,0,-19,41,-42,63c0,0,-32,30,-88,54c0,0,-56,25,-114,25H232v22c0,0,59,8,118,42c0,0,59,35,86,85c0,0,27,49,27,108c0,0,0,76,-48,124c0,0,-48,47,-120,47c0,0,-116,0,-193,-124L77,819c0,0,44,102,110,158c0,0,66,56,164,56c0,0,122,0,187,-80c0,0,49,-58,49,-126c0,0,0,-110,-139,-228c0,0,93,-36,141,-104c0,0,48,-68,48,-160c0,0,0,-131,-84,-227C553,108,444,-17,238,-17Z" 
id="f0_n"
transform="scale(0.001,-0.001)" />

<path d="M25,0V27H61c0,0,63,0,91,37c0,0,18,24,18,115V833c0,0,0,77,-10,102c0,0,-7,18,-30,32c0,0,-33,18,-69,18H25v27H456V985H421c0,0,-35,0,-67,-18c0,0,-23,-11,-32,-35c0,0,-9,-24,-9,-99V523c0,0,15,15,102,95c0,0,222,203,268,271c0,0,20,30,20,52c0,0,0,18,-15,31c0,0,-16,13,-53,13H611v27H983V985c0,0,-33,-1,-60,-9c0,0,-26,-9,-65,-32c0,0,-39,-24,-96,-76c0,0,-16,-15,-151,-153L456,561L829,190c0,0,92,-92,157,-125c0,0,65,-33,130,-38V0H634V27c0,0,43,0,62,15c0,0,19,15,19,32c0,0,0,18,-7,33c0,0,-7,14,-46,53L313,506V179c0,0,0,-77,10,-102c0,0,7,-18,31,-32c0,0,32,-18,67,-18h35V0Z" 
id="f0_1b"
transform="scale(0.001,-0.001)" />

<path d="M12,0V27c0,0,38,4,66,16c0,0,46,19,88,52c0,0,41,33,95,101L496,496L300,789c0,0,-81,119,-138,156c0,0,-57,37,-130,40v27H499V985c0,0,-59,-3,-81,-20c0,0,-22,-17,-22,-38c0,0,0,-28,35,-81L588,613L767,841c0,0,31,41,38,56c0,0,7,15,7,31c0,0,0,15,-9,27c0,0,-11,16,-28,22c0,0,-17,7,-71,8v27h359V985c0,0,-42,-3,-69,-14c0,0,-40,-17,-74,-46c0,0,-34,-29,-95,-108L624,560L842,236c0,0,90,-134,134,-169c0,0,43,-36,111,-40V0H652V27c0,0,43,1,64,9c0,0,16,7,26,21c0,0,10,14,10,28c0,0,0,17,-7,35c0,0,-5,12,-41,66L532,443L320,173c0,0,-33,-44,-40,-58c0,0,-7,-15,-7,-30c0,0,0,-24,21,-40c0,0,20,-15,76,-18V0Z" 
id="f0_1o"
transform="scale(0.001,-0.001)" />

<path d="M2,-20L369,1061h59L62,-20Z" 
id="f0_j"
transform="scale(0.001,-0.001)" />

<path d="M435,0V856c0,0,-48,-47,-127,-93c0,0,-79,-46,-142,-69V824c0,0,113,52,197,128c0,0,85,75,120,146h86V0Z" 
id="f2_l"
transform="scale(0.001,-0.001)" />

<path d="M494,385V878L152,385ZM494,0V262H20V385l498,708H628V385H775V262H628V0Z" 
id="f2_o"
transform="scale(0.001,-0.001)" />


</defs>
</svg>