<?xml version="1.0" encoding="UTF-8" standalone="no"?>
<!DOCTYPE svg PUBLIC "-//W3C//DTD SVG 1.1//EN"
"http://www.w3.org/Graphics/SVG/1.1/DTD/svg11.dtd">
<svg viewBox="0 0 909 1286" version="1.1" xmlns="http://www.w3.org/2000/svg" xmlns:xlink="http://www.w3.org/1999/xlink">
<defs>
<style type="text/css"><![CDATA[
.g0_5{
fill: none;
stroke: #FFFFFF;
stroke-width: 0.77152777;
stroke-linecap: round;
stroke-linejoin: round;
}
.g1_5{
fill: #FFFFFF;
}
.g2_5{
fill: #1F1A17;
}
]]></style>
</defs>
<path d="M512.4,486.7l6.2,9.7l5.4,8.5l4.1,8.7l2,8.5l1.1,7.7l1.2,6.7l-1.2,6.7l-2.1,6.7l-2,4.9l-3.1,5.6l-3.1,4.9l-3.4,3.9l-7.1,6.6l-6.5,4.7l-11.5,6.9l-10.3,6.7l-11.6,5.6L459,606.4l-6.4,3.9l-6.2,4.9l-5.4,4.6l-5.1,5.9l-4.1,6.7l-3.4,7.4l-1,9.8l-1,10.5l-6.2,-10.5l-5.4,-10.5l-3.1,-10.6l-1,-10.5v-4.9l1,-4.9l1.1,-4.6l2,-3.9l2.1,-4.8l3.3,-3.9l3.1,-3.6l4.1,-3.8l17,-11.6l16.7,-9.5l14.6,-8.8L489.3,546l6.4,-4.6l5.2,-6.7L505,528l3.3,-7.7l2.1,-8.7l2,-7.7V486.7" class="g0_5" />
<path fill-rule="evenodd" d="M279.7,577.6L310,573.8l1.1,9.8v9.5l-1.1,1l-1,1.8l-2.1,1.8h-2l-2.1,1h-3.3l-2,-1l-2.1,-1.8l-2.1,-2.8l-11.5,9.5l-1,-9.5l11.5,-8.8l-11.5,1l-1.1,-7.7Zm16.7,6v1.7l1.1,2.1l1,1.8l1,1h3.3l1.1,-1l1,-1.8v-4.9l-8.5,1.1Zm2.1,36.2l2,8.7l9.5,-6.6l1.1,-1.1h1l1,-1H298.5Zm-14.7,-7.7l32.7,1l3.1,10.5l-26.3,20.1l-2,-8.5l4.1,-2.8l-3.1,-12.6h-5.4l-3.1,-7.7ZM329,673.5l-2.3,.8l-3,1l-3.1,1l-3.1,-1l-3.4,-1l-3,-.8L309,670.7l-2.1,-2.1l-2,-3.8l-1,-2.9v-6.6l1,-2.9l2,-2.8l1.1,-3.1l3.1,-1.8l2,-1.8l3.4,-1h6.1l3.1,1l3.3,1.8l2.1,1.8l2.1,3.1l2,2.8l1,2.9v6.6l-1,3.9l-1,2.8l-2.1,2.1l-3.1,2.8ZM312.1,664l3.3,2.8l3.1,.8h3.1l3.1,-1.8l2,-2.8l2.3,-2.9v-3.8l-1,-2.8l-2.3,-2.1l-3.1,-1h-4.1l-3.1,1l-2.3,2.8l-2,2.9v3.8l1,3.1Zm31.6,45l18.7,-26l6.4,5.7l-19,25.9L343.7,709Zm20.8,15.2l14.9,-28.9l7.2,4.9L371.9,728l-7.4,-3.8Zm26.2,12.5l7.4,-23.1L392,710.8l3.1,-6.7l19.7,7.7l-2,6.7l-6.2,-2.1l-8.5,23.2l-7.4,-2.9Zm58.8,-1H458l-4.4,-10.5v-2.9l-1,-2v3.9l-1,1l-2.1,10.5Zm-11.6,11.6l9.5,-31.7H458l11.5,31.7h-8.4L459,741.4H447.4l-1,5.9h-8.5ZM494.7,709l2.1,9.5l-2.1,-2.1h-5.4l-3.1,1.1l-2,2.8l-1,3.9l1,2.8l1,3.8l2.1,2.1l3,.7h3.1l2.3,-.7l1.1,-1l2,-1.1l1,-2.8l2.1,9.5l-1,1l-2.1,2.1l-2,.8h-2.1l-2.3,1h-4.1l-2.1,-1l-4.1,-1.8l-2.3,-2.9l-3.1,-3.1l-1,-3.6l-1,-3.8v-3.1l1,-3.6l1,-3.1l2.1,-2.8l2.3,-1.8l2.1,-1l3,-1.8h8.5Zm22.9,10.5l7.4,-4.9l-7.4,-7.7h-1.1v-1l-1,-.8l-1,-1v1l1,.8v2l2.1,11.6Zm-5.2,15.2l-4.1,-33.4l8.2,-4.9l24.2,23.9l-7.2,3.9l-4.4,-4.7l-10.5,5.7l1.3,5.6l-7.5,3.9Zm37.8,-22.1L529.1,689.7l5.4,-4.9l4.1,-4.6l3.1,-2.1l3.3,-1.8h6.2l3.1,1.1l3.1,.7l3.3,3.1l2.1,3.6l1,3.1l1,3.8v3.6l-1,2.1l-1,2.8l-3.1,2.9l-3.4,3.8l-1,1l-5.1,4.7Zm2,-11.3l1.1,-1.1l2,-2.8l1,-3.8v-2.9l-2,-2.8l-3.1,-3.1l-3.1,-.8l-3.1,.8l-3.3,3.1l-1,.8l11.5,12.6Zm28.3,-20.1L555.3,663l11.6,-16.5l5.4,3.9l-6.5,9.7L570,663l6.4,-8.8l5.1,3.9l-6.2,8.7l4.1,3.9l6.5,-9.8l6.1,4.9l-11.5,15.4ZM613.1,618l-3.1,7.7l-13.6,-3.8h-1.3l-1,-1.1l-2.1,-1h-2l2,1l2.1,1.8l1,1l11.6,9.5l-2.1,4.9L590,637h-1l-3.1,-1h-2.1l2.1,1h1l2.1,1l1,1.1l11.5,7.4l-3,7L572.3,637l3,-7.7l16.7,1v1.1h4.4h-1.3l-1,-1.1l-1,-1l-1.1,-.8L579.4,618l3.1,-7.7l30.6,7.7Zm2.1,-21.1l-13.7,-2l-17.7,8.7l1.1,-9.5l8.2,-3.1l2,-.8h1.3l-1.3,-1h-1l-1,-1l-6.2,-4.6l1,-10.6l14.7,14.4l13.6,1.8l-1,7.7Z" class="g1_5" />
<g fill="#000000" >
<use xlink:href="#f0_l" transform="matrix(12,0,0,12,64.9,109)" />
<use xlink:href="#f0_m" transform="matrix(12,0,0,12,74.1,109)" />
<use xlink:href="#f0_17" transform="matrix(12,0,0,12,117,109)" />
<use xlink:href="#f0_25" transform="matrix(12,0,0,12,129.8,109)" />
<use xlink:href="#f0_2i" transform="matrix(12,0,0,12,133.9,109)" />
<use xlink:href="#f0_21" transform="matrix(12,0,0,12,142.3,109)" />
<use xlink:href="#f0_2e" transform="matrix(12,0,0,12,153.4,109)" />
<use xlink:href="#f0_21" transform="matrix(12,0,0,12,159.2,109)" />
<use xlink:href="#f0_1x" transform="matrix(12,0,0,12,167,109)" />
<use xlink:href="#f0_2f" transform="matrix(12,0,0,12,174.7,109)" />
<use xlink:href="#f0_2b" transform="matrix(12,0,0,12,181.3,109)" />
<use xlink:href="#f0_2a" transform="matrix(12,0,0,12,190.4,109)" />
<use xlink:href="#f0_2f" transform="matrix(12,0,0,12,198.9,109)" />
<use xlink:href="#f0_22" transform="matrix(12,0,0,12,208.8,109)" />
<use xlink:href="#f0_2b" transform="matrix(12,0,0,12,214,109)" />
<use xlink:href="#f0_2e" transform="matrix(12,0,0,12,223.1,109)" />
<use xlink:href="#f0_2g" transform="matrix(12,0,0,12,231.6,109)" />
<use xlink:href="#f0_24" transform="matrix(12,0,0,12,236.8,109)" />
<use xlink:href="#f0_21" transform="matrix(12,0,0,12,245.2,109)" />
<use xlink:href="#f0_22" transform="matrix(12,0,0,12,256.2,109)" />
<use xlink:href="#f0_2b" transform="matrix(12,0,0,12,261.4,109)" />
<use xlink:href="#f0_28" transform="matrix(12,0,0,12,270.6,109)" />
<use xlink:href="#f0_28" transform="matrix(12,0,0,12,274.6,109)" />
<use xlink:href="#f0_2b" transform="matrix(12,0,0,12,278.7,109)" />
<use xlink:href="#f0_2j" transform="matrix(12,0,0,12,287.8,109)" />
<use xlink:href="#f0_25" transform="matrix(12,0,0,12,300.7,109)" />
<use xlink:href="#f0_2a" transform="matrix(12,0,0,12,304.7,109)" />
<use xlink:href="#f0_23" transform="matrix(12,0,0,12,313.2,109)" />
<use xlink:href="#f0_u" transform="matrix(12,0,0,12,325.3,109)" />
<use xlink:href="#f0_c" transform="matrix(12,0,0,12,117,138)" />
<use xlink:href="#f0_1x" transform="matrix(12,0,0,12,122.5,138)" />
<use xlink:href="#f0_d" transform="matrix(12,0,0,12,130.2,138)" />
<use xlink:href="#f0_1d" transform="matrix(12,0,0,12,159.9,138)" />
<use xlink:href="#f0_21" transform="matrix(12,0,0,12,176,138)" />
<use xlink:href="#f0_1x" transform="matrix(12,0,0,12,184.1,138)" />
<use xlink:href="#f0_2f" transform="matrix(12,0,0,12,192.2,138)" />
<use xlink:href="#f0_2h" transform="matrix(12,0,0,12,199.2,138)" />
<use xlink:href="#f0_2e" transform="matrix(12,0,0,12,208.3,138)" />
<use xlink:href="#f0_21" transform="matrix(12,0,0,12,214.6,138)" />
<use xlink:href="#f0_29" transform="matrix(12,0,0,12,222.7,138)" />
<use xlink:href="#f0_21" transform="matrix(12,0,0,12,236.2,138)" />
<use xlink:href="#f0_2a" transform="matrix(12,0,0,12,244.3,138)" />
<use xlink:href="#f0_2g" transform="matrix(12,0,0,12,253.1,138)" />
<use xlink:href="#f0_2b" transform="matrix(12,0,0,12,262.7,138)" />
<use xlink:href="#f0_22" transform="matrix(12,0,0,12,272.2,138)" />
<use xlink:href="#f0_2b" transform="matrix(12,0,0,12,282.2,138)" />
<use xlink:href="#f0_2f" transform="matrix(12,0,0,12,291.7,138)" />
<use xlink:href="#f0_29" transform="matrix(12,0,0,12,298.7,138)" />
<use xlink:href="#f0_2b" transform="matrix(12,0,0,12,312.3,138)" />
<use xlink:href="#f0_2g" transform="matrix(12,0,0,12,321.8,138)" />
<use xlink:href="#f0_25" transform="matrix(12,0,0,12,327.3,138)" />
<use xlink:href="#f0_1z" transform="matrix(12,0,0,12,331.7,138)" />
<use xlink:href="#f0_2c" transform="matrix(12,0,0,12,343.8,138)" />
<use xlink:href="#f0_2e" transform="matrix(12,0,0,12,353,138)" />
<use xlink:href="#f0_21" transform="matrix(12,0,0,12,359.2,138)" />
<use xlink:href="#f0_2f" transform="matrix(12,0,0,12,367.3,138)" />
<use xlink:href="#f0_2f" transform="matrix(12,0,0,12,374.3,138)" />
<use xlink:href="#f0_2h" transform="matrix(12,0,0,12,381.3,138)" />
<use xlink:href="#f0_2e" transform="matrix(12,0,0,12,390.5,138)" />
<use xlink:href="#f0_21" transform="matrix(12,0,0,12,396.7,138)" />
<use xlink:href="#f0_29" transform="matrix(12,0,0,12,408.8,138)" />
<use xlink:href="#f0_21" transform="matrix(12,0,0,12,422.4,138)" />
<use xlink:href="#f0_2g" transform="matrix(12,0,0,12,430.5,138)" />
<use xlink:href="#f0_24" transform="matrix(12,0,0,12,436,138)" />
<use xlink:href="#f0_2b" transform="matrix(12,0,0,12,444.8,138)" />
<use xlink:href="#f0_20" transform="matrix(12,0,0,12,454.3,138)" />
<use xlink:href="#f0_25" transform="matrix(12,0,0,12,467.5,138)" />
<use xlink:href="#f0_2f" transform="matrix(12,0,0,12,472,138)" />
<use xlink:href="#f0_2c" transform="matrix(12,0,0,12,483,138)" />
<use xlink:href="#f0_2e" transform="matrix(12,0,0,12,492.2,138)" />
<use xlink:href="#f0_21" transform="matrix(12,0,0,12,498.4,138)" />
<use xlink:href="#f0_22" transform="matrix(12,0,0,12,506.5,138)" />
<use xlink:href="#f0_21" transform="matrix(12,0,0,12,512,138)" />
<use xlink:href="#f0_2e" transform="matrix(12,0,0,12,520.1,138)" />
<use xlink:href="#f0_2e" transform="matrix(12,0,0,12,526.3,138)" />
<use xlink:href="#f0_21" transform="matrix(12,0,0,12,532.5,138)" />
<use xlink:href="#f0_20" transform="matrix(12,0,0,12,540.6,138)" />
<use xlink:href="#f0_22" transform="matrix(12,0,0,12,554.2,138)" />
<use xlink:href="#f0_2b" transform="matrix(12,0,0,12,559.7,138)" />
<use xlink:href="#f0_2e" transform="matrix(12,0,0,12,569.3,138)" />
<use xlink:href="#f0_2g" transform="matrix(12,0,0,12,579.5,138)" />
<use xlink:href="#f0_24" transform="matrix(12,0,0,12,585,138)" />
<use xlink:href="#f0_21" transform="matrix(12,0,0,12,593.9,138)" />
<use xlink:href="#f0_20" transform="matrix(12,0,0,12,606,138)" />
<use xlink:href="#f0_21" transform="matrix(12,0,0,12,615.2,138)" />
<use xlink:href="#f0_2g" transform="matrix(12,0,0,12,623.2,138)" />
<use xlink:href="#f0_21" transform="matrix(12,0,0,12,628.7,138)" />
<use xlink:href="#f0_2e" transform="matrix(12,0,0,12,636.8,138)" />
<use xlink:href="#f0_29" transform="matrix(12,0,0,12,643.1,138)" />
<use xlink:href="#f0_25" transform="matrix(12,0,0,12,656.6,138)" />
<use xlink:href="#f0_2a" transform="matrix(12,0,0,12,661.1,138)" />
<use xlink:href="#f0_1x" transform="matrix(12,0,0,12,669.9,138)" />
<use xlink:href="#f0_2g" transform="matrix(12,0,0,12,678,138)" />
<use xlink:href="#f0_25" transform="matrix(12,0,0,12,683.5,138)" />
<use xlink:href="#f0_2b" transform="matrix(12,0,0,12,687.9,138)" />
<use xlink:href="#f0_2a" transform="matrix(12,0,0,12,697.4,138)" />
<use xlink:href="#f0_2b" transform="matrix(12,0,0,12,710.3,138)" />
<use xlink:href="#f0_22" transform="matrix(12,0,0,12,719.8,138)" />
<use xlink:href="#f0_29" transform="matrix(12,0,0,12,729.7,138)" />
<use xlink:href="#f0_2b" transform="matrix(12,0,0,12,743.3,138)" />
<use xlink:href="#f0_28" transform="matrix(12,0,0,12,752.8,138)" />
<use xlink:href="#f0_1x" transform="matrix(12,0,0,12,757.3,138)" />
<use xlink:href="#f0_2e" transform="matrix(12,0,0,12,765.3,138)" />
<use xlink:href="#f0_29" transform="matrix(12,0,0,12,775.6,138)" />
<use xlink:href="#f0_1x" transform="matrix(12,0,0,12,789.2,138)" />
<use xlink:href="#f0_2f" transform="matrix(12,0,0,12,797.3,138)" />
<use xlink:href="#f0_2f" transform="matrix(12,0,0,12,804.3,138)" />
<use xlink:href="#f0_21" transform="matrix(12,0,0,12,811.3,138)" />
<use xlink:href="#f0_2f" transform="matrix(12,0,0,12,819.3,138)" />
<use xlink:href="#f0_2b" transform="matrix(12,0,0,12,830.4,138)" />
<use xlink:href="#f0_22" transform="matrix(12,0,0,12,839.9,138)" />
<use xlink:href="#f0_29" transform="matrix(12,0,0,12,160.2,162.2)" />
<use xlink:href="#f0_1x" transform="matrix(12,0,0,12,173.4,162.2)" />
<use xlink:href="#f0_1z" transform="matrix(12,0,0,12,181.5,162.2)" />
<use xlink:href="#f0_2e" transform="matrix(12,0,0,12,189.2,162.2)" />
<use xlink:href="#f0_2b" transform="matrix(12,0,0,12,195.1,162.2)" />
<use xlink:href="#f0_29" transform="matrix(12,0,0,12,204.3,162.2)" />
<use xlink:href="#f0_2b" transform="matrix(12,0,0,12,217.9,162.2)" />
<use xlink:href="#f0_28" transform="matrix(12,0,0,12,227,162.2)" />
<use xlink:href="#f0_21" transform="matrix(12,0,0,12,231.1,162.2)" />
<use xlink:href="#f0_1z" transform="matrix(12,0,0,12,238.8,162.2)" />
<use xlink:href="#f0_2h" transform="matrix(12,0,0,12,246.9,162.2)" />
<use xlink:href="#f0_28" transform="matrix(12,0,0,12,255.7,162.2)" />
<use xlink:href="#f0_21" transform="matrix(12,0,0,12,259.7,162.2)" />
<use xlink:href="#f0_2f" transform="matrix(12,0,0,12,267.8,162.2)" />
<use xlink:href="#f0_2f" transform="matrix(12,0,0,12,277.8,162.2)" />
<use xlink:href="#f0_2h" transform="matrix(12,0,0,12,284.4,162.2)" />
<use xlink:href="#f0_1z" transform="matrix(12,0,0,12,293.5,162.2)" />
<use xlink:href="#f0_24" transform="matrix(12,0,0,12,301.3,162.2)" />
<use xlink:href="#f0_1x" transform="matrix(12,0,0,12,313,162.2)" />
<use xlink:href="#f0_2f" transform="matrix(12,0,0,12,321.1,162.2)" />
<use xlink:href="#f0_2c" transform="matrix(12,0,0,12,330.7,162.2)" />
<use xlink:href="#f0_2e" transform="matrix(12,0,0,12,339.8,162.2)" />
<use xlink:href="#f0_2b" transform="matrix(12,0,0,12,345.7,162.2)" />
<use xlink:href="#f0_2g" transform="matrix(12,0,0,12,354.9,162.2)" />
<use xlink:href="#f0_21" transform="matrix(12,0,0,12,360,162.2)" />
<use xlink:href="#f0_25" transform="matrix(12,0,0,12,368.1,162.2)" />
<use xlink:href="#f0_2a" transform="matrix(12,0,0,12,372.1,162.2)" />
<use xlink:href="#f0_2f" transform="matrix(12,0,0,12,380.6,162.2)" />
<use xlink:href="#f0_1x" transform="matrix(12,0,0,12,390.9,162.2)" />
<use xlink:href="#f0_2a" transform="matrix(12,0,0,12,398.6,162.2)" />
<use xlink:href="#f0_20" transform="matrix(12,0,0,12,407.1,162.2)" />
<use xlink:href="#f0_2c" transform="matrix(12,0,0,12,419.5,162.2)" />
<use xlink:href="#f0_2b" transform="matrix(12,0,0,12,428.4,162.2)" />
<use xlink:href="#f0_28" transform="matrix(12,0,0,12,437.5,162.2)" />
<use xlink:href="#f0_2l" transform="matrix(12,0,0,12,441.9,162.2)" />
<use xlink:href="#f0_29" transform="matrix(12,0,0,12,450,162.2)" />
<use xlink:href="#f0_21" transform="matrix(12,0,0,12,463.2,162.2)" />
<use xlink:href="#f0_2e" transform="matrix(12,0,0,12,470.9,162.2)" />
<use xlink:href="#f0_2f" transform="matrix(12,0,0,12,477.2,162.2)" />
<use xlink:href="#f0_i" transform="matrix(12,0,0,12,483.8,162.2)" />
<use xlink:href="#f0_11" transform="matrix(12,0,0,12,64.9,191.2)" />
<use xlink:href="#f0_2a" transform="matrix(12,0,0,12,77.4,191.2)" />
<use xlink:href="#f0_2f" transform="matrix(12,0,0,12,85.8,191.2)" />
<use xlink:href="#f0_i" transform="matrix(12,0,0,12,92.5,191.2)" />
<use xlink:href="#f0_1k" transform="matrix(12,0,0,12,117,191.2)" />
<use xlink:href="#f0_24" transform="matrix(12,0,0,12,128,191.2)" />
<use xlink:href="#f0_21" transform="matrix(12,0,0,12,136.4,191.2)" />
<use xlink:href="#f0_2b" transform="matrix(12,0,0,12,147.8,191.2)" />
<use xlink:href="#f0_2f" transform="matrix(12,0,0,12,157,191.2)" />
<use xlink:href="#f0_29" transform="matrix(12,0,0,12,163.6,191.2)" />
<use xlink:href="#f0_2b" transform="matrix(12,0,0,12,176.8,191.2)" />
<use xlink:href="#f0_2g" transform="matrix(12,0,0,12,186.4,191.2)" />
<use xlink:href="#f0_25" transform="matrix(12,0,0,12,191.5,191.2)" />
<use xlink:href="#f0_1z" transform="matrix(12,0,0,12,195.5,191.2)" />
<use xlink:href="#f0_2c" transform="matrix(12,0,0,12,206.6,191.2)" />
<use xlink:href="#f0_2e" transform="matrix(12,0,0,12,215.4,191.2)" />
<use xlink:href="#f0_21" transform="matrix(12,0,0,12,221.3,191.2)" />
<use xlink:href="#f0_2f" transform="matrix(12,0,0,12,229,191.2)" />
<use xlink:href="#f0_2f" transform="matrix(12,0,0,12,235.6,191.2)" />
<use xlink:href="#f0_2h" transform="matrix(12,0,0,12,242.6,191.2)" />
<use xlink:href="#f0_2e" transform="matrix(12,0,0,12,251.4,191.2)" />
<use xlink:href="#f0_21" transform="matrix(12,0,0,12,257.3,191.2)" />
<use xlink:href="#f0_29" transform="matrix(12,0,0,12,268.3,191.2)" />
<use xlink:href="#f0_21" transform="matrix(12,0,0,12,281.9,191.2)" />
<use xlink:href="#f0_2g" transform="matrix(12,0,0,12,289.6,191.2)" />
<use xlink:href="#f0_24" transform="matrix(12,0,0,12,294.7,191.2)" />
<use xlink:href="#f0_2b" transform="matrix(12,0,0,12,303.2,191.2)" />
<use xlink:href="#f0_20" transform="matrix(12,0,0,12,312.4,191.2)" />
<use xlink:href="#f0_24" transform="matrix(12,0,0,12,324.8,191.2)" />
<use xlink:href="#f0_1x" transform="matrix(12,0,0,12,333.3,191.2)" />
<use xlink:href="#f0_2f" transform="matrix(12,0,0,12,341,191.2)" />
<use xlink:href="#f0_2g" transform="matrix(12,0,0,12,351.3,191.2)" />
<use xlink:href="#f0_24" transform="matrix(12,0,0,12,356.4,191.2)" />
<use xlink:href="#f0_21" transform="matrix(12,0,0,12,364.9,191.2)" />
<use xlink:href="#f0_1x" transform="matrix(12,0,0,12,375.9,191.2)" />
<use xlink:href="#f0_20" transform="matrix(12,0,0,12,383.6,191.2)" />
<use xlink:href="#f0_2i" transform="matrix(12,0,0,12,392.5,191.2)" />
<use xlink:href="#f0_1x" transform="matrix(12,0,0,12,400.9,191.2)" />
<use xlink:href="#f0_2a" transform="matrix(12,0,0,12,408.6,191.2)" />
<use xlink:href="#f0_2g" transform="matrix(12,0,0,12,417.4,191.2)" />
<use xlink:href="#f0_1x" transform="matrix(12,0,0,12,422.6,191.2)" />
<use xlink:href="#f0_23" transform="matrix(12,0,0,12,430.3,191.2)" />
<use xlink:href="#f0_21" transform="matrix(12,0,0,12,439.1,191.2)" />
<use xlink:href="#f0_2b" transform="matrix(12,0,0,12,450.5,191.2)" />
<use xlink:href="#f0_2i" transform="matrix(12,0,0,12,459.7,191.2)" />
<use xlink:href="#f0_21" transform="matrix(12,0,0,12,468.1,191.2)" />
<use xlink:href="#f0_2e" transform="matrix(12,0,0,12,475.8,191.2)" />
<use xlink:href="#f0_2b" transform="matrix(12,0,0,12,485.4,191.2)" />
<use xlink:href="#f0_2g" transform="matrix(12,0,0,12,494.5,191.2)" />
<use xlink:href="#f0_24" transform="matrix(12,0,0,12,499.7,191.2)" />
<use xlink:href="#f0_21" transform="matrix(12,0,0,12,508.1,191.2)" />
<use xlink:href="#f0_2e" transform="matrix(12,0,0,12,516.2,191.2)" />
<use xlink:href="#f0_29" transform="matrix(12,0,0,12,525.4,191.2)" />
<use xlink:href="#f0_21" transform="matrix(12,0,0,12,538.6,191.2)" />
<use xlink:href="#f0_2g" transform="matrix(12,0,0,12,546.3,191.2)" />
<use xlink:href="#f0_24" transform="matrix(12,0,0,12,551.8,191.2)" />
<use xlink:href="#f0_2b" transform="matrix(12,0,0,12,560.3,191.2)" />
<use xlink:href="#f0_20" transform="matrix(12,0,0,12,569.4,191.2)" />
<use xlink:href="#f0_1x" transform="matrix(12,0,0,12,581.2,191.2)" />
<use xlink:href="#f0_2f" transform="matrix(12,0,0,12,589.3,191.2)" />
<use xlink:href="#f0_2c" transform="matrix(12,0,0,12,599.2,191.2)" />
<use xlink:href="#f0_2e" transform="matrix(12,0,0,12,608,191.2)" />
<use xlink:href="#f0_21" transform="matrix(12,0,0,12,613.9,191.2)" />
<use xlink:href="#f0_2f" transform="matrix(12,0,0,12,622,191.2)" />
<use xlink:href="#f0_2f" transform="matrix(12,0,0,12,628.6,191.2)" />
<use xlink:href="#f0_2h" transform="matrix(12,0,0,12,635.3,191.2)" />
<use xlink:href="#f0_2e" transform="matrix(12,0,0,12,644.1,191.2)" />
<use xlink:href="#f0_21" transform="matrix(12,0,0,12,650.3,191.2)" />
<use xlink:href="#f0_29" transform="matrix(12,0,0,12,661.3,191.2)" />
<use xlink:href="#f0_21" transform="matrix(12,0,0,12,674.5,191.2)" />
<use xlink:href="#f0_1x" transform="matrix(12,0,0,12,682.3,191.2)" />
<use xlink:href="#f0_2f" transform="matrix(12,0,0,12,690.3,191.2)" />
<use xlink:href="#f0_2h" transform="matrix(12,0,0,12,697,191.2)" />
<use xlink:href="#f0_2e" transform="matrix(12,0,0,12,705.8,191.2)" />
<use xlink:href="#f0_21" transform="matrix(12,0,0,12,711.7,191.2)" />
<use xlink:href="#f0_29" transform="matrix(12,0,0,12,719.4,191.2)" />
<use xlink:href="#f0_21" transform="matrix(12,0,0,12,733,191.2)" />
<use xlink:href="#f0_2a" transform="matrix(12,0,0,12,740.7,191.2)" />
<use xlink:href="#f0_2g" transform="matrix(12,0,0,12,749.1,191.2)" />
<use xlink:href="#f0_25" transform="matrix(12,0,0,12,757.6,191.2)" />
<use xlink:href="#f0_2f" transform="matrix(12,0,0,12,762,191.2)" />
<use xlink:href="#f0_1x" transform="matrix(12,0,0,12,771.5,191.2)" />
<use xlink:href="#f0_2e" transform="matrix(12,0,0,12,779.3,191.2)" />
<use xlink:href="#f0_2b" transform="matrix(12,0,0,12,785.5,191.2)" />
<use xlink:href="#f0_2h" transform="matrix(12,0,0,12,794.7,191.2)" />
<use xlink:href="#f0_2a" transform="matrix(12,0,0,12,803.5,191.2)" />
<use xlink:href="#f0_20" transform="matrix(12,0,0,12,811.9,191.2)" />
<use xlink:href="#f0_2g" transform="matrix(12,0,0,12,824.4,191.2)" />
<use xlink:href="#f0_24" transform="matrix(12,0,0,12,829.6,191.2)" />
<use xlink:href="#f0_21" transform="matrix(12,0,0,12,836.6,191.2)" />
<use xlink:href="#f0_2e" transform="matrix(12,0,0,12,117,215.7)" />
<use xlink:href="#f0_2b" transform="matrix(12,0,0,12,123.2,215.7)" />
<use xlink:href="#f0_2b" transform="matrix(12,0,0,12,132.7,215.7)" />
<use xlink:href="#f0_29" transform="matrix(12,0,0,12,141.9,215.7)" />
<use xlink:href="#f0_2g" transform="matrix(12,0,0,12,159.2,215.7)" />
<use xlink:href="#f0_21" transform="matrix(12,0,0,12,164.7,215.7)" />
<use xlink:href="#f0_29" transform="matrix(12,0,0,12,172.4,215.7)" />
<use xlink:href="#f0_2c" transform="matrix(12,0,0,12,185.9,215.7)" />
<use xlink:href="#f0_21" transform="matrix(12,0,0,12,195.1,215.7)" />
<use xlink:href="#f0_2e" transform="matrix(12,0,0,12,203.2,215.7)" />
<use xlink:href="#f0_1x" transform="matrix(12,0,0,12,209.1,215.7)" />
<use xlink:href="#f0_2g" transform="matrix(12,0,0,12,217.2,215.7)" />
<use xlink:href="#f0_2h" transform="matrix(12,0,0,12,222.7,215.7)" />
<use xlink:href="#f0_2e" transform="matrix(12,0,0,12,231.8,215.7)" />
<use xlink:href="#f0_21" transform="matrix(12,0,0,12,237.7,215.7)" />
<use xlink:href="#f0_1x" transform="matrix(12,0,0,12,249.5,215.7)" />
<use xlink:href="#f0_2a" transform="matrix(12,0,0,12,257.5,215.7)" />
<use xlink:href="#f0_20" transform="matrix(12,0,0,12,266,215.7)" />
<use xlink:href="#f0_2g" transform="matrix(12,0,0,12,278.5,215.7)" />
<use xlink:href="#f0_24" transform="matrix(12,0,0,12,284,215.7)" />
<use xlink:href="#f0_21" transform="matrix(12,0,0,12,292.4,215.7)" />
<use xlink:href="#f0_29" transform="matrix(12,0,0,12,304.2,215.7)" />
<use xlink:href="#f0_2b" transform="matrix(12,0,0,12,317.8,215.7)" />
<use xlink:href="#f0_28" transform="matrix(12,0,0,12,326.9,215.7)" />
<use xlink:href="#f0_1x" transform="matrix(12,0,0,12,331.3,215.7)" />
<use xlink:href="#f0_2e" transform="matrix(12,0,0,12,339.4,215.7)" />
<use xlink:href="#f0_25" transform="matrix(12,0,0,12,345.7,215.7)" />
<use xlink:href="#f0_2g" transform="matrix(12,0,0,12,349.7,215.7)" />
<use xlink:href="#f0_2l" transform="matrix(12,0,0,12,355.2,215.7)" />
<use xlink:href="#f0_2b" transform="matrix(12,0,0,12,367.3,215.7)" />
<use xlink:href="#f0_22" transform="matrix(12,0,0,12,376.9,215.7)" />
<use xlink:href="#f0_2g" transform="matrix(12,0,0,12,385.7,215.7)" />
<use xlink:href="#f0_24" transform="matrix(12,0,0,12,391.2,215.7)" />
<use xlink:href="#f0_21" transform="matrix(12,0,0,12,400,215.7)" />
<use xlink:href="#f0_2f" transform="matrix(12,0,0,12,411,215.7)" />
<use xlink:href="#f0_2b" transform="matrix(12,0,0,12,418,215.7)" />
<use xlink:href="#f0_28" transform="matrix(12,0,0,12,427.6,215.7)" />
<use xlink:href="#f0_2h" transform="matrix(12,0,0,12,431.6,215.7)" />
<use xlink:href="#f0_2g" transform="matrix(12,0,0,12,440.8,215.7)" />
<use xlink:href="#f0_25" transform="matrix(12,0,0,12,446.3,215.7)" />
<use xlink:href="#f0_2b" transform="matrix(12,0,0,12,450.7,215.7)" />
<use xlink:href="#f0_2a" transform="matrix(12,0,0,12,459.9,215.7)" />
<use xlink:href="#f0_25" transform="matrix(12,0,0,12,472.4,215.7)" />
<use xlink:href="#f0_2f" transform="matrix(12,0,0,12,476.8,215.7)" />
<use xlink:href="#f0_2h" transform="matrix(12,0,0,12,487.1,215.7)" />
<use xlink:href="#f0_2f" transform="matrix(12,0,0,12,496.2,215.7)" />
<use xlink:href="#f0_21" transform="matrix(12,0,0,12,503.2,215.7)" />
<use xlink:href="#f0_20" transform="matrix(12,0,0,12,510.9,215.7)" />
<use xlink:href="#f0_25" transform="matrix(12,0,0,12,523.8,215.7)" />
<use xlink:href="#f0_2a" transform="matrix(12,0,0,12,528.2,215.7)" />
<use xlink:href="#f0_2f" transform="matrix(12,0,0,12,536.6,215.7)" />
<use xlink:href="#f0_2g" transform="matrix(12,0,0,12,543.6,215.7)" />
<use xlink:href="#f0_21" transform="matrix(12,0,0,12,549.1,215.7)" />
<use xlink:href="#f0_1x" transform="matrix(12,0,0,12,557.2,215.7)" />
<use xlink:href="#f0_20" transform="matrix(12,0,0,12,564.9,215.7)" />
<use xlink:href="#f0_2b" transform="matrix(12,0,0,12,577.4,215.7)" />
<use xlink:href="#f0_22" transform="matrix(12,0,0,12,586.9,215.7)" />
<use xlink:href="#f0_29" transform="matrix(12,0,0,12,595.8,215.7)" />
<use xlink:href="#f0_2b" transform="matrix(12,0,0,12,609.4,215.7)" />
<use xlink:href="#f0_28" transform="matrix(12,0,0,12,618.9,215.7)" />
<use xlink:href="#f0_1x" transform="matrix(12,0,0,12,623.3,215.7)" />
<use xlink:href="#f0_28" transform="matrix(12,0,0,12,631,215.7)" />
<use xlink:href="#f0_25" transform="matrix(12,0,0,12,635.4,215.7)" />
<use xlink:href="#f0_2g" transform="matrix(12,0,0,12,639.8,215.7)" />
<use xlink:href="#f0_2l" transform="matrix(12,0,0,12,645.3,215.7)" />
<use xlink:href="#f0_i" transform="matrix(12,0,0,12,652.3,215.7)" />
<use xlink:href="#f0_11" transform="matrix(12,0,0,12,659.7,215.7)" />
<use xlink:href="#f0_28" transform="matrix(12,0,0,12,672.5,215.7)" />
<use xlink:href="#f0_2f" transform="matrix(12,0,0,12,676.6,215.7)" />
<use xlink:href="#f0_2b" transform="matrix(12,0,0,12,683.6,215.7)" />
<use xlink:href="#f0_1x" transform="matrix(12,0,0,12,696.8,215.7)" />
<use xlink:href="#f0_2f" transform="matrix(12,0,0,12,704.5,215.7)" />
<use xlink:href="#f0_1z" transform="matrix(12,0,0,12,714.8,215.7)" />
<use xlink:href="#f0_2b" transform="matrix(12,0,0,12,722.9,215.7)" />
<use xlink:href="#f0_29" transform="matrix(12,0,0,12,732,215.7)" />
<use xlink:href="#f0_2c" transform="matrix(12,0,0,12,745.6,215.7)" />
<use xlink:href="#f0_1x" transform="matrix(12,0,0,12,754.8,215.7)" />
<use xlink:href="#f0_2e" transform="matrix(12,0,0,12,762.9,215.7)" />
<use xlink:href="#f0_21" transform="matrix(12,0,0,12,768.7,215.7)" />
<use xlink:href="#f0_20" transform="matrix(12,0,0,12,776.8,215.7)" />
<use xlink:href="#f0_2g" transform="matrix(12,0,0,12,789.7,215.7)" />
<use xlink:href="#f0_2b" transform="matrix(12,0,0,12,794.8,215.7)" />
<use xlink:href="#f0_2b" transform="matrix(12,0,0,12,808,215.7)" />
<use xlink:href="#f0_2g" transform="matrix(12,0,0,12,816.5,215.7)" />
<use xlink:href="#f0_24" transform="matrix(12,0,0,12,821.6,215.7)" />
<use xlink:href="#f0_21" transform="matrix(12,0,0,12,830.4,215.7)" />
<use xlink:href="#f0_2e" transform="matrix(12,0,0,12,838.5,215.7)" />
<use xlink:href="#f0_1z" transform="matrix(12,0,0,12,64.9,240.3)" />
<use xlink:href="#f0_2b" transform="matrix(12,0,0,12,73,240.3)" />
<use xlink:href="#f0_28" transform="matrix(12,0,0,12,82.2,240.3)" />
<use xlink:href="#f0_28" transform="matrix(12,0,0,12,87.3,240.3)" />
<use xlink:href="#f0_25" transform="matrix(12,0,0,12,92.4,240.3)" />
<use xlink:href="#f0_23" transform="matrix(12,0,0,12,97.5,240.3)" />
<use xlink:href="#f0_1x" transform="matrix(12,0,0,12,106.7,240.3)" />
<use xlink:href="#f0_2g" transform="matrix(12,0,0,12,114.8,240.3)" />
<use xlink:href="#f0_25" transform="matrix(12,0,0,12,119.9,240.3)" />
<use xlink:href="#f0_2i" transform="matrix(12,0,0,12,125,240.3)" />
<use xlink:href="#f0_21" transform="matrix(12,0,0,12,134.1,240.3)" />
<use xlink:href="#f0_2c" transform="matrix(12,0,0,12,144.8,240.3)" />
<use xlink:href="#f0_2e" transform="matrix(12,0,0,12,154,240.3)" />
<use xlink:href="#f0_2b" transform="matrix(12,0,0,12,160.1,240.3)" />
<use xlink:href="#f0_2c" transform="matrix(12,0,0,12,169.2,240.3)" />
<use xlink:href="#f0_21" transform="matrix(12,0,0,12,178.4,240.3)" />
<use xlink:href="#f0_2e" transform="matrix(12,0,0,12,186.5,240.3)" />
<use xlink:href="#f0_2g" transform="matrix(12,0,0,12,192.6,240.3)" />
<use xlink:href="#f0_2l" transform="matrix(12,0,0,12,197.7,240.3)" />
<use xlink:href="#f0_25" transform="matrix(12,0,0,12,209.1,240.3)" />
<use xlink:href="#f0_2g" transform="matrix(12,0,0,12,214.2,240.3)" />
<use xlink:href="#f0_2f" transform="matrix(12,0,0,12,219.3,240.3)" />
<use xlink:href="#f0_29" transform="matrix(12,0,0,12,228.9,240.3)" />
<use xlink:href="#f0_1x" transform="matrix(12,0,0,12,243.1,240.3)" />
<use xlink:href="#f0_23" transform="matrix(12,0,0,12,251.3,240.3)" />
<use xlink:href="#f0_2a" transform="matrix(12,0,0,12,260.4,240.3)" />
<use xlink:href="#f0_25" transform="matrix(12,0,0,12,269.6,240.3)" />
<use xlink:href="#f0_2g" transform="matrix(12,0,0,12,274.7,240.3)" />
<use xlink:href="#f0_2h" transform="matrix(12,0,0,12,279.8,240.3)" />
<use xlink:href="#f0_20" transform="matrix(12,0,0,12,289,240.3)" />
<use xlink:href="#f0_21" transform="matrix(12,0,0,12,298.1,240.3)" />
<use xlink:href="#f0_25" transform="matrix(12,0,0,12,308.8,240.3)" />
<use xlink:href="#f0_2f" transform="matrix(12,0,0,12,313.9,240.3)" />
<use xlink:href="#f0_28" transform="matrix(12,0,0,12,323.8,240.3)" />
<use xlink:href="#f0_1x" transform="matrix(12,0,0,12,328.9,240.3)" />
<use xlink:href="#f0_2e" transform="matrix(12,0,0,12,337,240.3)" />
<use xlink:href="#f0_23" transform="matrix(12,0,0,12,343.1,240.3)" />
<use xlink:href="#f0_21" transform="matrix(12,0,0,12,352.3,240.3)" />
<use xlink:href="#f0_21" transform="matrix(12,0,0,12,363.3,240.3)" />
<use xlink:href="#f0_2i" transform="matrix(12,0,0,12,371.5,240.3)" />
<use xlink:href="#f0_21" transform="matrix(12,0,0,12,380.6,240.3)" />
<use xlink:href="#f0_2a" transform="matrix(12,0,0,12,388.8,240.3)" />
<use xlink:href="#f0_22" transform="matrix(12,0,0,12,400.2,240.3)" />
<use xlink:href="#f0_2b" transform="matrix(12,0,0,12,406.3,240.3)" />
<use xlink:href="#f0_2e" transform="matrix(12,0,0,12,415.4,240.3)" />
<use xlink:href="#f0_20" transform="matrix(12,0,0,12,424.6,240.3)" />
<use xlink:href="#f0_25" transform="matrix(12,0,0,12,433.8,240.3)" />
<use xlink:href="#f0_28" transform="matrix(12,0,0,12,438.9,240.3)" />
<use xlink:href="#f0_2h" transform="matrix(12,0,0,12,444,240.3)" />
<use xlink:href="#f0_2g" transform="matrix(12,0,0,12,453.2,240.3)" />
<use xlink:href="#f0_21" transform="matrix(12,0,0,12,458.3,240.3)" />
<use xlink:href="#f0_2f" transform="matrix(12,0,0,12,469.3,240.3)" />
<use xlink:href="#f0_2b" transform="matrix(12,0,0,12,476.4,240.3)" />
<use xlink:href="#f0_28" transform="matrix(12,0,0,12,485.6,240.3)" />
<use xlink:href="#f0_2h" transform="matrix(12,0,0,12,490.7,240.3)" />
<use xlink:href="#f0_2g" transform="matrix(12,0,0,12,499.8,240.3)" />
<use xlink:href="#f0_25" transform="matrix(12,0,0,12,504.9,240.3)" />
<use xlink:href="#f0_2b" transform="matrix(12,0,0,12,510,240.3)" />
<use xlink:href="#f0_2a" transform="matrix(12,0,0,12,519.2,240.3)" />
<use xlink:href="#f0_i" transform="matrix(12,0,0,12,528.4,240.3)" />
<use xlink:href="#f0_c" transform="matrix(12,0,0,12,117,342.2)" />
<use xlink:href="#f0_1y" transform="matrix(12,0,0,12,122.8,342.2)" />
<use xlink:href="#f0_d" transform="matrix(12,0,0,12,131.3,342.2)" />
<use xlink:href="#f0_11" transform="matrix(12,0,0,12,155.8,342.2)" />
<use xlink:href="#f0_2d" transform="matrix(12,0,0,12,168.3,342.2)" />
<use xlink:href="#f0_2h" transform="matrix(12,0,0,12,177.5,342.2)" />
<use xlink:href="#f0_1x" transform="matrix(12,0,0,12,186.3,342.2)" />
<use xlink:href="#f0_2g" transform="matrix(12,0,0,12,194,342.2)" />
<use xlink:href="#f0_25" transform="matrix(12,0,0,12,199.5,342.2)" />
<use xlink:href="#f0_1z" transform="matrix(12,0,0,12,203.6,342.2)" />
<use xlink:href="#f0_1x" transform="matrix(12,0,0,12,215,342.2)" />
<use xlink:href="#f0_2a" transform="matrix(12,0,0,12,222.7,342.2)" />
<use xlink:href="#f0_25" transform="matrix(12,0,0,12,231.1,342.2)" />
<use xlink:href="#f0_29" transform="matrix(12,0,0,12,235.5,342.2)" />
<use xlink:href="#f0_1x" transform="matrix(12,0,0,12,248.7,342.2)" />
<use xlink:href="#f0_28" transform="matrix(12,0,0,12,256.5,342.2)" />
<use xlink:href="#f0_2f" transform="matrix(12,0,0,12,260.5,342.2)" />
<use xlink:href="#f0_1x" transform="matrix(12,0,0,12,270.4,342.2)" />
<use xlink:href="#f0_2e" transform="matrix(12,0,0,12,278.2,342.2)" />
<use xlink:href="#f0_21" transform="matrix(12,0,0,12,284.4,342.2)" />
<use xlink:href="#f0_29" transform="matrix(12,0,0,12,295.4,342.2)" />
<use xlink:href="#f0_2b" transform="matrix(12,0,0,12,309,342.2)" />
<use xlink:href="#f0_2e" transform="matrix(12,0,0,12,318.2,342.2)" />
<use xlink:href="#f0_21" transform="matrix(12,0,0,12,324,342.2)" />
<use xlink:href="#f0_1z" transform="matrix(12,0,0,12,335.4,342.2)" />
<use xlink:href="#f0_2b" transform="matrix(12,0,0,12,343.2,342.2)" />
<use xlink:href="#f0_29" transform="matrix(12,0,0,12,352.7,342.2)" />
<use xlink:href="#f0_22" transform="matrix(12,0,0,12,365.9,342.2)" />
<use xlink:href="#f0_2b" transform="matrix(12,0,0,12,371.1,342.2)" />
<use xlink:href="#f0_2e" transform="matrix(12,0,0,12,380.6,342.2)" />
<use xlink:href="#f0_2g" transform="matrix(12,0,0,12,386.5,342.2)" />
<use xlink:href="#f0_1x" transform="matrix(12,0,0,12,391.6,342.2)" />
<use xlink:href="#f0_1y" transform="matrix(12,0,0,12,399.7,342.2)" />
<use xlink:href="#f0_28" transform="matrix(12,0,0,12,408.1,342.2)" />
<use xlink:href="#f0_21" transform="matrix(12,0,0,12,412.2,342.2)" />
<use xlink:href="#f0_25" transform="matrix(12,0,0,12,423.6,342.2)" />
<use xlink:href="#f0_2a" transform="matrix(12,0,0,12,427.6,342.2)" />
<use xlink:href="#f0_1z" transform="matrix(12,0,0,12,439.4,342.2)" />
<use xlink:href="#f0_2b" transform="matrix(12,0,0,12,447.1,342.2)" />
<use xlink:href="#f0_28" transform="matrix(12,0,0,12,456.3,342.2)" />
<use xlink:href="#f0_20" transform="matrix(12,0,0,12,460.7,342.2)" />
<use xlink:href="#f0_2j" transform="matrix(12,0,0,12,472.8,342.2)" />
<use xlink:href="#f0_1x" transform="matrix(12,0,0,12,486,342.2)" />
<use xlink:href="#f0_2g" transform="matrix(12,0,0,12,493.8,342.2)" />
<use xlink:href="#f0_21" transform="matrix(12,0,0,12,498.9,342.2)" />
<use xlink:href="#f0_2e" transform="matrix(12,0,0,12,507,342.2)" />
<use xlink:href="#f0_2g" transform="matrix(12,0,0,12,516.2,342.2)" />
<use xlink:href="#f0_24" transform="matrix(12,0,0,12,521.7,342.2)" />
<use xlink:href="#f0_1x" transform="matrix(12,0,0,12,530.1,342.2)" />
<use xlink:href="#f0_2a" transform="matrix(12,0,0,12,537.8,342.2)" />
<use xlink:href="#f0_25" transform="matrix(12,0,0,12,550,342.2)" />
<use xlink:href="#f0_2a" transform="matrix(12,0,0,12,554,342.2)" />
<use xlink:href="#f0_2j" transform="matrix(12,0,0,12,565.8,342.2)" />
<use xlink:href="#f0_1x" transform="matrix(12,0,0,12,578.6,342.2)" />
<use xlink:href="#f0_2e" transform="matrix(12,0,0,12,586.3,342.2)" />
<use xlink:href="#f0_29" transform="matrix(12,0,0,12,592.6,342.2)" />
<use xlink:href="#f0_2j" transform="matrix(12,0,0,12,609.1,342.2)" />
<use xlink:href="#f0_1x" transform="matrix(12,0,0,12,622.3,342.2)" />
<use xlink:href="#f0_2g" transform="matrix(12,0,0,12,630,342.2)" />
<use xlink:href="#f0_21" transform="matrix(12,0,0,12,635.2,342.2)" />
<use xlink:href="#f0_2e" transform="matrix(12,0,0,12,643.2,342.2)" />
<use xlink:href="#f0_i" transform="matrix(12,0,0,12,648,342.2)" />
<use xlink:href="#f0_11" transform="matrix(12,0,0,12,64.9,371)" />
<use xlink:href="#f0_2a" transform="matrix(12,0,0,12,78.1,371)" />
<use xlink:href="#f0_2f" transform="matrix(12,0,0,12,87.3,371)" />
<use xlink:href="#f0_i" transform="matrix(12,0,0,12,94.4,371)" />
<use xlink:href="#f0_12" transform="matrix(12,0,0,12,119,371)" />
<use xlink:href="#f0_21" transform="matrix(12,0,0,12,131.2,371)" />
<use xlink:href="#f0_1z" transform="matrix(12,0,0,12,139.3,371)" />
<use xlink:href="#f0_1x" transform="matrix(12,0,0,12,147.5,371)" />
<use xlink:href="#f0_2h" transform="matrix(12,0,0,12,155.6,371)" />
<use xlink:href="#f0_2f" transform="matrix(12,0,0,12,164.8,371)" />
<use xlink:href="#f0_21" transform="matrix(12,0,0,12,171.9,371)" />
<use xlink:href="#f0_25" transform="matrix(12,0,0,12,183.3,371)" />
<use xlink:href="#f0_2a" transform="matrix(12,0,0,12,188.4,371)" />
<use xlink:href="#f0_1z" transform="matrix(12,0,0,12,200.1,371)" />
<use xlink:href="#f0_2b" transform="matrix(12,0,0,12,208.3,371)" />
<use xlink:href="#f0_28" transform="matrix(12,0,0,12,217.4,371)" />
<use xlink:href="#f0_20" transform="matrix(12,0,0,12,222.5,371)" />
<use xlink:href="#f0_2j" transform="matrix(12,0,0,12,235,371)" />
<use xlink:href="#f0_1x" transform="matrix(12,0,0,12,248.3,371)" />
<use xlink:href="#f0_2g" transform="matrix(12,0,0,12,256.4,371)" />
<use xlink:href="#f0_21" transform="matrix(12,0,0,12,261.5,371)" />
<use xlink:href="#f0_2e" transform="matrix(12,0,0,12,269.6,371)" />
<use xlink:href="#f0_29" transform="matrix(12,0,0,12,279.2,371)" />
<use xlink:href="#f0_2b" transform="matrix(12,0,0,12,293.4,371)" />
<use xlink:href="#f0_2e" transform="matrix(12,0,0,12,302.6,371)" />
<use xlink:href="#f0_21" transform="matrix(12,0,0,12,308.7,371)" />
<use xlink:href="#f0_2b" transform="matrix(12,0,0,12,320.1,371)" />
<use xlink:href="#f0_2k" transform="matrix(12,0,0,12,329.3,371)" />
<use xlink:href="#f0_2l" transform="matrix(12,0,0,12,338.4,371)" />
<use xlink:href="#f0_23" transform="matrix(12,0,0,12,346.5,371)" />
<use xlink:href="#f0_21" transform="matrix(12,0,0,12,355.7,371)" />
<use xlink:href="#f0_2a" transform="matrix(12,0,0,12,363.8,371)" />
<use xlink:href="#f0_25" transform="matrix(12,0,0,12,375.6,371)" />
<use xlink:href="#f0_2f" transform="matrix(12,0,0,12,380.7,371)" />
<use xlink:href="#f0_20" transform="matrix(12,0,0,12,391,371)" />
<use xlink:href="#f0_25" transform="matrix(12,0,0,12,400.2,371)" />
<use xlink:href="#f0_2f" transform="matrix(12,0,0,12,405.2,371)" />
<use xlink:href="#f0_2f" transform="matrix(12,0,0,12,412.4,371)" />
<use xlink:href="#f0_2b" transform="matrix(12,0,0,12,419.5,371)" />
<use xlink:href="#f0_28" transform="matrix(12,0,0,12,428.7,371)" />
<use xlink:href="#f0_2i" transform="matrix(12,0,0,12,433.8,371)" />
<use xlink:href="#f0_21" transform="matrix(12,0,0,12,442.9,371)" />
<use xlink:href="#f0_20" transform="matrix(12,0,0,12,451.1,371)" />
<use xlink:href="#f0_i" transform="matrix(12,0,0,12,460.2,371)" />
<use xlink:href="#f0_c" transform="matrix(12,0,0,12,117,473.1)" />
<use xlink:href="#f0_1z" transform="matrix(12,0,0,12,122.5,473.1)" />
<use xlink:href="#f0_d" transform="matrix(12,0,0,12,130.2,473.1)" />
<use xlink:href="#f0_15" transform="matrix(12,0,0,12,155.8,473.1)" />
<use xlink:href="#f0_28" transform="matrix(12,0,0,12,166.8,473.1)" />
<use xlink:href="#f0_21" transform="matrix(12,0,0,12,171.3,473.1)" />
<use xlink:href="#f0_2i" transform="matrix(12,0,0,12,179,473.1)" />
<use xlink:href="#f0_1x" transform="matrix(12,0,0,12,187.4,473.1)" />
<use xlink:href="#f0_2g" transform="matrix(12,0,0,12,195.1,473.1)" />
<use xlink:href="#f0_25" transform="matrix(12,0,0,12,200.6,473.1)" />
<use xlink:href="#f0_2b" transform="matrix(12,0,0,12,204.7,473.1)" />
<use xlink:href="#f0_2a" transform="matrix(12,0,0,12,213.8,473.1)" />
<use xlink:href="#f0_2b" transform="matrix(12,0,0,12,226,473.1)" />
<use xlink:href="#f0_22" transform="matrix(12,0,0,12,235.1,473.1)" />
<use xlink:href="#f0_1y" transform="matrix(12,0,0,12,244,473.1)" />
<use xlink:href="#f0_2b" transform="matrix(12,0,0,12,252.4,473.1)" />
<use xlink:href="#f0_25" transform="matrix(12,0,0,12,261.6,473.1)" />
<use xlink:href="#f0_28" transform="matrix(12,0,0,12,266,473.1)" />
<use xlink:href="#f0_25" transform="matrix(12,0,0,12,270.1,473.1)" />
<use xlink:href="#f0_2a" transform="matrix(12,0,0,12,274.1,473.1)" />
<use xlink:href="#f0_23" transform="matrix(12,0,0,12,282.6,473.1)" />
<use xlink:href="#f0_2c" transform="matrix(12,0,0,12,294.7,473.1)" />
<use xlink:href="#f0_2b" transform="matrix(12,0,0,12,303.5,473.1)" />
<use xlink:href="#f0_25" transform="matrix(12,0,0,12,313,473.1)" />
<use xlink:href="#f0_2a" transform="matrix(12,0,0,12,317.1,473.1)" />
<use xlink:href="#f0_2g" transform="matrix(12,0,0,12,325.5,473.1)" />
<use xlink:href="#f0_2b" transform="matrix(12,0,0,12,334.3,473.1)" />
<use xlink:href="#f0_22" transform="matrix(12,0,0,12,343.5,473.1)" />
<use xlink:href="#f0_l" transform="matrix(12,0,0,12,352.3,473.1)" />
<use xlink:href="#f0_1d" transform="matrix(12,0,0,12,364.5,473.1)" />
<use xlink:href="#f0_1b" transform="matrix(12,0,0,12,383.6,473.1)" />
<use xlink:href="#f0_13" transform="matrix(12,0,0,12,396,473.1)" />
<use xlink:href="#f0_28" transform="matrix(12,0,0,12,407.8,473.1)" />
<use xlink:href="#f0_2f" transform="matrix(12,0,0,12,415.5,473.1)" />
<use xlink:href="#f0_2b" transform="matrix(12,0,0,12,422.1,473.1)" />
<use xlink:href="#f0_28" transform="matrix(12,0,0,12,431.3,473.1)" />
<use xlink:href="#f0_2h" transform="matrix(12,0,0,12,435.7,473.1)" />
<use xlink:href="#f0_2g" transform="matrix(12,0,0,12,444.5,473.1)" />
<use xlink:href="#f0_25" transform="matrix(12,0,0,12,449.7,473.1)" />
<use xlink:href="#f0_2b" transform="matrix(12,0,0,12,454.1,473.1)" />
<use xlink:href="#f0_2a" transform="matrix(12,0,0,12,463.3,473.1)" />
<use xlink:href="#f0_25" transform="matrix(12,0,0,12,475,473.1)" />
<use xlink:href="#f0_2f" transform="matrix(12,0,0,12,479.4,473.1)" />
<use xlink:href="#f0_2a" transform="matrix(12,0,0,12,489.4,473.1)" />
<use xlink:href="#f0_21" transform="matrix(12,0,0,12,497.8,473.1)" />
<use xlink:href="#f0_1x" transform="matrix(12,0,0,12,505.9,473.1)" />
<use xlink:href="#f0_2e" transform="matrix(12,0,0,12,513.6,473.1)" />
<use xlink:href="#f0_28" transform="matrix(12,0,0,12,519.5,473.1)" />
<use xlink:href="#f0_2l" transform="matrix(12,0,0,12,523.9,473.1)" />
<use xlink:href="#f0_20" transform="matrix(12,0,0,12,535.3,473.1)" />
<use xlink:href="#f0_2b" transform="matrix(12,0,0,12,544.1,473.1)" />
<use xlink:href="#f0_2h" transform="matrix(12,0,0,12,553.7,473.1)" />
<use xlink:href="#f0_1y" transform="matrix(12,0,0,12,562.5,473.1)" />
<use xlink:href="#f0_28" transform="matrix(12,0,0,12,570.9,473.1)" />
<use xlink:href="#f0_21" transform="matrix(12,0,0,12,575.3,473.1)" />
<use xlink:href="#f0_2g" transform="matrix(12,0,0,12,586,473.1)" />
<use xlink:href="#f0_24" transform="matrix(12,0,0,12,591.1,473.1)" />
<use xlink:href="#f0_1x" transform="matrix(12,0,0,12,600,473.1)" />
<use xlink:href="#f0_2a" transform="matrix(12,0,0,12,607.7,473.1)" />
<use xlink:href="#f0_2g" transform="matrix(12,0,0,12,619.8,473.1)" />
<use xlink:href="#f0_24" transform="matrix(12,0,0,12,624.9,473.1)" />
<use xlink:href="#f0_1x" transform="matrix(12,0,0,12,633.4,473.1)" />
<use xlink:href="#f0_2g" transform="matrix(12,0,0,12,641.1,473.1)" />
<use xlink:href="#f0_2b" transform="matrix(12,0,0,12,649.9,473.1)" />
<use xlink:href="#f0_22" transform="matrix(12,0,0,12,659.1,473.1)" />
<use xlink:href="#f0_l" transform="matrix(12,0,0,12,667.9,473.1)" />
<use xlink:href="#f0_1d" transform="matrix(12,0,0,12,679.7,473.1)" />
<use xlink:href="#f0_2f" transform="matrix(12,0,0,12,699.1,473.1)" />
<use xlink:href="#f0_2h" transform="matrix(12,0,0,12,705.8,473.1)" />
<use xlink:href="#f0_23" transform="matrix(12,0,0,12,714.9,473.1)" />
<use xlink:href="#f0_1x" transform="matrix(12,0,0,12,723.7,473.1)" />
<use xlink:href="#f0_2e" transform="matrix(12,0,0,12,731.5,473.1)" />
<use xlink:href="#f0_2f" transform="matrix(12,0,0,12,741,473.1)" />
<use xlink:href="#f0_2b" transform="matrix(12,0,0,12,747.6,473.1)" />
<use xlink:href="#f0_28" transform="matrix(12,0,0,12,756.8,473.1)" />
<use xlink:href="#f0_2h" transform="matrix(12,0,0,12,761.2,473.1)" />
<use xlink:href="#f0_2g" transform="matrix(12,0,0,12,770,473.1)" />
<use xlink:href="#f0_25" transform="matrix(12,0,0,12,775.2,473.1)" />
<use xlink:href="#f0_2b" transform="matrix(12,0,0,12,779.2,473.1)" />
<use xlink:href="#f0_2a" transform="matrix(12,0,0,12,788.7,473.1)" />
<use xlink:href="#f0_i" transform="matrix(12,0,0,12,797.2,473.1)" />
<use xlink:href="#f0_11" transform="matrix(12,0,0,12,64.9,501.7)" />
<use xlink:href="#f0_2a" transform="matrix(12,0,0,12,77.4,501.7)" />
<use xlink:href="#f0_2f" transform="matrix(12,0,0,12,85.8,501.7)" />
<use xlink:href="#f0_i" transform="matrix(12,0,0,12,92.5,501.7)" />
<use xlink:href="#f0_11" transform="matrix(12,0,0,12,117,501.7)" />
<use xlink:href="#f0_2f" transform="matrix(12,0,0,12,129.8,501.7)" />
<use xlink:href="#f0_1z" transform="matrix(12,0,0,12,140.5,501.7)" />
<use xlink:href="#f0_2b" transform="matrix(12,0,0,12,148.6,501.7)" />
<use xlink:href="#f0_28" transform="matrix(12,0,0,12,158.1,501.7)" />
<use xlink:href="#f0_28" transform="matrix(12,0,0,12,162.5,501.7)" />
<use xlink:href="#f0_25" transform="matrix(12,0,0,12,166.9,501.7)" />
<use xlink:href="#f0_23" transform="matrix(12,0,0,12,171.3,501.7)" />
<use xlink:href="#f0_1x" transform="matrix(12,0,0,12,180.5,501.7)" />
<use xlink:href="#f0_2g" transform="matrix(12,0,0,12,188.6,501.7)" />
<use xlink:href="#f0_25" transform="matrix(12,0,0,12,194.1,501.7)" />
<use xlink:href="#f0_2i" transform="matrix(12,0,0,12,198.5,501.7)" />
<use xlink:href="#f0_21" transform="matrix(12,0,0,12,207.3,501.7)" />
<use xlink:href="#f0_2c" transform="matrix(12,0,0,12,219.5,501.7)" />
<use xlink:href="#f0_2e" transform="matrix(12,0,0,12,228.6,501.7)" />
<use xlink:href="#f0_2b" transform="matrix(12,0,0,12,234.9,501.7)" />
<use xlink:href="#f0_2c" transform="matrix(12,0,0,12,244.4,501.7)" />
<use xlink:href="#f0_21" transform="matrix(12,0,0,12,253.5,501.7)" />
<use xlink:href="#f0_2e" transform="matrix(12,0,0,12,261.6,501.7)" />
<use xlink:href="#f0_2g" transform="matrix(12,0,0,12,267.9,501.7)" />
<use xlink:href="#f0_2l" transform="matrix(12,0,0,12,273.4,501.7)" />
<use xlink:href="#f0_20" transform="matrix(12,0,0,12,285.5,501.7)" />
<use xlink:href="#f0_21" transform="matrix(12,0,0,12,294.7,501.7)" />
<use xlink:href="#f0_2c" transform="matrix(12,0,0,12,302.7,501.7)" />
<use xlink:href="#f0_21" transform="matrix(12,0,0,12,311.9,501.7)" />
<use xlink:href="#f0_2a" transform="matrix(12,0,0,12,320,501.7)" />
<use xlink:href="#f0_20" transform="matrix(12,0,0,12,328.8,501.7)" />
<use xlink:href="#f0_2f" transform="matrix(12,0,0,12,338,501.7)" />
<use xlink:href="#f0_2b" transform="matrix(12,0,0,12,348.6,501.7)" />
<use xlink:href="#f0_2a" transform="matrix(12,0,0,12,358.2,501.7)" />
<use xlink:href="#f0_28" transform="matrix(12,0,0,12,367,501.7)" />
<use xlink:href="#f0_2l" transform="matrix(12,0,0,12,371.4,501.7)" />
<use xlink:href="#f0_2b" transform="matrix(12,0,0,12,383.9,501.7)" />
<use xlink:href="#f0_2a" transform="matrix(12,0,0,12,393.4,501.7)" />
<use xlink:href="#f0_2a" transform="matrix(12,0,0,12,405.9,501.7)" />
<use xlink:href="#f0_2h" transform="matrix(12,0,0,12,414.7,501.7)" />
<use xlink:href="#f0_29" transform="matrix(12,0,0,12,423.9,501.7)" />
<use xlink:href="#f0_1y" transform="matrix(12,0,0,12,437.5,501.7)" />
<use xlink:href="#f0_21" transform="matrix(12,0,0,12,446.3,501.7)" />
<use xlink:href="#f0_2e" transform="matrix(12,0,0,12,454.4,501.7)" />
<use xlink:href="#f0_2b" transform="matrix(12,0,0,12,464.3,501.7)" />
<use xlink:href="#f0_22" transform="matrix(12,0,0,12,473.8,501.7)" />
<use xlink:href="#f0_2c" transform="matrix(12,0,0,12,483.4,501.7)" />
<use xlink:href="#f0_1x" transform="matrix(12,0,0,12,492.6,501.7)" />
<use xlink:href="#f0_2e" transform="matrix(12,0,0,12,500.6,501.7)" />
<use xlink:href="#f0_2g" transform="matrix(12,0,0,12,506.9,501.7)" />
<use xlink:href="#f0_25" transform="matrix(12,0,0,12,512.4,501.7)" />
<use xlink:href="#f0_1z" transform="matrix(12,0,0,12,516.8,501.7)" />
<use xlink:href="#f0_28" transform="matrix(12,0,0,12,524.9,501.7)" />
<use xlink:href="#f0_21" transform="matrix(12,0,0,12,529.3,501.7)" />
<use xlink:href="#f0_1x" transform="matrix(12,0,0,12,541,501.7)" />
<use xlink:href="#f0_2a" transform="matrix(12,0,0,12,549.1,501.7)" />
<use xlink:href="#f0_20" transform="matrix(12,0,0,12,557.9,501.7)" />
<use xlink:href="#f0_1b" transform="matrix(12,0,0,12,570.8,501.7)" />
<use xlink:href="#f0_13" transform="matrix(12,0,0,12,583.6,501.7)" />
<use xlink:href="#f0_28" transform="matrix(12,0,0,12,595.8,501.7)" />
<use xlink:href="#f0_1x" transform="matrix(12,0,0,12,604.2,501.7)" />
<use xlink:href="#f0_2f" transform="matrix(12,0,0,12,612.3,501.7)" />
<use xlink:href="#f0_21" transform="matrix(12,0,0,12,623,501.7)" />
<use xlink:href="#f0_28" transform="matrix(12,0,0,12,631.1,501.7)" />
<use xlink:href="#f0_21" transform="matrix(12,0,0,12,635.5,501.7)" />
<use xlink:href="#f0_1z" transform="matrix(12,0,0,12,643.6,501.7)" />
<use xlink:href="#f0_2g" transform="matrix(12,0,0,12,651.6,501.7)" />
<use xlink:href="#f0_2e" transform="matrix(12,0,0,12,657.1,501.7)" />
<use xlink:href="#f0_2b" transform="matrix(12,0,0,12,663.4,501.7)" />
<use xlink:href="#f0_28" transform="matrix(12,0,0,12,672.9,501.7)" />
<use xlink:href="#f0_2l" transform="matrix(12,0,0,12,677.3,501.7)" />
<use xlink:href="#f0_2g" transform="matrix(12,0,0,12,685.8,501.7)" />
<use xlink:href="#f0_21" transform="matrix(12,0,0,12,691.3,501.7)" />
<use xlink:href="#f0_2j" transform="matrix(12,0,0,12,703,501.7)" />
<use xlink:href="#f0_25" transform="matrix(12,0,0,12,716.2,501.7)" />
<use xlink:href="#f0_28" transform="matrix(12,0,0,12,720.6,501.7)" />
<use xlink:href="#f0_28" transform="matrix(12,0,0,12,725.1,501.7)" />
<use xlink:href="#f0_2c" transform="matrix(12,0,0,12,733.5,501.7)" />
<use xlink:href="#f0_2e" transform="matrix(12,0,0,12,742.7,501.7)" />
<use xlink:href="#f0_2b" transform="matrix(12,0,0,12,748.9,501.7)" />
<use xlink:href="#f0_20" transform="matrix(12,0,0,12,758.5,501.7)" />
<use xlink:href="#f0_2h" transform="matrix(12,0,0,12,767.6,501.7)" />
<use xlink:href="#f0_1z" transform="matrix(12,0,0,12,776.8,501.7)" />
<use xlink:href="#f0_21" transform="matrix(12,0,0,12,784.9,501.7)" />
<use xlink:href="#f0_20" transform="matrix(12,0,0,12,796.6,501.7)" />
<use xlink:href="#f0_2b" transform="matrix(12,0,0,12,805.8,501.7)" />
<use xlink:href="#f0_2h" transform="matrix(12,0,0,12,815.3,501.7)" />
<use xlink:href="#f0_1y" transform="matrix(12,0,0,12,824.5,501.7)" />
<use xlink:href="#f0_28" transform="matrix(12,0,0,12,833.3,501.7)" />
<use xlink:href="#f0_21" transform="matrix(12,0,0,12,836.6,501.7)" />
<use xlink:href="#f0_2a" transform="matrix(12,0,0,12,117,530.3)" />
<use xlink:href="#f0_2h" transform="matrix(12,0,0,12,126.1,530.3)" />
<use xlink:href="#f0_29" transform="matrix(12,0,0,12,135.3,530.3)" />
<use xlink:href="#f0_1y" transform="matrix(12,0,0,12,149.6,530.3)" />
<use xlink:href="#f0_21" transform="matrix(12,0,0,12,158.7,530.3)" />
<use xlink:href="#f0_2e" transform="matrix(12,0,0,12,166.9,530.3)" />
<use xlink:href="#f0_2b" transform="matrix(12,0,0,12,176.1,530.3)" />
<use xlink:href="#f0_22" transform="matrix(12,0,0,12,185.2,530.3)" />
<use xlink:href="#f0_2c" transform="matrix(12,0,0,12,193.7,530.3)" />
<use xlink:href="#f0_1x" transform="matrix(12,0,0,12,202.9,530.3)" />
<use xlink:href="#f0_2e" transform="matrix(12,0,0,12,211,530.3)" />
<use xlink:href="#f0_2g" transform="matrix(12,0,0,12,217.1,530.3)" />
<use xlink:href="#f0_25" transform="matrix(12,0,0,12,222.2,530.3)" />
<use xlink:href="#f0_1z" transform="matrix(12,0,0,12,227.3,530.3)" />
<use xlink:href="#f0_28" transform="matrix(12,0,0,12,235.4,530.3)" />
<use xlink:href="#f0_21" transform="matrix(12,0,0,12,240.5,530.3)" />
<use xlink:href="#f0_2b" transform="matrix(12,0,0,12,251.9,530.3)" />
<use xlink:href="#f0_22" transform="matrix(12,0,0,12,261.1,530.3)" />
<use xlink:href="#f0_2f" transform="matrix(12,0,0,12,269.5,530.3)" />
<use xlink:href="#f0_2h" transform="matrix(12,0,0,12,276.7,530.3)" />
<use xlink:href="#f0_23" transform="matrix(12,0,0,12,285.8,530.3)" />
<use xlink:href="#f0_1x" transform="matrix(12,0,0,12,295,530.3)" />
<use xlink:href="#f0_2e" transform="matrix(12,0,0,12,303.1,530.3)" />
<use xlink:href="#f0_i" transform="matrix(12,0,0,12,307.9,530.3)" />
<use xlink:href="#f0_l" transform="matrix(12,0,0,12,64.9,628.2)" />
<use xlink:href="#f0_n" transform="matrix(12,0,0,12,74.1,628.2)" />
<use xlink:href="#f0_i" transform="matrix(12,0,0,12,83.2,628.2)" />
<use xlink:href="#f0_1n" transform="matrix(12,0,0,12,117,628.2)" />
<use xlink:href="#f0_2e" transform="matrix(12,0,0,12,132.7,628.2)" />
<use xlink:href="#f0_25" transform="matrix(12,0,0,12,138.6,628.2)" />
<use xlink:href="#f0_2g" transform="matrix(12,0,0,12,142.7,628.2)" />
<use xlink:href="#f0_21" transform="matrix(12,0,0,12,147.8,628.2)" />
<use xlink:href="#f0_2g" transform="matrix(12,0,0,12,158.8,628.2)" />
<use xlink:href="#f0_24" transform="matrix(12,0,0,12,164.3,628.2)" />
<use xlink:href="#f0_21" transform="matrix(12,0,0,12,172.8,628.2)" />
<use xlink:href="#f0_2f" transform="matrix(12,0,0,12,183.5,628.2)" />
<use xlink:href="#f0_2g" transform="matrix(12,0,0,12,190.1,628.2)" />
<use xlink:href="#f0_2e" transform="matrix(12,0,0,12,195.2,628.2)" />
<use xlink:href="#f0_2h" transform="matrix(12,0,0,12,201.1,628.2)" />
<use xlink:href="#f0_1z" transform="matrix(12,0,0,12,209.9,628.2)" />
<use xlink:href="#f0_2g" transform="matrix(12,0,0,12,217.6,628.2)" />
<use xlink:href="#f0_2h" transform="matrix(12,0,0,12,222.8,628.2)" />
<use xlink:href="#f0_2e" transform="matrix(12,0,0,12,231.6,628.2)" />
<use xlink:href="#f0_21" transform="matrix(12,0,0,12,237.5,628.2)" />
<use xlink:href="#f0_2f" transform="matrix(12,0,0,12,245.2,628.2)" />
<use xlink:href="#f0_2b" transform="matrix(12,0,0,12,255.5,628.2)" />
<use xlink:href="#f0_22" transform="matrix(12,0,0,12,264.6,628.2)" />
<use xlink:href="#f0_2g" transform="matrix(12,0,0,12,273.1,628.2)" />
<use xlink:href="#f0_24" transform="matrix(12,0,0,12,278.2,628.2)" />
<use xlink:href="#f0_21" transform="matrix(12,0,0,12,286.7,628.2)" />
<use xlink:href="#f0_29" transform="matrix(12,0,0,12,297.7,628.2)" />
<use xlink:href="#f0_1x" transform="matrix(12,0,0,12,310.9,628.2)" />
<use xlink:href="#f0_25" transform="matrix(12,0,0,12,318.7,628.2)" />
<use xlink:href="#f0_2a" transform="matrix(12,0,0,12,322.7,628.2)" />
<use xlink:href="#f0_2c" transform="matrix(12,0,0,12,334.1,628.2)" />
<use xlink:href="#f0_2e" transform="matrix(12,0,0,12,342.9,628.2)" />
<use xlink:href="#f0_2b" transform="matrix(12,0,0,12,349.2,628.2)" />
<use xlink:href="#f0_20" transform="matrix(12,0,0,12,358.3,628.2)" />
<use xlink:href="#f0_2h" transform="matrix(12,0,0,12,367.1,628.2)" />
<use xlink:href="#f0_1z" transform="matrix(12,0,0,12,376,628.2)" />
<use xlink:href="#f0_2g" transform="matrix(12,0,0,12,383.7,628.2)" />
<use xlink:href="#f0_2f" transform="matrix(12,0,0,12,388.8,628.2)" />
<use xlink:href="#f0_25" transform="matrix(12,0,0,12,398.7,628.2)" />
<use xlink:href="#f0_2a" transform="matrix(12,0,0,12,402.8,628.2)" />
<use xlink:href="#f0_2g" transform="matrix(12,0,0,12,414.6,628.2)" />
<use xlink:href="#f0_24" transform="matrix(12,0,0,12,419.7,628.2)" />
<use xlink:href="#f0_21" transform="matrix(12,0,0,12,428.1,628.2)" />
<use xlink:href="#f0_22" transform="matrix(12,0,0,12,439.5,628.2)" />
<use xlink:href="#f0_2b" transform="matrix(12,0,0,12,444.7,628.2)" />
<use xlink:href="#f0_28" transform="matrix(12,0,0,12,453.9,628.2)" />
<use xlink:href="#f0_28" transform="matrix(12,0,0,12,457.9,628.2)" />
<use xlink:href="#f0_2b" transform="matrix(12,0,0,12,462,628.2)" />
<use xlink:href="#f0_2j" transform="matrix(12,0,0,12,471.1,628.2)" />
<use xlink:href="#f0_25" transform="matrix(12,0,0,12,484,628.2)" />
<use xlink:href="#f0_2a" transform="matrix(12,0,0,12,488,628.2)" />
<use xlink:href="#f0_23" transform="matrix(12,0,0,12,496.5,628.2)" />
<use xlink:href="#f0_2e" transform="matrix(12,0,0,12,508.2,628.2)" />
<use xlink:href="#f0_21" transform="matrix(12,0,0,12,514.1,628.2)" />
<use xlink:href="#f0_1x" transform="matrix(12,0,0,12,521.9,628.2)" />
<use xlink:href="#f0_1z" transform="matrix(12,0,0,12,529.6,628.2)" />
<use xlink:href="#f0_2g" transform="matrix(12,0,0,12,537.7,628.2)" />
<use xlink:href="#f0_25" transform="matrix(12,0,0,12,542.8,628.2)" />
<use xlink:href="#f0_2b" transform="matrix(12,0,0,12,546.8,628.2)" />
<use xlink:href="#f0_2a" transform="matrix(12,0,0,12,556,628.2)" />
<use xlink:href="#f0_2f" transform="matrix(12,0,0,12,564.4,628.2)" />
<use xlink:href="#f0_u" transform="matrix(12,0,0,12,574.4,628.2)" />
<use xlink:href="#f0_c" transform="matrix(12,0,0,12,117,722.8)" />
<use xlink:href="#f0_25" transform="matrix(12,0,0,12,122.1,722.8)" />
<use xlink:href="#f0_d" transform="matrix(12,0,0,12,125.8,722.8)" />
</g>
<path d="M204.2,693.4l-.7,1.1l-15,-8.8l.7,-1.1l15,8.8ZM220,703l-1.5,.4l-15,-8.9l.7,-1.1l15.4,8.9l.4,.7Zm-.4,-.7h.4v.7l-.4,-.7Zm-1.4,18.1V703H220v17.4h-1.8Zm1.4,18.4l-1.4,-.7V720.4H220v17.7l-.4,.7Zm.4,-.7v.4l-.4,.3l.4,-.7Zm-15.8,9.6l-.7,-1.5l15,-8.8l1.1,1.4l-15.4,8.9Zm-15.7,8.8v-1.4l15,-8.9l.7,1.5l-15,8.8h-.7Zm.7,0l-.4,.4l-.3,-.4h.7ZM173.8,746.2l15.4,8.9l-.7,1.4l-15.4,-8.8l.7,-1.5Zm-16.1,-8.1l1.1,-.7l15,8.8l-.7,1.5L158,738.8l-.3,-.7Zm.3,.7l-.3,-.3v-.4l.3,.7Zm1.1,-18.4v17.7h-1.4V720.4h1.4ZM158,702.3l1.1,.7v17.4h-1.4V703l.3,-.7Zm-.3,.7v-.7h.3l-.3,.7Zm16.1,-8.5l-15,8.9l-.8,-1.1l15.1,-8.9l.7,1.1Zm15.4,-9.9v1.1l-15.4,8.8l-.7,-1.1l15.4,-8.8h.7Zm-.7,0l.3,-.4l.4,.4h-.7Z" class="g2_5" />
<path d="M184.4,686.8h1.5V667.9h-1.5v18.9Z" class="g2_5" />
<path d="M190.7,686.4h1.4V667.6h-1.4v18.8Z" class="g2_5" />
<path d="M236.9,691.2l-17.3,12.2l-1.1,-1.1l17.6,-12.6l.8,1.5Z" class="g2_5" />
<g fill="#1F1A17" >
<use xlink:href="#f0_13" transform="matrix(12,0,0,12.1,238.3,692.8)" />
<use xlink:href="#f0_18" transform="matrix(12,0,0,12.1,250.4,692.8)" />
<use xlink:href="#f0_4z" transform="matrix(12,0,0,12.1,272.8,692.8)" />
<use xlink:href="#f0_13" transform="matrix(12,0,0,12.1,295.5,692.8)" />
<use xlink:href="#f0_4z" transform="matrix(12,0,0,12.1,312.4,692.8)" />
<use xlink:href="#f0_1f" transform="matrix(12,0,0,12.1,335.5,692.8)" />
<use xlink:href="#f0_13" transform="matrix(12,0,0,12.1,348.7,692.8)" />
<use xlink:href="#f0_18" transform="matrix(12,0,0,12.1,360.8,692.8)" />
<use xlink:href="#f0_m" transform="matrix(6,0,0,6,263.6,696.4)" />
<use xlink:href="#f0_n" transform="matrix(6,0,0,6,374,696.4)" />
</g>
<path d="M298.8,714.8h1.9V695.3h-1.9v19.5Z" class="g2_5" />
<path d="M303.6,714.8h1.5V695.3h-1.5v19.5Z" class="g2_5" />
<g fill="#1F1A17" >
<use xlink:href="#f0_1f" transform="matrix(12,0,0,12.1,181.9,665.6)" />
<use xlink:href="#f0_1f" transform="matrix(12,0,0,12.1,295.9,729.8)" />
</g>
<path d="M451,688.2H389.8v-1.4H451v1.4Zm-.4,-4.7l7,4l-7,4.1v-8.1Z" class="g2_5" />
<g fill="#1F1A17" >
<use xlink:href="#f0_1e" transform="matrix(10.8,0,0,11.1,397.1,681)" />
<use xlink:href="#f0_1x" transform="matrix(10.8,0,0,11.1,409.2,681)" />
<use xlink:href="#f0_12" transform="matrix(10.8,0,0,11.1,416.5,681)" />
<use xlink:href="#f0_18" transform="matrix(10.8,0,0,11.1,427.9,681)" />
<use xlink:href="#f0_o" transform="matrix(5.4,0,0,5.6,440,684.3)" />
</g>
<g fill="#000000" >
<use xlink:href="#f0_11" transform="matrix(12,0,0,12,64.9,861.4)" />
<use xlink:href="#f0_2a" transform="matrix(12,0,0,12,77.4,861.4)" />
<use xlink:href="#f0_2f" transform="matrix(12,0,0,12,85.8,861.4)" />
<use xlink:href="#f0_i" transform="matrix(12,0,0,12,92.4,861.4)" />
</g>
<path d="M165.7,837.6v0l-15.4,-9.2l.8,-1.1l15.7,8.8l-1.1,1.5Zm16.9,8.4l-1.1,.4l-15.8,-8.8l1.1,-1.5l15.4,9.2l.4,.7Zm-.4,-.7h.4v.7l-.4,-.7ZM181.1,864V846h1.5v18h-1.5Zm1.1,18.7l-1.1,-.7V864h1.5v18l-.4,.7Zm.4,-.7v.3l-.4,.4l.4,-.7Zm-16.9,8.4v0l15.8,-9.2l.7,1.5l-15.4,8.8l-1.1,-1.1Zm-15.4,10.3v-1.5l15.4,-8.8l1.1,1.1l-15.7,9.2h-.8Zm.8,0l-.4,.3l-.4,-.3h.8ZM135.3,890.4v0l15.8,8.8l-.8,1.5l-15.7,-9.2l.7,-1.1ZM118.8,882l1.1,-.8l15.4,9.2l-.7,1.1l-15.4,-8.8l-.4,-.7Zm.4,.7l-.4,-.4V882l.4,.7ZM120.3,864v18h-1.5V864h1.5Zm-1.1,-18.7l1.1,.7v18h-1.5V846l.4,-.7Zm-.4,.7v-.7h.4l-.4,.7Zm16.5,-8.4v0l-15.4,8.8l-.7,-1.1l15.4,-9.2l.7,1.5Zm15.8,-10.3v1.1l-15.8,9.2l-.7,-1.5l15.7,-8.8h.8Zm-.8,0l.4,-.3l.4,.3h-.8Z" class="g2_5" />
<path d="M146.3,830.3h1.5V807.9h-1.5v22.4Z" class="g2_5" />
<path d="M152.5,829.5h1.9V807.2h-1.9v22.3Z" class="g2_5" />
<g fill="#1F1A17" >
<use xlink:href="#f0_1f" transform="matrix(12,0,0,12,144.1,805.7)" />
</g>
<path d="M200.2,836.9l-18,9.5l-.7,-1.1l18,-9.9l.7,1.5Z" class="g2_5" />
<g fill="#1F1A17" >
<use xlink:href="#f0_13" transform="matrix(12,0,0,12,203.5,838.3)" />
<use xlink:href="#f0_18" transform="matrix(12,0,0,12,215.6,838.3)" />
<use xlink:href="#f0_4z" transform="matrix(12,0,0,12,238,838.3)" />
<use xlink:href="#f0_13" transform="matrix(12,0,0,12,260.7,838.3)" />
<use xlink:href="#f0_4z" transform="matrix(12,0,0,12,277.6,838.3)" />
<use xlink:href="#f0_1f" transform="matrix(12,0,0,12,300.6,838.3)" />
<use xlink:href="#f0_13" transform="matrix(12,0,0,12,313.9,838.3)" />
<use xlink:href="#f0_18" transform="matrix(12,0,0,12,326,838.3)" />
<use xlink:href="#f0_m" transform="matrix(6,0,0,6,228.8,842)" />
<use xlink:href="#f0_n" transform="matrix(6,0,0,6,339.2,842)" />
</g>
<path d="M412.5,867.7H351.3v-1.9h61.2v1.9Zm-.4,-5.2l7.4,4.1l-7.4,4v-8.1Z" class="g2_5" />
<g fill="#1F1A17" >
<use xlink:href="#f0_1e" transform="matrix(10.8,0,0,11,358.6,860)" />
<use xlink:href="#f0_1x" transform="matrix(10.8,0,0,11,370.7,860)" />
<use xlink:href="#f0_12" transform="matrix(10.8,0,0,11,378,860)" />
<use xlink:href="#f0_18" transform="matrix(10.8,0,0,11,389.4,860)" />
<use xlink:href="#f0_o" transform="matrix(5.4,0,0,5.5,401.5,863.3)" />
</g>
<path d="M477.8,840.9v0l-15.4,-9.2l.7,-1.1l15.4,8.8l-.7,1.5Zm16.8,8.4l-1.1,.4l-15.7,-8.8l.7,-1.5l15.8,9.2l.3,.7Zm-.3,-.7h.3v.7l-.3,-.7Zm-1.1,18.7v-18h1.4v18h-1.4Zm1.1,18.7l-1.1,-.7v-18h1.4v18l-.3,.7Zm.3,-.7v.3l-.3,.4l.3,-.7Zm-16.8,8.4v0l15.7,-9.2l.8,1.5l-15.8,8.8l-.7,-1.1ZM462.4,904v-1.5l15.4,-8.8l.7,1.1L463.1,904h-.7Zm.7,0l-.4,.3l-.3,-.3h.7ZM447.3,893.7v0l15.8,8.8l-.7,1.5l-15.8,-9.2l.7,-1.1Zm-16.8,-8.4l1.1,-.8l15.7,9.2l-.7,1.1L430.8,886l-.3,-.7Zm.3,.7l-.3,-.4v-.3l.3,.7Zm1.1,-18.7v18h-1.4v-18h1.4Zm-1.1,-18.7l1.1,.7v18h-1.4v-18l.3,-.7Zm-.3,.7v-.7h.3l-.3,.7Zm16.8,-8.4v0l-15.7,8.8l-.8,-1.1l15.8,-9.2l.7,1.5Zm15.8,-10.3v1.1l-15.8,9.2l-.7,-1.5l15.8,-8.8h.7Zm-.7,0l.3,-.3l.4,.3h-.7Z" class="g2_5" />
<path d="M461.6,831.4h1.9V809h-1.9v22.4Z" class="g2_5" />
<g fill="#1F1A17" >
<use xlink:href="#f0_1f" transform="matrix(12,0,0,12,456.1,806.1)" />
<use xlink:href="#f0_18" transform="matrix(12,0,0,12,469.3,806.1)" />
</g>
<path d="M512.2,840.2l-17.9,9.5l-.8,-1.1l18,-9.9l.7,1.5Z" class="g2_5" />
<g fill="#1F1A17" >
<use xlink:href="#f0_13" transform="matrix(12,0,0,12,515.5,841.6)" />
<use xlink:href="#f0_18" transform="matrix(12,0,0,12,527.6,841.6)" />
<use xlink:href="#f0_4z" transform="matrix(12,0,0,12,550,841.6)" />
<use xlink:href="#f0_13" transform="matrix(12,0,0,12,572.7,841.6)" />
<use xlink:href="#f0_4z" transform="matrix(12,0,0,12,589.6,841.6)" />
<use xlink:href="#f0_1f" transform="matrix(12,0,0,12,612.7,841.6)" />
<use xlink:href="#f0_13" transform="matrix(12,0,0,12,625.9,841.6)" />
<use xlink:href="#f0_18" transform="matrix(12,0,0,12,638,841.6)" />
<use xlink:href="#f0_m" transform="matrix(6,0,0,6,540.8,845.3)" />
<use xlink:href="#f0_n" transform="matrix(6,0,0,6,651.2,845.3)" />
</g>
<path d="M575.7,827.3h1.8V804.6h-1.8v22.7Z" class="g2_5" />
<path d="M582.3,826.2h1.4V803.9h-1.4v22.3Z" class="g2_5" />
<g fill="#1F1A17" >
<use xlink:href="#f0_1f" transform="matrix(12,0,0,12,573.5,802.8)" />
</g>
<path d="M263.6,824.4h1.5V801.7h-1.5v22.7Z" class="g2_5" />
<path d="M269.9,823.3h1.4V800.9h-1.4v22.4Z" class="g2_5" />
<g fill="#1F1A17" >
<use xlink:href="#f0_1f" transform="matrix(12,0,0,12,261.1,799.5)" />
</g>
<g fill="#000000" >
<use xlink:href="#f1_p" transform="matrix(8,0,0,8,792.2,1264.2)" />
</g>
<defs>
<path d="M197,0V27c0,0,71,2,92,13c0,0,21,10,29,29c0,0,9,18,9,109V725c0,0,0,110,-8,141c0,0,-5,24,-19,35c0,0,-14,11,-33,11c0,0,-28,0,-77,-23l-11,23l246,121h25V178c0,0,0,-85,7,-106c0,0,7,-21,29,-32c0,0,23,-11,91,-13V0Z" 
id="f0_l"
transform="scale(0.001,-0.001)" />

<path d="M33,0V27c0,0,264,241,371,393c0,0,108,152,108,278c0,0,0,96,-59,158c0,0,-59,62,-141,62c0,0,-75,0,-134,-43c0,0,-59,-44,-88,-128H63c0,0,18,138,95,212c0,0,77,74,193,74c0,0,123,0,205,-80c0,0,83,-79,83,-186c0,0,0,-77,-36,-154c0,0,-55,-121,-179,-256C424,357,238,154,191,112H455c0,0,81,0,114,6c0,0,32,6,58,25c0,0,27,18,46,52h27L630,0Z" 
id="f0_m"
transform="scale(0.001,-0.001)" />

<path d="M613,-21c0,0,-293,0,-445,186C168,165,54,306,54,490c0,0,0,134,64,256c0,0,76,145,209,224c0,0,111,64,262,64c0,0,55,0,100,-9c0,0,45,-9,128,-39c0,0,42,-16,56,-16c0,0,14,0,24,13c0,0,10,13,12,51h28L963,715H937c0,0,-40,119,-102,179c0,0,-91,88,-232,88c0,0,-193,0,-294,-153c0,0,-84,-129,-84,-307c0,0,0,-144,56,-263c0,0,56,-120,146,-175c0,0,91,-56,186,-56c0,0,56,0,109,15c0,0,52,14,100,41V376c0,0,0,77,-11,101c0,0,-12,23,-36,36c0,0,-24,12,-86,12v27h392V525h-18c0,0,-58,0,-80,-39c0,0,-15,-28,-15,-110V67C968,67,882,21,799,0c0,0,-84,-21,-186,-21Z" 
id="f0_17"
transform="scale(0.001,-0.001)" />

<path d="M55,0V26c0,0,50,0,67,10c0,0,17,10,27,32c0,0,10,23,10,86V418c0,0,0,111,-6,144c0,0,-6,24,-17,33c0,0,-11,10,-30,10c0,0,-21,0,-51,-11L45,620l206,83h33V154c0,0,0,-64,9,-85c0,0,9,-22,27,-32c0,0,19,-11,67,-11V0ZM222,909c0,0,-32,0,-54,23c0,0,-22,22,-22,53c0,0,0,32,22,54c0,0,22,22,54,22c0,0,31,0,53,-22c0,0,22,-22,22,-54c0,0,0,-31,-22,-53c0,0,-22,-23,-53,-23Z" 
id="f0_25"
transform="scale(0.001,-0.001)" />

<path d="M376,-20L133,556c0,0,-17,41,-31,58c0,0,-15,18,-39,30c0,0,-12,7,-50,13v26H335V657H314c0,0,-29,0,-44,-14c0,0,-16,-14,-15,-38c0,0,-1,-26,15,-62L429,165L588,557c0,0,17,42,17,64c0,0,0,10,-6,17c0,0,-8,11,-21,15c0,0,-13,4,-52,4v26H750V657c0,0,-39,-3,-54,-16c0,0,-26,-23,-47,-76L409,-20Z" 
id="f0_2i"
transform="scale(0.001,-0.001)" />

<path d="M479,469c0,0,-4,66,-16,93c0,0,-18,42,-55,65c0,0,-37,24,-78,24c0,0,-62,0,-111,-48c0,0,-48,-48,-57,-134ZM355,-20c0,0,-123,0,-211,95c0,0,-87,96,-87,258c0,0,0,175,90,273c0,0,89,98,225,98c0,0,115,0,189,-76c0,0,74,-75,74,-202H162c0,0,0,-152,74,-239c0,0,75,-86,175,-86c0,0,67,0,117,36c0,0,50,37,83,127l24,-15c0,0,-16,-102,-91,-186c0,0,-76,-83,-189,-83Z" 
id="f0_21"
transform="scale(0.001,-0.001)" />

<path d="M17,0V26c0,0,52,0,77,17c0,0,19,12,26,38c0,0,4,13,4,73V419c0,0,0,119,-5,142c0,0,-4,23,-17,33c0,0,-13,11,-33,11c0,0,-23,0,-52,-11l-7,26l207,83h31V549c0,0,86,154,176,154c0,0,41,0,68,-25c0,0,27,-25,27,-58c0,0,0,-29,-20,-49c0,0,-19,-20,-46,-20c0,0,-26,0,-58,25c0,0,-33,26,-48,26c0,0,-14,0,-29,-15c0,0,-34,-30,-70,-101V159c0,0,0,-56,15,-85c0,0,9,-20,34,-34c0,0,24,-14,71,-14V0Z" 
id="f0_2e"
transform="scale(0.001,-0.001)" />

<path d="M286,72c0,0,57,0,149,75V407c0,0,-113,-45,-145,-64c0,0,-59,-32,-85,-68c0,0,-25,-36,-25,-78c0,0,0,-54,32,-89c0,0,32,-36,74,-36ZM217,-13c0,0,-71,0,-116,48c0,0,-46,48,-46,127c0,0,0,50,22,87c0,0,31,50,106,95c0,0,76,45,252,109v26c0,0,0,102,-32,140c0,0,-32,38,-94,38c0,0,-47,0,-74,-25c0,0,-28,-25,-28,-58l1,-43c0,0,0,-34,-17,-53c0,0,-18,-18,-47,-18c0,0,-28,0,-45,19c0,0,-18,19,-18,53c0,0,0,64,66,117c0,0,65,54,184,54c0,0,91,0,149,-31c0,0,44,-23,65,-72c0,0,13,-32,13,-131V238c0,0,0,-98,4,-120c0,0,4,-22,12,-29c0,0,9,-8,20,-8c0,0,12,0,21,5c0,0,16,10,61,55V99C676,99,592,-12,516,-12c0,0,-37,0,-58,24c0,0,-22,26,-23,86C435,98,330,17,303,5c0,0,-40,-18,-86,-18Z" 
id="f0_1x"
transform="scale(0.001,-0.001)" />

<path d="M312,-20c0,0,-62,0,-143,22c0,0,-25,8,-40,8c0,0,-18,0,-27,-19H77V234h25c0,0,21,-105,80,-158c0,0,59,-53,132,-53c0,0,51,0,84,31c0,0,32,30,32,72c0,0,0,52,-36,87c0,0,-36,35,-144,88c0,0,-109,54,-142,97c0,0,-34,43,-34,107c0,0,0,85,58,141c0,0,58,57,150,57c0,0,40,0,97,-17c0,0,38,-11,51,-11c0,0,12,0,19,5c0,0,7,5,15,23h25V470H464c0,0,-28,110,-72,149c0,0,-45,40,-113,40c0,0,-53,0,-85,-28c0,0,-32,-27,-32,-61c0,0,0,-41,24,-71c0,0,23,-31,94,-65L389,381c0,0,152,-74,152,-194c0,0,0,-94,-71,-151c0,0,-70,-56,-158,-56Z" 
id="f0_2f"
transform="scale(0.001,-0.001)" />

<path d="M406,32c0,0,72,0,119,60c0,0,47,59,47,205c0,0,0,181,-78,286c0,0,-53,71,-135,71c0,0,-40,0,-79,-23c0,0,-40,-24,-65,-83c0,0,-24,-58,-24,-151c0,0,0,-149,59,-257c0,0,59,-108,156,-108ZM374,-20c0,0,-154,0,-245,122c0,0,-77,104,-77,233c0,0,0,94,46,187c0,0,47,92,123,137c0,0,76,44,161,44c0,0,155,0,249,-118c0,0,80,-100,80,-231c0,0,0,-91,-44,-185C667,169,623,75,546,27c0,0,-77,-47,-172,-47Z" 
id="f0_2b"
transform="scale(0.001,-0.001)" />

<path d="M21,0V26H35c0,0,53,0,71,27c0,0,18,27,18,101V408c0,0,0,123,-5,150c0,0,-6,27,-17,37c0,0,-12,10,-31,10c0,0,-21,0,-50,-11L10,620l206,83h32V558c0,0,120,145,229,145c0,0,56,0,96,-28c0,0,40,-28,64,-92c0,0,16,-45,16,-137V154c0,0,0,-65,11,-88c0,0,8,-19,26,-29c0,0,18,-11,68,-11V0H419V26h14c0,0,47,0,66,15c0,0,20,15,27,43c0,0,3,11,3,70V434c0,0,0,93,-24,135c0,0,-24,42,-81,42c0,0,-88,0,-176,-97V154c0,0,0,-69,9,-86c0,0,10,-21,28,-31c0,0,19,-11,75,-11V0Z" 
id="f0_2a"
transform="scale(0.001,-0.001)" />

<path d="M63,0V26H93c0,0,30,0,54,15c0,0,25,15,34,41c0,0,10,25,10,99V630H58v53H191v45c0,0,0,102,33,173c0,0,32,71,100,114c0,0,68,44,152,44c0,0,79,0,145,-51c0,0,43,-33,43,-75c0,0,0,-22,-19,-42c0,0,-20,-20,-42,-20c0,0,-17,0,-36,12c0,0,-19,13,-47,53c0,0,-28,41,-51,55c0,0,-23,14,-51,14c0,0,-35,0,-58,-18c0,0,-24,-18,-35,-57c0,0,-10,-38,-10,-197V683H491V630H315V181c0,0,0,-96,21,-122c0,0,27,-33,73,-33h62V0Z" 
id="f0_22"
transform="scale(0.001,-0.001)" />

<path d="M255,-10c0,0,-35,0,-68,18c0,0,-32,19,-48,55c0,0,-16,35,-16,109V632H15v24c0,0,41,16,84,56c0,0,43,39,77,92c0,0,17,29,48,104h23V683H407V632H247V188c0,0,0,-66,19,-90c0,0,19,-23,49,-23c0,0,24,0,47,16c0,0,23,15,36,45h29c0,0,-26,-73,-74,-110c0,0,-47,-36,-98,-36Z" 
id="f0_2g"
transform="scale(0.001,-0.001)" />

<path d="M20,0V26c0,0,45,0,71,15c0,0,15,7,24,28c0,0,9,21,9,85V773c0,0,0,117,-5,144c0,0,-6,27,-17,37c0,0,-12,9,-31,9c0,0,-16,0,-51,-12L10,978l204,83h34V561c0,0,83,91,131,116c0,0,49,26,97,26c0,0,58,0,100,-32c0,0,42,-32,62,-101c0,0,14,-47,14,-174V154c0,0,0,-65,11,-89c0,0,7,-18,25,-28c0,0,18,-11,66,-11V0H418V26h15c0,0,48,0,67,15c0,0,18,15,26,43c0,0,2,12,2,70V396c0,0,0,112,-12,147c0,0,-11,35,-36,53c0,0,-26,17,-61,17c0,0,-37,0,-76,-19c0,0,-40,-20,-95,-79V154c0,0,0,-70,8,-87c0,0,8,-17,29,-29c0,0,22,-12,74,-12V0Z" 
id="f0_24"
transform="scale(0.001,-0.001)" />

<path d="M58,0V26c0,0,47,0,64,10c0,0,18,10,28,32c0,0,9,23,9,86V775c0,0,0,116,-5,142c0,0,-5,27,-17,37c0,0,-11,9,-29,9c0,0,-20,0,-49,-12L46,978l204,83h34V154c0,0,0,-64,9,-85c0,0,9,-21,29,-32c0,0,19,-11,72,-11V0Z" 
id="f0_28"
transform="scale(0.001,-0.001)" />

<path d="M336,-20L117,554c0,0,-21,55,-42,74c0,0,-21,19,-66,29v26H296V657c0,0,-40,-3,-52,-14c0,0,-13,-12,-13,-33c0,0,0,-23,13,-56L390,162L537,481L498,581c0,0,-18,46,-47,63c0,0,-17,11,-61,13v26H716V657c0,0,-54,-2,-77,-20c0,0,-15,-12,-15,-39c0,0,0,-15,6,-30L785,177L929,554c0,0,15,40,15,65c0,0,0,14,-15,25c0,0,-14,12,-57,13v26h216V657c0,0,-65,-10,-95,-89L764,-20H733L563,415L363,-20Z" 
id="f0_2j"
transform="scale(0.001,-0.001)" />

<path d="M411,-239c0,0,134,0,198,48c0,0,64,47,64,100c0,0,0,39,-38,55c0,0,-39,16,-154,19c0,0,-167,5,-258,17c0,0,-35,-37,-53,-70c0,0,-17,-32,-17,-60c0,0,0,-36,43,-62c0,0,74,-47,215,-47ZM380,257c0,0,56,0,93,43c0,0,36,42,36,133c0,0,0,118,-51,185c0,0,-38,49,-98,49c0,0,-55,0,-92,-44c0,0,-37,-44,-37,-135c0,0,0,-117,50,-182c0,0,39,-49,99,-49ZM345,-328c0,0,-144,0,-243,64c0,0,-56,38,-56,78c0,0,0,18,8,36c0,0,13,27,52,76c0,0,5,7,76,80c0,0,-39,23,-55,41c0,0,-16,19,-16,42c0,0,0,26,22,61c0,0,21,35,98,100c0,0,-63,30,-97,85c0,0,-33,55,-33,121c0,0,0,101,76,174c0,0,77,73,196,73c0,0,98,0,170,-48H688c0,0,32,0,37,-2c0,0,6,-2,8,-6c0,0,4,-7,4,-24c0,0,0,-20,-4,-27c0,0,-2,-4,-7,-6c0,0,-6,-2,-38,-2H599c0,0,41,-54,41,-137c0,0,0,-96,-73,-163c0,0,-73,-68,-196,-68c0,0,-51,0,-104,15c0,0,-33,-28,-44,-49c0,0,-12,-22,-12,-37c0,0,0,-12,13,-24c0,0,12,-12,48,-17c0,0,21,-4,104,-6c0,0,154,-4,199,-11c0,0,70,-10,111,-51c0,0,42,-41,42,-102c0,0,0,-84,-79,-158c0,0,-117,-108,-304,-108Z" 
id="f0_23"
transform="scale(0.001,-0.001)" />

<path d="M213,-20c0,0,-34,0,-58,24c0,0,-24,24,-24,58c0,0,0,34,24,58c0,0,24,25,58,25c0,0,35,0,59,-25c0,0,24,-24,24,-58c0,0,0,-34,-24,-58c0,0,-25,-24,-59,-24Zm3,559c0,0,-35,0,-59,24c0,0,-24,24,-24,58c0,0,0,35,24,59c0,0,24,24,59,24c0,0,34,0,58,-24c0,0,24,-24,24,-59c0,0,0,-34,-24,-58c0,0,-24,-24,-58,-24Z" 
id="f0_u"
transform="scale(0.001,-0.001)" />

<path d="M474,-326c0,0,-112,57,-188,133c0,0,-107,108,-165,254c0,0,-58,147,-58,305c0,0,0,231,114,421c0,0,114,191,297,273v-31c0,0,-92,-51,-151,-139c0,0,-59,-88,-88,-223c0,0,-30,-135,-30,-281c0,0,0,-160,25,-290c0,0,20,-102,47,-164c0,0,28,-62,75,-120c0,0,47,-57,122,-109v-29Z" 
id="f0_c"
transform="scale(0.001,-0.001)" />

<path d="M35,-326v29c0,0,92,51,151,139c0,0,60,87,89,221c0,0,28,136,28,282c0,0,0,159,-24,290c0,0,-19,103,-47,165c0,0,-28,62,-75,119c0,0,-46,57,-122,110v31c0,0,113,-56,188,-132c0,0,107,-109,165,-255c0,0,58,-147,58,-306c0,0,0,-231,-114,-420c0,0,-113,-191,-297,-273Z" 
id="f0_d"
transform="scale(0.001,-0.001)" />

<path d="M25,0V27H61c0,0,64,0,91,39c0,0,16,24,16,109V837c0,0,0,67,-15,97c0,0,-10,22,-38,36c0,0,-28,15,-90,15v27H312L678,220l363,792h285V985h-35c0,0,-64,0,-91,-39c0,0,-17,-24,-17,-109V175c0,0,0,-93,21,-116c0,0,28,-32,87,-32h35V0H898V27h36c0,0,64,0,90,39c0,0,17,24,17,109V852L649,0H625L234,852V175c0,0,0,-93,20,-116c0,0,27,-32,87,-32h35V0Z" 
id="f0_1d"
transform="scale(0.001,-0.001)" />

<path d="M292,-20c0,0,-57,0,-100,33c0,0,-42,33,-58,85c0,0,-17,52,-17,148V551c0,0,0,49,-10,68c0,0,-11,18,-31,29c0,0,-19,9,-68,9c-2,0,-4,0,-6,0v26H242V226c0,0,0,-95,33,-125c0,0,33,-30,80,-30c0,0,32,0,73,21c0,0,40,20,96,76V555c0,0,0,59,-21,80c0,0,-22,21,-89,22v26H647V269c0,0,0,-119,6,-145c0,0,6,-27,18,-37c0,0,12,-11,29,-11c0,0,23,0,52,13L763,63L558,-20H524V124C524,124,436,29,390,4c0,0,-47,-24,-98,-24Z" 
id="f0_2h"
transform="scale(0.001,-0.001)" />

<path d="M23,0V26c0,0,47,0,66,10c0,0,19,11,28,33c0,0,10,22,10,85V416c0,0,0,112,-7,145c0,0,-5,25,-16,34c0,0,-11,10,-31,10c0,0,-21,0,-50,-11L12,620l207,83h32V557c0,0,75,75,88,86c0,0,34,29,72,44c0,0,39,16,77,16c0,0,64,0,110,-37c0,0,47,-38,62,-109c0,0,77,90,130,118c0,0,53,28,109,28c0,0,54,0,96,-28c0,0,42,-28,67,-91c0,0,16,-43,16,-136V154c0,0,0,-64,10,-88c0,0,8,-16,28,-28c0,0,20,-12,65,-12V0H844V26h14c0,0,44,0,69,18c0,0,17,12,24,38c0,0,3,13,3,72V448c0,0,0,83,-20,117c0,0,-29,48,-93,48c0,0,-39,0,-79,-20c0,0,-40,-19,-97,-73l-1,-8l2,-32V154c0,0,0,-70,8,-87c0,0,7,-17,29,-29c0,0,21,-12,73,-12V0H431V26c0,0,57,0,78,14c0,0,21,13,29,40c0,0,4,13,4,74V448c0,0,0,83,-25,120c0,0,-33,48,-91,48c0,0,-40,0,-80,-22c0,0,-61,-33,-95,-74V154c0,0,0,-67,10,-87c0,0,9,-20,27,-30c0,0,18,-11,74,-11V0Z" 
id="f0_29"
transform="scale(0.001,-0.001)" />

<path d="M342,-20c0,0,-116,0,-203,97c0,0,-86,98,-86,264c0,0,0,161,96,261c0,0,95,101,230,101c0,0,100,0,165,-53c0,0,65,-54,65,-111c0,0,0,-29,-18,-46c0,0,-18,-18,-51,-18c0,0,-44,0,-66,29c0,0,-13,15,-17,59c0,0,-4,45,-30,68c0,0,-26,22,-73,22c0,0,-74,0,-120,-55c0,0,-60,-73,-60,-193c0,0,0,-122,60,-216c0,0,60,-93,162,-93c0,0,73,0,131,49c0,0,41,35,80,126l22,-10C629,261,601,125,521,52c0,0,-81,-72,-179,-72Z" 
id="f0_1z"
transform="scale(0.001,-0.001)" />

<path d="M398,24c0,0,74,0,120,58c0,0,61,76,61,214c0,0,0,156,-69,240c0,0,-47,59,-113,59c0,0,-36,0,-71,-18c0,0,-27,-14,-88,-81V242c0,0,0,-83,6,-109c0,0,11,-43,51,-76c0,0,41,-33,103,-33ZM-4,-326v27H15c5,0,42,0,69,16c0,0,14,8,22,26c0,0,7,19,7,94V481c0,0,0,67,-6,85c0,0,-5,18,-18,27c0,0,-13,9,-36,9c0,0,-18,0,-45,-10L0,615l209,85h29V540c0,0,53,91,106,127c0,0,53,36,112,36c0,0,103,0,172,-80c0,0,84,-99,84,-257c0,0,0,-176,-102,-292c0,0,-83,-94,-210,-94c0,0,-55,0,-95,16c0,0,-30,10,-67,44V-167c0,0,0,-71,8,-90c0,0,9,-20,30,-31c0,0,21,-11,77,-11v-27Z" 
id="f0_2c"
transform="scale(0.001,-0.001)" />

<path d="M399,62c0,0,68,0,131,68V481c0,0,-5,51,-27,93c0,0,-22,42,-59,63c0,0,-37,21,-72,21c0,0,-65,0,-117,-59c0,0,-67,-77,-67,-226c0,0,0,-151,65,-231c0,0,66,-80,146,-80ZM330,-20c0,0,-112,0,-196,93c0,0,-83,94,-83,240c0,0,0,147,92,269c0,0,93,122,238,122c0,0,90,0,149,-58V773c0,0,0,117,-6,144c0,0,-5,27,-17,37c0,0,-12,9,-30,9c0,0,-20,0,-52,-12l-9,27l204,83h33V270c0,0,0,-120,6,-146c0,0,5,-27,18,-37c0,0,12,-11,28,-11c0,0,21,0,54,13l9,-26L564,-20H530V78C530,78,480,25,432,2c0,0,-47,-22,-102,-22Z" 
id="f0_20"
transform="scale(0.001,-0.001)" />

<path d="M145,-328c0,0,-44,0,-73,25c0,0,-28,25,-28,58c0,0,0,31,21,50c0,0,20,19,56,19c0,0,25,0,67,-16c0,0,30,-11,38,-11c0,0,22,0,49,23c0,0,26,23,53,89L376,28L131,542c0,0,-11,24,-36,58c0,0,-19,27,-30,36c0,0,-18,12,-56,21v26H328V657H312c0,0,-33,0,-50,-15c0,0,-17,-14,-17,-36c0,0,0,-30,25,-81L437,179L589,557c0,0,12,31,12,62c0,0,0,13,-5,20c0,0,-6,8,-19,13c0,0,-12,5,-44,5v26H754V657c0,0,-27,-3,-42,-12c0,0,-15,-9,-33,-34c0,0,-7,-10,-25,-58L376,-128c0,0,-40,-99,-105,-150c0,0,-66,-50,-126,-50Z" 
id="f0_2l"
transform="scale(0.001,-0.001)" />

<path d="M191,-20c0,0,-34,0,-58,24c0,0,-24,24,-24,58c0,0,0,35,24,59c0,0,24,24,58,24c0,0,35,0,59,-24c0,0,24,-25,24,-59c0,0,0,-34,-24,-58c0,0,-25,-24,-59,-24Z" 
id="f0_i"
transform="scale(0.001,-0.001)" />

<path d="M678,393L506,802L330,393ZM11,0V27c0,0,63,12,82,30c0,0,38,35,84,145l356,832h27L912,193c0,0,43,-101,77,-132c0,0,35,-30,97,-34V0H687V27c0,0,60,3,82,21c0,0,21,17,21,41c0,0,0,33,-30,104L700,338H307L239,179c0,0,-26,-59,-26,-88c0,0,0,-23,22,-41c0,0,22,-17,95,-23V0Z" 
id="f0_11"
transform="scale(0.001,-0.001)" />

<path d="M253,0V27h36c0,0,64,0,91,39c0,0,16,24,16,109V948H274c0,0,-71,0,-100,-10c0,0,-39,-14,-67,-54c0,0,-27,-41,-33,-109H46l12,237H883L894,775H865c0,0,-8,62,-22,89c0,0,-23,43,-61,64c0,0,-39,20,-101,20H539V175c0,0,0,-93,20,-116c0,0,28,-32,87,-32h36V0Z" 
id="f0_1k"
transform="scale(0.001,-0.001)" />

<path d="M397,34c0,0,67,0,126,75c0,0,58,74,58,216c0,0,0,131,-58,201c0,0,-59,70,-133,70c0,0,-39,0,-79,-20c0,0,-29,-14,-75,-59V109c0,0,37,-37,78,-56c0,0,40,-19,83,-19ZM358,-20c0,0,-59,0,-121,21c0,0,-61,22,-126,65V773c0,0,0,117,-5,144c0,0,-6,27,-18,37c0,0,-12,9,-29,9c0,0,-21,0,-53,-12l-9,27l205,83h34V564c0,0,98,139,213,139c0,0,105,0,183,-90c0,0,78,-90,78,-245c0,0,0,-182,-121,-293c0,0,-103,-95,-231,-95Z" 
id="f0_1y"
transform="scale(0.001,-0.001)" />

<path d="M384,85c0,0,44,0,78,19c0,0,35,19,68,62V487c0,0,0,55,-15,87c0,0,-14,33,-51,55c0,0,-38,22,-85,22c0,0,-84,0,-143,-71c0,0,-60,-70,-60,-214c0,0,0,-138,61,-209c0,0,61,-72,147,-72Zm35,-411v27h15c0,0,41,0,63,12c0,0,15,8,24,30c0,0,9,21,9,83V119C530,119,462,39,411,9c0,0,-50,-29,-105,-29c0,0,-99,0,-177,90c0,0,-78,90,-78,241c0,0,0,174,103,283c0,0,103,109,248,109c0,0,43,0,78,-12c0,0,36,-12,65,-35c0,0,43,20,83,47h25V-174c0,0,0,-66,9,-85c0,0,9,-19,28,-30c0,0,19,-10,74,-10v-27Z" 
id="f0_2d"
transform="scale(0.001,-0.001)" />

<path d="M485,53c0,0,135,0,206,61c0,0,71,60,71,150c0,0,0,59,-32,114c0,0,-33,54,-105,85c0,0,-72,32,-179,32c0,0,-46,0,-79,-2c0,0,-33,-1,-53,-5V73c0,0,86,-20,171,-20ZM455,547c0,0,109,0,164,23c0,0,55,24,84,72c0,0,29,49,29,106c0,0,0,89,-72,151c0,0,-73,63,-212,63c0,0,-74,0,-134,-16V557c0,0,27,-5,63,-8c0,0,35,-2,78,-2ZM24,0V27H63c0,0,63,0,91,41c0,0,17,26,17,111V833c0,0,0,94,-22,119c0,0,-29,33,-86,33H24v27H462c0,0,122,0,196,-18c0,0,112,-27,171,-95c0,0,59,-68,59,-157c0,0,0,-76,-46,-136c0,0,-47,-60,-137,-89c0,0,105,-23,157,-72c0,0,73,-69,73,-168c0,0,0,-75,-48,-145C887,132,839,63,756,32C756,32,673,0,502,0Z" 
id="f0_12"
transform="scale(0.001,-0.001)" />

<path d="M25,0V26c0,0,27,4,47,19c0,0,29,22,96,111L311,346L182,535c0,0,-55,81,-86,102c0,0,-30,20,-75,20v26H341V657c0,0,-30,0,-42,-10c0,0,-13,-11,-13,-28c0,0,0,-19,27,-56c0,0,8,-12,25,-37l48,-78l56,77c0,0,55,74,55,94c0,0,0,16,0,27c0,0,0,11,0,11v26H674V657c0,0,-37,-2,-64,-20c0,0,-37,-26,-100,-111L416,402L587,156c0,0,63,-91,89,-109c0,0,27,-18,70,-21V0H423V26c0,0,34,0,53,15c0,0,14,11,14,28c0,0,0,17,-48,87L341,302L232,157c0,0,-50,-69,-50,-82c0,0,0,-18,17,-32c0,0,17,-15,50,-17V0Z" 
id="f0_2k"
transform="scale(0.001,-0.001)" />

<path d="M31,0V27H67c0,0,36,0,68,18c0,0,24,12,32,36c0,0,9,24,9,98V836c0,0,0,96,-19,119c0,0,-27,30,-90,30H31v27H811L822,790H792c0,0,-15,80,-34,110c0,0,-19,30,-57,46c0,0,-29,11,-105,11H319V557H541c0,0,87,0,116,26c0,0,39,35,44,121h27V352H701c0,0,-11,74,-21,95c0,0,-14,26,-45,41c0,0,-30,15,-94,15H319V168c0,0,0,-67,6,-81c0,0,6,-15,21,-24c0,0,15,-8,56,-8H574c0,0,86,0,124,12c0,0,39,12,75,47c0,0,46,46,95,139h30L811,0Z" 
id="f0_15"
transform="scale(0.001,-0.001)" />

<path d="M25,0V27H61c0,0,63,0,91,37c0,0,18,24,18,115V833c0,0,0,77,-10,102c0,0,-7,18,-30,32c0,0,-33,18,-69,18H25v27H456V985H421c0,0,-35,0,-67,-18c0,0,-23,-11,-32,-35c0,0,-9,-24,-9,-99V523c0,0,15,15,102,95c0,0,222,203,268,271c0,0,20,30,20,52c0,0,0,18,-15,31c0,0,-16,13,-53,13H611v27H983V985c0,0,-33,-1,-60,-9c0,0,-26,-9,-65,-32c0,0,-39,-24,-96,-76c0,0,-16,-15,-151,-153L456,561L829,190c0,0,92,-92,157,-125c0,0,65,-33,130,-38V0H634V27c0,0,43,0,62,15c0,0,19,15,19,32c0,0,0,18,-7,33c0,0,-7,14,-46,53L313,506V179c0,0,0,-77,10,-102c0,0,7,-18,31,-32c0,0,32,-18,67,-18h35V0Z" 
id="f0_1b"
transform="scale(0.001,-0.001)" />

<path d="M548,-21c0,0,-251,0,-389,185C159,164,56,303,56,490c0,0,0,152,68,278c0,0,67,127,186,197c0,0,119,69,260,69c0,0,109,0,216,-53c0,0,31,-17,44,-17c0,0,20,0,35,14c0,0,20,21,28,56h26L943,690H919c0,0,-46,155,-131,224c0,0,-86,68,-206,68c0,0,-100,0,-181,-51c0,0,-81,-52,-128,-163c0,0,-46,-112,-46,-279c0,0,0,-137,44,-238c0,0,44,-101,132,-154c0,0,88,-54,201,-54c0,0,99,0,174,42c0,0,75,42,165,167l23,-14C966,238,890,103,789,40c0,0,-102,-61,-241,-61Z" 
id="f0_13"
transform="scale(0.001,-0.001)" />

<path d="M238,-17c0,0,-103,0,-139,25C99,8,62,33,62,62c0,0,0,22,17,38c0,0,18,16,42,16c0,0,19,0,38,-6c0,0,13,-3,58,-27c0,0,45,-23,62,-28c0,0,27,-8,59,-8c0,0,76,0,132,59c0,0,56,59,56,140c0,0,0,59,-26,115c0,0,-19,41,-42,63c0,0,-32,30,-88,54c0,0,-56,25,-114,25H232v22c0,0,59,8,118,42c0,0,59,35,86,85c0,0,27,49,27,108c0,0,0,76,-48,124c0,0,-48,47,-120,47c0,0,-116,0,-193,-124L77,819c0,0,44,102,110,158c0,0,66,56,164,56c0,0,122,0,187,-80c0,0,49,-58,49,-126c0,0,0,-110,-139,-228c0,0,93,-36,141,-104c0,0,48,-68,48,-160c0,0,0,-131,-84,-227C553,108,444,-17,238,-17Z" 
id="f0_n"
transform="scale(0.001,-0.001)" />

<path d="M474,-21L174,817c0,0,-34,94,-42,112c0,0,-15,28,-41,42c0,0,-26,14,-70,14v27H395V985H377c0,0,-40,0,-60,-18c0,0,-21,-18,-21,-44c0,0,0,-26,33,-120L528,235L696,718l-30,85l-24,68c0,0,-16,37,-35,66c0,0,-10,14,-24,24c0,0,-19,13,-38,19c0,0,-14,5,-44,5v27H894V985H867c0,0,-41,0,-61,-18c0,0,-19,-18,-19,-49c0,0,0,-38,33,-133L1015,235l193,557c0,0,32,93,32,129c0,0,0,17,-10,32c0,0,-11,15,-28,21c0,0,-28,11,-74,11v27h302V985c0,0,-39,0,-64,-15c0,0,-25,-14,-47,-53c0,0,-15,-26,-47,-124L990,-21H960L729,624L501,-21Z" 
id="f0_1n"
transform="scale(0.001,-0.001)" />

<path d="M26,0V27H62c0,0,63,0,91,37c0,0,18,24,18,115V833c0,0,0,77,-10,102c0,0,-7,18,-30,32c0,0,-33,18,-69,18H26v27H459V985H422c0,0,-35,0,-67,-17c0,0,-23,-12,-32,-36c0,0,-9,-25,-9,-99V542H784V833c0,0,0,77,-10,102c0,0,-8,18,-31,32c0,0,-33,18,-68,18H639v27h432V985h-36c0,0,-36,0,-68,-17c0,0,-24,-12,-32,-36c0,0,-9,-25,-9,-99V179c0,0,0,-77,10,-102c0,0,7,-18,31,-32c0,0,32,-18,68,-18h36V0H639V27h36c0,0,62,0,90,37c0,0,19,24,19,115V487H314V179c0,0,0,-77,9,-102c0,0,8,-18,32,-32c0,0,32,-18,67,-18h37V0Z" 
id="f0_18"
transform="scale(0.001,-0.001)" />

<path d="M-13,338v55H1541V338Z" 
id="f0_4z"
transform="scale(0.001,-0.001)" />

<path d="M545,30c0,0,143,0,236,111c0,0,93,111,93,351c0,0,0,259,-103,386c0,0,-82,102,-226,102c0,0,-136,0,-218,-101C327,879,225,754,225,512c0,0,0,-247,106,-380c0,0,81,-102,214,-102Zm2,-51c0,0,-209,0,-351,147C196,126,54,274,54,510c0,0,0,240,164,393c0,0,142,131,341,131c0,0,197,0,341,-149c0,0,145,-149,145,-373c0,0,0,-230,-146,-382C899,130,754,-21,547,-21Z" 
id="f0_1f"
transform="scale(0.001,-0.001)" />

<path d="M911,-16L244,799V175c0,0,0,-93,21,-116c0,0,28,-32,86,-32h36V0H36V27H71c0,0,65,0,92,39c0,0,16,24,16,109V879c0,0,-44,52,-67,68c0,0,-23,17,-67,31c0,0,-21,7,-64,7v27H253L873,253V837c0,0,0,93,-21,116c0,0,-28,32,-87,32H730v27h351V985h-36c0,0,-64,0,-91,-39c0,0,-16,-24,-16,-109V-16Z" 
id="f0_1e"
transform="scale(0.001,-0.001)" />

<path d="M452,373V875L97,373ZM452,0V267H23v95l470,671h82V373H711V267H575V0Z" 
id="f0_o"
transform="scale(0.001,-0.001)" />

<path d="M415,-18c0,0,-149,0,-244,83c0,0,-94,84,-107,222l140,11c0,0,16,-103,73,-154c0,0,56,-52,137,-52c0,0,98,0,165,73c0,0,66,73,66,194c0,0,0,115,-64,182c0,0,-64,66,-169,66c0,0,-65,0,-117,-29c0,0,-52,-30,-82,-77L87,517l106,562H736V951H300L241,657c0,0,99,69,207,69c0,0,143,0,242,-100c0,0,98,-99,98,-255c0,0,0,-149,-86,-257C702,114,597,-18,415,-18Z" 
id="f1_p"
transform="scale(0.001,-0.001)" />


</defs>
</svg>