<?xml version="1.0" encoding="UTF-8" standalone="no"?>
<!DOCTYPE svg PUBLIC "-//W3C//DTD SVG 1.1//EN"
"http://www.w3.org/Graphics/SVG/1.1/DTD/svg11.dtd">
<svg viewBox="0 0 909 1286" version="1.1" xmlns="http://www.w3.org/2000/svg" xmlns:xlink="http://www.w3.org/1999/xlink">
<defs>
<style type="text/css"><![CDATA[
.g0_2{
fill: none;
stroke: #FFFFFF;
stroke-width: 0.77152777;
stroke-linecap: round;
stroke-linejoin: round;
}
.g1_2{
fill: none;
stroke: #FFFFFF;
stroke-width: 0.36666667;
stroke-linecap: butt;
stroke-linejoin: miter;
stroke-miterlimit: 2;
}
.g2_2{
fill: #FFFFFF;
}
.g3_2{
fill: #1F1A17;
}
]]></style>
</defs>
<path d="M512.4,486.7l6.2,9.7l5.4,8.5l4.1,8.7l2,8.5l1.1,7.7l1.2,6.7l-1.2,6.7l-2.1,6.7l-2,4.9l-3.1,5.6l-3.1,4.9l-3.4,3.9l-7.1,6.6l-6.5,4.7l-11.5,6.9l-10.3,6.7l-11.6,5.6L459,606.4l-6.4,3.9l-6.2,4.9l-5.4,4.6l-5.1,5.9l-4.1,6.7l-3.4,7.4l-1,9.8l-1,10.5l-6.2,-10.5l-5.4,-10.5l-3.1,-10.6l-1,-10.5v-4.9l1,-4.9l1.1,-4.6l2,-3.9l2.1,-4.8l3.3,-3.9l3.1,-3.6l4.1,-3.8l17,-11.6l16.7,-9.5l14.6,-8.8L489.3,546l6.4,-4.6l5.2,-6.7L505,528l3.3,-7.7l2.1,-8.7l2,-7.7V486.7" class="g0_2" />
<path d="M454.6,618.8l4.4,3.8l3.1,3.9l2,3.8l2.1,4.9l2.3,5.7l1,5.6l1,5.9v7.7l5.2,-8.7l4.1,-7.7l3.4,-7.7l2,-7.5l1,-7.7v-6.7l-1,-7.7l-2,-6.7l-28.6,19.1" class="g1_2" />
<path fill-rule="evenodd" d="M279.7,577.6L310,573.8l1.1,9.8v9.5l-1.1,1l-1,1.8l-2.1,1.8h-2l-2.1,1h-3.3l-2,-1l-2.1,-1.8l-2.1,-2.8l-11.5,9.5l-1,-9.5l11.5,-8.8l-11.5,1l-1.1,-7.7Zm16.7,6v1.7l1.1,2.1l1,1.8l1,1h3.3l1.1,-1l1,-1.8v-4.9l-8.5,1.1Zm2.1,36.2l2,8.7l9.5,-6.6l1.1,-1.1h1l1,-1H298.5Zm-14.7,-7.7l32.7,1l3.1,10.5l-26.3,20.1l-2,-8.5l4.1,-2.8l-3.1,-12.6h-5.4l-3.1,-7.7ZM329,673.5l-2.3,.8l-3,1l-3.1,1l-3.1,-1l-3.4,-1l-3,-.8L309,670.7l-2.1,-2.1l-2,-3.8l-1,-2.9v-6.6l1,-2.9l2,-2.8l1.1,-3.1l3.1,-1.8l2,-1.8l3.4,-1h6.1l3.1,1l3.3,1.8l2.1,1.8l2.1,3.1l2,2.8l1,2.9v6.6l-1,3.9l-1,2.8l-2.1,2.1l-3.1,2.8ZM312.1,664l3.3,2.8l3.1,.8h3.1l3.1,-1.8l2,-2.8l2.3,-2.9v-3.8l-1,-2.8l-2.3,-2.1l-3.1,-1h-4.1l-3.1,1l-2.3,2.8l-2,2.9v3.8l1,3.1Zm31.6,45l18.7,-26l6.4,5.7l-19,25.9L343.7,709Zm20.8,15.2l14.9,-28.9l7.2,4.9L371.9,728l-7.4,-3.8Zm26.2,12.5l7.4,-23.1L392,710.8l3.1,-6.7l19.7,7.7l-2,6.7l-6.2,-2.1l-8.5,23.2l-7.4,-2.9Zm58.8,-1H458l-4.4,-10.5v-2.9l-1,-2v3.9l-1,1l-2.1,10.5Zm-11.6,11.6l9.5,-31.7H458l11.5,31.7h-8.4L459,741.4H447.4l-1,5.9h-8.5ZM494.7,709l2.1,9.5l-2.1,-2.1h-5.4l-3.1,1.1l-2,2.8l-1,3.9l1,2.8l1,3.8l2.1,2.1l3,.7h3.1l2.3,-.7l1.1,-1l2,-1.1l1,-2.8l2.1,9.5l-1,1l-2.1,2.1l-2,.8h-2.1l-2.3,1h-4.1l-2.1,-1l-4.1,-1.8l-2.3,-2.9l-3.1,-3.1l-1,-3.6l-1,-3.8v-3.1l1,-3.6l1,-3.1l2.1,-2.8l2.3,-1.8l2.1,-1l3,-1.8h8.5Zm22.9,10.5l7.4,-4.9l-7.4,-7.7h-1.1v-1l-1,-.8l-1,-1v1l1,.8v2l2.1,11.6Zm-5.2,15.2l-4.1,-33.4l8.2,-4.9l24.2,23.9l-7.2,3.9l-4.4,-4.7l-10.5,5.7l1.3,5.6l-7.5,3.9Zm37.8,-22.1L529.1,689.7l5.4,-4.9l4.1,-4.6l3.1,-2.1l3.3,-1.8h6.2l3.1,1.1l3.1,.7l3.3,3.1l2.1,3.6l1,3.1l1,3.8v3.6l-1,2.1l-1,2.8l-3.1,2.9l-3.4,3.8l-1,1l-5.1,4.7Zm2,-11.3l1.1,-1.1l2,-2.8l1,-3.8v-2.9l-2,-2.8l-3.1,-3.1l-3.1,-.8l-3.1,.8l-3.3,3.1l-1,.8l11.5,12.6Zm28.3,-20.1L555.3,663l11.6,-16.5l5.4,3.9l-6.5,9.7L570,663l6.4,-8.8l5.1,3.9l-6.2,8.7l4.1,3.9l6.5,-9.8l6.1,4.9l-11.5,15.4ZM613.1,618l-3.1,7.7l-13.6,-3.8h-1.3l-1,-1.1l-2.1,-1h-2l2,1l2.1,1.8l1,1l11.6,9.5l-2.1,4.9L590,637h-1l-3.1,-1h-2.1l2.1,1h1l2.1,1l1,1.1l11.5,7.4l-3,7L572.3,637l3,-7.7l16.7,1v1.1h4.4h-1.3l-1,-1.1l-1,-1l-1.1,-.8L579.4,618l3.1,-7.7l30.6,7.7Zm2.1,-21.1l-13.7,-2l-17.7,8.7l1.1,-9.5l8.2,-3.1l2,-.8h1.3l-1.3,-1h-1l-1,-1l-6.2,-4.6l1,-10.6l14.7,14.4l13.6,1.8l-1,7.7Z" class="g2_2" />
<g fill="#000000" >
<use xlink:href="#f0_p" transform="matrix(12,0,0,12,64.9,109.3)" />
<use xlink:href="#f0_i" transform="matrix(12,0,0,12,74.1,109.3)" />
<use xlink:href="#f1_11" transform="matrix(12,0,0,12,117,109.3)" />
<use xlink:href="#f1_2a" transform="matrix(12,0,0,12,130.2,109.3)" />
<use xlink:href="#f1_1x" transform="matrix(12,0,0,12,139.4,109.3)" />
<use xlink:href="#f1_28" transform="matrix(12,0,0,12,147.5,109.3)" />
<use xlink:href="#f1_2l" transform="matrix(12,0,0,12,152.6,109.3)" />
<use xlink:href="#f1_2f" transform="matrix(12,0,0,12,161.8,109.3)" />
<use xlink:href="#f1_25" transform="matrix(12,0,0,12,168.9,109.3)" />
<use xlink:href="#f1_2f" transform="matrix(12,0,0,12,174,109.3)" />
<use xlink:href="#f1_2f" transform="matrix(12,0,0,12,184.3,109.3)" />
<use xlink:href="#f1_24" transform="matrix(12,0,0,12,191.4,109.3)" />
<use xlink:href="#f1_2b" transform="matrix(12,0,0,12,200.6,109.3)" />
<use xlink:href="#f1_2j" transform="matrix(12,0,0,12,209.8,109.3)" />
<use xlink:href="#f1_2f" transform="matrix(12,0,0,12,223,109.3)" />
<use xlink:href="#f1_2g" transform="matrix(12,0,0,12,232.9,109.3)" />
<use xlink:href="#f1_24" transform="matrix(12,0,0,12,238,109.3)" />
<use xlink:href="#f1_1x" transform="matrix(12,0,0,12,247.2,109.3)" />
<use xlink:href="#f1_2g" transform="matrix(12,0,0,12,255.3,109.3)" />
<use xlink:href="#f2_16" transform="matrix(12,0,0,12,263.9,109.3)" />
<use xlink:href="#f2_21" transform="matrix(12,0,0,12,275.1,109.3)" />
<use xlink:href="#f2_1f" transform="matrix(12,0,0,12,283.2,109.3)" />
<use xlink:href="#f1_24" transform="matrix(12,0,0,12,299.3,109.3)" />
<use xlink:href="#f1_1x" transform="matrix(12,0,0,12,308.5,109.3)" />
<use xlink:href="#f1_2f" transform="matrix(12,0,0,12,316.6,109.3)" />
<use xlink:href="#f1_1x" transform="matrix(12,0,0,12,326.2,109.3)" />
<use xlink:href="#f1_2a" transform="matrix(12,0,0,12,337.6,109.3)" />
<use xlink:href="#f1_2b" transform="matrix(12,0,0,12,346.7,109.3)" />
<use xlink:href="#f1_2a" transform="matrix(12,0,0,12,355.9,109.3)" />
<use xlink:href="#f1_h" transform="matrix(12,0,0,12,365.1,109.3)" />
<use xlink:href="#f1_2f" transform="matrix(12,0,0,12,371.2,109.3)" />
<use xlink:href="#f1_2g" transform="matrix(12,0,0,12,378.3,109.3)" />
<use xlink:href="#f1_2b" transform="matrix(12,0,0,12,383.4,109.3)" />
<use xlink:href="#f1_25" transform="matrix(12,0,0,12,392.6,109.3)" />
<use xlink:href="#f1_1z" transform="matrix(12,0,0,12,397.7,109.3)" />
<use xlink:href="#f1_24" transform="matrix(12,0,0,12,405.8,109.3)" />
<use xlink:href="#f1_25" transform="matrix(12,0,0,12,415,109.3)" />
<use xlink:href="#f1_2b" transform="matrix(12,0,0,12,420.1,109.3)" />
<use xlink:href="#f1_29" transform="matrix(12,0,0,12,429.2,109.3)" />
<use xlink:href="#f1_21" transform="matrix(12,0,0,12,443.5,109.3)" />
<use xlink:href="#f1_2g" transform="matrix(12,0,0,12,451.6,109.3)" />
<use xlink:href="#f1_2e" transform="matrix(12,0,0,12,456.7,109.3)" />
<use xlink:href="#f1_25" transform="matrix(12,0,0,12,462.8,109.3)" />
<use xlink:href="#f1_1z" transform="matrix(12,0,0,12,467.9,109.3)" />
<use xlink:href="#f1_1z" transform="matrix(12,0,0,12,479.3,109.3)" />
<use xlink:href="#f1_2b" transform="matrix(12,0,0,12,487.4,109.3)" />
<use xlink:href="#f1_29" transform="matrix(12,0,0,12,496.6,109.3)" />
<use xlink:href="#f1_2c" transform="matrix(12,0,0,12,510.9,109.3)" />
<use xlink:href="#f1_2b" transform="matrix(12,0,0,12,520,109.3)" />
<use xlink:href="#f1_2f" transform="matrix(12,0,0,12,529.2,109.3)" />
<use xlink:href="#f1_25" transform="matrix(12,0,0,12,536.3,109.3)" />
<use xlink:href="#f1_2g" transform="matrix(12,0,0,12,541.4,109.3)" />
<use xlink:href="#f1_25" transform="matrix(12,0,0,12,546.5,109.3)" />
<use xlink:href="#f1_2b" transform="matrix(12,0,0,12,551.6,109.3)" />
<use xlink:href="#f1_2a" transform="matrix(12,0,0,12,560.8,109.3)" />
<use xlink:href="#f1_2j" transform="matrix(12,0,0,12,572.5,109.3)" />
<use xlink:href="#f1_25" transform="matrix(12,0,0,12,585.8,109.3)" />
<use xlink:href="#f1_2g" transform="matrix(12,0,0,12,590.9,109.3)" />
<use xlink:href="#f1_24" transform="matrix(12,0,0,12,596,109.3)" />
<use xlink:href="#f1_22" transform="matrix(12,0,0,12,607.7,109.3)" />
<use xlink:href="#f1_2b" transform="matrix(12,0,0,12,613.8,109.3)" />
<use xlink:href="#f1_2e" transform="matrix(12,0,0,12,623,109.3)" />
<use xlink:href="#f1_29" transform="matrix(12,0,0,12,629.1,109.3)" />
<use xlink:href="#f1_2h" transform="matrix(12,0,0,12,643.4,109.3)" />
<use xlink:href="#f1_28" transform="matrix(12,0,0,12,652.5,109.3)" />
<use xlink:href="#f1_1x" transform="matrix(12,0,0,12,657.6,109.3)" />
<use xlink:href="#f2_16" transform="matrix(12,0,0,12,668.4,109.3)" />
<use xlink:href="#f2_21" transform="matrix(12,0,0,12,679.6,109.3)" />
<use xlink:href="#f1_k" transform="matrix(7,0,0,7,687.7,115.5)" />
<use xlink:href="#f1_i" transform="matrix(7,0,0,7,693,115.5)" />
<use xlink:href="#f1_t" transform="matrix(7,0,0,7,695.7,115.5)" />
<use xlink:href="#f1_p" transform="matrix(7,0,0,7,701,115.5)" />
<use xlink:href="#f2_1f" transform="matrix(12,0,0,12,706.3,109.3)" />
<use xlink:href="#f1_i" transform="matrix(12,0,0,12,719.5,109.3)" />
<use xlink:href="#f1_17" transform="matrix(12,0,0,12,726.9,109.3)" />
<use xlink:href="#f1_25" transform="matrix(12,0,0,12,740.1,109.3)" />
<use xlink:href="#f1_2i" transform="matrix(12,0,0,12,745.2,109.3)" />
<use xlink:href="#f1_21" transform="matrix(12,0,0,12,754.4,109.3)" />
<use xlink:href="#f1_2e" transform="matrix(12,0,0,12,64.9,137.8)" />
<use xlink:href="#f1_21" transform="matrix(12,0,0,12,71,137.8)" />
<use xlink:href="#f1_1x" transform="matrix(12,0,0,12,79.1,137.8)" />
<use xlink:href="#f1_2f" transform="matrix(12,0,0,12,87.3,137.8)" />
<use xlink:href="#f1_2b" transform="matrix(12,0,0,12,94.4,137.8)" />
<use xlink:href="#f1_2a" transform="matrix(12,0,0,12,103.6,137.8)" />
<use xlink:href="#f1_i" transform="matrix(12,0,0,12,112.7,137.8)" />
<use xlink:href="#f1_11" transform="matrix(12,0,0,12,64.9,164.4)" />
<use xlink:href="#f1_2a" transform="matrix(12,0,0,12,78.1,164.4)" />
<use xlink:href="#f1_2f" transform="matrix(12,0,0,12,87.3,164.4)" />
<use xlink:href="#f1_i" transform="matrix(12,0,0,12,94.4,164.4)" />
<use xlink:href="#f1_11" transform="matrix(12,0,0,12,119,164.4)" />
<use xlink:href="#f1_2f" transform="matrix(12,0,0,12,132.2,164.4)" />
<use xlink:href="#f1_25" transform="matrix(12,0,0,12,142.1,164.4)" />
<use xlink:href="#f1_2g" transform="matrix(12,0,0,12,147.2,164.4)" />
<use xlink:href="#f1_25" transform="matrix(12,0,0,12,155.3,164.4)" />
<use xlink:href="#f1_2f" transform="matrix(12,0,0,12,160.4,164.4)" />
<use xlink:href="#f1_1x" transform="matrix(12,0,0,12,170.3,164.4)" />
<use xlink:href="#f1_2a" transform="matrix(12,0,0,12,178.5,164.4)" />
<use xlink:href="#f1_25" transform="matrix(12,0,0,12,190.6,164.4)" />
<use xlink:href="#f1_2a" transform="matrix(12,0,0,12,195.7,164.4)" />
<use xlink:href="#f1_2g" transform="matrix(12,0,0,12,204.9,164.4)" />
<use xlink:href="#f1_21" transform="matrix(12,0,0,12,210,164.4)" />
<use xlink:href="#f1_2e" transform="matrix(12,0,0,12,218.1,164.4)" />
<use xlink:href="#f1_2f" transform="matrix(12,0,0,12,224.2,164.4)" />
<use xlink:href="#f1_2g" transform="matrix(12,0,0,12,231.3,164.4)" />
<use xlink:href="#f1_25" transform="matrix(12,0,0,12,236.4,164.4)" />
<use xlink:href="#f1_2g" transform="matrix(12,0,0,12,241.5,164.4)" />
<use xlink:href="#f1_25" transform="matrix(12,0,0,12,246.6,164.4)" />
<use xlink:href="#f1_1x" transform="matrix(12,0,0,12,251.7,164.4)" />
<use xlink:href="#f1_28" transform="matrix(12,0,0,12,259.8,164.4)" />
<use xlink:href="#f1_1z" transform="matrix(12,0,0,12,267.2,164.4)" />
<use xlink:href="#f1_2b" transform="matrix(12,0,0,12,275.3,164.4)" />
<use xlink:href="#f1_29" transform="matrix(12,0,0,12,284.5,164.4)" />
<use xlink:href="#f1_2c" transform="matrix(12,0,0,12,298.8,164.4)" />
<use xlink:href="#f1_2b" transform="matrix(12,0,0,12,307.9,164.4)" />
<use xlink:href="#f1_2h" transform="matrix(12,0,0,12,317.1,164.4)" />
<use xlink:href="#f1_2a" transform="matrix(12,0,0,12,326.3,164.4)" />
<use xlink:href="#f1_20" transform="matrix(12,0,0,12,335.4,164.4)" />
<use xlink:href="#f1_2g" transform="matrix(12,0,0,12,347.2,164.4)" />
<use xlink:href="#f1_24" transform="matrix(12,0,0,12,352.3,164.4)" />
<use xlink:href="#f1_21" transform="matrix(12,0,0,12,361.4,164.4)" />
<use xlink:href="#f1_2l" transform="matrix(12,0,0,12,369.6,164.4)" />
<use xlink:href="#f1_20" transform="matrix(12,0,0,12,381,164.4)" />
<use xlink:href="#f1_2b" transform="matrix(12,0,0,12,390.1,164.4)" />
<use xlink:href="#f1_2a" transform="matrix(12,0,0,12,399.3,164.4)" />
<use xlink:href="#f1_2g" transform="matrix(12,0,0,12,408.5,164.4)" />
<use xlink:href="#f1_22" transform="matrix(12,0,0,12,416.9,164.4)" />
<use xlink:href="#f1_2b" transform="matrix(12,0,0,12,423,164.4)" />
<use xlink:href="#f1_28" transform="matrix(12,0,0,12,432.2,164.4)" />
<use xlink:href="#f1_28" transform="matrix(12,0,0,12,437.3,164.4)" />
<use xlink:href="#f1_2b" transform="matrix(12,0,0,12,442.4,164.4)" />
<use xlink:href="#f1_2j" transform="matrix(12,0,0,12,451.5,164.4)" />
<use xlink:href="#f1_1x" transform="matrix(12,0,0,12,467.7,164.4)" />
<use xlink:href="#f1_2a" transform="matrix(12,0,0,12,475.8,164.4)" />
<use xlink:href="#f1_2l" transform="matrix(12,0,0,12,485,164.4)" />
<use xlink:href="#f1_2c" transform="matrix(12,0,0,12,496,164.4)" />
<use xlink:href="#f1_1x" transform="matrix(12,0,0,12,505.2,164.4)" />
<use xlink:href="#f1_2e" transform="matrix(12,0,0,12,513.3,164.4)" />
<use xlink:href="#f1_2g" transform="matrix(12,0,0,12,519.4,164.4)" />
<use xlink:href="#f1_25" transform="matrix(12,0,0,12,524.5,164.4)" />
<use xlink:href="#f1_1z" transform="matrix(12,0,0,12,529.6,164.4)" />
<use xlink:href="#f1_2h" transform="matrix(12,0,0,12,537.8,164.4)" />
<use xlink:href="#f1_28" transform="matrix(12,0,0,12,546.9,164.4)" />
<use xlink:href="#f1_1x" transform="matrix(12,0,0,12,552,164.4)" />
<use xlink:href="#f1_2e" transform="matrix(12,0,0,12,560.2,164.4)" />
<use xlink:href="#f1_2f" transform="matrix(12,0,0,12,569.4,164.4)" />
<use xlink:href="#f1_2g" transform="matrix(12,0,0,12,576.5,164.4)" />
<use xlink:href="#f1_2b" transform="matrix(12,0,0,12,581.6,164.4)" />
<use xlink:href="#f1_25" transform="matrix(12,0,0,12,590.7,164.4)" />
<use xlink:href="#f1_1z" transform="matrix(12,0,0,12,595.8,164.4)" />
<use xlink:href="#f1_24" transform="matrix(12,0,0,12,604,164.4)" />
<use xlink:href="#f1_25" transform="matrix(12,0,0,12,613.1,164.4)" />
<use xlink:href="#f1_2b" transform="matrix(12,0,0,12,618.2,164.4)" />
<use xlink:href="#f1_29" transform="matrix(12,0,0,12,627.4,164.4)" />
<use xlink:href="#f1_21" transform="matrix(12,0,0,12,641.7,164.4)" />
<use xlink:href="#f1_2g" transform="matrix(12,0,0,12,649.8,164.4)" />
<use xlink:href="#f1_2e" transform="matrix(12,0,0,12,654.9,164.4)" />
<use xlink:href="#f1_25" transform="matrix(12,0,0,12,661,164.4)" />
<use xlink:href="#f1_1z" transform="matrix(12,0,0,12,666.1,164.4)" />
<use xlink:href="#f1_1z" transform="matrix(12,0,0,12,677.5,164.4)" />
<use xlink:href="#f1_2b" transform="matrix(12,0,0,12,685.6,164.4)" />
<use xlink:href="#f1_29" transform="matrix(12,0,0,12,694.8,164.4)" />
<use xlink:href="#f1_2c" transform="matrix(12,0,0,12,709,164.4)" />
<use xlink:href="#f1_2b" transform="matrix(12,0,0,12,718.2,164.4)" />
<use xlink:href="#f1_2f" transform="matrix(12,0,0,12,727.4,164.4)" />
<use xlink:href="#f1_25" transform="matrix(12,0,0,12,734.5,164.4)" />
<use xlink:href="#f1_2g" transform="matrix(12,0,0,12,739.6,164.4)" />
<use xlink:href="#f1_25" transform="matrix(12,0,0,12,744.7,164.4)" />
<use xlink:href="#f1_2b" transform="matrix(12,0,0,12,749.8,164.4)" />
<use xlink:href="#f1_2a" transform="matrix(12,0,0,12,758.9,164.4)" />
<use xlink:href="#f1_i" transform="matrix(12,0,0,12,768.1,164.4)" />
<use xlink:href="#f0_q" transform="matrix(12,0,0,12,64.9,207.3)" />
<use xlink:href="#f0_i" transform="matrix(12,0,0,12,74.1,207.3)" />
<use xlink:href="#f1_13" transform="matrix(12,0,0,12,117,207.3)" />
<use xlink:href="#f1_2b" transform="matrix(12,0,0,12,129.2,207.3)" />
<use xlink:href="#f1_29" transform="matrix(12,0,0,12,138.4,207.3)" />
<use xlink:href="#f1_2c" transform="matrix(12,0,0,12,152.6,207.3)" />
<use xlink:href="#f1_28" transform="matrix(12,0,0,12,161.8,207.3)" />
<use xlink:href="#f1_21" transform="matrix(12,0,0,12,166.9,207.3)" />
<use xlink:href="#f1_2g" transform="matrix(12,0,0,12,175,207.3)" />
<use xlink:href="#f1_21" transform="matrix(12,0,0,12,180.1,207.3)" />
<use xlink:href="#f1_1x" transform="matrix(12,0,0,12,191.1,207.3)" />
<use xlink:href="#f1_2a" transform="matrix(12,0,0,12,199.3,207.3)" />
<use xlink:href="#f1_20" transform="matrix(12,0,0,12,208.4,207.3)" />
<use xlink:href="#f1_1y" transform="matrix(12,0,0,12,220.2,207.3)" />
<use xlink:href="#f1_1x" transform="matrix(12,0,0,12,229.4,207.3)" />
<use xlink:href="#f1_28" transform="matrix(12,0,0,12,237.5,207.3)" />
<use xlink:href="#f1_1x" transform="matrix(12,0,0,12,242.6,207.3)" />
<use xlink:href="#f1_2a" transform="matrix(12,0,0,12,250.7,207.3)" />
<use xlink:href="#f1_1z" transform="matrix(12,0,0,12,259.9,207.3)" />
<use xlink:href="#f1_21" transform="matrix(12,0,0,12,268,207.3)" />
<use xlink:href="#f1_2g" transform="matrix(12,0,0,12,279.1,207.3)" />
<use xlink:href="#f1_24" transform="matrix(12,0,0,12,284.2,207.3)" />
<use xlink:href="#f1_21" transform="matrix(12,0,0,12,293.3,207.3)" />
<use xlink:href="#f1_22" transform="matrix(12,0,0,12,304.7,207.3)" />
<use xlink:href="#f1_2b" transform="matrix(12,0,0,12,310.8,207.3)" />
<use xlink:href="#f1_28" transform="matrix(12,0,0,12,320,207.3)" />
<use xlink:href="#f1_28" transform="matrix(12,0,0,12,325.1,207.3)" />
<use xlink:href="#f1_2b" transform="matrix(12,0,0,12,330.2,207.3)" />
<use xlink:href="#f1_2j" transform="matrix(12,0,0,12,339.3,207.3)" />
<use xlink:href="#f1_25" transform="matrix(12,0,0,12,352.6,207.3)" />
<use xlink:href="#f1_2a" transform="matrix(12,0,0,12,357.7,207.3)" />
<use xlink:href="#f1_23" transform="matrix(12,0,0,12,366.8,207.3)" />
<use xlink:href="#f1_1z" transform="matrix(12,0,0,12,379,207.3)" />
<use xlink:href="#f1_24" transform="matrix(12,0,0,12,387.1,207.3)" />
<use xlink:href="#f1_21" transform="matrix(12,0,0,12,396.3,207.3)" />
<use xlink:href="#f1_29" transform="matrix(12,0,0,12,404.4,207.3)" />
<use xlink:href="#f1_25" transform="matrix(12,0,0,12,418.7,207.3)" />
<use xlink:href="#f1_1z" transform="matrix(12,0,0,12,423.8,207.3)" />
<use xlink:href="#f1_1x" transform="matrix(12,0,0,12,431.9,207.3)" />
<use xlink:href="#f1_28" transform="matrix(12,0,0,12,440,207.3)" />
<use xlink:href="#f1_21" transform="matrix(12,0,0,12,447.4,207.3)" />
<use xlink:href="#f1_2d" transform="matrix(12,0,0,12,455.5,207.3)" />
<use xlink:href="#f1_2h" transform="matrix(12,0,0,12,464.7,207.3)" />
<use xlink:href="#f1_1x" transform="matrix(12,0,0,12,473.9,207.3)" />
<use xlink:href="#f1_2g" transform="matrix(12,0,0,12,482,207.3)" />
<use xlink:href="#f1_25" transform="matrix(12,0,0,12,487.1,207.3)" />
<use xlink:href="#f1_2b" transform="matrix(12,0,0,12,492.2,207.3)" />
<use xlink:href="#f1_2a" transform="matrix(12,0,0,12,501.3,207.3)" />
<use xlink:href="#f1_2f" transform="matrix(12,0,0,12,510.5,207.3)" />
<use xlink:href="#f1_u" transform="matrix(12,0,0,12,520.4,207.3)" />
<use xlink:href="#f1_c" transform="matrix(12,0,0,12,117,241)" />
<use xlink:href="#f1_1x" transform="matrix(12,0,0,12,122.5,241)" />
<use xlink:href="#f1_d" transform="matrix(12,0,0,12,130.2,241)" />
<use xlink:href="#f1_m" transform="matrix(6.9,0,0,6.9,178.9,234.4)" />
<use xlink:href="#f1_o" transform="matrix(6.9,0,0,6.9,246.4,247.3)" />
<use xlink:href="#f2_16" transform="matrix(12,0,0,12,159.1,242.5)" />
<use xlink:href="#f2_21" transform="matrix(12,0,0,12,170.5,242.5)" />
<use xlink:href="#f2_1d" transform="matrix(12,0,0,12,209.7,242.5)" />
<use xlink:href="#f2_2a" transform="matrix(12,0,0,12,224.8,242.5)" />
<use xlink:href="#f2_1f" transform="matrix(12,0,0,12,233.9,242.5)" />
<use xlink:href="#f2_18" transform="matrix(12,0,0,12,273.2,242.5)" />
<use xlink:href="#f3_f" transform="matrix(6.9,0,0,6.9,184.8,234.4)" />
<use xlink:href="#f3_h" transform="matrix(6.9,0,0,6.9,248.2,234.4)" />
<use xlink:href="#f3_f" transform="matrix(6.9,0,0,6.9,289.3,234.4)" />
<use xlink:href="#f3_f" transform="matrix(12,0,0,12,195.8,242.5)" />
<use xlink:href="#f3_f" transform="matrix(12,0,0,12,258.9,242.5)" />
<use xlink:href="#f3_3k" transform="matrix(12,0,0,12,300.6,242.5)" />
<use xlink:href="#f3_3k" transform="matrix(12,0,0,12,319.3,242.5)" />
<use xlink:href="#f3_34" transform="matrix(12,0,0,12,323.4,242.5)" />
<use xlink:href="#f1_c" transform="matrix(12,0,0,12,117,278.4)" />
<use xlink:href="#f1_1y" transform="matrix(12,0,0,12,122.9,278.4)" />
<use xlink:href="#f1_d" transform="matrix(12,0,0,12,131.3,278.4)" />
<use xlink:href="#f1_4y" transform="matrix(6.9,0,0,6.9,282.7,271.8)" />
<use xlink:href="#f1_o" transform="matrix(6.9,0,0,6.9,195.8,284.7)" />
<use xlink:href="#f1_m" transform="matrix(6.9,0,0,6.9,237.2,284.7)" />
<use xlink:href="#f2_1d" transform="matrix(12,0,0,12,158.8,279.9)" />
<use xlink:href="#f2_2a" transform="matrix(12,0,0,12,174.2,279.9)" />
<use xlink:href="#f2_1f" transform="matrix(12,0,0,12,183.3,279.9)" />
<use xlink:href="#f2_18" transform="matrix(12,0,0,12,222.6,279.9)" />
<use xlink:href="#f2_1f" transform="matrix(12,0,0,12,242.7,279.9)" />
<use xlink:href="#f2_19" transform="matrix(12,0,0,12,273.5,279.9)" />
<use xlink:href="#f3_h" transform="matrix(6.9,0,0,6.9,197.6,271.8)" />
<use xlink:href="#f3_f" transform="matrix(12,0,0,12,208.3,279.9)" />
<use xlink:href="#f3_f" transform="matrix(12,0,0,12,259.6,279.9)" />
<use xlink:href="#f3_3k" transform="matrix(12,0,0,12,294,279.9)" />
<use xlink:href="#f3_3k" transform="matrix(12,0,0,12,312.4,279.9)" />
<use xlink:href="#f3_34" transform="matrix(12,0,0,12,316.4,279.9)" />
<use xlink:href="#f1_11" transform="matrix(12,0,0,12,64.9,315.8)" />
<use xlink:href="#f1_2a" transform="matrix(12,0,0,12,77.4,315.8)" />
<use xlink:href="#f1_2f" transform="matrix(12,0,0,12,85.8,315.8)" />
<use xlink:href="#f1_i" transform="matrix(12,0,0,12,92.4,315.8)" />
<use xlink:href="#f1_c" transform="matrix(12,0,0,12,117,315.8)" />
<use xlink:href="#f1_1x" transform="matrix(12,0,0,12,122.5,315.8)" />
<use xlink:href="#f1_d" transform="matrix(12,0,0,12,130.2,315.8)" />
<use xlink:href="#f1_m" transform="matrix(6.9,0,0,6.9,193.6,309.2)" />
<use xlink:href="#f1_n" transform="matrix(6.9,0,0,6.9,404.4,309.2)" />
<use xlink:href="#f1_m" transform="matrix(6.9,0,0,6.9,468.6,309.2)" />
<use xlink:href="#f1_o" transform="matrix(6.9,0,0,6.9,264,322.1)" />
<use xlink:href="#f1_m" transform="matrix(6.9,0,0,6.9,517,322.1)" />
<use xlink:href="#f1_p" transform="matrix(12,0,0,12,158,317.3)" />
<use xlink:href="#f1_m" transform="matrix(12,0,0,12,217.1,317.3)" />
<use xlink:href="#f1_s" transform="matrix(12,0,0,12,288.9,317.3)" />
<use xlink:href="#f1_p" transform="matrix(12,0,0,12,369.2,317.3)" />
<use xlink:href="#f1_m" transform="matrix(12,0,0,12,427.8,317.3)" />
<use xlink:href="#f1_o" transform="matrix(12,0,0,12,492,317.3)" />
<use xlink:href="#f2_16" transform="matrix(12,0,0,12,167.9,317.3)" />
<use xlink:href="#f2_21" transform="matrix(12,0,0,12,178.9,317.3)" />
<use xlink:href="#f2_1d" transform="matrix(12,0,0,12,227,317.3)" />
<use xlink:href="#f2_2a" transform="matrix(12,0,0,12,242,317.3)" />
<use xlink:href="#f2_1f" transform="matrix(12,0,0,12,251.2,317.3)" />
<use xlink:href="#f2_18" transform="matrix(12,0,0,12,298.8,317.3)" />
<use xlink:href="#f2_16" transform="matrix(12,0,0,12,378.8,317.3)" />
<use xlink:href="#f2_21" transform="matrix(12,0,0,12,390.1,317.3)" />
<use xlink:href="#f2_1d" transform="matrix(12,0,0,12,437.8,317.3)" />
<use xlink:href="#f2_2a" transform="matrix(12,0,0,12,452.8,317.3)" />
<use xlink:href="#f2_18" transform="matrix(12,0,0,12,502.3,317.3)" />
<use xlink:href="#f2_1f" transform="matrix(12,0,0,12,522.5,317.3)" />
<use xlink:href="#f3_f" transform="matrix(6.9,0,0,6.9,187.7,309.2)" />
<use xlink:href="#f3_h" transform="matrix(6.9,0,0,6.9,265.5,309.2)" />
<use xlink:href="#f3_f" transform="matrix(6.9,0,0,6.9,315,309.2)" />
<use xlink:href="#f3_f" transform="matrix(6.9,0,0,6.9,398.5,309.2)" />
<use xlink:href="#f3_f" transform="matrix(6.9,0,0,6.9,462.7,309.2)" />
<use xlink:href="#f3_f" transform="matrix(12,0,0,12,203.9,317.3)" />
<use xlink:href="#f3_f" transform="matrix(12,0,0,12,276.5,317.3)" />
<use xlink:href="#f3_3k" transform="matrix(12,0,0,12,326.7,317.3)" />
<use xlink:href="#f3_3k" transform="matrix(12,0,0,12,345,317.3)" />
<use xlink:href="#f3_34" transform="matrix(12,0,0,12,349.4,317.3)" />
<use xlink:href="#f3_f" transform="matrix(12,0,0,12,414.3,317.3)" />
<use xlink:href="#f3_f" transform="matrix(12,0,0,12,478.8,317.3)" />
<use xlink:href="#f1_c" transform="matrix(12,0,0,12,117,354)" />
<use xlink:href="#f1_1y" transform="matrix(12,0,0,12,122.9,354)" />
<use xlink:href="#f1_d" transform="matrix(12,0,0,12,131.3,354)" />
<use xlink:href="#f1_o" transform="matrix(6.8,0,0,6.8,205.3,359.1)" />
<use xlink:href="#f1_m" transform="matrix(6.8,0,0,6.8,246.4,359.1)" />
<use xlink:href="#f1_m" transform="matrix(6.8,0,0,6.8,392.7,359.1)" />
<use xlink:href="#f1_n" transform="matrix(6.8,0,0,6.8,497.9,359.1)" />
<use xlink:href="#f1_m" transform="matrix(11.8,0,0,11.8,158.8,354.3)" />
<use xlink:href="#f1_m" transform="matrix(11.8,0,0,11.8,346.1,354.3)" />
<use xlink:href="#f1_m" transform="matrix(11.8,0,0,11.8,416.5,354.3)" />
<use xlink:href="#f2_1d" transform="matrix(11.8,0,0,11.8,168.3,354.3)" />
<use xlink:href="#f2_2a" transform="matrix(11.8,0,0,11.8,183.7,354.3)" />
<use xlink:href="#f2_1f" transform="matrix(11.8,0,0,11.8,192.8,354.3)" />
<use xlink:href="#f2_18" transform="matrix(11.8,0,0,11.8,231.7,354.3)" />
<use xlink:href="#f2_1f" transform="matrix(11.8,0,0,11.8,252.2,354.3)" />
<use xlink:href="#f2_19" transform="matrix(11.8,0,0,11.8,282.7,354.3)" />
<use xlink:href="#f2_1d" transform="matrix(11.8,0,0,11.8,355.6,354.3)" />
<use xlink:href="#f2_2a" transform="matrix(11.8,0,0,11.8,371,354.3)" />
<use xlink:href="#f2_1f" transform="matrix(11.8,0,0,11.8,380.2,354.3)" />
<use xlink:href="#f2_1f" transform="matrix(11.8,0,0,11.8,425.2,354.3)" />
<use xlink:href="#f2_18" transform="matrix(11.8,0,0,11.8,438.4,354.3)" />
<use xlink:href="#f2_19" transform="matrix(11.8,0,0,11.8,479.5,354.3)" />
<use xlink:href="#f2_1f" transform="matrix(11.8,0,0,11.8,485.3,354.3)" />
<use xlink:href="#f3_h" transform="matrix(6.8,0,0,6.8,206.8,346.3)" />
<use xlink:href="#f3_h" transform="matrix(6.8,0,0,6.8,291.5,346.3)" />
<use xlink:href="#f3_h" transform="matrix(6.8,0,0,6.8,454.6,346.3)" />
<use xlink:href="#f3_h" transform="matrix(6.8,0,0,6.8,499.7,346.3)" />
<use xlink:href="#f3_f" transform="matrix(11.8,0,0,11.8,217.8,354.3)" />
<use xlink:href="#f3_f" transform="matrix(11.8,0,0,11.8,268.8,354.3)" />
<use xlink:href="#f3_3k" transform="matrix(11.8,0,0,11.8,302.9,354.3)" />
<use xlink:href="#f3_3k" transform="matrix(11.8,0,0,11.8,321.6,354.3)" />
<use xlink:href="#f3_34" transform="matrix(11.8,0,0,11.8,325.6,354.3)" />
<use xlink:href="#f3_f" transform="matrix(11.8,0,0,11.8,402.9,354.3)" />
<use xlink:href="#f3_f" transform="matrix(11.8,0,0,11.8,465.6,354.3)" />
<use xlink:href="#f1_r" transform="matrix(12,0,0,12,64.9,460.3)" />
<use xlink:href="#f1_i" transform="matrix(12,0,0,12,74.1,460.3)" />
<use xlink:href="#f1_18" transform="matrix(12,0,0,12,117,460.3)" />
<use xlink:href="#f1_2b" transform="matrix(12,0,0,12,129.8,460.3)" />
<use xlink:href="#f1_2j" transform="matrix(12,0,0,12,139,460.3)" />
<use xlink:href="#f1_20" transform="matrix(12,0,0,12,155.5,460.3)" />
<use xlink:href="#f1_2b" transform="matrix(12,0,0,12,164.3,460.3)" />
<use xlink:href="#f1_2l" transform="matrix(12,0,0,12,176.8,460.3)" />
<use xlink:href="#f1_2b" transform="matrix(12,0,0,12,184.9,460.3)" />
<use xlink:href="#f1_2h" transform="matrix(12,0,0,12,194.4,460.3)" />
<use xlink:href="#f1_1z" transform="matrix(12,0,0,12,206.2,460.3)" />
<use xlink:href="#f1_2b" transform="matrix(12,0,0,12,213.9,460.3)" />
<use xlink:href="#f1_2a" transform="matrix(12,0,0,12,223.1,460.3)" />
<use xlink:href="#f1_2i" transform="matrix(12,0,0,12,231.9,460.3)" />
<use xlink:href="#f1_21" transform="matrix(12,0,0,12,240.3,460.3)" />
<use xlink:href="#f1_2e" transform="matrix(12,0,0,12,248.1,460.3)" />
<use xlink:href="#f1_2g" transform="matrix(12,0,0,12,253.9,460.3)" />
<use xlink:href="#f1_2g" transform="matrix(12,0,0,12,262.4,460.3)" />
<use xlink:href="#f1_24" transform="matrix(12,0,0,12,267.9,460.3)" />
<use xlink:href="#f1_21" transform="matrix(12,0,0,12,276.3,460.3)" />
<use xlink:href="#f1_22" transform="matrix(12,0,0,12,287.4,460.3)" />
<use xlink:href="#f1_2b" transform="matrix(12,0,0,12,292.5,460.3)" />
<use xlink:href="#f1_28" transform="matrix(12,0,0,12,302.1,460.3)" />
<use xlink:href="#f1_28" transform="matrix(12,0,0,12,306.1,460.3)" />
<use xlink:href="#f1_2b" transform="matrix(12,0,0,12,310.2,460.3)" />
<use xlink:href="#f1_2j" transform="matrix(12,0,0,12,319.3,460.3)" />
<use xlink:href="#f1_25" transform="matrix(12,0,0,12,332.2,460.3)" />
<use xlink:href="#f1_2a" transform="matrix(12,0,0,12,336.2,460.3)" />
<use xlink:href="#f1_23" transform="matrix(12,0,0,12,345,460.3)" />
<use xlink:href="#f1_z" transform="matrix(12,0,0,12,357.2,460.3)" />
<use xlink:href="#f1_c" transform="matrix(12,0,0,12,117,488.9)" />
<use xlink:href="#f1_1x" transform="matrix(12,0,0,12,122.5,488.9)" />
<use xlink:href="#f1_d" transform="matrix(12,0,0,12,130.2,488.9)" />
<use xlink:href="#f1_15" transform="matrix(12,0,0,12,155.8,488.9)" />
<use xlink:href="#f1_2g" transform="matrix(12,0,0,12,166.9,488.9)" />
<use xlink:href="#f1_24" transform="matrix(12,0,0,12,172,488.9)" />
<use xlink:href="#f1_1x" transform="matrix(12,0,0,12,180.4,488.9)" />
<use xlink:href="#f1_2a" transform="matrix(12,0,0,12,188.1,488.9)" />
<use xlink:href="#f1_1x" transform="matrix(12,0,0,12,196.6,488.9)" />
<use xlink:href="#f1_28" transform="matrix(12,0,0,12,204.3,488.9)" />
<use xlink:href="#f1_2g" transform="matrix(12,0,0,12,211.7,488.9)" />
<use xlink:href="#f1_2b" transform="matrix(12,0,0,12,216.8,488.9)" />
<use xlink:href="#f1_1g" transform="matrix(12,0,0,12,229.3,488.9)" />
<use xlink:href="#f1_2e" transform="matrix(12,0,0,12,239.2,488.9)" />
<use xlink:href="#f1_2b" transform="matrix(12,0,0,12,245.1,488.9)" />
<use xlink:href="#f1_2c" transform="matrix(12,0,0,12,254.3,488.9)" />
<use xlink:href="#f1_1x" transform="matrix(12,0,0,12,263.1,488.9)" />
<use xlink:href="#f1_2a" transform="matrix(12,0,0,12,270.8,488.9)" />
<use xlink:href="#f1_2b" transform="matrix(12,0,0,12,279.2,488.9)" />
<use xlink:href="#f1_2a" transform="matrix(12,0,0,12,288.4,488.9)" />
<use xlink:href="#f1_21" transform="matrix(12,0,0,12,296.9,488.9)" />
<use xlink:href="#f1_11" transform="matrix(12,0,0,12,64.9,517.9)" />
<use xlink:href="#f1_2a" transform="matrix(12,0,0,12,77.4,517.9)" />
<use xlink:href="#f1_2f" transform="matrix(12,0,0,12,85.8,517.9)" />
<use xlink:href="#f1_i" transform="matrix(12,0,0,12,92.5,517.9)" />
</g>
<g fill="#1F1A17" >
<use xlink:href="#f1_13" transform="matrix(12,0,0,12,118.4,571.8)" />
<use xlink:href="#f1_18" transform="matrix(12,0,0,12,130.9,571.8)" />
<use xlink:href="#f1_4z" transform="matrix(12,0,0,12,153.2,571.8)" />
<use xlink:href="#f1_13" transform="matrix(12,0,0,12,176,571.8)" />
<use xlink:href="#f1_18" transform="matrix(12,0,0,12,188.4,571.8)" />
<use xlink:href="#f1_4z" transform="matrix(12,0,0,12,210.8,571.8)" />
<use xlink:href="#f1_1f" transform="matrix(12,0,0,12,233.5,571.8)" />
<use xlink:href="#f1_18" transform="matrix(12,0,0,12,246.7,571.8)" />
<use xlink:href="#f1_n" transform="matrix(6,0,0,6,144.1,575.4)" />
<use xlink:href="#f1_m" transform="matrix(6,0,0,6,201.7,575.4)" />
</g>
<path d="M315,566.6H266.6v-1.5H315v1.5Zm-.8,-4.8l7.4,4l-7.4,4.1v-8.1Z" class="g3_2" />
<g fill="#1F1A17" >
<use xlink:href="#f1_1g" transform="matrix(10.8,0,0,11,275.4,561.1)" />
<use xlink:href="#f1_13" transform="matrix(10.8,0,0,11,284.5,561.1)" />
<use xlink:href="#f1_13" transform="matrix(10.8,0,0,11,295.9,561.1)" />
<use xlink:href="#f1_13" transform="matrix(12,0,0,12,326,572.1)" />
<use xlink:href="#f1_18" transform="matrix(12,0,0,12,338.4,572.1)" />
<use xlink:href="#f1_4z" transform="matrix(12,0,0,12,360.8,572.1)" />
<use xlink:href="#f1_13" transform="matrix(12,0,0,12,383.5,572.1)" />
<use xlink:href="#f1_n" transform="matrix(6,0,0,6,351.6,576.2)" />
</g>
<path d="M409.6,543.1l-15.1,13.6l-1.1,-1.1L408.5,542l1.1,1.1Z" class="g3_2" />
<path d="M412.5,545.7l-14.7,13.5l-1.1,-1.1l15.1,-13.5l.7,1.1Z" class="g3_2" />
<path d="M410.7,587.4L395.6,573.9l1.1,-1.1l15.1,13.5l-1.1,1.1Z" class="g3_2" />
<g fill="#1F1A17" >
<use xlink:href="#f1_1f" transform="matrix(12,0,0,12,410.3,543.2)" />
<use xlink:href="#f1_18" transform="matrix(12,0,0,12,413.2,598.2)" />
</g>
<path d="M369.2,664.7V595.8h1.5v68.9h-1.5Zm4.8,-.4l-4,7.3l-4.1,-7.3H374Z" class="g3_2" />
<g fill="#1F1A17" >
<use xlink:href="#f1_l" transform="matrix(10.8,0,0,11,375.8,630.4)" />
<use xlink:href="#f1_i" transform="matrix(10.8,0,0,11,384.3,630.4)" />
<use xlink:href="#f1_13" transform="matrix(10.8,0,0,11,392.7,630.4)" />
<use xlink:href="#f1_18" transform="matrix(10.8,0,0,11,403.7,630.4)" />
<use xlink:href="#f1_1d" transform="matrix(10.8,0,0,11,420.2,630.4)" />
<use xlink:href="#f1_23" transform="matrix(10.8,0,0,11,435.2,630.4)" />
<use xlink:href="#f1_12" transform="matrix(10.8,0,0,11,443.6,630.4)" />
<use xlink:href="#f1_2e" transform="matrix(10.8,0,0,11,454.6,630.4)" />
<use xlink:href="#f1_n" transform="matrix(5.4,0,0,5.5,415.8,633.7)" />
<use xlink:href="#f1_m" transform="matrix(10.8,0,0,11,377.7,652.8)" />
<use xlink:href="#f1_i" transform="matrix(10.8,0,0,11,386.1,652.8)" />
<use xlink:href="#f1_18" transform="matrix(10.8,0,0,11,394.5,652.8)" />
<use xlink:href="#f1_1f" transform="matrix(10.8,0,0,11,410.6,652.8)" />
<use xlink:href="#f1_n" transform="matrix(5.4,0,0,5.5,406.6,656.1)" />
<use xlink:href="#f4_f" transform="matrix(5.6,0,0,5.5,423.1,644.7)" />
<use xlink:href="#f1_13" transform="matrix(12,0,0,12,170.5,723.2)" />
<use xlink:href="#f1_18" transform="matrix(12,0,0,12,183,723.2)" />
<use xlink:href="#f1_4z" transform="matrix(12,0,0,12,205.3,723.2)" />
<use xlink:href="#f1_13" transform="matrix(12,0,0,12,228.1,723.2)" />
<use xlink:href="#f1_4z" transform="matrix(12,0,0,12,244.9,723.2)" />
<use xlink:href="#f1_13" transform="matrix(12,0,0,12,268,723.2)" />
<use xlink:href="#f1_18" transform="matrix(12,0,0,12,280.1,723.2)" />
<use xlink:href="#f1_n" transform="matrix(6,0,0,6,195.8,726.9)" />
<use xlink:href="#f1_n" transform="matrix(6,0,0,6,293,726.9)" />
</g>
<path d="M236.1,707.9h1.5V689.6h-1.5v18.3Z" class="g3_2" />
<path d="M231.4,707.9h1.4V689.6h-1.4v18.3Z" class="g3_2" />
<g fill="#1F1A17" >
<use xlink:href="#f1_1f" transform="matrix(12,0,0,12,228.1,687.6)" />
</g>
<path d="M310.2,716.7h41.1v1.4H310.2v-1.4Zm.7,4.7l-7.3,-4l7.3,-4v8Z" class="g3_2" />
<g fill="#1F1A17" >
<use xlink:href="#f1_1g" transform="matrix(10.8,0,0,11,314.6,713.3)" />
<use xlink:href="#f1_13" transform="matrix(10.8,0,0,11,323.8,713.3)" />
<use xlink:href="#f1_13" transform="matrix(10.8,0,0,11,335.1,713.3)" />
<use xlink:href="#f1_13" transform="matrix(12,0,0,12,358.6,723.2)" />
<use xlink:href="#f1_18" transform="matrix(12,0,0,12,371.1,723.2)" />
<use xlink:href="#f1_4z" transform="matrix(12,0,0,12,393.4,723.2)" />
<use xlink:href="#f1_13" transform="matrix(12,0,0,12,416.2,723.2)" />
<use xlink:href="#f1_4z" transform="matrix(12,0,0,12,433,723.2)" />
<use xlink:href="#f1_13" transform="matrix(12,0,0,12,456.1,723.2)" />
<use xlink:href="#f1_18" transform="matrix(12,0,0,12,468.2,723.2)" />
<use xlink:href="#f1_n" transform="matrix(6,0,0,6,384.3,726.9)" />
<use xlink:href="#f1_n" transform="matrix(6,0,0,6,481.4,726.9)" />
</g>
<path d="M422.4,709h1.8V690.7h-1.8V709Z" class="g3_2" />
<g fill="#1F1A17" >
<use xlink:href="#f1_1f" transform="matrix(12,0,0,12,416.2,687.6)" />
<use xlink:href="#f1_18" transform="matrix(12,0,0,12,429.4,687.6)" />
</g>
<path d="M422.8,744.5h1.4V726.2h-1.4v18.3Z" class="g3_2" />
<g fill="#1F1A17" >
<use xlink:href="#f1_18" transform="matrix(12,0,0,12,417.9,759.9)" />
</g>
<g fill="#000000" >
<use xlink:href="#f1_c" transform="matrix(12,0,0,12,117,830.6)" />
<use xlink:href="#f1_1y" transform="matrix(12,0,0,12,122.9,830.6)" />
<use xlink:href="#f1_d" transform="matrix(12,0,0,12,131.3,830.6)" />
<use xlink:href="#f1_1k" transform="matrix(12,0,0,12,155.8,830.6)" />
<use xlink:href="#f1_2b" transform="matrix(12,0,0,12,165.7,830.6)" />
<use xlink:href="#f1_28" transform="matrix(12,0,0,12,174.9,830.6)" />
<use xlink:href="#f1_2h" transform="matrix(12,0,0,12,179,830.6)" />
<use xlink:href="#f1_21" transform="matrix(12,0,0,12,187.8,830.6)" />
<use xlink:href="#f1_2a" transform="matrix(12,0,0,12,195.5,830.6)" />
<use xlink:href="#f1_21" transform="matrix(12,0,0,12,203.9,830.6)" />
<use xlink:href="#f1_2g" transform="matrix(12,0,0,12,215,830.6)" />
<use xlink:href="#f1_2b" transform="matrix(12,0,0,12,220.1,830.6)" />
<use xlink:href="#f1_12" transform="matrix(12,0,0,12,232.2,830.6)" />
<use xlink:href="#f1_21" transform="matrix(12,0,0,12,244.3,830.6)" />
<use xlink:href="#f1_2a" transform="matrix(12,0,0,12,252.1,830.6)" />
<use xlink:href="#f1_2m" transform="matrix(12,0,0,12,260.5,830.6)" />
<use xlink:href="#f1_2b" transform="matrix(12,0,0,12,268.2,830.6)" />
<use xlink:href="#f1_25" transform="matrix(12,0,0,12,277.4,830.6)" />
<use xlink:href="#f1_1z" transform="matrix(12,0,0,12,281.4,830.6)" />
<use xlink:href="#f1_1x" transform="matrix(12,0,0,12,292.5,830.6)" />
<use xlink:href="#f1_1z" transform="matrix(12,0,0,12,300.2,830.6)" />
<use xlink:href="#f1_25" transform="matrix(12,0,0,12,307.9,830.6)" />
<use xlink:href="#f1_20" transform="matrix(12,0,0,12,312,830.6)" />
<use xlink:href="#f1_11" transform="matrix(12,0,0,12,64.9,924.9)" />
<use xlink:href="#f1_2a" transform="matrix(12,0,0,12,77.4,924.9)" />
<use xlink:href="#f1_2f" transform="matrix(12,0,0,12,85.8,924.9)" />
<use xlink:href="#f1_i" transform="matrix(12,0,0,12,92.4,924.9)" />
</g>
<path d="M163.3,899.4v0L148.6,891l.7,-1.5l14.7,8.4l-.7,1.5Zm15.8,7.7l-1.1,.7l-14.7,-8.4l.7,-1.5l14.8,8.4l.3,.8Zm-.3,-.8l.3,.4v.4l-.3,-.8Zm-1.2,17.6V907.1h1.5v16.8h-1.5Zm1.2,17.9l-1.2,-.7V923.9h1.5v17.2l-.3,.7Zm.3,-.7v.3l-.3,.4l.3,-.7Zm-15.8,7.6v0L178,940.3l.8,1.5L164,950.2l-.7,-1.5Zm-14.7,9.9v-1.5l14.7,-8.4l.7,1.5l-14.7,8.4h-.7Zm.7,0h-.7h.7Zm-14.7,-9.9v0l14.7,8.4l-.7,1.5l-14.7,-8.4l.7,-1.5Zm-16.2,-7.6l1.5,-.8l14.7,8.4l-.7,1.5l-14.7,-8.4l-.8,-.7Zm.8,.7l-.8,-.4v-.3l.8,.7Zm1.1,-17.9v17.2h-1.9V923.9h1.9Zm-1.1,-17.6l1.1,.8v16.8h-1.9V907.1l.8,-.8Zm-.8,.8v-.4l.8,-.4l-.8,.8Zm16.2,-7.7v0l-14.7,8.4l-.7,-1.5l14.7,-8.4l.7,1.5Zm14.7,-9.9V891l-14.7,8.4l-.7,-1.5l14.7,-8.4h.7Zm-.7,0l.4,-.3l.3,.3h-.7Z" class="g3_2" />
<path d="M160.7,923.9h-1.8v-1.8l-.4,-1.1l-.4,-.8l-.3,-1.1l-.4,-.7l-.7,-.7l-.8,-.8l-.7,-.7l-.7,-.7l-.8,-.4l-.7,-.4l-1.1,-.3l-1.1,-.4H149v-1.5h2.2l1.1,.4l1.1,.4l1.1,.3l1.1,.8l.7,.7l.7,.7l.8,.8l.7,1.1l.7,.7l.4,1.1l.4,1.1l.3,1.1v1.1l.4,1.1ZM149,935.6v-1.5h1.8l1.1,-.4l1.1,-.3l.7,-.4l.8,-.7l.7,-.4l.7,-.7l.8,-.8l.7,-.7l.4,-.7l.3,-1.1l.4,-.7l.4,-1.1v-2.2h1.8l-.4,1.4v1.1l-.3,1.1l-.4,1.1l-.4,1.1l-.7,.7l-.7,1.1l-.8,.8l-.7,.7l-.7,.7l-1.1,.4l-1.1,.7l-1.1,.4l-1.1,.4H149ZM137.2,923.9h1.5V925l.3,1.1v1.1l.4,.7l.4,1.1l.7,.7l.4,.7l.7,.8l.7,.7l.8,.4l1.1,.7l.7,.4l1.1,.3l.8,.4H149v1.5h-2.6l-1.1,-.4l-1.1,-.4l-.8,-.7l-1.1,-.4l-1.1,-.7l-.7,-.7l-.7,-.8l-.8,-1.1l-.3,-.7l-.8,-1.1l-.3,-1.1v-1.1l-.4,-1.1v-1.4ZM149,912.5V914h-2.2l-.8,.4l-1.1,.3l-.7,.4l-1.1,.4l-.8,.7l-.7,.7l-.7,.8l-.4,.7l-.7,.7l-.4,1.1l-.4,.8v1.1l-.3,1.1v.7h-1.5v-1.1l.4,-1.1v-1.1l.3,-1.1l.8,-1.1l.3,-.7l.8,-1.1l.7,-.8l.7,-.7l1.1,-.7l1.1,-.8l.8,-.3l1.1,-.4l1.1,-.4H149Z" class="g3_2" />
<path d="M149.7,871.3h-1.5v19h1.5v-19Z" class="g3_2" />
<g fill="#1F1A17" >
<use xlink:href="#f1_13" transform="matrix(12,0,0,12,142.6,869.1)" />
<use xlink:href="#f1_18" transform="matrix(12,0,0,12,155.1,869.1)" />
<use xlink:href="#f1_n" transform="matrix(6,0,0,6,168.3,872.8)" />
</g>
<path d="M278.8,925H191.2v-1.5h87.6V925Zm-.8,-4.8l7.4,4l-7.4,4.1v-8.1Z" class="g3_2" />
<g fill="#1F1A17" >
<use xlink:href="#f1_1b" transform="matrix(10.8,0,0,11,198.4,917.5)" />
<use xlink:href="#f1_13" transform="matrix(10.8,0,0,11,214.9,917.5)" />
<use xlink:href="#f1_2e" transform="matrix(10.8,0,0,11,225.9,917.5)" />
<use xlink:href="#f1_1f" transform="matrix(10.8,0,0,11,235.8,917.5)" />
<use xlink:href="#f1_j" transform="matrix(10.8,0,0,11,251.9,917.5)" />
<use xlink:href="#f1_18" transform="matrix(10.8,0,0,11,256.7,917.5)" />
<use xlink:href="#f1_m" transform="matrix(5.4,0,0,5.5,210.5,920.8)" />
<use xlink:href="#f1_m" transform="matrix(5.4,0,0,5.5,231.4,920.8)" />
<use xlink:href="#f1_r" transform="matrix(5.4,0,0,5.5,247.9,920.8)" />
<use xlink:href="#f4_f" transform="matrix(5.6,0,0,5.5,268.8,909.5)" />
</g>
<path d="M337.6,897.9v0l-14.7,-8.4l.7,-1.4l14.7,8.4l-.7,1.4Zm15.8,7.7l-1.1,.7l-14.7,-8.4l.7,-1.4l14.8,8.7l.3,.4Zm-.3,-.4h.3v.4l-.3,-.4ZM352,922.8V905.6h1.4v17.2H352Zm1.1,17.5l-1.1,-.7V922.8h1.4v16.8l-.3,.7Zm.3,-.7v.4l-.3,.3l.3,-.7Zm-15.8,7.7v0l14.7,-8.4l.8,1.4l-14.8,8.4l-.7,-1.4Zm-14.7,9.8V956l14.7,-8.7l.7,1.4l-14.7,8.4h-.7Zm.7,0l-.3,.4l-.4,-.4h.7Zm-14.7,-9.8v0l14.7,8.7l-.7,1.1l-15.1,-8.4l1.1,-1.4Zm-16.2,-7.7l1.1,-.7l15.1,8.4l-1.1,1.4l-14.7,-8.4l-.4,-.7Zm.4,.7l-.4,-.3v-.4l.4,.7Zm1.5,-17.5v16.8h-1.9V922.8h1.9Zm-1.5,-17.6l1.5,.4v17.2h-1.9V905.6l.4,-.4Zm-.4,.4v-.4h.4l-.4,.4Zm16.2,-7.7v0l-15.1,8.4l-.7,-1.1l14.7,-8.7l1.1,1.4Zm14.7,-9.8v1.4l-14.7,8.4l-1.1,-1.4l15.1,-8.4h.7Zm-.7,0h.7h-.7Z" class="g3_2" />
<path d="M334.7,922.8h-1.5v-2.2l-.4,-1.1l-.3,-.7l-.4,-1.1l-.4,-.8l-.7,-.7l-.7,-.7l-.8,-.8l-.7,-.3l-.7,-.8l-1.1,-.3l-.8,-.4h-1.1l-1.1,-.4h-.7v-1.4h2.2l1.1,.3l1.1,.4l1.1,.7l.7,.4l1.1,.7l.8,.8l.7,.7l.7,1.1l.8,.7l.3,1.1l.4,1.1l.4,1.1v2.6Zm-11.4,11.7v-1.9h1.8l1.1,-.3l.8,-.4l1.1,-.4l.7,-.3l.7,-.8l.8,-.7l.7,-.7l.7,-.7l.4,-.8l.4,-.7l.3,-1.1l.4,-1.1v-1.8h1.5V925l-.4,1.1l-.4,1.1l-.3,1.1l-.8,1.1l-.7,.7l-.7,.7l-.8,.7l-1.1,.8l-.7,.7l-1.1,.4l-1.1,.3l-1.1,.4h-1.1l-1.1,.4ZM311.5,922.8H313v1.8l.3,1.1l.4,1.1l.4,.7l.7,.8l.4,.7l.7,.7l.7,.7l.8,.8l.7,.3l1.1,.4l.8,.4l1.1,.3h2.2v1.9l-1.5,-.4h-1.1l-1.1,-.4l-1.1,-.3l-1.1,-.4l-.8,-.7l-1.1,-.8l-.7,-.7l-.7,-.7l-.8,-.7l-.3,-1.1l-.8,-1.1l-.3,-1.1l-.4,-1.1v-2.2Zm11.8,-11.7v1.4h-1.1l-1.1,.4H320l-.8,.4l-1.1,.3l-.7,.8l-.8,.3l-.7,.8l-.7,.7l-.4,.7l-.7,.8l-.4,1.1l-.4,.7l-.3,1.1v2.2h-1.5v-2.6l.4,-1.1l.3,-1.1l.8,-1.1l.3,-.7l.8,-1.1l.7,-.7l.7,-.8l1.1,-.7l.8,-.4l1.1,-.7l1.1,-.4l1.1,-.3h2.6Z" class="g3_2" />
<path d="M324,869.8h-1.5v19H324v-19Z" class="g3_2" />
<g fill="#1F1A17" >
<use xlink:href="#f1_13" transform="matrix(12,0,0,12,317.2,867.7)" />
<use xlink:href="#f1_1f" transform="matrix(12,0,0,12,329.3,867.7)" />
<use xlink:href="#f1_1f" transform="matrix(12,0,0,12,342.5,867.7)" />
<use xlink:href="#f1_18" transform="matrix(12,0,0,12,356,867.7)" />
</g>
<g fill="#000000" >
<use xlink:href="#f4_c" transform="matrix(12,0,0,12,435.2,1031.6)" />
<use xlink:href="#f4_1f" transform="matrix(12,0,0,12,441.1,1031.6)" />
<use xlink:href="#f4_1i" transform="matrix(12,0,0,12,455.1,1031.6)" />
<use xlink:href="#f4_d" transform="matrix(12,0,0,12,467.9,1031.6)" />
<use xlink:href="#f5_m" transform="matrix(8,0,0,8,792.2,1264.2)" />
</g>
<defs>
<path d="M247,-17c0,0,-91,0,-132,30c0,0,-42,31,-42,68c0,0,0,21,17,37c0,0,18,16,44,17c0,0,19,0,34,-6c0,0,14,-7,49,-31c0,0,56,-39,113,-39c0,0,88,0,154,66c0,0,66,66,66,161c0,0,0,92,-59,171c0,0,-59,80,-163,123c0,0,-81,34,-221,39l194,393H663L605,885H301L234,750c0,0,198,-29,313,-147c0,0,100,-102,100,-239c0,0,0,-80,-33,-148c0,0,-32,-68,-81,-116c0,0,-50,-47,-110,-77c0,0,-86,-40,-176,-40Z" 
id="f0_p"
transform="scale(0.001,-0.001)" />

<path d="M191,-20c0,0,-34,0,-58,24c0,0,-24,24,-24,58c0,0,0,35,24,59c0,0,24,24,58,24c0,0,35,0,59,-24c0,0,24,-25,24,-59c0,0,0,-34,-24,-58c0,0,-25,-24,-59,-24Z" 
id="f0_i"
transform="scale(0.001,-0.001)" />

<path d="M678,393L506,802L330,393ZM11,0V27c0,0,63,12,82,30c0,0,38,35,84,145l356,832h27L912,193c0,0,43,-101,77,-132c0,0,35,-30,97,-34V0H687V27c0,0,60,3,82,21c0,0,21,17,21,41c0,0,0,33,-30,104L700,338H307L239,179c0,0,-26,-59,-26,-88c0,0,0,-23,22,-41c0,0,22,-17,95,-23V0Z" 
id="f1_11"
transform="scale(0.001,-0.001)" />

<path d="M21,0V26H35c0,0,53,0,71,27c0,0,18,27,18,101V408c0,0,0,123,-5,150c0,0,-6,27,-17,37c0,0,-12,10,-31,10c0,0,-21,0,-50,-11L10,620l206,83h32V558c0,0,120,145,229,145c0,0,56,0,96,-28c0,0,40,-28,64,-92c0,0,16,-45,16,-137V154c0,0,0,-65,11,-88c0,0,8,-19,26,-29c0,0,18,-11,68,-11V0H419V26h14c0,0,47,0,66,15c0,0,20,15,27,43c0,0,3,11,3,70V434c0,0,0,93,-24,135c0,0,-24,42,-81,42c0,0,-88,0,-176,-97V154c0,0,0,-69,9,-86c0,0,10,-21,28,-31c0,0,19,-11,75,-11V0Z" 
id="f1_2a"
transform="scale(0.001,-0.001)" />

<path d="M286,72c0,0,57,0,149,75V407c0,0,-113,-45,-145,-64c0,0,-59,-32,-85,-68c0,0,-25,-36,-25,-78c0,0,0,-54,32,-89c0,0,32,-36,74,-36ZM217,-13c0,0,-71,0,-116,48c0,0,-46,48,-46,127c0,0,0,50,22,87c0,0,31,50,106,95c0,0,76,45,252,109v26c0,0,0,102,-32,140c0,0,-32,38,-94,38c0,0,-47,0,-74,-25c0,0,-28,-25,-28,-58l1,-43c0,0,0,-34,-17,-53c0,0,-18,-18,-47,-18c0,0,-28,0,-45,19c0,0,-18,19,-18,53c0,0,0,64,66,117c0,0,65,54,184,54c0,0,91,0,149,-31c0,0,44,-23,65,-72c0,0,13,-32,13,-131V238c0,0,0,-98,4,-120c0,0,4,-22,12,-29c0,0,9,-8,20,-8c0,0,12,0,21,5c0,0,16,10,61,55V99C676,99,592,-12,516,-12c0,0,-37,0,-58,24c0,0,-22,26,-23,86C435,98,330,17,303,5c0,0,-40,-18,-86,-18Z" 
id="f1_1x"
transform="scale(0.001,-0.001)" />

<path d="M58,0V26c0,0,47,0,64,10c0,0,18,10,28,32c0,0,9,23,9,86V775c0,0,0,116,-5,142c0,0,-5,27,-17,37c0,0,-11,9,-29,9c0,0,-20,0,-49,-12L46,978l204,83h34V154c0,0,0,-64,9,-85c0,0,9,-21,29,-32c0,0,19,-11,72,-11V0Z" 
id="f1_28"
transform="scale(0.001,-0.001)" />

<path d="M145,-328c0,0,-44,0,-73,25c0,0,-28,25,-28,58c0,0,0,31,21,50c0,0,20,19,56,19c0,0,25,0,67,-16c0,0,30,-11,38,-11c0,0,22,0,49,23c0,0,26,23,53,89L376,28L131,542c0,0,-11,24,-36,58c0,0,-19,27,-30,36c0,0,-18,12,-56,21v26H328V657H312c0,0,-33,0,-50,-15c0,0,-17,-14,-17,-36c0,0,0,-30,25,-81L437,179L589,557c0,0,12,31,12,62c0,0,0,13,-5,20c0,0,-6,8,-19,13c0,0,-12,5,-44,5v26H754V657c0,0,-27,-3,-42,-12c0,0,-15,-9,-33,-34c0,0,-7,-10,-25,-58L376,-128c0,0,-40,-99,-105,-150c0,0,-66,-50,-126,-50Z" 
id="f1_2l"
transform="scale(0.001,-0.001)" />

<path d="M312,-20c0,0,-62,0,-143,22c0,0,-25,8,-40,8c0,0,-18,0,-27,-19H77V234h25c0,0,21,-105,80,-158c0,0,59,-53,132,-53c0,0,51,0,84,31c0,0,32,30,32,72c0,0,0,52,-36,87c0,0,-36,35,-144,88c0,0,-109,54,-142,97c0,0,-34,43,-34,107c0,0,0,85,58,141c0,0,58,57,150,57c0,0,40,0,97,-17c0,0,38,-11,51,-11c0,0,12,0,19,5c0,0,7,5,15,23h25V470H464c0,0,-28,110,-72,149c0,0,-45,40,-113,40c0,0,-53,0,-85,-28c0,0,-32,-27,-32,-61c0,0,0,-41,24,-71c0,0,23,-31,94,-65L389,381c0,0,152,-74,152,-194c0,0,0,-94,-71,-151c0,0,-70,-56,-158,-56Z" 
id="f1_2f"
transform="scale(0.001,-0.001)" />

<path d="M55,0V26c0,0,50,0,67,10c0,0,17,10,27,32c0,0,10,23,10,86V418c0,0,0,111,-6,144c0,0,-6,24,-17,33c0,0,-11,10,-30,10c0,0,-21,0,-51,-11L45,620l206,83h33V154c0,0,0,-64,9,-85c0,0,9,-22,27,-32c0,0,19,-11,67,-11V0ZM222,909c0,0,-32,0,-54,23c0,0,-22,22,-22,53c0,0,0,32,22,54c0,0,22,22,54,22c0,0,31,0,53,-22c0,0,22,-22,22,-54c0,0,0,-31,-22,-53c0,0,-22,-23,-53,-23Z" 
id="f1_25"
transform="scale(0.001,-0.001)" />

<path d="M20,0V26c0,0,45,0,71,15c0,0,15,7,24,28c0,0,9,21,9,85V773c0,0,0,117,-5,144c0,0,-6,27,-17,37c0,0,-12,9,-31,9c0,0,-16,0,-51,-12L10,978l204,83h34V561c0,0,83,91,131,116c0,0,49,26,97,26c0,0,58,0,100,-32c0,0,42,-32,62,-101c0,0,14,-47,14,-174V154c0,0,0,-65,11,-89c0,0,7,-18,25,-28c0,0,18,-11,66,-11V0H418V26h15c0,0,48,0,67,15c0,0,18,15,26,43c0,0,2,12,2,70V396c0,0,0,112,-12,147c0,0,-11,35,-36,53c0,0,-26,17,-61,17c0,0,-37,0,-76,-19c0,0,-40,-20,-95,-79V154c0,0,0,-70,8,-87c0,0,8,-17,29,-29c0,0,22,-12,74,-12V0Z" 
id="f1_24"
transform="scale(0.001,-0.001)" />

<path d="M406,32c0,0,72,0,119,60c0,0,47,59,47,205c0,0,0,181,-78,286c0,0,-53,71,-135,71c0,0,-40,0,-79,-23c0,0,-40,-24,-65,-83c0,0,-24,-58,-24,-151c0,0,0,-149,59,-257c0,0,59,-108,156,-108ZM374,-20c0,0,-154,0,-245,122c0,0,-77,104,-77,233c0,0,0,94,46,187c0,0,47,92,123,137c0,0,76,44,161,44c0,0,155,0,249,-118c0,0,80,-100,80,-231c0,0,0,-91,-44,-185C667,169,623,75,546,27c0,0,-77,-47,-172,-47Z" 
id="f1_2b"
transform="scale(0.001,-0.001)" />

<path d="M336,-20L117,554c0,0,-21,55,-42,74c0,0,-21,19,-66,29v26H296V657c0,0,-40,-3,-52,-14c0,0,-13,-12,-13,-33c0,0,0,-23,13,-56L390,162L537,481L498,581c0,0,-18,46,-47,63c0,0,-17,11,-61,13v26H716V657c0,0,-54,-2,-77,-20c0,0,-15,-12,-15,-39c0,0,0,-15,6,-30L785,177L929,554c0,0,15,40,15,65c0,0,0,14,-15,25c0,0,-14,12,-57,13v26h216V657c0,0,-65,-10,-95,-89L764,-20H733L563,415L363,-20Z" 
id="f1_2j"
transform="scale(0.001,-0.001)" />

<path d="M255,-10c0,0,-35,0,-68,18c0,0,-32,19,-48,55c0,0,-16,35,-16,109V632H15v24c0,0,41,16,84,56c0,0,43,39,77,92c0,0,17,29,48,104h23V683H407V632H247V188c0,0,0,-66,19,-90c0,0,19,-23,49,-23c0,0,24,0,47,16c0,0,23,15,36,45h29c0,0,-26,-73,-74,-110c0,0,-47,-36,-98,-36Z" 
id="f1_2g"
transform="scale(0.001,-0.001)" />

<path d="M-36,0l10,26c0,0,57,2,76,11c0,0,30,13,44,34c0,0,20,31,48,127L315,809c0,0,22,74,22,116c0,0,0,20,-10,33c0,0,-10,14,-29,21c0,0,-19,7,-75,7l9,26h789L947,757H919c0,0,8,46,8,76c0,0,0,49,-27,78c0,0,-28,29,-70,41c0,0,-30,7,-133,7H489L375,556H511c0,0,90,0,134,28c0,0,44,28,91,118h29L659,334H629c0,0,11,45,11,74c0,0,0,46,-30,71c0,0,-30,25,-112,25H360L270,185c0,0,-24,-76,-24,-100c0,0,0,-26,20,-40c0,0,21,-14,101,-19L358,0Z" 
id="f2_16"
transform="scale(0.001,-0.001)" />

<path d="M187,318c0,0,111,12,181,43c0,0,92,41,138,98c0,0,46,57,46,108c0,0,0,32,-20,51c0,0,-20,20,-56,20c0,0,-77,0,-163,-81c0,0,-85,-81,-126,-239ZM268,-17c0,0,-110,0,-165,68c0,0,-55,69,-55,151c0,0,0,111,69,228c0,0,68,116,172,180c0,0,104,65,213,65c0,0,79,0,118,-32c0,0,38,-32,38,-76c0,0,0,-62,-50,-119c0,0,-65,-73,-191,-119c0,0,-84,-30,-235,-47c0,0,-5,-38,-5,-62c0,0,0,-67,47,-114c0,0,47,-46,114,-46c0,0,54,0,104,22c0,0,50,22,148,97l15,-21C605,158,428,-17,268,-17Z" 
id="f2_21"
transform="scale(0.001,-0.001)" />

<path d="M467,25c0,0,68,0,133,34c0,0,65,33,136,115c0,0,89,102,149,260c0,0,61,158,61,296c0,0,0,101,-55,179c0,0,-54,78,-164,78c0,0,-74,0,-146,-37c0,0,-71,-37,-141,-121c0,0,-70,-84,-126,-219c0,0,-69,-167,-69,-316c0,0,0,-105,55,-187c0,0,54,-82,167,-82ZM441,-21c0,0,-117,0,-196,50c0,0,-79,52,-116,137c0,0,-38,85,-38,165c0,0,0,141,68,280c0,0,68,138,163,231c0,0,95,93,202,143c0,0,108,49,229,49c0,0,100,0,178,-43c0,0,77,-44,121,-129c0,0,44,-85,44,-177c0,0,0,-163,-94,-341c0,0,-94,-179,-246,-273c0,0,-153,-92,-315,-92Z" 
id="f2_1f"
transform="scale(0.001,-0.001)" />

<path d="M62,286V399H448V286Z" 
id="f1_h"
transform="scale(0.001,-0.001)" />

<path d="M342,-20c0,0,-116,0,-203,97c0,0,-86,98,-86,264c0,0,0,161,96,261c0,0,95,101,230,101c0,0,100,0,165,-53c0,0,65,-54,65,-111c0,0,0,-29,-18,-46c0,0,-18,-18,-51,-18c0,0,-44,0,-66,29c0,0,-13,15,-17,59c0,0,-4,45,-30,68c0,0,-26,22,-73,22c0,0,-74,0,-120,-55c0,0,-60,-73,-60,-193c0,0,0,-122,60,-216c0,0,60,-93,162,-93c0,0,73,0,131,49c0,0,41,35,80,126l22,-10C629,261,601,125,521,52c0,0,-81,-72,-179,-72Z" 
id="f1_1z"
transform="scale(0.001,-0.001)" />

<path d="M23,0V26c0,0,47,0,66,10c0,0,19,11,28,33c0,0,10,22,10,85V416c0,0,0,112,-7,145c0,0,-5,25,-16,34c0,0,-11,10,-31,10c0,0,-21,0,-50,-11L12,620l207,83h32V557c0,0,75,75,88,86c0,0,34,29,72,44c0,0,39,16,77,16c0,0,64,0,110,-37c0,0,47,-38,62,-109c0,0,77,90,130,118c0,0,53,28,109,28c0,0,54,0,96,-28c0,0,42,-28,67,-91c0,0,16,-43,16,-136V154c0,0,0,-64,10,-88c0,0,8,-16,28,-28c0,0,20,-12,65,-12V0H844V26h14c0,0,44,0,69,18c0,0,17,12,24,38c0,0,3,13,3,72V448c0,0,0,83,-20,117c0,0,-29,48,-93,48c0,0,-39,0,-79,-20c0,0,-40,-19,-97,-73l-1,-8l2,-32V154c0,0,0,-70,8,-87c0,0,7,-17,29,-29c0,0,21,-12,73,-12V0H431V26c0,0,57,0,78,14c0,0,21,13,29,40c0,0,4,13,4,74V448c0,0,0,83,-25,120c0,0,-33,48,-91,48c0,0,-40,0,-80,-22c0,0,-61,-33,-95,-74V154c0,0,0,-67,10,-87c0,0,9,-20,27,-30c0,0,18,-11,74,-11V0Z" 
id="f1_29"
transform="scale(0.001,-0.001)" />

<path d="M479,469c0,0,-4,66,-16,93c0,0,-18,42,-55,65c0,0,-37,24,-78,24c0,0,-62,0,-111,-48c0,0,-48,-48,-57,-134ZM355,-20c0,0,-123,0,-211,95c0,0,-87,96,-87,258c0,0,0,175,90,273c0,0,89,98,225,98c0,0,115,0,189,-76c0,0,74,-75,74,-202H162c0,0,0,-152,74,-239c0,0,75,-86,175,-86c0,0,67,0,117,36c0,0,50,37,83,127l24,-15c0,0,-16,-102,-91,-186c0,0,-76,-83,-189,-83Z" 
id="f1_21"
transform="scale(0.001,-0.001)" />

<path d="M17,0V26c0,0,52,0,77,17c0,0,19,12,26,38c0,0,4,13,4,73V419c0,0,0,119,-5,142c0,0,-4,23,-17,33c0,0,-13,11,-33,11c0,0,-23,0,-52,-11l-7,26l207,83h31V549c0,0,86,154,176,154c0,0,41,0,68,-25c0,0,27,-25,27,-58c0,0,0,-29,-20,-49c0,0,-19,-20,-46,-20c0,0,-26,0,-58,25c0,0,-33,26,-48,26c0,0,-14,0,-29,-15c0,0,-34,-30,-70,-101V159c0,0,0,-56,15,-85c0,0,9,-20,34,-34c0,0,24,-14,71,-14V0Z" 
id="f1_2e"
transform="scale(0.001,-0.001)" />

<path d="M398,24c0,0,74,0,120,58c0,0,61,76,61,214c0,0,0,156,-69,240c0,0,-47,59,-113,59c0,0,-36,0,-71,-18c0,0,-27,-14,-88,-81V242c0,0,0,-83,6,-109c0,0,11,-43,51,-76c0,0,41,-33,103,-33ZM-4,-326v27H15c5,0,42,0,69,16c0,0,14,8,22,26c0,0,7,19,7,94V481c0,0,0,67,-6,85c0,0,-5,18,-18,27c0,0,-13,9,-36,9c0,0,-18,0,-45,-10L0,615l209,85h29V540c0,0,53,91,106,127c0,0,53,36,112,36c0,0,103,0,172,-80c0,0,84,-99,84,-257c0,0,0,-176,-102,-292c0,0,-83,-94,-210,-94c0,0,-55,0,-95,16c0,0,-30,10,-67,44V-167c0,0,0,-71,8,-90c0,0,9,-20,30,-31c0,0,21,-11,77,-11v-27Z" 
id="f1_2c"
transform="scale(0.001,-0.001)" />

<path d="M63,0V26H93c0,0,30,0,54,15c0,0,25,15,34,41c0,0,10,25,10,99V630H58v53H191v45c0,0,0,102,33,173c0,0,32,71,100,114c0,0,68,44,152,44c0,0,79,0,145,-51c0,0,43,-33,43,-75c0,0,0,-22,-19,-42c0,0,-20,-20,-42,-20c0,0,-17,0,-36,12c0,0,-19,13,-47,53c0,0,-28,41,-51,55c0,0,-23,14,-51,14c0,0,-35,0,-58,-18c0,0,-24,-18,-35,-57c0,0,-10,-38,-10,-197V683H491V630H315V181c0,0,0,-96,21,-122c0,0,27,-33,73,-33h62V0Z" 
id="f1_22"
transform="scale(0.001,-0.001)" />

<path d="M292,-20c0,0,-57,0,-100,33c0,0,-42,33,-58,85c0,0,-17,52,-17,148V551c0,0,0,49,-10,68c0,0,-11,18,-31,29c0,0,-19,9,-68,9c-2,0,-4,0,-6,0v26H242V226c0,0,0,-95,33,-125c0,0,33,-30,80,-30c0,0,32,0,73,21c0,0,40,20,96,76V555c0,0,0,59,-21,80c0,0,-22,21,-89,22v26H647V269c0,0,0,-119,6,-145c0,0,6,-27,18,-37c0,0,12,-11,29,-11c0,0,23,0,52,13L763,63L558,-20H524V124C524,124,436,29,390,4c0,0,-47,-24,-98,-24Z" 
id="f1_2h"
transform="scale(0.001,-0.001)" />

<path d="M379,29c0,0,41,0,84,37c0,0,43,36,65,121c0,0,34,128,34,362c0,0,0,173,-35,288c0,0,-27,86,-69,122c0,0,-31,25,-74,25c0,0,-51,0,-90,-46c0,0,-54,-62,-73,-195c0,0,-20,-132,-20,-261c0,0,0,-209,52,-341c0,0,42,-112,126,-112Zm-2,-46c0,0,-145,0,-241,170c0,0,-81,144,-81,347c0,0,0,173,52,298c0,0,52,125,139,186c0,0,67,49,139,49c0,0,116,0,208,-119c0,0,116,-147,116,-398c0,0,0,-176,-51,-299C658,217,608,94,529,38c0,0,-79,-55,-152,-55Z" 
id="f1_k"
transform="scale(0.001,-0.001)" />

<path d="M191,-20c0,0,-34,0,-58,24c0,0,-24,24,-24,58c0,0,0,35,24,59c0,0,24,24,58,24c0,0,35,0,59,-24c0,0,24,-25,24,-59c0,0,0,-34,-24,-58c0,0,-25,-24,-59,-24Z" 
id="f1_i"
transform="scale(0.001,-0.001)" />

<path d="M379,437c0,0,34,0,81,16c0,0,47,17,83,47c0,0,14,97,14,155c0,0,0,72,-25,156c0,0,-25,83,-70,128c0,0,-45,45,-103,45c0,0,-66,0,-116,-60c0,0,-50,-59,-50,-177c0,0,0,-157,66,-246c0,0,49,-64,120,-64ZM80,-20V7c0,0,97,1,181,45c0,0,83,44,161,153c0,0,78,109,109,240c0,0,-117,-75,-212,-75c0,0,-107,0,-183,82c0,0,-76,82,-76,219c0,0,0,132,76,236c0,0,92,126,240,126c0,0,124,0,213,-103c0,0,109,-128,109,-315c0,0,0,-169,-82,-314C616,301,533,155,385,59c0,0,-120,-79,-262,-79Z" 
id="f1_t"
transform="scale(0.001,-0.001)" />

<path d="M247,-17c0,0,-91,0,-132,30c0,0,-42,31,-42,68c0,0,0,21,17,37c0,0,18,16,44,17c0,0,19,0,34,-6c0,0,14,-7,49,-31c0,0,56,-39,113,-39c0,0,88,0,154,66c0,0,66,66,66,161c0,0,0,92,-59,171c0,0,-59,80,-163,123c0,0,-81,34,-221,39l194,393H663L605,885H301L234,750c0,0,198,-29,313,-147c0,0,100,-102,100,-239c0,0,0,-80,-33,-148c0,0,-32,-68,-81,-116c0,0,-50,-47,-110,-77c0,0,-86,-40,-176,-40Z" 
id="f1_p"
transform="scale(0.001,-0.001)" />

<path d="M613,-21c0,0,-293,0,-445,186C168,165,54,306,54,490c0,0,0,134,64,256c0,0,76,145,209,224c0,0,111,64,262,64c0,0,55,0,100,-9c0,0,45,-9,128,-39c0,0,42,-16,56,-16c0,0,14,0,24,13c0,0,10,13,12,51h28L963,715H937c0,0,-40,119,-102,179c0,0,-91,88,-232,88c0,0,-193,0,-294,-153c0,0,-84,-129,-84,-307c0,0,0,-144,56,-263c0,0,56,-120,146,-175c0,0,91,-56,186,-56c0,0,56,0,109,15c0,0,52,14,100,41V376c0,0,0,77,-11,101c0,0,-12,23,-36,36c0,0,-24,12,-86,12v27h392V525h-18c0,0,-58,0,-80,-39c0,0,-15,-28,-15,-110V67C968,67,882,21,799,0c0,0,-84,-21,-186,-21Z" 
id="f1_17"
transform="scale(0.001,-0.001)" />

<path d="M376,-20L133,556c0,0,-17,41,-31,58c0,0,-15,18,-39,30c0,0,-12,7,-50,13v26H335V657H314c0,0,-29,0,-44,-14c0,0,-16,-14,-15,-38c0,0,-1,-26,15,-62L429,165L588,557c0,0,17,42,17,64c0,0,0,10,-6,17c0,0,-8,11,-21,15c0,0,-13,4,-52,4v26H750V657c0,0,-39,-3,-54,-16c0,0,-26,-23,-47,-76L409,-20Z" 
id="f1_2i"
transform="scale(0.001,-0.001)" />

<path d="M399,62c0,0,68,0,131,68V481c0,0,-5,51,-27,93c0,0,-22,42,-59,63c0,0,-37,21,-72,21c0,0,-65,0,-117,-59c0,0,-67,-77,-67,-226c0,0,0,-151,65,-231c0,0,66,-80,146,-80ZM330,-20c0,0,-112,0,-196,93c0,0,-83,94,-83,240c0,0,0,147,92,269c0,0,93,122,238,122c0,0,90,0,149,-58V773c0,0,0,117,-6,144c0,0,-5,27,-17,37c0,0,-12,9,-30,9c0,0,-20,0,-52,-12l-9,27l204,83h33V270c0,0,0,-120,6,-146c0,0,5,-27,18,-37c0,0,12,-11,28,-11c0,0,21,0,54,13l9,-26L564,-20H530V78C530,78,480,25,432,2c0,0,-47,-22,-102,-22Z" 
id="f1_20"
transform="scale(0.001,-0.001)" />

<path d="M405,24c0,0,65,0,116,62c0,0,51,61,51,174c0,0,0,128,-50,221c0,0,-51,93,-144,93c0,0,-29,0,-61,-12c0,0,-33,-12,-96,-51c0,0,-14,-101,-14,-163c0,0,0,-72,27,-155c0,0,26,-84,79,-134c0,0,38,-35,92,-35ZM384,-17c0,0,-104,0,-177,68C207,51,66,185,66,397c0,0,0,136,54,258c0,0,54,122,156,217c0,0,101,95,193,128c0,0,93,33,172,33h44v-28c0,0,-99,-10,-161,-39c0,0,-62,-29,-123,-90c0,0,-61,-60,-101,-135c0,0,-39,-74,-66,-176c0,0,107,73,215,73c0,0,104,0,180,-83c0,0,76,-84,76,-215c0,0,0,-126,-77,-231c0,0,-92,-126,-244,-126Z" 
id="f0_q"
transform="scale(0.001,-0.001)" />

<path d="M548,-21c0,0,-251,0,-389,185C159,164,56,303,56,490c0,0,0,152,68,278c0,0,67,127,186,197c0,0,119,69,260,69c0,0,109,0,216,-53c0,0,31,-17,44,-17c0,0,20,0,35,14c0,0,20,21,28,56h26L943,690H919c0,0,-46,155,-131,224c0,0,-86,68,-206,68c0,0,-100,0,-181,-51c0,0,-81,-52,-128,-163c0,0,-46,-112,-46,-279c0,0,0,-137,44,-238c0,0,44,-101,132,-154c0,0,88,-54,201,-54c0,0,99,0,174,42c0,0,75,42,165,167l23,-14C966,238,890,103,789,40c0,0,-102,-61,-241,-61Z" 
id="f1_13"
transform="scale(0.001,-0.001)" />

<path d="M397,34c0,0,67,0,126,75c0,0,58,74,58,216c0,0,0,131,-58,201c0,0,-59,70,-133,70c0,0,-39,0,-79,-20c0,0,-29,-14,-75,-59V109c0,0,37,-37,78,-56c0,0,40,-19,83,-19ZM358,-20c0,0,-59,0,-121,21c0,0,-61,22,-126,65V773c0,0,0,117,-5,144c0,0,-6,27,-18,37c0,0,-12,9,-29,9c0,0,-21,0,-53,-12l-9,27l205,83h34V564c0,0,98,139,213,139c0,0,105,0,183,-90c0,0,78,-90,78,-245c0,0,0,-182,-121,-293c0,0,-103,-95,-231,-95Z" 
id="f1_1y"
transform="scale(0.001,-0.001)" />

<path d="M411,-239c0,0,134,0,198,48c0,0,64,47,64,100c0,0,0,39,-38,55c0,0,-39,16,-154,19c0,0,-167,5,-258,17c0,0,-35,-37,-53,-70c0,0,-17,-32,-17,-60c0,0,0,-36,43,-62c0,0,74,-47,215,-47ZM380,257c0,0,56,0,93,43c0,0,36,42,36,133c0,0,0,118,-51,185c0,0,-38,49,-98,49c0,0,-55,0,-92,-44c0,0,-37,-44,-37,-135c0,0,0,-117,50,-182c0,0,39,-49,99,-49ZM345,-328c0,0,-144,0,-243,64c0,0,-56,38,-56,78c0,0,0,18,8,36c0,0,13,27,52,76c0,0,5,7,76,80c0,0,-39,23,-55,41c0,0,-16,19,-16,42c0,0,0,26,22,61c0,0,21,35,98,100c0,0,-63,30,-97,85c0,0,-33,55,-33,121c0,0,0,101,76,174c0,0,77,73,196,73c0,0,98,0,170,-48H688c0,0,32,0,37,-2c0,0,6,-2,8,-6c0,0,4,-7,4,-24c0,0,0,-20,-4,-27c0,0,-2,-4,-7,-6c0,0,-6,-2,-38,-2H599c0,0,41,-54,41,-137c0,0,0,-96,-73,-163c0,0,-73,-68,-196,-68c0,0,-51,0,-104,15c0,0,-33,-28,-44,-49c0,0,-12,-22,-12,-37c0,0,0,-12,13,-24c0,0,12,-12,48,-17c0,0,21,-4,104,-6c0,0,154,-4,199,-11c0,0,70,-10,111,-51c0,0,42,-41,42,-102c0,0,0,-84,-79,-158c0,0,-117,-108,-304,-108Z" 
id="f1_23"
transform="scale(0.001,-0.001)" />

<path d="M384,85c0,0,44,0,78,19c0,0,35,19,68,62V487c0,0,0,55,-15,87c0,0,-14,33,-51,55c0,0,-38,22,-85,22c0,0,-84,0,-143,-71c0,0,-60,-70,-60,-214c0,0,0,-138,61,-209c0,0,61,-72,147,-72Zm35,-411v27h15c0,0,41,0,63,12c0,0,15,8,24,30c0,0,9,21,9,83V119C530,119,462,39,411,9c0,0,-50,-29,-105,-29c0,0,-99,0,-177,90c0,0,-78,90,-78,241c0,0,0,174,103,283c0,0,103,109,248,109c0,0,43,0,78,-12c0,0,36,-12,65,-35c0,0,43,20,83,47h25V-174c0,0,0,-66,9,-85c0,0,9,-19,28,-30c0,0,19,-10,74,-10v-27Z" 
id="f1_2d"
transform="scale(0.001,-0.001)" />

<path d="M213,-20c0,0,-34,0,-58,24c0,0,-24,24,-24,58c0,0,0,34,24,58c0,0,24,25,58,25c0,0,35,0,59,-25c0,0,24,-24,24,-58c0,0,0,-34,-24,-58c0,0,-25,-24,-59,-24Zm3,559c0,0,-35,0,-59,24c0,0,-24,24,-24,58c0,0,0,35,24,59c0,0,24,24,59,24c0,0,34,0,58,-24c0,0,24,-24,24,-59c0,0,0,-34,-24,-58c0,0,-24,-24,-58,-24Z" 
id="f1_u"
transform="scale(0.001,-0.001)" />

<path d="M474,-326c0,0,-112,57,-188,133c0,0,-107,108,-165,254c0,0,-58,147,-58,305c0,0,0,231,114,421c0,0,114,191,297,273v-31c0,0,-92,-51,-151,-139c0,0,-59,-88,-88,-223c0,0,-30,-135,-30,-281c0,0,0,-160,25,-290c0,0,20,-102,47,-164c0,0,28,-62,75,-120c0,0,47,-57,122,-109v-29Z" 
id="f1_c"
transform="scale(0.001,-0.001)" />

<path d="M35,-326v29c0,0,92,51,151,139c0,0,60,87,89,221c0,0,28,136,28,282c0,0,0,159,-24,290c0,0,-19,103,-47,165c0,0,-28,62,-75,119c0,0,-46,57,-122,110v31c0,0,113,-56,188,-132c0,0,107,-109,165,-255c0,0,58,-147,58,-306c0,0,0,-231,-114,-420c0,0,-113,-191,-297,-273Z" 
id="f1_d"
transform="scale(0.001,-0.001)" />

<path d="M33,0V27c0,0,264,241,371,393c0,0,108,152,108,278c0,0,0,96,-59,158c0,0,-59,62,-141,62c0,0,-75,0,-134,-43c0,0,-59,-44,-88,-128H63c0,0,18,138,95,212c0,0,77,74,193,74c0,0,123,0,205,-80c0,0,83,-79,83,-186c0,0,0,-77,-36,-154c0,0,-55,-121,-179,-256C424,357,238,154,191,112H455c0,0,81,0,114,6c0,0,32,6,58,25c0,0,27,18,46,52h27L630,0Z" 
id="f1_m"
transform="scale(0.001,-0.001)" />

<path d="M452,373V875L97,373ZM452,0V267H23v95l470,671h82V373H711V267H575V0Z" 
id="f1_o"
transform="scale(0.001,-0.001)" />

<path d="M2,0l8,26H31c0,0,73,0,106,35c0,0,24,24,50,107L403,923c0,0,-25,33,-47,44c0,0,-22,12,-83,19l8,26H536L637,193l595,819h239V986c0,0,-80,-6,-94,-12c0,0,-25,-11,-46,-43c0,0,-20,-32,-44,-124L1102,165c0,0,-16,-50,-16,-79c0,0,0,-27,20,-40c0,0,28,-20,89,-20h18L1206,0H787l7,26h20c0,0,57,0,87,17c0,0,23,12,41,45c0,0,18,34,51,148l166,587L564,0H533L431,823L254,197c0,0,-23,-80,-23,-108c0,0,0,-28,20,-43c0,0,20,-14,97,-20L340,0Z" 
id="f2_1d"
transform="scale(0.001,-0.001)" />

<path d="M504,-17c0,0,-27,0,-42,17c0,0,-16,16,-16,44c0,0,0,36,29,123l98,300c0,0,18,56,18,87c0,0,0,15,-10,24c0,0,-11,10,-26,10c0,0,-23,0,-54,-18c0,0,-60,-34,-124,-111c0,0,-65,-77,-137,-197c0,0,-38,-63,-63,-139L141,0H29L163,467c0,0,24,85,24,102c0,0,0,16,-13,28c0,0,-13,13,-32,13c0,0,-9,0,-30,-3L84,602l-7,27l257,46L238,340c0,0,149,205,228,270c0,0,79,65,152,65c0,0,40,0,66,-27c0,0,26,-27,26,-70c0,0,0,-44,-25,-118L584,149c0,0,-17,-54,-17,-66c0,0,0,-10,5,-17c0,0,5,-7,11,-7c0,0,8,0,20,9c0,0,35,31,77,95l23,-14C703,149,637,51,578,10c0,0,-42,-27,-74,-27Z" 
id="f2_2a"
transform="scale(0.001,-0.001)" />

<path d="M-39,0l10,26c0,0,58,2,77,11c0,0,30,13,44,34c0,0,20,31,48,128L314,811c0,0,21,75,21,114c0,0,0,20,-9,33c0,0,-9,14,-29,21c0,0,-20,7,-77,7l9,26H626l-8,-26c0,0,-1,0,-2,0c-9,0,-51,-1,-72,-11c0,0,-35,-15,-51,-39c0,0,-23,-33,-50,-124L372,560H843l72,251c0,0,21,74,21,114c0,0,0,19,-9,33c0,0,-10,14,-29,21c0,0,-20,7,-76,7l7,26h405l-9,-26h-2c-9,0,-52,-1,-74,-11c0,0,-36,-16,-53,-40c0,0,-25,-35,-50,-124L867,186c0,0,-22,-71,-22,-101c0,0,0,-27,19,-40c0,0,20,-14,95,-19L950,0H563l10,26c0,0,58,2,78,11c0,0,29,13,43,34c0,0,19,30,48,128l88,309H357L266,186c0,0,-22,-70,-22,-101c0,0,0,-27,19,-40c0,0,20,-14,94,-19L351,0Z" 
id="f2_18"
transform="scale(0.001,-0.001)" />

<path d="M355,0V355H0v72H355V784h72V427H782V355H427V0Z" 
id="f3_f"
transform="scale(0.001,-0.001)" />

<path d="M0,356v74H784V356Z" 
id="f3_h"
transform="scale(0.001,-0.001)" />

<path d="M0,334v73H1700V334Z" 
id="f3_3k"
transform="scale(0.001,-0.001)" />

<path d="M968,-20c0,0,42,100,87,170c0,0,45,70,144,184H56v73H1199c0,0,-106,122,-148,189c0,0,-43,67,-83,166h60c0,0,87,-108,217,-218c0,0,130,-110,206,-154V349c0,0,-99,-56,-217,-159c0,0,-117,-102,-206,-210Z" 
id="f3_34"
transform="scale(0.001,-0.001)" />

<path d="M-12,338v55H777V338Z" 
id="f1_4y"
transform="scale(0.001,-0.001)" />

<path d="M-46,0l10,26c0,0,62,2,82,11c0,0,33,13,48,35c0,0,25,36,51,126L318,810c0,0,23,76,23,115c0,0,0,20,-10,33c0,0,-10,13,-29,21c0,0,-20,7,-78,7l9,26H619l-8,-26h-2c-8,0,-48,-1,-69,-12c0,0,-33,-16,-51,-46c0,0,-17,-30,-45,-132L271,185c0,0,-23,-78,-23,-100c0,0,0,-17,9,-29c0,0,9,-12,30,-19c0,0,20,-6,85,-11L364,0Z" 
id="f2_19"
transform="scale(0.001,-0.001)" />

<path d="M238,-17c0,0,-103,0,-139,25C99,8,62,33,62,62c0,0,0,22,17,38c0,0,18,16,42,16c0,0,19,0,38,-6c0,0,13,-3,58,-27c0,0,45,-23,62,-28c0,0,27,-8,59,-8c0,0,76,0,132,59c0,0,56,59,56,140c0,0,0,59,-26,115c0,0,-19,41,-42,63c0,0,-32,30,-88,54c0,0,-56,25,-114,25H232v22c0,0,59,8,118,42c0,0,59,35,86,85c0,0,27,49,27,108c0,0,0,76,-48,124c0,0,-48,47,-120,47c0,0,-116,0,-193,-124L77,819c0,0,44,102,110,158c0,0,66,56,164,56c0,0,122,0,187,-80c0,0,49,-58,49,-126c0,0,0,-110,-139,-228c0,0,93,-36,141,-104c0,0,48,-68,48,-160c0,0,0,-131,-84,-227C553,108,444,-17,238,-17Z" 
id="f1_n"
transform="scale(0.001,-0.001)" />

<path d="M394,23c0,0,80,0,129,45c0,0,48,45,48,110c0,0,0,54,-28,97c0,0,-53,79,-214,206c0,0,-62,-52,-92,-114c0,0,-30,-61,-30,-133c0,0,0,-96,53,-154c0,0,52,-57,134,-57Zm17,566c0,0,90,81,114,128c0,0,24,46,24,105c0,0,0,79,-44,123c0,0,-44,45,-121,45c0,0,-76,0,-124,-45c0,0,-48,-44,-48,-103c0,0,0,-38,20,-77c0,0,20,-39,56,-74L411,589ZM382,-17c0,0,-144,0,-225,90c0,0,-64,72,-64,158c0,0,0,67,45,133c0,0,45,66,156,146c0,0,-121,98,-156,158c0,0,-34,59,-34,124c0,0,0,98,76,169c0,0,76,72,202,72c0,0,123,0,198,-67c0,0,74,-66,74,-151c0,0,0,-57,-40,-116c0,0,-40,-59,-168,-139c0,0,132,-101,174,-159c0,0,57,-76,57,-161c0,0,0,-106,-82,-182c0,0,-81,-75,-213,-75Z" 
id="f1_s"
transform="scale(0.001,-0.001)" />

<path d="M275,-20L578,891H299c0,0,-84,0,-120,-20c0,0,-63,-35,-101,-106l-21,8l97,239H696V983L359,-20Z" 
id="f1_r"
transform="scale(0.001,-0.001)" />

<path d="M26,0V27H62c0,0,63,0,91,37c0,0,18,24,18,115V833c0,0,0,77,-10,102c0,0,-7,18,-30,32c0,0,-33,18,-69,18H26v27H459V985H422c0,0,-35,0,-67,-17c0,0,-23,-12,-32,-36c0,0,-9,-25,-9,-99V542H784V833c0,0,0,77,-10,102c0,0,-8,18,-31,32c0,0,-33,18,-68,18H639v27h432V985h-36c0,0,-36,0,-68,-17c0,0,-24,-12,-32,-36c0,0,-9,-25,-9,-99V179c0,0,0,-77,10,-102c0,0,7,-18,31,-32c0,0,32,-18,68,-18h36V0H639V27h36c0,0,62,0,90,37c0,0,19,24,19,115V487H314V179c0,0,0,-77,9,-102c0,0,8,-18,32,-32c0,0,32,-18,67,-18h37V0Z" 
id="f1_18"
transform="scale(0.001,-0.001)" />

<path d="M328,-20c0,0,-34,0,-58,24c0,0,-25,24,-25,58c0,0,0,35,25,59c0,0,24,24,58,24c0,0,34,0,59,-24c0,0,24,-24,24,-59c0,0,0,-34,-25,-58c0,0,-24,-24,-58,-24ZM308,238c0,0,5,94,23,155c0,0,18,62,76,172c0,0,44,84,58,129c0,0,13,46,13,92c0,0,0,95,-50,150c0,0,-50,56,-123,56c0,0,-65,0,-102,-30c0,0,-38,-31,-38,-67c0,0,0,-27,23,-67c0,0,22,-41,22,-62c0,0,0,-26,-17,-45c0,0,-17,-18,-42,-18c0,0,-31,0,-57,31c0,0,-26,31,-26,86c0,0,0,85,73,150c0,0,72,64,196,64c0,0,153,0,225,-89c0,0,54,-66,54,-146c0,0,0,-54,-24,-112c0,0,-25,-57,-92,-135C500,552,391,430,367,378c0,0,-24,-51,-29,-140Z" 
id="f1_z"
transform="scale(0.001,-0.001)" />

<path d="M31,0V27H67c0,0,36,0,68,18c0,0,24,12,32,36c0,0,9,24,9,98V836c0,0,0,96,-19,119c0,0,-27,30,-90,30H31v27H811L822,790H792c0,0,-15,80,-34,110c0,0,-19,30,-57,46c0,0,-29,11,-105,11H319V557H541c0,0,87,0,116,26c0,0,39,35,44,121h27V352H701c0,0,-11,74,-21,95c0,0,-14,26,-45,41c0,0,-30,15,-94,15H319V168c0,0,0,-67,6,-81c0,0,6,-15,21,-24c0,0,15,-8,56,-8H574c0,0,86,0,124,12c0,0,39,12,75,47c0,0,46,46,95,139h30L811,0Z" 
id="f1_15"
transform="scale(0.001,-0.001)" />

<path d="M435,502c0,0,78,0,134,60c0,0,57,60,57,155c0,0,0,66,-27,122c0,0,-27,56,-76,84c0,0,-50,28,-112,28c0,0,-38,0,-98,-14V517c0,0,39,-8,70,-12c0,0,31,-3,52,-3ZM25,0V27H63c0,0,65,0,92,42c0,0,15,23,15,110V833c0,0,0,96,-20,119c0,0,-29,33,-87,33H25v27H396c0,0,136,0,214,-28c0,0,78,-28,132,-94c0,0,54,-67,54,-158c0,0,0,-124,-82,-202c0,0,-82,-77,-231,-77c0,0,-36,0,-79,5c0,0,-43,5,-91,16V179c0,0,0,-96,21,-119c0,0,28,-33,85,-33h39V0Z" 
id="f1_1g"
transform="scale(0.001,-0.001)" />

<path d="M-13,338v55H1541V338Z" 
id="f1_4z"
transform="scale(0.001,-0.001)" />

<path d="M545,30c0,0,143,0,236,111c0,0,93,111,93,351c0,0,0,259,-103,386c0,0,-82,102,-226,102c0,0,-136,0,-218,-101C327,879,225,754,225,512c0,0,0,-247,106,-380c0,0,81,-102,214,-102Zm2,-51c0,0,-209,0,-351,147C196,126,54,274,54,510c0,0,0,240,164,393c0,0,142,131,341,131c0,0,197,0,341,-149c0,0,145,-149,145,-373c0,0,0,-230,-146,-382C899,130,754,-21,547,-21Z" 
id="f1_1f"
transform="scale(0.001,-0.001)" />

<path d="M197,0V27c0,0,71,2,92,13c0,0,21,10,29,29c0,0,9,18,9,109V725c0,0,0,110,-8,141c0,0,-5,24,-19,35c0,0,-14,11,-33,11c0,0,-28,0,-77,-23l-11,23l246,121h25V178c0,0,0,-85,7,-106c0,0,7,-21,29,-32c0,0,23,-11,91,-13V0Z" 
id="f1_l"
transform="scale(0.001,-0.001)" />

<path d="M25,0V27H61c0,0,64,0,91,39c0,0,16,24,16,109V837c0,0,0,67,-15,97c0,0,-10,22,-38,36c0,0,-28,15,-90,15v27H312L678,220l363,792h285V985h-35c0,0,-64,0,-91,-39c0,0,-17,-24,-17,-109V175c0,0,0,-93,21,-116c0,0,28,-32,87,-32h35V0H898V27h36c0,0,64,0,90,39c0,0,17,24,17,109V852L649,0H625L234,852V175c0,0,0,-93,20,-116c0,0,27,-32,87,-32h35V0Z" 
id="f1_1d"
transform="scale(0.001,-0.001)" />

<path d="M485,53c0,0,135,0,206,61c0,0,71,60,71,150c0,0,0,59,-32,114c0,0,-33,54,-105,85c0,0,-72,32,-179,32c0,0,-46,0,-79,-2c0,0,-33,-1,-53,-5V73c0,0,86,-20,171,-20ZM455,547c0,0,109,0,164,23c0,0,55,24,84,72c0,0,29,49,29,106c0,0,0,89,-72,151c0,0,-73,63,-212,63c0,0,-74,0,-134,-16V557c0,0,27,-5,63,-8c0,0,35,-2,78,-2ZM24,0V27H63c0,0,63,0,91,41c0,0,17,26,17,111V833c0,0,0,94,-22,119c0,0,-29,33,-86,33H24v27H462c0,0,122,0,196,-18c0,0,112,-27,171,-95c0,0,59,-68,59,-157c0,0,0,-76,-46,-136c0,0,-47,-60,-137,-89c0,0,105,-23,157,-72c0,0,73,-69,73,-168c0,0,0,-75,-48,-145C887,132,839,63,756,32C756,32,673,0,502,0Z" 
id="f1_12"
transform="scale(0.001,-0.001)" />

<path d="M388,102V457H29v98H388V913h98V555H845V457H486V102Z" 
id="f4_f"
transform="scale(0.001,-0.001)" />

<path d="M253,0V27h36c0,0,64,0,91,39c0,0,16,24,16,109V948H274c0,0,-71,0,-100,-10c0,0,-39,-14,-67,-54c0,0,-27,-41,-33,-109H46l12,237H883L894,775H865c0,0,-8,62,-22,89c0,0,-23,43,-61,64c0,0,-39,20,-101,20H539V175c0,0,0,-93,20,-116c0,0,28,-32,87,-32h36V0Z" 
id="f1_1k"
transform="scale(0.001,-0.001)" />

<path d="M30,0V27L485,632H260c0,0,-72,0,-94,-10c0,0,-22,-9,-36,-35c0,0,-20,-37,-23,-92H76l5,188H654V656L196,51H445c0,0,79,0,106,13c0,0,28,13,45,46c0,0,12,23,21,100h25L634,0Z" 
id="f1_2m"
transform="scale(0.001,-0.001)" />

<path d="M25,0V27H61c0,0,63,0,91,37c0,0,18,24,18,115V833c0,0,0,77,-10,102c0,0,-7,18,-30,32c0,0,-33,18,-69,18H25v27H456V985H421c0,0,-35,0,-67,-18c0,0,-23,-11,-32,-35c0,0,-9,-24,-9,-99V523c0,0,15,15,102,95c0,0,222,203,268,271c0,0,20,30,20,52c0,0,0,18,-15,31c0,0,-16,13,-53,13H611v27H983V985c0,0,-33,-1,-60,-9c0,0,-26,-9,-65,-32c0,0,-39,-24,-96,-76c0,0,-16,-15,-151,-153L456,561L829,190c0,0,92,-92,157,-125c0,0,65,-33,130,-38V0H634V27c0,0,43,0,62,15c0,0,19,15,19,32c0,0,0,18,-7,33c0,0,-7,14,-46,53L313,506V179c0,0,0,-77,10,-102c0,0,7,-18,31,-32c0,0,32,-18,67,-18h35V0Z" 
id="f1_1b"
transform="scale(0.001,-0.001)" />

<path d="M2,-20L369,1061h59L62,-20Z" 
id="f1_j"
transform="scale(0.001,-0.001)" />

<path d="M491,-305c0,0,-180,60,-305,247C186,-58,61,127,61,368c0,0,0,239,124,423c0,0,125,184,306,243v-34c0,0,-78,-50,-115,-99c0,0,-50,-67,-79,-172c0,0,-36,-131,-36,-365c0,0,0,-221,33,-343c0,0,32,-122,88,-197c0,0,39,-52,109,-92v-37Z" 
id="f4_c"
transform="scale(0.001,-0.001)" />

<path d="M597,33c0,0,77,0,129,38c0,0,65,47,102,152c0,0,36,105,36,273c0,0,0,201,-37,300c0,0,-37,100,-95,141c0,0,-58,41,-133,41c0,0,-139,0,-211,-142c0,0,-59,-116,-59,-334c0,0,0,-259,91,-382c0,0,63,-87,177,-87Zm3,-54c0,0,-273,0,-423,183C177,162,60,309,60,509c0,0,0,225,153,375c0,0,144,142,358,142c6,0,12,0,19,0c0,0,3,0,8,0c42,0,250,-7,385,-141c0,0,151,-150,151,-375c0,0,0,-193,-113,-339c0,0,-149,-192,-421,-192Z" 
id="f4_1f"
transform="scale(0.001,-0.001)" />

<path d="M448,514c0,0,104,0,155,19c0,0,52,19,81,69c0,0,30,50,30,129c0,0,0,116,-54,171c0,0,-54,55,-174,55H406V514ZM28,0V27c0,0,70,0,95,13c0,0,25,14,35,35c0,0,10,21,10,103V834c0,0,0,82,-10,104c0,0,-10,21,-35,34c0,0,-25,13,-95,13v27H498c0,0,184,0,269,-25c0,0,85,-26,138,-94c0,0,54,-68,54,-160c0,0,0,-112,-80,-185c0,0,-52,-46,-145,-69L977,135c0,0,48,-66,68,-82c0,0,31,-23,72,-26V0H798L472,462H406V178c0,0,0,-82,10,-104c0,0,10,-21,35,-34c0,0,25,-13,95,-13V0Z" 
id="f4_1i"
transform="scale(0.001,-0.001)" />

<path d="M19,-305v34c0,0,77,52,114,100c0,0,50,67,79,171c0,0,36,131,36,365c0,0,0,221,-33,343c0,0,-32,122,-88,198c0,0,-39,52,-108,91v37c0,0,179,-60,304,-246c0,0,125,-186,125,-428c0,0,0,-238,-125,-421c0,0,-125,-184,-304,-244Z" 
id="f4_d"
transform="scale(0.001,-0.001)" />

<path d="M46,0c0,0,-2,48,16,93c0,0,27,74,88,146c0,0,61,71,176,165c0,0,178,146,241,232c0,0,63,85,63,161c0,0,0,80,-57,135c0,0,-58,55,-149,55c0,0,-98,0,-156,-59c0,0,-58,-58,-59,-160L71,782c0,0,15,154,107,235c0,0,93,81,249,81c0,0,157,0,249,-87c0,0,92,-88,92,-217c0,0,0,-65,-27,-129c0,0,-27,-63,-89,-133c0,0,-62,-70,-207,-193C445,339,324,238,290,202c0,0,-35,-36,-57,-73H770V0Z" 
id="f5_m"
transform="scale(0.001,-0.001)" />


</defs>
</svg>